<?xml version="1.0" encoding="utf-8" standalone="no"?>
<!DOCTYPE svg PUBLIC "-//W3C//DTD SVG 1.1//EN"
  "http://www.w3.org/Graphics/SVG/1.1/DTD/svg11.dtd">
<svg xmlns:xlink="http://www.w3.org/1999/xlink" width="1440pt" height="792pt" viewBox="0 0 1440 792" xmlns="http://www.w3.org/2000/svg" version="1.1">
 <metadata>
  <rdf:RDF xmlns:dc="http://purl.org/dc/elements/1.1/" xmlns:cc="http://creativecommons.org/ns#" xmlns:rdf="http://www.w3.org/1999/02/22-rdf-syntax-ns#">
   <cc:Work>
    <dc:type rdf:resource="http://purl.org/dc/dcmitype/StillImage"/>
    <dc:date>2024-07-22T13:38:33.845212</dc:date>
    <dc:format>image/svg+xml</dc:format>
    <dc:creator>
     <cc:Agent>
      <dc:title>Matplotlib v3.9.1, https://matplotlib.org/</dc:title>
     </cc:Agent>
    </dc:creator>
   </cc:Work>
  </rdf:RDF>
 </metadata>
 <defs>
  <style type="text/css">*{stroke-linejoin: round; stroke-linecap: butt}</style>
 </defs>
 <g id="figure_1">
  <g id="patch_1">
   <path d="M 0 792 
L 1440 792 
L 1440 0 
L 0 0 
z
" style="fill: #ffffff"/>
  </g>
  <g id="axes_1">
   <g id="patch_2">
    <path d="M 122.12625 343.955901 
L 1428.404843 343.955901 
L 1428.404843 48.69875 
L 122.12625 48.69875 
z
" style="fill: #ffffff"/>
   </g>
   <g id="patch_3">
    <path d="M 145.452653 207.403454 
L 192.10546 207.403454 
L 192.10546 199.782672 
L 145.452653 199.782672 
z
" clip-path="url(#p2cc63f1924)" style="fill: #1f77b4"/>
   </g>
   <g id="patch_4">
    <path d="M 238.758267 207.403454 
L 285.411074 207.403454 
L 285.411074 62.11953 
L 238.758267 62.11953 
z
" clip-path="url(#p2cc63f1924)" style="fill: #1f77b4"/>
   </g>
   <g id="patch_5">
    <path d="M 332.063881 207.403454 
L 378.716688 207.403454 
L 378.716688 206.096687 
L 332.063881 206.096687 
z
" clip-path="url(#p2cc63f1924)" style="fill: #1f77b4"/>
   </g>
   <g id="patch_6">
    <path d="M 425.369495 207.403454 
L 472.022302 207.403454 
L 472.022302 262.898683 
L 425.369495 262.898683 
z
" clip-path="url(#p2cc63f1924)" style="fill: #1f77b4"/>
   </g>
   <g id="patch_7">
    <path d="M 518.675109 207.403454 
L 565.327916 207.403454 
L 565.327916 288.802738 
L 518.675109 288.802738 
z
" clip-path="url(#p2cc63f1924)" style="fill: #1f77b4"/>
   </g>
   <g id="patch_8">
    <path d="M 611.980723 207.403454 
L 658.633529 207.403454 
L 658.633529 95.757254 
L 611.980723 95.757254 
z
" clip-path="url(#p2cc63f1924)" style="fill: #1f77b4"/>
   </g>
   <g id="patch_9">
    <path d="M 705.286336 207.403454 
L 751.939143 207.403454 
L 751.939143 173.057121 
L 705.286336 173.057121 
z
" clip-path="url(#p2cc63f1924)" style="fill: #1f77b4"/>
   </g>
   <g id="patch_10">
    <path d="M 798.59195 207.403454 
L 845.244757 207.403454 
L 845.244757 157.747431 
L 798.59195 157.747431 
z
" clip-path="url(#p2cc63f1924)" style="fill: #1f77b4"/>
   </g>
   <g id="patch_11">
    <path d="M 891.897564 207.403454 
L 938.550371 207.403454 
L 938.550371 86.008462 
L 891.897564 86.008462 
z
" clip-path="url(#p2cc63f1924)" style="fill: #1f77b4"/>
   </g>
   <g id="patch_12">
    <path d="M 985.203178 207.403454 
L 1031.855985 207.403454 
L 1031.855985 159.054004 
L 985.203178 159.054004 
z
" clip-path="url(#p2cc63f1924)" style="fill: #1f77b4"/>
   </g>
   <g id="patch_13">
    <path d="M 1078.508792 207.403454 
L 1125.161599 207.403454 
L 1125.161599 265.761209 
L 1078.508792 265.761209 
z
" clip-path="url(#p2cc63f1924)" style="fill: #1f77b4"/>
   </g>
   <g id="patch_14">
    <path d="M 1171.814405 207.403454 
L 1218.467212 207.403454 
L 1218.467212 330.535121 
L 1171.814405 330.535121 
z
" clip-path="url(#p2cc63f1924)" style="fill: #1f77b4"/>
   </g>
   <g id="patch_15">
    <path d="M 1265.120019 207.403454 
L 1311.772826 207.403454 
L 1311.772826 136.357657 
L 1265.120019 136.357657 
z
" clip-path="url(#p2cc63f1924)" style="fill: #1f77b4"/>
   </g>
   <g id="patch_16">
    <path d="M 1358.425633 207.403454 
L 1405.07844 207.403454 
L 1405.07844 324.595558 
L 1358.425633 324.595558 
z
" clip-path="url(#p2cc63f1924)" style="fill: #1f77b4"/>
   </g>
   <g id="matplotlib.axis_1">
    <g id="xtick_1">
     <g id="line2d_1">
      <defs>
       <path id="m70e33eb55b" d="M 0 0 
L 0 3.5 
" style="stroke: #000000; stroke-width: 0.8"/>
      </defs>
      <g>
       <use xlink:href="#m70e33eb55b" x="168.779057" y="343.955901" style="stroke: #000000; stroke-width: 0.8"/>
      </g>
     </g>
    </g>
    <g id="xtick_2">
     <g id="line2d_2">
      <g>
       <use xlink:href="#m70e33eb55b" x="262.084671" y="343.955901" style="stroke: #000000; stroke-width: 0.8"/>
      </g>
     </g>
    </g>
    <g id="xtick_3">
     <g id="line2d_3">
      <g>
       <use xlink:href="#m70e33eb55b" x="355.390285" y="343.955901" style="stroke: #000000; stroke-width: 0.8"/>
      </g>
     </g>
    </g>
    <g id="xtick_4">
     <g id="line2d_4">
      <g>
       <use xlink:href="#m70e33eb55b" x="448.695898" y="343.955901" style="stroke: #000000; stroke-width: 0.8"/>
      </g>
     </g>
    </g>
    <g id="xtick_5">
     <g id="line2d_5">
      <g>
       <use xlink:href="#m70e33eb55b" x="542.001512" y="343.955901" style="stroke: #000000; stroke-width: 0.8"/>
      </g>
     </g>
    </g>
    <g id="xtick_6">
     <g id="line2d_6">
      <g>
       <use xlink:href="#m70e33eb55b" x="635.307126" y="343.955901" style="stroke: #000000; stroke-width: 0.8"/>
      </g>
     </g>
    </g>
    <g id="xtick_7">
     <g id="line2d_7">
      <g>
       <use xlink:href="#m70e33eb55b" x="728.61274" y="343.955901" style="stroke: #000000; stroke-width: 0.8"/>
      </g>
     </g>
    </g>
    <g id="xtick_8">
     <g id="line2d_8">
      <g>
       <use xlink:href="#m70e33eb55b" x="821.918354" y="343.955901" style="stroke: #000000; stroke-width: 0.8"/>
      </g>
     </g>
    </g>
    <g id="xtick_9">
     <g id="line2d_9">
      <g>
       <use xlink:href="#m70e33eb55b" x="915.223967" y="343.955901" style="stroke: #000000; stroke-width: 0.8"/>
      </g>
     </g>
    </g>
    <g id="xtick_10">
     <g id="line2d_10">
      <g>
       <use xlink:href="#m70e33eb55b" x="1008.529581" y="343.955901" style="stroke: #000000; stroke-width: 0.8"/>
      </g>
     </g>
    </g>
    <g id="xtick_11">
     <g id="line2d_11">
      <g>
       <use xlink:href="#m70e33eb55b" x="1101.835195" y="343.955901" style="stroke: #000000; stroke-width: 0.8"/>
      </g>
     </g>
    </g>
    <g id="xtick_12">
     <g id="line2d_12">
      <g>
       <use xlink:href="#m70e33eb55b" x="1195.140809" y="343.955901" style="stroke: #000000; stroke-width: 0.8"/>
      </g>
     </g>
    </g>
    <g id="xtick_13">
     <g id="line2d_13">
      <g>
       <use xlink:href="#m70e33eb55b" x="1288.446423" y="343.955901" style="stroke: #000000; stroke-width: 0.8"/>
      </g>
     </g>
    </g>
    <g id="xtick_14">
     <g id="line2d_14">
      <g>
       <use xlink:href="#m70e33eb55b" x="1381.752036" y="343.955901" style="stroke: #000000; stroke-width: 0.8"/>
      </g>
     </g>
    </g>
   </g>
   <g id="matplotlib.axis_2">
    <g id="ytick_1">
     <g id="line2d_15">
      <defs>
       <path id="ma601ee9ac3" d="M 0 0 
L -3.5 0 
" style="stroke: #000000; stroke-width: 0.8"/>
      </defs>
      <g>
       <use xlink:href="#ma601ee9ac3" x="122.12625" y="303.446851" style="stroke: #000000; stroke-width: 0.8"/>
      </g>
     </g>
     <g id="text_1">
      <!-- −0.0010 -->
      <g transform="translate(37.059688 310.285445) scale(0.18 -0.18)">
       <defs>
        <path id="DejaVuSans-2212" d="M 678 2272 
L 4684 2272 
L 4684 1741 
L 678 1741 
L 678 2272 
z
" transform="scale(0.015625)"/>
        <path id="DejaVuSans-30" d="M 2034 4250 
Q 1547 4250 1301 3770 
Q 1056 3291 1056 2328 
Q 1056 1369 1301 889 
Q 1547 409 2034 409 
Q 2525 409 2770 889 
Q 3016 1369 3016 2328 
Q 3016 3291 2770 3770 
Q 2525 4250 2034 4250 
z
M 2034 4750 
Q 2819 4750 3233 4129 
Q 3647 3509 3647 2328 
Q 3647 1150 3233 529 
Q 2819 -91 2034 -91 
Q 1250 -91 836 529 
Q 422 1150 422 2328 
Q 422 3509 836 4129 
Q 1250 4750 2034 4750 
z
" transform="scale(0.015625)"/>
        <path id="DejaVuSans-2e" d="M 684 794 
L 1344 794 
L 1344 0 
L 684 0 
L 684 794 
z
" transform="scale(0.015625)"/>
        <path id="DejaVuSans-31" d="M 794 531 
L 1825 531 
L 1825 4091 
L 703 3866 
L 703 4441 
L 1819 4666 
L 2450 4666 
L 2450 531 
L 3481 531 
L 3481 0 
L 794 0 
L 794 531 
z
" transform="scale(0.015625)"/>
       </defs>
       <use xlink:href="#DejaVuSans-2212"/>
       <use xlink:href="#DejaVuSans-30" x="83.789062"/>
       <use xlink:href="#DejaVuSans-2e" x="147.412109"/>
       <use xlink:href="#DejaVuSans-30" x="179.199219"/>
       <use xlink:href="#DejaVuSans-30" x="242.822266"/>
       <use xlink:href="#DejaVuSans-31" x="306.445312"/>
       <use xlink:href="#DejaVuSans-30" x="370.068359"/>
      </g>
     </g>
    </g>
    <g id="ytick_2">
     <g id="line2d_16">
      <g>
       <use xlink:href="#ma601ee9ac3" x="122.12625" y="255.425153" style="stroke: #000000; stroke-width: 0.8"/>
      </g>
     </g>
     <g id="text_2">
      <!-- −0.0005 -->
      <g transform="translate(37.059688 262.263747) scale(0.18 -0.18)">
       <defs>
        <path id="DejaVuSans-35" d="M 691 4666 
L 3169 4666 
L 3169 4134 
L 1269 4134 
L 1269 2991 
Q 1406 3038 1543 3061 
Q 1681 3084 1819 3084 
Q 2600 3084 3056 2656 
Q 3513 2228 3513 1497 
Q 3513 744 3044 326 
Q 2575 -91 1722 -91 
Q 1428 -91 1123 -41 
Q 819 9 494 109 
L 494 744 
Q 775 591 1075 516 
Q 1375 441 1709 441 
Q 2250 441 2565 725 
Q 2881 1009 2881 1497 
Q 2881 1984 2565 2268 
Q 2250 2553 1709 2553 
Q 1456 2553 1204 2497 
Q 953 2441 691 2322 
L 691 4666 
z
" transform="scale(0.015625)"/>
       </defs>
       <use xlink:href="#DejaVuSans-2212"/>
       <use xlink:href="#DejaVuSans-30" x="83.789062"/>
       <use xlink:href="#DejaVuSans-2e" x="147.412109"/>
       <use xlink:href="#DejaVuSans-30" x="179.199219"/>
       <use xlink:href="#DejaVuSans-30" x="242.822266"/>
       <use xlink:href="#DejaVuSans-30" x="306.445312"/>
       <use xlink:href="#DejaVuSans-35" x="370.068359"/>
      </g>
     </g>
    </g>
    <g id="ytick_3">
     <g id="line2d_17">
      <g>
       <use xlink:href="#ma601ee9ac3" x="122.12625" y="207.403454" style="stroke: #000000; stroke-width: 0.8"/>
      </g>
     </g>
     <g id="text_3">
      <!-- 0.0000 -->
      <g transform="translate(52.143125 214.242048) scale(0.18 -0.18)">
       <use xlink:href="#DejaVuSans-30"/>
       <use xlink:href="#DejaVuSans-2e" x="63.623047"/>
       <use xlink:href="#DejaVuSans-30" x="95.410156"/>
       <use xlink:href="#DejaVuSans-30" x="159.033203"/>
       <use xlink:href="#DejaVuSans-30" x="222.65625"/>
       <use xlink:href="#DejaVuSans-30" x="286.279297"/>
      </g>
     </g>
    </g>
    <g id="ytick_4">
     <g id="line2d_18">
      <g>
       <use xlink:href="#ma601ee9ac3" x="122.12625" y="159.381756" style="stroke: #000000; stroke-width: 0.8"/>
      </g>
     </g>
     <g id="text_4">
      <!-- 0.0005 -->
      <g transform="translate(52.143125 166.22035) scale(0.18 -0.18)">
       <use xlink:href="#DejaVuSans-30"/>
       <use xlink:href="#DejaVuSans-2e" x="63.623047"/>
       <use xlink:href="#DejaVuSans-30" x="95.410156"/>
       <use xlink:href="#DejaVuSans-30" x="159.033203"/>
       <use xlink:href="#DejaVuSans-30" x="222.65625"/>
       <use xlink:href="#DejaVuSans-35" x="286.279297"/>
      </g>
     </g>
    </g>
    <g id="ytick_5">
     <g id="line2d_19">
      <g>
       <use xlink:href="#ma601ee9ac3" x="122.12625" y="111.360058" style="stroke: #000000; stroke-width: 0.8"/>
      </g>
     </g>
     <g id="text_5">
      <!-- 0.0010 -->
      <g transform="translate(52.143125 118.198652) scale(0.18 -0.18)">
       <use xlink:href="#DejaVuSans-30"/>
       <use xlink:href="#DejaVuSans-2e" x="63.623047"/>
       <use xlink:href="#DejaVuSans-30" x="95.410156"/>
       <use xlink:href="#DejaVuSans-30" x="159.033203"/>
       <use xlink:href="#DejaVuSans-31" x="222.65625"/>
       <use xlink:href="#DejaVuSans-30" x="286.279297"/>
      </g>
     </g>
    </g>
    <g id="ytick_6">
     <g id="line2d_20">
      <g>
       <use xlink:href="#ma601ee9ac3" x="122.12625" y="63.33836" style="stroke: #000000; stroke-width: 0.8"/>
      </g>
     </g>
     <g id="text_6">
      <!-- 0.0015 -->
      <g transform="translate(52.143125 70.176953) scale(0.18 -0.18)">
       <use xlink:href="#DejaVuSans-30"/>
       <use xlink:href="#DejaVuSans-2e" x="63.623047"/>
       <use xlink:href="#DejaVuSans-30" x="95.410156"/>
       <use xlink:href="#DejaVuSans-30" x="159.033203"/>
       <use xlink:href="#DejaVuSans-31" x="222.65625"/>
       <use xlink:href="#DejaVuSans-35" x="286.279297"/>
      </g>
     </g>
    </g>
    <g id="text_7">
     <!-- dx [m] -->
     <g transform="translate(28.276406 234.264747) rotate(-90) scale(0.23 -0.23)">
      <defs>
       <path id="DejaVuSans-64" d="M 2906 2969 
L 2906 4863 
L 3481 4863 
L 3481 0 
L 2906 0 
L 2906 525 
Q 2725 213 2448 61 
Q 2172 -91 1784 -91 
Q 1150 -91 751 415 
Q 353 922 353 1747 
Q 353 2572 751 3078 
Q 1150 3584 1784 3584 
Q 2172 3584 2448 3432 
Q 2725 3281 2906 2969 
z
M 947 1747 
Q 947 1113 1208 752 
Q 1469 391 1925 391 
Q 2381 391 2643 752 
Q 2906 1113 2906 1747 
Q 2906 2381 2643 2742 
Q 2381 3103 1925 3103 
Q 1469 3103 1208 2742 
Q 947 2381 947 1747 
z
" transform="scale(0.015625)"/>
       <path id="DejaVuSans-78" d="M 3513 3500 
L 2247 1797 
L 3578 0 
L 2900 0 
L 1881 1375 
L 863 0 
L 184 0 
L 1544 1831 
L 300 3500 
L 978 3500 
L 1906 2253 
L 2834 3500 
L 3513 3500 
z
" transform="scale(0.015625)"/>
       <path id="DejaVuSans-20" transform="scale(0.015625)"/>
       <path id="DejaVuSans-5b" d="M 550 4863 
L 1875 4863 
L 1875 4416 
L 1125 4416 
L 1125 -397 
L 1875 -397 
L 1875 -844 
L 550 -844 
L 550 4863 
z
" transform="scale(0.015625)"/>
       <path id="DejaVuSans-6d" d="M 3328 2828 
Q 3544 3216 3844 3400 
Q 4144 3584 4550 3584 
Q 5097 3584 5394 3201 
Q 5691 2819 5691 2113 
L 5691 0 
L 5113 0 
L 5113 2094 
Q 5113 2597 4934 2840 
Q 4756 3084 4391 3084 
Q 3944 3084 3684 2787 
Q 3425 2491 3425 1978 
L 3425 0 
L 2847 0 
L 2847 2094 
Q 2847 2600 2669 2842 
Q 2491 3084 2119 3084 
Q 1678 3084 1418 2786 
Q 1159 2488 1159 1978 
L 1159 0 
L 581 0 
L 581 3500 
L 1159 3500 
L 1159 2956 
Q 1356 3278 1631 3431 
Q 1906 3584 2284 3584 
Q 2666 3584 2933 3390 
Q 3200 3197 3328 2828 
z
" transform="scale(0.015625)"/>
       <path id="DejaVuSans-5d" d="M 1947 4863 
L 1947 -844 
L 622 -844 
L 622 -397 
L 1369 -397 
L 1369 4416 
L 622 4416 
L 622 4863 
L 1947 4863 
z
" transform="scale(0.015625)"/>
      </defs>
      <use xlink:href="#DejaVuSans-64"/>
      <use xlink:href="#DejaVuSans-78" x="63.476562"/>
      <use xlink:href="#DejaVuSans-20" x="122.65625"/>
      <use xlink:href="#DejaVuSans-5b" x="154.443359"/>
      <use xlink:href="#DejaVuSans-6d" x="193.457031"/>
      <use xlink:href="#DejaVuSans-5d" x="290.869141"/>
     </g>
    </g>
   </g>
   <g id="patch_17">
    <path d="M 122.12625 343.955901 
L 122.12625 48.69875 
" style="fill: none; stroke: #000000; stroke-width: 0.8; stroke-linejoin: miter; stroke-linecap: square"/>
   </g>
   <g id="patch_18">
    <path d="M 1428.404843 343.955901 
L 1428.404843 48.69875 
" style="fill: none; stroke: #000000; stroke-width: 0.8; stroke-linejoin: miter; stroke-linecap: square"/>
   </g>
   <g id="patch_19">
    <path d="M 122.12625 343.955901 
L 1428.404843 343.955901 
" style="fill: none; stroke: #000000; stroke-width: 0.8; stroke-linejoin: miter; stroke-linecap: square"/>
   </g>
   <g id="patch_20">
    <path d="M 122.12625 48.69875 
L 1428.404843 48.69875 
" style="fill: none; stroke: #000000; stroke-width: 0.8; stroke-linejoin: miter; stroke-linecap: square"/>
   </g>
   <g id="legend_1">
    <g id="patch_21">
     <path d="M 1305.363593 103.12625 
L 1411.604843 103.12625 
Q 1416.404843 103.12625 1416.404843 98.32625 
L 1416.404843 65.49875 
Q 1416.404843 60.69875 1411.604843 60.69875 
L 1305.363593 60.69875 
Q 1300.563593 60.69875 1300.563593 65.49875 
L 1300.563593 98.32625 
Q 1300.563593 103.12625 1305.363593 103.12625 
z
" style="fill: #ffffff; opacity: 0.8; stroke: #cccccc; stroke-linejoin: miter"/>
    </g>
    <g id="patch_22">
     <path d="M 1310.163593 88.535 
L 1358.163593 88.535 
L 1358.163593 71.735 
L 1310.163593 71.735 
z
" style="fill: #1f77b4"/>
    </g>
    <g id="text_8">
     <!-- dx -->
     <g transform="translate(1377.363593 88.535) scale(0.24 -0.24)">
      <use xlink:href="#DejaVuSans-64"/>
      <use xlink:href="#DejaVuSans-78" x="63.476562"/>
     </g>
    </g>
   </g>
  </g>
  <g id="axes_2">
   <g id="patch_23">
    <path d="M 122.12625 653.513052 
L 1428.404843 653.513052 
L 1428.404843 358.255901 
L 122.12625 358.255901 
z
" style="fill: #ffffff"/>
   </g>
   <g id="patch_24">
    <path d="M 145.452653 504.246017 
L 192.10546 504.246017 
L 192.10546 541.012413 
L 145.452653 541.012413 
z
" clip-path="url(#p13b42d055c)" style="fill: #ff7f0e"/>
   </g>
   <g id="patch_25">
    <path d="M 238.758267 504.246017 
L 285.411074 504.246017 
L 285.411074 560.363488 
L 238.758267 560.363488 
z
" clip-path="url(#p13b42d055c)" style="fill: #ff7f0e"/>
   </g>
   <g id="patch_26">
    <path d="M 332.063881 504.246017 
L 378.716688 504.246017 
L 378.716688 371.676681 
L 332.063881 371.676681 
z
" clip-path="url(#p13b42d055c)" style="fill: #ff7f0e"/>
   </g>
   <g id="patch_27">
    <path d="M 425.369495 504.246017 
L 472.022302 504.246017 
L 472.022302 501.674493 
L 425.369495 501.674493 
z
" clip-path="url(#p13b42d055c)" style="fill: #ff7f0e"/>
   </g>
   <g id="patch_28">
    <path d="M 518.675109 504.246017 
L 565.327916 504.246017 
L 565.327916 500.837475 
L 518.675109 500.837475 
z
" clip-path="url(#p13b42d055c)" style="fill: #ff7f0e"/>
   </g>
   <g id="patch_29">
    <path d="M 611.980723 504.246017 
L 658.633529 504.246017 
L 658.633529 564.885715 
L 611.980723 564.885715 
z
" clip-path="url(#p13b42d055c)" style="fill: #ff7f0e"/>
   </g>
   <g id="patch_30">
    <path d="M 705.286336 504.246017 
L 751.939143 504.246017 
L 751.939143 421.046945 
L 705.286336 421.046945 
z
" clip-path="url(#p13b42d055c)" style="fill: #ff7f0e"/>
   </g>
   <g id="patch_31">
    <path d="M 798.59195 504.246017 
L 845.244757 504.246017 
L 845.244757 582.852939 
L 798.59195 582.852939 
z
" clip-path="url(#p13b42d055c)" style="fill: #ff7f0e"/>
   </g>
   <g id="patch_32">
    <path d="M 891.897564 504.246017 
L 938.550371 504.246017 
L 938.550371 467.068653 
L 891.897564 467.068653 
z
" clip-path="url(#p13b42d055c)" style="fill: #ff7f0e"/>
   </g>
   <g id="patch_33">
    <path d="M 985.203178 504.246017 
L 1031.855985 504.246017 
L 1031.855985 513.254761 
L 985.203178 513.254761 
z
" clip-path="url(#p13b42d055c)" style="fill: #ff7f0e"/>
   </g>
   <g id="patch_34">
    <path d="M 1078.508792 504.246017 
L 1125.161599 504.246017 
L 1125.161599 578.229101 
L 1078.508792 578.229101 
z
" clip-path="url(#p13b42d055c)" style="fill: #ff7f0e"/>
   </g>
   <g id="patch_35">
    <path d="M 1171.814405 504.246017 
L 1218.467212 504.246017 
L 1218.467212 483.330674 
L 1171.814405 483.330674 
z
" clip-path="url(#p13b42d055c)" style="fill: #ff7f0e"/>
   </g>
   <g id="patch_36">
    <path d="M 1265.120019 504.246017 
L 1311.772826 504.246017 
L 1311.772826 640.092272 
L 1265.120019 640.092272 
z
" clip-path="url(#p13b42d055c)" style="fill: #ff7f0e"/>
   </g>
   <g id="patch_37">
    <path d="M 1358.425633 504.246017 
L 1405.07844 504.246017 
L 1405.07844 510.868082 
L 1358.425633 510.868082 
z
" clip-path="url(#p13b42d055c)" style="fill: #ff7f0e"/>
   </g>
   <g id="matplotlib.axis_3">
    <g id="xtick_15">
     <g id="line2d_21">
      <g>
       <use xlink:href="#m70e33eb55b" x="168.779057" y="653.513052" style="stroke: #000000; stroke-width: 0.8"/>
      </g>
     </g>
     <g id="text_9">
      <!-- mqml.6l1.b1 -->
      <g transform="translate(132.084855 750.596909) rotate(-45) scale(0.18 -0.18)">
       <defs>
        <path id="DejaVuSans-71" d="M 947 1747 
Q 947 1113 1208 752 
Q 1469 391 1925 391 
Q 2381 391 2643 752 
Q 2906 1113 2906 1747 
Q 2906 2381 2643 2742 
Q 2381 3103 1925 3103 
Q 1469 3103 1208 2742 
Q 947 2381 947 1747 
z
M 2906 525 
Q 2725 213 2448 61 
Q 2172 -91 1784 -91 
Q 1150 -91 751 415 
Q 353 922 353 1747 
Q 353 2572 751 3078 
Q 1150 3584 1784 3584 
Q 2172 3584 2448 3432 
Q 2725 3281 2906 2969 
L 2906 3500 
L 3481 3500 
L 3481 -1331 
L 2906 -1331 
L 2906 525 
z
" transform="scale(0.015625)"/>
        <path id="DejaVuSans-6c" d="M 603 4863 
L 1178 4863 
L 1178 0 
L 603 0 
L 603 4863 
z
" transform="scale(0.015625)"/>
        <path id="DejaVuSans-36" d="M 2113 2584 
Q 1688 2584 1439 2293 
Q 1191 2003 1191 1497 
Q 1191 994 1439 701 
Q 1688 409 2113 409 
Q 2538 409 2786 701 
Q 3034 994 3034 1497 
Q 3034 2003 2786 2293 
Q 2538 2584 2113 2584 
z
M 3366 4563 
L 3366 3988 
Q 3128 4100 2886 4159 
Q 2644 4219 2406 4219 
Q 1781 4219 1451 3797 
Q 1122 3375 1075 2522 
Q 1259 2794 1537 2939 
Q 1816 3084 2150 3084 
Q 2853 3084 3261 2657 
Q 3669 2231 3669 1497 
Q 3669 778 3244 343 
Q 2819 -91 2113 -91 
Q 1303 -91 875 529 
Q 447 1150 447 2328 
Q 447 3434 972 4092 
Q 1497 4750 2381 4750 
Q 2619 4750 2861 4703 
Q 3103 4656 3366 4563 
z
" transform="scale(0.015625)"/>
        <path id="DejaVuSans-62" d="M 3116 1747 
Q 3116 2381 2855 2742 
Q 2594 3103 2138 3103 
Q 1681 3103 1420 2742 
Q 1159 2381 1159 1747 
Q 1159 1113 1420 752 
Q 1681 391 2138 391 
Q 2594 391 2855 752 
Q 3116 1113 3116 1747 
z
M 1159 2969 
Q 1341 3281 1617 3432 
Q 1894 3584 2278 3584 
Q 2916 3584 3314 3078 
Q 3713 2572 3713 1747 
Q 3713 922 3314 415 
Q 2916 -91 2278 -91 
Q 1894 -91 1617 61 
Q 1341 213 1159 525 
L 1159 0 
L 581 0 
L 581 4863 
L 1159 4863 
L 1159 2969 
z
" transform="scale(0.015625)"/>
       </defs>
       <use xlink:href="#DejaVuSans-6d"/>
       <use xlink:href="#DejaVuSans-71" x="97.412109"/>
       <use xlink:href="#DejaVuSans-6d" x="160.888672"/>
       <use xlink:href="#DejaVuSans-6c" x="258.300781"/>
       <use xlink:href="#DejaVuSans-2e" x="286.083984"/>
       <use xlink:href="#DejaVuSans-36" x="317.871094"/>
       <use xlink:href="#DejaVuSans-6c" x="381.494141"/>
       <use xlink:href="#DejaVuSans-31" x="409.277344"/>
       <use xlink:href="#DejaVuSans-2e" x="472.900391"/>
       <use xlink:href="#DejaVuSans-62" x="504.6875"/>
       <use xlink:href="#DejaVuSans-31" x="568.164062"/>
      </g>
     </g>
    </g>
    <g id="xtick_16">
     <g id="line2d_22">
      <g>
       <use xlink:href="#m70e33eb55b" x="262.084671" y="653.513052" style="stroke: #000000; stroke-width: 0.8"/>
      </g>
     </g>
     <g id="text_10">
      <!-- mqml.5l1.b1 -->
      <g transform="translate(225.390469 750.596909) rotate(-45) scale(0.18 -0.18)">
       <use xlink:href="#DejaVuSans-6d"/>
       <use xlink:href="#DejaVuSans-71" x="97.412109"/>
       <use xlink:href="#DejaVuSans-6d" x="160.888672"/>
       <use xlink:href="#DejaVuSans-6c" x="258.300781"/>
       <use xlink:href="#DejaVuSans-2e" x="286.083984"/>
       <use xlink:href="#DejaVuSans-35" x="317.871094"/>
       <use xlink:href="#DejaVuSans-6c" x="381.494141"/>
       <use xlink:href="#DejaVuSans-31" x="409.277344"/>
       <use xlink:href="#DejaVuSans-2e" x="472.900391"/>
       <use xlink:href="#DejaVuSans-62" x="504.6875"/>
       <use xlink:href="#DejaVuSans-31" x="568.164062"/>
      </g>
     </g>
    </g>
    <g id="xtick_17">
     <g id="line2d_23">
      <g>
       <use xlink:href="#m70e33eb55b" x="355.390285" y="653.513052" style="stroke: #000000; stroke-width: 0.8"/>
      </g>
     </g>
     <g id="text_11">
      <!-- mqy.4l1.b1 -->
      <g transform="translate(323.803162 740.382752) rotate(-45) scale(0.18 -0.18)">
       <defs>
        <path id="DejaVuSans-79" d="M 2059 -325 
Q 1816 -950 1584 -1140 
Q 1353 -1331 966 -1331 
L 506 -1331 
L 506 -850 
L 844 -850 
Q 1081 -850 1212 -737 
Q 1344 -625 1503 -206 
L 1606 56 
L 191 3500 
L 800 3500 
L 1894 763 
L 2988 3500 
L 3597 3500 
L 2059 -325 
z
" transform="scale(0.015625)"/>
        <path id="DejaVuSans-34" d="M 2419 4116 
L 825 1625 
L 2419 1625 
L 2419 4116 
z
M 2253 4666 
L 3047 4666 
L 3047 1625 
L 3713 1625 
L 3713 1100 
L 3047 1100 
L 3047 0 
L 2419 0 
L 2419 1100 
L 313 1100 
L 313 1709 
L 2253 4666 
z
" transform="scale(0.015625)"/>
       </defs>
       <use xlink:href="#DejaVuSans-6d"/>
       <use xlink:href="#DejaVuSans-71" x="97.412109"/>
       <use xlink:href="#DejaVuSans-79" x="160.888672"/>
       <use xlink:href="#DejaVuSans-2e" x="205.818359"/>
       <use xlink:href="#DejaVuSans-34" x="237.605469"/>
       <use xlink:href="#DejaVuSans-6c" x="301.228516"/>
       <use xlink:href="#DejaVuSans-31" x="329.011719"/>
       <use xlink:href="#DejaVuSans-2e" x="392.634766"/>
       <use xlink:href="#DejaVuSans-62" x="424.421875"/>
       <use xlink:href="#DejaVuSans-31" x="487.898438"/>
      </g>
     </g>
    </g>
    <g id="xtick_18">
     <g id="line2d_24">
      <g>
       <use xlink:href="#m70e33eb55b" x="448.695898" y="653.513052" style="stroke: #000000; stroke-width: 0.8"/>
      </g>
     </g>
     <g id="text_12">
      <!-- mqxa.3l1 -->
      <g transform="translate(422.413734 729.772835) rotate(-45) scale(0.18 -0.18)">
       <defs>
        <path id="DejaVuSans-61" d="M 2194 1759 
Q 1497 1759 1228 1600 
Q 959 1441 959 1056 
Q 959 750 1161 570 
Q 1363 391 1709 391 
Q 2188 391 2477 730 
Q 2766 1069 2766 1631 
L 2766 1759 
L 2194 1759 
z
M 3341 1997 
L 3341 0 
L 2766 0 
L 2766 531 
Q 2569 213 2275 61 
Q 1981 -91 1556 -91 
Q 1019 -91 701 211 
Q 384 513 384 1019 
Q 384 1609 779 1909 
Q 1175 2209 1959 2209 
L 2766 2209 
L 2766 2266 
Q 2766 2663 2505 2880 
Q 2244 3097 1772 3097 
Q 1472 3097 1187 3025 
Q 903 2953 641 2809 
L 641 3341 
Q 956 3463 1253 3523 
Q 1550 3584 1831 3584 
Q 2591 3584 2966 3190 
Q 3341 2797 3341 1997 
z
" transform="scale(0.015625)"/>
        <path id="DejaVuSans-33" d="M 2597 2516 
Q 3050 2419 3304 2112 
Q 3559 1806 3559 1356 
Q 3559 666 3084 287 
Q 2609 -91 1734 -91 
Q 1441 -91 1130 -33 
Q 819 25 488 141 
L 488 750 
Q 750 597 1062 519 
Q 1375 441 1716 441 
Q 2309 441 2620 675 
Q 2931 909 2931 1356 
Q 2931 1769 2642 2001 
Q 2353 2234 1838 2234 
L 1294 2234 
L 1294 2753 
L 1863 2753 
Q 2328 2753 2575 2939 
Q 2822 3125 2822 3475 
Q 2822 3834 2567 4026 
Q 2313 4219 1838 4219 
Q 1578 4219 1281 4162 
Q 984 4106 628 3988 
L 628 4550 
Q 988 4650 1302 4700 
Q 1616 4750 1894 4750 
Q 2613 4750 3031 4423 
Q 3450 4097 3450 3541 
Q 3450 3153 3228 2886 
Q 3006 2619 2597 2516 
z
" transform="scale(0.015625)"/>
       </defs>
       <use xlink:href="#DejaVuSans-6d"/>
       <use xlink:href="#DejaVuSans-71" x="97.412109"/>
       <use xlink:href="#DejaVuSans-78" x="160.888672"/>
       <use xlink:href="#DejaVuSans-61" x="220.068359"/>
       <use xlink:href="#DejaVuSans-2e" x="281.347656"/>
       <use xlink:href="#DejaVuSans-33" x="313.134766"/>
       <use xlink:href="#DejaVuSans-6c" x="376.757812"/>
       <use xlink:href="#DejaVuSans-31" x="404.541016"/>
      </g>
     </g>
    </g>
    <g id="xtick_19">
     <g id="line2d_25">
      <g>
       <use xlink:href="#m70e33eb55b" x="542.001512" y="653.513052" style="stroke: #000000; stroke-width: 0.8"/>
      </g>
     </g>
     <g id="text_13">
      <!-- mqxb.b2l1 -->
      <g transform="translate(511.539021 738.133489) rotate(-45) scale(0.18 -0.18)">
       <defs>
        <path id="DejaVuSans-32" d="M 1228 531 
L 3431 531 
L 3431 0 
L 469 0 
L 469 531 
Q 828 903 1448 1529 
Q 2069 2156 2228 2338 
Q 2531 2678 2651 2914 
Q 2772 3150 2772 3378 
Q 2772 3750 2511 3984 
Q 2250 4219 1831 4219 
Q 1534 4219 1204 4116 
Q 875 4013 500 3803 
L 500 4441 
Q 881 4594 1212 4672 
Q 1544 4750 1819 4750 
Q 2544 4750 2975 4387 
Q 3406 4025 3406 3419 
Q 3406 3131 3298 2873 
Q 3191 2616 2906 2266 
Q 2828 2175 2409 1742 
Q 1991 1309 1228 531 
z
" transform="scale(0.015625)"/>
       </defs>
       <use xlink:href="#DejaVuSans-6d"/>
       <use xlink:href="#DejaVuSans-71" x="97.412109"/>
       <use xlink:href="#DejaVuSans-78" x="160.888672"/>
       <use xlink:href="#DejaVuSans-62" x="220.068359"/>
       <use xlink:href="#DejaVuSans-2e" x="283.544922"/>
       <use xlink:href="#DejaVuSans-62" x="315.332031"/>
       <use xlink:href="#DejaVuSans-32" x="378.808594"/>
       <use xlink:href="#DejaVuSans-6c" x="442.431641"/>
       <use xlink:href="#DejaVuSans-31" x="470.214844"/>
      </g>
     </g>
    </g>
    <g id="xtick_20">
     <g id="line2d_26">
      <g>
       <use xlink:href="#m70e33eb55b" x="635.307126" y="653.513052" style="stroke: #000000; stroke-width: 0.8"/>
      </g>
     </g>
     <g id="text_14">
      <!-- mqxb.a2l1 -->
      <g transform="translate(604.98484 737.853077) rotate(-45) scale(0.18 -0.18)">
       <use xlink:href="#DejaVuSans-6d"/>
       <use xlink:href="#DejaVuSans-71" x="97.412109"/>
       <use xlink:href="#DejaVuSans-78" x="160.888672"/>
       <use xlink:href="#DejaVuSans-62" x="220.068359"/>
       <use xlink:href="#DejaVuSans-2e" x="283.544922"/>
       <use xlink:href="#DejaVuSans-61" x="315.332031"/>
       <use xlink:href="#DejaVuSans-32" x="376.611328"/>
       <use xlink:href="#DejaVuSans-6c" x="440.234375"/>
       <use xlink:href="#DejaVuSans-31" x="468.017578"/>
      </g>
     </g>
    </g>
    <g id="xtick_21">
     <g id="line2d_27">
      <g>
       <use xlink:href="#m70e33eb55b" x="728.61274" y="653.513052" style="stroke: #000000; stroke-width: 0.8"/>
      </g>
     </g>
     <g id="text_15">
      <!-- mqxa.1l1 -->
      <g transform="translate(702.330575 729.772835) rotate(-45) scale(0.18 -0.18)">
       <use xlink:href="#DejaVuSans-6d"/>
       <use xlink:href="#DejaVuSans-71" x="97.412109"/>
       <use xlink:href="#DejaVuSans-78" x="160.888672"/>
       <use xlink:href="#DejaVuSans-61" x="220.068359"/>
       <use xlink:href="#DejaVuSans-2e" x="281.347656"/>
       <use xlink:href="#DejaVuSans-31" x="313.134766"/>
       <use xlink:href="#DejaVuSans-6c" x="376.757812"/>
       <use xlink:href="#DejaVuSans-31" x="404.541016"/>
      </g>
     </g>
    </g>
    <g id="xtick_22">
     <g id="line2d_28">
      <g>
       <use xlink:href="#m70e33eb55b" x="821.918354" y="653.513052" style="stroke: #000000; stroke-width: 0.8"/>
      </g>
     </g>
     <g id="text_16">
      <!-- mqxa.1r1 -->
      <g transform="translate(794.787992 731.469229) rotate(-45) scale(0.18 -0.18)">
       <defs>
        <path id="DejaVuSans-72" d="M 2631 2963 
Q 2534 3019 2420 3045 
Q 2306 3072 2169 3072 
Q 1681 3072 1420 2755 
Q 1159 2438 1159 1844 
L 1159 0 
L 581 0 
L 581 3500 
L 1159 3500 
L 1159 2956 
Q 1341 3275 1631 3429 
Q 1922 3584 2338 3584 
Q 2397 3584 2469 3576 
Q 2541 3569 2628 3553 
L 2631 2963 
z
" transform="scale(0.015625)"/>
       </defs>
       <use xlink:href="#DejaVuSans-6d"/>
       <use xlink:href="#DejaVuSans-71" x="97.412109"/>
       <use xlink:href="#DejaVuSans-78" x="160.888672"/>
       <use xlink:href="#DejaVuSans-61" x="220.068359"/>
       <use xlink:href="#DejaVuSans-2e" x="281.347656"/>
       <use xlink:href="#DejaVuSans-31" x="313.134766"/>
       <use xlink:href="#DejaVuSans-72" x="376.757812"/>
       <use xlink:href="#DejaVuSans-31" x="417.871094"/>
      </g>
     </g>
    </g>
    <g id="xtick_23">
     <g id="line2d_29">
      <g>
       <use xlink:href="#m70e33eb55b" x="915.223967" y="653.513052" style="stroke: #000000; stroke-width: 0.8"/>
      </g>
     </g>
     <g id="text_17">
      <!-- mqxb.a2r1 -->
      <g transform="translate(884.053485 739.54947) rotate(-45) scale(0.18 -0.18)">
       <use xlink:href="#DejaVuSans-6d"/>
       <use xlink:href="#DejaVuSans-71" x="97.412109"/>
       <use xlink:href="#DejaVuSans-78" x="160.888672"/>
       <use xlink:href="#DejaVuSans-62" x="220.068359"/>
       <use xlink:href="#DejaVuSans-2e" x="283.544922"/>
       <use xlink:href="#DejaVuSans-61" x="315.332031"/>
       <use xlink:href="#DejaVuSans-32" x="376.611328"/>
       <use xlink:href="#DejaVuSans-72" x="440.234375"/>
       <use xlink:href="#DejaVuSans-31" x="481.347656"/>
      </g>
     </g>
    </g>
    <g id="xtick_24">
     <g id="line2d_30">
      <g>
       <use xlink:href="#m70e33eb55b" x="1008.529581" y="653.513052" style="stroke: #000000; stroke-width: 0.8"/>
      </g>
     </g>
     <g id="text_18">
      <!-- mqxb.b2r1 -->
      <g transform="translate(977.218893 739.829883) rotate(-45) scale(0.18 -0.18)">
       <use xlink:href="#DejaVuSans-6d"/>
       <use xlink:href="#DejaVuSans-71" x="97.412109"/>
       <use xlink:href="#DejaVuSans-78" x="160.888672"/>
       <use xlink:href="#DejaVuSans-62" x="220.068359"/>
       <use xlink:href="#DejaVuSans-2e" x="283.544922"/>
       <use xlink:href="#DejaVuSans-62" x="315.332031"/>
       <use xlink:href="#DejaVuSans-32" x="378.808594"/>
       <use xlink:href="#DejaVuSans-72" x="442.431641"/>
       <use xlink:href="#DejaVuSans-31" x="483.544922"/>
      </g>
     </g>
    </g>
    <g id="xtick_25">
     <g id="line2d_31">
      <g>
       <use xlink:href="#m70e33eb55b" x="1101.835195" y="653.513052" style="stroke: #000000; stroke-width: 0.8"/>
      </g>
     </g>
     <g id="text_19">
      <!-- mqxa.3r1 -->
      <g transform="translate(1074.704834 731.469229) rotate(-45) scale(0.18 -0.18)">
       <use xlink:href="#DejaVuSans-6d"/>
       <use xlink:href="#DejaVuSans-71" x="97.412109"/>
       <use xlink:href="#DejaVuSans-78" x="160.888672"/>
       <use xlink:href="#DejaVuSans-61" x="220.068359"/>
       <use xlink:href="#DejaVuSans-2e" x="281.347656"/>
       <use xlink:href="#DejaVuSans-33" x="313.134766"/>
       <use xlink:href="#DejaVuSans-72" x="376.757812"/>
       <use xlink:href="#DejaVuSans-31" x="417.871094"/>
      </g>
     </g>
    </g>
    <g id="xtick_26">
     <g id="line2d_32">
      <g>
       <use xlink:href="#m70e33eb55b" x="1195.140809" y="653.513052" style="stroke: #000000; stroke-width: 0.8"/>
      </g>
     </g>
     <g id="text_20">
      <!-- mqy.4r1.b1 -->
      <g transform="translate(1162.705489 742.079145) rotate(-45) scale(0.18 -0.18)">
       <use xlink:href="#DejaVuSans-6d"/>
       <use xlink:href="#DejaVuSans-71" x="97.412109"/>
       <use xlink:href="#DejaVuSans-79" x="160.888672"/>
       <use xlink:href="#DejaVuSans-2e" x="205.818359"/>
       <use xlink:href="#DejaVuSans-34" x="237.605469"/>
       <use xlink:href="#DejaVuSans-72" x="301.228516"/>
       <use xlink:href="#DejaVuSans-31" x="342.341797"/>
       <use xlink:href="#DejaVuSans-2e" x="405.964844"/>
       <use xlink:href="#DejaVuSans-62" x="437.751953"/>
       <use xlink:href="#DejaVuSans-31" x="501.228516"/>
      </g>
     </g>
    </g>
    <g id="xtick_27">
     <g id="line2d_33">
      <g>
       <use xlink:href="#m70e33eb55b" x="1288.446423" y="653.513052" style="stroke: #000000; stroke-width: 0.8"/>
      </g>
     </g>
     <g id="text_21">
      <!-- mqml.5r1.b1 -->
      <g transform="translate(1250.904024 752.293302) rotate(-45) scale(0.18 -0.18)">
       <use xlink:href="#DejaVuSans-6d"/>
       <use xlink:href="#DejaVuSans-71" x="97.412109"/>
       <use xlink:href="#DejaVuSans-6d" x="160.888672"/>
       <use xlink:href="#DejaVuSans-6c" x="258.300781"/>
       <use xlink:href="#DejaVuSans-2e" x="286.083984"/>
       <use xlink:href="#DejaVuSans-35" x="317.871094"/>
       <use xlink:href="#DejaVuSans-72" x="381.494141"/>
       <use xlink:href="#DejaVuSans-31" x="422.607422"/>
       <use xlink:href="#DejaVuSans-2e" x="486.230469"/>
       <use xlink:href="#DejaVuSans-62" x="518.017578"/>
       <use xlink:href="#DejaVuSans-31" x="581.494141"/>
      </g>
     </g>
    </g>
    <g id="xtick_28">
     <g id="line2d_34">
      <g>
       <use xlink:href="#m70e33eb55b" x="1381.752036" y="653.513052" style="stroke: #000000; stroke-width: 0.8"/>
      </g>
     </g>
     <g id="text_22">
      <!-- mqml.6r1.b1 -->
      <g transform="translate(1344.209638 752.293302) rotate(-45) scale(0.18 -0.18)">
       <use xlink:href="#DejaVuSans-6d"/>
       <use xlink:href="#DejaVuSans-71" x="97.412109"/>
       <use xlink:href="#DejaVuSans-6d" x="160.888672"/>
       <use xlink:href="#DejaVuSans-6c" x="258.300781"/>
       <use xlink:href="#DejaVuSans-2e" x="286.083984"/>
       <use xlink:href="#DejaVuSans-36" x="317.871094"/>
       <use xlink:href="#DejaVuSans-72" x="381.494141"/>
       <use xlink:href="#DejaVuSans-31" x="422.607422"/>
       <use xlink:href="#DejaVuSans-2e" x="486.230469"/>
       <use xlink:href="#DejaVuSans-62" x="518.017578"/>
       <use xlink:href="#DejaVuSans-31" x="581.494141"/>
      </g>
     </g>
    </g>
    <g id="text_23">
     <!-- Magnet Name -->
     <g transform="translate(694.53914 776.416719) scale(0.23 -0.23)">
      <defs>
       <path id="DejaVuSans-4d" d="M 628 4666 
L 1569 4666 
L 2759 1491 
L 3956 4666 
L 4897 4666 
L 4897 0 
L 4281 0 
L 4281 4097 
L 3078 897 
L 2444 897 
L 1241 4097 
L 1241 0 
L 628 0 
L 628 4666 
z
" transform="scale(0.015625)"/>
       <path id="DejaVuSans-67" d="M 2906 1791 
Q 2906 2416 2648 2759 
Q 2391 3103 1925 3103 
Q 1463 3103 1205 2759 
Q 947 2416 947 1791 
Q 947 1169 1205 825 
Q 1463 481 1925 481 
Q 2391 481 2648 825 
Q 2906 1169 2906 1791 
z
M 3481 434 
Q 3481 -459 3084 -895 
Q 2688 -1331 1869 -1331 
Q 1566 -1331 1297 -1286 
Q 1028 -1241 775 -1147 
L 775 -588 
Q 1028 -725 1275 -790 
Q 1522 -856 1778 -856 
Q 2344 -856 2625 -561 
Q 2906 -266 2906 331 
L 2906 616 
Q 2728 306 2450 153 
Q 2172 0 1784 0 
Q 1141 0 747 490 
Q 353 981 353 1791 
Q 353 2603 747 3093 
Q 1141 3584 1784 3584 
Q 2172 3584 2450 3431 
Q 2728 3278 2906 2969 
L 2906 3500 
L 3481 3500 
L 3481 434 
z
" transform="scale(0.015625)"/>
       <path id="DejaVuSans-6e" d="M 3513 2113 
L 3513 0 
L 2938 0 
L 2938 2094 
Q 2938 2591 2744 2837 
Q 2550 3084 2163 3084 
Q 1697 3084 1428 2787 
Q 1159 2491 1159 1978 
L 1159 0 
L 581 0 
L 581 3500 
L 1159 3500 
L 1159 2956 
Q 1366 3272 1645 3428 
Q 1925 3584 2291 3584 
Q 2894 3584 3203 3211 
Q 3513 2838 3513 2113 
z
" transform="scale(0.015625)"/>
       <path id="DejaVuSans-65" d="M 3597 1894 
L 3597 1613 
L 953 1613 
Q 991 1019 1311 708 
Q 1631 397 2203 397 
Q 2534 397 2845 478 
Q 3156 559 3463 722 
L 3463 178 
Q 3153 47 2828 -22 
Q 2503 -91 2169 -91 
Q 1331 -91 842 396 
Q 353 884 353 1716 
Q 353 2575 817 3079 
Q 1281 3584 2069 3584 
Q 2775 3584 3186 3129 
Q 3597 2675 3597 1894 
z
M 3022 2063 
Q 3016 2534 2758 2815 
Q 2500 3097 2075 3097 
Q 1594 3097 1305 2825 
Q 1016 2553 972 2059 
L 3022 2063 
z
" transform="scale(0.015625)"/>
       <path id="DejaVuSans-74" d="M 1172 4494 
L 1172 3500 
L 2356 3500 
L 2356 3053 
L 1172 3053 
L 1172 1153 
Q 1172 725 1289 603 
Q 1406 481 1766 481 
L 2356 481 
L 2356 0 
L 1766 0 
Q 1100 0 847 248 
Q 594 497 594 1153 
L 594 3053 
L 172 3053 
L 172 3500 
L 594 3500 
L 594 4494 
L 1172 4494 
z
" transform="scale(0.015625)"/>
       <path id="DejaVuSans-4e" d="M 628 4666 
L 1478 4666 
L 3547 763 
L 3547 4666 
L 4159 4666 
L 4159 0 
L 3309 0 
L 1241 3903 
L 1241 0 
L 628 0 
L 628 4666 
z
" transform="scale(0.015625)"/>
      </defs>
      <use xlink:href="#DejaVuSans-4d"/>
      <use xlink:href="#DejaVuSans-61" x="86.279297"/>
      <use xlink:href="#DejaVuSans-67" x="147.558594"/>
      <use xlink:href="#DejaVuSans-6e" x="211.035156"/>
      <use xlink:href="#DejaVuSans-65" x="274.414062"/>
      <use xlink:href="#DejaVuSans-74" x="335.9375"/>
      <use xlink:href="#DejaVuSans-20" x="375.146484"/>
      <use xlink:href="#DejaVuSans-4e" x="406.933594"/>
      <use xlink:href="#DejaVuSans-61" x="481.738281"/>
      <use xlink:href="#DejaVuSans-6d" x="543.017578"/>
      <use xlink:href="#DejaVuSans-65" x="640.429688"/>
     </g>
    </g>
   </g>
   <g id="matplotlib.axis_4">
    <g id="ytick_7">
     <g id="line2d_35">
      <g>
       <use xlink:href="#ma601ee9ac3" x="122.12625" y="630.129458" style="stroke: #000000; stroke-width: 0.8"/>
      </g>
     </g>
     <g id="text_24">
      <!-- −0.004 -->
      <g transform="translate(48.512188 636.968052) scale(0.18 -0.18)">
       <use xlink:href="#DejaVuSans-2212"/>
       <use xlink:href="#DejaVuSans-30" x="83.789062"/>
       <use xlink:href="#DejaVuSans-2e" x="147.412109"/>
       <use xlink:href="#DejaVuSans-30" x="179.199219"/>
       <use xlink:href="#DejaVuSans-30" x="242.822266"/>
       <use xlink:href="#DejaVuSans-34" x="306.445312"/>
      </g>
     </g>
    </g>
    <g id="ytick_8">
     <g id="line2d_36">
      <g>
       <use xlink:href="#ma601ee9ac3" x="122.12625" y="567.187738" style="stroke: #000000; stroke-width: 0.8"/>
      </g>
     </g>
     <g id="text_25">
      <!-- −0.002 -->
      <g transform="translate(48.512188 574.026332) scale(0.18 -0.18)">
       <use xlink:href="#DejaVuSans-2212"/>
       <use xlink:href="#DejaVuSans-30" x="83.789062"/>
       <use xlink:href="#DejaVuSans-2e" x="147.412109"/>
       <use xlink:href="#DejaVuSans-30" x="179.199219"/>
       <use xlink:href="#DejaVuSans-30" x="242.822266"/>
       <use xlink:href="#DejaVuSans-32" x="306.445312"/>
      </g>
     </g>
    </g>
    <g id="ytick_9">
     <g id="line2d_37">
      <g>
       <use xlink:href="#ma601ee9ac3" x="122.12625" y="504.246017" style="stroke: #000000; stroke-width: 0.8"/>
      </g>
     </g>
     <g id="text_26">
      <!-- 0.000 -->
      <g transform="translate(63.595625 511.084611) scale(0.18 -0.18)">
       <use xlink:href="#DejaVuSans-30"/>
       <use xlink:href="#DejaVuSans-2e" x="63.623047"/>
       <use xlink:href="#DejaVuSans-30" x="95.410156"/>
       <use xlink:href="#DejaVuSans-30" x="159.033203"/>
       <use xlink:href="#DejaVuSans-30" x="222.65625"/>
      </g>
     </g>
    </g>
    <g id="ytick_10">
     <g id="line2d_38">
      <g>
       <use xlink:href="#ma601ee9ac3" x="122.12625" y="441.304297" style="stroke: #000000; stroke-width: 0.8"/>
      </g>
     </g>
     <g id="text_27">
      <!-- 0.002 -->
      <g transform="translate(63.595625 448.142891) scale(0.18 -0.18)">
       <use xlink:href="#DejaVuSans-30"/>
       <use xlink:href="#DejaVuSans-2e" x="63.623047"/>
       <use xlink:href="#DejaVuSans-30" x="95.410156"/>
       <use xlink:href="#DejaVuSans-30" x="159.033203"/>
       <use xlink:href="#DejaVuSans-32" x="222.65625"/>
      </g>
     </g>
    </g>
    <g id="ytick_11">
     <g id="line2d_39">
      <g>
       <use xlink:href="#ma601ee9ac3" x="122.12625" y="378.362576" style="stroke: #000000; stroke-width: 0.8"/>
      </g>
     </g>
     <g id="text_28">
      <!-- 0.004 -->
      <g transform="translate(63.595625 385.20117) scale(0.18 -0.18)">
       <use xlink:href="#DejaVuSans-30"/>
       <use xlink:href="#DejaVuSans-2e" x="63.623047"/>
       <use xlink:href="#DejaVuSans-30" x="95.410156"/>
       <use xlink:href="#DejaVuSans-30" x="159.033203"/>
       <use xlink:href="#DejaVuSans-34" x="222.65625"/>
      </g>
     </g>
    </g>
    <g id="text_29">
     <!-- dpsi [rad] -->
     <g transform="translate(39.728906 561.37557) rotate(-90) scale(0.23 -0.23)">
      <defs>
       <path id="DejaVuSans-70" d="M 1159 525 
L 1159 -1331 
L 581 -1331 
L 581 3500 
L 1159 3500 
L 1159 2969 
Q 1341 3281 1617 3432 
Q 1894 3584 2278 3584 
Q 2916 3584 3314 3078 
Q 3713 2572 3713 1747 
Q 3713 922 3314 415 
Q 2916 -91 2278 -91 
Q 1894 -91 1617 61 
Q 1341 213 1159 525 
z
M 3116 1747 
Q 3116 2381 2855 2742 
Q 2594 3103 2138 3103 
Q 1681 3103 1420 2742 
Q 1159 2381 1159 1747 
Q 1159 1113 1420 752 
Q 1681 391 2138 391 
Q 2594 391 2855 752 
Q 3116 1113 3116 1747 
z
" transform="scale(0.015625)"/>
       <path id="DejaVuSans-73" d="M 2834 3397 
L 2834 2853 
Q 2591 2978 2328 3040 
Q 2066 3103 1784 3103 
Q 1356 3103 1142 2972 
Q 928 2841 928 2578 
Q 928 2378 1081 2264 
Q 1234 2150 1697 2047 
L 1894 2003 
Q 2506 1872 2764 1633 
Q 3022 1394 3022 966 
Q 3022 478 2636 193 
Q 2250 -91 1575 -91 
Q 1294 -91 989 -36 
Q 684 19 347 128 
L 347 722 
Q 666 556 975 473 
Q 1284 391 1588 391 
Q 1994 391 2212 530 
Q 2431 669 2431 922 
Q 2431 1156 2273 1281 
Q 2116 1406 1581 1522 
L 1381 1569 
Q 847 1681 609 1914 
Q 372 2147 372 2553 
Q 372 3047 722 3315 
Q 1072 3584 1716 3584 
Q 2034 3584 2315 3537 
Q 2597 3491 2834 3397 
z
" transform="scale(0.015625)"/>
       <path id="DejaVuSans-69" d="M 603 3500 
L 1178 3500 
L 1178 0 
L 603 0 
L 603 3500 
z
M 603 4863 
L 1178 4863 
L 1178 4134 
L 603 4134 
L 603 4863 
z
" transform="scale(0.015625)"/>
      </defs>
      <use xlink:href="#DejaVuSans-64"/>
      <use xlink:href="#DejaVuSans-70" x="63.476562"/>
      <use xlink:href="#DejaVuSans-73" x="126.953125"/>
      <use xlink:href="#DejaVuSans-69" x="179.052734"/>
      <use xlink:href="#DejaVuSans-20" x="206.835938"/>
      <use xlink:href="#DejaVuSans-5b" x="238.623047"/>
      <use xlink:href="#DejaVuSans-72" x="277.636719"/>
      <use xlink:href="#DejaVuSans-61" x="318.75"/>
      <use xlink:href="#DejaVuSans-64" x="380.029297"/>
      <use xlink:href="#DejaVuSans-5d" x="443.505859"/>
     </g>
    </g>
   </g>
   <g id="patch_38">
    <path d="M 122.12625 653.513052 
L 122.12625 358.255901 
" style="fill: none; stroke: #000000; stroke-width: 0.8; stroke-linejoin: miter; stroke-linecap: square"/>
   </g>
   <g id="patch_39">
    <path d="M 1428.404843 653.513052 
L 1428.404843 358.255901 
" style="fill: none; stroke: #000000; stroke-width: 0.8; stroke-linejoin: miter; stroke-linecap: square"/>
   </g>
   <g id="patch_40">
    <path d="M 122.12625 653.513052 
L 1428.404843 653.513052 
" style="fill: none; stroke: #000000; stroke-width: 0.8; stroke-linejoin: miter; stroke-linecap: square"/>
   </g>
   <g id="patch_41">
    <path d="M 122.12625 358.255901 
L 1428.404843 358.255901 
" style="fill: none; stroke: #000000; stroke-width: 0.8; stroke-linejoin: miter; stroke-linecap: square"/>
   </g>
   <g id="legend_2">
    <g id="patch_42">
     <path d="M 1285.162343 412.683401 
L 1411.604843 412.683401 
Q 1416.404843 412.683401 1416.404843 407.883401 
L 1416.404843 375.055901 
Q 1416.404843 370.255901 1411.604843 370.255901 
L 1285.162343 370.255901 
Q 1280.362343 370.255901 1280.362343 375.055901 
L 1280.362343 407.883401 
Q 1280.362343 412.683401 1285.162343 412.683401 
z
" style="fill: #ffffff; opacity: 0.8; stroke: #cccccc; stroke-linejoin: miter"/>
    </g>
    <g id="patch_43">
     <path d="M 1289.962343 398.092151 
L 1337.962343 398.092151 
L 1337.962343 381.292151 
L 1289.962343 381.292151 
z
" style="fill: #ff7f0e"/>
    </g>
    <g id="text_30">
     <!-- dpsi -->
     <g transform="translate(1357.162343 398.092151) scale(0.24 -0.24)">
      <use xlink:href="#DejaVuSans-64"/>
      <use xlink:href="#DejaVuSans-70" x="63.476562"/>
      <use xlink:href="#DejaVuSans-73" x="126.953125"/>
      <use xlink:href="#DejaVuSans-69" x="179.052734"/>
     </g>
    </g>
   </g>
  </g>
  <g id="text_31">
   <!-- Applied Errors -->
   <g transform="translate(621.505625 37.115625) scale(0.28 -0.28)">
    <defs>
     <path id="DejaVuSans-41" d="M 2188 4044 
L 1331 1722 
L 3047 1722 
L 2188 4044 
z
M 1831 4666 
L 2547 4666 
L 4325 0 
L 3669 0 
L 3244 1197 
L 1141 1197 
L 716 0 
L 50 0 
L 1831 4666 
z
" transform="scale(0.015625)"/>
     <path id="DejaVuSans-45" d="M 628 4666 
L 3578 4666 
L 3578 4134 
L 1259 4134 
L 1259 2753 
L 3481 2753 
L 3481 2222 
L 1259 2222 
L 1259 531 
L 3634 531 
L 3634 0 
L 628 0 
L 628 4666 
z
" transform="scale(0.015625)"/>
     <path id="DejaVuSans-6f" d="M 1959 3097 
Q 1497 3097 1228 2736 
Q 959 2375 959 1747 
Q 959 1119 1226 758 
Q 1494 397 1959 397 
Q 2419 397 2687 759 
Q 2956 1122 2956 1747 
Q 2956 2369 2687 2733 
Q 2419 3097 1959 3097 
z
M 1959 3584 
Q 2709 3584 3137 3096 
Q 3566 2609 3566 1747 
Q 3566 888 3137 398 
Q 2709 -91 1959 -91 
Q 1206 -91 779 398 
Q 353 888 353 1747 
Q 353 2609 779 3096 
Q 1206 3584 1959 3584 
z
" transform="scale(0.015625)"/>
    </defs>
    <use xlink:href="#DejaVuSans-41"/>
    <use xlink:href="#DejaVuSans-70" x="68.408203"/>
    <use xlink:href="#DejaVuSans-70" x="131.884766"/>
    <use xlink:href="#DejaVuSans-6c" x="195.361328"/>
    <use xlink:href="#DejaVuSans-69" x="223.144531"/>
    <use xlink:href="#DejaVuSans-65" x="250.927734"/>
    <use xlink:href="#DejaVuSans-64" x="312.451172"/>
    <use xlink:href="#DejaVuSans-20" x="375.927734"/>
    <use xlink:href="#DejaVuSans-45" x="407.714844"/>
    <use xlink:href="#DejaVuSans-72" x="470.898438"/>
    <use xlink:href="#DejaVuSans-72" x="510.261719"/>
    <use xlink:href="#DejaVuSans-6f" x="549.125"/>
    <use xlink:href="#DejaVuSans-72" x="610.306641"/>
    <use xlink:href="#DejaVuSans-73" x="651.419922"/>
   </g>
  </g>
 </g>
 <defs>
  <clipPath id="p2cc63f1924">
   <rect x="122.12625" y="48.69875" width="1306.278593" height="295.257151"/>
  </clipPath>
  <clipPath id="p13b42d055c">
   <rect x="122.12625" y="358.255901" width="1306.278593" height="295.257151"/>
  </clipPath>
 </defs>
</svg>
