<?xml version="1.0" encoding="utf-8" standalone="no"?>
<!DOCTYPE svg PUBLIC "-//W3C//DTD SVG 1.1//EN"
  "http://www.w3.org/Graphics/SVG/1.1/DTD/svg11.dtd">
<svg xmlns:xlink="http://www.w3.org/1999/xlink" width="1440pt" height="864pt" viewBox="0 0 1440 864" xmlns="http://www.w3.org/2000/svg" version="1.1">
 <metadata>
  <rdf:RDF xmlns:dc="http://purl.org/dc/elements/1.1/" xmlns:cc="http://creativecommons.org/ns#" xmlns:rdf="http://www.w3.org/1999/02/22-rdf-syntax-ns#">
   <cc:Work>
    <dc:type rdf:resource="http://purl.org/dc/dcmitype/StillImage"/>
    <dc:date>2022-10-04T18:19:15.931640</dc:date>
    <dc:format>image/svg+xml</dc:format>
    <dc:creator>
     <cc:Agent>
      <dc:title>Matplotlib v3.6.0, https://matplotlib.org/</dc:title>
     </cc:Agent>
    </dc:creator>
   </cc:Work>
  </rdf:RDF>
 </metadata>
 <defs>
  <style type="text/css">*{stroke-linejoin: round; stroke-linecap: butt}</style>
 </defs>
 <g id="figure_1">
  <g id="patch_1">
   <path d="M 0 864 
L 1440 864 
L 1440 0 
L 0 0 
z
" style="fill: #ffffff"/>
  </g>
  <g id="axes_1">
   <g id="patch_2">
    <path d="M 95.590313 828.779375 
L 1429.2 828.779375 
L 1429.2 38.075625 
L 95.590313 38.075625 
z
" style="fill: #ffffff"/>
   </g>
   <g id="patch_3">
    <path d="M 156.208935 828.779375 
L 168.332659 828.779375 
L 168.332659 683.59866 
L 156.208935 683.59866 
z
" clip-path="url(#p94ed75e9ab)" style="fill: #1f77b4; opacity: 0.6"/>
   </g>
   <g id="patch_4">
    <path d="M 168.332659 828.779375 
L 180.456384 828.779375 
L 180.456384 483.532552 
L 168.332659 483.532552 
z
" clip-path="url(#p94ed75e9ab)" style="fill: #1f77b4; opacity: 0.6"/>
   </g>
   <g id="patch_5">
    <path d="M 180.456384 828.779375 
L 192.580108 828.779375 
L 192.580108 325.073112 
L 180.456384 325.073112 
z
" clip-path="url(#p94ed75e9ab)" style="fill: #1f77b4; opacity: 0.6"/>
   </g>
   <g id="patch_6">
    <path d="M 192.580108 828.779375 
L 204.703832 828.779375 
L 204.703832 180.482563 
L 192.580108 180.482563 
z
" clip-path="url(#p94ed75e9ab)" style="fill: #1f77b4; opacity: 0.6"/>
   </g>
   <g id="patch_7">
    <path d="M 204.703832 828.779375 
L 216.827557 828.779375 
L 216.827557 152.449701 
L 204.703832 152.449701 
z
" clip-path="url(#p94ed75e9ab)" style="fill: #1f77b4; opacity: 0.6"/>
   </g>
   <g id="patch_8">
    <path d="M 216.827557 828.779375 
L 228.951281 828.779375 
L 228.951281 94.908564 
L 216.827557 94.908564 
z
" clip-path="url(#p94ed75e9ab)" style="fill: #1f77b4; opacity: 0.6"/>
   </g>
   <g id="patch_9">
    <path d="M 228.951281 828.779375 
L 241.075006 828.779375 
L 241.075006 75.728185 
L 228.951281 75.728185 
z
" clip-path="url(#p94ed75e9ab)" style="fill: #1f77b4; opacity: 0.6"/>
   </g>
   <g id="patch_10">
    <path d="M 241.075006 828.779375 
L 253.19873 828.779375 
L 253.19873 101.105301 
L 241.075006 101.105301 
z
" clip-path="url(#p94ed75e9ab)" style="fill: #1f77b4; opacity: 0.6"/>
   </g>
   <g id="patch_11">
    <path d="M 253.19873 828.779375 
L 265.322455 828.779375 
L 265.322455 96.383977 
L 253.19873 96.383977 
z
" clip-path="url(#p94ed75e9ab)" style="fill: #1f77b4; opacity: 0.6"/>
   </g>
   <g id="patch_12">
    <path d="M 265.322455 828.779375 
L 277.446179 828.779375 
L 277.446179 112.318446 
L 265.322455 112.318446 
z
" clip-path="url(#p94ed75e9ab)" style="fill: #1f77b4; opacity: 0.6"/>
   </g>
   <g id="patch_13">
    <path d="M 277.446179 828.779375 
L 289.569903 828.779375 
L 289.569903 132.974239 
L 277.446179 132.974239 
z
" clip-path="url(#p94ed75e9ab)" style="fill: #1f77b4; opacity: 0.6"/>
   </g>
   <g id="patch_14">
    <path d="M 289.569903 828.779375 
L 301.693628 828.779375 
L 301.693628 182.253059 
L 289.569903 182.253059 
z
" clip-path="url(#p94ed75e9ab)" style="fill: #1f77b4; opacity: 0.6"/>
   </g>
   <g id="patch_15">
    <path d="M 301.693628 828.779375 
L 313.817352 828.779375 
L 313.817352 208.810507 
L 301.693628 208.810507 
z
" clip-path="url(#p94ed75e9ab)" style="fill: #1f77b4; opacity: 0.6"/>
   </g>
   <g id="patch_16">
    <path d="M 313.817352 828.779375 
L 325.941077 828.779375 
L 325.941077 254.548334 
L 313.817352 254.548334 
z
" clip-path="url(#p94ed75e9ab)" style="fill: #1f77b4; opacity: 0.6"/>
   </g>
   <g id="patch_17">
    <path d="M 325.941077 828.779375 
L 338.064801 828.779375 
L 338.064801 284.646775 
L 325.941077 284.646775 
z
" clip-path="url(#p94ed75e9ab)" style="fill: #1f77b4; opacity: 0.6"/>
   </g>
   <g id="patch_18">
    <path d="M 338.064801 828.779375 
L 350.188526 828.779375 
L 350.188526 312.089471 
L 338.064801 312.089471 
z
" clip-path="url(#p94ed75e9ab)" style="fill: #1f77b4; opacity: 0.6"/>
   </g>
   <g id="patch_19">
    <path d="M 350.188526 828.779375 
L 362.31225 828.779375 
L 362.31225 353.69614 
L 350.188526 353.69614 
z
" clip-path="url(#p94ed75e9ab)" style="fill: #1f77b4; opacity: 0.6"/>
   </g>
   <g id="patch_20">
    <path d="M 362.31225 828.779375 
L 374.435974 828.779375 
L 374.435974 379.663422 
L 362.31225 379.663422 
z
" clip-path="url(#p94ed75e9ab)" style="fill: #1f77b4; opacity: 0.6"/>
   </g>
   <g id="patch_21">
    <path d="M 374.435974 828.779375 
L 386.559699 828.779375 
L 386.559699 422.155339 
L 374.435974 422.155339 
z
" clip-path="url(#p94ed75e9ab)" style="fill: #1f77b4; opacity: 0.6"/>
   </g>
   <g id="patch_22">
    <path d="M 386.559699 828.779375 
L 398.683423 828.779375 
L 398.683423 452.25378 
L 386.559699 452.25378 
z
" clip-path="url(#p94ed75e9ab)" style="fill: #1f77b4; opacity: 0.6"/>
   </g>
   <g id="patch_23">
    <path d="M 398.683423 828.779375 
L 410.807148 828.779375 
L 410.807148 494.745696 
L 398.683423 494.745696 
z
" clip-path="url(#p94ed75e9ab)" style="fill: #1f77b4; opacity: 0.6"/>
   </g>
   <g id="patch_24">
    <path d="M 410.807148 828.779375 
L 422.930872 828.779375 
L 422.930872 528.975296 
L 410.807148 528.975296 
z
" clip-path="url(#p94ed75e9ab)" style="fill: #1f77b4; opacity: 0.6"/>
   </g>
   <g id="patch_25">
    <path d="M 422.930872 828.779375 
L 435.054597 828.779375 
L 435.054597 539.00811 
L 422.930872 539.00811 
z
" clip-path="url(#p94ed75e9ab)" style="fill: #1f77b4; opacity: 0.6"/>
   </g>
   <g id="patch_26">
    <path d="M 435.054597 828.779375 
L 447.178321 828.779375 
L 447.178321 572.647544 
L 435.054597 572.647544 
z
" clip-path="url(#p94ed75e9ab)" style="fill: #1f77b4; opacity: 0.6"/>
   </g>
   <g id="patch_27">
    <path d="M 447.178321 828.779375 
L 459.302045 828.779375 
L 459.302045 594.77875 
L 447.178321 594.77875 
z
" clip-path="url(#p94ed75e9ab)" style="fill: #1f77b4; opacity: 0.6"/>
   </g>
   <g id="patch_28">
    <path d="M 459.302045 828.779375 
L 471.42577 828.779375 
L 471.42577 623.106695 
L 459.302045 623.106695 
z
" clip-path="url(#p94ed75e9ab)" style="fill: #1f77b4; opacity: 0.6"/>
   </g>
   <g id="patch_29">
    <path d="M 471.42577 828.779375 
L 483.549494 828.779375 
L 483.549494 631.073929 
L 471.42577 631.073929 
z
" clip-path="url(#p94ed75e9ab)" style="fill: #1f77b4; opacity: 0.6"/>
   </g>
   <g id="patch_30">
    <path d="M 483.549494 828.779375 
L 495.673219 828.779375 
L 495.673219 652.61497 
L 483.549494 652.61497 
z
" clip-path="url(#p94ed75e9ab)" style="fill: #1f77b4; opacity: 0.6"/>
   </g>
   <g id="patch_31">
    <path d="M 495.673219 828.779375 
L 507.796943 828.779375 
L 507.796943 674.746177 
L 495.673219 674.746177 
z
" clip-path="url(#p94ed75e9ab)" style="fill: #1f77b4; opacity: 0.6"/>
   </g>
   <g id="patch_32">
    <path d="M 507.796943 828.779375 
L 519.920668 828.779375 
L 519.920668 693.631473 
L 507.796943 693.631473 
z
" clip-path="url(#p94ed75e9ab)" style="fill: #1f77b4; opacity: 0.6"/>
   </g>
   <g id="patch_33">
    <path d="M 519.920668 828.779375 
L 532.044392 828.779375 
L 532.044392 703.664287 
L 519.920668 703.664287 
z
" clip-path="url(#p94ed75e9ab)" style="fill: #1f77b4; opacity: 0.6"/>
   </g>
   <g id="patch_34">
    <path d="M 532.044392 828.779375 
L 544.168116 828.779375 
L 544.168116 720.779087 
L 532.044392 720.779087 
z
" clip-path="url(#p94ed75e9ab)" style="fill: #1f77b4; opacity: 0.6"/>
   </g>
   <g id="patch_35">
    <path d="M 544.168116 828.779375 
L 556.291841 828.779375 
L 556.291841 723.729914 
L 544.168116 723.729914 
z
" clip-path="url(#p94ed75e9ab)" style="fill: #1f77b4; opacity: 0.6"/>
   </g>
   <g id="patch_36">
    <path d="M 556.291841 828.779375 
L 568.415565 828.779375 
L 568.415565 734.943059 
L 556.291841 734.943059 
z
" clip-path="url(#p94ed75e9ab)" style="fill: #1f77b4; opacity: 0.6"/>
   </g>
   <g id="patch_37">
    <path d="M 568.415565 828.779375 
L 580.53929 828.779375 
L 580.53929 739.959466 
L 568.415565 739.959466 
z
" clip-path="url(#p94ed75e9ab)" style="fill: #1f77b4; opacity: 0.6"/>
   </g>
   <g id="patch_38">
    <path d="M 580.53929 828.779375 
L 592.663014 828.779375 
L 592.663014 762.680838 
L 580.53929 762.680838 
z
" clip-path="url(#p94ed75e9ab)" style="fill: #1f77b4; opacity: 0.6"/>
   </g>
   <g id="patch_39">
    <path d="M 592.663014 828.779375 
L 604.786739 828.779375 
L 604.786739 769.172659 
L 592.663014 769.172659 
z
" clip-path="url(#p94ed75e9ab)" style="fill: #1f77b4; opacity: 0.6"/>
   </g>
   <g id="patch_40">
    <path d="M 604.786739 828.779375 
L 616.910463 828.779375 
L 616.910463 767.992327 
L 604.786739 767.992327 
z
" clip-path="url(#p94ed75e9ab)" style="fill: #1f77b4; opacity: 0.6"/>
   </g>
   <g id="patch_41">
    <path d="M 616.910463 828.779375 
L 629.034187 828.779375 
L 629.034187 773.303817 
L 616.910463 773.303817 
z
" clip-path="url(#p94ed75e9ab)" style="fill: #1f77b4; opacity: 0.6"/>
   </g>
   <g id="patch_42">
    <path d="M 629.034187 828.779375 
L 641.157912 828.779375 
L 641.157912 778.615307 
L 629.034187 778.615307 
z
" clip-path="url(#p94ed75e9ab)" style="fill: #1f77b4; opacity: 0.6"/>
   </g>
   <g id="patch_43">
    <path d="M 641.157912 828.779375 
L 653.281636 828.779375 
L 653.281636 786.287458 
L 641.157912 786.287458 
z
" clip-path="url(#p94ed75e9ab)" style="fill: #1f77b4; opacity: 0.6"/>
   </g>
   <g id="patch_44">
    <path d="M 653.281636 828.779375 
L 665.405361 828.779375 
L 665.405361 791.598948 
L 653.281636 791.598948 
z
" clip-path="url(#p94ed75e9ab)" style="fill: #1f77b4; opacity: 0.6"/>
   </g>
   <g id="patch_45">
    <path d="M 665.405361 828.779375 
L 677.529085 828.779375 
L 677.529085 798.090768 
L 665.405361 798.090768 
z
" clip-path="url(#p94ed75e9ab)" style="fill: #1f77b4; opacity: 0.6"/>
   </g>
   <g id="patch_46">
    <path d="M 677.529085 828.779375 
L 689.65281 828.779375 
L 689.65281 800.156348 
L 677.529085 800.156348 
z
" clip-path="url(#p94ed75e9ab)" style="fill: #1f77b4; opacity: 0.6"/>
   </g>
   <g id="patch_47">
    <path d="M 689.65281 828.779375 
L 701.776534 828.779375 
L 701.776534 799.861265 
L 689.65281 799.861265 
z
" clip-path="url(#p94ed75e9ab)" style="fill: #1f77b4; opacity: 0.6"/>
   </g>
   <g id="patch_48">
    <path d="M 701.776534 828.779375 
L 713.900259 828.779375 
L 713.900259 804.877672 
L 701.776534 804.877672 
z
" clip-path="url(#p94ed75e9ab)" style="fill: #1f77b4; opacity: 0.6"/>
   </g>
   <g id="patch_49">
    <path d="M 713.900259 828.779375 
L 726.023983 828.779375 
L 726.023983 809.894079 
L 713.900259 809.894079 
z
" clip-path="url(#p94ed75e9ab)" style="fill: #1f77b4; opacity: 0.6"/>
   </g>
   <g id="patch_50">
    <path d="M 726.023983 828.779375 
L 738.147707 828.779375 
L 738.147707 812.254741 
L 726.023983 812.254741 
z
" clip-path="url(#p94ed75e9ab)" style="fill: #1f77b4; opacity: 0.6"/>
   </g>
   <g id="patch_51">
    <path d="M 738.147707 828.779375 
L 750.271432 828.779375 
L 750.271432 811.369492 
L 738.147707 811.369492 
z
" clip-path="url(#p94ed75e9ab)" style="fill: #1f77b4; opacity: 0.6"/>
   </g>
   <g id="patch_52">
    <path d="M 750.271432 828.779375 
L 762.395156 828.779375 
L 762.395156 810.484244 
L 750.271432 810.484244 
z
" clip-path="url(#p94ed75e9ab)" style="fill: #1f77b4; opacity: 0.6"/>
   </g>
   <g id="patch_53">
    <path d="M 762.395156 828.779375 
L 774.518881 828.779375 
L 774.518881 813.730155 
L 762.395156 813.730155 
z
" clip-path="url(#p94ed75e9ab)" style="fill: #1f77b4; opacity: 0.6"/>
   </g>
   <g id="patch_54">
    <path d="M 774.518881 828.779375 
L 786.642605 828.779375 
L 786.642605 819.926892 
L 774.518881 819.926892 
z
" clip-path="url(#p94ed75e9ab)" style="fill: #1f77b4; opacity: 0.6"/>
   </g>
   <g id="patch_55">
    <path d="M 786.642605 828.779375 
L 798.76633 828.779375 
L 798.76633 820.517058 
L 786.642605 820.517058 
z
" clip-path="url(#p94ed75e9ab)" style="fill: #1f77b4; opacity: 0.6"/>
   </g>
   <g id="patch_56">
    <path d="M 798.76633 828.779375 
L 810.890054 828.779375 
L 810.890054 820.517058 
L 798.76633 820.517058 
z
" clip-path="url(#p94ed75e9ab)" style="fill: #1f77b4; opacity: 0.6"/>
   </g>
   <g id="patch_57">
    <path d="M 810.890054 828.779375 
L 823.013778 828.779375 
L 823.013778 821.992472 
L 810.890054 821.992472 
z
" clip-path="url(#p94ed75e9ab)" style="fill: #1f77b4; opacity: 0.6"/>
   </g>
   <g id="patch_58">
    <path d="M 823.013778 828.779375 
L 835.137503 828.779375 
L 835.137503 821.402306 
L 823.013778 821.402306 
z
" clip-path="url(#p94ed75e9ab)" style="fill: #1f77b4; opacity: 0.6"/>
   </g>
   <g id="patch_59">
    <path d="M 835.137503 828.779375 
L 847.261227 828.779375 
L 847.261227 823.172803 
L 835.137503 823.172803 
z
" clip-path="url(#p94ed75e9ab)" style="fill: #1f77b4; opacity: 0.6"/>
   </g>
   <g id="patch_60">
    <path d="M 847.261227 828.779375 
L 859.384952 828.779375 
L 859.384952 823.467885 
L 847.261227 823.467885 
z
" clip-path="url(#p94ed75e9ab)" style="fill: #1f77b4; opacity: 0.6"/>
   </g>
   <g id="patch_61">
    <path d="M 859.384952 828.779375 
L 871.508676 828.779375 
L 871.508676 823.762968 
L 859.384952 823.762968 
z
" clip-path="url(#p94ed75e9ab)" style="fill: #1f77b4; opacity: 0.6"/>
   </g>
   <g id="patch_62">
    <path d="M 871.508676 828.779375 
L 883.632401 828.779375 
L 883.632401 823.467885 
L 871.508676 823.467885 
z
" clip-path="url(#p94ed75e9ab)" style="fill: #1f77b4; opacity: 0.6"/>
   </g>
   <g id="patch_63">
    <path d="M 883.632401 828.779375 
L 895.756125 828.779375 
L 895.756125 824.648216 
L 883.632401 824.648216 
z
" clip-path="url(#p94ed75e9ab)" style="fill: #1f77b4; opacity: 0.6"/>
   </g>
   <g id="patch_64">
    <path d="M 895.756125 828.779375 
L 907.879849 828.779375 
L 907.879849 823.467885 
L 895.756125 823.467885 
z
" clip-path="url(#p94ed75e9ab)" style="fill: #1f77b4; opacity: 0.6"/>
   </g>
   <g id="patch_65">
    <path d="M 907.879849 828.779375 
L 920.003574 828.779375 
L 920.003574 824.943299 
L 907.879849 824.943299 
z
" clip-path="url(#p94ed75e9ab)" style="fill: #1f77b4; opacity: 0.6"/>
   </g>
   <g id="patch_66">
    <path d="M 920.003574 828.779375 
L 932.127298 828.779375 
L 932.127298 827.303961 
L 920.003574 827.303961 
z
" clip-path="url(#p94ed75e9ab)" style="fill: #1f77b4; opacity: 0.6"/>
   </g>
   <g id="patch_67">
    <path d="M 932.127298 828.779375 
L 944.251023 828.779375 
L 944.251023 826.713796 
L 932.127298 826.713796 
z
" clip-path="url(#p94ed75e9ab)" style="fill: #1f77b4; opacity: 0.6"/>
   </g>
   <g id="patch_68">
    <path d="M 944.251023 828.779375 
L 956.374747 828.779375 
L 956.374747 827.599044 
L 944.251023 827.599044 
z
" clip-path="url(#p94ed75e9ab)" style="fill: #1f77b4; opacity: 0.6"/>
   </g>
   <g id="patch_69">
    <path d="M 956.374747 828.779375 
L 968.498472 828.779375 
L 968.498472 825.238382 
L 956.374747 825.238382 
z
" clip-path="url(#p94ed75e9ab)" style="fill: #1f77b4; opacity: 0.6"/>
   </g>
   <g id="patch_70">
    <path d="M 968.498472 828.779375 
L 980.622196 828.779375 
L 980.622196 827.894127 
L 968.498472 827.894127 
z
" clip-path="url(#p94ed75e9ab)" style="fill: #1f77b4; opacity: 0.6"/>
   </g>
   <g id="patch_71">
    <path d="M 980.622196 828.779375 
L 992.74592 828.779375 
L 992.74592 828.189209 
L 980.622196 828.189209 
z
" clip-path="url(#p94ed75e9ab)" style="fill: #1f77b4; opacity: 0.6"/>
   </g>
   <g id="patch_72">
    <path d="M 992.74592 828.779375 
L 1004.869645 828.779375 
L 1004.869645 827.008878 
L 992.74592 827.008878 
z
" clip-path="url(#p94ed75e9ab)" style="fill: #1f77b4; opacity: 0.6"/>
   </g>
   <g id="patch_73">
    <path d="M 1004.869645 828.779375 
L 1016.993369 828.779375 
L 1016.993369 827.599044 
L 1004.869645 827.599044 
z
" clip-path="url(#p94ed75e9ab)" style="fill: #1f77b4; opacity: 0.6"/>
   </g>
   <g id="patch_74">
    <path d="M 1016.993369 828.779375 
L 1029.117094 828.779375 
L 1029.117094 828.189209 
L 1016.993369 828.189209 
z
" clip-path="url(#p94ed75e9ab)" style="fill: #1f77b4; opacity: 0.6"/>
   </g>
   <g id="patch_75">
    <path d="M 1029.117094 828.779375 
L 1041.240818 828.779375 
L 1041.240818 828.484292 
L 1029.117094 828.484292 
z
" clip-path="url(#p94ed75e9ab)" style="fill: #1f77b4; opacity: 0.6"/>
   </g>
   <g id="patch_76">
    <path d="M 1041.240818 828.779375 
L 1053.364543 828.779375 
L 1053.364543 827.599044 
L 1041.240818 827.599044 
z
" clip-path="url(#p94ed75e9ab)" style="fill: #1f77b4; opacity: 0.6"/>
   </g>
   <g id="patch_77">
    <path d="M 1053.364543 828.779375 
L 1065.488267 828.779375 
L 1065.488267 828.484292 
L 1053.364543 828.484292 
z
" clip-path="url(#p94ed75e9ab)" style="fill: #1f77b4; opacity: 0.6"/>
   </g>
   <g id="patch_78">
    <path d="M 1065.488267 828.779375 
L 1077.611991 828.779375 
L 1077.611991 828.189209 
L 1065.488267 828.189209 
z
" clip-path="url(#p94ed75e9ab)" style="fill: #1f77b4; opacity: 0.6"/>
   </g>
   <g id="patch_79">
    <path d="M 1077.611991 828.779375 
L 1089.735716 828.779375 
L 1089.735716 828.779375 
L 1077.611991 828.779375 
z
" clip-path="url(#p94ed75e9ab)" style="fill: #1f77b4; opacity: 0.6"/>
   </g>
   <g id="patch_80">
    <path d="M 1089.735716 828.779375 
L 1101.85944 828.779375 
L 1101.85944 828.189209 
L 1089.735716 828.189209 
z
" clip-path="url(#p94ed75e9ab)" style="fill: #1f77b4; opacity: 0.6"/>
   </g>
   <g id="patch_81">
    <path d="M 1101.85944 828.779375 
L 1113.983165 828.779375 
L 1113.983165 828.189209 
L 1101.85944 828.189209 
z
" clip-path="url(#p94ed75e9ab)" style="fill: #1f77b4; opacity: 0.6"/>
   </g>
   <g id="patch_82">
    <path d="M 1113.983165 828.779375 
L 1126.106889 828.779375 
L 1126.106889 828.484292 
L 1113.983165 828.484292 
z
" clip-path="url(#p94ed75e9ab)" style="fill: #1f77b4; opacity: 0.6"/>
   </g>
   <g id="patch_83">
    <path d="M 1126.106889 828.779375 
L 1138.230614 828.779375 
L 1138.230614 828.779375 
L 1126.106889 828.779375 
z
" clip-path="url(#p94ed75e9ab)" style="fill: #1f77b4; opacity: 0.6"/>
   </g>
   <g id="patch_84">
    <path d="M 1138.230614 828.779375 
L 1150.354338 828.779375 
L 1150.354338 828.484292 
L 1138.230614 828.484292 
z
" clip-path="url(#p94ed75e9ab)" style="fill: #1f77b4; opacity: 0.6"/>
   </g>
   <g id="patch_85">
    <path d="M 1150.354338 828.779375 
L 1162.478062 828.779375 
L 1162.478062 828.484292 
L 1150.354338 828.484292 
z
" clip-path="url(#p94ed75e9ab)" style="fill: #1f77b4; opacity: 0.6"/>
   </g>
   <g id="patch_86">
    <path d="M 1162.478062 828.779375 
L 1174.601787 828.779375 
L 1174.601787 828.779375 
L 1162.478062 828.779375 
z
" clip-path="url(#p94ed75e9ab)" style="fill: #1f77b4; opacity: 0.6"/>
   </g>
   <g id="patch_87">
    <path d="M 1174.601787 828.779375 
L 1186.725511 828.779375 
L 1186.725511 828.484292 
L 1174.601787 828.484292 
z
" clip-path="url(#p94ed75e9ab)" style="fill: #1f77b4; opacity: 0.6"/>
   </g>
   <g id="patch_88">
    <path d="M 1186.725511 828.779375 
L 1198.849236 828.779375 
L 1198.849236 828.779375 
L 1186.725511 828.779375 
z
" clip-path="url(#p94ed75e9ab)" style="fill: #1f77b4; opacity: 0.6"/>
   </g>
   <g id="patch_89">
    <path d="M 1198.849236 828.779375 
L 1210.97296 828.779375 
L 1210.97296 828.779375 
L 1198.849236 828.779375 
z
" clip-path="url(#p94ed75e9ab)" style="fill: #1f77b4; opacity: 0.6"/>
   </g>
   <g id="patch_90">
    <path d="M 1210.97296 828.779375 
L 1223.096685 828.779375 
L 1223.096685 828.779375 
L 1210.97296 828.779375 
z
" clip-path="url(#p94ed75e9ab)" style="fill: #1f77b4; opacity: 0.6"/>
   </g>
   <g id="patch_91">
    <path d="M 1223.096685 828.779375 
L 1235.220409 828.779375 
L 1235.220409 828.484292 
L 1223.096685 828.484292 
z
" clip-path="url(#p94ed75e9ab)" style="fill: #1f77b4; opacity: 0.6"/>
   </g>
   <g id="patch_92">
    <path d="M 1235.220409 828.779375 
L 1247.344134 828.779375 
L 1247.344134 828.779375 
L 1235.220409 828.779375 
z
" clip-path="url(#p94ed75e9ab)" style="fill: #1f77b4; opacity: 0.6"/>
   </g>
   <g id="patch_93">
    <path d="M 1247.344134 828.779375 
L 1259.467858 828.779375 
L 1259.467858 828.779375 
L 1247.344134 828.779375 
z
" clip-path="url(#p94ed75e9ab)" style="fill: #1f77b4; opacity: 0.6"/>
   </g>
   <g id="patch_94">
    <path d="M 1259.467858 828.779375 
L 1271.591582 828.779375 
L 1271.591582 828.779375 
L 1259.467858 828.779375 
z
" clip-path="url(#p94ed75e9ab)" style="fill: #1f77b4; opacity: 0.6"/>
   </g>
   <g id="patch_95">
    <path d="M 1271.591582 828.779375 
L 1283.715307 828.779375 
L 1283.715307 828.484292 
L 1271.591582 828.484292 
z
" clip-path="url(#p94ed75e9ab)" style="fill: #1f77b4; opacity: 0.6"/>
   </g>
   <g id="patch_96">
    <path d="M 1283.715307 828.779375 
L 1295.839031 828.779375 
L 1295.839031 828.779375 
L 1283.715307 828.779375 
z
" clip-path="url(#p94ed75e9ab)" style="fill: #1f77b4; opacity: 0.6"/>
   </g>
   <g id="patch_97">
    <path d="M 1295.839031 828.779375 
L 1307.962756 828.779375 
L 1307.962756 828.484292 
L 1295.839031 828.484292 
z
" clip-path="url(#p94ed75e9ab)" style="fill: #1f77b4; opacity: 0.6"/>
   </g>
   <g id="patch_98">
    <path d="M 1307.962756 828.779375 
L 1320.08648 828.779375 
L 1320.08648 828.779375 
L 1307.962756 828.779375 
z
" clip-path="url(#p94ed75e9ab)" style="fill: #1f77b4; opacity: 0.6"/>
   </g>
   <g id="patch_99">
    <path d="M 1320.08648 828.779375 
L 1332.210205 828.779375 
L 1332.210205 828.779375 
L 1320.08648 828.779375 
z
" clip-path="url(#p94ed75e9ab)" style="fill: #1f77b4; opacity: 0.6"/>
   </g>
   <g id="patch_100">
    <path d="M 1332.210205 828.779375 
L 1344.333929 828.779375 
L 1344.333929 828.779375 
L 1332.210205 828.779375 
z
" clip-path="url(#p94ed75e9ab)" style="fill: #1f77b4; opacity: 0.6"/>
   </g>
   <g id="patch_101">
    <path d="M 1344.333929 828.779375 
L 1356.457653 828.779375 
L 1356.457653 828.484292 
L 1344.333929 828.484292 
z
" clip-path="url(#p94ed75e9ab)" style="fill: #1f77b4; opacity: 0.6"/>
   </g>
   <g id="patch_102">
    <path d="M 1356.457653 828.779375 
L 1368.581378 828.779375 
L 1368.581378 828.189209 
L 1356.457653 828.189209 
z
" clip-path="url(#p94ed75e9ab)" style="fill: #1f77b4; opacity: 0.6"/>
   </g>
   <g id="matplotlib.axis_1">
    <g id="xtick_1">
     <g id="line2d_1">
      <defs>
       <path id="m140ea1423c" d="M 0 0 
L 0 3.5 
" style="stroke: #000000; stroke-width: 0.8"/>
      </defs>
      <g>
       <use xlink:href="#m140ea1423c" x="155.594395" y="828.779375" style="stroke: #000000; stroke-width: 0.8"/>
      </g>
     </g>
     <g id="text_1">
      <!-- 0 -->
      <g transform="translate(149.868145 849.456563) scale(0.18 -0.18)">
       <defs>
        <path id="DejaVuSans-30" d="M 2034 4250 
Q 1547 4250 1301 3770 
Q 1056 3291 1056 2328 
Q 1056 1369 1301 889 
Q 1547 409 2034 409 
Q 2525 409 2770 889 
Q 3016 1369 3016 2328 
Q 3016 3291 2770 3770 
Q 2525 4250 2034 4250 
z
M 2034 4750 
Q 2819 4750 3233 4129 
Q 3647 3509 3647 2328 
Q 3647 1150 3233 529 
Q 2819 -91 2034 -91 
Q 1250 -91 836 529 
Q 422 1150 422 2328 
Q 422 3509 836 4129 
Q 1250 4750 2034 4750 
z
" transform="scale(0.015625)"/>
       </defs>
       <use xlink:href="#DejaVuSans-30"/>
      </g>
     </g>
    </g>
    <g id="xtick_2">
     <g id="line2d_2">
      <g>
       <use xlink:href="#m140ea1423c" x="374.699545" y="828.779375" style="stroke: #000000; stroke-width: 0.8"/>
      </g>
     </g>
     <g id="text_2">
      <!-- 5 -->
      <g transform="translate(368.973295 849.456563) scale(0.18 -0.18)">
       <defs>
        <path id="DejaVuSans-35" d="M 691 4666 
L 3169 4666 
L 3169 4134 
L 1269 4134 
L 1269 2991 
Q 1406 3038 1543 3061 
Q 1681 3084 1819 3084 
Q 2600 3084 3056 2656 
Q 3513 2228 3513 1497 
Q 3513 744 3044 326 
Q 2575 -91 1722 -91 
Q 1428 -91 1123 -41 
Q 819 9 494 109 
L 494 744 
Q 775 591 1075 516 
Q 1375 441 1709 441 
Q 2250 441 2565 725 
Q 2881 1009 2881 1497 
Q 2881 1984 2565 2268 
Q 2250 2553 1709 2553 
Q 1456 2553 1204 2497 
Q 953 2441 691 2322 
L 691 4666 
z
" transform="scale(0.015625)"/>
       </defs>
       <use xlink:href="#DejaVuSans-35"/>
      </g>
     </g>
    </g>
    <g id="xtick_3">
     <g id="line2d_3">
      <g>
       <use xlink:href="#m140ea1423c" x="593.804696" y="828.779375" style="stroke: #000000; stroke-width: 0.8"/>
      </g>
     </g>
     <g id="text_3">
      <!-- 10 -->
      <g transform="translate(582.352196 849.456563) scale(0.18 -0.18)">
       <defs>
        <path id="DejaVuSans-31" d="M 794 531 
L 1825 531 
L 1825 4091 
L 703 3866 
L 703 4441 
L 1819 4666 
L 2450 4666 
L 2450 531 
L 3481 531 
L 3481 0 
L 794 0 
L 794 531 
z
" transform="scale(0.015625)"/>
       </defs>
       <use xlink:href="#DejaVuSans-31"/>
       <use xlink:href="#DejaVuSans-30" x="63.623047"/>
      </g>
     </g>
    </g>
    <g id="xtick_4">
     <g id="line2d_4">
      <g>
       <use xlink:href="#m140ea1423c" x="812.909846" y="828.779375" style="stroke: #000000; stroke-width: 0.8"/>
      </g>
     </g>
     <g id="text_4">
      <!-- 15 -->
      <g transform="translate(801.457346 849.456563) scale(0.18 -0.18)">
       <use xlink:href="#DejaVuSans-31"/>
       <use xlink:href="#DejaVuSans-35" x="63.623047"/>
      </g>
     </g>
    </g>
    <g id="xtick_5">
     <g id="line2d_5">
      <g>
       <use xlink:href="#m140ea1423c" x="1032.014996" y="828.779375" style="stroke: #000000; stroke-width: 0.8"/>
      </g>
     </g>
     <g id="text_5">
      <!-- 20 -->
      <g transform="translate(1020.562496 849.456563) scale(0.18 -0.18)">
       <defs>
        <path id="DejaVuSans-32" d="M 1228 531 
L 3431 531 
L 3431 0 
L 469 0 
L 469 531 
Q 828 903 1448 1529 
Q 2069 2156 2228 2338 
Q 2531 2678 2651 2914 
Q 2772 3150 2772 3378 
Q 2772 3750 2511 3984 
Q 2250 4219 1831 4219 
Q 1534 4219 1204 4116 
Q 875 4013 500 3803 
L 500 4441 
Q 881 4594 1212 4672 
Q 1544 4750 1819 4750 
Q 2544 4750 2975 4387 
Q 3406 4025 3406 3419 
Q 3406 3131 3298 2873 
Q 3191 2616 2906 2266 
Q 2828 2175 2409 1742 
Q 1991 1309 1228 531 
z
" transform="scale(0.015625)"/>
       </defs>
       <use xlink:href="#DejaVuSans-32"/>
       <use xlink:href="#DejaVuSans-30" x="63.623047"/>
      </g>
     </g>
    </g>
    <g id="xtick_6">
     <g id="line2d_6">
      <g>
       <use xlink:href="#m140ea1423c" x="1251.120146" y="828.779375" style="stroke: #000000; stroke-width: 0.8"/>
      </g>
     </g>
     <g id="text_6">
      <!-- 25 -->
      <g transform="translate(1239.667646 849.456563) scale(0.18 -0.18)">
       <use xlink:href="#DejaVuSans-32"/>
       <use xlink:href="#DejaVuSans-35" x="63.623047"/>
      </g>
     </g>
    </g>
   </g>
   <g id="matplotlib.axis_2">
    <g id="ytick_1">
     <g id="line2d_7">
      <defs>
       <path id="mc44decffb0" d="M 0 0 
L -3.5 0 
" style="stroke: #000000; stroke-width: 0.8"/>
      </defs>
      <g>
       <use xlink:href="#mc44decffb0" x="95.590313" y="828.779375" style="stroke: #000000; stroke-width: 0.8"/>
      </g>
     </g>
     <g id="text_7">
      <!-- 0.000 -->
      <g transform="translate(37.059688 835.617969) scale(0.18 -0.18)">
       <defs>
        <path id="DejaVuSans-2e" d="M 684 794 
L 1344 794 
L 1344 0 
L 684 0 
L 684 794 
z
" transform="scale(0.015625)"/>
       </defs>
       <use xlink:href="#DejaVuSans-30"/>
       <use xlink:href="#DejaVuSans-2e" x="63.623047"/>
       <use xlink:href="#DejaVuSans-30" x="95.410156"/>
       <use xlink:href="#DejaVuSans-30" x="159.033203"/>
       <use xlink:href="#DejaVuSans-30" x="222.65625"/>
      </g>
     </g>
    </g>
    <g id="ytick_2">
     <g id="line2d_8">
      <g>
       <use xlink:href="#mc44decffb0" x="95.590313" y="726.730712" style="stroke: #000000; stroke-width: 0.8"/>
      </g>
     </g>
     <g id="text_8">
      <!-- 0.025 -->
      <g transform="translate(37.059688 733.569306) scale(0.18 -0.18)">
       <use xlink:href="#DejaVuSans-30"/>
       <use xlink:href="#DejaVuSans-2e" x="63.623047"/>
       <use xlink:href="#DejaVuSans-30" x="95.410156"/>
       <use xlink:href="#DejaVuSans-32" x="159.033203"/>
       <use xlink:href="#DejaVuSans-35" x="222.65625"/>
      </g>
     </g>
    </g>
    <g id="ytick_3">
     <g id="line2d_9">
      <g>
       <use xlink:href="#mc44decffb0" x="95.590313" y="624.68205" style="stroke: #000000; stroke-width: 0.8"/>
      </g>
     </g>
     <g id="text_9">
      <!-- 0.050 -->
      <g transform="translate(37.059688 631.520644) scale(0.18 -0.18)">
       <use xlink:href="#DejaVuSans-30"/>
       <use xlink:href="#DejaVuSans-2e" x="63.623047"/>
       <use xlink:href="#DejaVuSans-30" x="95.410156"/>
       <use xlink:href="#DejaVuSans-35" x="159.033203"/>
       <use xlink:href="#DejaVuSans-30" x="222.65625"/>
      </g>
     </g>
    </g>
    <g id="ytick_4">
     <g id="line2d_10">
      <g>
       <use xlink:href="#mc44decffb0" x="95.590313" y="522.633387" style="stroke: #000000; stroke-width: 0.8"/>
      </g>
     </g>
     <g id="text_10">
      <!-- 0.075 -->
      <g transform="translate(37.059688 529.471981) scale(0.18 -0.18)">
       <defs>
        <path id="DejaVuSans-37" d="M 525 4666 
L 3525 4666 
L 3525 4397 
L 1831 0 
L 1172 0 
L 2766 4134 
L 525 4134 
L 525 4666 
z
" transform="scale(0.015625)"/>
       </defs>
       <use xlink:href="#DejaVuSans-30"/>
       <use xlink:href="#DejaVuSans-2e" x="63.623047"/>
       <use xlink:href="#DejaVuSans-30" x="95.410156"/>
       <use xlink:href="#DejaVuSans-37" x="159.033203"/>
       <use xlink:href="#DejaVuSans-35" x="222.65625"/>
      </g>
     </g>
    </g>
    <g id="ytick_5">
     <g id="line2d_11">
      <g>
       <use xlink:href="#mc44decffb0" x="95.590313" y="420.584725" style="stroke: #000000; stroke-width: 0.8"/>
      </g>
     </g>
     <g id="text_11">
      <!-- 0.100 -->
      <g transform="translate(37.059688 427.423319) scale(0.18 -0.18)">
       <use xlink:href="#DejaVuSans-30"/>
       <use xlink:href="#DejaVuSans-2e" x="63.623047"/>
       <use xlink:href="#DejaVuSans-31" x="95.410156"/>
       <use xlink:href="#DejaVuSans-30" x="159.033203"/>
       <use xlink:href="#DejaVuSans-30" x="222.65625"/>
      </g>
     </g>
    </g>
    <g id="ytick_6">
     <g id="line2d_12">
      <g>
       <use xlink:href="#mc44decffb0" x="95.590313" y="318.536062" style="stroke: #000000; stroke-width: 0.8"/>
      </g>
     </g>
     <g id="text_12">
      <!-- 0.125 -->
      <g transform="translate(37.059688 325.374656) scale(0.18 -0.18)">
       <use xlink:href="#DejaVuSans-30"/>
       <use xlink:href="#DejaVuSans-2e" x="63.623047"/>
       <use xlink:href="#DejaVuSans-31" x="95.410156"/>
       <use xlink:href="#DejaVuSans-32" x="159.033203"/>
       <use xlink:href="#DejaVuSans-35" x="222.65625"/>
      </g>
     </g>
    </g>
    <g id="ytick_7">
     <g id="line2d_13">
      <g>
       <use xlink:href="#mc44decffb0" x="95.590313" y="216.4874" style="stroke: #000000; stroke-width: 0.8"/>
      </g>
     </g>
     <g id="text_13">
      <!-- 0.150 -->
      <g transform="translate(37.059688 223.325994) scale(0.18 -0.18)">
       <use xlink:href="#DejaVuSans-30"/>
       <use xlink:href="#DejaVuSans-2e" x="63.623047"/>
       <use xlink:href="#DejaVuSans-31" x="95.410156"/>
       <use xlink:href="#DejaVuSans-35" x="159.033203"/>
       <use xlink:href="#DejaVuSans-30" x="222.65625"/>
      </g>
     </g>
    </g>
    <g id="ytick_8">
     <g id="line2d_14">
      <g>
       <use xlink:href="#mc44decffb0" x="95.590313" y="114.438737" style="stroke: #000000; stroke-width: 0.8"/>
      </g>
     </g>
     <g id="text_14">
      <!-- 0.175 -->
      <g transform="translate(37.059688 121.277331) scale(0.18 -0.18)">
       <use xlink:href="#DejaVuSans-30"/>
       <use xlink:href="#DejaVuSans-2e" x="63.623047"/>
       <use xlink:href="#DejaVuSans-31" x="95.410156"/>
       <use xlink:href="#DejaVuSans-37" x="159.033203"/>
       <use xlink:href="#DejaVuSans-35" x="222.65625"/>
      </g>
     </g>
    </g>
    <g id="text_15">
     <!-- Normed Hist Counts -->
     <g transform="translate(28.276406 548.966563) rotate(-90) scale(0.23 -0.23)">
      <defs>
       <path id="DejaVuSans-4e" d="M 628 4666 
L 1478 4666 
L 3547 763 
L 3547 4666 
L 4159 4666 
L 4159 0 
L 3309 0 
L 1241 3903 
L 1241 0 
L 628 0 
L 628 4666 
z
" transform="scale(0.015625)"/>
       <path id="DejaVuSans-6f" d="M 1959 3097 
Q 1497 3097 1228 2736 
Q 959 2375 959 1747 
Q 959 1119 1226 758 
Q 1494 397 1959 397 
Q 2419 397 2687 759 
Q 2956 1122 2956 1747 
Q 2956 2369 2687 2733 
Q 2419 3097 1959 3097 
z
M 1959 3584 
Q 2709 3584 3137 3096 
Q 3566 2609 3566 1747 
Q 3566 888 3137 398 
Q 2709 -91 1959 -91 
Q 1206 -91 779 398 
Q 353 888 353 1747 
Q 353 2609 779 3096 
Q 1206 3584 1959 3584 
z
" transform="scale(0.015625)"/>
       <path id="DejaVuSans-72" d="M 2631 2963 
Q 2534 3019 2420 3045 
Q 2306 3072 2169 3072 
Q 1681 3072 1420 2755 
Q 1159 2438 1159 1844 
L 1159 0 
L 581 0 
L 581 3500 
L 1159 3500 
L 1159 2956 
Q 1341 3275 1631 3429 
Q 1922 3584 2338 3584 
Q 2397 3584 2469 3576 
Q 2541 3569 2628 3553 
L 2631 2963 
z
" transform="scale(0.015625)"/>
       <path id="DejaVuSans-6d" d="M 3328 2828 
Q 3544 3216 3844 3400 
Q 4144 3584 4550 3584 
Q 5097 3584 5394 3201 
Q 5691 2819 5691 2113 
L 5691 0 
L 5113 0 
L 5113 2094 
Q 5113 2597 4934 2840 
Q 4756 3084 4391 3084 
Q 3944 3084 3684 2787 
Q 3425 2491 3425 1978 
L 3425 0 
L 2847 0 
L 2847 2094 
Q 2847 2600 2669 2842 
Q 2491 3084 2119 3084 
Q 1678 3084 1418 2786 
Q 1159 2488 1159 1978 
L 1159 0 
L 581 0 
L 581 3500 
L 1159 3500 
L 1159 2956 
Q 1356 3278 1631 3431 
Q 1906 3584 2284 3584 
Q 2666 3584 2933 3390 
Q 3200 3197 3328 2828 
z
" transform="scale(0.015625)"/>
       <path id="DejaVuSans-65" d="M 3597 1894 
L 3597 1613 
L 953 1613 
Q 991 1019 1311 708 
Q 1631 397 2203 397 
Q 2534 397 2845 478 
Q 3156 559 3463 722 
L 3463 178 
Q 3153 47 2828 -22 
Q 2503 -91 2169 -91 
Q 1331 -91 842 396 
Q 353 884 353 1716 
Q 353 2575 817 3079 
Q 1281 3584 2069 3584 
Q 2775 3584 3186 3129 
Q 3597 2675 3597 1894 
z
M 3022 2063 
Q 3016 2534 2758 2815 
Q 2500 3097 2075 3097 
Q 1594 3097 1305 2825 
Q 1016 2553 972 2059 
L 3022 2063 
z
" transform="scale(0.015625)"/>
       <path id="DejaVuSans-64" d="M 2906 2969 
L 2906 4863 
L 3481 4863 
L 3481 0 
L 2906 0 
L 2906 525 
Q 2725 213 2448 61 
Q 2172 -91 1784 -91 
Q 1150 -91 751 415 
Q 353 922 353 1747 
Q 353 2572 751 3078 
Q 1150 3584 1784 3584 
Q 2172 3584 2448 3432 
Q 2725 3281 2906 2969 
z
M 947 1747 
Q 947 1113 1208 752 
Q 1469 391 1925 391 
Q 2381 391 2643 752 
Q 2906 1113 2906 1747 
Q 2906 2381 2643 2742 
Q 2381 3103 1925 3103 
Q 1469 3103 1208 2742 
Q 947 2381 947 1747 
z
" transform="scale(0.015625)"/>
       <path id="DejaVuSans-20" transform="scale(0.015625)"/>
       <path id="DejaVuSans-48" d="M 628 4666 
L 1259 4666 
L 1259 2753 
L 3553 2753 
L 3553 4666 
L 4184 4666 
L 4184 0 
L 3553 0 
L 3553 2222 
L 1259 2222 
L 1259 0 
L 628 0 
L 628 4666 
z
" transform="scale(0.015625)"/>
       <path id="DejaVuSans-69" d="M 603 3500 
L 1178 3500 
L 1178 0 
L 603 0 
L 603 3500 
z
M 603 4863 
L 1178 4863 
L 1178 4134 
L 603 4134 
L 603 4863 
z
" transform="scale(0.015625)"/>
       <path id="DejaVuSans-73" d="M 2834 3397 
L 2834 2853 
Q 2591 2978 2328 3040 
Q 2066 3103 1784 3103 
Q 1356 3103 1142 2972 
Q 928 2841 928 2578 
Q 928 2378 1081 2264 
Q 1234 2150 1697 2047 
L 1894 2003 
Q 2506 1872 2764 1633 
Q 3022 1394 3022 966 
Q 3022 478 2636 193 
Q 2250 -91 1575 -91 
Q 1294 -91 989 -36 
Q 684 19 347 128 
L 347 722 
Q 666 556 975 473 
Q 1284 391 1588 391 
Q 1994 391 2212 530 
Q 2431 669 2431 922 
Q 2431 1156 2273 1281 
Q 2116 1406 1581 1522 
L 1381 1569 
Q 847 1681 609 1914 
Q 372 2147 372 2553 
Q 372 3047 722 3315 
Q 1072 3584 1716 3584 
Q 2034 3584 2315 3537 
Q 2597 3491 2834 3397 
z
" transform="scale(0.015625)"/>
       <path id="DejaVuSans-74" d="M 1172 4494 
L 1172 3500 
L 2356 3500 
L 2356 3053 
L 1172 3053 
L 1172 1153 
Q 1172 725 1289 603 
Q 1406 481 1766 481 
L 2356 481 
L 2356 0 
L 1766 0 
Q 1100 0 847 248 
Q 594 497 594 1153 
L 594 3053 
L 172 3053 
L 172 3500 
L 594 3500 
L 594 4494 
L 1172 4494 
z
" transform="scale(0.015625)"/>
       <path id="DejaVuSans-43" d="M 4122 4306 
L 4122 3641 
Q 3803 3938 3442 4084 
Q 3081 4231 2675 4231 
Q 1875 4231 1450 3742 
Q 1025 3253 1025 2328 
Q 1025 1406 1450 917 
Q 1875 428 2675 428 
Q 3081 428 3442 575 
Q 3803 722 4122 1019 
L 4122 359 
Q 3791 134 3420 21 
Q 3050 -91 2638 -91 
Q 1578 -91 968 557 
Q 359 1206 359 2328 
Q 359 3453 968 4101 
Q 1578 4750 2638 4750 
Q 3056 4750 3426 4639 
Q 3797 4528 4122 4306 
z
" transform="scale(0.015625)"/>
       <path id="DejaVuSans-75" d="M 544 1381 
L 544 3500 
L 1119 3500 
L 1119 1403 
Q 1119 906 1312 657 
Q 1506 409 1894 409 
Q 2359 409 2629 706 
Q 2900 1003 2900 1516 
L 2900 3500 
L 3475 3500 
L 3475 0 
L 2900 0 
L 2900 538 
Q 2691 219 2414 64 
Q 2138 -91 1772 -91 
Q 1169 -91 856 284 
Q 544 659 544 1381 
z
M 1991 3584 
L 1991 3584 
z
" transform="scale(0.015625)"/>
       <path id="DejaVuSans-6e" d="M 3513 2113 
L 3513 0 
L 2938 0 
L 2938 2094 
Q 2938 2591 2744 2837 
Q 2550 3084 2163 3084 
Q 1697 3084 1428 2787 
Q 1159 2491 1159 1978 
L 1159 0 
L 581 0 
L 581 3500 
L 1159 3500 
L 1159 2956 
Q 1366 3272 1645 3428 
Q 1925 3584 2291 3584 
Q 2894 3584 3203 3211 
Q 3513 2838 3513 2113 
z
" transform="scale(0.015625)"/>
      </defs>
      <use xlink:href="#DejaVuSans-4e"/>
      <use xlink:href="#DejaVuSans-6f" x="74.804688"/>
      <use xlink:href="#DejaVuSans-72" x="135.986328"/>
      <use xlink:href="#DejaVuSans-6d" x="175.349609"/>
      <use xlink:href="#DejaVuSans-65" x="272.761719"/>
      <use xlink:href="#DejaVuSans-64" x="334.285156"/>
      <use xlink:href="#DejaVuSans-20" x="397.761719"/>
      <use xlink:href="#DejaVuSans-48" x="429.548828"/>
      <use xlink:href="#DejaVuSans-69" x="504.744141"/>
      <use xlink:href="#DejaVuSans-73" x="532.527344"/>
      <use xlink:href="#DejaVuSans-74" x="584.626953"/>
      <use xlink:href="#DejaVuSans-20" x="623.835938"/>
      <use xlink:href="#DejaVuSans-43" x="655.623047"/>
      <use xlink:href="#DejaVuSans-6f" x="725.447266"/>
      <use xlink:href="#DejaVuSans-75" x="786.628906"/>
      <use xlink:href="#DejaVuSans-6e" x="850.007812"/>
      <use xlink:href="#DejaVuSans-74" x="913.386719"/>
      <use xlink:href="#DejaVuSans-73" x="952.595703"/>
     </g>
    </g>
   </g>
   <g id="line2d_15">
    <path d="M 159.239866 544.914263 
L 165.301728 446.050257 
L 171.36359 389.341288 
L 177.425452 348.263267 
L 183.487315 316.031934 
L 189.549177 289.776448 
L 195.611039 267.989617 
L 201.672901 249.773242 
L 207.734763 234.543961 
L 213.796626 221.897789 
L 219.858488 211.540231 
L 225.92035 203.247096 
L 231.982212 196.841102 
L 238.044075 192.177193 
L 244.105937 189.132961 
L 250.167799 187.602195 
L 256.229661 187.490425 
L 262.291523 188.711789 
L 268.353386 191.18679 
L 274.415248 194.840688 
L 280.47711 199.602326 
L 286.538972 205.403283 
L 292.600835 212.17727 
L 298.662697 219.859697 
L 304.724559 228.38738 
L 310.786421 237.698344 
L 316.848283 247.731715 
L 322.910146 258.427662 
L 328.972008 269.727388 
L 335.03387 281.573161 
L 341.095732 293.908361 
L 347.157594 306.677555 
L 353.219457 319.826578 
L 359.281319 333.302629 
L 371.405043 361.031996 
L 383.528768 389.474155 
L 419.899941 475.595826 
L 432.023665 503.568119 
L 444.14739 530.758488 
L 456.271114 556.970908 
L 462.332977 569.658655 
L 468.394839 582.044098 
L 474.456701 594.11233 
L 480.518563 605.850451 
L 486.580425 617.247509 
L 492.642288 628.294428 
L 498.70415 638.983937 
L 504.766012 649.310491 
L 510.827874 659.270186 
L 516.889737 668.860677 
L 522.951599 678.081083 
L 529.013461 686.9319 
L 535.075323 695.414906 
L 541.137185 703.533069 
L 547.199048 711.290451 
L 553.26091 718.692117 
L 559.322772 725.744041 
L 565.384634 732.453015 
L 571.446496 738.826562 
L 577.508359 744.872849 
L 583.570221 750.6006 
L 589.632083 756.019022 
L 595.693945 761.137719 
L 601.755808 765.966626 
L 607.81767 770.515935 
L 613.879532 774.796031 
L 619.941394 778.817428 
L 626.003256 782.590713 
L 632.065119 786.126492 
L 638.126981 789.435341 
L 644.188843 792.52776 
L 650.250705 795.414134 
L 656.312567 798.104693 
L 662.37443 800.609482 
L 668.436292 802.93833 
L 674.498154 805.100825 
L 680.560016 807.106293 
L 686.621879 808.963778 
L 692.683741 810.682028 
L 698.745603 812.26948 
L 704.807465 813.734254 
L 716.93119 816.326614 
L 729.054914 818.517486 
L 741.178638 820.359939 
L 753.302363 821.901806 
L 765.426087 823.185854 
L 777.549812 824.250026 
L 789.673536 825.127731 
L 807.859123 826.157496 
L 826.04471 826.915247 
L 844.230296 827.466924 
L 868.477745 827.969757 
L 898.787056 828.347445 
L 941.220092 828.60813 
L 1007.900576 828.743426 
L 1183.69458 828.779061 
L 1365.550447 828.779374 
L 1365.550447 828.779374 
" clip-path="url(#p94ed75e9ab)" style="fill: none; stroke: #ff7f0e; stroke-width: 2; stroke-linecap: square"/>
   </g>
   <g id="line2d_16">
    <path d="M 159.239866 747.608964 
L 165.301728 624.270191 
L 171.36359 518.661008 
L 177.425452 428.534235 
L 183.487315 352.124444 
L 189.549177 287.911661 
L 195.611039 234.552484 
L 201.672901 190.846936 
L 207.734763 155.717795 
L 213.796626 128.195606 
L 219.858488 107.406829 
L 225.92035 92.563956 
L 231.982212 82.957011 
L 238.044075 77.946097 
L 244.105937 76.954778 
L 250.167799 79.464149 
L 256.229661 85.007495 
L 262.291523 93.165474 
L 268.353386 103.561733 
L 274.415248 115.858946 
L 280.47711 129.755198 
L 286.538972 144.980698 
L 292.600835 161.29479 
L 298.662697 178.483219 
L 304.724559 196.355653 
L 310.786421 214.743411 
L 322.910146 252.486249 
L 347.157594 328.690379 
L 359.281319 365.823246 
L 365.343181 383.940435 
L 371.405043 401.702037 
L 377.466906 419.074676 
L 383.528768 436.031035 
L 389.59063 452.549197 
L 395.652492 468.612037 
L 401.714354 484.206686 
L 407.776217 499.324029 
L 413.838079 513.958266 
L 419.899941 528.106504 
L 425.961803 541.768397 
L 432.023665 554.945815 
L 438.085528 567.642553 
L 444.14739 579.864059 
L 450.209252 591.617201 
L 456.271114 602.91005 
L 462.332977 613.751688 
L 468.394839 624.152039 
L 474.456701 634.121713 
L 480.518563 643.671871 
L 486.580425 652.814105 
L 492.642288 661.560328 
L 498.70415 669.922684 
L 504.766012 677.913457 
L 510.827874 685.545003 
L 516.889737 692.829686 
L 522.951599 699.779818 
L 529.013461 706.407614 
L 535.075323 712.725148 
L 541.137185 718.744319 
L 547.199048 724.47682 
L 553.26091 729.934111 
L 559.322772 735.1274 
L 565.384634 740.067624 
L 571.446496 744.765438 
L 577.508359 749.231199 
L 583.570221 753.474964 
L 589.632083 757.506477 
L 595.693945 761.335175 
L 601.755808 764.970177 
L 607.81767 768.420289 
L 613.879532 771.694004 
L 619.941394 774.799505 
L 626.003256 777.744669 
L 632.065119 780.537069 
L 638.126981 783.183982 
L 644.188843 785.692394 
L 650.250705 788.069006 
L 656.312567 790.320241 
L 668.436292 794.470931 
L 680.560016 798.190577 
L 692.683741 801.521334 
L 704.807465 804.501653 
L 716.93119 807.166534 
L 729.054914 809.547778 
L 741.178638 811.674227 
L 753.302363 813.572003 
L 765.426087 815.264727 
L 777.549812 816.77373 
L 789.673536 818.11825 
L 807.859123 819.86406 
L 826.04471 821.329717 
L 844.230296 822.558952 
L 862.415883 823.58894 
L 886.663332 824.706113 
L 910.910781 825.586307 
L 941.220092 826.427463 
L 971.529403 827.049582 
L 1007.900576 827.585104 
L 1056.395474 828.052643 
L 1117.014096 828.390351 
L 1201.880167 828.61824 
L 1347.36486 828.74433 
L 1365.550447 828.750447 
L 1365.550447 828.750447 
" clip-path="url(#p94ed75e9ab)" style="fill: none; stroke: #2ca02c; stroke-width: 2; stroke-linecap: square"/>
   </g>
   <g id="line2d_17">
    <path d="M 159.239866 607.837488 
L 165.301728 592.596968 
L 171.36359 576.910877 
L 177.425452 560.827387 
L 189.549177 527.691191 
L 201.672901 493.692257 
L 219.858488 442.385766 
L 231.982212 408.960286 
L 238.044075 392.752217 
L 244.105937 377.004868 
L 250.167799 361.811801 
L 256.229661 347.265782 
L 262.291523 333.457851 
L 268.353386 320.476376 
L 274.415248 308.40612 
L 280.47711 297.327327 
L 286.538972 287.314829 
L 292.600835 278.43721 
L 298.662697 270.756023 
L 304.724559 264.32508 
L 310.786421 259.189824 
L 316.848283 255.386796 
L 322.910146 252.9432 
L 328.972008 251.876579 
L 335.03387 252.194605 
L 341.095732 253.894991 
L 347.157594 256.965513 
L 353.219457 261.384158 
L 359.281319 267.119391 
L 365.343181 274.130521 
L 371.405043 282.368193 
L 377.466906 291.774955 
L 383.528768 302.285934 
L 389.59063 313.829577 
L 395.652492 326.328459 
L 401.714354 339.70015 
L 407.776217 353.858116 
L 413.838079 368.712644 
L 419.899941 384.171788 
L 425.961803 400.142299 
L 432.023665 416.530556 
L 444.14739 450.189268 
L 474.456701 535.394133 
L 486.580425 568.257843 
L 492.642288 584.165246 
L 498.70415 599.652372 
L 504.766012 614.67387 
L 510.827874 629.190552 
L 516.889737 643.169353 
L 522.951599 656.58322 
L 529.013461 669.410942 
L 535.075323 681.636928 
L 541.137185 693.250925 
L 547.199048 704.247711 
L 553.26091 714.626742 
L 559.322772 724.391779 
L 565.384634 733.550493 
L 571.446496 742.114065 
L 577.508359 750.096771 
L 583.570221 757.515574 
L 589.632083 764.389725 
L 595.693945 770.740369 
L 601.755808 776.590169 
L 607.81767 781.962951 
L 613.879532 786.883371 
L 619.941394 791.376603 
L 626.003256 795.468057 
L 632.065119 799.183128 
L 638.126981 802.546958 
L 644.188843 805.584246 
L 650.250705 808.31907 
L 656.312567 810.774744 
L 662.37443 812.973695 
L 668.436292 814.937372 
L 674.498154 816.686166 
L 680.560016 818.239366 
L 686.621879 819.615119 
L 692.683741 820.830416 
L 698.745603 821.90109 
L 704.807465 822.841831 
L 716.93119 824.386683 
L 729.054914 825.560664 
L 741.178638 826.443442 
L 753.302363 827.100315 
L 771.48795 827.77441 
L 789.673536 828.190738 
L 813.920985 828.500439 
L 850.292158 828.694712 
L 916.972643 828.771775 
L 1365.550447 828.779375 
L 1365.550447 828.779375 
" clip-path="url(#p94ed75e9ab)" style="fill: none; stroke: #d62728; stroke-width: 2; stroke-linecap: square"/>
   </g>
   <g id="patch_103">
    <path d="M 95.590313 828.779375 
L 95.590313 38.075625 
" style="fill: none; stroke: #000000; stroke-width: 0.8; stroke-linejoin: miter; stroke-linecap: square"/>
   </g>
   <g id="patch_104">
    <path d="M 1429.2 828.779375 
L 1429.2 38.075625 
" style="fill: none; stroke: #000000; stroke-width: 0.8; stroke-linejoin: miter; stroke-linecap: square"/>
   </g>
   <g id="patch_105">
    <path d="M 95.590313 828.779375 
L 1429.2 828.779375 
" style="fill: none; stroke: #000000; stroke-width: 0.8; stroke-linejoin: miter; stroke-linecap: square"/>
   </g>
   <g id="patch_106">
    <path d="M 95.590313 38.075625 
L 1429.2 38.075625 
" style="fill: none; stroke: #000000; stroke-width: 0.8; stroke-linejoin: miter; stroke-linecap: square"/>
   </g>
   <g id="text_16">
    <!-- All Fitted Distributions -->
    <g transform="translate(607.769531 32.075625) scale(0.28 -0.28)">
     <defs>
      <path id="DejaVuSans-41" d="M 2188 4044 
L 1331 1722 
L 3047 1722 
L 2188 4044 
z
M 1831 4666 
L 2547 4666 
L 4325 0 
L 3669 0 
L 3244 1197 
L 1141 1197 
L 716 0 
L 50 0 
L 1831 4666 
z
" transform="scale(0.015625)"/>
      <path id="DejaVuSans-6c" d="M 603 4863 
L 1178 4863 
L 1178 0 
L 603 0 
L 603 4863 
z
" transform="scale(0.015625)"/>
      <path id="DejaVuSans-46" d="M 628 4666 
L 3309 4666 
L 3309 4134 
L 1259 4134 
L 1259 2759 
L 3109 2759 
L 3109 2228 
L 1259 2228 
L 1259 0 
L 628 0 
L 628 4666 
z
" transform="scale(0.015625)"/>
      <path id="DejaVuSans-44" d="M 1259 4147 
L 1259 519 
L 2022 519 
Q 2988 519 3436 956 
Q 3884 1394 3884 2338 
Q 3884 3275 3436 3711 
Q 2988 4147 2022 4147 
L 1259 4147 
z
M 628 4666 
L 1925 4666 
Q 3281 4666 3915 4102 
Q 4550 3538 4550 2338 
Q 4550 1131 3912 565 
Q 3275 0 1925 0 
L 628 0 
L 628 4666 
z
" transform="scale(0.015625)"/>
      <path id="DejaVuSans-62" d="M 3116 1747 
Q 3116 2381 2855 2742 
Q 2594 3103 2138 3103 
Q 1681 3103 1420 2742 
Q 1159 2381 1159 1747 
Q 1159 1113 1420 752 
Q 1681 391 2138 391 
Q 2594 391 2855 752 
Q 3116 1113 3116 1747 
z
M 1159 2969 
Q 1341 3281 1617 3432 
Q 1894 3584 2278 3584 
Q 2916 3584 3314 3078 
Q 3713 2572 3713 1747 
Q 3713 922 3314 415 
Q 2916 -91 2278 -91 
Q 1894 -91 1617 61 
Q 1341 213 1159 525 
L 1159 0 
L 581 0 
L 581 4863 
L 1159 4863 
L 1159 2969 
z
" transform="scale(0.015625)"/>
     </defs>
     <use xlink:href="#DejaVuSans-41"/>
     <use xlink:href="#DejaVuSans-6c" x="68.408203"/>
     <use xlink:href="#DejaVuSans-6c" x="96.191406"/>
     <use xlink:href="#DejaVuSans-20" x="123.974609"/>
     <use xlink:href="#DejaVuSans-46" x="155.761719"/>
     <use xlink:href="#DejaVuSans-69" x="206.03125"/>
     <use xlink:href="#DejaVuSans-74" x="233.814453"/>
     <use xlink:href="#DejaVuSans-74" x="273.023438"/>
     <use xlink:href="#DejaVuSans-65" x="312.232422"/>
     <use xlink:href="#DejaVuSans-64" x="373.755859"/>
     <use xlink:href="#DejaVuSans-20" x="437.232422"/>
     <use xlink:href="#DejaVuSans-44" x="469.019531"/>
     <use xlink:href="#DejaVuSans-69" x="546.021484"/>
     <use xlink:href="#DejaVuSans-73" x="573.804688"/>
     <use xlink:href="#DejaVuSans-74" x="625.904297"/>
     <use xlink:href="#DejaVuSans-72" x="665.113281"/>
     <use xlink:href="#DejaVuSans-69" x="706.226562"/>
     <use xlink:href="#DejaVuSans-62" x="734.009766"/>
     <use xlink:href="#DejaVuSans-75" x="797.486328"/>
     <use xlink:href="#DejaVuSans-74" x="860.865234"/>
     <use xlink:href="#DejaVuSans-69" x="900.074219"/>
     <use xlink:href="#DejaVuSans-6f" x="927.857422"/>
     <use xlink:href="#DejaVuSans-6e" x="989.039062"/>
     <use xlink:href="#DejaVuSans-73" x="1052.417969"/>
    </g>
   </g>
   <g id="legend_1">
    <g id="patch_107">
     <path d="M 1060.635 198.185625 
L 1412.4 198.185625 
Q 1417.2 198.185625 1417.2 193.385625 
L 1417.2 54.875625 
Q 1417.2 50.075625 1412.4 50.075625 
L 1060.635 50.075625 
Q 1055.835 50.075625 1055.835 54.875625 
L 1055.835 193.385625 
Q 1055.835 198.185625 1060.635 198.185625 
z
" style="fill: #ffffff; opacity: 0.8; stroke: #cccccc; stroke-linejoin: miter"/>
    </g>
    <g id="patch_108">
     <path d="M 1065.435 77.911875 
L 1113.435 77.911875 
L 1113.435 61.111875 
L 1065.435 61.111875 
z
" style="fill: #1f77b4; opacity: 0.6"/>
    </g>
    <g id="text_17">
     <!-- Generated Distribution -->
     <g transform="translate(1132.635 77.911875) scale(0.24 -0.24)">
      <defs>
       <path id="DejaVuSans-47" d="M 3809 666 
L 3809 1919 
L 2778 1919 
L 2778 2438 
L 4434 2438 
L 4434 434 
Q 4069 175 3628 42 
Q 3188 -91 2688 -91 
Q 1594 -91 976 548 
Q 359 1188 359 2328 
Q 359 3472 976 4111 
Q 1594 4750 2688 4750 
Q 3144 4750 3555 4637 
Q 3966 4525 4313 4306 
L 4313 3634 
Q 3963 3931 3569 4081 
Q 3175 4231 2741 4231 
Q 1884 4231 1454 3753 
Q 1025 3275 1025 2328 
Q 1025 1384 1454 906 
Q 1884 428 2741 428 
Q 3075 428 3337 486 
Q 3600 544 3809 666 
z
" transform="scale(0.015625)"/>
       <path id="DejaVuSans-61" d="M 2194 1759 
Q 1497 1759 1228 1600 
Q 959 1441 959 1056 
Q 959 750 1161 570 
Q 1363 391 1709 391 
Q 2188 391 2477 730 
Q 2766 1069 2766 1631 
L 2766 1759 
L 2194 1759 
z
M 3341 1997 
L 3341 0 
L 2766 0 
L 2766 531 
Q 2569 213 2275 61 
Q 1981 -91 1556 -91 
Q 1019 -91 701 211 
Q 384 513 384 1019 
Q 384 1609 779 1909 
Q 1175 2209 1959 2209 
L 2766 2209 
L 2766 2266 
Q 2766 2663 2505 2880 
Q 2244 3097 1772 3097 
Q 1472 3097 1187 3025 
Q 903 2953 641 2809 
L 641 3341 
Q 956 3463 1253 3523 
Q 1550 3584 1831 3584 
Q 2591 3584 2966 3190 
Q 3341 2797 3341 1997 
z
" transform="scale(0.015625)"/>
      </defs>
      <use xlink:href="#DejaVuSans-47"/>
      <use xlink:href="#DejaVuSans-65" x="77.490234"/>
      <use xlink:href="#DejaVuSans-6e" x="139.013672"/>
      <use xlink:href="#DejaVuSans-65" x="202.392578"/>
      <use xlink:href="#DejaVuSans-72" x="263.916016"/>
      <use xlink:href="#DejaVuSans-61" x="305.029297"/>
      <use xlink:href="#DejaVuSans-74" x="366.308594"/>
      <use xlink:href="#DejaVuSans-65" x="405.517578"/>
      <use xlink:href="#DejaVuSans-64" x="467.041016"/>
      <use xlink:href="#DejaVuSans-20" x="530.517578"/>
      <use xlink:href="#DejaVuSans-44" x="562.304688"/>
      <use xlink:href="#DejaVuSans-69" x="639.306641"/>
      <use xlink:href="#DejaVuSans-73" x="667.089844"/>
      <use xlink:href="#DejaVuSans-74" x="719.189453"/>
      <use xlink:href="#DejaVuSans-72" x="758.398438"/>
      <use xlink:href="#DejaVuSans-69" x="799.511719"/>
      <use xlink:href="#DejaVuSans-62" x="827.294922"/>
      <use xlink:href="#DejaVuSans-75" x="890.771484"/>
      <use xlink:href="#DejaVuSans-74" x="954.150391"/>
      <use xlink:href="#DejaVuSans-69" x="993.359375"/>
      <use xlink:href="#DejaVuSans-6f" x="1021.142578"/>
      <use xlink:href="#DejaVuSans-6e" x="1082.324219"/>
     </g>
    </g>
    <g id="line2d_18">
     <path d="M 1065.435 104.739375 
L 1089.435 104.739375 
L 1113.435 104.739375 
" style="fill: none; stroke: #ff7f0e; stroke-width: 2; stroke-linecap: square"/>
    </g>
    <g id="text_18">
     <!-- Chi fit -->
     <g transform="translate(1132.635 113.139375) scale(0.24 -0.24)">
      <defs>
       <path id="DejaVuSans-68" d="M 3513 2113 
L 3513 0 
L 2938 0 
L 2938 2094 
Q 2938 2591 2744 2837 
Q 2550 3084 2163 3084 
Q 1697 3084 1428 2787 
Q 1159 2491 1159 1978 
L 1159 0 
L 581 0 
L 581 4863 
L 1159 4863 
L 1159 2956 
Q 1366 3272 1645 3428 
Q 1925 3584 2291 3584 
Q 2894 3584 3203 3211 
Q 3513 2838 3513 2113 
z
" transform="scale(0.015625)"/>
       <path id="DejaVuSans-66" d="M 2375 4863 
L 2375 4384 
L 1825 4384 
Q 1516 4384 1395 4259 
Q 1275 4134 1275 3809 
L 1275 3500 
L 2222 3500 
L 2222 3053 
L 1275 3053 
L 1275 0 
L 697 0 
L 697 3053 
L 147 3053 
L 147 3500 
L 697 3500 
L 697 3744 
Q 697 4328 969 4595 
Q 1241 4863 1831 4863 
L 2375 4863 
z
" transform="scale(0.015625)"/>
      </defs>
      <use xlink:href="#DejaVuSans-43"/>
      <use xlink:href="#DejaVuSans-68" x="69.824219"/>
      <use xlink:href="#DejaVuSans-69" x="133.203125"/>
      <use xlink:href="#DejaVuSans-20" x="160.986328"/>
      <use xlink:href="#DejaVuSans-66" x="192.773438"/>
      <use xlink:href="#DejaVuSans-69" x="227.978516"/>
      <use xlink:href="#DejaVuSans-74" x="255.761719"/>
     </g>
    </g>
    <g id="line2d_19">
     <path d="M 1065.435 139.966875 
L 1089.435 139.966875 
L 1113.435 139.966875 
" style="fill: none; stroke: #2ca02c; stroke-width: 2; stroke-linecap: square"/>
    </g>
    <g id="text_19">
     <!-- ChiSquared fit -->
     <g transform="translate(1132.635 148.366875) scale(0.24 -0.24)">
      <defs>
       <path id="DejaVuSans-53" d="M 3425 4513 
L 3425 3897 
Q 3066 4069 2747 4153 
Q 2428 4238 2131 4238 
Q 1616 4238 1336 4038 
Q 1056 3838 1056 3469 
Q 1056 3159 1242 3001 
Q 1428 2844 1947 2747 
L 2328 2669 
Q 3034 2534 3370 2195 
Q 3706 1856 3706 1288 
Q 3706 609 3251 259 
Q 2797 -91 1919 -91 
Q 1588 -91 1214 -16 
Q 841 59 441 206 
L 441 856 
Q 825 641 1194 531 
Q 1563 422 1919 422 
Q 2459 422 2753 634 
Q 3047 847 3047 1241 
Q 3047 1584 2836 1778 
Q 2625 1972 2144 2069 
L 1759 2144 
Q 1053 2284 737 2584 
Q 422 2884 422 3419 
Q 422 4038 858 4394 
Q 1294 4750 2059 4750 
Q 2388 4750 2728 4690 
Q 3069 4631 3425 4513 
z
" transform="scale(0.015625)"/>
       <path id="DejaVuSans-71" d="M 947 1747 
Q 947 1113 1208 752 
Q 1469 391 1925 391 
Q 2381 391 2643 752 
Q 2906 1113 2906 1747 
Q 2906 2381 2643 2742 
Q 2381 3103 1925 3103 
Q 1469 3103 1208 2742 
Q 947 2381 947 1747 
z
M 2906 525 
Q 2725 213 2448 61 
Q 2172 -91 1784 -91 
Q 1150 -91 751 415 
Q 353 922 353 1747 
Q 353 2572 751 3078 
Q 1150 3584 1784 3584 
Q 2172 3584 2448 3432 
Q 2725 3281 2906 2969 
L 2906 3500 
L 3481 3500 
L 3481 -1331 
L 2906 -1331 
L 2906 525 
z
" transform="scale(0.015625)"/>
      </defs>
      <use xlink:href="#DejaVuSans-43"/>
      <use xlink:href="#DejaVuSans-68" x="69.824219"/>
      <use xlink:href="#DejaVuSans-69" x="133.203125"/>
      <use xlink:href="#DejaVuSans-53" x="160.986328"/>
      <use xlink:href="#DejaVuSans-71" x="224.462891"/>
      <use xlink:href="#DejaVuSans-75" x="287.939453"/>
      <use xlink:href="#DejaVuSans-61" x="351.318359"/>
      <use xlink:href="#DejaVuSans-72" x="412.597656"/>
      <use xlink:href="#DejaVuSans-65" x="451.460938"/>
      <use xlink:href="#DejaVuSans-64" x="512.984375"/>
      <use xlink:href="#DejaVuSans-20" x="576.460938"/>
      <use xlink:href="#DejaVuSans-66" x="608.248047"/>
      <use xlink:href="#DejaVuSans-69" x="643.453125"/>
      <use xlink:href="#DejaVuSans-74" x="671.236328"/>
     </g>
    </g>
    <g id="line2d_20">
     <path d="M 1065.435 175.194375 
L 1089.435 175.194375 
L 1113.435 175.194375 
" style="fill: none; stroke: #d62728; stroke-width: 2; stroke-linecap: square"/>
    </g>
    <g id="text_20">
     <!-- Normal fit -->
     <g transform="translate(1132.635 183.594375) scale(0.24 -0.24)">
      <use xlink:href="#DejaVuSans-4e"/>
      <use xlink:href="#DejaVuSans-6f" x="74.804688"/>
      <use xlink:href="#DejaVuSans-72" x="135.986328"/>
      <use xlink:href="#DejaVuSans-6d" x="175.349609"/>
      <use xlink:href="#DejaVuSans-61" x="272.761719"/>
      <use xlink:href="#DejaVuSans-6c" x="334.041016"/>
      <use xlink:href="#DejaVuSans-20" x="361.824219"/>
      <use xlink:href="#DejaVuSans-66" x="393.611328"/>
      <use xlink:href="#DejaVuSans-69" x="428.816406"/>
      <use xlink:href="#DejaVuSans-74" x="456.599609"/>
     </g>
    </g>
   </g>
  </g>
 </g>
 <defs>
  <clipPath id="p94ed75e9ab">
   <rect x="95.590313" y="38.075625" width="1333.609688" height="790.70375"/>
  </clipPath>
 </defs>
</svg>
