<?xml version="1.0" encoding="utf-8" standalone="no"?>
<!DOCTYPE svg PUBLIC "-//W3C//DTD SVG 1.1//EN"
  "http://www.w3.org/Graphics/SVG/1.1/DTD/svg11.dtd">
<svg height="720pt" version="1.1" viewBox="0 0 1152 720" width="1152pt" xmlns="http://www.w3.org/2000/svg" xmlns:xlink="http://www.w3.org/1999/xlink">
 <metadata>
  <rdf:RDF xmlns:cc="http://creativecommons.org/ns#" xmlns:dc="http://purl.org/dc/elements/1.1/" xmlns:rdf="http://www.w3.org/1999/02/22-rdf-syntax-ns#">
   <cc:Work>
    <dc:type rdf:resource="http://purl.org/dc/dcmitype/StillImage"/>
    <dc:date>2022-05-04T19:30:47.524992</dc:date>
    <dc:format>image/svg+xml</dc:format>
    <dc:creator>
     <cc:Agent>
      <dc:title>Matplotlib v3.4.3, https://matplotlib.org/</dc:title>
     </cc:Agent>
    </dc:creator>
   </cc:Work>
  </rdf:RDF>
 </metadata>
 <defs>
  <style type="text/css">*{stroke-linecap:butt;stroke-linejoin:round;}</style>
 </defs>
 <g id="figure_1">
  <g id="patch_1">
   <path d="M 0 720 
L 1152 720 
L 1152 0 
L 0 0 
z
" style="fill:#ffffff;"/>
  </g>
  <g id="axes_1">
   <g id="patch_2">
    <path d="M 58.0925 658.519688 
L 1124.02125 658.519688 
L 1124.02125 10.8 
L 58.0925 10.8 
z
" style="fill:#ffffff;"/>
   </g>
   <g id="matplotlib.axis_1">
    <g id="xtick_1">
     <g id="line2d_1">
      <defs>
       <path d="M 0 0 
L 0 3.5 
" id="m34c527791e" style="stroke:#000000;stroke-width:0.8;"/>
      </defs>
      <g>
       <use style="stroke:#000000;stroke-width:0.8;" x="58.0925" xlink:href="#m34c527791e" y="658.519688"/>
      </g>
     </g>
     <g id="text_1">
      <!-- −200 -->
      <g transform="translate(33.372031 679.196875)scale(0.18 -0.18)">
       <defs>
        <path d="M 678 2272 
L 4684 2272 
L 4684 1741 
L 678 1741 
L 678 2272 
z
" id="DejaVuSans-2212" transform="scale(0.015625)"/>
        <path d="M 1228 531 
L 3431 531 
L 3431 0 
L 469 0 
L 469 531 
Q 828 903 1448 1529 
Q 2069 2156 2228 2338 
Q 2531 2678 2651 2914 
Q 2772 3150 2772 3378 
Q 2772 3750 2511 3984 
Q 2250 4219 1831 4219 
Q 1534 4219 1204 4116 
Q 875 4013 500 3803 
L 500 4441 
Q 881 4594 1212 4672 
Q 1544 4750 1819 4750 
Q 2544 4750 2975 4387 
Q 3406 4025 3406 3419 
Q 3406 3131 3298 2873 
Q 3191 2616 2906 2266 
Q 2828 2175 2409 1742 
Q 1991 1309 1228 531 
z
" id="DejaVuSans-32" transform="scale(0.015625)"/>
        <path d="M 2034 4250 
Q 1547 4250 1301 3770 
Q 1056 3291 1056 2328 
Q 1056 1369 1301 889 
Q 1547 409 2034 409 
Q 2525 409 2770 889 
Q 3016 1369 3016 2328 
Q 3016 3291 2770 3770 
Q 2525 4250 2034 4250 
z
M 2034 4750 
Q 2819 4750 3233 4129 
Q 3647 3509 3647 2328 
Q 3647 1150 3233 529 
Q 2819 -91 2034 -91 
Q 1250 -91 836 529 
Q 422 1150 422 2328 
Q 422 3509 836 4129 
Q 1250 4750 2034 4750 
z
" id="DejaVuSans-30" transform="scale(0.015625)"/>
       </defs>
       <use xlink:href="#DejaVuSans-2212"/>
       <use x="83.789062" xlink:href="#DejaVuSans-32"/>
       <use x="147.412109" xlink:href="#DejaVuSans-30"/>
       <use x="211.035156" xlink:href="#DejaVuSans-30"/>
      </g>
     </g>
    </g>
    <g id="xtick_2">
     <g id="line2d_2">
      <g>
       <use style="stroke:#000000;stroke-width:0.8;" x="191.333594" xlink:href="#m34c527791e" y="658.519688"/>
      </g>
     </g>
     <g id="text_2">
      <!-- −150 -->
      <g transform="translate(166.613125 679.196875)scale(0.18 -0.18)">
       <defs>
        <path d="M 794 531 
L 1825 531 
L 1825 4091 
L 703 3866 
L 703 4441 
L 1819 4666 
L 2450 4666 
L 2450 531 
L 3481 531 
L 3481 0 
L 794 0 
L 794 531 
z
" id="DejaVuSans-31" transform="scale(0.015625)"/>
        <path d="M 691 4666 
L 3169 4666 
L 3169 4134 
L 1269 4134 
L 1269 2991 
Q 1406 3038 1543 3061 
Q 1681 3084 1819 3084 
Q 2600 3084 3056 2656 
Q 3513 2228 3513 1497 
Q 3513 744 3044 326 
Q 2575 -91 1722 -91 
Q 1428 -91 1123 -41 
Q 819 9 494 109 
L 494 744 
Q 775 591 1075 516 
Q 1375 441 1709 441 
Q 2250 441 2565 725 
Q 2881 1009 2881 1497 
Q 2881 1984 2565 2268 
Q 2250 2553 1709 2553 
Q 1456 2553 1204 2497 
Q 953 2441 691 2322 
L 691 4666 
z
" id="DejaVuSans-35" transform="scale(0.015625)"/>
       </defs>
       <use xlink:href="#DejaVuSans-2212"/>
       <use x="83.789062" xlink:href="#DejaVuSans-31"/>
       <use x="147.412109" xlink:href="#DejaVuSans-35"/>
       <use x="211.035156" xlink:href="#DejaVuSans-30"/>
      </g>
     </g>
    </g>
    <g id="xtick_3">
     <g id="line2d_3">
      <g>
       <use style="stroke:#000000;stroke-width:0.8;" x="324.574687" xlink:href="#m34c527791e" y="658.519688"/>
      </g>
     </g>
     <g id="text_3">
      <!-- −100 -->
      <g transform="translate(299.854219 679.196875)scale(0.18 -0.18)">
       <use xlink:href="#DejaVuSans-2212"/>
       <use x="83.789062" xlink:href="#DejaVuSans-31"/>
       <use x="147.412109" xlink:href="#DejaVuSans-30"/>
       <use x="211.035156" xlink:href="#DejaVuSans-30"/>
      </g>
     </g>
    </g>
    <g id="xtick_4">
     <g id="line2d_4">
      <g>
       <use style="stroke:#000000;stroke-width:0.8;" x="457.815781" xlink:href="#m34c527791e" y="658.519688"/>
      </g>
     </g>
     <g id="text_4">
      <!-- −50 -->
      <g transform="translate(438.821562 679.196875)scale(0.18 -0.18)">
       <use xlink:href="#DejaVuSans-2212"/>
       <use x="83.789062" xlink:href="#DejaVuSans-35"/>
       <use x="147.412109" xlink:href="#DejaVuSans-30"/>
      </g>
     </g>
    </g>
    <g id="xtick_5">
     <g id="line2d_5">
      <g>
       <use style="stroke:#000000;stroke-width:0.8;" x="591.056875" xlink:href="#m34c527791e" y="658.519688"/>
      </g>
     </g>
     <g id="text_5">
      <!-- 0 -->
      <g transform="translate(585.330625 679.196875)scale(0.18 -0.18)">
       <use xlink:href="#DejaVuSans-30"/>
      </g>
     </g>
    </g>
    <g id="xtick_6">
     <g id="line2d_6">
      <g>
       <use style="stroke:#000000;stroke-width:0.8;" x="724.297969" xlink:href="#m34c527791e" y="658.519688"/>
      </g>
     </g>
     <g id="text_6">
      <!-- 50 -->
      <g transform="translate(712.845469 679.196875)scale(0.18 -0.18)">
       <use xlink:href="#DejaVuSans-35"/>
       <use x="63.623047" xlink:href="#DejaVuSans-30"/>
      </g>
     </g>
    </g>
    <g id="xtick_7">
     <g id="line2d_7">
      <g>
       <use style="stroke:#000000;stroke-width:0.8;" x="857.539062" xlink:href="#m34c527791e" y="658.519688"/>
      </g>
     </g>
     <g id="text_7">
      <!-- 100 -->
      <g transform="translate(840.360312 679.196875)scale(0.18 -0.18)">
       <use xlink:href="#DejaVuSans-31"/>
       <use x="63.623047" xlink:href="#DejaVuSans-30"/>
       <use x="127.246094" xlink:href="#DejaVuSans-30"/>
      </g>
     </g>
    </g>
    <g id="xtick_8">
     <g id="line2d_8">
      <g>
       <use style="stroke:#000000;stroke-width:0.8;" x="990.780156" xlink:href="#m34c527791e" y="658.519688"/>
      </g>
     </g>
     <g id="text_8">
      <!-- 150 -->
      <g transform="translate(973.601406 679.196875)scale(0.18 -0.18)">
       <use xlink:href="#DejaVuSans-31"/>
       <use x="63.623047" xlink:href="#DejaVuSans-35"/>
       <use x="127.246094" xlink:href="#DejaVuSans-30"/>
      </g>
     </g>
    </g>
    <g id="xtick_9">
     <g id="line2d_9">
      <g>
       <use style="stroke:#000000;stroke-width:0.8;" x="1124.02125" xlink:href="#m34c527791e" y="658.519688"/>
      </g>
     </g>
     <g id="text_9">
      <!-- 200 -->
      <g transform="translate(1106.8425 679.196875)scale(0.18 -0.18)">
       <use xlink:href="#DejaVuSans-32"/>
       <use x="63.623047" xlink:href="#DejaVuSans-30"/>
       <use x="127.246094" xlink:href="#DejaVuSans-30"/>
      </g>
     </g>
    </g>
    <g id="text_10">
     <!-- $\mathrm{Distance\ to\ IP1\ [m]}$ -->
     <g transform="translate(480.196875 704.416719)scale(0.23 -0.23)">
      <defs>
       <path d="M 1259 4147 
L 1259 519 
L 2022 519 
Q 2988 519 3436 956 
Q 3884 1394 3884 2338 
Q 3884 3275 3436 3711 
Q 2988 4147 2022 4147 
L 1259 4147 
z
M 628 4666 
L 1925 4666 
Q 3281 4666 3915 4102 
Q 4550 3538 4550 2338 
Q 4550 1131 3912 565 
Q 3275 0 1925 0 
L 628 0 
L 628 4666 
z
" id="DejaVuSans-44" transform="scale(0.015625)"/>
       <path d="M 603 3500 
L 1178 3500 
L 1178 0 
L 603 0 
L 603 3500 
z
M 603 4863 
L 1178 4863 
L 1178 4134 
L 603 4134 
L 603 4863 
z
" id="DejaVuSans-69" transform="scale(0.015625)"/>
       <path d="M 2834 3397 
L 2834 2853 
Q 2591 2978 2328 3040 
Q 2066 3103 1784 3103 
Q 1356 3103 1142 2972 
Q 928 2841 928 2578 
Q 928 2378 1081 2264 
Q 1234 2150 1697 2047 
L 1894 2003 
Q 2506 1872 2764 1633 
Q 3022 1394 3022 966 
Q 3022 478 2636 193 
Q 2250 -91 1575 -91 
Q 1294 -91 989 -36 
Q 684 19 347 128 
L 347 722 
Q 666 556 975 473 
Q 1284 391 1588 391 
Q 1994 391 2212 530 
Q 2431 669 2431 922 
Q 2431 1156 2273 1281 
Q 2116 1406 1581 1522 
L 1381 1569 
Q 847 1681 609 1914 
Q 372 2147 372 2553 
Q 372 3047 722 3315 
Q 1072 3584 1716 3584 
Q 2034 3584 2315 3537 
Q 2597 3491 2834 3397 
z
" id="DejaVuSans-73" transform="scale(0.015625)"/>
       <path d="M 1172 4494 
L 1172 3500 
L 2356 3500 
L 2356 3053 
L 1172 3053 
L 1172 1153 
Q 1172 725 1289 603 
Q 1406 481 1766 481 
L 2356 481 
L 2356 0 
L 1766 0 
Q 1100 0 847 248 
Q 594 497 594 1153 
L 594 3053 
L 172 3053 
L 172 3500 
L 594 3500 
L 594 4494 
L 1172 4494 
z
" id="DejaVuSans-74" transform="scale(0.015625)"/>
       <path d="M 2194 1759 
Q 1497 1759 1228 1600 
Q 959 1441 959 1056 
Q 959 750 1161 570 
Q 1363 391 1709 391 
Q 2188 391 2477 730 
Q 2766 1069 2766 1631 
L 2766 1759 
L 2194 1759 
z
M 3341 1997 
L 3341 0 
L 2766 0 
L 2766 531 
Q 2569 213 2275 61 
Q 1981 -91 1556 -91 
Q 1019 -91 701 211 
Q 384 513 384 1019 
Q 384 1609 779 1909 
Q 1175 2209 1959 2209 
L 2766 2209 
L 2766 2266 
Q 2766 2663 2505 2880 
Q 2244 3097 1772 3097 
Q 1472 3097 1187 3025 
Q 903 2953 641 2809 
L 641 3341 
Q 956 3463 1253 3523 
Q 1550 3584 1831 3584 
Q 2591 3584 2966 3190 
Q 3341 2797 3341 1997 
z
" id="DejaVuSans-61" transform="scale(0.015625)"/>
       <path d="M 3513 2113 
L 3513 0 
L 2938 0 
L 2938 2094 
Q 2938 2591 2744 2837 
Q 2550 3084 2163 3084 
Q 1697 3084 1428 2787 
Q 1159 2491 1159 1978 
L 1159 0 
L 581 0 
L 581 3500 
L 1159 3500 
L 1159 2956 
Q 1366 3272 1645 3428 
Q 1925 3584 2291 3584 
Q 2894 3584 3203 3211 
Q 3513 2838 3513 2113 
z
" id="DejaVuSans-6e" transform="scale(0.015625)"/>
       <path d="M 3122 3366 
L 3122 2828 
Q 2878 2963 2633 3030 
Q 2388 3097 2138 3097 
Q 1578 3097 1268 2742 
Q 959 2388 959 1747 
Q 959 1106 1268 751 
Q 1578 397 2138 397 
Q 2388 397 2633 464 
Q 2878 531 3122 666 
L 3122 134 
Q 2881 22 2623 -34 
Q 2366 -91 2075 -91 
Q 1284 -91 818 406 
Q 353 903 353 1747 
Q 353 2603 823 3093 
Q 1294 3584 2113 3584 
Q 2378 3584 2631 3529 
Q 2884 3475 3122 3366 
z
" id="DejaVuSans-63" transform="scale(0.015625)"/>
       <path d="M 3597 1894 
L 3597 1613 
L 953 1613 
Q 991 1019 1311 708 
Q 1631 397 2203 397 
Q 2534 397 2845 478 
Q 3156 559 3463 722 
L 3463 178 
Q 3153 47 2828 -22 
Q 2503 -91 2169 -91 
Q 1331 -91 842 396 
Q 353 884 353 1716 
Q 353 2575 817 3079 
Q 1281 3584 2069 3584 
Q 2775 3584 3186 3129 
Q 3597 2675 3597 1894 
z
M 3022 2063 
Q 3016 2534 2758 2815 
Q 2500 3097 2075 3097 
Q 1594 3097 1305 2825 
Q 1016 2553 972 2059 
L 3022 2063 
z
" id="DejaVuSans-65" transform="scale(0.015625)"/>
       <path d="M 1959 3097 
Q 1497 3097 1228 2736 
Q 959 2375 959 1747 
Q 959 1119 1226 758 
Q 1494 397 1959 397 
Q 2419 397 2687 759 
Q 2956 1122 2956 1747 
Q 2956 2369 2687 2733 
Q 2419 3097 1959 3097 
z
M 1959 3584 
Q 2709 3584 3137 3096 
Q 3566 2609 3566 1747 
Q 3566 888 3137 398 
Q 2709 -91 1959 -91 
Q 1206 -91 779 398 
Q 353 888 353 1747 
Q 353 2609 779 3096 
Q 1206 3584 1959 3584 
z
" id="DejaVuSans-6f" transform="scale(0.015625)"/>
       <path d="M 628 4666 
L 1259 4666 
L 1259 0 
L 628 0 
L 628 4666 
z
" id="DejaVuSans-49" transform="scale(0.015625)"/>
       <path d="M 1259 4147 
L 1259 2394 
L 2053 2394 
Q 2494 2394 2734 2622 
Q 2975 2850 2975 3272 
Q 2975 3691 2734 3919 
Q 2494 4147 2053 4147 
L 1259 4147 
z
M 628 4666 
L 2053 4666 
Q 2838 4666 3239 4311 
Q 3641 3956 3641 3272 
Q 3641 2581 3239 2228 
Q 2838 1875 2053 1875 
L 1259 1875 
L 1259 0 
L 628 0 
L 628 4666 
z
" id="DejaVuSans-50" transform="scale(0.015625)"/>
       <path d="M 550 4863 
L 1875 4863 
L 1875 4416 
L 1125 4416 
L 1125 -397 
L 1875 -397 
L 1875 -844 
L 550 -844 
L 550 4863 
z
" id="DejaVuSans-5b" transform="scale(0.015625)"/>
       <path d="M 3328 2828 
Q 3544 3216 3844 3400 
Q 4144 3584 4550 3584 
Q 5097 3584 5394 3201 
Q 5691 2819 5691 2113 
L 5691 0 
L 5113 0 
L 5113 2094 
Q 5113 2597 4934 2840 
Q 4756 3084 4391 3084 
Q 3944 3084 3684 2787 
Q 3425 2491 3425 1978 
L 3425 0 
L 2847 0 
L 2847 2094 
Q 2847 2600 2669 2842 
Q 2491 3084 2119 3084 
Q 1678 3084 1418 2786 
Q 1159 2488 1159 1978 
L 1159 0 
L 581 0 
L 581 3500 
L 1159 3500 
L 1159 2956 
Q 1356 3278 1631 3431 
Q 1906 3584 2284 3584 
Q 2666 3584 2933 3390 
Q 3200 3197 3328 2828 
z
" id="DejaVuSans-6d" transform="scale(0.015625)"/>
       <path d="M 1947 4863 
L 1947 -844 
L 622 -844 
L 622 -397 
L 1369 -397 
L 1369 4416 
L 622 4416 
L 622 4863 
L 1947 4863 
z
" id="DejaVuSans-5d" transform="scale(0.015625)"/>
      </defs>
      <use transform="translate(0 0.015625)" xlink:href="#DejaVuSans-44"/>
      <use transform="translate(77.001953 0.015625)" xlink:href="#DejaVuSans-69"/>
      <use transform="translate(104.785156 0.015625)" xlink:href="#DejaVuSans-73"/>
      <use transform="translate(156.884766 0.015625)" xlink:href="#DejaVuSans-74"/>
      <use transform="translate(196.09375 0.015625)" xlink:href="#DejaVuSans-61"/>
      <use transform="translate(257.373047 0.015625)" xlink:href="#DejaVuSans-6e"/>
      <use transform="translate(320.751953 0.015625)" xlink:href="#DejaVuSans-63"/>
      <use transform="translate(375.732422 0.015625)" xlink:href="#DejaVuSans-65"/>
      <use transform="translate(469.726238 0.015625)" xlink:href="#DejaVuSans-74"/>
      <use transform="translate(508.935222 0.015625)" xlink:href="#DejaVuSans-6f"/>
      <use transform="translate(602.587241 0.015625)" xlink:href="#DejaVuSans-49"/>
      <use transform="translate(632.079429 0.015625)" xlink:href="#DejaVuSans-50"/>
      <use transform="translate(692.382163 0.015625)" xlink:href="#DejaVuSans-31"/>
      <use transform="translate(788.475588 0.015625)" xlink:href="#DejaVuSans-5b"/>
      <use transform="translate(827.48926 0.015625)" xlink:href="#DejaVuSans-6d"/>
      <use transform="translate(924.90137 0.015625)" xlink:href="#DejaVuSans-5d"/>
     </g>
    </g>
   </g>
   <g id="matplotlib.axis_2">
    <g id="ytick_1">
     <g id="line2d_10">
      <defs>
       <path d="M 0 0 
L -3.5 0 
" id="m202616bcaf" style="stroke:#000000;stroke-width:0.8;"/>
      </defs>
      <g>
       <use style="stroke:#000000;stroke-width:0.8;" x="58.0925" xlink:href="#m202616bcaf" y="624.429178"/>
      </g>
     </g>
     <g id="text_11">
      <!-- 0 -->
      <g transform="translate(39.64 631.267771)scale(0.18 -0.18)">
       <use xlink:href="#DejaVuSans-30"/>
      </g>
     </g>
    </g>
    <g id="ytick_2">
     <g id="line2d_11">
      <g>
       <use style="stroke:#000000;stroke-width:0.8;" x="58.0925" xlink:href="#m202616bcaf" y="488.067138"/>
      </g>
     </g>
     <g id="text_12">
      <!-- 2 -->
      <g transform="translate(39.64 494.905732)scale(0.18 -0.18)">
       <use xlink:href="#DejaVuSans-32"/>
      </g>
     </g>
    </g>
    <g id="ytick_3">
     <g id="line2d_12">
      <g>
       <use style="stroke:#000000;stroke-width:0.8;" x="58.0925" xlink:href="#m202616bcaf" y="351.705099"/>
      </g>
     </g>
     <g id="text_13">
      <!-- 4 -->
      <g transform="translate(39.64 358.543692)scale(0.18 -0.18)">
       <defs>
        <path d="M 2419 4116 
L 825 1625 
L 2419 1625 
L 2419 4116 
z
M 2253 4666 
L 3047 4666 
L 3047 1625 
L 3713 1625 
L 3713 1100 
L 3047 1100 
L 3047 0 
L 2419 0 
L 2419 1100 
L 313 1100 
L 313 1709 
L 2253 4666 
z
" id="DejaVuSans-34" transform="scale(0.015625)"/>
       </defs>
       <use xlink:href="#DejaVuSans-34"/>
      </g>
     </g>
    </g>
    <g id="ytick_4">
     <g id="line2d_13">
      <g>
       <use style="stroke:#000000;stroke-width:0.8;" x="58.0925" xlink:href="#m202616bcaf" y="215.343059"/>
      </g>
     </g>
     <g id="text_14">
      <!-- 6 -->
      <g transform="translate(39.64 222.181653)scale(0.18 -0.18)">
       <defs>
        <path d="M 2113 2584 
Q 1688 2584 1439 2293 
Q 1191 2003 1191 1497 
Q 1191 994 1439 701 
Q 1688 409 2113 409 
Q 2538 409 2786 701 
Q 3034 994 3034 1497 
Q 3034 2003 2786 2293 
Q 2538 2584 2113 2584 
z
M 3366 4563 
L 3366 3988 
Q 3128 4100 2886 4159 
Q 2644 4219 2406 4219 
Q 1781 4219 1451 3797 
Q 1122 3375 1075 2522 
Q 1259 2794 1537 2939 
Q 1816 3084 2150 3084 
Q 2853 3084 3261 2657 
Q 3669 2231 3669 1497 
Q 3669 778 3244 343 
Q 2819 -91 2113 -91 
Q 1303 -91 875 529 
Q 447 1150 447 2328 
Q 447 3434 972 4092 
Q 1497 4750 2381 4750 
Q 2619 4750 2861 4703 
Q 3103 4656 3366 4563 
z
" id="DejaVuSans-36" transform="scale(0.015625)"/>
       </defs>
       <use xlink:href="#DejaVuSans-36"/>
      </g>
     </g>
    </g>
    <g id="ytick_5">
     <g id="line2d_14">
      <g>
       <use style="stroke:#000000;stroke-width:0.8;" x="58.0925" xlink:href="#m202616bcaf" y="78.98102"/>
      </g>
     </g>
     <g id="text_15">
      <!-- 8 -->
      <g transform="translate(39.64 85.819613)scale(0.18 -0.18)">
       <defs>
        <path d="M 2034 2216 
Q 1584 2216 1326 1975 
Q 1069 1734 1069 1313 
Q 1069 891 1326 650 
Q 1584 409 2034 409 
Q 2484 409 2743 651 
Q 3003 894 3003 1313 
Q 3003 1734 2745 1975 
Q 2488 2216 2034 2216 
z
M 1403 2484 
Q 997 2584 770 2862 
Q 544 3141 544 3541 
Q 544 4100 942 4425 
Q 1341 4750 2034 4750 
Q 2731 4750 3128 4425 
Q 3525 4100 3525 3541 
Q 3525 3141 3298 2862 
Q 3072 2584 2669 2484 
Q 3125 2378 3379 2068 
Q 3634 1759 3634 1313 
Q 3634 634 3220 271 
Q 2806 -91 2034 -91 
Q 1263 -91 848 271 
Q 434 634 434 1313 
Q 434 1759 690 2068 
Q 947 2378 1403 2484 
z
M 1172 3481 
Q 1172 3119 1398 2916 
Q 1625 2713 2034 2713 
Q 2441 2713 2670 2916 
Q 2900 3119 2900 3481 
Q 2900 3844 2670 4047 
Q 2441 4250 2034 4250 
Q 1625 4250 1398 4047 
Q 1172 3844 1172 3481 
z
" id="DejaVuSans-38" transform="scale(0.015625)"/>
       </defs>
       <use xlink:href="#DejaVuSans-38"/>
      </g>
     </g>
    </g>
    <g id="text_16">
     <!-- $\beta_{x,y}\ \mathrm{[km]}$ -->
     <g transform="translate(28.51 386.639844)rotate(-90)scale(0.23 -0.23)">
      <defs>
       <path d="M 872 216 
L 572 -1331 
L -6 -1331 
L 928 3478 
Q 1206 4903 2538 4903 
Q 3888 4903 3659 3700 
Q 3503 2844 2894 2531 
Q 3713 2250 3553 1416 
Q 3272 -69 1759 -66 
Q 1097 -63 872 216 
z
M 1019 966 
Q 1259 422 1875 425 
Q 2775 425 2966 1406 
Q 3138 2288 1675 2219 
L 1778 2750 
Q 2909 2731 3106 3750 
Q 3241 4438 2509 4434 
Q 1691 4434 1503 3459 
L 1019 966 
z
" id="DejaVuSans-Oblique-3b2" transform="scale(0.015625)"/>
       <path d="M 3841 3500 
L 2234 1784 
L 3219 0 
L 2559 0 
L 1819 1388 
L 531 0 
L -166 0 
L 1556 1844 
L 641 3500 
L 1300 3500 
L 1972 2234 
L 3144 3500 
L 3841 3500 
z
" id="DejaVuSans-Oblique-78" transform="scale(0.015625)"/>
       <path d="M 750 794 
L 1409 794 
L 1409 256 
L 897 -744 
L 494 -744 
L 750 256 
L 750 794 
z
" id="DejaVuSans-2c" transform="scale(0.015625)"/>
       <path d="M 1588 -325 
Q 1188 -997 936 -1164 
Q 684 -1331 294 -1331 
L -159 -1331 
L -63 -850 
L 269 -850 
Q 509 -850 678 -719 
Q 847 -588 1056 -206 
L 1234 128 
L 459 3500 
L 1069 3500 
L 1650 819 
L 3256 3500 
L 3859 3500 
L 1588 -325 
z
" id="DejaVuSans-Oblique-79" transform="scale(0.015625)"/>
       <path d="M 581 4863 
L 1159 4863 
L 1159 1991 
L 2875 3500 
L 3609 3500 
L 1753 1863 
L 3688 0 
L 2938 0 
L 1159 1709 
L 1159 0 
L 581 0 
L 581 4863 
z
" id="DejaVuSans-6b" transform="scale(0.015625)"/>
      </defs>
      <use transform="translate(0 0.390625)" xlink:href="#DejaVuSans-Oblique-3b2"/>
      <use transform="translate(63.818359 -16.015625)scale(0.7)" xlink:href="#DejaVuSans-Oblique-78"/>
      <use transform="translate(105.244141 -16.015625)scale(0.7)" xlink:href="#DejaVuSans-2c"/>
      <use transform="translate(141.132812 -16.015625)scale(0.7)" xlink:href="#DejaVuSans-Oblique-79"/>
      <use transform="translate(217.763347 0.390625)" xlink:href="#DejaVuSans-5b"/>
      <use transform="translate(256.777019 0.390625)" xlink:href="#DejaVuSans-6b"/>
      <use transform="translate(314.687175 0.390625)" xlink:href="#DejaVuSans-6d"/>
      <use transform="translate(412.099285 0.390625)" xlink:href="#DejaVuSans-5d"/>
     </g>
    </g>
   </g>
   <g id="line2d_15">
    <path clip-path="url(#p3bbf0778ac)" d="M -1 600.521546 
L 58.135137 581.627092 
L 61.050452 580.523243 
L 73.841597 574.152533 
L 75.82689 572.905083 
L 75.82689 572.905083 
L 125.665721 536.547063 
L 125.665721 536.547063 
L 134.698134 528.919778 
L 143.758529 523.428004 
L 157.690218 518.632248 
L 188.416946 507.653189 
L 188.416946 507.653189 
L 210.653552 499.362834 
L 210.653552 499.362834 
L 214.890619 497.750299 
L 214.890619 497.750299 
L 366.27382 433.237531 
L 389.01008 422.388911 
L 411.746341 411.237494 
L 436.571821 398.715572 
L 448.9286 392.348274 
L 465.903516 288.58515 
L 468.629628 251.865528 
L 473.671471 178.935286 
L 488.327992 78.101428 
L 490.992814 84.996596 
L 505.649334 247.226163 
L 507.037706 271.207305 
L 507.037706 271.207305 
L 512.884325 363.553629 
L 529.859241 504.548811 
L 535.418059 525.334553 
L 540.214738 541.680772 
L 583.062409 622.363299 
L 591.056875 624.408723 
L 591.056875 624.408723 
L 599.051341 622.363298 
L 641.821732 541.932066 
L 646.618411 525.609573 
L 648.947465 517.15295 
L 648.947465 517.15295 
L 652.254509 504.548802 
L 669.229425 481.893319 
L 676.464416 493.01696 
L 691.120936 479.981798 
L 693.785758 470.668794 
L 708.442279 359.361631 
L 710.286335 334.914572 
L 714.961765 268.099003 
L 716.210234 249.084902 
L 733.18515 122.621717 
L 737.307629 132.199066 
L 749.938885 160.969209 
L 761.307015 186.121284 
L 772.675145 210.571306 
L 784.043275 234.319275 
L 795.411405 257.365192 
L 806.779535 279.709056 
L 815.83993 297.014363 
L 967.223131 520.183188 
L 967.223131 520.183188 
L 971.460198 524.638474 
L 971.460198 524.638474 
L 992.192512 545.032451 
L 999.240966 551.434016 
L 1024.423532 572.100759 
L 1031.513291 577.297685 
L 1038.355221 582.054041 
L 1047.415616 587.001575 
L 1050.011152 588.095266 
L 1050.011152 588.095266 
L 1083.667852 600.787051 
L 1108.272153 608.314379 
L 1123.04859 612.568947 
L 1123.04859 612.568947 
L 1137.923626 616.443164 
L 1137.923626 616.443164 
" style="fill:none;stroke:#0000ff;stroke-linecap:square;stroke-width:1.5;"/>
   </g>
   <g id="line2d_16">
    <path clip-path="url(#p3bbf0778ac)" d="M -1 601.356217 
L 58.135137 582.029439 
L 61.050452 580.89226 
L 73.841597 574.371208 
L 75.82689 573.09935 
L 75.82689 573.09935 
L 125.665721 535.909312 
L 125.665721 535.909312 
L 134.698134 528.086095 
L 143.758529 522.407776 
L 157.690218 517.350444 
L 188.416946 505.755327 
L 188.416946 505.755327 
L 210.653552 496.985523 
L 210.653552 496.985523 
L 214.890619 495.27843 
L 214.890619 495.27843 
L 366.27382 426.715014 
L 389.01008 415.145054 
L 411.746341 403.242794 
L 436.571821 389.86734 
L 448.9286 383.062091 
L 465.903516 273.995709 
L 468.629628 235.387377 
L 473.671471 158.667529 
L 488.327992 52.720116 
L 490.992814 60.053298 
L 505.649334 231.188711 
L 507.037706 256.430184 
L 507.037706 256.430184 
L 512.884325 353.539253 
L 529.859241 501.684727 
L 535.418059 523.577498 
L 540.214738 540.741355 
L 583.062409 623.07198 
L 591.056875 624.29885 
L 591.056875 624.29885 
L 599.051341 621.080746 
L 641.821732 528.360447 
L 646.618411 510.02763 
L 648.947465 500.548904 
L 648.947465 500.548904 
L 652.254509 486.441826 
L 669.229425 462.180481 
L 676.464416 475.380816 
L 691.120936 462.150896 
L 693.785758 452.010795 
L 708.442279 330.043201 
L 710.286335 303.232071 
L 714.961765 230.018864 
L 716.210234 209.198451 
L 733.18515 71.204067 
L 737.307629 81.824518 
L 749.938885 113.72441 
L 761.307015 141.607782 
L 772.675145 168.70811 
L 784.043275 195.025394 
L 795.411405 220.559634 
L 806.779535 245.310829 
L 815.83993 264.476782 
L 967.223131 511.122878 
L 971.460198 516.028658 
L 971.460198 516.028658 
L 989.52769 535.726778 
L 993.696804 539.991303 
L 993.696804 539.991303 
L 999.240966 545.499198 
L 1024.423532 568.172825 
L 1031.513291 573.863066 
L 1038.355221 579.065625 
L 1047.415616 584.493443 
L 1050.011152 585.69974 
L 1050.011152 585.69974 
L 1081.00303 598.656952 
L 1083.667852 599.646437 
L 1108.272153 607.849989 
L 1123.04859 612.420918 
L 1123.04859 612.420918 
L 1137.923626 616.529665 
L 1137.923626 616.529665 
" style="fill:none;stroke:#0000ff;stroke-dasharray:5.55,2.4;stroke-dashoffset:0;stroke-width:1.5;"/>
   </g>
   <g id="line2d_17">
    <path clip-path="url(#p3bbf0778ac)" d="M -1 622.554581 
L 58.135137 612.894352 
L 75.82689 607.763541 
L 75.82689 607.763541 
L 125.665721 590.738263 
L 125.665721 590.738263 
L 134.698134 587.003205 
L 143.758529 582.055648 
L 150.600459 577.299294 
L 157.690218 572.102362 
L 182.872784 551.435591 
L 188.416946 546.422914 
L 188.416946 546.422914 
L 198.395372 536.980336 
L 198.395372 536.980336 
L 203.725015 531.715288 
L 203.725015 531.715288 
L 214.890619 520.184734 
L 214.890619 520.184734 
L 366.27382 297.014293 
L 377.64195 275.229764 
L 389.01008 252.743201 
L 400.378211 229.554609 
L 411.746341 205.663991 
L 423.114471 181.071353 
L 436.571821 151.051715 
L 448.9286 122.62075 
L 465.903516 249.08418 
L 468.629628 289.96416 
L 473.671471 359.361121 
L 488.327992 470.668499 
L 490.992814 479.981521 
L 505.649334 493.016709 
L 512.884325 481.893047 
L 529.859241 504.548575 
L 535.418059 525.334358 
L 540.214738 541.680608 
L 583.062409 622.363294 
L 591.056875 624.408723 
L 591.056875 624.408723 
L 599.051341 622.363294 
L 641.821732 541.93191 
L 646.618411 525.609387 
L 648.947465 517.152747 
L 648.947465 517.152747 
L 652.254509 504.548575 
L 669.229425 363.553118 
L 670.580489 343.454051 
L 670.580489 343.454051 
L 676.464416 247.225424 
L 691.120936 84.99554 
L 693.785758 78.100359 
L 708.442279 178.934415 
L 710.286335 206.364388 
L 715.556021 279.946179 
L 716.210234 288.584494 
L 733.18515 392.347822 
L 749.938885 400.95926 
L 772.675145 412.382805 
L 795.411405 423.503624 
L 815.83993 433.237475 
L 969.488229 498.614837 
L 989.52769 506.122203 
L 999.240966 509.676436 
L 1034.9669 522.273883 
L 1038.355221 523.429844 
L 1047.415616 528.921702 
L 1050.011152 531.146086 
L 1050.011152 531.146086 
L 1081.00303 555.674164 
L 1083.667852 557.608111 
L 1107.760507 573.834451 
L 1108.272153 574.154468 
L 1121.063298 580.666921 
L 1123.04859 581.462145 
L 1123.04859 581.462145 
L 1137.923626 587.184679 
L 1137.923626 587.184679 
" style="fill:none;stroke:#ff0000;stroke-linecap:square;stroke-width:1.5;"/>
   </g>
   <g id="line2d_18">
    <path clip-path="url(#p3bbf0778ac)" d="M -1 622.559696 
L 58.135137 614.342857 
L 75.82689 610.181183 
L 75.82689 610.181183 
L 125.665721 596.650937 
L 125.665721 596.650937 
L 134.698134 593.702286 
L 144.751175 589.233984 
L 151.658393 585.374775 
L 157.690218 581.839113 
L 182.872784 565.410551 
L 188.416946 561.432316 
L 188.416946 561.432316 
L 200.553877 552.268217 
L 200.553877 552.268217 
L 203.725015 549.770849 
L 203.725015 549.770849 
L 214.890619 540.638034 
L 214.890619 540.638034 
L 366.27382 364.618507 
L 377.64195 347.475712 
L 389.01008 329.784677 
L 400.378211 311.545405 
L 411.746341 292.757901 
L 423.114471 273.422166 
L 436.571821 249.824322 
L 448.9286 227.479765 
L 465.903516 328.555792 
L 468.629628 361.107057 
L 473.671471 416.312194 
L 488.327992 504.890363 
L 490.992814 512.34811 
L 505.649334 523.480069 
L 512.884325 515.3574 
L 529.859241 533.769894 
L 535.418059 549.936541 
L 540.214738 562.611252 
L 583.062409 623.41382 
L 591.056875 624.321823 
L 591.056875 624.321823 
L 599.051341 621.947745 
L 641.821732 553.496209 
L 648.521094 534.264584 
L 648.521094 534.264584 
L 652.254509 522.547091 
L 669.229425 405.682187 
L 670.580489 389.025579 
L 670.580489 389.025579 
L 676.464416 309.359493 
L 691.120936 175.400025 
L 693.785758 169.746584 
L 708.442279 253.283661 
L 710.286335 275.98448 
L 715.556021 336.907311 
L 716.210234 344.062487 
L 733.18515 430.003072 
L 749.938885 436.970741 
L 772.675145 446.220087 
L 795.411405 455.231796 
L 815.83993 463.126131 
L 969.488229 516.352173 
L 992.192512 523.296698 
L 999.240966 525.404382 
L 1037.362575 536.408133 
L 1038.355221 536.685734 
L 1047.415616 541.315398 
L 1050.011152 543.209714 
L 1050.011152 543.209714 
L 1081.00303 564.133332 
L 1083.667852 565.786363 
L 1108.272153 579.95605 
L 1121.063298 585.517559 
L 1123.04859 586.191759 
L 1123.04859 586.191759 
L 1137.923626 591.051571 
L 1137.923626 591.051571 
" style="fill:none;stroke:#ff0000;stroke-dasharray:5.55,2.4;stroke-dashoffset:0;stroke-width:1.5;"/>
   </g>
   <g id="patch_3">
    <path d="M 58.0925 658.519687 
L 58.0925 10.8 
" style="fill:none;stroke:#000000;stroke-linecap:square;stroke-linejoin:miter;stroke-width:0.8;"/>
   </g>
   <g id="patch_4">
    <path d="M 1124.02125 658.519687 
L 1124.02125 10.8 
" style="fill:none;stroke:#000000;stroke-linecap:square;stroke-linejoin:miter;stroke-width:0.8;"/>
   </g>
   <g id="patch_5">
    <path d="M 58.0925 658.519688 
L 1124.02125 658.519688 
" style="fill:none;stroke:#000000;stroke-linecap:square;stroke-linejoin:miter;stroke-width:0.8;"/>
   </g>
   <g id="patch_6">
    <path d="M 58.0925 10.8 
L 1124.02125 10.8 
" style="fill:none;stroke:#000000;stroke-linecap:square;stroke-linejoin:miter;stroke-width:0.8;"/>
   </g>
   <g id="legend_1">
    <g id="patch_7">
     <path d="M 998.74125 186 
L 1107.22125 186 
Q 1112.02125 186 1112.02125 181.2 
L 1112.02125 27.6 
Q 1112.02125 22.8 1107.22125 22.8 
L 998.74125 22.8 
Q 993.94125 22.8 993.94125 27.6 
L 993.94125 181.2 
Q 993.94125 186 998.74125 186 
z
" style="fill:#ffffff;opacity:0.8;stroke:#cccccc;stroke-linejoin:miter;"/>
    </g>
    <g id="line2d_19">
     <path d="M 1003.54125 42.72 
L 1051.54125 42.72 
" style="fill:none;stroke:#0000ff;stroke-linecap:square;stroke-width:1.5;"/>
    </g>
    <g id="line2d_20"/>
    <g id="text_17">
     <!-- $\beta_{x}^{n}$ -->
     <g transform="translate(1070.74125 51.12)scale(0.24 -0.24)">
      <defs>
       <path d="M 3566 2113 
L 3156 0 
L 2578 0 
L 2988 2091 
Q 3016 2238 3031 2350 
Q 3047 2463 3047 2528 
Q 3047 2791 2881 2937 
Q 2716 3084 2419 3084 
Q 1956 3084 1622 2776 
Q 1288 2469 1184 1941 
L 800 0 
L 225 0 
L 903 3500 
L 1478 3500 
L 1363 2950 
Q 1603 3253 1940 3418 
Q 2278 3584 2650 3584 
Q 3113 3584 3367 3334 
Q 3622 3084 3622 2631 
Q 3622 2519 3608 2391 
Q 3594 2263 3566 2113 
z
" id="DejaVuSans-Oblique-6e" transform="scale(0.015625)"/>
      </defs>
      <use transform="translate(0 0.51875)" xlink:href="#DejaVuSans-Oblique-3b2"/>
      <use transform="translate(71.353568 38.8)scale(0.7)" xlink:href="#DejaVuSans-Oblique-6e"/>
      <use transform="translate(63.818359 -26.825)scale(0.7)" xlink:href="#DejaVuSans-Oblique-78"/>
     </g>
    </g>
    <g id="line2d_21">
     <path d="M 1003.54125 79.92 
L 1051.54125 79.92 
" style="fill:none;stroke:#0000ff;stroke-dasharray:5.55,2.4;stroke-dashoffset:0;stroke-width:1.5;"/>
    </g>
    <g id="line2d_22"/>
    <g id="text_18">
     <!-- $\beta_{x}^{w}$ -->
     <g transform="translate(1070.74125 88.32)scale(0.24 -0.24)">
      <defs>
       <path d="M 544 3500 
L 1113 3500 
L 1259 684 
L 2566 3500 
L 3231 3500 
L 3425 684 
L 4666 3500 
L 5241 3500 
L 3641 0 
L 2969 0 
L 2797 2900 
L 1459 0 
L 781 0 
L 544 3500 
z
" id="DejaVuSans-Oblique-77" transform="scale(0.015625)"/>
      </defs>
      <use transform="translate(0 0.390625)" xlink:href="#DejaVuSans-Oblique-3b2"/>
      <use transform="translate(71.353568 38.671875)scale(0.7)" xlink:href="#DejaVuSans-Oblique-77"/>
      <use transform="translate(63.818359 -26.953125)scale(0.7)" xlink:href="#DejaVuSans-Oblique-78"/>
     </g>
    </g>
    <g id="line2d_23">
     <path d="M 1003.54125 117.36 
L 1051.54125 117.36 
" style="fill:none;stroke:#ff0000;stroke-linecap:square;stroke-width:1.5;"/>
    </g>
    <g id="line2d_24"/>
    <g id="text_19">
     <!-- $\beta_{y}^{n}$ -->
     <g transform="translate(1070.74125 125.76)scale(0.24 -0.24)">
      <use transform="translate(0 0.51875)" xlink:href="#DejaVuSans-Oblique-3b2"/>
      <use transform="translate(71.353568 38.8)scale(0.7)" xlink:href="#DejaVuSans-Oblique-6e"/>
      <use transform="translate(63.818359 -26.825)scale(0.7)" xlink:href="#DejaVuSans-Oblique-79"/>
     </g>
    </g>
    <g id="line2d_25">
     <path d="M 1003.54125 157.92 
L 1051.54125 157.92 
" style="fill:none;stroke:#ff0000;stroke-dasharray:5.55,2.4;stroke-dashoffset:0;stroke-width:1.5;"/>
    </g>
    <g id="line2d_26"/>
    <g id="text_20">
     <!-- $\beta_{y}^{w}$ -->
     <g transform="translate(1070.74125 166.32)scale(0.24 -0.24)">
      <use transform="translate(0 0.390625)" xlink:href="#DejaVuSans-Oblique-3b2"/>
      <use transform="translate(71.353568 38.671875)scale(0.7)" xlink:href="#DejaVuSans-Oblique-77"/>
      <use transform="translate(63.818359 -26.953125)scale(0.7)" xlink:href="#DejaVuSans-Oblique-79"/>
     </g>
    </g>
   </g>
  </g>
 </g>
 <defs>
  <clipPath id="p3bbf0778ac">
   <rect height="647.719687" width="1065.92875" x="58.0925" y="10.8"/>
  </clipPath>
 </defs>
</svg>
