<?xml version="1.0" encoding="utf-8" standalone="no"?>
<!DOCTYPE svg PUBLIC "-//W3C//DTD SVG 1.1//EN"
  "http://www.w3.org/Graphics/SVG/1.1/DTD/svg11.dtd">
<svg height="792pt" version="1.1" viewBox="0 0 1440 792" width="1440pt" xmlns="http://www.w3.org/2000/svg" xmlns:xlink="http://www.w3.org/1999/xlink">
 <metadata>
  <rdf:RDF xmlns:cc="http://creativecommons.org/ns#" xmlns:dc="http://purl.org/dc/elements/1.1/" xmlns:rdf="http://www.w3.org/1999/02/22-rdf-syntax-ns#">
   <cc:Work>
    <dc:type rdf:resource="http://purl.org/dc/dcmitype/StillImage"/>
    <dc:date>2022-08-21T23:59:14.668983</dc:date>
    <dc:format>image/svg+xml</dc:format>
    <dc:creator>
     <cc:Agent>
      <dc:title>Matplotlib v3.4.3, https://matplotlib.org/</dc:title>
     </cc:Agent>
    </dc:creator>
   </cc:Work>
  </rdf:RDF>
 </metadata>
 <defs>
  <style type="text/css">*{stroke-linecap:butt;stroke-linejoin:round;}</style>
 </defs>
 <g id="figure_1">
  <g id="patch_1">
   <path d="M 0 792 
L 1440 792 
L 1440 0 
L 0 0 
z
" style="fill:#ffffff;"/>
  </g>
  <g id="axes_1">
   <g id="patch_2">
    <path d="M 110.67375 343.955901 
L 1421.843513 343.955901 
L 1421.843513 48.69875 
L 110.67375 48.69875 
z
" style="fill:#ffffff;"/>
   </g>
   <g id="patch_3">
    <path clip-path="url(#p22355f8fed)" d="M 134.087496 164.534343 
L 180.914987 164.534343 
L 180.914987 186.959417 
L 134.087496 186.959417 
z
" style="fill:#1f77b4;"/>
   </g>
   <g id="patch_4">
    <path clip-path="url(#p22355f8fed)" d="M 227.742479 164.534343 
L 274.56997 164.534343 
L 274.56997 203.896753 
L 227.742479 203.896753 
z
" style="fill:#1f77b4;"/>
   </g>
   <g id="patch_5">
    <path clip-path="url(#p22355f8fed)" d="M 321.397462 164.534343 
L 368.224953 164.534343 
L 368.224953 330.535121 
L 321.397462 330.535121 
z
" style="fill:#1f77b4;"/>
   </g>
   <g id="patch_6">
    <path clip-path="url(#p22355f8fed)" d="M 415.052445 164.534343 
L 461.879936 164.534343 
L 461.879936 215.555982 
L 415.052445 215.555982 
z
" style="fill:#1f77b4;"/>
   </g>
   <g id="patch_7">
    <path clip-path="url(#p22355f8fed)" d="M 508.707428 164.534343 
L 555.534919 164.534343 
L 555.534919 199.072526 
L 508.707428 199.072526 
z
" style="fill:#1f77b4;"/>
   </g>
   <g id="patch_8">
    <path clip-path="url(#p22355f8fed)" d="M 602.362411 164.534343 
L 649.189902 164.534343 
L 649.189902 220.132054 
L 602.362411 220.132054 
z
" style="fill:#1f77b4;"/>
   </g>
   <g id="patch_9">
    <path clip-path="url(#p22355f8fed)" d="M 696.017394 164.534343 
L 742.844886 164.534343 
L 742.844886 129.139615 
L 696.017394 129.139615 
z
" style="fill:#1f77b4;"/>
   </g>
   <g id="patch_10">
    <path clip-path="url(#p22355f8fed)" d="M 789.672377 164.534343 
L 836.499869 164.534343 
L 836.499869 109.215542 
L 789.672377 109.215542 
z
" style="fill:#1f77b4;"/>
   </g>
   <g id="patch_11">
    <path clip-path="url(#p22355f8fed)" d="M 883.32736 164.534343 
L 930.154852 164.534343 
L 930.154852 136.84065 
L 883.32736 136.84065 
z
" style="fill:#1f77b4;"/>
   </g>
   <g id="patch_12">
    <path clip-path="url(#p22355f8fed)" d="M 976.982343 164.534343 
L 1023.809835 164.534343 
L 1023.809835 170.803467 
L 976.982343 170.803467 
z
" style="fill:#1f77b4;"/>
   </g>
   <g id="patch_13">
    <path clip-path="url(#p22355f8fed)" d="M 1070.637326 164.534343 
L 1117.464818 164.534343 
L 1117.464818 177.215047 
L 1070.637326 177.215047 
z
" style="fill:#1f77b4;"/>
   </g>
   <g id="patch_14">
    <path clip-path="url(#p22355f8fed)" d="M 1164.292309 164.534343 
L 1211.119801 164.534343 
L 1211.119801 76.76338 
L 1164.292309 76.76338 
z
" style="fill:#1f77b4;"/>
   </g>
   <g id="patch_15">
    <path clip-path="url(#p22355f8fed)" d="M 1257.947292 164.534343 
L 1304.774784 164.534343 
L 1304.774784 188.531796 
L 1257.947292 188.531796 
z
" style="fill:#1f77b4;"/>
   </g>
   <g id="patch_16">
    <path clip-path="url(#p22355f8fed)" d="M 1351.602275 164.534343 
L 1398.429767 164.534343 
L 1398.429767 62.11953 
L 1351.602275 62.11953 
z
" style="fill:#1f77b4;"/>
   </g>
   <g id="matplotlib.axis_1">
    <g id="xtick_1">
     <g id="line2d_1">
      <defs>
       <path d="M 0 0 
L 0 3.5 
" id="mdd44692a46" style="stroke:#000000;stroke-width:0.8;"/>
      </defs>
      <g>
       <use style="stroke:#000000;stroke-width:0.8;" x="157.501242" xlink:href="#mdd44692a46" y="343.955901"/>
      </g>
     </g>
    </g>
    <g id="xtick_2">
     <g id="line2d_2">
      <g>
       <use style="stroke:#000000;stroke-width:0.8;" x="251.156225" xlink:href="#mdd44692a46" y="343.955901"/>
      </g>
     </g>
    </g>
    <g id="xtick_3">
     <g id="line2d_3">
      <g>
       <use style="stroke:#000000;stroke-width:0.8;" x="344.811208" xlink:href="#mdd44692a46" y="343.955901"/>
      </g>
     </g>
    </g>
    <g id="xtick_4">
     <g id="line2d_4">
      <g>
       <use style="stroke:#000000;stroke-width:0.8;" x="438.466191" xlink:href="#mdd44692a46" y="343.955901"/>
      </g>
     </g>
    </g>
    <g id="xtick_5">
     <g id="line2d_5">
      <g>
       <use style="stroke:#000000;stroke-width:0.8;" x="532.121174" xlink:href="#mdd44692a46" y="343.955901"/>
      </g>
     </g>
    </g>
    <g id="xtick_6">
     <g id="line2d_6">
      <g>
       <use style="stroke:#000000;stroke-width:0.8;" x="625.776157" xlink:href="#mdd44692a46" y="343.955901"/>
      </g>
     </g>
    </g>
    <g id="xtick_7">
     <g id="line2d_7">
      <g>
       <use style="stroke:#000000;stroke-width:0.8;" x="719.43114" xlink:href="#mdd44692a46" y="343.955901"/>
      </g>
     </g>
    </g>
    <g id="xtick_8">
     <g id="line2d_8">
      <g>
       <use style="stroke:#000000;stroke-width:0.8;" x="813.086123" xlink:href="#mdd44692a46" y="343.955901"/>
      </g>
     </g>
    </g>
    <g id="xtick_9">
     <g id="line2d_9">
      <g>
       <use style="stroke:#000000;stroke-width:0.8;" x="906.741106" xlink:href="#mdd44692a46" y="343.955901"/>
      </g>
     </g>
    </g>
    <g id="xtick_10">
     <g id="line2d_10">
      <g>
       <use style="stroke:#000000;stroke-width:0.8;" x="1000.396089" xlink:href="#mdd44692a46" y="343.955901"/>
      </g>
     </g>
    </g>
    <g id="xtick_11">
     <g id="line2d_11">
      <g>
       <use style="stroke:#000000;stroke-width:0.8;" x="1094.051072" xlink:href="#mdd44692a46" y="343.955901"/>
      </g>
     </g>
    </g>
    <g id="xtick_12">
     <g id="line2d_12">
      <g>
       <use style="stroke:#000000;stroke-width:0.8;" x="1187.706055" xlink:href="#mdd44692a46" y="343.955901"/>
      </g>
     </g>
    </g>
    <g id="xtick_13">
     <g id="line2d_13">
      <g>
       <use style="stroke:#000000;stroke-width:0.8;" x="1281.361038" xlink:href="#mdd44692a46" y="343.955901"/>
      </g>
     </g>
    </g>
    <g id="xtick_14">
     <g id="line2d_14">
      <g>
       <use style="stroke:#000000;stroke-width:0.8;" x="1375.016021" xlink:href="#mdd44692a46" y="343.955901"/>
      </g>
     </g>
    </g>
   </g>
   <g id="matplotlib.axis_2">
    <g id="ytick_1">
     <g id="line2d_15">
      <defs>
       <path d="M 0 0 
L -3.5 0 
" id="m3b5d216ca0" style="stroke:#000000;stroke-width:0.8;"/>
      </defs>
      <g>
       <use style="stroke:#000000;stroke-width:0.8;" x="110.67375" xlink:href="#m3b5d216ca0" y="300.245832"/>
      </g>
     </g>
     <g id="text_1">
      <!-- −0.002 -->
      <g transform="translate(37.059688 307.084425)scale(0.18 -0.18)">
       <defs>
        <path d="M 678 2272 
L 4684 2272 
L 4684 1741 
L 678 1741 
L 678 2272 
z
" id="DejaVuSans-2212" transform="scale(0.015625)"/>
        <path d="M 2034 4250 
Q 1547 4250 1301 3770 
Q 1056 3291 1056 2328 
Q 1056 1369 1301 889 
Q 1547 409 2034 409 
Q 2525 409 2770 889 
Q 3016 1369 3016 2328 
Q 3016 3291 2770 3770 
Q 2525 4250 2034 4250 
z
M 2034 4750 
Q 2819 4750 3233 4129 
Q 3647 3509 3647 2328 
Q 3647 1150 3233 529 
Q 2819 -91 2034 -91 
Q 1250 -91 836 529 
Q 422 1150 422 2328 
Q 422 3509 836 4129 
Q 1250 4750 2034 4750 
z
" id="DejaVuSans-30" transform="scale(0.015625)"/>
        <path d="M 684 794 
L 1344 794 
L 1344 0 
L 684 0 
L 684 794 
z
" id="DejaVuSans-2e" transform="scale(0.015625)"/>
        <path d="M 1228 531 
L 3431 531 
L 3431 0 
L 469 0 
L 469 531 
Q 828 903 1448 1529 
Q 2069 2156 2228 2338 
Q 2531 2678 2651 2914 
Q 2772 3150 2772 3378 
Q 2772 3750 2511 3984 
Q 2250 4219 1831 4219 
Q 1534 4219 1204 4116 
Q 875 4013 500 3803 
L 500 4441 
Q 881 4594 1212 4672 
Q 1544 4750 1819 4750 
Q 2544 4750 2975 4387 
Q 3406 4025 3406 3419 
Q 3406 3131 3298 2873 
Q 3191 2616 2906 2266 
Q 2828 2175 2409 1742 
Q 1991 1309 1228 531 
z
" id="DejaVuSans-32" transform="scale(0.015625)"/>
       </defs>
       <use xlink:href="#DejaVuSans-2212"/>
       <use x="83.789062" xlink:href="#DejaVuSans-30"/>
       <use x="147.412109" xlink:href="#DejaVuSans-2e"/>
       <use x="179.199219" xlink:href="#DejaVuSans-30"/>
       <use x="242.822266" xlink:href="#DejaVuSans-30"/>
       <use x="306.445312" xlink:href="#DejaVuSans-32"/>
      </g>
     </g>
    </g>
    <g id="ytick_2">
     <g id="line2d_16">
      <g>
       <use style="stroke:#000000;stroke-width:0.8;" x="110.67375" xlink:href="#m3b5d216ca0" y="232.390087"/>
      </g>
     </g>
     <g id="text_2">
      <!-- −0.001 -->
      <g transform="translate(37.059688 239.228681)scale(0.18 -0.18)">
       <defs>
        <path d="M 794 531 
L 1825 531 
L 1825 4091 
L 703 3866 
L 703 4441 
L 1819 4666 
L 2450 4666 
L 2450 531 
L 3481 531 
L 3481 0 
L 794 0 
L 794 531 
z
" id="DejaVuSans-31" transform="scale(0.015625)"/>
       </defs>
       <use xlink:href="#DejaVuSans-2212"/>
       <use x="83.789062" xlink:href="#DejaVuSans-30"/>
       <use x="147.412109" xlink:href="#DejaVuSans-2e"/>
       <use x="179.199219" xlink:href="#DejaVuSans-30"/>
       <use x="242.822266" xlink:href="#DejaVuSans-30"/>
       <use x="306.445312" xlink:href="#DejaVuSans-31"/>
      </g>
     </g>
    </g>
    <g id="ytick_3">
     <g id="line2d_17">
      <g>
       <use style="stroke:#000000;stroke-width:0.8;" x="110.67375" xlink:href="#m3b5d216ca0" y="164.534343"/>
      </g>
     </g>
     <g id="text_3">
      <!-- 0.000 -->
      <g transform="translate(52.143125 171.372937)scale(0.18 -0.18)">
       <use xlink:href="#DejaVuSans-30"/>
       <use x="63.623047" xlink:href="#DejaVuSans-2e"/>
       <use x="95.410156" xlink:href="#DejaVuSans-30"/>
       <use x="159.033203" xlink:href="#DejaVuSans-30"/>
       <use x="222.65625" xlink:href="#DejaVuSans-30"/>
      </g>
     </g>
    </g>
    <g id="ytick_4">
     <g id="line2d_18">
      <g>
       <use style="stroke:#000000;stroke-width:0.8;" x="110.67375" xlink:href="#m3b5d216ca0" y="96.678599"/>
      </g>
     </g>
     <g id="text_4">
      <!-- 0.001 -->
      <g transform="translate(52.143125 103.517193)scale(0.18 -0.18)">
       <use xlink:href="#DejaVuSans-30"/>
       <use x="63.623047" xlink:href="#DejaVuSans-2e"/>
       <use x="95.410156" xlink:href="#DejaVuSans-30"/>
       <use x="159.033203" xlink:href="#DejaVuSans-30"/>
       <use x="222.65625" xlink:href="#DejaVuSans-31"/>
      </g>
     </g>
    </g>
    <g id="text_5">
     <!-- dx [m] -->
     <g transform="translate(28.276406 234.264747)rotate(-90)scale(0.23 -0.23)">
      <defs>
       <path d="M 2906 2969 
L 2906 4863 
L 3481 4863 
L 3481 0 
L 2906 0 
L 2906 525 
Q 2725 213 2448 61 
Q 2172 -91 1784 -91 
Q 1150 -91 751 415 
Q 353 922 353 1747 
Q 353 2572 751 3078 
Q 1150 3584 1784 3584 
Q 2172 3584 2448 3432 
Q 2725 3281 2906 2969 
z
M 947 1747 
Q 947 1113 1208 752 
Q 1469 391 1925 391 
Q 2381 391 2643 752 
Q 2906 1113 2906 1747 
Q 2906 2381 2643 2742 
Q 2381 3103 1925 3103 
Q 1469 3103 1208 2742 
Q 947 2381 947 1747 
z
" id="DejaVuSans-64" transform="scale(0.015625)"/>
       <path d="M 3513 3500 
L 2247 1797 
L 3578 0 
L 2900 0 
L 1881 1375 
L 863 0 
L 184 0 
L 1544 1831 
L 300 3500 
L 978 3500 
L 1906 2253 
L 2834 3500 
L 3513 3500 
z
" id="DejaVuSans-78" transform="scale(0.015625)"/>
       <path id="DejaVuSans-20" transform="scale(0.015625)"/>
       <path d="M 550 4863 
L 1875 4863 
L 1875 4416 
L 1125 4416 
L 1125 -397 
L 1875 -397 
L 1875 -844 
L 550 -844 
L 550 4863 
z
" id="DejaVuSans-5b" transform="scale(0.015625)"/>
       <path d="M 3328 2828 
Q 3544 3216 3844 3400 
Q 4144 3584 4550 3584 
Q 5097 3584 5394 3201 
Q 5691 2819 5691 2113 
L 5691 0 
L 5113 0 
L 5113 2094 
Q 5113 2597 4934 2840 
Q 4756 3084 4391 3084 
Q 3944 3084 3684 2787 
Q 3425 2491 3425 1978 
L 3425 0 
L 2847 0 
L 2847 2094 
Q 2847 2600 2669 2842 
Q 2491 3084 2119 3084 
Q 1678 3084 1418 2786 
Q 1159 2488 1159 1978 
L 1159 0 
L 581 0 
L 581 3500 
L 1159 3500 
L 1159 2956 
Q 1356 3278 1631 3431 
Q 1906 3584 2284 3584 
Q 2666 3584 2933 3390 
Q 3200 3197 3328 2828 
z
" id="DejaVuSans-6d" transform="scale(0.015625)"/>
       <path d="M 1947 4863 
L 1947 -844 
L 622 -844 
L 622 -397 
L 1369 -397 
L 1369 4416 
L 622 4416 
L 622 4863 
L 1947 4863 
z
" id="DejaVuSans-5d" transform="scale(0.015625)"/>
      </defs>
      <use xlink:href="#DejaVuSans-64"/>
      <use x="63.476562" xlink:href="#DejaVuSans-78"/>
      <use x="122.65625" xlink:href="#DejaVuSans-20"/>
      <use x="154.443359" xlink:href="#DejaVuSans-5b"/>
      <use x="193.457031" xlink:href="#DejaVuSans-6d"/>
      <use x="290.869141" xlink:href="#DejaVuSans-5d"/>
     </g>
    </g>
   </g>
   <g id="patch_17">
    <path d="M 110.67375 343.955901 
L 110.67375 48.69875 
" style="fill:none;stroke:#000000;stroke-linecap:square;stroke-linejoin:miter;stroke-width:0.8;"/>
   </g>
   <g id="patch_18">
    <path d="M 1421.843513 343.955901 
L 1421.843513 48.69875 
" style="fill:none;stroke:#000000;stroke-linecap:square;stroke-linejoin:miter;stroke-width:0.8;"/>
   </g>
   <g id="patch_19">
    <path d="M 110.67375 343.955901 
L 1421.843513 343.955901 
" style="fill:none;stroke:#000000;stroke-linecap:square;stroke-linejoin:miter;stroke-width:0.8;"/>
   </g>
   <g id="patch_20">
    <path d="M 110.67375 48.69875 
L 1421.843513 48.69875 
" style="fill:none;stroke:#000000;stroke-linecap:square;stroke-linejoin:miter;stroke-width:0.8;"/>
   </g>
   <g id="legend_1">
    <g id="patch_21">
     <path d="M 127.47375 103.12625 
L 233.715 103.12625 
Q 238.515 103.12625 238.515 98.32625 
L 238.515 65.49875 
Q 238.515 60.69875 233.715 60.69875 
L 127.47375 60.69875 
Q 122.67375 60.69875 122.67375 65.49875 
L 122.67375 98.32625 
Q 122.67375 103.12625 127.47375 103.12625 
z
" style="fill:#ffffff;opacity:0.8;stroke:#cccccc;stroke-linejoin:miter;"/>
    </g>
    <g id="patch_22">
     <path d="M 132.27375 88.535 
L 180.27375 88.535 
L 180.27375 71.735 
L 132.27375 71.735 
z
" style="fill:#1f77b4;"/>
    </g>
    <g id="text_6">
     <!-- dx -->
     <g transform="translate(199.47375 88.535)scale(0.24 -0.24)">
      <use xlink:href="#DejaVuSans-64"/>
      <use x="63.476562" xlink:href="#DejaVuSans-78"/>
     </g>
    </g>
   </g>
  </g>
  <g id="axes_2">
   <g id="patch_23">
    <path d="M 110.67375 653.513052 
L 1421.843513 653.513052 
L 1421.843513 358.255901 
L 110.67375 358.255901 
z
" style="fill:#ffffff;"/>
   </g>
   <g id="patch_24">
    <path clip-path="url(#pb327676516)" d="M 134.087496 476.290943 
L 180.914987 476.290943 
L 180.914987 409.716455 
L 134.087496 409.716455 
z
" style="fill:#ff7f0e;"/>
   </g>
   <g id="patch_25">
    <path clip-path="url(#pb327676516)" d="M 227.742479 476.290943 
L 274.56997 476.290943 
L 274.56997 371.676681 
L 227.742479 371.676681 
z
" style="fill:#ff7f0e;"/>
   </g>
   <g id="patch_26">
    <path clip-path="url(#pb327676516)" d="M 321.397462 476.290943 
L 368.224953 476.290943 
L 368.224953 436.22896 
L 321.397462 436.22896 
z
" style="fill:#ff7f0e;"/>
   </g>
   <g id="patch_27">
    <path clip-path="url(#pb327676516)" d="M 415.052445 476.290943 
L 461.879936 476.290943 
L 461.879936 499.280008 
L 415.052445 499.280008 
z
" style="fill:#ff7f0e;"/>
   </g>
   <g id="patch_28">
    <path clip-path="url(#pb327676516)" d="M 508.707428 476.290943 
L 555.534919 476.290943 
L 555.534919 520.261615 
L 508.707428 520.261615 
z
" style="fill:#ff7f0e;"/>
   </g>
   <g id="patch_29">
    <path clip-path="url(#pb327676516)" d="M 602.362411 476.290943 
L 649.189902 476.290943 
L 649.189902 640.092272 
L 602.362411 640.092272 
z
" style="fill:#ff7f0e;"/>
   </g>
   <g id="patch_30">
    <path clip-path="url(#pb327676516)" d="M 696.017394 476.290943 
L 742.844886 476.290943 
L 742.844886 381.662811 
L 696.017394 381.662811 
z
" style="fill:#ff7f0e;"/>
   </g>
   <g id="patch_31">
    <path clip-path="url(#pb327676516)" d="M 789.672377 476.290943 
L 836.499869 476.290943 
L 836.499869 385.197418 
L 789.672377 385.197418 
z
" style="fill:#ff7f0e;"/>
   </g>
   <g id="patch_32">
    <path clip-path="url(#pb327676516)" d="M 883.32736 476.290943 
L 930.154852 476.290943 
L 930.154852 456.984756 
L 883.32736 456.984756 
z
" style="fill:#ff7f0e;"/>
   </g>
   <g id="patch_33">
    <path clip-path="url(#pb327676516)" d="M 976.982343 476.290943 
L 1023.809835 476.290943 
L 1023.809835 545.367089 
L 976.982343 545.367089 
z
" style="fill:#ff7f0e;"/>
   </g>
   <g id="patch_34">
    <path clip-path="url(#pb327676516)" d="M 1070.637326 476.290943 
L 1117.464818 476.290943 
L 1117.464818 507.567501 
L 1070.637326 507.567501 
z
" style="fill:#ff7f0e;"/>
   </g>
   <g id="patch_35">
    <path clip-path="url(#pb327676516)" d="M 1164.292309 476.290943 
L 1211.119801 476.290943 
L 1211.119801 473.849026 
L 1164.292309 473.849026 
z
" style="fill:#ff7f0e;"/>
   </g>
   <g id="patch_36">
    <path clip-path="url(#pb327676516)" d="M 1257.947292 476.290943 
L 1304.774784 476.290943 
L 1304.774784 447.758002 
L 1257.947292 447.758002 
z
" style="fill:#ff7f0e;"/>
   </g>
   <g id="patch_37">
    <path clip-path="url(#pb327676516)" d="M 1351.602275 476.290943 
L 1398.429767 476.290943 
L 1398.429767 437.5114 
L 1351.602275 437.5114 
z
" style="fill:#ff7f0e;"/>
   </g>
   <g id="matplotlib.axis_3">
    <g id="xtick_15">
     <g id="line2d_19">
      <g>
       <use style="stroke:#000000;stroke-width:0.8;" x="157.501242" xlink:href="#mdd44692a46" y="653.513052"/>
      </g>
     </g>
     <g id="text_7">
      <!-- mqml.6l1.b1 -->
      <g transform="translate(120.80704 750.596909)rotate(-45)scale(0.18 -0.18)">
       <defs>
        <path d="M 947 1747 
Q 947 1113 1208 752 
Q 1469 391 1925 391 
Q 2381 391 2643 752 
Q 2906 1113 2906 1747 
Q 2906 2381 2643 2742 
Q 2381 3103 1925 3103 
Q 1469 3103 1208 2742 
Q 947 2381 947 1747 
z
M 2906 525 
Q 2725 213 2448 61 
Q 2172 -91 1784 -91 
Q 1150 -91 751 415 
Q 353 922 353 1747 
Q 353 2572 751 3078 
Q 1150 3584 1784 3584 
Q 2172 3584 2448 3432 
Q 2725 3281 2906 2969 
L 2906 3500 
L 3481 3500 
L 3481 -1331 
L 2906 -1331 
L 2906 525 
z
" id="DejaVuSans-71" transform="scale(0.015625)"/>
        <path d="M 603 4863 
L 1178 4863 
L 1178 0 
L 603 0 
L 603 4863 
z
" id="DejaVuSans-6c" transform="scale(0.015625)"/>
        <path d="M 2113 2584 
Q 1688 2584 1439 2293 
Q 1191 2003 1191 1497 
Q 1191 994 1439 701 
Q 1688 409 2113 409 
Q 2538 409 2786 701 
Q 3034 994 3034 1497 
Q 3034 2003 2786 2293 
Q 2538 2584 2113 2584 
z
M 3366 4563 
L 3366 3988 
Q 3128 4100 2886 4159 
Q 2644 4219 2406 4219 
Q 1781 4219 1451 3797 
Q 1122 3375 1075 2522 
Q 1259 2794 1537 2939 
Q 1816 3084 2150 3084 
Q 2853 3084 3261 2657 
Q 3669 2231 3669 1497 
Q 3669 778 3244 343 
Q 2819 -91 2113 -91 
Q 1303 -91 875 529 
Q 447 1150 447 2328 
Q 447 3434 972 4092 
Q 1497 4750 2381 4750 
Q 2619 4750 2861 4703 
Q 3103 4656 3366 4563 
z
" id="DejaVuSans-36" transform="scale(0.015625)"/>
        <path d="M 3116 1747 
Q 3116 2381 2855 2742 
Q 2594 3103 2138 3103 
Q 1681 3103 1420 2742 
Q 1159 2381 1159 1747 
Q 1159 1113 1420 752 
Q 1681 391 2138 391 
Q 2594 391 2855 752 
Q 3116 1113 3116 1747 
z
M 1159 2969 
Q 1341 3281 1617 3432 
Q 1894 3584 2278 3584 
Q 2916 3584 3314 3078 
Q 3713 2572 3713 1747 
Q 3713 922 3314 415 
Q 2916 -91 2278 -91 
Q 1894 -91 1617 61 
Q 1341 213 1159 525 
L 1159 0 
L 581 0 
L 581 4863 
L 1159 4863 
L 1159 2969 
z
" id="DejaVuSans-62" transform="scale(0.015625)"/>
       </defs>
       <use xlink:href="#DejaVuSans-6d"/>
       <use x="97.412109" xlink:href="#DejaVuSans-71"/>
       <use x="160.888672" xlink:href="#DejaVuSans-6d"/>
       <use x="258.300781" xlink:href="#DejaVuSans-6c"/>
       <use x="286.083984" xlink:href="#DejaVuSans-2e"/>
       <use x="317.871094" xlink:href="#DejaVuSans-36"/>
       <use x="381.494141" xlink:href="#DejaVuSans-6c"/>
       <use x="409.277344" xlink:href="#DejaVuSans-31"/>
       <use x="472.900391" xlink:href="#DejaVuSans-2e"/>
       <use x="504.6875" xlink:href="#DejaVuSans-62"/>
       <use x="568.164062" xlink:href="#DejaVuSans-31"/>
      </g>
     </g>
    </g>
    <g id="xtick_16">
     <g id="line2d_20">
      <g>
       <use style="stroke:#000000;stroke-width:0.8;" x="251.156225" xlink:href="#mdd44692a46" y="653.513052"/>
      </g>
     </g>
     <g id="text_8">
      <!-- mqml.5l1.b1 -->
      <g transform="translate(214.462023 750.596909)rotate(-45)scale(0.18 -0.18)">
       <defs>
        <path d="M 691 4666 
L 3169 4666 
L 3169 4134 
L 1269 4134 
L 1269 2991 
Q 1406 3038 1543 3061 
Q 1681 3084 1819 3084 
Q 2600 3084 3056 2656 
Q 3513 2228 3513 1497 
Q 3513 744 3044 326 
Q 2575 -91 1722 -91 
Q 1428 -91 1123 -41 
Q 819 9 494 109 
L 494 744 
Q 775 591 1075 516 
Q 1375 441 1709 441 
Q 2250 441 2565 725 
Q 2881 1009 2881 1497 
Q 2881 1984 2565 2268 
Q 2250 2553 1709 2553 
Q 1456 2553 1204 2497 
Q 953 2441 691 2322 
L 691 4666 
z
" id="DejaVuSans-35" transform="scale(0.015625)"/>
       </defs>
       <use xlink:href="#DejaVuSans-6d"/>
       <use x="97.412109" xlink:href="#DejaVuSans-71"/>
       <use x="160.888672" xlink:href="#DejaVuSans-6d"/>
       <use x="258.300781" xlink:href="#DejaVuSans-6c"/>
       <use x="286.083984" xlink:href="#DejaVuSans-2e"/>
       <use x="317.871094" xlink:href="#DejaVuSans-35"/>
       <use x="381.494141" xlink:href="#DejaVuSans-6c"/>
       <use x="409.277344" xlink:href="#DejaVuSans-31"/>
       <use x="472.900391" xlink:href="#DejaVuSans-2e"/>
       <use x="504.6875" xlink:href="#DejaVuSans-62"/>
       <use x="568.164062" xlink:href="#DejaVuSans-31"/>
      </g>
     </g>
    </g>
    <g id="xtick_17">
     <g id="line2d_21">
      <g>
       <use style="stroke:#000000;stroke-width:0.8;" x="344.811208" xlink:href="#mdd44692a46" y="653.513052"/>
      </g>
     </g>
     <g id="text_9">
      <!-- mqy.4l1.b1 -->
      <g transform="translate(313.224085 740.382752)rotate(-45)scale(0.18 -0.18)">
       <defs>
        <path d="M 2059 -325 
Q 1816 -950 1584 -1140 
Q 1353 -1331 966 -1331 
L 506 -1331 
L 506 -850 
L 844 -850 
Q 1081 -850 1212 -737 
Q 1344 -625 1503 -206 
L 1606 56 
L 191 3500 
L 800 3500 
L 1894 763 
L 2988 3500 
L 3597 3500 
L 2059 -325 
z
" id="DejaVuSans-79" transform="scale(0.015625)"/>
        <path d="M 2419 4116 
L 825 1625 
L 2419 1625 
L 2419 4116 
z
M 2253 4666 
L 3047 4666 
L 3047 1625 
L 3713 1625 
L 3713 1100 
L 3047 1100 
L 3047 0 
L 2419 0 
L 2419 1100 
L 313 1100 
L 313 1709 
L 2253 4666 
z
" id="DejaVuSans-34" transform="scale(0.015625)"/>
       </defs>
       <use xlink:href="#DejaVuSans-6d"/>
       <use x="97.412109" xlink:href="#DejaVuSans-71"/>
       <use x="160.888672" xlink:href="#DejaVuSans-79"/>
       <use x="205.818359" xlink:href="#DejaVuSans-2e"/>
       <use x="237.605469" xlink:href="#DejaVuSans-34"/>
       <use x="301.228516" xlink:href="#DejaVuSans-6c"/>
       <use x="329.011719" xlink:href="#DejaVuSans-31"/>
       <use x="392.634766" xlink:href="#DejaVuSans-2e"/>
       <use x="424.421875" xlink:href="#DejaVuSans-62"/>
       <use x="487.898438" xlink:href="#DejaVuSans-31"/>
      </g>
     </g>
    </g>
    <g id="xtick_18">
     <g id="line2d_22">
      <g>
       <use style="stroke:#000000;stroke-width:0.8;" x="438.466191" xlink:href="#mdd44692a46" y="653.513052"/>
      </g>
     </g>
     <g id="text_10">
      <!-- mqxa.3l1 -->
      <g transform="translate(412.184026 729.772835)rotate(-45)scale(0.18 -0.18)">
       <defs>
        <path d="M 2194 1759 
Q 1497 1759 1228 1600 
Q 959 1441 959 1056 
Q 959 750 1161 570 
Q 1363 391 1709 391 
Q 2188 391 2477 730 
Q 2766 1069 2766 1631 
L 2766 1759 
L 2194 1759 
z
M 3341 1997 
L 3341 0 
L 2766 0 
L 2766 531 
Q 2569 213 2275 61 
Q 1981 -91 1556 -91 
Q 1019 -91 701 211 
Q 384 513 384 1019 
Q 384 1609 779 1909 
Q 1175 2209 1959 2209 
L 2766 2209 
L 2766 2266 
Q 2766 2663 2505 2880 
Q 2244 3097 1772 3097 
Q 1472 3097 1187 3025 
Q 903 2953 641 2809 
L 641 3341 
Q 956 3463 1253 3523 
Q 1550 3584 1831 3584 
Q 2591 3584 2966 3190 
Q 3341 2797 3341 1997 
z
" id="DejaVuSans-61" transform="scale(0.015625)"/>
        <path d="M 2597 2516 
Q 3050 2419 3304 2112 
Q 3559 1806 3559 1356 
Q 3559 666 3084 287 
Q 2609 -91 1734 -91 
Q 1441 -91 1130 -33 
Q 819 25 488 141 
L 488 750 
Q 750 597 1062 519 
Q 1375 441 1716 441 
Q 2309 441 2620 675 
Q 2931 909 2931 1356 
Q 2931 1769 2642 2001 
Q 2353 2234 1838 2234 
L 1294 2234 
L 1294 2753 
L 1863 2753 
Q 2328 2753 2575 2939 
Q 2822 3125 2822 3475 
Q 2822 3834 2567 4026 
Q 2313 4219 1838 4219 
Q 1578 4219 1281 4162 
Q 984 4106 628 3988 
L 628 4550 
Q 988 4650 1302 4700 
Q 1616 4750 1894 4750 
Q 2613 4750 3031 4423 
Q 3450 4097 3450 3541 
Q 3450 3153 3228 2886 
Q 3006 2619 2597 2516 
z
" id="DejaVuSans-33" transform="scale(0.015625)"/>
       </defs>
       <use xlink:href="#DejaVuSans-6d"/>
       <use x="97.412109" xlink:href="#DejaVuSans-71"/>
       <use x="160.888672" xlink:href="#DejaVuSans-78"/>
       <use x="220.068359" xlink:href="#DejaVuSans-61"/>
       <use x="281.347656" xlink:href="#DejaVuSans-2e"/>
       <use x="313.134766" xlink:href="#DejaVuSans-33"/>
       <use x="376.757812" xlink:href="#DejaVuSans-6c"/>
       <use x="404.541016" xlink:href="#DejaVuSans-31"/>
      </g>
     </g>
    </g>
    <g id="xtick_19">
     <g id="line2d_23">
      <g>
       <use style="stroke:#000000;stroke-width:0.8;" x="532.121174" xlink:href="#mdd44692a46" y="653.513052"/>
      </g>
     </g>
     <g id="text_11">
      <!-- mqxb.b2l1 -->
      <g transform="translate(501.658682 738.133489)rotate(-45)scale(0.18 -0.18)">
       <use xlink:href="#DejaVuSans-6d"/>
       <use x="97.412109" xlink:href="#DejaVuSans-71"/>
       <use x="160.888672" xlink:href="#DejaVuSans-78"/>
       <use x="220.068359" xlink:href="#DejaVuSans-62"/>
       <use x="283.544922" xlink:href="#DejaVuSans-2e"/>
       <use x="315.332031" xlink:href="#DejaVuSans-62"/>
       <use x="378.808594" xlink:href="#DejaVuSans-32"/>
       <use x="442.431641" xlink:href="#DejaVuSans-6c"/>
       <use x="470.214844" xlink:href="#DejaVuSans-31"/>
      </g>
     </g>
    </g>
    <g id="xtick_20">
     <g id="line2d_24">
      <g>
       <use style="stroke:#000000;stroke-width:0.8;" x="625.776157" xlink:href="#mdd44692a46" y="653.513052"/>
      </g>
     </g>
     <g id="text_12">
      <!-- mqxb.a2l1 -->
      <g transform="translate(595.453871 737.853077)rotate(-45)scale(0.18 -0.18)">
       <use xlink:href="#DejaVuSans-6d"/>
       <use x="97.412109" xlink:href="#DejaVuSans-71"/>
       <use x="160.888672" xlink:href="#DejaVuSans-78"/>
       <use x="220.068359" xlink:href="#DejaVuSans-62"/>
       <use x="283.544922" xlink:href="#DejaVuSans-2e"/>
       <use x="315.332031" xlink:href="#DejaVuSans-61"/>
       <use x="376.611328" xlink:href="#DejaVuSans-32"/>
       <use x="440.234375" xlink:href="#DejaVuSans-6c"/>
       <use x="468.017578" xlink:href="#DejaVuSans-31"/>
      </g>
     </g>
    </g>
    <g id="xtick_21">
     <g id="line2d_25">
      <g>
       <use style="stroke:#000000;stroke-width:0.8;" x="719.43114" xlink:href="#mdd44692a46" y="653.513052"/>
      </g>
     </g>
     <g id="text_13">
      <!-- mqxa.1l1 -->
      <g transform="translate(693.148975 729.772835)rotate(-45)scale(0.18 -0.18)">
       <use xlink:href="#DejaVuSans-6d"/>
       <use x="97.412109" xlink:href="#DejaVuSans-71"/>
       <use x="160.888672" xlink:href="#DejaVuSans-78"/>
       <use x="220.068359" xlink:href="#DejaVuSans-61"/>
       <use x="281.347656" xlink:href="#DejaVuSans-2e"/>
       <use x="313.134766" xlink:href="#DejaVuSans-31"/>
       <use x="376.757812" xlink:href="#DejaVuSans-6c"/>
       <use x="404.541016" xlink:href="#DejaVuSans-31"/>
      </g>
     </g>
    </g>
    <g id="xtick_22">
     <g id="line2d_26">
      <g>
       <use style="stroke:#000000;stroke-width:0.8;" x="813.086123" xlink:href="#mdd44692a46" y="653.513052"/>
      </g>
     </g>
     <g id="text_14">
      <!-- mqxa.1r1 -->
      <g transform="translate(785.955761 731.469229)rotate(-45)scale(0.18 -0.18)">
       <defs>
        <path d="M 2631 2963 
Q 2534 3019 2420 3045 
Q 2306 3072 2169 3072 
Q 1681 3072 1420 2755 
Q 1159 2438 1159 1844 
L 1159 0 
L 581 0 
L 581 3500 
L 1159 3500 
L 1159 2956 
Q 1341 3275 1631 3429 
Q 1922 3584 2338 3584 
Q 2397 3584 2469 3576 
Q 2541 3569 2628 3553 
L 2631 2963 
z
" id="DejaVuSans-72" transform="scale(0.015625)"/>
       </defs>
       <use xlink:href="#DejaVuSans-6d"/>
       <use x="97.412109" xlink:href="#DejaVuSans-71"/>
       <use x="160.888672" xlink:href="#DejaVuSans-78"/>
       <use x="220.068359" xlink:href="#DejaVuSans-61"/>
       <use x="281.347656" xlink:href="#DejaVuSans-2e"/>
       <use x="313.134766" xlink:href="#DejaVuSans-31"/>
       <use x="376.757812" xlink:href="#DejaVuSans-72"/>
       <use x="417.871094" xlink:href="#DejaVuSans-31"/>
      </g>
     </g>
    </g>
    <g id="xtick_23">
     <g id="line2d_27">
      <g>
       <use style="stroke:#000000;stroke-width:0.8;" x="906.741106" xlink:href="#mdd44692a46" y="653.513052"/>
      </g>
     </g>
     <g id="text_15">
      <!-- mqxb.a2r1 -->
      <g transform="translate(875.570624 739.54947)rotate(-45)scale(0.18 -0.18)">
       <use xlink:href="#DejaVuSans-6d"/>
       <use x="97.412109" xlink:href="#DejaVuSans-71"/>
       <use x="160.888672" xlink:href="#DejaVuSans-78"/>
       <use x="220.068359" xlink:href="#DejaVuSans-62"/>
       <use x="283.544922" xlink:href="#DejaVuSans-2e"/>
       <use x="315.332031" xlink:href="#DejaVuSans-61"/>
       <use x="376.611328" xlink:href="#DejaVuSans-32"/>
       <use x="440.234375" xlink:href="#DejaVuSans-72"/>
       <use x="481.347656" xlink:href="#DejaVuSans-31"/>
      </g>
     </g>
    </g>
    <g id="xtick_24">
     <g id="line2d_28">
      <g>
       <use style="stroke:#000000;stroke-width:0.8;" x="1000.396089" xlink:href="#mdd44692a46" y="653.513052"/>
      </g>
     </g>
     <g id="text_16">
      <!-- mqxb.b2r1 -->
      <g transform="translate(969.085401 739.829883)rotate(-45)scale(0.18 -0.18)">
       <use xlink:href="#DejaVuSans-6d"/>
       <use x="97.412109" xlink:href="#DejaVuSans-71"/>
       <use x="160.888672" xlink:href="#DejaVuSans-78"/>
       <use x="220.068359" xlink:href="#DejaVuSans-62"/>
       <use x="283.544922" xlink:href="#DejaVuSans-2e"/>
       <use x="315.332031" xlink:href="#DejaVuSans-62"/>
       <use x="378.808594" xlink:href="#DejaVuSans-32"/>
       <use x="442.431641" xlink:href="#DejaVuSans-72"/>
       <use x="483.544922" xlink:href="#DejaVuSans-31"/>
      </g>
     </g>
    </g>
    <g id="xtick_25">
     <g id="line2d_29">
      <g>
       <use style="stroke:#000000;stroke-width:0.8;" x="1094.051072" xlink:href="#mdd44692a46" y="653.513052"/>
      </g>
     </g>
     <g id="text_17">
      <!-- mqxa.3r1 -->
      <g transform="translate(1066.920711 731.469229)rotate(-45)scale(0.18 -0.18)">
       <use xlink:href="#DejaVuSans-6d"/>
       <use x="97.412109" xlink:href="#DejaVuSans-71"/>
       <use x="160.888672" xlink:href="#DejaVuSans-78"/>
       <use x="220.068359" xlink:href="#DejaVuSans-61"/>
       <use x="281.347656" xlink:href="#DejaVuSans-2e"/>
       <use x="313.134766" xlink:href="#DejaVuSans-33"/>
       <use x="376.757812" xlink:href="#DejaVuSans-72"/>
       <use x="417.871094" xlink:href="#DejaVuSans-31"/>
      </g>
     </g>
    </g>
    <g id="xtick_26">
     <g id="line2d_30">
      <g>
       <use style="stroke:#000000;stroke-width:0.8;" x="1187.706055" xlink:href="#mdd44692a46" y="653.513052"/>
      </g>
     </g>
     <g id="text_18">
      <!-- mqy.4r1.b1 -->
      <g transform="translate(1155.270735 742.079145)rotate(-45)scale(0.18 -0.18)">
       <use xlink:href="#DejaVuSans-6d"/>
       <use x="97.412109" xlink:href="#DejaVuSans-71"/>
       <use x="160.888672" xlink:href="#DejaVuSans-79"/>
       <use x="205.818359" xlink:href="#DejaVuSans-2e"/>
       <use x="237.605469" xlink:href="#DejaVuSans-34"/>
       <use x="301.228516" xlink:href="#DejaVuSans-72"/>
       <use x="342.341797" xlink:href="#DejaVuSans-31"/>
       <use x="405.964844" xlink:href="#DejaVuSans-2e"/>
       <use x="437.751953" xlink:href="#DejaVuSans-62"/>
       <use x="501.228516" xlink:href="#DejaVuSans-31"/>
      </g>
     </g>
    </g>
    <g id="xtick_27">
     <g id="line2d_31">
      <g>
       <use style="stroke:#000000;stroke-width:0.8;" x="1281.361038" xlink:href="#mdd44692a46" y="653.513052"/>
      </g>
     </g>
     <g id="text_19">
      <!-- mqml.5r1.b1 -->
      <g transform="translate(1243.81864 752.293302)rotate(-45)scale(0.18 -0.18)">
       <use xlink:href="#DejaVuSans-6d"/>
       <use x="97.412109" xlink:href="#DejaVuSans-71"/>
       <use x="160.888672" xlink:href="#DejaVuSans-6d"/>
       <use x="258.300781" xlink:href="#DejaVuSans-6c"/>
       <use x="286.083984" xlink:href="#DejaVuSans-2e"/>
       <use x="317.871094" xlink:href="#DejaVuSans-35"/>
       <use x="381.494141" xlink:href="#DejaVuSans-72"/>
       <use x="422.607422" xlink:href="#DejaVuSans-31"/>
       <use x="486.230469" xlink:href="#DejaVuSans-2e"/>
       <use x="518.017578" xlink:href="#DejaVuSans-62"/>
       <use x="581.494141" xlink:href="#DejaVuSans-31"/>
      </g>
     </g>
    </g>
    <g id="xtick_28">
     <g id="line2d_32">
      <g>
       <use style="stroke:#000000;stroke-width:0.8;" x="1375.016021" xlink:href="#mdd44692a46" y="653.513052"/>
      </g>
     </g>
     <g id="text_20">
      <!-- mqml.6r1.b1 -->
      <g transform="translate(1337.473623 752.293302)rotate(-45)scale(0.18 -0.18)">
       <use xlink:href="#DejaVuSans-6d"/>
       <use x="97.412109" xlink:href="#DejaVuSans-71"/>
       <use x="160.888672" xlink:href="#DejaVuSans-6d"/>
       <use x="258.300781" xlink:href="#DejaVuSans-6c"/>
       <use x="286.083984" xlink:href="#DejaVuSans-2e"/>
       <use x="317.871094" xlink:href="#DejaVuSans-36"/>
       <use x="381.494141" xlink:href="#DejaVuSans-72"/>
       <use x="422.607422" xlink:href="#DejaVuSans-31"/>
       <use x="486.230469" xlink:href="#DejaVuSans-2e"/>
       <use x="518.017578" xlink:href="#DejaVuSans-62"/>
       <use x="581.494141" xlink:href="#DejaVuSans-31"/>
      </g>
     </g>
    </g>
    <g id="text_21">
     <!-- Magnet Name -->
     <g transform="translate(685.532225 776.416719)scale(0.23 -0.23)">
      <defs>
       <path d="M 628 4666 
L 1569 4666 
L 2759 1491 
L 3956 4666 
L 4897 4666 
L 4897 0 
L 4281 0 
L 4281 4097 
L 3078 897 
L 2444 897 
L 1241 4097 
L 1241 0 
L 628 0 
L 628 4666 
z
" id="DejaVuSans-4d" transform="scale(0.015625)"/>
       <path d="M 2906 1791 
Q 2906 2416 2648 2759 
Q 2391 3103 1925 3103 
Q 1463 3103 1205 2759 
Q 947 2416 947 1791 
Q 947 1169 1205 825 
Q 1463 481 1925 481 
Q 2391 481 2648 825 
Q 2906 1169 2906 1791 
z
M 3481 434 
Q 3481 -459 3084 -895 
Q 2688 -1331 1869 -1331 
Q 1566 -1331 1297 -1286 
Q 1028 -1241 775 -1147 
L 775 -588 
Q 1028 -725 1275 -790 
Q 1522 -856 1778 -856 
Q 2344 -856 2625 -561 
Q 2906 -266 2906 331 
L 2906 616 
Q 2728 306 2450 153 
Q 2172 0 1784 0 
Q 1141 0 747 490 
Q 353 981 353 1791 
Q 353 2603 747 3093 
Q 1141 3584 1784 3584 
Q 2172 3584 2450 3431 
Q 2728 3278 2906 2969 
L 2906 3500 
L 3481 3500 
L 3481 434 
z
" id="DejaVuSans-67" transform="scale(0.015625)"/>
       <path d="M 3513 2113 
L 3513 0 
L 2938 0 
L 2938 2094 
Q 2938 2591 2744 2837 
Q 2550 3084 2163 3084 
Q 1697 3084 1428 2787 
Q 1159 2491 1159 1978 
L 1159 0 
L 581 0 
L 581 3500 
L 1159 3500 
L 1159 2956 
Q 1366 3272 1645 3428 
Q 1925 3584 2291 3584 
Q 2894 3584 3203 3211 
Q 3513 2838 3513 2113 
z
" id="DejaVuSans-6e" transform="scale(0.015625)"/>
       <path d="M 3597 1894 
L 3597 1613 
L 953 1613 
Q 991 1019 1311 708 
Q 1631 397 2203 397 
Q 2534 397 2845 478 
Q 3156 559 3463 722 
L 3463 178 
Q 3153 47 2828 -22 
Q 2503 -91 2169 -91 
Q 1331 -91 842 396 
Q 353 884 353 1716 
Q 353 2575 817 3079 
Q 1281 3584 2069 3584 
Q 2775 3584 3186 3129 
Q 3597 2675 3597 1894 
z
M 3022 2063 
Q 3016 2534 2758 2815 
Q 2500 3097 2075 3097 
Q 1594 3097 1305 2825 
Q 1016 2553 972 2059 
L 3022 2063 
z
" id="DejaVuSans-65" transform="scale(0.015625)"/>
       <path d="M 1172 4494 
L 1172 3500 
L 2356 3500 
L 2356 3053 
L 1172 3053 
L 1172 1153 
Q 1172 725 1289 603 
Q 1406 481 1766 481 
L 2356 481 
L 2356 0 
L 1766 0 
Q 1100 0 847 248 
Q 594 497 594 1153 
L 594 3053 
L 172 3053 
L 172 3500 
L 594 3500 
L 594 4494 
L 1172 4494 
z
" id="DejaVuSans-74" transform="scale(0.015625)"/>
       <path d="M 628 4666 
L 1478 4666 
L 3547 763 
L 3547 4666 
L 4159 4666 
L 4159 0 
L 3309 0 
L 1241 3903 
L 1241 0 
L 628 0 
L 628 4666 
z
" id="DejaVuSans-4e" transform="scale(0.015625)"/>
      </defs>
      <use xlink:href="#DejaVuSans-4d"/>
      <use x="86.279297" xlink:href="#DejaVuSans-61"/>
      <use x="147.558594" xlink:href="#DejaVuSans-67"/>
      <use x="211.035156" xlink:href="#DejaVuSans-6e"/>
      <use x="274.414062" xlink:href="#DejaVuSans-65"/>
      <use x="335.9375" xlink:href="#DejaVuSans-74"/>
      <use x="375.146484" xlink:href="#DejaVuSans-20"/>
      <use x="406.933594" xlink:href="#DejaVuSans-4e"/>
      <use x="481.738281" xlink:href="#DejaVuSans-61"/>
      <use x="543.017578" xlink:href="#DejaVuSans-6d"/>
      <use x="640.429688" xlink:href="#DejaVuSans-65"/>
     </g>
    </g>
   </g>
   <g id="matplotlib.axis_4">
    <g id="ytick_5">
     <g id="line2d_33">
      <g>
       <use style="stroke:#000000;stroke-width:0.8;" x="110.67375" xlink:href="#m3b5d216ca0" y="646.469102"/>
      </g>
     </g>
     <g id="text_22">
      <!-- −0.008 -->
      <g transform="translate(37.059688 653.307696)scale(0.18 -0.18)">
       <defs>
        <path d="M 2034 2216 
Q 1584 2216 1326 1975 
Q 1069 1734 1069 1313 
Q 1069 891 1326 650 
Q 1584 409 2034 409 
Q 2484 409 2743 651 
Q 3003 894 3003 1313 
Q 3003 1734 2745 1975 
Q 2488 2216 2034 2216 
z
M 1403 2484 
Q 997 2584 770 2862 
Q 544 3141 544 3541 
Q 544 4100 942 4425 
Q 1341 4750 2034 4750 
Q 2731 4750 3128 4425 
Q 3525 4100 3525 3541 
Q 3525 3141 3298 2862 
Q 3072 2584 2669 2484 
Q 3125 2378 3379 2068 
Q 3634 1759 3634 1313 
Q 3634 634 3220 271 
Q 2806 -91 2034 -91 
Q 1263 -91 848 271 
Q 434 634 434 1313 
Q 434 1759 690 2068 
Q 947 2378 1403 2484 
z
M 1172 3481 
Q 1172 3119 1398 2916 
Q 1625 2713 2034 2713 
Q 2441 2713 2670 2916 
Q 2900 3119 2900 3481 
Q 2900 3844 2670 4047 
Q 2441 4250 2034 4250 
Q 1625 4250 1398 4047 
Q 1172 3844 1172 3481 
z
" id="DejaVuSans-38" transform="scale(0.015625)"/>
       </defs>
       <use xlink:href="#DejaVuSans-2212"/>
       <use x="83.789062" xlink:href="#DejaVuSans-30"/>
       <use x="147.412109" xlink:href="#DejaVuSans-2e"/>
       <use x="179.199219" xlink:href="#DejaVuSans-30"/>
       <use x="242.822266" xlink:href="#DejaVuSans-30"/>
       <use x="306.445312" xlink:href="#DejaVuSans-38"/>
      </g>
     </g>
    </g>
    <g id="ytick_6">
     <g id="line2d_34">
      <g>
       <use style="stroke:#000000;stroke-width:0.8;" x="110.67375" xlink:href="#m3b5d216ca0" y="603.924562"/>
      </g>
     </g>
     <g id="text_23">
      <!-- −0.006 -->
      <g transform="translate(37.059688 610.763156)scale(0.18 -0.18)">
       <use xlink:href="#DejaVuSans-2212"/>
       <use x="83.789062" xlink:href="#DejaVuSans-30"/>
       <use x="147.412109" xlink:href="#DejaVuSans-2e"/>
       <use x="179.199219" xlink:href="#DejaVuSans-30"/>
       <use x="242.822266" xlink:href="#DejaVuSans-30"/>
       <use x="306.445312" xlink:href="#DejaVuSans-36"/>
      </g>
     </g>
    </g>
    <g id="ytick_7">
     <g id="line2d_35">
      <g>
       <use style="stroke:#000000;stroke-width:0.8;" x="110.67375" xlink:href="#m3b5d216ca0" y="561.380023"/>
      </g>
     </g>
     <g id="text_24">
      <!-- −0.004 -->
      <g transform="translate(37.059688 568.218616)scale(0.18 -0.18)">
       <use xlink:href="#DejaVuSans-2212"/>
       <use x="83.789062" xlink:href="#DejaVuSans-30"/>
       <use x="147.412109" xlink:href="#DejaVuSans-2e"/>
       <use x="179.199219" xlink:href="#DejaVuSans-30"/>
       <use x="242.822266" xlink:href="#DejaVuSans-30"/>
       <use x="306.445312" xlink:href="#DejaVuSans-34"/>
      </g>
     </g>
    </g>
    <g id="ytick_8">
     <g id="line2d_36">
      <g>
       <use style="stroke:#000000;stroke-width:0.8;" x="110.67375" xlink:href="#m3b5d216ca0" y="518.835483"/>
      </g>
     </g>
     <g id="text_25">
      <!-- −0.002 -->
      <g transform="translate(37.059688 525.674076)scale(0.18 -0.18)">
       <use xlink:href="#DejaVuSans-2212"/>
       <use x="83.789062" xlink:href="#DejaVuSans-30"/>
       <use x="147.412109" xlink:href="#DejaVuSans-2e"/>
       <use x="179.199219" xlink:href="#DejaVuSans-30"/>
       <use x="242.822266" xlink:href="#DejaVuSans-30"/>
       <use x="306.445312" xlink:href="#DejaVuSans-32"/>
      </g>
     </g>
    </g>
    <g id="ytick_9">
     <g id="line2d_37">
      <g>
       <use style="stroke:#000000;stroke-width:0.8;" x="110.67375" xlink:href="#m3b5d216ca0" y="476.290943"/>
      </g>
     </g>
     <g id="text_26">
      <!-- 0.000 -->
      <g transform="translate(52.143125 483.129537)scale(0.18 -0.18)">
       <use xlink:href="#DejaVuSans-30"/>
       <use x="63.623047" xlink:href="#DejaVuSans-2e"/>
       <use x="95.410156" xlink:href="#DejaVuSans-30"/>
       <use x="159.033203" xlink:href="#DejaVuSans-30"/>
       <use x="222.65625" xlink:href="#DejaVuSans-30"/>
      </g>
     </g>
    </g>
    <g id="ytick_10">
     <g id="line2d_38">
      <g>
       <use style="stroke:#000000;stroke-width:0.8;" x="110.67375" xlink:href="#m3b5d216ca0" y="433.746403"/>
      </g>
     </g>
     <g id="text_27">
      <!-- 0.002 -->
      <g transform="translate(52.143125 440.584997)scale(0.18 -0.18)">
       <use xlink:href="#DejaVuSans-30"/>
       <use x="63.623047" xlink:href="#DejaVuSans-2e"/>
       <use x="95.410156" xlink:href="#DejaVuSans-30"/>
       <use x="159.033203" xlink:href="#DejaVuSans-30"/>
       <use x="222.65625" xlink:href="#DejaVuSans-32"/>
      </g>
     </g>
    </g>
    <g id="ytick_11">
     <g id="line2d_39">
      <g>
       <use style="stroke:#000000;stroke-width:0.8;" x="110.67375" xlink:href="#m3b5d216ca0" y="391.201863"/>
      </g>
     </g>
     <g id="text_28">
      <!-- 0.004 -->
      <g transform="translate(52.143125 398.040457)scale(0.18 -0.18)">
       <use xlink:href="#DejaVuSans-30"/>
       <use x="63.623047" xlink:href="#DejaVuSans-2e"/>
       <use x="95.410156" xlink:href="#DejaVuSans-30"/>
       <use x="159.033203" xlink:href="#DejaVuSans-30"/>
       <use x="222.65625" xlink:href="#DejaVuSans-34"/>
      </g>
     </g>
    </g>
    <g id="text_29">
     <!-- dpsi [rad] -->
     <g transform="translate(28.276406 561.37557)rotate(-90)scale(0.23 -0.23)">
      <defs>
       <path d="M 1159 525 
L 1159 -1331 
L 581 -1331 
L 581 3500 
L 1159 3500 
L 1159 2969 
Q 1341 3281 1617 3432 
Q 1894 3584 2278 3584 
Q 2916 3584 3314 3078 
Q 3713 2572 3713 1747 
Q 3713 922 3314 415 
Q 2916 -91 2278 -91 
Q 1894 -91 1617 61 
Q 1341 213 1159 525 
z
M 3116 1747 
Q 3116 2381 2855 2742 
Q 2594 3103 2138 3103 
Q 1681 3103 1420 2742 
Q 1159 2381 1159 1747 
Q 1159 1113 1420 752 
Q 1681 391 2138 391 
Q 2594 391 2855 752 
Q 3116 1113 3116 1747 
z
" id="DejaVuSans-70" transform="scale(0.015625)"/>
       <path d="M 2834 3397 
L 2834 2853 
Q 2591 2978 2328 3040 
Q 2066 3103 1784 3103 
Q 1356 3103 1142 2972 
Q 928 2841 928 2578 
Q 928 2378 1081 2264 
Q 1234 2150 1697 2047 
L 1894 2003 
Q 2506 1872 2764 1633 
Q 3022 1394 3022 966 
Q 3022 478 2636 193 
Q 2250 -91 1575 -91 
Q 1294 -91 989 -36 
Q 684 19 347 128 
L 347 722 
Q 666 556 975 473 
Q 1284 391 1588 391 
Q 1994 391 2212 530 
Q 2431 669 2431 922 
Q 2431 1156 2273 1281 
Q 2116 1406 1581 1522 
L 1381 1569 
Q 847 1681 609 1914 
Q 372 2147 372 2553 
Q 372 3047 722 3315 
Q 1072 3584 1716 3584 
Q 2034 3584 2315 3537 
Q 2597 3491 2834 3397 
z
" id="DejaVuSans-73" transform="scale(0.015625)"/>
       <path d="M 603 3500 
L 1178 3500 
L 1178 0 
L 603 0 
L 603 3500 
z
M 603 4863 
L 1178 4863 
L 1178 4134 
L 603 4134 
L 603 4863 
z
" id="DejaVuSans-69" transform="scale(0.015625)"/>
      </defs>
      <use xlink:href="#DejaVuSans-64"/>
      <use x="63.476562" xlink:href="#DejaVuSans-70"/>
      <use x="126.953125" xlink:href="#DejaVuSans-73"/>
      <use x="179.052734" xlink:href="#DejaVuSans-69"/>
      <use x="206.835938" xlink:href="#DejaVuSans-20"/>
      <use x="238.623047" xlink:href="#DejaVuSans-5b"/>
      <use x="277.636719" xlink:href="#DejaVuSans-72"/>
      <use x="318.75" xlink:href="#DejaVuSans-61"/>
      <use x="380.029297" xlink:href="#DejaVuSans-64"/>
      <use x="443.505859" xlink:href="#DejaVuSans-5d"/>
     </g>
    </g>
   </g>
   <g id="patch_38">
    <path d="M 110.67375 653.513052 
L 110.67375 358.255901 
" style="fill:none;stroke:#000000;stroke-linecap:square;stroke-linejoin:miter;stroke-width:0.8;"/>
   </g>
   <g id="patch_39">
    <path d="M 1421.843513 653.513052 
L 1421.843513 358.255901 
" style="fill:none;stroke:#000000;stroke-linecap:square;stroke-linejoin:miter;stroke-width:0.8;"/>
   </g>
   <g id="patch_40">
    <path d="M 110.67375 653.513052 
L 1421.843513 653.513052 
" style="fill:none;stroke:#000000;stroke-linecap:square;stroke-linejoin:miter;stroke-width:0.8;"/>
   </g>
   <g id="patch_41">
    <path d="M 110.67375 358.255901 
L 1421.843513 358.255901 
" style="fill:none;stroke:#000000;stroke-linecap:square;stroke-linejoin:miter;stroke-width:0.8;"/>
   </g>
   <g id="legend_2">
    <g id="patch_42">
     <path d="M 1278.601013 412.683401 
L 1405.043513 412.683401 
Q 1409.843513 412.683401 1409.843513 407.883401 
L 1409.843513 375.055901 
Q 1409.843513 370.255901 1405.043513 370.255901 
L 1278.601013 370.255901 
Q 1273.801013 370.255901 1273.801013 375.055901 
L 1273.801013 407.883401 
Q 1273.801013 412.683401 1278.601013 412.683401 
z
" style="fill:#ffffff;opacity:0.8;stroke:#cccccc;stroke-linejoin:miter;"/>
    </g>
    <g id="patch_43">
     <path d="M 1283.401013 398.092151 
L 1331.401013 398.092151 
L 1331.401013 381.292151 
L 1283.401013 381.292151 
z
" style="fill:#ff7f0e;"/>
    </g>
    <g id="text_30">
     <!-- dpsi -->
     <g transform="translate(1350.601013 398.092151)scale(0.24 -0.24)">
      <use xlink:href="#DejaVuSans-64"/>
      <use x="63.476562" xlink:href="#DejaVuSans-70"/>
      <use x="126.953125" xlink:href="#DejaVuSans-73"/>
      <use x="179.052734" xlink:href="#DejaVuSans-69"/>
     </g>
    </g>
   </g>
  </g>
  <g id="text_31">
   <!-- Applied Errors -->
   <g transform="translate(621.505625 37.115625)scale(0.28 -0.28)">
    <defs>
     <path d="M 2188 4044 
L 1331 1722 
L 3047 1722 
L 2188 4044 
z
M 1831 4666 
L 2547 4666 
L 4325 0 
L 3669 0 
L 3244 1197 
L 1141 1197 
L 716 0 
L 50 0 
L 1831 4666 
z
" id="DejaVuSans-41" transform="scale(0.015625)"/>
     <path d="M 628 4666 
L 3578 4666 
L 3578 4134 
L 1259 4134 
L 1259 2753 
L 3481 2753 
L 3481 2222 
L 1259 2222 
L 1259 531 
L 3634 531 
L 3634 0 
L 628 0 
L 628 4666 
z
" id="DejaVuSans-45" transform="scale(0.015625)"/>
     <path d="M 1959 3097 
Q 1497 3097 1228 2736 
Q 959 2375 959 1747 
Q 959 1119 1226 758 
Q 1494 397 1959 397 
Q 2419 397 2687 759 
Q 2956 1122 2956 1747 
Q 2956 2369 2687 2733 
Q 2419 3097 1959 3097 
z
M 1959 3584 
Q 2709 3584 3137 3096 
Q 3566 2609 3566 1747 
Q 3566 888 3137 398 
Q 2709 -91 1959 -91 
Q 1206 -91 779 398 
Q 353 888 353 1747 
Q 353 2609 779 3096 
Q 1206 3584 1959 3584 
z
" id="DejaVuSans-6f" transform="scale(0.015625)"/>
    </defs>
    <use xlink:href="#DejaVuSans-41"/>
    <use x="68.408203" xlink:href="#DejaVuSans-70"/>
    <use x="131.884766" xlink:href="#DejaVuSans-70"/>
    <use x="195.361328" xlink:href="#DejaVuSans-6c"/>
    <use x="223.144531" xlink:href="#DejaVuSans-69"/>
    <use x="250.927734" xlink:href="#DejaVuSans-65"/>
    <use x="312.451172" xlink:href="#DejaVuSans-64"/>
    <use x="375.927734" xlink:href="#DejaVuSans-20"/>
    <use x="407.714844" xlink:href="#DejaVuSans-45"/>
    <use x="470.898438" xlink:href="#DejaVuSans-72"/>
    <use x="510.261719" xlink:href="#DejaVuSans-72"/>
    <use x="549.125" xlink:href="#DejaVuSans-6f"/>
    <use x="610.306641" xlink:href="#DejaVuSans-72"/>
    <use x="651.419922" xlink:href="#DejaVuSans-73"/>
   </g>
  </g>
 </g>
 <defs>
  <clipPath id="p22355f8fed">
   <rect height="295.257151" width="1311.169763" x="110.67375" y="48.69875"/>
  </clipPath>
  <clipPath id="pb327676516">
   <rect height="295.257151" width="1311.169763" x="110.67375" y="358.255901"/>
  </clipPath>
 </defs>
</svg>
