<?xml version="1.0" encoding="utf-8" standalone="no"?>
<!DOCTYPE svg PUBLIC "-//W3C//DTD SVG 1.1//EN"
  "http://www.w3.org/Graphics/SVG/1.1/DTD/svg11.dtd">
<svg xmlns:xlink="http://www.w3.org/1999/xlink" width="1440pt" height="864pt" viewBox="0 0 1440 864" xmlns="http://www.w3.org/2000/svg" version="1.1">
 <metadata>
  <rdf:RDF xmlns:dc="http://purl.org/dc/elements/1.1/" xmlns:cc="http://creativecommons.org/ns#" xmlns:rdf="http://www.w3.org/1999/02/22-rdf-syntax-ns#">
   <cc:Work>
    <dc:type rdf:resource="http://purl.org/dc/dcmitype/StillImage"/>
    <dc:date>2022-03-09T17:07:03.697989</dc:date>
    <dc:format>image/svg+xml</dc:format>
    <dc:creator>
     <cc:Agent>
      <dc:title>Matplotlib v3.5.1, https://matplotlib.org/</dc:title>
     </cc:Agent>
    </dc:creator>
   </cc:Work>
  </rdf:RDF>
 </metadata>
 <defs>
  <style type="text/css">*{stroke-linejoin: round; stroke-linecap: butt}</style>
 </defs>
 <g id="figure_1">
  <g id="patch_1">
   <path d="M 0 864 
L 1440 864 
L 1440 0 
L 0 0 
z
" style="fill: #ffffff"/>
  </g>
  <g id="axes_1">
   <g id="patch_2">
    <path d="M 72.685313 828.779375 
L 1429.2 828.779375 
L 1429.2 38.075625 
L 72.685313 38.075625 
z
" style="fill: #ffffff"/>
   </g>
   <g id="patch_3">
    <path d="M 134.345071 828.779375 
L 146.677023 828.779375 
L 146.677023 826.961509 
L 134.345071 826.961509 
z
" clip-path="url(#p474a861bce)" style="fill: #1f77b4; opacity: 0.6"/>
   </g>
   <g id="patch_4">
    <path d="M 146.677023 828.779375 
L 159.008974 828.779375 
L 159.008974 826.052575 
L 146.677023 826.052575 
z
" clip-path="url(#p474a861bce)" style="fill: #1f77b4; opacity: 0.6"/>
   </g>
   <g id="patch_5">
    <path d="M 159.008974 828.779375 
L 171.340926 828.779375 
L 171.340926 821.962376 
L 159.008974 821.962376 
z
" clip-path="url(#p474a861bce)" style="fill: #1f77b4; opacity: 0.6"/>
   </g>
   <g id="patch_6">
    <path d="M 171.340926 828.779375 
L 183.672878 828.779375 
L 183.672878 815.599843 
L 171.340926 815.599843 
z
" clip-path="url(#p474a861bce)" style="fill: #1f77b4; opacity: 0.6"/>
   </g>
   <g id="patch_7">
    <path d="M 183.672878 828.779375 
L 196.00483 828.779375 
L 196.00483 804.238177 
L 183.672878 804.238177 
z
" clip-path="url(#p474a861bce)" style="fill: #1f77b4; opacity: 0.6"/>
   </g>
   <g id="patch_8">
    <path d="M 196.00483 828.779375 
L 208.336781 828.779375 
L 208.336781 807.419444 
L 196.00483 807.419444 
z
" clip-path="url(#p474a861bce)" style="fill: #1f77b4; opacity: 0.6"/>
   </g>
   <g id="patch_9">
    <path d="M 208.336781 828.779375 
L 220.668733 828.779375 
L 220.668733 780.151447 
L 208.336781 780.151447 
z
" clip-path="url(#p474a861bce)" style="fill: #1f77b4; opacity: 0.6"/>
   </g>
   <g id="patch_10">
    <path d="M 220.668733 828.779375 
L 233.000685 828.779375 
L 233.000685 764.699581 
L 220.668733 764.699581 
z
" clip-path="url(#p474a861bce)" style="fill: #1f77b4; opacity: 0.6"/>
   </g>
   <g id="patch_11">
    <path d="M 233.000685 828.779375 
L 245.332636 828.779375 
L 245.332636 739.703917 
L 233.000685 739.703917 
z
" clip-path="url(#p474a861bce)" style="fill: #1f77b4; opacity: 0.6"/>
   </g>
   <g id="patch_12">
    <path d="M 245.332636 828.779375 
L 257.664588 828.779375 
L 257.664588 724.252052 
L 245.332636 724.252052 
z
" clip-path="url(#p474a861bce)" style="fill: #1f77b4; opacity: 0.6"/>
   </g>
   <g id="patch_13">
    <path d="M 257.664588 828.779375 
L 269.99654 828.779375 
L 269.99654 676.07859 
L 257.664588 676.07859 
z
" clip-path="url(#p474a861bce)" style="fill: #1f77b4; opacity: 0.6"/>
   </g>
   <g id="patch_14">
    <path d="M 269.99654 828.779375 
L 282.328491 828.779375 
L 282.328491 666.080325 
L 269.99654 666.080325 
z
" clip-path="url(#p474a861bce)" style="fill: #1f77b4; opacity: 0.6"/>
   </g>
   <g id="patch_15">
    <path d="M 282.328491 828.779375 
L 294.660443 828.779375 
L 294.660443 603.818398 
L 282.328491 603.818398 
z
" clip-path="url(#p474a861bce)" style="fill: #1f77b4; opacity: 0.6"/>
   </g>
   <g id="patch_16">
    <path d="M 294.660443 828.779375 
L 306.992395 828.779375 
L 306.992395 577.004867 
L 294.660443 577.004867 
z
" clip-path="url(#p474a861bce)" style="fill: #1f77b4; opacity: 0.6"/>
   </g>
   <g id="patch_17">
    <path d="M 306.992395 828.779375 
L 319.324347 828.779375 
L 319.324347 542.010937 
L 306.992395 542.010937 
z
" clip-path="url(#p474a861bce)" style="fill: #1f77b4; opacity: 0.6"/>
   </g>
   <g id="patch_18">
    <path d="M 319.324347 828.779375 
L 331.656298 828.779375 
L 331.656298 490.201743 
L 319.324347 490.201743 
z
" clip-path="url(#p474a861bce)" style="fill: #1f77b4; opacity: 0.6"/>
   </g>
   <g id="patch_19">
    <path d="M 331.656298 828.779375 
L 343.98825 828.779375 
L 343.98825 467.023945 
L 331.656298 467.023945 
z
" clip-path="url(#p474a861bce)" style="fill: #1f77b4; opacity: 0.6"/>
   </g>
   <g id="patch_20">
    <path d="M 343.98825 828.779375 
L 356.320202 828.779375 
L 356.320202 413.396884 
L 343.98825 413.396884 
z
" clip-path="url(#p474a861bce)" style="fill: #1f77b4; opacity: 0.6"/>
   </g>
   <g id="patch_21">
    <path d="M 356.320202 828.779375 
L 368.652153 828.779375 
L 368.652153 360.678756 
L 356.320202 360.678756 
z
" clip-path="url(#p474a861bce)" style="fill: #1f77b4; opacity: 0.6"/>
   </g>
   <g id="patch_22">
    <path d="M 368.652153 828.779375 
L 380.984105 828.779375 
L 380.984105 335.228625 
L 368.652153 335.228625 
z
" clip-path="url(#p474a861bce)" style="fill: #1f77b4; opacity: 0.6"/>
   </g>
   <g id="patch_23">
    <path d="M 380.984105 828.779375 
L 393.316057 828.779375 
L 393.316057 268.422032 
L 380.984105 268.422032 
z
" clip-path="url(#p474a861bce)" style="fill: #1f77b4; opacity: 0.6"/>
   </g>
   <g id="patch_24">
    <path d="M 393.316057 828.779375 
L 405.648009 828.779375 
L 405.648009 258.423766 
L 393.316057 258.423766 
z
" clip-path="url(#p474a861bce)" style="fill: #1f77b4; opacity: 0.6"/>
   </g>
   <g id="patch_25">
    <path d="M 405.648009 828.779375 
L 417.97996 828.779375 
L 417.97996 217.976237 
L 405.648009 217.976237 
z
" clip-path="url(#p474a861bce)" style="fill: #1f77b4; opacity: 0.6"/>
   </g>
   <g id="patch_26">
    <path d="M 417.97996 828.779375 
L 430.311912 828.779375 
L 430.311912 236.609368 
L 417.97996 236.609368 
z
" clip-path="url(#p474a861bce)" style="fill: #1f77b4; opacity: 0.6"/>
   </g>
   <g id="patch_27">
    <path d="M 430.311912 828.779375 
L 442.643864 828.779375 
L 442.643864 197.070772 
L 430.311912 197.070772 
z
" clip-path="url(#p474a861bce)" style="fill: #1f77b4; opacity: 0.6"/>
   </g>
   <g id="patch_28">
    <path d="M 442.643864 828.779375 
L 454.975815 828.779375 
L 454.975815 122.538246 
L 442.643864 122.538246 
z
" clip-path="url(#p474a861bce)" style="fill: #1f77b4; opacity: 0.6"/>
   </g>
   <g id="patch_29">
    <path d="M 454.975815 828.779375 
L 467.307767 828.779375 
L 467.307767 152.078577 
L 454.975815 152.078577 
z
" clip-path="url(#p474a861bce)" style="fill: #1f77b4; opacity: 0.6"/>
   </g>
   <g id="patch_30">
    <path d="M 467.307767 828.779375 
L 479.639719 828.779375 
L 479.639719 129.809712 
L 467.307767 129.809712 
z
" clip-path="url(#p474a861bce)" style="fill: #1f77b4; opacity: 0.6"/>
   </g>
   <g id="patch_31">
    <path d="M 479.639719 828.779375 
L 491.97167 828.779375 
L 491.97167 109.358714 
L 479.639719 109.358714 
z
" clip-path="url(#p474a861bce)" style="fill: #1f77b4; opacity: 0.6"/>
   </g>
   <g id="patch_32">
    <path d="M 491.97167 828.779375 
L 504.303622 828.779375 
L 504.303622 85.271984 
L 491.97167 85.271984 
z
" clip-path="url(#p474a861bce)" style="fill: #1f77b4; opacity: 0.6"/>
   </g>
   <g id="patch_33">
    <path d="M 504.303622 828.779375 
L 516.635574 828.779375 
L 516.635574 97.088116 
L 504.303622 97.088116 
z
" clip-path="url(#p474a861bce)" style="fill: #1f77b4; opacity: 0.6"/>
   </g>
   <g id="patch_34">
    <path d="M 516.635574 828.779375 
L 528.967526 828.779375 
L 528.967526 75.728185 
L 516.635574 75.728185 
z
" clip-path="url(#p474a861bce)" style="fill: #1f77b4; opacity: 0.6"/>
   </g>
   <g id="patch_35">
    <path d="M 528.967526 828.779375 
L 541.299477 828.779375 
L 541.299477 125.719513 
L 528.967526 125.719513 
z
" clip-path="url(#p474a861bce)" style="fill: #1f77b4; opacity: 0.6"/>
   </g>
   <g id="patch_36">
    <path d="M 541.299477 828.779375 
L 553.631429 828.779375 
L 553.631429 128.900779 
L 541.299477 128.900779 
z
" clip-path="url(#p474a861bce)" style="fill: #1f77b4; opacity: 0.6"/>
   </g>
   <g id="patch_37">
    <path d="M 553.631429 828.779375 
L 565.963381 828.779375 
L 565.963381 149.806244 
L 553.631429 149.806244 
z
" clip-path="url(#p474a861bce)" style="fill: #1f77b4; opacity: 0.6"/>
   </g>
   <g id="patch_38">
    <path d="M 565.963381 828.779375 
L 578.295332 828.779375 
L 578.295332 188.435906 
L 565.963381 188.435906 
z
" clip-path="url(#p474a861bce)" style="fill: #1f77b4; opacity: 0.6"/>
   </g>
   <g id="patch_39">
    <path d="M 578.295332 828.779375 
L 590.627284 828.779375 
L 590.627284 187.526973 
L 578.295332 187.526973 
z
" clip-path="url(#p474a861bce)" style="fill: #1f77b4; opacity: 0.6"/>
   </g>
   <g id="patch_40">
    <path d="M 590.627284 828.779375 
L 602.959236 828.779375 
L 602.959236 187.072507 
L 590.627284 187.072507 
z
" clip-path="url(#p474a861bce)" style="fill: #1f77b4; opacity: 0.6"/>
   </g>
   <g id="patch_41">
    <path d="M 602.959236 828.779375 
L 615.291187 828.779375 
L 615.291187 226.611103 
L 602.959236 226.611103 
z
" clip-path="url(#p474a861bce)" style="fill: #1f77b4; opacity: 0.6"/>
   </g>
   <g id="patch_42">
    <path d="M 615.291188 828.779375 
L 627.623139 828.779375 
L 627.623139 292.963229 
L 615.291188 292.963229 
z
" clip-path="url(#p474a861bce)" style="fill: #1f77b4; opacity: 0.6"/>
   </g>
   <g id="patch_43">
    <path d="M 627.623139 828.779375 
L 639.955091 828.779375 
L 639.955091 281.147097 
L 627.623139 281.147097 
z
" clip-path="url(#p474a861bce)" style="fill: #1f77b4; opacity: 0.6"/>
   </g>
   <g id="patch_44">
    <path d="M 639.955091 828.779375 
L 652.287043 828.779375 
L 652.287043 349.31709 
L 639.955091 349.31709 
z
" clip-path="url(#p474a861bce)" style="fill: #1f77b4; opacity: 0.6"/>
   </g>
   <g id="patch_45">
    <path d="M 652.287043 828.779375 
L 664.618994 828.779375 
L 664.618994 327.048226 
L 652.287043 327.048226 
z
" clip-path="url(#p474a861bce)" style="fill: #1f77b4; opacity: 0.6"/>
   </g>
   <g id="patch_46">
    <path d="M 664.618994 828.779375 
L 676.950946 828.779375 
L 676.950946 388.855686 
L 664.618994 388.855686 
z
" clip-path="url(#p474a861bce)" style="fill: #1f77b4; opacity: 0.6"/>
   </g>
   <g id="patch_47">
    <path d="M 676.950946 828.779375 
L 689.282898 828.779375 
L 689.282898 411.579017 
L 676.950946 411.579017 
z
" clip-path="url(#p474a861bce)" style="fill: #1f77b4; opacity: 0.6"/>
   </g>
   <g id="patch_48">
    <path d="M 689.282898 828.779375 
L 701.614849 828.779375 
L 701.614849 458.843546 
L 689.282898 458.843546 
z
" clip-path="url(#p474a861bce)" style="fill: #1f77b4; opacity: 0.6"/>
   </g>
   <g id="patch_49">
    <path d="M 701.614849 828.779375 
L 713.946801 828.779375 
L 713.946801 453.389946 
L 701.614849 453.389946 
z
" clip-path="url(#p474a861bce)" style="fill: #1f77b4; opacity: 0.6"/>
   </g>
   <g id="patch_50">
    <path d="M 713.946801 828.779375 
L 726.278753 828.779375 
L 726.278753 523.377806 
L 713.946801 523.377806 
z
" clip-path="url(#p474a861bce)" style="fill: #1f77b4; opacity: 0.6"/>
   </g>
   <g id="patch_51">
    <path d="M 726.278753 828.779375 
L 738.610705 828.779375 
L 738.610705 539.284138 
L 726.278753 539.284138 
z
" clip-path="url(#p474a861bce)" style="fill: #1f77b4; opacity: 0.6"/>
   </g>
   <g id="patch_52">
    <path d="M 738.610705 828.779375 
L 750.942656 828.779375 
L 750.942656 567.915535 
L 738.610705 567.915535 
z
" clip-path="url(#p474a861bce)" style="fill: #1f77b4; opacity: 0.6"/>
   </g>
   <g id="patch_53">
    <path d="M 750.942656 828.779375 
L 763.274608 828.779375 
L 763.274608 562.461935 
L 750.942656 562.461935 
z
" clip-path="url(#p474a861bce)" style="fill: #1f77b4; opacity: 0.6"/>
   </g>
   <g id="patch_54">
    <path d="M 763.274608 828.779375 
L 775.60656 828.779375 
L 775.60656 625.632796 
L 763.274608 625.632796 
z
" clip-path="url(#p474a861bce)" style="fill: #1f77b4; opacity: 0.6"/>
   </g>
   <g id="patch_55">
    <path d="M 775.60656 828.779375 
L 787.938511 828.779375 
L 787.938511 631.995328 
L 775.60656 631.995328 
z
" clip-path="url(#p474a861bce)" style="fill: #1f77b4; opacity: 0.6"/>
   </g>
   <g id="patch_56">
    <path d="M 787.938511 828.779375 
L 800.270463 828.779375 
L 800.270463 644.720394 
L 787.938511 644.720394 
z
" clip-path="url(#p474a861bce)" style="fill: #1f77b4; opacity: 0.6"/>
   </g>
   <g id="patch_57">
    <path d="M 800.270463 828.779375 
L 812.602415 828.779375 
L 812.602415 680.16879 
L 800.270463 680.16879 
z
" clip-path="url(#p474a861bce)" style="fill: #1f77b4; opacity: 0.6"/>
   </g>
   <g id="patch_58">
    <path d="M 812.602415 828.779375 
L 824.934366 828.779375 
L 824.934366 681.53219 
L 812.602415 681.53219 
z
" clip-path="url(#p474a861bce)" style="fill: #1f77b4; opacity: 0.6"/>
   </g>
   <g id="patch_59">
    <path d="M 824.934366 828.779375 
L 837.266318 828.779375 
L 837.266318 709.254654 
L 824.934366 709.254654 
z
" clip-path="url(#p474a861bce)" style="fill: #1f77b4; opacity: 0.6"/>
   </g>
   <g id="patch_60">
    <path d="M 837.266318 828.779375 
L 849.59827 828.779375 
L 849.59827 709.254654 
L 837.266318 709.254654 
z
" clip-path="url(#p474a861bce)" style="fill: #1f77b4; opacity: 0.6"/>
   </g>
   <g id="patch_61">
    <path d="M 849.59827 828.779375 
L 861.930222 828.779375 
L 861.930222 731.523518 
L 849.59827 731.523518 
z
" clip-path="url(#p474a861bce)" style="fill: #1f77b4; opacity: 0.6"/>
   </g>
   <g id="patch_62">
    <path d="M 861.930222 828.779375 
L 874.262173 828.779375 
L 874.262173 747.884317 
L 861.930222 747.884317 
z
" clip-path="url(#p474a861bce)" style="fill: #1f77b4; opacity: 0.6"/>
   </g>
   <g id="patch_63">
    <path d="M 874.262173 828.779375 
L 886.594125 828.779375 
L 886.594125 760.609382 
L 874.262173 760.609382 
z
" clip-path="url(#p474a861bce)" style="fill: #1f77b4; opacity: 0.6"/>
   </g>
   <g id="patch_64">
    <path d="M 886.594125 828.779375 
L 898.926077 828.779375 
L 898.926077 760.154915 
L 886.594125 760.154915 
z
" clip-path="url(#p474a861bce)" style="fill: #1f77b4; opacity: 0.6"/>
   </g>
   <g id="patch_65">
    <path d="M 898.926077 828.779375 
L 911.258028 828.779375 
L 911.258028 773.334447 
L 898.926077 773.334447 
z
" clip-path="url(#p474a861bce)" style="fill: #1f77b4; opacity: 0.6"/>
   </g>
   <g id="patch_66">
    <path d="M 911.258028 828.779375 
L 923.58998 828.779375 
L 923.58998 781.06038 
L 911.258028 781.06038 
z
" clip-path="url(#p474a861bce)" style="fill: #1f77b4; opacity: 0.6"/>
   </g>
   <g id="patch_67">
    <path d="M 923.58998 828.779375 
L 935.921932 828.779375 
L 935.921932 789.240779 
L 923.58998 789.240779 
z
" clip-path="url(#p474a861bce)" style="fill: #1f77b4; opacity: 0.6"/>
   </g>
   <g id="patch_68">
    <path d="M 935.921932 828.779375 
L 948.253884 828.779375 
L 948.253884 792.422045 
L 935.921932 792.422045 
z
" clip-path="url(#p474a861bce)" style="fill: #1f77b4; opacity: 0.6"/>
   </g>
   <g id="patch_69">
    <path d="M 948.253884 828.779375 
L 960.585835 828.779375 
L 960.585835 799.693511 
L 948.253884 799.693511 
z
" clip-path="url(#p474a861bce)" style="fill: #1f77b4; opacity: 0.6"/>
   </g>
   <g id="patch_70">
    <path d="M 960.585835 828.779375 
L 972.917787 828.779375 
L 972.917787 802.874778 
L 960.585835 802.874778 
z
" clip-path="url(#p474a861bce)" style="fill: #1f77b4; opacity: 0.6"/>
   </g>
   <g id="patch_71">
    <path d="M 972.917787 828.779375 
L 985.249739 828.779375 
L 985.249739 806.964977 
L 972.917787 806.964977 
z
" clip-path="url(#p474a861bce)" style="fill: #1f77b4; opacity: 0.6"/>
   </g>
   <g id="patch_72">
    <path d="M 985.249739 828.779375 
L 997.58169 828.779375 
L 997.58169 806.510511 
L 985.249739 806.510511 
z
" clip-path="url(#p474a861bce)" style="fill: #1f77b4; opacity: 0.6"/>
   </g>
   <g id="patch_73">
    <path d="M 997.58169 828.779375 
L 1009.913642 828.779375 
L 1009.913642 816.508776 
L 997.58169 816.508776 
z
" clip-path="url(#p474a861bce)" style="fill: #1f77b4; opacity: 0.6"/>
   </g>
   <g id="patch_74">
    <path d="M 1009.913642 828.779375 
L 1022.245594 828.779375 
L 1022.245594 818.781109 
L 1009.913642 818.781109 
z
" clip-path="url(#p474a861bce)" style="fill: #1f77b4; opacity: 0.6"/>
   </g>
   <g id="patch_75">
    <path d="M 1022.245594 828.779375 
L 1034.577545 828.779375 
L 1034.577545 813.32751 
L 1022.245594 813.32751 
z
" clip-path="url(#p474a861bce)" style="fill: #1f77b4; opacity: 0.6"/>
   </g>
   <g id="patch_76">
    <path d="M 1034.577545 828.779375 
L 1046.909497 828.779375 
L 1046.909497 821.507909 
L 1034.577545 821.507909 
z
" clip-path="url(#p474a861bce)" style="fill: #1f77b4; opacity: 0.6"/>
   </g>
   <g id="patch_77">
    <path d="M 1046.909497 828.779375 
L 1059.241449 828.779375 
L 1059.241449 821.962376 
L 1046.909497 821.962376 
z
" clip-path="url(#p474a861bce)" style="fill: #1f77b4; opacity: 0.6"/>
   </g>
   <g id="patch_78">
    <path d="M 1059.241449 828.779375 
L 1071.573401 828.779375 
L 1071.573401 821.962376 
L 1059.241449 821.962376 
z
" clip-path="url(#p474a861bce)" style="fill: #1f77b4; opacity: 0.6"/>
   </g>
   <g id="patch_79">
    <path d="M 1071.573401 828.779375 
L 1083.905352 828.779375 
L 1083.905352 823.780242 
L 1071.573401 823.780242 
z
" clip-path="url(#p474a861bce)" style="fill: #1f77b4; opacity: 0.6"/>
   </g>
   <g id="patch_80">
    <path d="M 1083.905352 828.779375 
L 1096.237304 828.779375 
L 1096.237304 825.143642 
L 1083.905352 825.143642 
z
" clip-path="url(#p474a861bce)" style="fill: #1f77b4; opacity: 0.6"/>
   </g>
   <g id="patch_81">
    <path d="M 1096.237304 828.779375 
L 1108.569256 828.779375 
L 1108.569256 826.961509 
L 1096.237304 826.961509 
z
" clip-path="url(#p474a861bce)" style="fill: #1f77b4; opacity: 0.6"/>
   </g>
   <g id="patch_82">
    <path d="M 1108.569256 828.779375 
L 1120.901207 828.779375 
L 1120.901207 824.234709 
L 1108.569256 824.234709 
z
" clip-path="url(#p474a861bce)" style="fill: #1f77b4; opacity: 0.6"/>
   </g>
   <g id="patch_83">
    <path d="M 1120.901207 828.779375 
L 1133.233159 828.779375 
L 1133.233159 826.961509 
L 1120.901207 826.961509 
z
" clip-path="url(#p474a861bce)" style="fill: #1f77b4; opacity: 0.6"/>
   </g>
   <g id="patch_84">
    <path d="M 1133.233159 828.779375 
L 1145.565111 828.779375 
L 1145.565111 826.961509 
L 1133.233159 826.961509 
z
" clip-path="url(#p474a861bce)" style="fill: #1f77b4; opacity: 0.6"/>
   </g>
   <g id="patch_85">
    <path d="M 1145.565111 828.779375 
L 1157.897062 828.779375 
L 1157.897062 827.870442 
L 1145.565111 827.870442 
z
" clip-path="url(#p474a861bce)" style="fill: #1f77b4; opacity: 0.6"/>
   </g>
   <g id="patch_86">
    <path d="M 1157.897062 828.779375 
L 1170.229014 828.779375 
L 1170.229014 827.870442 
L 1157.897062 827.870442 
z
" clip-path="url(#p474a861bce)" style="fill: #1f77b4; opacity: 0.6"/>
   </g>
   <g id="patch_87">
    <path d="M 1170.229014 828.779375 
L 1182.560966 828.779375 
L 1182.560966 826.507042 
L 1170.229014 826.507042 
z
" clip-path="url(#p474a861bce)" style="fill: #1f77b4; opacity: 0.6"/>
   </g>
   <g id="patch_88">
    <path d="M 1182.560966 828.779375 
L 1194.892918 828.779375 
L 1194.892918 827.415975 
L 1182.560966 827.415975 
z
" clip-path="url(#p474a861bce)" style="fill: #1f77b4; opacity: 0.6"/>
   </g>
   <g id="patch_89">
    <path d="M 1194.892918 828.779375 
L 1207.224869 828.779375 
L 1207.224869 827.870442 
L 1194.892918 827.870442 
z
" clip-path="url(#p474a861bce)" style="fill: #1f77b4; opacity: 0.6"/>
   </g>
   <g id="patch_90">
    <path d="M 1207.224869 828.779375 
L 1219.556821 828.779375 
L 1219.556821 828.324908 
L 1207.224869 828.324908 
z
" clip-path="url(#p474a861bce)" style="fill: #1f77b4; opacity: 0.6"/>
   </g>
   <g id="patch_91">
    <path d="M 1219.556821 828.779375 
L 1231.888773 828.779375 
L 1231.888773 828.779375 
L 1219.556821 828.779375 
z
" clip-path="url(#p474a861bce)" style="fill: #1f77b4; opacity: 0.6"/>
   </g>
   <g id="patch_92">
    <path d="M 1231.888773 828.779375 
L 1244.220724 828.779375 
L 1244.220724 828.324908 
L 1231.888773 828.324908 
z
" clip-path="url(#p474a861bce)" style="fill: #1f77b4; opacity: 0.6"/>
   </g>
   <g id="patch_93">
    <path d="M 1244.220724 828.779375 
L 1256.552676 828.779375 
L 1256.552676 828.779375 
L 1244.220724 828.779375 
z
" clip-path="url(#p474a861bce)" style="fill: #1f77b4; opacity: 0.6"/>
   </g>
   <g id="patch_94">
    <path d="M 1256.552676 828.779375 
L 1268.884628 828.779375 
L 1268.884628 827.870442 
L 1256.552676 827.870442 
z
" clip-path="url(#p474a861bce)" style="fill: #1f77b4; opacity: 0.6"/>
   </g>
   <g id="patch_95">
    <path d="M 1268.884628 828.779375 
L 1281.21658 828.779375 
L 1281.21658 828.779375 
L 1268.884628 828.779375 
z
" clip-path="url(#p474a861bce)" style="fill: #1f77b4; opacity: 0.6"/>
   </g>
   <g id="patch_96">
    <path d="M 1281.21658 828.779375 
L 1293.548531 828.779375 
L 1293.548531 828.324908 
L 1281.21658 828.324908 
z
" clip-path="url(#p474a861bce)" style="fill: #1f77b4; opacity: 0.6"/>
   </g>
   <g id="patch_97">
    <path d="M 1293.548531 828.779375 
L 1305.880483 828.779375 
L 1305.880483 828.779375 
L 1293.548531 828.779375 
z
" clip-path="url(#p474a861bce)" style="fill: #1f77b4; opacity: 0.6"/>
   </g>
   <g id="patch_98">
    <path d="M 1305.880483 828.779375 
L 1318.212435 828.779375 
L 1318.212435 828.779375 
L 1305.880483 828.779375 
z
" clip-path="url(#p474a861bce)" style="fill: #1f77b4; opacity: 0.6"/>
   </g>
   <g id="patch_99">
    <path d="M 1318.212435 828.779375 
L 1330.544386 828.779375 
L 1330.544386 828.324908 
L 1318.212435 828.324908 
z
" clip-path="url(#p474a861bce)" style="fill: #1f77b4; opacity: 0.6"/>
   </g>
   <g id="patch_100">
    <path d="M 1330.544386 828.779375 
L 1342.876338 828.779375 
L 1342.876338 828.779375 
L 1330.544386 828.779375 
z
" clip-path="url(#p474a861bce)" style="fill: #1f77b4; opacity: 0.6"/>
   </g>
   <g id="patch_101">
    <path d="M 1342.876338 828.779375 
L 1355.20829 828.779375 
L 1355.20829 828.779375 
L 1342.876338 828.779375 
z
" clip-path="url(#p474a861bce)" style="fill: #1f77b4; opacity: 0.6"/>
   </g>
   <g id="patch_102">
    <path d="M 1355.20829 828.779375 
L 1367.540241 828.779375 
L 1367.540241 828.324908 
L 1355.20829 828.324908 
z
" clip-path="url(#p474a861bce)" style="fill: #1f77b4; opacity: 0.6"/>
   </g>
   <g id="matplotlib.axis_1">
    <g id="xtick_1">
     <g id="line2d_1">
      <defs>
       <path id="m4baca1b043" d="M 0 0 
L 0 3.5 
" style="stroke: #000000; stroke-width: 0.8"/>
      </defs>
      <g>
       <use xlink:href="#m4baca1b043" x="116.546093" y="828.779375" style="stroke: #000000; stroke-width: 0.8"/>
      </g>
     </g>
     <g id="text_1">
      <!-- 0 -->
      <g transform="translate(110.819843 849.456563)scale(0.18 -0.18)">
       <defs>
        <path id="DejaVuSans-30" d="M 2034 4250 
Q 1547 4250 1301 3770 
Q 1056 3291 1056 2328 
Q 1056 1369 1301 889 
Q 1547 409 2034 409 
Q 2525 409 2770 889 
Q 3016 1369 3016 2328 
Q 3016 3291 2770 3770 
Q 2525 4250 2034 4250 
z
M 2034 4750 
Q 2819 4750 3233 4129 
Q 3647 3509 3647 2328 
Q 3647 1150 3233 529 
Q 2819 -91 2034 -91 
Q 1250 -91 836 529 
Q 422 1150 422 2328 
Q 422 3509 836 4129 
Q 1250 4750 2034 4750 
z
" transform="scale(0.015625)"/>
       </defs>
       <use xlink:href="#DejaVuSans-30"/>
      </g>
     </g>
    </g>
    <g id="xtick_2">
     <g id="line2d_2">
      <g>
       <use xlink:href="#m4baca1b043" x="340.652637" y="828.779375" style="stroke: #000000; stroke-width: 0.8"/>
      </g>
     </g>
     <g id="text_2">
      <!-- 1 -->
      <g transform="translate(334.926387 849.456563)scale(0.18 -0.18)">
       <defs>
        <path id="DejaVuSans-31" d="M 794 531 
L 1825 531 
L 1825 4091 
L 703 3866 
L 703 4441 
L 1819 4666 
L 2450 4666 
L 2450 531 
L 3481 531 
L 3481 0 
L 794 0 
L 794 531 
z
" transform="scale(0.015625)"/>
       </defs>
       <use xlink:href="#DejaVuSans-31"/>
      </g>
     </g>
    </g>
    <g id="xtick_3">
     <g id="line2d_3">
      <g>
       <use xlink:href="#m4baca1b043" x="564.75918" y="828.779375" style="stroke: #000000; stroke-width: 0.8"/>
      </g>
     </g>
     <g id="text_3">
      <!-- 2 -->
      <g transform="translate(559.03293 849.456563)scale(0.18 -0.18)">
       <defs>
        <path id="DejaVuSans-32" d="M 1228 531 
L 3431 531 
L 3431 0 
L 469 0 
L 469 531 
Q 828 903 1448 1529 
Q 2069 2156 2228 2338 
Q 2531 2678 2651 2914 
Q 2772 3150 2772 3378 
Q 2772 3750 2511 3984 
Q 2250 4219 1831 4219 
Q 1534 4219 1204 4116 
Q 875 4013 500 3803 
L 500 4441 
Q 881 4594 1212 4672 
Q 1544 4750 1819 4750 
Q 2544 4750 2975 4387 
Q 3406 4025 3406 3419 
Q 3406 3131 3298 2873 
Q 3191 2616 2906 2266 
Q 2828 2175 2409 1742 
Q 1991 1309 1228 531 
z
" transform="scale(0.015625)"/>
       </defs>
       <use xlink:href="#DejaVuSans-32"/>
      </g>
     </g>
    </g>
    <g id="xtick_4">
     <g id="line2d_4">
      <g>
       <use xlink:href="#m4baca1b043" x="788.865724" y="828.779375" style="stroke: #000000; stroke-width: 0.8"/>
      </g>
     </g>
     <g id="text_4">
      <!-- 3 -->
      <g transform="translate(783.139474 849.456563)scale(0.18 -0.18)">
       <defs>
        <path id="DejaVuSans-33" d="M 2597 2516 
Q 3050 2419 3304 2112 
Q 3559 1806 3559 1356 
Q 3559 666 3084 287 
Q 2609 -91 1734 -91 
Q 1441 -91 1130 -33 
Q 819 25 488 141 
L 488 750 
Q 750 597 1062 519 
Q 1375 441 1716 441 
Q 2309 441 2620 675 
Q 2931 909 2931 1356 
Q 2931 1769 2642 2001 
Q 2353 2234 1838 2234 
L 1294 2234 
L 1294 2753 
L 1863 2753 
Q 2328 2753 2575 2939 
Q 2822 3125 2822 3475 
Q 2822 3834 2567 4026 
Q 2313 4219 1838 4219 
Q 1578 4219 1281 4162 
Q 984 4106 628 3988 
L 628 4550 
Q 988 4650 1302 4700 
Q 1616 4750 1894 4750 
Q 2613 4750 3031 4423 
Q 3450 4097 3450 3541 
Q 3450 3153 3228 2886 
Q 3006 2619 2597 2516 
z
" transform="scale(0.015625)"/>
       </defs>
       <use xlink:href="#DejaVuSans-33"/>
      </g>
     </g>
    </g>
    <g id="xtick_5">
     <g id="line2d_5">
      <g>
       <use xlink:href="#m4baca1b043" x="1012.972268" y="828.779375" style="stroke: #000000; stroke-width: 0.8"/>
      </g>
     </g>
     <g id="text_5">
      <!-- 4 -->
      <g transform="translate(1007.246018 849.456563)scale(0.18 -0.18)">
       <defs>
        <path id="DejaVuSans-34" d="M 2419 4116 
L 825 1625 
L 2419 1625 
L 2419 4116 
z
M 2253 4666 
L 3047 4666 
L 3047 1625 
L 3713 1625 
L 3713 1100 
L 3047 1100 
L 3047 0 
L 2419 0 
L 2419 1100 
L 313 1100 
L 313 1709 
L 2253 4666 
z
" transform="scale(0.015625)"/>
       </defs>
       <use xlink:href="#DejaVuSans-34"/>
      </g>
     </g>
    </g>
    <g id="xtick_6">
     <g id="line2d_6">
      <g>
       <use xlink:href="#m4baca1b043" x="1237.078812" y="828.779375" style="stroke: #000000; stroke-width: 0.8"/>
      </g>
     </g>
     <g id="text_6">
      <!-- 5 -->
      <g transform="translate(1231.352562 849.456563)scale(0.18 -0.18)">
       <defs>
        <path id="DejaVuSans-35" d="M 691 4666 
L 3169 4666 
L 3169 4134 
L 1269 4134 
L 1269 2991 
Q 1406 3038 1543 3061 
Q 1681 3084 1819 3084 
Q 2600 3084 3056 2656 
Q 3513 2228 3513 1497 
Q 3513 744 3044 326 
Q 2575 -91 1722 -91 
Q 1428 -91 1123 -41 
Q 819 9 494 109 
L 494 744 
Q 775 591 1075 516 
Q 1375 441 1709 441 
Q 2250 441 2565 725 
Q 2881 1009 2881 1497 
Q 2881 1984 2565 2268 
Q 2250 2553 1709 2553 
Q 1456 2553 1204 2497 
Q 953 2441 691 2322 
L 691 4666 
z
" transform="scale(0.015625)"/>
       </defs>
       <use xlink:href="#DejaVuSans-35"/>
      </g>
     </g>
    </g>
   </g>
   <g id="matplotlib.axis_2">
    <g id="ytick_1">
     <g id="line2d_7">
      <defs>
       <path id="m1c057dbe25" d="M 0 0 
L -3.5 0 
" style="stroke: #000000; stroke-width: 0.8"/>
      </defs>
      <g>
       <use xlink:href="#m1c057dbe25" x="72.685313" y="828.779375" style="stroke: #000000; stroke-width: 0.8"/>
      </g>
     </g>
     <g id="text_7">
      <!-- 0.0 -->
      <g transform="translate(37.059688 835.617969)scale(0.18 -0.18)">
       <defs>
        <path id="DejaVuSans-2e" d="M 684 794 
L 1344 794 
L 1344 0 
L 684 0 
L 684 794 
z
" transform="scale(0.015625)"/>
       </defs>
       <use xlink:href="#DejaVuSans-30"/>
       <use xlink:href="#DejaVuSans-2e" x="63.623047"/>
       <use xlink:href="#DejaVuSans-30" x="95.410156"/>
      </g>
     </g>
    </g>
    <g id="ytick_2">
     <g id="line2d_8">
      <g>
       <use xlink:href="#m1c057dbe25" x="72.685313" y="703.739286" style="stroke: #000000; stroke-width: 0.8"/>
      </g>
     </g>
     <g id="text_8">
      <!-- 0.1 -->
      <g transform="translate(37.059688 710.57788)scale(0.18 -0.18)">
       <use xlink:href="#DejaVuSans-30"/>
       <use xlink:href="#DejaVuSans-2e" x="63.623047"/>
       <use xlink:href="#DejaVuSans-31" x="95.410156"/>
      </g>
     </g>
    </g>
    <g id="ytick_3">
     <g id="line2d_9">
      <g>
       <use xlink:href="#m1c057dbe25" x="72.685313" y="578.699198" style="stroke: #000000; stroke-width: 0.8"/>
      </g>
     </g>
     <g id="text_9">
      <!-- 0.2 -->
      <g transform="translate(37.059688 585.537792)scale(0.18 -0.18)">
       <use xlink:href="#DejaVuSans-30"/>
       <use xlink:href="#DejaVuSans-2e" x="63.623047"/>
       <use xlink:href="#DejaVuSans-32" x="95.410156"/>
      </g>
     </g>
    </g>
    <g id="ytick_4">
     <g id="line2d_10">
      <g>
       <use xlink:href="#m1c057dbe25" x="72.685313" y="453.659109" style="stroke: #000000; stroke-width: 0.8"/>
      </g>
     </g>
     <g id="text_10">
      <!-- 0.3 -->
      <g transform="translate(37.059688 460.497703)scale(0.18 -0.18)">
       <use xlink:href="#DejaVuSans-30"/>
       <use xlink:href="#DejaVuSans-2e" x="63.623047"/>
       <use xlink:href="#DejaVuSans-33" x="95.410156"/>
      </g>
     </g>
    </g>
    <g id="ytick_5">
     <g id="line2d_11">
      <g>
       <use xlink:href="#m1c057dbe25" x="72.685313" y="328.619021" style="stroke: #000000; stroke-width: 0.8"/>
      </g>
     </g>
     <g id="text_11">
      <!-- 0.4 -->
      <g transform="translate(37.059688 335.457615)scale(0.18 -0.18)">
       <use xlink:href="#DejaVuSans-30"/>
       <use xlink:href="#DejaVuSans-2e" x="63.623047"/>
       <use xlink:href="#DejaVuSans-34" x="95.410156"/>
      </g>
     </g>
    </g>
    <g id="ytick_6">
     <g id="line2d_12">
      <g>
       <use xlink:href="#m1c057dbe25" x="72.685313" y="203.578932" style="stroke: #000000; stroke-width: 0.8"/>
      </g>
     </g>
     <g id="text_12">
      <!-- 0.5 -->
      <g transform="translate(37.059688 210.417526)scale(0.18 -0.18)">
       <use xlink:href="#DejaVuSans-30"/>
       <use xlink:href="#DejaVuSans-2e" x="63.623047"/>
       <use xlink:href="#DejaVuSans-35" x="95.410156"/>
      </g>
     </g>
    </g>
    <g id="ytick_7">
     <g id="line2d_13">
      <g>
       <use xlink:href="#m1c057dbe25" x="72.685313" y="78.538844" style="stroke: #000000; stroke-width: 0.8"/>
      </g>
     </g>
     <g id="text_13">
      <!-- 0.6 -->
      <g transform="translate(37.059688 85.377437)scale(0.18 -0.18)">
       <defs>
        <path id="DejaVuSans-36" d="M 2113 2584 
Q 1688 2584 1439 2293 
Q 1191 2003 1191 1497 
Q 1191 994 1439 701 
Q 1688 409 2113 409 
Q 2538 409 2786 701 
Q 3034 994 3034 1497 
Q 3034 2003 2786 2293 
Q 2538 2584 2113 2584 
z
M 3366 4563 
L 3366 3988 
Q 3128 4100 2886 4159 
Q 2644 4219 2406 4219 
Q 1781 4219 1451 3797 
Q 1122 3375 1075 2522 
Q 1259 2794 1537 2939 
Q 1816 3084 2150 3084 
Q 2853 3084 3261 2657 
Q 3669 2231 3669 1497 
Q 3669 778 3244 343 
Q 2819 -91 2113 -91 
Q 1303 -91 875 529 
Q 447 1150 447 2328 
Q 447 3434 972 4092 
Q 1497 4750 2381 4750 
Q 2619 4750 2861 4703 
Q 3103 4656 3366 4563 
z
" transform="scale(0.015625)"/>
       </defs>
       <use xlink:href="#DejaVuSans-30"/>
       <use xlink:href="#DejaVuSans-2e" x="63.623047"/>
       <use xlink:href="#DejaVuSans-36" x="95.410156"/>
      </g>
     </g>
    </g>
    <g id="text_14">
     <!-- Normed Hist Counts -->
     <g transform="translate(28.276406 548.966563)rotate(-90)scale(0.23 -0.23)">
      <defs>
       <path id="DejaVuSans-4e" d="M 628 4666 
L 1478 4666 
L 3547 763 
L 3547 4666 
L 4159 4666 
L 4159 0 
L 3309 0 
L 1241 3903 
L 1241 0 
L 628 0 
L 628 4666 
z
" transform="scale(0.015625)"/>
       <path id="DejaVuSans-6f" d="M 1959 3097 
Q 1497 3097 1228 2736 
Q 959 2375 959 1747 
Q 959 1119 1226 758 
Q 1494 397 1959 397 
Q 2419 397 2687 759 
Q 2956 1122 2956 1747 
Q 2956 2369 2687 2733 
Q 2419 3097 1959 3097 
z
M 1959 3584 
Q 2709 3584 3137 3096 
Q 3566 2609 3566 1747 
Q 3566 888 3137 398 
Q 2709 -91 1959 -91 
Q 1206 -91 779 398 
Q 353 888 353 1747 
Q 353 2609 779 3096 
Q 1206 3584 1959 3584 
z
" transform="scale(0.015625)"/>
       <path id="DejaVuSans-72" d="M 2631 2963 
Q 2534 3019 2420 3045 
Q 2306 3072 2169 3072 
Q 1681 3072 1420 2755 
Q 1159 2438 1159 1844 
L 1159 0 
L 581 0 
L 581 3500 
L 1159 3500 
L 1159 2956 
Q 1341 3275 1631 3429 
Q 1922 3584 2338 3584 
Q 2397 3584 2469 3576 
Q 2541 3569 2628 3553 
L 2631 2963 
z
" transform="scale(0.015625)"/>
       <path id="DejaVuSans-6d" d="M 3328 2828 
Q 3544 3216 3844 3400 
Q 4144 3584 4550 3584 
Q 5097 3584 5394 3201 
Q 5691 2819 5691 2113 
L 5691 0 
L 5113 0 
L 5113 2094 
Q 5113 2597 4934 2840 
Q 4756 3084 4391 3084 
Q 3944 3084 3684 2787 
Q 3425 2491 3425 1978 
L 3425 0 
L 2847 0 
L 2847 2094 
Q 2847 2600 2669 2842 
Q 2491 3084 2119 3084 
Q 1678 3084 1418 2786 
Q 1159 2488 1159 1978 
L 1159 0 
L 581 0 
L 581 3500 
L 1159 3500 
L 1159 2956 
Q 1356 3278 1631 3431 
Q 1906 3584 2284 3584 
Q 2666 3584 2933 3390 
Q 3200 3197 3328 2828 
z
" transform="scale(0.015625)"/>
       <path id="DejaVuSans-65" d="M 3597 1894 
L 3597 1613 
L 953 1613 
Q 991 1019 1311 708 
Q 1631 397 2203 397 
Q 2534 397 2845 478 
Q 3156 559 3463 722 
L 3463 178 
Q 3153 47 2828 -22 
Q 2503 -91 2169 -91 
Q 1331 -91 842 396 
Q 353 884 353 1716 
Q 353 2575 817 3079 
Q 1281 3584 2069 3584 
Q 2775 3584 3186 3129 
Q 3597 2675 3597 1894 
z
M 3022 2063 
Q 3016 2534 2758 2815 
Q 2500 3097 2075 3097 
Q 1594 3097 1305 2825 
Q 1016 2553 972 2059 
L 3022 2063 
z
" transform="scale(0.015625)"/>
       <path id="DejaVuSans-64" d="M 2906 2969 
L 2906 4863 
L 3481 4863 
L 3481 0 
L 2906 0 
L 2906 525 
Q 2725 213 2448 61 
Q 2172 -91 1784 -91 
Q 1150 -91 751 415 
Q 353 922 353 1747 
Q 353 2572 751 3078 
Q 1150 3584 1784 3584 
Q 2172 3584 2448 3432 
Q 2725 3281 2906 2969 
z
M 947 1747 
Q 947 1113 1208 752 
Q 1469 391 1925 391 
Q 2381 391 2643 752 
Q 2906 1113 2906 1747 
Q 2906 2381 2643 2742 
Q 2381 3103 1925 3103 
Q 1469 3103 1208 2742 
Q 947 2381 947 1747 
z
" transform="scale(0.015625)"/>
       <path id="DejaVuSans-20" transform="scale(0.015625)"/>
       <path id="DejaVuSans-48" d="M 628 4666 
L 1259 4666 
L 1259 2753 
L 3553 2753 
L 3553 4666 
L 4184 4666 
L 4184 0 
L 3553 0 
L 3553 2222 
L 1259 2222 
L 1259 0 
L 628 0 
L 628 4666 
z
" transform="scale(0.015625)"/>
       <path id="DejaVuSans-69" d="M 603 3500 
L 1178 3500 
L 1178 0 
L 603 0 
L 603 3500 
z
M 603 4863 
L 1178 4863 
L 1178 4134 
L 603 4134 
L 603 4863 
z
" transform="scale(0.015625)"/>
       <path id="DejaVuSans-73" d="M 2834 3397 
L 2834 2853 
Q 2591 2978 2328 3040 
Q 2066 3103 1784 3103 
Q 1356 3103 1142 2972 
Q 928 2841 928 2578 
Q 928 2378 1081 2264 
Q 1234 2150 1697 2047 
L 1894 2003 
Q 2506 1872 2764 1633 
Q 3022 1394 3022 966 
Q 3022 478 2636 193 
Q 2250 -91 1575 -91 
Q 1294 -91 989 -36 
Q 684 19 347 128 
L 347 722 
Q 666 556 975 473 
Q 1284 391 1588 391 
Q 1994 391 2212 530 
Q 2431 669 2431 922 
Q 2431 1156 2273 1281 
Q 2116 1406 1581 1522 
L 1381 1569 
Q 847 1681 609 1914 
Q 372 2147 372 2553 
Q 372 3047 722 3315 
Q 1072 3584 1716 3584 
Q 2034 3584 2315 3537 
Q 2597 3491 2834 3397 
z
" transform="scale(0.015625)"/>
       <path id="DejaVuSans-74" d="M 1172 4494 
L 1172 3500 
L 2356 3500 
L 2356 3053 
L 1172 3053 
L 1172 1153 
Q 1172 725 1289 603 
Q 1406 481 1766 481 
L 2356 481 
L 2356 0 
L 1766 0 
Q 1100 0 847 248 
Q 594 497 594 1153 
L 594 3053 
L 172 3053 
L 172 3500 
L 594 3500 
L 594 4494 
L 1172 4494 
z
" transform="scale(0.015625)"/>
       <path id="DejaVuSans-43" d="M 4122 4306 
L 4122 3641 
Q 3803 3938 3442 4084 
Q 3081 4231 2675 4231 
Q 1875 4231 1450 3742 
Q 1025 3253 1025 2328 
Q 1025 1406 1450 917 
Q 1875 428 2675 428 
Q 3081 428 3442 575 
Q 3803 722 4122 1019 
L 4122 359 
Q 3791 134 3420 21 
Q 3050 -91 2638 -91 
Q 1578 -91 968 557 
Q 359 1206 359 2328 
Q 359 3453 968 4101 
Q 1578 4750 2638 4750 
Q 3056 4750 3426 4639 
Q 3797 4528 4122 4306 
z
" transform="scale(0.015625)"/>
       <path id="DejaVuSans-75" d="M 544 1381 
L 544 3500 
L 1119 3500 
L 1119 1403 
Q 1119 906 1312 657 
Q 1506 409 1894 409 
Q 2359 409 2629 706 
Q 2900 1003 2900 1516 
L 2900 3500 
L 3475 3500 
L 3475 0 
L 2900 0 
L 2900 538 
Q 2691 219 2414 64 
Q 2138 -91 1772 -91 
Q 1169 -91 856 284 
Q 544 659 544 1381 
z
M 1991 3584 
L 1991 3584 
z
" transform="scale(0.015625)"/>
       <path id="DejaVuSans-6e" d="M 3513 2113 
L 3513 0 
L 2938 0 
L 2938 2094 
Q 2938 2591 2744 2837 
Q 2550 3084 2163 3084 
Q 1697 3084 1428 2787 
Q 1159 2491 1159 1978 
L 1159 0 
L 581 0 
L 581 3500 
L 1159 3500 
L 1159 2956 
Q 1366 3272 1645 3428 
Q 1925 3584 2291 3584 
Q 2894 3584 3203 3211 
Q 3513 2838 3513 2113 
z
" transform="scale(0.015625)"/>
      </defs>
      <use xlink:href="#DejaVuSans-4e"/>
      <use xlink:href="#DejaVuSans-6f" x="74.804688"/>
      <use xlink:href="#DejaVuSans-72" x="135.986328"/>
      <use xlink:href="#DejaVuSans-6d" x="175.349609"/>
      <use xlink:href="#DejaVuSans-65" x="272.761719"/>
      <use xlink:href="#DejaVuSans-64" x="334.285156"/>
      <use xlink:href="#DejaVuSans-20" x="397.761719"/>
      <use xlink:href="#DejaVuSans-48" x="429.548828"/>
      <use xlink:href="#DejaVuSans-69" x="504.744141"/>
      <use xlink:href="#DejaVuSans-73" x="532.527344"/>
      <use xlink:href="#DejaVuSans-74" x="584.626953"/>
      <use xlink:href="#DejaVuSans-20" x="623.835938"/>
      <use xlink:href="#DejaVuSans-43" x="655.623047"/>
      <use xlink:href="#DejaVuSans-6f" x="725.447266"/>
      <use xlink:href="#DejaVuSans-75" x="786.628906"/>
      <use xlink:href="#DejaVuSans-6e" x="850.007812"/>
      <use xlink:href="#DejaVuSans-74" x="913.386719"/>
      <use xlink:href="#DejaVuSans-73" x="952.595703"/>
     </g>
    </g>
   </g>
   <g id="line2d_14">
    <path d="M 137.428059 828.279655 
L 143.594035 827.690256 
L 149.760011 826.763529 
L 155.925987 825.427738 
L 162.091962 823.614357 
L 168.257938 821.258562 
L 174.423914 818.299701 
L 180.58989 814.681733 
L 186.755866 810.353633 
L 192.921842 805.269765 
L 199.087817 799.390205 
L 205.253793 792.68103 
L 211.419769 785.114558 
L 217.585745 776.669539 
L 223.751721 767.331301 
L 229.917697 757.091846 
L 236.083673 745.949895 
L 242.249648 733.910884 
L 248.415624 720.986914 
L 254.5816 707.196646 
L 260.747576 692.565157 
L 266.913552 677.123745 
L 273.079528 660.909692 
L 279.245504 643.96599 
L 285.411479 626.341023 
L 291.577455 608.088215 
L 297.743431 589.265653 
L 303.909407 569.935668 
L 316.241359 530.021354 
L 328.57331 488.911783 
L 359.40319 384.927017 
L 371.735141 344.501185 
L 377.901117 324.849226 
L 384.067093 305.670442 
L 390.233069 287.036321 
L 396.399045 269.015546 
L 402.565021 251.673624 
L 408.730996 235.072549 
L 414.896972 219.27049 
L 421.062948 204.321522 
L 427.228924 190.275378 
L 433.3949 177.177244 
L 439.560876 165.067581 
L 445.726852 153.981994 
L 451.892827 143.951122 
L 458.058803 135.000572 
L 464.224779 127.150884 
L 470.390755 120.41753 
L 476.556731 114.810944 
L 482.722707 110.336585 
L 488.888683 106.995028 
L 495.054658 104.782085 
L 501.220634 103.688946 
L 507.38661 103.702354 
L 513.552586 104.804793 
L 519.718562 106.974701 
L 525.884538 110.1867 
L 532.050513 114.411839 
L 538.216489 119.617853 
L 544.382465 125.769432 
L 550.548441 132.828498 
L 556.714417 140.754489 
L 562.880393 149.504647 
L 569.046369 159.034305 
L 575.212344 169.297182 
L 581.37832 180.245665 
L 587.544296 191.831097 
L 593.710272 204.004051 
L 599.876248 216.714606 
L 606.042224 229.912601 
L 612.2082 243.547896 
L 618.374175 257.570604 
L 624.540151 271.931325 
L 636.872103 301.472902 
L 649.204055 331.794919 
L 692.365886 439.135923 
L 704.697837 468.930369 
L 717.029789 497.88802 
L 723.195765 511.992362 
L 729.361741 525.818899 
L 735.527717 539.349121 
L 741.693692 552.566553 
L 747.859668 565.456715 
L 754.025644 578.007064 
L 760.19162 590.206936 
L 766.357596 602.047481 
L 772.523572 613.521585 
L 778.689548 624.623801 
L 784.855523 635.350262 
L 791.021499 645.698598 
L 797.187475 655.667854 
L 803.353451 665.258395 
L 809.519427 674.471824 
L 815.685403 683.310887 
L 821.851379 691.779389 
L 828.017354 699.882099 
L 834.18333 707.62467 
L 840.349306 715.013547 
L 846.515282 722.055887 
L 852.681258 728.759476 
L 858.847234 735.132654 
L 865.01321 741.184234 
L 871.179185 746.923434 
L 877.345161 752.359807 
L 883.511137 757.503175 
L 889.677113 762.363569 
L 895.843089 766.951168 
L 902.009065 771.27625 
L 908.17504 775.349137 
L 914.341016 779.180152 
L 920.506992 782.779572 
L 926.672968 786.157596 
L 932.838944 789.324302 
L 939.00492 792.289621 
L 945.170896 795.063307 
L 951.336871 797.654909 
L 957.502847 800.073753 
L 963.668823 802.328923 
L 969.834799 804.429242 
L 976.000775 806.38326 
L 982.166751 808.199246 
L 988.332727 809.885174 
L 994.498702 811.448723 
L 1006.830654 814.237878 
L 1019.162606 816.622055 
L 1031.494558 818.651746 
L 1043.826509 820.372676 
L 1056.158461 821.825976 
L 1068.490413 823.048396 
L 1080.822364 824.07257 
L 1093.154316 824.927298 
L 1111.652244 825.94607 
L 1130.150171 826.711705 
L 1148.648099 827.282192 
L 1173.312002 827.817586 
L 1204.141881 828.236824 
L 1241.137737 828.514011 
L 1296.631519 828.693647 
L 1364.457254 828.759729 
L 1364.457254 828.759729 
" clip-path="url(#p474a861bce)" style="fill: none; stroke: #ff7f0e; stroke-width: 2; stroke-linecap: square"/>
   </g>
   <g id="line2d_15">
    <path d="M 137.428059 825.081637 
L 143.594035 824.00856 
L 149.760011 822.690394 
L 155.925987 821.087559 
L 162.091962 819.15739 
L 168.257938 816.854455 
L 174.423914 814.130963 
L 180.58989 810.937268 
L 186.755866 807.222458 
L 192.921842 802.935016 
L 199.087817 798.023559 
L 205.253793 792.437621 
L 211.419769 786.128482 
L 217.585745 779.05002 
L 223.751721 771.15957 
L 229.917697 762.418768 
L 236.083673 752.794377 
L 242.249648 742.259057 
L 248.415624 730.792082 
L 254.5816 718.379976 
L 260.747576 705.017066 
L 266.913552 690.705926 
L 273.079528 675.457719 
L 279.245504 659.29242 
L 285.411479 642.238915 
L 291.577455 624.334984 
L 297.743431 605.627151 
L 303.909407 586.170424 
L 310.075383 566.027916 
L 316.241359 545.270356 
L 322.407335 523.9755 
L 334.739286 480.115936 
L 353.237214 412.563924 
L 365.569165 367.530322 
L 377.901117 323.469626 
L 384.067093 302.062503 
L 390.233069 281.204607 
L 396.399045 260.992224 
L 402.565021 241.51749 
L 408.730996 222.867685 
L 414.896972 205.124594 
L 421.062948 188.363949 
L 427.228924 172.654941 
L 433.3949 158.059816 
L 439.560876 144.633555 
L 445.726852 132.423627 
L 451.892827 121.469832 
L 458.058803 111.804214 
L 464.224779 103.451055 
L 470.390755 96.426935 
L 476.556731 90.740865 
L 482.722707 86.394475 
L 488.888683 83.382265 
L 495.054658 81.691901 
L 501.220634 81.304561 
L 507.38661 82.195316 
L 513.552586 84.333544 
L 519.718562 87.683374 
L 525.884538 92.204142 
L 532.050513 97.850872 
L 538.216489 104.574761 
L 544.382465 112.323663 
L 550.548441 121.042582 
L 556.714417 130.674154 
L 562.880393 141.159117 
L 569.046369 152.43677 
L 575.212344 164.44542 
L 581.37832 177.122802 
L 587.544296 190.406481 
L 593.710272 204.234227 
L 599.876248 218.544372 
L 606.042224 233.276132 
L 612.2082 248.369903 
L 624.540151 279.412572 
L 636.872103 311.228744 
L 673.867958 407.407125 
L 686.19991 438.606485 
L 698.531862 468.92999 
L 704.697837 483.697937 
L 710.863813 498.173615 
L 717.029789 512.337815 
L 723.195765 526.173705 
L 729.361741 539.666743 
L 735.527717 552.80458 
L 741.693692 565.576959 
L 747.859668 577.975611 
L 754.025644 589.994146 
L 760.19162 601.627944 
L 766.357596 612.874039 
L 772.523572 623.731013 
L 778.689548 634.198877 
L 784.855523 644.278968 
L 791.021499 653.973835 
L 797.187475 663.287134 
L 803.353451 672.223528 
L 809.519427 680.788582 
L 815.685403 688.988668 
L 821.851379 696.830875 
L 828.017354 704.322917 
L 834.18333 711.473053 
L 840.349306 718.290003 
L 846.515282 724.782878 
L 852.681258 730.961105 
L 858.847234 736.834364 
L 865.01321 742.412527 
L 871.179185 747.7056 
L 877.345161 752.723671 
L 883.511137 757.476863 
L 889.677113 761.975291 
L 895.843089 766.229018 
L 902.009065 770.248025 
L 908.17504 774.042177 
L 914.341016 777.62119 
L 920.506992 780.994615 
L 926.672968 784.171805 
L 932.838944 787.161907 
L 939.00492 789.973837 
L 945.170896 792.616271 
L 951.336871 795.097634 
L 957.502847 797.426087 
L 963.668823 799.609527 
L 969.834799 801.655575 
L 976.000775 803.571576 
L 982.166751 805.3646 
L 994.498702 808.608599 
L 1006.830654 811.438585 
L 1019.162606 813.901237 
L 1031.494558 816.039041 
L 1043.826509 817.890473 
L 1056.158461 819.490218 
L 1068.490413 820.869406 
L 1080.822364 822.055861 
L 1093.154316 823.074356 
L 1111.652244 824.334533 
L 1130.150171 825.329286 
L 1148.648099 826.111116 
L 1173.312002 826.895495 
L 1197.975906 827.457277 
L 1228.805785 827.93701 
L 1265.80164 828.294478 
L 1321.295423 828.572181 
L 1364.457254 828.674232 
L 1364.457254 828.674232 
" clip-path="url(#p474a861bce)" style="fill: none; stroke: #2ca02c; stroke-width: 2; stroke-linecap: square"/>
   </g>
   <g id="line2d_16">
    <path d="M 137.428059 138.789721 
L 149.760011 159.582282 
L 162.091962 179.748266 
L 174.423914 199.306558 
L 186.755866 218.275467 
L 199.087817 236.672757 
L 211.419769 254.515651 
L 223.751721 271.820857 
L 236.083673 288.604578 
L 248.415624 304.882528 
L 260.747576 320.669948 
L 273.079528 335.981621 
L 285.411479 350.831883 
L 297.743431 365.234638 
L 310.075383 379.203372 
L 322.407335 392.751164 
L 334.739286 405.890699 
L 347.071238 418.634279 
L 359.40319 430.993836 
L 371.735141 442.980943 
L 384.067093 454.606823 
L 396.399045 465.882362 
L 408.730996 476.818118 
L 421.062948 487.424329 
L 433.3949 497.710925 
L 445.726852 507.68754 
L 458.058803 517.363513 
L 470.390755 526.747904 
L 482.722707 535.849501 
L 495.054658 544.676825 
L 507.38661 553.238141 
L 519.718562 561.541465 
L 532.050513 569.594572 
L 544.382465 577.405001 
L 556.714417 584.980067 
L 569.046369 592.326861 
L 581.37832 599.452262 
L 593.710272 606.362942 
L 606.042224 613.065372 
L 618.374175 619.565827 
L 630.706127 625.870393 
L 643.038079 631.984973 
L 655.370031 637.915293 
L 667.701982 643.666905 
L 680.033934 649.245195 
L 692.365886 654.655385 
L 710.863813 662.466523 
L 729.361741 669.927256 
L 747.859668 677.053304 
L 766.357596 683.859679 
L 784.855523 690.360723 
L 803.353451 696.570133 
L 821.851379 702.500991 
L 840.349306 708.165792 
L 858.847234 713.576473 
L 877.345161 718.744433 
L 895.843089 723.68056 
L 914.341016 728.395254 
L 932.838944 732.898448 
L 951.336871 737.199631 
L 969.834799 741.307865 
L 988.332727 745.231804 
L 1006.830654 748.979718 
L 1031.494558 753.716713 
L 1056.158461 758.172515 
L 1080.822364 762.363816 
L 1105.486268 766.306317 
L 1130.150171 770.014786 
L 1154.814075 773.503117 
L 1179.477978 776.784377 
L 1204.141881 779.870857 
L 1234.971761 783.472598 
L 1265.80164 786.809097 
L 1296.631519 789.899889 
L 1327.461398 792.763068 
L 1358.291278 795.415395 
L 1364.457254 795.921946 
L 1364.457254 795.921946 
" clip-path="url(#p474a861bce)" style="fill: none; stroke: #d62728; stroke-width: 2; stroke-linecap: square"/>
   </g>
   <g id="line2d_17">
    <path d="M 137.428059 781.244048 
L 143.594035 778.783508 
L 149.760011 776.195604 
L 155.925987 773.473744 
L 162.091962 770.610995 
L 168.257938 767.600062 
L 174.423914 764.433277 
L 180.58989 761.102572 
L 186.755866 757.599461 
L 192.921842 753.915021 
L 199.087817 750.039866 
L 205.253793 745.964124 
L 211.419769 741.677411 
L 217.585745 737.168809 
L 223.751721 732.42683 
L 229.917697 727.439396 
L 236.083673 722.1938 
L 242.249648 716.67668 
L 248.415624 710.873981 
L 254.5816 704.77092 
L 260.747576 698.35195 
L 266.913552 691.60072 
L 273.079528 684.50003 
L 279.245504 677.031791 
L 285.411479 669.176979 
L 291.577455 660.915584 
L 297.743431 652.226559 
L 303.909407 643.08777 
L 310.075383 633.475935 
L 316.241359 623.36657 
L 322.407335 612.733919 
L 328.57331 601.550898 
L 334.739286 589.789017 
L 340.905262 577.418314 
L 347.071238 564.407274 
L 353.237214 550.722752 
L 359.40319 536.329887 
L 365.569165 521.192013 
L 371.735141 505.270567 
L 377.901117 488.52499 
L 384.067093 470.912622 
L 390.233069 452.388597 
L 396.399045 432.905725 
L 402.565021 412.414373 
L 408.730996 390.862341 
L 414.896972 368.194724 
L 421.062948 344.353779 
L 427.228924 319.27877 
L 433.3949 292.90582 
L 439.560876 265.167743 
L 445.726852 235.993879 
L 451.892827 205.309907 
L 458.058803 173.03766 
L 464.224779 139.094925 
L 470.390755 103.395235 
L 476.556731 65.847645 
L 482.722707 26.356503 
L 486.78382 -1 
M 565.920221 -1 
L 569.046369 20.21944 
L 575.212344 60.012617 
L 581.37832 97.847377 
L 587.544296 133.820104 
L 593.710272 168.022438 
L 599.876248 200.541509 
L 606.042224 231.460157 
L 612.2082 260.857148 
L 618.374175 288.80737 
L 624.540151 315.382025 
L 630.706127 340.648812 
L 636.872103 364.672096 
L 643.038079 387.513078 
L 649.204055 409.229944 
L 655.370031 429.878017 
L 661.536006 449.509898 
L 667.701982 468.175598 
L 673.867958 485.922668 
L 680.033934 502.796318 
L 686.19991 518.839534 
L 692.365886 534.093185 
L 698.531862 548.596129 
L 704.697837 562.385312 
L 710.863813 575.495863 
L 717.029789 587.96118 
L 723.195765 599.813017 
L 729.361741 611.081568 
L 735.527717 621.795538 
L 741.693692 631.982222 
L 747.859668 641.66757 
L 754.025644 650.876254 
L 760.19162 659.631734 
L 766.357596 667.956314 
L 772.523572 675.871201 
L 778.689548 683.396558 
L 784.855523 690.551555 
L 791.021499 697.35442 
L 797.187475 703.822483 
L 803.353451 709.972221 
L 809.519427 715.8193 
L 815.685403 721.378616 
L 821.851379 726.664331 
L 828.017354 731.68991 
L 834.18333 736.468156 
L 840.349306 741.011241 
L 846.515282 745.330739 
L 852.681258 749.437653 
L 858.847234 753.342446 
L 865.01321 757.055065 
L 871.179185 760.584968 
L 877.345161 763.941147 
L 883.511137 767.132153 
L 889.677113 770.166113 
L 895.843089 773.050758 
L 902.009065 775.793434 
L 908.17504 778.401131 
L 914.341016 780.88049 
L 926.672968 785.479149 
L 939.00492 789.636302 
L 951.336871 793.394336 
L 963.668823 796.791571 
L 976.000775 799.862644 
L 988.332727 802.638872 
L 1000.664678 805.14856 
L 1012.99663 807.417299 
L 1025.328582 809.468222 
L 1037.660533 811.32224 
L 1049.992485 812.998258 
L 1062.324437 814.513366 
L 1080.822364 816.517705 
L 1099.320292 818.240439 
L 1117.818219 819.721134 
L 1136.316147 820.993794 
L 1160.98005 822.416981 
L 1185.643954 823.580013 
L 1210.307857 824.530445 
L 1241.137737 825.478026 
L 1271.967616 826.214281 
L 1308.963471 826.884426 
L 1352.125302 827.448387 
L 1364.457254 827.576172 
L 1364.457254 827.576172 
" clip-path="url(#p474a861bce)" style="fill: none; stroke: #9467bd; stroke-width: 2; stroke-linecap: square"/>
   </g>
   <g id="line2d_18">
    <path d="M 137.428059 823.763704 
L 143.594035 822.544876 
L 149.760011 821.085033 
L 155.925987 819.349004 
L 162.091962 817.298896 
L 168.257938 814.89429 
L 174.423914 812.092514 
L 180.58989 808.848992 
L 186.755866 805.117667 
L 192.921842 800.851504 
L 199.087817 796.003056 
L 205.253793 790.5251 
L 211.419769 784.371319 
L 217.585745 777.497033 
L 223.751721 769.859966 
L 229.917697 761.421018 
L 236.083673 752.145052 
L 242.249648 742.001666 
L 248.415624 730.965933 
L 254.5816 719.019101 
L 260.747576 706.149238 
L 266.913552 692.351798 
L 273.079528 677.630107 
L 279.245504 661.995749 
L 285.411479 645.468851 
L 291.577455 628.078249 
L 297.743431 609.861539 
L 303.909407 590.865009 
L 310.075383 571.143443 
L 316.241359 550.759815 
L 322.407335 529.78486 
L 328.57331 508.296539 
L 340.905262 464.12388 
L 359.40319 396.301837 
L 371.735141 351.23948 
L 384.067093 307.290477 
L 390.233069 285.997808 
L 396.399045 265.29669 
L 402.565021 245.285788 
L 408.730996 226.059485 
L 414.896972 207.707104 
L 421.062948 190.312215 
L 427.228924 173.952006 
L 433.3949 158.696744 
L 439.560876 144.609326 
L 445.726852 131.744917 
L 451.892827 120.150674 
L 458.058803 109.86557 
L 464.224779 100.920295 
L 470.390755 93.337248 
L 476.556731 87.13061 
L 482.722707 82.306492 
L 488.888683 78.863148 
L 495.054658 76.791264 
L 501.220634 76.074296 
L 507.38661 76.688857 
L 513.552586 78.605154 
L 519.718562 81.787461 
L 525.884538 86.194612 
L 532.050513 91.780526 
L 538.216489 98.494743 
L 544.382465 106.282965 
L 550.548441 115.087607 
L 556.714417 124.848341 
L 562.880393 135.502623 
L 569.046369 146.986224 
L 575.212344 159.233728 
L 581.37832 172.179012 
L 587.544296 185.755709 
L 593.710272 199.897636 
L 599.876248 214.539193 
L 606.042224 229.615735 
L 612.2082 245.063911 
L 624.540151 276.830014 
L 636.872103 309.367312 
L 667.701982 391.344444 
L 680.033934 423.450725 
L 692.365886 454.725346 
L 704.697837 484.938611 
L 710.863813 499.587743 
L 717.029789 513.905525 
L 723.195765 527.875396 
L 729.361741 541.483233 
L 735.527717 554.717237 
L 741.693692 567.567816 
L 747.859668 580.027464 
L 754.025644 592.090636 
L 760.19162 603.753621 
L 766.357596 615.014419 
L 772.523572 625.872611 
L 778.689548 636.329238 
L 784.855523 646.386677 
L 791.021499 656.048522 
L 797.187475 665.319468 
L 803.353451 674.205199 
L 809.519427 682.712279 
L 815.685403 690.84805 
L 821.851379 698.620535 
L 828.017354 706.038342 
L 834.18333 713.110577 
L 840.349306 719.846763 
L 846.515282 726.256762 
L 852.681258 732.3507 
L 858.847234 738.138907 
L 865.01321 743.631849 
L 871.179185 748.840073 
L 877.345161 753.774158 
L 883.511137 758.444667 
L 889.677113 762.862102 
L 895.843089 767.036871 
L 902.009065 770.979249 
L 908.17504 774.699353 
L 914.341016 778.207112 
L 920.506992 781.512247 
L 926.672968 784.624248 
L 932.838944 787.552362 
L 939.00492 790.305577 
L 945.170896 792.892611 
L 951.336871 795.321905 
L 957.502847 797.601614 
L 963.668823 799.739605 
L 969.834799 801.743453 
L 976.000775 803.62044 
L 988.332727 807.021504 
L 1000.664678 809.995261 
L 1012.99663 812.589648 
L 1025.328582 814.848247 
L 1037.660533 816.810491 
L 1049.992485 818.511901 
L 1062.324437 819.984346 
L 1074.656388 821.256303 
L 1086.98834 822.353131 
L 1105.486268 823.71851 
L 1123.984195 824.805112 
L 1142.482123 825.666856 
L 1167.146026 826.541412 
L 1191.80993 827.17713 
L 1222.639809 827.73012 
L 1259.635664 828.152812 
L 1308.963471 828.467939 
L 1364.457254 828.639492 
L 1364.457254 828.639492 
" clip-path="url(#p474a861bce)" style="fill: none; stroke: #8c564b; stroke-width: 2; stroke-linecap: square"/>
   </g>
   <g id="line2d_19">
    <path d="M 137.428059 804.837612 
L 143.594035 802.197715 
L 149.760011 799.314657 
L 155.925987 796.171934 
L 162.091962 792.752601 
L 168.257938 789.039338 
L 174.423914 785.014531 
L 180.58989 780.660359 
L 186.755866 775.958897 
L 192.921842 770.892229 
L 199.087817 765.442565 
L 205.253793 759.592382 
L 211.419769 753.324559 
L 217.585745 746.622539 
L 223.751721 739.470489 
L 229.917697 731.853468 
L 236.083673 723.757611 
L 242.249648 715.170314 
L 248.415624 706.08042 
L 254.5816 696.478417 
L 260.747576 686.356632 
L 266.913552 675.709428 
L 273.079528 664.533394 
L 279.245504 652.82754 
L 285.411479 640.593474 
L 291.577455 627.835583 
L 297.743431 614.561189 
L 303.909407 600.780706 
L 310.075383 586.50777 
L 316.241359 571.759355 
L 322.407335 556.55587 
L 328.57331 540.921231 
L 334.739286 524.882909 
L 340.905262 508.471946 
L 353.237214 474.674075 
L 365.569165 439.846399 
L 384.067093 386.501708 
L 402.565021 333.142815 
L 414.896972 298.367336 
L 421.062948 281.410954 
L 427.228924 264.82972 
L 433.3949 248.689663 
L 439.560876 233.056574 
L 445.726852 217.995571 
L 451.892827 203.570644 
L 458.058803 189.844216 
L 464.224779 176.876689 
L 470.390755 164.726004 
L 476.556731 153.447216 
L 482.722707 143.092071 
L 488.888683 133.708619 
L 495.054658 125.340839 
L 501.220634 118.028298 
L 507.38661 111.805835 
L 513.552586 106.703291 
L 519.718562 102.745265 
L 525.884538 99.95092 
L 532.050513 98.333827 
L 538.216489 97.901856 
L 544.382465 98.657111 
L 550.548441 100.595913 
L 556.714417 103.708831 
L 562.880393 107.980759 
L 569.046369 113.391036 
L 575.212344 119.913612 
L 581.37832 127.517261 
L 587.544296 136.165826 
L 593.710272 145.818507 
L 599.876248 156.430181 
L 606.042224 167.951752 
L 612.2082 180.330532 
L 618.374175 193.510641 
L 624.540151 207.433421 
L 630.706127 222.037878 
L 636.872103 237.261117 
L 643.038079 253.038795 
L 649.204055 269.305568 
L 655.370031 285.995537 
L 667.701982 320.381299 
L 680.033934 355.674074 
L 710.863813 444.637504 
L 723.195765 479.345665 
L 735.527717 512.977376 
L 741.693692 529.29011 
L 747.859668 545.221394 
L 754.025644 560.741157 
L 760.19162 575.8229 
L 766.357596 590.44367 
L 772.523572 604.584 
L 778.689548 618.227835 
L 784.855523 631.362431 
L 791.021499 643.97823 
L 797.187475 656.068723 
L 803.353451 667.630299 
L 809.519427 678.662075 
L 815.685403 689.165718 
L 821.851379 699.145264 
L 828.017354 708.606925 
L 834.18333 717.558895 
L 840.349306 726.011152 
L 846.515282 733.975266 
L 852.681258 741.464204 
L 858.847234 748.492143 
L 865.01321 755.074283 
L 871.179185 761.226672 
L 877.345161 766.966037 
L 883.511137 772.309621 
L 889.677113 777.275034 
L 895.843089 781.880115 
L 902.009065 786.142792 
L 908.17504 790.080975 
L 914.341016 793.712435 
L 920.506992 797.054716 
L 926.672968 800.125044 
L 932.838944 802.940249 
L 939.00492 805.516703 
L 945.170896 807.870262 
L 951.336871 810.01622 
L 957.502847 811.969273 
L 963.668823 813.743488 
L 969.834799 815.352283 
L 976.000775 816.80841 
L 982.166751 818.123956 
L 988.332727 819.31033 
L 1000.664678 821.337881 
L 1012.99663 822.969176 
L 1025.328582 824.272258 
L 1037.660533 825.305745 
L 1049.992485 826.119598 
L 1062.324437 826.755966 
L 1080.822364 827.453055 
L 1099.320292 827.922611 
L 1123.984195 828.311715 
L 1154.814075 828.567837 
L 1204.141881 828.724747 
L 1315.129447 828.777599 
L 1364.457254 828.779048 
L 1364.457254 828.779048 
" clip-path="url(#p474a861bce)" style="fill: none; stroke: #e377c2; stroke-width: 2; stroke-linecap: square"/>
   </g>
   <g id="patch_103">
    <path d="M 72.685313 828.779375 
L 72.685313 38.075625 
" style="fill: none; stroke: #000000; stroke-width: 0.8; stroke-linejoin: miter; stroke-linecap: square"/>
   </g>
   <g id="patch_104">
    <path d="M 1429.2 828.779375 
L 1429.2 38.075625 
" style="fill: none; stroke: #000000; stroke-width: 0.8; stroke-linejoin: miter; stroke-linecap: square"/>
   </g>
   <g id="patch_105">
    <path d="M 72.685313 828.779375 
L 1429.2 828.779375 
" style="fill: none; stroke: #000000; stroke-width: 0.8; stroke-linejoin: miter; stroke-linecap: square"/>
   </g>
   <g id="patch_106">
    <path d="M 72.685313 38.075625 
L 1429.2 38.075625 
" style="fill: none; stroke: #000000; stroke-width: 0.8; stroke-linejoin: miter; stroke-linecap: square"/>
   </g>
   <g id="text_15">
    <!-- All Fitted Distributions -->
    <g transform="translate(596.317031 32.075625)scale(0.28 -0.28)">
     <defs>
      <path id="DejaVuSans-41" d="M 2188 4044 
L 1331 1722 
L 3047 1722 
L 2188 4044 
z
M 1831 4666 
L 2547 4666 
L 4325 0 
L 3669 0 
L 3244 1197 
L 1141 1197 
L 716 0 
L 50 0 
L 1831 4666 
z
" transform="scale(0.015625)"/>
      <path id="DejaVuSans-6c" d="M 603 4863 
L 1178 4863 
L 1178 0 
L 603 0 
L 603 4863 
z
" transform="scale(0.015625)"/>
      <path id="DejaVuSans-46" d="M 628 4666 
L 3309 4666 
L 3309 4134 
L 1259 4134 
L 1259 2759 
L 3109 2759 
L 3109 2228 
L 1259 2228 
L 1259 0 
L 628 0 
L 628 4666 
z
" transform="scale(0.015625)"/>
      <path id="DejaVuSans-44" d="M 1259 4147 
L 1259 519 
L 2022 519 
Q 2988 519 3436 956 
Q 3884 1394 3884 2338 
Q 3884 3275 3436 3711 
Q 2988 4147 2022 4147 
L 1259 4147 
z
M 628 4666 
L 1925 4666 
Q 3281 4666 3915 4102 
Q 4550 3538 4550 2338 
Q 4550 1131 3912 565 
Q 3275 0 1925 0 
L 628 0 
L 628 4666 
z
" transform="scale(0.015625)"/>
      <path id="DejaVuSans-62" d="M 3116 1747 
Q 3116 2381 2855 2742 
Q 2594 3103 2138 3103 
Q 1681 3103 1420 2742 
Q 1159 2381 1159 1747 
Q 1159 1113 1420 752 
Q 1681 391 2138 391 
Q 2594 391 2855 752 
Q 3116 1113 3116 1747 
z
M 1159 2969 
Q 1341 3281 1617 3432 
Q 1894 3584 2278 3584 
Q 2916 3584 3314 3078 
Q 3713 2572 3713 1747 
Q 3713 922 3314 415 
Q 2916 -91 2278 -91 
Q 1894 -91 1617 61 
Q 1341 213 1159 525 
L 1159 0 
L 581 0 
L 581 4863 
L 1159 4863 
L 1159 2969 
z
" transform="scale(0.015625)"/>
     </defs>
     <use xlink:href="#DejaVuSans-41"/>
     <use xlink:href="#DejaVuSans-6c" x="68.408203"/>
     <use xlink:href="#DejaVuSans-6c" x="96.191406"/>
     <use xlink:href="#DejaVuSans-20" x="123.974609"/>
     <use xlink:href="#DejaVuSans-46" x="155.761719"/>
     <use xlink:href="#DejaVuSans-69" x="206.03125"/>
     <use xlink:href="#DejaVuSans-74" x="233.814453"/>
     <use xlink:href="#DejaVuSans-74" x="273.023438"/>
     <use xlink:href="#DejaVuSans-65" x="312.232422"/>
     <use xlink:href="#DejaVuSans-64" x="373.755859"/>
     <use xlink:href="#DejaVuSans-20" x="437.232422"/>
     <use xlink:href="#DejaVuSans-44" x="469.019531"/>
     <use xlink:href="#DejaVuSans-69" x="546.021484"/>
     <use xlink:href="#DejaVuSans-73" x="573.804688"/>
     <use xlink:href="#DejaVuSans-74" x="625.904297"/>
     <use xlink:href="#DejaVuSans-72" x="665.113281"/>
     <use xlink:href="#DejaVuSans-69" x="706.226562"/>
     <use xlink:href="#DejaVuSans-62" x="734.009766"/>
     <use xlink:href="#DejaVuSans-75" x="797.486328"/>
     <use xlink:href="#DejaVuSans-74" x="860.865234"/>
     <use xlink:href="#DejaVuSans-69" x="900.074219"/>
     <use xlink:href="#DejaVuSans-6f" x="927.857422"/>
     <use xlink:href="#DejaVuSans-6e" x="989.039062"/>
     <use xlink:href="#DejaVuSans-73" x="1052.417969"/>
    </g>
   </g>
   <g id="legend_1">
    <g id="patch_107">
     <path d="M 1014.37125 303.868125 
L 1412.4 303.868125 
Q 1417.2 303.868125 1417.2 299.068125 
L 1417.2 54.875625 
Q 1417.2 50.075625 1412.4 50.075625 
L 1014.37125 50.075625 
Q 1009.57125 50.075625 1009.57125 54.875625 
L 1009.57125 299.068125 
Q 1009.57125 303.868125 1014.37125 303.868125 
z
" style="fill: #ffffff; opacity: 0.8; stroke: #cccccc; stroke-linejoin: miter"/>
    </g>
    <g id="patch_108">
     <path d="M 1019.17125 77.911875 
L 1067.17125 77.911875 
L 1067.17125 61.111875 
L 1019.17125 61.111875 
z
" style="fill: #1f77b4; opacity: 0.6"/>
    </g>
    <g id="text_16">
     <!-- Generated Chi Distribution -->
     <g transform="translate(1086.37125 77.911875)scale(0.24 -0.24)">
      <defs>
       <path id="DejaVuSans-47" d="M 3809 666 
L 3809 1919 
L 2778 1919 
L 2778 2438 
L 4434 2438 
L 4434 434 
Q 4069 175 3628 42 
Q 3188 -91 2688 -91 
Q 1594 -91 976 548 
Q 359 1188 359 2328 
Q 359 3472 976 4111 
Q 1594 4750 2688 4750 
Q 3144 4750 3555 4637 
Q 3966 4525 4313 4306 
L 4313 3634 
Q 3963 3931 3569 4081 
Q 3175 4231 2741 4231 
Q 1884 4231 1454 3753 
Q 1025 3275 1025 2328 
Q 1025 1384 1454 906 
Q 1884 428 2741 428 
Q 3075 428 3337 486 
Q 3600 544 3809 666 
z
" transform="scale(0.015625)"/>
       <path id="DejaVuSans-61" d="M 2194 1759 
Q 1497 1759 1228 1600 
Q 959 1441 959 1056 
Q 959 750 1161 570 
Q 1363 391 1709 391 
Q 2188 391 2477 730 
Q 2766 1069 2766 1631 
L 2766 1759 
L 2194 1759 
z
M 3341 1997 
L 3341 0 
L 2766 0 
L 2766 531 
Q 2569 213 2275 61 
Q 1981 -91 1556 -91 
Q 1019 -91 701 211 
Q 384 513 384 1019 
Q 384 1609 779 1909 
Q 1175 2209 1959 2209 
L 2766 2209 
L 2766 2266 
Q 2766 2663 2505 2880 
Q 2244 3097 1772 3097 
Q 1472 3097 1187 3025 
Q 903 2953 641 2809 
L 641 3341 
Q 956 3463 1253 3523 
Q 1550 3584 1831 3584 
Q 2591 3584 2966 3190 
Q 3341 2797 3341 1997 
z
" transform="scale(0.015625)"/>
       <path id="DejaVuSans-68" d="M 3513 2113 
L 3513 0 
L 2938 0 
L 2938 2094 
Q 2938 2591 2744 2837 
Q 2550 3084 2163 3084 
Q 1697 3084 1428 2787 
Q 1159 2491 1159 1978 
L 1159 0 
L 581 0 
L 581 4863 
L 1159 4863 
L 1159 2956 
Q 1366 3272 1645 3428 
Q 1925 3584 2291 3584 
Q 2894 3584 3203 3211 
Q 3513 2838 3513 2113 
z
" transform="scale(0.015625)"/>
      </defs>
      <use xlink:href="#DejaVuSans-47"/>
      <use xlink:href="#DejaVuSans-65" x="77.490234"/>
      <use xlink:href="#DejaVuSans-6e" x="139.013672"/>
      <use xlink:href="#DejaVuSans-65" x="202.392578"/>
      <use xlink:href="#DejaVuSans-72" x="263.916016"/>
      <use xlink:href="#DejaVuSans-61" x="305.029297"/>
      <use xlink:href="#DejaVuSans-74" x="366.308594"/>
      <use xlink:href="#DejaVuSans-65" x="405.517578"/>
      <use xlink:href="#DejaVuSans-64" x="467.041016"/>
      <use xlink:href="#DejaVuSans-20" x="530.517578"/>
      <use xlink:href="#DejaVuSans-43" x="562.304688"/>
      <use xlink:href="#DejaVuSans-68" x="632.128906"/>
      <use xlink:href="#DejaVuSans-69" x="695.507812"/>
      <use xlink:href="#DejaVuSans-20" x="723.291016"/>
      <use xlink:href="#DejaVuSans-44" x="755.078125"/>
      <use xlink:href="#DejaVuSans-69" x="832.080078"/>
      <use xlink:href="#DejaVuSans-73" x="859.863281"/>
      <use xlink:href="#DejaVuSans-74" x="911.962891"/>
      <use xlink:href="#DejaVuSans-72" x="951.171875"/>
      <use xlink:href="#DejaVuSans-69" x="992.285156"/>
      <use xlink:href="#DejaVuSans-62" x="1020.068359"/>
      <use xlink:href="#DejaVuSans-75" x="1083.544922"/>
      <use xlink:href="#DejaVuSans-74" x="1146.923828"/>
      <use xlink:href="#DejaVuSans-69" x="1186.132812"/>
      <use xlink:href="#DejaVuSans-6f" x="1213.916016"/>
      <use xlink:href="#DejaVuSans-6e" x="1275.097656"/>
     </g>
    </g>
    <g id="line2d_20">
     <path d="M 1019.17125 104.739375 
L 1043.17125 104.739375 
L 1067.17125 104.739375 
" style="fill: none; stroke: #ff7f0e; stroke-width: 2; stroke-linecap: square"/>
    </g>
    <g id="text_17">
     <!-- Chi fit -->
     <g transform="translate(1086.37125 113.139375)scale(0.24 -0.24)">
      <defs>
       <path id="DejaVuSans-66" d="M 2375 4863 
L 2375 4384 
L 1825 4384 
Q 1516 4384 1395 4259 
Q 1275 4134 1275 3809 
L 1275 3500 
L 2222 3500 
L 2222 3053 
L 1275 3053 
L 1275 0 
L 697 0 
L 697 3053 
L 147 3053 
L 147 3500 
L 697 3500 
L 697 3744 
Q 697 4328 969 4595 
Q 1241 4863 1831 4863 
L 2375 4863 
z
" transform="scale(0.015625)"/>
      </defs>
      <use xlink:href="#DejaVuSans-43"/>
      <use xlink:href="#DejaVuSans-68" x="69.824219"/>
      <use xlink:href="#DejaVuSans-69" x="133.203125"/>
      <use xlink:href="#DejaVuSans-20" x="160.986328"/>
      <use xlink:href="#DejaVuSans-66" x="192.773438"/>
      <use xlink:href="#DejaVuSans-69" x="227.978516"/>
      <use xlink:href="#DejaVuSans-74" x="255.761719"/>
     </g>
    </g>
    <g id="line2d_21">
     <path d="M 1019.17125 139.966875 
L 1043.17125 139.966875 
L 1067.17125 139.966875 
" style="fill: none; stroke: #2ca02c; stroke-width: 2; stroke-linecap: square"/>
    </g>
    <g id="text_18">
     <!-- Chi-Square fit -->
     <g transform="translate(1086.37125 148.366875)scale(0.24 -0.24)">
      <defs>
       <path id="DejaVuSans-2d" d="M 313 2009 
L 1997 2009 
L 1997 1497 
L 313 1497 
L 313 2009 
z
" transform="scale(0.015625)"/>
       <path id="DejaVuSans-53" d="M 3425 4513 
L 3425 3897 
Q 3066 4069 2747 4153 
Q 2428 4238 2131 4238 
Q 1616 4238 1336 4038 
Q 1056 3838 1056 3469 
Q 1056 3159 1242 3001 
Q 1428 2844 1947 2747 
L 2328 2669 
Q 3034 2534 3370 2195 
Q 3706 1856 3706 1288 
Q 3706 609 3251 259 
Q 2797 -91 1919 -91 
Q 1588 -91 1214 -16 
Q 841 59 441 206 
L 441 856 
Q 825 641 1194 531 
Q 1563 422 1919 422 
Q 2459 422 2753 634 
Q 3047 847 3047 1241 
Q 3047 1584 2836 1778 
Q 2625 1972 2144 2069 
L 1759 2144 
Q 1053 2284 737 2584 
Q 422 2884 422 3419 
Q 422 4038 858 4394 
Q 1294 4750 2059 4750 
Q 2388 4750 2728 4690 
Q 3069 4631 3425 4513 
z
" transform="scale(0.015625)"/>
       <path id="DejaVuSans-71" d="M 947 1747 
Q 947 1113 1208 752 
Q 1469 391 1925 391 
Q 2381 391 2643 752 
Q 2906 1113 2906 1747 
Q 2906 2381 2643 2742 
Q 2381 3103 1925 3103 
Q 1469 3103 1208 2742 
Q 947 2381 947 1747 
z
M 2906 525 
Q 2725 213 2448 61 
Q 2172 -91 1784 -91 
Q 1150 -91 751 415 
Q 353 922 353 1747 
Q 353 2572 751 3078 
Q 1150 3584 1784 3584 
Q 2172 3584 2448 3432 
Q 2725 3281 2906 2969 
L 2906 3500 
L 3481 3500 
L 3481 -1331 
L 2906 -1331 
L 2906 525 
z
" transform="scale(0.015625)"/>
      </defs>
      <use xlink:href="#DejaVuSans-43"/>
      <use xlink:href="#DejaVuSans-68" x="69.824219"/>
      <use xlink:href="#DejaVuSans-69" x="133.203125"/>
      <use xlink:href="#DejaVuSans-2d" x="160.986328"/>
      <use xlink:href="#DejaVuSans-53" x="197.070312"/>
      <use xlink:href="#DejaVuSans-71" x="260.546875"/>
      <use xlink:href="#DejaVuSans-75" x="324.023438"/>
      <use xlink:href="#DejaVuSans-61" x="387.402344"/>
      <use xlink:href="#DejaVuSans-72" x="448.681641"/>
      <use xlink:href="#DejaVuSans-65" x="487.544922"/>
      <use xlink:href="#DejaVuSans-20" x="549.068359"/>
      <use xlink:href="#DejaVuSans-66" x="580.855469"/>
      <use xlink:href="#DejaVuSans-69" x="616.060547"/>
      <use xlink:href="#DejaVuSans-74" x="643.84375"/>
     </g>
    </g>
    <g id="line2d_22">
     <path d="M 1019.17125 175.194375 
L 1043.17125 175.194375 
L 1067.17125 175.194375 
" style="fill: none; stroke: #d62728; stroke-width: 2; stroke-linecap: square"/>
    </g>
    <g id="text_19">
     <!-- Exponential fit -->
     <g transform="translate(1086.37125 183.594375)scale(0.24 -0.24)">
      <defs>
       <path id="DejaVuSans-45" d="M 628 4666 
L 3578 4666 
L 3578 4134 
L 1259 4134 
L 1259 2753 
L 3481 2753 
L 3481 2222 
L 1259 2222 
L 1259 531 
L 3634 531 
L 3634 0 
L 628 0 
L 628 4666 
z
" transform="scale(0.015625)"/>
       <path id="DejaVuSans-78" d="M 3513 3500 
L 2247 1797 
L 3578 0 
L 2900 0 
L 1881 1375 
L 863 0 
L 184 0 
L 1544 1831 
L 300 3500 
L 978 3500 
L 1906 2253 
L 2834 3500 
L 3513 3500 
z
" transform="scale(0.015625)"/>
       <path id="DejaVuSans-70" d="M 1159 525 
L 1159 -1331 
L 581 -1331 
L 581 3500 
L 1159 3500 
L 1159 2969 
Q 1341 3281 1617 3432 
Q 1894 3584 2278 3584 
Q 2916 3584 3314 3078 
Q 3713 2572 3713 1747 
Q 3713 922 3314 415 
Q 2916 -91 2278 -91 
Q 1894 -91 1617 61 
Q 1341 213 1159 525 
z
M 3116 1747 
Q 3116 2381 2855 2742 
Q 2594 3103 2138 3103 
Q 1681 3103 1420 2742 
Q 1159 2381 1159 1747 
Q 1159 1113 1420 752 
Q 1681 391 2138 391 
Q 2594 391 2855 752 
Q 3116 1113 3116 1747 
z
" transform="scale(0.015625)"/>
      </defs>
      <use xlink:href="#DejaVuSans-45"/>
      <use xlink:href="#DejaVuSans-78" x="63.183594"/>
      <use xlink:href="#DejaVuSans-70" x="122.363281"/>
      <use xlink:href="#DejaVuSans-6f" x="185.839844"/>
      <use xlink:href="#DejaVuSans-6e" x="247.021484"/>
      <use xlink:href="#DejaVuSans-65" x="310.400391"/>
      <use xlink:href="#DejaVuSans-6e" x="371.923828"/>
      <use xlink:href="#DejaVuSans-74" x="435.302734"/>
      <use xlink:href="#DejaVuSans-69" x="474.511719"/>
      <use xlink:href="#DejaVuSans-61" x="502.294922"/>
      <use xlink:href="#DejaVuSans-6c" x="563.574219"/>
      <use xlink:href="#DejaVuSans-20" x="591.357422"/>
      <use xlink:href="#DejaVuSans-66" x="623.144531"/>
      <use xlink:href="#DejaVuSans-69" x="658.349609"/>
      <use xlink:href="#DejaVuSans-74" x="686.132812"/>
     </g>
    </g>
    <g id="line2d_23">
     <path d="M 1019.17125 210.421875 
L 1043.17125 210.421875 
L 1067.17125 210.421875 
" style="fill: none; stroke: #9467bd; stroke-width: 2; stroke-linecap: square"/>
    </g>
    <g id="text_20">
     <!-- Laplace fit -->
     <g transform="translate(1086.37125 218.821875)scale(0.24 -0.24)">
      <defs>
       <path id="DejaVuSans-4c" d="M 628 4666 
L 1259 4666 
L 1259 531 
L 3531 531 
L 3531 0 
L 628 0 
L 628 4666 
z
" transform="scale(0.015625)"/>
       <path id="DejaVuSans-63" d="M 3122 3366 
L 3122 2828 
Q 2878 2963 2633 3030 
Q 2388 3097 2138 3097 
Q 1578 3097 1268 2742 
Q 959 2388 959 1747 
Q 959 1106 1268 751 
Q 1578 397 2138 397 
Q 2388 397 2633 464 
Q 2878 531 3122 666 
L 3122 134 
Q 2881 22 2623 -34 
Q 2366 -91 2075 -91 
Q 1284 -91 818 406 
Q 353 903 353 1747 
Q 353 2603 823 3093 
Q 1294 3584 2113 3584 
Q 2378 3584 2631 3529 
Q 2884 3475 3122 3366 
z
" transform="scale(0.015625)"/>
      </defs>
      <use xlink:href="#DejaVuSans-4c"/>
      <use xlink:href="#DejaVuSans-61" x="55.712891"/>
      <use xlink:href="#DejaVuSans-70" x="116.992188"/>
      <use xlink:href="#DejaVuSans-6c" x="180.46875"/>
      <use xlink:href="#DejaVuSans-61" x="208.251953"/>
      <use xlink:href="#DejaVuSans-63" x="269.53125"/>
      <use xlink:href="#DejaVuSans-65" x="324.511719"/>
      <use xlink:href="#DejaVuSans-20" x="386.035156"/>
      <use xlink:href="#DejaVuSans-66" x="417.822266"/>
      <use xlink:href="#DejaVuSans-69" x="453.027344"/>
      <use xlink:href="#DejaVuSans-74" x="480.810547"/>
     </g>
    </g>
    <g id="line2d_24">
     <path d="M 1019.17125 245.649375 
L 1043.17125 245.649375 
L 1067.17125 245.649375 
" style="fill: none; stroke: #8c564b; stroke-width: 2; stroke-linecap: square"/>
    </g>
    <g id="text_21">
     <!-- LogNorm fit -->
     <g transform="translate(1086.37125 254.049375)scale(0.24 -0.24)">
      <defs>
       <path id="DejaVuSans-67" d="M 2906 1791 
Q 2906 2416 2648 2759 
Q 2391 3103 1925 3103 
Q 1463 3103 1205 2759 
Q 947 2416 947 1791 
Q 947 1169 1205 825 
Q 1463 481 1925 481 
Q 2391 481 2648 825 
Q 2906 1169 2906 1791 
z
M 3481 434 
Q 3481 -459 3084 -895 
Q 2688 -1331 1869 -1331 
Q 1566 -1331 1297 -1286 
Q 1028 -1241 775 -1147 
L 775 -588 
Q 1028 -725 1275 -790 
Q 1522 -856 1778 -856 
Q 2344 -856 2625 -561 
Q 2906 -266 2906 331 
L 2906 616 
Q 2728 306 2450 153 
Q 2172 0 1784 0 
Q 1141 0 747 490 
Q 353 981 353 1791 
Q 353 2603 747 3093 
Q 1141 3584 1784 3584 
Q 2172 3584 2450 3431 
Q 2728 3278 2906 2969 
L 2906 3500 
L 3481 3500 
L 3481 434 
z
" transform="scale(0.015625)"/>
      </defs>
      <use xlink:href="#DejaVuSans-4c"/>
      <use xlink:href="#DejaVuSans-6f" x="53.962891"/>
      <use xlink:href="#DejaVuSans-67" x="115.144531"/>
      <use xlink:href="#DejaVuSans-4e" x="178.621094"/>
      <use xlink:href="#DejaVuSans-6f" x="253.425781"/>
      <use xlink:href="#DejaVuSans-72" x="314.607422"/>
      <use xlink:href="#DejaVuSans-6d" x="353.970703"/>
      <use xlink:href="#DejaVuSans-20" x="451.382812"/>
      <use xlink:href="#DejaVuSans-66" x="483.169922"/>
      <use xlink:href="#DejaVuSans-69" x="518.375"/>
      <use xlink:href="#DejaVuSans-74" x="546.158203"/>
     </g>
    </g>
    <g id="line2d_25">
     <path d="M 1019.17125 280.876875 
L 1043.17125 280.876875 
L 1067.17125 280.876875 
" style="fill: none; stroke: #e377c2; stroke-width: 2; stroke-linecap: square"/>
    </g>
    <g id="text_22">
     <!-- Normal fit -->
     <g transform="translate(1086.37125 289.276875)scale(0.24 -0.24)">
      <use xlink:href="#DejaVuSans-4e"/>
      <use xlink:href="#DejaVuSans-6f" x="74.804688"/>
      <use xlink:href="#DejaVuSans-72" x="135.986328"/>
      <use xlink:href="#DejaVuSans-6d" x="175.349609"/>
      <use xlink:href="#DejaVuSans-61" x="272.761719"/>
      <use xlink:href="#DejaVuSans-6c" x="334.041016"/>
      <use xlink:href="#DejaVuSans-20" x="361.824219"/>
      <use xlink:href="#DejaVuSans-66" x="393.611328"/>
      <use xlink:href="#DejaVuSans-69" x="428.816406"/>
      <use xlink:href="#DejaVuSans-74" x="456.599609"/>
     </g>
    </g>
   </g>
  </g>
 </g>
 <defs>
  <clipPath id="p474a861bce">
   <rect x="72.685313" y="38.075625" width="1356.514688" height="790.70375"/>
  </clipPath>
 </defs>
</svg>
