<?xml version="1.0" encoding="utf-8" standalone="no"?>
<!DOCTYPE svg PUBLIC "-//W3C//DTD SVG 1.1//EN"
  "http://www.w3.org/Graphics/SVG/1.1/DTD/svg11.dtd">
<svg xmlns:xlink="http://www.w3.org/1999/xlink" width="1440pt" height="864pt" viewBox="0 0 1440 864" xmlns="http://www.w3.org/2000/svg" version="1.1">
 <metadata>
  <rdf:RDF xmlns:dc="http://purl.org/dc/elements/1.1/" xmlns:cc="http://creativecommons.org/ns#" xmlns:rdf="http://www.w3.org/1999/02/22-rdf-syntax-ns#">
   <cc:Work>
    <dc:type rdf:resource="http://purl.org/dc/dcmitype/StillImage"/>
    <dc:date>2022-02-28T20:37:59.966172</dc:date>
    <dc:format>image/svg+xml</dc:format>
    <dc:creator>
     <cc:Agent>
      <dc:title>Matplotlib v3.5.1, https://matplotlib.org/</dc:title>
     </cc:Agent>
    </dc:creator>
   </cc:Work>
  </rdf:RDF>
 </metadata>
 <defs>
  <style type="text/css">*{stroke-linejoin: round; stroke-linecap: butt}</style>
 </defs>
 <g id="figure_1">
  <g id="patch_1">
   <path d="M 0 864 
L 1440 864 
L 1440 0 
L 0 0 
z
" style="fill: #ffffff"/>
  </g>
  <g id="axes_1">
   <g id="patch_2">
    <path d="M 72.685313 828.779375 
L 1429.2 828.779375 
L 1429.2 38.075625 
L 72.685313 38.075625 
z
" style="fill: #ffffff"/>
   </g>
   <g id="patch_3">
    <path d="M 134.345071 828.779375 
L 146.677023 828.779375 
L 146.677023 827.375302 
L 134.345071 827.375302 
z
" clip-path="url(#p33c6ac79cd)" style="fill: #1f77b4; opacity: 0.6"/>
   </g>
   <g id="patch_4">
    <path d="M 146.677023 828.779375 
L 159.008974 828.779375 
L 159.008974 825.971229 
L 146.677023 825.971229 
z
" clip-path="url(#p33c6ac79cd)" style="fill: #1f77b4; opacity: 0.6"/>
   </g>
   <g id="patch_5">
    <path d="M 159.008974 828.779375 
L 171.340926 828.779375 
L 171.340926 825.03518 
L 159.008974 825.03518 
z
" clip-path="url(#p33c6ac79cd)" style="fill: #1f77b4; opacity: 0.6"/>
   </g>
   <g id="patch_6">
    <path d="M 171.340926 828.779375 
L 183.672878 828.779375 
L 183.672878 819.418888 
L 171.340926 819.418888 
z
" clip-path="url(#p33c6ac79cd)" style="fill: #1f77b4; opacity: 0.6"/>
   </g>
   <g id="patch_7">
    <path d="M 183.672878 828.779375 
L 196.00483 828.779375 
L 196.00483 808.186303 
L 183.672878 808.186303 
z
" clip-path="url(#p33c6ac79cd)" style="fill: #1f77b4; opacity: 0.6"/>
   </g>
   <g id="patch_8">
    <path d="M 196.00483 828.779375 
L 208.336781 828.779375 
L 208.336781 796.485694 
L 196.00483 796.485694 
z
" clip-path="url(#p33c6ac79cd)" style="fill: #1f77b4; opacity: 0.6"/>
   </g>
   <g id="patch_9">
    <path d="M 208.336781 828.779375 
L 220.668733 828.779375 
L 220.668733 782.912988 
L 208.336781 782.912988 
z
" clip-path="url(#p33c6ac79cd)" style="fill: #1f77b4; opacity: 0.6"/>
   </g>
   <g id="patch_10">
    <path d="M 220.668733 828.779375 
L 233.000685 828.779375 
L 233.000685 761.383868 
L 220.668733 761.383868 
z
" clip-path="url(#p33c6ac79cd)" style="fill: #1f77b4; opacity: 0.6"/>
   </g>
   <g id="patch_11">
    <path d="M 233.000685 828.779375 
L 245.332636 828.779375 
L 245.332636 745.939064 
L 233.000685 745.939064 
z
" clip-path="url(#p33c6ac79cd)" style="fill: #1f77b4; opacity: 0.6"/>
   </g>
   <g id="patch_12">
    <path d="M 245.332636 828.779375 
L 257.664588 828.779375 
L 257.664588 715.049456 
L 245.332636 715.049456 
z
" clip-path="url(#p33c6ac79cd)" style="fill: #1f77b4; opacity: 0.6"/>
   </g>
   <g id="patch_13">
    <path d="M 257.664588 828.779375 
L 269.99654 828.779375 
L 269.99654 683.691824 
L 257.664588 683.691824 
z
" clip-path="url(#p33c6ac79cd)" style="fill: #1f77b4; opacity: 0.6"/>
   </g>
   <g id="patch_14">
    <path d="M 269.99654 828.779375 
L 282.328491 828.779375 
L 282.328491 620.040512 
L 269.99654 620.040512 
z
" clip-path="url(#p33c6ac79cd)" style="fill: #1f77b4; opacity: 0.6"/>
   </g>
   <g id="patch_15">
    <path d="M 282.328491 828.779375 
L 294.660443 828.779375 
L 294.660443 613.956195 
L 282.328491 613.956195 
z
" clip-path="url(#p33c6ac79cd)" style="fill: #1f77b4; opacity: 0.6"/>
   </g>
   <g id="patch_16">
    <path d="M 294.660443 828.779375 
L 306.992395 828.779375 
L 306.992395 561.069443 
L 294.660443 561.069443 
z
" clip-path="url(#p33c6ac79cd)" style="fill: #1f77b4; opacity: 0.6"/>
   </g>
   <g id="patch_17">
    <path d="M 306.992395 828.779375 
L 319.324347 828.779375 
L 319.324347 521.287372 
L 306.992395 521.287372 
z
" clip-path="url(#p33c6ac79cd)" style="fill: #1f77b4; opacity: 0.6"/>
   </g>
   <g id="patch_18">
    <path d="M 319.324347 828.779375 
L 331.656298 828.779375 
L 331.656298 475.420985 
L 319.324347 475.420985 
z
" clip-path="url(#p33c6ac79cd)" style="fill: #1f77b4; opacity: 0.6"/>
   </g>
   <g id="patch_19">
    <path d="M 331.656298 828.779375 
L 343.98825 828.779375 
L 343.98825 429.086574 
L 331.656298 429.086574 
z
" clip-path="url(#p33c6ac79cd)" style="fill: #1f77b4; opacity: 0.6"/>
   </g>
   <g id="patch_20">
    <path d="M 343.98825 828.779375 
L 356.320202 828.779375 
L 356.320202 391.644626 
L 343.98825 391.644626 
z
" clip-path="url(#p33c6ac79cd)" style="fill: #1f77b4; opacity: 0.6"/>
   </g>
   <g id="patch_21">
    <path d="M 356.320202 828.779375 
L 368.652153 828.779375 
L 368.652153 321.908996 
L 356.320202 321.908996 
z
" clip-path="url(#p33c6ac79cd)" style="fill: #1f77b4; opacity: 0.6"/>
   </g>
   <g id="patch_22">
    <path d="M 368.652153 828.779375 
L 380.984105 828.779375 
L 380.984105 288.679267 
L 368.652153 288.679267 
z
" clip-path="url(#p33c6ac79cd)" style="fill: #1f77b4; opacity: 0.6"/>
   </g>
   <g id="patch_23">
    <path d="M 380.984105 828.779375 
L 393.316057 828.779375 
L 393.316057 281.658902 
L 380.984105 281.658902 
z
" clip-path="url(#p33c6ac79cd)" style="fill: #1f77b4; opacity: 0.6"/>
   </g>
   <g id="patch_24">
    <path d="M 393.316057 828.779375 
L 405.648009 828.779375 
L 405.648009 239.068685 
L 393.316057 239.068685 
z
" clip-path="url(#p33c6ac79cd)" style="fill: #1f77b4; opacity: 0.6"/>
   </g>
   <g id="patch_25">
    <path d="M 405.648009 828.779375 
L 417.97996 828.779375 
L 417.97996 197.414517 
L 405.648009 197.414517 
z
" clip-path="url(#p33c6ac79cd)" style="fill: #1f77b4; opacity: 0.6"/>
   </g>
   <g id="patch_26">
    <path d="M 417.97996 828.779375 
L 430.311912 828.779375 
L 430.311912 160.440593 
L 417.97996 160.440593 
z
" clip-path="url(#p33c6ac79cd)" style="fill: #1f77b4; opacity: 0.6"/>
   </g>
   <g id="patch_27">
    <path d="M 430.311912 828.779375 
L 442.643864 828.779375 
L 442.643864 129.550986 
L 430.311912 129.550986 
z
" clip-path="url(#p33c6ac79cd)" style="fill: #1f77b4; opacity: 0.6"/>
   </g>
   <g id="patch_28">
    <path d="M 442.643864 828.779375 
L 454.975815 828.779375 
L 454.975815 99.129402 
L 442.643864 99.129402 
z
" clip-path="url(#p33c6ac79cd)" style="fill: #1f77b4; opacity: 0.6"/>
   </g>
   <g id="patch_29">
    <path d="M 454.975815 828.779375 
L 467.307767 828.779375 
L 467.307767 79.472379 
L 454.975815 79.472379 
z
" clip-path="url(#p33c6ac79cd)" style="fill: #1f77b4; opacity: 0.6"/>
   </g>
   <g id="patch_30">
    <path d="M 467.307767 828.779375 
L 479.639719 828.779375 
L 479.639719 116.914328 
L 467.307767 116.914328 
z
" clip-path="url(#p33c6ac79cd)" style="fill: #1f77b4; opacity: 0.6"/>
   </g>
   <g id="patch_31">
    <path d="M 479.639719 828.779375 
L 491.97167 828.779375 
L 491.97167 91.172988 
L 479.639719 91.172988 
z
" clip-path="url(#p33c6ac79cd)" style="fill: #1f77b4; opacity: 0.6"/>
   </g>
   <g id="patch_32">
    <path d="M 491.97167 828.779375 
L 504.303622 828.779375 
L 504.303622 75.728185 
L 491.97167 75.728185 
z
" clip-path="url(#p33c6ac79cd)" style="fill: #1f77b4; opacity: 0.6"/>
   </g>
   <g id="patch_33">
    <path d="M 504.303622 828.779375 
L 516.635574 828.779375 
L 516.635574 79.472379 
L 504.303622 79.472379 
z
" clip-path="url(#p33c6ac79cd)" style="fill: #1f77b4; opacity: 0.6"/>
   </g>
   <g id="patch_34">
    <path d="M 516.635574 828.779375 
L 528.967526 828.779375 
L 528.967526 92.577061 
L 516.635574 92.577061 
z
" clip-path="url(#p33c6ac79cd)" style="fill: #1f77b4; opacity: 0.6"/>
   </g>
   <g id="patch_35">
    <path d="M 528.967526 828.779375 
L 541.299477 828.779375 
L 541.299477 94.449159 
L 528.967526 94.449159 
z
" clip-path="url(#p33c6ac79cd)" style="fill: #1f77b4; opacity: 0.6"/>
   </g>
   <g id="patch_36">
    <path d="M 541.299477 828.779375 
L 553.631429 828.779375 
L 553.631429 102.405573 
L 541.299477 102.405573 
z
" clip-path="url(#p33c6ac79cd)" style="fill: #1f77b4; opacity: 0.6"/>
   </g>
   <g id="patch_37">
    <path d="M 553.631429 828.779375 
L 565.963381 828.779375 
L 565.963381 101.469524 
L 553.631429 101.469524 
z
" clip-path="url(#p33c6ac79cd)" style="fill: #1f77b4; opacity: 0.6"/>
   </g>
   <g id="patch_38">
    <path d="M 565.963381 828.779375 
L 578.295332 828.779375 
L 578.295332 137.5074 
L 565.963381 137.5074 
z
" clip-path="url(#p33c6ac79cd)" style="fill: #1f77b4; opacity: 0.6"/>
   </g>
   <g id="patch_39">
    <path d="M 578.295332 828.779375 
L 590.627284 828.779375 
L 590.627284 150.612082 
L 578.295332 150.612082 
z
" clip-path="url(#p33c6ac79cd)" style="fill: #1f77b4; opacity: 0.6"/>
   </g>
   <g id="patch_40">
    <path d="M 590.627284 828.779375 
L 602.959236 828.779375 
L 602.959236 187.586006 
L 590.627284 187.586006 
z
" clip-path="url(#p33c6ac79cd)" style="fill: #1f77b4; opacity: 0.6"/>
   </g>
   <g id="patch_41">
    <path d="M 602.959236 828.779375 
L 615.291188 828.779375 
L 615.291188 240.940783 
L 602.959236 240.940783 
z
" clip-path="url(#p33c6ac79cd)" style="fill: #1f77b4; opacity: 0.6"/>
   </g>
   <g id="patch_42">
    <path d="M 615.291188 828.779375 
L 627.623139 828.779375 
L 627.623139 262.001879 
L 615.291188 262.001879 
z
" clip-path="url(#p33c6ac79cd)" style="fill: #1f77b4; opacity: 0.6"/>
   </g>
   <g id="patch_43">
    <path d="M 627.623139 828.779375 
L 639.955091 828.779375 
L 639.955091 281.658902 
L 627.623139 281.658902 
z
" clip-path="url(#p33c6ac79cd)" style="fill: #1f77b4; opacity: 0.6"/>
   </g>
   <g id="patch_44">
    <path d="M 639.955091 828.779375 
L 652.287043 828.779375 
L 652.287043 305.996168 
L 639.955091 305.996168 
z
" clip-path="url(#p33c6ac79cd)" style="fill: #1f77b4; opacity: 0.6"/>
   </g>
   <g id="patch_45">
    <path d="M 652.287043 828.779375 
L 664.618994 828.779375 
L 664.618994 364.499213 
L 652.287043 364.499213 
z
" clip-path="url(#p33c6ac79cd)" style="fill: #1f77b4; opacity: 0.6"/>
   </g>
   <g id="patch_46">
    <path d="M 664.618994 828.779375 
L 676.950946 828.779375 
L 676.950946 367.775383 
L 664.618994 367.775383 
z
" clip-path="url(#p33c6ac79cd)" style="fill: #1f77b4; opacity: 0.6"/>
   </g>
   <g id="patch_47">
    <path d="M 676.950946 828.779375 
L 689.282898 828.779375 
L 689.282898 397.728942 
L 676.950946 397.728942 
z
" clip-path="url(#p33c6ac79cd)" style="fill: #1f77b4; opacity: 0.6"/>
   </g>
   <g id="patch_48">
    <path d="M 689.282898 828.779375 
L 701.614849 828.779375 
L 701.614849 438.447061 
L 689.282898 438.447061 
z
" clip-path="url(#p33c6ac79cd)" style="fill: #1f77b4; opacity: 0.6"/>
   </g>
   <g id="patch_49">
    <path d="M 701.614849 828.779375 
L 713.946801 828.779375 
L 713.946801 489.461716 
L 701.614849 489.461716 
z
" clip-path="url(#p33c6ac79cd)" style="fill: #1f77b4; opacity: 0.6"/>
   </g>
   <g id="patch_50">
    <path d="M 713.946801 828.779375 
L 726.278753 828.779375 
L 726.278753 518.479226 
L 713.946801 518.479226 
z
" clip-path="url(#p33c6ac79cd)" style="fill: #1f77b4; opacity: 0.6"/>
   </g>
   <g id="patch_51">
    <path d="M 726.278753 828.779375 
L 738.610705 828.779375 
L 738.610705 534.392054 
L 726.278753 534.392054 
z
" clip-path="url(#p33c6ac79cd)" style="fill: #1f77b4; opacity: 0.6"/>
   </g>
   <g id="patch_52">
    <path d="M 738.610705 828.779375 
L 750.942656 828.779375 
L 750.942656 579.322393 
L 738.610705 579.322393 
z
" clip-path="url(#p33c6ac79cd)" style="fill: #1f77b4; opacity: 0.6"/>
   </g>
   <g id="patch_53">
    <path d="M 750.942656 828.779375 
L 763.274608 828.779375 
L 763.274608 580.258441 
L 750.942656 580.258441 
z
" clip-path="url(#p33c6ac79cd)" style="fill: #1f77b4; opacity: 0.6"/>
   </g>
   <g id="patch_54">
    <path d="M 763.274608 828.779375 
L 775.60656 828.779375 
L 775.60656 601.319537 
L 763.274608 601.319537 
z
" clip-path="url(#p33c6ac79cd)" style="fill: #1f77b4; opacity: 0.6"/>
   </g>
   <g id="patch_55">
    <path d="M 775.60656 828.779375 
L 787.938511 828.779375 
L 787.938511 640.633583 
L 775.60656 640.633583 
z
" clip-path="url(#p33c6ac79cd)" style="fill: #1f77b4; opacity: 0.6"/>
   </g>
   <g id="patch_56">
    <path d="M 787.938511 828.779375 
L 800.270463 828.779375 
L 800.270463 655.610363 
L 787.938511 655.610363 
z
" clip-path="url(#p33c6ac79cd)" style="fill: #1f77b4; opacity: 0.6"/>
   </g>
   <g id="patch_57">
    <path d="M 800.270463 828.779375 
L 812.602415 828.779375 
L 812.602415 672.927264 
L 800.270463 672.927264 
z
" clip-path="url(#p33c6ac79cd)" style="fill: #1f77b4; opacity: 0.6"/>
   </g>
   <g id="patch_58">
    <path d="M 812.602415 828.779375 
L 824.934366 828.779375 
L 824.934366 685.563922 
L 812.602415 685.563922 
z
" clip-path="url(#p33c6ac79cd)" style="fill: #1f77b4; opacity: 0.6"/>
   </g>
   <g id="patch_59">
    <path d="M 824.934366 828.779375 
L 837.266318 828.779375 
L 837.266318 714.113408 
L 824.934366 714.113408 
z
" clip-path="url(#p33c6ac79cd)" style="fill: #1f77b4; opacity: 0.6"/>
   </g>
   <g id="patch_60">
    <path d="M 837.266318 828.779375 
L 849.59827 828.779375 
L 849.59827 729.558211 
L 837.266318 729.558211 
z
" clip-path="url(#p33c6ac79cd)" style="fill: #1f77b4; opacity: 0.6"/>
   </g>
   <g id="patch_61">
    <path d="M 849.59827 828.779375 
L 861.930222 828.779375 
L 861.930222 738.918698 
L 849.59827 738.918698 
z
" clip-path="url(#p33c6ac79cd)" style="fill: #1f77b4; opacity: 0.6"/>
   </g>
   <g id="patch_62">
    <path d="M 861.930222 828.779375 
L 874.262173 828.779375 
L 874.262173 745.003015 
L 861.930222 745.003015 
z
" clip-path="url(#p33c6ac79cd)" style="fill: #1f77b4; opacity: 0.6"/>
   </g>
   <g id="patch_63">
    <path d="M 874.262173 828.779375 
L 886.594125 828.779375 
L 886.594125 762.787941 
L 874.262173 762.787941 
z
" clip-path="url(#p33c6ac79cd)" style="fill: #1f77b4; opacity: 0.6"/>
   </g>
   <g id="patch_64">
    <path d="M 886.594125 828.779375 
L 898.926077 828.779375 
L 898.926077 771.212379 
L 886.594125 771.212379 
z
" clip-path="url(#p33c6ac79cd)" style="fill: #1f77b4; opacity: 0.6"/>
   </g>
   <g id="patch_65">
    <path d="M 898.926077 828.779375 
L 911.258028 828.779375 
L 911.258028 781.976939 
L 898.926077 781.976939 
z
" clip-path="url(#p33c6ac79cd)" style="fill: #1f77b4; opacity: 0.6"/>
   </g>
   <g id="patch_66">
    <path d="M 911.258028 828.779375 
L 923.58998 828.779375 
L 923.58998 782.444964 
L 911.258028 782.444964 
z
" clip-path="url(#p33c6ac79cd)" style="fill: #1f77b4; opacity: 0.6"/>
   </g>
   <g id="patch_67">
    <path d="M 923.58998 828.779375 
L 935.921932 828.779375 
L 935.921932 795.549646 
L 923.58998 795.549646 
z
" clip-path="url(#p33c6ac79cd)" style="fill: #1f77b4; opacity: 0.6"/>
   </g>
   <g id="patch_68">
    <path d="M 935.921932 828.779375 
L 948.253884 828.779375 
L 948.253884 791.805451 
L 935.921932 791.805451 
z
" clip-path="url(#p33c6ac79cd)" style="fill: #1f77b4; opacity: 0.6"/>
   </g>
   <g id="patch_69">
    <path d="M 948.253884 828.779375 
L 960.585835 828.779375 
L 960.585835 798.357792 
L 948.253884 798.357792 
z
" clip-path="url(#p33c6ac79cd)" style="fill: #1f77b4; opacity: 0.6"/>
   </g>
   <g id="patch_70">
    <path d="M 960.585835 828.779375 
L 972.917787 828.779375 
L 972.917787 806.78223 
L 960.585835 806.78223 
z
" clip-path="url(#p33c6ac79cd)" style="fill: #1f77b4; opacity: 0.6"/>
   </g>
   <g id="patch_71">
    <path d="M 972.917787 828.779375 
L 985.249739 828.779375 
L 985.249739 810.994449 
L 972.917787 810.994449 
z
" clip-path="url(#p33c6ac79cd)" style="fill: #1f77b4; opacity: 0.6"/>
   </g>
   <g id="patch_72">
    <path d="M 985.249739 828.779375 
L 997.58169 828.779375 
L 997.58169 813.334571 
L 985.249739 813.334571 
z
" clip-path="url(#p33c6ac79cd)" style="fill: #1f77b4; opacity: 0.6"/>
   </g>
   <g id="patch_73">
    <path d="M 997.58169 828.779375 
L 1009.913642 828.779375 
L 1009.913642 816.610742 
L 997.58169 816.610742 
z
" clip-path="url(#p33c6ac79cd)" style="fill: #1f77b4; opacity: 0.6"/>
   </g>
   <g id="patch_74">
    <path d="M 1009.913642 828.779375 
L 1022.245594 828.779375 
L 1022.245594 815.674693 
L 1009.913642 815.674693 
z
" clip-path="url(#p33c6ac79cd)" style="fill: #1f77b4; opacity: 0.6"/>
   </g>
   <g id="patch_75">
    <path d="M 1022.245594 828.779375 
L 1034.577545 828.779375 
L 1034.577545 817.54679 
L 1022.245594 817.54679 
z
" clip-path="url(#p33c6ac79cd)" style="fill: #1f77b4; opacity: 0.6"/>
   </g>
   <g id="patch_76">
    <path d="M 1034.577545 828.779375 
L 1046.909497 828.779375 
L 1046.909497 822.695058 
L 1034.577545 822.695058 
z
" clip-path="url(#p33c6ac79cd)" style="fill: #1f77b4; opacity: 0.6"/>
   </g>
   <g id="patch_77">
    <path d="M 1046.909497 828.779375 
L 1059.241449 828.779375 
L 1059.241449 820.822961 
L 1046.909497 820.822961 
z
" clip-path="url(#p33c6ac79cd)" style="fill: #1f77b4; opacity: 0.6"/>
   </g>
   <g id="patch_78">
    <path d="M 1059.241449 828.779375 
L 1071.573401 828.779375 
L 1071.573401 823.631107 
L 1059.241449 823.631107 
z
" clip-path="url(#p33c6ac79cd)" style="fill: #1f77b4; opacity: 0.6"/>
   </g>
   <g id="patch_79">
    <path d="M 1071.573401 828.779375 
L 1083.905352 828.779375 
L 1083.905352 825.503205 
L 1071.573401 825.503205 
z
" clip-path="url(#p33c6ac79cd)" style="fill: #1f77b4; opacity: 0.6"/>
   </g>
   <g id="patch_80">
    <path d="M 1083.905352 828.779375 
L 1096.237304 828.779375 
L 1096.237304 825.03518 
L 1083.905352 825.03518 
z
" clip-path="url(#p33c6ac79cd)" style="fill: #1f77b4; opacity: 0.6"/>
   </g>
   <g id="patch_81">
    <path d="M 1096.237304 828.779375 
L 1108.569256 828.779375 
L 1108.569256 825.971229 
L 1096.237304 825.971229 
z
" clip-path="url(#p33c6ac79cd)" style="fill: #1f77b4; opacity: 0.6"/>
   </g>
   <g id="patch_82">
    <path d="M 1108.569256 828.779375 
L 1120.901207 828.779375 
L 1120.901207 825.503205 
L 1108.569256 825.503205 
z
" clip-path="url(#p33c6ac79cd)" style="fill: #1f77b4; opacity: 0.6"/>
   </g>
   <g id="patch_83">
    <path d="M 1120.901207 828.779375 
L 1133.233159 828.779375 
L 1133.233159 826.439253 
L 1120.901207 826.439253 
z
" clip-path="url(#p33c6ac79cd)" style="fill: #1f77b4; opacity: 0.6"/>
   </g>
   <g id="patch_84">
    <path d="M 1133.233159 828.779375 
L 1145.565111 828.779375 
L 1145.565111 826.907278 
L 1133.233159 826.907278 
z
" clip-path="url(#p33c6ac79cd)" style="fill: #1f77b4; opacity: 0.6"/>
   </g>
   <g id="patch_85">
    <path d="M 1145.565111 828.779375 
L 1157.897062 828.779375 
L 1157.897062 828.311351 
L 1145.565111 828.311351 
z
" clip-path="url(#p33c6ac79cd)" style="fill: #1f77b4; opacity: 0.6"/>
   </g>
   <g id="patch_86">
    <path d="M 1157.897062 828.779375 
L 1170.229014 828.779375 
L 1170.229014 828.311351 
L 1157.897062 828.311351 
z
" clip-path="url(#p33c6ac79cd)" style="fill: #1f77b4; opacity: 0.6"/>
   </g>
   <g id="patch_87">
    <path d="M 1170.229014 828.779375 
L 1182.560966 828.779375 
L 1182.560966 827.375302 
L 1170.229014 827.375302 
z
" clip-path="url(#p33c6ac79cd)" style="fill: #1f77b4; opacity: 0.6"/>
   </g>
   <g id="patch_88">
    <path d="M 1182.560966 828.779375 
L 1194.892918 828.779375 
L 1194.892918 828.779375 
L 1182.560966 828.779375 
z
" clip-path="url(#p33c6ac79cd)" style="fill: #1f77b4; opacity: 0.6"/>
   </g>
   <g id="patch_89">
    <path d="M 1194.892918 828.779375 
L 1207.224869 828.779375 
L 1207.224869 828.311351 
L 1194.892918 828.311351 
z
" clip-path="url(#p33c6ac79cd)" style="fill: #1f77b4; opacity: 0.6"/>
   </g>
   <g id="patch_90">
    <path d="M 1207.224869 828.779375 
L 1219.556821 828.779375 
L 1219.556821 828.779375 
L 1207.224869 828.779375 
z
" clip-path="url(#p33c6ac79cd)" style="fill: #1f77b4; opacity: 0.6"/>
   </g>
   <g id="patch_91">
    <path d="M 1219.556821 828.779375 
L 1231.888773 828.779375 
L 1231.888773 828.779375 
L 1219.556821 828.779375 
z
" clip-path="url(#p33c6ac79cd)" style="fill: #1f77b4; opacity: 0.6"/>
   </g>
   <g id="patch_92">
    <path d="M 1231.888773 828.779375 
L 1244.220724 828.779375 
L 1244.220724 827.843326 
L 1231.888773 827.843326 
z
" clip-path="url(#p33c6ac79cd)" style="fill: #1f77b4; opacity: 0.6"/>
   </g>
   <g id="patch_93">
    <path d="M 1244.220724 828.779375 
L 1256.552676 828.779375 
L 1256.552676 828.779375 
L 1244.220724 828.779375 
z
" clip-path="url(#p33c6ac79cd)" style="fill: #1f77b4; opacity: 0.6"/>
   </g>
   <g id="patch_94">
    <path d="M 1256.552676 828.779375 
L 1268.884628 828.779375 
L 1268.884628 828.779375 
L 1256.552676 828.779375 
z
" clip-path="url(#p33c6ac79cd)" style="fill: #1f77b4; opacity: 0.6"/>
   </g>
   <g id="patch_95">
    <path d="M 1268.884628 828.779375 
L 1281.21658 828.779375 
L 1281.21658 828.779375 
L 1268.884628 828.779375 
z
" clip-path="url(#p33c6ac79cd)" style="fill: #1f77b4; opacity: 0.6"/>
   </g>
   <g id="patch_96">
    <path d="M 1281.21658 828.779375 
L 1293.548531 828.779375 
L 1293.548531 828.779375 
L 1281.21658 828.779375 
z
" clip-path="url(#p33c6ac79cd)" style="fill: #1f77b4; opacity: 0.6"/>
   </g>
   <g id="patch_97">
    <path d="M 1293.548531 828.779375 
L 1305.880483 828.779375 
L 1305.880483 828.779375 
L 1293.548531 828.779375 
z
" clip-path="url(#p33c6ac79cd)" style="fill: #1f77b4; opacity: 0.6"/>
   </g>
   <g id="patch_98">
    <path d="M 1305.880483 828.779375 
L 1318.212435 828.779375 
L 1318.212435 828.779375 
L 1305.880483 828.779375 
z
" clip-path="url(#p33c6ac79cd)" style="fill: #1f77b4; opacity: 0.6"/>
   </g>
   <g id="patch_99">
    <path d="M 1318.212435 828.779375 
L 1330.544386 828.779375 
L 1330.544386 828.779375 
L 1318.212435 828.779375 
z
" clip-path="url(#p33c6ac79cd)" style="fill: #1f77b4; opacity: 0.6"/>
   </g>
   <g id="patch_100">
    <path d="M 1330.544386 828.779375 
L 1342.876338 828.779375 
L 1342.876338 828.779375 
L 1330.544386 828.779375 
z
" clip-path="url(#p33c6ac79cd)" style="fill: #1f77b4; opacity: 0.6"/>
   </g>
   <g id="patch_101">
    <path d="M 1342.876338 828.779375 
L 1355.20829 828.779375 
L 1355.20829 828.779375 
L 1342.876338 828.779375 
z
" clip-path="url(#p33c6ac79cd)" style="fill: #1f77b4; opacity: 0.6"/>
   </g>
   <g id="patch_102">
    <path d="M 1355.20829 828.779375 
L 1367.540241 828.779375 
L 1367.540241 827.843326 
L 1355.20829 827.843326 
z
" clip-path="url(#p33c6ac79cd)" style="fill: #1f77b4; opacity: 0.6"/>
   </g>
   <g id="matplotlib.axis_1">
    <g id="xtick_1">
     <g id="line2d_1">
      <defs>
       <path id="md384f99ac9" d="M 0 0 
L 0 3.5 
" style="stroke: #000000; stroke-width: 0.8"/>
      </defs>
      <g>
       <use xlink:href="#md384f99ac9" x="117.993066" y="828.779375" style="stroke: #000000; stroke-width: 0.8"/>
      </g>
     </g>
     <g id="text_1">
      <!-- 0 -->
      <g transform="translate(112.266816 849.456562)scale(0.18 -0.18)">
       <defs>
        <path id="DejaVuSans-30" d="M 2034 4250 
Q 1547 4250 1301 3770 
Q 1056 3291 1056 2328 
Q 1056 1369 1301 889 
Q 1547 409 2034 409 
Q 2525 409 2770 889 
Q 3016 1369 3016 2328 
Q 3016 3291 2770 3770 
Q 2525 4250 2034 4250 
z
M 2034 4750 
Q 2819 4750 3233 4129 
Q 3647 3509 3647 2328 
Q 3647 1150 3233 529 
Q 2819 -91 2034 -91 
Q 1250 -91 836 529 
Q 422 1150 422 2328 
Q 422 3509 836 4129 
Q 1250 4750 2034 4750 
z
" transform="scale(0.015625)"/>
       </defs>
       <use xlink:href="#DejaVuSans-30"/>
      </g>
     </g>
    </g>
    <g id="xtick_2">
     <g id="line2d_2">
      <g>
       <use xlink:href="#md384f99ac9" x="338.546072" y="828.779375" style="stroke: #000000; stroke-width: 0.8"/>
      </g>
     </g>
     <g id="text_2">
      <!-- 1 -->
      <g transform="translate(332.819822 849.456562)scale(0.18 -0.18)">
       <defs>
        <path id="DejaVuSans-31" d="M 794 531 
L 1825 531 
L 1825 4091 
L 703 3866 
L 703 4441 
L 1819 4666 
L 2450 4666 
L 2450 531 
L 3481 531 
L 3481 0 
L 794 0 
L 794 531 
z
" transform="scale(0.015625)"/>
       </defs>
       <use xlink:href="#DejaVuSans-31"/>
      </g>
     </g>
    </g>
    <g id="xtick_3">
     <g id="line2d_3">
      <g>
       <use xlink:href="#md384f99ac9" x="559.099077" y="828.779375" style="stroke: #000000; stroke-width: 0.8"/>
      </g>
     </g>
     <g id="text_3">
      <!-- 2 -->
      <g transform="translate(553.372827 849.456562)scale(0.18 -0.18)">
       <defs>
        <path id="DejaVuSans-32" d="M 1228 531 
L 3431 531 
L 3431 0 
L 469 0 
L 469 531 
Q 828 903 1448 1529 
Q 2069 2156 2228 2338 
Q 2531 2678 2651 2914 
Q 2772 3150 2772 3378 
Q 2772 3750 2511 3984 
Q 2250 4219 1831 4219 
Q 1534 4219 1204 4116 
Q 875 4013 500 3803 
L 500 4441 
Q 881 4594 1212 4672 
Q 1544 4750 1819 4750 
Q 2544 4750 2975 4387 
Q 3406 4025 3406 3419 
Q 3406 3131 3298 2873 
Q 3191 2616 2906 2266 
Q 2828 2175 2409 1742 
Q 1991 1309 1228 531 
z
" transform="scale(0.015625)"/>
       </defs>
       <use xlink:href="#DejaVuSans-32"/>
      </g>
     </g>
    </g>
    <g id="xtick_4">
     <g id="line2d_4">
      <g>
       <use xlink:href="#md384f99ac9" x="779.652083" y="828.779375" style="stroke: #000000; stroke-width: 0.8"/>
      </g>
     </g>
     <g id="text_4">
      <!-- 3 -->
      <g transform="translate(773.925833 849.456562)scale(0.18 -0.18)">
       <defs>
        <path id="DejaVuSans-33" d="M 2597 2516 
Q 3050 2419 3304 2112 
Q 3559 1806 3559 1356 
Q 3559 666 3084 287 
Q 2609 -91 1734 -91 
Q 1441 -91 1130 -33 
Q 819 25 488 141 
L 488 750 
Q 750 597 1062 519 
Q 1375 441 1716 441 
Q 2309 441 2620 675 
Q 2931 909 2931 1356 
Q 2931 1769 2642 2001 
Q 2353 2234 1838 2234 
L 1294 2234 
L 1294 2753 
L 1863 2753 
Q 2328 2753 2575 2939 
Q 2822 3125 2822 3475 
Q 2822 3834 2567 4026 
Q 2313 4219 1838 4219 
Q 1578 4219 1281 4162 
Q 984 4106 628 3988 
L 628 4550 
Q 988 4650 1302 4700 
Q 1616 4750 1894 4750 
Q 2613 4750 3031 4423 
Q 3450 4097 3450 3541 
Q 3450 3153 3228 2886 
Q 3006 2619 2597 2516 
z
" transform="scale(0.015625)"/>
       </defs>
       <use xlink:href="#DejaVuSans-33"/>
      </g>
     </g>
    </g>
    <g id="xtick_5">
     <g id="line2d_5">
      <g>
       <use xlink:href="#md384f99ac9" x="1000.205089" y="828.779375" style="stroke: #000000; stroke-width: 0.8"/>
      </g>
     </g>
     <g id="text_5">
      <!-- 4 -->
      <g transform="translate(994.478839 849.456562)scale(0.18 -0.18)">
       <defs>
        <path id="DejaVuSans-34" d="M 2419 4116 
L 825 1625 
L 2419 1625 
L 2419 4116 
z
M 2253 4666 
L 3047 4666 
L 3047 1625 
L 3713 1625 
L 3713 1100 
L 3047 1100 
L 3047 0 
L 2419 0 
L 2419 1100 
L 313 1100 
L 313 1709 
L 2253 4666 
z
" transform="scale(0.015625)"/>
       </defs>
       <use xlink:href="#DejaVuSans-34"/>
      </g>
     </g>
    </g>
    <g id="xtick_6">
     <g id="line2d_6">
      <g>
       <use xlink:href="#md384f99ac9" x="1220.758094" y="828.779375" style="stroke: #000000; stroke-width: 0.8"/>
      </g>
     </g>
     <g id="text_6">
      <!-- 5 -->
      <g transform="translate(1215.031844 849.456562)scale(0.18 -0.18)">
       <defs>
        <path id="DejaVuSans-35" d="M 691 4666 
L 3169 4666 
L 3169 4134 
L 1269 4134 
L 1269 2991 
Q 1406 3038 1543 3061 
Q 1681 3084 1819 3084 
Q 2600 3084 3056 2656 
Q 3513 2228 3513 1497 
Q 3513 744 3044 326 
Q 2575 -91 1722 -91 
Q 1428 -91 1123 -41 
Q 819 9 494 109 
L 494 744 
Q 775 591 1075 516 
Q 1375 441 1709 441 
Q 2250 441 2565 725 
Q 2881 1009 2881 1497 
Q 2881 1984 2565 2268 
Q 2250 2553 1709 2553 
Q 1456 2553 1204 2497 
Q 953 2441 691 2322 
L 691 4666 
z
" transform="scale(0.015625)"/>
       </defs>
       <use xlink:href="#DejaVuSans-35"/>
      </g>
     </g>
    </g>
   </g>
   <g id="matplotlib.axis_2">
    <g id="ytick_1">
     <g id="line2d_7">
      <defs>
       <path id="m5de4b12534" d="M 0 0 
L -3.5 0 
" style="stroke: #000000; stroke-width: 0.8"/>
      </defs>
      <g>
       <use xlink:href="#m5de4b12534" x="72.685313" y="828.779375" style="stroke: #000000; stroke-width: 0.8"/>
      </g>
     </g>
     <g id="text_7">
      <!-- 0.0 -->
      <g transform="translate(37.059688 835.617969)scale(0.18 -0.18)">
       <defs>
        <path id="DejaVuSans-2e" d="M 684 794 
L 1344 794 
L 1344 0 
L 684 0 
L 684 794 
z
" transform="scale(0.015625)"/>
       </defs>
       <use xlink:href="#DejaVuSans-30"/>
       <use xlink:href="#DejaVuSans-2e" x="63.623047"/>
       <use xlink:href="#DejaVuSans-30" x="95.410156"/>
      </g>
     </g>
    </g>
    <g id="ytick_2">
     <g id="line2d_8">
      <g>
       <use xlink:href="#m5de4b12534" x="72.685313" y="697.934326" style="stroke: #000000; stroke-width: 0.8"/>
      </g>
     </g>
     <g id="text_8">
      <!-- 0.1 -->
      <g transform="translate(37.059688 704.77292)scale(0.18 -0.18)">
       <use xlink:href="#DejaVuSans-30"/>
       <use xlink:href="#DejaVuSans-2e" x="63.623047"/>
       <use xlink:href="#DejaVuSans-31" x="95.410156"/>
      </g>
     </g>
    </g>
    <g id="ytick_3">
     <g id="line2d_9">
      <g>
       <use xlink:href="#m5de4b12534" x="72.685313" y="567.089277" style="stroke: #000000; stroke-width: 0.8"/>
      </g>
     </g>
     <g id="text_9">
      <!-- 0.2 -->
      <g transform="translate(37.059688 573.927871)scale(0.18 -0.18)">
       <use xlink:href="#DejaVuSans-30"/>
       <use xlink:href="#DejaVuSans-2e" x="63.623047"/>
       <use xlink:href="#DejaVuSans-32" x="95.410156"/>
      </g>
     </g>
    </g>
    <g id="ytick_4">
     <g id="line2d_10">
      <g>
       <use xlink:href="#m5de4b12534" x="72.685313" y="436.244228" style="stroke: #000000; stroke-width: 0.8"/>
      </g>
     </g>
     <g id="text_10">
      <!-- 0.3 -->
      <g transform="translate(37.059688 443.082822)scale(0.18 -0.18)">
       <use xlink:href="#DejaVuSans-30"/>
       <use xlink:href="#DejaVuSans-2e" x="63.623047"/>
       <use xlink:href="#DejaVuSans-33" x="95.410156"/>
      </g>
     </g>
    </g>
    <g id="ytick_5">
     <g id="line2d_11">
      <g>
       <use xlink:href="#m5de4b12534" x="72.685313" y="305.399179" style="stroke: #000000; stroke-width: 0.8"/>
      </g>
     </g>
     <g id="text_11">
      <!-- 0.4 -->
      <g transform="translate(37.059688 312.237773)scale(0.18 -0.18)">
       <use xlink:href="#DejaVuSans-30"/>
       <use xlink:href="#DejaVuSans-2e" x="63.623047"/>
       <use xlink:href="#DejaVuSans-34" x="95.410156"/>
      </g>
     </g>
    </g>
    <g id="ytick_6">
     <g id="line2d_12">
      <g>
       <use xlink:href="#m5de4b12534" x="72.685313" y="174.55413" style="stroke: #000000; stroke-width: 0.8"/>
      </g>
     </g>
     <g id="text_12">
      <!-- 0.5 -->
      <g transform="translate(37.059688 181.392724)scale(0.18 -0.18)">
       <use xlink:href="#DejaVuSans-30"/>
       <use xlink:href="#DejaVuSans-2e" x="63.623047"/>
       <use xlink:href="#DejaVuSans-35" x="95.410156"/>
      </g>
     </g>
    </g>
    <g id="ytick_7">
     <g id="line2d_13">
      <g>
       <use xlink:href="#m5de4b12534" x="72.685313" y="43.709081" style="stroke: #000000; stroke-width: 0.8"/>
      </g>
     </g>
     <g id="text_13">
      <!-- 0.6 -->
      <g transform="translate(37.059688 50.547674)scale(0.18 -0.18)">
       <defs>
        <path id="DejaVuSans-36" d="M 2113 2584 
Q 1688 2584 1439 2293 
Q 1191 2003 1191 1497 
Q 1191 994 1439 701 
Q 1688 409 2113 409 
Q 2538 409 2786 701 
Q 3034 994 3034 1497 
Q 3034 2003 2786 2293 
Q 2538 2584 2113 2584 
z
M 3366 4563 
L 3366 3988 
Q 3128 4100 2886 4159 
Q 2644 4219 2406 4219 
Q 1781 4219 1451 3797 
Q 1122 3375 1075 2522 
Q 1259 2794 1537 2939 
Q 1816 3084 2150 3084 
Q 2853 3084 3261 2657 
Q 3669 2231 3669 1497 
Q 3669 778 3244 343 
Q 2819 -91 2113 -91 
Q 1303 -91 875 529 
Q 447 1150 447 2328 
Q 447 3434 972 4092 
Q 1497 4750 2381 4750 
Q 2619 4750 2861 4703 
Q 3103 4656 3366 4563 
z
" transform="scale(0.015625)"/>
       </defs>
       <use xlink:href="#DejaVuSans-30"/>
       <use xlink:href="#DejaVuSans-2e" x="63.623047"/>
       <use xlink:href="#DejaVuSans-36" x="95.410156"/>
      </g>
     </g>
    </g>
    <g id="text_14">
     <!-- Normed Hist Counts -->
     <g transform="translate(28.276406 548.966563)rotate(-90)scale(0.23 -0.23)">
      <defs>
       <path id="DejaVuSans-4e" d="M 628 4666 
L 1478 4666 
L 3547 763 
L 3547 4666 
L 4159 4666 
L 4159 0 
L 3309 0 
L 1241 3903 
L 1241 0 
L 628 0 
L 628 4666 
z
" transform="scale(0.015625)"/>
       <path id="DejaVuSans-6f" d="M 1959 3097 
Q 1497 3097 1228 2736 
Q 959 2375 959 1747 
Q 959 1119 1226 758 
Q 1494 397 1959 397 
Q 2419 397 2687 759 
Q 2956 1122 2956 1747 
Q 2956 2369 2687 2733 
Q 2419 3097 1959 3097 
z
M 1959 3584 
Q 2709 3584 3137 3096 
Q 3566 2609 3566 1747 
Q 3566 888 3137 398 
Q 2709 -91 1959 -91 
Q 1206 -91 779 398 
Q 353 888 353 1747 
Q 353 2609 779 3096 
Q 1206 3584 1959 3584 
z
" transform="scale(0.015625)"/>
       <path id="DejaVuSans-72" d="M 2631 2963 
Q 2534 3019 2420 3045 
Q 2306 3072 2169 3072 
Q 1681 3072 1420 2755 
Q 1159 2438 1159 1844 
L 1159 0 
L 581 0 
L 581 3500 
L 1159 3500 
L 1159 2956 
Q 1341 3275 1631 3429 
Q 1922 3584 2338 3584 
Q 2397 3584 2469 3576 
Q 2541 3569 2628 3553 
L 2631 2963 
z
" transform="scale(0.015625)"/>
       <path id="DejaVuSans-6d" d="M 3328 2828 
Q 3544 3216 3844 3400 
Q 4144 3584 4550 3584 
Q 5097 3584 5394 3201 
Q 5691 2819 5691 2113 
L 5691 0 
L 5113 0 
L 5113 2094 
Q 5113 2597 4934 2840 
Q 4756 3084 4391 3084 
Q 3944 3084 3684 2787 
Q 3425 2491 3425 1978 
L 3425 0 
L 2847 0 
L 2847 2094 
Q 2847 2600 2669 2842 
Q 2491 3084 2119 3084 
Q 1678 3084 1418 2786 
Q 1159 2488 1159 1978 
L 1159 0 
L 581 0 
L 581 3500 
L 1159 3500 
L 1159 2956 
Q 1356 3278 1631 3431 
Q 1906 3584 2284 3584 
Q 2666 3584 2933 3390 
Q 3200 3197 3328 2828 
z
" transform="scale(0.015625)"/>
       <path id="DejaVuSans-65" d="M 3597 1894 
L 3597 1613 
L 953 1613 
Q 991 1019 1311 708 
Q 1631 397 2203 397 
Q 2534 397 2845 478 
Q 3156 559 3463 722 
L 3463 178 
Q 3153 47 2828 -22 
Q 2503 -91 2169 -91 
Q 1331 -91 842 396 
Q 353 884 353 1716 
Q 353 2575 817 3079 
Q 1281 3584 2069 3584 
Q 2775 3584 3186 3129 
Q 3597 2675 3597 1894 
z
M 3022 2063 
Q 3016 2534 2758 2815 
Q 2500 3097 2075 3097 
Q 1594 3097 1305 2825 
Q 1016 2553 972 2059 
L 3022 2063 
z
" transform="scale(0.015625)"/>
       <path id="DejaVuSans-64" d="M 2906 2969 
L 2906 4863 
L 3481 4863 
L 3481 0 
L 2906 0 
L 2906 525 
Q 2725 213 2448 61 
Q 2172 -91 1784 -91 
Q 1150 -91 751 415 
Q 353 922 353 1747 
Q 353 2572 751 3078 
Q 1150 3584 1784 3584 
Q 2172 3584 2448 3432 
Q 2725 3281 2906 2969 
z
M 947 1747 
Q 947 1113 1208 752 
Q 1469 391 1925 391 
Q 2381 391 2643 752 
Q 2906 1113 2906 1747 
Q 2906 2381 2643 2742 
Q 2381 3103 1925 3103 
Q 1469 3103 1208 2742 
Q 947 2381 947 1747 
z
" transform="scale(0.015625)"/>
       <path id="DejaVuSans-20" transform="scale(0.015625)"/>
       <path id="DejaVuSans-48" d="M 628 4666 
L 1259 4666 
L 1259 2753 
L 3553 2753 
L 3553 4666 
L 4184 4666 
L 4184 0 
L 3553 0 
L 3553 2222 
L 1259 2222 
L 1259 0 
L 628 0 
L 628 4666 
z
" transform="scale(0.015625)"/>
       <path id="DejaVuSans-69" d="M 603 3500 
L 1178 3500 
L 1178 0 
L 603 0 
L 603 3500 
z
M 603 4863 
L 1178 4863 
L 1178 4134 
L 603 4134 
L 603 4863 
z
" transform="scale(0.015625)"/>
       <path id="DejaVuSans-73" d="M 2834 3397 
L 2834 2853 
Q 2591 2978 2328 3040 
Q 2066 3103 1784 3103 
Q 1356 3103 1142 2972 
Q 928 2841 928 2578 
Q 928 2378 1081 2264 
Q 1234 2150 1697 2047 
L 1894 2003 
Q 2506 1872 2764 1633 
Q 3022 1394 3022 966 
Q 3022 478 2636 193 
Q 2250 -91 1575 -91 
Q 1294 -91 989 -36 
Q 684 19 347 128 
L 347 722 
Q 666 556 975 473 
Q 1284 391 1588 391 
Q 1994 391 2212 530 
Q 2431 669 2431 922 
Q 2431 1156 2273 1281 
Q 2116 1406 1581 1522 
L 1381 1569 
Q 847 1681 609 1914 
Q 372 2147 372 2553 
Q 372 3047 722 3315 
Q 1072 3584 1716 3584 
Q 2034 3584 2315 3537 
Q 2597 3491 2834 3397 
z
" transform="scale(0.015625)"/>
       <path id="DejaVuSans-74" d="M 1172 4494 
L 1172 3500 
L 2356 3500 
L 2356 3053 
L 1172 3053 
L 1172 1153 
Q 1172 725 1289 603 
Q 1406 481 1766 481 
L 2356 481 
L 2356 0 
L 1766 0 
Q 1100 0 847 248 
Q 594 497 594 1153 
L 594 3053 
L 172 3053 
L 172 3500 
L 594 3500 
L 594 4494 
L 1172 4494 
z
" transform="scale(0.015625)"/>
       <path id="DejaVuSans-43" d="M 4122 4306 
L 4122 3641 
Q 3803 3938 3442 4084 
Q 3081 4231 2675 4231 
Q 1875 4231 1450 3742 
Q 1025 3253 1025 2328 
Q 1025 1406 1450 917 
Q 1875 428 2675 428 
Q 3081 428 3442 575 
Q 3803 722 4122 1019 
L 4122 359 
Q 3791 134 3420 21 
Q 3050 -91 2638 -91 
Q 1578 -91 968 557 
Q 359 1206 359 2328 
Q 359 3453 968 4101 
Q 1578 4750 2638 4750 
Q 3056 4750 3426 4639 
Q 3797 4528 4122 4306 
z
" transform="scale(0.015625)"/>
       <path id="DejaVuSans-75" d="M 544 1381 
L 544 3500 
L 1119 3500 
L 1119 1403 
Q 1119 906 1312 657 
Q 1506 409 1894 409 
Q 2359 409 2629 706 
Q 2900 1003 2900 1516 
L 2900 3500 
L 3475 3500 
L 3475 0 
L 2900 0 
L 2900 538 
Q 2691 219 2414 64 
Q 2138 -91 1772 -91 
Q 1169 -91 856 284 
Q 544 659 544 1381 
z
M 1991 3584 
L 1991 3584 
z
" transform="scale(0.015625)"/>
       <path id="DejaVuSans-6e" d="M 3513 2113 
L 3513 0 
L 2938 0 
L 2938 2094 
Q 2938 2591 2744 2837 
Q 2550 3084 2163 3084 
Q 1697 3084 1428 2787 
Q 1159 2491 1159 1978 
L 1159 0 
L 581 0 
L 581 3500 
L 1159 3500 
L 1159 2956 
Q 1366 3272 1645 3428 
Q 1925 3584 2291 3584 
Q 2894 3584 3203 3211 
Q 3513 2838 3513 2113 
z
" transform="scale(0.015625)"/>
      </defs>
      <use xlink:href="#DejaVuSans-4e"/>
      <use xlink:href="#DejaVuSans-6f" x="74.804688"/>
      <use xlink:href="#DejaVuSans-72" x="135.986328"/>
      <use xlink:href="#DejaVuSans-6d" x="175.349609"/>
      <use xlink:href="#DejaVuSans-65" x="272.761719"/>
      <use xlink:href="#DejaVuSans-64" x="334.285156"/>
      <use xlink:href="#DejaVuSans-20" x="397.761719"/>
      <use xlink:href="#DejaVuSans-48" x="429.548828"/>
      <use xlink:href="#DejaVuSans-69" x="504.744141"/>
      <use xlink:href="#DejaVuSans-73" x="532.527344"/>
      <use xlink:href="#DejaVuSans-74" x="584.626953"/>
      <use xlink:href="#DejaVuSans-20" x="623.835938"/>
      <use xlink:href="#DejaVuSans-43" x="655.623047"/>
      <use xlink:href="#DejaVuSans-6f" x="725.447266"/>
      <use xlink:href="#DejaVuSans-75" x="786.628906"/>
      <use xlink:href="#DejaVuSans-6e" x="850.007812"/>
      <use xlink:href="#DejaVuSans-74" x="913.386719"/>
      <use xlink:href="#DejaVuSans-73" x="952.595703"/>
     </g>
    </g>
   </g>
   <g id="line2d_14">
    <path d="M 137.428059 828.496231 
L 143.594035 828.030902 
L 149.760011 827.229985 
L 155.925987 826.009551 
L 162.091962 824.29002 
L 168.257938 821.996533 
L 174.423914 819.059364 
L 180.58989 815.414332 
L 186.755866 811.003197 
L 192.921842 805.774025 
L 199.087817 799.681516 
L 205.253793 792.687298 
L 211.419769 784.76016 
L 217.585745 775.876249 
L 223.751721 766.019203 
L 229.917697 755.180238 
L 236.083673 743.358178 
L 242.249648 730.559429 
L 248.415624 716.797897 
L 254.5816 702.09486 
L 260.747576 686.478775 
L 266.913552 669.985047 
L 273.079528 652.655744 
L 279.245504 634.539265 
L 285.411479 615.68997 
L 291.577455 596.167769 
L 297.743431 576.037676 
L 303.909407 555.369331 
L 316.241359 512.716538 
L 328.57331 468.839362 
L 359.40319 358.233841 
L 371.735141 315.44299 
L 377.901117 294.697903 
L 384.067093 274.494009 
L 390.233069 254.908541 
L 396.399045 236.015411 
L 402.565021 217.884813 
L 408.730996 200.582857 
L 414.896972 184.171241 
L 421.062948 168.70696 
L 427.228924 154.242052 
L 433.3949 140.823385 
L 439.560876 128.492488 
L 445.726852 117.285409 
L 451.892827 107.232633 
L 458.058803 98.359017 
L 464.224779 90.683783 
L 470.390755 84.220533 
L 476.556731 78.977313 
L 482.722707 74.956699 
L 488.888683 72.155926 
L 495.054658 70.567039 
L 501.220634 70.177079 
L 507.38661 70.968291 
L 513.552586 72.918356 
L 519.718562 76.000645 
L 525.884538 80.18449 
L 532.050513 85.435471 
L 538.216489 91.715717 
L 544.382465 98.984215 
L 550.548441 107.197132 
L 556.714417 116.308132 
L 562.880393 126.268707 
L 569.046369 137.028504 
L 575.212344 148.535643 
L 581.37832 160.737042 
L 587.544296 173.578732 
L 593.710272 187.006158 
L 599.876248 200.964476 
L 606.042224 215.398839 
L 612.2082 230.254667 
L 618.374175 245.477907 
L 630.706127 276.814456 
L 643.038079 308.995334 
L 686.19991 422.891287 
L 698.531862 454.463838 
L 710.863813 485.119711 
L 717.029789 500.038489 
L 723.195765 514.654282 
L 729.361741 528.947306 
L 735.527717 542.900023 
L 741.693692 556.497092 
L 747.859668 569.725309 
L 754.025644 582.57353 
L 760.19162 595.032602 
L 766.357596 607.095275 
L 772.523572 618.756118 
L 778.689548 630.011423 
L 784.855523 640.859114 
L 791.021499 651.298645 
L 797.187475 661.330904 
L 803.353451 670.95811 
L 809.519427 680.183716 
L 815.685403 689.012306 
L 821.851379 697.449494 
L 828.017354 705.501835 
L 834.18333 713.176718 
L 840.349306 720.482283 
L 846.515282 727.427327 
L 852.681258 734.021216 
L 858.847234 740.273804 
L 865.01321 746.195355 
L 871.179185 751.796464 
L 877.345161 757.08799 
L 883.511137 762.080983 
L 889.677113 766.78663 
L 895.843089 771.216189 
L 902.009065 775.380939 
L 908.17504 779.292128 
L 914.341016 782.960931 
L 920.506992 786.398407 
L 926.672968 789.61546 
L 932.838944 792.622809 
L 939.00492 795.430956 
L 945.170896 798.050164 
L 951.336871 800.49043 
L 957.502847 802.761469 
L 963.668823 804.872698 
L 969.834799 806.833224 
L 976.000775 808.651829 
L 982.166751 810.336971 
L 988.332727 811.896771 
L 1000.664678 814.671142 
L 1012.99663 817.033171 
L 1025.328582 819.035737 
L 1037.660533 820.726518 
L 1049.992485 822.148199 
L 1062.324437 823.338749 
L 1074.656388 824.331723 
L 1086.98834 825.156594 
L 1105.486268 826.13407 
L 1123.984195 826.863333 
L 1148.648099 827.54848 
L 1173.312002 827.999772 
L 1204.141881 828.347536 
L 1247.303712 828.597331 
L 1315.129447 828.736388 
L 1364.457254 828.76528 
L 1364.457254 828.76528 
" clip-path="url(#p33c6ac79cd)" style="fill: none; stroke: #ff7f0e; stroke-width: 2; stroke-linecap: square"/>
   </g>
   <g id="line2d_15">
    <path d="M 137.428059 825.332779 
L 143.594035 824.284559 
L 149.760011 822.985388 
L 155.925987 821.392635 
L 162.091962 819.460085 
L 168.257938 817.138265 
L 174.423914 814.37489 
L 180.58989 811.115415 
L 186.755866 807.303689 
L 192.921842 802.882704 
L 199.087817 797.795426 
L 205.253793 791.985691 
L 211.419769 785.399154 
L 217.585745 777.984264 
L 223.751721 769.693251 
L 229.917697 760.483106 
L 236.083673 750.316521 
L 242.249648 739.162789 
L 248.415624 726.998619 
L 254.5816 713.808876 
L 260.747576 699.587209 
L 266.913552 684.336559 
L 273.079528 668.069544 
L 279.245504 650.808705 
L 285.411479 632.58661 
L 291.577455 613.445814 
L 297.743431 593.438679 
L 303.909407 572.627048 
L 310.075383 551.081793 
L 316.241359 528.882239 
L 322.407335 506.115464 
L 334.739286 459.262497 
L 353.237214 387.257119 
L 365.569165 339.407038 
L 377.901117 292.751123 
L 384.067093 270.153957 
L 390.233069 248.189634 
L 396.399045 226.962444 
L 402.565021 206.571687 
L 408.730996 187.110908 
L 414.896972 168.667211 
L 421.062948 151.320655 
L 427.228924 135.143755 
L 433.3949 120.201063 
L 439.560876 106.548853 
L 445.726852 94.234894 
L 451.892827 83.298319 
L 458.058803 73.769577 
L 464.224779 65.670474 
L 470.390755 59.01429 
L 476.556731 53.805973 
L 482.722707 50.042397 
L 488.888683 47.712683 
L 495.054658 46.798575 
L 501.220634 47.274858 
L 507.38661 49.109821 
L 513.552586 52.265749 
L 519.718562 56.699444 
L 525.884538 62.362754 
L 532.050513 69.20313 
L 538.216489 77.164177 
L 544.382465 86.186203 
L 550.548441 96.206775 
L 556.714417 107.161252 
L 562.880393 118.983308 
L 569.046369 131.605439 
L 575.212344 144.959443 
L 581.37832 158.976877 
L 587.544296 173.589488 
L 593.710272 188.729613 
L 599.876248 204.330548 
L 606.042224 220.326889 
L 618.374175 253.252462 
L 630.706127 287.019877 
L 667.701982 389.093321 
L 680.033934 422.171365 
L 692.365886 454.292221 
L 698.531862 469.923191 
L 704.697837 485.235921 
L 710.863813 500.209877 
L 717.029789 514.827141 
L 723.195765 529.072319 
L 729.361741 542.932426 
L 735.527717 556.396771 
L 741.693692 569.456839 
L 747.859668 582.106169 
L 754.025644 594.340226 
L 760.19162 606.156276 
L 766.357596 617.553259 
L 772.523572 628.531667 
L 778.689548 639.093415 
L 784.855523 649.241722 
L 791.021499 658.980994 
L 797.187475 668.316706 
L 803.353451 677.255294 
L 809.519427 685.804045 
L 815.685403 693.970997 
L 821.851379 701.764843 
L 828.017354 709.194833 
L 834.18333 716.270697 
L 840.349306 723.002551 
L 846.515282 729.400833 
L 852.681258 735.476221 
L 858.847234 741.239573 
L 865.01321 746.701866 
L 871.179185 751.874136 
L 877.345161 756.767432 
L 883.511137 761.392765 
L 889.677113 765.761069 
L 895.843089 769.883163 
L 902.009065 773.769716 
L 908.17504 777.431219 
L 914.341016 780.877957 
L 920.506992 784.119991 
L 926.672968 787.167133 
L 932.838944 790.028934 
L 939.00492 792.71467 
L 945.170896 795.233328 
L 951.336871 797.593604 
L 957.502847 799.803892 
L 963.668823 801.87228 
L 969.834799 803.806551 
L 976.000775 805.614179 
L 988.332727 808.877876 
L 1000.664678 811.717085 
L 1012.99663 814.180785 
L 1025.328582 816.3134 
L 1037.660533 818.155027 
L 1049.992485 819.741684 
L 1062.324437 821.105591 
L 1074.656388 822.275446 
L 1086.98834 823.276713 
L 1105.486268 824.511013 
L 1123.984195 825.480943 
L 1142.482123 826.239796 
L 1167.146026 826.997107 
L 1191.80993 827.536161 
L 1222.639809 827.993316 
L 1265.80164 828.371603 
L 1321.295423 828.608059 
L 1364.457254 828.69357 
L 1364.457254 828.69357 
" clip-path="url(#p33c6ac79cd)" style="fill: none; stroke: #2ca02c; stroke-width: 2; stroke-linecap: square"/>
   </g>
   <g id="line2d_16">
    <path d="M 137.428059 110.636236 
L 149.760011 132.505949 
L 162.091962 153.70966 
L 174.423914 174.267652 
L 186.755866 194.199589 
L 199.087817 213.524535 
L 211.419769 232.260976 
L 223.751721 250.426834 
L 236.083673 268.039484 
L 248.415624 285.115774 
L 260.747576 301.672037 
L 273.079528 317.72411 
L 285.411479 333.287347 
L 297.743431 348.376635 
L 310.075383 363.006406 
L 322.407335 377.190655 
L 334.739286 390.942949 
L 347.071238 404.276443 
L 359.40319 417.20389 
L 371.735141 429.737655 
L 384.067093 441.889728 
L 396.399045 453.671732 
L 408.730996 465.094937 
L 421.062948 476.17027 
L 433.3949 486.908324 
L 445.726852 497.319371 
L 458.058803 507.413368 
L 470.390755 517.199972 
L 482.722707 526.688543 
L 495.054658 535.888157 
L 507.38661 544.807614 
L 519.718562 553.455445 
L 532.050513 561.839923 
L 544.382465 569.969068 
L 556.714417 577.850654 
L 569.046369 585.492221 
L 581.37832 592.901079 
L 593.710272 600.084313 
L 606.042224 607.048796 
L 618.374175 613.801188 
L 630.706127 620.347948 
L 643.038079 626.69534 
L 655.370031 632.849433 
L 667.701982 638.816115 
L 680.033934 644.601092 
L 692.365886 650.209899 
L 704.697837 655.6479 
L 717.029789 660.920297 
L 735.527717 668.529374 
L 754.025644 675.793531 
L 772.523572 682.728402 
L 791.021499 689.348915 
L 809.519427 695.669318 
L 828.017354 701.703217 
L 846.515282 707.463598 
L 865.01321 712.962861 
L 883.511137 718.212841 
L 902.009065 723.224838 
L 920.506992 728.009641 
L 939.00492 732.577549 
L 957.502847 736.938392 
L 976.000775 741.101557 
L 994.498702 745.076006 
L 1012.99663 748.870292 
L 1037.660533 753.66315 
L 1062.324437 758.168537 
L 1086.98834 762.403697 
L 1111.652244 766.384836 
L 1136.316147 770.127191 
L 1160.98005 773.645083 
L 1185.643954 776.951976 
L 1210.307857 780.060526 
L 1234.971761 782.982628 
L 1265.80164 786.390036 
L 1296.631519 789.543924 
L 1327.461398 792.463153 
L 1358.291278 795.165183 
L 1364.457254 795.680969 
L 1364.457254 795.680969 
" clip-path="url(#p33c6ac79cd)" style="fill: none; stroke: #d62728; stroke-width: 2; stroke-linecap: square"/>
   </g>
   <g id="line2d_17">
    <path d="M 137.428059 779.989675 
L 143.594035 777.428908 
L 149.760011 774.733737 
L 155.925987 771.897107 
L 162.091962 768.911595 
L 168.257938 765.769386 
L 174.423914 762.462255 
L 180.58989 758.981548 
L 186.755866 755.318152 
L 192.921842 751.46248 
L 199.087817 747.40444 
L 205.253793 743.13341 
L 211.419769 738.638212 
L 217.585745 733.907079 
L 223.751721 728.92763 
L 229.917697 723.68683 
L 236.083673 718.170962 
L 242.249648 712.365589 
L 248.415624 706.255517 
L 254.5816 699.824753 
L 260.747576 693.056464 
L 266.913552 685.932937 
L 273.079528 678.435526 
L 279.245504 670.544606 
L 285.411479 662.239526 
L 291.577455 653.498546 
L 297.743431 644.298789 
L 303.909407 634.616176 
L 310.075383 624.425362 
L 316.241359 613.699676 
L 322.407335 602.411042 
L 328.57331 590.529916 
L 334.739286 578.0252 
L 340.905262 564.864163 
L 347.071238 551.012358 
L 353.237214 536.43353 
L 359.40319 521.089521 
L 365.569165 504.940168 
L 371.735141 487.943204 
L 377.901117 470.05414 
L 384.067093 451.226155 
L 390.233069 431.409967 
L 396.399045 410.55371 
L 402.565021 388.602796 
L 408.730996 365.49977 
L 414.896972 341.184163 
L 421.062948 315.592331 
L 427.228924 288.657292 
L 433.3949 260.308545 
L 439.560876 230.471891 
L 445.726852 199.069236 
L 451.892827 166.018387 
L 458.058803 131.232837 
L 464.224779 94.621539 
L 470.390755 56.088668 
L 476.556731 15.533368 
L 478.945088 -1 
M 567.363106 -1 
L 569.046369 10.721307 
L 575.212344 51.516577 
L 581.37832 90.277452 
L 587.544296 127.105382 
L 593.710272 162.096761 
L 599.876248 195.343176 
L 606.042224 226.931644 
L 612.2082 256.944844 
L 618.374175 285.461334 
L 624.540151 312.555751 
L 630.706127 338.299012 
L 636.872103 362.758497 
L 643.038079 385.998225 
L 649.204055 408.079026 
L 655.370031 429.058691 
L 661.536006 448.992133 
L 667.701982 467.931526 
L 673.867958 485.926441 
L 680.033934 503.023978 
L 686.19991 519.268888 
L 692.365886 534.70369 
L 698.531862 549.368782 
L 704.697837 563.302549 
L 710.863813 576.541461 
L 717.029789 589.12017 
L 723.195765 601.071598 
L 729.361741 612.427027 
L 735.527717 623.216178 
L 741.693692 633.467292 
L 747.859668 643.207199 
L 754.025644 652.461391 
L 760.19162 661.254092 
L 766.357596 669.608315 
L 772.523572 677.545925 
L 778.689548 685.0877 
L 784.855523 692.253378 
L 791.021499 699.061715 
L 797.187475 705.530531 
L 803.353451 711.676757 
L 809.519427 717.51648 
L 815.685403 723.064986 
L 821.851379 728.336797 
L 828.017354 733.34571 
L 834.18333 738.104837 
L 840.349306 742.626634 
L 846.515282 746.922936 
L 852.681258 751.004988 
L 858.847234 754.883474 
L 865.01321 758.568547 
L 871.179185 762.06985 
L 877.345161 765.396549 
L 883.511137 768.557351 
L 889.677113 771.560529 
L 895.843089 774.413943 
L 902.009065 777.125062 
L 908.17504 779.700981 
L 914.341016 782.148443 
L 926.672968 786.683301 
L 939.00492 790.777144 
L 951.336871 794.472861 
L 963.668823 797.80917 
L 976.000775 800.821022 
L 988.332727 803.539972 
L 1000.664678 805.994504 
L 1012.99663 808.210332 
L 1025.328582 810.210672 
L 1037.660533 812.016478 
L 1049.992485 813.64667 
L 1068.490413 815.79958 
L 1086.98834 817.646199 
L 1105.486268 819.230102 
L 1123.984195 820.588665 
L 1142.482123 821.753947 
L 1167.146026 823.053949 
L 1191.80993 824.113396 
L 1222.639809 825.166428 
L 1253.469688 825.981809 
L 1290.465543 826.721198 
L 1333.627374 827.340679 
L 1364.457254 827.665368 
L 1364.457254 827.665368 
" clip-path="url(#p33c6ac79cd)" style="fill: none; stroke: #9467bd; stroke-width: 2; stroke-linecap: square"/>
   </g>
   <g id="line2d_18">
    <path d="M 137.428059 823.931317 
L 143.594035 822.714414 
L 149.760011 821.24861 
L 155.925987 819.496181 
L 162.091962 817.416302 
L 168.257938 814.965252 
L 174.423914 812.096695 
L 180.58989 808.762057 
L 186.755866 804.910988 
L 192.921842 800.491914 
L 199.087817 795.452666 
L 205.253793 789.741191 
L 211.419769 783.306319 
L 217.585745 776.098589 
L 223.751721 768.071111 
L 229.917697 759.180455 
L 236.083673 749.387533 
L 242.249648 738.658488 
L 248.415624 726.965534 
L 254.5816 714.287759 
L 260.747576 700.611853 
L 266.913552 685.932761 
L 273.079528 670.254231 
L 279.245504 653.589251 
L 285.411479 635.960369 
L 291.577455 617.399872 
L 297.743431 597.94984 
L 303.909407 577.66205 
L 310.075383 556.597743 
L 316.241359 534.827257 
L 322.407335 512.429527 
L 328.57331 489.491454 
L 340.905262 442.377185 
L 377.901117 298.924031 
L 384.067093 275.91522 
L 390.233069 253.472198 
L 396.399045 231.705917 
L 402.565021 210.723141 
L 408.730996 190.625519 
L 414.896972 171.508739 
L 421.062948 153.46177 
L 427.228924 136.566191 
L 433.3949 120.895627 
L 439.560876 106.515275 
L 445.726852 93.481552 
L 451.892827 81.841827 
L 458.058803 71.634272 
L 464.224779 62.887799 
L 470.390755 55.622108 
L 476.556731 49.847806 
L 482.722707 45.566632 
L 488.888683 42.771736 
L 495.054658 41.44805 
L 501.220634 41.572704 
L 507.38661 43.115499 
L 513.552586 46.039433 
L 519.718562 50.301252 
L 525.884538 55.852032 
L 532.050513 62.637787 
L 538.216489 70.600081 
L 544.382465 79.676646 
L 550.548441 89.802002 
L 556.714417 100.908065 
L 562.880393 112.924739 
L 569.046369 125.780495 
L 575.212344 139.402915 
L 581.37832 153.719224 
L 587.544296 168.656775 
L 593.710272 184.143512 
L 599.876248 200.10839 
L 606.042224 216.481769 
L 618.374175 250.184508 
L 630.706127 284.734908 
L 661.536006 371.811431 
L 673.867958 405.894861 
L 686.19991 439.070721 
L 692.365886 455.23845 
L 698.531862 471.089752 
L 704.697837 486.601204 
L 710.863813 501.752307 
L 717.029789 516.525372 
L 723.195765 530.905401 
L 729.361741 544.879955 
L 735.527717 558.439027 
L 741.693692 571.574897 
L 747.859668 584.281993 
L 754.025644 596.55675 
L 760.19162 608.397465 
L 766.357596 619.804158 
L 772.523572 630.778429 
L 778.689548 641.323321 
L 784.855523 651.443189 
L 791.021499 661.143567 
L 797.187475 670.431046 
L 803.353451 679.313151 
L 809.519427 687.798229 
L 815.685403 695.895341 
L 821.851379 703.614155 
L 828.017354 710.964856 
L 834.18333 717.958047 
L 840.349306 724.604673 
L 846.515282 730.915936 
L 852.681258 736.903229 
L 858.847234 742.578061 
L 865.01321 747.952005 
L 871.179185 753.036638 
L 877.345161 757.84349 
L 883.511137 762.384002 
L 889.677113 766.669485 
L 895.843089 770.711086 
L 902.009065 774.519751 
L 908.17504 778.106206 
L 914.341016 781.480929 
L 920.506992 784.654132 
L 926.672968 787.635742 
L 932.838944 790.435392 
L 939.00492 793.062407 
L 945.170896 795.5258 
L 951.336871 797.834261 
L 957.502847 799.996158 
L 963.668823 802.019535 
L 969.834799 803.912109 
L 976.000775 805.681277 
L 988.332727 808.877379 
L 1000.664678 811.660698 
L 1012.99663 814.079231 
L 1025.328582 816.176358 
L 1037.660533 817.9911 
L 1049.992485 819.558413 
L 1062.324437 820.909486 
L 1074.656388 822.072041 
L 1086.98834 823.070636 
L 1105.486268 824.30781 
L 1123.984195 825.286722 
L 1142.482123 826.058633 
L 1167.146026 826.83692 
L 1191.80993 827.398438 
L 1222.639809 827.882885 
L 1259.635664 828.249533 
L 1315.129447 828.541899 
L 1364.457254 828.664406 
L 1364.457254 828.664406 
" clip-path="url(#p33c6ac79cd)" style="fill: none; stroke: #8c564b; stroke-width: 2; stroke-linecap: square"/>
   </g>
   <g id="line2d_19">
    <path d="M 137.428059 804.587036 
L 143.594035 801.860371 
L 149.760011 798.87659 
L 155.925987 795.617749 
L 162.091962 792.06539 
L 168.257938 788.200614 
L 174.423914 784.004172 
L 180.58989 779.456557 
L 186.755866 774.53812 
L 192.921842 769.229191 
L 199.087817 763.510215 
L 205.253793 757.361902 
L 211.419769 750.765391 
L 217.585745 743.702412 
L 223.751721 736.155483 
L 229.917697 728.10809 
L 236.083673 719.544899 
L 242.249648 710.45196 
L 248.415624 700.81692 
L 254.5816 690.629251 
L 260.747576 679.880461 
L 266.913552 668.564323 
L 273.079528 656.677091 
L 279.245504 644.217716 
L 285.411479 631.188052 
L 291.577455 617.593052 
L 297.743431 603.440957 
L 303.909407 588.743461 
L 310.075383 573.515861 
L 316.241359 557.777188 
L 322.407335 541.550312 
L 328.57331 524.86202 
L 334.739286 507.743066 
L 340.905262 490.228189 
L 353.237214 454.169422 
L 365.569165 417.041879 
L 384.067093 360.269684 
L 402.565021 303.65698 
L 414.896972 266.896 
L 421.062948 249.021972 
L 427.228924 231.581907 
L 433.3949 214.648198 
L 439.560876 198.292766 
L 445.726852 182.586565 
L 451.892827 167.599068 
L 458.058803 153.397764 
L 464.224779 140.047652 
L 470.390755 127.610748 
L 476.556731 116.145606 
L 482.722707 105.70686 
L 488.888683 96.344791 
L 495.054658 88.104923 
L 501.220634 81.027654 
L 507.38661 75.147931 
L 513.552586 70.494954 
L 519.718562 67.091943 
L 525.884538 64.955939 
L 532.050513 64.097665 
L 538.216489 64.521435 
L 544.382465 66.225118 
L 550.548441 69.200158 
L 556.714417 73.431641 
L 562.880393 78.898425 
L 569.046369 85.57331 
L 575.212344 93.423269 
L 581.37832 102.409718 
L 587.544296 112.488831 
L 593.710272 123.611895 
L 599.876248 135.725706 
L 606.042224 148.772988 
L 612.2082 162.692846 
L 618.374175 177.421239 
L 624.540151 192.891466 
L 630.706127 209.034669 
L 636.872103 225.780339 
L 643.038079 243.056826 
L 649.204055 260.791843 
L 661.536006 297.348086 
L 673.867958 334.876478 
L 704.697837 429.405604 
L 717.029789 466.223072 
L 723.195765 484.20679 
L 729.361741 501.847312 
L 735.527717 519.104592 
L 741.693692 535.942541 
L 747.859668 552.329055 
L 754.025644 568.236006 
L 760.19162 583.639203 
L 766.357596 598.518325 
L 772.523572 612.856821 
L 778.689548 626.641791 
L 784.855523 639.863843 
L 791.021499 652.516928 
L 797.187475 664.598163 
L 803.353451 676.107636 
L 809.519427 687.048202 
L 815.685403 697.425272 
L 821.851379 707.246593 
L 828.017354 716.522029 
L 834.18333 725.263339 
L 840.349306 733.483955 
L 846.515282 741.198767 
L 852.681258 748.42391 
L 858.847234 755.176561 
L 865.01321 761.474744 
L 871.179185 767.337139 
L 877.345161 772.78291 
L 883.511137 777.831539 
L 889.677113 782.502673 
L 895.843089 786.815982 
L 902.009065 790.791034 
L 908.17504 794.447178 
L 914.341016 797.803442 
L 920.506992 800.878442 
L 926.672968 803.690304 
L 932.838944 806.256595 
L 939.00492 808.594274 
L 945.170896 810.71964 
L 951.336871 812.648297 
L 957.502847 814.395135 
L 963.668823 815.974304 
L 969.834799 817.399209 
L 976.000775 818.682506 
L 982.166751 819.836104 
L 994.498702 821.798171 
L 1006.830654 823.366221 
L 1019.162606 824.610138 
L 1031.494558 825.589682 
L 1043.826509 826.355404 
L 1062.324437 827.193636 
L 1080.822364 827.757543 
L 1105.486268 828.22384 
L 1136.316147 828.529636 
L 1179.477978 828.703382 
L 1265.80164 828.773876 
L 1364.457254 828.779192 
L 1364.457254 828.779192 
" clip-path="url(#p33c6ac79cd)" style="fill: none; stroke: #e377c2; stroke-width: 2; stroke-linecap: square"/>
   </g>
   <g id="patch_103">
    <path d="M 72.685313 828.779375 
L 72.685313 38.075625 
" style="fill: none; stroke: #000000; stroke-width: 0.8; stroke-linejoin: miter; stroke-linecap: square"/>
   </g>
   <g id="patch_104">
    <path d="M 1429.2 828.779375 
L 1429.2 38.075625 
" style="fill: none; stroke: #000000; stroke-width: 0.8; stroke-linejoin: miter; stroke-linecap: square"/>
   </g>
   <g id="patch_105">
    <path d="M 72.685313 828.779375 
L 1429.2 828.779375 
" style="fill: none; stroke: #000000; stroke-width: 0.8; stroke-linejoin: miter; stroke-linecap: square"/>
   </g>
   <g id="patch_106">
    <path d="M 72.685313 38.075625 
L 1429.2 38.075625 
" style="fill: none; stroke: #000000; stroke-width: 0.8; stroke-linejoin: miter; stroke-linecap: square"/>
   </g>
   <g id="text_15">
    <!-- All Fitted Distributions -->
    <g transform="translate(596.317031 32.075625)scale(0.28 -0.28)">
     <defs>
      <path id="DejaVuSans-41" d="M 2188 4044 
L 1331 1722 
L 3047 1722 
L 2188 4044 
z
M 1831 4666 
L 2547 4666 
L 4325 0 
L 3669 0 
L 3244 1197 
L 1141 1197 
L 716 0 
L 50 0 
L 1831 4666 
z
" transform="scale(0.015625)"/>
      <path id="DejaVuSans-6c" d="M 603 4863 
L 1178 4863 
L 1178 0 
L 603 0 
L 603 4863 
z
" transform="scale(0.015625)"/>
      <path id="DejaVuSans-46" d="M 628 4666 
L 3309 4666 
L 3309 4134 
L 1259 4134 
L 1259 2759 
L 3109 2759 
L 3109 2228 
L 1259 2228 
L 1259 0 
L 628 0 
L 628 4666 
z
" transform="scale(0.015625)"/>
      <path id="DejaVuSans-44" d="M 1259 4147 
L 1259 519 
L 2022 519 
Q 2988 519 3436 956 
Q 3884 1394 3884 2338 
Q 3884 3275 3436 3711 
Q 2988 4147 2022 4147 
L 1259 4147 
z
M 628 4666 
L 1925 4666 
Q 3281 4666 3915 4102 
Q 4550 3538 4550 2338 
Q 4550 1131 3912 565 
Q 3275 0 1925 0 
L 628 0 
L 628 4666 
z
" transform="scale(0.015625)"/>
      <path id="DejaVuSans-62" d="M 3116 1747 
Q 3116 2381 2855 2742 
Q 2594 3103 2138 3103 
Q 1681 3103 1420 2742 
Q 1159 2381 1159 1747 
Q 1159 1113 1420 752 
Q 1681 391 2138 391 
Q 2594 391 2855 752 
Q 3116 1113 3116 1747 
z
M 1159 2969 
Q 1341 3281 1617 3432 
Q 1894 3584 2278 3584 
Q 2916 3584 3314 3078 
Q 3713 2572 3713 1747 
Q 3713 922 3314 415 
Q 2916 -91 2278 -91 
Q 1894 -91 1617 61 
Q 1341 213 1159 525 
L 1159 0 
L 581 0 
L 581 4863 
L 1159 4863 
L 1159 2969 
z
" transform="scale(0.015625)"/>
     </defs>
     <use xlink:href="#DejaVuSans-41"/>
     <use xlink:href="#DejaVuSans-6c" x="68.408203"/>
     <use xlink:href="#DejaVuSans-6c" x="96.191406"/>
     <use xlink:href="#DejaVuSans-20" x="123.974609"/>
     <use xlink:href="#DejaVuSans-46" x="155.761719"/>
     <use xlink:href="#DejaVuSans-69" x="206.03125"/>
     <use xlink:href="#DejaVuSans-74" x="233.814453"/>
     <use xlink:href="#DejaVuSans-74" x="273.023438"/>
     <use xlink:href="#DejaVuSans-65" x="312.232422"/>
     <use xlink:href="#DejaVuSans-64" x="373.755859"/>
     <use xlink:href="#DejaVuSans-20" x="437.232422"/>
     <use xlink:href="#DejaVuSans-44" x="469.019531"/>
     <use xlink:href="#DejaVuSans-69" x="546.021484"/>
     <use xlink:href="#DejaVuSans-73" x="573.804688"/>
     <use xlink:href="#DejaVuSans-74" x="625.904297"/>
     <use xlink:href="#DejaVuSans-72" x="665.113281"/>
     <use xlink:href="#DejaVuSans-69" x="706.226562"/>
     <use xlink:href="#DejaVuSans-62" x="734.009766"/>
     <use xlink:href="#DejaVuSans-75" x="797.486328"/>
     <use xlink:href="#DejaVuSans-74" x="860.865234"/>
     <use xlink:href="#DejaVuSans-69" x="900.074219"/>
     <use xlink:href="#DejaVuSans-6f" x="927.857422"/>
     <use xlink:href="#DejaVuSans-6e" x="989.039062"/>
     <use xlink:href="#DejaVuSans-73" x="1052.417969"/>
    </g>
   </g>
   <g id="legend_1">
    <g id="patch_107">
     <path d="M 1014.37125 303.868125 
L 1412.4 303.868125 
Q 1417.2 303.868125 1417.2 299.068125 
L 1417.2 54.875625 
Q 1417.2 50.075625 1412.4 50.075625 
L 1014.37125 50.075625 
Q 1009.57125 50.075625 1009.57125 54.875625 
L 1009.57125 299.068125 
Q 1009.57125 303.868125 1014.37125 303.868125 
z
" style="fill: #ffffff; opacity: 0.8; stroke: #cccccc; stroke-linejoin: miter"/>
    </g>
    <g id="patch_108">
     <path d="M 1019.17125 77.911875 
L 1067.17125 77.911875 
L 1067.17125 61.111875 
L 1019.17125 61.111875 
z
" style="fill: #1f77b4; opacity: 0.6"/>
    </g>
    <g id="text_16">
     <!-- Generated Chi Distribution -->
     <g transform="translate(1086.37125 77.911875)scale(0.24 -0.24)">
      <defs>
       <path id="DejaVuSans-47" d="M 3809 666 
L 3809 1919 
L 2778 1919 
L 2778 2438 
L 4434 2438 
L 4434 434 
Q 4069 175 3628 42 
Q 3188 -91 2688 -91 
Q 1594 -91 976 548 
Q 359 1188 359 2328 
Q 359 3472 976 4111 
Q 1594 4750 2688 4750 
Q 3144 4750 3555 4637 
Q 3966 4525 4313 4306 
L 4313 3634 
Q 3963 3931 3569 4081 
Q 3175 4231 2741 4231 
Q 1884 4231 1454 3753 
Q 1025 3275 1025 2328 
Q 1025 1384 1454 906 
Q 1884 428 2741 428 
Q 3075 428 3337 486 
Q 3600 544 3809 666 
z
" transform="scale(0.015625)"/>
       <path id="DejaVuSans-61" d="M 2194 1759 
Q 1497 1759 1228 1600 
Q 959 1441 959 1056 
Q 959 750 1161 570 
Q 1363 391 1709 391 
Q 2188 391 2477 730 
Q 2766 1069 2766 1631 
L 2766 1759 
L 2194 1759 
z
M 3341 1997 
L 3341 0 
L 2766 0 
L 2766 531 
Q 2569 213 2275 61 
Q 1981 -91 1556 -91 
Q 1019 -91 701 211 
Q 384 513 384 1019 
Q 384 1609 779 1909 
Q 1175 2209 1959 2209 
L 2766 2209 
L 2766 2266 
Q 2766 2663 2505 2880 
Q 2244 3097 1772 3097 
Q 1472 3097 1187 3025 
Q 903 2953 641 2809 
L 641 3341 
Q 956 3463 1253 3523 
Q 1550 3584 1831 3584 
Q 2591 3584 2966 3190 
Q 3341 2797 3341 1997 
z
" transform="scale(0.015625)"/>
       <path id="DejaVuSans-68" d="M 3513 2113 
L 3513 0 
L 2938 0 
L 2938 2094 
Q 2938 2591 2744 2837 
Q 2550 3084 2163 3084 
Q 1697 3084 1428 2787 
Q 1159 2491 1159 1978 
L 1159 0 
L 581 0 
L 581 4863 
L 1159 4863 
L 1159 2956 
Q 1366 3272 1645 3428 
Q 1925 3584 2291 3584 
Q 2894 3584 3203 3211 
Q 3513 2838 3513 2113 
z
" transform="scale(0.015625)"/>
      </defs>
      <use xlink:href="#DejaVuSans-47"/>
      <use xlink:href="#DejaVuSans-65" x="77.490234"/>
      <use xlink:href="#DejaVuSans-6e" x="139.013672"/>
      <use xlink:href="#DejaVuSans-65" x="202.392578"/>
      <use xlink:href="#DejaVuSans-72" x="263.916016"/>
      <use xlink:href="#DejaVuSans-61" x="305.029297"/>
      <use xlink:href="#DejaVuSans-74" x="366.308594"/>
      <use xlink:href="#DejaVuSans-65" x="405.517578"/>
      <use xlink:href="#DejaVuSans-64" x="467.041016"/>
      <use xlink:href="#DejaVuSans-20" x="530.517578"/>
      <use xlink:href="#DejaVuSans-43" x="562.304688"/>
      <use xlink:href="#DejaVuSans-68" x="632.128906"/>
      <use xlink:href="#DejaVuSans-69" x="695.507812"/>
      <use xlink:href="#DejaVuSans-20" x="723.291016"/>
      <use xlink:href="#DejaVuSans-44" x="755.078125"/>
      <use xlink:href="#DejaVuSans-69" x="832.080078"/>
      <use xlink:href="#DejaVuSans-73" x="859.863281"/>
      <use xlink:href="#DejaVuSans-74" x="911.962891"/>
      <use xlink:href="#DejaVuSans-72" x="951.171875"/>
      <use xlink:href="#DejaVuSans-69" x="992.285156"/>
      <use xlink:href="#DejaVuSans-62" x="1020.068359"/>
      <use xlink:href="#DejaVuSans-75" x="1083.544922"/>
      <use xlink:href="#DejaVuSans-74" x="1146.923828"/>
      <use xlink:href="#DejaVuSans-69" x="1186.132812"/>
      <use xlink:href="#DejaVuSans-6f" x="1213.916016"/>
      <use xlink:href="#DejaVuSans-6e" x="1275.097656"/>
     </g>
    </g>
    <g id="line2d_20">
     <path d="M 1019.17125 104.739375 
L 1043.17125 104.739375 
L 1067.17125 104.739375 
" style="fill: none; stroke: #ff7f0e; stroke-width: 2; stroke-linecap: square"/>
    </g>
    <g id="text_17">
     <!-- Chi fit -->
     <g transform="translate(1086.37125 113.139375)scale(0.24 -0.24)">
      <defs>
       <path id="DejaVuSans-66" d="M 2375 4863 
L 2375 4384 
L 1825 4384 
Q 1516 4384 1395 4259 
Q 1275 4134 1275 3809 
L 1275 3500 
L 2222 3500 
L 2222 3053 
L 1275 3053 
L 1275 0 
L 697 0 
L 697 3053 
L 147 3053 
L 147 3500 
L 697 3500 
L 697 3744 
Q 697 4328 969 4595 
Q 1241 4863 1831 4863 
L 2375 4863 
z
" transform="scale(0.015625)"/>
      </defs>
      <use xlink:href="#DejaVuSans-43"/>
      <use xlink:href="#DejaVuSans-68" x="69.824219"/>
      <use xlink:href="#DejaVuSans-69" x="133.203125"/>
      <use xlink:href="#DejaVuSans-20" x="160.986328"/>
      <use xlink:href="#DejaVuSans-66" x="192.773438"/>
      <use xlink:href="#DejaVuSans-69" x="227.978516"/>
      <use xlink:href="#DejaVuSans-74" x="255.761719"/>
     </g>
    </g>
    <g id="line2d_21">
     <path d="M 1019.17125 139.966875 
L 1043.17125 139.966875 
L 1067.17125 139.966875 
" style="fill: none; stroke: #2ca02c; stroke-width: 2; stroke-linecap: square"/>
    </g>
    <g id="text_18">
     <!-- Chi-Square fit -->
     <g transform="translate(1086.37125 148.366875)scale(0.24 -0.24)">
      <defs>
       <path id="DejaVuSans-2d" d="M 313 2009 
L 1997 2009 
L 1997 1497 
L 313 1497 
L 313 2009 
z
" transform="scale(0.015625)"/>
       <path id="DejaVuSans-53" d="M 3425 4513 
L 3425 3897 
Q 3066 4069 2747 4153 
Q 2428 4238 2131 4238 
Q 1616 4238 1336 4038 
Q 1056 3838 1056 3469 
Q 1056 3159 1242 3001 
Q 1428 2844 1947 2747 
L 2328 2669 
Q 3034 2534 3370 2195 
Q 3706 1856 3706 1288 
Q 3706 609 3251 259 
Q 2797 -91 1919 -91 
Q 1588 -91 1214 -16 
Q 841 59 441 206 
L 441 856 
Q 825 641 1194 531 
Q 1563 422 1919 422 
Q 2459 422 2753 634 
Q 3047 847 3047 1241 
Q 3047 1584 2836 1778 
Q 2625 1972 2144 2069 
L 1759 2144 
Q 1053 2284 737 2584 
Q 422 2884 422 3419 
Q 422 4038 858 4394 
Q 1294 4750 2059 4750 
Q 2388 4750 2728 4690 
Q 3069 4631 3425 4513 
z
" transform="scale(0.015625)"/>
       <path id="DejaVuSans-71" d="M 947 1747 
Q 947 1113 1208 752 
Q 1469 391 1925 391 
Q 2381 391 2643 752 
Q 2906 1113 2906 1747 
Q 2906 2381 2643 2742 
Q 2381 3103 1925 3103 
Q 1469 3103 1208 2742 
Q 947 2381 947 1747 
z
M 2906 525 
Q 2725 213 2448 61 
Q 2172 -91 1784 -91 
Q 1150 -91 751 415 
Q 353 922 353 1747 
Q 353 2572 751 3078 
Q 1150 3584 1784 3584 
Q 2172 3584 2448 3432 
Q 2725 3281 2906 2969 
L 2906 3500 
L 3481 3500 
L 3481 -1331 
L 2906 -1331 
L 2906 525 
z
" transform="scale(0.015625)"/>
      </defs>
      <use xlink:href="#DejaVuSans-43"/>
      <use xlink:href="#DejaVuSans-68" x="69.824219"/>
      <use xlink:href="#DejaVuSans-69" x="133.203125"/>
      <use xlink:href="#DejaVuSans-2d" x="160.986328"/>
      <use xlink:href="#DejaVuSans-53" x="197.070312"/>
      <use xlink:href="#DejaVuSans-71" x="260.546875"/>
      <use xlink:href="#DejaVuSans-75" x="324.023438"/>
      <use xlink:href="#DejaVuSans-61" x="387.402344"/>
      <use xlink:href="#DejaVuSans-72" x="448.681641"/>
      <use xlink:href="#DejaVuSans-65" x="487.544922"/>
      <use xlink:href="#DejaVuSans-20" x="549.068359"/>
      <use xlink:href="#DejaVuSans-66" x="580.855469"/>
      <use xlink:href="#DejaVuSans-69" x="616.060547"/>
      <use xlink:href="#DejaVuSans-74" x="643.84375"/>
     </g>
    </g>
    <g id="line2d_22">
     <path d="M 1019.17125 175.194375 
L 1043.17125 175.194375 
L 1067.17125 175.194375 
" style="fill: none; stroke: #d62728; stroke-width: 2; stroke-linecap: square"/>
    </g>
    <g id="text_19">
     <!-- Exponential fit -->
     <g transform="translate(1086.37125 183.594375)scale(0.24 -0.24)">
      <defs>
       <path id="DejaVuSans-45" d="M 628 4666 
L 3578 4666 
L 3578 4134 
L 1259 4134 
L 1259 2753 
L 3481 2753 
L 3481 2222 
L 1259 2222 
L 1259 531 
L 3634 531 
L 3634 0 
L 628 0 
L 628 4666 
z
" transform="scale(0.015625)"/>
       <path id="DejaVuSans-78" d="M 3513 3500 
L 2247 1797 
L 3578 0 
L 2900 0 
L 1881 1375 
L 863 0 
L 184 0 
L 1544 1831 
L 300 3500 
L 978 3500 
L 1906 2253 
L 2834 3500 
L 3513 3500 
z
" transform="scale(0.015625)"/>
       <path id="DejaVuSans-70" d="M 1159 525 
L 1159 -1331 
L 581 -1331 
L 581 3500 
L 1159 3500 
L 1159 2969 
Q 1341 3281 1617 3432 
Q 1894 3584 2278 3584 
Q 2916 3584 3314 3078 
Q 3713 2572 3713 1747 
Q 3713 922 3314 415 
Q 2916 -91 2278 -91 
Q 1894 -91 1617 61 
Q 1341 213 1159 525 
z
M 3116 1747 
Q 3116 2381 2855 2742 
Q 2594 3103 2138 3103 
Q 1681 3103 1420 2742 
Q 1159 2381 1159 1747 
Q 1159 1113 1420 752 
Q 1681 391 2138 391 
Q 2594 391 2855 752 
Q 3116 1113 3116 1747 
z
" transform="scale(0.015625)"/>
      </defs>
      <use xlink:href="#DejaVuSans-45"/>
      <use xlink:href="#DejaVuSans-78" x="63.183594"/>
      <use xlink:href="#DejaVuSans-70" x="122.363281"/>
      <use xlink:href="#DejaVuSans-6f" x="185.839844"/>
      <use xlink:href="#DejaVuSans-6e" x="247.021484"/>
      <use xlink:href="#DejaVuSans-65" x="310.400391"/>
      <use xlink:href="#DejaVuSans-6e" x="371.923828"/>
      <use xlink:href="#DejaVuSans-74" x="435.302734"/>
      <use xlink:href="#DejaVuSans-69" x="474.511719"/>
      <use xlink:href="#DejaVuSans-61" x="502.294922"/>
      <use xlink:href="#DejaVuSans-6c" x="563.574219"/>
      <use xlink:href="#DejaVuSans-20" x="591.357422"/>
      <use xlink:href="#DejaVuSans-66" x="623.144531"/>
      <use xlink:href="#DejaVuSans-69" x="658.349609"/>
      <use xlink:href="#DejaVuSans-74" x="686.132812"/>
     </g>
    </g>
    <g id="line2d_23">
     <path d="M 1019.17125 210.421875 
L 1043.17125 210.421875 
L 1067.17125 210.421875 
" style="fill: none; stroke: #9467bd; stroke-width: 2; stroke-linecap: square"/>
    </g>
    <g id="text_20">
     <!-- Laplace fit -->
     <g transform="translate(1086.37125 218.821875)scale(0.24 -0.24)">
      <defs>
       <path id="DejaVuSans-4c" d="M 628 4666 
L 1259 4666 
L 1259 531 
L 3531 531 
L 3531 0 
L 628 0 
L 628 4666 
z
" transform="scale(0.015625)"/>
       <path id="DejaVuSans-63" d="M 3122 3366 
L 3122 2828 
Q 2878 2963 2633 3030 
Q 2388 3097 2138 3097 
Q 1578 3097 1268 2742 
Q 959 2388 959 1747 
Q 959 1106 1268 751 
Q 1578 397 2138 397 
Q 2388 397 2633 464 
Q 2878 531 3122 666 
L 3122 134 
Q 2881 22 2623 -34 
Q 2366 -91 2075 -91 
Q 1284 -91 818 406 
Q 353 903 353 1747 
Q 353 2603 823 3093 
Q 1294 3584 2113 3584 
Q 2378 3584 2631 3529 
Q 2884 3475 3122 3366 
z
" transform="scale(0.015625)"/>
      </defs>
      <use xlink:href="#DejaVuSans-4c"/>
      <use xlink:href="#DejaVuSans-61" x="55.712891"/>
      <use xlink:href="#DejaVuSans-70" x="116.992188"/>
      <use xlink:href="#DejaVuSans-6c" x="180.46875"/>
      <use xlink:href="#DejaVuSans-61" x="208.251953"/>
      <use xlink:href="#DejaVuSans-63" x="269.53125"/>
      <use xlink:href="#DejaVuSans-65" x="324.511719"/>
      <use xlink:href="#DejaVuSans-20" x="386.035156"/>
      <use xlink:href="#DejaVuSans-66" x="417.822266"/>
      <use xlink:href="#DejaVuSans-69" x="453.027344"/>
      <use xlink:href="#DejaVuSans-74" x="480.810547"/>
     </g>
    </g>
    <g id="line2d_24">
     <path d="M 1019.17125 245.649375 
L 1043.17125 245.649375 
L 1067.17125 245.649375 
" style="fill: none; stroke: #8c564b; stroke-width: 2; stroke-linecap: square"/>
    </g>
    <g id="text_21">
     <!-- LogNorm fit -->
     <g transform="translate(1086.37125 254.049375)scale(0.24 -0.24)">
      <defs>
       <path id="DejaVuSans-67" d="M 2906 1791 
Q 2906 2416 2648 2759 
Q 2391 3103 1925 3103 
Q 1463 3103 1205 2759 
Q 947 2416 947 1791 
Q 947 1169 1205 825 
Q 1463 481 1925 481 
Q 2391 481 2648 825 
Q 2906 1169 2906 1791 
z
M 3481 434 
Q 3481 -459 3084 -895 
Q 2688 -1331 1869 -1331 
Q 1566 -1331 1297 -1286 
Q 1028 -1241 775 -1147 
L 775 -588 
Q 1028 -725 1275 -790 
Q 1522 -856 1778 -856 
Q 2344 -856 2625 -561 
Q 2906 -266 2906 331 
L 2906 616 
Q 2728 306 2450 153 
Q 2172 0 1784 0 
Q 1141 0 747 490 
Q 353 981 353 1791 
Q 353 2603 747 3093 
Q 1141 3584 1784 3584 
Q 2172 3584 2450 3431 
Q 2728 3278 2906 2969 
L 2906 3500 
L 3481 3500 
L 3481 434 
z
" transform="scale(0.015625)"/>
      </defs>
      <use xlink:href="#DejaVuSans-4c"/>
      <use xlink:href="#DejaVuSans-6f" x="53.962891"/>
      <use xlink:href="#DejaVuSans-67" x="115.144531"/>
      <use xlink:href="#DejaVuSans-4e" x="178.621094"/>
      <use xlink:href="#DejaVuSans-6f" x="253.425781"/>
      <use xlink:href="#DejaVuSans-72" x="314.607422"/>
      <use xlink:href="#DejaVuSans-6d" x="353.970703"/>
      <use xlink:href="#DejaVuSans-20" x="451.382812"/>
      <use xlink:href="#DejaVuSans-66" x="483.169922"/>
      <use xlink:href="#DejaVuSans-69" x="518.375"/>
      <use xlink:href="#DejaVuSans-74" x="546.158203"/>
     </g>
    </g>
    <g id="line2d_25">
     <path d="M 1019.17125 280.876875 
L 1043.17125 280.876875 
L 1067.17125 280.876875 
" style="fill: none; stroke: #e377c2; stroke-width: 2; stroke-linecap: square"/>
    </g>
    <g id="text_22">
     <!-- Normal fit -->
     <g transform="translate(1086.37125 289.276875)scale(0.24 -0.24)">
      <use xlink:href="#DejaVuSans-4e"/>
      <use xlink:href="#DejaVuSans-6f" x="74.804688"/>
      <use xlink:href="#DejaVuSans-72" x="135.986328"/>
      <use xlink:href="#DejaVuSans-6d" x="175.349609"/>
      <use xlink:href="#DejaVuSans-61" x="272.761719"/>
      <use xlink:href="#DejaVuSans-6c" x="334.041016"/>
      <use xlink:href="#DejaVuSans-20" x="361.824219"/>
      <use xlink:href="#DejaVuSans-66" x="393.611328"/>
      <use xlink:href="#DejaVuSans-69" x="428.816406"/>
      <use xlink:href="#DejaVuSans-74" x="456.599609"/>
     </g>
    </g>
   </g>
  </g>
 </g>
 <defs>
  <clipPath id="p33c6ac79cd">
   <rect x="72.685313" y="38.075625" width="1356.514688" height="790.70375"/>
  </clipPath>
 </defs>
</svg>
