<?xml version="1.0" encoding="utf-8" standalone="no"?>
<!DOCTYPE svg PUBLIC "-//W3C//DTD SVG 1.1//EN"
  "http://www.w3.org/Graphics/SVG/1.1/DTD/svg11.dtd">
<svg xmlns:xlink="http://www.w3.org/1999/xlink" width="1440pt" height="864pt" viewBox="0 0 1440 864" xmlns="http://www.w3.org/2000/svg" version="1.1">
 <metadata>
  <rdf:RDF xmlns:dc="http://purl.org/dc/elements/1.1/" xmlns:cc="http://creativecommons.org/ns#" xmlns:rdf="http://www.w3.org/1999/02/22-rdf-syntax-ns#">
   <cc:Work>
    <dc:type rdf:resource="http://purl.org/dc/dcmitype/StillImage"/>
    <dc:date>2022-11-24T22:25:20.423425</dc:date>
    <dc:format>image/svg+xml</dc:format>
    <dc:creator>
     <cc:Agent>
      <dc:title>Matplotlib v3.6.2, https://matplotlib.org/</dc:title>
     </cc:Agent>
    </dc:creator>
   </cc:Work>
  </rdf:RDF>
 </metadata>
 <defs>
  <style type="text/css">*{stroke-linejoin: round; stroke-linecap: butt}</style>
 </defs>
 <g id="figure_1">
  <g id="patch_1">
   <path d="M 0 864 
L 1440 864 
L 1440 0 
L 0 0 
z
" style="fill: #ffffff"/>
  </g>
  <g id="axes_1">
   <g id="patch_2">
    <path d="M 72.685313 828.779375 
L 1429.2 828.779375 
L 1429.2 38.075625 
L 72.685313 38.075625 
z
" style="fill: #ffffff"/>
   </g>
   <g id="patch_3">
    <path d="M 134.345071 828.779375 
L 146.677023 828.779375 
L 146.677023 826.658104 
L 134.345071 826.658104 
z
" clip-path="url(#p9a665ee6ac)" style="fill: #1f77b4; opacity: 0.6"/>
   </g>
   <g id="patch_4">
    <path d="M 146.677023 828.779375 
L 159.008974 828.779375 
L 159.008974 824.006515 
L 146.677023 824.006515 
z
" clip-path="url(#p9a665ee6ac)" style="fill: #1f77b4; opacity: 0.6"/>
   </g>
   <g id="patch_5">
    <path d="M 159.008974 828.779375 
L 171.340926 828.779375 
L 171.340926 822.94588 
L 159.008974 822.94588 
z
" clip-path="url(#p9a665ee6ac)" style="fill: #1f77b4; opacity: 0.6"/>
   </g>
   <g id="patch_6">
    <path d="M 171.340926 828.779375 
L 183.672878 828.779375 
L 183.672878 813.930478 
L 171.340926 813.930478 
z
" clip-path="url(#p9a665ee6ac)" style="fill: #1f77b4; opacity: 0.6"/>
   </g>
   <g id="patch_7">
    <path d="M 183.672878 828.779375 
L 196.00483 828.779375 
L 196.00483 804.384759 
L 183.672878 804.384759 
z
" clip-path="url(#p9a665ee6ac)" style="fill: #1f77b4; opacity: 0.6"/>
   </g>
   <g id="patch_8">
    <path d="M 196.00483 828.779375 
L 208.336781 828.779375 
L 208.336781 801.73317 
L 196.00483 801.73317 
z
" clip-path="url(#p9a665ee6ac)" style="fill: #1f77b4; opacity: 0.6"/>
   </g>
   <g id="patch_9">
    <path d="M 208.336781 828.779375 
L 220.668733 828.779375 
L 220.668733 773.62633 
L 208.336781 773.62633 
z
" clip-path="url(#p9a665ee6ac)" style="fill: #1f77b4; opacity: 0.6"/>
   </g>
   <g id="patch_10">
    <path d="M 220.668733 828.779375 
L 233.000685 828.779375 
L 233.000685 770.444424 
L 220.668733 770.444424 
z
" clip-path="url(#p9a665ee6ac)" style="fill: #1f77b4; opacity: 0.6"/>
   </g>
   <g id="patch_11">
    <path d="M 233.000685 828.779375 
L 245.332636 828.779375 
L 245.332636 746.049808 
L 233.000685 746.049808 
z
" clip-path="url(#p9a665ee6ac)" style="fill: #1f77b4; opacity: 0.6"/>
   </g>
   <g id="patch_12">
    <path d="M 245.332636 828.779375 
L 257.664588 828.779375 
L 257.664588 730.670593 
L 245.332636 730.670593 
z
" clip-path="url(#p9a665ee6ac)" style="fill: #1f77b4; opacity: 0.6"/>
   </g>
   <g id="patch_13">
    <path d="M 257.664588 828.779375 
L 269.99654 828.779375 
L 269.99654 704.685024 
L 257.664588 704.685024 
z
" clip-path="url(#p9a665ee6ac)" style="fill: #1f77b4; opacity: 0.6"/>
   </g>
   <g id="patch_14">
    <path d="M 269.99654 828.779375 
L 282.328491 828.779375 
L 282.328491 666.502147 
L 269.99654 666.502147 
z
" clip-path="url(#p9a665ee6ac)" style="fill: #1f77b4; opacity: 0.6"/>
   </g>
   <g id="patch_15">
    <path d="M 282.328491 828.779375 
L 294.660443 828.779375 
L 294.660443 634.152765 
L 282.328491 634.152765 
z
" clip-path="url(#p9a665ee6ac)" style="fill: #1f77b4; opacity: 0.6"/>
   </g>
   <g id="patch_16">
    <path d="M 294.660443 828.779375 
L 306.992395 828.779375 
L 306.992395 609.758148 
L 294.660443 609.758148 
z
" clip-path="url(#p9a665ee6ac)" style="fill: #1f77b4; opacity: 0.6"/>
   </g>
   <g id="patch_17">
    <path d="M 306.992395 828.779375 
L 319.324347 828.779375 
L 319.324347 567.863047 
L 306.992395 567.863047 
z
" clip-path="url(#p9a665ee6ac)" style="fill: #1f77b4; opacity: 0.6"/>
   </g>
   <g id="patch_18">
    <path d="M 319.324347 828.779375 
L 331.656298 828.779375 
L 331.656298 511.119049 
L 319.324347 511.119049 
z
" clip-path="url(#p9a665ee6ac)" style="fill: #1f77b4; opacity: 0.6"/>
   </g>
   <g id="patch_19">
    <path d="M 331.656298 828.779375 
L 343.98825 828.779375 
L 343.98825 487.254751 
L 331.656298 487.254751 
z
" clip-path="url(#p9a665ee6ac)" style="fill: #1f77b4; opacity: 0.6"/>
   </g>
   <g id="patch_20">
    <path d="M 343.98825 828.779375 
L 356.320202 828.779375 
L 356.320202 438.465519 
L 343.98825 438.465519 
z
" clip-path="url(#p9a665ee6ac)" style="fill: #1f77b4; opacity: 0.6"/>
   </g>
   <g id="patch_21">
    <path d="M 356.320202 828.779375 
L 368.652153 828.779375 
L 368.652153 419.904398 
L 356.320202 419.904398 
z
" clip-path="url(#p9a665ee6ac)" style="fill: #1f77b4; opacity: 0.6"/>
   </g>
   <g id="patch_22">
    <path d="M 368.652153 828.779375 
L 380.984105 828.779375 
L 380.984105 380.660885 
L 368.652153 380.660885 
z
" clip-path="url(#p9a665ee6ac)" style="fill: #1f77b4; opacity: 0.6"/>
   </g>
   <g id="patch_23">
    <path d="M 380.984105 828.779375 
L 393.316057 828.779375 
L 393.316057 328.689746 
L 380.984105 328.689746 
z
" clip-path="url(#p9a665ee6ac)" style="fill: #1f77b4; opacity: 0.6"/>
   </g>
   <g id="patch_24">
    <path d="M 393.316057 828.779375 
L 405.648009 828.779375 
L 405.648009 301.643542 
L 393.316057 301.643542 
z
" clip-path="url(#p9a665ee6ac)" style="fill: #1f77b4; opacity: 0.6"/>
   </g>
   <g id="patch_25">
    <path d="M 405.648009 828.779375 
L 417.97996 828.779375 
L 417.97996 267.703206 
L 405.648009 267.703206 
z
" clip-path="url(#p9a665ee6ac)" style="fill: #1f77b4; opacity: 0.6"/>
   </g>
   <g id="patch_26">
    <path d="M 417.97996 828.779375 
L 430.311912 828.779375 
L 430.311912 209.368255 
L 417.97996 209.368255 
z
" clip-path="url(#p9a665ee6ac)" style="fill: #1f77b4; opacity: 0.6"/>
   </g>
   <g id="patch_27">
    <path d="M 430.311912 828.779375 
L 442.643864 828.779375 
L 442.643864 169.594424 
L 430.311912 169.594424 
z
" clip-path="url(#p9a665ee6ac)" style="fill: #1f77b4; opacity: 0.6"/>
   </g>
   <g id="patch_28">
    <path d="M 442.643864 828.779375 
L 454.975815 828.779375 
L 454.975815 164.291247 
L 442.643864 164.291247 
z
" clip-path="url(#p9a665ee6ac)" style="fill: #1f77b4; opacity: 0.6"/>
   </g>
   <g id="patch_29">
    <path d="M 454.975815 828.779375 
L 467.307767 828.779375 
L 467.307767 172.776331 
L 454.975815 172.776331 
z
" clip-path="url(#p9a665ee6ac)" style="fill: #1f77b4; opacity: 0.6"/>
   </g>
   <g id="patch_30">
    <path d="M 467.307767 828.779375 
L 479.639719 828.779375 
L 479.639719 127.169005 
L 467.307767 127.169005 
z
" clip-path="url(#p9a665ee6ac)" style="fill: #1f77b4; opacity: 0.6"/>
   </g>
   <g id="patch_31">
    <path d="M 479.639719 828.779375 
L 491.97167 828.779375 
L 491.97167 141.487584 
L 479.639719 141.487584 
z
" clip-path="url(#p9a665ee6ac)" style="fill: #1f77b4; opacity: 0.6"/>
   </g>
   <g id="patch_32">
    <path d="M 491.97167 828.779375 
L 504.303622 828.779375 
L 504.303622 156.336481 
L 491.97167 156.336481 
z
" clip-path="url(#p9a665ee6ac)" style="fill: #1f77b4; opacity: 0.6"/>
   </g>
   <g id="patch_33">
    <path d="M 504.303622 828.779375 
L 516.635574 828.779375 
L 516.635574 83.152633 
L 504.303622 83.152633 
z
" clip-path="url(#p9a665ee6ac)" style="fill: #1f77b4; opacity: 0.6"/>
   </g>
   <g id="patch_34">
    <path d="M 516.635574 828.779375 
L 528.967526 828.779375 
L 528.967526 104.365342 
L 516.635574 104.365342 
z
" clip-path="url(#p9a665ee6ac)" style="fill: #1f77b4; opacity: 0.6"/>
   </g>
   <g id="patch_35">
    <path d="M 528.967526 828.779375 
L 541.299477 828.779375 
L 541.299477 83.152633 
L 528.967526 83.152633 
z
" clip-path="url(#p9a665ee6ac)" style="fill: #1f77b4; opacity: 0.6"/>
   </g>
   <g id="patch_36">
    <path d="M 541.299477 828.779375 
L 553.631429 828.779375 
L 553.631429 75.728185 
L 541.299477 75.728185 
z
" clip-path="url(#p9a665ee6ac)" style="fill: #1f77b4; opacity: 0.6"/>
   </g>
   <g id="patch_37">
    <path d="M 553.631429 828.779375 
L 565.963381 828.779375 
L 565.963381 83.682951 
L 553.631429 83.682951 
z
" clip-path="url(#p9a665ee6ac)" style="fill: #1f77b4; opacity: 0.6"/>
   </g>
   <g id="patch_38">
    <path d="M 565.963381 828.779375 
L 578.295332 828.779375 
L 578.295332 120.805192 
L 565.963381 120.805192 
z
" clip-path="url(#p9a665ee6ac)" style="fill: #1f77b4; opacity: 0.6"/>
   </g>
   <g id="patch_39">
    <path d="M 578.295332 828.779375 
L 590.627284 828.779375 
L 590.627284 96.940894 
L 578.295332 96.940894 
z
" clip-path="url(#p9a665ee6ac)" style="fill: #1f77b4; opacity: 0.6"/>
   </g>
   <g id="patch_40">
    <path d="M 590.627284 828.779375 
L 602.959236 828.779375 
L 602.959236 106.486613 
L 590.627284 106.486613 
z
" clip-path="url(#p9a665ee6ac)" style="fill: #1f77b4; opacity: 0.6"/>
   </g>
   <g id="patch_41">
    <path d="M 602.959236 828.779375 
L 615.291187 828.779375 
L 615.291187 147.321079 
L 602.959236 147.321079 
z
" clip-path="url(#p9a665ee6ac)" style="fill: #1f77b4; opacity: 0.6"/>
   </g>
   <g id="patch_42">
    <path d="M 615.291188 828.779375 
L 627.623139 828.779375 
L 627.623139 121.33551 
L 615.291188 121.33551 
z
" clip-path="url(#p9a665ee6ac)" style="fill: #1f77b4; opacity: 0.6"/>
   </g>
   <g id="patch_43">
    <path d="M 627.623139 828.779375 
L 639.955091 828.779375 
L 639.955091 156.336481 
L 627.623139 156.336481 
z
" clip-path="url(#p9a665ee6ac)" style="fill: #1f77b4; opacity: 0.6"/>
   </g>
   <g id="patch_44">
    <path d="M 639.955091 828.779375 
L 652.287043 828.779375 
L 652.287043 184.443321 
L 639.955091 184.443321 
z
" clip-path="url(#p9a665ee6ac)" style="fill: #1f77b4; opacity: 0.6"/>
   </g>
   <g id="patch_45">
    <path d="M 652.287043 828.779375 
L 664.618994 828.779375 
L 664.618994 243.30859 
L 652.287043 243.30859 
z
" clip-path="url(#p9a665ee6ac)" style="fill: #1f77b4; opacity: 0.6"/>
   </g>
   <g id="patch_46">
    <path d="M 664.618994 828.779375 
L 676.950946 828.779375 
L 676.950946 259.218122 
L 664.618994 259.218122 
z
" clip-path="url(#p9a665ee6ac)" style="fill: #1f77b4; opacity: 0.6"/>
   </g>
   <g id="patch_47">
    <path d="M 676.950946 828.779375 
L 689.282898 828.779375 
L 689.282898 253.384627 
L 676.950946 253.384627 
z
" clip-path="url(#p9a665ee6ac)" style="fill: #1f77b4; opacity: 0.6"/>
   </g>
   <g id="patch_48">
    <path d="M 689.282898 828.779375 
L 701.614849 828.779375 
L 701.614849 302.704177 
L 689.282898 302.704177 
z
" clip-path="url(#p9a665ee6ac)" style="fill: #1f77b4; opacity: 0.6"/>
   </g>
   <g id="patch_49">
    <path d="M 701.614849 828.779375 
L 713.946801 828.779375 
L 713.946801 285.203692 
L 701.614849 285.203692 
z
" clip-path="url(#p9a665ee6ac)" style="fill: #1f77b4; opacity: 0.6"/>
   </g>
   <g id="patch_50">
    <path d="M 713.946801 828.779375 
L 726.278753 828.779375 
L 726.278753 350.432774 
L 713.946801 350.432774 
z
" clip-path="url(#p9a665ee6ac)" style="fill: #1f77b4; opacity: 0.6"/>
   </g>
   <g id="patch_51">
    <path d="M 726.278753 828.779375 
L 738.610705 828.779375 
L 738.610705 380.660885 
L 726.278753 380.660885 
z
" clip-path="url(#p9a665ee6ac)" style="fill: #1f77b4; opacity: 0.6"/>
   </g>
   <g id="patch_52">
    <path d="M 738.610705 828.779375 
L 750.942656 828.779375 
L 750.942656 392.858193 
L 738.610705 392.858193 
z
" clip-path="url(#p9a665ee6ac)" style="fill: #1f77b4; opacity: 0.6"/>
   </g>
   <g id="patch_53">
    <path d="M 750.942656 828.779375 
L 763.274608 828.779375 
L 763.274608 441.117107 
L 750.942656 441.117107 
z
" clip-path="url(#p9a665ee6ac)" style="fill: #1f77b4; opacity: 0.6"/>
   </g>
   <g id="patch_54">
    <path d="M 763.274608 828.779375 
L 775.60656 828.779375 
L 775.60656 469.754265 
L 763.274608 469.754265 
z
" clip-path="url(#p9a665ee6ac)" style="fill: #1f77b4; opacity: 0.6"/>
   </g>
   <g id="patch_55">
    <path d="M 775.60656 828.779375 
L 787.938511 828.779375 
L 787.938511 475.58776 
L 775.60656 475.58776 
z
" clip-path="url(#p9a665ee6ac)" style="fill: #1f77b4; opacity: 0.6"/>
   </g>
   <g id="patch_56">
    <path d="M 787.938511 828.779375 
L 800.270463 828.779375 
L 800.270463 522.255721 
L 787.938511 522.255721 
z
" clip-path="url(#p9a665ee6ac)" style="fill: #1f77b4; opacity: 0.6"/>
   </g>
   <g id="patch_57">
    <path d="M 800.270463 828.779375 
L 812.602415 828.779375 
L 812.602415 537.634936 
L 800.270463 537.634936 
z
" clip-path="url(#p9a665ee6ac)" style="fill: #1f77b4; opacity: 0.6"/>
   </g>
   <g id="patch_58">
    <path d="M 812.602415 828.779375 
L 824.934366 828.779375 
L 824.934366 564.681141 
L 812.602415 564.681141 
z
" clip-path="url(#p9a665ee6ac)" style="fill: #1f77b4; opacity: 0.6"/>
   </g>
   <g id="patch_59">
    <path d="M 824.934366 828.779375 
L 837.266318 828.779375 
L 837.266318 565.741776 
L 824.934366 565.741776 
z
" clip-path="url(#p9a665ee6ac)" style="fill: #1f77b4; opacity: 0.6"/>
   </g>
   <g id="patch_60">
    <path d="M 837.266318 828.779375 
L 849.59827 828.779375 
L 849.59827 612.409737 
L 837.266318 612.409737 
z
" clip-path="url(#p9a665ee6ac)" style="fill: #1f77b4; opacity: 0.6"/>
   </g>
   <g id="patch_61">
    <path d="M 849.59827 828.779375 
L 861.930222 828.779375 
L 861.930222 626.197998 
L 849.59827 626.197998 
z
" clip-path="url(#p9a665ee6ac)" style="fill: #1f77b4; opacity: 0.6"/>
   </g>
   <g id="patch_62">
    <path d="M 861.930222 828.779375 
L 874.262173 828.779375 
L 874.262173 654.304839 
L 861.930222 654.304839 
z
" clip-path="url(#p9a665ee6ac)" style="fill: #1f77b4; opacity: 0.6"/>
   </g>
   <g id="patch_63">
    <path d="M 874.262173 828.779375 
L 886.594125 828.779375 
L 886.594125 647.941026 
L 874.262173 647.941026 
z
" clip-path="url(#p9a665ee6ac)" style="fill: #1f77b4; opacity: 0.6"/>
   </g>
   <g id="patch_64">
    <path d="M 886.594125 828.779375 
L 898.926077 828.779375 
L 898.926077 664.380876 
L 886.594125 664.380876 
z
" clip-path="url(#p9a665ee6ac)" style="fill: #1f77b4; opacity: 0.6"/>
   </g>
   <g id="patch_65">
    <path d="M 898.926077 828.779375 
L 911.258028 828.779375 
L 911.258028 710.518519 
L 898.926077 710.518519 
z
" clip-path="url(#p9a665ee6ac)" style="fill: #1f77b4; opacity: 0.6"/>
   </g>
   <g id="patch_66">
    <path d="M 911.258028 828.779375 
L 923.58998 828.779375 
L 923.58998 707.336613 
L 911.258028 707.336613 
z
" clip-path="url(#p9a665ee6ac)" style="fill: #1f77b4; opacity: 0.6"/>
   </g>
   <g id="patch_67">
    <path d="M 923.58998 828.779375 
L 935.921932 828.779375 
L 935.921932 710.518519 
L 923.58998 710.518519 
z
" clip-path="url(#p9a665ee6ac)" style="fill: #1f77b4; opacity: 0.6"/>
   </g>
   <g id="patch_68">
    <path d="M 935.921932 828.779375 
L 948.253884 828.779375 
L 948.253884 744.989172 
L 935.921932 744.989172 
z
" clip-path="url(#p9a665ee6ac)" style="fill: #1f77b4; opacity: 0.6"/>
   </g>
   <g id="patch_69">
    <path d="M 948.253884 828.779375 
L 960.585835 828.779375 
L 960.585835 730.670593 
L 948.253884 730.670593 
z
" clip-path="url(#p9a665ee6ac)" style="fill: #1f77b4; opacity: 0.6"/>
   </g>
   <g id="patch_70">
    <path d="M 960.585835 828.779375 
L 972.917787 828.779375 
L 972.917787 754.534891 
L 960.585835 754.534891 
z
" clip-path="url(#p9a665ee6ac)" style="fill: #1f77b4; opacity: 0.6"/>
   </g>
   <g id="patch_71">
    <path d="M 972.917787 828.779375 
L 985.249739 828.779375 
L 985.249739 757.18648 
L 972.917787 757.18648 
z
" clip-path="url(#p9a665ee6ac)" style="fill: #1f77b4; opacity: 0.6"/>
   </g>
   <g id="patch_72">
    <path d="M 985.249739 828.779375 
L 997.58169 828.779375 
L 997.58169 768.323153 
L 985.249739 768.323153 
z
" clip-path="url(#p9a665ee6ac)" style="fill: #1f77b4; opacity: 0.6"/>
   </g>
   <g id="patch_73">
    <path d="M 997.58169 828.779375 
L 1009.913642 828.779375 
L 1009.913642 782.111414 
L 997.58169 782.111414 
z
" clip-path="url(#p9a665ee6ac)" style="fill: #1f77b4; opacity: 0.6"/>
   </g>
   <g id="patch_74">
    <path d="M 1009.913642 828.779375 
L 1022.245594 828.779375 
L 1022.245594 783.172049 
L 1009.913642 783.172049 
z
" clip-path="url(#p9a665ee6ac)" style="fill: #1f77b4; opacity: 0.6"/>
   </g>
   <g id="patch_75">
    <path d="M 1022.245594 828.779375 
L 1034.577545 828.779375 
L 1034.577545 786.353956 
L 1022.245594 786.353956 
z
" clip-path="url(#p9a665ee6ac)" style="fill: #1f77b4; opacity: 0.6"/>
   </g>
   <g id="patch_76">
    <path d="M 1034.577545 828.779375 
L 1046.909497 828.779375 
L 1046.909497 787.414591 
L 1034.577545 787.414591 
z
" clip-path="url(#p9a665ee6ac)" style="fill: #1f77b4; opacity: 0.6"/>
   </g>
   <g id="patch_77">
    <path d="M 1046.909497 828.779375 
L 1059.241449 828.779375 
L 1059.241449 798.020946 
L 1046.909497 798.020946 
z
" clip-path="url(#p9a665ee6ac)" style="fill: #1f77b4; opacity: 0.6"/>
   </g>
   <g id="patch_78">
    <path d="M 1059.241449 828.779375 
L 1071.573401 828.779375 
L 1071.573401 811.809207 
L 1059.241449 811.809207 
z
" clip-path="url(#p9a665ee6ac)" style="fill: #1f77b4; opacity: 0.6"/>
   </g>
   <g id="patch_79">
    <path d="M 1071.573401 828.779375 
L 1083.905352 828.779375 
L 1083.905352 801.73317 
L 1071.573401 801.73317 
z
" clip-path="url(#p9a665ee6ac)" style="fill: #1f77b4; opacity: 0.6"/>
   </g>
   <g id="patch_80">
    <path d="M 1083.905352 828.779375 
L 1096.237304 828.779375 
L 1096.237304 810.748572 
L 1083.905352 810.748572 
z
" clip-path="url(#p9a665ee6ac)" style="fill: #1f77b4; opacity: 0.6"/>
   </g>
   <g id="patch_81">
    <path d="M 1096.237304 828.779375 
L 1108.569256 828.779375 
L 1108.569256 813.400161 
L 1096.237304 813.400161 
z
" clip-path="url(#p9a665ee6ac)" style="fill: #1f77b4; opacity: 0.6"/>
   </g>
   <g id="patch_82">
    <path d="M 1108.569256 828.779375 
L 1120.901207 828.779375 
L 1120.901207 817.642702 
L 1108.569256 817.642702 
z
" clip-path="url(#p9a665ee6ac)" style="fill: #1f77b4; opacity: 0.6"/>
   </g>
   <g id="patch_83">
    <path d="M 1120.901207 828.779375 
L 1133.233159 828.779375 
L 1133.233159 814.460796 
L 1120.901207 814.460796 
z
" clip-path="url(#p9a665ee6ac)" style="fill: #1f77b4; opacity: 0.6"/>
   </g>
   <g id="patch_84">
    <path d="M 1133.233159 828.779375 
L 1145.565111 828.779375 
L 1145.565111 819.763973 
L 1133.233159 819.763973 
z
" clip-path="url(#p9a665ee6ac)" style="fill: #1f77b4; opacity: 0.6"/>
   </g>
   <g id="patch_85">
    <path d="M 1145.565111 828.779375 
L 1157.897062 828.779375 
L 1157.897062 821.885244 
L 1145.565111 821.885244 
z
" clip-path="url(#p9a665ee6ac)" style="fill: #1f77b4; opacity: 0.6"/>
   </g>
   <g id="patch_86">
    <path d="M 1157.897062 828.779375 
L 1170.229014 828.779375 
L 1170.229014 819.763973 
L 1157.897062 819.763973 
z
" clip-path="url(#p9a665ee6ac)" style="fill: #1f77b4; opacity: 0.6"/>
   </g>
   <g id="patch_87">
    <path d="M 1170.229014 828.779375 
L 1182.560966 828.779375 
L 1182.560966 818.703338 
L 1170.229014 818.703338 
z
" clip-path="url(#p9a665ee6ac)" style="fill: #1f77b4; opacity: 0.6"/>
   </g>
   <g id="patch_88">
    <path d="M 1182.560966 828.779375 
L 1194.892918 828.779375 
L 1194.892918 821.885244 
L 1182.560966 821.885244 
z
" clip-path="url(#p9a665ee6ac)" style="fill: #1f77b4; opacity: 0.6"/>
   </g>
   <g id="patch_89">
    <path d="M 1194.892918 828.779375 
L 1207.224869 828.779375 
L 1207.224869 825.067151 
L 1194.892918 825.067151 
z
" clip-path="url(#p9a665ee6ac)" style="fill: #1f77b4; opacity: 0.6"/>
   </g>
   <g id="patch_90">
    <path d="M 1207.224869 828.779375 
L 1219.556821 828.779375 
L 1219.556821 826.127786 
L 1207.224869 826.127786 
z
" clip-path="url(#p9a665ee6ac)" style="fill: #1f77b4; opacity: 0.6"/>
   </g>
   <g id="patch_91">
    <path d="M 1219.556821 828.779375 
L 1231.888773 828.779375 
L 1231.888773 825.597469 
L 1219.556821 825.597469 
z
" clip-path="url(#p9a665ee6ac)" style="fill: #1f77b4; opacity: 0.6"/>
   </g>
   <g id="patch_92">
    <path d="M 1231.888773 828.779375 
L 1244.220724 828.779375 
L 1244.220724 827.71874 
L 1231.888773 827.71874 
z
" clip-path="url(#p9a665ee6ac)" style="fill: #1f77b4; opacity: 0.6"/>
   </g>
   <g id="patch_93">
    <path d="M 1244.220724 828.779375 
L 1256.552676 828.779375 
L 1256.552676 825.597469 
L 1244.220724 825.597469 
z
" clip-path="url(#p9a665ee6ac)" style="fill: #1f77b4; opacity: 0.6"/>
   </g>
   <g id="patch_94">
    <path d="M 1256.552676 828.779375 
L 1268.884628 828.779375 
L 1268.884628 827.188422 
L 1256.552676 827.188422 
z
" clip-path="url(#p9a665ee6ac)" style="fill: #1f77b4; opacity: 0.6"/>
   </g>
   <g id="patch_95">
    <path d="M 1268.884628 828.779375 
L 1281.21658 828.779375 
L 1281.21658 828.249057 
L 1268.884628 828.249057 
z
" clip-path="url(#p9a665ee6ac)" style="fill: #1f77b4; opacity: 0.6"/>
   </g>
   <g id="patch_96">
    <path d="M 1281.21658 828.779375 
L 1293.548531 828.779375 
L 1293.548531 827.71874 
L 1281.21658 827.71874 
z
" clip-path="url(#p9a665ee6ac)" style="fill: #1f77b4; opacity: 0.6"/>
   </g>
   <g id="patch_97">
    <path d="M 1293.548531 828.779375 
L 1305.880483 828.779375 
L 1305.880483 828.249057 
L 1293.548531 828.249057 
z
" clip-path="url(#p9a665ee6ac)" style="fill: #1f77b4; opacity: 0.6"/>
   </g>
   <g id="patch_98">
    <path d="M 1305.880483 828.779375 
L 1318.212435 828.779375 
L 1318.212435 827.188422 
L 1305.880483 827.188422 
z
" clip-path="url(#p9a665ee6ac)" style="fill: #1f77b4; opacity: 0.6"/>
   </g>
   <g id="patch_99">
    <path d="M 1318.212435 828.779375 
L 1330.544386 828.779375 
L 1330.544386 827.71874 
L 1318.212435 827.71874 
z
" clip-path="url(#p9a665ee6ac)" style="fill: #1f77b4; opacity: 0.6"/>
   </g>
   <g id="patch_100">
    <path d="M 1330.544386 828.779375 
L 1342.876338 828.779375 
L 1342.876338 828.779375 
L 1330.544386 828.779375 
z
" clip-path="url(#p9a665ee6ac)" style="fill: #1f77b4; opacity: 0.6"/>
   </g>
   <g id="patch_101">
    <path d="M 1342.876338 828.779375 
L 1355.20829 828.779375 
L 1355.20829 828.779375 
L 1342.876338 828.779375 
z
" clip-path="url(#p9a665ee6ac)" style="fill: #1f77b4; opacity: 0.6"/>
   </g>
   <g id="patch_102">
    <path d="M 1355.20829 828.779375 
L 1367.540241 828.779375 
L 1367.540241 827.71874 
L 1355.20829 827.71874 
z
" clip-path="url(#p9a665ee6ac)" style="fill: #1f77b4; opacity: 0.6"/>
   </g>
   <g id="matplotlib.axis_1">
    <g id="xtick_1">
     <g id="line2d_1">
      <defs>
       <path id="mf536662842" d="M 0 0 
L 0 3.5 
" style="stroke: #000000; stroke-width: 0.8"/>
      </defs>
      <g>
       <use xlink:href="#mf536662842" x="102.886998" y="828.779375" style="stroke: #000000; stroke-width: 0.8"/>
      </g>
     </g>
     <g id="text_1">
      <!-- 0 -->
      <g transform="translate(97.160748 849.456563) scale(0.18 -0.18)">
       <defs>
        <path id="DejaVuSans-30" d="M 2034 4250 
Q 1547 4250 1301 3770 
Q 1056 3291 1056 2328 
Q 1056 1369 1301 889 
Q 1547 409 2034 409 
Q 2525 409 2770 889 
Q 3016 1369 3016 2328 
Q 3016 3291 2770 3770 
Q 2525 4250 2034 4250 
z
M 2034 4750 
Q 2819 4750 3233 4129 
Q 3647 3509 3647 2328 
Q 3647 1150 3233 529 
Q 2819 -91 2034 -91 
Q 1250 -91 836 529 
Q 422 1150 422 2328 
Q 422 3509 836 4129 
Q 1250 4750 2034 4750 
z
" transform="scale(0.015625)"/>
       </defs>
       <use xlink:href="#DejaVuSans-30"/>
      </g>
     </g>
    </g>
    <g id="xtick_2">
     <g id="line2d_2">
      <g>
       <use xlink:href="#mf536662842" x="356.256313" y="828.779375" style="stroke: #000000; stroke-width: 0.8"/>
      </g>
     </g>
     <g id="text_2">
      <!-- 1 -->
      <g transform="translate(350.530063 849.456563) scale(0.18 -0.18)">
       <defs>
        <path id="DejaVuSans-31" d="M 794 531 
L 1825 531 
L 1825 4091 
L 703 3866 
L 703 4441 
L 1819 4666 
L 2450 4666 
L 2450 531 
L 3481 531 
L 3481 0 
L 794 0 
L 794 531 
z
" transform="scale(0.015625)"/>
       </defs>
       <use xlink:href="#DejaVuSans-31"/>
      </g>
     </g>
    </g>
    <g id="xtick_3">
     <g id="line2d_3">
      <g>
       <use xlink:href="#mf536662842" x="609.625628" y="828.779375" style="stroke: #000000; stroke-width: 0.8"/>
      </g>
     </g>
     <g id="text_3">
      <!-- 2 -->
      <g transform="translate(603.899378 849.456563) scale(0.18 -0.18)">
       <defs>
        <path id="DejaVuSans-32" d="M 1228 531 
L 3431 531 
L 3431 0 
L 469 0 
L 469 531 
Q 828 903 1448 1529 
Q 2069 2156 2228 2338 
Q 2531 2678 2651 2914 
Q 2772 3150 2772 3378 
Q 2772 3750 2511 3984 
Q 2250 4219 1831 4219 
Q 1534 4219 1204 4116 
Q 875 4013 500 3803 
L 500 4441 
Q 881 4594 1212 4672 
Q 1544 4750 1819 4750 
Q 2544 4750 2975 4387 
Q 3406 4025 3406 3419 
Q 3406 3131 3298 2873 
Q 3191 2616 2906 2266 
Q 2828 2175 2409 1742 
Q 1991 1309 1228 531 
z
" transform="scale(0.015625)"/>
       </defs>
       <use xlink:href="#DejaVuSans-32"/>
      </g>
     </g>
    </g>
    <g id="xtick_4">
     <g id="line2d_4">
      <g>
       <use xlink:href="#mf536662842" x="862.994943" y="828.779375" style="stroke: #000000; stroke-width: 0.8"/>
      </g>
     </g>
     <g id="text_4">
      <!-- 3 -->
      <g transform="translate(857.268693 849.456563) scale(0.18 -0.18)">
       <defs>
        <path id="DejaVuSans-33" d="M 2597 2516 
Q 3050 2419 3304 2112 
Q 3559 1806 3559 1356 
Q 3559 666 3084 287 
Q 2609 -91 1734 -91 
Q 1441 -91 1130 -33 
Q 819 25 488 141 
L 488 750 
Q 750 597 1062 519 
Q 1375 441 1716 441 
Q 2309 441 2620 675 
Q 2931 909 2931 1356 
Q 2931 1769 2642 2001 
Q 2353 2234 1838 2234 
L 1294 2234 
L 1294 2753 
L 1863 2753 
Q 2328 2753 2575 2939 
Q 2822 3125 2822 3475 
Q 2822 3834 2567 4026 
Q 2313 4219 1838 4219 
Q 1578 4219 1281 4162 
Q 984 4106 628 3988 
L 628 4550 
Q 988 4650 1302 4700 
Q 1616 4750 1894 4750 
Q 2613 4750 3031 4423 
Q 3450 4097 3450 3541 
Q 3450 3153 3228 2886 
Q 3006 2619 2597 2516 
z
" transform="scale(0.015625)"/>
       </defs>
       <use xlink:href="#DejaVuSans-33"/>
      </g>
     </g>
    </g>
    <g id="xtick_5">
     <g id="line2d_5">
      <g>
       <use xlink:href="#mf536662842" x="1116.364258" y="828.779375" style="stroke: #000000; stroke-width: 0.8"/>
      </g>
     </g>
     <g id="text_5">
      <!-- 4 -->
      <g transform="translate(1110.638008 849.456563) scale(0.18 -0.18)">
       <defs>
        <path id="DejaVuSans-34" d="M 2419 4116 
L 825 1625 
L 2419 1625 
L 2419 4116 
z
M 2253 4666 
L 3047 4666 
L 3047 1625 
L 3713 1625 
L 3713 1100 
L 3047 1100 
L 3047 0 
L 2419 0 
L 2419 1100 
L 313 1100 
L 313 1709 
L 2253 4666 
z
" transform="scale(0.015625)"/>
       </defs>
       <use xlink:href="#DejaVuSans-34"/>
      </g>
     </g>
    </g>
    <g id="xtick_6">
     <g id="line2d_6">
      <g>
       <use xlink:href="#mf536662842" x="1369.733573" y="828.779375" style="stroke: #000000; stroke-width: 0.8"/>
      </g>
     </g>
     <g id="text_6">
      <!-- 5 -->
      <g transform="translate(1364.007323 849.456563) scale(0.18 -0.18)">
       <defs>
        <path id="DejaVuSans-35" d="M 691 4666 
L 3169 4666 
L 3169 4134 
L 1269 4134 
L 1269 2991 
Q 1406 3038 1543 3061 
Q 1681 3084 1819 3084 
Q 2600 3084 3056 2656 
Q 3513 2228 3513 1497 
Q 3513 744 3044 326 
Q 2575 -91 1722 -91 
Q 1428 -91 1123 -41 
Q 819 9 494 109 
L 494 744 
Q 775 591 1075 516 
Q 1375 441 1709 441 
Q 2250 441 2565 725 
Q 2881 1009 2881 1497 
Q 2881 1984 2565 2268 
Q 2250 2553 1709 2553 
Q 1456 2553 1204 2497 
Q 953 2441 691 2322 
L 691 4666 
z
" transform="scale(0.015625)"/>
       </defs>
       <use xlink:href="#DejaVuSans-35"/>
      </g>
     </g>
    </g>
   </g>
   <g id="matplotlib.axis_2">
    <g id="ytick_1">
     <g id="line2d_7">
      <defs>
       <path id="m6e08b01d7f" d="M 0 0 
L -3.5 0 
" style="stroke: #000000; stroke-width: 0.8"/>
      </defs>
      <g>
       <use xlink:href="#m6e08b01d7f" x="72.685313" y="828.779375" style="stroke: #000000; stroke-width: 0.8"/>
      </g>
     </g>
     <g id="text_7">
      <!-- 0.0 -->
      <g transform="translate(37.059688 835.617969) scale(0.18 -0.18)">
       <defs>
        <path id="DejaVuSans-2e" d="M 684 794 
L 1344 794 
L 1344 0 
L 684 0 
L 684 794 
z
" transform="scale(0.015625)"/>
       </defs>
       <use xlink:href="#DejaVuSans-30"/>
       <use xlink:href="#DejaVuSans-2e" x="63.623047"/>
       <use xlink:href="#DejaVuSans-30" x="95.410156"/>
      </g>
     </g>
    </g>
    <g id="ytick_2">
     <g id="line2d_8">
      <g>
       <use xlink:href="#m6e08b01d7f" x="72.685313" y="699.721664" style="stroke: #000000; stroke-width: 0.8"/>
      </g>
     </g>
     <g id="text_8">
      <!-- 0.1 -->
      <g transform="translate(37.059688 706.560258) scale(0.18 -0.18)">
       <use xlink:href="#DejaVuSans-30"/>
       <use xlink:href="#DejaVuSans-2e" x="63.623047"/>
       <use xlink:href="#DejaVuSans-31" x="95.410156"/>
      </g>
     </g>
    </g>
    <g id="ytick_3">
     <g id="line2d_9">
      <g>
       <use xlink:href="#m6e08b01d7f" x="72.685313" y="570.663954" style="stroke: #000000; stroke-width: 0.8"/>
      </g>
     </g>
     <g id="text_9">
      <!-- 0.2 -->
      <g transform="translate(37.059688 577.502547) scale(0.18 -0.18)">
       <use xlink:href="#DejaVuSans-30"/>
       <use xlink:href="#DejaVuSans-2e" x="63.623047"/>
       <use xlink:href="#DejaVuSans-32" x="95.410156"/>
      </g>
     </g>
    </g>
    <g id="ytick_4">
     <g id="line2d_10">
      <g>
       <use xlink:href="#m6e08b01d7f" x="72.685313" y="441.606243" style="stroke: #000000; stroke-width: 0.8"/>
      </g>
     </g>
     <g id="text_10">
      <!-- 0.3 -->
      <g transform="translate(37.059688 448.444837) scale(0.18 -0.18)">
       <use xlink:href="#DejaVuSans-30"/>
       <use xlink:href="#DejaVuSans-2e" x="63.623047"/>
       <use xlink:href="#DejaVuSans-33" x="95.410156"/>
      </g>
     </g>
    </g>
    <g id="ytick_5">
     <g id="line2d_11">
      <g>
       <use xlink:href="#m6e08b01d7f" x="72.685313" y="312.548532" style="stroke: #000000; stroke-width: 0.8"/>
      </g>
     </g>
     <g id="text_11">
      <!-- 0.4 -->
      <g transform="translate(37.059688 319.387126) scale(0.18 -0.18)">
       <use xlink:href="#DejaVuSans-30"/>
       <use xlink:href="#DejaVuSans-2e" x="63.623047"/>
       <use xlink:href="#DejaVuSans-34" x="95.410156"/>
      </g>
     </g>
    </g>
    <g id="ytick_6">
     <g id="line2d_12">
      <g>
       <use xlink:href="#m6e08b01d7f" x="72.685313" y="183.490821" style="stroke: #000000; stroke-width: 0.8"/>
      </g>
     </g>
     <g id="text_12">
      <!-- 0.5 -->
      <g transform="translate(37.059688 190.329415) scale(0.18 -0.18)">
       <use xlink:href="#DejaVuSans-30"/>
       <use xlink:href="#DejaVuSans-2e" x="63.623047"/>
       <use xlink:href="#DejaVuSans-35" x="95.410156"/>
      </g>
     </g>
    </g>
    <g id="ytick_7">
     <g id="line2d_13">
      <g>
       <use xlink:href="#m6e08b01d7f" x="72.685313" y="54.433111" style="stroke: #000000; stroke-width: 0.8"/>
      </g>
     </g>
     <g id="text_13">
      <!-- 0.6 -->
      <g transform="translate(37.059688 61.271704) scale(0.18 -0.18)">
       <defs>
        <path id="DejaVuSans-36" d="M 2113 2584 
Q 1688 2584 1439 2293 
Q 1191 2003 1191 1497 
Q 1191 994 1439 701 
Q 1688 409 2113 409 
Q 2538 409 2786 701 
Q 3034 994 3034 1497 
Q 3034 2003 2786 2293 
Q 2538 2584 2113 2584 
z
M 3366 4563 
L 3366 3988 
Q 3128 4100 2886 4159 
Q 2644 4219 2406 4219 
Q 1781 4219 1451 3797 
Q 1122 3375 1075 2522 
Q 1259 2794 1537 2939 
Q 1816 3084 2150 3084 
Q 2853 3084 3261 2657 
Q 3669 2231 3669 1497 
Q 3669 778 3244 343 
Q 2819 -91 2113 -91 
Q 1303 -91 875 529 
Q 447 1150 447 2328 
Q 447 3434 972 4092 
Q 1497 4750 2381 4750 
Q 2619 4750 2861 4703 
Q 3103 4656 3366 4563 
z
" transform="scale(0.015625)"/>
       </defs>
       <use xlink:href="#DejaVuSans-30"/>
       <use xlink:href="#DejaVuSans-2e" x="63.623047"/>
       <use xlink:href="#DejaVuSans-36" x="95.410156"/>
      </g>
     </g>
    </g>
    <g id="text_14">
     <!-- Normed Hist Counts -->
     <g transform="translate(28.276406 548.966563) rotate(-90) scale(0.23 -0.23)">
      <defs>
       <path id="DejaVuSans-4e" d="M 628 4666 
L 1478 4666 
L 3547 763 
L 3547 4666 
L 4159 4666 
L 4159 0 
L 3309 0 
L 1241 3903 
L 1241 0 
L 628 0 
L 628 4666 
z
" transform="scale(0.015625)"/>
       <path id="DejaVuSans-6f" d="M 1959 3097 
Q 1497 3097 1228 2736 
Q 959 2375 959 1747 
Q 959 1119 1226 758 
Q 1494 397 1959 397 
Q 2419 397 2687 759 
Q 2956 1122 2956 1747 
Q 2956 2369 2687 2733 
Q 2419 3097 1959 3097 
z
M 1959 3584 
Q 2709 3584 3137 3096 
Q 3566 2609 3566 1747 
Q 3566 888 3137 398 
Q 2709 -91 1959 -91 
Q 1206 -91 779 398 
Q 353 888 353 1747 
Q 353 2609 779 3096 
Q 1206 3584 1959 3584 
z
" transform="scale(0.015625)"/>
       <path id="DejaVuSans-72" d="M 2631 2963 
Q 2534 3019 2420 3045 
Q 2306 3072 2169 3072 
Q 1681 3072 1420 2755 
Q 1159 2438 1159 1844 
L 1159 0 
L 581 0 
L 581 3500 
L 1159 3500 
L 1159 2956 
Q 1341 3275 1631 3429 
Q 1922 3584 2338 3584 
Q 2397 3584 2469 3576 
Q 2541 3569 2628 3553 
L 2631 2963 
z
" transform="scale(0.015625)"/>
       <path id="DejaVuSans-6d" d="M 3328 2828 
Q 3544 3216 3844 3400 
Q 4144 3584 4550 3584 
Q 5097 3584 5394 3201 
Q 5691 2819 5691 2113 
L 5691 0 
L 5113 0 
L 5113 2094 
Q 5113 2597 4934 2840 
Q 4756 3084 4391 3084 
Q 3944 3084 3684 2787 
Q 3425 2491 3425 1978 
L 3425 0 
L 2847 0 
L 2847 2094 
Q 2847 2600 2669 2842 
Q 2491 3084 2119 3084 
Q 1678 3084 1418 2786 
Q 1159 2488 1159 1978 
L 1159 0 
L 581 0 
L 581 3500 
L 1159 3500 
L 1159 2956 
Q 1356 3278 1631 3431 
Q 1906 3584 2284 3584 
Q 2666 3584 2933 3390 
Q 3200 3197 3328 2828 
z
" transform="scale(0.015625)"/>
       <path id="DejaVuSans-65" d="M 3597 1894 
L 3597 1613 
L 953 1613 
Q 991 1019 1311 708 
Q 1631 397 2203 397 
Q 2534 397 2845 478 
Q 3156 559 3463 722 
L 3463 178 
Q 3153 47 2828 -22 
Q 2503 -91 2169 -91 
Q 1331 -91 842 396 
Q 353 884 353 1716 
Q 353 2575 817 3079 
Q 1281 3584 2069 3584 
Q 2775 3584 3186 3129 
Q 3597 2675 3597 1894 
z
M 3022 2063 
Q 3016 2534 2758 2815 
Q 2500 3097 2075 3097 
Q 1594 3097 1305 2825 
Q 1016 2553 972 2059 
L 3022 2063 
z
" transform="scale(0.015625)"/>
       <path id="DejaVuSans-64" d="M 2906 2969 
L 2906 4863 
L 3481 4863 
L 3481 0 
L 2906 0 
L 2906 525 
Q 2725 213 2448 61 
Q 2172 -91 1784 -91 
Q 1150 -91 751 415 
Q 353 922 353 1747 
Q 353 2572 751 3078 
Q 1150 3584 1784 3584 
Q 2172 3584 2448 3432 
Q 2725 3281 2906 2969 
z
M 947 1747 
Q 947 1113 1208 752 
Q 1469 391 1925 391 
Q 2381 391 2643 752 
Q 2906 1113 2906 1747 
Q 2906 2381 2643 2742 
Q 2381 3103 1925 3103 
Q 1469 3103 1208 2742 
Q 947 2381 947 1747 
z
" transform="scale(0.015625)"/>
       <path id="DejaVuSans-20" transform="scale(0.015625)"/>
       <path id="DejaVuSans-48" d="M 628 4666 
L 1259 4666 
L 1259 2753 
L 3553 2753 
L 3553 4666 
L 4184 4666 
L 4184 0 
L 3553 0 
L 3553 2222 
L 1259 2222 
L 1259 0 
L 628 0 
L 628 4666 
z
" transform="scale(0.015625)"/>
       <path id="DejaVuSans-69" d="M 603 3500 
L 1178 3500 
L 1178 0 
L 603 0 
L 603 3500 
z
M 603 4863 
L 1178 4863 
L 1178 4134 
L 603 4134 
L 603 4863 
z
" transform="scale(0.015625)"/>
       <path id="DejaVuSans-73" d="M 2834 3397 
L 2834 2853 
Q 2591 2978 2328 3040 
Q 2066 3103 1784 3103 
Q 1356 3103 1142 2972 
Q 928 2841 928 2578 
Q 928 2378 1081 2264 
Q 1234 2150 1697 2047 
L 1894 2003 
Q 2506 1872 2764 1633 
Q 3022 1394 3022 966 
Q 3022 478 2636 193 
Q 2250 -91 1575 -91 
Q 1294 -91 989 -36 
Q 684 19 347 128 
L 347 722 
Q 666 556 975 473 
Q 1284 391 1588 391 
Q 1994 391 2212 530 
Q 2431 669 2431 922 
Q 2431 1156 2273 1281 
Q 2116 1406 1581 1522 
L 1381 1569 
Q 847 1681 609 1914 
Q 372 2147 372 2553 
Q 372 3047 722 3315 
Q 1072 3584 1716 3584 
Q 2034 3584 2315 3537 
Q 2597 3491 2834 3397 
z
" transform="scale(0.015625)"/>
       <path id="DejaVuSans-74" d="M 1172 4494 
L 1172 3500 
L 2356 3500 
L 2356 3053 
L 1172 3053 
L 1172 1153 
Q 1172 725 1289 603 
Q 1406 481 1766 481 
L 2356 481 
L 2356 0 
L 1766 0 
Q 1100 0 847 248 
Q 594 497 594 1153 
L 594 3053 
L 172 3053 
L 172 3500 
L 594 3500 
L 594 4494 
L 1172 4494 
z
" transform="scale(0.015625)"/>
       <path id="DejaVuSans-43" d="M 4122 4306 
L 4122 3641 
Q 3803 3938 3442 4084 
Q 3081 4231 2675 4231 
Q 1875 4231 1450 3742 
Q 1025 3253 1025 2328 
Q 1025 1406 1450 917 
Q 1875 428 2675 428 
Q 3081 428 3442 575 
Q 3803 722 4122 1019 
L 4122 359 
Q 3791 134 3420 21 
Q 3050 -91 2638 -91 
Q 1578 -91 968 557 
Q 359 1206 359 2328 
Q 359 3453 968 4101 
Q 1578 4750 2638 4750 
Q 3056 4750 3426 4639 
Q 3797 4528 4122 4306 
z
" transform="scale(0.015625)"/>
       <path id="DejaVuSans-75" d="M 544 1381 
L 544 3500 
L 1119 3500 
L 1119 1403 
Q 1119 906 1312 657 
Q 1506 409 1894 409 
Q 2359 409 2629 706 
Q 2900 1003 2900 1516 
L 2900 3500 
L 3475 3500 
L 3475 0 
L 2900 0 
L 2900 538 
Q 2691 219 2414 64 
Q 2138 -91 1772 -91 
Q 1169 -91 856 284 
Q 544 659 544 1381 
z
M 1991 3584 
L 1991 3584 
z
" transform="scale(0.015625)"/>
       <path id="DejaVuSans-6e" d="M 3513 2113 
L 3513 0 
L 2938 0 
L 2938 2094 
Q 2938 2591 2744 2837 
Q 2550 3084 2163 3084 
Q 1697 3084 1428 2787 
Q 1159 2491 1159 1978 
L 1159 0 
L 581 0 
L 581 3500 
L 1159 3500 
L 1159 2956 
Q 1366 3272 1645 3428 
Q 1925 3584 2291 3584 
Q 2894 3584 3203 3211 
Q 3513 2838 3513 2113 
z
" transform="scale(0.015625)"/>
      </defs>
      <use xlink:href="#DejaVuSans-4e"/>
      <use xlink:href="#DejaVuSans-6f" x="74.804688"/>
      <use xlink:href="#DejaVuSans-72" x="135.986328"/>
      <use xlink:href="#DejaVuSans-6d" x="175.349609"/>
      <use xlink:href="#DejaVuSans-65" x="272.761719"/>
      <use xlink:href="#DejaVuSans-64" x="334.285156"/>
      <use xlink:href="#DejaVuSans-20" x="397.761719"/>
      <use xlink:href="#DejaVuSans-48" x="429.548828"/>
      <use xlink:href="#DejaVuSans-69" x="504.744141"/>
      <use xlink:href="#DejaVuSans-73" x="532.527344"/>
      <use xlink:href="#DejaVuSans-74" x="584.626953"/>
      <use xlink:href="#DejaVuSans-20" x="623.835938"/>
      <use xlink:href="#DejaVuSans-43" x="655.623047"/>
      <use xlink:href="#DejaVuSans-6f" x="725.447266"/>
      <use xlink:href="#DejaVuSans-75" x="786.628906"/>
      <use xlink:href="#DejaVuSans-6e" x="850.007812"/>
      <use xlink:href="#DejaVuSans-74" x="913.386719"/>
      <use xlink:href="#DejaVuSans-73" x="952.595703"/>
     </g>
    </g>
   </g>
   <g id="line2d_14">
    <path d="M 137.428059 827.921399 
L 143.594035 827.138748 
L 149.760011 826.003001 
L 155.925987 824.458817 
L 162.091962 822.454738 
L 168.257938 819.943192 
L 174.423914 816.880552 
L 180.58989 813.227219 
L 186.755866 808.947712 
L 192.921842 804.010769 
L 199.087817 798.389429 
L 205.253793 792.061105 
L 211.419769 785.00765 
L 217.585745 777.215395 
L 223.751721 768.675174 
L 229.917697 759.382331 
L 236.083673 749.336697 
L 242.249648 738.542557 
L 248.415624 727.008587 
L 254.5816 714.747772 
L 260.747576 701.777307 
L 266.913552 688.118474 
L 273.079528 673.796493 
L 279.245504 658.840371 
L 285.411479 643.282712 
L 291.577455 627.159528 
L 297.743431 610.510023 
L 303.909407 593.376369 
L 310.075383 575.803465 
L 316.241359 557.838688 
L 328.57331 520.933833 
L 340.905262 483.080275 
L 377.901117 368.291538 
L 390.233069 331.137191 
L 396.399045 313.019747 
L 402.565021 295.280167 
L 408.730996 277.970094 
L 414.896972 261.139392 
L 421.062948 244.835948 
L 427.228924 229.105469 
L 433.3949 213.991317 
L 439.560876 199.53434 
L 445.726852 185.772732 
L 451.892827 172.741903 
L 458.058803 160.474367 
L 464.224779 148.999651 
L 470.390755 138.344215 
L 476.556731 128.531392 
L 482.722707 119.581347 
L 488.888683 111.511051 
L 495.054658 104.334269 
L 501.220634 98.061567 
L 507.38661 92.700335 
L 513.552586 88.254825 
L 519.718562 84.726199 
L 525.884538 82.112595 
L 532.050513 80.409207 
L 538.216489 79.608371 
L 544.382465 79.699668 
L 550.548441 80.670036 
L 556.714417 82.503888 
L 562.880393 85.183242 
L 569.046369 88.687858 
L 575.212344 92.995379 
L 581.37832 98.081479 
L 587.544296 103.920019 
L 593.710272 110.483196 
L 599.876248 117.741709 
L 606.042224 125.664913 
L 612.2082 134.220983 
L 618.374175 143.377072 
L 624.540151 153.099473 
L 630.706127 163.353776 
L 636.872103 174.105019 
L 643.038079 185.317847 
L 649.204055 196.95665 
L 655.370031 208.985717 
L 661.536006 221.369364 
L 667.701982 234.072074 
L 680.033934 260.294174 
L 692.365886 287.375775 
L 704.697837 315.050633 
L 754.025644 426.863992 
L 766.357596 454.046577 
L 778.689548 480.57087 
L 791.021499 506.298606 
L 803.353451 531.112606 
L 809.519427 543.145993 
L 815.685403 554.916307 
L 821.851379 566.414576 
L 828.017354 577.633005 
L 834.18333 588.564944 
L 840.349306 599.204849 
L 846.515282 609.548235 
L 852.681258 619.59164 
L 858.847234 629.332574 
L 865.01321 638.769475 
L 871.179185 647.90166 
L 877.345161 656.729278 
L 883.511137 665.25326 
L 889.677113 673.475269 
L 895.843089 681.39765 
L 902.009065 689.023385 
L 908.17504 696.35604 
L 914.341016 703.39972 
L 920.506992 710.15902 
L 926.672968 716.638979 
L 932.838944 722.845038 
L 939.00492 728.782992 
L 945.170896 734.458953 
L 951.336871 739.879304 
L 957.502847 745.050665 
L 963.668823 749.979852 
L 969.834799 754.673845 
L 976.000775 759.139749 
L 982.166751 763.384768 
L 988.332727 767.416172 
L 994.498702 771.241268 
L 1000.664678 774.867378 
L 1006.830654 778.301806 
L 1012.99663 781.551826 
L 1019.162606 784.624653 
L 1025.328582 787.527426 
L 1031.494558 790.267194 
L 1037.660533 792.850895 
L 1043.826509 795.285345 
L 1049.992485 797.577224 
L 1056.158461 799.733069 
L 1062.324437 801.759256 
L 1068.490413 803.661999 
L 1080.822364 807.121149 
L 1093.154316 810.156703 
L 1105.486268 812.811887 
L 1117.818219 815.126895 
L 1130.150171 817.138879 
L 1142.482123 818.88198 
L 1154.814075 820.387401 
L 1167.146026 821.683509 
L 1179.477978 822.795967 
L 1197.975906 824.170173 
L 1216.473833 825.250561 
L 1234.971761 826.094219 
L 1259.635664 826.931658 
L 1284.299567 827.521567 
L 1315.129447 828.01328 
L 1352.125302 828.366016 
L 1364.457254 828.444639 
L 1364.457254 828.444639 
" clip-path="url(#p9a665ee6ac)" style="fill: none; stroke: #ff7f0e; stroke-width: 1.5; stroke-linecap: square"/>
   </g>
   <g id="line2d_15">
    <path d="M 137.428059 823.703063 
L 143.594035 822.458347 
L 149.760011 820.974725 
L 155.925987 819.220361 
L 162.091962 817.161597 
L 168.257938 814.763198 
L 174.423914 811.988652 
L 180.58989 808.80051 
L 186.755866 805.160774 
L 192.921842 801.031319 
L 199.087817 796.374343 
L 205.253793 791.152851 
L 211.419769 785.331145 
L 217.585745 778.875334 
L 223.751721 771.753834 
L 229.917697 763.937874 
L 236.083673 755.401973 
L 242.249648 746.124406 
L 248.415624 736.087633 
L 254.5816 725.278687 
L 260.747576 713.689524 
L 266.913552 701.317322 
L 273.079528 688.164719 
L 279.245504 674.240001 
L 285.411479 659.55722 
L 291.577455 644.136257 
L 297.743431 628.002813 
L 303.909407 611.188341 
L 310.075383 593.729911 
L 316.241359 575.670022 
L 322.407335 557.056345 
L 328.57331 537.941422 
L 334.739286 518.382306 
L 347.071238 478.179837 
L 359.40319 436.979484 
L 384.067093 353.905433 
L 396.399045 313.239778 
L 402.565021 293.389073 
L 408.730996 273.957646 
L 414.896972 255.016456 
L 421.062948 236.633963 
L 427.228924 218.875706 
L 433.3949 201.803921 
L 439.560876 185.477186 
L 445.726852 169.950115 
L 451.892827 155.273086 
L 458.058803 141.49201 
L 464.224779 128.648149 
L 470.390755 116.77796 
L 476.556731 105.913001 
L 482.722707 96.079857 
L 488.888683 87.300119 
L 495.054658 79.590393 
L 501.220634 72.962346 
L 507.38661 67.422787 
L 513.552586 62.97378 
L 519.718562 59.612778 
L 525.884538 57.332793 
L 532.050513 56.122584 
L 538.216489 55.966866 
L 544.382465 56.846535 
L 550.548441 58.738914 
L 556.714417 61.618002 
L 562.880393 65.454744 
L 569.046369 70.217296 
L 575.212344 75.871303 
L 581.37832 82.380176 
L 587.544296 89.705372 
L 593.710272 97.806664 
L 599.876248 106.642418 
L 606.042224 116.169854 
L 612.2082 126.34531 
L 618.374175 137.124484 
L 624.540151 148.46268 
L 630.706127 160.315037 
L 636.872103 172.63674 
L 643.038079 185.383229 
L 649.204055 198.510391 
L 655.370031 211.974733 
L 667.701982 239.745067 
L 680.033934 268.364602 
L 698.531862 312.212544 
L 723.195765 370.941383 
L 735.527717 399.877139 
L 747.859668 428.255094 
L 760.19162 455.905129 
L 772.523572 482.683646 
L 778.689548 495.708222 
L 784.855523 508.472561 
L 791.021499 520.965667 
L 797.187475 533.177954 
L 803.353451 545.101195 
L 809.519427 556.728457 
L 815.685403 568.054047 
L 821.851379 579.073451 
L 828.017354 589.783267 
L 834.18333 600.181147 
L 840.349306 610.265734 
L 846.515282 620.036598 
L 852.681258 629.494174 
L 858.847234 638.639702 
L 865.01321 647.475167 
L 871.179185 656.003237 
L 877.345161 664.227211 
L 883.511137 672.150958 
L 889.677113 679.778868 
L 895.843089 687.115795 
L 902.009065 694.167011 
L 908.17504 700.938156 
L 914.341016 707.435195 
L 920.506992 713.664372 
L 926.672968 719.632168 
L 932.838944 725.345265 
L 939.00492 730.810511 
L 945.170896 736.034879 
L 951.336871 741.025441 
L 957.502847 745.789336 
L 963.668823 750.333742 
L 969.834799 754.66585 
L 976.000775 758.792841 
L 982.166751 762.721864 
L 988.332727 766.460019 
L 994.498702 770.014334 
L 1000.664678 773.39175 
L 1006.830654 776.599112 
L 1012.99663 779.643148 
L 1019.162606 782.530463 
L 1025.328582 785.267527 
L 1031.494558 787.860666 
L 1037.660533 790.316058 
L 1043.826509 792.639721 
L 1049.992485 794.837511 
L 1062.324437 798.878069 
L 1074.656388 802.481211 
L 1086.98834 805.687654 
L 1099.320292 808.535338 
L 1111.652244 811.059452 
L 1123.984195 813.292496 
L 1136.316147 815.264363 
L 1148.648099 817.002443 
L 1160.98005 818.531746 
L 1173.312002 819.875026 
L 1185.643954 821.052923 
L 1204.141881 822.54999 
L 1222.639809 823.771879 
L 1241.137737 824.765704 
L 1259.635664 825.571313 
L 1284.299567 826.409811 
L 1308.963471 827.037343 
L 1339.79335 827.601007 
L 1364.457254 827.92168 
L 1364.457254 827.92168 
" clip-path="url(#p9a665ee6ac)" style="fill: none; stroke: #2ca02c; stroke-width: 1.5; stroke-linecap: square"/>
   </g>
   <g id="line2d_16">
    <path d="M 137.428059 98.749926 
L 149.760011 118.710751 
L 162.091962 138.125797 
L 174.423914 157.009988 
L 186.755866 175.377838 
L 199.087817 193.243465 
L 211.419769 210.620602 
L 223.751721 227.522604 
L 236.083673 243.962463 
L 248.415624 259.952816 
L 260.747576 275.505952 
L 273.079528 290.633827 
L 285.411479 305.348068 
L 297.743431 319.659985 
L 310.075383 333.580578 
L 322.407335 347.120548 
L 334.739286 360.290301 
L 347.071238 373.099961 
L 359.40319 385.559372 
L 371.735141 397.678112 
L 384.067093 409.465495 
L 396.399045 420.930582 
L 408.730996 432.082185 
L 421.062948 442.928875 
L 433.3949 453.47899 
L 445.726852 463.740638 
L 458.058803 473.721708 
L 470.390755 483.429869 
L 482.722707 492.872586 
L 495.054658 502.057115 
L 507.38661 510.990516 
L 519.718562 519.679656 
L 532.050513 528.131213 
L 544.382465 536.351683 
L 556.714417 544.347386 
L 569.046369 552.124465 
L 581.37832 559.6889 
L 593.710272 567.046505 
L 606.042224 574.202934 
L 618.374175 581.163689 
L 630.706127 587.934119 
L 643.038079 594.519429 
L 655.370031 600.92468 
L 667.701982 607.154795 
L 680.033934 613.214564 
L 698.531862 621.99497 
L 717.029789 630.417732 
L 735.527717 638.497417 
L 754.025644 646.248 
L 772.523572 653.682885 
L 791.021499 660.814932 
L 809.519427 667.656476 
L 828.017354 674.219349 
L 846.515282 680.514902 
L 865.01321 686.554025 
L 883.511137 692.347161 
L 902.009065 697.904331 
L 920.506992 703.235146 
L 939.00492 708.348825 
L 957.502847 713.254214 
L 976.000775 717.959795 
L 994.498702 722.473709 
L 1012.99663 726.803762 
L 1031.494558 730.957442 
L 1056.158461 736.2337 
L 1080.822364 741.225371 
L 1105.486268 745.947804 
L 1130.150171 750.415521 
L 1154.814075 754.642262 
L 1179.477978 758.641023 
L 1204.141881 762.424102 
L 1228.805785 766.003131 
L 1253.469688 769.389117 
L 1284.299567 773.36594 
L 1315.129447 777.076472 
L 1345.959326 780.538543 
L 1364.457254 782.503494 
L 1364.457254 782.503494 
" clip-path="url(#p9a665ee6ac)" style="fill: none; stroke: #d62728; stroke-width: 1.5; stroke-linecap: square"/>
   </g>
   <g id="line2d_17">
    <path d="M 137.428059 775.811105 
L 149.760011 770.872827 
L 162.091962 765.47415 
L 168.257938 762.588899 
L 174.423914 759.572148 
L 180.58989 756.417904 
L 186.755866 753.119898 
L 192.921842 749.671581 
L 199.087817 746.066099 
L 205.253793 742.296292 
L 211.419769 738.354669 
L 217.585745 734.233399 
L 223.751721 729.924295 
L 229.917697 725.418795 
L 236.083673 720.70795 
L 242.249648 715.782398 
L 248.415624 710.632356 
L 254.5816 705.247592 
L 260.747576 699.617407 
L 266.913552 693.730616 
L 273.079528 687.575524 
L 279.245504 681.139903 
L 285.411479 674.410966 
L 291.577455 667.375347 
L 297.743431 660.019065 
L 303.909407 652.327508 
L 310.075383 644.285395 
L 316.241359 635.876747 
L 322.407335 627.08486 
L 328.57331 617.892267 
L 334.739286 608.280705 
L 340.905262 598.231079 
L 347.071238 587.723422 
L 353.237214 576.73686 
L 359.40319 565.249566 
L 365.569165 553.238717 
L 371.735141 540.680453 
L 377.901117 527.549822 
L 384.067093 513.820739 
L 390.233069 499.465929 
L 396.399045 484.456871 
L 402.565021 468.763749 
L 408.730996 452.355385 
L 414.896972 435.199179 
L 421.062948 417.261048 
L 427.228924 398.505355 
L 433.3949 378.894837 
L 439.560876 358.390533 
L 445.726852 336.951709 
L 451.892827 314.535772 
L 458.058803 291.098188 
L 464.224779 266.592394 
L 470.390755 240.969703 
L 476.556731 214.179212 
L 482.722707 186.167696 
L 488.888683 156.879504 
L 495.054658 126.256449 
L 501.220634 94.237694 
L 507.38661 60.759625 
L 513.552586 25.755733 
L 518.060197 -1 
M 615.963782 -1 
L 618.374175 13.525235 
L 624.540151 49.062255 
L 630.706127 83.050214 
L 636.872103 115.556633 
L 643.038079 146.646093 
L 649.204055 176.380361 
L 655.370031 204.818508 
L 661.536006 232.017033 
L 667.701982 258.029972 
L 673.867958 282.909003 
L 680.033934 306.703555 
L 686.19991 329.460899 
L 692.365886 351.226249 
L 698.531862 372.042844 
L 704.697837 391.952041 
L 710.863813 410.993394 
L 717.029789 429.204733 
L 723.195765 446.622237 
L 729.361741 463.28051 
L 735.527717 479.212647 
L 741.693692 494.450301 
L 747.859668 509.023743 
L 754.025644 522.961928 
L 760.19162 536.292545 
L 766.357596 549.042079 
L 772.523572 561.23586 
L 778.689548 572.898112 
L 784.855523 584.052006 
L 791.021499 594.719699 
L 797.187475 604.922387 
L 803.353451 614.680339 
L 809.519427 624.01294 
L 815.685403 632.938733 
L 821.851379 641.475448 
L 828.017354 649.640048 
L 834.18333 657.448752 
L 840.349306 664.917073 
L 846.515282 672.059849 
L 852.681258 678.891271 
L 858.847234 685.424911 
L 865.01321 691.673748 
L 871.179185 697.650198 
L 877.345161 703.366134 
L 883.511137 708.832911 
L 889.677113 714.061391 
L 895.843089 719.061961 
L 902.009065 723.844556 
L 908.17504 728.418677 
L 914.341016 732.793411 
L 920.506992 736.97745 
L 926.672968 740.979106 
L 932.838944 744.80633 
L 939.00492 748.466725 
L 945.170896 751.967562 
L 951.336871 755.315798 
L 957.502847 758.518084 
L 963.668823 761.580781 
L 969.834799 764.509976 
L 976.000775 767.311486 
L 988.332727 772.553476 
L 1000.664678 777.348428 
L 1012.99663 781.734465 
L 1025.328582 785.746461 
L 1037.660533 789.416314 
L 1049.992485 792.773201 
L 1062.324437 795.843812 
L 1074.656388 798.652561 
L 1086.98834 801.22178 
L 1099.320292 803.571895 
L 1111.652244 805.721592 
L 1123.984195 807.687963 
L 1136.316147 809.486641 
L 1154.814075 811.901182 
L 1173.312002 814.013537 
L 1191.80993 815.861524 
L 1210.307857 817.47823 
L 1228.805785 818.892601 
L 1253.469688 820.506988 
L 1278.133592 821.857766 
L 1302.797495 822.987979 
L 1333.627374 824.144868 
L 1364.457254 825.070657 
L 1364.457254 825.070657 
" clip-path="url(#p9a665ee6ac)" style="fill: none; stroke: #9467bd; stroke-width: 1.5; stroke-linecap: square"/>
   </g>
   <g id="line2d_18">
    <path d="M 137.428059 822.012164 
L 143.594035 820.621014 
L 149.760011 818.998328 
L 155.925987 817.116116 
L 162.091962 814.94475 
L 168.257938 812.453122 
L 174.423914 809.608849 
L 180.58989 806.378508 
L 186.755866 802.727919 
L 192.921842 798.62246 
L 199.087817 794.027416 
L 205.253793 788.908364 
L 211.419769 783.231575 
L 217.585745 776.964447 
L 223.751721 770.075947 
L 229.917697 762.537063 
L 236.083673 754.321257 
L 242.249648 745.40492 
L 248.415624 735.767802 
L 254.5816 725.393436 
L 260.747576 714.269529 
L 266.913552 702.388314 
L 273.079528 689.74688 
L 279.245504 676.347434 
L 285.411479 662.197535 
L 291.577455 647.310257 
L 297.743431 631.704301 
L 303.909407 615.404047 
L 310.075383 598.439545 
L 316.241359 580.846437 
L 322.407335 562.665824 
L 328.57331 543.944071 
L 334.739286 524.732548 
L 340.905262 505.087324 
L 353.237214 464.741311 
L 365.569165 423.433647 
L 390.233069 340.265069 
L 402.565021 299.629211 
L 408.730996 279.818288 
L 414.896972 260.44585 
L 421.062948 241.584949 
L 427.228924 223.306193 
L 433.3949 205.677274 
L 439.560876 188.762538 
L 445.726852 172.62259 
L 451.892827 157.313937 
L 458.058803 142.88868 
L 464.224779 129.394243 
L 470.390755 116.873152 
L 476.556731 105.362861 
L 482.722707 94.895617 
L 488.888683 85.498382 
L 495.054658 77.192786 
L 501.220634 69.995133 
L 507.38661 63.916442 
L 513.552586 58.96253 
L 519.718562 55.134127 
L 525.884538 52.427028 
L 532.050513 50.832278 
L 538.216489 50.336372 
L 544.382465 50.921497 
L 550.548441 52.565776 
L 556.714417 55.243546 
L 562.880393 58.925639 
L 569.046369 63.579677 
L 575.212344 69.170381 
L 581.37832 75.659872 
L 587.544296 83.007989 
L 593.710272 91.172596 
L 599.876248 100.109891 
L 606.042224 109.774706 
L 612.2082 120.120805 
L 618.374175 131.101169 
L 624.540151 142.668269 
L 630.706127 154.774332 
L 636.872103 167.371589 
L 643.038079 180.41251 
L 649.204055 193.850023 
L 655.370031 207.63772 
L 667.701982 236.082457 
L 680.033934 265.395431 
L 698.531862 310.276728 
L 723.195765 370.286447 
L 735.527717 399.793387 
L 747.859668 428.684972 
L 760.19162 456.785825 
L 772.523572 483.949478 
L 778.689548 497.141686 
L 784.855523 510.057112 
L 791.021499 522.684952 
L 797.187475 535.015913 
L 803.353451 547.042142 
L 809.519427 558.75716 
L 815.685403 570.155794 
L 821.851379 581.234107 
L 828.017354 591.989327 
L 834.18333 602.419773 
L 840.349306 612.524789 
L 846.515282 622.30467 
L 852.681258 631.760593 
L 858.847234 640.894553 
L 865.01321 649.70929 
L 871.179185 658.208232 
L 877.345161 666.395426 
L 883.511137 674.27548 
L 889.677113 681.853506 
L 895.843089 689.135064 
L 902.009065 696.126106 
L 908.17504 702.832929 
L 914.341016 709.262126 
L 920.506992 715.420541 
L 926.672968 721.315224 
L 932.838944 726.953396 
L 939.00492 732.342404 
L 945.170896 737.489695 
L 951.336871 742.402777 
L 957.502847 747.089193 
L 963.668823 751.556491 
L 969.834799 755.812201 
L 976.000775 759.863811 
L 982.166751 763.718745 
L 988.332727 767.384347 
L 994.498702 770.867862 
L 1000.664678 774.176422 
L 1006.830654 777.317032 
L 1012.99663 780.296558 
L 1019.162606 783.121721 
L 1025.328582 785.799082 
L 1031.494558 788.335038 
L 1037.660533 790.735819 
L 1043.826509 793.007477 
L 1056.158461 797.186743 
L 1068.490413 800.91765 
L 1080.822364 804.242074 
L 1093.154316 807.198957 
L 1105.486268 809.824353 
L 1117.818219 812.151501 
L 1130.150171 814.210928 
L 1142.482123 816.03057 
L 1154.814075 817.635902 
L 1167.146026 819.050084 
L 1179.477978 820.294106 
L 1197.975906 821.882068 
L 1216.473833 823.185688 
L 1234.971761 824.252855 
L 1253.469688 825.124104 
L 1278.133592 826.039206 
L 1302.797495 826.732109 
L 1333.627374 827.363601 
L 1364.457254 827.804798 
L 1364.457254 827.804798 
" clip-path="url(#p9a665ee6ac)" style="fill: none; stroke: #8c564b; stroke-width: 1.5; stroke-linecap: square"/>
   </g>
   <g id="line2d_19">
    <path d="M 137.428059 800.147342 
L 143.594035 797.428012 
L 149.760011 794.494168 
L 155.925987 791.333564 
L 162.091962 787.933723 
L 168.257938 784.281986 
L 174.423914 780.365556 
L 180.58989 776.17156 
L 186.755866 771.687105 
L 192.921842 766.899351 
L 199.087817 761.795581 
L 205.253793 756.363275 
L 211.419769 750.590198 
L 217.585745 744.464488 
L 223.751721 737.974744 
L 229.917697 731.110126 
L 236.083673 723.860454 
L 242.249648 716.216313 
L 248.415624 708.169159 
L 254.5816 699.711426 
L 260.747576 690.836639 
L 266.913552 681.53952 
L 273.079528 671.816104 
L 279.245504 661.663843 
L 285.411479 651.081717 
L 291.577455 640.070333 
L 297.743431 628.632031 
L 303.909407 616.770976 
L 310.075383 604.493244 
L 316.241359 591.80691 
L 322.407335 578.722115 
L 328.57331 565.251132 
L 334.739286 551.408421 
L 340.905262 537.21067 
L 347.071238 522.676821 
L 353.237214 507.828095 
L 365.569165 477.28225 
L 377.901117 445.788079 
L 390.233069 413.595486 
L 433.3949 299.757432 
L 445.726852 268.305528 
L 451.892827 252.987731 
L 458.058803 238.005232 
L 464.224779 223.405443 
L 470.390755 209.2355 
L 476.556731 195.542007 
L 482.722707 182.370787 
L 488.888683 169.766626 
L 495.054658 157.773025 
L 501.220634 146.431947 
L 507.38661 135.783574 
L 513.552586 125.866071 
L 519.718562 116.715361 
L 525.884538 108.364902 
L 532.050513 100.845492 
L 538.216489 94.185071 
L 544.382465 88.408556 
L 550.548441 83.537679 
L 556.714417 79.590857 
L 562.880393 76.58307 
L 569.046369 74.52577 
L 575.212344 73.42681 
L 581.37832 73.290389 
L 587.544296 74.117028 
L 593.710272 75.903567 
L 599.876248 78.643187 
L 606.042224 82.325446 
L 612.2082 86.936356 
L 618.374175 92.458461 
L 624.540151 98.870956 
L 630.706127 106.149811 
L 636.872103 114.267924 
L 643.038079 123.19529 
L 649.204055 132.899183 
L 655.370031 143.344356 
L 661.536006 154.493258 
L 667.701982 166.306252 
L 673.867958 178.741857 
L 680.033934 191.756983 
L 686.19991 205.30718 
L 692.365886 219.346895 
L 698.531862 233.829719 
L 704.697837 248.708641 
L 710.863813 263.936301 
L 723.195765 295.248129 
L 735.527717 327.388562 
L 778.689548 441.265906 
L 791.021499 472.874946 
L 803.353451 503.568961 
L 809.519427 518.50269 
L 815.685403 533.127963 
L 821.851379 547.422918 
L 828.017354 561.367966 
L 834.18333 574.945785 
L 840.349306 588.141287 
L 846.515282 600.941585 
L 852.681258 613.335939 
L 858.847234 625.315698 
L 865.01321 636.874227 
L 871.179185 648.006827 
L 877.345161 658.710653 
L 883.511137 668.984616 
L 889.677113 678.829285 
L 895.843089 688.246787 
L 902.009065 697.240696 
L 908.17504 705.815931 
L 914.341016 713.978637 
L 920.506992 721.736083 
L 926.672968 729.096547 
L 932.838944 736.06921 
L 939.00492 742.664044 
L 945.170896 748.891712 
L 951.336871 754.763468 
L 957.502847 760.291051 
L 963.668823 765.486602 
L 969.834799 770.362567 
L 976.000775 774.931616 
L 982.166751 779.206562 
L 988.332727 783.200289 
L 994.498702 786.925683 
L 1000.664678 790.395568 
L 1006.830654 793.622648 
L 1012.99663 796.619456 
L 1019.162606 799.398308 
L 1025.328582 801.971258 
L 1031.494558 804.350067 
L 1037.660533 806.546167 
L 1043.826509 808.570636 
L 1049.992485 810.434177 
L 1056.158461 812.147097 
L 1062.324437 813.719299 
L 1068.490413 815.160266 
L 1080.822364 817.684303 
L 1093.154316 819.786552 
L 1105.486268 821.527565 
L 1117.818219 822.961274 
L 1130.150171 824.135286 
L 1142.482123 825.091262 
L 1154.814075 825.865355 
L 1173.312002 826.752296 
L 1191.80993 827.385372 
L 1216.473833 827.948185 
L 1247.303712 828.356187 
L 1284.299567 828.598884 
L 1345.959326 828.739988 
L 1364.457254 828.755041 
L 1364.457254 828.755041 
" clip-path="url(#p9a665ee6ac)" style="fill: none; stroke: #e377c2; stroke-width: 1.5; stroke-linecap: square"/>
   </g>
   <g id="patch_103">
    <path d="M 72.685313 828.779375 
L 72.685313 38.075625 
" style="fill: none; stroke: #000000; stroke-width: 0.8; stroke-linejoin: miter; stroke-linecap: square"/>
   </g>
   <g id="patch_104">
    <path d="M 1429.2 828.779375 
L 1429.2 38.075625 
" style="fill: none; stroke: #000000; stroke-width: 0.8; stroke-linejoin: miter; stroke-linecap: square"/>
   </g>
   <g id="patch_105">
    <path d="M 72.685313 828.779375 
L 1429.2 828.779375 
" style="fill: none; stroke: #000000; stroke-width: 0.8; stroke-linejoin: miter; stroke-linecap: square"/>
   </g>
   <g id="patch_106">
    <path d="M 72.685313 38.075625 
L 1429.2 38.075625 
" style="fill: none; stroke: #000000; stroke-width: 0.8; stroke-linejoin: miter; stroke-linecap: square"/>
   </g>
   <g id="text_15">
    <!-- All Fitted Distributions -->
    <g transform="translate(596.317031 32.075625) scale(0.28 -0.28)">
     <defs>
      <path id="DejaVuSans-41" d="M 2188 4044 
L 1331 1722 
L 3047 1722 
L 2188 4044 
z
M 1831 4666 
L 2547 4666 
L 4325 0 
L 3669 0 
L 3244 1197 
L 1141 1197 
L 716 0 
L 50 0 
L 1831 4666 
z
" transform="scale(0.015625)"/>
      <path id="DejaVuSans-6c" d="M 603 4863 
L 1178 4863 
L 1178 0 
L 603 0 
L 603 4863 
z
" transform="scale(0.015625)"/>
      <path id="DejaVuSans-46" d="M 628 4666 
L 3309 4666 
L 3309 4134 
L 1259 4134 
L 1259 2759 
L 3109 2759 
L 3109 2228 
L 1259 2228 
L 1259 0 
L 628 0 
L 628 4666 
z
" transform="scale(0.015625)"/>
      <path id="DejaVuSans-44" d="M 1259 4147 
L 1259 519 
L 2022 519 
Q 2988 519 3436 956 
Q 3884 1394 3884 2338 
Q 3884 3275 3436 3711 
Q 2988 4147 2022 4147 
L 1259 4147 
z
M 628 4666 
L 1925 4666 
Q 3281 4666 3915 4102 
Q 4550 3538 4550 2338 
Q 4550 1131 3912 565 
Q 3275 0 1925 0 
L 628 0 
L 628 4666 
z
" transform="scale(0.015625)"/>
      <path id="DejaVuSans-62" d="M 3116 1747 
Q 3116 2381 2855 2742 
Q 2594 3103 2138 3103 
Q 1681 3103 1420 2742 
Q 1159 2381 1159 1747 
Q 1159 1113 1420 752 
Q 1681 391 2138 391 
Q 2594 391 2855 752 
Q 3116 1113 3116 1747 
z
M 1159 2969 
Q 1341 3281 1617 3432 
Q 1894 3584 2278 3584 
Q 2916 3584 3314 3078 
Q 3713 2572 3713 1747 
Q 3713 922 3314 415 
Q 2916 -91 2278 -91 
Q 1894 -91 1617 61 
Q 1341 213 1159 525 
L 1159 0 
L 581 0 
L 581 4863 
L 1159 4863 
L 1159 2969 
z
" transform="scale(0.015625)"/>
     </defs>
     <use xlink:href="#DejaVuSans-41"/>
     <use xlink:href="#DejaVuSans-6c" x="68.408203"/>
     <use xlink:href="#DejaVuSans-6c" x="96.191406"/>
     <use xlink:href="#DejaVuSans-20" x="123.974609"/>
     <use xlink:href="#DejaVuSans-46" x="155.761719"/>
     <use xlink:href="#DejaVuSans-69" x="206.03125"/>
     <use xlink:href="#DejaVuSans-74" x="233.814453"/>
     <use xlink:href="#DejaVuSans-74" x="273.023438"/>
     <use xlink:href="#DejaVuSans-65" x="312.232422"/>
     <use xlink:href="#DejaVuSans-64" x="373.755859"/>
     <use xlink:href="#DejaVuSans-20" x="437.232422"/>
     <use xlink:href="#DejaVuSans-44" x="469.019531"/>
     <use xlink:href="#DejaVuSans-69" x="546.021484"/>
     <use xlink:href="#DejaVuSans-73" x="573.804688"/>
     <use xlink:href="#DejaVuSans-74" x="625.904297"/>
     <use xlink:href="#DejaVuSans-72" x="665.113281"/>
     <use xlink:href="#DejaVuSans-69" x="706.226562"/>
     <use xlink:href="#DejaVuSans-62" x="734.009766"/>
     <use xlink:href="#DejaVuSans-75" x="797.486328"/>
     <use xlink:href="#DejaVuSans-74" x="860.865234"/>
     <use xlink:href="#DejaVuSans-69" x="900.074219"/>
     <use xlink:href="#DejaVuSans-6f" x="927.857422"/>
     <use xlink:href="#DejaVuSans-6e" x="989.039062"/>
     <use xlink:href="#DejaVuSans-73" x="1052.417969"/>
    </g>
   </g>
   <g id="legend_1">
    <g id="patch_107">
     <path d="M 1014.37125 303.868125 
L 1412.4 303.868125 
Q 1417.2 303.868125 1417.2 299.068125 
L 1417.2 54.875625 
Q 1417.2 50.075625 1412.4 50.075625 
L 1014.37125 50.075625 
Q 1009.57125 50.075625 1009.57125 54.875625 
L 1009.57125 299.068125 
Q 1009.57125 303.868125 1014.37125 303.868125 
z
" style="fill: #ffffff; opacity: 0.8; stroke: #cccccc; stroke-linejoin: miter"/>
    </g>
    <g id="patch_108">
     <path d="M 1019.17125 77.911875 
L 1067.17125 77.911875 
L 1067.17125 61.111875 
L 1019.17125 61.111875 
z
" style="fill: #1f77b4; opacity: 0.6"/>
    </g>
    <g id="text_16">
     <!-- Generated Chi Distribution -->
     <g transform="translate(1086.37125 77.911875) scale(0.24 -0.24)">
      <defs>
       <path id="DejaVuSans-47" d="M 3809 666 
L 3809 1919 
L 2778 1919 
L 2778 2438 
L 4434 2438 
L 4434 434 
Q 4069 175 3628 42 
Q 3188 -91 2688 -91 
Q 1594 -91 976 548 
Q 359 1188 359 2328 
Q 359 3472 976 4111 
Q 1594 4750 2688 4750 
Q 3144 4750 3555 4637 
Q 3966 4525 4313 4306 
L 4313 3634 
Q 3963 3931 3569 4081 
Q 3175 4231 2741 4231 
Q 1884 4231 1454 3753 
Q 1025 3275 1025 2328 
Q 1025 1384 1454 906 
Q 1884 428 2741 428 
Q 3075 428 3337 486 
Q 3600 544 3809 666 
z
" transform="scale(0.015625)"/>
       <path id="DejaVuSans-61" d="M 2194 1759 
Q 1497 1759 1228 1600 
Q 959 1441 959 1056 
Q 959 750 1161 570 
Q 1363 391 1709 391 
Q 2188 391 2477 730 
Q 2766 1069 2766 1631 
L 2766 1759 
L 2194 1759 
z
M 3341 1997 
L 3341 0 
L 2766 0 
L 2766 531 
Q 2569 213 2275 61 
Q 1981 -91 1556 -91 
Q 1019 -91 701 211 
Q 384 513 384 1019 
Q 384 1609 779 1909 
Q 1175 2209 1959 2209 
L 2766 2209 
L 2766 2266 
Q 2766 2663 2505 2880 
Q 2244 3097 1772 3097 
Q 1472 3097 1187 3025 
Q 903 2953 641 2809 
L 641 3341 
Q 956 3463 1253 3523 
Q 1550 3584 1831 3584 
Q 2591 3584 2966 3190 
Q 3341 2797 3341 1997 
z
" transform="scale(0.015625)"/>
       <path id="DejaVuSans-68" d="M 3513 2113 
L 3513 0 
L 2938 0 
L 2938 2094 
Q 2938 2591 2744 2837 
Q 2550 3084 2163 3084 
Q 1697 3084 1428 2787 
Q 1159 2491 1159 1978 
L 1159 0 
L 581 0 
L 581 4863 
L 1159 4863 
L 1159 2956 
Q 1366 3272 1645 3428 
Q 1925 3584 2291 3584 
Q 2894 3584 3203 3211 
Q 3513 2838 3513 2113 
z
" transform="scale(0.015625)"/>
      </defs>
      <use xlink:href="#DejaVuSans-47"/>
      <use xlink:href="#DejaVuSans-65" x="77.490234"/>
      <use xlink:href="#DejaVuSans-6e" x="139.013672"/>
      <use xlink:href="#DejaVuSans-65" x="202.392578"/>
      <use xlink:href="#DejaVuSans-72" x="263.916016"/>
      <use xlink:href="#DejaVuSans-61" x="305.029297"/>
      <use xlink:href="#DejaVuSans-74" x="366.308594"/>
      <use xlink:href="#DejaVuSans-65" x="405.517578"/>
      <use xlink:href="#DejaVuSans-64" x="467.041016"/>
      <use xlink:href="#DejaVuSans-20" x="530.517578"/>
      <use xlink:href="#DejaVuSans-43" x="562.304688"/>
      <use xlink:href="#DejaVuSans-68" x="632.128906"/>
      <use xlink:href="#DejaVuSans-69" x="695.507812"/>
      <use xlink:href="#DejaVuSans-20" x="723.291016"/>
      <use xlink:href="#DejaVuSans-44" x="755.078125"/>
      <use xlink:href="#DejaVuSans-69" x="832.080078"/>
      <use xlink:href="#DejaVuSans-73" x="859.863281"/>
      <use xlink:href="#DejaVuSans-74" x="911.962891"/>
      <use xlink:href="#DejaVuSans-72" x="951.171875"/>
      <use xlink:href="#DejaVuSans-69" x="992.285156"/>
      <use xlink:href="#DejaVuSans-62" x="1020.068359"/>
      <use xlink:href="#DejaVuSans-75" x="1083.544922"/>
      <use xlink:href="#DejaVuSans-74" x="1146.923828"/>
      <use xlink:href="#DejaVuSans-69" x="1186.132812"/>
      <use xlink:href="#DejaVuSans-6f" x="1213.916016"/>
      <use xlink:href="#DejaVuSans-6e" x="1275.097656"/>
     </g>
    </g>
    <g id="line2d_20">
     <path d="M 1019.17125 104.739375 
L 1043.17125 104.739375 
L 1067.17125 104.739375 
" style="fill: none; stroke: #ff7f0e; stroke-width: 1.5; stroke-linecap: square"/>
    </g>
    <g id="text_17">
     <!-- Chi fit -->
     <g transform="translate(1086.37125 113.139375) scale(0.24 -0.24)">
      <defs>
       <path id="DejaVuSans-66" d="M 2375 4863 
L 2375 4384 
L 1825 4384 
Q 1516 4384 1395 4259 
Q 1275 4134 1275 3809 
L 1275 3500 
L 2222 3500 
L 2222 3053 
L 1275 3053 
L 1275 0 
L 697 0 
L 697 3053 
L 147 3053 
L 147 3500 
L 697 3500 
L 697 3744 
Q 697 4328 969 4595 
Q 1241 4863 1831 4863 
L 2375 4863 
z
" transform="scale(0.015625)"/>
      </defs>
      <use xlink:href="#DejaVuSans-43"/>
      <use xlink:href="#DejaVuSans-68" x="69.824219"/>
      <use xlink:href="#DejaVuSans-69" x="133.203125"/>
      <use xlink:href="#DejaVuSans-20" x="160.986328"/>
      <use xlink:href="#DejaVuSans-66" x="192.773438"/>
      <use xlink:href="#DejaVuSans-69" x="227.978516"/>
      <use xlink:href="#DejaVuSans-74" x="255.761719"/>
     </g>
    </g>
    <g id="line2d_21">
     <path d="M 1019.17125 139.966875 
L 1043.17125 139.966875 
L 1067.17125 139.966875 
" style="fill: none; stroke: #2ca02c; stroke-width: 1.5; stroke-linecap: square"/>
    </g>
    <g id="text_18">
     <!-- Chi-Square fit -->
     <g transform="translate(1086.37125 148.366875) scale(0.24 -0.24)">
      <defs>
       <path id="DejaVuSans-2d" d="M 313 2009 
L 1997 2009 
L 1997 1497 
L 313 1497 
L 313 2009 
z
" transform="scale(0.015625)"/>
       <path id="DejaVuSans-53" d="M 3425 4513 
L 3425 3897 
Q 3066 4069 2747 4153 
Q 2428 4238 2131 4238 
Q 1616 4238 1336 4038 
Q 1056 3838 1056 3469 
Q 1056 3159 1242 3001 
Q 1428 2844 1947 2747 
L 2328 2669 
Q 3034 2534 3370 2195 
Q 3706 1856 3706 1288 
Q 3706 609 3251 259 
Q 2797 -91 1919 -91 
Q 1588 -91 1214 -16 
Q 841 59 441 206 
L 441 856 
Q 825 641 1194 531 
Q 1563 422 1919 422 
Q 2459 422 2753 634 
Q 3047 847 3047 1241 
Q 3047 1584 2836 1778 
Q 2625 1972 2144 2069 
L 1759 2144 
Q 1053 2284 737 2584 
Q 422 2884 422 3419 
Q 422 4038 858 4394 
Q 1294 4750 2059 4750 
Q 2388 4750 2728 4690 
Q 3069 4631 3425 4513 
z
" transform="scale(0.015625)"/>
       <path id="DejaVuSans-71" d="M 947 1747 
Q 947 1113 1208 752 
Q 1469 391 1925 391 
Q 2381 391 2643 752 
Q 2906 1113 2906 1747 
Q 2906 2381 2643 2742 
Q 2381 3103 1925 3103 
Q 1469 3103 1208 2742 
Q 947 2381 947 1747 
z
M 2906 525 
Q 2725 213 2448 61 
Q 2172 -91 1784 -91 
Q 1150 -91 751 415 
Q 353 922 353 1747 
Q 353 2572 751 3078 
Q 1150 3584 1784 3584 
Q 2172 3584 2448 3432 
Q 2725 3281 2906 2969 
L 2906 3500 
L 3481 3500 
L 3481 -1331 
L 2906 -1331 
L 2906 525 
z
" transform="scale(0.015625)"/>
      </defs>
      <use xlink:href="#DejaVuSans-43"/>
      <use xlink:href="#DejaVuSans-68" x="69.824219"/>
      <use xlink:href="#DejaVuSans-69" x="133.203125"/>
      <use xlink:href="#DejaVuSans-2d" x="160.986328"/>
      <use xlink:href="#DejaVuSans-53" x="197.070312"/>
      <use xlink:href="#DejaVuSans-71" x="260.546875"/>
      <use xlink:href="#DejaVuSans-75" x="324.023438"/>
      <use xlink:href="#DejaVuSans-61" x="387.402344"/>
      <use xlink:href="#DejaVuSans-72" x="448.681641"/>
      <use xlink:href="#DejaVuSans-65" x="487.544922"/>
      <use xlink:href="#DejaVuSans-20" x="549.068359"/>
      <use xlink:href="#DejaVuSans-66" x="580.855469"/>
      <use xlink:href="#DejaVuSans-69" x="616.060547"/>
      <use xlink:href="#DejaVuSans-74" x="643.84375"/>
     </g>
    </g>
    <g id="line2d_22">
     <path d="M 1019.17125 175.194375 
L 1043.17125 175.194375 
L 1067.17125 175.194375 
" style="fill: none; stroke: #d62728; stroke-width: 1.5; stroke-linecap: square"/>
    </g>
    <g id="text_19">
     <!-- Exponential fit -->
     <g transform="translate(1086.37125 183.594375) scale(0.24 -0.24)">
      <defs>
       <path id="DejaVuSans-45" d="M 628 4666 
L 3578 4666 
L 3578 4134 
L 1259 4134 
L 1259 2753 
L 3481 2753 
L 3481 2222 
L 1259 2222 
L 1259 531 
L 3634 531 
L 3634 0 
L 628 0 
L 628 4666 
z
" transform="scale(0.015625)"/>
       <path id="DejaVuSans-78" d="M 3513 3500 
L 2247 1797 
L 3578 0 
L 2900 0 
L 1881 1375 
L 863 0 
L 184 0 
L 1544 1831 
L 300 3500 
L 978 3500 
L 1906 2253 
L 2834 3500 
L 3513 3500 
z
" transform="scale(0.015625)"/>
       <path id="DejaVuSans-70" d="M 1159 525 
L 1159 -1331 
L 581 -1331 
L 581 3500 
L 1159 3500 
L 1159 2969 
Q 1341 3281 1617 3432 
Q 1894 3584 2278 3584 
Q 2916 3584 3314 3078 
Q 3713 2572 3713 1747 
Q 3713 922 3314 415 
Q 2916 -91 2278 -91 
Q 1894 -91 1617 61 
Q 1341 213 1159 525 
z
M 3116 1747 
Q 3116 2381 2855 2742 
Q 2594 3103 2138 3103 
Q 1681 3103 1420 2742 
Q 1159 2381 1159 1747 
Q 1159 1113 1420 752 
Q 1681 391 2138 391 
Q 2594 391 2855 752 
Q 3116 1113 3116 1747 
z
" transform="scale(0.015625)"/>
      </defs>
      <use xlink:href="#DejaVuSans-45"/>
      <use xlink:href="#DejaVuSans-78" x="63.183594"/>
      <use xlink:href="#DejaVuSans-70" x="122.363281"/>
      <use xlink:href="#DejaVuSans-6f" x="185.839844"/>
      <use xlink:href="#DejaVuSans-6e" x="247.021484"/>
      <use xlink:href="#DejaVuSans-65" x="310.400391"/>
      <use xlink:href="#DejaVuSans-6e" x="371.923828"/>
      <use xlink:href="#DejaVuSans-74" x="435.302734"/>
      <use xlink:href="#DejaVuSans-69" x="474.511719"/>
      <use xlink:href="#DejaVuSans-61" x="502.294922"/>
      <use xlink:href="#DejaVuSans-6c" x="563.574219"/>
      <use xlink:href="#DejaVuSans-20" x="591.357422"/>
      <use xlink:href="#DejaVuSans-66" x="623.144531"/>
      <use xlink:href="#DejaVuSans-69" x="658.349609"/>
      <use xlink:href="#DejaVuSans-74" x="686.132812"/>
     </g>
    </g>
    <g id="line2d_23">
     <path d="M 1019.17125 210.421875 
L 1043.17125 210.421875 
L 1067.17125 210.421875 
" style="fill: none; stroke: #9467bd; stroke-width: 1.5; stroke-linecap: square"/>
    </g>
    <g id="text_20">
     <!-- Laplace fit -->
     <g transform="translate(1086.37125 218.821875) scale(0.24 -0.24)">
      <defs>
       <path id="DejaVuSans-4c" d="M 628 4666 
L 1259 4666 
L 1259 531 
L 3531 531 
L 3531 0 
L 628 0 
L 628 4666 
z
" transform="scale(0.015625)"/>
       <path id="DejaVuSans-63" d="M 3122 3366 
L 3122 2828 
Q 2878 2963 2633 3030 
Q 2388 3097 2138 3097 
Q 1578 3097 1268 2742 
Q 959 2388 959 1747 
Q 959 1106 1268 751 
Q 1578 397 2138 397 
Q 2388 397 2633 464 
Q 2878 531 3122 666 
L 3122 134 
Q 2881 22 2623 -34 
Q 2366 -91 2075 -91 
Q 1284 -91 818 406 
Q 353 903 353 1747 
Q 353 2603 823 3093 
Q 1294 3584 2113 3584 
Q 2378 3584 2631 3529 
Q 2884 3475 3122 3366 
z
" transform="scale(0.015625)"/>
      </defs>
      <use xlink:href="#DejaVuSans-4c"/>
      <use xlink:href="#DejaVuSans-61" x="55.712891"/>
      <use xlink:href="#DejaVuSans-70" x="116.992188"/>
      <use xlink:href="#DejaVuSans-6c" x="180.46875"/>
      <use xlink:href="#DejaVuSans-61" x="208.251953"/>
      <use xlink:href="#DejaVuSans-63" x="269.53125"/>
      <use xlink:href="#DejaVuSans-65" x="324.511719"/>
      <use xlink:href="#DejaVuSans-20" x="386.035156"/>
      <use xlink:href="#DejaVuSans-66" x="417.822266"/>
      <use xlink:href="#DejaVuSans-69" x="453.027344"/>
      <use xlink:href="#DejaVuSans-74" x="480.810547"/>
     </g>
    </g>
    <g id="line2d_24">
     <path d="M 1019.17125 245.649375 
L 1043.17125 245.649375 
L 1067.17125 245.649375 
" style="fill: none; stroke: #8c564b; stroke-width: 1.5; stroke-linecap: square"/>
    </g>
    <g id="text_21">
     <!-- LogNorm fit -->
     <g transform="translate(1086.37125 254.049375) scale(0.24 -0.24)">
      <defs>
       <path id="DejaVuSans-67" d="M 2906 1791 
Q 2906 2416 2648 2759 
Q 2391 3103 1925 3103 
Q 1463 3103 1205 2759 
Q 947 2416 947 1791 
Q 947 1169 1205 825 
Q 1463 481 1925 481 
Q 2391 481 2648 825 
Q 2906 1169 2906 1791 
z
M 3481 434 
Q 3481 -459 3084 -895 
Q 2688 -1331 1869 -1331 
Q 1566 -1331 1297 -1286 
Q 1028 -1241 775 -1147 
L 775 -588 
Q 1028 -725 1275 -790 
Q 1522 -856 1778 -856 
Q 2344 -856 2625 -561 
Q 2906 -266 2906 331 
L 2906 616 
Q 2728 306 2450 153 
Q 2172 0 1784 0 
Q 1141 0 747 490 
Q 353 981 353 1791 
Q 353 2603 747 3093 
Q 1141 3584 1784 3584 
Q 2172 3584 2450 3431 
Q 2728 3278 2906 2969 
L 2906 3500 
L 3481 3500 
L 3481 434 
z
" transform="scale(0.015625)"/>
      </defs>
      <use xlink:href="#DejaVuSans-4c"/>
      <use xlink:href="#DejaVuSans-6f" x="53.962891"/>
      <use xlink:href="#DejaVuSans-67" x="115.144531"/>
      <use xlink:href="#DejaVuSans-4e" x="178.621094"/>
      <use xlink:href="#DejaVuSans-6f" x="253.425781"/>
      <use xlink:href="#DejaVuSans-72" x="314.607422"/>
      <use xlink:href="#DejaVuSans-6d" x="353.970703"/>
      <use xlink:href="#DejaVuSans-20" x="451.382812"/>
      <use xlink:href="#DejaVuSans-66" x="483.169922"/>
      <use xlink:href="#DejaVuSans-69" x="518.375"/>
      <use xlink:href="#DejaVuSans-74" x="546.158203"/>
     </g>
    </g>
    <g id="line2d_25">
     <path d="M 1019.17125 280.876875 
L 1043.17125 280.876875 
L 1067.17125 280.876875 
" style="fill: none; stroke: #e377c2; stroke-width: 1.5; stroke-linecap: square"/>
    </g>
    <g id="text_22">
     <!-- Normal fit -->
     <g transform="translate(1086.37125 289.276875) scale(0.24 -0.24)">
      <use xlink:href="#DejaVuSans-4e"/>
      <use xlink:href="#DejaVuSans-6f" x="74.804688"/>
      <use xlink:href="#DejaVuSans-72" x="135.986328"/>
      <use xlink:href="#DejaVuSans-6d" x="175.349609"/>
      <use xlink:href="#DejaVuSans-61" x="272.761719"/>
      <use xlink:href="#DejaVuSans-6c" x="334.041016"/>
      <use xlink:href="#DejaVuSans-20" x="361.824219"/>
      <use xlink:href="#DejaVuSans-66" x="393.611328"/>
      <use xlink:href="#DejaVuSans-69" x="428.816406"/>
      <use xlink:href="#DejaVuSans-74" x="456.599609"/>
     </g>
    </g>
   </g>
  </g>
 </g>
 <defs>
  <clipPath id="p9a665ee6ac">
   <rect x="72.685313" y="38.075625" width="1356.514688" height="790.70375"/>
  </clipPath>
 </defs>
</svg>
