<?xml version="1.0" encoding="utf-8" standalone="no"?>
<!DOCTYPE svg PUBLIC "-//W3C//DTD SVG 1.1//EN"
  "http://www.w3.org/Graphics/SVG/1.1/DTD/svg11.dtd">
<svg xmlns:xlink="http://www.w3.org/1999/xlink" width="1440pt" height="864pt" viewBox="0 0 1440 864" xmlns="http://www.w3.org/2000/svg" version="1.1">
 <metadata>
  <rdf:RDF xmlns:dc="http://purl.org/dc/elements/1.1/" xmlns:cc="http://creativecommons.org/ns#" xmlns:rdf="http://www.w3.org/1999/02/22-rdf-syntax-ns#">
   <cc:Work>
    <dc:type rdf:resource="http://purl.org/dc/dcmitype/StillImage"/>
    <dc:date>2023-07-01T15:14:41.383699</dc:date>
    <dc:format>image/svg+xml</dc:format>
    <dc:creator>
     <cc:Agent>
      <dc:title>Matplotlib v3.7.1, https://matplotlib.org/</dc:title>
     </cc:Agent>
    </dc:creator>
   </cc:Work>
  </rdf:RDF>
 </metadata>
 <defs>
  <style type="text/css">*{stroke-linejoin: round; stroke-linecap: butt}</style>
 </defs>
 <g id="figure_1">
  <g id="patch_1">
   <path d="M 0 864 
L 1440 864 
L 1440 0 
L 0 0 
z
" style="fill: #ffffff"/>
  </g>
  <g id="axes_1">
   <g id="patch_2">
    <path d="M 95.590313 828.779375 
L 1420.257838 828.779375 
L 1420.257838 38.075625 
L 95.590313 38.075625 
z
" style="fill: #ffffff"/>
   </g>
   <g id="patch_3">
    <path d="M 155.802473 828.779375 
L 167.844905 828.779375 
L 167.844905 688.165878 
L 155.802473 688.165878 
z
" clip-path="url(#p315c94843c)" style="fill: #1f77b4; opacity: 0.6"/>
   </g>
   <g id="patch_4">
    <path d="M 167.844905 828.779375 
L 179.887337 828.779375 
L 179.887337 468.457288 
L 167.844905 468.457288 
z
" clip-path="url(#p315c94843c)" style="fill: #1f77b4; opacity: 0.6"/>
   </g>
   <g id="patch_5">
    <path d="M 179.887337 828.779375 
L 191.929769 828.779375 
L 191.929769 341.850214 
L 179.887337 341.850214 
z
" clip-path="url(#p315c94843c)" style="fill: #1f77b4; opacity: 0.6"/>
   </g>
   <g id="patch_6">
    <path d="M 191.929769 828.779375 
L 203.972201 828.779375 
L 203.972201 252.044328 
L 191.929769 252.044328 
z
" clip-path="url(#p315c94843c)" style="fill: #1f77b4; opacity: 0.6"/>
   </g>
   <g id="patch_7">
    <path d="M 203.972201 828.779375 
L 216.014633 828.779375 
L 216.014633 167.731156 
L 203.972201 167.731156 
z
" clip-path="url(#p315c94843c)" style="fill: #1f77b4; opacity: 0.6"/>
   </g>
   <g id="patch_8">
    <path d="M 216.014633 828.779375 
L 228.057065 828.779375 
L 228.057065 119.395267 
L 216.014633 119.395267 
z
" clip-path="url(#p315c94843c)" style="fill: #1f77b4; opacity: 0.6"/>
   </g>
   <g id="patch_9">
    <path d="M 228.057065 828.779375 
L 240.099497 828.779375 
L 240.099497 75.728185 
L 228.057065 75.728185 
z
" clip-path="url(#p315c94843c)" style="fill: #1f77b4; opacity: 0.6"/>
   </g>
   <g id="patch_10">
    <path d="M 240.099497 828.779375 
L 252.141929 828.779375 
L 252.141929 98.248315 
L 240.099497 98.248315 
z
" clip-path="url(#p315c94843c)" style="fill: #1f77b4; opacity: 0.6"/>
   </g>
   <g id="patch_11">
    <path d="M 252.141929 828.779375 
L 264.184361 828.779375 
L 264.184361 132.028511 
L 252.141929 132.028511 
z
" clip-path="url(#p315c94843c)" style="fill: #1f77b4; opacity: 0.6"/>
   </g>
   <g id="patch_12">
    <path d="M 264.184361 828.779375 
L 276.226793 828.779375 
L 276.226793 156.471091 
L 264.184361 156.471091 
z
" clip-path="url(#p315c94843c)" style="fill: #1f77b4; opacity: 0.6"/>
   </g>
   <g id="patch_13">
    <path d="M 276.226793 828.779375 
L 288.269225 828.779375 
L 288.269225 164.435528 
L 276.226793 164.435528 
z
" clip-path="url(#p315c94843c)" style="fill: #1f77b4; opacity: 0.6"/>
   </g>
   <g id="patch_14">
    <path d="M 288.269225 828.779375 
L 300.311657 828.779375 
L 300.311657 213.046053 
L 288.269225 213.046053 
z
" clip-path="url(#p315c94843c)" style="fill: #1f77b4; opacity: 0.6"/>
   </g>
   <g id="patch_15">
    <path d="M 300.311657 828.779375 
L 312.354089 828.779375 
L 312.354089 231.446647 
L 300.311657 231.446647 
z
" clip-path="url(#p315c94843c)" style="fill: #1f77b4; opacity: 0.6"/>
   </g>
   <g id="patch_16">
    <path d="M 312.354089 828.779375 
L 324.396521 828.779375 
L 324.396521 291.042602 
L 312.354089 291.042602 
z
" clip-path="url(#p315c94843c)" style="fill: #1f77b4; opacity: 0.6"/>
   </g>
   <g id="patch_17">
    <path d="M 324.396521 828.779375 
L 336.438953 828.779375 
L 336.438953 312.46419 
L 324.396521 312.46419 
z
" clip-path="url(#p315c94843c)" style="fill: #1f77b4; opacity: 0.6"/>
   </g>
   <g id="patch_18">
    <path d="M 336.438953 828.779375 
L 348.481386 828.779375 
L 348.481386 356.405908 
L 336.438953 356.405908 
z
" clip-path="url(#p315c94843c)" style="fill: #1f77b4; opacity: 0.6"/>
   </g>
   <g id="patch_19">
    <path d="M 348.481386 828.779375 
L 360.523818 828.779375 
L 360.523818 384.693388 
L 348.481386 384.693388 
z
" clip-path="url(#p315c94843c)" style="fill: #1f77b4; opacity: 0.6"/>
   </g>
   <g id="patch_20">
    <path d="M 360.523818 828.779375 
L 372.56625 828.779375 
L 372.56625 425.614113 
L 360.523818 425.614113 
z
" clip-path="url(#p315c94843c)" style="fill: #1f77b4; opacity: 0.6"/>
   </g>
   <g id="patch_21">
    <path d="M 372.56625 828.779375 
L 384.608682 828.779375 
L 384.608682 467.358745 
L 372.56625 467.358745 
z
" clip-path="url(#p315c94843c)" style="fill: #1f77b4; opacity: 0.6"/>
   </g>
   <g id="patch_22">
    <path d="M 384.608682 828.779375 
L 396.651114 828.779375 
L 396.651114 472.027553 
L 384.608682 472.027553 
z
" clip-path="url(#p315c94843c)" style="fill: #1f77b4; opacity: 0.6"/>
   </g>
   <g id="patch_23">
    <path d="M 396.651114 828.779375 
L 408.693546 828.779375 
L 408.693546 540.686487 
L 396.651114 540.686487 
z
" clip-path="url(#p315c94843c)" style="fill: #1f77b4; opacity: 0.6"/>
   </g>
   <g id="patch_24">
    <path d="M 408.693546 828.779375 
L 420.735978 828.779375 
L 420.735978 560.185624 
L 408.693546 560.185624 
z
" clip-path="url(#p315c94843c)" style="fill: #1f77b4; opacity: 0.6"/>
   </g>
   <g id="patch_25">
    <path d="M 420.735978 828.779375 
L 432.77841 828.779375 
L 432.77841 582.431119 
L 420.735978 582.431119 
z
" clip-path="url(#p315c94843c)" style="fill: #1f77b4; opacity: 0.6"/>
   </g>
   <g id="patch_26">
    <path d="M 432.77841 828.779375 
L 444.820842 828.779375 
L 444.820842 610.169328 
L 432.77841 610.169328 
z
" clip-path="url(#p315c94843c)" style="fill: #1f77b4; opacity: 0.6"/>
   </g>
   <g id="patch_27">
    <path d="M 444.820842 828.779375 
L 456.863274 828.779375 
L 456.863274 623.901115 
L 444.820842 623.901115 
z
" clip-path="url(#p315c94843c)" style="fill: #1f77b4; opacity: 0.6"/>
   </g>
   <g id="patch_28">
    <path d="M 456.863274 828.779375 
L 468.905706 828.779375 
L 468.905706 637.358266 
L 456.863274 637.358266 
z
" clip-path="url(#p315c94843c)" style="fill: #1f77b4; opacity: 0.6"/>
   </g>
   <g id="patch_29">
    <path d="M 468.905706 828.779375 
L 480.948138 828.779375 
L 480.948138 666.74429 
L 468.905706 666.74429 
z
" clip-path="url(#p315c94843c)" style="fill: #1f77b4; opacity: 0.6"/>
   </g>
   <g id="patch_30">
    <path d="M 480.948138 828.779375 
L 492.99057 828.779375 
L 492.99057 678.828263 
L 480.948138 678.828263 
z
" clip-path="url(#p315c94843c)" style="fill: #1f77b4; opacity: 0.6"/>
   </g>
   <g id="patch_31">
    <path d="M 492.99057 828.779375 
L 505.033002 828.779375 
L 505.033002 694.207864 
L 492.99057 694.207864 
z
" clip-path="url(#p315c94843c)" style="fill: #1f77b4; opacity: 0.6"/>
   </g>
   <g id="patch_32">
    <path d="M 505.033002 828.779375 
L 517.075434 828.779375 
L 517.075434 701.348393 
L 505.033002 701.348393 
z
" clip-path="url(#p315c94843c)" style="fill: #1f77b4; opacity: 0.6"/>
   </g>
   <g id="patch_33">
    <path d="M 517.075434 828.779375 
L 529.117866 828.779375 
L 529.117866 722.769981 
L 517.075434 722.769981 
z
" clip-path="url(#p315c94843c)" style="fill: #1f77b4; opacity: 0.6"/>
   </g>
   <g id="patch_34">
    <path d="M 529.117866 828.779375 
L 541.160298 828.779375 
L 541.160298 732.107596 
L 529.117866 732.107596 
z
" clip-path="url(#p315c94843c)" style="fill: #1f77b4; opacity: 0.6"/>
   </g>
   <g id="patch_35">
    <path d="M 541.160298 828.779375 
L 553.20273 828.779375 
L 553.20273 737.874946 
L 541.160298 737.874946 
z
" clip-path="url(#p315c94843c)" style="fill: #1f77b4; opacity: 0.6"/>
   </g>
   <g id="patch_36">
    <path d="M 553.20273 828.779375 
L 565.245162 828.779375 
L 565.245162 750.782826 
L 553.20273 750.782826 
z
" clip-path="url(#p315c94843c)" style="fill: #1f77b4; opacity: 0.6"/>
   </g>
   <g id="patch_37">
    <path d="M 565.245162 828.779375 
L 577.287594 828.779375 
L 577.287594 757.648719 
L 565.245162 757.648719 
z
" clip-path="url(#p315c94843c)" style="fill: #1f77b4; opacity: 0.6"/>
   </g>
   <g id="patch_38">
    <path d="M 577.287594 828.779375 
L 589.330026 828.779375 
L 589.330026 770.007327 
L 577.287594 770.007327 
z
" clip-path="url(#p315c94843c)" style="fill: #1f77b4; opacity: 0.6"/>
   </g>
   <g id="patch_39">
    <path d="M 589.330026 828.779375 
L 601.372459 828.779375 
L 601.372459 776.323949 
L 589.330026 776.323949 
z
" clip-path="url(#p315c94843c)" style="fill: #1f77b4; opacity: 0.6"/>
   </g>
   <g id="patch_40">
    <path d="M 601.372459 828.779375 
L 613.414891 828.779375 
L 613.414891 777.971764 
L 601.372459 777.971764 
z
" clip-path="url(#p315c94843c)" style="fill: #1f77b4; opacity: 0.6"/>
   </g>
   <g id="patch_41">
    <path d="M 613.414891 828.779375 
L 625.457323 828.779375 
L 625.457323 786.760107 
L 613.414891 786.760107 
z
" clip-path="url(#p315c94843c)" style="fill: #1f77b4; opacity: 0.6"/>
   </g>
   <g id="patch_42">
    <path d="M 625.457323 828.779375 
L 637.499755 828.779375 
L 637.499755 789.7811 
L 625.457323 789.7811 
z
" clip-path="url(#p315c94843c)" style="fill: #1f77b4; opacity: 0.6"/>
   </g>
   <g id="patch_43">
    <path d="M 637.499755 828.779375 
L 649.542187 828.779375 
L 649.542187 792.802093 
L 637.499755 792.802093 
z
" clip-path="url(#p315c94843c)" style="fill: #1f77b4; opacity: 0.6"/>
   </g>
   <g id="patch_44">
    <path d="M 649.542187 828.779375 
L 661.584619 828.779375 
L 661.584619 798.020172 
L 649.542187 798.020172 
z
" clip-path="url(#p315c94843c)" style="fill: #1f77b4; opacity: 0.6"/>
   </g>
   <g id="patch_45">
    <path d="M 661.584619 828.779375 
L 673.627051 828.779375 
L 673.627051 804.336794 
L 661.584619 804.336794 
z
" clip-path="url(#p315c94843c)" style="fill: #1f77b4; opacity: 0.6"/>
   </g>
   <g id="patch_46">
    <path d="M 673.627051 828.779375 
L 685.669483 828.779375 
L 685.669483 802.68898 
L 673.627051 802.68898 
z
" clip-path="url(#p315c94843c)" style="fill: #1f77b4; opacity: 0.6"/>
   </g>
   <g id="patch_47">
    <path d="M 685.669483 828.779375 
L 697.711915 828.779375 
L 697.711915 809.005602 
L 685.669483 809.005602 
z
" clip-path="url(#p315c94843c)" style="fill: #1f77b4; opacity: 0.6"/>
   </g>
   <g id="patch_48">
    <path d="M 697.711915 828.779375 
L 709.754347 828.779375 
L 709.754347 812.301231 
L 697.711915 812.301231 
z
" clip-path="url(#p315c94843c)" style="fill: #1f77b4; opacity: 0.6"/>
   </g>
   <g id="patch_49">
    <path d="M 709.754347 828.779375 
L 721.796779 828.779375 
L 721.796779 812.301231 
L 709.754347 812.301231 
z
" clip-path="url(#p315c94843c)" style="fill: #1f77b4; opacity: 0.6"/>
   </g>
   <g id="patch_50">
    <path d="M 721.796779 828.779375 
L 733.839211 828.779375 
L 733.839211 815.322224 
L 721.796779 815.322224 
z
" clip-path="url(#p315c94843c)" style="fill: #1f77b4; opacity: 0.6"/>
   </g>
   <g id="patch_51">
    <path d="M 733.839211 828.779375 
L 745.881643 828.779375 
L 745.881643 816.970038 
L 733.839211 816.970038 
z
" clip-path="url(#p315c94843c)" style="fill: #1f77b4; opacity: 0.6"/>
   </g>
   <g id="patch_52">
    <path d="M 745.881643 828.779375 
L 757.924075 828.779375 
L 757.924075 816.695403 
L 745.881643 816.695403 
z
" clip-path="url(#p315c94843c)" style="fill: #1f77b4; opacity: 0.6"/>
   </g>
   <g id="patch_53">
    <path d="M 757.924075 828.779375 
L 769.966507 828.779375 
L 769.966507 818.892488 
L 757.924075 818.892488 
z
" clip-path="url(#p315c94843c)" style="fill: #1f77b4; opacity: 0.6"/>
   </g>
   <g id="patch_54">
    <path d="M 769.966507 828.779375 
L 782.008939 828.779375 
L 782.008939 821.089574 
L 769.966507 821.089574 
z
" clip-path="url(#p315c94843c)" style="fill: #1f77b4; opacity: 0.6"/>
   </g>
   <g id="patch_55">
    <path d="M 782.008939 828.779375 
L 794.051371 828.779375 
L 794.051371 820.814939 
L 782.008939 820.814939 
z
" clip-path="url(#p315c94843c)" style="fill: #1f77b4; opacity: 0.6"/>
   </g>
   <g id="patch_56">
    <path d="M 794.051371 828.779375 
L 806.093803 828.779375 
L 806.093803 821.089574 
L 794.051371 821.089574 
z
" clip-path="url(#p315c94843c)" style="fill: #1f77b4; opacity: 0.6"/>
   </g>
   <g id="patch_57">
    <path d="M 806.093803 828.779375 
L 818.136235 828.779375 
L 818.136235 822.188117 
L 806.093803 822.188117 
z
" clip-path="url(#p315c94843c)" style="fill: #1f77b4; opacity: 0.6"/>
   </g>
   <g id="patch_58">
    <path d="M 818.136235 828.779375 
L 830.178667 828.779375 
L 830.178667 821.638846 
L 818.136235 821.638846 
z
" clip-path="url(#p315c94843c)" style="fill: #1f77b4; opacity: 0.6"/>
   </g>
   <g id="patch_59">
    <path d="M 830.178667 828.779375 
L 842.221099 828.779375 
L 842.221099 823.561296 
L 830.178667 823.561296 
z
" clip-path="url(#p315c94843c)" style="fill: #1f77b4; opacity: 0.6"/>
   </g>
   <g id="patch_60">
    <path d="M 842.221099 828.779375 
L 854.263532 828.779375 
L 854.263532 823.835932 
L 842.221099 823.835932 
z
" clip-path="url(#p315c94843c)" style="fill: #1f77b4; opacity: 0.6"/>
   </g>
   <g id="patch_61">
    <path d="M 854.263532 828.779375 
L 866.305964 828.779375 
L 866.305964 824.659839 
L 854.263532 824.659839 
z
" clip-path="url(#p315c94843c)" style="fill: #1f77b4; opacity: 0.6"/>
   </g>
   <g id="patch_62">
    <path d="M 866.305964 828.779375 
L 878.348396 828.779375 
L 878.348396 824.934475 
L 866.305964 824.934475 
z
" clip-path="url(#p315c94843c)" style="fill: #1f77b4; opacity: 0.6"/>
   </g>
   <g id="patch_63">
    <path d="M 878.348396 828.779375 
L 890.390828 828.779375 
L 890.390828 827.406196 
L 878.348396 827.406196 
z
" clip-path="url(#p315c94843c)" style="fill: #1f77b4; opacity: 0.6"/>
   </g>
   <g id="patch_64">
    <path d="M 890.390828 828.779375 
L 902.43326 828.779375 
L 902.43326 825.483746 
L 890.390828 825.483746 
z
" clip-path="url(#p315c94843c)" style="fill: #1f77b4; opacity: 0.6"/>
   </g>
   <g id="patch_65">
    <path d="M 902.43326 828.779375 
L 914.475692 828.779375 
L 914.475692 826.033018 
L 902.43326 826.033018 
z
" clip-path="url(#p315c94843c)" style="fill: #1f77b4; opacity: 0.6"/>
   </g>
   <g id="patch_66">
    <path d="M 914.475692 828.779375 
L 926.518124 828.779375 
L 926.518124 826.307653 
L 914.475692 826.307653 
z
" clip-path="url(#p315c94843c)" style="fill: #1f77b4; opacity: 0.6"/>
   </g>
   <g id="patch_67">
    <path d="M 926.518124 828.779375 
L 938.560556 828.779375 
L 938.560556 826.033018 
L 926.518124 826.033018 
z
" clip-path="url(#p315c94843c)" style="fill: #1f77b4; opacity: 0.6"/>
   </g>
   <g id="patch_68">
    <path d="M 938.560556 828.779375 
L 950.602988 828.779375 
L 950.602988 826.582289 
L 938.560556 826.582289 
z
" clip-path="url(#p315c94843c)" style="fill: #1f77b4; opacity: 0.6"/>
   </g>
   <g id="patch_69">
    <path d="M 950.602988 828.779375 
L 962.64542 828.779375 
L 962.64542 827.406196 
L 950.602988 827.406196 
z
" clip-path="url(#p315c94843c)" style="fill: #1f77b4; opacity: 0.6"/>
   </g>
   <g id="patch_70">
    <path d="M 962.64542 828.779375 
L 974.687852 828.779375 
L 974.687852 828.230104 
L 962.64542 828.230104 
z
" clip-path="url(#p315c94843c)" style="fill: #1f77b4; opacity: 0.6"/>
   </g>
   <g id="patch_71">
    <path d="M 974.687852 828.779375 
L 986.730284 828.779375 
L 986.730284 827.680832 
L 974.687852 827.680832 
z
" clip-path="url(#p315c94843c)" style="fill: #1f77b4; opacity: 0.6"/>
   </g>
   <g id="patch_72">
    <path d="M 986.730284 828.779375 
L 998.772716 828.779375 
L 998.772716 827.955468 
L 986.730284 827.955468 
z
" clip-path="url(#p315c94843c)" style="fill: #1f77b4; opacity: 0.6"/>
   </g>
   <g id="patch_73">
    <path d="M 998.772716 828.779375 
L 1010.815148 828.779375 
L 1010.815148 827.680832 
L 998.772716 827.680832 
z
" clip-path="url(#p315c94843c)" style="fill: #1f77b4; opacity: 0.6"/>
   </g>
   <g id="patch_74">
    <path d="M 1010.815148 828.779375 
L 1022.85758 828.779375 
L 1022.85758 828.504739 
L 1010.815148 828.504739 
z
" clip-path="url(#p315c94843c)" style="fill: #1f77b4; opacity: 0.6"/>
   </g>
   <g id="patch_75">
    <path d="M 1022.85758 828.779375 
L 1034.900012 828.779375 
L 1034.900012 828.504739 
L 1022.85758 828.504739 
z
" clip-path="url(#p315c94843c)" style="fill: #1f77b4; opacity: 0.6"/>
   </g>
   <g id="patch_76">
    <path d="M 1034.900012 828.779375 
L 1046.942444 828.779375 
L 1046.942444 827.955468 
L 1034.900012 827.955468 
z
" clip-path="url(#p315c94843c)" style="fill: #1f77b4; opacity: 0.6"/>
   </g>
   <g id="patch_77">
    <path d="M 1046.942444 828.779375 
L 1058.984876 828.779375 
L 1058.984876 827.955468 
L 1046.942444 827.955468 
z
" clip-path="url(#p315c94843c)" style="fill: #1f77b4; opacity: 0.6"/>
   </g>
   <g id="patch_78">
    <path d="M 1058.984876 828.779375 
L 1071.027308 828.779375 
L 1071.027308 828.779375 
L 1058.984876 828.779375 
z
" clip-path="url(#p315c94843c)" style="fill: #1f77b4; opacity: 0.6"/>
   </g>
   <g id="patch_79">
    <path d="M 1071.027308 828.779375 
L 1083.06974 828.779375 
L 1083.06974 827.955468 
L 1071.027308 827.955468 
z
" clip-path="url(#p315c94843c)" style="fill: #1f77b4; opacity: 0.6"/>
   </g>
   <g id="patch_80">
    <path d="M 1083.06974 828.779375 
L 1095.112173 828.779375 
L 1095.112173 828.779375 
L 1083.06974 828.779375 
z
" clip-path="url(#p315c94843c)" style="fill: #1f77b4; opacity: 0.6"/>
   </g>
   <g id="patch_81">
    <path d="M 1095.112173 828.779375 
L 1107.154605 828.779375 
L 1107.154605 828.504739 
L 1095.112173 828.504739 
z
" clip-path="url(#p315c94843c)" style="fill: #1f77b4; opacity: 0.6"/>
   </g>
   <g id="patch_82">
    <path d="M 1107.154605 828.779375 
L 1119.197037 828.779375 
L 1119.197037 828.779375 
L 1107.154605 828.779375 
z
" clip-path="url(#p315c94843c)" style="fill: #1f77b4; opacity: 0.6"/>
   </g>
   <g id="patch_83">
    <path d="M 1119.197037 828.779375 
L 1131.239469 828.779375 
L 1131.239469 828.504739 
L 1119.197037 828.504739 
z
" clip-path="url(#p315c94843c)" style="fill: #1f77b4; opacity: 0.6"/>
   </g>
   <g id="patch_84">
    <path d="M 1131.239469 828.779375 
L 1143.281901 828.779375 
L 1143.281901 828.779375 
L 1131.239469 828.779375 
z
" clip-path="url(#p315c94843c)" style="fill: #1f77b4; opacity: 0.6"/>
   </g>
   <g id="patch_85">
    <path d="M 1143.281901 828.779375 
L 1155.324333 828.779375 
L 1155.324333 828.779375 
L 1143.281901 828.779375 
z
" clip-path="url(#p315c94843c)" style="fill: #1f77b4; opacity: 0.6"/>
   </g>
   <g id="patch_86">
    <path d="M 1155.324333 828.779375 
L 1167.366765 828.779375 
L 1167.366765 828.504739 
L 1155.324333 828.504739 
z
" clip-path="url(#p315c94843c)" style="fill: #1f77b4; opacity: 0.6"/>
   </g>
   <g id="patch_87">
    <path d="M 1167.366765 828.779375 
L 1179.409197 828.779375 
L 1179.409197 828.779375 
L 1167.366765 828.779375 
z
" clip-path="url(#p315c94843c)" style="fill: #1f77b4; opacity: 0.6"/>
   </g>
   <g id="patch_88">
    <path d="M 1179.409197 828.779375 
L 1191.451629 828.779375 
L 1191.451629 828.779375 
L 1179.409197 828.779375 
z
" clip-path="url(#p315c94843c)" style="fill: #1f77b4; opacity: 0.6"/>
   </g>
   <g id="patch_89">
    <path d="M 1191.451629 828.779375 
L 1203.494061 828.779375 
L 1203.494061 828.504739 
L 1191.451629 828.504739 
z
" clip-path="url(#p315c94843c)" style="fill: #1f77b4; opacity: 0.6"/>
   </g>
   <g id="patch_90">
    <path d="M 1203.494061 828.779375 
L 1215.536493 828.779375 
L 1215.536493 828.779375 
L 1203.494061 828.779375 
z
" clip-path="url(#p315c94843c)" style="fill: #1f77b4; opacity: 0.6"/>
   </g>
   <g id="patch_91">
    <path d="M 1215.536493 828.779375 
L 1227.578925 828.779375 
L 1227.578925 828.504739 
L 1215.536493 828.504739 
z
" clip-path="url(#p315c94843c)" style="fill: #1f77b4; opacity: 0.6"/>
   </g>
   <g id="patch_92">
    <path d="M 1227.578925 828.779375 
L 1239.621357 828.779375 
L 1239.621357 828.779375 
L 1227.578925 828.779375 
z
" clip-path="url(#p315c94843c)" style="fill: #1f77b4; opacity: 0.6"/>
   </g>
   <g id="patch_93">
    <path d="M 1239.621357 828.779375 
L 1251.663789 828.779375 
L 1251.663789 828.779375 
L 1239.621357 828.779375 
z
" clip-path="url(#p315c94843c)" style="fill: #1f77b4; opacity: 0.6"/>
   </g>
   <g id="patch_94">
    <path d="M 1251.663789 828.779375 
L 1263.706221 828.779375 
L 1263.706221 828.504739 
L 1251.663789 828.504739 
z
" clip-path="url(#p315c94843c)" style="fill: #1f77b4; opacity: 0.6"/>
   </g>
   <g id="patch_95">
    <path d="M 1263.706221 828.779375 
L 1275.748653 828.779375 
L 1275.748653 828.779375 
L 1263.706221 828.779375 
z
" clip-path="url(#p315c94843c)" style="fill: #1f77b4; opacity: 0.6"/>
   </g>
   <g id="patch_96">
    <path d="M 1275.748653 828.779375 
L 1287.791085 828.779375 
L 1287.791085 828.779375 
L 1275.748653 828.779375 
z
" clip-path="url(#p315c94843c)" style="fill: #1f77b4; opacity: 0.6"/>
   </g>
   <g id="patch_97">
    <path d="M 1287.791085 828.779375 
L 1299.833517 828.779375 
L 1299.833517 828.779375 
L 1287.791085 828.779375 
z
" clip-path="url(#p315c94843c)" style="fill: #1f77b4; opacity: 0.6"/>
   </g>
   <g id="patch_98">
    <path d="M 1299.833517 828.779375 
L 1311.875949 828.779375 
L 1311.875949 828.779375 
L 1299.833517 828.779375 
z
" clip-path="url(#p315c94843c)" style="fill: #1f77b4; opacity: 0.6"/>
   </g>
   <g id="patch_99">
    <path d="M 1311.875949 828.779375 
L 1323.918381 828.779375 
L 1323.918381 828.779375 
L 1311.875949 828.779375 
z
" clip-path="url(#p315c94843c)" style="fill: #1f77b4; opacity: 0.6"/>
   </g>
   <g id="patch_100">
    <path d="M 1323.918381 828.779375 
L 1335.960813 828.779375 
L 1335.960813 828.779375 
L 1323.918381 828.779375 
z
" clip-path="url(#p315c94843c)" style="fill: #1f77b4; opacity: 0.6"/>
   </g>
   <g id="patch_101">
    <path d="M 1335.960813 828.779375 
L 1348.003246 828.779375 
L 1348.003246 828.779375 
L 1335.960813 828.779375 
z
" clip-path="url(#p315c94843c)" style="fill: #1f77b4; opacity: 0.6"/>
   </g>
   <g id="patch_102">
    <path d="M 1348.003246 828.779375 
L 1360.045678 828.779375 
L 1360.045678 828.504739 
L 1348.003246 828.504739 
z
" clip-path="url(#p315c94843c)" style="fill: #1f77b4; opacity: 0.6"/>
   </g>
   <g id="matplotlib.axis_1">
    <g id="xtick_1">
     <g id="line2d_1">
      <defs>
       <path id="mfab021cb8f" d="M 0 0 
L 0 3.5 
" style="stroke: #000000; stroke-width: 0.8"/>
      </defs>
      <g>
       <use xlink:href="#mfab021cb8f" x="155.08082" y="828.779375" style="stroke: #000000; stroke-width: 0.8"/>
      </g>
     </g>
     <g id="text_1">
      <!-- 0 -->
      <g transform="translate(149.35457 849.456562) scale(0.18 -0.18)">
       <defs>
        <path id="DejaVuSans-30" d="M 2034 4250 
Q 1547 4250 1301 3770 
Q 1056 3291 1056 2328 
Q 1056 1369 1301 889 
Q 1547 409 2034 409 
Q 2525 409 2770 889 
Q 3016 1369 3016 2328 
Q 3016 3291 2770 3770 
Q 2525 4250 2034 4250 
z
M 2034 4750 
Q 2819 4750 3233 4129 
Q 3647 3509 3647 2328 
Q 3647 1150 3233 529 
Q 2819 -91 2034 -91 
Q 1250 -91 836 529 
Q 422 1150 422 2328 
Q 422 3509 836 4129 
Q 1250 4750 2034 4750 
z
" transform="scale(0.015625)"/>
       </defs>
       <use xlink:href="#DejaVuSans-30"/>
      </g>
     </g>
    </g>
    <g id="xtick_2">
     <g id="line2d_2">
      <g>
       <use xlink:href="#mfab021cb8f" x="365.447037" y="828.779375" style="stroke: #000000; stroke-width: 0.8"/>
      </g>
     </g>
     <g id="text_2">
      <!-- 5 -->
      <g transform="translate(359.720787 849.456562) scale(0.18 -0.18)">
       <defs>
        <path id="DejaVuSans-35" d="M 691 4666 
L 3169 4666 
L 3169 4134 
L 1269 4134 
L 1269 2991 
Q 1406 3038 1543 3061 
Q 1681 3084 1819 3084 
Q 2600 3084 3056 2656 
Q 3513 2228 3513 1497 
Q 3513 744 3044 326 
Q 2575 -91 1722 -91 
Q 1428 -91 1123 -41 
Q 819 9 494 109 
L 494 744 
Q 775 591 1075 516 
Q 1375 441 1709 441 
Q 2250 441 2565 725 
Q 2881 1009 2881 1497 
Q 2881 1984 2565 2268 
Q 2250 2553 1709 2553 
Q 1456 2553 1204 2497 
Q 953 2441 691 2322 
L 691 4666 
z
" transform="scale(0.015625)"/>
       </defs>
       <use xlink:href="#DejaVuSans-35"/>
      </g>
     </g>
    </g>
    <g id="xtick_3">
     <g id="line2d_3">
      <g>
       <use xlink:href="#mfab021cb8f" x="575.813254" y="828.779375" style="stroke: #000000; stroke-width: 0.8"/>
      </g>
     </g>
     <g id="text_3">
      <!-- 10 -->
      <g transform="translate(564.360754 849.456562) scale(0.18 -0.18)">
       <defs>
        <path id="DejaVuSans-31" d="M 794 531 
L 1825 531 
L 1825 4091 
L 703 3866 
L 703 4441 
L 1819 4666 
L 2450 4666 
L 2450 531 
L 3481 531 
L 3481 0 
L 794 0 
L 794 531 
z
" transform="scale(0.015625)"/>
       </defs>
       <use xlink:href="#DejaVuSans-31"/>
       <use xlink:href="#DejaVuSans-30" x="63.623047"/>
      </g>
     </g>
    </g>
    <g id="xtick_4">
     <g id="line2d_4">
      <g>
       <use xlink:href="#mfab021cb8f" x="786.179471" y="828.779375" style="stroke: #000000; stroke-width: 0.8"/>
      </g>
     </g>
     <g id="text_4">
      <!-- 15 -->
      <g transform="translate(774.726971 849.456562) scale(0.18 -0.18)">
       <use xlink:href="#DejaVuSans-31"/>
       <use xlink:href="#DejaVuSans-35" x="63.623047"/>
      </g>
     </g>
    </g>
    <g id="xtick_5">
     <g id="line2d_5">
      <g>
       <use xlink:href="#mfab021cb8f" x="996.545688" y="828.779375" style="stroke: #000000; stroke-width: 0.8"/>
      </g>
     </g>
     <g id="text_5">
      <!-- 20 -->
      <g transform="translate(985.093188 849.456562) scale(0.18 -0.18)">
       <defs>
        <path id="DejaVuSans-32" d="M 1228 531 
L 3431 531 
L 3431 0 
L 469 0 
L 469 531 
Q 828 903 1448 1529 
Q 2069 2156 2228 2338 
Q 2531 2678 2651 2914 
Q 2772 3150 2772 3378 
Q 2772 3750 2511 3984 
Q 2250 4219 1831 4219 
Q 1534 4219 1204 4116 
Q 875 4013 500 3803 
L 500 4441 
Q 881 4594 1212 4672 
Q 1544 4750 1819 4750 
Q 2544 4750 2975 4387 
Q 3406 4025 3406 3419 
Q 3406 3131 3298 2873 
Q 3191 2616 2906 2266 
Q 2828 2175 2409 1742 
Q 1991 1309 1228 531 
z
" transform="scale(0.015625)"/>
       </defs>
       <use xlink:href="#DejaVuSans-32"/>
       <use xlink:href="#DejaVuSans-30" x="63.623047"/>
      </g>
     </g>
    </g>
    <g id="xtick_6">
     <g id="line2d_6">
      <g>
       <use xlink:href="#mfab021cb8f" x="1206.911905" y="828.779375" style="stroke: #000000; stroke-width: 0.8"/>
      </g>
     </g>
     <g id="text_6">
      <!-- 25 -->
      <g transform="translate(1195.459405 849.456562) scale(0.18 -0.18)">
       <use xlink:href="#DejaVuSans-32"/>
       <use xlink:href="#DejaVuSans-35" x="63.623047"/>
      </g>
     </g>
    </g>
    <g id="xtick_7">
     <g id="line2d_7">
      <g>
       <use xlink:href="#mfab021cb8f" x="1417.278122" y="828.779375" style="stroke: #000000; stroke-width: 0.8"/>
      </g>
     </g>
     <g id="text_7">
      <!-- 30 -->
      <g transform="translate(1405.825622 849.456562) scale(0.18 -0.18)">
       <defs>
        <path id="DejaVuSans-33" d="M 2597 2516 
Q 3050 2419 3304 2112 
Q 3559 1806 3559 1356 
Q 3559 666 3084 287 
Q 2609 -91 1734 -91 
Q 1441 -91 1130 -33 
Q 819 25 488 141 
L 488 750 
Q 750 597 1062 519 
Q 1375 441 1716 441 
Q 2309 441 2620 675 
Q 2931 909 2931 1356 
Q 2931 1769 2642 2001 
Q 2353 2234 1838 2234 
L 1294 2234 
L 1294 2753 
L 1863 2753 
Q 2328 2753 2575 2939 
Q 2822 3125 2822 3475 
Q 2822 3834 2567 4026 
Q 2313 4219 1838 4219 
Q 1578 4219 1281 4162 
Q 984 4106 628 3988 
L 628 4550 
Q 988 4650 1302 4700 
Q 1616 4750 1894 4750 
Q 2613 4750 3031 4423 
Q 3450 4097 3450 3541 
Q 3450 3153 3228 2886 
Q 3006 2619 2597 2516 
z
" transform="scale(0.015625)"/>
       </defs>
       <use xlink:href="#DejaVuSans-33"/>
       <use xlink:href="#DejaVuSans-30" x="63.623047"/>
      </g>
     </g>
    </g>
   </g>
   <g id="matplotlib.axis_2">
    <g id="ytick_1">
     <g id="line2d_8">
      <defs>
       <path id="m6392fef924" d="M 0 0 
L -3.5 0 
" style="stroke: #000000; stroke-width: 0.8"/>
      </defs>
      <g>
       <use xlink:href="#m6392fef924" x="95.590313" y="828.779375" style="stroke: #000000; stroke-width: 0.8"/>
      </g>
     </g>
     <g id="text_8">
      <!-- 0.000 -->
      <g transform="translate(37.059688 835.617969) scale(0.18 -0.18)">
       <defs>
        <path id="DejaVuSans-2e" d="M 684 794 
L 1344 794 
L 1344 0 
L 684 0 
L 684 794 
z
" transform="scale(0.015625)"/>
       </defs>
       <use xlink:href="#DejaVuSans-30"/>
       <use xlink:href="#DejaVuSans-2e" x="63.623047"/>
       <use xlink:href="#DejaVuSans-30" x="95.410156"/>
       <use xlink:href="#DejaVuSans-30" x="159.033203"/>
       <use xlink:href="#DejaVuSans-30" x="222.65625"/>
      </g>
     </g>
    </g>
    <g id="ytick_2">
     <g id="line2d_9">
      <g>
       <use xlink:href="#m6392fef924" x="95.590313" y="730.519711" style="stroke: #000000; stroke-width: 0.8"/>
      </g>
     </g>
     <g id="text_9">
      <!-- 0.025 -->
      <g transform="translate(37.059688 737.358305) scale(0.18 -0.18)">
       <use xlink:href="#DejaVuSans-30"/>
       <use xlink:href="#DejaVuSans-2e" x="63.623047"/>
       <use xlink:href="#DejaVuSans-30" x="95.410156"/>
       <use xlink:href="#DejaVuSans-32" x="159.033203"/>
       <use xlink:href="#DejaVuSans-35" x="222.65625"/>
      </g>
     </g>
    </g>
    <g id="ytick_3">
     <g id="line2d_10">
      <g>
       <use xlink:href="#m6392fef924" x="95.590313" y="632.260048" style="stroke: #000000; stroke-width: 0.8"/>
      </g>
     </g>
     <g id="text_10">
      <!-- 0.050 -->
      <g transform="translate(37.059688 639.098641) scale(0.18 -0.18)">
       <use xlink:href="#DejaVuSans-30"/>
       <use xlink:href="#DejaVuSans-2e" x="63.623047"/>
       <use xlink:href="#DejaVuSans-30" x="95.410156"/>
       <use xlink:href="#DejaVuSans-35" x="159.033203"/>
       <use xlink:href="#DejaVuSans-30" x="222.65625"/>
      </g>
     </g>
    </g>
    <g id="ytick_4">
     <g id="line2d_11">
      <g>
       <use xlink:href="#m6392fef924" x="95.590313" y="534.000384" style="stroke: #000000; stroke-width: 0.8"/>
      </g>
     </g>
     <g id="text_11">
      <!-- 0.075 -->
      <g transform="translate(37.059688 540.838978) scale(0.18 -0.18)">
       <defs>
        <path id="DejaVuSans-37" d="M 525 4666 
L 3525 4666 
L 3525 4397 
L 1831 0 
L 1172 0 
L 2766 4134 
L 525 4134 
L 525 4666 
z
" transform="scale(0.015625)"/>
       </defs>
       <use xlink:href="#DejaVuSans-30"/>
       <use xlink:href="#DejaVuSans-2e" x="63.623047"/>
       <use xlink:href="#DejaVuSans-30" x="95.410156"/>
       <use xlink:href="#DejaVuSans-37" x="159.033203"/>
       <use xlink:href="#DejaVuSans-35" x="222.65625"/>
      </g>
     </g>
    </g>
    <g id="ytick_5">
     <g id="line2d_12">
      <g>
       <use xlink:href="#m6392fef924" x="95.590313" y="435.74072" style="stroke: #000000; stroke-width: 0.8"/>
      </g>
     </g>
     <g id="text_12">
      <!-- 0.100 -->
      <g transform="translate(37.059688 442.579314) scale(0.18 -0.18)">
       <use xlink:href="#DejaVuSans-30"/>
       <use xlink:href="#DejaVuSans-2e" x="63.623047"/>
       <use xlink:href="#DejaVuSans-31" x="95.410156"/>
       <use xlink:href="#DejaVuSans-30" x="159.033203"/>
       <use xlink:href="#DejaVuSans-30" x="222.65625"/>
      </g>
     </g>
    </g>
    <g id="ytick_6">
     <g id="line2d_13">
      <g>
       <use xlink:href="#m6392fef924" x="95.590313" y="337.481056" style="stroke: #000000; stroke-width: 0.8"/>
      </g>
     </g>
     <g id="text_13">
      <!-- 0.125 -->
      <g transform="translate(37.059688 344.31965) scale(0.18 -0.18)">
       <use xlink:href="#DejaVuSans-30"/>
       <use xlink:href="#DejaVuSans-2e" x="63.623047"/>
       <use xlink:href="#DejaVuSans-31" x="95.410156"/>
       <use xlink:href="#DejaVuSans-32" x="159.033203"/>
       <use xlink:href="#DejaVuSans-35" x="222.65625"/>
      </g>
     </g>
    </g>
    <g id="ytick_7">
     <g id="line2d_14">
      <g>
       <use xlink:href="#m6392fef924" x="95.590313" y="239.221393" style="stroke: #000000; stroke-width: 0.8"/>
      </g>
     </g>
     <g id="text_14">
      <!-- 0.150 -->
      <g transform="translate(37.059688 246.059986) scale(0.18 -0.18)">
       <use xlink:href="#DejaVuSans-30"/>
       <use xlink:href="#DejaVuSans-2e" x="63.623047"/>
       <use xlink:href="#DejaVuSans-31" x="95.410156"/>
       <use xlink:href="#DejaVuSans-35" x="159.033203"/>
       <use xlink:href="#DejaVuSans-30" x="222.65625"/>
      </g>
     </g>
    </g>
    <g id="ytick_8">
     <g id="line2d_15">
      <g>
       <use xlink:href="#m6392fef924" x="95.590313" y="140.961729" style="stroke: #000000; stroke-width: 0.8"/>
      </g>
     </g>
     <g id="text_15">
      <!-- 0.175 -->
      <g transform="translate(37.059688 147.800323) scale(0.18 -0.18)">
       <use xlink:href="#DejaVuSans-30"/>
       <use xlink:href="#DejaVuSans-2e" x="63.623047"/>
       <use xlink:href="#DejaVuSans-31" x="95.410156"/>
       <use xlink:href="#DejaVuSans-37" x="159.033203"/>
       <use xlink:href="#DejaVuSans-35" x="222.65625"/>
      </g>
     </g>
    </g>
    <g id="ytick_9">
     <g id="line2d_16">
      <g>
       <use xlink:href="#m6392fef924" x="95.590313" y="42.702065" style="stroke: #000000; stroke-width: 0.8"/>
      </g>
     </g>
     <g id="text_16">
      <!-- 0.200 -->
      <g transform="translate(37.059688 49.540659) scale(0.18 -0.18)">
       <use xlink:href="#DejaVuSans-30"/>
       <use xlink:href="#DejaVuSans-2e" x="63.623047"/>
       <use xlink:href="#DejaVuSans-32" x="95.410156"/>
       <use xlink:href="#DejaVuSans-30" x="159.033203"/>
       <use xlink:href="#DejaVuSans-30" x="222.65625"/>
      </g>
     </g>
    </g>
    <g id="text_17">
     <!-- Normed Hist Counts -->
     <g transform="translate(28.276406 548.966563) rotate(-90) scale(0.23 -0.23)">
      <defs>
       <path id="DejaVuSans-4e" d="M 628 4666 
L 1478 4666 
L 3547 763 
L 3547 4666 
L 4159 4666 
L 4159 0 
L 3309 0 
L 1241 3903 
L 1241 0 
L 628 0 
L 628 4666 
z
" transform="scale(0.015625)"/>
       <path id="DejaVuSans-6f" d="M 1959 3097 
Q 1497 3097 1228 2736 
Q 959 2375 959 1747 
Q 959 1119 1226 758 
Q 1494 397 1959 397 
Q 2419 397 2687 759 
Q 2956 1122 2956 1747 
Q 2956 2369 2687 2733 
Q 2419 3097 1959 3097 
z
M 1959 3584 
Q 2709 3584 3137 3096 
Q 3566 2609 3566 1747 
Q 3566 888 3137 398 
Q 2709 -91 1959 -91 
Q 1206 -91 779 398 
Q 353 888 353 1747 
Q 353 2609 779 3096 
Q 1206 3584 1959 3584 
z
" transform="scale(0.015625)"/>
       <path id="DejaVuSans-72" d="M 2631 2963 
Q 2534 3019 2420 3045 
Q 2306 3072 2169 3072 
Q 1681 3072 1420 2755 
Q 1159 2438 1159 1844 
L 1159 0 
L 581 0 
L 581 3500 
L 1159 3500 
L 1159 2956 
Q 1341 3275 1631 3429 
Q 1922 3584 2338 3584 
Q 2397 3584 2469 3576 
Q 2541 3569 2628 3553 
L 2631 2963 
z
" transform="scale(0.015625)"/>
       <path id="DejaVuSans-6d" d="M 3328 2828 
Q 3544 3216 3844 3400 
Q 4144 3584 4550 3584 
Q 5097 3584 5394 3201 
Q 5691 2819 5691 2113 
L 5691 0 
L 5113 0 
L 5113 2094 
Q 5113 2597 4934 2840 
Q 4756 3084 4391 3084 
Q 3944 3084 3684 2787 
Q 3425 2491 3425 1978 
L 3425 0 
L 2847 0 
L 2847 2094 
Q 2847 2600 2669 2842 
Q 2491 3084 2119 3084 
Q 1678 3084 1418 2786 
Q 1159 2488 1159 1978 
L 1159 0 
L 581 0 
L 581 3500 
L 1159 3500 
L 1159 2956 
Q 1356 3278 1631 3431 
Q 1906 3584 2284 3584 
Q 2666 3584 2933 3390 
Q 3200 3197 3328 2828 
z
" transform="scale(0.015625)"/>
       <path id="DejaVuSans-65" d="M 3597 1894 
L 3597 1613 
L 953 1613 
Q 991 1019 1311 708 
Q 1631 397 2203 397 
Q 2534 397 2845 478 
Q 3156 559 3463 722 
L 3463 178 
Q 3153 47 2828 -22 
Q 2503 -91 2169 -91 
Q 1331 -91 842 396 
Q 353 884 353 1716 
Q 353 2575 817 3079 
Q 1281 3584 2069 3584 
Q 2775 3584 3186 3129 
Q 3597 2675 3597 1894 
z
M 3022 2063 
Q 3016 2534 2758 2815 
Q 2500 3097 2075 3097 
Q 1594 3097 1305 2825 
Q 1016 2553 972 2059 
L 3022 2063 
z
" transform="scale(0.015625)"/>
       <path id="DejaVuSans-64" d="M 2906 2969 
L 2906 4863 
L 3481 4863 
L 3481 0 
L 2906 0 
L 2906 525 
Q 2725 213 2448 61 
Q 2172 -91 1784 -91 
Q 1150 -91 751 415 
Q 353 922 353 1747 
Q 353 2572 751 3078 
Q 1150 3584 1784 3584 
Q 2172 3584 2448 3432 
Q 2725 3281 2906 2969 
z
M 947 1747 
Q 947 1113 1208 752 
Q 1469 391 1925 391 
Q 2381 391 2643 752 
Q 2906 1113 2906 1747 
Q 2906 2381 2643 2742 
Q 2381 3103 1925 3103 
Q 1469 3103 1208 2742 
Q 947 2381 947 1747 
z
" transform="scale(0.015625)"/>
       <path id="DejaVuSans-20" transform="scale(0.015625)"/>
       <path id="DejaVuSans-48" d="M 628 4666 
L 1259 4666 
L 1259 2753 
L 3553 2753 
L 3553 4666 
L 4184 4666 
L 4184 0 
L 3553 0 
L 3553 2222 
L 1259 2222 
L 1259 0 
L 628 0 
L 628 4666 
z
" transform="scale(0.015625)"/>
       <path id="DejaVuSans-69" d="M 603 3500 
L 1178 3500 
L 1178 0 
L 603 0 
L 603 3500 
z
M 603 4863 
L 1178 4863 
L 1178 4134 
L 603 4134 
L 603 4863 
z
" transform="scale(0.015625)"/>
       <path id="DejaVuSans-73" d="M 2834 3397 
L 2834 2853 
Q 2591 2978 2328 3040 
Q 2066 3103 1784 3103 
Q 1356 3103 1142 2972 
Q 928 2841 928 2578 
Q 928 2378 1081 2264 
Q 1234 2150 1697 2047 
L 1894 2003 
Q 2506 1872 2764 1633 
Q 3022 1394 3022 966 
Q 3022 478 2636 193 
Q 2250 -91 1575 -91 
Q 1294 -91 989 -36 
Q 684 19 347 128 
L 347 722 
Q 666 556 975 473 
Q 1284 391 1588 391 
Q 1994 391 2212 530 
Q 2431 669 2431 922 
Q 2431 1156 2273 1281 
Q 2116 1406 1581 1522 
L 1381 1569 
Q 847 1681 609 1914 
Q 372 2147 372 2553 
Q 372 3047 722 3315 
Q 1072 3584 1716 3584 
Q 2034 3584 2315 3537 
Q 2597 3491 2834 3397 
z
" transform="scale(0.015625)"/>
       <path id="DejaVuSans-74" d="M 1172 4494 
L 1172 3500 
L 2356 3500 
L 2356 3053 
L 1172 3053 
L 1172 1153 
Q 1172 725 1289 603 
Q 1406 481 1766 481 
L 2356 481 
L 2356 0 
L 1766 0 
Q 1100 0 847 248 
Q 594 497 594 1153 
L 594 3053 
L 172 3053 
L 172 3500 
L 594 3500 
L 594 4494 
L 1172 4494 
z
" transform="scale(0.015625)"/>
       <path id="DejaVuSans-43" d="M 4122 4306 
L 4122 3641 
Q 3803 3938 3442 4084 
Q 3081 4231 2675 4231 
Q 1875 4231 1450 3742 
Q 1025 3253 1025 2328 
Q 1025 1406 1450 917 
Q 1875 428 2675 428 
Q 3081 428 3442 575 
Q 3803 722 4122 1019 
L 4122 359 
Q 3791 134 3420 21 
Q 3050 -91 2638 -91 
Q 1578 -91 968 557 
Q 359 1206 359 2328 
Q 359 3453 968 4101 
Q 1578 4750 2638 4750 
Q 3056 4750 3426 4639 
Q 3797 4528 4122 4306 
z
" transform="scale(0.015625)"/>
       <path id="DejaVuSans-75" d="M 544 1381 
L 544 3500 
L 1119 3500 
L 1119 1403 
Q 1119 906 1312 657 
Q 1506 409 1894 409 
Q 2359 409 2629 706 
Q 2900 1003 2900 1516 
L 2900 3500 
L 3475 3500 
L 3475 0 
L 2900 0 
L 2900 538 
Q 2691 219 2414 64 
Q 2138 -91 1772 -91 
Q 1169 -91 856 284 
Q 544 659 544 1381 
z
M 1991 3584 
L 1991 3584 
z
" transform="scale(0.015625)"/>
       <path id="DejaVuSans-6e" d="M 3513 2113 
L 3513 0 
L 2938 0 
L 2938 2094 
Q 2938 2591 2744 2837 
Q 2550 3084 2163 3084 
Q 1697 3084 1428 2787 
Q 1159 2491 1159 1978 
L 1159 0 
L 581 0 
L 581 3500 
L 1159 3500 
L 1159 2956 
Q 1366 3272 1645 3428 
Q 1925 3584 2291 3584 
Q 2894 3584 3203 3211 
Q 3513 2838 3513 2113 
z
" transform="scale(0.015625)"/>
      </defs>
      <use xlink:href="#DejaVuSans-4e"/>
      <use xlink:href="#DejaVuSans-6f" x="74.804688"/>
      <use xlink:href="#DejaVuSans-72" x="135.986328"/>
      <use xlink:href="#DejaVuSans-6d" x="175.349609"/>
      <use xlink:href="#DejaVuSans-65" x="272.761719"/>
      <use xlink:href="#DejaVuSans-64" x="334.285156"/>
      <use xlink:href="#DejaVuSans-20" x="397.761719"/>
      <use xlink:href="#DejaVuSans-48" x="429.548828"/>
      <use xlink:href="#DejaVuSans-69" x="504.744141"/>
      <use xlink:href="#DejaVuSans-73" x="532.527344"/>
      <use xlink:href="#DejaVuSans-74" x="584.626953"/>
      <use xlink:href="#DejaVuSans-20" x="623.835938"/>
      <use xlink:href="#DejaVuSans-43" x="655.623047"/>
      <use xlink:href="#DejaVuSans-6f" x="725.447266"/>
      <use xlink:href="#DejaVuSans-75" x="786.628906"/>
      <use xlink:href="#DejaVuSans-6e" x="850.007812"/>
      <use xlink:href="#DejaVuSans-74" x="913.386719"/>
      <use xlink:href="#DejaVuSans-73" x="952.595703"/>
     </g>
    </g>
   </g>
   <g id="line2d_17">
    <path d="M 158.813081 142.869434 
L 161.595953 -1 
M 263.21189 -1 
L 267.194969 52.702034 
L 273.216185 131.522945 
L 279.237401 207.025477 
L 285.258617 278.452468 
L 291.279833 345.240005 
L 297.301049 407.005031 
L 303.322265 463.529128 
L 309.343481 514.73953 
L 315.364697 560.688406 
L 321.385913 601.531425 
L 327.407129 637.506471 
L 333.428345 668.913282 
L 339.449561 696.094608 
L 345.470778 719.419316 
L 351.491994 739.267739 
L 357.51321 756.019399 
L 363.534426 770.043117 
L 369.555642 781.689411 
L 375.576858 791.285026 
L 381.598074 799.129347 
L 387.61929 805.492447 
L 393.640506 810.614493 
L 399.661722 814.706225 
L 405.682938 817.950256 
L 411.704154 820.502957 
L 417.72537 822.496721 
L 423.746586 824.04242 
L 429.767802 825.231942 
L 435.789018 826.140668 
L 441.810234 826.829829 
L 447.83145 827.34869 
L 459.873882 828.024318 
L 471.916314 828.391475 
L 489.979962 828.643564 
L 520.086042 828.75872 
L 634.489147 828.779371 
L 1357.03507 828.779375 
L 1357.03507 828.779375 
" clip-path="url(#p315c94843c)" style="fill: none; stroke: #ff7f0e; stroke-width: 1.5; stroke-linecap: square"/>
   </g>
   <g id="line2d_18">
    <path d="M 158.813081 749.517209 
L 164.834297 628.322029 
L 170.855513 524.578147 
L 176.876729 436.299717 
L 182.897945 361.784344 
L 188.919161 299.51908 
L 194.940377 248.146759 
L 200.961593 206.445872 
L 206.982809 173.315625 
L 213.004025 147.763679 
L 219.025241 128.895602 
L 225.046457 115.905584 
L 231.067673 108.068128 
L 237.088889 104.730581 
L 243.110105 105.306381 
L 249.131321 109.268921 
L 255.152537 116.145992 
L 261.173753 125.51471 
L 267.194969 136.996912 
L 273.216185 150.254958 
L 279.237401 164.987907 
L 285.258617 180.928036 
L 291.279833 197.837668 
L 297.301049 215.50628 
L 303.322265 233.747879 
L 315.364697 271.314548 
L 339.449561 347.344673 
L 351.491994 384.371683 
L 357.51321 402.416861 
L 363.534426 420.090597 
L 369.555642 437.357993 
L 375.576858 454.190756 
L 381.598074 470.566452 
L 387.61929 486.467831 
L 393.640506 501.882213 
L 399.661722 516.800943 
L 405.682938 531.21889 
L 411.704154 545.134005 
L 417.72537 558.546916 
L 423.746586 571.460567 
L 429.767802 583.879896 
L 435.789018 595.811547 
L 441.810234 607.263606 
L 447.83145 618.245372 
L 453.852666 628.76715 
L 459.873882 638.840069 
L 465.895098 648.475917 
L 471.916314 657.686996 
L 477.93753 666.485996 
L 483.958746 674.885884 
L 489.979962 682.899801 
L 496.001178 690.540979 
L 502.022394 697.822664 
L 508.04361 704.758052 
L 514.064826 711.360234 
L 520.086042 717.642141 
L 526.107258 723.616513 
L 532.128474 729.295857 
L 538.14969 734.692418 
L 544.170906 739.818161 
L 550.192122 744.684746 
L 556.213338 749.303514 
L 562.234554 753.685478 
L 568.25577 757.841311 
L 574.276986 761.781343 
L 580.298202 765.515554 
L 586.319418 769.053577 
L 592.340634 772.404697 
L 598.361851 775.57785 
L 604.383067 778.581632 
L 610.404283 781.424299 
L 616.425499 784.113776 
L 622.446715 786.657662 
L 628.467931 789.063236 
L 634.489147 791.337467 
L 640.510363 793.487022 
L 652.552795 797.437304 
L 664.595227 800.961689 
L 676.637659 804.103509 
L 688.680091 806.902114 
L 700.722523 809.393163 
L 712.764955 811.60891 
L 724.807387 813.578477 
L 736.849819 815.328113 
L 748.892251 816.881449 
L 760.934683 818.259721 
L 778.998331 820.040046 
L 797.061979 821.525137 
L 815.125627 822.762616 
L 833.189275 823.792721 
L 857.27414 824.901479 
L 881.359004 825.767245 
L 911.465084 826.586295 
L 941.571164 827.185152 
L 977.69846 827.694177 
L 1025.868188 828.131485 
L 1086.080348 828.440809 
L 1176.398589 828.652457 
L 1332.950205 828.756615 
L 1357.03507 828.761932 
L 1357.03507 828.761932 
" clip-path="url(#p315c94843c)" style="fill: none; stroke: #2ca02c; stroke-width: 1.5; stroke-linecap: square"/>
   </g>
   <g id="line2d_19">
    <path d="M 158.813081 615.565538 
L 164.834297 600.39275 
L 170.855513 584.76667 
L 176.876729 568.739046 
L 188.919161 535.719257 
L 206.982809 484.841944 
L 219.025241 450.980734 
L 231.067673 418.02016 
L 237.088889 402.120763 
L 243.110105 386.740758 
L 249.131321 371.979054 
L 255.152537 357.933161 
L 261.173753 344.698128 
L 267.194969 332.365481 
L 273.216185 321.022175 
L 279.237401 310.749571 
L 285.258617 301.622473 
L 291.279833 293.708219 
L 297.301049 287.065853 
L 303.322265 281.745391 
L 309.343481 277.787201 
L 315.364697 275.221482 
L 321.385913 274.067889 
L 327.407129 274.335279 
L 333.428345 276.021599 
L 339.449561 279.113909 
L 345.470778 283.588552 
L 351.491994 289.411452 
L 357.51321 296.538546 
L 363.534426 304.916343 
L 369.555642 314.482589 
L 375.576858 325.167035 
L 381.598074 336.892303 
L 387.61929 349.574809 
L 393.640506 363.125758 
L 399.661722 377.452176 
L 405.682938 392.457962 
L 411.704154 408.044958 
L 417.72537 424.113999 
L 429.767802 457.302708 
L 465.895098 558.561629 
L 471.916314 574.810606 
L 477.93753 590.693705 
L 483.958746 606.155011 
L 489.979962 621.145304 
L 496.001178 635.622112 
L 502.022394 649.549683 
L 508.04361 662.898863 
L 514.064826 675.646911 
L 520.086042 687.777247 
L 526.107258 699.27914 
L 532.128474 710.147351 
L 538.14969 720.381738 
L 544.170906 729.986827 
L 550.192122 738.97137 
L 556.213338 747.34788 
L 562.234554 755.132172 
L 568.25577 762.342897 
L 574.276986 769.001092 
L 580.298202 775.12974 
L 586.319418 780.753355 
L 592.340634 785.897584 
L 598.361851 790.588842 
L 604.383067 794.853971 
L 610.404283 798.719939 
L 616.425499 802.213561 
L 622.446715 805.361261 
L 628.467931 808.188861 
L 634.489147 810.721404 
L 640.510363 812.983008 
L 646.531579 814.996749 
L 652.552795 816.784569 
L 658.574011 818.367211 
L 664.595227 819.764178 
L 670.616443 820.993706 
L 676.637659 822.072763 
L 682.658875 823.017061 
L 694.701307 824.558098 
L 706.743739 825.718563 
L 718.786171 826.582651 
L 730.828603 827.218887 
L 748.892251 827.862867 
L 766.955899 828.253369 
L 791.040763 828.537342 
L 827.168059 828.709424 
L 905.443868 828.775913 
L 1357.03507 828.779375 
L 1357.03507 828.779375 
" clip-path="url(#p315c94843c)" style="fill: none; stroke: #d62728; stroke-width: 1.5; stroke-linecap: square"/>
   </g>
   <g id="patch_103">
    <path d="M 95.590313 828.779375 
L 95.590313 38.075625 
" style="fill: none; stroke: #000000; stroke-width: 0.8; stroke-linejoin: miter; stroke-linecap: square"/>
   </g>
   <g id="patch_104">
    <path d="M 1420.257838 828.779375 
L 1420.257838 38.075625 
" style="fill: none; stroke: #000000; stroke-width: 0.8; stroke-linejoin: miter; stroke-linecap: square"/>
   </g>
   <g id="patch_105">
    <path d="M 95.590313 828.779375 
L 1420.257838 828.779375 
" style="fill: none; stroke: #000000; stroke-width: 0.8; stroke-linejoin: miter; stroke-linecap: square"/>
   </g>
   <g id="patch_106">
    <path d="M 95.590313 38.075625 
L 1420.257838 38.075625 
" style="fill: none; stroke: #000000; stroke-width: 0.8; stroke-linejoin: miter; stroke-linecap: square"/>
   </g>
   <g id="text_18">
    <!-- All Fitted Distributions -->
    <g transform="translate(603.29845 32.075625) scale(0.28 -0.28)">
     <defs>
      <path id="DejaVuSans-41" d="M 2188 4044 
L 1331 1722 
L 3047 1722 
L 2188 4044 
z
M 1831 4666 
L 2547 4666 
L 4325 0 
L 3669 0 
L 3244 1197 
L 1141 1197 
L 716 0 
L 50 0 
L 1831 4666 
z
" transform="scale(0.015625)"/>
      <path id="DejaVuSans-6c" d="M 603 4863 
L 1178 4863 
L 1178 0 
L 603 0 
L 603 4863 
z
" transform="scale(0.015625)"/>
      <path id="DejaVuSans-46" d="M 628 4666 
L 3309 4666 
L 3309 4134 
L 1259 4134 
L 1259 2759 
L 3109 2759 
L 3109 2228 
L 1259 2228 
L 1259 0 
L 628 0 
L 628 4666 
z
" transform="scale(0.015625)"/>
      <path id="DejaVuSans-44" d="M 1259 4147 
L 1259 519 
L 2022 519 
Q 2988 519 3436 956 
Q 3884 1394 3884 2338 
Q 3884 3275 3436 3711 
Q 2988 4147 2022 4147 
L 1259 4147 
z
M 628 4666 
L 1925 4666 
Q 3281 4666 3915 4102 
Q 4550 3538 4550 2338 
Q 4550 1131 3912 565 
Q 3275 0 1925 0 
L 628 0 
L 628 4666 
z
" transform="scale(0.015625)"/>
      <path id="DejaVuSans-62" d="M 3116 1747 
Q 3116 2381 2855 2742 
Q 2594 3103 2138 3103 
Q 1681 3103 1420 2742 
Q 1159 2381 1159 1747 
Q 1159 1113 1420 752 
Q 1681 391 2138 391 
Q 2594 391 2855 752 
Q 3116 1113 3116 1747 
z
M 1159 2969 
Q 1341 3281 1617 3432 
Q 1894 3584 2278 3584 
Q 2916 3584 3314 3078 
Q 3713 2572 3713 1747 
Q 3713 922 3314 415 
Q 2916 -91 2278 -91 
Q 1894 -91 1617 61 
Q 1341 213 1159 525 
L 1159 0 
L 581 0 
L 581 4863 
L 1159 4863 
L 1159 2969 
z
" transform="scale(0.015625)"/>
     </defs>
     <use xlink:href="#DejaVuSans-41"/>
     <use xlink:href="#DejaVuSans-6c" x="68.408203"/>
     <use xlink:href="#DejaVuSans-6c" x="96.191406"/>
     <use xlink:href="#DejaVuSans-20" x="123.974609"/>
     <use xlink:href="#DejaVuSans-46" x="155.761719"/>
     <use xlink:href="#DejaVuSans-69" x="206.03125"/>
     <use xlink:href="#DejaVuSans-74" x="233.814453"/>
     <use xlink:href="#DejaVuSans-74" x="273.023438"/>
     <use xlink:href="#DejaVuSans-65" x="312.232422"/>
     <use xlink:href="#DejaVuSans-64" x="373.755859"/>
     <use xlink:href="#DejaVuSans-20" x="437.232422"/>
     <use xlink:href="#DejaVuSans-44" x="469.019531"/>
     <use xlink:href="#DejaVuSans-69" x="546.021484"/>
     <use xlink:href="#DejaVuSans-73" x="573.804688"/>
     <use xlink:href="#DejaVuSans-74" x="625.904297"/>
     <use xlink:href="#DejaVuSans-72" x="665.113281"/>
     <use xlink:href="#DejaVuSans-69" x="706.226562"/>
     <use xlink:href="#DejaVuSans-62" x="734.009766"/>
     <use xlink:href="#DejaVuSans-75" x="797.486328"/>
     <use xlink:href="#DejaVuSans-74" x="860.865234"/>
     <use xlink:href="#DejaVuSans-69" x="900.074219"/>
     <use xlink:href="#DejaVuSans-6f" x="927.857422"/>
     <use xlink:href="#DejaVuSans-6e" x="989.039062"/>
     <use xlink:href="#DejaVuSans-73" x="1052.417969"/>
    </g>
   </g>
   <g id="legend_1">
    <g id="patch_107">
     <path d="M 1051.692838 198.185625 
L 1403.457838 198.185625 
Q 1408.257838 198.185625 1408.257838 193.385625 
L 1408.257838 54.875625 
Q 1408.257838 50.075625 1403.457838 50.075625 
L 1051.692838 50.075625 
Q 1046.892838 50.075625 1046.892838 54.875625 
L 1046.892838 193.385625 
Q 1046.892838 198.185625 1051.692838 198.185625 
z
" style="fill: #ffffff; opacity: 0.8; stroke: #cccccc; stroke-linejoin: miter"/>
    </g>
    <g id="patch_108">
     <path d="M 1056.492838 77.911875 
L 1104.492838 77.911875 
L 1104.492838 61.111875 
L 1056.492838 61.111875 
z
" style="fill: #1f77b4; opacity: 0.6"/>
    </g>
    <g id="text_19">
     <!-- Generated Distribution -->
     <g transform="translate(1123.692838 77.911875) scale(0.24 -0.24)">
      <defs>
       <path id="DejaVuSans-47" d="M 3809 666 
L 3809 1919 
L 2778 1919 
L 2778 2438 
L 4434 2438 
L 4434 434 
Q 4069 175 3628 42 
Q 3188 -91 2688 -91 
Q 1594 -91 976 548 
Q 359 1188 359 2328 
Q 359 3472 976 4111 
Q 1594 4750 2688 4750 
Q 3144 4750 3555 4637 
Q 3966 4525 4313 4306 
L 4313 3634 
Q 3963 3931 3569 4081 
Q 3175 4231 2741 4231 
Q 1884 4231 1454 3753 
Q 1025 3275 1025 2328 
Q 1025 1384 1454 906 
Q 1884 428 2741 428 
Q 3075 428 3337 486 
Q 3600 544 3809 666 
z
" transform="scale(0.015625)"/>
       <path id="DejaVuSans-61" d="M 2194 1759 
Q 1497 1759 1228 1600 
Q 959 1441 959 1056 
Q 959 750 1161 570 
Q 1363 391 1709 391 
Q 2188 391 2477 730 
Q 2766 1069 2766 1631 
L 2766 1759 
L 2194 1759 
z
M 3341 1997 
L 3341 0 
L 2766 0 
L 2766 531 
Q 2569 213 2275 61 
Q 1981 -91 1556 -91 
Q 1019 -91 701 211 
Q 384 513 384 1019 
Q 384 1609 779 1909 
Q 1175 2209 1959 2209 
L 2766 2209 
L 2766 2266 
Q 2766 2663 2505 2880 
Q 2244 3097 1772 3097 
Q 1472 3097 1187 3025 
Q 903 2953 641 2809 
L 641 3341 
Q 956 3463 1253 3523 
Q 1550 3584 1831 3584 
Q 2591 3584 2966 3190 
Q 3341 2797 3341 1997 
z
" transform="scale(0.015625)"/>
      </defs>
      <use xlink:href="#DejaVuSans-47"/>
      <use xlink:href="#DejaVuSans-65" x="77.490234"/>
      <use xlink:href="#DejaVuSans-6e" x="139.013672"/>
      <use xlink:href="#DejaVuSans-65" x="202.392578"/>
      <use xlink:href="#DejaVuSans-72" x="263.916016"/>
      <use xlink:href="#DejaVuSans-61" x="305.029297"/>
      <use xlink:href="#DejaVuSans-74" x="366.308594"/>
      <use xlink:href="#DejaVuSans-65" x="405.517578"/>
      <use xlink:href="#DejaVuSans-64" x="467.041016"/>
      <use xlink:href="#DejaVuSans-20" x="530.517578"/>
      <use xlink:href="#DejaVuSans-44" x="562.304688"/>
      <use xlink:href="#DejaVuSans-69" x="639.306641"/>
      <use xlink:href="#DejaVuSans-73" x="667.089844"/>
      <use xlink:href="#DejaVuSans-74" x="719.189453"/>
      <use xlink:href="#DejaVuSans-72" x="758.398438"/>
      <use xlink:href="#DejaVuSans-69" x="799.511719"/>
      <use xlink:href="#DejaVuSans-62" x="827.294922"/>
      <use xlink:href="#DejaVuSans-75" x="890.771484"/>
      <use xlink:href="#DejaVuSans-74" x="954.150391"/>
      <use xlink:href="#DejaVuSans-69" x="993.359375"/>
      <use xlink:href="#DejaVuSans-6f" x="1021.142578"/>
      <use xlink:href="#DejaVuSans-6e" x="1082.324219"/>
     </g>
    </g>
    <g id="line2d_20">
     <path d="M 1056.492838 104.739375 
L 1080.492838 104.739375 
L 1104.492838 104.739375 
" style="fill: none; stroke: #ff7f0e; stroke-width: 1.5; stroke-linecap: square"/>
    </g>
    <g id="text_20">
     <!-- Chi fit -->
     <g transform="translate(1123.692838 113.139375) scale(0.24 -0.24)">
      <defs>
       <path id="DejaVuSans-68" d="M 3513 2113 
L 3513 0 
L 2938 0 
L 2938 2094 
Q 2938 2591 2744 2837 
Q 2550 3084 2163 3084 
Q 1697 3084 1428 2787 
Q 1159 2491 1159 1978 
L 1159 0 
L 581 0 
L 581 4863 
L 1159 4863 
L 1159 2956 
Q 1366 3272 1645 3428 
Q 1925 3584 2291 3584 
Q 2894 3584 3203 3211 
Q 3513 2838 3513 2113 
z
" transform="scale(0.015625)"/>
       <path id="DejaVuSans-66" d="M 2375 4863 
L 2375 4384 
L 1825 4384 
Q 1516 4384 1395 4259 
Q 1275 4134 1275 3809 
L 1275 3500 
L 2222 3500 
L 2222 3053 
L 1275 3053 
L 1275 0 
L 697 0 
L 697 3053 
L 147 3053 
L 147 3500 
L 697 3500 
L 697 3744 
Q 697 4328 969 4595 
Q 1241 4863 1831 4863 
L 2375 4863 
z
" transform="scale(0.015625)"/>
      </defs>
      <use xlink:href="#DejaVuSans-43"/>
      <use xlink:href="#DejaVuSans-68" x="69.824219"/>
      <use xlink:href="#DejaVuSans-69" x="133.203125"/>
      <use xlink:href="#DejaVuSans-20" x="160.986328"/>
      <use xlink:href="#DejaVuSans-66" x="192.773438"/>
      <use xlink:href="#DejaVuSans-69" x="227.978516"/>
      <use xlink:href="#DejaVuSans-74" x="255.761719"/>
     </g>
    </g>
    <g id="line2d_21">
     <path d="M 1056.492838 139.966875 
L 1080.492838 139.966875 
L 1104.492838 139.966875 
" style="fill: none; stroke: #2ca02c; stroke-width: 1.5; stroke-linecap: square"/>
    </g>
    <g id="text_21">
     <!-- ChiSquared fit -->
     <g transform="translate(1123.692838 148.366875) scale(0.24 -0.24)">
      <defs>
       <path id="DejaVuSans-53" d="M 3425 4513 
L 3425 3897 
Q 3066 4069 2747 4153 
Q 2428 4238 2131 4238 
Q 1616 4238 1336 4038 
Q 1056 3838 1056 3469 
Q 1056 3159 1242 3001 
Q 1428 2844 1947 2747 
L 2328 2669 
Q 3034 2534 3370 2195 
Q 3706 1856 3706 1288 
Q 3706 609 3251 259 
Q 2797 -91 1919 -91 
Q 1588 -91 1214 -16 
Q 841 59 441 206 
L 441 856 
Q 825 641 1194 531 
Q 1563 422 1919 422 
Q 2459 422 2753 634 
Q 3047 847 3047 1241 
Q 3047 1584 2836 1778 
Q 2625 1972 2144 2069 
L 1759 2144 
Q 1053 2284 737 2584 
Q 422 2884 422 3419 
Q 422 4038 858 4394 
Q 1294 4750 2059 4750 
Q 2388 4750 2728 4690 
Q 3069 4631 3425 4513 
z
" transform="scale(0.015625)"/>
       <path id="DejaVuSans-71" d="M 947 1747 
Q 947 1113 1208 752 
Q 1469 391 1925 391 
Q 2381 391 2643 752 
Q 2906 1113 2906 1747 
Q 2906 2381 2643 2742 
Q 2381 3103 1925 3103 
Q 1469 3103 1208 2742 
Q 947 2381 947 1747 
z
M 2906 525 
Q 2725 213 2448 61 
Q 2172 -91 1784 -91 
Q 1150 -91 751 415 
Q 353 922 353 1747 
Q 353 2572 751 3078 
Q 1150 3584 1784 3584 
Q 2172 3584 2448 3432 
Q 2725 3281 2906 2969 
L 2906 3500 
L 3481 3500 
L 3481 -1331 
L 2906 -1331 
L 2906 525 
z
" transform="scale(0.015625)"/>
      </defs>
      <use xlink:href="#DejaVuSans-43"/>
      <use xlink:href="#DejaVuSans-68" x="69.824219"/>
      <use xlink:href="#DejaVuSans-69" x="133.203125"/>
      <use xlink:href="#DejaVuSans-53" x="160.986328"/>
      <use xlink:href="#DejaVuSans-71" x="224.462891"/>
      <use xlink:href="#DejaVuSans-75" x="287.939453"/>
      <use xlink:href="#DejaVuSans-61" x="351.318359"/>
      <use xlink:href="#DejaVuSans-72" x="412.597656"/>
      <use xlink:href="#DejaVuSans-65" x="451.460938"/>
      <use xlink:href="#DejaVuSans-64" x="512.984375"/>
      <use xlink:href="#DejaVuSans-20" x="576.460938"/>
      <use xlink:href="#DejaVuSans-66" x="608.248047"/>
      <use xlink:href="#DejaVuSans-69" x="643.453125"/>
      <use xlink:href="#DejaVuSans-74" x="671.236328"/>
     </g>
    </g>
    <g id="line2d_22">
     <path d="M 1056.492838 175.194375 
L 1080.492838 175.194375 
L 1104.492838 175.194375 
" style="fill: none; stroke: #d62728; stroke-width: 1.5; stroke-linecap: square"/>
    </g>
    <g id="text_22">
     <!-- Normal fit -->
     <g transform="translate(1123.692838 183.594375) scale(0.24 -0.24)">
      <use xlink:href="#DejaVuSans-4e"/>
      <use xlink:href="#DejaVuSans-6f" x="74.804688"/>
      <use xlink:href="#DejaVuSans-72" x="135.986328"/>
      <use xlink:href="#DejaVuSans-6d" x="175.349609"/>
      <use xlink:href="#DejaVuSans-61" x="272.761719"/>
      <use xlink:href="#DejaVuSans-6c" x="334.041016"/>
      <use xlink:href="#DejaVuSans-20" x="361.824219"/>
      <use xlink:href="#DejaVuSans-66" x="393.611328"/>
      <use xlink:href="#DejaVuSans-69" x="428.816406"/>
      <use xlink:href="#DejaVuSans-74" x="456.599609"/>
     </g>
    </g>
   </g>
  </g>
 </g>
 <defs>
  <clipPath id="p315c94843c">
   <rect x="95.590313" y="38.075625" width="1324.667525" height="790.70375"/>
  </clipPath>
 </defs>
</svg>
