<?xml version="1.0" encoding="utf-8" standalone="no"?>
<!DOCTYPE svg PUBLIC "-//W3C//DTD SVG 1.1//EN"
  "http://www.w3.org/Graphics/SVG/1.1/DTD/svg11.dtd">
<svg xmlns:xlink="http://www.w3.org/1999/xlink" width="1440pt" height="864pt" viewBox="0 0 1440 864" xmlns="http://www.w3.org/2000/svg" version="1.1">
 <metadata>
  <rdf:RDF xmlns:dc="http://purl.org/dc/elements/1.1/" xmlns:cc="http://creativecommons.org/ns#" xmlns:rdf="http://www.w3.org/1999/02/22-rdf-syntax-ns#">
   <cc:Work>
    <dc:type rdf:resource="http://purl.org/dc/dcmitype/StillImage"/>
    <dc:date>2025-06-26T13:57:21.582267</dc:date>
    <dc:format>image/svg+xml</dc:format>
    <dc:creator>
     <cc:Agent>
      <dc:title>Matplotlib v3.10.0, https://matplotlib.org/</dc:title>
     </cc:Agent>
    </dc:creator>
   </cc:Work>
  </rdf:RDF>
 </metadata>
 <defs>
  <style type="text/css">*{stroke-linejoin: round; stroke-linecap: butt}</style>
 </defs>
 <g id="figure_1">
  <g id="patch_1">
   <path d="M 0 864 
L 1440 864 
L 1440 0 
L 0 0 
z
" style="fill: #ffffff"/>
  </g>
  <g id="axes_1">
   <g id="patch_2">
    <path d="M 95.590313 828.779375 
L 1429.2 828.779375 
L 1429.2 38.075625 
L 95.590313 38.075625 
z
" style="fill: #ffffff"/>
   </g>
   <g id="patch_3">
    <path d="M 156.208935 828.779375 
L 168.332659 828.779375 
L 168.332659 704.072303 
L 156.208935 704.072303 
z
" clip-path="url(#p2c13677721)" style="fill: #1f77b4; opacity: 0.6"/>
   </g>
   <g id="patch_4">
    <path d="M 168.332659 828.779375 
L 180.456384 828.779375 
L 180.456384 476.137268 
L 168.332659 476.137268 
z
" clip-path="url(#p2c13677721)" style="fill: #1f77b4; opacity: 0.6"/>
   </g>
   <g id="patch_5">
    <path d="M 180.456384 828.779375 
L 192.580108 828.779375 
L 192.580108 324.501162 
L 180.456384 324.501162 
z
" clip-path="url(#p2c13677721)" style="fill: #1f77b4; opacity: 0.6"/>
   </g>
   <g id="patch_6">
    <path d="M 192.580108 828.779375 
L 204.703832 828.779375 
L 204.703832 234.096549 
L 192.580108 234.096549 
z
" clip-path="url(#p2c13677721)" style="fill: #1f77b4; opacity: 0.6"/>
   </g>
   <g id="patch_7">
    <path d="M 204.703832 828.779375 
L 216.827557 828.779375 
L 216.827557 159.079955 
L 204.703832 159.079955 
z
" clip-path="url(#p2c13677721)" style="fill: #1f77b4; opacity: 0.6"/>
   </g>
   <g id="patch_8">
    <path d="M 216.827557 828.779375 
L 228.951281 828.779375 
L 228.951281 123.495161 
L 216.827557 123.495161 
z
" clip-path="url(#p2c13677721)" style="fill: #1f77b4; opacity: 0.6"/>
   </g>
   <g id="patch_9">
    <path d="M 228.951281 828.779375 
L 241.075006 828.779375 
L 241.075006 97.527878 
L 228.951281 97.527878 
z
" clip-path="url(#p2c13677721)" style="fill: #1f77b4; opacity: 0.6"/>
   </g>
   <g id="patch_10">
    <path d="M 241.075006 828.779375 
L 253.19873 828.779375 
L 253.19873 76.369352 
L 241.075006 76.369352 
z
" clip-path="url(#p2c13677721)" style="fill: #1f77b4; opacity: 0.6"/>
   </g>
   <g id="patch_11">
    <path d="M 253.19873 828.779375 
L 265.322455 828.779375 
L 265.322455 75.728185 
L 253.19873 75.728185 
z
" clip-path="url(#p2c13677721)" style="fill: #1f77b4; opacity: 0.6"/>
   </g>
   <g id="patch_12">
    <path d="M 265.322455 828.779375 
L 277.446179 828.779375 
L 277.446179 97.527878 
L 265.322455 97.527878 
z
" clip-path="url(#p2c13677721)" style="fill: #1f77b4; opacity: 0.6"/>
   </g>
   <g id="patch_13">
    <path d="M 277.446179 828.779375 
L 289.569903 828.779375 
L 289.569903 97.527878 
L 277.446179 97.527878 
z
" clip-path="url(#p2c13677721)" style="fill: #1f77b4; opacity: 0.6"/>
   </g>
   <g id="patch_14">
    <path d="M 289.569903 828.779375 
L 301.693628 828.779375 
L 301.693628 120.289324 
L 289.569903 120.289324 
z
" clip-path="url(#p2c13677721)" style="fill: #1f77b4; opacity: 0.6"/>
   </g>
   <g id="patch_15">
    <path d="M 301.693628 828.779375 
L 313.817352 828.779375 
L 313.817352 150.103611 
L 301.693628 150.103611 
z
" clip-path="url(#p2c13677721)" style="fill: #1f77b4; opacity: 0.6"/>
   </g>
   <g id="patch_16">
    <path d="M 313.817352 828.779375 
L 325.941077 828.779375 
L 325.941077 194.66475 
L 313.817352 194.66475 
z
" clip-path="url(#p2c13677721)" style="fill: #1f77b4; opacity: 0.6"/>
   </g>
   <g id="patch_17">
    <path d="M 325.941077 828.779375 
L 338.064801 828.779375 
L 338.064801 232.814214 
L 325.941077 232.814214 
z
" clip-path="url(#p2c13677721)" style="fill: #1f77b4; opacity: 0.6"/>
   </g>
   <g id="patch_18">
    <path d="M 338.064801 828.779375 
L 350.188526 828.779375 
L 350.188526 252.690406 
L 338.064801 252.690406 
z
" clip-path="url(#p2c13677721)" style="fill: #1f77b4; opacity: 0.6"/>
   </g>
   <g id="patch_19">
    <path d="M 350.188526 828.779375 
L 362.31225 828.779375 
L 362.31225 294.686875 
L 350.188526 294.686875 
z
" clip-path="url(#p2c13677721)" style="fill: #1f77b4; opacity: 0.6"/>
   </g>
   <g id="patch_20">
    <path d="M 362.31225 828.779375 
L 374.435974 828.779375 
L 374.435974 353.674282 
L 362.31225 353.674282 
z
" clip-path="url(#p2c13677721)" style="fill: #1f77b4; opacity: 0.6"/>
   </g>
   <g id="patch_21">
    <path d="M 374.435974 828.779375 
L 386.559699 828.779375 
L 386.559699 397.914837 
L 374.435974 397.914837 
z
" clip-path="url(#p2c13677721)" style="fill: #1f77b4; opacity: 0.6"/>
   </g>
   <g id="patch_22">
    <path d="M 386.559699 828.779375 
L 398.683423 828.779375 
L 398.683423 410.417603 
L 386.559699 410.417603 
z
" clip-path="url(#p2c13677721)" style="fill: #1f77b4; opacity: 0.6"/>
   </g>
   <g id="patch_23">
    <path d="M 398.683423 828.779375 
L 410.807148 828.779375 
L 410.807148 415.226359 
L 398.683423 415.226359 
z
" clip-path="url(#p2c13677721)" style="fill: #1f77b4; opacity: 0.6"/>
   </g>
   <g id="patch_24">
    <path d="M 410.807148 828.779375 
L 422.930872 828.779375 
L 422.930872 479.984273 
L 410.807148 479.984273 
z
" clip-path="url(#p2c13677721)" style="fill: #1f77b4; opacity: 0.6"/>
   </g>
   <g id="patch_25">
    <path d="M 422.930872 828.779375 
L 435.054597 828.779375 
L 435.054597 499.860464 
L 422.930872 499.860464 
z
" clip-path="url(#p2c13677721)" style="fill: #1f77b4; opacity: 0.6"/>
   </g>
   <g id="patch_26">
    <path d="M 435.054597 828.779375 
L 447.178321 828.779375 
L 447.178321 530.315919 
L 435.054597 530.315919 
z
" clip-path="url(#p2c13677721)" style="fill: #1f77b4; opacity: 0.6"/>
   </g>
   <g id="patch_27">
    <path d="M 447.178321 828.779375 
L 459.302045 828.779375 
L 459.302045 554.680283 
L 447.178321 554.680283 
z
" clip-path="url(#p2c13677721)" style="fill: #1f77b4; opacity: 0.6"/>
   </g>
   <g id="patch_28">
    <path d="M 459.302045 828.779375 
L 471.42577 828.779375 
L 471.42577 594.753249 
L 459.302045 594.753249 
z
" clip-path="url(#p2c13677721)" style="fill: #1f77b4; opacity: 0.6"/>
   </g>
   <g id="patch_29">
    <path d="M 471.42577 828.779375 
L 483.549494 828.779375 
L 483.549494 603.088426 
L 471.42577 603.088426 
z
" clip-path="url(#p2c13677721)" style="fill: #1f77b4; opacity: 0.6"/>
   </g>
   <g id="patch_30">
    <path d="M 483.549494 828.779375 
L 495.673219 828.779375 
L 495.673219 625.849872 
L 483.549494 625.849872 
z
" clip-path="url(#p2c13677721)" style="fill: #1f77b4; opacity: 0.6"/>
   </g>
   <g id="patch_31">
    <path d="M 495.673219 828.779375 
L 507.796943 828.779375 
L 507.796943 646.687814 
L 495.673219 646.687814 
z
" clip-path="url(#p2c13677721)" style="fill: #1f77b4; opacity: 0.6"/>
   </g>
   <g id="patch_32">
    <path d="M 507.796943 828.779375 
L 519.920668 828.779375 
L 519.920668 651.817154 
L 507.796943 651.817154 
z
" clip-path="url(#p2c13677721)" style="fill: #1f77b4; opacity: 0.6"/>
   </g>
   <g id="patch_33">
    <path d="M 519.920668 828.779375 
L 532.044392 828.779375 
L 532.044392 677.463853 
L 519.920668 677.463853 
z
" clip-path="url(#p2c13677721)" style="fill: #1f77b4; opacity: 0.6"/>
   </g>
   <g id="patch_34">
    <path d="M 532.044392 828.779375 
L 544.168116 828.779375 
L 544.168116 680.990274 
L 532.044392 680.990274 
z
" clip-path="url(#p2c13677721)" style="fill: #1f77b4; opacity: 0.6"/>
   </g>
   <g id="patch_35">
    <path d="M 544.168116 828.779375 
L 556.291841 828.779375 
L 556.291841 695.737126 
L 544.168116 695.737126 
z
" clip-path="url(#p2c13677721)" style="fill: #1f77b4; opacity: 0.6"/>
   </g>
   <g id="patch_36">
    <path d="M 556.291841 828.779375 
L 568.415565 828.779375 
L 568.415565 701.507633 
L 556.291841 701.507633 
z
" clip-path="url(#p2c13677721)" style="fill: #1f77b4; opacity: 0.6"/>
   </g>
   <g id="patch_37">
    <path d="M 568.415565 828.779375 
L 580.53929 828.779375 
L 580.53929 726.19258 
L 568.415565 726.19258 
z
" clip-path="url(#p2c13677721)" style="fill: #1f77b4; opacity: 0.6"/>
   </g>
   <g id="patch_38">
    <path d="M 580.53929 828.779375 
L 592.663014 828.779375 
L 592.663014 731.32192 
L 580.53929 731.32192 
z
" clip-path="url(#p2c13677721)" style="fill: #1f77b4; opacity: 0.6"/>
   </g>
   <g id="patch_39">
    <path d="M 592.663014 828.779375 
L 604.786739 828.779375 
L 604.786739 747.351107 
L 592.663014 747.351107 
z
" clip-path="url(#p2c13677721)" style="fill: #1f77b4; opacity: 0.6"/>
   </g>
   <g id="patch_40">
    <path d="M 604.786739 828.779375 
L 616.910463 828.779375 
L 616.910463 739.977681 
L 604.786739 739.977681 
z
" clip-path="url(#p2c13677721)" style="fill: #1f77b4; opacity: 0.6"/>
   </g>
   <g id="patch_41">
    <path d="M 616.910463 828.779375 
L 629.034188 828.779375 
L 629.034188 753.762781 
L 616.910463 753.762781 
z
" clip-path="url(#p2c13677721)" style="fill: #1f77b4; opacity: 0.6"/>
   </g>
   <g id="patch_42">
    <path d="M 629.034188 828.779375 
L 641.157912 828.779375 
L 641.157912 763.700877 
L 629.034188 763.700877 
z
" clip-path="url(#p2c13677721)" style="fill: #1f77b4; opacity: 0.6"/>
   </g>
   <g id="patch_43">
    <path d="M 641.157912 828.779375 
L 653.281636 828.779375 
L 653.281636 767.227298 
L 641.157912 767.227298 
z
" clip-path="url(#p2c13677721)" style="fill: #1f77b4; opacity: 0.6"/>
   </g>
   <g id="patch_44">
    <path d="M 653.281636 828.779375 
L 665.405361 828.779375 
L 665.405361 773.638973 
L 653.281636 773.638973 
z
" clip-path="url(#p2c13677721)" style="fill: #1f77b4; opacity: 0.6"/>
   </g>
   <g id="patch_45">
    <path d="M 665.405361 828.779375 
L 677.529085 828.779375 
L 677.529085 783.897652 
L 665.405361 783.897652 
z
" clip-path="url(#p2c13677721)" style="fill: #1f77b4; opacity: 0.6"/>
   </g>
   <g id="patch_46">
    <path d="M 677.529085 828.779375 
L 689.65281 828.779375 
L 689.65281 781.97415 
L 677.529085 781.97415 
z
" clip-path="url(#p2c13677721)" style="fill: #1f77b4; opacity: 0.6"/>
   </g>
   <g id="patch_47">
    <path d="M 689.65281 828.779375 
L 701.776534 828.779375 
L 701.776534 786.462322 
L 689.65281 786.462322 
z
" clip-path="url(#p2c13677721)" style="fill: #1f77b4; opacity: 0.6"/>
   </g>
   <g id="patch_48">
    <path d="M 701.776534 828.779375 
L 713.900259 828.779375 
L 713.900259 789.988743 
L 701.776534 789.988743 
z
" clip-path="url(#p2c13677721)" style="fill: #1f77b4; opacity: 0.6"/>
   </g>
   <g id="patch_49">
    <path d="M 713.900259 828.779375 
L 726.023983 828.779375 
L 726.023983 799.285671 
L 713.900259 799.285671 
z
" clip-path="url(#p2c13677721)" style="fill: #1f77b4; opacity: 0.6"/>
   </g>
   <g id="patch_50">
    <path d="M 726.023983 828.779375 
L 738.147707 828.779375 
L 738.147707 801.209174 
L 726.023983 801.209174 
z
" clip-path="url(#p2c13677721)" style="fill: #1f77b4; opacity: 0.6"/>
   </g>
   <g id="patch_51">
    <path d="M 738.147707 828.779375 
L 750.271432 828.779375 
L 750.271432 801.209174 
L 738.147707 801.209174 
z
" clip-path="url(#p2c13677721)" style="fill: #1f77b4; opacity: 0.6"/>
   </g>
   <g id="patch_52">
    <path d="M 750.271432 828.779375 
L 762.395156 828.779375 
L 762.395156 807.941432 
L 750.271432 807.941432 
z
" clip-path="url(#p2c13677721)" style="fill: #1f77b4; opacity: 0.6"/>
   </g>
   <g id="patch_53">
    <path d="M 762.395156 828.779375 
L 774.518881 828.779375 
L 774.518881 806.01793 
L 762.395156 806.01793 
z
" clip-path="url(#p2c13677721)" style="fill: #1f77b4; opacity: 0.6"/>
   </g>
   <g id="patch_54">
    <path d="M 774.518881 828.779375 
L 786.642605 828.779375 
L 786.642605 813.71194 
L 774.518881 813.71194 
z
" clip-path="url(#p2c13677721)" style="fill: #1f77b4; opacity: 0.6"/>
   </g>
   <g id="patch_55">
    <path d="M 786.642605 828.779375 
L 798.76633 828.779375 
L 798.76633 813.391356 
L 786.642605 813.391356 
z
" clip-path="url(#p2c13677721)" style="fill: #1f77b4; opacity: 0.6"/>
   </g>
   <g id="patch_56">
    <path d="M 798.76633 828.779375 
L 810.890054 828.779375 
L 810.890054 812.429605 
L 798.76633 812.429605 
z
" clip-path="url(#p2c13677721)" style="fill: #1f77b4; opacity: 0.6"/>
   </g>
   <g id="patch_57">
    <path d="M 810.890054 828.779375 
L 823.013778 828.779375 
L 823.013778 815.635442 
L 810.890054 815.635442 
z
" clip-path="url(#p2c13677721)" style="fill: #1f77b4; opacity: 0.6"/>
   </g>
   <g id="patch_58">
    <path d="M 823.013778 828.779375 
L 835.137503 828.779375 
L 835.137503 817.238361 
L 823.013778 817.238361 
z
" clip-path="url(#p2c13677721)" style="fill: #1f77b4; opacity: 0.6"/>
   </g>
   <g id="patch_59">
    <path d="M 835.137503 828.779375 
L 847.261227 828.779375 
L 847.261227 819.482447 
L 835.137503 819.482447 
z
" clip-path="url(#p2c13677721)" style="fill: #1f77b4; opacity: 0.6"/>
   </g>
   <g id="patch_60">
    <path d="M 847.261227 828.779375 
L 859.384952 828.779375 
L 859.384952 822.047117 
L 847.261227 822.047117 
z
" clip-path="url(#p2c13677721)" style="fill: #1f77b4; opacity: 0.6"/>
   </g>
   <g id="patch_61">
    <path d="M 859.384952 828.779375 
L 871.508676 828.779375 
L 871.508676 819.80303 
L 859.384952 819.80303 
z
" clip-path="url(#p2c13677721)" style="fill: #1f77b4; opacity: 0.6"/>
   </g>
   <g id="patch_62">
    <path d="M 871.508676 828.779375 
L 883.632401 828.779375 
L 883.632401 822.3677 
L 871.508676 822.3677 
z
" clip-path="url(#p2c13677721)" style="fill: #1f77b4; opacity: 0.6"/>
   </g>
   <g id="patch_63">
    <path d="M 883.632401 828.779375 
L 895.756125 828.779375 
L 895.756125 823.329452 
L 883.632401 823.329452 
z
" clip-path="url(#p2c13677721)" style="fill: #1f77b4; opacity: 0.6"/>
   </g>
   <g id="patch_64">
    <path d="M 895.756125 828.779375 
L 907.879849 828.779375 
L 907.879849 823.970619 
L 895.756125 823.970619 
z
" clip-path="url(#p2c13677721)" style="fill: #1f77b4; opacity: 0.6"/>
   </g>
   <g id="patch_65">
    <path d="M 907.879849 828.779375 
L 920.003574 828.779375 
L 920.003574 825.894121 
L 907.879849 825.894121 
z
" clip-path="url(#p2c13677721)" style="fill: #1f77b4; opacity: 0.6"/>
   </g>
   <g id="patch_66">
    <path d="M 920.003574 828.779375 
L 932.127298 828.779375 
L 932.127298 825.252954 
L 920.003574 825.252954 
z
" clip-path="url(#p2c13677721)" style="fill: #1f77b4; opacity: 0.6"/>
   </g>
   <g id="patch_67">
    <path d="M 932.127298 828.779375 
L 944.251023 828.779375 
L 944.251023 825.252954 
L 932.127298 825.252954 
z
" clip-path="url(#p2c13677721)" style="fill: #1f77b4; opacity: 0.6"/>
   </g>
   <g id="patch_68">
    <path d="M 944.251023 828.779375 
L 956.374747 828.779375 
L 956.374747 825.573538 
L 944.251023 825.573538 
z
" clip-path="url(#p2c13677721)" style="fill: #1f77b4; opacity: 0.6"/>
   </g>
   <g id="patch_69">
    <path d="M 956.374747 828.779375 
L 968.498472 828.779375 
L 968.498472 826.855873 
L 956.374747 826.855873 
z
" clip-path="url(#p2c13677721)" style="fill: #1f77b4; opacity: 0.6"/>
   </g>
   <g id="patch_70">
    <path d="M 968.498472 828.779375 
L 980.622196 828.779375 
L 980.622196 824.291203 
L 968.498472 824.291203 
z
" clip-path="url(#p2c13677721)" style="fill: #1f77b4; opacity: 0.6"/>
   </g>
   <g id="patch_71">
    <path d="M 980.622196 828.779375 
L 992.74592 828.779375 
L 992.74592 826.855873 
L 980.622196 826.855873 
z
" clip-path="url(#p2c13677721)" style="fill: #1f77b4; opacity: 0.6"/>
   </g>
   <g id="patch_72">
    <path d="M 992.74592 828.779375 
L 1004.869645 828.779375 
L 1004.869645 827.176456 
L 992.74592 827.176456 
z
" clip-path="url(#p2c13677721)" style="fill: #1f77b4; opacity: 0.6"/>
   </g>
   <g id="patch_73">
    <path d="M 1004.869645 828.779375 
L 1016.993369 828.779375 
L 1016.993369 827.817624 
L 1004.869645 827.817624 
z
" clip-path="url(#p2c13677721)" style="fill: #1f77b4; opacity: 0.6"/>
   </g>
   <g id="patch_74">
    <path d="M 1016.993369 828.779375 
L 1029.117094 828.779375 
L 1029.117094 827.176456 
L 1016.993369 827.176456 
z
" clip-path="url(#p2c13677721)" style="fill: #1f77b4; opacity: 0.6"/>
   </g>
   <g id="patch_75">
    <path d="M 1029.117094 828.779375 
L 1041.240818 828.779375 
L 1041.240818 826.535289 
L 1029.117094 826.535289 
z
" clip-path="url(#p2c13677721)" style="fill: #1f77b4; opacity: 0.6"/>
   </g>
   <g id="patch_76">
    <path d="M 1041.240818 828.779375 
L 1053.364543 828.779375 
L 1053.364543 827.49704 
L 1041.240818 827.49704 
z
" clip-path="url(#p2c13677721)" style="fill: #1f77b4; opacity: 0.6"/>
   </g>
   <g id="patch_77">
    <path d="M 1053.364543 828.779375 
L 1065.488267 828.779375 
L 1065.488267 828.138208 
L 1053.364543 828.138208 
z
" clip-path="url(#p2c13677721)" style="fill: #1f77b4; opacity: 0.6"/>
   </g>
   <g id="patch_78">
    <path d="M 1065.488267 828.779375 
L 1077.611991 828.779375 
L 1077.611991 827.817624 
L 1065.488267 827.817624 
z
" clip-path="url(#p2c13677721)" style="fill: #1f77b4; opacity: 0.6"/>
   </g>
   <g id="patch_79">
    <path d="M 1077.611991 828.779375 
L 1089.735716 828.779375 
L 1089.735716 827.817624 
L 1077.611991 827.817624 
z
" clip-path="url(#p2c13677721)" style="fill: #1f77b4; opacity: 0.6"/>
   </g>
   <g id="patch_80">
    <path d="M 1089.735716 828.779375 
L 1101.85944 828.779375 
L 1101.85944 828.458791 
L 1089.735716 828.458791 
z
" clip-path="url(#p2c13677721)" style="fill: #1f77b4; opacity: 0.6"/>
   </g>
   <g id="patch_81">
    <path d="M 1101.85944 828.779375 
L 1113.983165 828.779375 
L 1113.983165 828.138208 
L 1101.85944 828.138208 
z
" clip-path="url(#p2c13677721)" style="fill: #1f77b4; opacity: 0.6"/>
   </g>
   <g id="patch_82">
    <path d="M 1113.983165 828.779375 
L 1126.106889 828.779375 
L 1126.106889 828.138208 
L 1113.983165 828.138208 
z
" clip-path="url(#p2c13677721)" style="fill: #1f77b4; opacity: 0.6"/>
   </g>
   <g id="patch_83">
    <path d="M 1126.106889 828.779375 
L 1138.230614 828.779375 
L 1138.230614 828.138208 
L 1126.106889 828.138208 
z
" clip-path="url(#p2c13677721)" style="fill: #1f77b4; opacity: 0.6"/>
   </g>
   <g id="patch_84">
    <path d="M 1138.230614 828.779375 
L 1150.354338 828.779375 
L 1150.354338 827.817624 
L 1138.230614 827.817624 
z
" clip-path="url(#p2c13677721)" style="fill: #1f77b4; opacity: 0.6"/>
   </g>
   <g id="patch_85">
    <path d="M 1150.354338 828.779375 
L 1162.478063 828.779375 
L 1162.478063 828.779375 
L 1150.354338 828.779375 
z
" clip-path="url(#p2c13677721)" style="fill: #1f77b4; opacity: 0.6"/>
   </g>
   <g id="patch_86">
    <path d="M 1162.478063 828.779375 
L 1174.601787 828.779375 
L 1174.601787 827.817624 
L 1162.478063 827.817624 
z
" clip-path="url(#p2c13677721)" style="fill: #1f77b4; opacity: 0.6"/>
   </g>
   <g id="patch_87">
    <path d="M 1174.601787 828.779375 
L 1186.725511 828.779375 
L 1186.725511 828.138208 
L 1174.601787 828.138208 
z
" clip-path="url(#p2c13677721)" style="fill: #1f77b4; opacity: 0.6"/>
   </g>
   <g id="patch_88">
    <path d="M 1186.725511 828.779375 
L 1198.849236 828.779375 
L 1198.849236 828.138208 
L 1186.725511 828.138208 
z
" clip-path="url(#p2c13677721)" style="fill: #1f77b4; opacity: 0.6"/>
   </g>
   <g id="patch_89">
    <path d="M 1198.849236 828.779375 
L 1210.97296 828.779375 
L 1210.97296 828.458791 
L 1198.849236 828.458791 
z
" clip-path="url(#p2c13677721)" style="fill: #1f77b4; opacity: 0.6"/>
   </g>
   <g id="patch_90">
    <path d="M 1210.97296 828.779375 
L 1223.096685 828.779375 
L 1223.096685 828.779375 
L 1210.97296 828.779375 
z
" clip-path="url(#p2c13677721)" style="fill: #1f77b4; opacity: 0.6"/>
   </g>
   <g id="patch_91">
    <path d="M 1223.096685 828.779375 
L 1235.220409 828.779375 
L 1235.220409 827.817624 
L 1223.096685 827.817624 
z
" clip-path="url(#p2c13677721)" style="fill: #1f77b4; opacity: 0.6"/>
   </g>
   <g id="patch_92">
    <path d="M 1235.220409 828.779375 
L 1247.344134 828.779375 
L 1247.344134 827.817624 
L 1235.220409 827.817624 
z
" clip-path="url(#p2c13677721)" style="fill: #1f77b4; opacity: 0.6"/>
   </g>
   <g id="patch_93">
    <path d="M 1247.344134 828.779375 
L 1259.467858 828.779375 
L 1259.467858 828.779375 
L 1247.344134 828.779375 
z
" clip-path="url(#p2c13677721)" style="fill: #1f77b4; opacity: 0.6"/>
   </g>
   <g id="patch_94">
    <path d="M 1259.467858 828.779375 
L 1271.591582 828.779375 
L 1271.591582 828.779375 
L 1259.467858 828.779375 
z
" clip-path="url(#p2c13677721)" style="fill: #1f77b4; opacity: 0.6"/>
   </g>
   <g id="patch_95">
    <path d="M 1271.591582 828.779375 
L 1283.715307 828.779375 
L 1283.715307 828.458791 
L 1271.591582 828.458791 
z
" clip-path="url(#p2c13677721)" style="fill: #1f77b4; opacity: 0.6"/>
   </g>
   <g id="patch_96">
    <path d="M 1283.715307 828.779375 
L 1295.839031 828.779375 
L 1295.839031 828.779375 
L 1283.715307 828.779375 
z
" clip-path="url(#p2c13677721)" style="fill: #1f77b4; opacity: 0.6"/>
   </g>
   <g id="patch_97">
    <path d="M 1295.839031 828.779375 
L 1307.962756 828.779375 
L 1307.962756 828.458791 
L 1295.839031 828.458791 
z
" clip-path="url(#p2c13677721)" style="fill: #1f77b4; opacity: 0.6"/>
   </g>
   <g id="patch_98">
    <path d="M 1307.962756 828.779375 
L 1320.08648 828.779375 
L 1320.08648 828.779375 
L 1307.962756 828.779375 
z
" clip-path="url(#p2c13677721)" style="fill: #1f77b4; opacity: 0.6"/>
   </g>
   <g id="patch_99">
    <path d="M 1320.08648 828.779375 
L 1332.210205 828.779375 
L 1332.210205 828.458791 
L 1320.08648 828.458791 
z
" clip-path="url(#p2c13677721)" style="fill: #1f77b4; opacity: 0.6"/>
   </g>
   <g id="patch_100">
    <path d="M 1332.210205 828.779375 
L 1344.333929 828.779375 
L 1344.333929 828.779375 
L 1332.210205 828.779375 
z
" clip-path="url(#p2c13677721)" style="fill: #1f77b4; opacity: 0.6"/>
   </g>
   <g id="patch_101">
    <path d="M 1344.333929 828.779375 
L 1356.457653 828.779375 
L 1356.457653 828.779375 
L 1344.333929 828.779375 
z
" clip-path="url(#p2c13677721)" style="fill: #1f77b4; opacity: 0.6"/>
   </g>
   <g id="patch_102">
    <path d="M 1356.457653 828.779375 
L 1368.581378 828.779375 
L 1368.581378 828.458791 
L 1356.457653 828.458791 
z
" clip-path="url(#p2c13677721)" style="fill: #1f77b4; opacity: 0.6"/>
   </g>
   <g id="matplotlib.axis_1">
    <g id="xtick_1">
     <g id="line2d_1">
      <defs>
       <path id="mb133bda744" d="M 0 0 
L 0 3.5 
" style="stroke: #000000; stroke-width: 0.8"/>
      </defs>
      <g>
       <use xlink:href="#mb133bda744" x="155.59552" y="828.779375" style="stroke: #000000; stroke-width: 0.8"/>
      </g>
     </g>
     <g id="text_1">
      <!-- 0 -->
      <g transform="translate(149.86927 849.456562) scale(0.18 -0.18)">
       <defs>
        <path id="DejaVuSans-30" d="M 2034 4250 
Q 1547 4250 1301 3770 
Q 1056 3291 1056 2328 
Q 1056 1369 1301 889 
Q 1547 409 2034 409 
Q 2525 409 2770 889 
Q 3016 1369 3016 2328 
Q 3016 3291 2770 3770 
Q 2525 4250 2034 4250 
z
M 2034 4750 
Q 2819 4750 3233 4129 
Q 3647 3509 3647 2328 
Q 3647 1150 3233 529 
Q 2819 -91 2034 -91 
Q 1250 -91 836 529 
Q 422 1150 422 2328 
Q 422 3509 836 4129 
Q 1250 4750 2034 4750 
z
" transform="scale(0.015625)"/>
       </defs>
       <use xlink:href="#DejaVuSans-30"/>
      </g>
     </g>
    </g>
    <g id="xtick_2">
     <g id="line2d_2">
      <g>
       <use xlink:href="#mb133bda744" x="390.366002" y="828.779375" style="stroke: #000000; stroke-width: 0.8"/>
      </g>
     </g>
     <g id="text_2">
      <!-- 5 -->
      <g transform="translate(384.639752 849.456562) scale(0.18 -0.18)">
       <defs>
        <path id="DejaVuSans-35" d="M 691 4666 
L 3169 4666 
L 3169 4134 
L 1269 4134 
L 1269 2991 
Q 1406 3038 1543 3061 
Q 1681 3084 1819 3084 
Q 2600 3084 3056 2656 
Q 3513 2228 3513 1497 
Q 3513 744 3044 326 
Q 2575 -91 1722 -91 
Q 1428 -91 1123 -41 
Q 819 9 494 109 
L 494 744 
Q 775 591 1075 516 
Q 1375 441 1709 441 
Q 2250 441 2565 725 
Q 2881 1009 2881 1497 
Q 2881 1984 2565 2268 
Q 2250 2553 1709 2553 
Q 1456 2553 1204 2497 
Q 953 2441 691 2322 
L 691 4666 
z
" transform="scale(0.015625)"/>
       </defs>
       <use xlink:href="#DejaVuSans-35"/>
      </g>
     </g>
    </g>
    <g id="xtick_3">
     <g id="line2d_3">
      <g>
       <use xlink:href="#mb133bda744" x="625.136485" y="828.779375" style="stroke: #000000; stroke-width: 0.8"/>
      </g>
     </g>
     <g id="text_3">
      <!-- 10 -->
      <g transform="translate(613.683985 849.456562) scale(0.18 -0.18)">
       <defs>
        <path id="DejaVuSans-31" d="M 794 531 
L 1825 531 
L 1825 4091 
L 703 3866 
L 703 4441 
L 1819 4666 
L 2450 4666 
L 2450 531 
L 3481 531 
L 3481 0 
L 794 0 
L 794 531 
z
" transform="scale(0.015625)"/>
       </defs>
       <use xlink:href="#DejaVuSans-31"/>
       <use xlink:href="#DejaVuSans-30" transform="translate(63.623047 0)"/>
      </g>
     </g>
    </g>
    <g id="xtick_4">
     <g id="line2d_4">
      <g>
       <use xlink:href="#mb133bda744" x="859.906967" y="828.779375" style="stroke: #000000; stroke-width: 0.8"/>
      </g>
     </g>
     <g id="text_4">
      <!-- 15 -->
      <g transform="translate(848.454467 849.456562) scale(0.18 -0.18)">
       <use xlink:href="#DejaVuSans-31"/>
       <use xlink:href="#DejaVuSans-35" transform="translate(63.623047 0)"/>
      </g>
     </g>
    </g>
    <g id="xtick_5">
     <g id="line2d_5">
      <g>
       <use xlink:href="#mb133bda744" x="1094.677449" y="828.779375" style="stroke: #000000; stroke-width: 0.8"/>
      </g>
     </g>
     <g id="text_5">
      <!-- 20 -->
      <g transform="translate(1083.224949 849.456562) scale(0.18 -0.18)">
       <defs>
        <path id="DejaVuSans-32" d="M 1228 531 
L 3431 531 
L 3431 0 
L 469 0 
L 469 531 
Q 828 903 1448 1529 
Q 2069 2156 2228 2338 
Q 2531 2678 2651 2914 
Q 2772 3150 2772 3378 
Q 2772 3750 2511 3984 
Q 2250 4219 1831 4219 
Q 1534 4219 1204 4116 
Q 875 4013 500 3803 
L 500 4441 
Q 881 4594 1212 4672 
Q 1544 4750 1819 4750 
Q 2544 4750 2975 4387 
Q 3406 4025 3406 3419 
Q 3406 3131 3298 2873 
Q 3191 2616 2906 2266 
Q 2828 2175 2409 1742 
Q 1991 1309 1228 531 
z
" transform="scale(0.015625)"/>
       </defs>
       <use xlink:href="#DejaVuSans-32"/>
       <use xlink:href="#DejaVuSans-30" transform="translate(63.623047 0)"/>
      </g>
     </g>
    </g>
    <g id="xtick_6">
     <g id="line2d_6">
      <g>
       <use xlink:href="#mb133bda744" x="1329.447931" y="828.779375" style="stroke: #000000; stroke-width: 0.8"/>
      </g>
     </g>
     <g id="text_6">
      <!-- 25 -->
      <g transform="translate(1317.995431 849.456562) scale(0.18 -0.18)">
       <use xlink:href="#DejaVuSans-32"/>
       <use xlink:href="#DejaVuSans-35" transform="translate(63.623047 0)"/>
      </g>
     </g>
    </g>
   </g>
   <g id="matplotlib.axis_2">
    <g id="ytick_1">
     <g id="line2d_7">
      <defs>
       <path id="m4c09f5a72e" d="M 0 0 
L -3.5 0 
" style="stroke: #000000; stroke-width: 0.8"/>
      </defs>
      <g>
       <use xlink:href="#m4c09f5a72e" x="95.590313" y="828.779375" style="stroke: #000000; stroke-width: 0.8"/>
      </g>
     </g>
     <g id="text_7">
      <!-- 0.000 -->
      <g transform="translate(37.059688 835.617969) scale(0.18 -0.18)">
       <defs>
        <path id="DejaVuSans-2e" d="M 684 794 
L 1344 794 
L 1344 0 
L 684 0 
L 684 794 
z
" transform="scale(0.015625)"/>
       </defs>
       <use xlink:href="#DejaVuSans-30"/>
       <use xlink:href="#DejaVuSans-2e" transform="translate(63.623047 0)"/>
       <use xlink:href="#DejaVuSans-30" transform="translate(95.410156 0)"/>
       <use xlink:href="#DejaVuSans-30" transform="translate(159.033203 0)"/>
       <use xlink:href="#DejaVuSans-30" transform="translate(222.65625 0)"/>
      </g>
     </g>
    </g>
    <g id="ytick_2">
     <g id="line2d_8">
      <g>
       <use xlink:href="#m4c09f5a72e" x="95.590313" y="725.309467" style="stroke: #000000; stroke-width: 0.8"/>
      </g>
     </g>
     <g id="text_8">
      <!-- 0.025 -->
      <g transform="translate(37.059688 732.14806) scale(0.18 -0.18)">
       <use xlink:href="#DejaVuSans-30"/>
       <use xlink:href="#DejaVuSans-2e" transform="translate(63.623047 0)"/>
       <use xlink:href="#DejaVuSans-30" transform="translate(95.410156 0)"/>
       <use xlink:href="#DejaVuSans-32" transform="translate(159.033203 0)"/>
       <use xlink:href="#DejaVuSans-35" transform="translate(222.65625 0)"/>
      </g>
     </g>
    </g>
    <g id="ytick_3">
     <g id="line2d_9">
      <g>
       <use xlink:href="#m4c09f5a72e" x="95.590313" y="621.839558" style="stroke: #000000; stroke-width: 0.8"/>
      </g>
     </g>
     <g id="text_9">
      <!-- 0.050 -->
      <g transform="translate(37.059688 628.678152) scale(0.18 -0.18)">
       <use xlink:href="#DejaVuSans-30"/>
       <use xlink:href="#DejaVuSans-2e" transform="translate(63.623047 0)"/>
       <use xlink:href="#DejaVuSans-30" transform="translate(95.410156 0)"/>
       <use xlink:href="#DejaVuSans-35" transform="translate(159.033203 0)"/>
       <use xlink:href="#DejaVuSans-30" transform="translate(222.65625 0)"/>
      </g>
     </g>
    </g>
    <g id="ytick_4">
     <g id="line2d_10">
      <g>
       <use xlink:href="#m4c09f5a72e" x="95.590313" y="518.36965" style="stroke: #000000; stroke-width: 0.8"/>
      </g>
     </g>
     <g id="text_10">
      <!-- 0.075 -->
      <g transform="translate(37.059688 525.208243) scale(0.18 -0.18)">
       <defs>
        <path id="DejaVuSans-37" d="M 525 4666 
L 3525 4666 
L 3525 4397 
L 1831 0 
L 1172 0 
L 2766 4134 
L 525 4134 
L 525 4666 
z
" transform="scale(0.015625)"/>
       </defs>
       <use xlink:href="#DejaVuSans-30"/>
       <use xlink:href="#DejaVuSans-2e" transform="translate(63.623047 0)"/>
       <use xlink:href="#DejaVuSans-30" transform="translate(95.410156 0)"/>
       <use xlink:href="#DejaVuSans-37" transform="translate(159.033203 0)"/>
       <use xlink:href="#DejaVuSans-35" transform="translate(222.65625 0)"/>
      </g>
     </g>
    </g>
    <g id="ytick_5">
     <g id="line2d_11">
      <g>
       <use xlink:href="#m4c09f5a72e" x="95.590313" y="414.899741" style="stroke: #000000; stroke-width: 0.8"/>
      </g>
     </g>
     <g id="text_11">
      <!-- 0.100 -->
      <g transform="translate(37.059688 421.738335) scale(0.18 -0.18)">
       <use xlink:href="#DejaVuSans-30"/>
       <use xlink:href="#DejaVuSans-2e" transform="translate(63.623047 0)"/>
       <use xlink:href="#DejaVuSans-31" transform="translate(95.410156 0)"/>
       <use xlink:href="#DejaVuSans-30" transform="translate(159.033203 0)"/>
       <use xlink:href="#DejaVuSans-30" transform="translate(222.65625 0)"/>
      </g>
     </g>
    </g>
    <g id="ytick_6">
     <g id="line2d_12">
      <g>
       <use xlink:href="#m4c09f5a72e" x="95.590313" y="311.429833" style="stroke: #000000; stroke-width: 0.8"/>
      </g>
     </g>
     <g id="text_12">
      <!-- 0.125 -->
      <g transform="translate(37.059688 318.268427) scale(0.18 -0.18)">
       <use xlink:href="#DejaVuSans-30"/>
       <use xlink:href="#DejaVuSans-2e" transform="translate(63.623047 0)"/>
       <use xlink:href="#DejaVuSans-31" transform="translate(95.410156 0)"/>
       <use xlink:href="#DejaVuSans-32" transform="translate(159.033203 0)"/>
       <use xlink:href="#DejaVuSans-35" transform="translate(222.65625 0)"/>
      </g>
     </g>
    </g>
    <g id="ytick_7">
     <g id="line2d_13">
      <g>
       <use xlink:href="#m4c09f5a72e" x="95.590313" y="207.959924" style="stroke: #000000; stroke-width: 0.8"/>
      </g>
     </g>
     <g id="text_13">
      <!-- 0.150 -->
      <g transform="translate(37.059688 214.798518) scale(0.18 -0.18)">
       <use xlink:href="#DejaVuSans-30"/>
       <use xlink:href="#DejaVuSans-2e" transform="translate(63.623047 0)"/>
       <use xlink:href="#DejaVuSans-31" transform="translate(95.410156 0)"/>
       <use xlink:href="#DejaVuSans-35" transform="translate(159.033203 0)"/>
       <use xlink:href="#DejaVuSans-30" transform="translate(222.65625 0)"/>
      </g>
     </g>
    </g>
    <g id="ytick_8">
     <g id="line2d_14">
      <g>
       <use xlink:href="#m4c09f5a72e" x="95.590313" y="104.490016" style="stroke: #000000; stroke-width: 0.8"/>
      </g>
     </g>
     <g id="text_14">
      <!-- 0.175 -->
      <g transform="translate(37.059688 111.32861) scale(0.18 -0.18)">
       <use xlink:href="#DejaVuSans-30"/>
       <use xlink:href="#DejaVuSans-2e" transform="translate(63.623047 0)"/>
       <use xlink:href="#DejaVuSans-31" transform="translate(95.410156 0)"/>
       <use xlink:href="#DejaVuSans-37" transform="translate(159.033203 0)"/>
       <use xlink:href="#DejaVuSans-35" transform="translate(222.65625 0)"/>
      </g>
     </g>
    </g>
    <g id="text_15">
     <!-- Normed Hist Counts -->
     <g transform="translate(28.276406 548.966563) rotate(-90) scale(0.23 -0.23)">
      <defs>
       <path id="DejaVuSans-4e" d="M 628 4666 
L 1478 4666 
L 3547 763 
L 3547 4666 
L 4159 4666 
L 4159 0 
L 3309 0 
L 1241 3903 
L 1241 0 
L 628 0 
L 628 4666 
z
" transform="scale(0.015625)"/>
       <path id="DejaVuSans-6f" d="M 1959 3097 
Q 1497 3097 1228 2736 
Q 959 2375 959 1747 
Q 959 1119 1226 758 
Q 1494 397 1959 397 
Q 2419 397 2687 759 
Q 2956 1122 2956 1747 
Q 2956 2369 2687 2733 
Q 2419 3097 1959 3097 
z
M 1959 3584 
Q 2709 3584 3137 3096 
Q 3566 2609 3566 1747 
Q 3566 888 3137 398 
Q 2709 -91 1959 -91 
Q 1206 -91 779 398 
Q 353 888 353 1747 
Q 353 2609 779 3096 
Q 1206 3584 1959 3584 
z
" transform="scale(0.015625)"/>
       <path id="DejaVuSans-72" d="M 2631 2963 
Q 2534 3019 2420 3045 
Q 2306 3072 2169 3072 
Q 1681 3072 1420 2755 
Q 1159 2438 1159 1844 
L 1159 0 
L 581 0 
L 581 3500 
L 1159 3500 
L 1159 2956 
Q 1341 3275 1631 3429 
Q 1922 3584 2338 3584 
Q 2397 3584 2469 3576 
Q 2541 3569 2628 3553 
L 2631 2963 
z
" transform="scale(0.015625)"/>
       <path id="DejaVuSans-6d" d="M 3328 2828 
Q 3544 3216 3844 3400 
Q 4144 3584 4550 3584 
Q 5097 3584 5394 3201 
Q 5691 2819 5691 2113 
L 5691 0 
L 5113 0 
L 5113 2094 
Q 5113 2597 4934 2840 
Q 4756 3084 4391 3084 
Q 3944 3084 3684 2787 
Q 3425 2491 3425 1978 
L 3425 0 
L 2847 0 
L 2847 2094 
Q 2847 2600 2669 2842 
Q 2491 3084 2119 3084 
Q 1678 3084 1418 2786 
Q 1159 2488 1159 1978 
L 1159 0 
L 581 0 
L 581 3500 
L 1159 3500 
L 1159 2956 
Q 1356 3278 1631 3431 
Q 1906 3584 2284 3584 
Q 2666 3584 2933 3390 
Q 3200 3197 3328 2828 
z
" transform="scale(0.015625)"/>
       <path id="DejaVuSans-65" d="M 3597 1894 
L 3597 1613 
L 953 1613 
Q 991 1019 1311 708 
Q 1631 397 2203 397 
Q 2534 397 2845 478 
Q 3156 559 3463 722 
L 3463 178 
Q 3153 47 2828 -22 
Q 2503 -91 2169 -91 
Q 1331 -91 842 396 
Q 353 884 353 1716 
Q 353 2575 817 3079 
Q 1281 3584 2069 3584 
Q 2775 3584 3186 3129 
Q 3597 2675 3597 1894 
z
M 3022 2063 
Q 3016 2534 2758 2815 
Q 2500 3097 2075 3097 
Q 1594 3097 1305 2825 
Q 1016 2553 972 2059 
L 3022 2063 
z
" transform="scale(0.015625)"/>
       <path id="DejaVuSans-64" d="M 2906 2969 
L 2906 4863 
L 3481 4863 
L 3481 0 
L 2906 0 
L 2906 525 
Q 2725 213 2448 61 
Q 2172 -91 1784 -91 
Q 1150 -91 751 415 
Q 353 922 353 1747 
Q 353 2572 751 3078 
Q 1150 3584 1784 3584 
Q 2172 3584 2448 3432 
Q 2725 3281 2906 2969 
z
M 947 1747 
Q 947 1113 1208 752 
Q 1469 391 1925 391 
Q 2381 391 2643 752 
Q 2906 1113 2906 1747 
Q 2906 2381 2643 2742 
Q 2381 3103 1925 3103 
Q 1469 3103 1208 2742 
Q 947 2381 947 1747 
z
" transform="scale(0.015625)"/>
       <path id="DejaVuSans-20" transform="scale(0.015625)"/>
       <path id="DejaVuSans-48" d="M 628 4666 
L 1259 4666 
L 1259 2753 
L 3553 2753 
L 3553 4666 
L 4184 4666 
L 4184 0 
L 3553 0 
L 3553 2222 
L 1259 2222 
L 1259 0 
L 628 0 
L 628 4666 
z
" transform="scale(0.015625)"/>
       <path id="DejaVuSans-69" d="M 603 3500 
L 1178 3500 
L 1178 0 
L 603 0 
L 603 3500 
z
M 603 4863 
L 1178 4863 
L 1178 4134 
L 603 4134 
L 603 4863 
z
" transform="scale(0.015625)"/>
       <path id="DejaVuSans-73" d="M 2834 3397 
L 2834 2853 
Q 2591 2978 2328 3040 
Q 2066 3103 1784 3103 
Q 1356 3103 1142 2972 
Q 928 2841 928 2578 
Q 928 2378 1081 2264 
Q 1234 2150 1697 2047 
L 1894 2003 
Q 2506 1872 2764 1633 
Q 3022 1394 3022 966 
Q 3022 478 2636 193 
Q 2250 -91 1575 -91 
Q 1294 -91 989 -36 
Q 684 19 347 128 
L 347 722 
Q 666 556 975 473 
Q 1284 391 1588 391 
Q 1994 391 2212 530 
Q 2431 669 2431 922 
Q 2431 1156 2273 1281 
Q 2116 1406 1581 1522 
L 1381 1569 
Q 847 1681 609 1914 
Q 372 2147 372 2553 
Q 372 3047 722 3315 
Q 1072 3584 1716 3584 
Q 2034 3584 2315 3537 
Q 2597 3491 2834 3397 
z
" transform="scale(0.015625)"/>
       <path id="DejaVuSans-74" d="M 1172 4494 
L 1172 3500 
L 2356 3500 
L 2356 3053 
L 1172 3053 
L 1172 1153 
Q 1172 725 1289 603 
Q 1406 481 1766 481 
L 2356 481 
L 2356 0 
L 1766 0 
Q 1100 0 847 248 
Q 594 497 594 1153 
L 594 3053 
L 172 3053 
L 172 3500 
L 594 3500 
L 594 4494 
L 1172 4494 
z
" transform="scale(0.015625)"/>
       <path id="DejaVuSans-43" d="M 4122 4306 
L 4122 3641 
Q 3803 3938 3442 4084 
Q 3081 4231 2675 4231 
Q 1875 4231 1450 3742 
Q 1025 3253 1025 2328 
Q 1025 1406 1450 917 
Q 1875 428 2675 428 
Q 3081 428 3442 575 
Q 3803 722 4122 1019 
L 4122 359 
Q 3791 134 3420 21 
Q 3050 -91 2638 -91 
Q 1578 -91 968 557 
Q 359 1206 359 2328 
Q 359 3453 968 4101 
Q 1578 4750 2638 4750 
Q 3056 4750 3426 4639 
Q 3797 4528 4122 4306 
z
" transform="scale(0.015625)"/>
       <path id="DejaVuSans-75" d="M 544 1381 
L 544 3500 
L 1119 3500 
L 1119 1403 
Q 1119 906 1312 657 
Q 1506 409 1894 409 
Q 2359 409 2629 706 
Q 2900 1003 2900 1516 
L 2900 3500 
L 3475 3500 
L 3475 0 
L 2900 0 
L 2900 538 
Q 2691 219 2414 64 
Q 2138 -91 1772 -91 
Q 1169 -91 856 284 
Q 544 659 544 1381 
z
M 1991 3584 
L 1991 3584 
z
" transform="scale(0.015625)"/>
       <path id="DejaVuSans-6e" d="M 3513 2113 
L 3513 0 
L 2938 0 
L 2938 2094 
Q 2938 2591 2744 2837 
Q 2550 3084 2163 3084 
Q 1697 3084 1428 2787 
Q 1159 2491 1159 1978 
L 1159 0 
L 581 0 
L 581 3500 
L 1159 3500 
L 1159 2956 
Q 1366 3272 1645 3428 
Q 1925 3584 2291 3584 
Q 2894 3584 3203 3211 
Q 3513 2838 3513 2113 
z
" transform="scale(0.015625)"/>
      </defs>
      <use xlink:href="#DejaVuSans-4e"/>
      <use xlink:href="#DejaVuSans-6f" transform="translate(74.804688 0)"/>
      <use xlink:href="#DejaVuSans-72" transform="translate(135.986328 0)"/>
      <use xlink:href="#DejaVuSans-6d" transform="translate(175.349609 0)"/>
      <use xlink:href="#DejaVuSans-65" transform="translate(272.761719 0)"/>
      <use xlink:href="#DejaVuSans-64" transform="translate(334.285156 0)"/>
      <use xlink:href="#DejaVuSans-20" transform="translate(397.761719 0)"/>
      <use xlink:href="#DejaVuSans-48" transform="translate(429.548828 0)"/>
      <use xlink:href="#DejaVuSans-69" transform="translate(504.744141 0)"/>
      <use xlink:href="#DejaVuSans-73" transform="translate(532.527344 0)"/>
      <use xlink:href="#DejaVuSans-74" transform="translate(584.626953 0)"/>
      <use xlink:href="#DejaVuSans-20" transform="translate(623.835938 0)"/>
      <use xlink:href="#DejaVuSans-43" transform="translate(655.623047 0)"/>
      <use xlink:href="#DejaVuSans-6f" transform="translate(725.447266 0)"/>
      <use xlink:href="#DejaVuSans-75" transform="translate(786.628906 0)"/>
      <use xlink:href="#DejaVuSans-6e" transform="translate(850.007812 0)"/>
      <use xlink:href="#DejaVuSans-74" transform="translate(913.386719 0)"/>
      <use xlink:href="#DejaVuSans-73" transform="translate(952.595703 0)"/>
     </g>
    </g>
   </g>
   <g id="line2d_15">
    <path d="M 159.239866 561.381739 
L 165.301728 464.319338 
L 171.36359 408.429418 
L 177.425452 367.702504 
L 183.487315 335.505337 
L 189.549177 309.029824 
L 195.611039 286.800862 
L 201.672901 267.939424 
L 207.734763 251.875309 
L 213.796626 238.214824 
L 219.858488 226.672455 
L 225.92035 217.032521 
L 231.982212 209.126248 
L 238.044075 202.817342 
L 244.105937 197.992557 
L 250.167799 194.555306 
L 256.229661 192.421232 
L 262.291523 191.515057 
L 268.353386 191.76831 
L 274.415248 193.117666 
L 280.47711 195.503716 
L 286.538972 198.870053 
L 292.600835 203.162592 
L 298.662697 208.329064 
L 304.724559 214.318644 
L 310.786421 221.081679 
L 316.848283 228.569496 
L 322.910146 236.734277 
L 328.972008 245.528968 
L 335.03387 254.907244 
L 341.095732 264.823489 
L 347.157594 275.232805 
L 353.219457 286.091043 
L 359.281319 297.354837 
L 365.343181 308.981657 
L 371.405043 320.929864 
L 383.528768 345.628715 
L 395.652492 371.138483 
L 413.838079 410.284582 
L 438.085528 462.74148 
L 450.209252 488.559771 
L 462.332977 513.839117 
L 474.456701 538.411326 
L 486.580425 562.132988 
L 492.642288 573.636732 
L 498.70415 584.885065 
L 504.766012 595.866789 
L 510.827874 606.572114 
L 516.889737 616.992623 
L 522.951599 627.12122 
L 529.013461 636.952089 
L 535.075323 646.480642 
L 541.137185 655.703464 
L 547.199048 664.618261 
L 553.26091 673.223799 
L 559.322772 681.519849 
L 565.384634 689.507126 
L 571.446496 697.187227 
L 577.508359 704.562574 
L 583.570221 711.636352 
L 589.632083 718.412447 
L 595.693945 724.895388 
L 601.755808 731.090288 
L 607.81767 737.002786 
L 613.879532 742.638992 
L 619.941394 748.005431 
L 626.003256 753.10899 
L 632.065119 757.956866 
L 638.126981 762.556521 
L 644.188843 766.915631 
L 650.250705 771.042043 
L 656.312567 774.943735 
L 662.37443 778.628772 
L 668.436292 782.105272 
L 674.498154 785.381371 
L 680.560016 788.46519 
L 686.621879 791.364805 
L 692.683741 794.088221 
L 698.745603 796.643347 
L 704.807465 799.03797 
L 710.869327 801.27974 
L 716.93119 803.37615 
L 722.993052 805.334519 
L 729.054914 807.161977 
L 735.116776 808.86546 
L 747.240501 811.92718 
L 759.364225 814.570842 
L 771.48795 816.843974 
L 783.611674 818.790382 
L 795.735398 820.450139 
L 807.859123 821.859646 
L 819.982847 823.051743 
L 832.106572 824.055865 
L 850.292158 825.266122 
L 868.477745 826.187762 
L 886.663332 826.883319 
L 910.910781 827.545331 
L 935.158229 827.987854 
L 965.46754 828.334272 
L 1007.900576 828.58802 
L 1074.58106 828.732964 
L 1232.189478 828.778321 
L 1365.550447 828.779348 
L 1365.550447 828.779348 
" clip-path="url(#p2c13677721)" style="fill: none; stroke: #ff7f0e; stroke-width: 1.5; stroke-linecap: square"/>
   </g>
   <g id="line2d_16">
    <path d="M 159.239866 757.244109 
L 165.301728 638.836944 
L 171.36359 536.319321 
L 177.425452 447.768324 
L 183.487315 371.685403 
L 189.549177 306.77715 
L 195.611039 251.894731 
L 201.672901 206.005905 
L 207.734763 168.178095 
L 213.796626 137.566402 
L 219.858488 113.404235 
L 225.92035 94.995568 
L 231.982212 81.708304 
L 238.044075 72.968453 
L 244.105937 68.254955 
L 250.167799 67.095035 
L 256.229661 69.059998 
L 262.291523 73.76142 
L 268.353386 80.847671 
L 274.415248 90.000747 
L 280.47711 100.933369 
L 286.538972 113.386334 
L 292.600835 127.126082 
L 298.662697 141.942467 
L 304.724559 157.646719 
L 310.786421 174.069564 
L 316.848283 191.059512 
L 328.972008 226.21432 
L 371.405043 351.471042 
L 383.528768 385.703577 
L 389.59063 402.345704 
L 395.652492 418.636163 
L 401.714354 434.553971 
L 407.776217 450.082146 
L 413.838079 465.207286 
L 419.899941 479.919187 
L 425.961803 494.210495 
L 432.023665 508.076392 
L 438.085528 521.514301 
L 444.14739 534.523631 
L 450.209252 547.105532 
L 456.271114 559.262685 
L 462.332977 570.999103 
L 468.394839 582.319956 
L 474.456701 593.231406 
L 480.518563 603.740469 
L 486.580425 613.854879 
L 492.642288 623.582974 
L 498.70415 632.933589 
L 504.766012 641.915961 
L 510.827874 650.539644 
L 516.889737 658.814435 
L 522.951599 666.750305 
L 529.013461 674.35734 
L 535.075323 681.645686 
L 541.137185 688.625504 
L 547.199048 695.306929 
L 553.26091 701.700029 
L 559.322772 707.814781 
L 565.384634 713.661038 
L 571.446496 719.248505 
L 577.508359 724.586726 
L 583.570221 729.685056 
L 589.632083 734.552656 
L 595.693945 739.198478 
L 601.755808 743.631252 
L 607.81767 747.859484 
L 613.879532 751.891447 
L 619.941394 755.73518 
L 626.003256 759.398478 
L 632.065119 762.888901 
L 638.126981 766.213764 
L 644.188843 769.380144 
L 650.250705 772.394878 
L 656.312567 775.264568 
L 662.37443 777.995582 
L 668.436292 780.594056 
L 674.498154 783.065903 
L 686.621879 787.652254 
L 698.745603 791.797573 
L 710.869327 795.54149 
L 722.993052 798.920494 
L 735.116776 801.968116 
L 747.240501 804.715114 
L 759.364225 807.189647 
L 771.48795 809.417461 
L 783.611674 811.422055 
L 795.735398 813.224851 
L 807.859123 814.845356 
L 819.982847 816.301304 
L 838.168434 818.211516 
L 856.354021 819.835594 
L 874.539607 821.215132 
L 892.725194 822.385937 
L 916.972643 823.674858 
L 941.220092 824.708025 
L 965.46754 825.535141 
L 995.776852 826.339937 
L 1032.148025 827.04969 
L 1074.58106 827.623729 
L 1123.075958 828.052361 
L 1189.756442 828.396519 
L 1280.684376 828.620737 
L 1365.550447 828.710074 
L 1365.550447 828.710074 
" clip-path="url(#p2c13677721)" style="fill: none; stroke: #2ca02c; stroke-width: 1.5; stroke-linecap: square"/>
   </g>
   <g id="line2d_17">
    <path d="M 159.239866 606.308131 
L 165.301728 591.950978 
L 171.36359 577.193978 
L 177.425452 562.075798 
L 189.549177 530.933945 
L 201.672901 498.926649 
L 225.92035 434.249896 
L 238.044075 402.681171 
L 244.105937 387.348745 
L 250.167799 372.419991 
L 256.229661 357.971992 
L 262.291523 344.081292 
L 268.353386 330.823226 
L 274.415248 318.271253 
L 280.47711 306.496277 
L 286.538972 295.565986 
L 292.600835 285.544205 
L 298.662697 276.490275 
L 304.724559 268.458473 
L 310.786421 261.497466 
L 316.848283 255.649822 
L 322.910146 250.951576 
L 328.972008 247.431861 
L 335.03387 245.112607 
L 341.095732 244.008314 
L 347.157594 244.125898 
L 353.219457 245.464621 
L 359.281319 248.016102 
L 365.343181 251.764398 
L 371.405043 256.686173 
L 377.466906 262.750943 
L 383.528768 269.921383 
L 389.59063 278.153718 
L 395.652492 287.398161 
L 401.714354 297.59942 
L 407.776217 308.697244 
L 413.838079 320.627015 
L 419.899941 333.320376 
L 425.961803 346.705881 
L 432.023665 360.709658 
L 438.085528 375.256085 
L 444.14739 390.268463 
L 450.209252 405.669684 
L 462.332977 437.331998 
L 498.70415 533.973016 
L 510.827874 565.009371 
L 516.889737 580.061313 
L 522.951599 594.744272 
L 529.013461 609.020493 
L 535.075323 622.856955 
L 541.137185 636.225356 
L 547.199048 649.102039 
L 553.26091 661.467883 
L 559.322772 673.308156 
L 565.384634 684.612331 
L 571.446496 695.373872 
L 577.508359 705.59 
L 583.570221 715.26143 
L 589.632083 724.392103 
L 595.693945 732.988899 
L 601.755808 741.061344 
L 607.81767 748.621318 
L 613.879532 755.682764 
L 619.941394 762.261393 
L 626.003256 768.374409 
L 632.065119 774.040233 
L 638.126981 779.278248 
L 644.188843 784.108553 
L 650.250705 788.551735 
L 656.312567 792.628656 
L 662.37443 796.360266 
L 668.436292 799.767422 
L 674.498154 802.870735 
L 680.560016 805.690433 
L 686.621879 808.246243 
L 692.683741 810.557287 
L 698.745603 812.642003 
L 704.807465 814.51807 
L 710.869327 816.202363 
L 716.93119 817.710909 
L 722.993052 819.058862 
L 729.054914 820.260492 
L 735.116776 821.329176 
L 747.240501 823.116804 
L 759.364225 824.511355 
L 771.48795 825.58926 
L 783.611674 826.4148 
L 795.735398 827.041306 
L 813.920985 827.701108 
L 832.106572 828.122911 
L 856.354021 828.450416 
L 892.725194 828.66978 
L 953.343816 828.764531 
L 1220.065754 828.779375 
L 1365.550447 828.779375 
L 1365.550447 828.779375 
" clip-path="url(#p2c13677721)" style="fill: none; stroke: #d62728; stroke-width: 1.5; stroke-linecap: square"/>
   </g>
   <g id="patch_103">
    <path d="M 95.590313 828.779375 
L 95.590313 38.075625 
" style="fill: none; stroke: #000000; stroke-width: 0.8; stroke-linejoin: miter; stroke-linecap: square"/>
   </g>
   <g id="patch_104">
    <path d="M 1429.2 828.779375 
L 1429.2 38.075625 
" style="fill: none; stroke: #000000; stroke-width: 0.8; stroke-linejoin: miter; stroke-linecap: square"/>
   </g>
   <g id="patch_105">
    <path d="M 95.590313 828.779375 
L 1429.2 828.779375 
" style="fill: none; stroke: #000000; stroke-width: 0.8; stroke-linejoin: miter; stroke-linecap: square"/>
   </g>
   <g id="patch_106">
    <path d="M 95.590313 38.075625 
L 1429.2 38.075625 
" style="fill: none; stroke: #000000; stroke-width: 0.8; stroke-linejoin: miter; stroke-linecap: square"/>
   </g>
   <g id="text_16">
    <!-- All Fitted Distributions -->
    <g transform="translate(607.769531 32.075625) scale(0.28 -0.28)">
     <defs>
      <path id="DejaVuSans-41" d="M 2188 4044 
L 1331 1722 
L 3047 1722 
L 2188 4044 
z
M 1831 4666 
L 2547 4666 
L 4325 0 
L 3669 0 
L 3244 1197 
L 1141 1197 
L 716 0 
L 50 0 
L 1831 4666 
z
" transform="scale(0.015625)"/>
      <path id="DejaVuSans-6c" d="M 603 4863 
L 1178 4863 
L 1178 0 
L 603 0 
L 603 4863 
z
" transform="scale(0.015625)"/>
      <path id="DejaVuSans-46" d="M 628 4666 
L 3309 4666 
L 3309 4134 
L 1259 4134 
L 1259 2759 
L 3109 2759 
L 3109 2228 
L 1259 2228 
L 1259 0 
L 628 0 
L 628 4666 
z
" transform="scale(0.015625)"/>
      <path id="DejaVuSans-44" d="M 1259 4147 
L 1259 519 
L 2022 519 
Q 2988 519 3436 956 
Q 3884 1394 3884 2338 
Q 3884 3275 3436 3711 
Q 2988 4147 2022 4147 
L 1259 4147 
z
M 628 4666 
L 1925 4666 
Q 3281 4666 3915 4102 
Q 4550 3538 4550 2338 
Q 4550 1131 3912 565 
Q 3275 0 1925 0 
L 628 0 
L 628 4666 
z
" transform="scale(0.015625)"/>
      <path id="DejaVuSans-62" d="M 3116 1747 
Q 3116 2381 2855 2742 
Q 2594 3103 2138 3103 
Q 1681 3103 1420 2742 
Q 1159 2381 1159 1747 
Q 1159 1113 1420 752 
Q 1681 391 2138 391 
Q 2594 391 2855 752 
Q 3116 1113 3116 1747 
z
M 1159 2969 
Q 1341 3281 1617 3432 
Q 1894 3584 2278 3584 
Q 2916 3584 3314 3078 
Q 3713 2572 3713 1747 
Q 3713 922 3314 415 
Q 2916 -91 2278 -91 
Q 1894 -91 1617 61 
Q 1341 213 1159 525 
L 1159 0 
L 581 0 
L 581 4863 
L 1159 4863 
L 1159 2969 
z
" transform="scale(0.015625)"/>
     </defs>
     <use xlink:href="#DejaVuSans-41"/>
     <use xlink:href="#DejaVuSans-6c" transform="translate(68.408203 0)"/>
     <use xlink:href="#DejaVuSans-6c" transform="translate(96.191406 0)"/>
     <use xlink:href="#DejaVuSans-20" transform="translate(123.974609 0)"/>
     <use xlink:href="#DejaVuSans-46" transform="translate(155.761719 0)"/>
     <use xlink:href="#DejaVuSans-69" transform="translate(206.03125 0)"/>
     <use xlink:href="#DejaVuSans-74" transform="translate(233.814453 0)"/>
     <use xlink:href="#DejaVuSans-74" transform="translate(273.023438 0)"/>
     <use xlink:href="#DejaVuSans-65" transform="translate(312.232422 0)"/>
     <use xlink:href="#DejaVuSans-64" transform="translate(373.755859 0)"/>
     <use xlink:href="#DejaVuSans-20" transform="translate(437.232422 0)"/>
     <use xlink:href="#DejaVuSans-44" transform="translate(469.019531 0)"/>
     <use xlink:href="#DejaVuSans-69" transform="translate(546.021484 0)"/>
     <use xlink:href="#DejaVuSans-73" transform="translate(573.804688 0)"/>
     <use xlink:href="#DejaVuSans-74" transform="translate(625.904297 0)"/>
     <use xlink:href="#DejaVuSans-72" transform="translate(665.113281 0)"/>
     <use xlink:href="#DejaVuSans-69" transform="translate(706.226562 0)"/>
     <use xlink:href="#DejaVuSans-62" transform="translate(734.009766 0)"/>
     <use xlink:href="#DejaVuSans-75" transform="translate(797.486328 0)"/>
     <use xlink:href="#DejaVuSans-74" transform="translate(860.865234 0)"/>
     <use xlink:href="#DejaVuSans-69" transform="translate(900.074219 0)"/>
     <use xlink:href="#DejaVuSans-6f" transform="translate(927.857422 0)"/>
     <use xlink:href="#DejaVuSans-6e" transform="translate(989.039062 0)"/>
     <use xlink:href="#DejaVuSans-73" transform="translate(1052.417969 0)"/>
    </g>
   </g>
   <g id="legend_1">
    <g id="patch_107">
     <path d="M 1060.635 198.185625 
L 1412.4 198.185625 
Q 1417.2 198.185625 1417.2 193.385625 
L 1417.2 54.875625 
Q 1417.2 50.075625 1412.4 50.075625 
L 1060.635 50.075625 
Q 1055.835 50.075625 1055.835 54.875625 
L 1055.835 193.385625 
Q 1055.835 198.185625 1060.635 198.185625 
z
" style="fill: #ffffff; opacity: 0.8; stroke: #cccccc; stroke-linejoin: miter"/>
    </g>
    <g id="patch_108">
     <path d="M 1065.435 77.911875 
L 1113.435 77.911875 
L 1113.435 61.111875 
L 1065.435 61.111875 
z
" style="fill: #1f77b4; opacity: 0.6"/>
    </g>
    <g id="text_17">
     <!-- Generated Distribution -->
     <g transform="translate(1132.635 77.911875) scale(0.24 -0.24)">
      <defs>
       <path id="DejaVuSans-47" d="M 3809 666 
L 3809 1919 
L 2778 1919 
L 2778 2438 
L 4434 2438 
L 4434 434 
Q 4069 175 3628 42 
Q 3188 -91 2688 -91 
Q 1594 -91 976 548 
Q 359 1188 359 2328 
Q 359 3472 976 4111 
Q 1594 4750 2688 4750 
Q 3144 4750 3555 4637 
Q 3966 4525 4313 4306 
L 4313 3634 
Q 3963 3931 3569 4081 
Q 3175 4231 2741 4231 
Q 1884 4231 1454 3753 
Q 1025 3275 1025 2328 
Q 1025 1384 1454 906 
Q 1884 428 2741 428 
Q 3075 428 3337 486 
Q 3600 544 3809 666 
z
" transform="scale(0.015625)"/>
       <path id="DejaVuSans-61" d="M 2194 1759 
Q 1497 1759 1228 1600 
Q 959 1441 959 1056 
Q 959 750 1161 570 
Q 1363 391 1709 391 
Q 2188 391 2477 730 
Q 2766 1069 2766 1631 
L 2766 1759 
L 2194 1759 
z
M 3341 1997 
L 3341 0 
L 2766 0 
L 2766 531 
Q 2569 213 2275 61 
Q 1981 -91 1556 -91 
Q 1019 -91 701 211 
Q 384 513 384 1019 
Q 384 1609 779 1909 
Q 1175 2209 1959 2209 
L 2766 2209 
L 2766 2266 
Q 2766 2663 2505 2880 
Q 2244 3097 1772 3097 
Q 1472 3097 1187 3025 
Q 903 2953 641 2809 
L 641 3341 
Q 956 3463 1253 3523 
Q 1550 3584 1831 3584 
Q 2591 3584 2966 3190 
Q 3341 2797 3341 1997 
z
" transform="scale(0.015625)"/>
      </defs>
      <use xlink:href="#DejaVuSans-47"/>
      <use xlink:href="#DejaVuSans-65" transform="translate(77.490234 0)"/>
      <use xlink:href="#DejaVuSans-6e" transform="translate(139.013672 0)"/>
      <use xlink:href="#DejaVuSans-65" transform="translate(202.392578 0)"/>
      <use xlink:href="#DejaVuSans-72" transform="translate(263.916016 0)"/>
      <use xlink:href="#DejaVuSans-61" transform="translate(305.029297 0)"/>
      <use xlink:href="#DejaVuSans-74" transform="translate(366.308594 0)"/>
      <use xlink:href="#DejaVuSans-65" transform="translate(405.517578 0)"/>
      <use xlink:href="#DejaVuSans-64" transform="translate(467.041016 0)"/>
      <use xlink:href="#DejaVuSans-20" transform="translate(530.517578 0)"/>
      <use xlink:href="#DejaVuSans-44" transform="translate(562.304688 0)"/>
      <use xlink:href="#DejaVuSans-69" transform="translate(639.306641 0)"/>
      <use xlink:href="#DejaVuSans-73" transform="translate(667.089844 0)"/>
      <use xlink:href="#DejaVuSans-74" transform="translate(719.189453 0)"/>
      <use xlink:href="#DejaVuSans-72" transform="translate(758.398438 0)"/>
      <use xlink:href="#DejaVuSans-69" transform="translate(799.511719 0)"/>
      <use xlink:href="#DejaVuSans-62" transform="translate(827.294922 0)"/>
      <use xlink:href="#DejaVuSans-75" transform="translate(890.771484 0)"/>
      <use xlink:href="#DejaVuSans-74" transform="translate(954.150391 0)"/>
      <use xlink:href="#DejaVuSans-69" transform="translate(993.359375 0)"/>
      <use xlink:href="#DejaVuSans-6f" transform="translate(1021.142578 0)"/>
      <use xlink:href="#DejaVuSans-6e" transform="translate(1082.324219 0)"/>
     </g>
    </g>
    <g id="line2d_18">
     <path d="M 1065.435 104.739375 
L 1089.435 104.739375 
L 1113.435 104.739375 
" style="fill: none; stroke: #ff7f0e; stroke-width: 1.5; stroke-linecap: square"/>
    </g>
    <g id="text_18">
     <!-- Chi fit -->
     <g transform="translate(1132.635 113.139375) scale(0.24 -0.24)">
      <defs>
       <path id="DejaVuSans-68" d="M 3513 2113 
L 3513 0 
L 2938 0 
L 2938 2094 
Q 2938 2591 2744 2837 
Q 2550 3084 2163 3084 
Q 1697 3084 1428 2787 
Q 1159 2491 1159 1978 
L 1159 0 
L 581 0 
L 581 4863 
L 1159 4863 
L 1159 2956 
Q 1366 3272 1645 3428 
Q 1925 3584 2291 3584 
Q 2894 3584 3203 3211 
Q 3513 2838 3513 2113 
z
" transform="scale(0.015625)"/>
       <path id="DejaVuSans-66" d="M 2375 4863 
L 2375 4384 
L 1825 4384 
Q 1516 4384 1395 4259 
Q 1275 4134 1275 3809 
L 1275 3500 
L 2222 3500 
L 2222 3053 
L 1275 3053 
L 1275 0 
L 697 0 
L 697 3053 
L 147 3053 
L 147 3500 
L 697 3500 
L 697 3744 
Q 697 4328 969 4595 
Q 1241 4863 1831 4863 
L 2375 4863 
z
" transform="scale(0.015625)"/>
      </defs>
      <use xlink:href="#DejaVuSans-43"/>
      <use xlink:href="#DejaVuSans-68" transform="translate(69.824219 0)"/>
      <use xlink:href="#DejaVuSans-69" transform="translate(133.203125 0)"/>
      <use xlink:href="#DejaVuSans-20" transform="translate(160.986328 0)"/>
      <use xlink:href="#DejaVuSans-66" transform="translate(192.773438 0)"/>
      <use xlink:href="#DejaVuSans-69" transform="translate(227.978516 0)"/>
      <use xlink:href="#DejaVuSans-74" transform="translate(255.761719 0)"/>
     </g>
    </g>
    <g id="line2d_19">
     <path d="M 1065.435 139.966875 
L 1089.435 139.966875 
L 1113.435 139.966875 
" style="fill: none; stroke: #2ca02c; stroke-width: 1.5; stroke-linecap: square"/>
    </g>
    <g id="text_19">
     <!-- ChiSquared fit -->
     <g transform="translate(1132.635 148.366875) scale(0.24 -0.24)">
      <defs>
       <path id="DejaVuSans-53" d="M 3425 4513 
L 3425 3897 
Q 3066 4069 2747 4153 
Q 2428 4238 2131 4238 
Q 1616 4238 1336 4038 
Q 1056 3838 1056 3469 
Q 1056 3159 1242 3001 
Q 1428 2844 1947 2747 
L 2328 2669 
Q 3034 2534 3370 2195 
Q 3706 1856 3706 1288 
Q 3706 609 3251 259 
Q 2797 -91 1919 -91 
Q 1588 -91 1214 -16 
Q 841 59 441 206 
L 441 856 
Q 825 641 1194 531 
Q 1563 422 1919 422 
Q 2459 422 2753 634 
Q 3047 847 3047 1241 
Q 3047 1584 2836 1778 
Q 2625 1972 2144 2069 
L 1759 2144 
Q 1053 2284 737 2584 
Q 422 2884 422 3419 
Q 422 4038 858 4394 
Q 1294 4750 2059 4750 
Q 2388 4750 2728 4690 
Q 3069 4631 3425 4513 
z
" transform="scale(0.015625)"/>
       <path id="DejaVuSans-71" d="M 947 1747 
Q 947 1113 1208 752 
Q 1469 391 1925 391 
Q 2381 391 2643 752 
Q 2906 1113 2906 1747 
Q 2906 2381 2643 2742 
Q 2381 3103 1925 3103 
Q 1469 3103 1208 2742 
Q 947 2381 947 1747 
z
M 2906 525 
Q 2725 213 2448 61 
Q 2172 -91 1784 -91 
Q 1150 -91 751 415 
Q 353 922 353 1747 
Q 353 2572 751 3078 
Q 1150 3584 1784 3584 
Q 2172 3584 2448 3432 
Q 2725 3281 2906 2969 
L 2906 3500 
L 3481 3500 
L 3481 -1331 
L 2906 -1331 
L 2906 525 
z
" transform="scale(0.015625)"/>
      </defs>
      <use xlink:href="#DejaVuSans-43"/>
      <use xlink:href="#DejaVuSans-68" transform="translate(69.824219 0)"/>
      <use xlink:href="#DejaVuSans-69" transform="translate(133.203125 0)"/>
      <use xlink:href="#DejaVuSans-53" transform="translate(160.986328 0)"/>
      <use xlink:href="#DejaVuSans-71" transform="translate(224.462891 0)"/>
      <use xlink:href="#DejaVuSans-75" transform="translate(287.939453 0)"/>
      <use xlink:href="#DejaVuSans-61" transform="translate(351.318359 0)"/>
      <use xlink:href="#DejaVuSans-72" transform="translate(412.597656 0)"/>
      <use xlink:href="#DejaVuSans-65" transform="translate(451.460938 0)"/>
      <use xlink:href="#DejaVuSans-64" transform="translate(512.984375 0)"/>
      <use xlink:href="#DejaVuSans-20" transform="translate(576.460938 0)"/>
      <use xlink:href="#DejaVuSans-66" transform="translate(608.248047 0)"/>
      <use xlink:href="#DejaVuSans-69" transform="translate(643.453125 0)"/>
      <use xlink:href="#DejaVuSans-74" transform="translate(671.236328 0)"/>
     </g>
    </g>
    <g id="line2d_20">
     <path d="M 1065.435 175.194375 
L 1089.435 175.194375 
L 1113.435 175.194375 
" style="fill: none; stroke: #d62728; stroke-width: 1.5; stroke-linecap: square"/>
    </g>
    <g id="text_20">
     <!-- Normal fit -->
     <g transform="translate(1132.635 183.594375) scale(0.24 -0.24)">
      <use xlink:href="#DejaVuSans-4e"/>
      <use xlink:href="#DejaVuSans-6f" transform="translate(74.804688 0)"/>
      <use xlink:href="#DejaVuSans-72" transform="translate(135.986328 0)"/>
      <use xlink:href="#DejaVuSans-6d" transform="translate(175.349609 0)"/>
      <use xlink:href="#DejaVuSans-61" transform="translate(272.761719 0)"/>
      <use xlink:href="#DejaVuSans-6c" transform="translate(334.041016 0)"/>
      <use xlink:href="#DejaVuSans-20" transform="translate(361.824219 0)"/>
      <use xlink:href="#DejaVuSans-66" transform="translate(393.611328 0)"/>
      <use xlink:href="#DejaVuSans-69" transform="translate(428.816406 0)"/>
      <use xlink:href="#DejaVuSans-74" transform="translate(456.599609 0)"/>
     </g>
    </g>
   </g>
  </g>
 </g>
 <defs>
  <clipPath id="p2c13677721">
   <rect x="95.590313" y="38.075625" width="1333.609688" height="790.70375"/>
  </clipPath>
 </defs>
</svg>
