<?xml version="1.0" encoding="utf-8" standalone="no"?>
<!DOCTYPE svg PUBLIC "-//W3C//DTD SVG 1.1//EN"
  "http://www.w3.org/Graphics/SVG/1.1/DTD/svg11.dtd">
<svg xmlns:xlink="http://www.w3.org/1999/xlink" width="1296pt" height="720pt" viewBox="0 0 1296 720" xmlns="http://www.w3.org/2000/svg" version="1.1">
 <metadata>
  <rdf:RDF xmlns:dc="http://purl.org/dc/elements/1.1/" xmlns:cc="http://creativecommons.org/ns#" xmlns:rdf="http://www.w3.org/1999/02/22-rdf-syntax-ns#">
   <cc:Work>
    <dc:type rdf:resource="http://purl.org/dc/dcmitype/StillImage"/>
    <dc:date>2022-09-22T10:02:05.849315</dc:date>
    <dc:format>image/svg+xml</dc:format>
    <dc:creator>
     <cc:Agent>
      <dc:title>Matplotlib v3.6.0, https://matplotlib.org/</dc:title>
     </cc:Agent>
    </dc:creator>
   </cc:Work>
  </rdf:RDF>
 </metadata>
 <defs>
  <style type="text/css">*{stroke-linejoin: round; stroke-linecap: butt}</style>
 </defs>
 <g id="figure_1">
  <g id="patch_1">
   <path d="M 0 720 
L 1296 720 
L 1296 0 
L 0 0 
z
" style="fill: #ffffff"/>
  </g>
  <g id="axes_1">
   <g id="patch_2">
    <path d="M 86.359688 658.519688 
L 1265.160938 658.519688 
L 1265.160938 38.075625 
L 86.359688 38.075625 
z
" style="fill: #ffffff"/>
   </g>
   <g id="matplotlib.axis_1">
    <g id="xtick_1">
     <g id="line2d_1">
      <defs>
       <path id="m4828e7b09f" d="M 0 0 
L 0 3.5 
" style="stroke: #000000; stroke-width: 0.8"/>
      </defs>
      <g>
       <use xlink:href="#m4828e7b09f" x="86.359687" y="658.519688" style="stroke: #000000; stroke-width: 0.8"/>
      </g>
     </g>
     <g id="text_1">
      <!-- 0.28 -->
      <g transform="translate(66.320625 679.196875) scale(0.18 -0.18)">
       <defs>
        <path id="DejaVuSans-30" d="M 2034 4250 
Q 1547 4250 1301 3770 
Q 1056 3291 1056 2328 
Q 1056 1369 1301 889 
Q 1547 409 2034 409 
Q 2525 409 2770 889 
Q 3016 1369 3016 2328 
Q 3016 3291 2770 3770 
Q 2525 4250 2034 4250 
z
M 2034 4750 
Q 2819 4750 3233 4129 
Q 3647 3509 3647 2328 
Q 3647 1150 3233 529 
Q 2819 -91 2034 -91 
Q 1250 -91 836 529 
Q 422 1150 422 2328 
Q 422 3509 836 4129 
Q 1250 4750 2034 4750 
z
" transform="scale(0.015625)"/>
        <path id="DejaVuSans-2e" d="M 684 794 
L 1344 794 
L 1344 0 
L 684 0 
L 684 794 
z
" transform="scale(0.015625)"/>
        <path id="DejaVuSans-32" d="M 1228 531 
L 3431 531 
L 3431 0 
L 469 0 
L 469 531 
Q 828 903 1448 1529 
Q 2069 2156 2228 2338 
Q 2531 2678 2651 2914 
Q 2772 3150 2772 3378 
Q 2772 3750 2511 3984 
Q 2250 4219 1831 4219 
Q 1534 4219 1204 4116 
Q 875 4013 500 3803 
L 500 4441 
Q 881 4594 1212 4672 
Q 1544 4750 1819 4750 
Q 2544 4750 2975 4387 
Q 3406 4025 3406 3419 
Q 3406 3131 3298 2873 
Q 3191 2616 2906 2266 
Q 2828 2175 2409 1742 
Q 1991 1309 1228 531 
z
" transform="scale(0.015625)"/>
        <path id="DejaVuSans-38" d="M 2034 2216 
Q 1584 2216 1326 1975 
Q 1069 1734 1069 1313 
Q 1069 891 1326 650 
Q 1584 409 2034 409 
Q 2484 409 2743 651 
Q 3003 894 3003 1313 
Q 3003 1734 2745 1975 
Q 2488 2216 2034 2216 
z
M 1403 2484 
Q 997 2584 770 2862 
Q 544 3141 544 3541 
Q 544 4100 942 4425 
Q 1341 4750 2034 4750 
Q 2731 4750 3128 4425 
Q 3525 4100 3525 3541 
Q 3525 3141 3298 2862 
Q 3072 2584 2669 2484 
Q 3125 2378 3379 2068 
Q 3634 1759 3634 1313 
Q 3634 634 3220 271 
Q 2806 -91 2034 -91 
Q 1263 -91 848 271 
Q 434 634 434 1313 
Q 434 1759 690 2068 
Q 947 2378 1403 2484 
z
M 1172 3481 
Q 1172 3119 1398 2916 
Q 1625 2713 2034 2713 
Q 2441 2713 2670 2916 
Q 2900 3119 2900 3481 
Q 2900 3844 2670 4047 
Q 2441 4250 2034 4250 
Q 1625 4250 1398 4047 
Q 1172 3844 1172 3481 
z
" transform="scale(0.015625)"/>
       </defs>
       <use xlink:href="#DejaVuSans-30"/>
       <use xlink:href="#DejaVuSans-2e" x="63.623047"/>
       <use xlink:href="#DejaVuSans-32" x="95.410156"/>
       <use xlink:href="#DejaVuSans-38" x="159.033203"/>
      </g>
     </g>
    </g>
    <g id="xtick_2">
     <g id="line2d_2">
      <g>
       <use xlink:href="#m4828e7b09f" x="322.119938" y="658.519688" style="stroke: #000000; stroke-width: 0.8"/>
      </g>
     </g>
     <g id="text_2">
      <!-- 0.30 -->
      <g transform="translate(302.080875 679.196875) scale(0.18 -0.18)">
       <defs>
        <path id="DejaVuSans-33" d="M 2597 2516 
Q 3050 2419 3304 2112 
Q 3559 1806 3559 1356 
Q 3559 666 3084 287 
Q 2609 -91 1734 -91 
Q 1441 -91 1130 -33 
Q 819 25 488 141 
L 488 750 
Q 750 597 1062 519 
Q 1375 441 1716 441 
Q 2309 441 2620 675 
Q 2931 909 2931 1356 
Q 2931 1769 2642 2001 
Q 2353 2234 1838 2234 
L 1294 2234 
L 1294 2753 
L 1863 2753 
Q 2328 2753 2575 2939 
Q 2822 3125 2822 3475 
Q 2822 3834 2567 4026 
Q 2313 4219 1838 4219 
Q 1578 4219 1281 4162 
Q 984 4106 628 3988 
L 628 4550 
Q 988 4650 1302 4700 
Q 1616 4750 1894 4750 
Q 2613 4750 3031 4423 
Q 3450 4097 3450 3541 
Q 3450 3153 3228 2886 
Q 3006 2619 2597 2516 
z
" transform="scale(0.015625)"/>
       </defs>
       <use xlink:href="#DejaVuSans-30"/>
       <use xlink:href="#DejaVuSans-2e" x="63.623047"/>
       <use xlink:href="#DejaVuSans-33" x="95.410156"/>
       <use xlink:href="#DejaVuSans-30" x="159.033203"/>
      </g>
     </g>
    </g>
    <g id="xtick_3">
     <g id="line2d_3">
      <g>
       <use xlink:href="#m4828e7b09f" x="557.880187" y="658.519688" style="stroke: #000000; stroke-width: 0.8"/>
      </g>
     </g>
     <g id="text_3">
      <!-- 0.32 -->
      <g transform="translate(537.841125 679.196875) scale(0.18 -0.18)">
       <use xlink:href="#DejaVuSans-30"/>
       <use xlink:href="#DejaVuSans-2e" x="63.623047"/>
       <use xlink:href="#DejaVuSans-33" x="95.410156"/>
       <use xlink:href="#DejaVuSans-32" x="159.033203"/>
      </g>
     </g>
    </g>
    <g id="xtick_4">
     <g id="line2d_4">
      <g>
       <use xlink:href="#m4828e7b09f" x="793.640438" y="658.519688" style="stroke: #000000; stroke-width: 0.8"/>
      </g>
     </g>
     <g id="text_4">
      <!-- 0.34 -->
      <g transform="translate(773.601375 679.196875) scale(0.18 -0.18)">
       <defs>
        <path id="DejaVuSans-34" d="M 2419 4116 
L 825 1625 
L 2419 1625 
L 2419 4116 
z
M 2253 4666 
L 3047 4666 
L 3047 1625 
L 3713 1625 
L 3713 1100 
L 3047 1100 
L 3047 0 
L 2419 0 
L 2419 1100 
L 313 1100 
L 313 1709 
L 2253 4666 
z
" transform="scale(0.015625)"/>
       </defs>
       <use xlink:href="#DejaVuSans-30"/>
       <use xlink:href="#DejaVuSans-2e" x="63.623047"/>
       <use xlink:href="#DejaVuSans-33" x="95.410156"/>
       <use xlink:href="#DejaVuSans-34" x="159.033203"/>
      </g>
     </g>
    </g>
    <g id="xtick_5">
     <g id="line2d_5">
      <g>
       <use xlink:href="#m4828e7b09f" x="1029.400688" y="658.519688" style="stroke: #000000; stroke-width: 0.8"/>
      </g>
     </g>
     <g id="text_5">
      <!-- 0.36 -->
      <g transform="translate(1009.361625 679.196875) scale(0.18 -0.18)">
       <defs>
        <path id="DejaVuSans-36" d="M 2113 2584 
Q 1688 2584 1439 2293 
Q 1191 2003 1191 1497 
Q 1191 994 1439 701 
Q 1688 409 2113 409 
Q 2538 409 2786 701 
Q 3034 994 3034 1497 
Q 3034 2003 2786 2293 
Q 2538 2584 2113 2584 
z
M 3366 4563 
L 3366 3988 
Q 3128 4100 2886 4159 
Q 2644 4219 2406 4219 
Q 1781 4219 1451 3797 
Q 1122 3375 1075 2522 
Q 1259 2794 1537 2939 
Q 1816 3084 2150 3084 
Q 2853 3084 3261 2657 
Q 3669 2231 3669 1497 
Q 3669 778 3244 343 
Q 2819 -91 2113 -91 
Q 1303 -91 875 529 
Q 447 1150 447 2328 
Q 447 3434 972 4092 
Q 1497 4750 2381 4750 
Q 2619 4750 2861 4703 
Q 3103 4656 3366 4563 
z
" transform="scale(0.015625)"/>
       </defs>
       <use xlink:href="#DejaVuSans-30"/>
       <use xlink:href="#DejaVuSans-2e" x="63.623047"/>
       <use xlink:href="#DejaVuSans-33" x="95.410156"/>
       <use xlink:href="#DejaVuSans-36" x="159.033203"/>
      </g>
     </g>
    </g>
    <g id="xtick_6">
     <g id="line2d_6">
      <g>
       <use xlink:href="#m4828e7b09f" x="1265.160938" y="658.519688" style="stroke: #000000; stroke-width: 0.8"/>
      </g>
     </g>
     <g id="text_6">
      <!-- 0.38 -->
      <g transform="translate(1245.121875 679.196875) scale(0.18 -0.18)">
       <use xlink:href="#DejaVuSans-30"/>
       <use xlink:href="#DejaVuSans-2e" x="63.623047"/>
       <use xlink:href="#DejaVuSans-33" x="95.410156"/>
       <use xlink:href="#DejaVuSans-38" x="159.033203"/>
      </g>
     </g>
    </g>
    <g id="text_7">
     <!-- Tunes -->
     <g transform="translate(642.832578 704.416719) scale(0.23 -0.23)">
      <defs>
       <path id="DejaVuSans-54" d="M -19 4666 
L 3928 4666 
L 3928 4134 
L 2272 4134 
L 2272 0 
L 1638 0 
L 1638 4134 
L -19 4134 
L -19 4666 
z
" transform="scale(0.015625)"/>
       <path id="DejaVuSans-75" d="M 544 1381 
L 544 3500 
L 1119 3500 
L 1119 1403 
Q 1119 906 1312 657 
Q 1506 409 1894 409 
Q 2359 409 2629 706 
Q 2900 1003 2900 1516 
L 2900 3500 
L 3475 3500 
L 3475 0 
L 2900 0 
L 2900 538 
Q 2691 219 2414 64 
Q 2138 -91 1772 -91 
Q 1169 -91 856 284 
Q 544 659 544 1381 
z
M 1991 3584 
L 1991 3584 
z
" transform="scale(0.015625)"/>
       <path id="DejaVuSans-6e" d="M 3513 2113 
L 3513 0 
L 2938 0 
L 2938 2094 
Q 2938 2591 2744 2837 
Q 2550 3084 2163 3084 
Q 1697 3084 1428 2787 
Q 1159 2491 1159 1978 
L 1159 0 
L 581 0 
L 581 3500 
L 1159 3500 
L 1159 2956 
Q 1366 3272 1645 3428 
Q 1925 3584 2291 3584 
Q 2894 3584 3203 3211 
Q 3513 2838 3513 2113 
z
" transform="scale(0.015625)"/>
       <path id="DejaVuSans-65" d="M 3597 1894 
L 3597 1613 
L 953 1613 
Q 991 1019 1311 708 
Q 1631 397 2203 397 
Q 2534 397 2845 478 
Q 3156 559 3463 722 
L 3463 178 
Q 3153 47 2828 -22 
Q 2503 -91 2169 -91 
Q 1331 -91 842 396 
Q 353 884 353 1716 
Q 353 2575 817 3079 
Q 1281 3584 2069 3584 
Q 2775 3584 3186 3129 
Q 3597 2675 3597 1894 
z
M 3022 2063 
Q 3016 2534 2758 2815 
Q 2500 3097 2075 3097 
Q 1594 3097 1305 2825 
Q 1016 2553 972 2059 
L 3022 2063 
z
" transform="scale(0.015625)"/>
       <path id="DejaVuSans-73" d="M 2834 3397 
L 2834 2853 
Q 2591 2978 2328 3040 
Q 2066 3103 1784 3103 
Q 1356 3103 1142 2972 
Q 928 2841 928 2578 
Q 928 2378 1081 2264 
Q 1234 2150 1697 2047 
L 1894 2003 
Q 2506 1872 2764 1633 
Q 3022 1394 3022 966 
Q 3022 478 2636 193 
Q 2250 -91 1575 -91 
Q 1294 -91 989 -36 
Q 684 19 347 128 
L 347 722 
Q 666 556 975 473 
Q 1284 391 1588 391 
Q 1994 391 2212 530 
Q 2431 669 2431 922 
Q 2431 1156 2273 1281 
Q 2116 1406 1581 1522 
L 1381 1569 
Q 847 1681 609 1914 
Q 372 2147 372 2553 
Q 372 3047 722 3315 
Q 1072 3584 1716 3584 
Q 2034 3584 2315 3537 
Q 2597 3491 2834 3397 
z
" transform="scale(0.015625)"/>
      </defs>
      <use xlink:href="#DejaVuSans-54"/>
      <use xlink:href="#DejaVuSans-75" x="45.958984"/>
      <use xlink:href="#DejaVuSans-6e" x="109.337891"/>
      <use xlink:href="#DejaVuSans-65" x="172.716797"/>
      <use xlink:href="#DejaVuSans-73" x="234.240234"/>
     </g>
    </g>
   </g>
   <g id="matplotlib.axis_2">
    <g id="ytick_1">
     <g id="line2d_7">
      <defs>
       <path id="mb6b8549557" d="M 0 0 
L -3.5 0 
" style="stroke: #000000; stroke-width: 0.8"/>
      </defs>
      <g>
       <use xlink:href="#mb6b8549557" x="86.359688" y="610.937829" style="stroke: #000000; stroke-width: 0.8"/>
      </g>
     </g>
     <g id="text_8">
      <!-- $\mathdefault{10^{-5}}$ -->
      <g transform="translate(37.059688 617.776423) scale(0.18 -0.18)">
       <defs>
        <path id="DejaVuSans-31" d="M 794 531 
L 1825 531 
L 1825 4091 
L 703 3866 
L 703 4441 
L 1819 4666 
L 2450 4666 
L 2450 531 
L 3481 531 
L 3481 0 
L 794 0 
L 794 531 
z
" transform="scale(0.015625)"/>
        <path id="DejaVuSans-2212" d="M 678 2272 
L 4684 2272 
L 4684 1741 
L 678 1741 
L 678 2272 
z
" transform="scale(0.015625)"/>
        <path id="DejaVuSans-35" d="M 691 4666 
L 3169 4666 
L 3169 4134 
L 1269 4134 
L 1269 2991 
Q 1406 3038 1543 3061 
Q 1681 3084 1819 3084 
Q 2600 3084 3056 2656 
Q 3513 2228 3513 1497 
Q 3513 744 3044 326 
Q 2575 -91 1722 -91 
Q 1428 -91 1123 -41 
Q 819 9 494 109 
L 494 744 
Q 775 591 1075 516 
Q 1375 441 1709 441 
Q 2250 441 2565 725 
Q 2881 1009 2881 1497 
Q 2881 1984 2565 2268 
Q 2250 2553 1709 2553 
Q 1456 2553 1204 2497 
Q 953 2441 691 2322 
L 691 4666 
z
" transform="scale(0.015625)"/>
       </defs>
       <use xlink:href="#DejaVuSans-31" transform="translate(0 0.684375)"/>
       <use xlink:href="#DejaVuSans-30" transform="translate(63.623047 0.684375)"/>
       <use xlink:href="#DejaVuSans-2212" transform="translate(128.203125 38.965625) scale(0.7)"/>
       <use xlink:href="#DejaVuSans-35" transform="translate(186.855469 38.965625) scale(0.7)"/>
      </g>
     </g>
    </g>
    <g id="ytick_2">
     <g id="line2d_8">
      <g>
       <use xlink:href="#mb6b8549557" x="86.359688" y="515.906128" style="stroke: #000000; stroke-width: 0.8"/>
      </g>
     </g>
     <g id="text_9">
      <!-- $\mathdefault{10^{-4}}$ -->
      <g transform="translate(37.059688 522.744722) scale(0.18 -0.18)">
       <use xlink:href="#DejaVuSans-31" transform="translate(0 0.684375)"/>
       <use xlink:href="#DejaVuSans-30" transform="translate(63.623047 0.684375)"/>
       <use xlink:href="#DejaVuSans-2212" transform="translate(128.203125 38.965625) scale(0.7)"/>
       <use xlink:href="#DejaVuSans-34" transform="translate(186.855469 38.965625) scale(0.7)"/>
      </g>
     </g>
    </g>
    <g id="ytick_3">
     <g id="line2d_9">
      <g>
       <use xlink:href="#mb6b8549557" x="86.359688" y="420.874427" style="stroke: #000000; stroke-width: 0.8"/>
      </g>
     </g>
     <g id="text_10">
      <!-- $\mathdefault{10^{-3}}$ -->
      <g transform="translate(37.059688 427.713021) scale(0.18 -0.18)">
       <use xlink:href="#DejaVuSans-31" transform="translate(0 0.765625)"/>
       <use xlink:href="#DejaVuSans-30" transform="translate(63.623047 0.765625)"/>
       <use xlink:href="#DejaVuSans-2212" transform="translate(128.203125 39.046875) scale(0.7)"/>
       <use xlink:href="#DejaVuSans-33" transform="translate(186.855469 39.046875) scale(0.7)"/>
      </g>
     </g>
    </g>
    <g id="ytick_4">
     <g id="line2d_10">
      <g>
       <use xlink:href="#mb6b8549557" x="86.359688" y="325.842726" style="stroke: #000000; stroke-width: 0.8"/>
      </g>
     </g>
     <g id="text_11">
      <!-- $\mathdefault{10^{-2}}$ -->
      <g transform="translate(37.059688 332.68132) scale(0.18 -0.18)">
       <use xlink:href="#DejaVuSans-31" transform="translate(0 0.765625)"/>
       <use xlink:href="#DejaVuSans-30" transform="translate(63.623047 0.765625)"/>
       <use xlink:href="#DejaVuSans-2212" transform="translate(128.203125 39.046875) scale(0.7)"/>
       <use xlink:href="#DejaVuSans-32" transform="translate(186.855469 39.046875) scale(0.7)"/>
      </g>
     </g>
    </g>
    <g id="ytick_5">
     <g id="line2d_11">
      <g>
       <use xlink:href="#mb6b8549557" x="86.359688" y="230.811025" style="stroke: #000000; stroke-width: 0.8"/>
      </g>
     </g>
     <g id="text_12">
      <!-- $\mathdefault{10^{-1}}$ -->
      <g transform="translate(37.059688 237.649619) scale(0.18 -0.18)">
       <use xlink:href="#DejaVuSans-31" transform="translate(0 0.684375)"/>
       <use xlink:href="#DejaVuSans-30" transform="translate(63.623047 0.684375)"/>
       <use xlink:href="#DejaVuSans-2212" transform="translate(128.203125 38.965625) scale(0.7)"/>
       <use xlink:href="#DejaVuSans-31" transform="translate(186.855469 38.965625) scale(0.7)"/>
      </g>
     </g>
    </g>
    <g id="ytick_6">
     <g id="line2d_12">
      <g>
       <use xlink:href="#mb6b8549557" x="86.359688" y="135.779324" style="stroke: #000000; stroke-width: 0.8"/>
      </g>
     </g>
     <g id="text_13">
      <!-- $\mathdefault{10^{0}}$ -->
      <g transform="translate(47.679688 142.617918) scale(0.18 -0.18)">
       <use xlink:href="#DejaVuSans-31" transform="translate(0 0.765625)"/>
       <use xlink:href="#DejaVuSans-30" transform="translate(63.623047 0.765625)"/>
       <use xlink:href="#DejaVuSans-30" transform="translate(128.203125 39.046875) scale(0.7)"/>
      </g>
     </g>
    </g>
    <g id="ytick_7">
     <g id="line2d_13">
      <g>
       <use xlink:href="#mb6b8549557" x="86.359688" y="40.747623" style="stroke: #000000; stroke-width: 0.8"/>
      </g>
     </g>
     <g id="text_14">
      <!-- $\mathdefault{10^{1}}$ -->
      <g transform="translate(47.679688 47.586217) scale(0.18 -0.18)">
       <use xlink:href="#DejaVuSans-31" transform="translate(0 0.684375)"/>
       <use xlink:href="#DejaVuSans-30" transform="translate(63.623047 0.684375)"/>
       <use xlink:href="#DejaVuSans-31" transform="translate(128.203125 38.965625) scale(0.7)"/>
      </g>
     </g>
    </g>
    <g id="ytick_8">
     <g id="line2d_14">
      <defs>
       <path id="mc76da04d60" d="M 0 0 
L -2 0 
" style="stroke: #000000; stroke-width: 0.6"/>
      </defs>
      <g>
       <use xlink:href="#mc76da04d60" x="86.359688" y="648.754745" style="stroke: #000000; stroke-width: 0.6"/>
      </g>
     </g>
    </g>
    <g id="ytick_9">
     <g id="line2d_15">
      <g>
       <use xlink:href="#mc76da04d60" x="86.359688" y="639.545221" style="stroke: #000000; stroke-width: 0.6"/>
      </g>
     </g>
    </g>
    <g id="ytick_10">
     <g id="line2d_16">
      <g>
       <use xlink:href="#mc76da04d60" x="86.359688" y="632.020493" style="stroke: #000000; stroke-width: 0.6"/>
      </g>
     </g>
    </g>
    <g id="ytick_11">
     <g id="line2d_17">
      <g>
       <use xlink:href="#mc76da04d60" x="86.359688" y="625.658426" style="stroke: #000000; stroke-width: 0.6"/>
      </g>
     </g>
    </g>
    <g id="ytick_12">
     <g id="line2d_18">
      <g>
       <use xlink:href="#mc76da04d60" x="86.359688" y="620.147352" style="stroke: #000000; stroke-width: 0.6"/>
      </g>
     </g>
    </g>
    <g id="ytick_13">
     <g id="line2d_19">
      <g>
       <use xlink:href="#mc76da04d60" x="86.359688" y="615.286241" style="stroke: #000000; stroke-width: 0.6"/>
      </g>
     </g>
    </g>
    <g id="ytick_14">
     <g id="line2d_20">
      <g>
       <use xlink:href="#mc76da04d60" x="86.359688" y="582.330436" style="stroke: #000000; stroke-width: 0.6"/>
      </g>
     </g>
    </g>
    <g id="ytick_15">
     <g id="line2d_21">
      <g>
       <use xlink:href="#mc76da04d60" x="86.359688" y="565.596184" style="stroke: #000000; stroke-width: 0.6"/>
      </g>
     </g>
    </g>
    <g id="ytick_16">
     <g id="line2d_22">
      <g>
       <use xlink:href="#mc76da04d60" x="86.359688" y="553.723044" style="stroke: #000000; stroke-width: 0.6"/>
      </g>
     </g>
    </g>
    <g id="ytick_17">
     <g id="line2d_23">
      <g>
       <use xlink:href="#mc76da04d60" x="86.359688" y="544.51352" style="stroke: #000000; stroke-width: 0.6"/>
      </g>
     </g>
    </g>
    <g id="ytick_18">
     <g id="line2d_24">
      <g>
       <use xlink:href="#mc76da04d60" x="86.359688" y="536.988792" style="stroke: #000000; stroke-width: 0.6"/>
      </g>
     </g>
    </g>
    <g id="ytick_19">
     <g id="line2d_25">
      <g>
       <use xlink:href="#mc76da04d60" x="86.359688" y="530.626725" style="stroke: #000000; stroke-width: 0.6"/>
      </g>
     </g>
    </g>
    <g id="ytick_20">
     <g id="line2d_26">
      <g>
       <use xlink:href="#mc76da04d60" x="86.359688" y="525.115651" style="stroke: #000000; stroke-width: 0.6"/>
      </g>
     </g>
    </g>
    <g id="ytick_21">
     <g id="line2d_27">
      <g>
       <use xlink:href="#mc76da04d60" x="86.359688" y="520.25454" style="stroke: #000000; stroke-width: 0.6"/>
      </g>
     </g>
    </g>
    <g id="ytick_22">
     <g id="line2d_28">
      <g>
       <use xlink:href="#mc76da04d60" x="86.359688" y="487.298735" style="stroke: #000000; stroke-width: 0.6"/>
      </g>
     </g>
    </g>
    <g id="ytick_23">
     <g id="line2d_29">
      <g>
       <use xlink:href="#mc76da04d60" x="86.359688" y="470.564483" style="stroke: #000000; stroke-width: 0.6"/>
      </g>
     </g>
    </g>
    <g id="ytick_24">
     <g id="line2d_30">
      <g>
       <use xlink:href="#mc76da04d60" x="86.359688" y="458.691343" style="stroke: #000000; stroke-width: 0.6"/>
      </g>
     </g>
    </g>
    <g id="ytick_25">
     <g id="line2d_31">
      <g>
       <use xlink:href="#mc76da04d60" x="86.359688" y="449.481819" style="stroke: #000000; stroke-width: 0.6"/>
      </g>
     </g>
    </g>
    <g id="ytick_26">
     <g id="line2d_32">
      <g>
       <use xlink:href="#mc76da04d60" x="86.359688" y="441.957091" style="stroke: #000000; stroke-width: 0.6"/>
      </g>
     </g>
    </g>
    <g id="ytick_27">
     <g id="line2d_33">
      <g>
       <use xlink:href="#mc76da04d60" x="86.359688" y="435.595024" style="stroke: #000000; stroke-width: 0.6"/>
      </g>
     </g>
    </g>
    <g id="ytick_28">
     <g id="line2d_34">
      <g>
       <use xlink:href="#mc76da04d60" x="86.359688" y="430.08395" style="stroke: #000000; stroke-width: 0.6"/>
      </g>
     </g>
    </g>
    <g id="ytick_29">
     <g id="line2d_35">
      <g>
       <use xlink:href="#mc76da04d60" x="86.359688" y="425.222839" style="stroke: #000000; stroke-width: 0.6"/>
      </g>
     </g>
    </g>
    <g id="ytick_30">
     <g id="line2d_36">
      <g>
       <use xlink:href="#mc76da04d60" x="86.359688" y="392.267034" style="stroke: #000000; stroke-width: 0.6"/>
      </g>
     </g>
    </g>
    <g id="ytick_31">
     <g id="line2d_37">
      <g>
       <use xlink:href="#mc76da04d60" x="86.359688" y="375.532782" style="stroke: #000000; stroke-width: 0.6"/>
      </g>
     </g>
    </g>
    <g id="ytick_32">
     <g id="line2d_38">
      <g>
       <use xlink:href="#mc76da04d60" x="86.359688" y="363.659642" style="stroke: #000000; stroke-width: 0.6"/>
      </g>
     </g>
    </g>
    <g id="ytick_33">
     <g id="line2d_39">
      <g>
       <use xlink:href="#mc76da04d60" x="86.359688" y="354.450118" style="stroke: #000000; stroke-width: 0.6"/>
      </g>
     </g>
    </g>
    <g id="ytick_34">
     <g id="line2d_40">
      <g>
       <use xlink:href="#mc76da04d60" x="86.359688" y="346.92539" style="stroke: #000000; stroke-width: 0.6"/>
      </g>
     </g>
    </g>
    <g id="ytick_35">
     <g id="line2d_41">
      <g>
       <use xlink:href="#mc76da04d60" x="86.359688" y="340.563323" style="stroke: #000000; stroke-width: 0.6"/>
      </g>
     </g>
    </g>
    <g id="ytick_36">
     <g id="line2d_42">
      <g>
       <use xlink:href="#mc76da04d60" x="86.359688" y="335.052249" style="stroke: #000000; stroke-width: 0.6"/>
      </g>
     </g>
    </g>
    <g id="ytick_37">
     <g id="line2d_43">
      <g>
       <use xlink:href="#mc76da04d60" x="86.359688" y="330.191138" style="stroke: #000000; stroke-width: 0.6"/>
      </g>
     </g>
    </g>
    <g id="ytick_38">
     <g id="line2d_44">
      <g>
       <use xlink:href="#mc76da04d60" x="86.359688" y="297.235333" style="stroke: #000000; stroke-width: 0.6"/>
      </g>
     </g>
    </g>
    <g id="ytick_39">
     <g id="line2d_45">
      <g>
       <use xlink:href="#mc76da04d60" x="86.359688" y="280.501081" style="stroke: #000000; stroke-width: 0.6"/>
      </g>
     </g>
    </g>
    <g id="ytick_40">
     <g id="line2d_46">
      <g>
       <use xlink:href="#mc76da04d60" x="86.359688" y="268.627941" style="stroke: #000000; stroke-width: 0.6"/>
      </g>
     </g>
    </g>
    <g id="ytick_41">
     <g id="line2d_47">
      <g>
       <use xlink:href="#mc76da04d60" x="86.359688" y="259.418417" style="stroke: #000000; stroke-width: 0.6"/>
      </g>
     </g>
    </g>
    <g id="ytick_42">
     <g id="line2d_48">
      <g>
       <use xlink:href="#mc76da04d60" x="86.359688" y="251.893689" style="stroke: #000000; stroke-width: 0.6"/>
      </g>
     </g>
    </g>
    <g id="ytick_43">
     <g id="line2d_49">
      <g>
       <use xlink:href="#mc76da04d60" x="86.359688" y="245.531622" style="stroke: #000000; stroke-width: 0.6"/>
      </g>
     </g>
    </g>
    <g id="ytick_44">
     <g id="line2d_50">
      <g>
       <use xlink:href="#mc76da04d60" x="86.359688" y="240.020548" style="stroke: #000000; stroke-width: 0.6"/>
      </g>
     </g>
    </g>
    <g id="ytick_45">
     <g id="line2d_51">
      <g>
       <use xlink:href="#mc76da04d60" x="86.359688" y="235.159437" style="stroke: #000000; stroke-width: 0.6"/>
      </g>
     </g>
    </g>
    <g id="ytick_46">
     <g id="line2d_52">
      <g>
       <use xlink:href="#mc76da04d60" x="86.359688" y="202.203632" style="stroke: #000000; stroke-width: 0.6"/>
      </g>
     </g>
    </g>
    <g id="ytick_47">
     <g id="line2d_53">
      <g>
       <use xlink:href="#mc76da04d60" x="86.359688" y="185.46938" style="stroke: #000000; stroke-width: 0.6"/>
      </g>
     </g>
    </g>
    <g id="ytick_48">
     <g id="line2d_54">
      <g>
       <use xlink:href="#mc76da04d60" x="86.359688" y="173.59624" style="stroke: #000000; stroke-width: 0.6"/>
      </g>
     </g>
    </g>
    <g id="ytick_49">
     <g id="line2d_55">
      <g>
       <use xlink:href="#mc76da04d60" x="86.359688" y="164.386716" style="stroke: #000000; stroke-width: 0.6"/>
      </g>
     </g>
    </g>
    <g id="ytick_50">
     <g id="line2d_56">
      <g>
       <use xlink:href="#mc76da04d60" x="86.359688" y="156.861988" style="stroke: #000000; stroke-width: 0.6"/>
      </g>
     </g>
    </g>
    <g id="ytick_51">
     <g id="line2d_57">
      <g>
       <use xlink:href="#mc76da04d60" x="86.359688" y="150.499921" style="stroke: #000000; stroke-width: 0.6"/>
      </g>
     </g>
    </g>
    <g id="ytick_52">
     <g id="line2d_58">
      <g>
       <use xlink:href="#mc76da04d60" x="86.359688" y="144.988847" style="stroke: #000000; stroke-width: 0.6"/>
      </g>
     </g>
    </g>
    <g id="ytick_53">
     <g id="line2d_59">
      <g>
       <use xlink:href="#mc76da04d60" x="86.359688" y="140.127736" style="stroke: #000000; stroke-width: 0.6"/>
      </g>
     </g>
    </g>
    <g id="ytick_54">
     <g id="line2d_60">
      <g>
       <use xlink:href="#mc76da04d60" x="86.359688" y="107.171931" style="stroke: #000000; stroke-width: 0.6"/>
      </g>
     </g>
    </g>
    <g id="ytick_55">
     <g id="line2d_61">
      <g>
       <use xlink:href="#mc76da04d60" x="86.359688" y="90.437679" style="stroke: #000000; stroke-width: 0.6"/>
      </g>
     </g>
    </g>
    <g id="ytick_56">
     <g id="line2d_62">
      <g>
       <use xlink:href="#mc76da04d60" x="86.359688" y="78.564539" style="stroke: #000000; stroke-width: 0.6"/>
      </g>
     </g>
    </g>
    <g id="ytick_57">
     <g id="line2d_63">
      <g>
       <use xlink:href="#mc76da04d60" x="86.359688" y="69.355015" style="stroke: #000000; stroke-width: 0.6"/>
      </g>
     </g>
    </g>
    <g id="ytick_58">
     <g id="line2d_64">
      <g>
       <use xlink:href="#mc76da04d60" x="86.359688" y="61.830287" style="stroke: #000000; stroke-width: 0.6"/>
      </g>
     </g>
    </g>
    <g id="ytick_59">
     <g id="line2d_65">
      <g>
       <use xlink:href="#mc76da04d60" x="86.359688" y="55.46822" style="stroke: #000000; stroke-width: 0.6"/>
      </g>
     </g>
    </g>
    <g id="ytick_60">
     <g id="line2d_66">
      <g>
       <use xlink:href="#mc76da04d60" x="86.359688" y="49.957146" style="stroke: #000000; stroke-width: 0.6"/>
      </g>
     </g>
    </g>
    <g id="ytick_61">
     <g id="line2d_67">
      <g>
       <use xlink:href="#mc76da04d60" x="86.359688" y="45.096035" style="stroke: #000000; stroke-width: 0.6"/>
      </g>
     </g>
    </g>
    <g id="text_15">
     <!-- Spectrum [a.u] -->
     <g transform="translate(28.276406 434.642891) rotate(-90) scale(0.23 -0.23)">
      <defs>
       <path id="DejaVuSans-53" d="M 3425 4513 
L 3425 3897 
Q 3066 4069 2747 4153 
Q 2428 4238 2131 4238 
Q 1616 4238 1336 4038 
Q 1056 3838 1056 3469 
Q 1056 3159 1242 3001 
Q 1428 2844 1947 2747 
L 2328 2669 
Q 3034 2534 3370 2195 
Q 3706 1856 3706 1288 
Q 3706 609 3251 259 
Q 2797 -91 1919 -91 
Q 1588 -91 1214 -16 
Q 841 59 441 206 
L 441 856 
Q 825 641 1194 531 
Q 1563 422 1919 422 
Q 2459 422 2753 634 
Q 3047 847 3047 1241 
Q 3047 1584 2836 1778 
Q 2625 1972 2144 2069 
L 1759 2144 
Q 1053 2284 737 2584 
Q 422 2884 422 3419 
Q 422 4038 858 4394 
Q 1294 4750 2059 4750 
Q 2388 4750 2728 4690 
Q 3069 4631 3425 4513 
z
" transform="scale(0.015625)"/>
       <path id="DejaVuSans-70" d="M 1159 525 
L 1159 -1331 
L 581 -1331 
L 581 3500 
L 1159 3500 
L 1159 2969 
Q 1341 3281 1617 3432 
Q 1894 3584 2278 3584 
Q 2916 3584 3314 3078 
Q 3713 2572 3713 1747 
Q 3713 922 3314 415 
Q 2916 -91 2278 -91 
Q 1894 -91 1617 61 
Q 1341 213 1159 525 
z
M 3116 1747 
Q 3116 2381 2855 2742 
Q 2594 3103 2138 3103 
Q 1681 3103 1420 2742 
Q 1159 2381 1159 1747 
Q 1159 1113 1420 752 
Q 1681 391 2138 391 
Q 2594 391 2855 752 
Q 3116 1113 3116 1747 
z
" transform="scale(0.015625)"/>
       <path id="DejaVuSans-63" d="M 3122 3366 
L 3122 2828 
Q 2878 2963 2633 3030 
Q 2388 3097 2138 3097 
Q 1578 3097 1268 2742 
Q 959 2388 959 1747 
Q 959 1106 1268 751 
Q 1578 397 2138 397 
Q 2388 397 2633 464 
Q 2878 531 3122 666 
L 3122 134 
Q 2881 22 2623 -34 
Q 2366 -91 2075 -91 
Q 1284 -91 818 406 
Q 353 903 353 1747 
Q 353 2603 823 3093 
Q 1294 3584 2113 3584 
Q 2378 3584 2631 3529 
Q 2884 3475 3122 3366 
z
" transform="scale(0.015625)"/>
       <path id="DejaVuSans-74" d="M 1172 4494 
L 1172 3500 
L 2356 3500 
L 2356 3053 
L 1172 3053 
L 1172 1153 
Q 1172 725 1289 603 
Q 1406 481 1766 481 
L 2356 481 
L 2356 0 
L 1766 0 
Q 1100 0 847 248 
Q 594 497 594 1153 
L 594 3053 
L 172 3053 
L 172 3500 
L 594 3500 
L 594 4494 
L 1172 4494 
z
" transform="scale(0.015625)"/>
       <path id="DejaVuSans-72" d="M 2631 2963 
Q 2534 3019 2420 3045 
Q 2306 3072 2169 3072 
Q 1681 3072 1420 2755 
Q 1159 2438 1159 1844 
L 1159 0 
L 581 0 
L 581 3500 
L 1159 3500 
L 1159 2956 
Q 1341 3275 1631 3429 
Q 1922 3584 2338 3584 
Q 2397 3584 2469 3576 
Q 2541 3569 2628 3553 
L 2631 2963 
z
" transform="scale(0.015625)"/>
       <path id="DejaVuSans-6d" d="M 3328 2828 
Q 3544 3216 3844 3400 
Q 4144 3584 4550 3584 
Q 5097 3584 5394 3201 
Q 5691 2819 5691 2113 
L 5691 0 
L 5113 0 
L 5113 2094 
Q 5113 2597 4934 2840 
Q 4756 3084 4391 3084 
Q 3944 3084 3684 2787 
Q 3425 2491 3425 1978 
L 3425 0 
L 2847 0 
L 2847 2094 
Q 2847 2600 2669 2842 
Q 2491 3084 2119 3084 
Q 1678 3084 1418 2786 
Q 1159 2488 1159 1978 
L 1159 0 
L 581 0 
L 581 3500 
L 1159 3500 
L 1159 2956 
Q 1356 3278 1631 3431 
Q 1906 3584 2284 3584 
Q 2666 3584 2933 3390 
Q 3200 3197 3328 2828 
z
" transform="scale(0.015625)"/>
       <path id="DejaVuSans-20" transform="scale(0.015625)"/>
       <path id="DejaVuSans-5b" d="M 550 4863 
L 1875 4863 
L 1875 4416 
L 1125 4416 
L 1125 -397 
L 1875 -397 
L 1875 -844 
L 550 -844 
L 550 4863 
z
" transform="scale(0.015625)"/>
       <path id="DejaVuSans-61" d="M 2194 1759 
Q 1497 1759 1228 1600 
Q 959 1441 959 1056 
Q 959 750 1161 570 
Q 1363 391 1709 391 
Q 2188 391 2477 730 
Q 2766 1069 2766 1631 
L 2766 1759 
L 2194 1759 
z
M 3341 1997 
L 3341 0 
L 2766 0 
L 2766 531 
Q 2569 213 2275 61 
Q 1981 -91 1556 -91 
Q 1019 -91 701 211 
Q 384 513 384 1019 
Q 384 1609 779 1909 
Q 1175 2209 1959 2209 
L 2766 2209 
L 2766 2266 
Q 2766 2663 2505 2880 
Q 2244 3097 1772 3097 
Q 1472 3097 1187 3025 
Q 903 2953 641 2809 
L 641 3341 
Q 956 3463 1253 3523 
Q 1550 3584 1831 3584 
Q 2591 3584 2966 3190 
Q 3341 2797 3341 1997 
z
" transform="scale(0.015625)"/>
       <path id="DejaVuSans-5d" d="M 1947 4863 
L 1947 -844 
L 622 -844 
L 622 -397 
L 1369 -397 
L 1369 4416 
L 622 4416 
L 622 4863 
L 1947 4863 
z
" transform="scale(0.015625)"/>
      </defs>
      <use xlink:href="#DejaVuSans-53"/>
      <use xlink:href="#DejaVuSans-70" x="63.476562"/>
      <use xlink:href="#DejaVuSans-65" x="126.953125"/>
      <use xlink:href="#DejaVuSans-63" x="188.476562"/>
      <use xlink:href="#DejaVuSans-74" x="243.457031"/>
      <use xlink:href="#DejaVuSans-72" x="282.666016"/>
      <use xlink:href="#DejaVuSans-75" x="323.779297"/>
      <use xlink:href="#DejaVuSans-6d" x="387.158203"/>
      <use xlink:href="#DejaVuSans-20" x="484.570312"/>
      <use xlink:href="#DejaVuSans-5b" x="516.357422"/>
      <use xlink:href="#DejaVuSans-61" x="555.371094"/>
      <use xlink:href="#DejaVuSans-2e" x="616.650391"/>
      <use xlink:href="#DejaVuSans-75" x="648.4375"/>
      <use xlink:href="#DejaVuSans-5d" x="711.816406"/>
     </g>
    </g>
   </g>
   <g id="line2d_68">
    <path d="M 85.073528 491.496941 
L 136.877189 488.437258 
L 138.663522 488.883338 
L 140.449855 488.315771 
L 149.381521 487.86019 
L 158.313187 487.592013 
L 163.672187 487.657856 
L 167.244853 487.981068 
L 169.031186 488.345719 
L 170.817519 489.014564 
L 172.603852 490.397649 
L 174.390185 494.215872 
L 176.176519 502.602929 
L 177.962852 471.828442 
L 179.749185 479.06204 
L 181.535518 481.063454 
L 183.321851 481.946463 
L 185.108184 482.408558 
L 186.894518 482.667631 
L 190.467184 482.888828 
L 195.826183 482.899179 
L 202.971516 482.716238 
L 204.757849 482.288964 
L 208.330515 482.236248 
L 219.048514 481.619122 
L 226.193847 481.165885 
L 227.98018 481.238709 
L 229.766513 480.814278 
L 236.911846 480.342485 
L 265.493176 478.131429 
L 272.638509 477.636673 
L 274.424842 477.71222 
L 276.211175 476.625393 
L 277.997509 476.885602 
L 283.356508 476.535882 
L 294.074507 475.607099 
L 295.86084 475.340169 
L 297.647173 475.371792 
L 306.578839 474.531567 
L 320.869504 473.235382 
L 322.655837 66.277628 
L 324.442171 472.84312 
L 338.732836 471.490596 
L 360.168834 469.312079 
L 365.527833 468.509799 
L 367.314166 468.0537 
L 369.1005 466.237789 
L 370.886833 469.984763 
L 372.673166 468.791062 
L 374.459499 468.381965 
L 379.818498 467.6511 
L 392.322831 466.332587 
L 403.040829 465.343736 
L 411.972495 464.681481 
L 415.545162 464.527518 
L 417.331495 464.202321 
L 419.117828 464.344243 
L 422.690494 464.403077 
L 426.263161 464.673931 
L 428.049494 464.958745 
L 429.835827 465.405404 
L 431.62216 466.103629 
L 433.408493 467.222144 
L 435.194826 469.117671 
L 436.981159 472.728135 
L 438.767493 481.466582 
L 440.553826 524.367829 
L 442.340159 281.323026 
L 444.126492 432.322987 
L 445.912825 442.709754 
L 447.699158 446.677124 
L 449.485492 448.645047 
L 451.271825 449.709879 
L 453.058158 450.269815 
L 454.844491 450.493966 
L 456.630824 450.452203 
L 458.417157 450.146781 
L 460.203491 449.511847 
L 461.989824 448.350735 
L 463.776157 446.113271 
L 465.56249 440.917718 
L 467.348823 422.571465 
L 469.135156 395.112818 
L 470.921489 446.750296 
L 472.707823 452.85257 
L 474.494156 453.771672 
L 476.280489 453.756988 
L 479.853155 453.218948 
L 503.075486 449.099695 
L 504.861819 448.604515 
L 506.648153 443.087852 
L 508.434486 448.852937 
L 510.220819 448.303144 
L 515.579818 447.227782 
L 531.656817 444.184193 
L 533.44315 444.010848 
L 537.015816 443.186551 
L 553.092815 439.898113 
L 560.238147 438.320577 
L 562.02448 438.045538 
L 565.597147 437.124209 
L 578.101479 434.157213 
L 590.605811 430.963672 
L 603.110143 427.482865 
L 613.828142 424.22886 
L 622.759808 421.234507 
L 624.546141 420.558908 
L 626.332474 419.671097 
L 628.118807 420.139642 
L 629.90514 419.001384 
L 642.409472 413.800982 
L 645.982139 411.99031 
L 647.768472 410.860612 
L 649.554805 409.256973 
L 651.341138 405.288109 
L 653.127471 404.96692 
L 654.913805 411.830816 
L 656.700138 409.962304 
L 658.486471 408.675421 
L 662.059137 406.557802 
L 676.349802 398.529314 
L 681.708802 395.227122 
L 687.067801 391.672573 
L 692.426801 387.828353 
L 697.7858 383.857833 
L 699.572133 384.622464 
L 701.358467 379.626603 
L 703.1448 378.339896 
L 706.717466 374.978888 
L 710.290132 371.187484 
L 713.862799 366.981284 
L 717.435465 362.286186 
L 721.008131 356.983407 
L 722.794465 354.052098 
L 724.580798 350.896622 
L 726.367131 347.480044 
L 728.153464 343.755368 
L 729.939797 339.661536 
L 731.72613 335.117279 
L 733.512463 330.011065 
L 735.298797 324.183958 
L 737.08513 317.398258 
L 738.871463 309.274989 
L 740.657796 299.153614 
L 742.444129 285.718077 
L 744.230462 265.6755 
L 746.016796 225.190114 
L 747.803129 208.450994 
L 749.589462 260.14981 
L 751.375795 282.390228 
L 753.162128 296.760533 
L 754.948461 307.396663 
L 756.734794 315.843952 
L 758.521128 322.851046 
L 760.307461 328.838023 
L 762.093794 334.064351 
L 763.880127 338.70158 
L 765.66646 342.869064 
L 767.452793 346.653198 
L 769.239127 350.118536 
L 771.02546 353.314584 
L 774.598126 359.04648 
L 778.170792 364.076066 
L 781.743459 368.556922 
L 785.316125 372.600669 
L 788.888791 376.275319 
L 792.461458 379.651045 
L 796.034124 382.77045 
L 799.60679 385.66891 
L 804.96579 389.667861 
L 810.324789 393.318864 
L 817.470122 397.712898 
L 822.829121 400.734278 
L 829.974454 404.44983 
L 837.119787 407.86437 
L 844.265119 411.034122 
L 851.410452 414.011783 
L 862.128451 418.41575 
L 863.914784 419.363772 
L 865.701117 421.341045 
L 867.48745 416.994254 
L 869.273783 419.647617 
L 871.060117 420.628508 
L 874.632783 422.108043 
L 883.564449 425.541272 
L 887.137115 427.168204 
L 888.923448 428.133439 
L 890.709781 428.742266 
L 892.496114 406.087478 
L 894.282448 410.726868 
L 896.068781 421.845796 
L 897.855114 424.795228 
L 899.641447 426.309416 
L 901.42778 427.338935 
L 905.000446 428.835309 
L 908.573113 430.011245 
L 913.932112 431.503019 
L 919.291112 432.776591 
L 922.863778 433.477155 
L 924.650111 433.741325 
L 926.436444 433.877437 
L 928.222778 433.675034 
L 930.009111 431.730007 
L 931.795444 445.90751 
L 933.581777 438.72818 
L 935.36811 438.15411 
L 937.154443 438.156831 
L 940.72711 438.568677 
L 955.017775 440.74961 
L 956.804108 440.044734 
L 958.590441 442.337919 
L 960.376774 442.29009 
L 963.949441 442.755101 
L 987.171772 446.214186 
L 997.889771 447.552327 
L 1006.821436 448.480296 
L 1013.966769 449.019669 
L 1021.112102 449.358837 
L 1026.471101 449.402018 
L 1031.830101 449.197989 
L 1035.402767 448.872691 
L 1037.1891 448.635705 
L 1038.975433 448.212381 
L 1040.761766 448.003355 
L 1044.334433 447.047974 
L 1046.120766 446.426966 
L 1047.907099 445.687213 
L 1049.693432 444.806798 
L 1051.479765 443.746083 
L 1053.266098 442.536035 
L 1055.052432 441.059205 
L 1056.838765 439.302419 
L 1058.625098 437.202779 
L 1060.411431 434.68181 
L 1062.197764 431.637106 
L 1063.984097 427.931035 
L 1065.770431 423.371696 
L 1067.556764 417.677671 
L 1069.343097 410.406126 
L 1071.12943 400.785996 
L 1072.915763 387.251274 
L 1074.702096 365.648661 
L 1076.48843 314.377313 
L 1078.274763 331.327028 
L 1080.061096 371.806223 
L 1081.847429 391.632597 
L 1083.633762 404.654662 
L 1085.420095 414.182821 
L 1087.206428 421.553952 
L 1088.992762 427.451092 
L 1090.779095 432.276055 
L 1092.565428 436.288589 
L 1094.351761 439.668028 
L 1096.138094 442.544239 
L 1097.924427 445.014538 
L 1099.710761 447.153724 
L 1101.497094 449.020413 
L 1103.283427 450.661562 
L 1105.06976 452.113468 
L 1108.642426 454.570425 
L 1112.215093 456.579663 
L 1115.787759 458.284174 
L 1121.146758 460.697708 
L 1122.933092 462.066077 
L 1124.719425 453.456211 
L 1126.505758 460.479772 
L 1128.292091 461.472627 
L 1131.864757 462.63047 
L 1137.223757 463.914818 
L 1144.369089 465.317626 
L 1153.300755 466.820625 
L 1165.805087 468.90245 
L 1167.59142 469.366788 
L 1169.377754 470.230989 
L 1171.164087 478.24491 
L 1172.95042 467.245746 
L 1174.736753 468.565331 
L 1176.523086 469.095221 
L 1180.095753 469.744833 
L 1187.241085 470.680432 
L 1201.53175 472.243323 
L 1222.967748 474.295629 
L 1235.47208 475.299225 
L 1237.258414 475.57613 
L 1251.549079 476.738025 
L 1260.480745 477.461741 
L 1262.267078 477.844108 
L 1264.053411 477.730067 
L 1265.839744 477.871983 
L 1265.839744 477.871983 
" clip-path="url(#p24649addd0)" style="fill: none; stroke: #1f77b4; stroke-width: 1.5; stroke-linecap: square"/>
   </g>
   <g id="line2d_69">
    <path d="M 85.073528 406.400032 
L 88.646194 406.037836 
L 90.432527 405.541193 
L 92.21886 406.619064 
L 94.005193 406.058995 
L 99.364193 405.540066 
L 127.945523 403.384417 
L 129.731857 403.347405 
L 133.304523 402.996738 
L 179.749185 399.324218 
L 213.689515 396.417519 
L 240.484512 393.940727 
L 258.347844 392.091852 
L 265.493176 391.171564 
L 269.065843 390.520227 
L 270.852176 390.022412 
L 272.638509 389.130091 
L 274.424842 385.969885 
L 276.211175 398.939738 
L 277.997509 392.711636 
L 279.783842 391.586419 
L 281.570175 391.021084 
L 285.142841 390.317084 
L 292.288174 389.333401 
L 310.151505 387.254664 
L 320.869504 386.026774 
L 322.655837 386.556051 
L 324.442171 385.613017 
L 349.450835 382.599945 
L 360.168834 381.159087 
L 363.7415 380.554789 
L 365.527833 380.121606 
L 367.314166 379.250507 
L 369.1005 372.056329 
L 370.886833 377.883761 
L 372.673166 379.753672 
L 374.459499 379.637076 
L 386.963831 377.916463 
L 411.972495 374.323547 
L 433.408493 371.023507 
L 470.921489 364.522492 
L 485.212155 361.739729 
L 504.861819 357.578866 
L 512.007152 355.888504 
L 513.793485 355.398551 
L 515.579818 353.862683 
L 517.366152 354.857782 
L 520.938818 353.838793 
L 531.656817 350.901855 
L 537.015816 349.229896 
L 540.588483 347.940069 
L 544.161149 346.334215 
L 545.947482 345.272454 
L 547.733815 343.819698 
L 549.520148 341.446417 
L 551.306481 336.095311 
L 553.092815 311.744431 
L 554.879148 324.46545 
L 556.665481 344.763136 
L 558.451814 345.912193 
L 560.238147 345.449023 
L 572.742479 340.578277 
L 576.315146 339.052533 
L 578.101479 338.015976 
L 579.887812 333.542771 
L 581.674145 338.877037 
L 583.460478 337.457993 
L 587.033145 335.791244 
L 604.896476 328.224746 
L 612.041809 324.905748 
L 619.187141 321.324885 
L 624.546141 318.435316 
L 629.90514 315.33971 
L 635.26414 312.003533 
L 640.623139 308.386658 
L 645.982139 304.431591 
L 649.554805 301.572835 
L 653.127471 298.522717 
L 656.700138 295.20341 
L 660.272804 291.613622 
L 663.84547 287.688179 
L 667.418137 283.356344 
L 670.990803 278.52329 
L 674.563469 273.056026 
L 676.349802 270.028061 
L 678.136136 266.762418 
L 679.922469 263.21853 
L 681.708802 259.344297 
L 683.495135 255.071442 
L 685.281468 250.308055 
L 687.067801 244.926241 
L 688.854135 238.74049 
L 690.640468 231.466833 
L 692.426801 222.637885 
L 694.213134 211.400299 
L 695.999467 195.9216 
L 697.7858 170.890828 
L 699.572133 96.927253 
L 701.358467 154.127438 
L 703.1448 187.581286 
L 704.931133 205.801771 
L 706.717466 218.390606 
L 708.503799 228.017418 
L 710.290132 235.812792 
L 712.076466 242.362595 
L 713.862799 248.009934 
L 715.649132 252.973141 
L 717.435465 257.399778 
L 719.221798 261.394257 
L 721.008131 265.033173 
L 722.794465 268.37438 
L 726.367131 274.333236 
L 729.939797 279.529738 
L 733.512463 284.134166 
L 737.08513 288.262942 
L 740.657796 291.992973 
L 744.230462 295.332054 
L 746.016796 296.646234 
L 747.803129 299.408091 
L 749.589462 300.387003 
L 756.734794 305.719119 
L 762.093794 309.372861 
L 767.452793 312.72813 
L 772.811793 315.82565 
L 778.170792 318.700523 
L 785.316125 322.236406 
L 794.247791 326.391166 
L 796.034124 327.009613 
L 803.179457 329.897689 
L 812.111122 333.236567 
L 817.470122 335.15009 
L 819.256455 336.097189 
L 821.042788 336.187293 
L 826.401788 337.98762 
L 835.333453 340.710431 
L 846.051452 343.931766 
L 847.837785 344.22433 
L 860.342118 347.401757 
L 872.84645 350.328067 
L 885.350782 353.021497 
L 899.641447 355.867237 
L 913.932112 358.471519 
L 930.009111 361.152879 
L 947.872442 363.846596 
L 963.949441 366.041862 
L 981.812772 368.240283 
L 997.889771 370.221802 
L 999.676104 370.542665 
L 1001.462437 371.026707 
L 1003.24877 372.303951 
L 1005.035103 362.811697 
L 1006.821436 369.319389 
L 1008.60777 370.067439 
L 1012.180436 370.705872 
L 1017.539435 371.280169 
L 1026.471101 371.98166 
L 1037.1891 372.594838 
L 1047.907099 372.962268 
L 1056.838765 373.035088 
L 1063.984097 372.893187 
L 1071.12943 372.520382 
L 1074.702096 372.25027 
L 1076.48843 372.235505 
L 1078.274763 371.604901 
L 1080.061096 371.459477 
L 1083.633762 370.894949 
L 1087.206428 370.142032 
L 1090.779095 369.176617 
L 1094.351761 367.940889 
L 1097.924427 366.34752 
L 1099.710761 365.37747 
L 1101.497094 364.263186 
L 1103.283427 362.975448 
L 1105.06976 361.476503 
L 1106.856093 359.716411 
L 1108.642426 357.627528 
L 1110.428759 355.115599 
L 1112.215093 352.044612 
L 1114.001426 348.209377 
L 1115.787759 343.281727 
L 1117.574092 336.692736 
L 1119.360425 327.330859 
L 1121.146758 312.547532 
L 1122.933092 282.763595 
L 1124.719425 229.48868 
L 1126.505758 307.652131 
L 1128.292091 337.166229 
L 1130.078424 357.395517 
L 1131.864757 373.581613 
L 1133.651091 387.384412 
L 1135.437424 399.308142 
L 1137.223757 409.236811 
L 1139.01009 416.72131 
L 1140.796423 421.415864 
L 1142.582756 423.511092 
L 1144.369089 423.704256 
L 1146.155423 422.788103 
L 1149.728089 419.785312 
L 1151.514422 418.068115 
L 1155.087088 415.242748 
L 1158.659755 412.885589 
L 1162.232421 410.989168 
L 1165.805087 409.466645 
L 1169.377754 408.23884 
L 1172.95042 407.243201 
L 1176.523086 406.431266 
L 1181.882086 405.480613 
L 1187.241085 404.773945 
L 1194.386418 404.107592 
L 1201.53175 403.669766 
L 1210.463416 403.348448 
L 1221.181415 403.190017 
L 1235.47208 403.211247 
L 1242.617413 403.178074 
L 1244.403746 403.817356 
L 1246.190079 403.440509 
L 1255.121745 403.458196 
L 1260.480745 403.40988 
L 1264.053411 403.202632 
L 1265.839744 402.915374 
L 1265.839744 402.915374 
" clip-path="url(#p24649addd0)" style="fill: none; stroke: #ff7f0e; stroke-width: 1.5; stroke-linecap: square"/>
   </g>
   <g id="LineCollection_1">
    <path d="M 322.655837 721 
L 322.655837 66.277628 
" clip-path="url(#p24649addd0)" style="fill: none; stroke-dasharray: 5.55,2.4; stroke-dashoffset: 0; stroke: #1f77b4; stroke-width: 1.5"/>
   </g>
   <g id="line2d_70">
    <defs>
     <path id="me901ed0842" d="M 0 3 
C 0.795609 3 1.55874 2.683901 2.12132 2.12132 
C 2.683901 1.55874 3 0.795609 3 0 
C 3 -0.795609 2.683901 -1.55874 2.12132 -2.12132 
C 1.55874 -2.683901 0.795609 -3 0 -3 
C -0.795609 -3 -1.55874 -2.683901 -2.12132 -2.12132 
C -2.683901 -1.55874 -3 -0.795609 -3 0 
C -3 0.795609 -2.683901 1.55874 -2.12132 2.12132 
C -1.55874 2.683901 -0.795609 3 0 3 
z
" style="stroke: #1f77b4"/>
    </defs>
    <g clip-path="url(#p24649addd0)">
     <use xlink:href="#me901ed0842" x="322.655837" y="66.277628" style="fill: #1f77b4; stroke: #1f77b4"/>
    </g>
   </g>
   <g id="line2d_71">
    <path clip-path="url(#p24649addd0)" style="fill: none; stroke: #d62728; stroke-width: 1.5; stroke-linecap: square"/>
   </g>
   <g id="LineCollection_2">
    <path d="M 699.572133 721 
L 699.572133 96.927253 
" clip-path="url(#p24649addd0)" style="fill: none; stroke-dasharray: 5.55,2.4; stroke-dashoffset: 0; stroke: #ff7f0e; stroke-width: 1.5"/>
   </g>
   <g id="line2d_72">
    <defs>
     <path id="m1579c11600" d="M 0 3 
C 0.795609 3 1.55874 2.683901 2.12132 2.12132 
C 2.683901 1.55874 3 0.795609 3 0 
C 3 -0.795609 2.683901 -1.55874 2.12132 -2.12132 
C 1.55874 -2.683901 0.795609 -3 0 -3 
C -0.795609 -3 -1.55874 -2.683901 -2.12132 -2.12132 
C -2.683901 -1.55874 -3 -0.795609 -3 0 
C -3 0.795609 -2.683901 1.55874 -2.12132 2.12132 
C -1.55874 2.683901 -0.795609 3 0 3 
z
" style="stroke: #ff7f0e"/>
    </defs>
    <g clip-path="url(#p24649addd0)">
     <use xlink:href="#m1579c11600" x="699.572133" y="96.927253" style="fill: #ff7f0e; stroke: #ff7f0e"/>
    </g>
   </g>
   <g id="line2d_73">
    <path clip-path="url(#p24649addd0)" style="fill: none; stroke: #d62728; stroke-width: 1.5; stroke-linecap: square"/>
   </g>
   <g id="patch_3">
    <path d="M 86.359688 658.519688 
L 86.359688 38.075625 
" style="fill: none; stroke: #000000; stroke-width: 0.8; stroke-linejoin: miter; stroke-linecap: square"/>
   </g>
   <g id="patch_4">
    <path d="M 1265.160938 658.519688 
L 1265.160938 38.075625 
" style="fill: none; stroke: #000000; stroke-width: 0.8; stroke-linejoin: miter; stroke-linecap: square"/>
   </g>
   <g id="patch_5">
    <path d="M 86.359687 658.519688 
L 1265.160938 658.519688 
" style="fill: none; stroke: #000000; stroke-width: 0.8; stroke-linejoin: miter; stroke-linecap: square"/>
   </g>
   <g id="patch_6">
    <path d="M 86.359687 38.075625 
L 1265.160938 38.075625 
" style="fill: none; stroke: #000000; stroke-width: 0.8; stroke-linejoin: miter; stroke-linecap: square"/>
   </g>
   <g id="text_16">
    <!-- Driven Motion Spectrum -->
    <g transform="translate(505.360625 32.075625) scale(0.28 -0.28)">
     <defs>
      <path id="DejaVuSans-44" d="M 1259 4147 
L 1259 519 
L 2022 519 
Q 2988 519 3436 956 
Q 3884 1394 3884 2338 
Q 3884 3275 3436 3711 
Q 2988 4147 2022 4147 
L 1259 4147 
z
M 628 4666 
L 1925 4666 
Q 3281 4666 3915 4102 
Q 4550 3538 4550 2338 
Q 4550 1131 3912 565 
Q 3275 0 1925 0 
L 628 0 
L 628 4666 
z
" transform="scale(0.015625)"/>
      <path id="DejaVuSans-69" d="M 603 3500 
L 1178 3500 
L 1178 0 
L 603 0 
L 603 3500 
z
M 603 4863 
L 1178 4863 
L 1178 4134 
L 603 4134 
L 603 4863 
z
" transform="scale(0.015625)"/>
      <path id="DejaVuSans-76" d="M 191 3500 
L 800 3500 
L 1894 563 
L 2988 3500 
L 3597 3500 
L 2284 0 
L 1503 0 
L 191 3500 
z
" transform="scale(0.015625)"/>
      <path id="DejaVuSans-4d" d="M 628 4666 
L 1569 4666 
L 2759 1491 
L 3956 4666 
L 4897 4666 
L 4897 0 
L 4281 0 
L 4281 4097 
L 3078 897 
L 2444 897 
L 1241 4097 
L 1241 0 
L 628 0 
L 628 4666 
z
" transform="scale(0.015625)"/>
      <path id="DejaVuSans-6f" d="M 1959 3097 
Q 1497 3097 1228 2736 
Q 959 2375 959 1747 
Q 959 1119 1226 758 
Q 1494 397 1959 397 
Q 2419 397 2687 759 
Q 2956 1122 2956 1747 
Q 2956 2369 2687 2733 
Q 2419 3097 1959 3097 
z
M 1959 3584 
Q 2709 3584 3137 3096 
Q 3566 2609 3566 1747 
Q 3566 888 3137 398 
Q 2709 -91 1959 -91 
Q 1206 -91 779 398 
Q 353 888 353 1747 
Q 353 2609 779 3096 
Q 1206 3584 1959 3584 
z
" transform="scale(0.015625)"/>
     </defs>
     <use xlink:href="#DejaVuSans-44"/>
     <use xlink:href="#DejaVuSans-72" x="77.001953"/>
     <use xlink:href="#DejaVuSans-69" x="118.115234"/>
     <use xlink:href="#DejaVuSans-76" x="145.898438"/>
     <use xlink:href="#DejaVuSans-65" x="205.078125"/>
     <use xlink:href="#DejaVuSans-6e" x="266.601562"/>
     <use xlink:href="#DejaVuSans-20" x="329.980469"/>
     <use xlink:href="#DejaVuSans-4d" x="361.767578"/>
     <use xlink:href="#DejaVuSans-6f" x="448.046875"/>
     <use xlink:href="#DejaVuSans-74" x="509.228516"/>
     <use xlink:href="#DejaVuSans-69" x="548.4375"/>
     <use xlink:href="#DejaVuSans-6f" x="576.220703"/>
     <use xlink:href="#DejaVuSans-6e" x="637.402344"/>
     <use xlink:href="#DejaVuSans-20" x="700.78125"/>
     <use xlink:href="#DejaVuSans-53" x="732.568359"/>
     <use xlink:href="#DejaVuSans-70" x="796.044922"/>
     <use xlink:href="#DejaVuSans-65" x="859.521484"/>
     <use xlink:href="#DejaVuSans-63" x="921.044922"/>
     <use xlink:href="#DejaVuSans-74" x="976.025391"/>
     <use xlink:href="#DejaVuSans-72" x="1015.234375"/>
     <use xlink:href="#DejaVuSans-75" x="1056.347656"/>
     <use xlink:href="#DejaVuSans-6d" x="1119.726562"/>
    </g>
   </g>
   <g id="legend_1">
    <g id="patch_7">
     <path d="M 1051.857188 200.634375 
L 1248.360938 200.634375 
Q 1253.160938 200.634375 1253.160938 195.834375 
L 1253.160938 54.875625 
Q 1253.160938 50.075625 1248.360938 50.075625 
L 1051.857188 50.075625 
Q 1047.057188 50.075625 1047.057188 54.875625 
L 1047.057188 195.834375 
Q 1047.057188 200.634375 1051.857188 200.634375 
z
" style="fill: #ffffff; opacity: 0.8; stroke: #cccccc; stroke-linejoin: miter"/>
    </g>
    <g id="line2d_74">
     <path d="M 1056.657188 69.511875 
L 1080.657188 69.511875 
L 1104.657188 69.511875 
" style="fill: none; stroke: #1f77b4; stroke-width: 1.5; stroke-linecap: square"/>
    </g>
    <g id="text_17">
     <!-- horizontal -->
     <g transform="translate(1123.857188 77.911875) scale(0.24 -0.24)">
      <defs>
       <path id="DejaVuSans-68" d="M 3513 2113 
L 3513 0 
L 2938 0 
L 2938 2094 
Q 2938 2591 2744 2837 
Q 2550 3084 2163 3084 
Q 1697 3084 1428 2787 
Q 1159 2491 1159 1978 
L 1159 0 
L 581 0 
L 581 4863 
L 1159 4863 
L 1159 2956 
Q 1366 3272 1645 3428 
Q 1925 3584 2291 3584 
Q 2894 3584 3203 3211 
Q 3513 2838 3513 2113 
z
" transform="scale(0.015625)"/>
       <path id="DejaVuSans-7a" d="M 353 3500 
L 3084 3500 
L 3084 2975 
L 922 459 
L 3084 459 
L 3084 0 
L 275 0 
L 275 525 
L 2438 3041 
L 353 3041 
L 353 3500 
z
" transform="scale(0.015625)"/>
       <path id="DejaVuSans-6c" d="M 603 4863 
L 1178 4863 
L 1178 0 
L 603 0 
L 603 4863 
z
" transform="scale(0.015625)"/>
      </defs>
      <use xlink:href="#DejaVuSans-68"/>
      <use xlink:href="#DejaVuSans-6f" x="63.378906"/>
      <use xlink:href="#DejaVuSans-72" x="124.560547"/>
      <use xlink:href="#DejaVuSans-69" x="165.673828"/>
      <use xlink:href="#DejaVuSans-7a" x="193.457031"/>
      <use xlink:href="#DejaVuSans-6f" x="245.947266"/>
      <use xlink:href="#DejaVuSans-6e" x="307.128906"/>
      <use xlink:href="#DejaVuSans-74" x="370.507812"/>
      <use xlink:href="#DejaVuSans-61" x="409.716797"/>
      <use xlink:href="#DejaVuSans-6c" x="470.996094"/>
     </g>
    </g>
    <g id="line2d_75">
     <path d="M 1056.657188 104.739375 
L 1080.657188 104.739375 
L 1104.657188 104.739375 
" style="fill: none; stroke: #ff7f0e; stroke-width: 1.5; stroke-linecap: square"/>
    </g>
    <g id="text_18">
     <!-- vertical -->
     <g transform="translate(1123.857188 113.139375) scale(0.24 -0.24)">
      <use xlink:href="#DejaVuSans-76"/>
      <use xlink:href="#DejaVuSans-65" x="59.179688"/>
      <use xlink:href="#DejaVuSans-72" x="120.703125"/>
      <use xlink:href="#DejaVuSans-74" x="161.816406"/>
      <use xlink:href="#DejaVuSans-69" x="201.025391"/>
      <use xlink:href="#DejaVuSans-63" x="228.808594"/>
      <use xlink:href="#DejaVuSans-61" x="283.789062"/>
      <use xlink:href="#DejaVuSans-6c" x="345.068359"/>
     </g>
    </g>
    <g id="line2d_76">
     <path d="M 1080.657188 148.366875 
L 1080.657188 136.816875 
" style="fill: none; stroke-dasharray: 8.325,3.6; stroke-dashoffset: 0; stroke: #1f77b4; stroke-width: 1.5"/>
    </g>
    <g id="line2d_77">
     <path d="M 1056.657188 148.366875 
L 1104.657188 148.366875 
" style="fill: none; stroke: #d62728; stroke-width: 1.5; stroke-linecap: square"/>
    </g>
    <g id="line2d_78">
     <g>
      <use xlink:href="#me901ed0842" x="1080.657188" y="136.816875" style="fill: #1f77b4; stroke: #1f77b4"/>
     </g>
    </g>
    <g id="text_19">
     <!-- $Q_{xD}$ -->
     <g transform="translate(1123.857188 148.366875) scale(0.24 -0.24)">
      <defs>
       <path id="DejaVuSans-Oblique-51" d="M 2309 -84 
Q 2275 -88 2237 -89 
Q 2200 -91 2125 -91 
Q 1250 -91 756 411 
Q 263 913 263 1797 
Q 263 2319 452 2844 
Q 641 3369 978 3788 
Q 1369 4269 1858 4509 
Q 2347 4750 2938 4750 
Q 3794 4750 4287 4245 
Q 4781 3741 4781 2869 
Q 4781 1928 4265 1147 
Q 3750 366 2919 44 
L 3553 -825 
L 2847 -825 
L 2309 -84 
z
M 2919 4238 
Q 2400 4238 2003 3986 
Q 1606 3734 1313 3219 
Q 1125 2891 1026 2522 
Q 928 2153 928 1778 
Q 928 1128 1239 775 
Q 1550 422 2119 422 
Q 2631 422 3032 676 
Q 3434 931 3719 1434 
Q 3909 1772 4009 2142 
Q 4109 2513 4109 2881 
Q 4109 3528 3796 3883 
Q 3484 4238 2919 4238 
z
" transform="scale(0.015625)"/>
       <path id="DejaVuSans-Oblique-78" d="M 3841 3500 
L 2234 1784 
L 3219 0 
L 2559 0 
L 1819 1388 
L 531 0 
L -166 0 
L 1556 1844 
L 641 3500 
L 1300 3500 
L 1972 2234 
L 3144 3500 
L 3841 3500 
z
" transform="scale(0.015625)"/>
       <path id="DejaVuSans-Oblique-44" d="M 1081 4666 
L 2438 4666 
Q 3519 4666 4070 4208 
Q 4622 3750 4622 2847 
Q 4622 2250 4412 1698 
Q 4203 1147 3834 769 
Q 3463 381 2891 190 
Q 2319 0 1538 0 
L 172 0 
L 1081 4666 
z
M 1613 4147 
L 909 519 
L 1734 519 
Q 2794 519 3375 1128 
Q 3956 1738 3956 2847 
Q 3956 3519 3581 3833 
Q 3206 4147 2406 4147 
L 1613 4147 
z
" transform="scale(0.015625)"/>
      </defs>
      <use xlink:href="#DejaVuSans-Oblique-51" transform="translate(0 0.78125)"/>
      <use xlink:href="#DejaVuSans-Oblique-78" transform="translate(78.710938 -15.625) scale(0.7)"/>
      <use xlink:href="#DejaVuSans-Oblique-44" transform="translate(120.136719 -15.625) scale(0.7)"/>
     </g>
    </g>
    <g id="line2d_79">
     <path d="M 1080.657188 183.594375 
L 1080.657188 172.044375 
" style="fill: none; stroke-dasharray: 8.325,3.6; stroke-dashoffset: 0; stroke: #ff7f0e; stroke-width: 1.5"/>
    </g>
    <g id="line2d_80">
     <path d="M 1056.657188 183.594375 
L 1104.657188 183.594375 
" style="fill: none; stroke: #d62728; stroke-width: 1.5; stroke-linecap: square"/>
    </g>
    <g id="line2d_81">
     <g>
      <use xlink:href="#m1579c11600" x="1080.657188" y="172.044375" style="fill: #ff7f0e; stroke: #ff7f0e"/>
     </g>
    </g>
    <g id="text_20">
     <!-- $Q_{yD}$ -->
     <g transform="translate(1123.857188 183.594375) scale(0.24 -0.24)">
      <defs>
       <path id="DejaVuSans-Oblique-79" d="M 1588 -325 
Q 1188 -997 936 -1164 
Q 684 -1331 294 -1331 
L -159 -1331 
L -63 -850 
L 269 -850 
Q 509 -850 678 -719 
Q 847 -588 1056 -206 
L 1234 128 
L 459 3500 
L 1069 3500 
L 1650 819 
L 3256 3500 
L 3859 3500 
L 1588 -325 
z
" transform="scale(0.015625)"/>
      </defs>
      <use xlink:href="#DejaVuSans-Oblique-51" transform="translate(0 0.78125)"/>
      <use xlink:href="#DejaVuSans-Oblique-79" transform="translate(78.710938 -15.625) scale(0.7)"/>
      <use xlink:href="#DejaVuSans-Oblique-44" transform="translate(120.136719 -15.625) scale(0.7)"/>
     </g>
    </g>
   </g>
  </g>
 </g>
 <defs>
  <clipPath id="p24649addd0">
   <rect x="86.359688" y="38.075625" width="1178.80125" height="620.444062"/>
  </clipPath>
 </defs>
</svg>
