<?xml version="1.0" encoding="utf-8" standalone="no"?>
<!DOCTYPE svg PUBLIC "-//W3C//DTD SVG 1.1//EN"
  "http://www.w3.org/Graphics/SVG/1.1/DTD/svg11.dtd">
<svg xmlns:xlink="http://www.w3.org/1999/xlink" width="1440pt" height="864pt" viewBox="0 0 1440 864" xmlns="http://www.w3.org/2000/svg" version="1.1">
 <metadata>
  <rdf:RDF xmlns:dc="http://purl.org/dc/elements/1.1/" xmlns:cc="http://creativecommons.org/ns#" xmlns:rdf="http://www.w3.org/1999/02/22-rdf-syntax-ns#">
   <cc:Work>
    <dc:type rdf:resource="http://purl.org/dc/dcmitype/StillImage"/>
    <dc:date>2022-10-01T11:08:30.951026</dc:date>
    <dc:format>image/svg+xml</dc:format>
    <dc:creator>
     <cc:Agent>
      <dc:title>Matplotlib v3.6.0, https://matplotlib.org/</dc:title>
     </cc:Agent>
    </dc:creator>
   </cc:Work>
  </rdf:RDF>
 </metadata>
 <defs>
  <style type="text/css">*{stroke-linejoin: round; stroke-linecap: butt}</style>
 </defs>
 <g id="figure_1">
  <g id="patch_1">
   <path d="M 0 864 
L 1440 864 
L 1440 0 
L 0 0 
z
" style="fill: #ffffff"/>
  </g>
  <g id="axes_1">
   <g id="patch_2">
    <path d="M 95.590313 802.519687 
L 1429.2 802.519687 
L 1429.2 69.4295 
L 95.590313 69.4295 
z
" style="fill: #ffffff"/>
   </g>
   <g id="patch_3">
    <path d="M 156.208935 802.519687 
L 168.332659 802.519687 
L 168.332659 643.939566 
L 156.208935 643.939566 
z
" clip-path="url(#pcebafdbe4b)" style="fill: #ff7f0e; opacity: 0.5"/>
   </g>
   <g id="patch_4">
    <path d="M 168.332659 802.519687 
L 180.456384 802.519687 
L 180.456384 417.427148 
L 168.332659 417.427148 
z
" clip-path="url(#pcebafdbe4b)" style="fill: #ff7f0e; opacity: 0.5"/>
   </g>
   <g id="patch_5">
    <path d="M 180.456384 802.519687 
L 192.580108 802.519687 
L 192.580108 282.419747 
L 180.456384 282.419747 
z
" clip-path="url(#pcebafdbe4b)" style="fill: #ff7f0e; opacity: 0.5"/>
   </g>
   <g id="patch_6">
    <path d="M 192.580108 802.519687 
L 204.703832 802.519687 
L 204.703832 192.843408 
L 192.580108 192.843408 
z
" clip-path="url(#pcebafdbe4b)" style="fill: #ff7f0e; opacity: 0.5"/>
   </g>
   <g id="patch_7">
    <path d="M 204.703832 802.519687 
L 216.827557 802.519687 
L 216.827557 104.338557 
L 204.703832 104.338557 
z
" clip-path="url(#pcebafdbe4b)" style="fill: #ff7f0e; opacity: 0.5"/>
   </g>
   <g id="patch_8">
    <path d="M 216.827557 802.519687 
L 228.951281 802.519687 
L 228.951281 106.052936 
L 216.827557 106.052936 
z
" clip-path="url(#pcebafdbe4b)" style="fill: #ff7f0e; opacity: 0.5"/>
   </g>
   <g id="patch_9">
    <path d="M 228.951281 802.519687 
L 241.075006 802.519687 
L 241.075006 110.76748 
L 228.951281 110.76748 
z
" clip-path="url(#pcebafdbe4b)" style="fill: #ff7f0e; opacity: 0.5"/>
   </g>
   <g id="patch_10">
    <path d="M 241.075006 802.519687 
L 253.19873 802.519687 
L 253.19873 156.627137 
L 241.075006 156.627137 
z
" clip-path="url(#pcebafdbe4b)" style="fill: #ff7f0e; opacity: 0.5"/>
   </g>
   <g id="patch_11">
    <path d="M 253.19873 802.519687 
L 265.322455 802.519687 
L 265.322455 169.91358 
L 253.19873 169.91358 
z
" clip-path="url(#pcebafdbe4b)" style="fill: #ff7f0e; opacity: 0.5"/>
   </g>
   <g id="patch_12">
    <path d="M 265.322455 802.519687 
L 277.446179 802.519687 
L 277.446179 233.345629 
L 265.322455 233.345629 
z
" clip-path="url(#pcebafdbe4b)" style="fill: #ff7f0e; opacity: 0.5"/>
   </g>
   <g id="patch_13">
    <path d="M 277.446179 802.519687 
L 289.569903 802.519687 
L 289.569903 264.204463 
L 277.446179 264.204463 
z
" clip-path="url(#pcebafdbe4b)" style="fill: #ff7f0e; opacity: 0.5"/>
   </g>
   <g id="patch_14">
    <path d="M 289.569903 802.519687 
L 301.693628 802.519687 
L 301.693628 296.56338 
L 289.569903 296.56338 
z
" clip-path="url(#pcebafdbe4b)" style="fill: #ff7f0e; opacity: 0.5"/>
   </g>
   <g id="patch_15">
    <path d="M 301.693628 802.519687 
L 313.817352 802.519687 
L 313.817352 355.923777 
L 301.693628 355.923777 
z
" clip-path="url(#pcebafdbe4b)" style="fill: #ff7f0e; opacity: 0.5"/>
   </g>
   <g id="patch_16">
    <path d="M 313.817352 802.519687 
L 325.941077 802.519687 
L 325.941077 386.568314 
L 313.817352 386.568314 
z
" clip-path="url(#pcebafdbe4b)" style="fill: #ff7f0e; opacity: 0.5"/>
   </g>
   <g id="patch_17">
    <path d="M 325.941077 802.519687 
L 338.064801 802.519687 
L 338.064801 422.570288 
L 325.941077 422.570288 
z
" clip-path="url(#pcebafdbe4b)" style="fill: #ff7f0e; opacity: 0.5"/>
   </g>
   <g id="patch_18">
    <path d="M 338.064801 802.519687 
L 350.188526 802.519687 
L 350.188526 457.072179 
L 338.064801 457.072179 
z
" clip-path="url(#pcebafdbe4b)" style="fill: #ff7f0e; opacity: 0.5"/>
   </g>
   <g id="patch_19">
    <path d="M 350.188526 802.519687 
L 362.31225 802.519687 
L 362.31225 501.217456 
L 350.188526 501.217456 
z
" clip-path="url(#pcebafdbe4b)" style="fill: #ff7f0e; opacity: 0.5"/>
   </g>
   <g id="patch_20">
    <path d="M 362.31225 802.519687 
L 374.435974 802.519687 
L 374.435974 538.076619 
L 362.31225 538.076619 
z
" clip-path="url(#pcebafdbe4b)" style="fill: #ff7f0e; opacity: 0.5"/>
   </g>
   <g id="patch_21">
    <path d="M 374.435974 802.519687 
L 386.559699 802.519687 
L 386.559699 565.720992 
L 374.435974 565.720992 
z
" clip-path="url(#pcebafdbe4b)" style="fill: #ff7f0e; opacity: 0.5"/>
   </g>
   <g id="patch_22">
    <path d="M 386.559699 802.519687 
L 398.683423 802.519687 
L 398.683423 581.579004 
L 386.559699 581.579004 
z
" clip-path="url(#pcebafdbe4b)" style="fill: #ff7f0e; opacity: 0.5"/>
   </g>
   <g id="patch_23">
    <path d="M 398.683423 802.519687 
L 410.807148 802.519687 
L 410.807148 618.009573 
L 398.683423 618.009573 
z
" clip-path="url(#pcebafdbe4b)" style="fill: #ff7f0e; opacity: 0.5"/>
   </g>
   <g id="patch_24">
    <path d="M 410.807148 802.519687 
L 422.930872 802.519687 
L 422.930872 642.868078 
L 410.807148 642.868078 
z
" clip-path="url(#pcebafdbe4b)" style="fill: #ff7f0e; opacity: 0.5"/>
   </g>
   <g id="patch_25">
    <path d="M 422.930872 802.519687 
L 435.054597 802.519687 
L 435.054597 656.797413 
L 422.930872 656.797413 
z
" clip-path="url(#pcebafdbe4b)" style="fill: #ff7f0e; opacity: 0.5"/>
   </g>
   <g id="patch_26">
    <path d="M 435.054597 802.519687 
L 447.178321 802.519687 
L 447.178321 670.083856 
L 435.054597 670.083856 
z
" clip-path="url(#pcebafdbe4b)" style="fill: #ff7f0e; opacity: 0.5"/>
   </g>
   <g id="patch_27">
    <path d="M 447.178321 802.519687 
L 459.302045 802.519687 
L 459.302045 688.513438 
L 447.178321 688.513438 
z
" clip-path="url(#pcebafdbe4b)" style="fill: #ff7f0e; opacity: 0.5"/>
   </g>
   <g id="patch_28">
    <path d="M 459.302045 802.519687 
L 471.42577 802.519687 
L 471.42577 709.085994 
L 459.302045 709.085994 
z
" clip-path="url(#pcebafdbe4b)" style="fill: #ff7f0e; opacity: 0.5"/>
   </g>
   <g id="patch_29">
    <path d="M 471.42577 802.519687 
L 483.549494 802.519687 
L 483.549494 724.729709 
L 471.42577 724.729709 
z
" clip-path="url(#pcebafdbe4b)" style="fill: #ff7f0e; opacity: 0.5"/>
   </g>
   <g id="patch_30">
    <path d="M 483.549494 802.519687 
L 495.673219 802.519687 
L 495.673219 729.65855 
L 483.549494 729.65855 
z
" clip-path="url(#pcebafdbe4b)" style="fill: #ff7f0e; opacity: 0.5"/>
   </g>
   <g id="patch_31">
    <path d="M 495.673219 802.519687 
L 507.796943 802.519687 
L 507.796943 741.444911 
L 495.673219 741.444911 
z
" clip-path="url(#pcebafdbe4b)" style="fill: #ff7f0e; opacity: 0.5"/>
   </g>
   <g id="patch_32">
    <path d="M 507.796943 802.519687 
L 519.920668 802.519687 
L 519.920668 748.30243 
L 507.796943 748.30243 
z
" clip-path="url(#pcebafdbe4b)" style="fill: #ff7f0e; opacity: 0.5"/>
   </g>
   <g id="patch_33">
    <path d="M 519.920668 802.519687 
L 532.044392 802.519687 
L 532.044392 760.08879 
L 519.920668 760.08879 
z
" clip-path="url(#pcebafdbe4b)" style="fill: #ff7f0e; opacity: 0.5"/>
   </g>
   <g id="patch_34">
    <path d="M 532.044392 802.519687 
L 544.168116 802.519687 
L 544.168116 757.731518 
L 532.044392 757.731518 
z
" clip-path="url(#pcebafdbe4b)" style="fill: #ff7f0e; opacity: 0.5"/>
   </g>
   <g id="patch_35">
    <path d="M 544.168116 802.519687 
L 556.291841 802.519687 
L 556.291841 763.088955 
L 544.168116 763.088955 
z
" clip-path="url(#pcebafdbe4b)" style="fill: #ff7f0e; opacity: 0.5"/>
   </g>
   <g id="patch_36">
    <path d="M 556.291841 802.519687 
L 568.415565 802.519687 
L 568.415565 769.946473 
L 556.291841 769.946473 
z
" clip-path="url(#pcebafdbe4b)" style="fill: #ff7f0e; opacity: 0.5"/>
   </g>
   <g id="patch_37">
    <path d="M 568.415565 802.519687 
L 580.53929 802.519687 
L 580.53929 777.875479 
L 568.415565 777.875479 
z
" clip-path="url(#pcebafdbe4b)" style="fill: #ff7f0e; opacity: 0.5"/>
   </g>
   <g id="patch_38">
    <path d="M 580.53929 802.519687 
L 592.663014 802.519687 
L 592.663014 781.089941 
L 580.53929 781.089941 
z
" clip-path="url(#pcebafdbe4b)" style="fill: #ff7f0e; opacity: 0.5"/>
   </g>
   <g id="patch_39">
    <path d="M 592.663014 802.519687 
L 604.786739 802.519687 
L 604.786739 779.804157 
L 592.663014 779.804157 
z
" clip-path="url(#pcebafdbe4b)" style="fill: #ff7f0e; opacity: 0.5"/>
   </g>
   <g id="patch_40">
    <path d="M 604.786739 802.519687 
L 616.910463 802.519687 
L 616.910463 782.590024 
L 604.786739 782.590024 
z
" clip-path="url(#pcebafdbe4b)" style="fill: #ff7f0e; opacity: 0.5"/>
   </g>
   <g id="patch_41">
    <path d="M 616.910463 802.519687 
L 629.034187 802.519687 
L 629.034187 787.09027 
L 616.910463 787.09027 
z
" clip-path="url(#pcebafdbe4b)" style="fill: #ff7f0e; opacity: 0.5"/>
   </g>
   <g id="patch_42">
    <path d="M 629.034187 802.519687 
L 641.157912 802.519687 
L 641.157912 788.161758 
L 629.034187 788.161758 
z
" clip-path="url(#pcebafdbe4b)" style="fill: #ff7f0e; opacity: 0.5"/>
   </g>
   <g id="patch_43">
    <path d="M 641.157912 802.519687 
L 653.281636 802.519687 
L 653.281636 789.447542 
L 641.157912 789.447542 
z
" clip-path="url(#pcebafdbe4b)" style="fill: #ff7f0e; opacity: 0.5"/>
   </g>
   <g id="patch_44">
    <path d="M 653.281636 802.519687 
L 665.405361 802.519687 
L 665.405361 792.876302 
L 653.281636 792.876302 
z
" clip-path="url(#pcebafdbe4b)" style="fill: #ff7f0e; opacity: 0.5"/>
   </g>
   <g id="patch_45">
    <path d="M 665.405361 802.519687 
L 677.529085 802.519687 
L 677.529085 795.662169 
L 665.405361 795.662169 
z
" clip-path="url(#pcebafdbe4b)" style="fill: #ff7f0e; opacity: 0.5"/>
   </g>
   <g id="patch_46">
    <path d="M 677.529085 802.519687 
L 689.65281 802.519687 
L 689.65281 795.662169 
L 677.529085 795.662169 
z
" clip-path="url(#pcebafdbe4b)" style="fill: #ff7f0e; opacity: 0.5"/>
   </g>
   <g id="patch_47">
    <path d="M 689.65281 802.519687 
L 701.776534 802.519687 
L 701.776534 795.662169 
L 689.65281 795.662169 
z
" clip-path="url(#pcebafdbe4b)" style="fill: #ff7f0e; opacity: 0.5"/>
   </g>
   <g id="patch_48">
    <path d="M 701.776534 802.519687 
L 713.900259 802.519687 
L 713.900259 799.519523 
L 701.776534 799.519523 
z
" clip-path="url(#pcebafdbe4b)" style="fill: #ff7f0e; opacity: 0.5"/>
   </g>
   <g id="patch_49">
    <path d="M 713.900259 802.519687 
L 726.023983 802.519687 
L 726.023983 798.233738 
L 713.900259 798.233738 
z
" clip-path="url(#pcebafdbe4b)" style="fill: #ff7f0e; opacity: 0.5"/>
   </g>
   <g id="patch_50">
    <path d="M 726.023983 802.519687 
L 738.147707 802.519687 
L 738.147707 798.233738 
L 726.023983 798.233738 
z
" clip-path="url(#pcebafdbe4b)" style="fill: #ff7f0e; opacity: 0.5"/>
   </g>
   <g id="patch_51">
    <path d="M 738.147707 802.519687 
L 750.271432 802.519687 
L 750.271432 799.090928 
L 738.147707 799.090928 
z
" clip-path="url(#pcebafdbe4b)" style="fill: #ff7f0e; opacity: 0.5"/>
   </g>
   <g id="patch_52">
    <path d="M 750.271432 802.519687 
L 762.395156 802.519687 
L 762.395156 799.305226 
L 750.271432 799.305226 
z
" clip-path="url(#pcebafdbe4b)" style="fill: #ff7f0e; opacity: 0.5"/>
   </g>
   <g id="patch_53">
    <path d="M 762.395156 802.519687 
L 774.518881 802.519687 
L 774.518881 800.162415 
L 762.395156 800.162415 
z
" clip-path="url(#pcebafdbe4b)" style="fill: #ff7f0e; opacity: 0.5"/>
   </g>
   <g id="patch_54">
    <path d="M 774.518881 802.519687 
L 786.642605 802.519687 
L 786.642605 800.59101 
L 774.518881 800.59101 
z
" clip-path="url(#pcebafdbe4b)" style="fill: #ff7f0e; opacity: 0.5"/>
   </g>
   <g id="patch_55">
    <path d="M 786.642605 802.519687 
L 798.76633 802.519687 
L 798.76633 801.019605 
L 786.642605 801.019605 
z
" clip-path="url(#pcebafdbe4b)" style="fill: #ff7f0e; opacity: 0.5"/>
   </g>
   <g id="patch_56">
    <path d="M 798.76633 802.519687 
L 810.890054 802.519687 
L 810.890054 800.376713 
L 798.76633 800.376713 
z
" clip-path="url(#pcebafdbe4b)" style="fill: #ff7f0e; opacity: 0.5"/>
   </g>
   <g id="patch_57">
    <path d="M 810.890054 802.519687 
L 823.013778 802.519687 
L 823.013778 800.805308 
L 810.890054 800.805308 
z
" clip-path="url(#pcebafdbe4b)" style="fill: #ff7f0e; opacity: 0.5"/>
   </g>
   <g id="patch_58">
    <path d="M 823.013778 802.519687 
L 835.137503 802.519687 
L 835.137503 800.59101 
L 823.013778 800.59101 
z
" clip-path="url(#pcebafdbe4b)" style="fill: #ff7f0e; opacity: 0.5"/>
   </g>
   <g id="patch_59">
    <path d="M 835.137503 802.519687 
L 847.261227 802.519687 
L 847.261227 801.876795 
L 835.137503 801.876795 
z
" clip-path="url(#pcebafdbe4b)" style="fill: #ff7f0e; opacity: 0.5"/>
   </g>
   <g id="patch_60">
    <path d="M 847.261227 802.519687 
L 859.384952 802.519687 
L 859.384952 801.662498 
L 847.261227 801.662498 
z
" clip-path="url(#pcebafdbe4b)" style="fill: #ff7f0e; opacity: 0.5"/>
   </g>
   <g id="patch_61">
    <path d="M 859.384952 802.519687 
L 871.508676 802.519687 
L 871.508676 801.4482 
L 859.384952 801.4482 
z
" clip-path="url(#pcebafdbe4b)" style="fill: #ff7f0e; opacity: 0.5"/>
   </g>
   <g id="patch_62">
    <path d="M 871.508676 802.519687 
L 883.632401 802.519687 
L 883.632401 802.091093 
L 871.508676 802.091093 
z
" clip-path="url(#pcebafdbe4b)" style="fill: #ff7f0e; opacity: 0.5"/>
   </g>
   <g id="patch_63">
    <path d="M 883.632401 802.519687 
L 895.756125 802.519687 
L 895.756125 802.091093 
L 883.632401 802.091093 
z
" clip-path="url(#pcebafdbe4b)" style="fill: #ff7f0e; opacity: 0.5"/>
   </g>
   <g id="patch_64">
    <path d="M 895.756125 802.519687 
L 907.879849 802.519687 
L 907.879849 802.30539 
L 895.756125 802.30539 
z
" clip-path="url(#pcebafdbe4b)" style="fill: #ff7f0e; opacity: 0.5"/>
   </g>
   <g id="patch_65">
    <path d="M 907.879849 802.519687 
L 920.003574 802.519687 
L 920.003574 802.519687 
L 907.879849 802.519687 
z
" clip-path="url(#pcebafdbe4b)" style="fill: #ff7f0e; opacity: 0.5"/>
   </g>
   <g id="patch_66">
    <path d="M 920.003574 802.519687 
L 932.127298 802.519687 
L 932.127298 801.876795 
L 920.003574 801.876795 
z
" clip-path="url(#pcebafdbe4b)" style="fill: #ff7f0e; opacity: 0.5"/>
   </g>
   <g id="patch_67">
    <path d="M 932.127298 802.519687 
L 944.251023 802.519687 
L 944.251023 802.30539 
L 932.127298 802.30539 
z
" clip-path="url(#pcebafdbe4b)" style="fill: #ff7f0e; opacity: 0.5"/>
   </g>
   <g id="patch_68">
    <path d="M 944.251023 802.519687 
L 956.374747 802.519687 
L 956.374747 802.519687 
L 944.251023 802.519687 
z
" clip-path="url(#pcebafdbe4b)" style="fill: #ff7f0e; opacity: 0.5"/>
   </g>
   <g id="patch_69">
    <path d="M 956.374747 802.519687 
L 968.498472 802.519687 
L 968.498472 802.519687 
L 956.374747 802.519687 
z
" clip-path="url(#pcebafdbe4b)" style="fill: #ff7f0e; opacity: 0.5"/>
   </g>
   <g id="patch_70">
    <path d="M 968.498472 802.519687 
L 980.622196 802.519687 
L 980.622196 802.519687 
L 968.498472 802.519687 
z
" clip-path="url(#pcebafdbe4b)" style="fill: #ff7f0e; opacity: 0.5"/>
   </g>
   <g id="patch_71">
    <path d="M 980.622196 802.519687 
L 992.74592 802.519687 
L 992.74592 802.519687 
L 980.622196 802.519687 
z
" clip-path="url(#pcebafdbe4b)" style="fill: #ff7f0e; opacity: 0.5"/>
   </g>
   <g id="patch_72">
    <path d="M 992.74592 802.519687 
L 1004.869645 802.519687 
L 1004.869645 802.519687 
L 992.74592 802.519687 
z
" clip-path="url(#pcebafdbe4b)" style="fill: #ff7f0e; opacity: 0.5"/>
   </g>
   <g id="patch_73">
    <path d="M 1004.869645 802.519687 
L 1016.993369 802.519687 
L 1016.993369 802.519687 
L 1004.869645 802.519687 
z
" clip-path="url(#pcebafdbe4b)" style="fill: #ff7f0e; opacity: 0.5"/>
   </g>
   <g id="patch_74">
    <path d="M 1016.993369 802.519687 
L 1029.117094 802.519687 
L 1029.117094 802.519687 
L 1016.993369 802.519687 
z
" clip-path="url(#pcebafdbe4b)" style="fill: #ff7f0e; opacity: 0.5"/>
   </g>
   <g id="patch_75">
    <path d="M 1029.117094 802.519687 
L 1041.240818 802.519687 
L 1041.240818 802.30539 
L 1029.117094 802.30539 
z
" clip-path="url(#pcebafdbe4b)" style="fill: #ff7f0e; opacity: 0.5"/>
   </g>
   <g id="patch_76">
    <path d="M 1041.240818 802.519687 
L 1053.364543 802.519687 
L 1053.364543 802.519687 
L 1041.240818 802.519687 
z
" clip-path="url(#pcebafdbe4b)" style="fill: #ff7f0e; opacity: 0.5"/>
   </g>
   <g id="patch_77">
    <path d="M 1053.364543 802.519687 
L 1065.488267 802.519687 
L 1065.488267 802.519687 
L 1053.364543 802.519687 
z
" clip-path="url(#pcebafdbe4b)" style="fill: #ff7f0e; opacity: 0.5"/>
   </g>
   <g id="patch_78">
    <path d="M 1065.488267 802.519687 
L 1077.611991 802.519687 
L 1077.611991 802.519687 
L 1065.488267 802.519687 
z
" clip-path="url(#pcebafdbe4b)" style="fill: #ff7f0e; opacity: 0.5"/>
   </g>
   <g id="patch_79">
    <path d="M 1077.611991 802.519687 
L 1089.735716 802.519687 
L 1089.735716 802.519687 
L 1077.611991 802.519687 
z
" clip-path="url(#pcebafdbe4b)" style="fill: #ff7f0e; opacity: 0.5"/>
   </g>
   <g id="patch_80">
    <path d="M 1089.735716 802.519687 
L 1101.85944 802.519687 
L 1101.85944 802.30539 
L 1089.735716 802.30539 
z
" clip-path="url(#pcebafdbe4b)" style="fill: #ff7f0e; opacity: 0.5"/>
   </g>
   <g id="patch_81">
    <path d="M 1101.85944 802.519687 
L 1113.983165 802.519687 
L 1113.983165 802.519687 
L 1101.85944 802.519687 
z
" clip-path="url(#pcebafdbe4b)" style="fill: #ff7f0e; opacity: 0.5"/>
   </g>
   <g id="patch_82">
    <path d="M 1113.983165 802.519687 
L 1126.106889 802.519687 
L 1126.106889 802.519687 
L 1113.983165 802.519687 
z
" clip-path="url(#pcebafdbe4b)" style="fill: #ff7f0e; opacity: 0.5"/>
   </g>
   <g id="patch_83">
    <path d="M 1126.106889 802.519687 
L 1138.230614 802.519687 
L 1138.230614 802.519687 
L 1126.106889 802.519687 
z
" clip-path="url(#pcebafdbe4b)" style="fill: #ff7f0e; opacity: 0.5"/>
   </g>
   <g id="patch_84">
    <path d="M 1138.230614 802.519687 
L 1150.354338 802.519687 
L 1150.354338 802.519687 
L 1138.230614 802.519687 
z
" clip-path="url(#pcebafdbe4b)" style="fill: #ff7f0e; opacity: 0.5"/>
   </g>
   <g id="patch_85">
    <path d="M 1150.354338 802.519687 
L 1162.478062 802.519687 
L 1162.478062 802.519687 
L 1150.354338 802.519687 
z
" clip-path="url(#pcebafdbe4b)" style="fill: #ff7f0e; opacity: 0.5"/>
   </g>
   <g id="patch_86">
    <path d="M 1162.478062 802.519687 
L 1174.601787 802.519687 
L 1174.601787 802.519687 
L 1162.478062 802.519687 
z
" clip-path="url(#pcebafdbe4b)" style="fill: #ff7f0e; opacity: 0.5"/>
   </g>
   <g id="patch_87">
    <path d="M 1174.601787 802.519687 
L 1186.725511 802.519687 
L 1186.725511 802.519687 
L 1174.601787 802.519687 
z
" clip-path="url(#pcebafdbe4b)" style="fill: #ff7f0e; opacity: 0.5"/>
   </g>
   <g id="patch_88">
    <path d="M 1186.725511 802.519687 
L 1198.849236 802.519687 
L 1198.849236 802.519687 
L 1186.725511 802.519687 
z
" clip-path="url(#pcebafdbe4b)" style="fill: #ff7f0e; opacity: 0.5"/>
   </g>
   <g id="patch_89">
    <path d="M 1198.849236 802.519687 
L 1210.97296 802.519687 
L 1210.97296 802.519687 
L 1198.849236 802.519687 
z
" clip-path="url(#pcebafdbe4b)" style="fill: #ff7f0e; opacity: 0.5"/>
   </g>
   <g id="patch_90">
    <path d="M 1210.97296 802.519687 
L 1223.096685 802.519687 
L 1223.096685 802.519687 
L 1210.97296 802.519687 
z
" clip-path="url(#pcebafdbe4b)" style="fill: #ff7f0e; opacity: 0.5"/>
   </g>
   <g id="patch_91">
    <path d="M 1223.096685 802.519687 
L 1235.220409 802.519687 
L 1235.220409 802.519687 
L 1223.096685 802.519687 
z
" clip-path="url(#pcebafdbe4b)" style="fill: #ff7f0e; opacity: 0.5"/>
   </g>
   <g id="patch_92">
    <path d="M 1235.220409 802.519687 
L 1247.344134 802.519687 
L 1247.344134 802.519687 
L 1235.220409 802.519687 
z
" clip-path="url(#pcebafdbe4b)" style="fill: #ff7f0e; opacity: 0.5"/>
   </g>
   <g id="patch_93">
    <path d="M 1247.344134 802.519687 
L 1259.467858 802.519687 
L 1259.467858 802.519687 
L 1247.344134 802.519687 
z
" clip-path="url(#pcebafdbe4b)" style="fill: #ff7f0e; opacity: 0.5"/>
   </g>
   <g id="patch_94">
    <path d="M 1259.467858 802.519687 
L 1271.591582 802.519687 
L 1271.591582 802.519687 
L 1259.467858 802.519687 
z
" clip-path="url(#pcebafdbe4b)" style="fill: #ff7f0e; opacity: 0.5"/>
   </g>
   <g id="patch_95">
    <path d="M 1271.591582 802.519687 
L 1283.715307 802.519687 
L 1283.715307 802.519687 
L 1271.591582 802.519687 
z
" clip-path="url(#pcebafdbe4b)" style="fill: #ff7f0e; opacity: 0.5"/>
   </g>
   <g id="patch_96">
    <path d="M 1283.715307 802.519687 
L 1295.839031 802.519687 
L 1295.839031 802.519687 
L 1283.715307 802.519687 
z
" clip-path="url(#pcebafdbe4b)" style="fill: #ff7f0e; opacity: 0.5"/>
   </g>
   <g id="patch_97">
    <path d="M 1295.839031 802.519687 
L 1307.962756 802.519687 
L 1307.962756 802.519687 
L 1295.839031 802.519687 
z
" clip-path="url(#pcebafdbe4b)" style="fill: #ff7f0e; opacity: 0.5"/>
   </g>
   <g id="patch_98">
    <path d="M 1307.962756 802.519687 
L 1320.08648 802.519687 
L 1320.08648 802.519687 
L 1307.962756 802.519687 
z
" clip-path="url(#pcebafdbe4b)" style="fill: #ff7f0e; opacity: 0.5"/>
   </g>
   <g id="patch_99">
    <path d="M 1320.08648 802.519687 
L 1332.210205 802.519687 
L 1332.210205 802.519687 
L 1320.08648 802.519687 
z
" clip-path="url(#pcebafdbe4b)" style="fill: #ff7f0e; opacity: 0.5"/>
   </g>
   <g id="patch_100">
    <path d="M 1332.210205 802.519687 
L 1344.333929 802.519687 
L 1344.333929 802.519687 
L 1332.210205 802.519687 
z
" clip-path="url(#pcebafdbe4b)" style="fill: #ff7f0e; opacity: 0.5"/>
   </g>
   <g id="patch_101">
    <path d="M 1344.333929 802.519687 
L 1356.457653 802.519687 
L 1356.457653 802.519687 
L 1344.333929 802.519687 
z
" clip-path="url(#pcebafdbe4b)" style="fill: #ff7f0e; opacity: 0.5"/>
   </g>
   <g id="patch_102">
    <path d="M 1356.457653 802.519687 
L 1368.581378 802.519687 
L 1368.581378 802.30539 
L 1356.457653 802.30539 
z
" clip-path="url(#pcebafdbe4b)" style="fill: #ff7f0e; opacity: 0.5"/>
   </g>
   <g id="matplotlib.axis_1">
    <g id="xtick_1">
     <g id="line2d_1">
      <defs>
       <path id="ma93251b7ad" d="M 0 0 
L 0 3.5 
" style="stroke: #000000; stroke-width: 0.8"/>
      </defs>
      <g>
       <use xlink:href="#ma93251b7ad" x="155.560978" y="802.519687" style="stroke: #000000; stroke-width: 0.8"/>
      </g>
     </g>
     <g id="text_1">
      <!-- 0 -->
      <g transform="translate(149.834728 823.196875) scale(0.18 -0.18)">
       <defs>
        <path id="DejaVuSans-30" d="M 2034 4250 
Q 1547 4250 1301 3770 
Q 1056 3291 1056 2328 
Q 1056 1369 1301 889 
Q 1547 409 2034 409 
Q 2525 409 2770 889 
Q 3016 1369 3016 2328 
Q 3016 3291 2770 3770 
Q 2525 4250 2034 4250 
z
M 2034 4750 
Q 2819 4750 3233 4129 
Q 3647 3509 3647 2328 
Q 3647 1150 3233 529 
Q 2819 -91 2034 -91 
Q 1250 -91 836 529 
Q 422 1150 422 2328 
Q 422 3509 836 4129 
Q 1250 4750 2034 4750 
z
" transform="scale(0.015625)"/>
       </defs>
       <use xlink:href="#DejaVuSans-30"/>
      </g>
     </g>
    </g>
    <g id="xtick_2">
     <g id="line2d_2">
      <g>
       <use xlink:href="#ma93251b7ad" x="329.511164" y="802.519687" style="stroke: #000000; stroke-width: 0.8"/>
      </g>
     </g>
     <g id="text_2">
      <!-- 5 -->
      <g transform="translate(323.784914 823.196875) scale(0.18 -0.18)">
       <defs>
        <path id="DejaVuSans-35" d="M 691 4666 
L 3169 4666 
L 3169 4134 
L 1269 4134 
L 1269 2991 
Q 1406 3038 1543 3061 
Q 1681 3084 1819 3084 
Q 2600 3084 3056 2656 
Q 3513 2228 3513 1497 
Q 3513 744 3044 326 
Q 2575 -91 1722 -91 
Q 1428 -91 1123 -41 
Q 819 9 494 109 
L 494 744 
Q 775 591 1075 516 
Q 1375 441 1709 441 
Q 2250 441 2565 725 
Q 2881 1009 2881 1497 
Q 2881 1984 2565 2268 
Q 2250 2553 1709 2553 
Q 1456 2553 1204 2497 
Q 953 2441 691 2322 
L 691 4666 
z
" transform="scale(0.015625)"/>
       </defs>
       <use xlink:href="#DejaVuSans-35"/>
      </g>
     </g>
    </g>
    <g id="xtick_3">
     <g id="line2d_3">
      <g>
       <use xlink:href="#ma93251b7ad" x="503.461349" y="802.519687" style="stroke: #000000; stroke-width: 0.8"/>
      </g>
     </g>
     <g id="text_3">
      <!-- 10 -->
      <g transform="translate(492.008849 823.196875) scale(0.18 -0.18)">
       <defs>
        <path id="DejaVuSans-31" d="M 794 531 
L 1825 531 
L 1825 4091 
L 703 3866 
L 703 4441 
L 1819 4666 
L 2450 4666 
L 2450 531 
L 3481 531 
L 3481 0 
L 794 0 
L 794 531 
z
" transform="scale(0.015625)"/>
       </defs>
       <use xlink:href="#DejaVuSans-31"/>
       <use xlink:href="#DejaVuSans-30" x="63.623047"/>
      </g>
     </g>
    </g>
    <g id="xtick_4">
     <g id="line2d_4">
      <g>
       <use xlink:href="#ma93251b7ad" x="677.411535" y="802.519687" style="stroke: #000000; stroke-width: 0.8"/>
      </g>
     </g>
     <g id="text_4">
      <!-- 15 -->
      <g transform="translate(665.959035 823.196875) scale(0.18 -0.18)">
       <use xlink:href="#DejaVuSans-31"/>
       <use xlink:href="#DejaVuSans-35" x="63.623047"/>
      </g>
     </g>
    </g>
    <g id="xtick_5">
     <g id="line2d_5">
      <g>
       <use xlink:href="#ma93251b7ad" x="851.36172" y="802.519687" style="stroke: #000000; stroke-width: 0.8"/>
      </g>
     </g>
     <g id="text_5">
      <!-- 20 -->
      <g transform="translate(839.90922 823.196875) scale(0.18 -0.18)">
       <defs>
        <path id="DejaVuSans-32" d="M 1228 531 
L 3431 531 
L 3431 0 
L 469 0 
L 469 531 
Q 828 903 1448 1529 
Q 2069 2156 2228 2338 
Q 2531 2678 2651 2914 
Q 2772 3150 2772 3378 
Q 2772 3750 2511 3984 
Q 2250 4219 1831 4219 
Q 1534 4219 1204 4116 
Q 875 4013 500 3803 
L 500 4441 
Q 881 4594 1212 4672 
Q 1544 4750 1819 4750 
Q 2544 4750 2975 4387 
Q 3406 4025 3406 3419 
Q 3406 3131 3298 2873 
Q 3191 2616 2906 2266 
Q 2828 2175 2409 1742 
Q 1991 1309 1228 531 
z
" transform="scale(0.015625)"/>
       </defs>
       <use xlink:href="#DejaVuSans-32"/>
       <use xlink:href="#DejaVuSans-30" x="63.623047"/>
      </g>
     </g>
    </g>
    <g id="xtick_6">
     <g id="line2d_6">
      <g>
       <use xlink:href="#ma93251b7ad" x="1025.311906" y="802.519687" style="stroke: #000000; stroke-width: 0.8"/>
      </g>
     </g>
     <g id="text_6">
      <!-- 25 -->
      <g transform="translate(1013.859406 823.196875) scale(0.18 -0.18)">
       <use xlink:href="#DejaVuSans-32"/>
       <use xlink:href="#DejaVuSans-35" x="63.623047"/>
      </g>
     </g>
    </g>
    <g id="xtick_7">
     <g id="line2d_7">
      <g>
       <use xlink:href="#ma93251b7ad" x="1199.262091" y="802.519687" style="stroke: #000000; stroke-width: 0.8"/>
      </g>
     </g>
     <g id="text_7">
      <!-- 30 -->
      <g transform="translate(1187.809591 823.196875) scale(0.18 -0.18)">
       <defs>
        <path id="DejaVuSans-33" d="M 2597 2516 
Q 3050 2419 3304 2112 
Q 3559 1806 3559 1356 
Q 3559 666 3084 287 
Q 2609 -91 1734 -91 
Q 1441 -91 1130 -33 
Q 819 25 488 141 
L 488 750 
Q 750 597 1062 519 
Q 1375 441 1716 441 
Q 2309 441 2620 675 
Q 2931 909 2931 1356 
Q 2931 1769 2642 2001 
Q 2353 2234 1838 2234 
L 1294 2234 
L 1294 2753 
L 1863 2753 
Q 2328 2753 2575 2939 
Q 2822 3125 2822 3475 
Q 2822 3834 2567 4026 
Q 2313 4219 1838 4219 
Q 1578 4219 1281 4162 
Q 984 4106 628 3988 
L 628 4550 
Q 988 4650 1302 4700 
Q 1616 4750 1894 4750 
Q 2613 4750 3031 4423 
Q 3450 4097 3450 3541 
Q 3450 3153 3228 2886 
Q 3006 2619 2597 2516 
z
" transform="scale(0.015625)"/>
       </defs>
       <use xlink:href="#DejaVuSans-33"/>
       <use xlink:href="#DejaVuSans-30" x="63.623047"/>
      </g>
     </g>
    </g>
    <g id="xtick_8">
     <g id="line2d_8">
      <g>
       <use xlink:href="#ma93251b7ad" x="1373.212277" y="802.519687" style="stroke: #000000; stroke-width: 0.8"/>
      </g>
     </g>
     <g id="text_8">
      <!-- 35 -->
      <g transform="translate(1361.759777 823.196875) scale(0.18 -0.18)">
       <use xlink:href="#DejaVuSans-33"/>
       <use xlink:href="#DejaVuSans-35" x="63.623047"/>
      </g>
     </g>
    </g>
    <g id="text_9">
     <!-- x -->
     <g transform="translate(755.588594 848.416719) scale(0.23 -0.23)">
      <defs>
       <path id="DejaVuSans-78" d="M 3513 3500 
L 2247 1797 
L 3578 0 
L 2900 0 
L 1881 1375 
L 863 0 
L 184 0 
L 1544 1831 
L 300 3500 
L 978 3500 
L 1906 2253 
L 2834 3500 
L 3513 3500 
z
" transform="scale(0.015625)"/>
      </defs>
      <use xlink:href="#DejaVuSans-78"/>
     </g>
    </g>
   </g>
   <g id="matplotlib.axis_2">
    <g id="ytick_1">
     <g id="line2d_9">
      <defs>
       <path id="ma6d445937e" d="M 0 0 
L -3.5 0 
" style="stroke: #000000; stroke-width: 0.8"/>
      </defs>
      <g>
       <use xlink:href="#ma6d445937e" x="95.590313" y="802.519687" style="stroke: #000000; stroke-width: 0.8"/>
      </g>
     </g>
     <g id="text_10">
      <!-- 0.000 -->
      <g transform="translate(37.059688 809.358281) scale(0.18 -0.18)">
       <defs>
        <path id="DejaVuSans-2e" d="M 684 794 
L 1344 794 
L 1344 0 
L 684 0 
L 684 794 
z
" transform="scale(0.015625)"/>
       </defs>
       <use xlink:href="#DejaVuSans-30"/>
       <use xlink:href="#DejaVuSans-2e" x="63.623047"/>
       <use xlink:href="#DejaVuSans-30" x="95.410156"/>
       <use xlink:href="#DejaVuSans-30" x="159.033203"/>
       <use xlink:href="#DejaVuSans-30" x="222.65625"/>
      </g>
     </g>
    </g>
    <g id="ytick_2">
     <g id="line2d_10">
      <g>
       <use xlink:href="#ma6d445937e" x="95.590313" y="709.171002" style="stroke: #000000; stroke-width: 0.8"/>
      </g>
     </g>
     <g id="text_11">
      <!-- 0.025 -->
      <g transform="translate(37.059688 716.009596) scale(0.18 -0.18)">
       <use xlink:href="#DejaVuSans-30"/>
       <use xlink:href="#DejaVuSans-2e" x="63.623047"/>
       <use xlink:href="#DejaVuSans-30" x="95.410156"/>
       <use xlink:href="#DejaVuSans-32" x="159.033203"/>
       <use xlink:href="#DejaVuSans-35" x="222.65625"/>
      </g>
     </g>
    </g>
    <g id="ytick_3">
     <g id="line2d_11">
      <g>
       <use xlink:href="#ma6d445937e" x="95.590313" y="615.822317" style="stroke: #000000; stroke-width: 0.8"/>
      </g>
     </g>
     <g id="text_12">
      <!-- 0.050 -->
      <g transform="translate(37.059688 622.660911) scale(0.18 -0.18)">
       <use xlink:href="#DejaVuSans-30"/>
       <use xlink:href="#DejaVuSans-2e" x="63.623047"/>
       <use xlink:href="#DejaVuSans-30" x="95.410156"/>
       <use xlink:href="#DejaVuSans-35" x="159.033203"/>
       <use xlink:href="#DejaVuSans-30" x="222.65625"/>
      </g>
     </g>
    </g>
    <g id="ytick_4">
     <g id="line2d_12">
      <g>
       <use xlink:href="#ma6d445937e" x="95.590313" y="522.473632" style="stroke: #000000; stroke-width: 0.8"/>
      </g>
     </g>
     <g id="text_13">
      <!-- 0.075 -->
      <g transform="translate(37.059688 529.312226) scale(0.18 -0.18)">
       <defs>
        <path id="DejaVuSans-37" d="M 525 4666 
L 3525 4666 
L 3525 4397 
L 1831 0 
L 1172 0 
L 2766 4134 
L 525 4134 
L 525 4666 
z
" transform="scale(0.015625)"/>
       </defs>
       <use xlink:href="#DejaVuSans-30"/>
       <use xlink:href="#DejaVuSans-2e" x="63.623047"/>
       <use xlink:href="#DejaVuSans-30" x="95.410156"/>
       <use xlink:href="#DejaVuSans-37" x="159.033203"/>
       <use xlink:href="#DejaVuSans-35" x="222.65625"/>
      </g>
     </g>
    </g>
    <g id="ytick_5">
     <g id="line2d_13">
      <g>
       <use xlink:href="#ma6d445937e" x="95.590313" y="429.124947" style="stroke: #000000; stroke-width: 0.8"/>
      </g>
     </g>
     <g id="text_14">
      <!-- 0.100 -->
      <g transform="translate(37.059688 435.963541) scale(0.18 -0.18)">
       <use xlink:href="#DejaVuSans-30"/>
       <use xlink:href="#DejaVuSans-2e" x="63.623047"/>
       <use xlink:href="#DejaVuSans-31" x="95.410156"/>
       <use xlink:href="#DejaVuSans-30" x="159.033203"/>
       <use xlink:href="#DejaVuSans-30" x="222.65625"/>
      </g>
     </g>
    </g>
    <g id="ytick_6">
     <g id="line2d_14">
      <g>
       <use xlink:href="#ma6d445937e" x="95.590313" y="335.776262" style="stroke: #000000; stroke-width: 0.8"/>
      </g>
     </g>
     <g id="text_15">
      <!-- 0.125 -->
      <g transform="translate(37.059688 342.614856) scale(0.18 -0.18)">
       <use xlink:href="#DejaVuSans-30"/>
       <use xlink:href="#DejaVuSans-2e" x="63.623047"/>
       <use xlink:href="#DejaVuSans-31" x="95.410156"/>
       <use xlink:href="#DejaVuSans-32" x="159.033203"/>
       <use xlink:href="#DejaVuSans-35" x="222.65625"/>
      </g>
     </g>
    </g>
    <g id="ytick_7">
     <g id="line2d_15">
      <g>
       <use xlink:href="#ma6d445937e" x="95.590313" y="242.427577" style="stroke: #000000; stroke-width: 0.8"/>
      </g>
     </g>
     <g id="text_16">
      <!-- 0.150 -->
      <g transform="translate(37.059688 249.26617) scale(0.18 -0.18)">
       <use xlink:href="#DejaVuSans-30"/>
       <use xlink:href="#DejaVuSans-2e" x="63.623047"/>
       <use xlink:href="#DejaVuSans-31" x="95.410156"/>
       <use xlink:href="#DejaVuSans-35" x="159.033203"/>
       <use xlink:href="#DejaVuSans-30" x="222.65625"/>
      </g>
     </g>
    </g>
    <g id="ytick_8">
     <g id="line2d_16">
      <g>
       <use xlink:href="#ma6d445937e" x="95.590313" y="149.078892" style="stroke: #000000; stroke-width: 0.8"/>
      </g>
     </g>
     <g id="text_17">
      <!-- 0.175 -->
      <g transform="translate(37.059688 155.917485) scale(0.18 -0.18)">
       <use xlink:href="#DejaVuSans-30"/>
       <use xlink:href="#DejaVuSans-2e" x="63.623047"/>
       <use xlink:href="#DejaVuSans-31" x="95.410156"/>
       <use xlink:href="#DejaVuSans-37" x="159.033203"/>
       <use xlink:href="#DejaVuSans-35" x="222.65625"/>
      </g>
     </g>
    </g>
    <g id="text_18">
     <!-- Normed Hist Counts -->
     <g transform="translate(28.276406 551.513656) rotate(-90) scale(0.23 -0.23)">
      <defs>
       <path id="DejaVuSans-4e" d="M 628 4666 
L 1478 4666 
L 3547 763 
L 3547 4666 
L 4159 4666 
L 4159 0 
L 3309 0 
L 1241 3903 
L 1241 0 
L 628 0 
L 628 4666 
z
" transform="scale(0.015625)"/>
       <path id="DejaVuSans-6f" d="M 1959 3097 
Q 1497 3097 1228 2736 
Q 959 2375 959 1747 
Q 959 1119 1226 758 
Q 1494 397 1959 397 
Q 2419 397 2687 759 
Q 2956 1122 2956 1747 
Q 2956 2369 2687 2733 
Q 2419 3097 1959 3097 
z
M 1959 3584 
Q 2709 3584 3137 3096 
Q 3566 2609 3566 1747 
Q 3566 888 3137 398 
Q 2709 -91 1959 -91 
Q 1206 -91 779 398 
Q 353 888 353 1747 
Q 353 2609 779 3096 
Q 1206 3584 1959 3584 
z
" transform="scale(0.015625)"/>
       <path id="DejaVuSans-72" d="M 2631 2963 
Q 2534 3019 2420 3045 
Q 2306 3072 2169 3072 
Q 1681 3072 1420 2755 
Q 1159 2438 1159 1844 
L 1159 0 
L 581 0 
L 581 3500 
L 1159 3500 
L 1159 2956 
Q 1341 3275 1631 3429 
Q 1922 3584 2338 3584 
Q 2397 3584 2469 3576 
Q 2541 3569 2628 3553 
L 2631 2963 
z
" transform="scale(0.015625)"/>
       <path id="DejaVuSans-6d" d="M 3328 2828 
Q 3544 3216 3844 3400 
Q 4144 3584 4550 3584 
Q 5097 3584 5394 3201 
Q 5691 2819 5691 2113 
L 5691 0 
L 5113 0 
L 5113 2094 
Q 5113 2597 4934 2840 
Q 4756 3084 4391 3084 
Q 3944 3084 3684 2787 
Q 3425 2491 3425 1978 
L 3425 0 
L 2847 0 
L 2847 2094 
Q 2847 2600 2669 2842 
Q 2491 3084 2119 3084 
Q 1678 3084 1418 2786 
Q 1159 2488 1159 1978 
L 1159 0 
L 581 0 
L 581 3500 
L 1159 3500 
L 1159 2956 
Q 1356 3278 1631 3431 
Q 1906 3584 2284 3584 
Q 2666 3584 2933 3390 
Q 3200 3197 3328 2828 
z
" transform="scale(0.015625)"/>
       <path id="DejaVuSans-65" d="M 3597 1894 
L 3597 1613 
L 953 1613 
Q 991 1019 1311 708 
Q 1631 397 2203 397 
Q 2534 397 2845 478 
Q 3156 559 3463 722 
L 3463 178 
Q 3153 47 2828 -22 
Q 2503 -91 2169 -91 
Q 1331 -91 842 396 
Q 353 884 353 1716 
Q 353 2575 817 3079 
Q 1281 3584 2069 3584 
Q 2775 3584 3186 3129 
Q 3597 2675 3597 1894 
z
M 3022 2063 
Q 3016 2534 2758 2815 
Q 2500 3097 2075 3097 
Q 1594 3097 1305 2825 
Q 1016 2553 972 2059 
L 3022 2063 
z
" transform="scale(0.015625)"/>
       <path id="DejaVuSans-64" d="M 2906 2969 
L 2906 4863 
L 3481 4863 
L 3481 0 
L 2906 0 
L 2906 525 
Q 2725 213 2448 61 
Q 2172 -91 1784 -91 
Q 1150 -91 751 415 
Q 353 922 353 1747 
Q 353 2572 751 3078 
Q 1150 3584 1784 3584 
Q 2172 3584 2448 3432 
Q 2725 3281 2906 2969 
z
M 947 1747 
Q 947 1113 1208 752 
Q 1469 391 1925 391 
Q 2381 391 2643 752 
Q 2906 1113 2906 1747 
Q 2906 2381 2643 2742 
Q 2381 3103 1925 3103 
Q 1469 3103 1208 2742 
Q 947 2381 947 1747 
z
" transform="scale(0.015625)"/>
       <path id="DejaVuSans-20" transform="scale(0.015625)"/>
       <path id="DejaVuSans-48" d="M 628 4666 
L 1259 4666 
L 1259 2753 
L 3553 2753 
L 3553 4666 
L 4184 4666 
L 4184 0 
L 3553 0 
L 3553 2222 
L 1259 2222 
L 1259 0 
L 628 0 
L 628 4666 
z
" transform="scale(0.015625)"/>
       <path id="DejaVuSans-69" d="M 603 3500 
L 1178 3500 
L 1178 0 
L 603 0 
L 603 3500 
z
M 603 4863 
L 1178 4863 
L 1178 4134 
L 603 4134 
L 603 4863 
z
" transform="scale(0.015625)"/>
       <path id="DejaVuSans-73" d="M 2834 3397 
L 2834 2853 
Q 2591 2978 2328 3040 
Q 2066 3103 1784 3103 
Q 1356 3103 1142 2972 
Q 928 2841 928 2578 
Q 928 2378 1081 2264 
Q 1234 2150 1697 2047 
L 1894 2003 
Q 2506 1872 2764 1633 
Q 3022 1394 3022 966 
Q 3022 478 2636 193 
Q 2250 -91 1575 -91 
Q 1294 -91 989 -36 
Q 684 19 347 128 
L 347 722 
Q 666 556 975 473 
Q 1284 391 1588 391 
Q 1994 391 2212 530 
Q 2431 669 2431 922 
Q 2431 1156 2273 1281 
Q 2116 1406 1581 1522 
L 1381 1569 
Q 847 1681 609 1914 
Q 372 2147 372 2553 
Q 372 3047 722 3315 
Q 1072 3584 1716 3584 
Q 2034 3584 2315 3537 
Q 2597 3491 2834 3397 
z
" transform="scale(0.015625)"/>
       <path id="DejaVuSans-74" d="M 1172 4494 
L 1172 3500 
L 2356 3500 
L 2356 3053 
L 1172 3053 
L 1172 1153 
Q 1172 725 1289 603 
Q 1406 481 1766 481 
L 2356 481 
L 2356 0 
L 1766 0 
Q 1100 0 847 248 
Q 594 497 594 1153 
L 594 3053 
L 172 3053 
L 172 3500 
L 594 3500 
L 594 4494 
L 1172 4494 
z
" transform="scale(0.015625)"/>
       <path id="DejaVuSans-43" d="M 4122 4306 
L 4122 3641 
Q 3803 3938 3442 4084 
Q 3081 4231 2675 4231 
Q 1875 4231 1450 3742 
Q 1025 3253 1025 2328 
Q 1025 1406 1450 917 
Q 1875 428 2675 428 
Q 3081 428 3442 575 
Q 3803 722 4122 1019 
L 4122 359 
Q 3791 134 3420 21 
Q 3050 -91 2638 -91 
Q 1578 -91 968 557 
Q 359 1206 359 2328 
Q 359 3453 968 4101 
Q 1578 4750 2638 4750 
Q 3056 4750 3426 4639 
Q 3797 4528 4122 4306 
z
" transform="scale(0.015625)"/>
       <path id="DejaVuSans-75" d="M 544 1381 
L 544 3500 
L 1119 3500 
L 1119 1403 
Q 1119 906 1312 657 
Q 1506 409 1894 409 
Q 2359 409 2629 706 
Q 2900 1003 2900 1516 
L 2900 3500 
L 3475 3500 
L 3475 0 
L 2900 0 
L 2900 538 
Q 2691 219 2414 64 
Q 2138 -91 1772 -91 
Q 1169 -91 856 284 
Q 544 659 544 1381 
z
M 1991 3584 
L 1991 3584 
z
" transform="scale(0.015625)"/>
       <path id="DejaVuSans-6e" d="M 3513 2113 
L 3513 0 
L 2938 0 
L 2938 2094 
Q 2938 2591 2744 2837 
Q 2550 3084 2163 3084 
Q 1697 3084 1428 2787 
Q 1159 2491 1159 1978 
L 1159 0 
L 581 0 
L 581 3500 
L 1159 3500 
L 1159 2956 
Q 1366 3272 1645 3428 
Q 1925 3584 2291 3584 
Q 2894 3584 3203 3211 
Q 3513 2838 3513 2113 
z
" transform="scale(0.015625)"/>
      </defs>
      <use xlink:href="#DejaVuSans-4e"/>
      <use xlink:href="#DejaVuSans-6f" x="74.804688"/>
      <use xlink:href="#DejaVuSans-72" x="135.986328"/>
      <use xlink:href="#DejaVuSans-6d" x="175.349609"/>
      <use xlink:href="#DejaVuSans-65" x="272.761719"/>
      <use xlink:href="#DejaVuSans-64" x="334.285156"/>
      <use xlink:href="#DejaVuSans-20" x="397.761719"/>
      <use xlink:href="#DejaVuSans-48" x="429.548828"/>
      <use xlink:href="#DejaVuSans-69" x="504.744141"/>
      <use xlink:href="#DejaVuSans-73" x="532.527344"/>
      <use xlink:href="#DejaVuSans-74" x="584.626953"/>
      <use xlink:href="#DejaVuSans-20" x="623.835938"/>
      <use xlink:href="#DejaVuSans-43" x="655.623047"/>
      <use xlink:href="#DejaVuSans-6f" x="725.447266"/>
      <use xlink:href="#DejaVuSans-75" x="786.628906"/>
      <use xlink:href="#DejaVuSans-6e" x="850.007812"/>
      <use xlink:href="#DejaVuSans-74" x="913.386719"/>
      <use xlink:href="#DejaVuSans-73" x="952.595703"/>
     </g>
    </g>
   </g>
   <g id="line2d_17">
    <path d="M 165.892028 563.565318 
L 168.595871 512.479371 
L 171.263663 466.207891 
L 173.895403 424.358546 
L 176.491093 386.56826 
L 179.050731 352.50184 
L 181.556292 322.059236 
L 184.025802 294.70922 
L 186.45926 270.193489 
L 188.838642 248.431033 
L 191.163947 229.157963 
L 193.453201 212.006018 
L 195.688378 196.910653 
L 197.869478 183.670431 
L 199.996501 172.10215 
L 202.051421 162.121713 
L 204.052265 153.476374 
L 205.999032 146.030358 
L 207.873697 139.716885 
L 209.676259 134.401653 
L 211.424744 129.921024 
L 213.101126 126.221591 
L 214.705407 123.204288 
L 216.237584 120.780107 
L 217.715685 118.847886 
L 219.121683 117.365746 
L 220.473605 116.255341 
L 221.77145 115.468974 
L 223.033243 114.95766 
L 224.277011 114.689394 
L 225.520778 114.647003 
L 226.782572 114.82668 
L 228.080416 115.237045 
L 229.450364 115.909034 
L 230.892413 116.870868 
L 232.424591 118.166694 
L 234.064922 119.852538 
L 235.831433 121.996336 
L 237.724123 124.650838 
L 239.779044 127.927197 
L 241.996195 131.893116 
L 244.393602 136.649186 
L 246.989292 142.3038 
L 249.819314 149.01549 
L 252.901695 156.911436 
L 256.290511 166.219874 
L 260.03984 177.188275 
L 264.221784 190.13104 
L 268.962522 205.549984 
L 274.478362 224.274222 
L 281.237969 248.04603 
L 290.809573 282.598244 
L 311.412857 357.138502 
L 319.993052 387.214503 
L 327.527761 412.829537 
L 334.48565 435.707966 
L 341.065001 456.588783 
L 347.373968 475.882088 
L 353.484653 493.862404 
L 359.433108 510.682576 
L 365.255383 526.486474 
L 370.969505 541.360931 
L 376.611524 555.43234 
L 382.18144 568.730008 
L 387.679254 581.285111 
L 393.122991 593.168417 
L 398.530677 604.444328 
L 403.902312 615.135939 
L 409.255921 625.300216 
L 414.591504 634.956174 
L 419.909062 644.123123 
L 425.22662 652.849341 
L 430.544178 661.149977 
L 435.861736 669.040347 
L 441.179294 676.535818 
L 446.514877 683.675216 
L 451.868486 690.470121 
L 457.258146 696.953327 
L 462.683858 703.133198 
L 468.145621 709.018362 
L 473.66146 714.635502 
L 479.231377 719.990609 
L 484.85537 725.090038 
L 490.551466 729.955398 
L 496.319665 734.590958 
L 502.177991 739.014629 
L 508.144471 743.24144 
L 514.219105 747.272267 
L 520.419918 751.11952 
L 526.746911 754.783305 
L 533.218108 758.273934 
L 539.869562 761.608526 
L 546.701272 764.78385 
L 553.731264 767.805333 
L 560.977563 770.677208 
L 568.476221 773.409023 
L 576.245263 776.001657 
L 584.32074 778.460824 
L 592.720679 780.785328 
L 601.499156 782.982675 
L 610.692222 785.053324 
L 616.514497 786.253161 
L 616.514497 786.253161 
" clip-path="url(#pcebafdbe4b)" style="fill: none; stroke: #1f77b4; stroke-width: 2; stroke-linecap: square"/>
   </g>
   <g id="LineCollection_1">
    <path d="M 225.14224 802.519687 
L 225.14224 114.636471 
" clip-path="url(#pcebafdbe4b)" style="fill: none; stroke-dasharray: 5.55,2.4; stroke-dashoffset: 0; stroke: #cd5c5c; stroke-width: 1.5"/>
   </g>
   <g id="patch_103">
    <path d="M 95.590313 802.519687 
L 95.590313 69.4295 
" style="fill: none; stroke: #000000; stroke-width: 0.8; stroke-linejoin: miter; stroke-linecap: square"/>
   </g>
   <g id="patch_104">
    <path d="M 1429.2 802.519687 
L 1429.2 69.4295 
" style="fill: none; stroke: #000000; stroke-width: 0.8; stroke-linejoin: miter; stroke-linecap: square"/>
   </g>
   <g id="patch_105">
    <path d="M 95.590313 802.519687 
L 1429.2 802.519687 
" style="fill: none; stroke: #000000; stroke-width: 0.8; stroke-linejoin: miter; stroke-linecap: square"/>
   </g>
   <g id="patch_106">
    <path d="M 95.590313 69.4295 
L 1429.2 69.4295 
" style="fill: none; stroke: #000000; stroke-width: 0.8; stroke-linejoin: miter; stroke-linecap: square"/>
   </g>
   <g id="patch_107">
    <path d="M 802.733505 265.563202 
Q 562.100839 25.74003 229.235375 113.554134 
" style="fill: none; stroke: #cd5c5c; stroke-width: 2; stroke-linecap: round"/>
    <path d="M 240.179987 115.837874 
L 229.235375 113.554134 
L 237.629134 106.168688 
L 240.179987 115.837874 
z
" style="fill: #ffffff; stroke: #cd5c5c; stroke-width: 2; stroke-linecap: round"/>
   </g>
   <g id="text_19">
    <g id="patch_108">
     <path d="M 676.271933 302.454932 
C 680.021933 306.204932 966.135215 306.204932 969.885215 302.454932 
C 973.635215 298.704932 973.635215 274.509619 969.885215 270.759619 
C 966.135215 267.009619 680.021933 267.009619 676.271933 270.759619 
C 672.521933 274.509619 672.521933 298.704932 676.271933 302.454932 
z
" style="fill: #ffffff; stroke: #cd5c5c; stroke-width: 2; stroke-linejoin: miter"/>
    </g>
    <!-- Measured Mode: 2.000 -->
    <g style="fill: #cd5c5c" transform="translate(680.021933 293.505713) scale(0.25 -0.25)">
     <defs>
      <path id="DejaVuSans-4d" d="M 628 4666 
L 1569 4666 
L 2759 1491 
L 3956 4666 
L 4897 4666 
L 4897 0 
L 4281 0 
L 4281 4097 
L 3078 897 
L 2444 897 
L 1241 4097 
L 1241 0 
L 628 0 
L 628 4666 
z
" transform="scale(0.015625)"/>
      <path id="DejaVuSans-61" d="M 2194 1759 
Q 1497 1759 1228 1600 
Q 959 1441 959 1056 
Q 959 750 1161 570 
Q 1363 391 1709 391 
Q 2188 391 2477 730 
Q 2766 1069 2766 1631 
L 2766 1759 
L 2194 1759 
z
M 3341 1997 
L 3341 0 
L 2766 0 
L 2766 531 
Q 2569 213 2275 61 
Q 1981 -91 1556 -91 
Q 1019 -91 701 211 
Q 384 513 384 1019 
Q 384 1609 779 1909 
Q 1175 2209 1959 2209 
L 2766 2209 
L 2766 2266 
Q 2766 2663 2505 2880 
Q 2244 3097 1772 3097 
Q 1472 3097 1187 3025 
Q 903 2953 641 2809 
L 641 3341 
Q 956 3463 1253 3523 
Q 1550 3584 1831 3584 
Q 2591 3584 2966 3190 
Q 3341 2797 3341 1997 
z
" transform="scale(0.015625)"/>
      <path id="DejaVuSans-3a" d="M 750 794 
L 1409 794 
L 1409 0 
L 750 0 
L 750 794 
z
M 750 3309 
L 1409 3309 
L 1409 2516 
L 750 2516 
L 750 3309 
z
" transform="scale(0.015625)"/>
     </defs>
     <use xlink:href="#DejaVuSans-4d"/>
     <use xlink:href="#DejaVuSans-65" x="86.279297"/>
     <use xlink:href="#DejaVuSans-61" x="147.802734"/>
     <use xlink:href="#DejaVuSans-73" x="209.082031"/>
     <use xlink:href="#DejaVuSans-75" x="261.181641"/>
     <use xlink:href="#DejaVuSans-72" x="324.560547"/>
     <use xlink:href="#DejaVuSans-65" x="363.423828"/>
     <use xlink:href="#DejaVuSans-64" x="424.947266"/>
     <use xlink:href="#DejaVuSans-20" x="488.423828"/>
     <use xlink:href="#DejaVuSans-4d" x="520.210938"/>
     <use xlink:href="#DejaVuSans-6f" x="606.490234"/>
     <use xlink:href="#DejaVuSans-64" x="667.671875"/>
     <use xlink:href="#DejaVuSans-65" x="731.148438"/>
     <use xlink:href="#DejaVuSans-3a" x="792.671875"/>
     <use xlink:href="#DejaVuSans-20" x="826.363281"/>
     <use xlink:href="#DejaVuSans-32" x="858.150391"/>
     <use xlink:href="#DejaVuSans-2e" x="921.773438"/>
     <use xlink:href="#DejaVuSans-30" x="953.560547"/>
     <use xlink:href="#DejaVuSans-30" x="1017.183594"/>
     <use xlink:href="#DejaVuSans-30" x="1080.806641"/>
    </g>
   </g>
   <g id="text_20">
    <!-- Best fit to distribution: -->
    <g transform="translate(605.188281 32.075625) scale(0.28 -0.28)">
     <defs>
      <path id="DejaVuSans-42" d="M 1259 2228 
L 1259 519 
L 2272 519 
Q 2781 519 3026 730 
Q 3272 941 3272 1375 
Q 3272 1813 3026 2020 
Q 2781 2228 2272 2228 
L 1259 2228 
z
M 1259 4147 
L 1259 2741 
L 2194 2741 
Q 2656 2741 2882 2914 
Q 3109 3088 3109 3444 
Q 3109 3797 2882 3972 
Q 2656 4147 2194 4147 
L 1259 4147 
z
M 628 4666 
L 2241 4666 
Q 2963 4666 3353 4366 
Q 3744 4066 3744 3513 
Q 3744 3084 3544 2831 
Q 3344 2578 2956 2516 
Q 3422 2416 3680 2098 
Q 3938 1781 3938 1306 
Q 3938 681 3513 340 
Q 3088 0 2303 0 
L 628 0 
L 628 4666 
z
" transform="scale(0.015625)"/>
      <path id="DejaVuSans-66" d="M 2375 4863 
L 2375 4384 
L 1825 4384 
Q 1516 4384 1395 4259 
Q 1275 4134 1275 3809 
L 1275 3500 
L 2222 3500 
L 2222 3053 
L 1275 3053 
L 1275 0 
L 697 0 
L 697 3053 
L 147 3053 
L 147 3500 
L 697 3500 
L 697 3744 
Q 697 4328 969 4595 
Q 1241 4863 1831 4863 
L 2375 4863 
z
" transform="scale(0.015625)"/>
      <path id="DejaVuSans-62" d="M 3116 1747 
Q 3116 2381 2855 2742 
Q 2594 3103 2138 3103 
Q 1681 3103 1420 2742 
Q 1159 2381 1159 1747 
Q 1159 1113 1420 752 
Q 1681 391 2138 391 
Q 2594 391 2855 752 
Q 3116 1113 3116 1747 
z
M 1159 2969 
Q 1341 3281 1617 3432 
Q 1894 3584 2278 3584 
Q 2916 3584 3314 3078 
Q 3713 2572 3713 1747 
Q 3713 922 3314 415 
Q 2916 -91 2278 -91 
Q 1894 -91 1617 61 
Q 1341 213 1159 525 
L 1159 0 
L 581 0 
L 581 4863 
L 1159 4863 
L 1159 2969 
z
" transform="scale(0.015625)"/>
     </defs>
     <use xlink:href="#DejaVuSans-42"/>
     <use xlink:href="#DejaVuSans-65" x="68.603516"/>
     <use xlink:href="#DejaVuSans-73" x="130.126953"/>
     <use xlink:href="#DejaVuSans-74" x="182.226562"/>
     <use xlink:href="#DejaVuSans-20" x="221.435547"/>
     <use xlink:href="#DejaVuSans-66" x="253.222656"/>
     <use xlink:href="#DejaVuSans-69" x="288.427734"/>
     <use xlink:href="#DejaVuSans-74" x="316.210938"/>
     <use xlink:href="#DejaVuSans-20" x="355.419922"/>
     <use xlink:href="#DejaVuSans-74" x="387.207031"/>
     <use xlink:href="#DejaVuSans-6f" x="426.416016"/>
     <use xlink:href="#DejaVuSans-20" x="487.597656"/>
     <use xlink:href="#DejaVuSans-64" x="519.384766"/>
     <use xlink:href="#DejaVuSans-69" x="582.861328"/>
     <use xlink:href="#DejaVuSans-73" x="610.644531"/>
     <use xlink:href="#DejaVuSans-74" x="662.744141"/>
     <use xlink:href="#DejaVuSans-72" x="701.953125"/>
     <use xlink:href="#DejaVuSans-69" x="743.066406"/>
     <use xlink:href="#DejaVuSans-62" x="770.849609"/>
     <use xlink:href="#DejaVuSans-75" x="834.326172"/>
     <use xlink:href="#DejaVuSans-74" x="897.705078"/>
     <use xlink:href="#DejaVuSans-69" x="936.914062"/>
     <use xlink:href="#DejaVuSans-6f" x="964.697266"/>
     <use xlink:href="#DejaVuSans-6e" x="1025.878906"/>
     <use xlink:href="#DejaVuSans-3a" x="1089.257812"/>
    </g>
    <!-- ChiSquared(df=4.01, loc=-0.00, scale=1.00) -->
    <g transform="translate(449.160469 63.4295) scale(0.28 -0.28)">
     <defs>
      <path id="DejaVuSans-68" d="M 3513 2113 
L 3513 0 
L 2938 0 
L 2938 2094 
Q 2938 2591 2744 2837 
Q 2550 3084 2163 3084 
Q 1697 3084 1428 2787 
Q 1159 2491 1159 1978 
L 1159 0 
L 581 0 
L 581 4863 
L 1159 4863 
L 1159 2956 
Q 1366 3272 1645 3428 
Q 1925 3584 2291 3584 
Q 2894 3584 3203 3211 
Q 3513 2838 3513 2113 
z
" transform="scale(0.015625)"/>
      <path id="DejaVuSans-53" d="M 3425 4513 
L 3425 3897 
Q 3066 4069 2747 4153 
Q 2428 4238 2131 4238 
Q 1616 4238 1336 4038 
Q 1056 3838 1056 3469 
Q 1056 3159 1242 3001 
Q 1428 2844 1947 2747 
L 2328 2669 
Q 3034 2534 3370 2195 
Q 3706 1856 3706 1288 
Q 3706 609 3251 259 
Q 2797 -91 1919 -91 
Q 1588 -91 1214 -16 
Q 841 59 441 206 
L 441 856 
Q 825 641 1194 531 
Q 1563 422 1919 422 
Q 2459 422 2753 634 
Q 3047 847 3047 1241 
Q 3047 1584 2836 1778 
Q 2625 1972 2144 2069 
L 1759 2144 
Q 1053 2284 737 2584 
Q 422 2884 422 3419 
Q 422 4038 858 4394 
Q 1294 4750 2059 4750 
Q 2388 4750 2728 4690 
Q 3069 4631 3425 4513 
z
" transform="scale(0.015625)"/>
      <path id="DejaVuSans-71" d="M 947 1747 
Q 947 1113 1208 752 
Q 1469 391 1925 391 
Q 2381 391 2643 752 
Q 2906 1113 2906 1747 
Q 2906 2381 2643 2742 
Q 2381 3103 1925 3103 
Q 1469 3103 1208 2742 
Q 947 2381 947 1747 
z
M 2906 525 
Q 2725 213 2448 61 
Q 2172 -91 1784 -91 
Q 1150 -91 751 415 
Q 353 922 353 1747 
Q 353 2572 751 3078 
Q 1150 3584 1784 3584 
Q 2172 3584 2448 3432 
Q 2725 3281 2906 2969 
L 2906 3500 
L 3481 3500 
L 3481 -1331 
L 2906 -1331 
L 2906 525 
z
" transform="scale(0.015625)"/>
      <path id="DejaVuSans-28" d="M 1984 4856 
Q 1566 4138 1362 3434 
Q 1159 2731 1159 2009 
Q 1159 1288 1364 580 
Q 1569 -128 1984 -844 
L 1484 -844 
Q 1016 -109 783 600 
Q 550 1309 550 2009 
Q 550 2706 781 3412 
Q 1013 4119 1484 4856 
L 1984 4856 
z
" transform="scale(0.015625)"/>
      <path id="DejaVuSans-3d" d="M 678 2906 
L 4684 2906 
L 4684 2381 
L 678 2381 
L 678 2906 
z
M 678 1631 
L 4684 1631 
L 4684 1100 
L 678 1100 
L 678 1631 
z
" transform="scale(0.015625)"/>
      <path id="DejaVuSans-34" d="M 2419 4116 
L 825 1625 
L 2419 1625 
L 2419 4116 
z
M 2253 4666 
L 3047 4666 
L 3047 1625 
L 3713 1625 
L 3713 1100 
L 3047 1100 
L 3047 0 
L 2419 0 
L 2419 1100 
L 313 1100 
L 313 1709 
L 2253 4666 
z
" transform="scale(0.015625)"/>
      <path id="DejaVuSans-2c" d="M 750 794 
L 1409 794 
L 1409 256 
L 897 -744 
L 494 -744 
L 750 256 
L 750 794 
z
" transform="scale(0.015625)"/>
      <path id="DejaVuSans-6c" d="M 603 4863 
L 1178 4863 
L 1178 0 
L 603 0 
L 603 4863 
z
" transform="scale(0.015625)"/>
      <path id="DejaVuSans-63" d="M 3122 3366 
L 3122 2828 
Q 2878 2963 2633 3030 
Q 2388 3097 2138 3097 
Q 1578 3097 1268 2742 
Q 959 2388 959 1747 
Q 959 1106 1268 751 
Q 1578 397 2138 397 
Q 2388 397 2633 464 
Q 2878 531 3122 666 
L 3122 134 
Q 2881 22 2623 -34 
Q 2366 -91 2075 -91 
Q 1284 -91 818 406 
Q 353 903 353 1747 
Q 353 2603 823 3093 
Q 1294 3584 2113 3584 
Q 2378 3584 2631 3529 
Q 2884 3475 3122 3366 
z
" transform="scale(0.015625)"/>
      <path id="DejaVuSans-2d" d="M 313 2009 
L 1997 2009 
L 1997 1497 
L 313 1497 
L 313 2009 
z
" transform="scale(0.015625)"/>
      <path id="DejaVuSans-29" d="M 513 4856 
L 1013 4856 
Q 1481 4119 1714 3412 
Q 1947 2706 1947 2009 
Q 1947 1309 1714 600 
Q 1481 -109 1013 -844 
L 513 -844 
Q 928 -128 1133 580 
Q 1338 1288 1338 2009 
Q 1338 2731 1133 3434 
Q 928 4138 513 4856 
z
" transform="scale(0.015625)"/>
     </defs>
     <use xlink:href="#DejaVuSans-43"/>
     <use xlink:href="#DejaVuSans-68" x="69.824219"/>
     <use xlink:href="#DejaVuSans-69" x="133.203125"/>
     <use xlink:href="#DejaVuSans-53" x="160.986328"/>
     <use xlink:href="#DejaVuSans-71" x="224.462891"/>
     <use xlink:href="#DejaVuSans-75" x="287.939453"/>
     <use xlink:href="#DejaVuSans-61" x="351.318359"/>
     <use xlink:href="#DejaVuSans-72" x="412.597656"/>
     <use xlink:href="#DejaVuSans-65" x="451.460938"/>
     <use xlink:href="#DejaVuSans-64" x="512.984375"/>
     <use xlink:href="#DejaVuSans-28" x="576.460938"/>
     <use xlink:href="#DejaVuSans-64" x="615.474609"/>
     <use xlink:href="#DejaVuSans-66" x="678.951172"/>
     <use xlink:href="#DejaVuSans-3d" x="714.15625"/>
     <use xlink:href="#DejaVuSans-34" x="797.945312"/>
     <use xlink:href="#DejaVuSans-2e" x="861.568359"/>
     <use xlink:href="#DejaVuSans-30" x="893.355469"/>
     <use xlink:href="#DejaVuSans-31" x="956.978516"/>
     <use xlink:href="#DejaVuSans-2c" x="1020.601562"/>
     <use xlink:href="#DejaVuSans-20" x="1052.388672"/>
     <use xlink:href="#DejaVuSans-6c" x="1084.175781"/>
     <use xlink:href="#DejaVuSans-6f" x="1111.958984"/>
     <use xlink:href="#DejaVuSans-63" x="1173.140625"/>
     <use xlink:href="#DejaVuSans-3d" x="1228.121094"/>
     <use xlink:href="#DejaVuSans-2d" x="1311.910156"/>
     <use xlink:href="#DejaVuSans-30" x="1347.994141"/>
     <use xlink:href="#DejaVuSans-2e" x="1411.617188"/>
     <use xlink:href="#DejaVuSans-30" x="1443.404297"/>
     <use xlink:href="#DejaVuSans-30" x="1507.027344"/>
     <use xlink:href="#DejaVuSans-2c" x="1570.650391"/>
     <use xlink:href="#DejaVuSans-20" x="1602.4375"/>
     <use xlink:href="#DejaVuSans-73" x="1634.224609"/>
     <use xlink:href="#DejaVuSans-63" x="1686.324219"/>
     <use xlink:href="#DejaVuSans-61" x="1741.304688"/>
     <use xlink:href="#DejaVuSans-6c" x="1802.583984"/>
     <use xlink:href="#DejaVuSans-65" x="1830.367188"/>
     <use xlink:href="#DejaVuSans-3d" x="1891.890625"/>
     <use xlink:href="#DejaVuSans-31" x="1975.679688"/>
     <use xlink:href="#DejaVuSans-2e" x="2039.302734"/>
     <use xlink:href="#DejaVuSans-30" x="2071.089844"/>
     <use xlink:href="#DejaVuSans-30" x="2134.712891"/>
     <use xlink:href="#DejaVuSans-29" x="2198.335938"/>
    </g>
   </g>
   <g id="legend_1">
    <g id="patch_109">
     <path d="M 923.41875 159.0845 
L 1412.4 159.0845 
Q 1417.2 159.0845 1417.2 154.2845 
L 1417.2 86.2295 
Q 1417.2 81.4295 1412.4 81.4295 
L 923.41875 81.4295 
Q 918.61875 81.4295 918.61875 86.2295 
L 918.61875 154.2845 
Q 918.61875 159.0845 923.41875 159.0845 
z
" style="fill: #ffffff; opacity: 0.8; stroke: #cccccc; stroke-linejoin: miter"/>
    </g>
    <g id="line2d_18">
     <path d="M 928.21875 100.86575 
L 952.21875 100.86575 
L 976.21875 100.86575 
" style="fill: none; stroke: #1f77b4; stroke-width: 2; stroke-linecap: square"/>
    </g>
    <g id="text_21">
     <!-- ChiSquared fit PDF -->
     <g transform="translate(995.41875 109.26575) scale(0.24 -0.24)">
      <defs>
       <path id="DejaVuSans-50" d="M 1259 4147 
L 1259 2394 
L 2053 2394 
Q 2494 2394 2734 2622 
Q 2975 2850 2975 3272 
Q 2975 3691 2734 3919 
Q 2494 4147 2053 4147 
L 1259 4147 
z
M 628 4666 
L 2053 4666 
Q 2838 4666 3239 4311 
Q 3641 3956 3641 3272 
Q 3641 2581 3239 2228 
Q 2838 1875 2053 1875 
L 1259 1875 
L 1259 0 
L 628 0 
L 628 4666 
z
" transform="scale(0.015625)"/>
       <path id="DejaVuSans-44" d="M 1259 4147 
L 1259 519 
L 2022 519 
Q 2988 519 3436 956 
Q 3884 1394 3884 2338 
Q 3884 3275 3436 3711 
Q 2988 4147 2022 4147 
L 1259 4147 
z
M 628 4666 
L 1925 4666 
Q 3281 4666 3915 4102 
Q 4550 3538 4550 2338 
Q 4550 1131 3912 565 
Q 3275 0 1925 0 
L 628 0 
L 628 4666 
z
" transform="scale(0.015625)"/>
       <path id="DejaVuSans-46" d="M 628 4666 
L 3309 4666 
L 3309 4134 
L 1259 4134 
L 1259 2759 
L 3109 2759 
L 3109 2228 
L 1259 2228 
L 1259 0 
L 628 0 
L 628 4666 
z
" transform="scale(0.015625)"/>
      </defs>
      <use xlink:href="#DejaVuSans-43"/>
      <use xlink:href="#DejaVuSans-68" x="69.824219"/>
      <use xlink:href="#DejaVuSans-69" x="133.203125"/>
      <use xlink:href="#DejaVuSans-53" x="160.986328"/>
      <use xlink:href="#DejaVuSans-71" x="224.462891"/>
      <use xlink:href="#DejaVuSans-75" x="287.939453"/>
      <use xlink:href="#DejaVuSans-61" x="351.318359"/>
      <use xlink:href="#DejaVuSans-72" x="412.597656"/>
      <use xlink:href="#DejaVuSans-65" x="451.460938"/>
      <use xlink:href="#DejaVuSans-64" x="512.984375"/>
      <use xlink:href="#DejaVuSans-20" x="576.460938"/>
      <use xlink:href="#DejaVuSans-66" x="608.248047"/>
      <use xlink:href="#DejaVuSans-69" x="643.453125"/>
      <use xlink:href="#DejaVuSans-74" x="671.236328"/>
      <use xlink:href="#DejaVuSans-20" x="710.445312"/>
      <use xlink:href="#DejaVuSans-50" x="742.232422"/>
      <use xlink:href="#DejaVuSans-44" x="802.535156"/>
      <use xlink:href="#DejaVuSans-46" x="879.537109"/>
     </g>
    </g>
    <g id="patch_110">
     <path d="M 928.21875 144.49325 
L 976.21875 144.49325 
L 976.21875 127.69325 
L 928.21875 127.69325 
z
" style="fill: #ff7f0e; opacity: 0.5"/>
    </g>
    <g id="text_22">
     <!-- Generated (4 degrees of freedom) -->
     <g transform="translate(995.41875 144.49325) scale(0.24 -0.24)">
      <defs>
       <path id="DejaVuSans-47" d="M 3809 666 
L 3809 1919 
L 2778 1919 
L 2778 2438 
L 4434 2438 
L 4434 434 
Q 4069 175 3628 42 
Q 3188 -91 2688 -91 
Q 1594 -91 976 548 
Q 359 1188 359 2328 
Q 359 3472 976 4111 
Q 1594 4750 2688 4750 
Q 3144 4750 3555 4637 
Q 3966 4525 4313 4306 
L 4313 3634 
Q 3963 3931 3569 4081 
Q 3175 4231 2741 4231 
Q 1884 4231 1454 3753 
Q 1025 3275 1025 2328 
Q 1025 1384 1454 906 
Q 1884 428 2741 428 
Q 3075 428 3337 486 
Q 3600 544 3809 666 
z
" transform="scale(0.015625)"/>
       <path id="DejaVuSans-67" d="M 2906 1791 
Q 2906 2416 2648 2759 
Q 2391 3103 1925 3103 
Q 1463 3103 1205 2759 
Q 947 2416 947 1791 
Q 947 1169 1205 825 
Q 1463 481 1925 481 
Q 2391 481 2648 825 
Q 2906 1169 2906 1791 
z
M 3481 434 
Q 3481 -459 3084 -895 
Q 2688 -1331 1869 -1331 
Q 1566 -1331 1297 -1286 
Q 1028 -1241 775 -1147 
L 775 -588 
Q 1028 -725 1275 -790 
Q 1522 -856 1778 -856 
Q 2344 -856 2625 -561 
Q 2906 -266 2906 331 
L 2906 616 
Q 2728 306 2450 153 
Q 2172 0 1784 0 
Q 1141 0 747 490 
Q 353 981 353 1791 
Q 353 2603 747 3093 
Q 1141 3584 1784 3584 
Q 2172 3584 2450 3431 
Q 2728 3278 2906 2969 
L 2906 3500 
L 3481 3500 
L 3481 434 
z
" transform="scale(0.015625)"/>
      </defs>
      <use xlink:href="#DejaVuSans-47"/>
      <use xlink:href="#DejaVuSans-65" x="77.490234"/>
      <use xlink:href="#DejaVuSans-6e" x="139.013672"/>
      <use xlink:href="#DejaVuSans-65" x="202.392578"/>
      <use xlink:href="#DejaVuSans-72" x="263.916016"/>
      <use xlink:href="#DejaVuSans-61" x="305.029297"/>
      <use xlink:href="#DejaVuSans-74" x="366.308594"/>
      <use xlink:href="#DejaVuSans-65" x="405.517578"/>
      <use xlink:href="#DejaVuSans-64" x="467.041016"/>
      <use xlink:href="#DejaVuSans-20" x="530.517578"/>
      <use xlink:href="#DejaVuSans-28" x="562.304688"/>
      <use xlink:href="#DejaVuSans-34" x="601.318359"/>
      <use xlink:href="#DejaVuSans-20" x="664.941406"/>
      <use xlink:href="#DejaVuSans-64" x="696.728516"/>
      <use xlink:href="#DejaVuSans-65" x="760.205078"/>
      <use xlink:href="#DejaVuSans-67" x="821.728516"/>
      <use xlink:href="#DejaVuSans-72" x="885.205078"/>
      <use xlink:href="#DejaVuSans-65" x="924.068359"/>
      <use xlink:href="#DejaVuSans-65" x="985.591797"/>
      <use xlink:href="#DejaVuSans-73" x="1047.115234"/>
      <use xlink:href="#DejaVuSans-20" x="1099.214844"/>
      <use xlink:href="#DejaVuSans-6f" x="1131.001953"/>
      <use xlink:href="#DejaVuSans-66" x="1192.183594"/>
      <use xlink:href="#DejaVuSans-20" x="1227.388672"/>
      <use xlink:href="#DejaVuSans-66" x="1259.175781"/>
      <use xlink:href="#DejaVuSans-72" x="1294.380859"/>
      <use xlink:href="#DejaVuSans-65" x="1333.244141"/>
      <use xlink:href="#DejaVuSans-65" x="1394.767578"/>
      <use xlink:href="#DejaVuSans-64" x="1456.291016"/>
      <use xlink:href="#DejaVuSans-6f" x="1519.767578"/>
      <use xlink:href="#DejaVuSans-6d" x="1580.949219"/>
      <use xlink:href="#DejaVuSans-29" x="1678.361328"/>
     </g>
    </g>
   </g>
  </g>
 </g>
 <defs>
  <clipPath id="pcebafdbe4b">
   <rect x="95.590313" y="69.4295" width="1333.609688" height="733.090187"/>
  </clipPath>
 </defs>
</svg>
