<?xml version="1.0" encoding="utf-8" standalone="no"?>
<!DOCTYPE svg PUBLIC "-//W3C//DTD SVG 1.1//EN"
  "http://www.w3.org/Graphics/SVG/1.1/DTD/svg11.dtd">
<svg xmlns:xlink="http://www.w3.org/1999/xlink" width="1440pt" height="864pt" viewBox="0 0 1440 864" xmlns="http://www.w3.org/2000/svg" version="1.1">
 <metadata>
  <rdf:RDF xmlns:dc="http://purl.org/dc/elements/1.1/" xmlns:cc="http://creativecommons.org/ns#" xmlns:rdf="http://www.w3.org/1999/02/22-rdf-syntax-ns#">
   <cc:Work>
    <dc:type rdf:resource="http://purl.org/dc/dcmitype/StillImage"/>
    <dc:date>2022-03-09T18:53:54.121586</dc:date>
    <dc:format>image/svg+xml</dc:format>
    <dc:creator>
     <cc:Agent>
      <dc:title>Matplotlib v3.5.1, https://matplotlib.org/</dc:title>
     </cc:Agent>
    </dc:creator>
   </cc:Work>
  </rdf:RDF>
 </metadata>
 <defs>
  <style type="text/css">*{stroke-linejoin: round; stroke-linecap: butt}</style>
 </defs>
 <g id="figure_1">
  <g id="patch_1">
   <path d="M 0 864 
L 1440 864 
L 1440 0 
L 0 0 
z
" style="fill: #ffffff"/>
  </g>
  <g id="axes_1">
   <g id="patch_2">
    <path d="M 72.685313 828.779375 
L 1429.2 828.779375 
L 1429.2 38.075625 
L 72.685313 38.075625 
z
" style="fill: #ffffff"/>
   </g>
   <g id="patch_3">
    <path d="M 134.345071 828.779375 
L 146.677023 828.779375 
L 146.677023 826.788493 
L 134.345071 826.788493 
z
" clip-path="url(#p948450ee79)" style="fill: #1f77b4; opacity: 0.6"/>
   </g>
   <g id="patch_4">
    <path d="M 146.677023 828.779375 
L 159.008974 828.779375 
L 159.008974 821.811287 
L 146.677023 821.811287 
z
" clip-path="url(#p948450ee79)" style="fill: #1f77b4; opacity: 0.6"/>
   </g>
   <g id="patch_5">
    <path d="M 159.008974 828.779375 
L 171.340926 828.779375 
L 171.340926 820.815846 
L 159.008974 820.815846 
z
" clip-path="url(#p948450ee79)" style="fill: #1f77b4; opacity: 0.6"/>
   </g>
   <g id="patch_6">
    <path d="M 171.340926 828.779375 
L 183.672878 828.779375 
L 183.672878 808.372832 
L 171.340926 808.372832 
z
" clip-path="url(#p948450ee79)" style="fill: #1f77b4; opacity: 0.6"/>
   </g>
   <g id="patch_7">
    <path d="M 183.672878 828.779375 
L 196.00483 828.779375 
L 196.00483 805.386509 
L 183.672878 805.386509 
z
" clip-path="url(#p948450ee79)" style="fill: #1f77b4; opacity: 0.6"/>
   </g>
   <g id="patch_8">
    <path d="M 196.00483 828.779375 
L 208.336781 828.779375 
L 208.336781 793.938937 
L 196.00483 793.938937 
z
" clip-path="url(#p948450ee79)" style="fill: #1f77b4; opacity: 0.6"/>
   </g>
   <g id="patch_9">
    <path d="M 208.336781 828.779375 
L 220.668733 828.779375 
L 220.668733 780.998202 
L 208.336781 780.998202 
z
" clip-path="url(#p948450ee79)" style="fill: #1f77b4; opacity: 0.6"/>
   </g>
   <g id="patch_10">
    <path d="M 220.668733 828.779375 
L 233.000685 828.779375 
L 233.000685 752.13041 
L 220.668733 752.13041 
z
" clip-path="url(#p948450ee79)" style="fill: #1f77b4; opacity: 0.6"/>
   </g>
   <g id="patch_11">
    <path d="M 233.000685 828.779375 
L 245.332636 828.779375 
L 245.332636 734.710191 
L 233.000685 734.710191 
z
" clip-path="url(#p948450ee79)" style="fill: #1f77b4; opacity: 0.6"/>
   </g>
   <g id="patch_12">
    <path d="M 245.332636 828.779375 
L 257.664588 828.779375 
L 257.664588 722.267178 
L 245.332636 722.267178 
z
" clip-path="url(#p948450ee79)" style="fill: #1f77b4; opacity: 0.6"/>
   </g>
   <g id="patch_13">
    <path d="M 257.664588 828.779375 
L 269.99654 828.779375 
L 269.99654 694.394827 
L 257.664588 694.394827 
z
" clip-path="url(#p948450ee79)" style="fill: #1f77b4; opacity: 0.6"/>
   </g>
   <g id="patch_14">
    <path d="M 269.99654 828.779375 
L 282.328491 828.779375 
L 282.328491 660.549829 
L 269.99654 660.549829 
z
" clip-path="url(#p948450ee79)" style="fill: #1f77b4; opacity: 0.6"/>
   </g>
   <g id="patch_15">
    <path d="M 282.328491 828.779375 
L 294.660443 828.779375 
L 294.660443 610.280054 
L 282.328491 610.280054 
z
" clip-path="url(#p948450ee79)" style="fill: #1f77b4; opacity: 0.6"/>
   </g>
   <g id="patch_16">
    <path d="M 294.660443 828.779375 
L 306.992395 828.779375 
L 306.992395 594.850717 
L 294.660443 594.850717 
z
" clip-path="url(#p948450ee79)" style="fill: #1f77b4; opacity: 0.6"/>
   </g>
   <g id="patch_17">
    <path d="M 306.992395 828.779375 
L 319.324347 828.779375 
L 319.324347 555.033073 
L 306.992395 555.033073 
z
" clip-path="url(#p948450ee79)" style="fill: #1f77b4; opacity: 0.6"/>
   </g>
   <g id="patch_18">
    <path d="M 319.324347 828.779375 
L 331.656298 828.779375 
L 331.656298 520.192635 
L 319.324347 520.192635 
z
" clip-path="url(#p948450ee79)" style="fill: #1f77b4; opacity: 0.6"/>
   </g>
   <g id="patch_19">
    <path d="M 331.656298 828.779375 
L 343.98825 828.779375 
L 343.98825 456.982125 
L 331.656298 456.982125 
z
" clip-path="url(#p948450ee79)" style="fill: #1f77b4; opacity: 0.6"/>
   </g>
   <g id="patch_20">
    <path d="M 343.98825 828.779375 
L 356.320202 828.779375 
L 356.320202 451.009478 
L 343.98825 451.009478 
z
" clip-path="url(#p948450ee79)" style="fill: #1f77b4; opacity: 0.6"/>
   </g>
   <g id="patch_21">
    <path d="M 356.320202 828.779375 
L 368.652153 828.779375 
L 368.652153 392.278454 
L 356.320202 392.278454 
z
" clip-path="url(#p948450ee79)" style="fill: #1f77b4; opacity: 0.6"/>
   </g>
   <g id="patch_22">
    <path d="M 368.652153 828.779375 
L 380.984105 828.779375 
L 380.984105 355.944854 
L 368.652153 355.944854 
z
" clip-path="url(#p948450ee79)" style="fill: #1f77b4; opacity: 0.6"/>
   </g>
   <g id="patch_23">
    <path d="M 380.984105 828.779375 
L 393.316057 828.779375 
L 393.316057 322.099856 
L 380.984105 322.099856 
z
" clip-path="url(#p948450ee79)" style="fill: #1f77b4; opacity: 0.6"/>
   </g>
   <g id="patch_24">
    <path d="M 393.316057 828.779375 
L 405.648009 828.779375 
L 405.648009 291.241182 
L 393.316057 291.241182 
z
" clip-path="url(#p948450ee79)" style="fill: #1f77b4; opacity: 0.6"/>
   </g>
   <g id="patch_25">
    <path d="M 405.648009 828.779375 
L 417.97996 828.779375 
L 417.97996 259.387067 
L 405.648009 259.387067 
z
" clip-path="url(#p948450ee79)" style="fill: #1f77b4; opacity: 0.6"/>
   </g>
   <g id="patch_26">
    <path d="M 417.97996 828.779375 
L 430.311912 828.779375 
L 430.311912 217.08082 
L 417.97996 217.08082 
z
" clip-path="url(#p948450ee79)" style="fill: #1f77b4; opacity: 0.6"/>
   </g>
   <g id="patch_27">
    <path d="M 430.311912 828.779375 
L 442.643864 828.779375 
L 442.643864 197.669719 
L 430.311912 197.669719 
z
" clip-path="url(#p948450ee79)" style="fill: #1f77b4; opacity: 0.6"/>
   </g>
   <g id="patch_28">
    <path d="M 442.643864 828.779375 
L 454.975815 828.779375 
L 454.975815 199.660601 
L 442.643864 199.660601 
z
" clip-path="url(#p948450ee79)" style="fill: #1f77b4; opacity: 0.6"/>
   </g>
   <g id="patch_29">
    <path d="M 454.975815 828.779375 
L 467.307767 828.779375 
L 467.307767 143.9159 
L 454.975815 143.9159 
z
" clip-path="url(#p948450ee79)" style="fill: #1f77b4; opacity: 0.6"/>
   </g>
   <g id="patch_30">
    <path d="M 467.307767 828.779375 
L 479.639719 828.779375 
L 479.639719 120.523034 
L 467.307767 120.523034 
z
" clip-path="url(#p948450ee79)" style="fill: #1f77b4; opacity: 0.6"/>
   </g>
   <g id="patch_31">
    <path d="M 479.639719 828.779375 
L 491.97167 828.779375 
L 491.97167 112.559505 
L 479.639719 112.559505 
z
" clip-path="url(#p948450ee79)" style="fill: #1f77b4; opacity: 0.6"/>
   </g>
   <g id="patch_32">
    <path d="M 491.97167 828.779375 
L 504.303622 828.779375 
L 504.303622 98.125609 
L 491.97167 98.125609 
z
" clip-path="url(#p948450ee79)" style="fill: #1f77b4; opacity: 0.6"/>
   </g>
   <g id="patch_33">
    <path d="M 504.303622 828.779375 
L 516.635574 828.779375 
L 516.635574 99.618771 
L 504.303622 99.618771 
z
" clip-path="url(#p948450ee79)" style="fill: #1f77b4; opacity: 0.6"/>
   </g>
   <g id="patch_34">
    <path d="M 516.635574 828.779375 
L 528.967526 828.779375 
L 528.967526 102.605094 
L 516.635574 102.605094 
z
" clip-path="url(#p948450ee79)" style="fill: #1f77b4; opacity: 0.6"/>
   </g>
   <g id="patch_35">
    <path d="M 528.967526 828.779375 
L 541.299477 828.779375 
L 541.299477 75.728185 
L 528.967526 75.728185 
z
" clip-path="url(#p948450ee79)" style="fill: #1f77b4; opacity: 0.6"/>
   </g>
   <g id="patch_36">
    <path d="M 541.299477 828.779375 
L 553.631429 828.779375 
L 553.631429 92.152963 
L 541.299477 92.152963 
z
" clip-path="url(#p948450ee79)" style="fill: #1f77b4; opacity: 0.6"/>
   </g>
   <g id="patch_37">
    <path d="M 553.631429 828.779375 
L 565.963381 828.779375 
L 565.963381 76.225905 
L 553.631429 76.225905 
z
" clip-path="url(#p948450ee79)" style="fill: #1f77b4; opacity: 0.6"/>
   </g>
   <g id="patch_38">
    <path d="M 565.963381 828.779375 
L 578.295332 828.779375 
L 578.295332 126.993401 
L 565.963381 126.993401 
z
" clip-path="url(#p948450ee79)" style="fill: #1f77b4; opacity: 0.6"/>
   </g>
   <g id="patch_39">
    <path d="M 578.295332 828.779375 
L 590.627284 828.779375 
L 590.627284 160.340678 
L 578.295332 160.340678 
z
" clip-path="url(#p948450ee79)" style="fill: #1f77b4; opacity: 0.6"/>
   </g>
   <g id="patch_40">
    <path d="M 590.627284 828.779375 
L 602.959236 828.779375 
L 602.959236 136.947812 
L 590.627284 136.947812 
z
" clip-path="url(#p948450ee79)" style="fill: #1f77b4; opacity: 0.6"/>
   </g>
   <g id="patch_41">
    <path d="M 602.959236 828.779375 
L 615.291187 828.779375 
L 615.291187 195.181116 
L 602.959236 195.181116 
z
" clip-path="url(#p948450ee79)" style="fill: #1f77b4; opacity: 0.6"/>
   </g>
   <g id="patch_42">
    <path d="M 615.291187 828.779375 
L 627.623139 828.779375 
L 627.623139 214.094497 
L 615.291187 214.094497 
z
" clip-path="url(#p948450ee79)" style="fill: #1f77b4; opacity: 0.6"/>
   </g>
   <g id="patch_43">
    <path d="M 627.623139 828.779375 
L 639.955091 828.779375 
L 639.955091 220.564864 
L 627.623139 220.564864 
z
" clip-path="url(#p948450ee79)" style="fill: #1f77b4; opacity: 0.6"/>
   </g>
   <g id="patch_44">
    <path d="M 639.955091 828.779375 
L 652.287043 828.779375 
L 652.287043 235.994201 
L 639.955091 235.994201 
z
" clip-path="url(#p948450ee79)" style="fill: #1f77b4; opacity: 0.6"/>
   </g>
   <g id="patch_45">
    <path d="M 652.287043 828.779375 
L 664.618994 828.779375 
L 664.618994 254.409862 
L 652.287043 254.409862 
z
" clip-path="url(#p948450ee79)" style="fill: #1f77b4; opacity: 0.6"/>
   </g>
   <g id="patch_46">
    <path d="M 664.618994 828.779375 
L 676.950946 828.779375 
L 676.950946 299.702432 
L 664.618994 299.702432 
z
" clip-path="url(#p948450ee79)" style="fill: #1f77b4; opacity: 0.6"/>
   </g>
   <g id="patch_47">
    <path d="M 676.950946 828.779375 
L 689.282898 828.779375 
L 689.282898 314.136327 
L 676.950946 314.136327 
z
" clip-path="url(#p948450ee79)" style="fill: #1f77b4; opacity: 0.6"/>
   </g>
   <g id="patch_48">
    <path d="M 689.282898 828.779375 
L 701.614849 828.779375 
L 701.614849 364.903823 
L 689.282898 364.903823 
z
" clip-path="url(#p948450ee79)" style="fill: #1f77b4; opacity: 0.6"/>
   </g>
   <g id="patch_49">
    <path d="M 701.614849 828.779375 
L 713.946801 828.779375 
L 713.946801 358.433456 
L 701.614849 358.433456 
z
" clip-path="url(#p948450ee79)" style="fill: #1f77b4; opacity: 0.6"/>
   </g>
   <g id="patch_50">
    <path d="M 713.946801 828.779375 
L 726.278753 828.779375 
L 726.278753 392.278454 
L 713.946801 392.278454 
z
" clip-path="url(#p948450ee79)" style="fill: #1f77b4; opacity: 0.6"/>
   </g>
   <g id="patch_51">
    <path d="M 726.278753 828.779375 
L 738.610705 828.779375 
L 738.610705 431.100656 
L 726.278753 431.100656 
z
" clip-path="url(#p948450ee79)" style="fill: #1f77b4; opacity: 0.6"/>
   </g>
   <g id="patch_52">
    <path d="M 738.610705 828.779375 
L 750.942656 828.779375 
L 750.942656 472.909183 
L 738.610705 472.909183 
z
" clip-path="url(#p948450ee79)" style="fill: #1f77b4; opacity: 0.6"/>
   </g>
   <g id="patch_53">
    <path d="M 750.942656 828.779375 
L 763.274608 828.779375 
L 763.274608 515.215429 
L 750.942656 515.215429 
z
" clip-path="url(#p948450ee79)" style="fill: #1f77b4; opacity: 0.6"/>
   </g>
   <g id="patch_54">
    <path d="M 763.274608 828.779375 
L 775.60656 828.779375 
L 775.60656 550.553588 
L 763.274608 550.553588 
z
" clip-path="url(#p948450ee79)" style="fill: #1f77b4; opacity: 0.6"/>
   </g>
   <g id="patch_55">
    <path d="M 775.60656 828.779375 
L 787.938511 828.779375 
L 787.938511 549.558147 
L 775.60656 549.558147 
z
" clip-path="url(#p948450ee79)" style="fill: #1f77b4; opacity: 0.6"/>
   </g>
   <g id="patch_56">
    <path d="M 787.938511 828.779375 
L 800.270463 828.779375 
L 800.270463 575.937336 
L 787.938511 575.937336 
z
" clip-path="url(#p948450ee79)" style="fill: #1f77b4; opacity: 0.6"/>
   </g>
   <g id="patch_57">
    <path d="M 800.270463 828.779375 
L 812.602415 828.779375 
L 812.602415 584.398585 
L 800.270463 584.398585 
z
" clip-path="url(#p948450ee79)" style="fill: #1f77b4; opacity: 0.6"/>
   </g>
   <g id="patch_58">
    <path d="M 812.602415 828.779375 
L 824.934366 828.779375 
L 824.934366 618.741303 
L 812.602415 618.741303 
z
" clip-path="url(#p948450ee79)" style="fill: #1f77b4; opacity: 0.6"/>
   </g>
   <g id="patch_59">
    <path d="M 824.934366 828.779375 
L 837.266318 828.779375 
L 837.266318 627.700273 
L 824.934366 627.700273 
z
" clip-path="url(#p948450ee79)" style="fill: #1f77b4; opacity: 0.6"/>
   </g>
   <g id="patch_60">
    <path d="M 837.266318 828.779375 
L 849.59827 828.779375 
L 849.59827 662.042991 
L 837.266318 662.042991 
z
" clip-path="url(#p948450ee79)" style="fill: #1f77b4; opacity: 0.6"/>
   </g>
   <g id="patch_61">
    <path d="M 849.59827 828.779375 
L 861.930222 828.779375 
L 861.930222 690.910783 
L 849.59827 690.910783 
z
" clip-path="url(#p948450ee79)" style="fill: #1f77b4; opacity: 0.6"/>
   </g>
   <g id="patch_62">
    <path d="M 861.930222 828.779375 
L 874.262173 828.779375 
L 874.262173 694.394827 
L 861.930222 694.394827 
z
" clip-path="url(#p948450ee79)" style="fill: #1f77b4; opacity: 0.6"/>
   </g>
   <g id="patch_63">
    <path d="M 874.262173 828.779375 
L 886.594125 828.779375 
L 886.594125 711.317325 
L 874.262173 711.317325 
z
" clip-path="url(#p948450ee79)" style="fill: #1f77b4; opacity: 0.6"/>
   </g>
   <g id="patch_64">
    <path d="M 886.594125 828.779375 
L 898.926077 828.779375 
L 898.926077 715.79681 
L 886.594125 715.79681 
z
" clip-path="url(#p948450ee79)" style="fill: #1f77b4; opacity: 0.6"/>
   </g>
   <g id="patch_65">
    <path d="M 898.926077 828.779375 
L 911.258028 828.779375 
L 911.258028 733.21703 
L 898.926077 733.21703 
z
" clip-path="url(#p948450ee79)" style="fill: #1f77b4; opacity: 0.6"/>
   </g>
   <g id="patch_66">
    <path d="M 911.258028 828.779375 
L 923.58998 828.779375 
L 923.58998 730.728427 
L 911.258028 730.728427 
z
" clip-path="url(#p948450ee79)" style="fill: #1f77b4; opacity: 0.6"/>
   </g>
   <g id="patch_67">
    <path d="M 923.58998 828.779375 
L 935.921932 828.779375 
L 935.921932 747.153205 
L 923.58998 747.153205 
z
" clip-path="url(#p948450ee79)" style="fill: #1f77b4; opacity: 0.6"/>
   </g>
   <g id="patch_68">
    <path d="M 935.921932 828.779375 
L 948.253884 828.779375 
L 948.253884 761.08938 
L 935.921932 761.08938 
z
" clip-path="url(#p948450ee79)" style="fill: #1f77b4; opacity: 0.6"/>
   </g>
   <g id="patch_69">
    <path d="M 948.253884 828.779375 
L 960.585835 828.779375 
L 960.585835 766.564306 
L 948.253884 766.564306 
z
" clip-path="url(#p948450ee79)" style="fill: #1f77b4; opacity: 0.6"/>
   </g>
   <g id="patch_70">
    <path d="M 960.585835 828.779375 
L 972.917787 828.779375 
L 972.917787 775.025556 
L 960.585835 775.025556 
z
" clip-path="url(#p948450ee79)" style="fill: #1f77b4; opacity: 0.6"/>
   </g>
   <g id="patch_71">
    <path d="M 972.917787 828.779375 
L 985.249739 828.779375 
L 985.249739 794.934378 
L 972.917787 794.934378 
z
" clip-path="url(#p948450ee79)" style="fill: #1f77b4; opacity: 0.6"/>
   </g>
   <g id="patch_72">
    <path d="M 985.249739 828.779375 
L 997.58169 828.779375 
L 997.58169 794.436657 
L 985.249739 794.436657 
z
" clip-path="url(#p948450ee79)" style="fill: #1f77b4; opacity: 0.6"/>
   </g>
   <g id="patch_73">
    <path d="M 997.58169 828.779375 
L 1009.913642 828.779375 
L 1009.913642 795.432098 
L 997.58169 795.432098 
z
" clip-path="url(#p948450ee79)" style="fill: #1f77b4; opacity: 0.6"/>
   </g>
   <g id="patch_74">
    <path d="M 1009.913642 828.779375 
L 1022.245594 828.779375 
L 1022.245594 804.888789 
L 1009.913642 804.888789 
z
" clip-path="url(#p948450ee79)" style="fill: #1f77b4; opacity: 0.6"/>
   </g>
   <g id="patch_75">
    <path d="M 1022.245594 828.779375 
L 1034.577545 828.779375 
L 1034.577545 801.902465 
L 1022.245594 801.902465 
z
" clip-path="url(#p948450ee79)" style="fill: #1f77b4; opacity: 0.6"/>
   </g>
   <g id="patch_76">
    <path d="M 1034.577545 828.779375 
L 1046.909497 828.779375 
L 1046.909497 804.391068 
L 1034.577545 804.391068 
z
" clip-path="url(#p948450ee79)" style="fill: #1f77b4; opacity: 0.6"/>
   </g>
   <g id="patch_77">
    <path d="M 1046.909497 828.779375 
L 1059.241449 828.779375 
L 1059.241449 812.354597 
L 1046.909497 812.354597 
z
" clip-path="url(#p948450ee79)" style="fill: #1f77b4; opacity: 0.6"/>
   </g>
   <g id="patch_78">
    <path d="M 1059.241449 828.779375 
L 1071.573401 828.779375 
L 1071.573401 813.847759 
L 1059.241449 813.847759 
z
" clip-path="url(#p948450ee79)" style="fill: #1f77b4; opacity: 0.6"/>
   </g>
   <g id="patch_79">
    <path d="M 1071.573401 828.779375 
L 1083.905352 828.779375 
L 1083.905352 814.345479 
L 1071.573401 814.345479 
z
" clip-path="url(#p948450ee79)" style="fill: #1f77b4; opacity: 0.6"/>
   </g>
   <g id="patch_80">
    <path d="M 1083.905352 828.779375 
L 1096.237304 828.779375 
L 1096.237304 820.815846 
L 1083.905352 820.815846 
z
" clip-path="url(#p948450ee79)" style="fill: #1f77b4; opacity: 0.6"/>
   </g>
   <g id="patch_81">
    <path d="M 1096.237304 828.779375 
L 1108.569256 828.779375 
L 1108.569256 820.318126 
L 1096.237304 820.318126 
z
" clip-path="url(#p948450ee79)" style="fill: #1f77b4; opacity: 0.6"/>
   </g>
   <g id="patch_82">
    <path d="M 1108.569256 828.779375 
L 1120.901207 828.779375 
L 1120.901207 818.824964 
L 1108.569256 818.824964 
z
" clip-path="url(#p948450ee79)" style="fill: #1f77b4; opacity: 0.6"/>
   </g>
   <g id="patch_83">
    <path d="M 1120.901207 828.779375 
L 1133.233159 828.779375 
L 1133.233159 821.313567 
L 1120.901207 821.313567 
z
" clip-path="url(#p948450ee79)" style="fill: #1f77b4; opacity: 0.6"/>
   </g>
   <g id="patch_84">
    <path d="M 1133.233159 828.779375 
L 1145.565111 828.779375 
L 1145.565111 823.80217 
L 1133.233159 823.80217 
z
" clip-path="url(#p948450ee79)" style="fill: #1f77b4; opacity: 0.6"/>
   </g>
   <g id="patch_85">
    <path d="M 1145.565111 828.779375 
L 1157.897062 828.779375 
L 1157.897062 825.295331 
L 1145.565111 825.295331 
z
" clip-path="url(#p948450ee79)" style="fill: #1f77b4; opacity: 0.6"/>
   </g>
   <g id="patch_86">
    <path d="M 1157.897062 828.779375 
L 1170.229014 828.779375 
L 1170.229014 825.793052 
L 1157.897062 825.793052 
z
" clip-path="url(#p948450ee79)" style="fill: #1f77b4; opacity: 0.6"/>
   </g>
   <g id="patch_87">
    <path d="M 1170.229014 828.779375 
L 1182.560966 828.779375 
L 1182.560966 825.793052 
L 1170.229014 825.793052 
z
" clip-path="url(#p948450ee79)" style="fill: #1f77b4; opacity: 0.6"/>
   </g>
   <g id="patch_88">
    <path d="M 1182.560966 828.779375 
L 1194.892918 828.779375 
L 1194.892918 827.286213 
L 1182.560966 827.286213 
z
" clip-path="url(#p948450ee79)" style="fill: #1f77b4; opacity: 0.6"/>
   </g>
   <g id="patch_89">
    <path d="M 1194.892918 828.779375 
L 1207.224869 828.779375 
L 1207.224869 826.788493 
L 1194.892918 826.788493 
z
" clip-path="url(#p948450ee79)" style="fill: #1f77b4; opacity: 0.6"/>
   </g>
   <g id="patch_90">
    <path d="M 1207.224869 828.779375 
L 1219.556821 828.779375 
L 1219.556821 827.286213 
L 1207.224869 827.286213 
z
" clip-path="url(#p948450ee79)" style="fill: #1f77b4; opacity: 0.6"/>
   </g>
   <g id="patch_91">
    <path d="M 1219.556821 828.779375 
L 1231.888773 828.779375 
L 1231.888773 826.788493 
L 1219.556821 826.788493 
z
" clip-path="url(#p948450ee79)" style="fill: #1f77b4; opacity: 0.6"/>
   </g>
   <g id="patch_92">
    <path d="M 1231.888773 828.779375 
L 1244.220724 828.779375 
L 1244.220724 827.783934 
L 1231.888773 827.783934 
z
" clip-path="url(#p948450ee79)" style="fill: #1f77b4; opacity: 0.6"/>
   </g>
   <g id="patch_93">
    <path d="M 1244.220724 828.779375 
L 1256.552676 828.779375 
L 1256.552676 827.286213 
L 1244.220724 827.286213 
z
" clip-path="url(#p948450ee79)" style="fill: #1f77b4; opacity: 0.6"/>
   </g>
   <g id="patch_94">
    <path d="M 1256.552676 828.779375 
L 1268.884628 828.779375 
L 1268.884628 828.779375 
L 1256.552676 828.779375 
z
" clip-path="url(#p948450ee79)" style="fill: #1f77b4; opacity: 0.6"/>
   </g>
   <g id="patch_95">
    <path d="M 1268.884628 828.779375 
L 1281.21658 828.779375 
L 1281.21658 828.779375 
L 1268.884628 828.779375 
z
" clip-path="url(#p948450ee79)" style="fill: #1f77b4; opacity: 0.6"/>
   </g>
   <g id="patch_96">
    <path d="M 1281.21658 828.779375 
L 1293.548531 828.779375 
L 1293.548531 828.281654 
L 1281.21658 828.281654 
z
" clip-path="url(#p948450ee79)" style="fill: #1f77b4; opacity: 0.6"/>
   </g>
   <g id="patch_97">
    <path d="M 1293.548531 828.779375 
L 1305.880483 828.779375 
L 1305.880483 827.783934 
L 1293.548531 827.783934 
z
" clip-path="url(#p948450ee79)" style="fill: #1f77b4; opacity: 0.6"/>
   </g>
   <g id="patch_98">
    <path d="M 1305.880483 828.779375 
L 1318.212435 828.779375 
L 1318.212435 828.281654 
L 1305.880483 828.281654 
z
" clip-path="url(#p948450ee79)" style="fill: #1f77b4; opacity: 0.6"/>
   </g>
   <g id="patch_99">
    <path d="M 1318.212435 828.779375 
L 1330.544386 828.779375 
L 1330.544386 828.281654 
L 1318.212435 828.281654 
z
" clip-path="url(#p948450ee79)" style="fill: #1f77b4; opacity: 0.6"/>
   </g>
   <g id="patch_100">
    <path d="M 1330.544386 828.779375 
L 1342.876338 828.779375 
L 1342.876338 828.281654 
L 1330.544386 828.281654 
z
" clip-path="url(#p948450ee79)" style="fill: #1f77b4; opacity: 0.6"/>
   </g>
   <g id="patch_101">
    <path d="M 1342.876338 828.779375 
L 1355.20829 828.779375 
L 1355.20829 828.281654 
L 1342.876338 828.281654 
z
" clip-path="url(#p948450ee79)" style="fill: #1f77b4; opacity: 0.6"/>
   </g>
   <g id="patch_102">
    <path d="M 1355.20829 828.779375 
L 1367.540241 828.779375 
L 1367.540241 827.783934 
L 1355.20829 827.783934 
z
" clip-path="url(#p948450ee79)" style="fill: #1f77b4; opacity: 0.6"/>
   </g>
   <g id="matplotlib.axis_1">
    <g id="xtick_1">
     <g id="line2d_1">
      <defs>
       <path id="m032c6c68a2" d="M 0 0 
L 0 3.5 
" style="stroke: #000000; stroke-width: 0.8"/>
      </defs>
      <g>
       <use xlink:href="#m032c6c68a2" x="106.659396" y="828.779375" style="stroke: #000000; stroke-width: 0.8"/>
      </g>
     </g>
     <g id="text_1">
      <!-- 0 -->
      <g transform="translate(100.933146 849.456563)scale(0.18 -0.18)">
       <defs>
        <path id="DejaVuSans-30" d="M 2034 4250 
Q 1547 4250 1301 3770 
Q 1056 3291 1056 2328 
Q 1056 1369 1301 889 
Q 1547 409 2034 409 
Q 2525 409 2770 889 
Q 3016 1369 3016 2328 
Q 3016 3291 2770 3770 
Q 2525 4250 2034 4250 
z
M 2034 4750 
Q 2819 4750 3233 4129 
Q 3647 3509 3647 2328 
Q 3647 1150 3233 529 
Q 2819 -91 2034 -91 
Q 1250 -91 836 529 
Q 422 1150 422 2328 
Q 422 3509 836 4129 
Q 1250 4750 2034 4750 
z
" transform="scale(0.015625)"/>
       </defs>
       <use xlink:href="#DejaVuSans-30"/>
      </g>
     </g>
    </g>
    <g id="xtick_2">
     <g id="line2d_2">
      <g>
       <use xlink:href="#m032c6c68a2" x="348.461189" y="828.779375" style="stroke: #000000; stroke-width: 0.8"/>
      </g>
     </g>
     <g id="text_2">
      <!-- 1 -->
      <g transform="translate(342.734939 849.456563)scale(0.18 -0.18)">
       <defs>
        <path id="DejaVuSans-31" d="M 794 531 
L 1825 531 
L 1825 4091 
L 703 3866 
L 703 4441 
L 1819 4666 
L 2450 4666 
L 2450 531 
L 3481 531 
L 3481 0 
L 794 0 
L 794 531 
z
" transform="scale(0.015625)"/>
       </defs>
       <use xlink:href="#DejaVuSans-31"/>
      </g>
     </g>
    </g>
    <g id="xtick_3">
     <g id="line2d_3">
      <g>
       <use xlink:href="#m032c6c68a2" x="590.262981" y="828.779375" style="stroke: #000000; stroke-width: 0.8"/>
      </g>
     </g>
     <g id="text_3">
      <!-- 2 -->
      <g transform="translate(584.536731 849.456563)scale(0.18 -0.18)">
       <defs>
        <path id="DejaVuSans-32" d="M 1228 531 
L 3431 531 
L 3431 0 
L 469 0 
L 469 531 
Q 828 903 1448 1529 
Q 2069 2156 2228 2338 
Q 2531 2678 2651 2914 
Q 2772 3150 2772 3378 
Q 2772 3750 2511 3984 
Q 2250 4219 1831 4219 
Q 1534 4219 1204 4116 
Q 875 4013 500 3803 
L 500 4441 
Q 881 4594 1212 4672 
Q 1544 4750 1819 4750 
Q 2544 4750 2975 4387 
Q 3406 4025 3406 3419 
Q 3406 3131 3298 2873 
Q 3191 2616 2906 2266 
Q 2828 2175 2409 1742 
Q 1991 1309 1228 531 
z
" transform="scale(0.015625)"/>
       </defs>
       <use xlink:href="#DejaVuSans-32"/>
      </g>
     </g>
    </g>
    <g id="xtick_4">
     <g id="line2d_4">
      <g>
       <use xlink:href="#m032c6c68a2" x="832.064774" y="828.779375" style="stroke: #000000; stroke-width: 0.8"/>
      </g>
     </g>
     <g id="text_4">
      <!-- 3 -->
      <g transform="translate(826.338524 849.456563)scale(0.18 -0.18)">
       <defs>
        <path id="DejaVuSans-33" d="M 2597 2516 
Q 3050 2419 3304 2112 
Q 3559 1806 3559 1356 
Q 3559 666 3084 287 
Q 2609 -91 1734 -91 
Q 1441 -91 1130 -33 
Q 819 25 488 141 
L 488 750 
Q 750 597 1062 519 
Q 1375 441 1716 441 
Q 2309 441 2620 675 
Q 2931 909 2931 1356 
Q 2931 1769 2642 2001 
Q 2353 2234 1838 2234 
L 1294 2234 
L 1294 2753 
L 1863 2753 
Q 2328 2753 2575 2939 
Q 2822 3125 2822 3475 
Q 2822 3834 2567 4026 
Q 2313 4219 1838 4219 
Q 1578 4219 1281 4162 
Q 984 4106 628 3988 
L 628 4550 
Q 988 4650 1302 4700 
Q 1616 4750 1894 4750 
Q 2613 4750 3031 4423 
Q 3450 4097 3450 3541 
Q 3450 3153 3228 2886 
Q 3006 2619 2597 2516 
z
" transform="scale(0.015625)"/>
       </defs>
       <use xlink:href="#DejaVuSans-33"/>
      </g>
     </g>
    </g>
    <g id="xtick_5">
     <g id="line2d_5">
      <g>
       <use xlink:href="#m032c6c68a2" x="1073.866566" y="828.779375" style="stroke: #000000; stroke-width: 0.8"/>
      </g>
     </g>
     <g id="text_5">
      <!-- 4 -->
      <g transform="translate(1068.140316 849.456563)scale(0.18 -0.18)">
       <defs>
        <path id="DejaVuSans-34" d="M 2419 4116 
L 825 1625 
L 2419 1625 
L 2419 4116 
z
M 2253 4666 
L 3047 4666 
L 3047 1625 
L 3713 1625 
L 3713 1100 
L 3047 1100 
L 3047 0 
L 2419 0 
L 2419 1100 
L 313 1100 
L 313 1709 
L 2253 4666 
z
" transform="scale(0.015625)"/>
       </defs>
       <use xlink:href="#DejaVuSans-34"/>
      </g>
     </g>
    </g>
    <g id="xtick_6">
     <g id="line2d_6">
      <g>
       <use xlink:href="#m032c6c68a2" x="1315.668359" y="828.779375" style="stroke: #000000; stroke-width: 0.8"/>
      </g>
     </g>
     <g id="text_6">
      <!-- 5 -->
      <g transform="translate(1309.942109 849.456563)scale(0.18 -0.18)">
       <defs>
        <path id="DejaVuSans-35" d="M 691 4666 
L 3169 4666 
L 3169 4134 
L 1269 4134 
L 1269 2991 
Q 1406 3038 1543 3061 
Q 1681 3084 1819 3084 
Q 2600 3084 3056 2656 
Q 3513 2228 3513 1497 
Q 3513 744 3044 326 
Q 2575 -91 1722 -91 
Q 1428 -91 1123 -41 
Q 819 9 494 109 
L 494 744 
Q 775 591 1075 516 
Q 1375 441 1709 441 
Q 2250 441 2565 725 
Q 2881 1009 2881 1497 
Q 2881 1984 2565 2268 
Q 2250 2553 1709 2553 
Q 1456 2553 1204 2497 
Q 953 2441 691 2322 
L 691 4666 
z
" transform="scale(0.015625)"/>
       </defs>
       <use xlink:href="#DejaVuSans-35"/>
      </g>
     </g>
    </g>
   </g>
   <g id="matplotlib.axis_2">
    <g id="ytick_1">
     <g id="line2d_7">
      <defs>
       <path id="m7cc41c079e" d="M 0 0 
L -3.5 0 
" style="stroke: #000000; stroke-width: 0.8"/>
      </defs>
      <g>
       <use xlink:href="#m7cc41c079e" x="72.685313" y="828.779375" style="stroke: #000000; stroke-width: 0.8"/>
      </g>
     </g>
     <g id="text_7">
      <!-- 0.0 -->
      <g transform="translate(37.059688 835.617969)scale(0.18 -0.18)">
       <defs>
        <path id="DejaVuSans-2e" d="M 684 794 
L 1344 794 
L 1344 0 
L 684 0 
L 684 794 
z
" transform="scale(0.015625)"/>
       </defs>
       <use xlink:href="#DejaVuSans-30"/>
       <use xlink:href="#DejaVuSans-2e" x="63.623047"/>
       <use xlink:href="#DejaVuSans-30" x="95.410156"/>
      </g>
     </g>
    </g>
    <g id="ytick_2">
     <g id="line2d_8">
      <g>
       <use xlink:href="#m7cc41c079e" x="72.685313" y="701.860015" style="stroke: #000000; stroke-width: 0.8"/>
      </g>
     </g>
     <g id="text_8">
      <!-- 0.1 -->
      <g transform="translate(37.059688 708.698608)scale(0.18 -0.18)">
       <use xlink:href="#DejaVuSans-30"/>
       <use xlink:href="#DejaVuSans-2e" x="63.623047"/>
       <use xlink:href="#DejaVuSans-31" x="95.410156"/>
      </g>
     </g>
    </g>
    <g id="ytick_3">
     <g id="line2d_9">
      <g>
       <use xlink:href="#m7cc41c079e" x="72.685313" y="574.940654" style="stroke: #000000; stroke-width: 0.8"/>
      </g>
     </g>
     <g id="text_9">
      <!-- 0.2 -->
      <g transform="translate(37.059688 581.779248)scale(0.18 -0.18)">
       <use xlink:href="#DejaVuSans-30"/>
       <use xlink:href="#DejaVuSans-2e" x="63.623047"/>
       <use xlink:href="#DejaVuSans-32" x="95.410156"/>
      </g>
     </g>
    </g>
    <g id="ytick_4">
     <g id="line2d_10">
      <g>
       <use xlink:href="#m7cc41c079e" x="72.685313" y="448.021294" style="stroke: #000000; stroke-width: 0.8"/>
      </g>
     </g>
     <g id="text_10">
      <!-- 0.3 -->
      <g transform="translate(37.059688 454.859887)scale(0.18 -0.18)">
       <use xlink:href="#DejaVuSans-30"/>
       <use xlink:href="#DejaVuSans-2e" x="63.623047"/>
       <use xlink:href="#DejaVuSans-33" x="95.410156"/>
      </g>
     </g>
    </g>
    <g id="ytick_5">
     <g id="line2d_11">
      <g>
       <use xlink:href="#m7cc41c079e" x="72.685313" y="321.101933" style="stroke: #000000; stroke-width: 0.8"/>
      </g>
     </g>
     <g id="text_11">
      <!-- 0.4 -->
      <g transform="translate(37.059688 327.940527)scale(0.18 -0.18)">
       <use xlink:href="#DejaVuSans-30"/>
       <use xlink:href="#DejaVuSans-2e" x="63.623047"/>
       <use xlink:href="#DejaVuSans-34" x="95.410156"/>
      </g>
     </g>
    </g>
    <g id="ytick_6">
     <g id="line2d_12">
      <g>
       <use xlink:href="#m7cc41c079e" x="72.685313" y="194.182573" style="stroke: #000000; stroke-width: 0.8"/>
      </g>
     </g>
     <g id="text_12">
      <!-- 0.5 -->
      <g transform="translate(37.059688 201.021166)scale(0.18 -0.18)">
       <use xlink:href="#DejaVuSans-30"/>
       <use xlink:href="#DejaVuSans-2e" x="63.623047"/>
       <use xlink:href="#DejaVuSans-35" x="95.410156"/>
      </g>
     </g>
    </g>
    <g id="ytick_7">
     <g id="line2d_13">
      <g>
       <use xlink:href="#m7cc41c079e" x="72.685313" y="67.263212" style="stroke: #000000; stroke-width: 0.8"/>
      </g>
     </g>
     <g id="text_13">
      <!-- 0.6 -->
      <g transform="translate(37.059688 74.101806)scale(0.18 -0.18)">
       <defs>
        <path id="DejaVuSans-36" d="M 2113 2584 
Q 1688 2584 1439 2293 
Q 1191 2003 1191 1497 
Q 1191 994 1439 701 
Q 1688 409 2113 409 
Q 2538 409 2786 701 
Q 3034 994 3034 1497 
Q 3034 2003 2786 2293 
Q 2538 2584 2113 2584 
z
M 3366 4563 
L 3366 3988 
Q 3128 4100 2886 4159 
Q 2644 4219 2406 4219 
Q 1781 4219 1451 3797 
Q 1122 3375 1075 2522 
Q 1259 2794 1537 2939 
Q 1816 3084 2150 3084 
Q 2853 3084 3261 2657 
Q 3669 2231 3669 1497 
Q 3669 778 3244 343 
Q 2819 -91 2113 -91 
Q 1303 -91 875 529 
Q 447 1150 447 2328 
Q 447 3434 972 4092 
Q 1497 4750 2381 4750 
Q 2619 4750 2861 4703 
Q 3103 4656 3366 4563 
z
" transform="scale(0.015625)"/>
       </defs>
       <use xlink:href="#DejaVuSans-30"/>
       <use xlink:href="#DejaVuSans-2e" x="63.623047"/>
       <use xlink:href="#DejaVuSans-36" x="95.410156"/>
      </g>
     </g>
    </g>
    <g id="text_14">
     <!-- Normed Hist Counts -->
     <g transform="translate(28.276406 548.966563)rotate(-90)scale(0.23 -0.23)">
      <defs>
       <path id="DejaVuSans-4e" d="M 628 4666 
L 1478 4666 
L 3547 763 
L 3547 4666 
L 4159 4666 
L 4159 0 
L 3309 0 
L 1241 3903 
L 1241 0 
L 628 0 
L 628 4666 
z
" transform="scale(0.015625)"/>
       <path id="DejaVuSans-6f" d="M 1959 3097 
Q 1497 3097 1228 2736 
Q 959 2375 959 1747 
Q 959 1119 1226 758 
Q 1494 397 1959 397 
Q 2419 397 2687 759 
Q 2956 1122 2956 1747 
Q 2956 2369 2687 2733 
Q 2419 3097 1959 3097 
z
M 1959 3584 
Q 2709 3584 3137 3096 
Q 3566 2609 3566 1747 
Q 3566 888 3137 398 
Q 2709 -91 1959 -91 
Q 1206 -91 779 398 
Q 353 888 353 1747 
Q 353 2609 779 3096 
Q 1206 3584 1959 3584 
z
" transform="scale(0.015625)"/>
       <path id="DejaVuSans-72" d="M 2631 2963 
Q 2534 3019 2420 3045 
Q 2306 3072 2169 3072 
Q 1681 3072 1420 2755 
Q 1159 2438 1159 1844 
L 1159 0 
L 581 0 
L 581 3500 
L 1159 3500 
L 1159 2956 
Q 1341 3275 1631 3429 
Q 1922 3584 2338 3584 
Q 2397 3584 2469 3576 
Q 2541 3569 2628 3553 
L 2631 2963 
z
" transform="scale(0.015625)"/>
       <path id="DejaVuSans-6d" d="M 3328 2828 
Q 3544 3216 3844 3400 
Q 4144 3584 4550 3584 
Q 5097 3584 5394 3201 
Q 5691 2819 5691 2113 
L 5691 0 
L 5113 0 
L 5113 2094 
Q 5113 2597 4934 2840 
Q 4756 3084 4391 3084 
Q 3944 3084 3684 2787 
Q 3425 2491 3425 1978 
L 3425 0 
L 2847 0 
L 2847 2094 
Q 2847 2600 2669 2842 
Q 2491 3084 2119 3084 
Q 1678 3084 1418 2786 
Q 1159 2488 1159 1978 
L 1159 0 
L 581 0 
L 581 3500 
L 1159 3500 
L 1159 2956 
Q 1356 3278 1631 3431 
Q 1906 3584 2284 3584 
Q 2666 3584 2933 3390 
Q 3200 3197 3328 2828 
z
" transform="scale(0.015625)"/>
       <path id="DejaVuSans-65" d="M 3597 1894 
L 3597 1613 
L 953 1613 
Q 991 1019 1311 708 
Q 1631 397 2203 397 
Q 2534 397 2845 478 
Q 3156 559 3463 722 
L 3463 178 
Q 3153 47 2828 -22 
Q 2503 -91 2169 -91 
Q 1331 -91 842 396 
Q 353 884 353 1716 
Q 353 2575 817 3079 
Q 1281 3584 2069 3584 
Q 2775 3584 3186 3129 
Q 3597 2675 3597 1894 
z
M 3022 2063 
Q 3016 2534 2758 2815 
Q 2500 3097 2075 3097 
Q 1594 3097 1305 2825 
Q 1016 2553 972 2059 
L 3022 2063 
z
" transform="scale(0.015625)"/>
       <path id="DejaVuSans-64" d="M 2906 2969 
L 2906 4863 
L 3481 4863 
L 3481 0 
L 2906 0 
L 2906 525 
Q 2725 213 2448 61 
Q 2172 -91 1784 -91 
Q 1150 -91 751 415 
Q 353 922 353 1747 
Q 353 2572 751 3078 
Q 1150 3584 1784 3584 
Q 2172 3584 2448 3432 
Q 2725 3281 2906 2969 
z
M 947 1747 
Q 947 1113 1208 752 
Q 1469 391 1925 391 
Q 2381 391 2643 752 
Q 2906 1113 2906 1747 
Q 2906 2381 2643 2742 
Q 2381 3103 1925 3103 
Q 1469 3103 1208 2742 
Q 947 2381 947 1747 
z
" transform="scale(0.015625)"/>
       <path id="DejaVuSans-20" transform="scale(0.015625)"/>
       <path id="DejaVuSans-48" d="M 628 4666 
L 1259 4666 
L 1259 2753 
L 3553 2753 
L 3553 4666 
L 4184 4666 
L 4184 0 
L 3553 0 
L 3553 2222 
L 1259 2222 
L 1259 0 
L 628 0 
L 628 4666 
z
" transform="scale(0.015625)"/>
       <path id="DejaVuSans-69" d="M 603 3500 
L 1178 3500 
L 1178 0 
L 603 0 
L 603 3500 
z
M 603 4863 
L 1178 4863 
L 1178 4134 
L 603 4134 
L 603 4863 
z
" transform="scale(0.015625)"/>
       <path id="DejaVuSans-73" d="M 2834 3397 
L 2834 2853 
Q 2591 2978 2328 3040 
Q 2066 3103 1784 3103 
Q 1356 3103 1142 2972 
Q 928 2841 928 2578 
Q 928 2378 1081 2264 
Q 1234 2150 1697 2047 
L 1894 2003 
Q 2506 1872 2764 1633 
Q 3022 1394 3022 966 
Q 3022 478 2636 193 
Q 2250 -91 1575 -91 
Q 1294 -91 989 -36 
Q 684 19 347 128 
L 347 722 
Q 666 556 975 473 
Q 1284 391 1588 391 
Q 1994 391 2212 530 
Q 2431 669 2431 922 
Q 2431 1156 2273 1281 
Q 2116 1406 1581 1522 
L 1381 1569 
Q 847 1681 609 1914 
Q 372 2147 372 2553 
Q 372 3047 722 3315 
Q 1072 3584 1716 3584 
Q 2034 3584 2315 3537 
Q 2597 3491 2834 3397 
z
" transform="scale(0.015625)"/>
       <path id="DejaVuSans-74" d="M 1172 4494 
L 1172 3500 
L 2356 3500 
L 2356 3053 
L 1172 3053 
L 1172 1153 
Q 1172 725 1289 603 
Q 1406 481 1766 481 
L 2356 481 
L 2356 0 
L 1766 0 
Q 1100 0 847 248 
Q 594 497 594 1153 
L 594 3053 
L 172 3053 
L 172 3500 
L 594 3500 
L 594 4494 
L 1172 4494 
z
" transform="scale(0.015625)"/>
       <path id="DejaVuSans-43" d="M 4122 4306 
L 4122 3641 
Q 3803 3938 3442 4084 
Q 3081 4231 2675 4231 
Q 1875 4231 1450 3742 
Q 1025 3253 1025 2328 
Q 1025 1406 1450 917 
Q 1875 428 2675 428 
Q 3081 428 3442 575 
Q 3803 722 4122 1019 
L 4122 359 
Q 3791 134 3420 21 
Q 3050 -91 2638 -91 
Q 1578 -91 968 557 
Q 359 1206 359 2328 
Q 359 3453 968 4101 
Q 1578 4750 2638 4750 
Q 3056 4750 3426 4639 
Q 3797 4528 4122 4306 
z
" transform="scale(0.015625)"/>
       <path id="DejaVuSans-75" d="M 544 1381 
L 544 3500 
L 1119 3500 
L 1119 1403 
Q 1119 906 1312 657 
Q 1506 409 1894 409 
Q 2359 409 2629 706 
Q 2900 1003 2900 1516 
L 2900 3500 
L 3475 3500 
L 3475 0 
L 2900 0 
L 2900 538 
Q 2691 219 2414 64 
Q 2138 -91 1772 -91 
Q 1169 -91 856 284 
Q 544 659 544 1381 
z
M 1991 3584 
L 1991 3584 
z
" transform="scale(0.015625)"/>
       <path id="DejaVuSans-6e" d="M 3513 2113 
L 3513 0 
L 2938 0 
L 2938 2094 
Q 2938 2591 2744 2837 
Q 2550 3084 2163 3084 
Q 1697 3084 1428 2787 
Q 1159 2491 1159 1978 
L 1159 0 
L 581 0 
L 581 3500 
L 1159 3500 
L 1159 2956 
Q 1366 3272 1645 3428 
Q 1925 3584 2291 3584 
Q 2894 3584 3203 3211 
Q 3513 2838 3513 2113 
z
" transform="scale(0.015625)"/>
      </defs>
      <use xlink:href="#DejaVuSans-4e"/>
      <use xlink:href="#DejaVuSans-6f" x="74.804688"/>
      <use xlink:href="#DejaVuSans-72" x="135.986328"/>
      <use xlink:href="#DejaVuSans-6d" x="175.349609"/>
      <use xlink:href="#DejaVuSans-65" x="272.761719"/>
      <use xlink:href="#DejaVuSans-64" x="334.285156"/>
      <use xlink:href="#DejaVuSans-20" x="397.761719"/>
      <use xlink:href="#DejaVuSans-48" x="429.548828"/>
      <use xlink:href="#DejaVuSans-69" x="504.744141"/>
      <use xlink:href="#DejaVuSans-73" x="532.527344"/>
      <use xlink:href="#DejaVuSans-74" x="584.626953"/>
      <use xlink:href="#DejaVuSans-20" x="623.835938"/>
      <use xlink:href="#DejaVuSans-43" x="655.623047"/>
      <use xlink:href="#DejaVuSans-6f" x="725.447266"/>
      <use xlink:href="#DejaVuSans-75" x="786.628906"/>
      <use xlink:href="#DejaVuSans-6e" x="850.007812"/>
      <use xlink:href="#DejaVuSans-74" x="913.386719"/>
      <use xlink:href="#DejaVuSans-73" x="952.595703"/>
     </g>
    </g>
   </g>
   <g id="line2d_14">
    <path d="M 137.428059 827.275476 
L 143.594035 826.278145 
L 149.760011 824.918147 
L 155.925987 823.142665 
L 162.091962 820.901219 
L 168.257938 818.146049 
L 174.423914 814.832466 
L 180.58989 810.919179 
L 186.755866 806.368589 
L 192.921842 801.147059 
L 199.087817 795.225147 
L 205.253793 788.577815 
L 211.419769 781.184603 
L 217.585745 773.029769 
L 223.751721 764.102402 
L 229.917697 754.396497 
L 236.083673 743.910998 
L 242.249648 732.649809 
L 248.415624 720.621774 
L 254.5816 707.840621 
L 260.747576 694.324874 
L 266.913552 680.097745 
L 273.079528 665.186982 
L 279.245504 649.6247 
L 285.411479 633.447179 
L 291.577455 616.694645 
L 297.743431 599.411021 
L 303.909407 581.643659 
L 310.075383 563.443057 
L 322.407335 525.958016 
L 334.739286 487.410943 
L 371.735141 370.326828 
L 384.067093 332.509238 
L 390.233069 314.109206 
L 396.399045 296.128232 
L 402.565021 278.624025 
L 408.730996 261.652201 
L 414.896972 245.266023 
L 421.062948 229.516159 
L 427.228924 214.450465 
L 433.3949 200.113783 
L 439.560876 186.547766 
L 445.726852 173.790717 
L 451.892827 161.877456 
L 458.058803 150.839214 
L 464.224779 140.703538 
L 470.390755 131.49423 
L 476.556731 123.231298 
L 482.722707 115.930943 
L 488.888683 109.605552 
L 495.054658 104.263723 
L 501.220634 99.910307 
L 507.38661 96.546465 
L 513.552586 94.169752 
L 519.718562 92.774212 
L 525.884538 92.350488 
L 532.050513 92.885954 
L 538.216489 94.364854 
L 544.382465 96.768452 
L 550.548441 100.075204 
L 556.714417 104.260927 
L 562.880393 109.29898 
L 569.046369 115.160458 
L 575.212344 121.814383 
L 581.37832 129.227903 
L 587.544296 137.366494 
L 593.710272 146.194162 
L 599.876248 155.673646 
L 606.042224 165.766621 
L 612.2082 176.433896 
L 618.374175 187.63561 
L 624.540151 199.331426 
L 630.706127 211.480717 
L 636.872103 224.042746 
L 643.038079 236.976841 
L 649.204055 250.242561 
L 661.536006 277.609205 
L 673.867958 305.829556 
L 692.365886 349.108427 
L 717.029789 407.146517 
L 729.361741 435.757995 
L 741.693692 463.815087 
L 754.025644 491.137155 
L 766.357596 517.569109 
L 772.523572 530.409773 
L 778.689548 542.981203 
L 784.855523 555.271031 
L 791.021499 567.268372 
L 797.187475 578.96378 
L 803.353451 590.349206 
L 809.519427 601.417947 
L 815.685403 612.164598 
L 821.851379 622.584994 
L 828.017354 632.676154 
L 834.18333 642.436223 
L 840.349306 651.864409 
L 846.515282 660.960925 
L 852.681258 669.726921 
L 858.847234 678.164428 
L 865.01321 686.276291 
L 871.179185 694.066108 
L 877.345161 701.538167 
L 883.511137 708.697388 
L 889.677113 715.549262 
L 895.843089 722.099794 
L 902.009065 728.355445 
L 908.17504 734.323079 
L 914.341016 740.009909 
L 920.506992 745.42345 
L 926.672968 750.571467 
L 932.838944 755.46193 
L 939.00492 760.102974 
L 945.170896 764.502852 
L 951.336871 768.669904 
L 957.502847 772.612513 
L 963.668823 776.339078 
L 969.834799 779.857979 
L 976.000775 783.17755 
L 982.166751 786.306052 
L 988.332727 789.25165 
L 994.498702 792.022393 
L 1000.664678 794.626188 
L 1006.830654 797.070791 
L 1012.99663 799.363788 
L 1019.162606 801.512579 
L 1025.328582 803.524372 
L 1031.494558 805.40617 
L 1037.660533 807.164764 
L 1049.992485 810.338405 
L 1062.324437 813.095175 
L 1074.656388 815.481291 
L 1086.98834 817.539296 
L 1099.320292 819.308098 
L 1111.652244 820.823063 
L 1123.984195 822.116156 
L 1136.316147 823.216106 
L 1148.648099 824.148591 
L 1167.146026 825.28256 
L 1185.643954 826.156719 
L 1204.141881 826.825601 
L 1228.805785 827.473684 
L 1259.635664 828.003513 
L 1296.631519 828.37393 
L 1345.959326 828.615579 
L 1364.457254 828.66417 
L 1364.457254 828.66417 
" clip-path="url(#p948450ee79)" style="fill: none; stroke: #ff7f0e; stroke-width: 2; stroke-linecap: square"/>
   </g>
   <g id="line2d_15">
    <path d="M 137.428059 823.089612 
L 143.594035 821.730131 
L 149.760011 820.11513 
L 155.925987 818.211114 
L 162.091962 815.982708 
L 168.257938 813.392925 
L 174.423914 810.403483 
L 180.58989 806.975182 
L 186.755866 803.068313 
L 192.921842 798.643124 
L 199.087817 793.66031 
L 205.253793 788.081535 
L 211.419769 781.869976 
L 217.585745 774.990871 
L 223.751721 767.41208 
L 229.917697 759.104627 
L 236.083673 750.043232 
L 242.249648 740.206817 
L 248.415624 729.578975 
L 254.5816 718.148397 
L 260.747576 705.909248 
L 266.913552 692.861487 
L 273.079528 679.011122 
L 279.245504 664.370401 
L 285.411479 648.957927 
L 291.577455 632.798708 
L 297.743431 615.924121 
L 303.909407 598.371818 
L 310.075383 580.185544 
L 316.241359 561.414893 
L 322.407335 542.115 
L 328.57331 522.346166 
L 340.905262 481.666071 
L 353.237214 439.942767 
L 377.901117 355.87236 
L 390.233069 314.836404 
L 396.399045 294.855647 
L 402.565021 275.339439 
L 408.730996 256.364825 
L 414.896972 238.005997 
L 421.062948 220.333802 
L 427.228924 203.415291 
L 433.3949 187.313303 
L 439.560876 172.086108 
L 445.726852 157.787091 
L 451.892827 144.464486 
L 458.058803 132.161162 
L 464.224779 120.914463 
L 470.390755 110.75609 
L 476.556731 101.71204 
L 482.722707 93.802586 
L 488.888683 87.04231 
L 495.054658 81.440168 
L 501.220634 76.999608 
L 507.38661 73.718716 
L 513.552586 71.590399 
L 519.718562 70.602599 
L 525.884538 70.738538 
L 532.050513 71.976978 
L 538.216489 74.29251 
L 544.382465 77.655857 
L 550.548441 82.034185 
L 556.714417 87.391433 
L 562.880393 93.688642 
L 569.046369 100.88429 
L 575.212344 108.934629 
L 581.37832 117.794018 
L 587.544296 127.415252 
L 593.710272 137.749883 
L 599.876248 148.74853 
L 606.042224 160.361185 
L 612.2082 172.537498 
L 618.374175 185.227051 
L 624.540151 198.37962 
L 630.706127 211.945414 
L 636.872103 225.875306 
L 649.204055 254.635401 
L 661.536006 284.287557 
L 680.033934 329.67916 
L 704.697837 390.281095 
L 717.029789 420.013852 
L 729.361741 449.069427 
L 741.693692 477.26425 
L 754.025644 504.446054 
L 760.19162 517.617723 
L 766.357596 530.492509 
L 772.523572 543.059505 
L 778.689548 555.309432 
L 784.855523 567.234568 
L 791.021499 578.828673 
L 797.187475 590.086914 
L 803.353451 601.005785 
L 809.519427 611.58303 
L 815.685403 621.817566 
L 821.851379 631.709397 
L 828.017354 641.259546 
L 834.18333 650.469969 
L 840.349306 659.343487 
L 846.515282 667.883705 
L 852.681258 676.094947 
L 858.847234 683.982184 
L 865.01321 691.550965 
L 871.179185 698.807355 
L 877.345161 705.757874 
L 883.511137 712.409437 
L 889.677113 718.769299 
L 895.843089 724.845 
L 902.009065 730.64432 
L 908.17504 736.175228 
L 914.341016 741.445842 
L 920.506992 746.464385 
L 926.672968 751.239148 
L 932.838944 755.77846 
L 939.00492 760.090646 
L 945.170896 764.18401 
L 951.336871 768.066797 
L 957.502847 771.747176 
L 963.668823 775.233217 
L 969.834799 778.532869 
L 976.000775 781.653945 
L 982.166751 784.604106 
L 988.332727 787.390849 
L 994.498702 790.021493 
L 1000.664678 792.503174 
L 1006.830654 794.84283 
L 1012.99663 797.047203 
L 1019.162606 799.122825 
L 1031.494558 802.912909 
L 1043.826509 806.261131 
L 1056.158461 809.212122 
L 1068.490413 811.80712 
L 1080.822364 814.08404 
L 1093.154316 816.077578 
L 1105.486268 817.81935 
L 1117.818219 819.338045 
L 1130.150171 820.659596 
L 1142.482123 821.80736 
L 1160.98005 823.248399 
L 1179.477978 824.406668 
L 1197.975906 825.333926 
L 1222.639809 826.284506 
L 1247.303712 826.982876 
L 1278.133592 827.596679 
L 1315.129447 828.070765 
L 1358.291278 828.394928 
L 1364.457254 828.4275 
L 1364.457254 828.4275 
" clip-path="url(#p948450ee79)" style="fill: none; stroke: #2ca02c; stroke-width: 2; stroke-linecap: square"/>
   </g>
   <g id="line2d_16">
    <path d="M 137.428059 114.54616 
L 149.760011 134.897872 
L 162.091962 154.669673 
L 174.423914 173.878085 
L 186.755866 192.539165 
L 199.087817 210.668506 
L 211.419769 228.28126 
L 223.751721 245.392149 
L 236.083673 262.015471 
L 248.415624 278.16512 
L 260.747576 293.854593 
L 273.079528 309.097002 
L 285.411479 323.905087 
L 297.743431 338.291223 
L 310.075383 352.267433 
L 322.407335 365.845399 
L 334.739286 379.036467 
L 347.071238 391.851662 
L 359.40319 404.301695 
L 371.735141 416.39697 
L 384.067093 428.147597 
L 396.399045 439.563396 
L 408.730996 450.653907 
L 421.062948 461.4284 
L 433.3949 471.895879 
L 445.726852 482.065093 
L 458.058803 491.94454 
L 470.390755 501.542477 
L 482.722707 510.866926 
L 495.054658 519.925679 
L 507.38661 528.726308 
L 519.718562 537.276168 
L 532.050513 545.582403 
L 544.382465 553.651957 
L 556.714417 561.491573 
L 569.046369 569.107803 
L 581.37832 576.507012 
L 593.710272 583.695385 
L 606.042224 590.678928 
L 618.374175 597.463479 
L 630.706127 604.054708 
L 643.038079 610.458123 
L 655.370031 616.679076 
L 667.701982 622.722766 
L 680.033934 628.594244 
L 692.365886 634.298418 
L 710.863813 642.551373 
L 729.361741 650.454107 
L 747.859668 658.021482 
L 766.357596 665.26773 
L 784.855523 672.206477 
L 803.353451 678.850773 
L 821.851379 685.213113 
L 840.349306 691.305462 
L 858.847234 697.139277 
L 877.345161 702.72553 
L 895.843089 708.074726 
L 914.341016 713.196924 
L 932.838944 718.101758 
L 951.336871 722.798451 
L 969.834799 727.295836 
L 988.332727 731.602371 
L 1006.830654 735.726155 
L 1025.328582 739.674943 
L 1049.992485 744.680567 
L 1074.656388 749.404989 
L 1099.320292 753.864008 
L 1123.984195 758.072532 
L 1148.648099 762.044633 
L 1173.312002 765.793594 
L 1197.975906 769.331949 
L 1222.639809 772.67153 
L 1247.303712 775.823503 
L 1278.133592 779.515645 
L 1308.963471 782.950367 
L 1339.79335 786.145616 
L 1364.457254 788.540654 
L 1364.457254 788.540654 
" clip-path="url(#p948450ee79)" style="fill: none; stroke: #d62728; stroke-width: 2; stroke-linecap: square"/>
   </g>
   <g id="line2d_17">
    <path d="M 137.428059 777.762116 
L 149.760011 772.758344 
L 155.925987 770.075322 
L 162.091962 767.263801 
L 168.257938 764.317629 
L 174.423914 761.230354 
L 180.58989 757.995221 
L 186.755866 754.605147 
L 192.921842 751.052712 
L 199.087817 747.330139 
L 205.253793 743.429281 
L 211.419769 739.341599 
L 217.585745 735.058144 
L 223.751721 730.569542 
L 229.917697 725.865967 
L 236.083673 720.937122 
L 242.249648 715.77222 
L 248.415624 710.359955 
L 254.5816 704.688479 
L 260.747576 698.745379 
L 266.913552 692.517645 
L 273.079528 685.991645 
L 279.245504 679.153095 
L 285.411479 671.987025 
L 291.577455 664.47775 
L 297.743431 656.608833 
L 303.909407 648.363048 
L 310.075383 639.722347 
L 316.241359 630.667816 
L 322.407335 621.179635 
L 328.57331 611.237035 
L 334.739286 600.818254 
L 340.905262 589.900484 
L 347.071238 578.459829 
L 353.237214 566.471244 
L 359.40319 553.908489 
L 365.569165 540.744064 
L 371.735141 526.949154 
L 377.901117 512.493563 
L 384.067093 497.345648 
L 390.233069 481.472252 
L 396.399045 464.83863 
L 402.565021 447.408372 
L 408.730996 429.143324 
L 414.896972 410.003506 
L 421.062948 389.947023 
L 427.228924 368.929972 
L 433.3949 346.906349 
L 439.560876 323.827945 
L 445.726852 299.644245 
L 451.892827 274.302312 
L 458.058803 247.746675 
L 464.224779 219.919205 
L 470.390755 190.758991 
L 476.556731 160.202204 
L 482.722707 128.181956 
L 488.888683 94.628159 
L 495.054658 59.467366 
L 501.220634 22.622612 
L 504.993202 -1 
M 594.306708 -1 
L 599.876248 33.408089 
L 606.042224 69.759901 
L 612.2082 104.450282 
L 618.374175 137.555167 
L 624.540151 169.147019 
L 630.706127 199.294991 
L 636.872103 228.065074 
L 643.038079 255.520243 
L 649.204055 281.720596 
L 655.370031 306.723482 
L 661.536006 330.583631 
L 667.701982 353.353271 
L 673.867958 375.082243 
L 680.033934 395.818109 
L 686.19991 415.606259 
L 692.365886 434.490008 
L 698.531862 452.51069 
L 704.697837 469.707751 
L 710.863813 486.118833 
L 717.029789 501.779861 
L 723.195765 516.725113 
L 729.361741 530.987305 
L 735.527717 544.597655 
L 741.693692 557.585954 
L 747.859668 569.980634 
L 754.025644 581.808824 
L 760.19162 593.096417 
L 766.357596 603.868119 
L 772.523572 614.147509 
L 778.689548 623.957088 
L 784.855523 633.318327 
L 791.021499 642.251719 
L 797.187475 650.776817 
L 803.353451 658.912282 
L 809.519427 666.675923 
L 815.685403 674.084732 
L 821.851379 681.154927 
L 828.017354 687.901985 
L 834.18333 694.340674 
L 840.349306 700.485088 
L 846.515282 706.348677 
L 852.681258 711.944274 
L 858.847234 717.284129 
L 865.01321 722.379931 
L 871.179185 727.242833 
L 877.345161 731.88348 
L 883.511137 736.31203 
L 889.677113 740.538176 
L 895.843089 744.57117 
L 902.009065 748.419839 
L 908.17504 752.092607 
L 914.341016 755.597515 
L 920.506992 758.942234 
L 926.672968 762.134085 
L 932.838944 765.180055 
L 939.00492 768.086811 
L 945.170896 770.860716 
L 951.336871 773.507843 
L 963.668823 778.44467 
L 976.000775 782.940543 
L 988.332727 787.034846 
L 1000.664678 790.763448 
L 1012.99663 794.159013 
L 1025.328582 797.251287 
L 1037.660533 800.067361 
L 1049.992485 802.631905 
L 1062.324437 804.967385 
L 1074.656388 807.094261 
L 1086.98834 809.031165 
L 1099.320292 810.795066 
L 1117.818219 813.149958 
L 1136.316147 815.196496 
L 1154.814075 816.975058 
L 1173.312002 818.520733 
L 1191.80993 819.864014 
L 1216.473833 821.38552 
L 1241.137737 822.647363 
L 1265.80164 823.693859 
L 1296.631519 824.754521 
L 1327.461398 825.593966 
L 1364.457254 826.373555 
L 1364.457254 826.373555 
" clip-path="url(#p948450ee79)" style="fill: none; stroke: #9467bd; stroke-width: 2; stroke-linecap: square"/>
   </g>
   <g id="line2d_18">
    <path d="M 137.428059 821.597954 
L 143.594035 820.116814 
L 149.760011 818.388215 
L 155.925987 816.38215 
L 162.091962 814.066878 
L 168.257938 811.409101 
L 174.423914 808.374197 
L 180.58989 804.926492 
L 186.755866 801.029579 
L 192.921842 796.646678 
L 199.087817 791.741036 
L 205.253793 786.276357 
L 211.419769 780.217268 
L 217.585745 773.529798 
L 223.751721 766.181884 
L 229.917697 758.143879 
L 236.083673 749.38906 
L 242.249648 739.89413 
L 248.415624 729.639705 
L 254.5816 718.610775 
L 260.747576 706.797128 
L 266.913552 694.193742 
L 273.079528 680.801116 
L 279.245504 666.62556 
L 285.411479 651.679415 
L 291.577455 635.981209 
L 297.743431 619.555748 
L 303.909407 602.434131 
L 310.075383 584.653694 
L 316.241359 566.25788 
L 322.407335 547.29604 
L 328.57331 527.823158 
L 334.739286 507.899515 
L 347.071238 466.965089 
L 359.40319 425.064318 
L 384.067093 340.899215 
L 396.399045 299.968097 
L 402.565021 280.083667 
L 408.730996 260.695466 
L 414.896972 241.882335 
L 421.062948 223.720204 
L 427.228924 206.281557 
L 433.3949 189.634934 
L 439.560876 173.844482 
L 445.726852 158.969552 
L 451.892827 145.064354 
L 458.058803 132.177659 
L 464.224779 120.35256 
L 470.390755 109.626292 
L 476.556731 100.030098 
L 482.722707 91.589159 
L 488.888683 84.322577 
L 495.054658 78.243398 
L 501.220634 73.358697 
L 507.38661 69.669704 
L 513.552586 67.171965 
L 519.718562 65.855554 
L 525.884538 65.70531 
L 532.050513 66.701109 
L 538.216489 68.818165 
L 544.382465 72.027344 
L 550.548441 76.295508 
L 556.714417 81.585865 
L 562.880393 87.858336 
L 569.046369 95.069919 
L 575.212344 103.175066 
L 581.37832 112.126051 
L 587.544296 121.873343 
L 593.710272 132.36596 
L 599.876248 143.551828 
L 606.042224 155.378116 
L 612.2082 167.791564 
L 618.374175 180.738792 
L 624.540151 194.166596 
L 630.706127 208.022219 
L 636.872103 222.253607 
L 649.204055 251.640377 
L 661.536006 281.932969 
L 680.033934 328.269087 
L 698.531862 374.694356 
L 710.863813 405.214177 
L 723.195765 435.104455 
L 735.527717 464.160177 
L 747.859668 492.210701 
L 754.025644 505.814755 
L 760.19162 519.11836 
L 766.357596 532.109147 
L 772.523572 544.776542 
L 778.689548 557.111692 
L 784.855523 569.107379 
L 791.021499 580.757939 
L 797.187475 592.05917 
L 803.353451 603.008249 
L 809.519427 613.60364 
L 815.685403 623.845007 
L 821.851379 633.733129 
L 828.017354 643.269811 
L 834.18333 652.4578 
L 840.349306 661.300707 
L 846.515282 669.802921 
L 852.681258 677.969536 
L 858.847234 685.806274 
L 865.01321 693.319417 
L 871.179185 700.515736 
L 877.345161 707.402428 
L 883.511137 713.987055 
L 889.677113 720.277485 
L 895.843089 726.281837 
L 902.009065 732.008434 
L 908.17504 737.46575 
L 914.341016 742.662371 
L 920.506992 747.606952 
L 926.672968 752.308179 
L 932.838944 756.774738 
L 939.00492 761.015278 
L 945.170896 765.038389 
L 951.336871 768.852571 
L 957.502847 772.466216 
L 963.668823 775.887585 
L 969.834799 779.124788 
L 976.000775 782.185774 
L 982.166751 785.078312 
L 988.332727 787.809984 
L 994.498702 790.388171 
L 1000.664678 792.820048 
L 1006.830654 795.112579 
L 1012.99663 797.272506 
L 1019.162606 799.306355 
L 1031.494558 803.020786 
L 1043.826509 806.303575 
L 1056.158461 809.198848 
L 1068.490413 811.747223 
L 1080.822364 813.985914 
L 1093.154316 815.948867 
L 1105.486268 817.666927 
L 1117.818219 819.168012 
L 1130.150171 820.477301 
L 1142.482123 821.617428 
L 1160.98005 823.05421 
L 1179.477978 824.21502 
L 1197.975906 825.149806 
L 1222.639809 826.11557 
L 1247.303712 826.83241 
L 1278.133592 827.470758 
L 1315.129447 827.973009 
L 1358.291278 828.325296 
L 1364.457254 828.361383 
L 1364.457254 828.361383 
" clip-path="url(#p948450ee79)" style="fill: none; stroke: #8c564b; stroke-width: 2; stroke-linecap: square"/>
   </g>
   <g id="line2d_19">
    <path d="M 137.428059 801.384994 
L 143.594035 798.643129 
L 149.760011 795.673183 
L 155.925987 792.461393 
L 162.091962 788.99371 
L 168.257938 785.255863 
L 174.423914 781.23341 
L 180.58989 776.911815 
L 186.755866 772.276521 
L 192.921842 767.313033 
L 199.087817 762.00701 
L 205.253793 756.344357 
L 211.419769 750.311336 
L 217.585745 743.89467 
L 223.751721 737.081663 
L 229.917697 729.860317 
L 236.083673 722.219461 
L 242.249648 714.14888 
L 248.415624 705.639449 
L 254.5816 696.683267 
L 260.747576 687.273793 
L 266.913552 677.405984 
L 273.079528 667.076433 
L 279.245504 656.283498 
L 285.411479 645.027436 
L 291.577455 633.310524 
L 297.743431 621.137184 
L 303.909407 608.514086 
L 310.075383 595.450258 
L 316.241359 581.95717 
L 322.407335 568.048818 
L 328.57331 553.741785 
L 334.739286 539.055296 
L 340.905262 524.01125 
L 347.071238 508.634237 
L 359.40319 476.993099 
L 371.735141 444.381892 
L 384.067093 411.091526 
L 421.062948 310.595697 
L 433.3949 278.182575 
L 439.560876 262.413233 
L 445.726852 247.006729 
L 451.892827 232.016595 
L 458.058803 217.496013 
L 464.224779 203.497505 
L 470.390755 190.072613 
L 476.556731 177.271594 
L 482.722707 165.143103 
L 488.888683 153.733887 
L 495.054658 143.088487 
L 501.220634 133.248949 
L 507.38661 124.254546 
L 513.552586 116.141519 
L 519.718562 108.942833 
L 525.884538 102.687953 
L 532.050513 97.402645 
L 538.216489 93.108799 
L 544.382465 89.824278 
L 550.548441 87.562791 
L 556.714417 86.333803 
L 562.880393 86.142464 
L 569.046369 86.989577 
L 575.212344 88.87159 
L 581.37832 91.780623 
L 587.544296 95.704518 
L 593.710272 100.626932 
L 599.876248 106.527441 
L 606.042224 113.381689 
L 612.2082 121.161549 
L 618.374175 129.835323 
L 624.540151 139.367947 
L 630.706127 149.721238 
L 636.872103 160.854138 
L 643.038079 172.722994 
L 649.204055 185.281836 
L 655.370031 198.482677 
L 661.536006 212.275814 
L 667.701982 226.610142 
L 673.867958 241.433463 
L 680.033934 256.692803 
L 686.19991 272.334723 
L 698.531862 304.552046 
L 710.863813 337.660071 
L 754.025644 454.768865 
L 766.357596 487.103251 
L 778.689548 518.384088 
L 784.855523 533.553794 
L 791.021499 548.374688 
L 797.187475 562.823881 
L 803.353451 576.881166 
L 809.519427 590.528992 
L 815.685403 603.752415 
L 821.851379 616.539045 
L 828.017354 628.878964 
L 834.18333 640.764644 
L 840.349306 652.190848 
L 846.515282 663.154522 
L 852.681258 673.654679 
L 858.847234 683.692276 
L 865.01321 693.270087 
L 871.179185 702.392566 
L 877.345161 711.065719 
L 883.511137 719.296962 
L 889.677113 727.094984 
L 895.843089 734.469615 
L 902.009065 741.43169 
L 908.17504 747.992916 
L 914.341016 754.165745 
L 920.506992 759.963256 
L 926.672968 765.39903 
L 932.838944 770.487042 
L 939.00492 775.241554 
L 945.170896 779.677016 
L 951.336871 783.807971 
L 957.502847 787.648974 
L 963.668823 791.214508 
L 969.834799 794.518915 
L 976.000775 797.576333 
L 982.166751 800.400635 
L 988.332727 803.005384 
L 994.498702 805.40378 
L 1000.664678 807.608633 
L 1006.830654 809.632323 
L 1012.99663 811.486781 
L 1019.162606 813.183462 
L 1025.328582 814.733336 
L 1031.494558 816.146874 
L 1037.660533 817.434042 
L 1049.992485 819.666607 
L 1062.324437 821.500688 
L 1074.656388 822.998076 
L 1086.98834 824.213044 
L 1099.320292 825.192807 
L 1111.652244 825.978069 
L 1130.150171 826.865887 
L 1148.648099 827.488683 
L 1173.312002 828.030667 
L 1204.141881 828.41209 
L 1241.137737 828.63017 
L 1302.797495 828.749649 
L 1364.457254 828.774226 
L 1364.457254 828.774226 
" clip-path="url(#p948450ee79)" style="fill: none; stroke: #e377c2; stroke-width: 2; stroke-linecap: square"/>
   </g>
   <g id="patch_103">
    <path d="M 72.685313 828.779375 
L 72.685313 38.075625 
" style="fill: none; stroke: #000000; stroke-width: 0.8; stroke-linejoin: miter; stroke-linecap: square"/>
   </g>
   <g id="patch_104">
    <path d="M 1429.2 828.779375 
L 1429.2 38.075625 
" style="fill: none; stroke: #000000; stroke-width: 0.8; stroke-linejoin: miter; stroke-linecap: square"/>
   </g>
   <g id="patch_105">
    <path d="M 72.685313 828.779375 
L 1429.2 828.779375 
" style="fill: none; stroke: #000000; stroke-width: 0.8; stroke-linejoin: miter; stroke-linecap: square"/>
   </g>
   <g id="patch_106">
    <path d="M 72.685313 38.075625 
L 1429.2 38.075625 
" style="fill: none; stroke: #000000; stroke-width: 0.8; stroke-linejoin: miter; stroke-linecap: square"/>
   </g>
   <g id="text_15">
    <!-- All Fitted Distributions -->
    <g transform="translate(596.317031 32.075625)scale(0.28 -0.28)">
     <defs>
      <path id="DejaVuSans-41" d="M 2188 4044 
L 1331 1722 
L 3047 1722 
L 2188 4044 
z
M 1831 4666 
L 2547 4666 
L 4325 0 
L 3669 0 
L 3244 1197 
L 1141 1197 
L 716 0 
L 50 0 
L 1831 4666 
z
" transform="scale(0.015625)"/>
      <path id="DejaVuSans-6c" d="M 603 4863 
L 1178 4863 
L 1178 0 
L 603 0 
L 603 4863 
z
" transform="scale(0.015625)"/>
      <path id="DejaVuSans-46" d="M 628 4666 
L 3309 4666 
L 3309 4134 
L 1259 4134 
L 1259 2759 
L 3109 2759 
L 3109 2228 
L 1259 2228 
L 1259 0 
L 628 0 
L 628 4666 
z
" transform="scale(0.015625)"/>
      <path id="DejaVuSans-44" d="M 1259 4147 
L 1259 519 
L 2022 519 
Q 2988 519 3436 956 
Q 3884 1394 3884 2338 
Q 3884 3275 3436 3711 
Q 2988 4147 2022 4147 
L 1259 4147 
z
M 628 4666 
L 1925 4666 
Q 3281 4666 3915 4102 
Q 4550 3538 4550 2338 
Q 4550 1131 3912 565 
Q 3275 0 1925 0 
L 628 0 
L 628 4666 
z
" transform="scale(0.015625)"/>
      <path id="DejaVuSans-62" d="M 3116 1747 
Q 3116 2381 2855 2742 
Q 2594 3103 2138 3103 
Q 1681 3103 1420 2742 
Q 1159 2381 1159 1747 
Q 1159 1113 1420 752 
Q 1681 391 2138 391 
Q 2594 391 2855 752 
Q 3116 1113 3116 1747 
z
M 1159 2969 
Q 1341 3281 1617 3432 
Q 1894 3584 2278 3584 
Q 2916 3584 3314 3078 
Q 3713 2572 3713 1747 
Q 3713 922 3314 415 
Q 2916 -91 2278 -91 
Q 1894 -91 1617 61 
Q 1341 213 1159 525 
L 1159 0 
L 581 0 
L 581 4863 
L 1159 4863 
L 1159 2969 
z
" transform="scale(0.015625)"/>
     </defs>
     <use xlink:href="#DejaVuSans-41"/>
     <use xlink:href="#DejaVuSans-6c" x="68.408203"/>
     <use xlink:href="#DejaVuSans-6c" x="96.191406"/>
     <use xlink:href="#DejaVuSans-20" x="123.974609"/>
     <use xlink:href="#DejaVuSans-46" x="155.761719"/>
     <use xlink:href="#DejaVuSans-69" x="206.03125"/>
     <use xlink:href="#DejaVuSans-74" x="233.814453"/>
     <use xlink:href="#DejaVuSans-74" x="273.023438"/>
     <use xlink:href="#DejaVuSans-65" x="312.232422"/>
     <use xlink:href="#DejaVuSans-64" x="373.755859"/>
     <use xlink:href="#DejaVuSans-20" x="437.232422"/>
     <use xlink:href="#DejaVuSans-44" x="469.019531"/>
     <use xlink:href="#DejaVuSans-69" x="546.021484"/>
     <use xlink:href="#DejaVuSans-73" x="573.804688"/>
     <use xlink:href="#DejaVuSans-74" x="625.904297"/>
     <use xlink:href="#DejaVuSans-72" x="665.113281"/>
     <use xlink:href="#DejaVuSans-69" x="706.226562"/>
     <use xlink:href="#DejaVuSans-62" x="734.009766"/>
     <use xlink:href="#DejaVuSans-75" x="797.486328"/>
     <use xlink:href="#DejaVuSans-74" x="860.865234"/>
     <use xlink:href="#DejaVuSans-69" x="900.074219"/>
     <use xlink:href="#DejaVuSans-6f" x="927.857422"/>
     <use xlink:href="#DejaVuSans-6e" x="989.039062"/>
     <use xlink:href="#DejaVuSans-73" x="1052.417969"/>
    </g>
   </g>
   <g id="legend_1">
    <g id="patch_107">
     <path d="M 1014.37125 303.868125 
L 1412.4 303.868125 
Q 1417.2 303.868125 1417.2 299.068125 
L 1417.2 54.875625 
Q 1417.2 50.075625 1412.4 50.075625 
L 1014.37125 50.075625 
Q 1009.57125 50.075625 1009.57125 54.875625 
L 1009.57125 299.068125 
Q 1009.57125 303.868125 1014.37125 303.868125 
z
" style="fill: #ffffff; opacity: 0.8; stroke: #cccccc; stroke-linejoin: miter"/>
    </g>
    <g id="patch_108">
     <path d="M 1019.17125 77.911875 
L 1067.17125 77.911875 
L 1067.17125 61.111875 
L 1019.17125 61.111875 
z
" style="fill: #1f77b4; opacity: 0.6"/>
    </g>
    <g id="text_16">
     <!-- Generated Chi Distribution -->
     <g transform="translate(1086.37125 77.911875)scale(0.24 -0.24)">
      <defs>
       <path id="DejaVuSans-47" d="M 3809 666 
L 3809 1919 
L 2778 1919 
L 2778 2438 
L 4434 2438 
L 4434 434 
Q 4069 175 3628 42 
Q 3188 -91 2688 -91 
Q 1594 -91 976 548 
Q 359 1188 359 2328 
Q 359 3472 976 4111 
Q 1594 4750 2688 4750 
Q 3144 4750 3555 4637 
Q 3966 4525 4313 4306 
L 4313 3634 
Q 3963 3931 3569 4081 
Q 3175 4231 2741 4231 
Q 1884 4231 1454 3753 
Q 1025 3275 1025 2328 
Q 1025 1384 1454 906 
Q 1884 428 2741 428 
Q 3075 428 3337 486 
Q 3600 544 3809 666 
z
" transform="scale(0.015625)"/>
       <path id="DejaVuSans-61" d="M 2194 1759 
Q 1497 1759 1228 1600 
Q 959 1441 959 1056 
Q 959 750 1161 570 
Q 1363 391 1709 391 
Q 2188 391 2477 730 
Q 2766 1069 2766 1631 
L 2766 1759 
L 2194 1759 
z
M 3341 1997 
L 3341 0 
L 2766 0 
L 2766 531 
Q 2569 213 2275 61 
Q 1981 -91 1556 -91 
Q 1019 -91 701 211 
Q 384 513 384 1019 
Q 384 1609 779 1909 
Q 1175 2209 1959 2209 
L 2766 2209 
L 2766 2266 
Q 2766 2663 2505 2880 
Q 2244 3097 1772 3097 
Q 1472 3097 1187 3025 
Q 903 2953 641 2809 
L 641 3341 
Q 956 3463 1253 3523 
Q 1550 3584 1831 3584 
Q 2591 3584 2966 3190 
Q 3341 2797 3341 1997 
z
" transform="scale(0.015625)"/>
       <path id="DejaVuSans-68" d="M 3513 2113 
L 3513 0 
L 2938 0 
L 2938 2094 
Q 2938 2591 2744 2837 
Q 2550 3084 2163 3084 
Q 1697 3084 1428 2787 
Q 1159 2491 1159 1978 
L 1159 0 
L 581 0 
L 581 4863 
L 1159 4863 
L 1159 2956 
Q 1366 3272 1645 3428 
Q 1925 3584 2291 3584 
Q 2894 3584 3203 3211 
Q 3513 2838 3513 2113 
z
" transform="scale(0.015625)"/>
      </defs>
      <use xlink:href="#DejaVuSans-47"/>
      <use xlink:href="#DejaVuSans-65" x="77.490234"/>
      <use xlink:href="#DejaVuSans-6e" x="139.013672"/>
      <use xlink:href="#DejaVuSans-65" x="202.392578"/>
      <use xlink:href="#DejaVuSans-72" x="263.916016"/>
      <use xlink:href="#DejaVuSans-61" x="305.029297"/>
      <use xlink:href="#DejaVuSans-74" x="366.308594"/>
      <use xlink:href="#DejaVuSans-65" x="405.517578"/>
      <use xlink:href="#DejaVuSans-64" x="467.041016"/>
      <use xlink:href="#DejaVuSans-20" x="530.517578"/>
      <use xlink:href="#DejaVuSans-43" x="562.304688"/>
      <use xlink:href="#DejaVuSans-68" x="632.128906"/>
      <use xlink:href="#DejaVuSans-69" x="695.507812"/>
      <use xlink:href="#DejaVuSans-20" x="723.291016"/>
      <use xlink:href="#DejaVuSans-44" x="755.078125"/>
      <use xlink:href="#DejaVuSans-69" x="832.080078"/>
      <use xlink:href="#DejaVuSans-73" x="859.863281"/>
      <use xlink:href="#DejaVuSans-74" x="911.962891"/>
      <use xlink:href="#DejaVuSans-72" x="951.171875"/>
      <use xlink:href="#DejaVuSans-69" x="992.285156"/>
      <use xlink:href="#DejaVuSans-62" x="1020.068359"/>
      <use xlink:href="#DejaVuSans-75" x="1083.544922"/>
      <use xlink:href="#DejaVuSans-74" x="1146.923828"/>
      <use xlink:href="#DejaVuSans-69" x="1186.132812"/>
      <use xlink:href="#DejaVuSans-6f" x="1213.916016"/>
      <use xlink:href="#DejaVuSans-6e" x="1275.097656"/>
     </g>
    </g>
    <g id="line2d_20">
     <path d="M 1019.17125 104.739375 
L 1043.17125 104.739375 
L 1067.17125 104.739375 
" style="fill: none; stroke: #ff7f0e; stroke-width: 2; stroke-linecap: square"/>
    </g>
    <g id="text_17">
     <!-- Chi fit -->
     <g transform="translate(1086.37125 113.139375)scale(0.24 -0.24)">
      <defs>
       <path id="DejaVuSans-66" d="M 2375 4863 
L 2375 4384 
L 1825 4384 
Q 1516 4384 1395 4259 
Q 1275 4134 1275 3809 
L 1275 3500 
L 2222 3500 
L 2222 3053 
L 1275 3053 
L 1275 0 
L 697 0 
L 697 3053 
L 147 3053 
L 147 3500 
L 697 3500 
L 697 3744 
Q 697 4328 969 4595 
Q 1241 4863 1831 4863 
L 2375 4863 
z
" transform="scale(0.015625)"/>
      </defs>
      <use xlink:href="#DejaVuSans-43"/>
      <use xlink:href="#DejaVuSans-68" x="69.824219"/>
      <use xlink:href="#DejaVuSans-69" x="133.203125"/>
      <use xlink:href="#DejaVuSans-20" x="160.986328"/>
      <use xlink:href="#DejaVuSans-66" x="192.773438"/>
      <use xlink:href="#DejaVuSans-69" x="227.978516"/>
      <use xlink:href="#DejaVuSans-74" x="255.761719"/>
     </g>
    </g>
    <g id="line2d_21">
     <path d="M 1019.17125 139.966875 
L 1043.17125 139.966875 
L 1067.17125 139.966875 
" style="fill: none; stroke: #2ca02c; stroke-width: 2; stroke-linecap: square"/>
    </g>
    <g id="text_18">
     <!-- Chi-Square fit -->
     <g transform="translate(1086.37125 148.366875)scale(0.24 -0.24)">
      <defs>
       <path id="DejaVuSans-2d" d="M 313 2009 
L 1997 2009 
L 1997 1497 
L 313 1497 
L 313 2009 
z
" transform="scale(0.015625)"/>
       <path id="DejaVuSans-53" d="M 3425 4513 
L 3425 3897 
Q 3066 4069 2747 4153 
Q 2428 4238 2131 4238 
Q 1616 4238 1336 4038 
Q 1056 3838 1056 3469 
Q 1056 3159 1242 3001 
Q 1428 2844 1947 2747 
L 2328 2669 
Q 3034 2534 3370 2195 
Q 3706 1856 3706 1288 
Q 3706 609 3251 259 
Q 2797 -91 1919 -91 
Q 1588 -91 1214 -16 
Q 841 59 441 206 
L 441 856 
Q 825 641 1194 531 
Q 1563 422 1919 422 
Q 2459 422 2753 634 
Q 3047 847 3047 1241 
Q 3047 1584 2836 1778 
Q 2625 1972 2144 2069 
L 1759 2144 
Q 1053 2284 737 2584 
Q 422 2884 422 3419 
Q 422 4038 858 4394 
Q 1294 4750 2059 4750 
Q 2388 4750 2728 4690 
Q 3069 4631 3425 4513 
z
" transform="scale(0.015625)"/>
       <path id="DejaVuSans-71" d="M 947 1747 
Q 947 1113 1208 752 
Q 1469 391 1925 391 
Q 2381 391 2643 752 
Q 2906 1113 2906 1747 
Q 2906 2381 2643 2742 
Q 2381 3103 1925 3103 
Q 1469 3103 1208 2742 
Q 947 2381 947 1747 
z
M 2906 525 
Q 2725 213 2448 61 
Q 2172 -91 1784 -91 
Q 1150 -91 751 415 
Q 353 922 353 1747 
Q 353 2572 751 3078 
Q 1150 3584 1784 3584 
Q 2172 3584 2448 3432 
Q 2725 3281 2906 2969 
L 2906 3500 
L 3481 3500 
L 3481 -1331 
L 2906 -1331 
L 2906 525 
z
" transform="scale(0.015625)"/>
      </defs>
      <use xlink:href="#DejaVuSans-43"/>
      <use xlink:href="#DejaVuSans-68" x="69.824219"/>
      <use xlink:href="#DejaVuSans-69" x="133.203125"/>
      <use xlink:href="#DejaVuSans-2d" x="160.986328"/>
      <use xlink:href="#DejaVuSans-53" x="197.070312"/>
      <use xlink:href="#DejaVuSans-71" x="260.546875"/>
      <use xlink:href="#DejaVuSans-75" x="324.023438"/>
      <use xlink:href="#DejaVuSans-61" x="387.402344"/>
      <use xlink:href="#DejaVuSans-72" x="448.681641"/>
      <use xlink:href="#DejaVuSans-65" x="487.544922"/>
      <use xlink:href="#DejaVuSans-20" x="549.068359"/>
      <use xlink:href="#DejaVuSans-66" x="580.855469"/>
      <use xlink:href="#DejaVuSans-69" x="616.060547"/>
      <use xlink:href="#DejaVuSans-74" x="643.84375"/>
     </g>
    </g>
    <g id="line2d_22">
     <path d="M 1019.17125 175.194375 
L 1043.17125 175.194375 
L 1067.17125 175.194375 
" style="fill: none; stroke: #d62728; stroke-width: 2; stroke-linecap: square"/>
    </g>
    <g id="text_19">
     <!-- Exponential fit -->
     <g transform="translate(1086.37125 183.594375)scale(0.24 -0.24)">
      <defs>
       <path id="DejaVuSans-45" d="M 628 4666 
L 3578 4666 
L 3578 4134 
L 1259 4134 
L 1259 2753 
L 3481 2753 
L 3481 2222 
L 1259 2222 
L 1259 531 
L 3634 531 
L 3634 0 
L 628 0 
L 628 4666 
z
" transform="scale(0.015625)"/>
       <path id="DejaVuSans-78" d="M 3513 3500 
L 2247 1797 
L 3578 0 
L 2900 0 
L 1881 1375 
L 863 0 
L 184 0 
L 1544 1831 
L 300 3500 
L 978 3500 
L 1906 2253 
L 2834 3500 
L 3513 3500 
z
" transform="scale(0.015625)"/>
       <path id="DejaVuSans-70" d="M 1159 525 
L 1159 -1331 
L 581 -1331 
L 581 3500 
L 1159 3500 
L 1159 2969 
Q 1341 3281 1617 3432 
Q 1894 3584 2278 3584 
Q 2916 3584 3314 3078 
Q 3713 2572 3713 1747 
Q 3713 922 3314 415 
Q 2916 -91 2278 -91 
Q 1894 -91 1617 61 
Q 1341 213 1159 525 
z
M 3116 1747 
Q 3116 2381 2855 2742 
Q 2594 3103 2138 3103 
Q 1681 3103 1420 2742 
Q 1159 2381 1159 1747 
Q 1159 1113 1420 752 
Q 1681 391 2138 391 
Q 2594 391 2855 752 
Q 3116 1113 3116 1747 
z
" transform="scale(0.015625)"/>
      </defs>
      <use xlink:href="#DejaVuSans-45"/>
      <use xlink:href="#DejaVuSans-78" x="63.183594"/>
      <use xlink:href="#DejaVuSans-70" x="122.363281"/>
      <use xlink:href="#DejaVuSans-6f" x="185.839844"/>
      <use xlink:href="#DejaVuSans-6e" x="247.021484"/>
      <use xlink:href="#DejaVuSans-65" x="310.400391"/>
      <use xlink:href="#DejaVuSans-6e" x="371.923828"/>
      <use xlink:href="#DejaVuSans-74" x="435.302734"/>
      <use xlink:href="#DejaVuSans-69" x="474.511719"/>
      <use xlink:href="#DejaVuSans-61" x="502.294922"/>
      <use xlink:href="#DejaVuSans-6c" x="563.574219"/>
      <use xlink:href="#DejaVuSans-20" x="591.357422"/>
      <use xlink:href="#DejaVuSans-66" x="623.144531"/>
      <use xlink:href="#DejaVuSans-69" x="658.349609"/>
      <use xlink:href="#DejaVuSans-74" x="686.132812"/>
     </g>
    </g>
    <g id="line2d_23">
     <path d="M 1019.17125 210.421875 
L 1043.17125 210.421875 
L 1067.17125 210.421875 
" style="fill: none; stroke: #9467bd; stroke-width: 2; stroke-linecap: square"/>
    </g>
    <g id="text_20">
     <!-- Laplace fit -->
     <g transform="translate(1086.37125 218.821875)scale(0.24 -0.24)">
      <defs>
       <path id="DejaVuSans-4c" d="M 628 4666 
L 1259 4666 
L 1259 531 
L 3531 531 
L 3531 0 
L 628 0 
L 628 4666 
z
" transform="scale(0.015625)"/>
       <path id="DejaVuSans-63" d="M 3122 3366 
L 3122 2828 
Q 2878 2963 2633 3030 
Q 2388 3097 2138 3097 
Q 1578 3097 1268 2742 
Q 959 2388 959 1747 
Q 959 1106 1268 751 
Q 1578 397 2138 397 
Q 2388 397 2633 464 
Q 2878 531 3122 666 
L 3122 134 
Q 2881 22 2623 -34 
Q 2366 -91 2075 -91 
Q 1284 -91 818 406 
Q 353 903 353 1747 
Q 353 2603 823 3093 
Q 1294 3584 2113 3584 
Q 2378 3584 2631 3529 
Q 2884 3475 3122 3366 
z
" transform="scale(0.015625)"/>
      </defs>
      <use xlink:href="#DejaVuSans-4c"/>
      <use xlink:href="#DejaVuSans-61" x="55.712891"/>
      <use xlink:href="#DejaVuSans-70" x="116.992188"/>
      <use xlink:href="#DejaVuSans-6c" x="180.46875"/>
      <use xlink:href="#DejaVuSans-61" x="208.251953"/>
      <use xlink:href="#DejaVuSans-63" x="269.53125"/>
      <use xlink:href="#DejaVuSans-65" x="324.511719"/>
      <use xlink:href="#DejaVuSans-20" x="386.035156"/>
      <use xlink:href="#DejaVuSans-66" x="417.822266"/>
      <use xlink:href="#DejaVuSans-69" x="453.027344"/>
      <use xlink:href="#DejaVuSans-74" x="480.810547"/>
     </g>
    </g>
    <g id="line2d_24">
     <path d="M 1019.17125 245.649375 
L 1043.17125 245.649375 
L 1067.17125 245.649375 
" style="fill: none; stroke: #8c564b; stroke-width: 2; stroke-linecap: square"/>
    </g>
    <g id="text_21">
     <!-- LogNorm fit -->
     <g transform="translate(1086.37125 254.049375)scale(0.24 -0.24)">
      <defs>
       <path id="DejaVuSans-67" d="M 2906 1791 
Q 2906 2416 2648 2759 
Q 2391 3103 1925 3103 
Q 1463 3103 1205 2759 
Q 947 2416 947 1791 
Q 947 1169 1205 825 
Q 1463 481 1925 481 
Q 2391 481 2648 825 
Q 2906 1169 2906 1791 
z
M 3481 434 
Q 3481 -459 3084 -895 
Q 2688 -1331 1869 -1331 
Q 1566 -1331 1297 -1286 
Q 1028 -1241 775 -1147 
L 775 -588 
Q 1028 -725 1275 -790 
Q 1522 -856 1778 -856 
Q 2344 -856 2625 -561 
Q 2906 -266 2906 331 
L 2906 616 
Q 2728 306 2450 153 
Q 2172 0 1784 0 
Q 1141 0 747 490 
Q 353 981 353 1791 
Q 353 2603 747 3093 
Q 1141 3584 1784 3584 
Q 2172 3584 2450 3431 
Q 2728 3278 2906 2969 
L 2906 3500 
L 3481 3500 
L 3481 434 
z
" transform="scale(0.015625)"/>
      </defs>
      <use xlink:href="#DejaVuSans-4c"/>
      <use xlink:href="#DejaVuSans-6f" x="53.962891"/>
      <use xlink:href="#DejaVuSans-67" x="115.144531"/>
      <use xlink:href="#DejaVuSans-4e" x="178.621094"/>
      <use xlink:href="#DejaVuSans-6f" x="253.425781"/>
      <use xlink:href="#DejaVuSans-72" x="314.607422"/>
      <use xlink:href="#DejaVuSans-6d" x="353.970703"/>
      <use xlink:href="#DejaVuSans-20" x="451.382812"/>
      <use xlink:href="#DejaVuSans-66" x="483.169922"/>
      <use xlink:href="#DejaVuSans-69" x="518.375"/>
      <use xlink:href="#DejaVuSans-74" x="546.158203"/>
     </g>
    </g>
    <g id="line2d_25">
     <path d="M 1019.17125 280.876875 
L 1043.17125 280.876875 
L 1067.17125 280.876875 
" style="fill: none; stroke: #e377c2; stroke-width: 2; stroke-linecap: square"/>
    </g>
    <g id="text_22">
     <!-- Normal fit -->
     <g transform="translate(1086.37125 289.276875)scale(0.24 -0.24)">
      <use xlink:href="#DejaVuSans-4e"/>
      <use xlink:href="#DejaVuSans-6f" x="74.804688"/>
      <use xlink:href="#DejaVuSans-72" x="135.986328"/>
      <use xlink:href="#DejaVuSans-6d" x="175.349609"/>
      <use xlink:href="#DejaVuSans-61" x="272.761719"/>
      <use xlink:href="#DejaVuSans-6c" x="334.041016"/>
      <use xlink:href="#DejaVuSans-20" x="361.824219"/>
      <use xlink:href="#DejaVuSans-66" x="393.611328"/>
      <use xlink:href="#DejaVuSans-69" x="428.816406"/>
      <use xlink:href="#DejaVuSans-74" x="456.599609"/>
     </g>
    </g>
   </g>
  </g>
 </g>
 <defs>
  <clipPath id="p948450ee79">
   <rect x="72.685313" y="38.075625" width="1356.514688" height="790.70375"/>
  </clipPath>
 </defs>
</svg>
