<?xml version="1.0" encoding="utf-8" standalone="no"?>
<!DOCTYPE svg PUBLIC "-//W3C//DTD SVG 1.1//EN"
  "http://www.w3.org/Graphics/SVG/1.1/DTD/svg11.dtd">
<svg xmlns:xlink="http://www.w3.org/1999/xlink" width="1440pt" height="864pt" viewBox="0 0 1440 864" xmlns="http://www.w3.org/2000/svg" version="1.1">
 <metadata>
  <rdf:RDF xmlns:dc="http://purl.org/dc/elements/1.1/" xmlns:cc="http://creativecommons.org/ns#" xmlns:rdf="http://www.w3.org/1999/02/22-rdf-syntax-ns#">
   <cc:Work>
    <dc:type rdf:resource="http://purl.org/dc/dcmitype/StillImage"/>
    <dc:date>2023-03-12T09:33:22.726332</dc:date>
    <dc:format>image/svg+xml</dc:format>
    <dc:creator>
     <cc:Agent>
      <dc:title>Matplotlib v3.7.1, https://matplotlib.org/</dc:title>
     </cc:Agent>
    </dc:creator>
   </cc:Work>
  </rdf:RDF>
 </metadata>
 <defs>
  <style type="text/css">*{stroke-linejoin: round; stroke-linecap: butt}</style>
 </defs>
 <g id="figure_1">
  <g id="patch_1">
   <path d="M 0 864 
L 1440 864 
L 1440 0 
L 0 0 
z
" style="fill: #ffffff"/>
  </g>
  <g id="axes_1">
   <g id="patch_2">
    <path d="M 72.685313 828.779375 
L 1429.2 828.779375 
L 1429.2 38.075625 
L 72.685313 38.075625 
z
" style="fill: #ffffff"/>
   </g>
   <g id="patch_3">
    <path d="M 134.345071 828.779375 
L 146.677023 828.779375 
L 146.677023 825.892278 
L 134.345071 825.892278 
z
" clip-path="url(#p6f66e23fb0)" style="fill: #1f77b4; opacity: 0.6"/>
   </g>
   <g id="patch_4">
    <path d="M 146.677023 828.779375 
L 159.008974 828.779375 
L 159.008974 820.118083 
L 146.677023 820.118083 
z
" clip-path="url(#p6f66e23fb0)" style="fill: #1f77b4; opacity: 0.6"/>
   </g>
   <g id="patch_5">
    <path d="M 159.008974 828.779375 
L 171.340926 828.779375 
L 171.340926 808.569694 
L 159.008974 808.569694 
z
" clip-path="url(#p6f66e23fb0)" style="fill: #1f77b4; opacity: 0.6"/>
   </g>
   <g id="patch_6">
    <path d="M 171.340926 828.779375 
L 183.672878 828.779375 
L 183.672878 801.351951 
L 171.340926 801.351951 
z
" clip-path="url(#p6f66e23fb0)" style="fill: #1f77b4; opacity: 0.6"/>
   </g>
   <g id="patch_7">
    <path d="M 183.672878 828.779375 
L 196.00483 828.779375 
L 196.00483 788.360014 
L 183.672878 788.360014 
z
" clip-path="url(#p6f66e23fb0)" style="fill: #1f77b4; opacity: 0.6"/>
   </g>
   <g id="patch_8">
    <path d="M 196.00483 828.779375 
L 208.336781 828.779375 
L 208.336781 777.292808 
L 196.00483 777.292808 
z
" clip-path="url(#p6f66e23fb0)" style="fill: #1f77b4; opacity: 0.6"/>
   </g>
   <g id="patch_9">
    <path d="M 208.336781 828.779375 
L 220.668733 828.779375 
L 220.668733 756.120762 
L 208.336781 756.120762 
z
" clip-path="url(#p6f66e23fb0)" style="fill: #1f77b4; opacity: 0.6"/>
   </g>
   <g id="patch_10">
    <path d="M 220.668733 828.779375 
L 233.000685 828.779375 
L 233.000685 734.467533 
L 220.668733 734.467533 
z
" clip-path="url(#p6f66e23fb0)" style="fill: #1f77b4; opacity: 0.6"/>
   </g>
   <g id="patch_11">
    <path d="M 233.000685 828.779375 
L 245.332636 828.779375 
L 245.332636 717.144949 
L 233.000685 717.144949 
z
" clip-path="url(#p6f66e23fb0)" style="fill: #1f77b4; opacity: 0.6"/>
   </g>
   <g id="patch_12">
    <path d="M 245.332636 828.779375 
L 257.664588 828.779375 
L 257.664588 678.65032 
L 245.332636 678.65032 
z
" clip-path="url(#p6f66e23fb0)" style="fill: #1f77b4; opacity: 0.6"/>
   </g>
   <g id="patch_13">
    <path d="M 257.664588 828.779375 
L 269.99654 828.779375 
L 269.99654 646.411068 
L 257.664588 646.411068 
z
" clip-path="url(#p6f66e23fb0)" style="fill: #1f77b4; opacity: 0.6"/>
   </g>
   <g id="patch_14">
    <path d="M 269.99654 828.779375 
L 282.328491 828.779375 
L 282.328491 598.292781 
L 269.99654 598.292781 
z
" clip-path="url(#p6f66e23fb0)" style="fill: #1f77b4; opacity: 0.6"/>
   </g>
   <g id="patch_15">
    <path d="M 282.328491 828.779375 
L 294.660443 828.779375 
L 294.660443 600.217512 
L 282.328491 600.217512 
z
" clip-path="url(#p6f66e23fb0)" style="fill: #1f77b4; opacity: 0.6"/>
   </g>
   <g id="patch_16">
    <path d="M 294.660443 828.779375 
L 306.992395 828.779375 
L 306.992395 539.107288 
L 294.660443 539.107288 
z
" clip-path="url(#p6f66e23fb0)" style="fill: #1f77b4; opacity: 0.6"/>
   </g>
   <g id="patch_17">
    <path d="M 306.992395 828.779375 
L 319.324347 828.779375 
L 319.324347 502.53739 
L 306.992395 502.53739 
z
" clip-path="url(#p6f66e23fb0)" style="fill: #1f77b4; opacity: 0.6"/>
   </g>
   <g id="patch_18">
    <path d="M 319.324347 828.779375 
L 331.656298 828.779375 
L 331.656298 465.486309 
L 319.324347 465.486309 
z
" clip-path="url(#p6f66e23fb0)" style="fill: #1f77b4; opacity: 0.6"/>
   </g>
   <g id="patch_19">
    <path d="M 331.656298 828.779375 
L 343.98825 828.779375 
L 343.98825 414.480925 
L 331.656298 414.480925 
z
" clip-path="url(#p6f66e23fb0)" style="fill: #1f77b4; opacity: 0.6"/>
   </g>
   <g id="patch_20">
    <path d="M 343.98825 828.779375 
L 356.320202 828.779375 
L 356.320202 397.158341 
L 343.98825 397.158341 
z
" clip-path="url(#p6f66e23fb0)" style="fill: #1f77b4; opacity: 0.6"/>
   </g>
   <g id="patch_21">
    <path d="M 356.320202 828.779375 
L 368.652153 828.779375 
L 368.652153 339.89758 
L 356.320202 339.89758 
z
" clip-path="url(#p6f66e23fb0)" style="fill: #1f77b4; opacity: 0.6"/>
   </g>
   <g id="patch_22">
    <path d="M 368.652153 828.779375 
L 380.984105 828.779375 
L 380.984105 324.980911 
L 368.652153 324.980911 
z
" clip-path="url(#p6f66e23fb0)" style="fill: #1f77b4; opacity: 0.6"/>
   </g>
   <g id="patch_23">
    <path d="M 380.984105 828.779375 
L 393.316057 828.779375 
L 393.316057 288.892196 
L 380.984105 288.892196 
z
" clip-path="url(#p6f66e23fb0)" style="fill: #1f77b4; opacity: 0.6"/>
   </g>
   <g id="patch_24">
    <path d="M 393.316057 828.779375 
L 405.648009 828.779375 
L 405.648009 254.247029 
L 393.316057 254.247029 
z
" clip-path="url(#p6f66e23fb0)" style="fill: #1f77b4; opacity: 0.6"/>
   </g>
   <g id="patch_25">
    <path d="M 405.648009 828.779375 
L 417.97996 828.779375 
L 417.97996 236.443263 
L 405.648009 236.443263 
z
" clip-path="url(#p6f66e23fb0)" style="fill: #1f77b4; opacity: 0.6"/>
   </g>
   <g id="patch_26">
    <path d="M 417.97996 828.779375 
L 430.311912 828.779375 
L 430.311912 215.271217 
L 417.97996 215.271217 
z
" clip-path="url(#p6f66e23fb0)" style="fill: #1f77b4; opacity: 0.6"/>
   </g>
   <g id="patch_27">
    <path d="M 430.311912 828.779375 
L 442.643864 828.779375 
L 442.643864 170.52121 
L 430.311912 170.52121 
z
" clip-path="url(#p6f66e23fb0)" style="fill: #1f77b4; opacity: 0.6"/>
   </g>
   <g id="patch_28">
    <path d="M 442.643864 828.779375 
L 454.975815 828.779375 
L 454.975815 151.273895 
L 442.643864 151.273895 
z
" clip-path="url(#p6f66e23fb0)" style="fill: #1f77b4; opacity: 0.6"/>
   </g>
   <g id="patch_29">
    <path d="M 454.975815 828.779375 
L 467.307767 828.779375 
L 467.307767 151.273895 
L 454.975815 151.273895 
z
" clip-path="url(#p6f66e23fb0)" style="fill: #1f77b4; opacity: 0.6"/>
   </g>
   <g id="patch_30">
    <path d="M 467.307767 828.779375 
L 479.639719 828.779375 
L 479.639719 109.892168 
L 467.307767 109.892168 
z
" clip-path="url(#p6f66e23fb0)" style="fill: #1f77b4; opacity: 0.6"/>
   </g>
   <g id="patch_31">
    <path d="M 479.639719 828.779375 
L 491.97167 828.779375 
L 491.97167 106.042705 
L 479.639719 106.042705 
z
" clip-path="url(#p6f66e23fb0)" style="fill: #1f77b4; opacity: 0.6"/>
   </g>
   <g id="patch_32">
    <path d="M 491.97167 828.779375 
L 504.303622 828.779375 
L 504.303622 75.728185 
L 491.97167 75.728185 
z
" clip-path="url(#p6f66e23fb0)" style="fill: #1f77b4; opacity: 0.6"/>
   </g>
   <g id="patch_33">
    <path d="M 504.303622 828.779375 
L 516.635574 828.779375 
L 516.635574 114.703997 
L 504.303622 114.703997 
z
" clip-path="url(#p6f66e23fb0)" style="fill: #1f77b4; opacity: 0.6"/>
   </g>
   <g id="patch_34">
    <path d="M 516.635574 828.779375 
L 528.967526 828.779375 
L 528.967526 119.997009 
L 516.635574 119.997009 
z
" clip-path="url(#p6f66e23fb0)" style="fill: #1f77b4; opacity: 0.6"/>
   </g>
   <g id="patch_35">
    <path d="M 528.967526 828.779375 
L 541.299477 828.779375 
L 541.299477 117.109911 
L 528.967526 117.109911 
z
" clip-path="url(#p6f66e23fb0)" style="fill: #1f77b4; opacity: 0.6"/>
   </g>
   <g id="patch_36">
    <path d="M 541.299477 828.779375 
L 553.631429 828.779375 
L 553.631429 142.13142 
L 541.299477 142.13142 
z
" clip-path="url(#p6f66e23fb0)" style="fill: #1f77b4; opacity: 0.6"/>
   </g>
   <g id="patch_37">
    <path d="M 553.631429 828.779375 
L 565.963381 828.779375 
L 565.963381 182.069599 
L 553.631429 182.069599 
z
" clip-path="url(#p6f66e23fb0)" style="fill: #1f77b4; opacity: 0.6"/>
   </g>
   <g id="patch_38">
    <path d="M 565.963381 828.779375 
L 578.295332 828.779375 
L 578.295332 160.41637 
L 565.963381 160.41637 
z
" clip-path="url(#p6f66e23fb0)" style="fill: #1f77b4; opacity: 0.6"/>
   </g>
   <g id="patch_39">
    <path d="M 578.295332 828.779375 
L 590.627284 828.779375 
L 590.627284 192.174439 
L 578.295332 192.174439 
z
" clip-path="url(#p6f66e23fb0)" style="fill: #1f77b4; opacity: 0.6"/>
   </g>
   <g id="patch_40">
    <path d="M 590.627284 828.779375 
L 602.959236 828.779375 
L 602.959236 182.069599 
L 590.627284 182.069599 
z
" clip-path="url(#p6f66e23fb0)" style="fill: #1f77b4; opacity: 0.6"/>
   </g>
   <g id="patch_41">
    <path d="M 602.959236 828.779375 
L 615.291187 828.779375 
L 615.291187 208.534656 
L 602.959236 208.534656 
z
" clip-path="url(#p6f66e23fb0)" style="fill: #1f77b4; opacity: 0.6"/>
   </g>
   <g id="patch_42">
    <path d="M 615.291187 828.779375 
L 627.623139 828.779375 
L 627.623139 282.636818 
L 615.291187 282.636818 
z
" clip-path="url(#p6f66e23fb0)" style="fill: #1f77b4; opacity: 0.6"/>
   </g>
   <g id="patch_43">
    <path d="M 627.623139 828.779375 
L 639.955091 828.779375 
L 639.955091 270.607247 
L 627.623139 270.607247 
z
" clip-path="url(#p6f66e23fb0)" style="fill: #1f77b4; opacity: 0.6"/>
   </g>
   <g id="patch_44">
    <path d="M 639.955091 828.779375 
L 652.287043 828.779375 
L 652.287043 323.056179 
L 639.955091 323.056179 
z
" clip-path="url(#p6f66e23fb0)" style="fill: #1f77b4; opacity: 0.6"/>
   </g>
   <g id="patch_45">
    <path d="M 652.287043 828.779375 
L 664.618994 828.779375 
L 664.618994 352.408334 
L 652.287043 352.408334 
z
" clip-path="url(#p6f66e23fb0)" style="fill: #1f77b4; opacity: 0.6"/>
   </g>
   <g id="patch_46">
    <path d="M 664.618994 828.779375 
L 676.950946 828.779375 
L 676.950946 347.115323 
L 664.618994 347.115323 
z
" clip-path="url(#p6f66e23fb0)" style="fill: #1f77b4; opacity: 0.6"/>
   </g>
   <g id="patch_47">
    <path d="M 676.950946 828.779375 
L 689.282898 828.779375 
L 689.282898 382.722855 
L 676.950946 382.722855 
z
" clip-path="url(#p6f66e23fb0)" style="fill: #1f77b4; opacity: 0.6"/>
   </g>
   <g id="patch_48">
    <path d="M 689.282898 828.779375 
L 701.614849 828.779375 
L 701.614849 418.330387 
L 689.282898 418.330387 
z
" clip-path="url(#p6f66e23fb0)" style="fill: #1f77b4; opacity: 0.6"/>
   </g>
   <g id="patch_49">
    <path d="M 701.614849 828.779375 
L 713.946801 828.779375 
L 713.946801 451.532005 
L 701.614849 451.532005 
z
" clip-path="url(#p6f66e23fb0)" style="fill: #1f77b4; opacity: 0.6"/>
   </g>
   <g id="patch_50">
    <path d="M 713.946801 828.779375 
L 726.278753 828.779375 
L 726.278753 454.900286 
L 713.946801 454.900286 
z
" clip-path="url(#p6f66e23fb0)" style="fill: #1f77b4; opacity: 0.6"/>
   </g>
   <g id="patch_51">
    <path d="M 726.278753 828.779375 
L 738.610705 828.779375 
L 738.610705 490.507818 
L 726.278753 490.507818 
z
" clip-path="url(#p6f66e23fb0)" style="fill: #1f77b4; opacity: 0.6"/>
   </g>
   <g id="patch_52">
    <path d="M 738.610705 828.779375 
L 750.942656 828.779375 
L 750.942656 542.956751 
L 738.610705 542.956751 
z
" clip-path="url(#p6f66e23fb0)" style="fill: #1f77b4; opacity: 0.6"/>
   </g>
   <g id="patch_53">
    <path d="M 750.942656 828.779375 
L 763.274608 828.779375 
L 763.274608 541.513202 
L 750.942656 541.513202 
z
" clip-path="url(#p6f66e23fb0)" style="fill: #1f77b4; opacity: 0.6"/>
   </g>
   <g id="patch_54">
    <path d="M 763.274608 828.779375 
L 775.60656 828.779375 
L 775.60656 563.166431 
L 763.274608 563.166431 
z
" clip-path="url(#p6f66e23fb0)" style="fill: #1f77b4; opacity: 0.6"/>
   </g>
   <g id="patch_55">
    <path d="M 775.60656 828.779375 
L 787.938511 828.779375 
L 787.938511 575.677186 
L 775.60656 575.677186 
z
" clip-path="url(#p6f66e23fb0)" style="fill: #1f77b4; opacity: 0.6"/>
   </g>
   <g id="patch_56">
    <path d="M 787.938511 828.779375 
L 800.270463 828.779375 
L 800.270463 619.94601 
L 787.938511 619.94601 
z
" clip-path="url(#p6f66e23fb0)" style="fill: #1f77b4; opacity: 0.6"/>
   </g>
   <g id="patch_57">
    <path d="M 800.270463 828.779375 
L 812.602415 828.779375 
L 812.602415 620.908375 
L 800.270463 620.908375 
z
" clip-path="url(#p6f66e23fb0)" style="fill: #1f77b4; opacity: 0.6"/>
   </g>
   <g id="patch_58">
    <path d="M 812.602415 828.779375 
L 824.934366 828.779375 
L 824.934366 656.997091 
L 812.602415 656.997091 
z
" clip-path="url(#p6f66e23fb0)" style="fill: #1f77b4; opacity: 0.6"/>
   </g>
   <g id="patch_59">
    <path d="M 824.934366 828.779375 
L 837.266318 828.779375 
L 837.266318 677.206771 
L 824.934366 677.206771 
z
" clip-path="url(#p6f66e23fb0)" style="fill: #1f77b4; opacity: 0.6"/>
   </g>
   <g id="patch_60">
    <path d="M 837.266318 828.779375 
L 849.59827 828.779375 
L 849.59827 680.575051 
L 837.266318 680.575051 
z
" clip-path="url(#p6f66e23fb0)" style="fill: #1f77b4; opacity: 0.6"/>
   </g>
   <g id="patch_61">
    <path d="M 849.59827 828.779375 
L 861.930222 828.779375 
L 861.930222 699.341183 
L 849.59827 699.341183 
z
" clip-path="url(#p6f66e23fb0)" style="fill: #1f77b4; opacity: 0.6"/>
   </g>
   <g id="patch_62">
    <path d="M 861.930222 828.779375 
L 874.262173 828.779375 
L 874.262173 700.784732 
L 861.930222 700.784732 
z
" clip-path="url(#p6f66e23fb0)" style="fill: #1f77b4; opacity: 0.6"/>
   </g>
   <g id="patch_63">
    <path d="M 874.262173 828.779375 
L 886.594125 828.779375 
L 886.594125 737.835813 
L 874.262173 737.835813 
z
" clip-path="url(#p6f66e23fb0)" style="fill: #1f77b4; opacity: 0.6"/>
   </g>
   <g id="patch_64">
    <path d="M 886.594125 828.779375 
L 898.926077 828.779375 
L 898.926077 745.053556 
L 886.594125 745.053556 
z
" clip-path="url(#p6f66e23fb0)" style="fill: #1f77b4; opacity: 0.6"/>
   </g>
   <g id="patch_65">
    <path d="M 898.926077 828.779375 
L 911.258028 828.779375 
L 911.258028 767.669151 
L 898.926077 767.669151 
z
" clip-path="url(#p6f66e23fb0)" style="fill: #1f77b4; opacity: 0.6"/>
   </g>
   <g id="patch_66">
    <path d="M 911.258028 828.779375 
L 923.58998 828.779375 
L 923.58998 762.857322 
L 911.258028 762.857322 
z
" clip-path="url(#p6f66e23fb0)" style="fill: #1f77b4; opacity: 0.6"/>
   </g>
   <g id="patch_67">
    <path d="M 923.58998 828.779375 
L 935.921932 828.779375 
L 935.921932 767.669151 
L 923.58998 767.669151 
z
" clip-path="url(#p6f66e23fb0)" style="fill: #1f77b4; opacity: 0.6"/>
   </g>
   <g id="patch_68">
    <path d="M 935.921932 828.779375 
L 948.253884 828.779375 
L 948.253884 782.104637 
L 935.921932 782.104637 
z
" clip-path="url(#p6f66e23fb0)" style="fill: #1f77b4; opacity: 0.6"/>
   </g>
   <g id="patch_69">
    <path d="M 948.253884 828.779375 
L 960.585835 828.779375 
L 960.585835 784.510551 
L 948.253884 784.510551 
z
" clip-path="url(#p6f66e23fb0)" style="fill: #1f77b4; opacity: 0.6"/>
   </g>
   <g id="patch_70">
    <path d="M 960.585835 828.779375 
L 972.917787 828.779375 
L 972.917787 790.284745 
L 960.585835 790.284745 
z
" clip-path="url(#p6f66e23fb0)" style="fill: #1f77b4; opacity: 0.6"/>
   </g>
   <g id="patch_71">
    <path d="M 972.917787 828.779375 
L 985.249739 828.779375 
L 985.249739 791.728294 
L 972.917787 791.728294 
z
" clip-path="url(#p6f66e23fb0)" style="fill: #1f77b4; opacity: 0.6"/>
   </g>
   <g id="patch_72">
    <path d="M 985.249739 828.779375 
L 997.58169 828.779375 
L 997.58169 803.276683 
L 985.249739 803.276683 
z
" clip-path="url(#p6f66e23fb0)" style="fill: #1f77b4; opacity: 0.6"/>
   </g>
   <g id="patch_73">
    <path d="M 997.58169 828.779375 
L 1009.913642 828.779375 
L 1009.913642 806.16378 
L 997.58169 806.16378 
z
" clip-path="url(#p6f66e23fb0)" style="fill: #1f77b4; opacity: 0.6"/>
   </g>
   <g id="patch_74">
    <path d="M 1009.913642 828.779375 
L 1022.245594 828.779375 
L 1022.245594 807.126146 
L 1009.913642 807.126146 
z
" clip-path="url(#p6f66e23fb0)" style="fill: #1f77b4; opacity: 0.6"/>
   </g>
   <g id="patch_75">
    <path d="M 1022.245594 828.779375 
L 1034.577545 828.779375 
L 1034.577545 811.456792 
L 1022.245594 811.456792 
z
" clip-path="url(#p6f66e23fb0)" style="fill: #1f77b4; opacity: 0.6"/>
   </g>
   <g id="patch_76">
    <path d="M 1034.577545 828.779375 
L 1046.909497 828.779375 
L 1046.909497 812.90034 
L 1034.577545 812.90034 
z
" clip-path="url(#p6f66e23fb0)" style="fill: #1f77b4; opacity: 0.6"/>
   </g>
   <g id="patch_77">
    <path d="M 1046.909497 828.779375 
L 1059.241449 828.779375 
L 1059.241449 815.306255 
L 1046.909497 815.306255 
z
" clip-path="url(#p6f66e23fb0)" style="fill: #1f77b4; opacity: 0.6"/>
   </g>
   <g id="patch_78">
    <path d="M 1059.241449 828.779375 
L 1071.573401 828.779375 
L 1071.573401 818.674535 
L 1059.241449 818.674535 
z
" clip-path="url(#p6f66e23fb0)" style="fill: #1f77b4; opacity: 0.6"/>
   </g>
   <g id="patch_79">
    <path d="M 1071.573401 828.779375 
L 1083.905352 828.779375 
L 1083.905352 819.155718 
L 1071.573401 819.155718 
z
" clip-path="url(#p6f66e23fb0)" style="fill: #1f77b4; opacity: 0.6"/>
   </g>
   <g id="patch_80">
    <path d="M 1083.905352 828.779375 
L 1096.237304 828.779375 
L 1096.237304 823.967546 
L 1083.905352 823.967546 
z
" clip-path="url(#p6f66e23fb0)" style="fill: #1f77b4; opacity: 0.6"/>
   </g>
   <g id="patch_81">
    <path d="M 1096.237304 828.779375 
L 1108.569256 828.779375 
L 1108.569256 824.448729 
L 1096.237304 824.448729 
z
" clip-path="url(#p6f66e23fb0)" style="fill: #1f77b4; opacity: 0.6"/>
   </g>
   <g id="patch_82">
    <path d="M 1108.569256 828.779375 
L 1120.901207 828.779375 
L 1120.901207 822.042815 
L 1108.569256 822.042815 
z
" clip-path="url(#p6f66e23fb0)" style="fill: #1f77b4; opacity: 0.6"/>
   </g>
   <g id="patch_83">
    <path d="M 1120.901207 828.779375 
L 1133.233159 828.779375 
L 1133.233159 824.929912 
L 1120.901207 824.929912 
z
" clip-path="url(#p6f66e23fb0)" style="fill: #1f77b4; opacity: 0.6"/>
   </g>
   <g id="patch_84">
    <path d="M 1133.233159 828.779375 
L 1145.565111 828.779375 
L 1145.565111 825.892278 
L 1133.233159 825.892278 
z
" clip-path="url(#p6f66e23fb0)" style="fill: #1f77b4; opacity: 0.6"/>
   </g>
   <g id="patch_85">
    <path d="M 1145.565111 828.779375 
L 1157.897063 828.779375 
L 1157.897063 825.411095 
L 1145.565111 825.411095 
z
" clip-path="url(#p6f66e23fb0)" style="fill: #1f77b4; opacity: 0.6"/>
   </g>
   <g id="patch_86">
    <path d="M 1157.897062 828.779375 
L 1170.229014 828.779375 
L 1170.229014 827.817009 
L 1157.897062 827.817009 
z
" clip-path="url(#p6f66e23fb0)" style="fill: #1f77b4; opacity: 0.6"/>
   </g>
   <g id="patch_87">
    <path d="M 1170.229014 828.779375 
L 1182.560966 828.779375 
L 1182.560966 826.373461 
L 1170.229014 826.373461 
z
" clip-path="url(#p6f66e23fb0)" style="fill: #1f77b4; opacity: 0.6"/>
   </g>
   <g id="patch_88">
    <path d="M 1182.560966 828.779375 
L 1194.892918 828.779375 
L 1194.892918 828.298192 
L 1182.560966 828.298192 
z
" clip-path="url(#p6f66e23fb0)" style="fill: #1f77b4; opacity: 0.6"/>
   </g>
   <g id="patch_89">
    <path d="M 1194.892918 828.779375 
L 1207.224869 828.779375 
L 1207.224869 826.854644 
L 1194.892918 826.854644 
z
" clip-path="url(#p6f66e23fb0)" style="fill: #1f77b4; opacity: 0.6"/>
   </g>
   <g id="patch_90">
    <path d="M 1207.224869 828.779375 
L 1219.556821 828.779375 
L 1219.556821 828.298192 
L 1207.224869 828.298192 
z
" clip-path="url(#p6f66e23fb0)" style="fill: #1f77b4; opacity: 0.6"/>
   </g>
   <g id="patch_91">
    <path d="M 1219.556821 828.779375 
L 1231.888773 828.779375 
L 1231.888773 827.817009 
L 1219.556821 827.817009 
z
" clip-path="url(#p6f66e23fb0)" style="fill: #1f77b4; opacity: 0.6"/>
   </g>
   <g id="patch_92">
    <path d="M 1231.888773 828.779375 
L 1244.220724 828.779375 
L 1244.220724 827.817009 
L 1231.888773 827.817009 
z
" clip-path="url(#p6f66e23fb0)" style="fill: #1f77b4; opacity: 0.6"/>
   </g>
   <g id="patch_93">
    <path d="M 1244.220724 828.779375 
L 1256.552676 828.779375 
L 1256.552676 828.298192 
L 1244.220724 828.298192 
z
" clip-path="url(#p6f66e23fb0)" style="fill: #1f77b4; opacity: 0.6"/>
   </g>
   <g id="patch_94">
    <path d="M 1256.552676 828.779375 
L 1268.884628 828.779375 
L 1268.884628 828.779375 
L 1256.552676 828.779375 
z
" clip-path="url(#p6f66e23fb0)" style="fill: #1f77b4; opacity: 0.6"/>
   </g>
   <g id="patch_95">
    <path d="M 1268.884628 828.779375 
L 1281.21658 828.779375 
L 1281.21658 828.779375 
L 1268.884628 828.779375 
z
" clip-path="url(#p6f66e23fb0)" style="fill: #1f77b4; opacity: 0.6"/>
   </g>
   <g id="patch_96">
    <path d="M 1281.21658 828.779375 
L 1293.548531 828.779375 
L 1293.548531 828.779375 
L 1281.21658 828.779375 
z
" clip-path="url(#p6f66e23fb0)" style="fill: #1f77b4; opacity: 0.6"/>
   </g>
   <g id="patch_97">
    <path d="M 1293.548531 828.779375 
L 1305.880483 828.779375 
L 1305.880483 828.779375 
L 1293.548531 828.779375 
z
" clip-path="url(#p6f66e23fb0)" style="fill: #1f77b4; opacity: 0.6"/>
   </g>
   <g id="patch_98">
    <path d="M 1305.880483 828.779375 
L 1318.212435 828.779375 
L 1318.212435 828.779375 
L 1305.880483 828.779375 
z
" clip-path="url(#p6f66e23fb0)" style="fill: #1f77b4; opacity: 0.6"/>
   </g>
   <g id="patch_99">
    <path d="M 1318.212435 828.779375 
L 1330.544386 828.779375 
L 1330.544386 828.779375 
L 1318.212435 828.779375 
z
" clip-path="url(#p6f66e23fb0)" style="fill: #1f77b4; opacity: 0.6"/>
   </g>
   <g id="patch_100">
    <path d="M 1330.544386 828.779375 
L 1342.876338 828.779375 
L 1342.876338 828.779375 
L 1330.544386 828.779375 
z
" clip-path="url(#p6f66e23fb0)" style="fill: #1f77b4; opacity: 0.6"/>
   </g>
   <g id="patch_101">
    <path d="M 1342.876338 828.779375 
L 1355.20829 828.779375 
L 1355.20829 828.779375 
L 1342.876338 828.779375 
z
" clip-path="url(#p6f66e23fb0)" style="fill: #1f77b4; opacity: 0.6"/>
   </g>
   <g id="patch_102">
    <path d="M 1355.20829 828.779375 
L 1367.540241 828.779375 
L 1367.540241 828.298192 
L 1355.20829 828.298192 
z
" clip-path="url(#p6f66e23fb0)" style="fill: #1f77b4; opacity: 0.6"/>
   </g>
   <g id="matplotlib.axis_1">
    <g id="xtick_1">
     <g id="line2d_1">
      <defs>
       <path id="mb4e244faa3" d="M 0 0 
L 0 3.5 
" style="stroke: #000000; stroke-width: 0.8"/>
      </defs>
      <g>
       <use xlink:href="#mb4e244faa3" x="90.709019" y="828.779375" style="stroke: #000000; stroke-width: 0.8"/>
      </g>
     </g>
     <g id="text_1">
      <!-- 0 -->
      <g transform="translate(84.982769 849.456563) scale(0.18 -0.18)">
       <defs>
        <path id="DejaVuSans-30" d="M 2034 4250 
Q 1547 4250 1301 3770 
Q 1056 3291 1056 2328 
Q 1056 1369 1301 889 
Q 1547 409 2034 409 
Q 2525 409 2770 889 
Q 3016 1369 3016 2328 
Q 3016 3291 2770 3770 
Q 2525 4250 2034 4250 
z
M 2034 4750 
Q 2819 4750 3233 4129 
Q 3647 3509 3647 2328 
Q 3647 1150 3233 529 
Q 2819 -91 2034 -91 
Q 1250 -91 836 529 
Q 422 1150 422 2328 
Q 422 3509 836 4129 
Q 1250 4750 2034 4750 
z
" transform="scale(0.015625)"/>
       </defs>
       <use xlink:href="#DejaVuSans-30"/>
      </g>
     </g>
    </g>
    <g id="xtick_2">
     <g id="line2d_2">
      <g>
       <use xlink:href="#mb4e244faa3" x="330.360048" y="828.779375" style="stroke: #000000; stroke-width: 0.8"/>
      </g>
     </g>
     <g id="text_2">
      <!-- 1 -->
      <g transform="translate(324.633798 849.456563) scale(0.18 -0.18)">
       <defs>
        <path id="DejaVuSans-31" d="M 794 531 
L 1825 531 
L 1825 4091 
L 703 3866 
L 703 4441 
L 1819 4666 
L 2450 4666 
L 2450 531 
L 3481 531 
L 3481 0 
L 794 0 
L 794 531 
z
" transform="scale(0.015625)"/>
       </defs>
       <use xlink:href="#DejaVuSans-31"/>
      </g>
     </g>
    </g>
    <g id="xtick_3">
     <g id="line2d_3">
      <g>
       <use xlink:href="#mb4e244faa3" x="570.011077" y="828.779375" style="stroke: #000000; stroke-width: 0.8"/>
      </g>
     </g>
     <g id="text_3">
      <!-- 2 -->
      <g transform="translate(564.284827 849.456563) scale(0.18 -0.18)">
       <defs>
        <path id="DejaVuSans-32" d="M 1228 531 
L 3431 531 
L 3431 0 
L 469 0 
L 469 531 
Q 828 903 1448 1529 
Q 2069 2156 2228 2338 
Q 2531 2678 2651 2914 
Q 2772 3150 2772 3378 
Q 2772 3750 2511 3984 
Q 2250 4219 1831 4219 
Q 1534 4219 1204 4116 
Q 875 4013 500 3803 
L 500 4441 
Q 881 4594 1212 4672 
Q 1544 4750 1819 4750 
Q 2544 4750 2975 4387 
Q 3406 4025 3406 3419 
Q 3406 3131 3298 2873 
Q 3191 2616 2906 2266 
Q 2828 2175 2409 1742 
Q 1991 1309 1228 531 
z
" transform="scale(0.015625)"/>
       </defs>
       <use xlink:href="#DejaVuSans-32"/>
      </g>
     </g>
    </g>
    <g id="xtick_4">
     <g id="line2d_4">
      <g>
       <use xlink:href="#mb4e244faa3" x="809.662106" y="828.779375" style="stroke: #000000; stroke-width: 0.8"/>
      </g>
     </g>
     <g id="text_4">
      <!-- 3 -->
      <g transform="translate(803.935856 849.456563) scale(0.18 -0.18)">
       <defs>
        <path id="DejaVuSans-33" d="M 2597 2516 
Q 3050 2419 3304 2112 
Q 3559 1806 3559 1356 
Q 3559 666 3084 287 
Q 2609 -91 1734 -91 
Q 1441 -91 1130 -33 
Q 819 25 488 141 
L 488 750 
Q 750 597 1062 519 
Q 1375 441 1716 441 
Q 2309 441 2620 675 
Q 2931 909 2931 1356 
Q 2931 1769 2642 2001 
Q 2353 2234 1838 2234 
L 1294 2234 
L 1294 2753 
L 1863 2753 
Q 2328 2753 2575 2939 
Q 2822 3125 2822 3475 
Q 2822 3834 2567 4026 
Q 2313 4219 1838 4219 
Q 1578 4219 1281 4162 
Q 984 4106 628 3988 
L 628 4550 
Q 988 4650 1302 4700 
Q 1616 4750 1894 4750 
Q 2613 4750 3031 4423 
Q 3450 4097 3450 3541 
Q 3450 3153 3228 2886 
Q 3006 2619 2597 2516 
z
" transform="scale(0.015625)"/>
       </defs>
       <use xlink:href="#DejaVuSans-33"/>
      </g>
     </g>
    </g>
    <g id="xtick_5">
     <g id="line2d_5">
      <g>
       <use xlink:href="#mb4e244faa3" x="1049.313135" y="828.779375" style="stroke: #000000; stroke-width: 0.8"/>
      </g>
     </g>
     <g id="text_5">
      <!-- 4 -->
      <g transform="translate(1043.586885 849.456563) scale(0.18 -0.18)">
       <defs>
        <path id="DejaVuSans-34" d="M 2419 4116 
L 825 1625 
L 2419 1625 
L 2419 4116 
z
M 2253 4666 
L 3047 4666 
L 3047 1625 
L 3713 1625 
L 3713 1100 
L 3047 1100 
L 3047 0 
L 2419 0 
L 2419 1100 
L 313 1100 
L 313 1709 
L 2253 4666 
z
" transform="scale(0.015625)"/>
       </defs>
       <use xlink:href="#DejaVuSans-34"/>
      </g>
     </g>
    </g>
    <g id="xtick_6">
     <g id="line2d_6">
      <g>
       <use xlink:href="#mb4e244faa3" x="1288.964164" y="828.779375" style="stroke: #000000; stroke-width: 0.8"/>
      </g>
     </g>
     <g id="text_6">
      <!-- 5 -->
      <g transform="translate(1283.237914 849.456563) scale(0.18 -0.18)">
       <defs>
        <path id="DejaVuSans-35" d="M 691 4666 
L 3169 4666 
L 3169 4134 
L 1269 4134 
L 1269 2991 
Q 1406 3038 1543 3061 
Q 1681 3084 1819 3084 
Q 2600 3084 3056 2656 
Q 3513 2228 3513 1497 
Q 3513 744 3044 326 
Q 2575 -91 1722 -91 
Q 1428 -91 1123 -41 
Q 819 9 494 109 
L 494 744 
Q 775 591 1075 516 
Q 1375 441 1709 441 
Q 2250 441 2565 725 
Q 2881 1009 2881 1497 
Q 2881 1984 2565 2268 
Q 2250 2553 1709 2553 
Q 1456 2553 1204 2497 
Q 953 2441 691 2322 
L 691 4666 
z
" transform="scale(0.015625)"/>
       </defs>
       <use xlink:href="#DejaVuSans-35"/>
      </g>
     </g>
    </g>
   </g>
   <g id="matplotlib.axis_2">
    <g id="ytick_1">
     <g id="line2d_7">
      <defs>
       <path id="mad32357ffd" d="M 0 0 
L -3.5 0 
" style="stroke: #000000; stroke-width: 0.8"/>
      </defs>
      <g>
       <use xlink:href="#mad32357ffd" x="72.685313" y="828.779375" style="stroke: #000000; stroke-width: 0.8"/>
      </g>
     </g>
     <g id="text_7">
      <!-- 0.0 -->
      <g transform="translate(37.059688 835.617969) scale(0.18 -0.18)">
       <defs>
        <path id="DejaVuSans-2e" d="M 684 794 
L 1344 794 
L 1344 0 
L 684 0 
L 684 794 
z
" transform="scale(0.015625)"/>
       </defs>
       <use xlink:href="#DejaVuSans-30"/>
       <use xlink:href="#DejaVuSans-2e" x="63.623047"/>
       <use xlink:href="#DejaVuSans-30" x="95.410156"/>
      </g>
     </g>
    </g>
    <g id="ytick_2">
     <g id="line2d_8">
      <g>
       <use xlink:href="#mad32357ffd" x="72.685313" y="704.975944" style="stroke: #000000; stroke-width: 0.8"/>
      </g>
     </g>
     <g id="text_8">
      <!-- 0.1 -->
      <g transform="translate(37.059688 711.814538) scale(0.18 -0.18)">
       <use xlink:href="#DejaVuSans-30"/>
       <use xlink:href="#DejaVuSans-2e" x="63.623047"/>
       <use xlink:href="#DejaVuSans-31" x="95.410156"/>
      </g>
     </g>
    </g>
    <g id="ytick_3">
     <g id="line2d_9">
      <g>
       <use xlink:href="#mad32357ffd" x="72.685313" y="581.172514" style="stroke: #000000; stroke-width: 0.8"/>
      </g>
     </g>
     <g id="text_9">
      <!-- 0.2 -->
      <g transform="translate(37.059688 588.011108) scale(0.18 -0.18)">
       <use xlink:href="#DejaVuSans-30"/>
       <use xlink:href="#DejaVuSans-2e" x="63.623047"/>
       <use xlink:href="#DejaVuSans-32" x="95.410156"/>
      </g>
     </g>
    </g>
    <g id="ytick_4">
     <g id="line2d_10">
      <g>
       <use xlink:href="#mad32357ffd" x="72.685313" y="457.369083" style="stroke: #000000; stroke-width: 0.8"/>
      </g>
     </g>
     <g id="text_10">
      <!-- 0.3 -->
      <g transform="translate(37.059688 464.207677) scale(0.18 -0.18)">
       <use xlink:href="#DejaVuSans-30"/>
       <use xlink:href="#DejaVuSans-2e" x="63.623047"/>
       <use xlink:href="#DejaVuSans-33" x="95.410156"/>
      </g>
     </g>
    </g>
    <g id="ytick_5">
     <g id="line2d_11">
      <g>
       <use xlink:href="#mad32357ffd" x="72.685313" y="333.565653" style="stroke: #000000; stroke-width: 0.8"/>
      </g>
     </g>
     <g id="text_11">
      <!-- 0.4 -->
      <g transform="translate(37.059688 340.404246) scale(0.18 -0.18)">
       <use xlink:href="#DejaVuSans-30"/>
       <use xlink:href="#DejaVuSans-2e" x="63.623047"/>
       <use xlink:href="#DejaVuSans-34" x="95.410156"/>
      </g>
     </g>
    </g>
    <g id="ytick_6">
     <g id="line2d_12">
      <g>
       <use xlink:href="#mad32357ffd" x="72.685313" y="209.762222" style="stroke: #000000; stroke-width: 0.8"/>
      </g>
     </g>
     <g id="text_12">
      <!-- 0.5 -->
      <g transform="translate(37.059688 216.600816) scale(0.18 -0.18)">
       <use xlink:href="#DejaVuSans-30"/>
       <use xlink:href="#DejaVuSans-2e" x="63.623047"/>
       <use xlink:href="#DejaVuSans-35" x="95.410156"/>
      </g>
     </g>
    </g>
    <g id="ytick_7">
     <g id="line2d_13">
      <g>
       <use xlink:href="#mad32357ffd" x="72.685313" y="85.958792" style="stroke: #000000; stroke-width: 0.8"/>
      </g>
     </g>
     <g id="text_13">
      <!-- 0.6 -->
      <g transform="translate(37.059688 92.797385) scale(0.18 -0.18)">
       <defs>
        <path id="DejaVuSans-36" d="M 2113 2584 
Q 1688 2584 1439 2293 
Q 1191 2003 1191 1497 
Q 1191 994 1439 701 
Q 1688 409 2113 409 
Q 2538 409 2786 701 
Q 3034 994 3034 1497 
Q 3034 2003 2786 2293 
Q 2538 2584 2113 2584 
z
M 3366 4563 
L 3366 3988 
Q 3128 4100 2886 4159 
Q 2644 4219 2406 4219 
Q 1781 4219 1451 3797 
Q 1122 3375 1075 2522 
Q 1259 2794 1537 2939 
Q 1816 3084 2150 3084 
Q 2853 3084 3261 2657 
Q 3669 2231 3669 1497 
Q 3669 778 3244 343 
Q 2819 -91 2113 -91 
Q 1303 -91 875 529 
Q 447 1150 447 2328 
Q 447 3434 972 4092 
Q 1497 4750 2381 4750 
Q 2619 4750 2861 4703 
Q 3103 4656 3366 4563 
z
" transform="scale(0.015625)"/>
       </defs>
       <use xlink:href="#DejaVuSans-30"/>
       <use xlink:href="#DejaVuSans-2e" x="63.623047"/>
       <use xlink:href="#DejaVuSans-36" x="95.410156"/>
      </g>
     </g>
    </g>
    <g id="text_14">
     <!-- Normed Hist Counts -->
     <g transform="translate(28.276406 548.966563) rotate(-90) scale(0.23 -0.23)">
      <defs>
       <path id="DejaVuSans-4e" d="M 628 4666 
L 1478 4666 
L 3547 763 
L 3547 4666 
L 4159 4666 
L 4159 0 
L 3309 0 
L 1241 3903 
L 1241 0 
L 628 0 
L 628 4666 
z
" transform="scale(0.015625)"/>
       <path id="DejaVuSans-6f" d="M 1959 3097 
Q 1497 3097 1228 2736 
Q 959 2375 959 1747 
Q 959 1119 1226 758 
Q 1494 397 1959 397 
Q 2419 397 2687 759 
Q 2956 1122 2956 1747 
Q 2956 2369 2687 2733 
Q 2419 3097 1959 3097 
z
M 1959 3584 
Q 2709 3584 3137 3096 
Q 3566 2609 3566 1747 
Q 3566 888 3137 398 
Q 2709 -91 1959 -91 
Q 1206 -91 779 398 
Q 353 888 353 1747 
Q 353 2609 779 3096 
Q 1206 3584 1959 3584 
z
" transform="scale(0.015625)"/>
       <path id="DejaVuSans-72" d="M 2631 2963 
Q 2534 3019 2420 3045 
Q 2306 3072 2169 3072 
Q 1681 3072 1420 2755 
Q 1159 2438 1159 1844 
L 1159 0 
L 581 0 
L 581 3500 
L 1159 3500 
L 1159 2956 
Q 1341 3275 1631 3429 
Q 1922 3584 2338 3584 
Q 2397 3584 2469 3576 
Q 2541 3569 2628 3553 
L 2631 2963 
z
" transform="scale(0.015625)"/>
       <path id="DejaVuSans-6d" d="M 3328 2828 
Q 3544 3216 3844 3400 
Q 4144 3584 4550 3584 
Q 5097 3584 5394 3201 
Q 5691 2819 5691 2113 
L 5691 0 
L 5113 0 
L 5113 2094 
Q 5113 2597 4934 2840 
Q 4756 3084 4391 3084 
Q 3944 3084 3684 2787 
Q 3425 2491 3425 1978 
L 3425 0 
L 2847 0 
L 2847 2094 
Q 2847 2600 2669 2842 
Q 2491 3084 2119 3084 
Q 1678 3084 1418 2786 
Q 1159 2488 1159 1978 
L 1159 0 
L 581 0 
L 581 3500 
L 1159 3500 
L 1159 2956 
Q 1356 3278 1631 3431 
Q 1906 3584 2284 3584 
Q 2666 3584 2933 3390 
Q 3200 3197 3328 2828 
z
" transform="scale(0.015625)"/>
       <path id="DejaVuSans-65" d="M 3597 1894 
L 3597 1613 
L 953 1613 
Q 991 1019 1311 708 
Q 1631 397 2203 397 
Q 2534 397 2845 478 
Q 3156 559 3463 722 
L 3463 178 
Q 3153 47 2828 -22 
Q 2503 -91 2169 -91 
Q 1331 -91 842 396 
Q 353 884 353 1716 
Q 353 2575 817 3079 
Q 1281 3584 2069 3584 
Q 2775 3584 3186 3129 
Q 3597 2675 3597 1894 
z
M 3022 2063 
Q 3016 2534 2758 2815 
Q 2500 3097 2075 3097 
Q 1594 3097 1305 2825 
Q 1016 2553 972 2059 
L 3022 2063 
z
" transform="scale(0.015625)"/>
       <path id="DejaVuSans-64" d="M 2906 2969 
L 2906 4863 
L 3481 4863 
L 3481 0 
L 2906 0 
L 2906 525 
Q 2725 213 2448 61 
Q 2172 -91 1784 -91 
Q 1150 -91 751 415 
Q 353 922 353 1747 
Q 353 2572 751 3078 
Q 1150 3584 1784 3584 
Q 2172 3584 2448 3432 
Q 2725 3281 2906 2969 
z
M 947 1747 
Q 947 1113 1208 752 
Q 1469 391 1925 391 
Q 2381 391 2643 752 
Q 2906 1113 2906 1747 
Q 2906 2381 2643 2742 
Q 2381 3103 1925 3103 
Q 1469 3103 1208 2742 
Q 947 2381 947 1747 
z
" transform="scale(0.015625)"/>
       <path id="DejaVuSans-20" transform="scale(0.015625)"/>
       <path id="DejaVuSans-48" d="M 628 4666 
L 1259 4666 
L 1259 2753 
L 3553 2753 
L 3553 4666 
L 4184 4666 
L 4184 0 
L 3553 0 
L 3553 2222 
L 1259 2222 
L 1259 0 
L 628 0 
L 628 4666 
z
" transform="scale(0.015625)"/>
       <path id="DejaVuSans-69" d="M 603 3500 
L 1178 3500 
L 1178 0 
L 603 0 
L 603 3500 
z
M 603 4863 
L 1178 4863 
L 1178 4134 
L 603 4134 
L 603 4863 
z
" transform="scale(0.015625)"/>
       <path id="DejaVuSans-73" d="M 2834 3397 
L 2834 2853 
Q 2591 2978 2328 3040 
Q 2066 3103 1784 3103 
Q 1356 3103 1142 2972 
Q 928 2841 928 2578 
Q 928 2378 1081 2264 
Q 1234 2150 1697 2047 
L 1894 2003 
Q 2506 1872 2764 1633 
Q 3022 1394 3022 966 
Q 3022 478 2636 193 
Q 2250 -91 1575 -91 
Q 1294 -91 989 -36 
Q 684 19 347 128 
L 347 722 
Q 666 556 975 473 
Q 1284 391 1588 391 
Q 1994 391 2212 530 
Q 2431 669 2431 922 
Q 2431 1156 2273 1281 
Q 2116 1406 1581 1522 
L 1381 1569 
Q 847 1681 609 1914 
Q 372 2147 372 2553 
Q 372 3047 722 3315 
Q 1072 3584 1716 3584 
Q 2034 3584 2315 3537 
Q 2597 3491 2834 3397 
z
" transform="scale(0.015625)"/>
       <path id="DejaVuSans-74" d="M 1172 4494 
L 1172 3500 
L 2356 3500 
L 2356 3053 
L 1172 3053 
L 1172 1153 
Q 1172 725 1289 603 
Q 1406 481 1766 481 
L 2356 481 
L 2356 0 
L 1766 0 
Q 1100 0 847 248 
Q 594 497 594 1153 
L 594 3053 
L 172 3053 
L 172 3500 
L 594 3500 
L 594 4494 
L 1172 4494 
z
" transform="scale(0.015625)"/>
       <path id="DejaVuSans-43" d="M 4122 4306 
L 4122 3641 
Q 3803 3938 3442 4084 
Q 3081 4231 2675 4231 
Q 1875 4231 1450 3742 
Q 1025 3253 1025 2328 
Q 1025 1406 1450 917 
Q 1875 428 2675 428 
Q 3081 428 3442 575 
Q 3803 722 4122 1019 
L 4122 359 
Q 3791 134 3420 21 
Q 3050 -91 2638 -91 
Q 1578 -91 968 557 
Q 359 1206 359 2328 
Q 359 3453 968 4101 
Q 1578 4750 2638 4750 
Q 3056 4750 3426 4639 
Q 3797 4528 4122 4306 
z
" transform="scale(0.015625)"/>
       <path id="DejaVuSans-75" d="M 544 1381 
L 544 3500 
L 1119 3500 
L 1119 1403 
Q 1119 906 1312 657 
Q 1506 409 1894 409 
Q 2359 409 2629 706 
Q 2900 1003 2900 1516 
L 2900 3500 
L 3475 3500 
L 3475 0 
L 2900 0 
L 2900 538 
Q 2691 219 2414 64 
Q 2138 -91 1772 -91 
Q 1169 -91 856 284 
Q 544 659 544 1381 
z
M 1991 3584 
L 1991 3584 
z
" transform="scale(0.015625)"/>
       <path id="DejaVuSans-6e" d="M 3513 2113 
L 3513 0 
L 2938 0 
L 2938 2094 
Q 2938 2591 2744 2837 
Q 2550 3084 2163 3084 
Q 1697 3084 1428 2787 
Q 1159 2491 1159 1978 
L 1159 0 
L 581 0 
L 581 3500 
L 1159 3500 
L 1159 2956 
Q 1366 3272 1645 3428 
Q 1925 3584 2291 3584 
Q 2894 3584 3203 3211 
Q 3513 2838 3513 2113 
z
" transform="scale(0.015625)"/>
      </defs>
      <use xlink:href="#DejaVuSans-4e"/>
      <use xlink:href="#DejaVuSans-6f" x="74.804688"/>
      <use xlink:href="#DejaVuSans-72" x="135.986328"/>
      <use xlink:href="#DejaVuSans-6d" x="175.349609"/>
      <use xlink:href="#DejaVuSans-65" x="272.761719"/>
      <use xlink:href="#DejaVuSans-64" x="334.285156"/>
      <use xlink:href="#DejaVuSans-20" x="397.761719"/>
      <use xlink:href="#DejaVuSans-48" x="429.548828"/>
      <use xlink:href="#DejaVuSans-69" x="504.744141"/>
      <use xlink:href="#DejaVuSans-73" x="532.527344"/>
      <use xlink:href="#DejaVuSans-74" x="584.626953"/>
      <use xlink:href="#DejaVuSans-20" x="623.835938"/>
      <use xlink:href="#DejaVuSans-43" x="655.623047"/>
      <use xlink:href="#DejaVuSans-6f" x="725.447266"/>
      <use xlink:href="#DejaVuSans-75" x="786.628906"/>
      <use xlink:href="#DejaVuSans-6e" x="850.007812"/>
      <use xlink:href="#DejaVuSans-74" x="913.386719"/>
      <use xlink:href="#DejaVuSans-73" x="952.595703"/>
     </g>
    </g>
   </g>
   <g id="line2d_14">
    <path d="M 137.428059 825.895444 
L 143.594035 824.19351 
L 149.760011 821.966471 
L 155.925987 819.161358 
L 162.091962 815.730503 
L 168.257938 811.631546 
L 174.423914 806.827475 
L 180.58989 801.286679 
L 186.755866 794.98299 
L 192.921842 787.895718 
L 199.087817 780.009679 
L 205.253793 771.315183 
L 211.419769 761.808019 
L 217.585745 751.489401 
L 223.751721 740.365901 
L 229.917697 728.449341 
L 236.083673 715.756671 
L 242.249648 702.309821 
L 248.415624 688.135513 
L 254.5816 673.265072 
L 260.747576 657.734191 
L 266.913552 641.582691 
L 273.079528 624.854252 
L 279.245504 607.596129 
L 285.411479 589.858849 
L 291.577455 571.695896 
L 303.909407 534.319716 
L 316.241359 495.941891 
L 347.071238 398.926365 
L 359.40319 361.042534 
L 365.569165 342.551795 
L 371.735141 324.443043 
L 377.901117 306.775039 
L 384.067093 289.604492 
L 390.233069 272.985801 
L 396.399045 256.970815 
L 402.565021 241.608611 
L 408.730996 226.945293 
L 414.896972 213.023811 
L 421.062948 199.883804 
L 427.228924 187.561464 
L 433.3949 176.089423 
L 439.560876 165.496661 
L 445.726852 155.808438 
L 451.892827 147.046245 
L 458.058803 139.227786 
L 464.224779 132.366968 
L 470.390755 126.47392 
L 476.556731 121.555036 
L 482.722707 117.613023 
L 488.888683 114.646982 
L 495.054658 112.652498 
L 501.220634 111.62175 
L 507.38661 111.54363 
L 513.552586 112.403883 
L 519.718562 114.185255 
L 525.884538 116.867652 
L 532.050513 120.428313 
L 538.216489 124.841983 
L 544.382465 130.0811 
L 550.548441 136.115988 
L 556.714417 142.91505 
L 562.880393 150.444962 
L 569.046369 158.67088 
L 575.212344 167.556634 
L 581.37832 177.06493 
L 587.544296 187.157547 
L 593.710272 197.795529 
L 599.876248 208.939381 
L 606.042224 220.549247 
L 612.2082 232.585099 
L 618.374175 245.0069 
L 624.540151 257.774781 
L 630.706127 270.849191 
L 643.038079 297.761889 
L 655.370031 325.440483 
L 673.867958 367.76307 
L 698.531862 424.312224 
L 710.863813 452.111482 
L 723.195765 479.325217 
L 735.527717 505.782906 
L 747.859668 531.339054 
L 754.025644 543.740353 
L 760.19162 555.872858 
L 766.357596 567.725204 
L 772.523572 579.287454 
L 778.689548 590.551058 
L 784.855523 601.508808 
L 791.021499 612.154789 
L 797.187475 622.484327 
L 803.353451 632.49393 
L 809.519427 642.181239 
L 815.685403 651.544959 
L 821.851379 660.584811 
L 828.017354 669.30146 
L 834.18333 677.696462 
L 840.349306 685.772199 
L 846.515282 693.531816 
L 852.681258 700.979166 
L 858.847234 708.118747 
L 865.01321 714.955642 
L 871.179185 721.495464 
L 877.345161 727.744301 
L 883.511137 733.708657 
L 889.677113 739.395406 
L 895.843089 744.811739 
L 902.009065 749.965114 
L 908.17504 754.863214 
L 914.341016 759.513899 
L 920.506992 763.92517 
L 926.672968 768.105126 
L 932.838944 772.06193 
L 939.00492 775.803774 
L 945.170896 779.338846 
L 951.336871 782.675306 
L 957.502847 785.821253 
L 963.668823 788.784706 
L 969.834799 791.573576 
L 976.000775 794.195651 
L 982.166751 796.658577 
L 988.332727 798.969841 
L 994.498702 801.136757 
L 1000.664678 803.166455 
L 1006.830654 805.06587 
L 1012.99663 806.841734 
L 1025.328582 810.048683 
L 1037.660533 812.836865 
L 1049.992485 815.252288 
L 1062.324437 817.337374 
L 1074.656388 819.130979 
L 1086.98834 820.668482 
L 1099.320292 821.9819 
L 1111.652244 823.100053 
L 1123.984195 824.048734 
L 1142.482123 825.203524 
L 1160.98005 826.09477 
L 1179.477978 826.777504 
L 1204.141881 827.43985 
L 1234.971761 827.982196 
L 1271.967616 828.362065 
L 1321.295423 828.610422 
L 1364.457254 828.705668 
L 1364.457254 828.705668 
" clip-path="url(#p6f66e23fb0)" style="fill: none; stroke: #ff7f0e; stroke-width: 1.5; stroke-linecap: square"/>
   </g>
   <g id="line2d_15">
    <path d="M 137.428059 821.583521 
L 143.594035 819.751517 
L 149.760011 817.565897 
L 155.925987 814.982507 
L 162.091962 811.955796 
L 168.257938 808.43937 
L 174.423914 804.386609 
L 180.58989 799.751336 
L 186.755866 794.488511 
L 192.921842 788.554951 
L 199.087817 781.910056 
L 205.253793 774.516525 
L 211.419769 766.341055 
L 217.585745 757.354998 
L 223.751721 747.534979 
L 229.917697 736.863444 
L 236.083673 725.329147 
L 242.249648 712.927557 
L 248.415624 699.66117 
L 254.5816 685.539748 
L 260.747576 670.580443 
L 266.913552 654.807845 
L 273.079528 638.253917 
L 279.245504 620.957851 
L 285.411479 602.965819 
L 291.577455 584.330653 
L 297.743431 565.111435 
L 303.909407 545.373016 
L 316.241359 504.623543 
L 328.57331 462.694572 
L 353.237214 377.988409 
L 365.569165 336.608247 
L 371.735141 316.464812 
L 377.901117 296.797012 
L 384.067093 277.684782 
L 390.233069 259.204614 
L 396.399045 241.429046 
L 402.565021 224.426217 
L 408.730996 208.259467 
L 414.896972 192.986993 
L 421.062948 178.661571 
L 427.228924 165.330327 
L 433.3949 153.034564 
L 439.560876 141.809656 
L 445.726852 131.684981 
L 451.892827 122.683915 
L 458.058803 114.823877 
L 464.224779 108.116408 
L 470.390755 102.567309 
L 476.556731 98.176802 
L 482.722707 94.939737 
L 488.888683 92.845827 
L 495.054658 91.879908 
L 501.220634 92.022227 
L 507.38661 93.248742 
L 513.552586 95.531449 
L 519.718562 98.838706 
L 525.884538 103.13558 
L 532.050513 108.384186 
L 538.216489 114.544038 
L 544.382465 121.572391 
L 550.548441 129.424585 
L 556.714417 138.054376 
L 562.880393 147.414263 
L 569.046369 157.455803 
L 575.212344 168.129912 
L 581.37832 179.387154 
L 587.544296 191.178013 
L 593.710272 203.453149 
L 599.876248 216.163639 
L 606.042224 229.261197 
L 612.2082 242.698376 
L 624.540151 270.407117 
L 636.872103 298.933704 
L 655.370031 342.536468 
L 680.033934 400.661578 
L 692.365886 429.156558 
L 704.697837 456.996565 
L 717.029789 484.012462 
L 729.361741 510.064576 
L 735.527717 522.693257 
L 741.693692 535.04118 
L 747.859668 547.098438 
L 754.025644 558.856628 
L 760.19162 570.308771 
L 766.357596 581.449252 
L 772.523572 592.273736 
L 778.689548 602.779101 
L 784.855523 612.963362 
L 791.021499 622.825597 
L 797.187475 632.365875 
L 803.353451 641.585183 
L 809.519427 650.485354 
L 815.685403 659.069004 
L 821.851379 667.339455 
L 828.017354 675.30068 
L 834.18333 682.957233 
L 840.349306 690.314192 
L 846.515282 697.377101 
L 852.681258 704.151914 
L 858.847234 710.644942 
L 865.01321 716.862804 
L 871.179185 722.812381 
L 877.345161 728.500769 
L 883.511137 733.935239 
L 889.677113 739.123201 
L 895.843089 744.072161 
L 902.009065 748.789694 
L 908.17504 753.283409 
L 914.341016 757.560924 
L 920.506992 761.629837 
L 926.672968 765.497701 
L 932.838944 769.172008 
L 939.00492 772.660164 
L 945.170896 775.969474 
L 951.336871 779.107126 
L 957.502847 782.080177 
L 963.668823 784.895542 
L 969.834799 787.559983 
L 976.000775 790.0801 
L 982.166751 792.462324 
L 988.332727 794.712911 
L 994.498702 796.837935 
L 1006.830654 800.734674 
L 1019.162606 804.19742 
L 1031.494558 807.268026 
L 1043.826509 809.98533 
L 1056.158461 812.385202 
L 1068.490413 814.500625 
L 1080.822364 816.361806 
L 1093.154316 817.996302 
L 1105.486268 819.429164 
L 1117.818219 820.683081 
L 1136.316147 822.272693 
L 1154.814075 823.565982 
L 1173.312002 824.614444 
L 1191.80993 825.461507 
L 1216.473833 826.339695 
L 1241.137737 826.993903 
L 1271.967616 827.578478 
L 1308.963471 828.039897 
L 1358.291278 828.397497 
L 1364.457254 828.428162 
L 1364.457254 828.428162 
" clip-path="url(#p6f66e23fb0)" style="fill: none; stroke: #2ca02c; stroke-width: 1.5; stroke-linecap: square"/>
   </g>
   <g id="line2d_16">
    <path d="M 137.428059 106.033505 
L 149.760011 127.582216 
L 162.091962 148.48845 
L 174.423914 168.771364 
L 186.755866 188.449542 
L 199.087817 207.541013 
L 211.419769 226.063271 
L 223.751721 244.033287 
L 236.083673 261.467526 
L 248.415624 278.381962 
L 260.747576 294.792093 
L 273.079528 310.712955 
L 285.411479 326.159136 
L 297.743431 341.144788 
L 310.075383 355.683642 
L 322.407335 369.789019 
L 334.739286 383.473843 
L 347.071238 396.750654 
L 359.40319 409.631615 
L 371.735141 422.12853 
L 384.067093 434.252849 
L 396.399045 446.015681 
L 408.730996 457.427803 
L 421.062948 468.499672 
L 433.3949 479.241432 
L 445.726852 489.662926 
L 458.058803 499.773703 
L 470.390755 509.583027 
L 482.722707 519.099884 
L 495.054658 528.332997 
L 507.38661 537.290823 
L 519.718562 545.981571 
L 532.050513 554.413204 
L 544.382465 562.593448 
L 556.714417 570.529797 
L 569.046369 578.229523 
L 581.37832 585.699682 
L 593.710272 592.947117 
L 606.042224 599.97847 
L 618.374175 606.800182 
L 630.706127 613.418505 
L 643.038079 619.839502 
L 655.370031 626.069056 
L 667.701982 632.112876 
L 680.033934 637.976499 
L 692.365886 643.665298 
L 704.697837 649.184485 
L 723.195765 657.156265 
L 741.693692 664.774196 
L 760.19162 672.053986 
L 778.689548 679.010643 
L 797.187475 685.658512 
L 815.685403 692.011298 
L 834.18333 698.0821 
L 852.681258 703.883433 
L 871.179185 709.427259 
L 889.677113 714.725008 
L 908.17504 719.787604 
L 926.672968 724.625483 
L 945.170896 729.24862 
L 963.668823 733.666547 
L 982.166751 737.888374 
L 1000.664678 741.922804 
L 1019.162606 745.778155 
L 1043.826509 750.653744 
L 1068.490413 755.242936 
L 1093.154316 759.562553 
L 1117.818219 763.628431 
L 1142.482123 767.455474 
L 1167.146026 771.057713 
L 1191.80993 774.448351 
L 1216.473833 777.63982 
L 1241.137737 780.643817 
L 1271.967616 784.151898 
L 1302.797495 787.404313 
L 1333.627374 790.419695 
L 1364.457254 793.215318 
L 1364.457254 793.215318 
" clip-path="url(#p6f66e23fb0)" style="fill: none; stroke: #d62728; stroke-width: 1.5; stroke-linecap: square"/>
   </g>
   <g id="line2d_17">
    <path d="M 137.428059 772.052519 
L 143.594035 769.317948 
L 149.760011 766.451554 
L 155.925987 763.446984 
L 162.091962 760.297575 
L 168.257938 756.996346 
L 174.423914 753.535978 
L 180.58989 749.9088 
L 186.755866 746.106771 
L 192.921842 742.121461 
L 199.087817 737.944035 
L 205.253793 733.565233 
L 211.419769 728.975346 
L 217.585745 724.1642 
L 223.751721 719.121128 
L 229.917697 713.83495 
L 236.083673 708.293947 
L 242.249648 702.485835 
L 248.415624 696.397737 
L 254.5816 690.016157 
L 260.747576 683.326947 
L 266.913552 676.315277 
L 273.079528 668.965603 
L 279.245504 661.261631 
L 285.411479 653.186282 
L 291.577455 644.721653 
L 297.743431 635.848979 
L 303.909407 626.54859 
L 310.075383 616.799866 
L 316.241359 606.581196 
L 322.407335 595.869926 
L 328.57331 584.642309 
L 334.739286 572.873454 
L 340.905262 560.537271 
L 347.071238 547.60641 
L 353.237214 534.052205 
L 359.40319 519.844608 
L 365.569165 504.952119 
L 371.735141 489.341725 
L 377.901117 472.978816 
L 384.067093 455.827119 
L 390.233069 437.848608 
L 396.399045 419.003426 
L 402.565021 399.249794 
L 408.730996 378.54392 
L 414.896972 356.839901 
L 421.062948 334.089619 
L 427.228924 310.242638 
L 433.3949 285.246091 
L 439.560876 259.044563 
L 445.726852 231.579965 
L 451.892827 202.791411 
L 458.058803 172.615078 
L 464.224779 140.984066 
L 470.390755 107.828252 
L 476.556731 73.074132 
L 482.722707 36.644656 
L 488.801335 -1 
M 570.342913 -1 
L 575.212344 29.430782 
L 581.37832 66.192017 
L 587.544296 101.262639 
L 593.710272 134.720399 
L 599.876248 166.63947 
L 606.042224 197.090615 
L 612.2082 226.141343 
L 618.374175 253.856058 
L 624.540151 280.2962 
L 630.706127 305.520387 
L 636.872103 329.58454 
L 643.038079 352.542006 
L 649.204055 374.443681 
L 655.370031 395.338121 
L 661.536006 415.271646 
L 667.701982 434.288449 
L 673.867958 452.430688 
L 680.033934 469.738584 
L 686.19991 486.250507 
L 692.365886 502.003064 
L 698.531862 517.031177 
L 704.697837 531.368161 
L 710.863813 545.045803 
L 717.029789 558.094423 
L 723.195765 570.54295 
L 729.361741 582.418983 
L 735.527717 593.748848 
L 741.693692 604.557665 
L 747.859668 614.869395 
L 754.025644 624.706899 
L 760.19162 634.091986 
L 766.357596 643.045462 
L 772.523572 651.587177 
L 778.689548 659.736067 
L 784.855523 667.510198 
L 791.021499 674.926805 
L 797.187475 682.002329 
L 803.353451 688.752457 
L 809.519427 695.192154 
L 815.685403 701.335695 
L 821.851379 707.196701 
L 828.017354 712.788165 
L 834.18333 718.122484 
L 840.349306 723.211483 
L 846.515282 728.066443 
L 852.681258 732.698129 
L 858.847234 737.116809 
L 865.01321 741.332278 
L 871.179185 745.353881 
L 877.345161 749.190535 
L 883.511137 752.850746 
L 889.677113 756.342627 
L 895.843089 759.67392 
L 902.009065 762.85201 
L 908.17504 765.883943 
L 914.341016 768.77644 
L 920.506992 771.535914 
L 926.672968 774.168483 
L 939.00492 779.075982 
L 951.336871 783.542477 
L 963.668823 787.6076 
L 976.000775 791.307419 
L 988.332727 794.674761 
L 1000.664678 797.739504 
L 1012.99663 800.52884 
L 1025.328582 803.067517 
L 1037.660533 805.378062 
L 1049.992485 807.480974 
L 1062.324437 809.394912 
L 1074.656388 811.136858 
L 1093.154316 813.460717 
L 1111.652244 815.47848 
L 1130.150171 817.230464 
L 1148.648099 818.751678 
L 1167.146026 820.072519 
L 1191.80993 821.567056 
L 1216.473833 822.805055 
L 1241.137737 823.830551 
L 1271.967616 824.868545 
L 1302.797495 825.688824 
L 1339.79335 826.449374 
L 1364.457254 826.84932 
L 1364.457254 826.84932 
" clip-path="url(#p6f66e23fb0)" style="fill: none; stroke: #9467bd; stroke-width: 1.5; stroke-linecap: square"/>
   </g>
   <g id="line2d_18">
    <path d="M 137.428059 818.061854 
L 143.594035 815.968946 
L 149.760011 813.55137 
L 155.925987 810.774344 
L 162.091962 807.601829 
L 168.257938 803.996838 
L 174.423914 799.9218 
L 180.58989 795.338964 
L 186.755866 790.210841 
L 192.921842 784.500683 
L 199.087817 778.172986 
L 205.253793 771.194014 
L 211.419769 763.532338 
L 217.585745 755.159373 
L 223.751721 746.049914 
L 229.917697 736.182652 
L 236.083673 725.540674 
L 242.249648 714.111918 
L 248.415624 701.889597 
L 254.5816 688.872567 
L 260.747576 675.065636 
L 266.913552 660.479816 
L 273.079528 645.132496 
L 279.245504 629.047553 
L 285.411479 612.255376 
L 291.577455 594.79282 
L 297.743431 576.703077 
L 303.909407 558.035472 
L 310.075383 538.845185 
L 316.241359 519.1929 
L 328.57331 478.770029 
L 340.905262 437.345097 
L 365.569165 354.060109 
L 377.901117 313.552786 
L 384.067093 293.880295 
L 390.233069 274.705427 
L 396.399045 256.1079 
L 402.565021 238.164383 
L 408.730996 220.947943 
L 414.896972 204.527534 
L 421.062948 188.967544 
L 427.228924 174.327381 
L 433.3949 160.661128 
L 439.560876 148.017249 
L 445.726852 136.43835 
L 451.892827 125.961008 
L 458.058803 116.615652 
L 464.224779 108.426498 
L 470.390755 101.411548 
L 476.556731 95.582636 
L 482.722707 90.945523 
L 488.888683 87.500043 
L 495.054658 85.240287 
L 501.220634 84.154834 
L 507.38661 84.227002 
L 513.552586 85.435147 
L 519.718562 87.752978 
L 525.884538 91.149891 
L 532.050513 95.59133 
L 538.216489 101.039154 
L 544.382465 107.452011 
L 550.548441 114.785728 
L 556.714417 122.993686 
L 562.880393 132.027209 
L 569.046369 141.835932 
L 575.212344 152.368177 
L 581.37832 163.571301 
L 587.544296 175.392043 
L 593.710272 187.77685 
L 599.876248 200.672189 
L 606.042224 214.024833 
L 612.2082 227.78214 
L 618.374175 241.892295 
L 630.706127 270.969416 
L 643.038079 300.866511 
L 667.701982 361.694895 
L 686.19991 406.987927 
L 698.531862 436.528162 
L 710.863813 465.290677 
L 723.195765 493.097394 
L 729.361741 506.595907 
L 735.527717 519.803805 
L 741.693692 532.707962 
L 747.859668 545.29709 
L 754.025644 557.561661 
L 760.19162 569.493826 
L 766.357596 581.087323 
L 772.523572 592.337398 
L 778.689548 603.240708 
L 784.855523 613.795236 
L 791.021499 624.0002 
L 797.187475 633.855965 
L 803.353451 643.363955 
L 809.519427 652.526567 
L 815.685403 661.347087 
L 821.851379 669.82961 
L 828.017354 677.978958 
L 834.18333 685.800607 
L 840.349306 693.300614 
L 846.515282 700.485546 
L 852.681258 707.362415 
L 858.847234 713.938613 
L 865.01321 720.221858 
L 871.179185 726.220132 
L 877.345161 731.941633 
L 883.511137 737.394727 
L 889.677113 742.587899 
L 895.843089 747.529715 
L 902.009065 752.228782 
L 908.17504 756.693714 
L 914.341016 760.933097 
L 920.506992 764.955464 
L 926.672968 768.769265 
L 932.838944 772.382847 
L 939.00492 775.804431 
L 945.170896 779.042092 
L 951.336871 782.103747 
L 957.502847 784.997138 
L 963.668823 787.729821 
L 969.834799 790.309156 
L 976.000775 792.7423 
L 982.166751 795.036197 
L 988.332727 797.197576 
L 994.498702 799.232947 
L 1006.830654 802.950591 
L 1019.162606 806.236749 
L 1031.494558 809.135484 
L 1043.826509 811.687361 
L 1056.158461 813.929551 
L 1068.490413 815.895969 
L 1080.822364 817.617432 
L 1093.154316 819.121835 
L 1105.486268 820.434341 
L 1117.818219 821.57757 
L 1136.316147 823.018765 
L 1154.814075 824.18368 
L 1173.312002 825.122249 
L 1197.975906 826.092548 
L 1222.639809 826.81335 
L 1253.469688 827.455888 
L 1290.465543 827.962154 
L 1333.627374 828.317937 
L 1364.457254 828.474281 
L 1364.457254 828.474281 
" clip-path="url(#p6f66e23fb0)" style="fill: none; stroke: #8c564b; stroke-width: 1.5; stroke-linecap: square"/>
   </g>
   <g id="line2d_19">
    <path d="M 137.428059 794.84189 
L 143.594035 791.547836 
L 149.760011 787.992156 
L 155.925987 784.160464 
L 162.091962 780.038243 
L 168.257938 775.610921 
L 174.423914 770.863953 
L 180.58989 765.782909 
L 186.755866 760.35357 
L 192.921842 754.562029 
L 199.087817 748.394804 
L 205.253793 741.838953 
L 211.419769 734.882193 
L 217.585745 727.513027 
L 223.751721 719.720878 
L 229.917697 711.496221 
L 236.083673 702.830718 
L 242.249648 693.717364 
L 248.415624 684.150617 
L 254.5816 674.126545 
L 260.747576 663.642958 
L 266.913552 652.699543 
L 273.079528 641.297993 
L 279.245504 629.442133 
L 285.411479 617.138028 
L 291.577455 604.394097 
L 297.743431 591.221204 
L 303.909407 577.632743 
L 310.075383 563.644709 
L 316.241359 549.275752 
L 322.407335 534.547215 
L 328.57331 519.483157 
L 340.905262 488.458286 
L 353.237214 456.447515 
L 365.569165 423.738715 
L 402.565021 324.853802 
L 414.896972 292.929469 
L 421.062948 277.395328 
L 427.228924 262.217945 
L 433.3949 247.450915 
L 439.560876 233.147493 
L 445.726852 219.360279 
L 451.892827 206.140903 
L 458.058803 193.539698 
L 464.224779 181.605389 
L 470.390755 170.384777 
L 476.556731 159.922436 
L 482.722707 150.260417 
L 488.888683 141.437969 
L 495.054658 133.491271 
L 501.220634 126.453188 
L 507.38661 120.353043 
L 513.552586 115.216411 
L 519.718562 111.064946 
L 525.884538 107.916226 
L 532.050513 105.783626 
L 538.216489 104.67623 
L 544.382465 104.598761 
L 550.548441 105.551549 
L 556.714417 107.53053 
L 562.880393 110.527273 
L 569.046369 114.529042 
L 575.212344 119.518884 
L 581.37832 125.475748 
L 587.544296 132.374638 
L 593.710272 140.186782 
L 599.876248 148.879832 
L 606.042224 158.418094 
L 612.2082 168.762763 
L 618.374175 179.872192 
L 624.540151 191.702167 
L 630.706127 204.206202 
L 636.872103 217.335843 
L 643.038079 231.040977 
L 649.204055 245.27015 
L 655.370031 259.970886 
L 661.536006 275.090009 
L 667.701982 290.573954 
L 680.033934 322.421987 
L 692.365886 355.090354 
L 729.361741 454.009795 
L 741.693692 486.08353 
L 754.025644 517.191585 
L 760.19162 532.303825 
L 766.357596 547.084395 
L 772.523572 561.508828 
L 778.689548 575.555372 
L 784.855523 589.204976 
L 791.021499 602.441249 
L 797.187475 615.25041 
L 803.353451 627.621219 
L 809.519427 639.544896 
L 815.685403 651.015028 
L 821.851379 662.027461 
L 828.017354 672.580191 
L 834.18333 682.673234 
L 840.349306 692.308509 
L 846.515282 701.489694 
L 852.681258 710.222098 
L 858.847234 718.512515 
L 865.01321 726.369091 
L 871.179185 733.801181 
L 877.345161 740.819215 
L 883.511137 747.434558 
L 889.677113 753.659383 
L 895.843089 759.506541 
L 902.009065 764.989442 
L 908.17504 770.121935 
L 914.341016 774.918198 
L 920.506992 779.392637 
L 926.672968 783.559785 
L 932.838944 787.434216 
L 939.00492 791.03046 
L 945.170896 794.362925 
L 951.336871 797.445838 
L 957.502847 800.293173 
L 963.668823 802.918605 
L 969.834799 805.33546 
L 976.000775 807.556678 
L 982.166751 809.594773 
L 988.332727 811.461812 
L 994.498702 813.169388 
L 1000.664678 814.728607 
L 1006.830654 816.150073 
L 1012.99663 817.443881 
L 1025.328582 819.68636 
L 1037.660533 821.52663 
L 1049.992485 823.027306 
L 1062.324437 824.243378 
L 1074.656388 825.222664 
L 1086.98834 826.006365 
L 1105.486268 826.890649 
L 1123.984195 827.50932 
L 1148.648099 828.045922 
L 1179.477978 828.421774 
L 1222.639809 828.656158 
L 1296.631519 828.762512 
L 1364.457254 828.7771 
L 1364.457254 828.7771 
" clip-path="url(#p6f66e23fb0)" style="fill: none; stroke: #e377c2; stroke-width: 1.5; stroke-linecap: square"/>
   </g>
   <g id="patch_103">
    <path d="M 72.685313 828.779375 
L 72.685313 38.075625 
" style="fill: none; stroke: #000000; stroke-width: 0.8; stroke-linejoin: miter; stroke-linecap: square"/>
   </g>
   <g id="patch_104">
    <path d="M 1429.2 828.779375 
L 1429.2 38.075625 
" style="fill: none; stroke: #000000; stroke-width: 0.8; stroke-linejoin: miter; stroke-linecap: square"/>
   </g>
   <g id="patch_105">
    <path d="M 72.685313 828.779375 
L 1429.2 828.779375 
" style="fill: none; stroke: #000000; stroke-width: 0.8; stroke-linejoin: miter; stroke-linecap: square"/>
   </g>
   <g id="patch_106">
    <path d="M 72.685313 38.075625 
L 1429.2 38.075625 
" style="fill: none; stroke: #000000; stroke-width: 0.8; stroke-linejoin: miter; stroke-linecap: square"/>
   </g>
   <g id="text_15">
    <!-- All Fitted Distributions -->
    <g transform="translate(596.317031 32.075625) scale(0.28 -0.28)">
     <defs>
      <path id="DejaVuSans-41" d="M 2188 4044 
L 1331 1722 
L 3047 1722 
L 2188 4044 
z
M 1831 4666 
L 2547 4666 
L 4325 0 
L 3669 0 
L 3244 1197 
L 1141 1197 
L 716 0 
L 50 0 
L 1831 4666 
z
" transform="scale(0.015625)"/>
      <path id="DejaVuSans-6c" d="M 603 4863 
L 1178 4863 
L 1178 0 
L 603 0 
L 603 4863 
z
" transform="scale(0.015625)"/>
      <path id="DejaVuSans-46" d="M 628 4666 
L 3309 4666 
L 3309 4134 
L 1259 4134 
L 1259 2759 
L 3109 2759 
L 3109 2228 
L 1259 2228 
L 1259 0 
L 628 0 
L 628 4666 
z
" transform="scale(0.015625)"/>
      <path id="DejaVuSans-44" d="M 1259 4147 
L 1259 519 
L 2022 519 
Q 2988 519 3436 956 
Q 3884 1394 3884 2338 
Q 3884 3275 3436 3711 
Q 2988 4147 2022 4147 
L 1259 4147 
z
M 628 4666 
L 1925 4666 
Q 3281 4666 3915 4102 
Q 4550 3538 4550 2338 
Q 4550 1131 3912 565 
Q 3275 0 1925 0 
L 628 0 
L 628 4666 
z
" transform="scale(0.015625)"/>
      <path id="DejaVuSans-62" d="M 3116 1747 
Q 3116 2381 2855 2742 
Q 2594 3103 2138 3103 
Q 1681 3103 1420 2742 
Q 1159 2381 1159 1747 
Q 1159 1113 1420 752 
Q 1681 391 2138 391 
Q 2594 391 2855 752 
Q 3116 1113 3116 1747 
z
M 1159 2969 
Q 1341 3281 1617 3432 
Q 1894 3584 2278 3584 
Q 2916 3584 3314 3078 
Q 3713 2572 3713 1747 
Q 3713 922 3314 415 
Q 2916 -91 2278 -91 
Q 1894 -91 1617 61 
Q 1341 213 1159 525 
L 1159 0 
L 581 0 
L 581 4863 
L 1159 4863 
L 1159 2969 
z
" transform="scale(0.015625)"/>
     </defs>
     <use xlink:href="#DejaVuSans-41"/>
     <use xlink:href="#DejaVuSans-6c" x="68.408203"/>
     <use xlink:href="#DejaVuSans-6c" x="96.191406"/>
     <use xlink:href="#DejaVuSans-20" x="123.974609"/>
     <use xlink:href="#DejaVuSans-46" x="155.761719"/>
     <use xlink:href="#DejaVuSans-69" x="206.03125"/>
     <use xlink:href="#DejaVuSans-74" x="233.814453"/>
     <use xlink:href="#DejaVuSans-74" x="273.023438"/>
     <use xlink:href="#DejaVuSans-65" x="312.232422"/>
     <use xlink:href="#DejaVuSans-64" x="373.755859"/>
     <use xlink:href="#DejaVuSans-20" x="437.232422"/>
     <use xlink:href="#DejaVuSans-44" x="469.019531"/>
     <use xlink:href="#DejaVuSans-69" x="546.021484"/>
     <use xlink:href="#DejaVuSans-73" x="573.804688"/>
     <use xlink:href="#DejaVuSans-74" x="625.904297"/>
     <use xlink:href="#DejaVuSans-72" x="665.113281"/>
     <use xlink:href="#DejaVuSans-69" x="706.226562"/>
     <use xlink:href="#DejaVuSans-62" x="734.009766"/>
     <use xlink:href="#DejaVuSans-75" x="797.486328"/>
     <use xlink:href="#DejaVuSans-74" x="860.865234"/>
     <use xlink:href="#DejaVuSans-69" x="900.074219"/>
     <use xlink:href="#DejaVuSans-6f" x="927.857422"/>
     <use xlink:href="#DejaVuSans-6e" x="989.039062"/>
     <use xlink:href="#DejaVuSans-73" x="1052.417969"/>
    </g>
   </g>
   <g id="legend_1">
    <g id="patch_107">
     <path d="M 1014.37125 303.868125 
L 1412.4 303.868125 
Q 1417.2 303.868125 1417.2 299.068125 
L 1417.2 54.875625 
Q 1417.2 50.075625 1412.4 50.075625 
L 1014.37125 50.075625 
Q 1009.57125 50.075625 1009.57125 54.875625 
L 1009.57125 299.068125 
Q 1009.57125 303.868125 1014.37125 303.868125 
z
" style="fill: #ffffff; opacity: 0.8; stroke: #cccccc; stroke-linejoin: miter"/>
    </g>
    <g id="patch_108">
     <path d="M 1019.17125 77.911875 
L 1067.17125 77.911875 
L 1067.17125 61.111875 
L 1019.17125 61.111875 
z
" style="fill: #1f77b4; opacity: 0.6"/>
    </g>
    <g id="text_16">
     <!-- Generated Chi Distribution -->
     <g transform="translate(1086.37125 77.911875) scale(0.24 -0.24)">
      <defs>
       <path id="DejaVuSans-47" d="M 3809 666 
L 3809 1919 
L 2778 1919 
L 2778 2438 
L 4434 2438 
L 4434 434 
Q 4069 175 3628 42 
Q 3188 -91 2688 -91 
Q 1594 -91 976 548 
Q 359 1188 359 2328 
Q 359 3472 976 4111 
Q 1594 4750 2688 4750 
Q 3144 4750 3555 4637 
Q 3966 4525 4313 4306 
L 4313 3634 
Q 3963 3931 3569 4081 
Q 3175 4231 2741 4231 
Q 1884 4231 1454 3753 
Q 1025 3275 1025 2328 
Q 1025 1384 1454 906 
Q 1884 428 2741 428 
Q 3075 428 3337 486 
Q 3600 544 3809 666 
z
" transform="scale(0.015625)"/>
       <path id="DejaVuSans-61" d="M 2194 1759 
Q 1497 1759 1228 1600 
Q 959 1441 959 1056 
Q 959 750 1161 570 
Q 1363 391 1709 391 
Q 2188 391 2477 730 
Q 2766 1069 2766 1631 
L 2766 1759 
L 2194 1759 
z
M 3341 1997 
L 3341 0 
L 2766 0 
L 2766 531 
Q 2569 213 2275 61 
Q 1981 -91 1556 -91 
Q 1019 -91 701 211 
Q 384 513 384 1019 
Q 384 1609 779 1909 
Q 1175 2209 1959 2209 
L 2766 2209 
L 2766 2266 
Q 2766 2663 2505 2880 
Q 2244 3097 1772 3097 
Q 1472 3097 1187 3025 
Q 903 2953 641 2809 
L 641 3341 
Q 956 3463 1253 3523 
Q 1550 3584 1831 3584 
Q 2591 3584 2966 3190 
Q 3341 2797 3341 1997 
z
" transform="scale(0.015625)"/>
       <path id="DejaVuSans-68" d="M 3513 2113 
L 3513 0 
L 2938 0 
L 2938 2094 
Q 2938 2591 2744 2837 
Q 2550 3084 2163 3084 
Q 1697 3084 1428 2787 
Q 1159 2491 1159 1978 
L 1159 0 
L 581 0 
L 581 4863 
L 1159 4863 
L 1159 2956 
Q 1366 3272 1645 3428 
Q 1925 3584 2291 3584 
Q 2894 3584 3203 3211 
Q 3513 2838 3513 2113 
z
" transform="scale(0.015625)"/>
      </defs>
      <use xlink:href="#DejaVuSans-47"/>
      <use xlink:href="#DejaVuSans-65" x="77.490234"/>
      <use xlink:href="#DejaVuSans-6e" x="139.013672"/>
      <use xlink:href="#DejaVuSans-65" x="202.392578"/>
      <use xlink:href="#DejaVuSans-72" x="263.916016"/>
      <use xlink:href="#DejaVuSans-61" x="305.029297"/>
      <use xlink:href="#DejaVuSans-74" x="366.308594"/>
      <use xlink:href="#DejaVuSans-65" x="405.517578"/>
      <use xlink:href="#DejaVuSans-64" x="467.041016"/>
      <use xlink:href="#DejaVuSans-20" x="530.517578"/>
      <use xlink:href="#DejaVuSans-43" x="562.304688"/>
      <use xlink:href="#DejaVuSans-68" x="632.128906"/>
      <use xlink:href="#DejaVuSans-69" x="695.507812"/>
      <use xlink:href="#DejaVuSans-20" x="723.291016"/>
      <use xlink:href="#DejaVuSans-44" x="755.078125"/>
      <use xlink:href="#DejaVuSans-69" x="832.080078"/>
      <use xlink:href="#DejaVuSans-73" x="859.863281"/>
      <use xlink:href="#DejaVuSans-74" x="911.962891"/>
      <use xlink:href="#DejaVuSans-72" x="951.171875"/>
      <use xlink:href="#DejaVuSans-69" x="992.285156"/>
      <use xlink:href="#DejaVuSans-62" x="1020.068359"/>
      <use xlink:href="#DejaVuSans-75" x="1083.544922"/>
      <use xlink:href="#DejaVuSans-74" x="1146.923828"/>
      <use xlink:href="#DejaVuSans-69" x="1186.132812"/>
      <use xlink:href="#DejaVuSans-6f" x="1213.916016"/>
      <use xlink:href="#DejaVuSans-6e" x="1275.097656"/>
     </g>
    </g>
    <g id="line2d_20">
     <path d="M 1019.17125 104.739375 
L 1043.17125 104.739375 
L 1067.17125 104.739375 
" style="fill: none; stroke: #ff7f0e; stroke-width: 1.5; stroke-linecap: square"/>
    </g>
    <g id="text_17">
     <!-- Chi fit -->
     <g transform="translate(1086.37125 113.139375) scale(0.24 -0.24)">
      <defs>
       <path id="DejaVuSans-66" d="M 2375 4863 
L 2375 4384 
L 1825 4384 
Q 1516 4384 1395 4259 
Q 1275 4134 1275 3809 
L 1275 3500 
L 2222 3500 
L 2222 3053 
L 1275 3053 
L 1275 0 
L 697 0 
L 697 3053 
L 147 3053 
L 147 3500 
L 697 3500 
L 697 3744 
Q 697 4328 969 4595 
Q 1241 4863 1831 4863 
L 2375 4863 
z
" transform="scale(0.015625)"/>
      </defs>
      <use xlink:href="#DejaVuSans-43"/>
      <use xlink:href="#DejaVuSans-68" x="69.824219"/>
      <use xlink:href="#DejaVuSans-69" x="133.203125"/>
      <use xlink:href="#DejaVuSans-20" x="160.986328"/>
      <use xlink:href="#DejaVuSans-66" x="192.773438"/>
      <use xlink:href="#DejaVuSans-69" x="227.978516"/>
      <use xlink:href="#DejaVuSans-74" x="255.761719"/>
     </g>
    </g>
    <g id="line2d_21">
     <path d="M 1019.17125 139.966875 
L 1043.17125 139.966875 
L 1067.17125 139.966875 
" style="fill: none; stroke: #2ca02c; stroke-width: 1.5; stroke-linecap: square"/>
    </g>
    <g id="text_18">
     <!-- Chi-Square fit -->
     <g transform="translate(1086.37125 148.366875) scale(0.24 -0.24)">
      <defs>
       <path id="DejaVuSans-2d" d="M 313 2009 
L 1997 2009 
L 1997 1497 
L 313 1497 
L 313 2009 
z
" transform="scale(0.015625)"/>
       <path id="DejaVuSans-53" d="M 3425 4513 
L 3425 3897 
Q 3066 4069 2747 4153 
Q 2428 4238 2131 4238 
Q 1616 4238 1336 4038 
Q 1056 3838 1056 3469 
Q 1056 3159 1242 3001 
Q 1428 2844 1947 2747 
L 2328 2669 
Q 3034 2534 3370 2195 
Q 3706 1856 3706 1288 
Q 3706 609 3251 259 
Q 2797 -91 1919 -91 
Q 1588 -91 1214 -16 
Q 841 59 441 206 
L 441 856 
Q 825 641 1194 531 
Q 1563 422 1919 422 
Q 2459 422 2753 634 
Q 3047 847 3047 1241 
Q 3047 1584 2836 1778 
Q 2625 1972 2144 2069 
L 1759 2144 
Q 1053 2284 737 2584 
Q 422 2884 422 3419 
Q 422 4038 858 4394 
Q 1294 4750 2059 4750 
Q 2388 4750 2728 4690 
Q 3069 4631 3425 4513 
z
" transform="scale(0.015625)"/>
       <path id="DejaVuSans-71" d="M 947 1747 
Q 947 1113 1208 752 
Q 1469 391 1925 391 
Q 2381 391 2643 752 
Q 2906 1113 2906 1747 
Q 2906 2381 2643 2742 
Q 2381 3103 1925 3103 
Q 1469 3103 1208 2742 
Q 947 2381 947 1747 
z
M 2906 525 
Q 2725 213 2448 61 
Q 2172 -91 1784 -91 
Q 1150 -91 751 415 
Q 353 922 353 1747 
Q 353 2572 751 3078 
Q 1150 3584 1784 3584 
Q 2172 3584 2448 3432 
Q 2725 3281 2906 2969 
L 2906 3500 
L 3481 3500 
L 3481 -1331 
L 2906 -1331 
L 2906 525 
z
" transform="scale(0.015625)"/>
      </defs>
      <use xlink:href="#DejaVuSans-43"/>
      <use xlink:href="#DejaVuSans-68" x="69.824219"/>
      <use xlink:href="#DejaVuSans-69" x="133.203125"/>
      <use xlink:href="#DejaVuSans-2d" x="160.986328"/>
      <use xlink:href="#DejaVuSans-53" x="197.070312"/>
      <use xlink:href="#DejaVuSans-71" x="260.546875"/>
      <use xlink:href="#DejaVuSans-75" x="324.023438"/>
      <use xlink:href="#DejaVuSans-61" x="387.402344"/>
      <use xlink:href="#DejaVuSans-72" x="448.681641"/>
      <use xlink:href="#DejaVuSans-65" x="487.544922"/>
      <use xlink:href="#DejaVuSans-20" x="549.068359"/>
      <use xlink:href="#DejaVuSans-66" x="580.855469"/>
      <use xlink:href="#DejaVuSans-69" x="616.060547"/>
      <use xlink:href="#DejaVuSans-74" x="643.84375"/>
     </g>
    </g>
    <g id="line2d_22">
     <path d="M 1019.17125 175.194375 
L 1043.17125 175.194375 
L 1067.17125 175.194375 
" style="fill: none; stroke: #d62728; stroke-width: 1.5; stroke-linecap: square"/>
    </g>
    <g id="text_19">
     <!-- Exponential fit -->
     <g transform="translate(1086.37125 183.594375) scale(0.24 -0.24)">
      <defs>
       <path id="DejaVuSans-45" d="M 628 4666 
L 3578 4666 
L 3578 4134 
L 1259 4134 
L 1259 2753 
L 3481 2753 
L 3481 2222 
L 1259 2222 
L 1259 531 
L 3634 531 
L 3634 0 
L 628 0 
L 628 4666 
z
" transform="scale(0.015625)"/>
       <path id="DejaVuSans-78" d="M 3513 3500 
L 2247 1797 
L 3578 0 
L 2900 0 
L 1881 1375 
L 863 0 
L 184 0 
L 1544 1831 
L 300 3500 
L 978 3500 
L 1906 2253 
L 2834 3500 
L 3513 3500 
z
" transform="scale(0.015625)"/>
       <path id="DejaVuSans-70" d="M 1159 525 
L 1159 -1331 
L 581 -1331 
L 581 3500 
L 1159 3500 
L 1159 2969 
Q 1341 3281 1617 3432 
Q 1894 3584 2278 3584 
Q 2916 3584 3314 3078 
Q 3713 2572 3713 1747 
Q 3713 922 3314 415 
Q 2916 -91 2278 -91 
Q 1894 -91 1617 61 
Q 1341 213 1159 525 
z
M 3116 1747 
Q 3116 2381 2855 2742 
Q 2594 3103 2138 3103 
Q 1681 3103 1420 2742 
Q 1159 2381 1159 1747 
Q 1159 1113 1420 752 
Q 1681 391 2138 391 
Q 2594 391 2855 752 
Q 3116 1113 3116 1747 
z
" transform="scale(0.015625)"/>
      </defs>
      <use xlink:href="#DejaVuSans-45"/>
      <use xlink:href="#DejaVuSans-78" x="63.183594"/>
      <use xlink:href="#DejaVuSans-70" x="122.363281"/>
      <use xlink:href="#DejaVuSans-6f" x="185.839844"/>
      <use xlink:href="#DejaVuSans-6e" x="247.021484"/>
      <use xlink:href="#DejaVuSans-65" x="310.400391"/>
      <use xlink:href="#DejaVuSans-6e" x="371.923828"/>
      <use xlink:href="#DejaVuSans-74" x="435.302734"/>
      <use xlink:href="#DejaVuSans-69" x="474.511719"/>
      <use xlink:href="#DejaVuSans-61" x="502.294922"/>
      <use xlink:href="#DejaVuSans-6c" x="563.574219"/>
      <use xlink:href="#DejaVuSans-20" x="591.357422"/>
      <use xlink:href="#DejaVuSans-66" x="623.144531"/>
      <use xlink:href="#DejaVuSans-69" x="658.349609"/>
      <use xlink:href="#DejaVuSans-74" x="686.132812"/>
     </g>
    </g>
    <g id="line2d_23">
     <path d="M 1019.17125 210.421875 
L 1043.17125 210.421875 
L 1067.17125 210.421875 
" style="fill: none; stroke: #9467bd; stroke-width: 1.5; stroke-linecap: square"/>
    </g>
    <g id="text_20">
     <!-- Laplace fit -->
     <g transform="translate(1086.37125 218.821875) scale(0.24 -0.24)">
      <defs>
       <path id="DejaVuSans-4c" d="M 628 4666 
L 1259 4666 
L 1259 531 
L 3531 531 
L 3531 0 
L 628 0 
L 628 4666 
z
" transform="scale(0.015625)"/>
       <path id="DejaVuSans-63" d="M 3122 3366 
L 3122 2828 
Q 2878 2963 2633 3030 
Q 2388 3097 2138 3097 
Q 1578 3097 1268 2742 
Q 959 2388 959 1747 
Q 959 1106 1268 751 
Q 1578 397 2138 397 
Q 2388 397 2633 464 
Q 2878 531 3122 666 
L 3122 134 
Q 2881 22 2623 -34 
Q 2366 -91 2075 -91 
Q 1284 -91 818 406 
Q 353 903 353 1747 
Q 353 2603 823 3093 
Q 1294 3584 2113 3584 
Q 2378 3584 2631 3529 
Q 2884 3475 3122 3366 
z
" transform="scale(0.015625)"/>
      </defs>
      <use xlink:href="#DejaVuSans-4c"/>
      <use xlink:href="#DejaVuSans-61" x="55.712891"/>
      <use xlink:href="#DejaVuSans-70" x="116.992188"/>
      <use xlink:href="#DejaVuSans-6c" x="180.46875"/>
      <use xlink:href="#DejaVuSans-61" x="208.251953"/>
      <use xlink:href="#DejaVuSans-63" x="269.53125"/>
      <use xlink:href="#DejaVuSans-65" x="324.511719"/>
      <use xlink:href="#DejaVuSans-20" x="386.035156"/>
      <use xlink:href="#DejaVuSans-66" x="417.822266"/>
      <use xlink:href="#DejaVuSans-69" x="453.027344"/>
      <use xlink:href="#DejaVuSans-74" x="480.810547"/>
     </g>
    </g>
    <g id="line2d_24">
     <path d="M 1019.17125 245.649375 
L 1043.17125 245.649375 
L 1067.17125 245.649375 
" style="fill: none; stroke: #8c564b; stroke-width: 1.5; stroke-linecap: square"/>
    </g>
    <g id="text_21">
     <!-- LogNorm fit -->
     <g transform="translate(1086.37125 254.049375) scale(0.24 -0.24)">
      <defs>
       <path id="DejaVuSans-67" d="M 2906 1791 
Q 2906 2416 2648 2759 
Q 2391 3103 1925 3103 
Q 1463 3103 1205 2759 
Q 947 2416 947 1791 
Q 947 1169 1205 825 
Q 1463 481 1925 481 
Q 2391 481 2648 825 
Q 2906 1169 2906 1791 
z
M 3481 434 
Q 3481 -459 3084 -895 
Q 2688 -1331 1869 -1331 
Q 1566 -1331 1297 -1286 
Q 1028 -1241 775 -1147 
L 775 -588 
Q 1028 -725 1275 -790 
Q 1522 -856 1778 -856 
Q 2344 -856 2625 -561 
Q 2906 -266 2906 331 
L 2906 616 
Q 2728 306 2450 153 
Q 2172 0 1784 0 
Q 1141 0 747 490 
Q 353 981 353 1791 
Q 353 2603 747 3093 
Q 1141 3584 1784 3584 
Q 2172 3584 2450 3431 
Q 2728 3278 2906 2969 
L 2906 3500 
L 3481 3500 
L 3481 434 
z
" transform="scale(0.015625)"/>
      </defs>
      <use xlink:href="#DejaVuSans-4c"/>
      <use xlink:href="#DejaVuSans-6f" x="53.962891"/>
      <use xlink:href="#DejaVuSans-67" x="115.144531"/>
      <use xlink:href="#DejaVuSans-4e" x="178.621094"/>
      <use xlink:href="#DejaVuSans-6f" x="253.425781"/>
      <use xlink:href="#DejaVuSans-72" x="314.607422"/>
      <use xlink:href="#DejaVuSans-6d" x="353.970703"/>
      <use xlink:href="#DejaVuSans-20" x="451.382812"/>
      <use xlink:href="#DejaVuSans-66" x="483.169922"/>
      <use xlink:href="#DejaVuSans-69" x="518.375"/>
      <use xlink:href="#DejaVuSans-74" x="546.158203"/>
     </g>
    </g>
    <g id="line2d_25">
     <path d="M 1019.17125 280.876875 
L 1043.17125 280.876875 
L 1067.17125 280.876875 
" style="fill: none; stroke: #e377c2; stroke-width: 1.5; stroke-linecap: square"/>
    </g>
    <g id="text_22">
     <!-- Normal fit -->
     <g transform="translate(1086.37125 289.276875) scale(0.24 -0.24)">
      <use xlink:href="#DejaVuSans-4e"/>
      <use xlink:href="#DejaVuSans-6f" x="74.804688"/>
      <use xlink:href="#DejaVuSans-72" x="135.986328"/>
      <use xlink:href="#DejaVuSans-6d" x="175.349609"/>
      <use xlink:href="#DejaVuSans-61" x="272.761719"/>
      <use xlink:href="#DejaVuSans-6c" x="334.041016"/>
      <use xlink:href="#DejaVuSans-20" x="361.824219"/>
      <use xlink:href="#DejaVuSans-66" x="393.611328"/>
      <use xlink:href="#DejaVuSans-69" x="428.816406"/>
      <use xlink:href="#DejaVuSans-74" x="456.599609"/>
     </g>
    </g>
   </g>
  </g>
 </g>
 <defs>
  <clipPath id="p6f66e23fb0">
   <rect x="72.685313" y="38.075625" width="1356.514688" height="790.70375"/>
  </clipPath>
 </defs>
</svg>
