<?xml version="1.0" encoding="utf-8" standalone="no"?>
<!DOCTYPE svg PUBLIC "-//W3C//DTD SVG 1.1//EN"
  "http://www.w3.org/Graphics/SVG/1.1/DTD/svg11.dtd">
<svg height="864pt" version="1.1" viewBox="0 0 1440 864" width="1440pt" xmlns="http://www.w3.org/2000/svg" xmlns:xlink="http://www.w3.org/1999/xlink">
 <metadata>
  <rdf:RDF xmlns:cc="http://creativecommons.org/ns#" xmlns:dc="http://purl.org/dc/elements/1.1/" xmlns:rdf="http://www.w3.org/1999/02/22-rdf-syntax-ns#">
   <cc:Work>
    <dc:type rdf:resource="http://purl.org/dc/dcmitype/StillImage"/>
    <dc:date>2022-05-05T08:17:14.280307</dc:date>
    <dc:format>image/svg+xml</dc:format>
    <dc:creator>
     <cc:Agent>
      <dc:title>Matplotlib v3.4.3, https://matplotlib.org/</dc:title>
     </cc:Agent>
    </dc:creator>
   </cc:Work>
  </rdf:RDF>
 </metadata>
 <defs>
  <style type="text/css">*{stroke-linecap:butt;stroke-linejoin:round;}</style>
 </defs>
 <g id="figure_1">
  <g id="patch_1">
   <path d="M 0 864 
L 1440 864 
L 1440 0 
L 0 0 
z
" style="fill:#ffffff;"/>
  </g>
  <g id="axes_1">
   <g id="patch_2">
    <path d="M 72.685313 828.779375 
L 1429.2 828.779375 
L 1429.2 38.075625 
L 72.685313 38.075625 
z
" style="fill:#ffffff;"/>
   </g>
   <g id="patch_3">
    <path clip-path="url(#p5cb0a6fc97)" d="M 134.345071 828.779375 
L 146.677023 828.779375 
L 146.677023 826.784537 
L 134.345071 826.784537 
z
" style="fill:#1f77b4;opacity:0.6;"/>
   </g>
   <g id="patch_4">
    <path clip-path="url(#p5cb0a6fc97)" d="M 146.677023 828.779375 
L 159.008974 828.779375 
L 159.008974 824.29099 
L 146.677023 824.29099 
z
" style="fill:#1f77b4;opacity:0.6;"/>
   </g>
   <g id="patch_5">
    <path clip-path="url(#p5cb0a6fc97)" d="M 159.008974 828.779375 
L 171.340926 828.779375 
L 171.340926 820.800025 
L 159.008974 820.800025 
z
" style="fill:#1f77b4;opacity:0.6;"/>
   </g>
   <g id="patch_6">
    <path clip-path="url(#p5cb0a6fc97)" d="M 171.340926 828.779375 
L 183.672878 828.779375 
L 183.672878 814.316802 
L 171.340926 814.316802 
z
" style="fill:#1f77b4;opacity:0.6;"/>
   </g>
   <g id="patch_7">
    <path clip-path="url(#p5cb0a6fc97)" d="M 183.672878 828.779375 
L 196.00483 828.779375 
L 196.00483 805.838743 
L 183.672878 805.838743 
z
" style="fill:#1f77b4;opacity:0.6;"/>
   </g>
   <g id="patch_8">
    <path clip-path="url(#p5cb0a6fc97)" d="M 196.00483 828.779375 
L 208.336781 828.779375 
L 208.336781 796.861974 
L 196.00483 796.861974 
z
" style="fill:#1f77b4;opacity:0.6;"/>
   </g>
   <g id="patch_9">
    <path clip-path="url(#p5cb0a6fc97)" d="M 208.336781 828.779375 
L 220.668733 828.779375 
L 220.668733 780.903273 
L 208.336781 780.903273 
z
" style="fill:#1f77b4;opacity:0.6;"/>
   </g>
   <g id="patch_10">
    <path clip-path="url(#p5cb0a6fc97)" d="M 220.668733 828.779375 
L 233.000685 828.779375 
L 233.000685 765.941991 
L 220.668733 765.941991 
z
" style="fill:#1f77b4;opacity:0.6;"/>
   </g>
   <g id="patch_11">
    <path clip-path="url(#p5cb0a6fc97)" d="M 233.000685 828.779375 
L 245.332636 828.779375 
L 245.332636 756.965222 
L 233.000685 756.965222 
z
" style="fill:#1f77b4;opacity:0.6;"/>
   </g>
   <g id="patch_12">
    <path clip-path="url(#p5cb0a6fc97)" d="M 245.332636 828.779375 
L 257.664588 828.779375 
L 257.664588 719.562017 
L 245.332636 719.562017 
z
" style="fill:#1f77b4;opacity:0.6;"/>
   </g>
   <g id="patch_13">
    <path clip-path="url(#p5cb0a6fc97)" d="M 257.664588 828.779375 
L 269.99654 828.779375 
L 269.99654 696.621385 
L 257.664588 696.621385 
z
" style="fill:#1f77b4;opacity:0.6;"/>
   </g>
   <g id="patch_14">
    <path clip-path="url(#p5cb0a6fc97)" d="M 269.99654 828.779375 
L 282.328491 828.779375 
L 282.328491 661.213017 
L 269.99654 661.213017 
z
" style="fill:#1f77b4;opacity:0.6;"/>
   </g>
   <g id="patch_15">
    <path clip-path="url(#p5cb0a6fc97)" d="M 282.328491 828.779375 
L 294.660443 828.779375 
L 294.660443 651.737539 
L 282.328491 651.737539 
z
" style="fill:#1f77b4;opacity:0.6;"/>
   </g>
   <g id="patch_16">
    <path clip-path="url(#p5cb0a6fc97)" d="M 294.660443 828.779375 
L 306.992395 828.779375 
L 306.992395 604.858855 
L 294.660443 604.858855 
z
" style="fill:#1f77b4;opacity:0.6;"/>
   </g>
   <g id="patch_17">
    <path clip-path="url(#p5cb0a6fc97)" d="M 306.992395 828.779375 
L 319.324347 828.779375 
L 319.324347 562.468557 
L 306.992395 562.468557 
z
" style="fill:#1f77b4;opacity:0.6;"/>
   </g>
   <g id="patch_18">
    <path clip-path="url(#p5cb0a6fc97)" d="M 319.324347 828.779375 
L 331.656298 828.779375 
L 331.656298 510.602779 
L 319.324347 510.602779 
z
" style="fill:#1f77b4;opacity:0.6;"/>
   </g>
   <g id="patch_19">
    <path clip-path="url(#p5cb0a6fc97)" d="M 331.656298 828.779375 
L 343.98825 828.779375 
L 343.98825 503.620848 
L 331.656298 503.620848 
z
" style="fill:#1f77b4;opacity:0.6;"/>
   </g>
   <g id="patch_20">
    <path clip-path="url(#p5cb0a6fc97)" d="M 343.98825 828.779375 
L 356.320202 828.779375 
L 356.320202 466.716352 
L 343.98825 466.716352 
z
" style="fill:#1f77b4;opacity:0.6;"/>
   </g>
   <g id="patch_21">
    <path clip-path="url(#p5cb0a6fc97)" d="M 356.320202 828.779375 
L 368.652153 828.779375 
L 368.652153 448.762814 
L 356.320202 448.762814 
z
" style="fill:#1f77b4;opacity:0.6;"/>
   </g>
   <g id="patch_22">
    <path clip-path="url(#p5cb0a6fc97)" d="M 368.652153 828.779375 
L 380.984105 828.779375 
L 380.984105 388.418977 
L 368.652153 388.418977 
z
" style="fill:#1f77b4;opacity:0.6;"/>
   </g>
   <g id="patch_23">
    <path clip-path="url(#p5cb0a6fc97)" d="M 380.984105 828.779375 
L 393.316057 828.779375 
L 393.316057 361.987379 
L 380.984105 361.987379 
z
" style="fill:#1f77b4;opacity:0.6;"/>
   </g>
   <g id="patch_24">
    <path clip-path="url(#p5cb0a6fc97)" d="M 393.316057 828.779375 
L 405.648009 828.779375 
L 405.648009 305.633217 
L 393.316057 305.633217 
z
" style="fill:#1f77b4;opacity:0.6;"/>
   </g>
   <g id="patch_25">
    <path clip-path="url(#p5cb0a6fc97)" d="M 405.648009 828.779375 
L 417.97996 828.779375 
L 417.97996 290.671935 
L 405.648009 290.671935 
z
" style="fill:#1f77b4;opacity:0.6;"/>
   </g>
   <g id="patch_26">
    <path clip-path="url(#p5cb0a6fc97)" d="M 417.97996 828.779375 
L 430.311912 828.779375 
L 430.311912 230.826807 
L 417.97996 230.826807 
z
" style="fill:#1f77b4;opacity:0.6;"/>
   </g>
   <g id="patch_27">
    <path clip-path="url(#p5cb0a6fc97)" d="M 430.311912 828.779375 
L 442.643864 828.779375 
L 442.643864 196.914568 
L 430.311912 196.914568 
z
" style="fill:#1f77b4;opacity:0.6;"/>
   </g>
   <g id="patch_28">
    <path clip-path="url(#p5cb0a6fc97)" d="M 442.643864 828.779375 
L 454.975815 828.779375 
L 454.975815 172.976517 
L 442.643864 172.976517 
z
" style="fill:#1f77b4;opacity:0.6;"/>
   </g>
   <g id="patch_29">
    <path clip-path="url(#p5cb0a6fc97)" d="M 454.975815 828.779375 
L 467.307767 828.779375 
L 467.307767 144.051372 
L 454.975815 144.051372 
z
" style="fill:#1f77b4;opacity:0.6;"/>
   </g>
   <g id="patch_30">
    <path clip-path="url(#p5cb0a6fc97)" d="M 467.307767 828.779375 
L 479.639719 828.779375 
L 479.639719 157.017816 
L 467.307767 157.017816 
z
" style="fill:#1f77b4;opacity:0.6;"/>
   </g>
   <g id="patch_31">
    <path clip-path="url(#p5cb0a6fc97)" d="M 479.639719 828.779375 
L 491.97167 828.779375 
L 491.97167 133.079765 
L 479.639719 133.079765 
z
" style="fill:#1f77b4;opacity:0.6;"/>
   </g>
   <g id="patch_32">
    <path clip-path="url(#p5cb0a6fc97)" d="M 491.97167 828.779375 
L 504.303622 828.779375 
L 504.303622 138.565569 
L 491.97167 138.565569 
z
" style="fill:#1f77b4;opacity:0.6;"/>
   </g>
   <g id="patch_33">
    <path clip-path="url(#p5cb0a6fc97)" d="M 504.303622 828.779375 
L 516.635574 828.779375 
L 516.635574 83.707535 
L 504.303622 83.707535 
z
" style="fill:#1f77b4;opacity:0.6;"/>
   </g>
   <g id="patch_34">
    <path clip-path="url(#p5cb0a6fc97)" d="M 516.635574 828.779375 
L 528.967526 828.779375 
L 528.967526 75.728185 
L 516.635574 75.728185 
z
" style="fill:#1f77b4;opacity:0.6;"/>
   </g>
   <g id="patch_35">
    <path clip-path="url(#p5cb0a6fc97)" d="M 528.967526 828.779375 
L 541.299477 828.779375 
L 541.299477 104.15462 
L 528.967526 104.15462 
z
" style="fill:#1f77b4;opacity:0.6;"/>
   </g>
   <g id="patch_36">
    <path clip-path="url(#p5cb0a6fc97)" d="M 541.299477 828.779375 
L 553.631429 828.779375 
L 553.631429 99.167526 
L 541.299477 99.167526 
z
" style="fill:#1f77b4;opacity:0.6;"/>
   </g>
   <g id="patch_37">
    <path clip-path="url(#p5cb0a6fc97)" d="M 553.631429 828.779375 
L 565.963381 828.779375 
L 565.963381 101.162364 
L 553.631429 101.162364 
z
" style="fill:#1f77b4;opacity:0.6;"/>
   </g>
   <g id="patch_38">
    <path clip-path="url(#p5cb0a6fc97)" d="M 565.963381 828.779375 
L 578.295332 828.779375 
L 578.295332 144.051372 
L 565.963381 144.051372 
z
" style="fill:#1f77b4;opacity:0.6;"/>
   </g>
   <g id="patch_39">
    <path clip-path="url(#p5cb0a6fc97)" d="M 578.295332 828.779375 
L 590.627284 828.779375 
L 590.627284 144.051372 
L 578.295332 144.051372 
z
" style="fill:#1f77b4;opacity:0.6;"/>
   </g>
   <g id="patch_40">
    <path clip-path="url(#p5cb0a6fc97)" d="M 590.627284 828.779375 
L 602.959236 828.779375 
L 602.959236 182.451996 
L 590.627284 182.451996 
z
" style="fill:#1f77b4;opacity:0.6;"/>
   </g>
   <g id="patch_41">
    <path clip-path="url(#p5cb0a6fc97)" d="M 602.959236 828.779375 
L 615.291188 828.779375 
L 615.291188 202.400372 
L 602.959236 202.400372 
z
" style="fill:#1f77b4;opacity:0.6;"/>
   </g>
   <g id="patch_42">
    <path clip-path="url(#p5cb0a6fc97)" d="M 615.291187 828.779375 
L 627.623139 828.779375 
L 627.623139 213.371978 
L 615.291187 213.371978 
z
" style="fill:#1f77b4;opacity:0.6;"/>
   </g>
   <g id="patch_43">
    <path clip-path="url(#p5cb0a6fc97)" d="M 627.623139 828.779375 
L 639.955091 828.779375 
L 639.955091 211.87585 
L 627.623139 211.87585 
z
" style="fill:#1f77b4;opacity:0.6;"/>
   </g>
   <g id="patch_44">
    <path clip-path="url(#p5cb0a6fc97)" d="M 639.955091 828.779375 
L 652.287043 828.779375 
L 652.287043 239.304867 
L 639.955091 239.304867 
z
" style="fill:#1f77b4;opacity:0.6;"/>
   </g>
   <g id="patch_45">
    <path clip-path="url(#p5cb0a6fc97)" d="M 652.287043 828.779375 
L 664.618994 828.779375 
L 664.618994 253.26873 
L 652.287043 253.26873 
z
" style="fill:#1f77b4;opacity:0.6;"/>
   </g>
   <g id="patch_46">
    <path clip-path="url(#p5cb0a6fc97)" d="M 664.618994 828.779375 
L 676.950946 828.779375 
L 676.950946 268.728721 
L 664.618994 268.728721 
z
" style="fill:#1f77b4;opacity:0.6;"/>
   </g>
   <g id="patch_47">
    <path clip-path="url(#p5cb0a6fc97)" d="M 676.950946 828.779375 
L 689.282898 828.779375 
L 689.282898 314.609986 
L 676.950946 314.609986 
z
" style="fill:#1f77b4;opacity:0.6;"/>
   </g>
   <g id="patch_48">
    <path clip-path="url(#p5cb0a6fc97)" d="M 689.282898 828.779375 
L 701.614849 828.779375 
L 701.614849 341.041584 
L 689.282898 341.041584 
z
" style="fill:#1f77b4;opacity:0.6;"/>
   </g>
   <g id="patch_49">
    <path clip-path="url(#p5cb0a6fc97)" d="M 701.614849 828.779375 
L 713.946801 828.779375 
L 713.946801 357.997704 
L 701.614849 357.997704 
z
" style="fill:#1f77b4;opacity:0.6;"/>
   </g>
   <g id="patch_50">
    <path clip-path="url(#p5cb0a6fc97)" d="M 713.946801 828.779375 
L 726.278753 828.779375 
L 726.278753 384.429302 
L 713.946801 384.429302 
z
" style="fill:#1f77b4;opacity:0.6;"/>
   </g>
   <g id="patch_51">
    <path clip-path="url(#p5cb0a6fc97)" d="M 726.278753 828.779375 
L 738.610705 828.779375 
L 738.610705 423.328635 
L 726.278753 423.328635 
z
" style="fill:#1f77b4;opacity:0.6;"/>
   </g>
   <g id="patch_52">
    <path clip-path="url(#p5cb0a6fc97)" d="M 738.610705 828.779375 
L 750.942656 828.779375 
L 750.942656 481.677634 
L 738.610705 481.677634 
z
" style="fill:#1f77b4;opacity:0.6;"/>
   </g>
   <g id="patch_53">
    <path clip-path="url(#p5cb0a6fc97)" d="M 750.942656 828.779375 
L 763.274608 828.779375 
L 763.274608 482.675053 
L 750.942656 482.675053 
z
" style="fill:#1f77b4;opacity:0.6;"/>
   </g>
   <g id="patch_54">
    <path clip-path="url(#p5cb0a6fc97)" d="M 763.274608 828.779375 
L 775.60656 828.779375 
L 775.60656 476.191831 
L 763.274608 476.191831 
z
" style="fill:#1f77b4;opacity:0.6;"/>
   </g>
   <g id="patch_55">
    <path clip-path="url(#p5cb0a6fc97)" d="M 775.60656 828.779375 
L 787.938511 828.779375 
L 787.938511 552.993078 
L 775.60656 552.993078 
z
" style="fill:#1f77b4;opacity:0.6;"/>
   </g>
   <g id="patch_56">
    <path clip-path="url(#p5cb0a6fc97)" d="M 787.938511 828.779375 
L 800.270463 828.779375 
L 800.270463 546.509856 
L 787.938511 546.509856 
z
" style="fill:#1f77b4;opacity:0.6;"/>
   </g>
   <g id="patch_57">
    <path clip-path="url(#p5cb0a6fc97)" d="M 800.270463 828.779375 
L 812.602415 828.779375 
L 812.602415 574.437582 
L 800.270463 574.437582 
z
" style="fill:#1f77b4;opacity:0.6;"/>
   </g>
   <g id="patch_58">
    <path clip-path="url(#p5cb0a6fc97)" d="M 812.602415 828.779375 
L 824.934366 828.779375 
L 824.934366 598.375633 
L 812.602415 598.375633 
z
" style="fill:#1f77b4;opacity:0.6;"/>
   </g>
   <g id="patch_59">
    <path clip-path="url(#p5cb0a6fc97)" d="M 824.934366 828.779375 
L 837.266318 828.779375 
L 837.266318 618.822719 
L 824.934366 618.822719 
z
" style="fill:#1f77b4;opacity:0.6;"/>
   </g>
   <g id="patch_60">
    <path clip-path="url(#p5cb0a6fc97)" d="M 837.266318 828.779375 
L 849.59827 828.779375 
L 849.59827 641.763351 
L 837.266318 641.763351 
z
" style="fill:#1f77b4;opacity:0.6;"/>
   </g>
   <g id="patch_61">
    <path clip-path="url(#p5cb0a6fc97)" d="M 849.59827 828.779375 
L 861.930222 828.779375 
L 861.930222 647.747864 
L 849.59827 647.747864 
z
" style="fill:#1f77b4;opacity:0.6;"/>
   </g>
   <g id="patch_62">
    <path clip-path="url(#p5cb0a6fc97)" d="M 861.930222 828.779375 
L 874.262173 828.779375 
L 874.262173 682.158812 
L 861.930222 682.158812 
z
" style="fill:#1f77b4;opacity:0.6;"/>
   </g>
   <g id="patch_63">
    <path clip-path="url(#p5cb0a6fc97)" d="M 874.262173 828.779375 
L 886.594125 828.779375 
L 886.594125 689.140744 
L 874.262173 689.140744 
z
" style="fill:#1f77b4;opacity:0.6;"/>
   </g>
   <g id="patch_64">
    <path clip-path="url(#p5cb0a6fc97)" d="M 886.594125 828.779375 
L 898.926077 828.779375 
L 898.926077 695.623966 
L 886.594125 695.623966 
z
" style="fill:#1f77b4;opacity:0.6;"/>
   </g>
   <g id="patch_65">
    <path clip-path="url(#p5cb0a6fc97)" d="M 898.926077 828.779375 
L 911.258028 828.779375 
L 911.258028 720.559436 
L 898.926077 720.559436 
z
" style="fill:#1f77b4;opacity:0.6;"/>
   </g>
   <g id="patch_66">
    <path clip-path="url(#p5cb0a6fc97)" d="M 911.258028 828.779375 
L 923.58998 828.779375 
L 923.58998 723.551692 
L 911.258028 723.551692 
z
" style="fill:#1f77b4;opacity:0.6;"/>
   </g>
   <g id="patch_67">
    <path clip-path="url(#p5cb0a6fc97)" d="M 923.58998 828.779375 
L 935.921932 828.779375 
L 935.921932 743.998777 
L 923.58998 743.998777 
z
" style="fill:#1f77b4;opacity:0.6;"/>
   </g>
   <g id="patch_68">
    <path clip-path="url(#p5cb0a6fc97)" d="M 935.921932 828.779375 
L 948.253884 828.779375 
L 948.253884 742.00394 
L 935.921932 742.00394 
z
" style="fill:#1f77b4;opacity:0.6;"/>
   </g>
   <g id="patch_69">
    <path clip-path="url(#p5cb0a6fc97)" d="M 948.253884 828.779375 
L 960.585835 828.779375 
L 960.585835 756.466512 
L 948.253884 756.466512 
z
" style="fill:#1f77b4;opacity:0.6;"/>
   </g>
   <g id="patch_70">
    <path clip-path="url(#p5cb0a6fc97)" d="M 960.585835 828.779375 
L 972.917787 828.779375 
L 972.917787 760.954897 
L 960.585835 760.954897 
z
" style="fill:#1f77b4;opacity:0.6;"/>
   </g>
   <g id="patch_71">
    <path clip-path="url(#p5cb0a6fc97)" d="M 972.917787 828.779375 
L 985.249739 828.779375 
L 985.249739 779.407145 
L 972.917787 779.407145 
z
" style="fill:#1f77b4;opacity:0.6;"/>
   </g>
   <g id="patch_72">
    <path clip-path="url(#p5cb0a6fc97)" d="M 985.249739 828.779375 
L 997.58169 828.779375 
L 997.58169 778.409726 
L 985.249739 778.409726 
z
" style="fill:#1f77b4;opacity:0.6;"/>
   </g>
   <g id="patch_73">
    <path clip-path="url(#p5cb0a6fc97)" d="M 997.58169 828.779375 
L 1009.913642 828.779375 
L 1009.913642 783.39682 
L 997.58169 783.39682 
z
" style="fill:#1f77b4;opacity:0.6;"/>
   </g>
   <g id="patch_74">
    <path clip-path="url(#p5cb0a6fc97)" d="M 1009.913642 828.779375 
L 1022.245594 828.779375 
L 1022.245594 794.867136 
L 1009.913642 794.867136 
z
" style="fill:#1f77b4;opacity:0.6;"/>
   </g>
   <g id="patch_75">
    <path clip-path="url(#p5cb0a6fc97)" d="M 1022.245594 828.779375 
L 1034.577545 828.779375 
L 1034.577545 802.347777 
L 1022.245594 802.347777 
z
" style="fill:#1f77b4;opacity:0.6;"/>
   </g>
   <g id="patch_76">
    <path clip-path="url(#p5cb0a6fc97)" d="M 1034.577545 828.779375 
L 1046.909497 828.779375 
L 1046.909497 799.355521 
L 1034.577545 799.355521 
z
" style="fill:#1f77b4;opacity:0.6;"/>
   </g>
   <g id="patch_77">
    <path clip-path="url(#p5cb0a6fc97)" d="M 1046.909497 828.779375 
L 1059.241449 828.779375 
L 1059.241449 797.360683 
L 1046.909497 797.360683 
z
" style="fill:#1f77b4;opacity:0.6;"/>
   </g>
   <g id="patch_78">
    <path clip-path="url(#p5cb0a6fc97)" d="M 1059.241449 828.779375 
L 1071.573401 828.779375 
L 1071.573401 809.329708 
L 1059.241449 809.329708 
z
" style="fill:#1f77b4;opacity:0.6;"/>
   </g>
   <g id="patch_79">
    <path clip-path="url(#p5cb0a6fc97)" d="M 1071.573401 828.779375 
L 1083.905352 828.779375 
L 1083.905352 813.319384 
L 1071.573401 813.319384 
z
" style="fill:#1f77b4;opacity:0.6;"/>
   </g>
   <g id="patch_80">
    <path clip-path="url(#p5cb0a6fc97)" d="M 1083.905352 828.779375 
L 1096.237304 828.779375 
L 1096.237304 813.818093 
L 1083.905352 813.818093 
z
" style="fill:#1f77b4;opacity:0.6;"/>
   </g>
   <g id="patch_81">
    <path clip-path="url(#p5cb0a6fc97)" d="M 1096.237304 828.779375 
L 1108.569256 828.779375 
L 1108.569256 814.316802 
L 1096.237304 814.316802 
z
" style="fill:#1f77b4;opacity:0.6;"/>
   </g>
   <g id="patch_82">
    <path clip-path="url(#p5cb0a6fc97)" d="M 1108.569256 828.779375 
L 1120.901207 828.779375 
L 1120.901207 819.303896 
L 1108.569256 819.303896 
z
" style="fill:#1f77b4;opacity:0.6;"/>
   </g>
   <g id="patch_83">
    <path clip-path="url(#p5cb0a6fc97)" d="M 1120.901207 828.779375 
L 1133.233159 828.779375 
L 1133.233159 820.800025 
L 1120.901207 820.800025 
z
" style="fill:#1f77b4;opacity:0.6;"/>
   </g>
   <g id="patch_84">
    <path clip-path="url(#p5cb0a6fc97)" d="M 1133.233159 828.779375 
L 1145.565111 828.779375 
L 1145.565111 818.306478 
L 1133.233159 818.306478 
z
" style="fill:#1f77b4;opacity:0.6;"/>
   </g>
   <g id="patch_85">
    <path clip-path="url(#p5cb0a6fc97)" d="M 1145.565111 828.779375 
L 1157.897063 828.779375 
L 1157.897063 820.800025 
L 1145.565111 820.800025 
z
" style="fill:#1f77b4;opacity:0.6;"/>
   </g>
   <g id="patch_86">
    <path clip-path="url(#p5cb0a6fc97)" d="M 1157.897063 828.779375 
L 1170.229014 828.779375 
L 1170.229014 823.293572 
L 1157.897063 823.293572 
z
" style="fill:#1f77b4;opacity:0.6;"/>
   </g>
   <g id="patch_87">
    <path clip-path="url(#p5cb0a6fc97)" d="M 1170.229014 828.779375 
L 1182.560966 828.779375 
L 1182.560966 824.7897 
L 1170.229014 824.7897 
z
" style="fill:#1f77b4;opacity:0.6;"/>
   </g>
   <g id="patch_88">
    <path clip-path="url(#p5cb0a6fc97)" d="M 1182.560966 828.779375 
L 1194.892918 828.779375 
L 1194.892918 824.29099 
L 1182.560966 824.29099 
z
" style="fill:#1f77b4;opacity:0.6;"/>
   </g>
   <g id="patch_89">
    <path clip-path="url(#p5cb0a6fc97)" d="M 1194.892918 828.779375 
L 1207.224869 828.779375 
L 1207.224869 825.288409 
L 1194.892918 825.288409 
z
" style="fill:#1f77b4;opacity:0.6;"/>
   </g>
   <g id="patch_90">
    <path clip-path="url(#p5cb0a6fc97)" d="M 1207.224869 828.779375 
L 1219.556821 828.779375 
L 1219.556821 825.787119 
L 1207.224869 825.787119 
z
" style="fill:#1f77b4;opacity:0.6;"/>
   </g>
   <g id="patch_91">
    <path clip-path="url(#p5cb0a6fc97)" d="M 1219.556821 828.779375 
L 1231.888773 828.779375 
L 1231.888773 826.285828 
L 1219.556821 826.285828 
z
" style="fill:#1f77b4;opacity:0.6;"/>
   </g>
   <g id="patch_92">
    <path clip-path="url(#p5cb0a6fc97)" d="M 1231.888773 828.779375 
L 1244.220724 828.779375 
L 1244.220724 828.280666 
L 1231.888773 828.280666 
z
" style="fill:#1f77b4;opacity:0.6;"/>
   </g>
   <g id="patch_93">
    <path clip-path="url(#p5cb0a6fc97)" d="M 1244.220724 828.779375 
L 1256.552676 828.779375 
L 1256.552676 825.787119 
L 1244.220724 825.787119 
z
" style="fill:#1f77b4;opacity:0.6;"/>
   </g>
   <g id="patch_94">
    <path clip-path="url(#p5cb0a6fc97)" d="M 1256.552676 828.779375 
L 1268.884628 828.779375 
L 1268.884628 828.779375 
L 1256.552676 828.779375 
z
" style="fill:#1f77b4;opacity:0.6;"/>
   </g>
   <g id="patch_95">
    <path clip-path="url(#p5cb0a6fc97)" d="M 1268.884628 828.779375 
L 1281.21658 828.779375 
L 1281.21658 827.781956 
L 1268.884628 827.781956 
z
" style="fill:#1f77b4;opacity:0.6;"/>
   </g>
   <g id="patch_96">
    <path clip-path="url(#p5cb0a6fc97)" d="M 1281.21658 828.779375 
L 1293.548531 828.779375 
L 1293.548531 828.280666 
L 1281.21658 828.280666 
z
" style="fill:#1f77b4;opacity:0.6;"/>
   </g>
   <g id="patch_97">
    <path clip-path="url(#p5cb0a6fc97)" d="M 1293.548531 828.779375 
L 1305.880483 828.779375 
L 1305.880483 826.784537 
L 1293.548531 826.784537 
z
" style="fill:#1f77b4;opacity:0.6;"/>
   </g>
   <g id="patch_98">
    <path clip-path="url(#p5cb0a6fc97)" d="M 1305.880483 828.779375 
L 1318.212435 828.779375 
L 1318.212435 828.779375 
L 1305.880483 828.779375 
z
" style="fill:#1f77b4;opacity:0.6;"/>
   </g>
   <g id="patch_99">
    <path clip-path="url(#p5cb0a6fc97)" d="M 1318.212435 828.779375 
L 1330.544386 828.779375 
L 1330.544386 828.280666 
L 1318.212435 828.280666 
z
" style="fill:#1f77b4;opacity:0.6;"/>
   </g>
   <g id="patch_100">
    <path clip-path="url(#p5cb0a6fc97)" d="M 1330.544386 828.779375 
L 1342.876338 828.779375 
L 1342.876338 828.280666 
L 1330.544386 828.280666 
z
" style="fill:#1f77b4;opacity:0.6;"/>
   </g>
   <g id="patch_101">
    <path clip-path="url(#p5cb0a6fc97)" d="M 1342.876338 828.779375 
L 1355.20829 828.779375 
L 1355.20829 828.779375 
L 1342.876338 828.779375 
z
" style="fill:#1f77b4;opacity:0.6;"/>
   </g>
   <g id="patch_102">
    <path clip-path="url(#p5cb0a6fc97)" d="M 1355.20829 828.779375 
L 1367.540241 828.779375 
L 1367.540241 828.280666 
L 1355.20829 828.280666 
z
" style="fill:#1f77b4;opacity:0.6;"/>
   </g>
   <g id="matplotlib.axis_1">
    <g id="xtick_1">
     <g id="line2d_1">
      <defs>
       <path d="M 0 0 
L 0 3.5 
" id="m4287373f85" style="stroke:#000000;stroke-width:0.8;"/>
      </defs>
      <g>
       <use style="stroke:#000000;stroke-width:0.8;" x="105.518493" xlink:href="#m4287373f85" y="828.779375"/>
      </g>
     </g>
     <g id="text_1">
      <!-- 0 -->
      <g transform="translate(99.792243 849.456563)scale(0.18 -0.18)">
       <defs>
        <path d="M 2034 4250 
Q 1547 4250 1301 3770 
Q 1056 3291 1056 2328 
Q 1056 1369 1301 889 
Q 1547 409 2034 409 
Q 2525 409 2770 889 
Q 3016 1369 3016 2328 
Q 3016 3291 2770 3770 
Q 2525 4250 2034 4250 
z
M 2034 4750 
Q 2819 4750 3233 4129 
Q 3647 3509 3647 2328 
Q 3647 1150 3233 529 
Q 2819 -91 2034 -91 
Q 1250 -91 836 529 
Q 422 1150 422 2328 
Q 422 3509 836 4129 
Q 1250 4750 2034 4750 
z
" id="DejaVuSans-30" transform="scale(0.015625)"/>
       </defs>
       <use xlink:href="#DejaVuSans-30"/>
      </g>
     </g>
    </g>
    <g id="xtick_2">
     <g id="line2d_2">
      <g>
       <use style="stroke:#000000;stroke-width:0.8;" x="352.624857" xlink:href="#m4287373f85" y="828.779375"/>
      </g>
     </g>
     <g id="text_2">
      <!-- 1 -->
      <g transform="translate(346.898607 849.456563)scale(0.18 -0.18)">
       <defs>
        <path d="M 794 531 
L 1825 531 
L 1825 4091 
L 703 3866 
L 703 4441 
L 1819 4666 
L 2450 4666 
L 2450 531 
L 3481 531 
L 3481 0 
L 794 0 
L 794 531 
z
" id="DejaVuSans-31" transform="scale(0.015625)"/>
       </defs>
       <use xlink:href="#DejaVuSans-31"/>
      </g>
     </g>
    </g>
    <g id="xtick_3">
     <g id="line2d_3">
      <g>
       <use style="stroke:#000000;stroke-width:0.8;" x="599.73122" xlink:href="#m4287373f85" y="828.779375"/>
      </g>
     </g>
     <g id="text_3">
      <!-- 2 -->
      <g transform="translate(594.00497 849.456563)scale(0.18 -0.18)">
       <defs>
        <path d="M 1228 531 
L 3431 531 
L 3431 0 
L 469 0 
L 469 531 
Q 828 903 1448 1529 
Q 2069 2156 2228 2338 
Q 2531 2678 2651 2914 
Q 2772 3150 2772 3378 
Q 2772 3750 2511 3984 
Q 2250 4219 1831 4219 
Q 1534 4219 1204 4116 
Q 875 4013 500 3803 
L 500 4441 
Q 881 4594 1212 4672 
Q 1544 4750 1819 4750 
Q 2544 4750 2975 4387 
Q 3406 4025 3406 3419 
Q 3406 3131 3298 2873 
Q 3191 2616 2906 2266 
Q 2828 2175 2409 1742 
Q 1991 1309 1228 531 
z
" id="DejaVuSans-32" transform="scale(0.015625)"/>
       </defs>
       <use xlink:href="#DejaVuSans-32"/>
      </g>
     </g>
    </g>
    <g id="xtick_4">
     <g id="line2d_4">
      <g>
       <use style="stroke:#000000;stroke-width:0.8;" x="846.837584" xlink:href="#m4287373f85" y="828.779375"/>
      </g>
     </g>
     <g id="text_4">
      <!-- 3 -->
      <g transform="translate(841.111334 849.456563)scale(0.18 -0.18)">
       <defs>
        <path d="M 2597 2516 
Q 3050 2419 3304 2112 
Q 3559 1806 3559 1356 
Q 3559 666 3084 287 
Q 2609 -91 1734 -91 
Q 1441 -91 1130 -33 
Q 819 25 488 141 
L 488 750 
Q 750 597 1062 519 
Q 1375 441 1716 441 
Q 2309 441 2620 675 
Q 2931 909 2931 1356 
Q 2931 1769 2642 2001 
Q 2353 2234 1838 2234 
L 1294 2234 
L 1294 2753 
L 1863 2753 
Q 2328 2753 2575 2939 
Q 2822 3125 2822 3475 
Q 2822 3834 2567 4026 
Q 2313 4219 1838 4219 
Q 1578 4219 1281 4162 
Q 984 4106 628 3988 
L 628 4550 
Q 988 4650 1302 4700 
Q 1616 4750 1894 4750 
Q 2613 4750 3031 4423 
Q 3450 4097 3450 3541 
Q 3450 3153 3228 2886 
Q 3006 2619 2597 2516 
z
" id="DejaVuSans-33" transform="scale(0.015625)"/>
       </defs>
       <use xlink:href="#DejaVuSans-33"/>
      </g>
     </g>
    </g>
    <g id="xtick_5">
     <g id="line2d_5">
      <g>
       <use style="stroke:#000000;stroke-width:0.8;" x="1093.943948" xlink:href="#m4287373f85" y="828.779375"/>
      </g>
     </g>
     <g id="text_5">
      <!-- 4 -->
      <g transform="translate(1088.217698 849.456563)scale(0.18 -0.18)">
       <defs>
        <path d="M 2419 4116 
L 825 1625 
L 2419 1625 
L 2419 4116 
z
M 2253 4666 
L 3047 4666 
L 3047 1625 
L 3713 1625 
L 3713 1100 
L 3047 1100 
L 3047 0 
L 2419 0 
L 2419 1100 
L 313 1100 
L 313 1709 
L 2253 4666 
z
" id="DejaVuSans-34" transform="scale(0.015625)"/>
       </defs>
       <use xlink:href="#DejaVuSans-34"/>
      </g>
     </g>
    </g>
    <g id="xtick_6">
     <g id="line2d_6">
      <g>
       <use style="stroke:#000000;stroke-width:0.8;" x="1341.050312" xlink:href="#m4287373f85" y="828.779375"/>
      </g>
     </g>
     <g id="text_6">
      <!-- 5 -->
      <g transform="translate(1335.324062 849.456563)scale(0.18 -0.18)">
       <defs>
        <path d="M 691 4666 
L 3169 4666 
L 3169 4134 
L 1269 4134 
L 1269 2991 
Q 1406 3038 1543 3061 
Q 1681 3084 1819 3084 
Q 2600 3084 3056 2656 
Q 3513 2228 3513 1497 
Q 3513 744 3044 326 
Q 2575 -91 1722 -91 
Q 1428 -91 1123 -41 
Q 819 9 494 109 
L 494 744 
Q 775 591 1075 516 
Q 1375 441 1709 441 
Q 2250 441 2565 725 
Q 2881 1009 2881 1497 
Q 2881 1984 2565 2268 
Q 2250 2553 1709 2553 
Q 1456 2553 1204 2497 
Q 953 2441 691 2322 
L 691 4666 
z
" id="DejaVuSans-35" transform="scale(0.015625)"/>
       </defs>
       <use xlink:href="#DejaVuSans-35"/>
      </g>
     </g>
    </g>
   </g>
   <g id="matplotlib.axis_2">
    <g id="ytick_1">
     <g id="line2d_7">
      <defs>
       <path d="M 0 0 
L -3.5 0 
" id="madb0741a0b" style="stroke:#000000;stroke-width:0.8;"/>
      </defs>
      <g>
       <use style="stroke:#000000;stroke-width:0.8;" x="72.685313" xlink:href="#madb0741a0b" y="828.779375"/>
      </g>
     </g>
     <g id="text_7">
      <!-- 0.0 -->
      <g transform="translate(37.059688 835.617969)scale(0.18 -0.18)">
       <defs>
        <path d="M 684 794 
L 1344 794 
L 1344 0 
L 684 0 
L 684 794 
z
" id="DejaVuSans-2e" transform="scale(0.015625)"/>
       </defs>
       <use xlink:href="#DejaVuSans-30"/>
       <use x="63.623047" xlink:href="#DejaVuSans-2e"/>
       <use x="95.410156" xlink:href="#DejaVuSans-30"/>
      </g>
     </g>
    </g>
    <g id="ytick_2">
     <g id="line2d_8">
      <g>
       <use style="stroke:#000000;stroke-width:0.8;" x="72.685313" xlink:href="#madb0741a0b" y="704.337817"/>
      </g>
     </g>
     <g id="text_8">
      <!-- 0.1 -->
      <g transform="translate(37.059688 711.17641)scale(0.18 -0.18)">
       <use xlink:href="#DejaVuSans-30"/>
       <use x="63.623047" xlink:href="#DejaVuSans-2e"/>
       <use x="95.410156" xlink:href="#DejaVuSans-31"/>
      </g>
     </g>
    </g>
    <g id="ytick_3">
     <g id="line2d_9">
      <g>
       <use style="stroke:#000000;stroke-width:0.8;" x="72.685313" xlink:href="#madb0741a0b" y="579.896258"/>
      </g>
     </g>
     <g id="text_9">
      <!-- 0.2 -->
      <g transform="translate(37.059688 586.734852)scale(0.18 -0.18)">
       <use xlink:href="#DejaVuSans-30"/>
       <use x="63.623047" xlink:href="#DejaVuSans-2e"/>
       <use x="95.410156" xlink:href="#DejaVuSans-32"/>
      </g>
     </g>
    </g>
    <g id="ytick_4">
     <g id="line2d_10">
      <g>
       <use style="stroke:#000000;stroke-width:0.8;" x="72.685313" xlink:href="#madb0741a0b" y="455.4547"/>
      </g>
     </g>
     <g id="text_10">
      <!-- 0.3 -->
      <g transform="translate(37.059688 462.293293)scale(0.18 -0.18)">
       <use xlink:href="#DejaVuSans-30"/>
       <use x="63.623047" xlink:href="#DejaVuSans-2e"/>
       <use x="95.410156" xlink:href="#DejaVuSans-33"/>
      </g>
     </g>
    </g>
    <g id="ytick_5">
     <g id="line2d_11">
      <g>
       <use style="stroke:#000000;stroke-width:0.8;" x="72.685313" xlink:href="#madb0741a0b" y="331.013141"/>
      </g>
     </g>
     <g id="text_11">
      <!-- 0.4 -->
      <g transform="translate(37.059688 337.851735)scale(0.18 -0.18)">
       <use xlink:href="#DejaVuSans-30"/>
       <use x="63.623047" xlink:href="#DejaVuSans-2e"/>
       <use x="95.410156" xlink:href="#DejaVuSans-34"/>
      </g>
     </g>
    </g>
    <g id="ytick_6">
     <g id="line2d_12">
      <g>
       <use style="stroke:#000000;stroke-width:0.8;" x="72.685313" xlink:href="#madb0741a0b" y="206.571583"/>
      </g>
     </g>
     <g id="text_12">
      <!-- 0.5 -->
      <g transform="translate(37.059688 213.410176)scale(0.18 -0.18)">
       <use xlink:href="#DejaVuSans-30"/>
       <use x="63.623047" xlink:href="#DejaVuSans-2e"/>
       <use x="95.410156" xlink:href="#DejaVuSans-35"/>
      </g>
     </g>
    </g>
    <g id="ytick_7">
     <g id="line2d_13">
      <g>
       <use style="stroke:#000000;stroke-width:0.8;" x="72.685313" xlink:href="#madb0741a0b" y="82.130024"/>
      </g>
     </g>
     <g id="text_13">
      <!-- 0.6 -->
      <g transform="translate(37.059688 88.968618)scale(0.18 -0.18)">
       <defs>
        <path d="M 2113 2584 
Q 1688 2584 1439 2293 
Q 1191 2003 1191 1497 
Q 1191 994 1439 701 
Q 1688 409 2113 409 
Q 2538 409 2786 701 
Q 3034 994 3034 1497 
Q 3034 2003 2786 2293 
Q 2538 2584 2113 2584 
z
M 3366 4563 
L 3366 3988 
Q 3128 4100 2886 4159 
Q 2644 4219 2406 4219 
Q 1781 4219 1451 3797 
Q 1122 3375 1075 2522 
Q 1259 2794 1537 2939 
Q 1816 3084 2150 3084 
Q 2853 3084 3261 2657 
Q 3669 2231 3669 1497 
Q 3669 778 3244 343 
Q 2819 -91 2113 -91 
Q 1303 -91 875 529 
Q 447 1150 447 2328 
Q 447 3434 972 4092 
Q 1497 4750 2381 4750 
Q 2619 4750 2861 4703 
Q 3103 4656 3366 4563 
z
" id="DejaVuSans-36" transform="scale(0.015625)"/>
       </defs>
       <use xlink:href="#DejaVuSans-30"/>
       <use x="63.623047" xlink:href="#DejaVuSans-2e"/>
       <use x="95.410156" xlink:href="#DejaVuSans-36"/>
      </g>
     </g>
    </g>
    <g id="text_14">
     <!-- Normed Hist Counts -->
     <g transform="translate(28.276406 548.966563)rotate(-90)scale(0.23 -0.23)">
      <defs>
       <path d="M 628 4666 
L 1478 4666 
L 3547 763 
L 3547 4666 
L 4159 4666 
L 4159 0 
L 3309 0 
L 1241 3903 
L 1241 0 
L 628 0 
L 628 4666 
z
" id="DejaVuSans-4e" transform="scale(0.015625)"/>
       <path d="M 1959 3097 
Q 1497 3097 1228 2736 
Q 959 2375 959 1747 
Q 959 1119 1226 758 
Q 1494 397 1959 397 
Q 2419 397 2687 759 
Q 2956 1122 2956 1747 
Q 2956 2369 2687 2733 
Q 2419 3097 1959 3097 
z
M 1959 3584 
Q 2709 3584 3137 3096 
Q 3566 2609 3566 1747 
Q 3566 888 3137 398 
Q 2709 -91 1959 -91 
Q 1206 -91 779 398 
Q 353 888 353 1747 
Q 353 2609 779 3096 
Q 1206 3584 1959 3584 
z
" id="DejaVuSans-6f" transform="scale(0.015625)"/>
       <path d="M 2631 2963 
Q 2534 3019 2420 3045 
Q 2306 3072 2169 3072 
Q 1681 3072 1420 2755 
Q 1159 2438 1159 1844 
L 1159 0 
L 581 0 
L 581 3500 
L 1159 3500 
L 1159 2956 
Q 1341 3275 1631 3429 
Q 1922 3584 2338 3584 
Q 2397 3584 2469 3576 
Q 2541 3569 2628 3553 
L 2631 2963 
z
" id="DejaVuSans-72" transform="scale(0.015625)"/>
       <path d="M 3328 2828 
Q 3544 3216 3844 3400 
Q 4144 3584 4550 3584 
Q 5097 3584 5394 3201 
Q 5691 2819 5691 2113 
L 5691 0 
L 5113 0 
L 5113 2094 
Q 5113 2597 4934 2840 
Q 4756 3084 4391 3084 
Q 3944 3084 3684 2787 
Q 3425 2491 3425 1978 
L 3425 0 
L 2847 0 
L 2847 2094 
Q 2847 2600 2669 2842 
Q 2491 3084 2119 3084 
Q 1678 3084 1418 2786 
Q 1159 2488 1159 1978 
L 1159 0 
L 581 0 
L 581 3500 
L 1159 3500 
L 1159 2956 
Q 1356 3278 1631 3431 
Q 1906 3584 2284 3584 
Q 2666 3584 2933 3390 
Q 3200 3197 3328 2828 
z
" id="DejaVuSans-6d" transform="scale(0.015625)"/>
       <path d="M 3597 1894 
L 3597 1613 
L 953 1613 
Q 991 1019 1311 708 
Q 1631 397 2203 397 
Q 2534 397 2845 478 
Q 3156 559 3463 722 
L 3463 178 
Q 3153 47 2828 -22 
Q 2503 -91 2169 -91 
Q 1331 -91 842 396 
Q 353 884 353 1716 
Q 353 2575 817 3079 
Q 1281 3584 2069 3584 
Q 2775 3584 3186 3129 
Q 3597 2675 3597 1894 
z
M 3022 2063 
Q 3016 2534 2758 2815 
Q 2500 3097 2075 3097 
Q 1594 3097 1305 2825 
Q 1016 2553 972 2059 
L 3022 2063 
z
" id="DejaVuSans-65" transform="scale(0.015625)"/>
       <path d="M 2906 2969 
L 2906 4863 
L 3481 4863 
L 3481 0 
L 2906 0 
L 2906 525 
Q 2725 213 2448 61 
Q 2172 -91 1784 -91 
Q 1150 -91 751 415 
Q 353 922 353 1747 
Q 353 2572 751 3078 
Q 1150 3584 1784 3584 
Q 2172 3584 2448 3432 
Q 2725 3281 2906 2969 
z
M 947 1747 
Q 947 1113 1208 752 
Q 1469 391 1925 391 
Q 2381 391 2643 752 
Q 2906 1113 2906 1747 
Q 2906 2381 2643 2742 
Q 2381 3103 1925 3103 
Q 1469 3103 1208 2742 
Q 947 2381 947 1747 
z
" id="DejaVuSans-64" transform="scale(0.015625)"/>
       <path id="DejaVuSans-20" transform="scale(0.015625)"/>
       <path d="M 628 4666 
L 1259 4666 
L 1259 2753 
L 3553 2753 
L 3553 4666 
L 4184 4666 
L 4184 0 
L 3553 0 
L 3553 2222 
L 1259 2222 
L 1259 0 
L 628 0 
L 628 4666 
z
" id="DejaVuSans-48" transform="scale(0.015625)"/>
       <path d="M 603 3500 
L 1178 3500 
L 1178 0 
L 603 0 
L 603 3500 
z
M 603 4863 
L 1178 4863 
L 1178 4134 
L 603 4134 
L 603 4863 
z
" id="DejaVuSans-69" transform="scale(0.015625)"/>
       <path d="M 2834 3397 
L 2834 2853 
Q 2591 2978 2328 3040 
Q 2066 3103 1784 3103 
Q 1356 3103 1142 2972 
Q 928 2841 928 2578 
Q 928 2378 1081 2264 
Q 1234 2150 1697 2047 
L 1894 2003 
Q 2506 1872 2764 1633 
Q 3022 1394 3022 966 
Q 3022 478 2636 193 
Q 2250 -91 1575 -91 
Q 1294 -91 989 -36 
Q 684 19 347 128 
L 347 722 
Q 666 556 975 473 
Q 1284 391 1588 391 
Q 1994 391 2212 530 
Q 2431 669 2431 922 
Q 2431 1156 2273 1281 
Q 2116 1406 1581 1522 
L 1381 1569 
Q 847 1681 609 1914 
Q 372 2147 372 2553 
Q 372 3047 722 3315 
Q 1072 3584 1716 3584 
Q 2034 3584 2315 3537 
Q 2597 3491 2834 3397 
z
" id="DejaVuSans-73" transform="scale(0.015625)"/>
       <path d="M 1172 4494 
L 1172 3500 
L 2356 3500 
L 2356 3053 
L 1172 3053 
L 1172 1153 
Q 1172 725 1289 603 
Q 1406 481 1766 481 
L 2356 481 
L 2356 0 
L 1766 0 
Q 1100 0 847 248 
Q 594 497 594 1153 
L 594 3053 
L 172 3053 
L 172 3500 
L 594 3500 
L 594 4494 
L 1172 4494 
z
" id="DejaVuSans-74" transform="scale(0.015625)"/>
       <path d="M 4122 4306 
L 4122 3641 
Q 3803 3938 3442 4084 
Q 3081 4231 2675 4231 
Q 1875 4231 1450 3742 
Q 1025 3253 1025 2328 
Q 1025 1406 1450 917 
Q 1875 428 2675 428 
Q 3081 428 3442 575 
Q 3803 722 4122 1019 
L 4122 359 
Q 3791 134 3420 21 
Q 3050 -91 2638 -91 
Q 1578 -91 968 557 
Q 359 1206 359 2328 
Q 359 3453 968 4101 
Q 1578 4750 2638 4750 
Q 3056 4750 3426 4639 
Q 3797 4528 4122 4306 
z
" id="DejaVuSans-43" transform="scale(0.015625)"/>
       <path d="M 544 1381 
L 544 3500 
L 1119 3500 
L 1119 1403 
Q 1119 906 1312 657 
Q 1506 409 1894 409 
Q 2359 409 2629 706 
Q 2900 1003 2900 1516 
L 2900 3500 
L 3475 3500 
L 3475 0 
L 2900 0 
L 2900 538 
Q 2691 219 2414 64 
Q 2138 -91 1772 -91 
Q 1169 -91 856 284 
Q 544 659 544 1381 
z
M 1991 3584 
L 1991 3584 
z
" id="DejaVuSans-75" transform="scale(0.015625)"/>
       <path d="M 3513 2113 
L 3513 0 
L 2938 0 
L 2938 2094 
Q 2938 2591 2744 2837 
Q 2550 3084 2163 3084 
Q 1697 3084 1428 2787 
Q 1159 2491 1159 1978 
L 1159 0 
L 581 0 
L 581 3500 
L 1159 3500 
L 1159 2956 
Q 1366 3272 1645 3428 
Q 1925 3584 2291 3584 
Q 2894 3584 3203 3211 
Q 3513 2838 3513 2113 
z
" id="DejaVuSans-6e" transform="scale(0.015625)"/>
      </defs>
      <use xlink:href="#DejaVuSans-4e"/>
      <use x="74.804688" xlink:href="#DejaVuSans-6f"/>
      <use x="135.986328" xlink:href="#DejaVuSans-72"/>
      <use x="175.349609" xlink:href="#DejaVuSans-6d"/>
      <use x="272.761719" xlink:href="#DejaVuSans-65"/>
      <use x="334.285156" xlink:href="#DejaVuSans-64"/>
      <use x="397.761719" xlink:href="#DejaVuSans-20"/>
      <use x="429.548828" xlink:href="#DejaVuSans-48"/>
      <use x="504.744141" xlink:href="#DejaVuSans-69"/>
      <use x="532.527344" xlink:href="#DejaVuSans-73"/>
      <use x="584.626953" xlink:href="#DejaVuSans-74"/>
      <use x="623.835938" xlink:href="#DejaVuSans-20"/>
      <use x="655.623047" xlink:href="#DejaVuSans-43"/>
      <use x="725.447266" xlink:href="#DejaVuSans-6f"/>
      <use x="786.628906" xlink:href="#DejaVuSans-75"/>
      <use x="850.007812" xlink:href="#DejaVuSans-6e"/>
      <use x="913.386719" xlink:href="#DejaVuSans-74"/>
      <use x="952.595703" xlink:href="#DejaVuSans-73"/>
     </g>
    </g>
   </g>
   <g id="line2d_14">
    <path clip-path="url(#p5cb0a6fc97)" d="M 137.428059 827.916302 
L 143.594035 827.1412 
L 149.760011 826.018229 
L 155.925987 824.492064 
L 162.091962 822.511043 
L 168.257938 820.027257 
L 174.423914 816.996663 
L 180.58989 813.37922 
L 186.755866 809.139016 
L 192.921842 804.244399 
L 199.087817 798.66809 
L 205.253793 792.38728 
L 211.419769 785.383709 
L 217.585745 777.643725 
L 223.751721 769.158317 
L 229.917697 759.923132 
L 236.083673 749.938457 
L 242.249648 739.209189 
L 248.415624 727.744772 
L 254.5816 715.559115 
L 260.747576 702.67048 
L 266.913552 689.101358 
L 273.079528 674.878312 
L 279.245504 660.031804 
L 285.411479 644.596007 
L 291.577455 628.608586 
L 297.743431 612.110476 
L 303.909407 595.145634 
L 310.075383 577.760784 
L 322.407335 541.930149 
L 334.739286 505.037167 
L 359.40319 429.859186 
L 371.735141 392.503049 
L 384.067093 355.923033 
L 390.233069 338.066328 
L 396.399045 320.572095 
L 402.565021 303.493668 
L 408.730996 286.882598 
L 414.896972 270.788426 
L 421.062948 255.258475 
L 427.228924 240.337657 
L 433.3949 226.068295 
L 439.560876 212.489968 
L 445.726852 199.639364 
L 451.892827 187.550163 
L 458.058803 176.25293 
L 464.224779 165.77503 
L 470.390755 156.140565 
L 476.556731 147.370321 
L 482.722707 139.481743 
L 488.888683 132.488922 
L 495.054658 126.402602 
L 501.220634 121.230202 
L 507.38661 116.975856 
L 513.552586 113.640469 
L 519.718562 111.22179 
L 525.884538 109.71449 
L 532.050513 109.110266 
L 538.216489 109.397945 
L 544.382465 110.563608 
L 550.548441 112.590722 
L 556.714417 115.460273 
L 562.880393 119.150922 
L 569.046369 123.639152 
L 575.212344 128.899432 
L 581.37832 134.904382 
L 587.544296 141.624936 
L 593.710272 149.030518 
L 599.876248 157.08921 
L 606.042224 165.767926 
L 612.2082 175.032581 
L 618.374175 184.848266 
L 624.540151 195.179408 
L 630.706127 205.989943 
L 636.872103 217.243468 
L 643.038079 228.903403 
L 649.204055 240.933138 
L 655.370031 253.296177 
L 661.536006 265.956281 
L 673.867958 292.024761 
L 686.19991 318.858504 
L 704.697837 359.960768 
L 735.527717 428.713065 
L 747.859668 455.675866 
L 760.19162 482.056777 
L 772.523572 507.703121 
L 784.855523 532.484443 
L 791.021499 544.515953 
L 797.187475 556.292169 
L 803.353451 567.802829 
L 809.519427 579.038935 
L 815.685403 589.992723 
L 821.851379 600.657616 
L 828.017354 611.02819 
L 834.18333 621.100121 
L 840.349306 630.870142 
L 846.515282 640.335996 
L 852.681258 649.496379 
L 858.847234 658.350895 
L 865.01321 666.9 
L 871.179185 675.14495 
L 877.345161 683.087751 
L 883.511137 690.7311 
L 889.677113 698.078339 
L 895.843089 705.1334 
L 902.009065 711.900754 
L 908.17504 718.385362 
L 914.341016 724.592626 
L 920.506992 730.528342 
L 926.672968 736.198655 
L 932.838944 741.610011 
L 939.00492 746.769119 
L 945.170896 751.682909 
L 951.336871 756.358493 
L 957.502847 760.803126 
L 963.668823 765.024176 
L 969.834799 769.029087 
L 976.000775 772.825352 
L 982.166751 776.420479 
L 988.332727 779.82197 
L 994.498702 783.037294 
L 1000.664678 786.073863 
L 1006.830654 788.939013 
L 1012.99663 791.639984 
L 1019.162606 794.183904 
L 1025.328582 796.577772 
L 1031.494558 798.828449 
L 1037.660533 800.942637 
L 1043.826509 802.92688 
L 1049.992485 804.787545 
L 1062.324437 808.162712 
L 1074.656388 811.11538 
L 1086.98834 813.689681 
L 1099.320292 815.926568 
L 1111.652244 817.8638 
L 1123.984195 819.53599 
L 1136.316147 820.97468 
L 1148.648099 822.208463 
L 1160.98005 823.263116 
L 1179.477978 824.559139 
L 1197.975906 825.571355 
L 1216.473833 826.356347 
L 1241.137737 827.129119 
L 1265.80164 827.668022 
L 1296.631519 828.111974 
L 1333.627374 828.425659 
L 1364.457254 828.574912 
L 1364.457254 828.574912 
" style="fill:none;stroke:#ff7f0e;stroke-linecap:square;stroke-width:2;"/>
   </g>
   <g id="line2d_15">
    <path clip-path="url(#p5cb0a6fc97)" d="M 137.428059 824.178038 
L 143.594035 823.001221 
L 149.760011 821.589068 
L 155.925987 819.908899 
L 162.091962 817.926063 
L 168.257938 815.604198 
L 174.423914 812.905555 
L 180.58989 809.791371 
L 186.755866 806.222283 
L 192.921842 802.158792 
L 199.087817 797.561758 
L 205.253793 792.392922 
L 211.419769 786.615444 
L 217.585745 780.19446 
L 223.751721 773.097622 
L 229.917697 765.295648 
L 236.083673 756.76284 
L 242.249648 747.477577 
L 248.415624 737.422773 
L 254.5816 726.586294 
L 260.747576 714.961312 
L 266.913552 702.546617 
L 273.079528 689.346851 
L 279.245504 675.372691 
L 285.411479 660.640944 
L 291.577455 645.174591 
L 297.743431 629.002743 
L 303.909407 612.160536 
L 310.075383 594.688955 
L 316.241359 576.634588 
L 322.407335 558.049325 
L 328.57331 538.989995 
L 340.905262 499.698604 
L 353.237214 459.296965 
L 384.067093 357.343298 
L 396.399045 317.813516 
L 402.565021 298.625452 
L 408.730996 279.920457 
L 414.896972 261.769311 
L 421.062948 244.239755 
L 427.228924 227.396068 
L 433.3949 211.298694 
L 439.560876 196.003908 
L 445.726852 181.563519 
L 451.892827 168.024633 
L 458.058803 155.429448 
L 464.224779 143.815103 
L 470.390755 133.213569 
L 476.556731 123.651585 
L 482.722707 115.150636 
L 488.888683 107.726972 
L 495.054658 101.391662 
L 501.220634 96.150696 
L 507.38661 92.005103 
L 513.552586 88.951114 
L 519.718562 86.980347 
L 525.884538 86.080014 
L 532.050513 86.233157 
L 538.216489 87.418893 
L 544.382465 89.612684 
L 550.548441 92.786612 
L 556.714417 96.909664 
L 562.880393 101.94803 
L 569.046369 107.865394 
L 575.212344 114.623238 
L 581.37832 122.181134 
L 587.544296 130.497041 
L 593.710272 139.52759 
L 599.876248 149.228368 
L 606.042224 159.554185 
L 612.2082 170.459342 
L 618.374175 181.897873 
L 624.540151 193.823787 
L 630.706127 206.191292 
L 636.872103 218.954999 
L 643.038079 232.07012 
L 655.370031 259.179514 
L 667.701982 287.179591 
L 686.19991 330.154999 
L 710.863813 387.781899 
L 723.195765 416.177475 
L 735.527717 444.015487 
L 747.859668 471.122149 
L 760.19162 497.351384 
L 766.357596 510.098631 
L 772.523572 522.583722 
L 778.689548 534.795641 
L 784.855523 546.724836 
L 791.021499 558.363158 
L 797.187475 569.703801 
L 803.353451 580.741237 
L 809.519427 591.47115 
L 815.685403 601.89037 
L 821.851379 611.996807 
L 828.017354 621.789385 
L 834.18333 631.267971 
L 840.349306 640.433315 
L 846.515282 649.28698 
L 852.681258 657.831283 
L 858.847234 666.069228 
L 865.01321 674.00445 
L 871.179185 681.641156 
L 877.345161 688.984064 
L 883.511137 696.038356 
L 889.677113 702.809619 
L 895.843089 709.303799 
L 902.009065 715.527155 
L 908.17504 721.486211 
L 914.341016 727.187715 
L 920.506992 732.6386 
L 926.672968 737.845946 
L 932.838944 742.816944 
L 939.00492 747.558866 
L 945.170896 752.07903 
L 951.336871 756.38478 
L 957.502847 760.483452 
L 963.668823 764.382355 
L 969.834799 768.088748 
L 976.000775 771.609823 
L 982.166751 774.952683 
L 988.332727 778.124331 
L 994.498702 781.131652 
L 1000.664678 783.981404 
L 1006.830654 786.680205 
L 1012.99663 789.234524 
L 1019.162606 791.650673 
L 1025.328582 793.934803 
L 1031.494558 796.092894 
L 1043.826509 800.054013 
L 1056.158461 803.57836 
L 1068.490413 806.707387 
L 1080.822364 809.479655 
L 1093.154316 811.930867 
L 1105.486268 814.093931 
L 1117.818219 815.999054 
L 1130.150171 817.673854 
L 1142.482123 819.143488 
L 1154.814075 820.430794 
L 1167.146026 821.556432 
L 1185.643954 822.982006 
L 1204.141881 824.140427 
L 1222.639809 825.078391 
L 1247.303712 826.053114 
L 1271.967616 826.781048 
L 1302.797495 827.433107 
L 1339.79335 827.949129 
L 1364.457254 828.181119 
L 1364.457254 828.181119 
" style="fill:none;stroke:#2ca02c;stroke-linecap:square;stroke-width:2;"/>
   </g>
   <g id="line2d_16">
    <path clip-path="url(#p5cb0a6fc97)" d="M 137.428059 128.851737 
L 149.760011 148.36069 
L 162.091962 167.325873 
L 174.423914 185.762444 
L 186.755866 203.685135 
L 199.087817 221.108271 
L 211.419769 238.045775 
L 223.751721 254.511182 
L 236.083673 270.517653 
L 248.415624 286.077978 
L 260.747576 301.204593 
L 273.079528 315.909587 
L 285.411479 330.204712 
L 297.743431 344.10139 
L 310.075383 357.61073 
L 322.407335 370.743526 
L 334.739286 383.510274 
L 347.071238 395.921177 
L 359.40319 407.986153 
L 371.735141 419.714844 
L 384.067093 431.116624 
L 396.399045 442.200604 
L 408.730996 452.975642 
L 421.062948 463.45035 
L 433.3949 473.633098 
L 445.726852 483.532024 
L 458.058803 493.155039 
L 470.390755 502.509834 
L 482.722707 511.603884 
L 495.054658 520.444458 
L 507.38661 529.03862 
L 519.718562 537.393238 
L 532.050513 545.51499 
L 544.382465 553.410365 
L 556.714417 561.085674 
L 569.046369 568.547051 
L 581.37832 575.800458 
L 593.710272 582.851693 
L 606.042224 589.706389 
L 618.374175 596.370026 
L 630.706127 602.847929 
L 643.038079 609.145274 
L 655.370031 615.267094 
L 667.701982 621.218283 
L 686.19991 629.835496 
L 704.697837 638.094954 
L 723.195765 646.011507 
L 741.693692 653.599392 
L 760.19162 660.872255 
L 778.689548 667.843174 
L 797.187475 674.524685 
L 815.685403 680.928803 
L 834.18333 687.067044 
L 852.681258 692.950446 
L 871.179185 698.589591 
L 889.677113 703.994617 
L 908.17504 709.175246 
L 926.672968 714.140793 
L 945.170896 718.900188 
L 963.668823 723.461989 
L 982.166751 727.8344 
L 1000.664678 732.025284 
L 1025.328582 737.343734 
L 1049.992485 742.369835 
L 1074.656388 747.119658 
L 1099.320292 751.60839 
L 1123.984195 755.850381 
L 1148.648099 759.859196 
L 1173.312002 763.647651 
L 1197.975906 767.227859 
L 1222.639809 770.611268 
L 1247.303712 773.808695 
L 1278.133592 777.559463 
L 1308.963471 781.054308 
L 1339.79335 784.310692 
L 1364.457254 786.755079 
L 1364.457254 786.755079 
" style="fill:none;stroke:#d62728;stroke-linecap:square;stroke-width:2;"/>
   </g>
   <g id="line2d_17">
    <path clip-path="url(#p5cb0a6fc97)" d="M 137.428059 777.81009 
L 149.760011 772.937908 
L 155.925987 770.329853 
L 162.091962 767.599991 
L 168.257938 764.742631 
L 174.423914 761.751819 
L 180.58989 758.621323 
L 186.755866 755.344617 
L 192.921842 751.914875 
L 199.087817 748.324948 
L 205.253793 744.567354 
L 211.419769 740.634264 
L 217.585745 736.51748 
L 223.751721 732.208423 
L 229.917697 727.698114 
L 236.083673 722.977152 
L 242.249648 718.0357 
L 248.415624 712.863458 
L 254.5816 707.44965 
L 260.747576 701.782991 
L 266.913552 695.851673 
L 273.079528 689.643336 
L 279.245504 683.14504 
L 285.411479 676.343244 
L 291.577455 669.223772 
L 297.743431 661.771788 
L 303.909407 653.971763 
L 310.075383 645.80744 
L 316.241359 637.261805 
L 322.407335 628.31705 
L 328.57331 618.954533 
L 334.739286 609.154744 
L 340.905262 598.897259 
L 347.071238 588.160703 
L 353.237214 576.922699 
L 359.40319 565.159829 
L 365.569165 552.847578 
L 371.735141 539.960289 
L 377.901117 526.471103 
L 384.067093 512.351911 
L 390.233069 497.573286 
L 396.399045 482.104432 
L 402.565021 465.913111 
L 408.730996 448.96558 
L 414.896972 431.226522 
L 421.062948 412.658967 
L 427.228924 393.224222 
L 433.3949 372.881784 
L 439.560876 351.589261 
L 445.726852 329.302278 
L 451.892827 305.97439 
L 458.058803 281.556983 
L 464.224779 255.999169 
L 470.390755 229.247688 
L 476.556731 201.246788 
L 482.722707 171.938118 
L 488.888683 141.260597 
L 495.054658 109.150294 
L 501.220634 75.540292 
L 507.38661 40.360548 
L 514.278527 -1 
M 599.685662 -1 
L 599.876248 0.196146 
L 606.042224 37.168052 
L 612.2082 72.490248 
L 618.374175 106.236345 
L 624.540151 138.47667 
L 630.706127 169.278411 
L 636.872103 198.70576 
L 643.038079 226.820041 
L 649.204055 253.679846 
L 655.370031 279.341149 
L 661.536006 303.857429 
L 667.701982 327.279776 
L 673.867958 349.657004 
L 680.033934 371.035746 
L 686.19991 391.460555 
L 692.365886 410.973996 
L 698.531862 429.616735 
L 704.697837 447.427624 
L 710.863813 464.443779 
L 717.029789 480.700663 
L 723.195765 496.232154 
L 729.361741 511.070621 
L 735.527717 525.246985 
L 741.693692 538.790792 
L 747.859668 551.730265 
L 754.025644 564.092371 
L 760.19162 575.902871 
L 766.357596 587.18638 
L 772.523572 597.966412 
L 778.689548 608.265432 
L 784.855523 618.104903 
L 791.021499 627.50533 
L 797.187475 636.486305 
L 803.353451 645.066543 
L 809.519427 653.263925 
L 815.685403 661.095535 
L 821.851379 668.577694 
L 828.017354 675.725993 
L 834.18333 682.555332 
L 840.349306 689.079941 
L 846.515282 695.313417 
L 852.681258 701.268752 
L 858.847234 706.958357 
L 865.01321 712.394087 
L 871.179185 717.587272 
L 877.345161 722.548734 
L 883.511137 727.288812 
L 889.677113 731.817385 
L 895.843089 736.14389 
L 902.009065 740.277343 
L 908.17504 744.22636 
L 914.341016 747.999169 
L 920.506992 751.603632 
L 926.672968 755.047263 
L 932.838944 758.337236 
L 939.00492 761.480408 
L 945.170896 764.483331 
L 951.336871 767.352261 
L 957.502847 770.093177 
L 969.834799 775.213563 
L 982.166751 779.887194 
L 994.498702 784.15305 
L 1006.830654 788.046708 
L 1019.162606 791.600644 
L 1031.494558 794.844498 
L 1043.826509 797.805325 
L 1056.158461 800.507818 
L 1068.490413 802.974519 
L 1080.822364 805.225999 
L 1093.154316 807.281038 
L 1105.486268 809.156773 
L 1117.818219 810.86885 
L 1136.316147 813.160998 
L 1154.814075 815.159803 
L 1173.312002 816.902805 
L 1191.80993 818.422741 
L 1210.307857 819.74816 
L 1234.971761 821.25536 
L 1259.635664 822.511027 
L 1284.299567 823.557139 
L 1315.129447 824.622798 
L 1345.959326 825.470997 
L 1364.457254 825.894396 
L 1364.457254 825.894396 
" style="fill:none;stroke:#9467bd;stroke-linecap:square;stroke-width:2;"/>
   </g>
   <g id="line2d_18">
    <path clip-path="url(#p5cb0a6fc97)" d="M 137.428059 822.672931 
L 143.594035 821.361316 
L 149.760011 819.821677 
L 155.925987 818.025186 
L 162.091962 815.941223 
L 168.257938 813.53755 
L 174.423914 810.780528 
L 180.58989 807.635372 
L 186.755866 804.066461 
L 192.921842 800.037687 
L 199.087817 795.512834 
L 205.253793 790.456008 
L 211.419769 784.832079 
L 217.585745 778.607161 
L 223.751721 771.749097 
L 229.917697 764.22796 
L 236.083673 756.016552 
L 242.249648 747.090897 
L 248.415624 737.430717 
L 254.5816 727.019882 
L 260.747576 715.846834 
L 266.913552 703.904965 
L 273.079528 691.192951 
L 279.245504 677.715032 
L 285.411479 663.481235 
L 291.577455 648.507529 
L 297.743431 632.815919 
L 303.909407 616.43447 
L 310.075383 599.397254 
L 316.241359 581.744239 
L 322.407335 563.521097 
L 328.57331 544.778953 
L 334.739286 525.574067 
L 347.071238 486.02447 
L 359.40319 445.409471 
L 390.233069 343.164497 
L 402.565021 303.648605 
L 408.730996 284.503786 
L 414.896972 265.869341 
L 421.062948 247.818389 
L 427.228924 230.42096 
L 433.3949 213.74352 
L 439.560876 197.848551 
L 445.726852 182.794166 
L 451.892827 168.633776 
L 458.058803 155.415811 
L 464.224779 143.183484 
L 470.390755 131.974609 
L 476.556731 121.821477 
L 482.722707 112.750768 
L 488.888683 104.783526 
L 495.054658 97.935169 
L 501.220634 92.215556 
L 507.38661 87.629084 
L 513.552586 84.174828 
L 519.718562 81.846722 
L 525.884538 80.633765 
L 532.050513 80.520258 
L 538.216489 81.486069 
L 544.382465 83.50691 
L 550.548441 86.554645 
L 556.714417 90.597601 
L 562.880393 95.600892 
L 569.046369 101.526752 
L 575.212344 108.334869 
L 581.37832 115.982724 
L 587.544296 124.425919 
L 593.710272 133.618508 
L 599.876248 143.513318 
L 606.042224 154.062261 
L 612.2082 165.21663 
L 618.374175 176.92739 
L 624.540151 189.145446 
L 630.706127 201.821901 
L 636.872103 214.908298 
L 643.038079 228.356837 
L 655.370031 256.153648 
L 667.701982 284.850435 
L 686.19991 328.84587 
L 710.863813 387.704155 
L 723.195765 416.634366 
L 735.527717 444.943018 
L 747.859668 472.4523 
L 760.19162 499.014562 
L 766.357596 511.902329 
L 772.523572 524.510909 
L 778.689548 536.829635 
L 784.855523 548.849401 
L 791.021499 560.56258 
L 797.187475 571.962963 
L 803.353451 583.045676 
L 809.519427 593.807107 
L 815.685403 604.244834 
L 821.851379 614.357543 
L 828.017354 624.144957 
L 834.18333 633.607761 
L 840.349306 642.747526 
L 846.515282 651.566641 
L 852.681258 660.068239 
L 858.847234 668.256136 
L 865.01321 676.134758 
L 871.179185 683.709083 
L 877.345161 690.984579 
L 883.511137 697.967147 
L 889.677113 704.663065 
L 895.843089 711.078938 
L 902.009065 717.221647 
L 908.17504 723.098305 
L 914.341016 728.716211 
L 920.506992 734.082813 
L 926.672968 739.205666 
L 932.838944 744.0924 
L 939.00492 748.75069 
L 945.170896 753.188219 
L 951.336871 757.412658 
L 957.502847 761.43164 
L 963.668823 765.252734 
L 969.834799 768.883428 
L 976.000775 772.331111 
L 982.166751 775.603055 
L 988.332727 778.706402 
L 994.498702 781.648153 
L 1000.664678 784.435153 
L 1006.830654 787.074088 
L 1012.99663 789.571473 
L 1019.162606 791.933644 
L 1025.328582 794.16676 
L 1037.660533 798.269526 
L 1049.992485 801.92528 
L 1062.324437 805.176489 
L 1074.656388 808.062583 
L 1086.98834 810.620002 
L 1099.320292 812.882284 
L 1111.652244 814.880171 
L 1123.984195 816.641738 
L 1136.316147 818.192539 
L 1148.648099 819.555751 
L 1160.98005 820.752337 
L 1179.477978 822.275615 
L 1197.975906 823.521991 
L 1216.473833 824.538885 
L 1234.971761 825.366293 
L 1259.635664 826.231954 
L 1284.299567 826.884447 
L 1315.129447 827.476105 
L 1352.125302 827.952664 
L 1364.457254 828.070011 
L 1364.457254 828.070011 
" style="fill:none;stroke:#8c564b;stroke-linecap:square;stroke-width:2;"/>
   </g>
   <g id="line2d_19">
    <path clip-path="url(#p5cb0a6fc97)" d="M 137.428059 801.461367 
L 143.594035 798.808259 
L 149.760011 795.941151 
L 155.925987 792.847548 
L 162.091962 789.514717 
L 168.257938 785.92973 
L 174.423914 782.079523 
L 180.58989 777.950948 
L 186.755866 773.530846 
L 192.921842 768.806116 
L 199.087817 763.763792 
L 205.253793 758.391128 
L 211.419769 752.675683 
L 217.585745 746.605421 
L 223.751721 740.168807 
L 229.917697 733.354908 
L 236.083673 726.153507 
L 242.249648 718.555208 
L 248.415624 710.551552 
L 254.5816 702.135136 
L 260.747576 693.299725 
L 266.913552 684.040371 
L 273.079528 674.353535 
L 279.245504 664.237196 
L 285.411479 653.690964 
L 291.577455 642.716195 
L 297.743431 631.316089 
L 303.909407 619.495792 
L 310.075383 607.262485 
L 316.241359 594.625467 
L 322.407335 581.596228 
L 328.57331 568.188511 
L 334.739286 554.418362 
L 340.905262 540.304171 
L 347.071238 525.866687 
L 359.40319 496.116713 
L 371.735141 465.38167 
L 384.067093 433.911476 
L 408.730996 369.934686 
L 421.062948 338.086288 
L 433.3949 306.809189 
L 445.726852 276.481995 
L 451.892827 261.795186 
L 458.058803 247.490789 
L 464.224779 233.616923 
L 470.390755 220.221152 
L 476.556731 207.350216 
L 482.722707 195.049761 
L 488.888683 183.364072 
L 495.054658 172.335808 
L 501.220634 162.005744 
L 507.38661 152.412518 
L 513.552586 143.592395 
L 519.718562 135.579035 
L 525.884538 128.40328 
L 532.050513 122.092959 
L 538.216489 116.672704 
L 544.382465 112.163794 
L 550.548441 108.584012 
L 556.714417 105.94753 
L 562.880393 104.264819 
L 569.046369 103.542571 
L 575.212344 103.783664 
L 581.37832 104.987138 
L 587.544296 107.148201 
L 593.710272 110.258263 
L 599.876248 114.304992 
L 606.042224 119.272394 
L 612.2082 125.140921 
L 618.374175 131.887598 
L 624.540151 139.486171 
L 630.706127 147.907281 
L 636.872103 157.118649 
L 643.038079 167.085284 
L 649.204055 177.769705 
L 655.370031 189.132172 
L 661.536006 201.130937 
L 667.701982 213.722495 
L 673.867958 226.861845 
L 680.033934 240.50276 
L 686.19991 254.598055 
L 692.365886 269.099855 
L 698.531862 283.959862 
L 710.863813 314.560783 
L 723.195765 346.015879 
L 772.523572 473.151093 
L 784.855523 503.661702 
L 797.187475 533.130392 
L 803.353451 547.408838 
L 809.519427 561.353313 
L 815.685403 574.944248 
L 821.851379 588.164431 
L 828.017354 600.998974 
L 834.18333 613.435268 
L 840.349306 625.462928 
L 846.515282 637.073725 
L 852.681258 648.261507 
L 858.847234 659.022113 
L 865.01321 669.35328 
L 871.179185 679.254538 
L 877.345161 688.727106 
L 883.511137 697.773781 
L 889.677113 706.398821 
L 895.843089 714.607832 
L 902.009065 722.407648 
L 908.17504 729.806216 
L 914.341016 736.812478 
L 920.506992 743.436255 
L 926.672968 749.688136 
L 932.838944 755.579367 
L 939.00492 761.121749 
L 945.170896 766.327531 
L 951.336871 771.209318 
L 957.502847 775.779977 
L 963.668823 780.052553 
L 969.834799 784.040184 
L 976.000775 787.756032 
L 982.166751 791.213211 
L 988.332727 794.424725 
L 994.498702 797.403409 
L 1000.664678 800.161885 
L 1006.830654 802.712506 
L 1012.99663 805.067326 
L 1019.162606 807.238062 
L 1025.328582 809.236064 
L 1031.494558 811.072293 
L 1037.660533 812.7573 
L 1043.826509 814.301215 
L 1049.992485 815.71373 
L 1062.324437 818.181116 
L 1074.656388 820.228123 
L 1086.98834 821.916337 
L 1099.320292 823.300459 
L 1111.652244 824.428622 
L 1123.984195 825.342801 
L 1136.316147 826.079283 
L 1154.814075 826.917591 
L 1173.312002 827.510888 
L 1197.975906 828.0329 
L 1228.805785 828.40596 
L 1271.967616 828.645469 
L 1339.79335 828.755945 
L 1364.457254 828.767431 
L 1364.457254 828.767431 
" style="fill:none;stroke:#e377c2;stroke-linecap:square;stroke-width:2;"/>
   </g>
   <g id="patch_103">
    <path d="M 72.685313 828.779375 
L 72.685313 38.075625 
" style="fill:none;stroke:#000000;stroke-linecap:square;stroke-linejoin:miter;stroke-width:0.8;"/>
   </g>
   <g id="patch_104">
    <path d="M 1429.2 828.779375 
L 1429.2 38.075625 
" style="fill:none;stroke:#000000;stroke-linecap:square;stroke-linejoin:miter;stroke-width:0.8;"/>
   </g>
   <g id="patch_105">
    <path d="M 72.685313 828.779375 
L 1429.2 828.779375 
" style="fill:none;stroke:#000000;stroke-linecap:square;stroke-linejoin:miter;stroke-width:0.8;"/>
   </g>
   <g id="patch_106">
    <path d="M 72.685313 38.075625 
L 1429.2 38.075625 
" style="fill:none;stroke:#000000;stroke-linecap:square;stroke-linejoin:miter;stroke-width:0.8;"/>
   </g>
   <g id="text_15">
    <!-- All Fitted Distributions -->
    <g transform="translate(596.317031 32.075625)scale(0.28 -0.28)">
     <defs>
      <path d="M 2188 4044 
L 1331 1722 
L 3047 1722 
L 2188 4044 
z
M 1831 4666 
L 2547 4666 
L 4325 0 
L 3669 0 
L 3244 1197 
L 1141 1197 
L 716 0 
L 50 0 
L 1831 4666 
z
" id="DejaVuSans-41" transform="scale(0.015625)"/>
      <path d="M 603 4863 
L 1178 4863 
L 1178 0 
L 603 0 
L 603 4863 
z
" id="DejaVuSans-6c" transform="scale(0.015625)"/>
      <path d="M 628 4666 
L 3309 4666 
L 3309 4134 
L 1259 4134 
L 1259 2759 
L 3109 2759 
L 3109 2228 
L 1259 2228 
L 1259 0 
L 628 0 
L 628 4666 
z
" id="DejaVuSans-46" transform="scale(0.015625)"/>
      <path d="M 1259 4147 
L 1259 519 
L 2022 519 
Q 2988 519 3436 956 
Q 3884 1394 3884 2338 
Q 3884 3275 3436 3711 
Q 2988 4147 2022 4147 
L 1259 4147 
z
M 628 4666 
L 1925 4666 
Q 3281 4666 3915 4102 
Q 4550 3538 4550 2338 
Q 4550 1131 3912 565 
Q 3275 0 1925 0 
L 628 0 
L 628 4666 
z
" id="DejaVuSans-44" transform="scale(0.015625)"/>
      <path d="M 3116 1747 
Q 3116 2381 2855 2742 
Q 2594 3103 2138 3103 
Q 1681 3103 1420 2742 
Q 1159 2381 1159 1747 
Q 1159 1113 1420 752 
Q 1681 391 2138 391 
Q 2594 391 2855 752 
Q 3116 1113 3116 1747 
z
M 1159 2969 
Q 1341 3281 1617 3432 
Q 1894 3584 2278 3584 
Q 2916 3584 3314 3078 
Q 3713 2572 3713 1747 
Q 3713 922 3314 415 
Q 2916 -91 2278 -91 
Q 1894 -91 1617 61 
Q 1341 213 1159 525 
L 1159 0 
L 581 0 
L 581 4863 
L 1159 4863 
L 1159 2969 
z
" id="DejaVuSans-62" transform="scale(0.015625)"/>
     </defs>
     <use xlink:href="#DejaVuSans-41"/>
     <use x="68.408203" xlink:href="#DejaVuSans-6c"/>
     <use x="96.191406" xlink:href="#DejaVuSans-6c"/>
     <use x="123.974609" xlink:href="#DejaVuSans-20"/>
     <use x="155.761719" xlink:href="#DejaVuSans-46"/>
     <use x="206.03125" xlink:href="#DejaVuSans-69"/>
     <use x="233.814453" xlink:href="#DejaVuSans-74"/>
     <use x="273.023438" xlink:href="#DejaVuSans-74"/>
     <use x="312.232422" xlink:href="#DejaVuSans-65"/>
     <use x="373.755859" xlink:href="#DejaVuSans-64"/>
     <use x="437.232422" xlink:href="#DejaVuSans-20"/>
     <use x="469.019531" xlink:href="#DejaVuSans-44"/>
     <use x="546.021484" xlink:href="#DejaVuSans-69"/>
     <use x="573.804688" xlink:href="#DejaVuSans-73"/>
     <use x="625.904297" xlink:href="#DejaVuSans-74"/>
     <use x="665.113281" xlink:href="#DejaVuSans-72"/>
     <use x="706.226562" xlink:href="#DejaVuSans-69"/>
     <use x="734.009766" xlink:href="#DejaVuSans-62"/>
     <use x="797.486328" xlink:href="#DejaVuSans-75"/>
     <use x="860.865234" xlink:href="#DejaVuSans-74"/>
     <use x="900.074219" xlink:href="#DejaVuSans-69"/>
     <use x="927.857422" xlink:href="#DejaVuSans-6f"/>
     <use x="989.039062" xlink:href="#DejaVuSans-6e"/>
     <use x="1052.417969" xlink:href="#DejaVuSans-73"/>
    </g>
   </g>
   <g id="legend_1">
    <g id="patch_107">
     <path d="M 1014.37125 303.868125 
L 1412.4 303.868125 
Q 1417.2 303.868125 1417.2 299.068125 
L 1417.2 54.875625 
Q 1417.2 50.075625 1412.4 50.075625 
L 1014.37125 50.075625 
Q 1009.57125 50.075625 1009.57125 54.875625 
L 1009.57125 299.068125 
Q 1009.57125 303.868125 1014.37125 303.868125 
z
" style="fill:#ffffff;opacity:0.8;stroke:#cccccc;stroke-linejoin:miter;"/>
    </g>
    <g id="line2d_20">
     <path d="M 1019.17125 69.511875 
L 1067.17125 69.511875 
" style="fill:none;stroke:#ff7f0e;stroke-linecap:square;stroke-width:2;"/>
    </g>
    <g id="line2d_21"/>
    <g id="text_16">
     <!-- Chi fit -->
     <g transform="translate(1086.37125 77.911875)scale(0.24 -0.24)">
      <defs>
       <path d="M 3513 2113 
L 3513 0 
L 2938 0 
L 2938 2094 
Q 2938 2591 2744 2837 
Q 2550 3084 2163 3084 
Q 1697 3084 1428 2787 
Q 1159 2491 1159 1978 
L 1159 0 
L 581 0 
L 581 4863 
L 1159 4863 
L 1159 2956 
Q 1366 3272 1645 3428 
Q 1925 3584 2291 3584 
Q 2894 3584 3203 3211 
Q 3513 2838 3513 2113 
z
" id="DejaVuSans-68" transform="scale(0.015625)"/>
       <path d="M 2375 4863 
L 2375 4384 
L 1825 4384 
Q 1516 4384 1395 4259 
Q 1275 4134 1275 3809 
L 1275 3500 
L 2222 3500 
L 2222 3053 
L 1275 3053 
L 1275 0 
L 697 0 
L 697 3053 
L 147 3053 
L 147 3500 
L 697 3500 
L 697 3744 
Q 697 4328 969 4595 
Q 1241 4863 1831 4863 
L 2375 4863 
z
" id="DejaVuSans-66" transform="scale(0.015625)"/>
      </defs>
      <use xlink:href="#DejaVuSans-43"/>
      <use x="69.824219" xlink:href="#DejaVuSans-68"/>
      <use x="133.203125" xlink:href="#DejaVuSans-69"/>
      <use x="160.986328" xlink:href="#DejaVuSans-20"/>
      <use x="192.773438" xlink:href="#DejaVuSans-66"/>
      <use x="227.978516" xlink:href="#DejaVuSans-69"/>
      <use x="255.761719" xlink:href="#DejaVuSans-74"/>
     </g>
    </g>
    <g id="line2d_22">
     <path d="M 1019.17125 104.739375 
L 1067.17125 104.739375 
" style="fill:none;stroke:#2ca02c;stroke-linecap:square;stroke-width:2;"/>
    </g>
    <g id="line2d_23"/>
    <g id="text_17">
     <!-- Chi-Square fit -->
     <g transform="translate(1086.37125 113.139375)scale(0.24 -0.24)">
      <defs>
       <path d="M 313 2009 
L 1997 2009 
L 1997 1497 
L 313 1497 
L 313 2009 
z
" id="DejaVuSans-2d" transform="scale(0.015625)"/>
       <path d="M 3425 4513 
L 3425 3897 
Q 3066 4069 2747 4153 
Q 2428 4238 2131 4238 
Q 1616 4238 1336 4038 
Q 1056 3838 1056 3469 
Q 1056 3159 1242 3001 
Q 1428 2844 1947 2747 
L 2328 2669 
Q 3034 2534 3370 2195 
Q 3706 1856 3706 1288 
Q 3706 609 3251 259 
Q 2797 -91 1919 -91 
Q 1588 -91 1214 -16 
Q 841 59 441 206 
L 441 856 
Q 825 641 1194 531 
Q 1563 422 1919 422 
Q 2459 422 2753 634 
Q 3047 847 3047 1241 
Q 3047 1584 2836 1778 
Q 2625 1972 2144 2069 
L 1759 2144 
Q 1053 2284 737 2584 
Q 422 2884 422 3419 
Q 422 4038 858 4394 
Q 1294 4750 2059 4750 
Q 2388 4750 2728 4690 
Q 3069 4631 3425 4513 
z
" id="DejaVuSans-53" transform="scale(0.015625)"/>
       <path d="M 947 1747 
Q 947 1113 1208 752 
Q 1469 391 1925 391 
Q 2381 391 2643 752 
Q 2906 1113 2906 1747 
Q 2906 2381 2643 2742 
Q 2381 3103 1925 3103 
Q 1469 3103 1208 2742 
Q 947 2381 947 1747 
z
M 2906 525 
Q 2725 213 2448 61 
Q 2172 -91 1784 -91 
Q 1150 -91 751 415 
Q 353 922 353 1747 
Q 353 2572 751 3078 
Q 1150 3584 1784 3584 
Q 2172 3584 2448 3432 
Q 2725 3281 2906 2969 
L 2906 3500 
L 3481 3500 
L 3481 -1331 
L 2906 -1331 
L 2906 525 
z
" id="DejaVuSans-71" transform="scale(0.015625)"/>
       <path d="M 2194 1759 
Q 1497 1759 1228 1600 
Q 959 1441 959 1056 
Q 959 750 1161 570 
Q 1363 391 1709 391 
Q 2188 391 2477 730 
Q 2766 1069 2766 1631 
L 2766 1759 
L 2194 1759 
z
M 3341 1997 
L 3341 0 
L 2766 0 
L 2766 531 
Q 2569 213 2275 61 
Q 1981 -91 1556 -91 
Q 1019 -91 701 211 
Q 384 513 384 1019 
Q 384 1609 779 1909 
Q 1175 2209 1959 2209 
L 2766 2209 
L 2766 2266 
Q 2766 2663 2505 2880 
Q 2244 3097 1772 3097 
Q 1472 3097 1187 3025 
Q 903 2953 641 2809 
L 641 3341 
Q 956 3463 1253 3523 
Q 1550 3584 1831 3584 
Q 2591 3584 2966 3190 
Q 3341 2797 3341 1997 
z
" id="DejaVuSans-61" transform="scale(0.015625)"/>
      </defs>
      <use xlink:href="#DejaVuSans-43"/>
      <use x="69.824219" xlink:href="#DejaVuSans-68"/>
      <use x="133.203125" xlink:href="#DejaVuSans-69"/>
      <use x="160.986328" xlink:href="#DejaVuSans-2d"/>
      <use x="197.070312" xlink:href="#DejaVuSans-53"/>
      <use x="260.546875" xlink:href="#DejaVuSans-71"/>
      <use x="324.023438" xlink:href="#DejaVuSans-75"/>
      <use x="387.402344" xlink:href="#DejaVuSans-61"/>
      <use x="448.681641" xlink:href="#DejaVuSans-72"/>
      <use x="487.544922" xlink:href="#DejaVuSans-65"/>
      <use x="549.068359" xlink:href="#DejaVuSans-20"/>
      <use x="580.855469" xlink:href="#DejaVuSans-66"/>
      <use x="616.060547" xlink:href="#DejaVuSans-69"/>
      <use x="643.84375" xlink:href="#DejaVuSans-74"/>
     </g>
    </g>
    <g id="line2d_24">
     <path d="M 1019.17125 139.966875 
L 1067.17125 139.966875 
" style="fill:none;stroke:#d62728;stroke-linecap:square;stroke-width:2;"/>
    </g>
    <g id="line2d_25"/>
    <g id="text_18">
     <!-- Exponential fit -->
     <g transform="translate(1086.37125 148.366875)scale(0.24 -0.24)">
      <defs>
       <path d="M 628 4666 
L 3578 4666 
L 3578 4134 
L 1259 4134 
L 1259 2753 
L 3481 2753 
L 3481 2222 
L 1259 2222 
L 1259 531 
L 3634 531 
L 3634 0 
L 628 0 
L 628 4666 
z
" id="DejaVuSans-45" transform="scale(0.015625)"/>
       <path d="M 3513 3500 
L 2247 1797 
L 3578 0 
L 2900 0 
L 1881 1375 
L 863 0 
L 184 0 
L 1544 1831 
L 300 3500 
L 978 3500 
L 1906 2253 
L 2834 3500 
L 3513 3500 
z
" id="DejaVuSans-78" transform="scale(0.015625)"/>
       <path d="M 1159 525 
L 1159 -1331 
L 581 -1331 
L 581 3500 
L 1159 3500 
L 1159 2969 
Q 1341 3281 1617 3432 
Q 1894 3584 2278 3584 
Q 2916 3584 3314 3078 
Q 3713 2572 3713 1747 
Q 3713 922 3314 415 
Q 2916 -91 2278 -91 
Q 1894 -91 1617 61 
Q 1341 213 1159 525 
z
M 3116 1747 
Q 3116 2381 2855 2742 
Q 2594 3103 2138 3103 
Q 1681 3103 1420 2742 
Q 1159 2381 1159 1747 
Q 1159 1113 1420 752 
Q 1681 391 2138 391 
Q 2594 391 2855 752 
Q 3116 1113 3116 1747 
z
" id="DejaVuSans-70" transform="scale(0.015625)"/>
      </defs>
      <use xlink:href="#DejaVuSans-45"/>
      <use x="63.183594" xlink:href="#DejaVuSans-78"/>
      <use x="122.363281" xlink:href="#DejaVuSans-70"/>
      <use x="185.839844" xlink:href="#DejaVuSans-6f"/>
      <use x="247.021484" xlink:href="#DejaVuSans-6e"/>
      <use x="310.400391" xlink:href="#DejaVuSans-65"/>
      <use x="371.923828" xlink:href="#DejaVuSans-6e"/>
      <use x="435.302734" xlink:href="#DejaVuSans-74"/>
      <use x="474.511719" xlink:href="#DejaVuSans-69"/>
      <use x="502.294922" xlink:href="#DejaVuSans-61"/>
      <use x="563.574219" xlink:href="#DejaVuSans-6c"/>
      <use x="591.357422" xlink:href="#DejaVuSans-20"/>
      <use x="623.144531" xlink:href="#DejaVuSans-66"/>
      <use x="658.349609" xlink:href="#DejaVuSans-69"/>
      <use x="686.132812" xlink:href="#DejaVuSans-74"/>
     </g>
    </g>
    <g id="line2d_26">
     <path d="M 1019.17125 175.194375 
L 1067.17125 175.194375 
" style="fill:none;stroke:#9467bd;stroke-linecap:square;stroke-width:2;"/>
    </g>
    <g id="line2d_27"/>
    <g id="text_19">
     <!-- Laplace fit -->
     <g transform="translate(1086.37125 183.594375)scale(0.24 -0.24)">
      <defs>
       <path d="M 628 4666 
L 1259 4666 
L 1259 531 
L 3531 531 
L 3531 0 
L 628 0 
L 628 4666 
z
" id="DejaVuSans-4c" transform="scale(0.015625)"/>
       <path d="M 3122 3366 
L 3122 2828 
Q 2878 2963 2633 3030 
Q 2388 3097 2138 3097 
Q 1578 3097 1268 2742 
Q 959 2388 959 1747 
Q 959 1106 1268 751 
Q 1578 397 2138 397 
Q 2388 397 2633 464 
Q 2878 531 3122 666 
L 3122 134 
Q 2881 22 2623 -34 
Q 2366 -91 2075 -91 
Q 1284 -91 818 406 
Q 353 903 353 1747 
Q 353 2603 823 3093 
Q 1294 3584 2113 3584 
Q 2378 3584 2631 3529 
Q 2884 3475 3122 3366 
z
" id="DejaVuSans-63" transform="scale(0.015625)"/>
      </defs>
      <use xlink:href="#DejaVuSans-4c"/>
      <use x="55.712891" xlink:href="#DejaVuSans-61"/>
      <use x="116.992188" xlink:href="#DejaVuSans-70"/>
      <use x="180.46875" xlink:href="#DejaVuSans-6c"/>
      <use x="208.251953" xlink:href="#DejaVuSans-61"/>
      <use x="269.53125" xlink:href="#DejaVuSans-63"/>
      <use x="324.511719" xlink:href="#DejaVuSans-65"/>
      <use x="386.035156" xlink:href="#DejaVuSans-20"/>
      <use x="417.822266" xlink:href="#DejaVuSans-66"/>
      <use x="453.027344" xlink:href="#DejaVuSans-69"/>
      <use x="480.810547" xlink:href="#DejaVuSans-74"/>
     </g>
    </g>
    <g id="line2d_28">
     <path d="M 1019.17125 210.421875 
L 1067.17125 210.421875 
" style="fill:none;stroke:#8c564b;stroke-linecap:square;stroke-width:2;"/>
    </g>
    <g id="line2d_29"/>
    <g id="text_20">
     <!-- LogNorm fit -->
     <g transform="translate(1086.37125 218.821875)scale(0.24 -0.24)">
      <defs>
       <path d="M 2906 1791 
Q 2906 2416 2648 2759 
Q 2391 3103 1925 3103 
Q 1463 3103 1205 2759 
Q 947 2416 947 1791 
Q 947 1169 1205 825 
Q 1463 481 1925 481 
Q 2391 481 2648 825 
Q 2906 1169 2906 1791 
z
M 3481 434 
Q 3481 -459 3084 -895 
Q 2688 -1331 1869 -1331 
Q 1566 -1331 1297 -1286 
Q 1028 -1241 775 -1147 
L 775 -588 
Q 1028 -725 1275 -790 
Q 1522 -856 1778 -856 
Q 2344 -856 2625 -561 
Q 2906 -266 2906 331 
L 2906 616 
Q 2728 306 2450 153 
Q 2172 0 1784 0 
Q 1141 0 747 490 
Q 353 981 353 1791 
Q 353 2603 747 3093 
Q 1141 3584 1784 3584 
Q 2172 3584 2450 3431 
Q 2728 3278 2906 2969 
L 2906 3500 
L 3481 3500 
L 3481 434 
z
" id="DejaVuSans-67" transform="scale(0.015625)"/>
      </defs>
      <use xlink:href="#DejaVuSans-4c"/>
      <use x="53.962891" xlink:href="#DejaVuSans-6f"/>
      <use x="115.144531" xlink:href="#DejaVuSans-67"/>
      <use x="178.621094" xlink:href="#DejaVuSans-4e"/>
      <use x="253.425781" xlink:href="#DejaVuSans-6f"/>
      <use x="314.607422" xlink:href="#DejaVuSans-72"/>
      <use x="353.970703" xlink:href="#DejaVuSans-6d"/>
      <use x="451.382812" xlink:href="#DejaVuSans-20"/>
      <use x="483.169922" xlink:href="#DejaVuSans-66"/>
      <use x="518.375" xlink:href="#DejaVuSans-69"/>
      <use x="546.158203" xlink:href="#DejaVuSans-74"/>
     </g>
    </g>
    <g id="line2d_30">
     <path d="M 1019.17125 245.649375 
L 1067.17125 245.649375 
" style="fill:none;stroke:#e377c2;stroke-linecap:square;stroke-width:2;"/>
    </g>
    <g id="line2d_31"/>
    <g id="text_21">
     <!-- Normal fit -->
     <g transform="translate(1086.37125 254.049375)scale(0.24 -0.24)">
      <use xlink:href="#DejaVuSans-4e"/>
      <use x="74.804688" xlink:href="#DejaVuSans-6f"/>
      <use x="135.986328" xlink:href="#DejaVuSans-72"/>
      <use x="175.349609" xlink:href="#DejaVuSans-6d"/>
      <use x="272.761719" xlink:href="#DejaVuSans-61"/>
      <use x="334.041016" xlink:href="#DejaVuSans-6c"/>
      <use x="361.824219" xlink:href="#DejaVuSans-20"/>
      <use x="393.611328" xlink:href="#DejaVuSans-66"/>
      <use x="428.816406" xlink:href="#DejaVuSans-69"/>
      <use x="456.599609" xlink:href="#DejaVuSans-74"/>
     </g>
    </g>
    <g id="patch_108">
     <path d="M 1019.17125 289.276875 
L 1067.17125 289.276875 
L 1067.17125 272.476875 
L 1019.17125 272.476875 
z
" style="fill:#1f77b4;opacity:0.6;"/>
    </g>
    <g id="text_22">
     <!-- Generated Chi Distribution -->
     <g transform="translate(1086.37125 289.276875)scale(0.24 -0.24)">
      <defs>
       <path d="M 3809 666 
L 3809 1919 
L 2778 1919 
L 2778 2438 
L 4434 2438 
L 4434 434 
Q 4069 175 3628 42 
Q 3188 -91 2688 -91 
Q 1594 -91 976 548 
Q 359 1188 359 2328 
Q 359 3472 976 4111 
Q 1594 4750 2688 4750 
Q 3144 4750 3555 4637 
Q 3966 4525 4313 4306 
L 4313 3634 
Q 3963 3931 3569 4081 
Q 3175 4231 2741 4231 
Q 1884 4231 1454 3753 
Q 1025 3275 1025 2328 
Q 1025 1384 1454 906 
Q 1884 428 2741 428 
Q 3075 428 3337 486 
Q 3600 544 3809 666 
z
" id="DejaVuSans-47" transform="scale(0.015625)"/>
      </defs>
      <use xlink:href="#DejaVuSans-47"/>
      <use x="77.490234" xlink:href="#DejaVuSans-65"/>
      <use x="139.013672" xlink:href="#DejaVuSans-6e"/>
      <use x="202.392578" xlink:href="#DejaVuSans-65"/>
      <use x="263.916016" xlink:href="#DejaVuSans-72"/>
      <use x="305.029297" xlink:href="#DejaVuSans-61"/>
      <use x="366.308594" xlink:href="#DejaVuSans-74"/>
      <use x="405.517578" xlink:href="#DejaVuSans-65"/>
      <use x="467.041016" xlink:href="#DejaVuSans-64"/>
      <use x="530.517578" xlink:href="#DejaVuSans-20"/>
      <use x="562.304688" xlink:href="#DejaVuSans-43"/>
      <use x="632.128906" xlink:href="#DejaVuSans-68"/>
      <use x="695.507812" xlink:href="#DejaVuSans-69"/>
      <use x="723.291016" xlink:href="#DejaVuSans-20"/>
      <use x="755.078125" xlink:href="#DejaVuSans-44"/>
      <use x="832.080078" xlink:href="#DejaVuSans-69"/>
      <use x="859.863281" xlink:href="#DejaVuSans-73"/>
      <use x="911.962891" xlink:href="#DejaVuSans-74"/>
      <use x="951.171875" xlink:href="#DejaVuSans-72"/>
      <use x="992.285156" xlink:href="#DejaVuSans-69"/>
      <use x="1020.068359" xlink:href="#DejaVuSans-62"/>
      <use x="1083.544922" xlink:href="#DejaVuSans-75"/>
      <use x="1146.923828" xlink:href="#DejaVuSans-74"/>
      <use x="1186.132812" xlink:href="#DejaVuSans-69"/>
      <use x="1213.916016" xlink:href="#DejaVuSans-6f"/>
      <use x="1275.097656" xlink:href="#DejaVuSans-6e"/>
     </g>
    </g>
   </g>
  </g>
 </g>
 <defs>
  <clipPath id="p5cb0a6fc97">
   <rect height="790.70375" width="1356.514688" x="72.685313" y="38.075625"/>
  </clipPath>
 </defs>
</svg>
