<?xml version="1.0" encoding="utf-8" standalone="no"?>
<!DOCTYPE svg PUBLIC "-//W3C//DTD SVG 1.1//EN"
  "http://www.w3.org/Graphics/SVG/1.1/DTD/svg11.dtd">
<svg xmlns:xlink="http://www.w3.org/1999/xlink" width="1440pt" height="864pt" viewBox="0 0 1440 864" xmlns="http://www.w3.org/2000/svg" version="1.1">
 <metadata>
  <rdf:RDF xmlns:dc="http://purl.org/dc/elements/1.1/" xmlns:cc="http://creativecommons.org/ns#" xmlns:rdf="http://www.w3.org/1999/02/22-rdf-syntax-ns#">
   <cc:Work>
    <dc:type rdf:resource="http://purl.org/dc/dcmitype/StillImage"/>
    <dc:date>2022-10-13T16:21:10.683744</dc:date>
    <dc:format>image/svg+xml</dc:format>
    <dc:creator>
     <cc:Agent>
      <dc:title>Matplotlib v3.6.1, https://matplotlib.org/</dc:title>
     </cc:Agent>
    </dc:creator>
   </cc:Work>
  </rdf:RDF>
 </metadata>
 <defs>
  <style type="text/css">*{stroke-linejoin: round; stroke-linecap: butt}</style>
 </defs>
 <g id="figure_1">
  <g id="patch_1">
   <path d="M 0 864 
L 1440 864 
L 1440 0 
L 0 0 
z
" style="fill: #ffffff"/>
  </g>
  <g id="axes_1">
   <g id="patch_2">
    <path d="M 72.685313 828.779375 
L 1429.2 828.779375 
L 1429.2 38.075625 
L 72.685313 38.075625 
z
" style="fill: #ffffff"/>
   </g>
   <g id="patch_3">
    <path d="M 134.345071 828.779375 
L 146.677023 828.779375 
L 146.677023 824.418075 
L 134.345071 824.418075 
z
" clip-path="url(#p23ee69e766)" style="fill: #1f77b4; opacity: 0.6"/>
   </g>
   <g id="patch_4">
    <path d="M 146.677023 828.779375 
L 159.008974 828.779375 
L 159.008974 823.448897 
L 146.677023 823.448897 
z
" clip-path="url(#p23ee69e766)" style="fill: #1f77b4; opacity: 0.6"/>
   </g>
   <g id="patch_5">
    <path d="M 159.008974 828.779375 
L 171.340926 828.779375 
L 171.340926 815.210885 
L 159.008974 815.210885 
z
" clip-path="url(#p23ee69e766)" style="fill: #1f77b4; opacity: 0.6"/>
   </g>
   <g id="patch_6">
    <path d="M 171.340926 828.779375 
L 183.672878 828.779375 
L 183.672878 804.549929 
L 171.340926 804.549929 
z
" clip-path="url(#p23ee69e766)" style="fill: #1f77b4; opacity: 0.6"/>
   </g>
   <g id="patch_7">
    <path d="M 183.672878 828.779375 
L 196.00483 828.779375 
L 196.00483 790.49685 
L 183.672878 790.49685 
z
" clip-path="url(#p23ee69e766)" style="fill: #1f77b4; opacity: 0.6"/>
   </g>
   <g id="patch_8">
    <path d="M 196.00483 828.779375 
L 208.336781 828.779375 
L 208.336781 773.536237 
L 196.00483 773.536237 
z
" clip-path="url(#p23ee69e766)" style="fill: #1f77b4; opacity: 0.6"/>
   </g>
   <g id="patch_9">
    <path d="M 208.336781 828.779375 
L 220.668733 828.779375 
L 220.668733 775.474593 
L 208.336781 775.474593 
z
" clip-path="url(#p23ee69e766)" style="fill: #1f77b4; opacity: 0.6"/>
   </g>
   <g id="patch_10">
    <path d="M 220.668733 828.779375 
L 233.000685 828.779375 
L 233.000685 745.43008 
L 220.668733 745.43008 
z
" clip-path="url(#p23ee69e766)" style="fill: #1f77b4; opacity: 0.6"/>
   </g>
   <g id="patch_11">
    <path d="M 233.000685 828.779375 
L 245.332636 828.779375 
L 245.332636 715.385566 
L 233.000685 715.385566 
z
" clip-path="url(#p23ee69e766)" style="fill: #1f77b4; opacity: 0.6"/>
   </g>
   <g id="patch_12">
    <path d="M 245.332636 828.779375 
L 257.664588 828.779375 
L 257.664588 684.856464 
L 245.332636 684.856464 
z
" clip-path="url(#p23ee69e766)" style="fill: #1f77b4; opacity: 0.6"/>
   </g>
   <g id="patch_13">
    <path d="M 257.664588 828.779375 
L 269.99654 828.779375 
L 269.99654 649.966061 
L 257.664588 649.966061 
z
" clip-path="url(#p23ee69e766)" style="fill: #1f77b4; opacity: 0.6"/>
   </g>
   <g id="patch_14">
    <path d="M 269.99654 828.779375 
L 282.328491 828.779375 
L 282.328491 617.014014 
L 269.99654 617.014014 
z
" clip-path="url(#p23ee69e766)" style="fill: #1f77b4; opacity: 0.6"/>
   </g>
   <g id="patch_15">
    <path d="M 282.328491 828.779375 
L 294.660443 828.779375 
L 294.660443 599.568813 
L 282.328491 599.568813 
z
" clip-path="url(#p23ee69e766)" style="fill: #1f77b4; opacity: 0.6"/>
   </g>
   <g id="patch_16">
    <path d="M 294.660443 828.779375 
L 306.992395 828.779375 
L 306.992395 545.294853 
L 294.660443 545.294853 
z
" clip-path="url(#p23ee69e766)" style="fill: #1f77b4; opacity: 0.6"/>
   </g>
   <g id="patch_17">
    <path d="M 306.992395 828.779375 
L 319.324347 828.779375 
L 319.324347 509.435273 
L 306.992395 509.435273 
z
" clip-path="url(#p23ee69e766)" style="fill: #1f77b4; opacity: 0.6"/>
   </g>
   <g id="patch_18">
    <path d="M 319.324347 828.779375 
L 331.656298 828.779375 
L 331.656298 482.782882 
L 319.324347 482.782882 
z
" clip-path="url(#p23ee69e766)" style="fill: #1f77b4; opacity: 0.6"/>
   </g>
   <g id="patch_19">
    <path d="M 331.656298 828.779375 
L 343.98825 828.779375 
L 343.98825 427.055156 
L 331.656298 427.055156 
z
" clip-path="url(#p23ee69e766)" style="fill: #1f77b4; opacity: 0.6"/>
   </g>
   <g id="patch_20">
    <path d="M 343.98825 828.779375 
L 356.320202 828.779375 
L 356.320202 384.895919 
L 343.98825 384.895919 
z
" clip-path="url(#p23ee69e766)" style="fill: #1f77b4; opacity: 0.6"/>
   </g>
   <g id="patch_21">
    <path d="M 356.320202 828.779375 
L 368.652153 828.779375 
L 368.652153 350.490105 
L 356.320202 350.490105 
z
" clip-path="url(#p23ee69e766)" style="fill: #1f77b4; opacity: 0.6"/>
   </g>
   <g id="patch_22">
    <path d="M 368.652153 828.779375 
L 380.984105 828.779375 
L 380.984105 307.84628 
L 368.652153 307.84628 
z
" clip-path="url(#p23ee69e766)" style="fill: #1f77b4; opacity: 0.6"/>
   </g>
   <g id="patch_23">
    <path d="M 380.984105 828.779375 
L 393.316057 828.779375 
L 393.316057 269.079166 
L 380.984105 269.079166 
z
" clip-path="url(#p23ee69e766)" style="fill: #1f77b4; opacity: 0.6"/>
   </g>
   <g id="patch_24">
    <path d="M 393.316057 828.779375 
L 405.648009 828.779375 
L 405.648009 223.043218 
L 393.316057 223.043218 
z
" clip-path="url(#p23ee69e766)" style="fill: #1f77b4; opacity: 0.6"/>
   </g>
   <g id="patch_25">
    <path d="M 405.648009 828.779375 
L 417.97996 828.779375 
L 417.97996 229.827463 
L 405.648009 229.827463 
z
" clip-path="url(#p23ee69e766)" style="fill: #1f77b4; opacity: 0.6"/>
   </g>
   <g id="patch_26">
    <path d="M 417.97996 828.779375 
L 430.311912 828.779375 
L 430.311912 178.945626 
L 417.97996 178.945626 
z
" clip-path="url(#p23ee69e766)" style="fill: #1f77b4; opacity: 0.6"/>
   </g>
   <g id="patch_27">
    <path d="M 430.311912 828.779375 
L 442.643864 828.779375 
L 442.643864 152.777824 
L 430.311912 152.777824 
z
" clip-path="url(#p23ee69e766)" style="fill: #1f77b4; opacity: 0.6"/>
   </g>
   <g id="patch_28">
    <path d="M 442.643864 828.779375 
L 454.975815 828.779375 
L 454.975815 145.50899 
L 442.643864 145.50899 
z
" clip-path="url(#p23ee69e766)" style="fill: #1f77b4; opacity: 0.6"/>
   </g>
   <g id="patch_29">
    <path d="M 454.975815 828.779375 
L 467.307767 828.779375 
L 467.307767 124.187077 
L 454.975815 124.187077 
z
" clip-path="url(#p23ee69e766)" style="fill: #1f77b4; opacity: 0.6"/>
   </g>
   <g id="patch_30">
    <path d="M 467.307767 828.779375 
L 479.639719 828.779375 
L 479.639719 81.058663 
L 467.307767 81.058663 
z
" clip-path="url(#p23ee69e766)" style="fill: #1f77b4; opacity: 0.6"/>
   </g>
   <g id="patch_31">
    <path d="M 479.639719 828.779375 
L 491.97167 828.779375 
L 491.97167 130.971322 
L 479.639719 130.971322 
z
" clip-path="url(#p23ee69e766)" style="fill: #1f77b4; opacity: 0.6"/>
   </g>
   <g id="patch_32">
    <path d="M 491.97167 828.779375 
L 504.303622 828.779375 
L 504.303622 87.358319 
L 491.97167 87.358319 
z
" clip-path="url(#p23ee69e766)" style="fill: #1f77b4; opacity: 0.6"/>
   </g>
   <g id="patch_33">
    <path d="M 504.303622 828.779375 
L 516.635574 828.779375 
L 516.635574 115.464476 
L 504.303622 115.464476 
z
" clip-path="url(#p23ee69e766)" style="fill: #1f77b4; opacity: 0.6"/>
   </g>
   <g id="patch_34">
    <path d="M 516.635574 828.779375 
L 528.967526 828.779375 
L 528.967526 75.728185 
L 516.635574 75.728185 
z
" clip-path="url(#p23ee69e766)" style="fill: #1f77b4; opacity: 0.6"/>
   </g>
   <g id="patch_35">
    <path d="M 528.967526 828.779375 
L 541.299477 828.779375 
L 541.299477 125.640844 
L 528.967526 125.640844 
z
" clip-path="url(#p23ee69e766)" style="fill: #1f77b4; opacity: 0.6"/>
   </g>
   <g id="patch_36">
    <path d="M 541.299477 828.779375 
L 553.631429 828.779375 
L 553.631429 88.812086 
L 541.299477 88.812086 
z
" clip-path="url(#p23ee69e766)" style="fill: #1f77b4; opacity: 0.6"/>
   </g>
   <g id="patch_37">
    <path d="M 553.631429 828.779375 
L 565.963381 828.779375 
L 565.963381 135.817211 
L 553.631429 135.817211 
z
" clip-path="url(#p23ee69e766)" style="fill: #1f77b4; opacity: 0.6"/>
   </g>
   <g id="patch_38">
    <path d="M 565.963381 828.779375 
L 578.295332 828.779375 
L 578.295332 138.724745 
L 565.963381 138.724745 
z
" clip-path="url(#p23ee69e766)" style="fill: #1f77b4; opacity: 0.6"/>
   </g>
   <g id="patch_39">
    <path d="M 578.295332 828.779375 
L 590.627284 828.779375 
L 590.627284 200.267538 
L 578.295332 200.267538 
z
" clip-path="url(#p23ee69e766)" style="fill: #1f77b4; opacity: 0.6"/>
   </g>
   <g id="patch_40">
    <path d="M 590.627284 828.779375 
L 602.959236 828.779375 
L 602.959236 169.253847 
L 590.627284 169.253847 
z
" clip-path="url(#p23ee69e766)" style="fill: #1f77b4; opacity: 0.6"/>
   </g>
   <g id="patch_41">
    <path d="M 602.959236 828.779375 
L 615.291188 828.779375 
L 615.291188 224.496985 
L 602.959236 224.496985 
z
" clip-path="url(#p23ee69e766)" style="fill: #1f77b4; opacity: 0.6"/>
   </g>
   <g id="patch_42">
    <path d="M 615.291187 828.779375 
L 627.623139 828.779375 
L 627.623139 231.28123 
L 615.291187 231.28123 
z
" clip-path="url(#p23ee69e766)" style="fill: #1f77b4; opacity: 0.6"/>
   </g>
   <g id="patch_43">
    <path d="M 627.623139 828.779375 
L 639.955091 828.779375 
L 639.955091 269.563755 
L 627.623139 269.563755 
z
" clip-path="url(#p23ee69e766)" style="fill: #1f77b4; opacity: 0.6"/>
   </g>
   <g id="patch_44">
    <path d="M 639.955091 828.779375 
L 652.287043 828.779375 
L 652.287043 297.669912 
L 639.955091 297.669912 
z
" clip-path="url(#p23ee69e766)" style="fill: #1f77b4; opacity: 0.6"/>
   </g>
   <g id="patch_45">
    <path d="M 652.287043 828.779375 
L 664.618994 828.779375 
L 664.618994 342.736683 
L 652.287043 342.736683 
z
" clip-path="url(#p23ee69e766)" style="fill: #1f77b4; opacity: 0.6"/>
   </g>
   <g id="patch_46">
    <path d="M 664.618994 828.779375 
L 676.950946 828.779375 
L 676.950946 315.599703 
L 664.618994 315.599703 
z
" clip-path="url(#p23ee69e766)" style="fill: #1f77b4; opacity: 0.6"/>
   </g>
   <g id="patch_47">
    <path d="M 676.950946 828.779375 
L 689.282898 828.779375 
L 689.282898 385.380508 
L 676.950946 385.380508 
z
" clip-path="url(#p23ee69e766)" style="fill: #1f77b4; opacity: 0.6"/>
   </g>
   <g id="patch_48">
    <path d="M 689.282898 828.779375 
L 701.614849 828.779375 
L 701.614849 417.847966 
L 689.282898 417.847966 
z
" clip-path="url(#p23ee69e766)" style="fill: #1f77b4; opacity: 0.6"/>
   </g>
   <g id="patch_49">
    <path d="M 701.614849 828.779375 
L 713.946801 828.779375 
L 713.946801 449.346246 
L 701.614849 449.346246 
z
" clip-path="url(#p23ee69e766)" style="fill: #1f77b4; opacity: 0.6"/>
   </g>
   <g id="patch_50">
    <path d="M 713.946801 828.779375 
L 726.278753 828.779375 
L 726.278753 435.293167 
L 713.946801 435.293167 
z
" clip-path="url(#p23ee69e766)" style="fill: #1f77b4; opacity: 0.6"/>
   </g>
   <g id="patch_51">
    <path d="M 726.278753 828.779375 
L 738.610705 828.779375 
L 738.610705 505.558562 
L 726.278753 505.558562 
z
" clip-path="url(#p23ee69e766)" style="fill: #1f77b4; opacity: 0.6"/>
   </g>
   <g id="patch_52">
    <path d="M 738.610705 828.779375 
L 750.942656 828.779375 
L 750.942656 539.479786 
L 738.610705 539.479786 
z
" clip-path="url(#p23ee69e766)" style="fill: #1f77b4; opacity: 0.6"/>
   </g>
   <g id="patch_53">
    <path d="M 750.942656 828.779375 
L 763.274608 828.779375 
L 763.274608 539.479786 
L 750.942656 539.479786 
z
" clip-path="url(#p23ee69e766)" style="fill: #1f77b4; opacity: 0.6"/>
   </g>
   <g id="patch_54">
    <path d="M 763.274608 828.779375 
L 775.60656 828.779375 
L 775.60656 591.81539 
L 763.274608 591.81539 
z
" clip-path="url(#p23ee69e766)" style="fill: #1f77b4; opacity: 0.6"/>
   </g>
   <g id="patch_55">
    <path d="M 775.60656 828.779375 
L 787.938511 828.779375 
L 787.938511 614.106481 
L 775.60656 614.106481 
z
" clip-path="url(#p23ee69e766)" style="fill: #1f77b4; opacity: 0.6"/>
   </g>
   <g id="patch_56">
    <path d="M 787.938511 828.779375 
L 800.270463 828.779375 
L 800.270463 623.798259 
L 787.938511 623.798259 
z
" clip-path="url(#p23ee69e766)" style="fill: #1f77b4; opacity: 0.6"/>
   </g>
   <g id="patch_57">
    <path d="M 800.270463 828.779375 
L 812.602415 828.779375 
L 812.602415 646.08935 
L 800.270463 646.08935 
z
" clip-path="url(#p23ee69e766)" style="fill: #1f77b4; opacity: 0.6"/>
   </g>
   <g id="patch_58">
    <path d="M 812.602415 828.779375 
L 824.934366 828.779375 
L 824.934366 657.234895 
L 812.602415 657.234895 
z
" clip-path="url(#p23ee69e766)" style="fill: #1f77b4; opacity: 0.6"/>
   </g>
   <g id="patch_59">
    <path d="M 824.934366 828.779375 
L 837.266318 828.779375 
L 837.266318 672.257152 
L 824.934366 672.257152 
z
" clip-path="url(#p23ee69e766)" style="fill: #1f77b4; opacity: 0.6"/>
   </g>
   <g id="patch_60">
    <path d="M 837.266318 828.779375 
L 849.59827 828.779375 
L 849.59827 693.094476 
L 837.266318 693.094476 
z
" clip-path="url(#p23ee69e766)" style="fill: #1f77b4; opacity: 0.6"/>
   </g>
   <g id="patch_61">
    <path d="M 849.59827 828.779375 
L 861.930222 828.779375 
L 861.930222 711.024266 
L 849.59827 711.024266 
z
" clip-path="url(#p23ee69e766)" style="fill: #1f77b4; opacity: 0.6"/>
   </g>
   <g id="patch_62">
    <path d="M 861.930222 828.779375 
L 874.262173 828.779375 
L 874.262173 717.808511 
L 861.930222 717.808511 
z
" clip-path="url(#p23ee69e766)" style="fill: #1f77b4; opacity: 0.6"/>
   </g>
   <g id="patch_63">
    <path d="M 874.262173 828.779375 
L 886.594125 828.779375 
L 886.594125 734.284534 
L 874.262173 734.284534 
z
" clip-path="url(#p23ee69e766)" style="fill: #1f77b4; opacity: 0.6"/>
   </g>
   <g id="patch_64">
    <path d="M 886.594125 828.779375 
L 898.926077 828.779375 
L 898.926077 747.853024 
L 886.594125 747.853024 
z
" clip-path="url(#p23ee69e766)" style="fill: #1f77b4; opacity: 0.6"/>
   </g>
   <g id="patch_65">
    <path d="M 898.926077 828.779375 
L 911.258028 828.779375 
L 911.258028 754.637269 
L 898.926077 754.637269 
z
" clip-path="url(#p23ee69e766)" style="fill: #1f77b4; opacity: 0.6"/>
   </g>
   <g id="patch_66">
    <path d="M 911.258028 828.779375 
L 923.58998 828.779375 
L 923.58998 763.844459 
L 911.258028 763.844459 
z
" clip-path="url(#p23ee69e766)" style="fill: #1f77b4; opacity: 0.6"/>
   </g>
   <g id="patch_67">
    <path d="M 923.58998 828.779375 
L 935.921932 828.779375 
L 935.921932 766.751993 
L 923.58998 766.751993 
z
" clip-path="url(#p23ee69e766)" style="fill: #1f77b4; opacity: 0.6"/>
   </g>
   <g id="patch_68">
    <path d="M 935.921932 828.779375 
L 948.253884 828.779375 
L 948.253884 784.197194 
L 935.921932 784.197194 
z
" clip-path="url(#p23ee69e766)" style="fill: #1f77b4; opacity: 0.6"/>
   </g>
   <g id="patch_69">
    <path d="M 948.253884 828.779375 
L 960.585835 828.779375 
L 960.585835 785.650961 
L 948.253884 785.650961 
z
" clip-path="url(#p23ee69e766)" style="fill: #1f77b4; opacity: 0.6"/>
   </g>
   <g id="patch_70">
    <path d="M 960.585835 828.779375 
L 972.917787 828.779375 
L 972.917787 793.404383 
L 960.585835 793.404383 
z
" clip-path="url(#p23ee69e766)" style="fill: #1f77b4; opacity: 0.6"/>
   </g>
   <g id="patch_71">
    <path d="M 972.917787 828.779375 
L 985.249739 828.779375 
L 985.249739 802.611573 
L 972.917787 802.611573 
z
" clip-path="url(#p23ee69e766)" style="fill: #1f77b4; opacity: 0.6"/>
   </g>
   <g id="patch_72">
    <path d="M 985.249739 828.779375 
L 997.58169 828.779375 
L 997.58169 803.580751 
L 985.249739 803.580751 
z
" clip-path="url(#p23ee69e766)" style="fill: #1f77b4; opacity: 0.6"/>
   </g>
   <g id="patch_73">
    <path d="M 997.58169 828.779375 
L 1009.913642 828.779375 
L 1009.913642 803.580751 
L 997.58169 803.580751 
z
" clip-path="url(#p23ee69e766)" style="fill: #1f77b4; opacity: 0.6"/>
   </g>
   <g id="patch_74">
    <path d="M 1009.913642 828.779375 
L 1022.245594 828.779375 
L 1022.245594 809.880407 
L 1009.913642 809.880407 
z
" clip-path="url(#p23ee69e766)" style="fill: #1f77b4; opacity: 0.6"/>
   </g>
   <g id="patch_75">
    <path d="M 1022.245594 828.779375 
L 1034.577545 828.779375 
L 1034.577545 816.180063 
L 1022.245594 816.180063 
z
" clip-path="url(#p23ee69e766)" style="fill: #1f77b4; opacity: 0.6"/>
   </g>
   <g id="patch_76">
    <path d="M 1034.577545 828.779375 
L 1046.909497 828.779375 
L 1046.909497 818.603008 
L 1034.577545 818.603008 
z
" clip-path="url(#p23ee69e766)" style="fill: #1f77b4; opacity: 0.6"/>
   </g>
   <g id="patch_77">
    <path d="M 1046.909497 828.779375 
L 1059.241449 828.779375 
L 1059.241449 815.695474 
L 1046.909497 815.695474 
z
" clip-path="url(#p23ee69e766)" style="fill: #1f77b4; opacity: 0.6"/>
   </g>
   <g id="patch_78">
    <path d="M 1059.241449 828.779375 
L 1071.573401 828.779375 
L 1071.573401 818.118419 
L 1059.241449 818.118419 
z
" clip-path="url(#p23ee69e766)" style="fill: #1f77b4; opacity: 0.6"/>
   </g>
   <g id="patch_79">
    <path d="M 1071.573401 828.779375 
L 1083.905352 828.779375 
L 1083.905352 824.418075 
L 1071.573401 824.418075 
z
" clip-path="url(#p23ee69e766)" style="fill: #1f77b4; opacity: 0.6"/>
   </g>
   <g id="patch_80">
    <path d="M 1083.905352 828.779375 
L 1096.237304 828.779375 
L 1096.237304 820.056774 
L 1083.905352 820.056774 
z
" clip-path="url(#p23ee69e766)" style="fill: #1f77b4; opacity: 0.6"/>
   </g>
   <g id="patch_81">
    <path d="M 1096.237304 828.779375 
L 1108.569256 828.779375 
L 1108.569256 820.541363 
L 1096.237304 820.541363 
z
" clip-path="url(#p23ee69e766)" style="fill: #1f77b4; opacity: 0.6"/>
   </g>
   <g id="patch_82">
    <path d="M 1108.569256 828.779375 
L 1120.901207 828.779375 
L 1120.901207 825.871841 
L 1108.569256 825.871841 
z
" clip-path="url(#p23ee69e766)" style="fill: #1f77b4; opacity: 0.6"/>
   </g>
   <g id="patch_83">
    <path d="M 1120.901207 828.779375 
L 1133.233159 828.779375 
L 1133.233159 824.902664 
L 1120.901207 824.902664 
z
" clip-path="url(#p23ee69e766)" style="fill: #1f77b4; opacity: 0.6"/>
   </g>
   <g id="patch_84">
    <path d="M 1133.233159 828.779375 
L 1145.565111 828.779375 
L 1145.565111 826.35643 
L 1133.233159 826.35643 
z
" clip-path="url(#p23ee69e766)" style="fill: #1f77b4; opacity: 0.6"/>
   </g>
   <g id="patch_85">
    <path d="M 1145.565111 828.779375 
L 1157.897063 828.779375 
L 1157.897063 827.325608 
L 1145.565111 827.325608 
z
" clip-path="url(#p23ee69e766)" style="fill: #1f77b4; opacity: 0.6"/>
   </g>
   <g id="patch_86">
    <path d="M 1157.897063 828.779375 
L 1170.229014 828.779375 
L 1170.229014 826.35643 
L 1157.897063 826.35643 
z
" clip-path="url(#p23ee69e766)" style="fill: #1f77b4; opacity: 0.6"/>
   </g>
   <g id="patch_87">
    <path d="M 1170.229014 828.779375 
L 1182.560966 828.779375 
L 1182.560966 828.294786 
L 1170.229014 828.294786 
z
" clip-path="url(#p23ee69e766)" style="fill: #1f77b4; opacity: 0.6"/>
   </g>
   <g id="patch_88">
    <path d="M 1182.560966 828.779375 
L 1194.892918 828.779375 
L 1194.892918 827.325608 
L 1182.560966 827.325608 
z
" clip-path="url(#p23ee69e766)" style="fill: #1f77b4; opacity: 0.6"/>
   </g>
   <g id="patch_89">
    <path d="M 1194.892918 828.779375 
L 1207.224869 828.779375 
L 1207.224869 827.325608 
L 1194.892918 827.325608 
z
" clip-path="url(#p23ee69e766)" style="fill: #1f77b4; opacity: 0.6"/>
   </g>
   <g id="patch_90">
    <path d="M 1207.224869 828.779375 
L 1219.556821 828.779375 
L 1219.556821 828.779375 
L 1207.224869 828.779375 
z
" clip-path="url(#p23ee69e766)" style="fill: #1f77b4; opacity: 0.6"/>
   </g>
   <g id="patch_91">
    <path d="M 1219.556821 828.779375 
L 1231.888773 828.779375 
L 1231.888773 827.810197 
L 1219.556821 827.810197 
z
" clip-path="url(#p23ee69e766)" style="fill: #1f77b4; opacity: 0.6"/>
   </g>
   <g id="patch_92">
    <path d="M 1231.888773 828.779375 
L 1244.220724 828.779375 
L 1244.220724 828.779375 
L 1231.888773 828.779375 
z
" clip-path="url(#p23ee69e766)" style="fill: #1f77b4; opacity: 0.6"/>
   </g>
   <g id="patch_93">
    <path d="M 1244.220724 828.779375 
L 1256.552676 828.779375 
L 1256.552676 828.779375 
L 1244.220724 828.779375 
z
" clip-path="url(#p23ee69e766)" style="fill: #1f77b4; opacity: 0.6"/>
   </g>
   <g id="patch_94">
    <path d="M 1256.552676 828.779375 
L 1268.884628 828.779375 
L 1268.884628 828.294786 
L 1256.552676 828.294786 
z
" clip-path="url(#p23ee69e766)" style="fill: #1f77b4; opacity: 0.6"/>
   </g>
   <g id="patch_95">
    <path d="M 1268.884628 828.779375 
L 1281.21658 828.779375 
L 1281.21658 828.779375 
L 1268.884628 828.779375 
z
" clip-path="url(#p23ee69e766)" style="fill: #1f77b4; opacity: 0.6"/>
   </g>
   <g id="patch_96">
    <path d="M 1281.21658 828.779375 
L 1293.548531 828.779375 
L 1293.548531 828.294786 
L 1281.21658 828.294786 
z
" clip-path="url(#p23ee69e766)" style="fill: #1f77b4; opacity: 0.6"/>
   </g>
   <g id="patch_97">
    <path d="M 1293.548531 828.779375 
L 1305.880483 828.779375 
L 1305.880483 828.294786 
L 1293.548531 828.294786 
z
" clip-path="url(#p23ee69e766)" style="fill: #1f77b4; opacity: 0.6"/>
   </g>
   <g id="patch_98">
    <path d="M 1305.880483 828.779375 
L 1318.212435 828.779375 
L 1318.212435 828.294786 
L 1305.880483 828.294786 
z
" clip-path="url(#p23ee69e766)" style="fill: #1f77b4; opacity: 0.6"/>
   </g>
   <g id="patch_99">
    <path d="M 1318.212435 828.779375 
L 1330.544386 828.779375 
L 1330.544386 828.779375 
L 1318.212435 828.779375 
z
" clip-path="url(#p23ee69e766)" style="fill: #1f77b4; opacity: 0.6"/>
   </g>
   <g id="patch_100">
    <path d="M 1330.544386 828.779375 
L 1342.876338 828.779375 
L 1342.876338 828.779375 
L 1330.544386 828.779375 
z
" clip-path="url(#p23ee69e766)" style="fill: #1f77b4; opacity: 0.6"/>
   </g>
   <g id="patch_101">
    <path d="M 1342.876338 828.779375 
L 1355.20829 828.779375 
L 1355.20829 828.294786 
L 1342.876338 828.294786 
z
" clip-path="url(#p23ee69e766)" style="fill: #1f77b4; opacity: 0.6"/>
   </g>
   <g id="patch_102">
    <path d="M 1355.20829 828.779375 
L 1367.540241 828.779375 
L 1367.540241 828.294786 
L 1355.20829 828.294786 
z
" clip-path="url(#p23ee69e766)" style="fill: #1f77b4; opacity: 0.6"/>
   </g>
   <g id="matplotlib.axis_1">
    <g id="xtick_1">
     <g id="line2d_1">
      <defs>
       <path id="mf589618656" d="M 0 0 
L 0 3.5 
" style="stroke: #000000; stroke-width: 0.8"/>
      </defs>
      <g>
       <use xlink:href="#mf589618656" x="101.60113" y="828.779375" style="stroke: #000000; stroke-width: 0.8"/>
      </g>
     </g>
     <g id="text_1">
      <!-- 0 -->
      <g transform="translate(95.87488 849.456563) scale(0.18 -0.18)">
       <defs>
        <path id="DejaVuSans-30" d="M 2034 4250 
Q 1547 4250 1301 3770 
Q 1056 3291 1056 2328 
Q 1056 1369 1301 889 
Q 1547 409 2034 409 
Q 2525 409 2770 889 
Q 3016 1369 3016 2328 
Q 3016 3291 2770 3770 
Q 2525 4250 2034 4250 
z
M 2034 4750 
Q 2819 4750 3233 4129 
Q 3647 3509 3647 2328 
Q 3647 1150 3233 529 
Q 2819 -91 2034 -91 
Q 1250 -91 836 529 
Q 422 1150 422 2328 
Q 422 3509 836 4129 
Q 1250 4750 2034 4750 
z
" transform="scale(0.015625)"/>
       </defs>
       <use xlink:href="#DejaVuSans-30"/>
      </g>
     </g>
    </g>
    <g id="xtick_2">
     <g id="line2d_2">
      <g>
       <use xlink:href="#mf589618656" x="335.008735" y="828.779375" style="stroke: #000000; stroke-width: 0.8"/>
      </g>
     </g>
     <g id="text_2">
      <!-- 1 -->
      <g transform="translate(329.282485 849.456563) scale(0.18 -0.18)">
       <defs>
        <path id="DejaVuSans-31" d="M 794 531 
L 1825 531 
L 1825 4091 
L 703 3866 
L 703 4441 
L 1819 4666 
L 2450 4666 
L 2450 531 
L 3481 531 
L 3481 0 
L 794 0 
L 794 531 
z
" transform="scale(0.015625)"/>
       </defs>
       <use xlink:href="#DejaVuSans-31"/>
      </g>
     </g>
    </g>
    <g id="xtick_3">
     <g id="line2d_3">
      <g>
       <use xlink:href="#mf589618656" x="568.41634" y="828.779375" style="stroke: #000000; stroke-width: 0.8"/>
      </g>
     </g>
     <g id="text_3">
      <!-- 2 -->
      <g transform="translate(562.69009 849.456563) scale(0.18 -0.18)">
       <defs>
        <path id="DejaVuSans-32" d="M 1228 531 
L 3431 531 
L 3431 0 
L 469 0 
L 469 531 
Q 828 903 1448 1529 
Q 2069 2156 2228 2338 
Q 2531 2678 2651 2914 
Q 2772 3150 2772 3378 
Q 2772 3750 2511 3984 
Q 2250 4219 1831 4219 
Q 1534 4219 1204 4116 
Q 875 4013 500 3803 
L 500 4441 
Q 881 4594 1212 4672 
Q 1544 4750 1819 4750 
Q 2544 4750 2975 4387 
Q 3406 4025 3406 3419 
Q 3406 3131 3298 2873 
Q 3191 2616 2906 2266 
Q 2828 2175 2409 1742 
Q 1991 1309 1228 531 
z
" transform="scale(0.015625)"/>
       </defs>
       <use xlink:href="#DejaVuSans-32"/>
      </g>
     </g>
    </g>
    <g id="xtick_4">
     <g id="line2d_4">
      <g>
       <use xlink:href="#mf589618656" x="801.823946" y="828.779375" style="stroke: #000000; stroke-width: 0.8"/>
      </g>
     </g>
     <g id="text_4">
      <!-- 3 -->
      <g transform="translate(796.097696 849.456563) scale(0.18 -0.18)">
       <defs>
        <path id="DejaVuSans-33" d="M 2597 2516 
Q 3050 2419 3304 2112 
Q 3559 1806 3559 1356 
Q 3559 666 3084 287 
Q 2609 -91 1734 -91 
Q 1441 -91 1130 -33 
Q 819 25 488 141 
L 488 750 
Q 750 597 1062 519 
Q 1375 441 1716 441 
Q 2309 441 2620 675 
Q 2931 909 2931 1356 
Q 2931 1769 2642 2001 
Q 2353 2234 1838 2234 
L 1294 2234 
L 1294 2753 
L 1863 2753 
Q 2328 2753 2575 2939 
Q 2822 3125 2822 3475 
Q 2822 3834 2567 4026 
Q 2313 4219 1838 4219 
Q 1578 4219 1281 4162 
Q 984 4106 628 3988 
L 628 4550 
Q 988 4650 1302 4700 
Q 1616 4750 1894 4750 
Q 2613 4750 3031 4423 
Q 3450 4097 3450 3541 
Q 3450 3153 3228 2886 
Q 3006 2619 2597 2516 
z
" transform="scale(0.015625)"/>
       </defs>
       <use xlink:href="#DejaVuSans-33"/>
      </g>
     </g>
    </g>
    <g id="xtick_5">
     <g id="line2d_5">
      <g>
       <use xlink:href="#mf589618656" x="1035.231551" y="828.779375" style="stroke: #000000; stroke-width: 0.8"/>
      </g>
     </g>
     <g id="text_5">
      <!-- 4 -->
      <g transform="translate(1029.505301 849.456563) scale(0.18 -0.18)">
       <defs>
        <path id="DejaVuSans-34" d="M 2419 4116 
L 825 1625 
L 2419 1625 
L 2419 4116 
z
M 2253 4666 
L 3047 4666 
L 3047 1625 
L 3713 1625 
L 3713 1100 
L 3047 1100 
L 3047 0 
L 2419 0 
L 2419 1100 
L 313 1100 
L 313 1709 
L 2253 4666 
z
" transform="scale(0.015625)"/>
       </defs>
       <use xlink:href="#DejaVuSans-34"/>
      </g>
     </g>
    </g>
    <g id="xtick_6">
     <g id="line2d_6">
      <g>
       <use xlink:href="#mf589618656" x="1268.639156" y="828.779375" style="stroke: #000000; stroke-width: 0.8"/>
      </g>
     </g>
     <g id="text_6">
      <!-- 5 -->
      <g transform="translate(1262.912906 849.456563) scale(0.18 -0.18)">
       <defs>
        <path id="DejaVuSans-35" d="M 691 4666 
L 3169 4666 
L 3169 4134 
L 1269 4134 
L 1269 2991 
Q 1406 3038 1543 3061 
Q 1681 3084 1819 3084 
Q 2600 3084 3056 2656 
Q 3513 2228 3513 1497 
Q 3513 744 3044 326 
Q 2575 -91 1722 -91 
Q 1428 -91 1123 -41 
Q 819 9 494 109 
L 494 744 
Q 775 591 1075 516 
Q 1375 441 1709 441 
Q 2250 441 2565 725 
Q 2881 1009 2881 1497 
Q 2881 1984 2565 2268 
Q 2250 2553 1709 2553 
Q 1456 2553 1204 2497 
Q 953 2441 691 2322 
L 691 4666 
z
" transform="scale(0.015625)"/>
       </defs>
       <use xlink:href="#DejaVuSans-35"/>
      </g>
     </g>
    </g>
   </g>
   <g id="matplotlib.axis_2">
    <g id="ytick_1">
     <g id="line2d_7">
      <defs>
       <path id="maa9e447f58" d="M 0 0 
L -3.5 0 
" style="stroke: #000000; stroke-width: 0.8"/>
      </defs>
      <g>
       <use xlink:href="#maa9e447f58" x="72.685313" y="828.779375" style="stroke: #000000; stroke-width: 0.8"/>
      </g>
     </g>
     <g id="text_7">
      <!-- 0.0 -->
      <g transform="translate(37.059688 835.617969) scale(0.18 -0.18)">
       <defs>
        <path id="DejaVuSans-2e" d="M 684 794 
L 1344 794 
L 1344 0 
L 684 0 
L 684 794 
z
" transform="scale(0.015625)"/>
       </defs>
       <use xlink:href="#DejaVuSans-30"/>
       <use xlink:href="#DejaVuSans-2e" x="63.623047"/>
       <use xlink:href="#DejaVuSans-30" x="95.410156"/>
      </g>
     </g>
    </g>
    <g id="ytick_2">
     <g id="line2d_8">
      <g>
       <use xlink:href="#maa9e447f58" x="72.685313" y="700.76454" style="stroke: #000000; stroke-width: 0.8"/>
      </g>
     </g>
     <g id="text_8">
      <!-- 0.1 -->
      <g transform="translate(37.059688 707.603134) scale(0.18 -0.18)">
       <use xlink:href="#DejaVuSans-30"/>
       <use xlink:href="#DejaVuSans-2e" x="63.623047"/>
       <use xlink:href="#DejaVuSans-31" x="95.410156"/>
      </g>
     </g>
    </g>
    <g id="ytick_3">
     <g id="line2d_9">
      <g>
       <use xlink:href="#maa9e447f58" x="72.685313" y="572.749705" style="stroke: #000000; stroke-width: 0.8"/>
      </g>
     </g>
     <g id="text_9">
      <!-- 0.2 -->
      <g transform="translate(37.059688 579.588298) scale(0.18 -0.18)">
       <use xlink:href="#DejaVuSans-30"/>
       <use xlink:href="#DejaVuSans-2e" x="63.623047"/>
       <use xlink:href="#DejaVuSans-32" x="95.410156"/>
      </g>
     </g>
    </g>
    <g id="ytick_4">
     <g id="line2d_10">
      <g>
       <use xlink:href="#maa9e447f58" x="72.685313" y="444.734869" style="stroke: #000000; stroke-width: 0.8"/>
      </g>
     </g>
     <g id="text_10">
      <!-- 0.3 -->
      <g transform="translate(37.059688 451.573463) scale(0.18 -0.18)">
       <use xlink:href="#DejaVuSans-30"/>
       <use xlink:href="#DejaVuSans-2e" x="63.623047"/>
       <use xlink:href="#DejaVuSans-33" x="95.410156"/>
      </g>
     </g>
    </g>
    <g id="ytick_5">
     <g id="line2d_11">
      <g>
       <use xlink:href="#maa9e447f58" x="72.685313" y="316.720034" style="stroke: #000000; stroke-width: 0.8"/>
      </g>
     </g>
     <g id="text_11">
      <!-- 0.4 -->
      <g transform="translate(37.059688 323.558628) scale(0.18 -0.18)">
       <use xlink:href="#DejaVuSans-30"/>
       <use xlink:href="#DejaVuSans-2e" x="63.623047"/>
       <use xlink:href="#DejaVuSans-34" x="95.410156"/>
      </g>
     </g>
    </g>
    <g id="ytick_6">
     <g id="line2d_12">
      <g>
       <use xlink:href="#maa9e447f58" x="72.685313" y="188.705199" style="stroke: #000000; stroke-width: 0.8"/>
      </g>
     </g>
     <g id="text_12">
      <!-- 0.5 -->
      <g transform="translate(37.059688 195.543793) scale(0.18 -0.18)">
       <use xlink:href="#DejaVuSans-30"/>
       <use xlink:href="#DejaVuSans-2e" x="63.623047"/>
       <use xlink:href="#DejaVuSans-35" x="95.410156"/>
      </g>
     </g>
    </g>
    <g id="ytick_7">
     <g id="line2d_13">
      <g>
       <use xlink:href="#maa9e447f58" x="72.685313" y="60.690364" style="stroke: #000000; stroke-width: 0.8"/>
      </g>
     </g>
     <g id="text_13">
      <!-- 0.6 -->
      <g transform="translate(37.059688 67.528957) scale(0.18 -0.18)">
       <defs>
        <path id="DejaVuSans-36" d="M 2113 2584 
Q 1688 2584 1439 2293 
Q 1191 2003 1191 1497 
Q 1191 994 1439 701 
Q 1688 409 2113 409 
Q 2538 409 2786 701 
Q 3034 994 3034 1497 
Q 3034 2003 2786 2293 
Q 2538 2584 2113 2584 
z
M 3366 4563 
L 3366 3988 
Q 3128 4100 2886 4159 
Q 2644 4219 2406 4219 
Q 1781 4219 1451 3797 
Q 1122 3375 1075 2522 
Q 1259 2794 1537 2939 
Q 1816 3084 2150 3084 
Q 2853 3084 3261 2657 
Q 3669 2231 3669 1497 
Q 3669 778 3244 343 
Q 2819 -91 2113 -91 
Q 1303 -91 875 529 
Q 447 1150 447 2328 
Q 447 3434 972 4092 
Q 1497 4750 2381 4750 
Q 2619 4750 2861 4703 
Q 3103 4656 3366 4563 
z
" transform="scale(0.015625)"/>
       </defs>
       <use xlink:href="#DejaVuSans-30"/>
       <use xlink:href="#DejaVuSans-2e" x="63.623047"/>
       <use xlink:href="#DejaVuSans-36" x="95.410156"/>
      </g>
     </g>
    </g>
    <g id="text_14">
     <!-- Normed Hist Counts -->
     <g transform="translate(28.276406 548.966563) rotate(-90) scale(0.23 -0.23)">
      <defs>
       <path id="DejaVuSans-4e" d="M 628 4666 
L 1478 4666 
L 3547 763 
L 3547 4666 
L 4159 4666 
L 4159 0 
L 3309 0 
L 1241 3903 
L 1241 0 
L 628 0 
L 628 4666 
z
" transform="scale(0.015625)"/>
       <path id="DejaVuSans-6f" d="M 1959 3097 
Q 1497 3097 1228 2736 
Q 959 2375 959 1747 
Q 959 1119 1226 758 
Q 1494 397 1959 397 
Q 2419 397 2687 759 
Q 2956 1122 2956 1747 
Q 2956 2369 2687 2733 
Q 2419 3097 1959 3097 
z
M 1959 3584 
Q 2709 3584 3137 3096 
Q 3566 2609 3566 1747 
Q 3566 888 3137 398 
Q 2709 -91 1959 -91 
Q 1206 -91 779 398 
Q 353 888 353 1747 
Q 353 2609 779 3096 
Q 1206 3584 1959 3584 
z
" transform="scale(0.015625)"/>
       <path id="DejaVuSans-72" d="M 2631 2963 
Q 2534 3019 2420 3045 
Q 2306 3072 2169 3072 
Q 1681 3072 1420 2755 
Q 1159 2438 1159 1844 
L 1159 0 
L 581 0 
L 581 3500 
L 1159 3500 
L 1159 2956 
Q 1341 3275 1631 3429 
Q 1922 3584 2338 3584 
Q 2397 3584 2469 3576 
Q 2541 3569 2628 3553 
L 2631 2963 
z
" transform="scale(0.015625)"/>
       <path id="DejaVuSans-6d" d="M 3328 2828 
Q 3544 3216 3844 3400 
Q 4144 3584 4550 3584 
Q 5097 3584 5394 3201 
Q 5691 2819 5691 2113 
L 5691 0 
L 5113 0 
L 5113 2094 
Q 5113 2597 4934 2840 
Q 4756 3084 4391 3084 
Q 3944 3084 3684 2787 
Q 3425 2491 3425 1978 
L 3425 0 
L 2847 0 
L 2847 2094 
Q 2847 2600 2669 2842 
Q 2491 3084 2119 3084 
Q 1678 3084 1418 2786 
Q 1159 2488 1159 1978 
L 1159 0 
L 581 0 
L 581 3500 
L 1159 3500 
L 1159 2956 
Q 1356 3278 1631 3431 
Q 1906 3584 2284 3584 
Q 2666 3584 2933 3390 
Q 3200 3197 3328 2828 
z
" transform="scale(0.015625)"/>
       <path id="DejaVuSans-65" d="M 3597 1894 
L 3597 1613 
L 953 1613 
Q 991 1019 1311 708 
Q 1631 397 2203 397 
Q 2534 397 2845 478 
Q 3156 559 3463 722 
L 3463 178 
Q 3153 47 2828 -22 
Q 2503 -91 2169 -91 
Q 1331 -91 842 396 
Q 353 884 353 1716 
Q 353 2575 817 3079 
Q 1281 3584 2069 3584 
Q 2775 3584 3186 3129 
Q 3597 2675 3597 1894 
z
M 3022 2063 
Q 3016 2534 2758 2815 
Q 2500 3097 2075 3097 
Q 1594 3097 1305 2825 
Q 1016 2553 972 2059 
L 3022 2063 
z
" transform="scale(0.015625)"/>
       <path id="DejaVuSans-64" d="M 2906 2969 
L 2906 4863 
L 3481 4863 
L 3481 0 
L 2906 0 
L 2906 525 
Q 2725 213 2448 61 
Q 2172 -91 1784 -91 
Q 1150 -91 751 415 
Q 353 922 353 1747 
Q 353 2572 751 3078 
Q 1150 3584 1784 3584 
Q 2172 3584 2448 3432 
Q 2725 3281 2906 2969 
z
M 947 1747 
Q 947 1113 1208 752 
Q 1469 391 1925 391 
Q 2381 391 2643 752 
Q 2906 1113 2906 1747 
Q 2906 2381 2643 2742 
Q 2381 3103 1925 3103 
Q 1469 3103 1208 2742 
Q 947 2381 947 1747 
z
" transform="scale(0.015625)"/>
       <path id="DejaVuSans-20" transform="scale(0.015625)"/>
       <path id="DejaVuSans-48" d="M 628 4666 
L 1259 4666 
L 1259 2753 
L 3553 2753 
L 3553 4666 
L 4184 4666 
L 4184 0 
L 3553 0 
L 3553 2222 
L 1259 2222 
L 1259 0 
L 628 0 
L 628 4666 
z
" transform="scale(0.015625)"/>
       <path id="DejaVuSans-69" d="M 603 3500 
L 1178 3500 
L 1178 0 
L 603 0 
L 603 3500 
z
M 603 4863 
L 1178 4863 
L 1178 4134 
L 603 4134 
L 603 4863 
z
" transform="scale(0.015625)"/>
       <path id="DejaVuSans-73" d="M 2834 3397 
L 2834 2853 
Q 2591 2978 2328 3040 
Q 2066 3103 1784 3103 
Q 1356 3103 1142 2972 
Q 928 2841 928 2578 
Q 928 2378 1081 2264 
Q 1234 2150 1697 2047 
L 1894 2003 
Q 2506 1872 2764 1633 
Q 3022 1394 3022 966 
Q 3022 478 2636 193 
Q 2250 -91 1575 -91 
Q 1294 -91 989 -36 
Q 684 19 347 128 
L 347 722 
Q 666 556 975 473 
Q 1284 391 1588 391 
Q 1994 391 2212 530 
Q 2431 669 2431 922 
Q 2431 1156 2273 1281 
Q 2116 1406 1581 1522 
L 1381 1569 
Q 847 1681 609 1914 
Q 372 2147 372 2553 
Q 372 3047 722 3315 
Q 1072 3584 1716 3584 
Q 2034 3584 2315 3537 
Q 2597 3491 2834 3397 
z
" transform="scale(0.015625)"/>
       <path id="DejaVuSans-74" d="M 1172 4494 
L 1172 3500 
L 2356 3500 
L 2356 3053 
L 1172 3053 
L 1172 1153 
Q 1172 725 1289 603 
Q 1406 481 1766 481 
L 2356 481 
L 2356 0 
L 1766 0 
Q 1100 0 847 248 
Q 594 497 594 1153 
L 594 3053 
L 172 3053 
L 172 3500 
L 594 3500 
L 594 4494 
L 1172 4494 
z
" transform="scale(0.015625)"/>
       <path id="DejaVuSans-43" d="M 4122 4306 
L 4122 3641 
Q 3803 3938 3442 4084 
Q 3081 4231 2675 4231 
Q 1875 4231 1450 3742 
Q 1025 3253 1025 2328 
Q 1025 1406 1450 917 
Q 1875 428 2675 428 
Q 3081 428 3442 575 
Q 3803 722 4122 1019 
L 4122 359 
Q 3791 134 3420 21 
Q 3050 -91 2638 -91 
Q 1578 -91 968 557 
Q 359 1206 359 2328 
Q 359 3453 968 4101 
Q 1578 4750 2638 4750 
Q 3056 4750 3426 4639 
Q 3797 4528 4122 4306 
z
" transform="scale(0.015625)"/>
       <path id="DejaVuSans-75" d="M 544 1381 
L 544 3500 
L 1119 3500 
L 1119 1403 
Q 1119 906 1312 657 
Q 1506 409 1894 409 
Q 2359 409 2629 706 
Q 2900 1003 2900 1516 
L 2900 3500 
L 3475 3500 
L 3475 0 
L 2900 0 
L 2900 538 
Q 2691 219 2414 64 
Q 2138 -91 1772 -91 
Q 1169 -91 856 284 
Q 544 659 544 1381 
z
M 1991 3584 
L 1991 3584 
z
" transform="scale(0.015625)"/>
       <path id="DejaVuSans-6e" d="M 3513 2113 
L 3513 0 
L 2938 0 
L 2938 2094 
Q 2938 2591 2744 2837 
Q 2550 3084 2163 3084 
Q 1697 3084 1428 2787 
Q 1159 2491 1159 1978 
L 1159 0 
L 581 0 
L 581 3500 
L 1159 3500 
L 1159 2956 
Q 1366 3272 1645 3428 
Q 1925 3584 2291 3584 
Q 2894 3584 3203 3211 
Q 3513 2838 3513 2113 
z
" transform="scale(0.015625)"/>
      </defs>
      <use xlink:href="#DejaVuSans-4e"/>
      <use xlink:href="#DejaVuSans-6f" x="74.804688"/>
      <use xlink:href="#DejaVuSans-72" x="135.986328"/>
      <use xlink:href="#DejaVuSans-6d" x="175.349609"/>
      <use xlink:href="#DejaVuSans-65" x="272.761719"/>
      <use xlink:href="#DejaVuSans-64" x="334.285156"/>
      <use xlink:href="#DejaVuSans-20" x="397.761719"/>
      <use xlink:href="#DejaVuSans-48" x="429.548828"/>
      <use xlink:href="#DejaVuSans-69" x="504.744141"/>
      <use xlink:href="#DejaVuSans-73" x="532.527344"/>
      <use xlink:href="#DejaVuSans-74" x="584.626953"/>
      <use xlink:href="#DejaVuSans-20" x="623.835938"/>
      <use xlink:href="#DejaVuSans-43" x="655.623047"/>
      <use xlink:href="#DejaVuSans-6f" x="725.447266"/>
      <use xlink:href="#DejaVuSans-75" x="786.628906"/>
      <use xlink:href="#DejaVuSans-6e" x="850.007812"/>
      <use xlink:href="#DejaVuSans-74" x="913.386719"/>
      <use xlink:href="#DejaVuSans-73" x="952.595703"/>
     </g>
    </g>
   </g>
   <g id="line2d_14">
    <path d="M 137.428059 826.586832 
L 143.594035 825.176226 
L 149.760011 823.284401 
L 155.925987 820.852663 
L 162.091962 817.826874 
L 168.257938 814.157659 
L 174.423914 809.800612 
L 180.58989 804.716492 
L 186.755866 798.871395 
L 192.921842 792.236908 
L 199.087817 784.790231 
L 205.253793 776.514272 
L 211.419769 767.39771 
L 217.585745 757.435019 
L 223.751721 746.626466 
L 229.917697 734.97807 
L 236.083673 722.501523 
L 242.249648 709.214089 
L 248.415624 695.138454 
L 254.5816 680.302558 
L 260.747576 664.739388 
L 266.913552 648.486744 
L 273.079528 631.586978 
L 279.245504 614.086709 
L 285.411479 596.036513 
L 291.577455 577.490592 
L 297.743431 558.506425 
L 310.075383 519.467461 
L 322.407335 479.430865 
L 353.237214 378.547829 
L 365.569165 339.334573 
L 371.735141 320.245023 
L 377.901117 301.58728 
L 384.067093 283.424199 
L 390.233069 265.816286 
L 396.399045 248.821413 
L 402.565021 232.494546 
L 408.730996 216.887505 
L 414.896972 202.048736 
L 421.062948 188.023124 
L 427.228924 174.851814 
L 433.3949 162.572071 
L 439.560876 151.21716 
L 445.726852 140.816257 
L 451.892827 131.394376 
L 458.058803 122.972333 
L 464.224779 115.566732 
L 470.390755 109.189969 
L 476.556731 103.850268 
L 482.722707 99.551738 
L 488.888683 96.294446 
L 495.054658 94.07452 
L 501.220634 92.884261 
L 507.38661 92.712281 
L 513.552586 93.543653 
L 519.718562 95.360078 
L 525.884538 98.140063 
L 532.050513 101.859113 
L 538.216489 106.489931 
L 544.382465 112.002628 
L 550.548441 118.36494 
L 556.714417 125.54245 
L 562.880393 133.498809 
L 569.046369 142.195969 
L 575.212344 151.594407 
L 581.37832 161.653353 
L 587.544296 172.331015 
L 593.710272 183.584803 
L 599.876248 195.37154 
L 606.042224 207.647679 
L 612.2082 220.369506 
L 618.374175 233.493333 
L 624.540151 246.975692 
L 630.706127 260.773507 
L 643.038079 289.146196 
L 655.370031 318.280882 
L 673.867958 362.729027 
L 692.365886 407.214149 
L 704.697837 436.464672 
L 717.029789 465.129853 
L 729.361741 493.017592 
L 741.693692 519.963768 
L 747.859668 533.040072 
L 754.025644 545.831952 
L 760.19162 558.326552 
L 766.357596 570.512627 
L 772.523572 582.380494 
L 778.689548 593.921981 
L 784.855523 605.130374 
L 791.021499 616.000355 
L 797.187475 626.52794 
L 803.353451 636.710416 
L 809.519427 646.546273 
L 815.685403 656.035137 
L 821.851379 665.177697 
L 828.017354 673.975641 
L 834.18333 682.431578 
L 840.349306 690.548978 
L 846.515282 698.332093 
L 852.681258 705.785897 
L 858.847234 712.916012 
L 865.01321 719.728648 
L 871.179185 726.230536 
L 877.345161 732.42887 
L 883.511137 738.331242 
L 889.677113 743.94559 
L 895.843089 749.280143 
L 902.009065 754.343365 
L 908.17504 759.143911 
L 914.341016 763.690578 
L 920.506992 767.992261 
L 926.672968 772.057913 
L 932.838944 775.89651 
L 939.00492 779.517009 
L 945.170896 782.928322 
L 951.336871 786.139285 
L 957.502847 789.158629 
L 963.668823 791.994957 
L 969.834799 794.656724 
L 976.000775 797.152215 
L 982.166751 799.489529 
L 988.332727 801.676566 
L 994.498702 803.72101 
L 1000.664678 805.630323 
L 1006.830654 807.411735 
L 1019.162606 810.61857 
L 1031.494558 813.394476 
L 1043.826509 815.788414 
L 1056.158461 817.845333 
L 1068.490413 819.606222 
L 1080.822364 821.108227 
L 1093.154316 822.38481 
L 1105.486268 823.465937 
L 1117.818219 824.378298 
L 1136.316147 825.481348 
L 1154.814075 826.325419 
L 1173.312002 826.96632 
L 1197.975906 827.58157 
L 1228.805785 828.078303 
L 1265.80164 828.419999 
L 1315.129447 828.638134 
L 1364.457254 828.726502 
L 1364.457254 828.726502 
" clip-path="url(#p23ee69e766)" style="fill: none; stroke: #ff7f0e; stroke-width: 1.5; stroke-linecap: square"/>
   </g>
   <g id="line2d_15">
    <path d="M 137.428059 821.528879 
L 143.594035 819.792478 
L 149.760011 817.733603 
L 155.925987 815.311851 
L 162.091962 812.485081 
L 168.257938 809.209836 
L 174.423914 805.441819 
L 180.58989 801.136436 
L 186.755866 796.249371 
L 192.921842 790.737211 
L 199.087817 784.558094 
L 205.253793 777.67237 
L 211.419769 770.04327 
L 217.585745 761.637568 
L 223.751721 752.426223 
L 229.917697 742.38498 
L 236.083673 731.494944 
L 242.249648 719.743085 
L 248.415624 707.122686 
L 254.5816 693.633722 
L 260.747576 679.283152 
L 266.913552 664.085132 
L 273.079528 648.06114 
L 279.245504 631.240009 
L 285.411479 613.657866 
L 291.577455 595.357984 
L 297.743431 576.390545 
L 303.909407 556.812317 
L 310.075383 536.686258 
L 316.241359 516.081033 
L 328.57331 473.733032 
L 347.071238 408.59824 
L 359.40319 365.12286 
L 371.735141 322.452412 
L 377.901117 301.645158 
L 384.067093 281.307615 
L 390.233069 261.525102 
L 396.399045 242.379791 
L 402.565021 223.950124 
L 408.730996 206.310284 
L 414.896972 189.529712 
L 421.062948 173.672684 
L 427.228924 158.797947 
L 433.3949 144.958415 
L 439.560876 132.200925 
L 445.726852 120.566055 
L 451.892827 110.088005 
L 458.058803 100.794528 
L 464.224779 92.706924 
L 470.390755 85.840089 
L 476.556731 80.202611 
L 482.722707 75.796911 
L 488.888683 72.619435 
L 495.054658 70.660878 
L 501.220634 69.906445 
L 507.38661 70.336145 
L 513.552586 71.925109 
L 519.718562 74.643933 
L 525.884538 78.459029 
L 532.050513 83.333005 
L 538.216489 89.22504 
L 544.382465 96.091272 
L 550.548441 103.885186 
L 556.714417 112.557999 
L 562.880393 122.059043 
L 569.046369 132.336134 
L 575.212344 143.33594 
L 581.37832 155.004329 
L 587.544296 167.286702 
L 593.710272 180.128317 
L 599.876248 193.474585 
L 606.042224 207.271354 
L 612.2082 221.46517 
L 618.374175 236.003518 
L 630.706127 265.909746 
L 643.038079 296.596527 
L 686.19991 405.139997 
L 698.531862 435.270277 
L 710.863813 464.57699 
L 723.195765 492.882287 
L 729.361741 506.613114 
L 735.527717 520.042109 
L 741.693692 533.156231 
L 747.859668 545.944295 
L 754.025644 558.396886 
L 760.19162 570.506276 
L 766.357596 582.266344 
L 772.523572 593.672481 
L 778.689548 604.721506 
L 784.855523 615.411576 
L 791.021499 625.742093 
L 797.187475 635.713618 
L 803.353451 645.327785 
L 809.519427 654.587211 
L 815.685403 663.495414 
L 821.851379 672.056731 
L 828.017354 680.276237 
L 834.18333 688.159672 
L 840.349306 695.713363 
L 846.515282 702.944157 
L 852.681258 709.859354 
L 858.847234 716.466641 
L 865.01321 722.774033 
L 871.179185 728.789819 
L 877.345161 734.522504 
L 883.511137 739.980765 
L 889.677113 745.173399 
L 895.843089 750.109285 
L 902.009065 754.797344 
L 908.17504 759.246499 
L 914.341016 763.465646 
L 920.506992 767.463625 
L 926.672968 771.249186 
L 932.838944 774.830974 
L 939.00492 778.217499 
L 945.170896 781.417122 
L 951.336871 784.438036 
L 957.502847 787.288253 
L 963.668823 789.97559 
L 969.834799 792.50766 
L 976.000775 794.89186 
L 982.166751 797.135369 
L 988.332727 799.24514 
L 994.498702 801.227895 
L 1006.830654 804.838085 
L 1019.162606 808.015055 
L 1031.494558 810.804194 
L 1043.826509 813.24723 
L 1056.158461 815.382333 
L 1068.490413 817.244259 
L 1080.822364 818.864524 
L 1093.154316 820.271583 
L 1105.486268 821.491033 
L 1117.818219 822.545816 
L 1136.316147 823.863436 
L 1154.814075 824.915989 
L 1173.312002 825.753408 
L 1197.975906 826.605754 
L 1222.639809 827.226756 
L 1253.469688 827.767514 
L 1290.465543 828.180456 
L 1339.79335 828.48677 
L 1364.457254 828.576271 
L 1364.457254 828.576271 
" clip-path="url(#p23ee69e766)" style="fill: none; stroke: #2ca02c; stroke-width: 1.5; stroke-linecap: square"/>
   </g>
   <g id="line2d_16">
    <path d="M 137.428059 99.334706 
L 149.760011 121.130079 
L 162.091962 142.274219 
L 174.423914 162.786585 
L 186.755866 182.686053 
L 199.087817 201.990937 
L 211.419769 220.719003 
L 223.751721 238.887485 
L 236.083673 256.513104 
L 248.415624 273.61208 
L 260.747576 290.200148 
L 273.079528 306.292575 
L 285.411479 321.90417 
L 297.743431 337.0493 
L 310.075383 351.741902 
L 322.407335 365.995498 
L 334.739286 379.823205 
L 347.071238 393.237748 
L 359.40319 406.251473 
L 371.735141 418.876355 
L 384.067093 431.124014 
L 396.399045 443.00572 
L 408.730996 454.532407 
L 421.062948 465.714684 
L 433.3949 476.562841 
L 445.726852 487.086861 
L 458.058803 497.29643 
L 470.390755 507.200944 
L 482.722707 516.809516 
L 495.054658 526.13099 
L 507.38661 535.173943 
L 519.718562 543.946699 
L 532.050513 552.45733 
L 544.382465 560.713668 
L 556.714417 568.723312 
L 569.046369 576.493633 
L 581.37832 584.031781 
L 593.710272 591.344693 
L 606.042224 598.4391 
L 618.374175 605.321531 
L 630.706127 611.998318 
L 643.038079 618.475607 
L 655.370031 624.759359 
L 667.701982 630.855355 
L 680.033934 636.769207 
L 692.365886 642.506357 
L 704.697837 648.072084 
L 717.029789 653.47151 
L 735.527717 661.269665 
L 754.025644 668.720937 
L 772.523572 675.840758 
L 791.021499 682.64387 
L 809.519427 689.144361 
L 828.017354 695.355694 
L 846.515282 701.29073 
L 865.01321 706.96176 
L 883.511137 712.380528 
L 902.009065 717.558255 
L 920.506992 722.505663 
L 939.00492 727.232997 
L 957.502847 731.750047 
L 976.000775 736.066166 
L 994.498702 740.190294 
L 1012.99663 744.130969 
L 1031.494558 747.896353 
L 1056.158461 752.657615 
L 1080.822364 757.138601 
L 1105.486268 761.355809 
L 1130.150171 765.324767 
L 1154.814075 769.060088 
L 1179.477978 772.575525 
L 1204.141881 775.884023 
L 1228.805785 778.997762 
L 1259.635664 782.633459 
L 1290.465543 786.00363 
L 1321.295423 789.127667 
L 1352.125302 792.023547 
L 1364.457254 793.12179 
L 1364.457254 793.12179 
" clip-path="url(#p23ee69e766)" style="fill: none; stroke: #d62728; stroke-width: 1.5; stroke-linecap: square"/>
   </g>
   <g id="line2d_17">
    <path d="M 137.428059 773.827931 
L 143.594035 771.126366 
L 149.760011 768.291984 
L 155.925987 765.318256 
L 162.091962 762.198332 
L 168.257938 758.925023 
L 174.423914 755.49079 
L 180.58989 751.88772 
L 186.755866 748.107513 
L 192.921842 744.14146 
L 199.087817 739.980426 
L 205.253793 735.614823 
L 211.419769 731.034596 
L 217.585745 726.229192 
L 223.751721 721.18754 
L 229.917697 715.898028 
L 236.083673 710.348468 
L 242.249648 704.526076 
L 248.415624 698.41744 
L 254.5816 692.008485 
L 260.747576 685.284449 
L 266.913552 678.229841 
L 273.079528 670.828409 
L 279.245504 663.063102 
L 285.411479 654.91603 
L 291.577455 646.368426 
L 297.743431 637.400599 
L 303.909407 627.991888 
L 310.075383 618.120618 
L 316.241359 607.76405 
L 322.407335 596.898324 
L 328.57331 585.498409 
L 334.739286 573.538042 
L 340.905262 560.989671 
L 347.071238 547.824387 
L 353.237214 534.011861 
L 359.40319 519.520273 
L 365.569165 504.316238 
L 371.735141 488.364731 
L 377.901117 471.629004 
L 384.067093 454.070502 
L 390.233069 435.648775 
L 396.399045 416.321385 
L 402.565021 396.043807 
L 408.730996 374.769327 
L 414.896972 352.448935 
L 421.062948 329.031211 
L 427.228924 304.462206 
L 433.3949 278.68532 
L 439.560876 251.641172 
L 445.726852 223.267458 
L 451.892827 193.498814 
L 458.058803 162.266661 
L 464.224779 129.499049 
L 470.390755 95.12049 
L 476.556731 59.051786 
L 482.722707 21.209844 
L 486.172007 -1 
M 572.9535 -1 
L 575.212344 13.680176 
L 581.37832 51.874951 
L 587.544296 88.279955 
L 593.710272 122.979054 
L 599.876248 156.052188 
L 606.042224 187.575545 
L 612.2082 217.621748 
L 618.374175 246.260014 
L 624.540151 273.556318 
L 630.706127 299.573544 
L 636.872103 324.371627 
L 643.038079 348.007695 
L 649.204055 370.536199 
L 655.370031 392.00904 
L 661.536006 412.475683 
L 667.701982 431.983279 
L 673.867958 450.576767 
L 680.033934 468.298982 
L 686.19991 485.190751 
L 692.365886 501.290988 
L 698.531862 516.636783 
L 704.697837 531.263489 
L 710.863813 545.204801 
L 717.029789 558.492836 
L 723.195765 571.158207 
L 729.361741 583.23009 
L 735.527717 594.736297 
L 741.693692 605.703333 
L 747.859668 616.156465 
L 754.025644 626.119772 
L 760.19162 635.616209 
L 766.357596 644.667652 
L 772.523572 653.294952 
L 778.689548 661.517986 
L 784.855523 669.355696 
L 791.021499 676.826138 
L 797.187475 683.946522 
L 803.353451 690.733252 
L 809.519427 697.201963 
L 815.685403 703.367555 
L 821.851379 709.244234 
L 828.017354 714.845537 
L 834.18333 720.184369 
L 840.349306 725.273028 
L 846.515282 730.123237 
L 852.681258 734.74617 
L 858.847234 739.152477 
L 865.01321 743.352308 
L 871.179185 747.355339 
L 877.345161 751.170792 
L 883.511137 754.807457 
L 889.677113 758.273711 
L 895.843089 761.577539 
L 902.009065 764.726553 
L 908.17504 767.728008 
L 914.341016 770.588817 
L 920.506992 773.315571 
L 926.672968 775.914552 
L 939.00492 780.752864 
L 951.336871 785.148362 
L 963.668823 789.141574 
L 976.000775 792.769318 
L 988.332727 796.065043 
L 1000.664678 799.059135 
L 1012.99663 801.7792 
L 1025.328582 804.250319 
L 1037.660533 806.495276 
L 1049.992485 808.534768 
L 1062.324437 810.387602 
L 1074.656388 812.07086 
L 1093.154316 814.31135 
L 1111.652244 816.251407 
L 1130.150171 817.931317 
L 1148.648099 819.385962 
L 1167.146026 820.645551 
L 1191.80993 822.066272 
L 1216.473833 823.238839 
L 1241.137737 824.206595 
L 1271.967616 825.182164 
L 1302.797495 825.949602 
L 1339.79335 826.657624 
L 1364.457254 827.028227 
L 1364.457254 827.028227 
" clip-path="url(#p23ee69e766)" style="fill: none; stroke: #9467bd; stroke-width: 1.5; stroke-linecap: square"/>
   </g>
   <g id="line2d_18">
    <path d="M 137.428059 819.745628 
L 143.594035 817.880098 
L 149.760011 815.706218 
L 155.925987 813.188034 
L 162.091962 810.287898 
L 168.257938 806.96677 
L 174.423914 803.184566 
L 180.58989 798.900569 
L 186.755866 794.073881 
L 192.921842 788.663926 
L 199.087817 782.630986 
L 205.253793 775.936773 
L 211.419769 768.545018 
L 217.585745 760.422074 
L 223.751721 751.537524 
L 229.917697 741.864779 
L 236.083673 731.381657 
L 242.249648 720.070928 
L 248.415624 707.920832 
L 254.5816 694.925528 
L 260.747576 681.085501 
L 266.913552 666.407887 
L 273.079528 650.906734 
L 279.245504 634.603175 
L 285.411479 617.525522 
L 291.577455 599.709262 
L 297.743431 581.196977 
L 303.909407 562.038163 
L 310.075383 542.28897 
L 316.241359 522.01185 
L 328.57331 480.152535 
L 340.905262 437.067937 
L 365.569165 349.964526 
L 377.901117 307.403793 
L 384.067093 286.694157 
L 390.233069 266.485343 
L 396.399045 246.864674 
L 402.565021 227.916309 
L 408.730996 209.72061 
L 414.896972 192.353547 
L 421.062948 175.886175 
L 427.228924 160.384159 
L 433.3949 145.907364 
L 439.560876 132.509512 
L 445.726852 120.237907 
L 451.892827 109.133222 
L 458.058803 99.229359 
L 464.224779 90.553369 
L 470.390755 83.125441 
L 476.556731 76.958947 
L 482.722707 72.060547 
L 488.888683 68.430347 
L 495.054658 66.062107 
L 501.220634 64.943492 
L 507.38661 65.056367 
L 513.552586 66.377121 
L 519.718562 68.877025 
L 525.884538 72.522615 
L 532.050513 77.276089 
L 538.216489 83.095728 
L 544.382465 89.936317 
L 550.548441 97.749577 
L 556.714417 106.484594 
L 562.880393 116.088252 
L 569.046369 126.505649 
L 575.212344 137.680509 
L 581.37832 149.555582 
L 587.544296 162.073022 
L 593.710272 175.174752 
L 599.876248 188.802807 
L 606.042224 202.899654 
L 612.2082 217.408491 
L 618.374175 232.273523 
L 630.706127 262.855491 
L 643.038079 294.228174 
L 686.19991 404.974046 
L 698.531862 435.619357 
L 710.863813 465.374682 
L 717.029789 479.86048 
L 723.195765 494.058673 
L 729.361741 507.952272 
L 735.527717 521.526429 
L 741.693692 534.768352 
L 747.859668 547.667217 
L 754.025644 560.214074 
L 760.19162 572.401755 
L 766.357596 584.224774 
L 772.523572 595.679222 
L 778.689548 606.762677 
L 784.855523 617.474093 
L 791.021499 627.813705 
L 797.187475 637.782931 
L 803.353451 647.384272 
L 809.519427 656.621221 
L 815.685403 665.498168 
L 821.851379 674.020313 
L 828.017354 682.193578 
L 834.18333 690.024529 
L 840.349306 697.520296 
L 846.515282 704.688496 
L 852.681258 711.537166 
L 858.847234 718.074695 
L 865.01321 724.309764 
L 871.179185 730.251283 
L 877.345161 735.908343 
L 883.511137 741.29016 
L 889.677113 746.406033 
L 895.843089 751.265298 
L 902.009065 755.877291 
L 908.17504 760.251314 
L 914.341016 764.396598 
L 920.506992 768.322282 
L 926.672968 772.037377 
L 932.838944 775.550756 
L 939.00492 778.871121 
L 945.170896 782.006995 
L 951.336871 784.966703 
L 957.502847 787.758362 
L 963.668823 790.389866 
L 969.834799 792.868883 
L 976.000775 795.202843 
L 982.166751 797.398938 
L 988.332727 799.464114 
L 994.498702 801.405073 
L 1006.830654 804.939906 
L 1019.162606 808.052119 
L 1031.494558 810.786511 
L 1043.826509 813.184105 
L 1056.158461 815.282294 
L 1068.490413 817.115022 
L 1080.822364 818.712973 
L 1093.154316 820.103783 
L 1105.486268 821.312259 
L 1123.984195 822.830971 
L 1142.482123 824.053765 
L 1160.98005 825.035007 
L 1179.477978 825.819908 
L 1204.141881 826.624666 
L 1228.805785 827.21684 
L 1259.635664 827.739215 
L 1296.631519 828.145613 
L 1345.959326 828.455587 
L 1364.457254 828.528417 
L 1364.457254 828.528417 
" clip-path="url(#p23ee69e766)" style="fill: none; stroke: #8c564b; stroke-width: 1.5; stroke-linecap: square"/>
   </g>
   <g id="line2d_19">
    <path d="M 137.428059 797.25162 
L 143.594035 794.08061 
L 149.760011 790.64699 
L 155.925987 786.935401 
L 162.091962 782.930269 
L 168.257938 778.615877 
L 174.423914 773.976448 
L 180.58989 768.996241 
L 186.755866 763.659643 
L 192.921842 757.951287 
L 199.087817 751.856159 
L 205.253793 745.35973 
L 211.419769 738.44808 
L 217.585745 731.108039 
L 223.751721 723.327328 
L 229.917697 715.094708 
L 236.083673 706.400131 
L 242.249648 697.234893 
L 248.415624 687.591794 
L 254.5816 677.465291 
L 260.747576 666.851655 
L 266.913552 655.749121 
L 273.079528 644.158042 
L 279.245504 632.081027 
L 285.411479 619.523077 
L 291.577455 606.491714 
L 297.743431 592.997092 
L 303.909407 579.052102 
L 310.075383 564.672459 
L 316.241359 549.876772 
L 322.407335 534.6866 
L 328.57331 519.126485 
L 334.739286 503.223968 
L 347.071238 470.516799 
L 359.40319 436.844461 
L 377.901117 385.247162 
L 396.399045 333.480516 
L 408.730996 299.574621 
L 421.062948 266.676093 
L 427.228924 250.748809 
L 433.3949 235.246907 
L 439.560876 220.228135 
L 445.726852 205.74958 
L 451.892827 191.867311 
L 458.058803 178.636021 
L 464.224779 166.108668 
L 470.390755 154.336124 
L 476.556731 143.366833 
L 482.722707 133.24648 
L 488.888683 124.017672 
L 495.054658 115.719643 
L 501.220634 108.387973 
L 507.38661 102.054336 
L 513.552586 96.746272 
L 519.718562 92.486986 
L 525.884538 89.295181 
L 532.050513 87.184919 
L 538.216489 86.165522 
L 544.382465 86.241497 
L 550.548441 87.412509 
L 556.714417 89.673378 
L 562.880393 93.014123 
L 569.046369 97.42003 
L 575.212344 102.871763 
L 581.37832 109.345505 
L 587.544296 116.813132 
L 593.710272 125.242412 
L 599.876248 134.597244 
L 606.042224 144.837909 
L 612.2082 155.921355 
L 618.374175 167.801496 
L 624.540151 180.42953 
L 630.706127 193.754275 
L 636.872103 207.722513 
L 643.038079 222.279337 
L 649.204055 237.368517 
L 655.370031 252.932852 
L 661.536006 268.91453 
L 673.867958 301.897719 
L 686.19991 335.856545 
L 729.361741 456.115125 
L 741.693692 489.274921 
L 747.859668 505.448007 
L 754.025644 521.30481 
L 760.19162 536.815212 
L 766.357596 551.952091 
L 772.523572 566.691319 
L 778.689548 581.011748 
L 784.855523 594.895173 
L 791.021499 608.326276 
L 797.187475 621.292552 
L 803.353451 633.784216 
L 809.519427 645.794105 
L 815.685403 657.317557 
L 821.851379 668.352282 
L 828.017354 678.898232 
L 834.18333 688.957451 
L 840.349306 698.53393 
L 846.515282 707.63345 
L 852.681258 716.263431 
L 858.847234 724.432771 
L 865.01321 732.151692 
L 871.179185 739.431587 
L 877.345161 746.284867 
L 883.511137 752.724814 
L 889.677113 758.76544 
L 895.843089 764.421351 
L 902.009065 769.707615 
L 908.17504 774.639641 
L 914.341016 779.233065 
L 920.506992 783.503641 
L 926.672968 787.46714 
L 932.838944 791.139267 
L 939.00492 794.535568 
L 945.170896 797.671367 
L 951.336871 800.561691 
L 957.502847 803.221219 
L 963.668823 805.664228 
L 969.834799 807.904552 
L 976.000775 809.955547 
L 982.166751 811.830063 
L 988.332727 813.54042 
L 994.498702 815.098392 
L 1000.664678 816.515198 
L 1006.830654 817.801494 
L 1019.162606 820.022368 
L 1031.494558 821.835069 
L 1043.826509 823.304956 
L 1056.158461 824.48912 
L 1068.490413 825.43693 
L 1080.822364 826.190678 
L 1099.320292 827.034359 
L 1117.818219 827.618599 
L 1142.482123 828.119128 
L 1173.312002 828.463888 
L 1216.473833 828.673926 
L 1290.465543 828.765758 
L 1364.457254 828.777953 
L 1364.457254 828.777953 
" clip-path="url(#p23ee69e766)" style="fill: none; stroke: #e377c2; stroke-width: 1.5; stroke-linecap: square"/>
   </g>
   <g id="patch_103">
    <path d="M 72.685313 828.779375 
L 72.685313 38.075625 
" style="fill: none; stroke: #000000; stroke-width: 0.8; stroke-linejoin: miter; stroke-linecap: square"/>
   </g>
   <g id="patch_104">
    <path d="M 1429.2 828.779375 
L 1429.2 38.075625 
" style="fill: none; stroke: #000000; stroke-width: 0.8; stroke-linejoin: miter; stroke-linecap: square"/>
   </g>
   <g id="patch_105">
    <path d="M 72.685313 828.779375 
L 1429.2 828.779375 
" style="fill: none; stroke: #000000; stroke-width: 0.8; stroke-linejoin: miter; stroke-linecap: square"/>
   </g>
   <g id="patch_106">
    <path d="M 72.685313 38.075625 
L 1429.2 38.075625 
" style="fill: none; stroke: #000000; stroke-width: 0.8; stroke-linejoin: miter; stroke-linecap: square"/>
   </g>
   <g id="text_15">
    <!-- All Fitted Distributions -->
    <g transform="translate(596.317031 32.075625) scale(0.28 -0.28)">
     <defs>
      <path id="DejaVuSans-41" d="M 2188 4044 
L 1331 1722 
L 3047 1722 
L 2188 4044 
z
M 1831 4666 
L 2547 4666 
L 4325 0 
L 3669 0 
L 3244 1197 
L 1141 1197 
L 716 0 
L 50 0 
L 1831 4666 
z
" transform="scale(0.015625)"/>
      <path id="DejaVuSans-6c" d="M 603 4863 
L 1178 4863 
L 1178 0 
L 603 0 
L 603 4863 
z
" transform="scale(0.015625)"/>
      <path id="DejaVuSans-46" d="M 628 4666 
L 3309 4666 
L 3309 4134 
L 1259 4134 
L 1259 2759 
L 3109 2759 
L 3109 2228 
L 1259 2228 
L 1259 0 
L 628 0 
L 628 4666 
z
" transform="scale(0.015625)"/>
      <path id="DejaVuSans-44" d="M 1259 4147 
L 1259 519 
L 2022 519 
Q 2988 519 3436 956 
Q 3884 1394 3884 2338 
Q 3884 3275 3436 3711 
Q 2988 4147 2022 4147 
L 1259 4147 
z
M 628 4666 
L 1925 4666 
Q 3281 4666 3915 4102 
Q 4550 3538 4550 2338 
Q 4550 1131 3912 565 
Q 3275 0 1925 0 
L 628 0 
L 628 4666 
z
" transform="scale(0.015625)"/>
      <path id="DejaVuSans-62" d="M 3116 1747 
Q 3116 2381 2855 2742 
Q 2594 3103 2138 3103 
Q 1681 3103 1420 2742 
Q 1159 2381 1159 1747 
Q 1159 1113 1420 752 
Q 1681 391 2138 391 
Q 2594 391 2855 752 
Q 3116 1113 3116 1747 
z
M 1159 2969 
Q 1341 3281 1617 3432 
Q 1894 3584 2278 3584 
Q 2916 3584 3314 3078 
Q 3713 2572 3713 1747 
Q 3713 922 3314 415 
Q 2916 -91 2278 -91 
Q 1894 -91 1617 61 
Q 1341 213 1159 525 
L 1159 0 
L 581 0 
L 581 4863 
L 1159 4863 
L 1159 2969 
z
" transform="scale(0.015625)"/>
     </defs>
     <use xlink:href="#DejaVuSans-41"/>
     <use xlink:href="#DejaVuSans-6c" x="68.408203"/>
     <use xlink:href="#DejaVuSans-6c" x="96.191406"/>
     <use xlink:href="#DejaVuSans-20" x="123.974609"/>
     <use xlink:href="#DejaVuSans-46" x="155.761719"/>
     <use xlink:href="#DejaVuSans-69" x="206.03125"/>
     <use xlink:href="#DejaVuSans-74" x="233.814453"/>
     <use xlink:href="#DejaVuSans-74" x="273.023438"/>
     <use xlink:href="#DejaVuSans-65" x="312.232422"/>
     <use xlink:href="#DejaVuSans-64" x="373.755859"/>
     <use xlink:href="#DejaVuSans-20" x="437.232422"/>
     <use xlink:href="#DejaVuSans-44" x="469.019531"/>
     <use xlink:href="#DejaVuSans-69" x="546.021484"/>
     <use xlink:href="#DejaVuSans-73" x="573.804688"/>
     <use xlink:href="#DejaVuSans-74" x="625.904297"/>
     <use xlink:href="#DejaVuSans-72" x="665.113281"/>
     <use xlink:href="#DejaVuSans-69" x="706.226562"/>
     <use xlink:href="#DejaVuSans-62" x="734.009766"/>
     <use xlink:href="#DejaVuSans-75" x="797.486328"/>
     <use xlink:href="#DejaVuSans-74" x="860.865234"/>
     <use xlink:href="#DejaVuSans-69" x="900.074219"/>
     <use xlink:href="#DejaVuSans-6f" x="927.857422"/>
     <use xlink:href="#DejaVuSans-6e" x="989.039062"/>
     <use xlink:href="#DejaVuSans-73" x="1052.417969"/>
    </g>
   </g>
   <g id="legend_1">
    <g id="patch_107">
     <path d="M 1014.37125 303.868125 
L 1412.4 303.868125 
Q 1417.2 303.868125 1417.2 299.068125 
L 1417.2 54.875625 
Q 1417.2 50.075625 1412.4 50.075625 
L 1014.37125 50.075625 
Q 1009.57125 50.075625 1009.57125 54.875625 
L 1009.57125 299.068125 
Q 1009.57125 303.868125 1014.37125 303.868125 
z
" style="fill: #ffffff; opacity: 0.8; stroke: #cccccc; stroke-linejoin: miter"/>
    </g>
    <g id="patch_108">
     <path d="M 1019.17125 77.911875 
L 1067.17125 77.911875 
L 1067.17125 61.111875 
L 1019.17125 61.111875 
z
" style="fill: #1f77b4; opacity: 0.6"/>
    </g>
    <g id="text_16">
     <!-- Generated Chi Distribution -->
     <g transform="translate(1086.37125 77.911875) scale(0.24 -0.24)">
      <defs>
       <path id="DejaVuSans-47" d="M 3809 666 
L 3809 1919 
L 2778 1919 
L 2778 2438 
L 4434 2438 
L 4434 434 
Q 4069 175 3628 42 
Q 3188 -91 2688 -91 
Q 1594 -91 976 548 
Q 359 1188 359 2328 
Q 359 3472 976 4111 
Q 1594 4750 2688 4750 
Q 3144 4750 3555 4637 
Q 3966 4525 4313 4306 
L 4313 3634 
Q 3963 3931 3569 4081 
Q 3175 4231 2741 4231 
Q 1884 4231 1454 3753 
Q 1025 3275 1025 2328 
Q 1025 1384 1454 906 
Q 1884 428 2741 428 
Q 3075 428 3337 486 
Q 3600 544 3809 666 
z
" transform="scale(0.015625)"/>
       <path id="DejaVuSans-61" d="M 2194 1759 
Q 1497 1759 1228 1600 
Q 959 1441 959 1056 
Q 959 750 1161 570 
Q 1363 391 1709 391 
Q 2188 391 2477 730 
Q 2766 1069 2766 1631 
L 2766 1759 
L 2194 1759 
z
M 3341 1997 
L 3341 0 
L 2766 0 
L 2766 531 
Q 2569 213 2275 61 
Q 1981 -91 1556 -91 
Q 1019 -91 701 211 
Q 384 513 384 1019 
Q 384 1609 779 1909 
Q 1175 2209 1959 2209 
L 2766 2209 
L 2766 2266 
Q 2766 2663 2505 2880 
Q 2244 3097 1772 3097 
Q 1472 3097 1187 3025 
Q 903 2953 641 2809 
L 641 3341 
Q 956 3463 1253 3523 
Q 1550 3584 1831 3584 
Q 2591 3584 2966 3190 
Q 3341 2797 3341 1997 
z
" transform="scale(0.015625)"/>
       <path id="DejaVuSans-68" d="M 3513 2113 
L 3513 0 
L 2938 0 
L 2938 2094 
Q 2938 2591 2744 2837 
Q 2550 3084 2163 3084 
Q 1697 3084 1428 2787 
Q 1159 2491 1159 1978 
L 1159 0 
L 581 0 
L 581 4863 
L 1159 4863 
L 1159 2956 
Q 1366 3272 1645 3428 
Q 1925 3584 2291 3584 
Q 2894 3584 3203 3211 
Q 3513 2838 3513 2113 
z
" transform="scale(0.015625)"/>
      </defs>
      <use xlink:href="#DejaVuSans-47"/>
      <use xlink:href="#DejaVuSans-65" x="77.490234"/>
      <use xlink:href="#DejaVuSans-6e" x="139.013672"/>
      <use xlink:href="#DejaVuSans-65" x="202.392578"/>
      <use xlink:href="#DejaVuSans-72" x="263.916016"/>
      <use xlink:href="#DejaVuSans-61" x="305.029297"/>
      <use xlink:href="#DejaVuSans-74" x="366.308594"/>
      <use xlink:href="#DejaVuSans-65" x="405.517578"/>
      <use xlink:href="#DejaVuSans-64" x="467.041016"/>
      <use xlink:href="#DejaVuSans-20" x="530.517578"/>
      <use xlink:href="#DejaVuSans-43" x="562.304688"/>
      <use xlink:href="#DejaVuSans-68" x="632.128906"/>
      <use xlink:href="#DejaVuSans-69" x="695.507812"/>
      <use xlink:href="#DejaVuSans-20" x="723.291016"/>
      <use xlink:href="#DejaVuSans-44" x="755.078125"/>
      <use xlink:href="#DejaVuSans-69" x="832.080078"/>
      <use xlink:href="#DejaVuSans-73" x="859.863281"/>
      <use xlink:href="#DejaVuSans-74" x="911.962891"/>
      <use xlink:href="#DejaVuSans-72" x="951.171875"/>
      <use xlink:href="#DejaVuSans-69" x="992.285156"/>
      <use xlink:href="#DejaVuSans-62" x="1020.068359"/>
      <use xlink:href="#DejaVuSans-75" x="1083.544922"/>
      <use xlink:href="#DejaVuSans-74" x="1146.923828"/>
      <use xlink:href="#DejaVuSans-69" x="1186.132812"/>
      <use xlink:href="#DejaVuSans-6f" x="1213.916016"/>
      <use xlink:href="#DejaVuSans-6e" x="1275.097656"/>
     </g>
    </g>
    <g id="line2d_20">
     <path d="M 1019.17125 104.739375 
L 1043.17125 104.739375 
L 1067.17125 104.739375 
" style="fill: none; stroke: #ff7f0e; stroke-width: 1.5; stroke-linecap: square"/>
    </g>
    <g id="text_17">
     <!-- Chi fit -->
     <g transform="translate(1086.37125 113.139375) scale(0.24 -0.24)">
      <defs>
       <path id="DejaVuSans-66" d="M 2375 4863 
L 2375 4384 
L 1825 4384 
Q 1516 4384 1395 4259 
Q 1275 4134 1275 3809 
L 1275 3500 
L 2222 3500 
L 2222 3053 
L 1275 3053 
L 1275 0 
L 697 0 
L 697 3053 
L 147 3053 
L 147 3500 
L 697 3500 
L 697 3744 
Q 697 4328 969 4595 
Q 1241 4863 1831 4863 
L 2375 4863 
z
" transform="scale(0.015625)"/>
      </defs>
      <use xlink:href="#DejaVuSans-43"/>
      <use xlink:href="#DejaVuSans-68" x="69.824219"/>
      <use xlink:href="#DejaVuSans-69" x="133.203125"/>
      <use xlink:href="#DejaVuSans-20" x="160.986328"/>
      <use xlink:href="#DejaVuSans-66" x="192.773438"/>
      <use xlink:href="#DejaVuSans-69" x="227.978516"/>
      <use xlink:href="#DejaVuSans-74" x="255.761719"/>
     </g>
    </g>
    <g id="line2d_21">
     <path d="M 1019.17125 139.966875 
L 1043.17125 139.966875 
L 1067.17125 139.966875 
" style="fill: none; stroke: #2ca02c; stroke-width: 1.5; stroke-linecap: square"/>
    </g>
    <g id="text_18">
     <!-- Chi-Square fit -->
     <g transform="translate(1086.37125 148.366875) scale(0.24 -0.24)">
      <defs>
       <path id="DejaVuSans-2d" d="M 313 2009 
L 1997 2009 
L 1997 1497 
L 313 1497 
L 313 2009 
z
" transform="scale(0.015625)"/>
       <path id="DejaVuSans-53" d="M 3425 4513 
L 3425 3897 
Q 3066 4069 2747 4153 
Q 2428 4238 2131 4238 
Q 1616 4238 1336 4038 
Q 1056 3838 1056 3469 
Q 1056 3159 1242 3001 
Q 1428 2844 1947 2747 
L 2328 2669 
Q 3034 2534 3370 2195 
Q 3706 1856 3706 1288 
Q 3706 609 3251 259 
Q 2797 -91 1919 -91 
Q 1588 -91 1214 -16 
Q 841 59 441 206 
L 441 856 
Q 825 641 1194 531 
Q 1563 422 1919 422 
Q 2459 422 2753 634 
Q 3047 847 3047 1241 
Q 3047 1584 2836 1778 
Q 2625 1972 2144 2069 
L 1759 2144 
Q 1053 2284 737 2584 
Q 422 2884 422 3419 
Q 422 4038 858 4394 
Q 1294 4750 2059 4750 
Q 2388 4750 2728 4690 
Q 3069 4631 3425 4513 
z
" transform="scale(0.015625)"/>
       <path id="DejaVuSans-71" d="M 947 1747 
Q 947 1113 1208 752 
Q 1469 391 1925 391 
Q 2381 391 2643 752 
Q 2906 1113 2906 1747 
Q 2906 2381 2643 2742 
Q 2381 3103 1925 3103 
Q 1469 3103 1208 2742 
Q 947 2381 947 1747 
z
M 2906 525 
Q 2725 213 2448 61 
Q 2172 -91 1784 -91 
Q 1150 -91 751 415 
Q 353 922 353 1747 
Q 353 2572 751 3078 
Q 1150 3584 1784 3584 
Q 2172 3584 2448 3432 
Q 2725 3281 2906 2969 
L 2906 3500 
L 3481 3500 
L 3481 -1331 
L 2906 -1331 
L 2906 525 
z
" transform="scale(0.015625)"/>
      </defs>
      <use xlink:href="#DejaVuSans-43"/>
      <use xlink:href="#DejaVuSans-68" x="69.824219"/>
      <use xlink:href="#DejaVuSans-69" x="133.203125"/>
      <use xlink:href="#DejaVuSans-2d" x="160.986328"/>
      <use xlink:href="#DejaVuSans-53" x="197.070312"/>
      <use xlink:href="#DejaVuSans-71" x="260.546875"/>
      <use xlink:href="#DejaVuSans-75" x="324.023438"/>
      <use xlink:href="#DejaVuSans-61" x="387.402344"/>
      <use xlink:href="#DejaVuSans-72" x="448.681641"/>
      <use xlink:href="#DejaVuSans-65" x="487.544922"/>
      <use xlink:href="#DejaVuSans-20" x="549.068359"/>
      <use xlink:href="#DejaVuSans-66" x="580.855469"/>
      <use xlink:href="#DejaVuSans-69" x="616.060547"/>
      <use xlink:href="#DejaVuSans-74" x="643.84375"/>
     </g>
    </g>
    <g id="line2d_22">
     <path d="M 1019.17125 175.194375 
L 1043.17125 175.194375 
L 1067.17125 175.194375 
" style="fill: none; stroke: #d62728; stroke-width: 1.5; stroke-linecap: square"/>
    </g>
    <g id="text_19">
     <!-- Exponential fit -->
     <g transform="translate(1086.37125 183.594375) scale(0.24 -0.24)">
      <defs>
       <path id="DejaVuSans-45" d="M 628 4666 
L 3578 4666 
L 3578 4134 
L 1259 4134 
L 1259 2753 
L 3481 2753 
L 3481 2222 
L 1259 2222 
L 1259 531 
L 3634 531 
L 3634 0 
L 628 0 
L 628 4666 
z
" transform="scale(0.015625)"/>
       <path id="DejaVuSans-78" d="M 3513 3500 
L 2247 1797 
L 3578 0 
L 2900 0 
L 1881 1375 
L 863 0 
L 184 0 
L 1544 1831 
L 300 3500 
L 978 3500 
L 1906 2253 
L 2834 3500 
L 3513 3500 
z
" transform="scale(0.015625)"/>
       <path id="DejaVuSans-70" d="M 1159 525 
L 1159 -1331 
L 581 -1331 
L 581 3500 
L 1159 3500 
L 1159 2969 
Q 1341 3281 1617 3432 
Q 1894 3584 2278 3584 
Q 2916 3584 3314 3078 
Q 3713 2572 3713 1747 
Q 3713 922 3314 415 
Q 2916 -91 2278 -91 
Q 1894 -91 1617 61 
Q 1341 213 1159 525 
z
M 3116 1747 
Q 3116 2381 2855 2742 
Q 2594 3103 2138 3103 
Q 1681 3103 1420 2742 
Q 1159 2381 1159 1747 
Q 1159 1113 1420 752 
Q 1681 391 2138 391 
Q 2594 391 2855 752 
Q 3116 1113 3116 1747 
z
" transform="scale(0.015625)"/>
      </defs>
      <use xlink:href="#DejaVuSans-45"/>
      <use xlink:href="#DejaVuSans-78" x="63.183594"/>
      <use xlink:href="#DejaVuSans-70" x="122.363281"/>
      <use xlink:href="#DejaVuSans-6f" x="185.839844"/>
      <use xlink:href="#DejaVuSans-6e" x="247.021484"/>
      <use xlink:href="#DejaVuSans-65" x="310.400391"/>
      <use xlink:href="#DejaVuSans-6e" x="371.923828"/>
      <use xlink:href="#DejaVuSans-74" x="435.302734"/>
      <use xlink:href="#DejaVuSans-69" x="474.511719"/>
      <use xlink:href="#DejaVuSans-61" x="502.294922"/>
      <use xlink:href="#DejaVuSans-6c" x="563.574219"/>
      <use xlink:href="#DejaVuSans-20" x="591.357422"/>
      <use xlink:href="#DejaVuSans-66" x="623.144531"/>
      <use xlink:href="#DejaVuSans-69" x="658.349609"/>
      <use xlink:href="#DejaVuSans-74" x="686.132812"/>
     </g>
    </g>
    <g id="line2d_23">
     <path d="M 1019.17125 210.421875 
L 1043.17125 210.421875 
L 1067.17125 210.421875 
" style="fill: none; stroke: #9467bd; stroke-width: 1.5; stroke-linecap: square"/>
    </g>
    <g id="text_20">
     <!-- Laplace fit -->
     <g transform="translate(1086.37125 218.821875) scale(0.24 -0.24)">
      <defs>
       <path id="DejaVuSans-4c" d="M 628 4666 
L 1259 4666 
L 1259 531 
L 3531 531 
L 3531 0 
L 628 0 
L 628 4666 
z
" transform="scale(0.015625)"/>
       <path id="DejaVuSans-63" d="M 3122 3366 
L 3122 2828 
Q 2878 2963 2633 3030 
Q 2388 3097 2138 3097 
Q 1578 3097 1268 2742 
Q 959 2388 959 1747 
Q 959 1106 1268 751 
Q 1578 397 2138 397 
Q 2388 397 2633 464 
Q 2878 531 3122 666 
L 3122 134 
Q 2881 22 2623 -34 
Q 2366 -91 2075 -91 
Q 1284 -91 818 406 
Q 353 903 353 1747 
Q 353 2603 823 3093 
Q 1294 3584 2113 3584 
Q 2378 3584 2631 3529 
Q 2884 3475 3122 3366 
z
" transform="scale(0.015625)"/>
      </defs>
      <use xlink:href="#DejaVuSans-4c"/>
      <use xlink:href="#DejaVuSans-61" x="55.712891"/>
      <use xlink:href="#DejaVuSans-70" x="116.992188"/>
      <use xlink:href="#DejaVuSans-6c" x="180.46875"/>
      <use xlink:href="#DejaVuSans-61" x="208.251953"/>
      <use xlink:href="#DejaVuSans-63" x="269.53125"/>
      <use xlink:href="#DejaVuSans-65" x="324.511719"/>
      <use xlink:href="#DejaVuSans-20" x="386.035156"/>
      <use xlink:href="#DejaVuSans-66" x="417.822266"/>
      <use xlink:href="#DejaVuSans-69" x="453.027344"/>
      <use xlink:href="#DejaVuSans-74" x="480.810547"/>
     </g>
    </g>
    <g id="line2d_24">
     <path d="M 1019.17125 245.649375 
L 1043.17125 245.649375 
L 1067.17125 245.649375 
" style="fill: none; stroke: #8c564b; stroke-width: 1.5; stroke-linecap: square"/>
    </g>
    <g id="text_21">
     <!-- LogNorm fit -->
     <g transform="translate(1086.37125 254.049375) scale(0.24 -0.24)">
      <defs>
       <path id="DejaVuSans-67" d="M 2906 1791 
Q 2906 2416 2648 2759 
Q 2391 3103 1925 3103 
Q 1463 3103 1205 2759 
Q 947 2416 947 1791 
Q 947 1169 1205 825 
Q 1463 481 1925 481 
Q 2391 481 2648 825 
Q 2906 1169 2906 1791 
z
M 3481 434 
Q 3481 -459 3084 -895 
Q 2688 -1331 1869 -1331 
Q 1566 -1331 1297 -1286 
Q 1028 -1241 775 -1147 
L 775 -588 
Q 1028 -725 1275 -790 
Q 1522 -856 1778 -856 
Q 2344 -856 2625 -561 
Q 2906 -266 2906 331 
L 2906 616 
Q 2728 306 2450 153 
Q 2172 0 1784 0 
Q 1141 0 747 490 
Q 353 981 353 1791 
Q 353 2603 747 3093 
Q 1141 3584 1784 3584 
Q 2172 3584 2450 3431 
Q 2728 3278 2906 2969 
L 2906 3500 
L 3481 3500 
L 3481 434 
z
" transform="scale(0.015625)"/>
      </defs>
      <use xlink:href="#DejaVuSans-4c"/>
      <use xlink:href="#DejaVuSans-6f" x="53.962891"/>
      <use xlink:href="#DejaVuSans-67" x="115.144531"/>
      <use xlink:href="#DejaVuSans-4e" x="178.621094"/>
      <use xlink:href="#DejaVuSans-6f" x="253.425781"/>
      <use xlink:href="#DejaVuSans-72" x="314.607422"/>
      <use xlink:href="#DejaVuSans-6d" x="353.970703"/>
      <use xlink:href="#DejaVuSans-20" x="451.382812"/>
      <use xlink:href="#DejaVuSans-66" x="483.169922"/>
      <use xlink:href="#DejaVuSans-69" x="518.375"/>
      <use xlink:href="#DejaVuSans-74" x="546.158203"/>
     </g>
    </g>
    <g id="line2d_25">
     <path d="M 1019.17125 280.876875 
L 1043.17125 280.876875 
L 1067.17125 280.876875 
" style="fill: none; stroke: #e377c2; stroke-width: 1.5; stroke-linecap: square"/>
    </g>
    <g id="text_22">
     <!-- Normal fit -->
     <g transform="translate(1086.37125 289.276875) scale(0.24 -0.24)">
      <use xlink:href="#DejaVuSans-4e"/>
      <use xlink:href="#DejaVuSans-6f" x="74.804688"/>
      <use xlink:href="#DejaVuSans-72" x="135.986328"/>
      <use xlink:href="#DejaVuSans-6d" x="175.349609"/>
      <use xlink:href="#DejaVuSans-61" x="272.761719"/>
      <use xlink:href="#DejaVuSans-6c" x="334.041016"/>
      <use xlink:href="#DejaVuSans-20" x="361.824219"/>
      <use xlink:href="#DejaVuSans-66" x="393.611328"/>
      <use xlink:href="#DejaVuSans-69" x="428.816406"/>
      <use xlink:href="#DejaVuSans-74" x="456.599609"/>
     </g>
    </g>
   </g>
  </g>
 </g>
 <defs>
  <clipPath id="p23ee69e766">
   <rect x="72.685313" y="38.075625" width="1356.514688" height="790.70375"/>
  </clipPath>
 </defs>
</svg>
