<?xml version="1.0" encoding="utf-8" standalone="no"?>
<!DOCTYPE svg PUBLIC "-//W3C//DTD SVG 1.1//EN"
  "http://www.w3.org/Graphics/SVG/1.1/DTD/svg11.dtd">
<svg xmlns:xlink="http://www.w3.org/1999/xlink" width="1440pt" height="864pt" viewBox="0 0 1440 864" xmlns="http://www.w3.org/2000/svg" version="1.1">
 <metadata>
  <rdf:RDF xmlns:dc="http://purl.org/dc/elements/1.1/" xmlns:cc="http://creativecommons.org/ns#" xmlns:rdf="http://www.w3.org/1999/02/22-rdf-syntax-ns#">
   <cc:Work>
    <dc:type rdf:resource="http://purl.org/dc/dcmitype/StillImage"/>
    <dc:date>2025-02-11T15:56:20.718711</dc:date>
    <dc:format>image/svg+xml</dc:format>
    <dc:creator>
     <cc:Agent>
      <dc:title>Matplotlib v3.10.0, https://matplotlib.org/</dc:title>
     </cc:Agent>
    </dc:creator>
   </cc:Work>
  </rdf:RDF>
 </metadata>
 <defs>
  <style type="text/css">*{stroke-linejoin: round; stroke-linecap: butt}</style>
 </defs>
 <g id="figure_1">
  <g id="patch_1">
   <path d="M 0 864 
L 1440 864 
L 1440 0 
L 0 0 
z
" style="fill: #ffffff"/>
  </g>
  <g id="axes_1">
   <g id="patch_2">
    <path d="M 95.590313 828.779375 
L 1429.2 828.779375 
L 1429.2 38.075625 
L 95.590313 38.075625 
z
" style="fill: #ffffff"/>
   </g>
   <g id="patch_3">
    <path d="M 156.208935 828.779375 
L 168.332659 828.779375 
L 168.332659 720.638865 
L 156.208935 720.638865 
z
" clip-path="url(#pfd8a76ab54)" style="fill: #1f77b4; opacity: 0.6"/>
   </g>
   <g id="patch_4">
    <path d="M 168.332659 828.779375 
L 180.456384 828.779375 
L 180.456384 532.539916 
L 168.332659 532.539916 
z
" clip-path="url(#pfd8a76ab54)" style="fill: #1f77b4; opacity: 0.6"/>
   </g>
   <g id="patch_5">
    <path d="M 180.456384 828.779375 
L 192.580108 828.779375 
L 192.580108 388.024871 
L 180.456384 388.024871 
z
" clip-path="url(#pfd8a76ab54)" style="fill: #1f77b4; opacity: 0.6"/>
   </g>
   <g id="patch_6">
    <path d="M 192.580108 828.779375 
L 204.703832 828.779375 
L 204.703832 290.698411 
L 192.580108 290.698411 
z
" clip-path="url(#pfd8a76ab54)" style="fill: #1f77b4; opacity: 0.6"/>
   </g>
   <g id="patch_7">
    <path d="M 204.703832 828.779375 
L 216.827557 828.779375 
L 216.827557 222.53712 
L 204.703832 222.53712 
z
" clip-path="url(#pfd8a76ab54)" style="fill: #1f77b4; opacity: 0.6"/>
   </g>
   <g id="patch_8">
    <path d="M 216.827557 828.779375 
L 228.951281 828.779375 
L 228.951281 172.071548 
L 216.827557 172.071548 
z
" clip-path="url(#pfd8a76ab54)" style="fill: #1f77b4; opacity: 0.6"/>
   </g>
   <g id="patch_9">
    <path d="M 228.951281 828.779375 
L 241.075006 828.779375 
L 241.075006 149.788049 
L 228.951281 149.788049 
z
" clip-path="url(#pfd8a76ab54)" style="fill: #1f77b4; opacity: 0.6"/>
   </g>
   <g id="patch_10">
    <path d="M 241.075006 828.779375 
L 253.19873 828.779375 
L 253.19873 129.143043 
L 241.075006 129.143043 
z
" clip-path="url(#pfd8a76ab54)" style="fill: #1f77b4; opacity: 0.6"/>
   </g>
   <g id="patch_11">
    <path d="M 253.19873 828.779375 
L 265.322455 828.779375 
L 265.322455 75.728185 
L 253.19873 75.728185 
z
" clip-path="url(#pfd8a76ab54)" style="fill: #1f77b4; opacity: 0.6"/>
   </g>
   <g id="patch_12">
    <path d="M 265.322455 828.779375 
L 277.446179 828.779375 
L 277.446179 112.10272 
L 265.322455 112.10272 
z
" clip-path="url(#pfd8a76ab54)" style="fill: #1f77b4; opacity: 0.6"/>
   </g>
   <g id="patch_13">
    <path d="M 277.446179 828.779375 
L 289.569903 828.779375 
L 289.569903 126.849153 
L 277.446179 126.849153 
z
" clip-path="url(#pfd8a76ab54)" style="fill: #1f77b4; opacity: 0.6"/>
   </g>
   <g id="patch_14">
    <path d="M 289.569903 828.779375 
L 301.693628 828.779375 
L 301.693628 131.109234 
L 289.569903 131.109234 
z
" clip-path="url(#pfd8a76ab54)" style="fill: #1f77b4; opacity: 0.6"/>
   </g>
   <g id="patch_15">
    <path d="M 301.693628 828.779375 
L 313.817352 828.779375 
L 313.817352 166.828372 
L 301.693628 166.828372 
z
" clip-path="url(#pfd8a76ab54)" style="fill: #1f77b4; opacity: 0.6"/>
   </g>
   <g id="patch_16">
    <path d="M 313.817352 828.779375 
L 325.941077 828.779375 
L 325.941077 221.226326 
L 313.817352 221.226326 
z
" clip-path="url(#pfd8a76ab54)" style="fill: #1f77b4; opacity: 0.6"/>
   </g>
   <g id="patch_17">
    <path d="M 325.941077 828.779375 
L 338.064801 828.779375 
L 338.064801 233.023472 
L 325.941077 233.023472 
z
" clip-path="url(#pfd8a76ab54)" style="fill: #1f77b4; opacity: 0.6"/>
   </g>
   <g id="patch_18">
    <path d="M 338.064801 828.779375 
L 350.188526 828.779375 
L 350.188526 272.347294 
L 338.064801 272.347294 
z
" clip-path="url(#pfd8a76ab54)" style="fill: #1f77b4; opacity: 0.6"/>
   </g>
   <g id="patch_19">
    <path d="M 350.188526 828.779375 
L 362.31225 828.779375 
L 362.31225 295.613889 
L 350.188526 295.613889 
z
" clip-path="url(#pfd8a76ab54)" style="fill: #1f77b4; opacity: 0.6"/>
   </g>
   <g id="patch_20">
    <path d="M 362.31225 828.779375 
L 374.435974 828.779375 
L 374.435974 344.440968 
L 362.31225 344.440968 
z
" clip-path="url(#pfd8a76ab54)" style="fill: #1f77b4; opacity: 0.6"/>
   </g>
   <g id="patch_21">
    <path d="M 374.435974 828.779375 
L 386.559699 828.779375 
L 386.559699 368.035261 
L 374.435974 368.035261 
z
" clip-path="url(#pfd8a76ab54)" style="fill: #1f77b4; opacity: 0.6"/>
   </g>
   <g id="patch_22">
    <path d="M 386.559699 828.779375 
L 398.683423 828.779375 
L 398.683423 372.950739 
L 386.559699 372.950739 
z
" clip-path="url(#pfd8a76ab54)" style="fill: #1f77b4; opacity: 0.6"/>
   </g>
   <g id="patch_23">
    <path d="M 398.683423 828.779375 
L 410.807148 828.779375 
L 410.807148 419.483928 
L 398.683423 419.483928 
z
" clip-path="url(#pfd8a76ab54)" style="fill: #1f77b4; opacity: 0.6"/>
   </g>
   <g id="patch_24">
    <path d="M 410.807148 828.779375 
L 422.930872 828.779375 
L 422.930872 437.507347 
L 410.807148 437.507347 
z
" clip-path="url(#pfd8a76ab54)" style="fill: #1f77b4; opacity: 0.6"/>
   </g>
   <g id="patch_25">
    <path d="M 422.930872 828.779375 
L 435.054597 828.779375 
L 435.054597 489.611411 
L 422.930872 489.611411 
z
" clip-path="url(#pfd8a76ab54)" style="fill: #1f77b4; opacity: 0.6"/>
   </g>
   <g id="patch_26">
    <path d="M 435.054597 828.779375 
L 447.178321 828.779375 
L 447.178321 496.165381 
L 435.054597 496.165381 
z
" clip-path="url(#pfd8a76ab54)" style="fill: #1f77b4; opacity: 0.6"/>
   </g>
   <g id="patch_27">
    <path d="M 447.178321 828.779375 
L 459.302045 828.779375 
L 459.302045 526.313644 
L 447.178321 526.313644 
z
" clip-path="url(#pfd8a76ab54)" style="fill: #1f77b4; opacity: 0.6"/>
   </g>
   <g id="patch_28">
    <path d="M 459.302045 828.779375 
L 471.42577 828.779375 
L 471.42577 542.69857 
L 459.302045 542.69857 
z
" clip-path="url(#pfd8a76ab54)" style="fill: #1f77b4; opacity: 0.6"/>
   </g>
   <g id="patch_29">
    <path d="M 471.42577 828.779375 
L 483.549494 828.779375 
L 483.549494 556.134209 
L 471.42577 556.134209 
z
" clip-path="url(#pfd8a76ab54)" style="fill: #1f77b4; opacity: 0.6"/>
   </g>
   <g id="patch_30">
    <path d="M 483.549494 828.779375 
L 495.673219 828.779375 
L 495.673219 587.593267 
L 483.549494 587.593267 
z
" clip-path="url(#pfd8a76ab54)" style="fill: #1f77b4; opacity: 0.6"/>
   </g>
   <g id="patch_31">
    <path d="M 495.673219 828.779375 
L 507.796943 828.779375 
L 507.796943 614.136847 
L 495.673219 614.136847 
z
" clip-path="url(#pfd8a76ab54)" style="fill: #1f77b4; opacity: 0.6"/>
   </g>
   <g id="patch_32">
    <path d="M 507.796943 828.779375 
L 519.920668 828.779375 
L 519.920668 615.119942 
L 507.796943 615.119942 
z
" clip-path="url(#pfd8a76ab54)" style="fill: #1f77b4; opacity: 0.6"/>
   </g>
   <g id="patch_33">
    <path d="M 519.920668 828.779375 
L 532.044392 828.779375 
L 532.044392 641.991221 
L 519.920668 641.991221 
z
" clip-path="url(#pfd8a76ab54)" style="fill: #1f77b4; opacity: 0.6"/>
   </g>
   <g id="patch_34">
    <path d="M 532.044392 828.779375 
L 544.168116 828.779375 
L 544.168116 653.460669 
L 532.044392 653.460669 
z
" clip-path="url(#pfd8a76ab54)" style="fill: #1f77b4; opacity: 0.6"/>
   </g>
   <g id="patch_35">
    <path d="M 544.168116 828.779375 
L 556.291841 828.779375 
L 556.291841 661.653132 
L 544.168116 661.653132 
z
" clip-path="url(#pfd8a76ab54)" style="fill: #1f77b4; opacity: 0.6"/>
   </g>
   <g id="patch_36">
    <path d="M 556.291841 828.779375 
L 568.415565 828.779375 
L 568.415565 693.767586 
L 556.291841 693.767586 
z
" clip-path="url(#pfd8a76ab54)" style="fill: #1f77b4; opacity: 0.6"/>
   </g>
   <g id="patch_37">
    <path d="M 568.415565 828.779375 
L 580.53929 828.779375 
L 580.53929 700.976954 
L 568.415565 700.976954 
z
" clip-path="url(#pfd8a76ab54)" style="fill: #1f77b4; opacity: 0.6"/>
   </g>
   <g id="patch_38">
    <path d="M 580.53929 828.779375 
L 592.663014 828.779375 
L 592.663014 705.892431 
L 580.53929 705.892431 
z
" clip-path="url(#pfd8a76ab54)" style="fill: #1f77b4; opacity: 0.6"/>
   </g>
   <g id="patch_39">
    <path d="M 592.663014 828.779375 
L 604.786739 828.779375 
L 604.786739 723.91585 
L 592.663014 723.91585 
z
" clip-path="url(#pfd8a76ab54)" style="fill: #1f77b4; opacity: 0.6"/>
   </g>
   <g id="patch_40">
    <path d="M 604.786739 828.779375 
L 616.910463 828.779375 
L 616.910463 731.780614 
L 604.786739 731.780614 
z
" clip-path="url(#pfd8a76ab54)" style="fill: #1f77b4; opacity: 0.6"/>
   </g>
   <g id="patch_41">
    <path d="M 616.910463 828.779375 
L 629.034187 828.779375 
L 629.034187 732.76371 
L 616.910463 732.76371 
z
" clip-path="url(#pfd8a76ab54)" style="fill: #1f77b4; opacity: 0.6"/>
   </g>
   <g id="patch_42">
    <path d="M 629.034187 828.779375 
L 641.157912 828.779375 
L 641.157912 738.662283 
L 629.034187 738.662283 
z
" clip-path="url(#pfd8a76ab54)" style="fill: #1f77b4; opacity: 0.6"/>
   </g>
   <g id="patch_43">
    <path d="M 641.157912 828.779375 
L 653.281636 828.779375 
L 653.281636 755.047209 
L 641.157912 755.047209 
z
" clip-path="url(#pfd8a76ab54)" style="fill: #1f77b4; opacity: 0.6"/>
   </g>
   <g id="patch_44">
    <path d="M 653.281636 828.779375 
L 665.405361 828.779375 
L 665.405361 759.30729 
L 653.281636 759.30729 
z
" clip-path="url(#pfd8a76ab54)" style="fill: #1f77b4; opacity: 0.6"/>
   </g>
   <g id="patch_45">
    <path d="M 665.405361 828.779375 
L 677.529085 828.779375 
L 677.529085 757.341098 
L 665.405361 757.341098 
z
" clip-path="url(#pfd8a76ab54)" style="fill: #1f77b4; opacity: 0.6"/>
   </g>
   <g id="patch_46">
    <path d="M 677.529085 828.779375 
L 689.65281 828.779375 
L 689.65281 768.482848 
L 677.529085 768.482848 
z
" clip-path="url(#pfd8a76ab54)" style="fill: #1f77b4; opacity: 0.6"/>
   </g>
   <g id="patch_47">
    <path d="M 689.65281 828.779375 
L 701.776534 828.779375 
L 701.776534 778.641502 
L 689.65281 778.641502 
z
" clip-path="url(#pfd8a76ab54)" style="fill: #1f77b4; opacity: 0.6"/>
   </g>
   <g id="patch_48">
    <path d="M 701.776534 828.779375 
L 713.900259 828.779375 
L 713.900259 777.330708 
L 701.776534 777.330708 
z
" clip-path="url(#pfd8a76ab54)" style="fill: #1f77b4; opacity: 0.6"/>
   </g>
   <g id="patch_49">
    <path d="M 713.900259 828.779375 
L 726.023983 828.779375 
L 726.023983 782.573884 
L 713.900259 782.573884 
z
" clip-path="url(#pfd8a76ab54)" style="fill: #1f77b4; opacity: 0.6"/>
   </g>
   <g id="patch_50">
    <path d="M 726.023983 828.779375 
L 738.147707 828.779375 
L 738.147707 791.421744 
L 726.023983 791.421744 
z
" clip-path="url(#pfd8a76ab54)" style="fill: #1f77b4; opacity: 0.6"/>
   </g>
   <g id="patch_51">
    <path d="M 738.147707 828.779375 
L 750.271432 828.779375 
L 750.271432 800.925001 
L 738.147707 800.925001 
z
" clip-path="url(#pfd8a76ab54)" style="fill: #1f77b4; opacity: 0.6"/>
   </g>
   <g id="patch_52">
    <path d="M 750.271432 828.779375 
L 762.395156 828.779375 
L 762.395156 797.320317 
L 750.271432 797.320317 
z
" clip-path="url(#pfd8a76ab54)" style="fill: #1f77b4; opacity: 0.6"/>
   </g>
   <g id="patch_53">
    <path d="M 762.395156 828.779375 
L 774.518881 828.779375 
L 774.518881 798.303413 
L 762.395156 798.303413 
z
" clip-path="url(#pfd8a76ab54)" style="fill: #1f77b4; opacity: 0.6"/>
   </g>
   <g id="patch_54">
    <path d="M 774.518881 828.779375 
L 786.642605 828.779375 
L 786.642605 798.95881 
L 774.518881 798.95881 
z
" clip-path="url(#pfd8a76ab54)" style="fill: #1f77b4; opacity: 0.6"/>
   </g>
   <g id="patch_55">
    <path d="M 786.642605 828.779375 
L 798.76633 828.779375 
L 798.76633 804.201986 
L 786.642605 804.201986 
z
" clip-path="url(#pfd8a76ab54)" style="fill: #1f77b4; opacity: 0.6"/>
   </g>
   <g id="patch_56">
    <path d="M 798.76633 828.779375 
L 810.890054 828.779375 
L 810.890054 805.840479 
L 798.76633 805.840479 
z
" clip-path="url(#pfd8a76ab54)" style="fill: #1f77b4; opacity: 0.6"/>
   </g>
   <g id="patch_57">
    <path d="M 810.890054 828.779375 
L 823.013778 828.779375 
L 823.013778 810.755957 
L 810.890054 810.755957 
z
" clip-path="url(#pfd8a76ab54)" style="fill: #1f77b4; opacity: 0.6"/>
   </g>
   <g id="patch_58">
    <path d="M 823.013778 828.779375 
L 835.137503 828.779375 
L 835.137503 816.326831 
L 823.013778 816.326831 
z
" clip-path="url(#pfd8a76ab54)" style="fill: #1f77b4; opacity: 0.6"/>
   </g>
   <g id="patch_59">
    <path d="M 835.137503 828.779375 
L 847.261227 828.779375 
L 847.261227 812.066751 
L 835.137503 812.066751 
z
" clip-path="url(#pfd8a76ab54)" style="fill: #1f77b4; opacity: 0.6"/>
   </g>
   <g id="patch_60">
    <path d="M 847.261227 828.779375 
L 859.384952 828.779375 
L 859.384952 810.755957 
L 847.261227 810.755957 
z
" clip-path="url(#pfd8a76ab54)" style="fill: #1f77b4; opacity: 0.6"/>
   </g>
   <g id="patch_61">
    <path d="M 859.384952 828.779375 
L 871.508676 828.779375 
L 871.508676 815.343736 
L 859.384952 815.343736 
z
" clip-path="url(#pfd8a76ab54)" style="fill: #1f77b4; opacity: 0.6"/>
   </g>
   <g id="patch_62">
    <path d="M 871.508676 828.779375 
L 883.632401 828.779375 
L 883.632401 820.259214 
L 871.508676 820.259214 
z
" clip-path="url(#pfd8a76ab54)" style="fill: #1f77b4; opacity: 0.6"/>
   </g>
   <g id="patch_63">
    <path d="M 883.632401 828.779375 
L 895.756125 828.779375 
L 895.756125 820.586912 
L 883.632401 820.586912 
z
" clip-path="url(#pfd8a76ab54)" style="fill: #1f77b4; opacity: 0.6"/>
   </g>
   <g id="patch_64">
    <path d="M 895.756125 828.779375 
L 907.879849 828.779375 
L 907.879849 816.65453 
L 895.756125 816.65453 
z
" clip-path="url(#pfd8a76ab54)" style="fill: #1f77b4; opacity: 0.6"/>
   </g>
   <g id="patch_65">
    <path d="M 907.879849 828.779375 
L 920.003574 828.779375 
L 920.003574 818.620721 
L 907.879849 818.620721 
z
" clip-path="url(#pfd8a76ab54)" style="fill: #1f77b4; opacity: 0.6"/>
   </g>
   <g id="patch_66">
    <path d="M 920.003574 828.779375 
L 932.127298 828.779375 
L 932.127298 822.880802 
L 920.003574 822.880802 
z
" clip-path="url(#pfd8a76ab54)" style="fill: #1f77b4; opacity: 0.6"/>
   </g>
   <g id="patch_67">
    <path d="M 932.127298 828.779375 
L 944.251023 828.779375 
L 944.251023 818.94842 
L 932.127298 818.94842 
z
" clip-path="url(#pfd8a76ab54)" style="fill: #1f77b4; opacity: 0.6"/>
   </g>
   <g id="patch_68">
    <path d="M 944.251023 828.779375 
L 956.374747 828.779375 
L 956.374747 823.863897 
L 944.251023 823.863897 
z
" clip-path="url(#pfd8a76ab54)" style="fill: #1f77b4; opacity: 0.6"/>
   </g>
   <g id="patch_69">
    <path d="M 956.374747 828.779375 
L 968.498472 828.779375 
L 968.498472 820.586912 
L 956.374747 820.586912 
z
" clip-path="url(#pfd8a76ab54)" style="fill: #1f77b4; opacity: 0.6"/>
   </g>
   <g id="patch_70">
    <path d="M 968.498472 828.779375 
L 980.622196 828.779375 
L 980.622196 824.519294 
L 968.498472 824.519294 
z
" clip-path="url(#pfd8a76ab54)" style="fill: #1f77b4; opacity: 0.6"/>
   </g>
   <g id="patch_71">
    <path d="M 980.622196 828.779375 
L 992.74592 828.779375 
L 992.74592 823.2085 
L 980.622196 823.2085 
z
" clip-path="url(#pfd8a76ab54)" style="fill: #1f77b4; opacity: 0.6"/>
   </g>
   <g id="patch_72">
    <path d="M 992.74592 828.779375 
L 1004.869645 828.779375 
L 1004.869645 824.846993 
L 992.74592 824.846993 
z
" clip-path="url(#pfd8a76ab54)" style="fill: #1f77b4; opacity: 0.6"/>
   </g>
   <g id="patch_73">
    <path d="M 1004.869645 828.779375 
L 1016.993369 828.779375 
L 1016.993369 824.846993 
L 1004.869645 824.846993 
z
" clip-path="url(#pfd8a76ab54)" style="fill: #1f77b4; opacity: 0.6"/>
   </g>
   <g id="patch_74">
    <path d="M 1016.993369 828.779375 
L 1029.117094 828.779375 
L 1029.117094 826.157787 
L 1016.993369 826.157787 
z
" clip-path="url(#pfd8a76ab54)" style="fill: #1f77b4; opacity: 0.6"/>
   </g>
   <g id="patch_75">
    <path d="M 1029.117094 828.779375 
L 1041.240818 828.779375 
L 1041.240818 824.191596 
L 1029.117094 824.191596 
z
" clip-path="url(#pfd8a76ab54)" style="fill: #1f77b4; opacity: 0.6"/>
   </g>
   <g id="patch_76">
    <path d="M 1041.240818 828.779375 
L 1053.364543 828.779375 
L 1053.364543 825.830088 
L 1041.240818 825.830088 
z
" clip-path="url(#pfd8a76ab54)" style="fill: #1f77b4; opacity: 0.6"/>
   </g>
   <g id="patch_77">
    <path d="M 1053.364543 828.779375 
L 1065.488267 828.779375 
L 1065.488267 826.485485 
L 1053.364543 826.485485 
z
" clip-path="url(#pfd8a76ab54)" style="fill: #1f77b4; opacity: 0.6"/>
   </g>
   <g id="patch_78">
    <path d="M 1065.488267 828.779375 
L 1077.611991 828.779375 
L 1077.611991 827.468581 
L 1065.488267 827.468581 
z
" clip-path="url(#pfd8a76ab54)" style="fill: #1f77b4; opacity: 0.6"/>
   </g>
   <g id="patch_79">
    <path d="M 1077.611991 828.779375 
L 1089.735716 828.779375 
L 1089.735716 826.485485 
L 1077.611991 826.485485 
z
" clip-path="url(#pfd8a76ab54)" style="fill: #1f77b4; opacity: 0.6"/>
   </g>
   <g id="patch_80">
    <path d="M 1089.735716 828.779375 
L 1101.85944 828.779375 
L 1101.85944 826.485485 
L 1089.735716 826.485485 
z
" clip-path="url(#pfd8a76ab54)" style="fill: #1f77b4; opacity: 0.6"/>
   </g>
   <g id="patch_81">
    <path d="M 1101.85944 828.779375 
L 1113.983165 828.779375 
L 1113.983165 826.813184 
L 1101.85944 826.813184 
z
" clip-path="url(#pfd8a76ab54)" style="fill: #1f77b4; opacity: 0.6"/>
   </g>
   <g id="patch_82">
    <path d="M 1113.983165 828.779375 
L 1126.106889 828.779375 
L 1126.106889 826.485485 
L 1113.983165 826.485485 
z
" clip-path="url(#pfd8a76ab54)" style="fill: #1f77b4; opacity: 0.6"/>
   </g>
   <g id="patch_83">
    <path d="M 1126.106889 828.779375 
L 1138.230614 828.779375 
L 1138.230614 827.140882 
L 1126.106889 827.140882 
z
" clip-path="url(#pfd8a76ab54)" style="fill: #1f77b4; opacity: 0.6"/>
   </g>
   <g id="patch_84">
    <path d="M 1138.230614 828.779375 
L 1150.354338 828.779375 
L 1150.354338 825.830088 
L 1138.230614 825.830088 
z
" clip-path="url(#pfd8a76ab54)" style="fill: #1f77b4; opacity: 0.6"/>
   </g>
   <g id="patch_85">
    <path d="M 1150.354338 828.779375 
L 1162.478062 828.779375 
L 1162.478062 827.796279 
L 1150.354338 827.796279 
z
" clip-path="url(#pfd8a76ab54)" style="fill: #1f77b4; opacity: 0.6"/>
   </g>
   <g id="patch_86">
    <path d="M 1162.478062 828.779375 
L 1174.601787 828.779375 
L 1174.601787 827.796279 
L 1162.478062 827.796279 
z
" clip-path="url(#pfd8a76ab54)" style="fill: #1f77b4; opacity: 0.6"/>
   </g>
   <g id="patch_87">
    <path d="M 1174.601787 828.779375 
L 1186.725511 828.779375 
L 1186.725511 827.796279 
L 1174.601787 827.796279 
z
" clip-path="url(#pfd8a76ab54)" style="fill: #1f77b4; opacity: 0.6"/>
   </g>
   <g id="patch_88">
    <path d="M 1186.725511 828.779375 
L 1198.849236 828.779375 
L 1198.849236 828.123978 
L 1186.725511 828.123978 
z
" clip-path="url(#pfd8a76ab54)" style="fill: #1f77b4; opacity: 0.6"/>
   </g>
   <g id="patch_89">
    <path d="M 1198.849236 828.779375 
L 1210.97296 828.779375 
L 1210.97296 828.123978 
L 1198.849236 828.123978 
z
" clip-path="url(#pfd8a76ab54)" style="fill: #1f77b4; opacity: 0.6"/>
   </g>
   <g id="patch_90">
    <path d="M 1210.97296 828.779375 
L 1223.096685 828.779375 
L 1223.096685 828.779375 
L 1210.97296 828.779375 
z
" clip-path="url(#pfd8a76ab54)" style="fill: #1f77b4; opacity: 0.6"/>
   </g>
   <g id="patch_91">
    <path d="M 1223.096685 828.779375 
L 1235.220409 828.779375 
L 1235.220409 828.451676 
L 1223.096685 828.451676 
z
" clip-path="url(#pfd8a76ab54)" style="fill: #1f77b4; opacity: 0.6"/>
   </g>
   <g id="patch_92">
    <path d="M 1235.220409 828.779375 
L 1247.344134 828.779375 
L 1247.344134 828.451676 
L 1235.220409 828.451676 
z
" clip-path="url(#pfd8a76ab54)" style="fill: #1f77b4; opacity: 0.6"/>
   </g>
   <g id="patch_93">
    <path d="M 1247.344134 828.779375 
L 1259.467858 828.779375 
L 1259.467858 827.796279 
L 1247.344134 827.796279 
z
" clip-path="url(#pfd8a76ab54)" style="fill: #1f77b4; opacity: 0.6"/>
   </g>
   <g id="patch_94">
    <path d="M 1259.467858 828.779375 
L 1271.591582 828.779375 
L 1271.591582 827.468581 
L 1259.467858 827.468581 
z
" clip-path="url(#pfd8a76ab54)" style="fill: #1f77b4; opacity: 0.6"/>
   </g>
   <g id="patch_95">
    <path d="M 1271.591582 828.779375 
L 1283.715307 828.779375 
L 1283.715307 828.779375 
L 1271.591582 828.779375 
z
" clip-path="url(#pfd8a76ab54)" style="fill: #1f77b4; opacity: 0.6"/>
   </g>
   <g id="patch_96">
    <path d="M 1283.715307 828.779375 
L 1295.839031 828.779375 
L 1295.839031 828.123978 
L 1283.715307 828.123978 
z
" clip-path="url(#pfd8a76ab54)" style="fill: #1f77b4; opacity: 0.6"/>
   </g>
   <g id="patch_97">
    <path d="M 1295.839031 828.779375 
L 1307.962756 828.779375 
L 1307.962756 828.451676 
L 1295.839031 828.451676 
z
" clip-path="url(#pfd8a76ab54)" style="fill: #1f77b4; opacity: 0.6"/>
   </g>
   <g id="patch_98">
    <path d="M 1307.962756 828.779375 
L 1320.08648 828.779375 
L 1320.08648 827.796279 
L 1307.962756 827.796279 
z
" clip-path="url(#pfd8a76ab54)" style="fill: #1f77b4; opacity: 0.6"/>
   </g>
   <g id="patch_99">
    <path d="M 1320.08648 828.779375 
L 1332.210205 828.779375 
L 1332.210205 828.451676 
L 1320.08648 828.451676 
z
" clip-path="url(#pfd8a76ab54)" style="fill: #1f77b4; opacity: 0.6"/>
   </g>
   <g id="patch_100">
    <path d="M 1332.210205 828.779375 
L 1344.333929 828.779375 
L 1344.333929 828.451676 
L 1332.210205 828.451676 
z
" clip-path="url(#pfd8a76ab54)" style="fill: #1f77b4; opacity: 0.6"/>
   </g>
   <g id="patch_101">
    <path d="M 1344.333929 828.779375 
L 1356.457653 828.779375 
L 1356.457653 828.779375 
L 1344.333929 828.779375 
z
" clip-path="url(#pfd8a76ab54)" style="fill: #1f77b4; opacity: 0.6"/>
   </g>
   <g id="patch_102">
    <path d="M 1356.457653 828.779375 
L 1368.581378 828.779375 
L 1368.581378 828.123978 
L 1356.457653 828.123978 
z
" clip-path="url(#pfd8a76ab54)" style="fill: #1f77b4; opacity: 0.6"/>
   </g>
   <g id="matplotlib.axis_1">
    <g id="xtick_1">
     <g id="line2d_1">
      <defs>
       <path id="m3222357129" d="M 0 0 
L 0 3.5 
" style="stroke: #000000; stroke-width: 0.8"/>
      </defs>
      <g>
       <use xlink:href="#m3222357129" x="155.551748" y="828.779375" style="stroke: #000000; stroke-width: 0.8"/>
      </g>
     </g>
     <g id="text_1">
      <!-- 0 -->
      <g transform="translate(149.825498 849.456563) scale(0.18 -0.18)">
       <defs>
        <path id="DejaVuSans-30" d="M 2034 4250 
Q 1547 4250 1301 3770 
Q 1056 3291 1056 2328 
Q 1056 1369 1301 889 
Q 1547 409 2034 409 
Q 2525 409 2770 889 
Q 3016 1369 3016 2328 
Q 3016 3291 2770 3770 
Q 2525 4250 2034 4250 
z
M 2034 4750 
Q 2819 4750 3233 4129 
Q 3647 3509 3647 2328 
Q 3647 1150 3233 529 
Q 2819 -91 2034 -91 
Q 1250 -91 836 529 
Q 422 1150 422 2328 
Q 422 3509 836 4129 
Q 1250 4750 2034 4750 
z
" transform="scale(0.015625)"/>
       </defs>
       <use xlink:href="#DejaVuSans-30"/>
      </g>
     </g>
    </g>
    <g id="xtick_2">
     <g id="line2d_2">
      <g>
       <use xlink:href="#m3222357129" x="411.230128" y="828.779375" style="stroke: #000000; stroke-width: 0.8"/>
      </g>
     </g>
     <g id="text_2">
      <!-- 5 -->
      <g transform="translate(405.503878 849.456563) scale(0.18 -0.18)">
       <defs>
        <path id="DejaVuSans-35" d="M 691 4666 
L 3169 4666 
L 3169 4134 
L 1269 4134 
L 1269 2991 
Q 1406 3038 1543 3061 
Q 1681 3084 1819 3084 
Q 2600 3084 3056 2656 
Q 3513 2228 3513 1497 
Q 3513 744 3044 326 
Q 2575 -91 1722 -91 
Q 1428 -91 1123 -41 
Q 819 9 494 109 
L 494 744 
Q 775 591 1075 516 
Q 1375 441 1709 441 
Q 2250 441 2565 725 
Q 2881 1009 2881 1497 
Q 2881 1984 2565 2268 
Q 2250 2553 1709 2553 
Q 1456 2553 1204 2497 
Q 953 2441 691 2322 
L 691 4666 
z
" transform="scale(0.015625)"/>
       </defs>
       <use xlink:href="#DejaVuSans-35"/>
      </g>
     </g>
    </g>
    <g id="xtick_3">
     <g id="line2d_3">
      <g>
       <use xlink:href="#m3222357129" x="666.908508" y="828.779375" style="stroke: #000000; stroke-width: 0.8"/>
      </g>
     </g>
     <g id="text_3">
      <!-- 10 -->
      <g transform="translate(655.456008 849.456563) scale(0.18 -0.18)">
       <defs>
        <path id="DejaVuSans-31" d="M 794 531 
L 1825 531 
L 1825 4091 
L 703 3866 
L 703 4441 
L 1819 4666 
L 2450 4666 
L 2450 531 
L 3481 531 
L 3481 0 
L 794 0 
L 794 531 
z
" transform="scale(0.015625)"/>
       </defs>
       <use xlink:href="#DejaVuSans-31"/>
       <use xlink:href="#DejaVuSans-30" transform="translate(63.623047 0)"/>
      </g>
     </g>
    </g>
    <g id="xtick_4">
     <g id="line2d_4">
      <g>
       <use xlink:href="#m3222357129" x="922.586888" y="828.779375" style="stroke: #000000; stroke-width: 0.8"/>
      </g>
     </g>
     <g id="text_4">
      <!-- 15 -->
      <g transform="translate(911.134388 849.456563) scale(0.18 -0.18)">
       <use xlink:href="#DejaVuSans-31"/>
       <use xlink:href="#DejaVuSans-35" transform="translate(63.623047 0)"/>
      </g>
     </g>
    </g>
    <g id="xtick_5">
     <g id="line2d_5">
      <g>
       <use xlink:href="#m3222357129" x="1178.265268" y="828.779375" style="stroke: #000000; stroke-width: 0.8"/>
      </g>
     </g>
     <g id="text_5">
      <!-- 20 -->
      <g transform="translate(1166.812768 849.456563) scale(0.18 -0.18)">
       <defs>
        <path id="DejaVuSans-32" d="M 1228 531 
L 3431 531 
L 3431 0 
L 469 0 
L 469 531 
Q 828 903 1448 1529 
Q 2069 2156 2228 2338 
Q 2531 2678 2651 2914 
Q 2772 3150 2772 3378 
Q 2772 3750 2511 3984 
Q 2250 4219 1831 4219 
Q 1534 4219 1204 4116 
Q 875 4013 500 3803 
L 500 4441 
Q 881 4594 1212 4672 
Q 1544 4750 1819 4750 
Q 2544 4750 2975 4387 
Q 3406 4025 3406 3419 
Q 3406 3131 3298 2873 
Q 3191 2616 2906 2266 
Q 2828 2175 2409 1742 
Q 1991 1309 1228 531 
z
" transform="scale(0.015625)"/>
       </defs>
       <use xlink:href="#DejaVuSans-32"/>
       <use xlink:href="#DejaVuSans-30" transform="translate(63.623047 0)"/>
      </g>
     </g>
    </g>
   </g>
   <g id="matplotlib.axis_2">
    <g id="ytick_1">
     <g id="line2d_6">
      <defs>
       <path id="mb9e20461b1" d="M 0 0 
L -3.5 0 
" style="stroke: #000000; stroke-width: 0.8"/>
      </defs>
      <g>
       <use xlink:href="#mb9e20461b1" x="95.590313" y="828.779375" style="stroke: #000000; stroke-width: 0.8"/>
      </g>
     </g>
     <g id="text_6">
      <!-- 0.000 -->
      <g transform="translate(37.059688 835.617969) scale(0.18 -0.18)">
       <defs>
        <path id="DejaVuSans-2e" d="M 684 794 
L 1344 794 
L 1344 0 
L 684 0 
L 684 794 
z
" transform="scale(0.015625)"/>
       </defs>
       <use xlink:href="#DejaVuSans-30"/>
       <use xlink:href="#DejaVuSans-2e" transform="translate(63.623047 0)"/>
       <use xlink:href="#DejaVuSans-30" transform="translate(95.410156 0)"/>
       <use xlink:href="#DejaVuSans-30" transform="translate(159.033203 0)"/>
       <use xlink:href="#DejaVuSans-30" transform="translate(222.65625 0)"/>
      </g>
     </g>
    </g>
    <g id="ytick_2">
     <g id="line2d_7">
      <g>
       <use xlink:href="#mb9e20461b1" x="95.590313" y="731.662088" style="stroke: #000000; stroke-width: 0.8"/>
      </g>
     </g>
     <g id="text_7">
      <!-- 0.025 -->
      <g transform="translate(37.059688 738.500681) scale(0.18 -0.18)">
       <use xlink:href="#DejaVuSans-30"/>
       <use xlink:href="#DejaVuSans-2e" transform="translate(63.623047 0)"/>
       <use xlink:href="#DejaVuSans-30" transform="translate(95.410156 0)"/>
       <use xlink:href="#DejaVuSans-32" transform="translate(159.033203 0)"/>
       <use xlink:href="#DejaVuSans-35" transform="translate(222.65625 0)"/>
      </g>
     </g>
    </g>
    <g id="ytick_3">
     <g id="line2d_8">
      <g>
       <use xlink:href="#mb9e20461b1" x="95.590313" y="634.5448" style="stroke: #000000; stroke-width: 0.8"/>
      </g>
     </g>
     <g id="text_8">
      <!-- 0.050 -->
      <g transform="translate(37.059688 641.383394) scale(0.18 -0.18)">
       <use xlink:href="#DejaVuSans-30"/>
       <use xlink:href="#DejaVuSans-2e" transform="translate(63.623047 0)"/>
       <use xlink:href="#DejaVuSans-30" transform="translate(95.410156 0)"/>
       <use xlink:href="#DejaVuSans-35" transform="translate(159.033203 0)"/>
       <use xlink:href="#DejaVuSans-30" transform="translate(222.65625 0)"/>
      </g>
     </g>
    </g>
    <g id="ytick_4">
     <g id="line2d_9">
      <g>
       <use xlink:href="#mb9e20461b1" x="95.590313" y="537.427513" style="stroke: #000000; stroke-width: 0.8"/>
      </g>
     </g>
     <g id="text_9">
      <!-- 0.075 -->
      <g transform="translate(37.059688 544.266107) scale(0.18 -0.18)">
       <defs>
        <path id="DejaVuSans-37" d="M 525 4666 
L 3525 4666 
L 3525 4397 
L 1831 0 
L 1172 0 
L 2766 4134 
L 525 4134 
L 525 4666 
z
" transform="scale(0.015625)"/>
       </defs>
       <use xlink:href="#DejaVuSans-30"/>
       <use xlink:href="#DejaVuSans-2e" transform="translate(63.623047 0)"/>
       <use xlink:href="#DejaVuSans-30" transform="translate(95.410156 0)"/>
       <use xlink:href="#DejaVuSans-37" transform="translate(159.033203 0)"/>
       <use xlink:href="#DejaVuSans-35" transform="translate(222.65625 0)"/>
      </g>
     </g>
    </g>
    <g id="ytick_5">
     <g id="line2d_10">
      <g>
       <use xlink:href="#mb9e20461b1" x="95.590313" y="440.310226" style="stroke: #000000; stroke-width: 0.8"/>
      </g>
     </g>
     <g id="text_10">
      <!-- 0.100 -->
      <g transform="translate(37.059688 447.14882) scale(0.18 -0.18)">
       <use xlink:href="#DejaVuSans-30"/>
       <use xlink:href="#DejaVuSans-2e" transform="translate(63.623047 0)"/>
       <use xlink:href="#DejaVuSans-31" transform="translate(95.410156 0)"/>
       <use xlink:href="#DejaVuSans-30" transform="translate(159.033203 0)"/>
       <use xlink:href="#DejaVuSans-30" transform="translate(222.65625 0)"/>
      </g>
     </g>
    </g>
    <g id="ytick_6">
     <g id="line2d_11">
      <g>
       <use xlink:href="#mb9e20461b1" x="95.590313" y="343.192939" style="stroke: #000000; stroke-width: 0.8"/>
      </g>
     </g>
     <g id="text_11">
      <!-- 0.125 -->
      <g transform="translate(37.059688 350.031532) scale(0.18 -0.18)">
       <use xlink:href="#DejaVuSans-30"/>
       <use xlink:href="#DejaVuSans-2e" transform="translate(63.623047 0)"/>
       <use xlink:href="#DejaVuSans-31" transform="translate(95.410156 0)"/>
       <use xlink:href="#DejaVuSans-32" transform="translate(159.033203 0)"/>
       <use xlink:href="#DejaVuSans-35" transform="translate(222.65625 0)"/>
      </g>
     </g>
    </g>
    <g id="ytick_7">
     <g id="line2d_12">
      <g>
       <use xlink:href="#mb9e20461b1" x="95.590313" y="246.075651" style="stroke: #000000; stroke-width: 0.8"/>
      </g>
     </g>
     <g id="text_12">
      <!-- 0.150 -->
      <g transform="translate(37.059688 252.914245) scale(0.18 -0.18)">
       <use xlink:href="#DejaVuSans-30"/>
       <use xlink:href="#DejaVuSans-2e" transform="translate(63.623047 0)"/>
       <use xlink:href="#DejaVuSans-31" transform="translate(95.410156 0)"/>
       <use xlink:href="#DejaVuSans-35" transform="translate(159.033203 0)"/>
       <use xlink:href="#DejaVuSans-30" transform="translate(222.65625 0)"/>
      </g>
     </g>
    </g>
    <g id="ytick_8">
     <g id="line2d_13">
      <g>
       <use xlink:href="#mb9e20461b1" x="95.590313" y="148.958364" style="stroke: #000000; stroke-width: 0.8"/>
      </g>
     </g>
     <g id="text_13">
      <!-- 0.175 -->
      <g transform="translate(37.059688 155.796958) scale(0.18 -0.18)">
       <use xlink:href="#DejaVuSans-30"/>
       <use xlink:href="#DejaVuSans-2e" transform="translate(63.623047 0)"/>
       <use xlink:href="#DejaVuSans-31" transform="translate(95.410156 0)"/>
       <use xlink:href="#DejaVuSans-37" transform="translate(159.033203 0)"/>
       <use xlink:href="#DejaVuSans-35" transform="translate(222.65625 0)"/>
      </g>
     </g>
    </g>
    <g id="ytick_9">
     <g id="line2d_14">
      <g>
       <use xlink:href="#mb9e20461b1" x="95.590313" y="51.841077" style="stroke: #000000; stroke-width: 0.8"/>
      </g>
     </g>
     <g id="text_14">
      <!-- 0.200 -->
      <g transform="translate(37.059688 58.679671) scale(0.18 -0.18)">
       <use xlink:href="#DejaVuSans-30"/>
       <use xlink:href="#DejaVuSans-2e" transform="translate(63.623047 0)"/>
       <use xlink:href="#DejaVuSans-32" transform="translate(95.410156 0)"/>
       <use xlink:href="#DejaVuSans-30" transform="translate(159.033203 0)"/>
       <use xlink:href="#DejaVuSans-30" transform="translate(222.65625 0)"/>
      </g>
     </g>
    </g>
    <g id="text_15">
     <!-- Normed Hist Counts -->
     <g transform="translate(28.276406 548.966563) rotate(-90) scale(0.23 -0.23)">
      <defs>
       <path id="DejaVuSans-4e" d="M 628 4666 
L 1478 4666 
L 3547 763 
L 3547 4666 
L 4159 4666 
L 4159 0 
L 3309 0 
L 1241 3903 
L 1241 0 
L 628 0 
L 628 4666 
z
" transform="scale(0.015625)"/>
       <path id="DejaVuSans-6f" d="M 1959 3097 
Q 1497 3097 1228 2736 
Q 959 2375 959 1747 
Q 959 1119 1226 758 
Q 1494 397 1959 397 
Q 2419 397 2687 759 
Q 2956 1122 2956 1747 
Q 2956 2369 2687 2733 
Q 2419 3097 1959 3097 
z
M 1959 3584 
Q 2709 3584 3137 3096 
Q 3566 2609 3566 1747 
Q 3566 888 3137 398 
Q 2709 -91 1959 -91 
Q 1206 -91 779 398 
Q 353 888 353 1747 
Q 353 2609 779 3096 
Q 1206 3584 1959 3584 
z
" transform="scale(0.015625)"/>
       <path id="DejaVuSans-72" d="M 2631 2963 
Q 2534 3019 2420 3045 
Q 2306 3072 2169 3072 
Q 1681 3072 1420 2755 
Q 1159 2438 1159 1844 
L 1159 0 
L 581 0 
L 581 3500 
L 1159 3500 
L 1159 2956 
Q 1341 3275 1631 3429 
Q 1922 3584 2338 3584 
Q 2397 3584 2469 3576 
Q 2541 3569 2628 3553 
L 2631 2963 
z
" transform="scale(0.015625)"/>
       <path id="DejaVuSans-6d" d="M 3328 2828 
Q 3544 3216 3844 3400 
Q 4144 3584 4550 3584 
Q 5097 3584 5394 3201 
Q 5691 2819 5691 2113 
L 5691 0 
L 5113 0 
L 5113 2094 
Q 5113 2597 4934 2840 
Q 4756 3084 4391 3084 
Q 3944 3084 3684 2787 
Q 3425 2491 3425 1978 
L 3425 0 
L 2847 0 
L 2847 2094 
Q 2847 2600 2669 2842 
Q 2491 3084 2119 3084 
Q 1678 3084 1418 2786 
Q 1159 2488 1159 1978 
L 1159 0 
L 581 0 
L 581 3500 
L 1159 3500 
L 1159 2956 
Q 1356 3278 1631 3431 
Q 1906 3584 2284 3584 
Q 2666 3584 2933 3390 
Q 3200 3197 3328 2828 
z
" transform="scale(0.015625)"/>
       <path id="DejaVuSans-65" d="M 3597 1894 
L 3597 1613 
L 953 1613 
Q 991 1019 1311 708 
Q 1631 397 2203 397 
Q 2534 397 2845 478 
Q 3156 559 3463 722 
L 3463 178 
Q 3153 47 2828 -22 
Q 2503 -91 2169 -91 
Q 1331 -91 842 396 
Q 353 884 353 1716 
Q 353 2575 817 3079 
Q 1281 3584 2069 3584 
Q 2775 3584 3186 3129 
Q 3597 2675 3597 1894 
z
M 3022 2063 
Q 3016 2534 2758 2815 
Q 2500 3097 2075 3097 
Q 1594 3097 1305 2825 
Q 1016 2553 972 2059 
L 3022 2063 
z
" transform="scale(0.015625)"/>
       <path id="DejaVuSans-64" d="M 2906 2969 
L 2906 4863 
L 3481 4863 
L 3481 0 
L 2906 0 
L 2906 525 
Q 2725 213 2448 61 
Q 2172 -91 1784 -91 
Q 1150 -91 751 415 
Q 353 922 353 1747 
Q 353 2572 751 3078 
Q 1150 3584 1784 3584 
Q 2172 3584 2448 3432 
Q 2725 3281 2906 2969 
z
M 947 1747 
Q 947 1113 1208 752 
Q 1469 391 1925 391 
Q 2381 391 2643 752 
Q 2906 1113 2906 1747 
Q 2906 2381 2643 2742 
Q 2381 3103 1925 3103 
Q 1469 3103 1208 2742 
Q 947 2381 947 1747 
z
" transform="scale(0.015625)"/>
       <path id="DejaVuSans-20" transform="scale(0.015625)"/>
       <path id="DejaVuSans-48" d="M 628 4666 
L 1259 4666 
L 1259 2753 
L 3553 2753 
L 3553 4666 
L 4184 4666 
L 4184 0 
L 3553 0 
L 3553 2222 
L 1259 2222 
L 1259 0 
L 628 0 
L 628 4666 
z
" transform="scale(0.015625)"/>
       <path id="DejaVuSans-69" d="M 603 3500 
L 1178 3500 
L 1178 0 
L 603 0 
L 603 3500 
z
M 603 4863 
L 1178 4863 
L 1178 4134 
L 603 4134 
L 603 4863 
z
" transform="scale(0.015625)"/>
       <path id="DejaVuSans-73" d="M 2834 3397 
L 2834 2853 
Q 2591 2978 2328 3040 
Q 2066 3103 1784 3103 
Q 1356 3103 1142 2972 
Q 928 2841 928 2578 
Q 928 2378 1081 2264 
Q 1234 2150 1697 2047 
L 1894 2003 
Q 2506 1872 2764 1633 
Q 3022 1394 3022 966 
Q 3022 478 2636 193 
Q 2250 -91 1575 -91 
Q 1294 -91 989 -36 
Q 684 19 347 128 
L 347 722 
Q 666 556 975 473 
Q 1284 391 1588 391 
Q 1994 391 2212 530 
Q 2431 669 2431 922 
Q 2431 1156 2273 1281 
Q 2116 1406 1581 1522 
L 1381 1569 
Q 847 1681 609 1914 
Q 372 2147 372 2553 
Q 372 3047 722 3315 
Q 1072 3584 1716 3584 
Q 2034 3584 2315 3537 
Q 2597 3491 2834 3397 
z
" transform="scale(0.015625)"/>
       <path id="DejaVuSans-74" d="M 1172 4494 
L 1172 3500 
L 2356 3500 
L 2356 3053 
L 1172 3053 
L 1172 1153 
Q 1172 725 1289 603 
Q 1406 481 1766 481 
L 2356 481 
L 2356 0 
L 1766 0 
Q 1100 0 847 248 
Q 594 497 594 1153 
L 594 3053 
L 172 3053 
L 172 3500 
L 594 3500 
L 594 4494 
L 1172 4494 
z
" transform="scale(0.015625)"/>
       <path id="DejaVuSans-43" d="M 4122 4306 
L 4122 3641 
Q 3803 3938 3442 4084 
Q 3081 4231 2675 4231 
Q 1875 4231 1450 3742 
Q 1025 3253 1025 2328 
Q 1025 1406 1450 917 
Q 1875 428 2675 428 
Q 3081 428 3442 575 
Q 3803 722 4122 1019 
L 4122 359 
Q 3791 134 3420 21 
Q 3050 -91 2638 -91 
Q 1578 -91 968 557 
Q 359 1206 359 2328 
Q 359 3453 968 4101 
Q 1578 4750 2638 4750 
Q 3056 4750 3426 4639 
Q 3797 4528 4122 4306 
z
" transform="scale(0.015625)"/>
       <path id="DejaVuSans-75" d="M 544 1381 
L 544 3500 
L 1119 3500 
L 1119 1403 
Q 1119 906 1312 657 
Q 1506 409 1894 409 
Q 2359 409 2629 706 
Q 2900 1003 2900 1516 
L 2900 3500 
L 3475 3500 
L 3475 0 
L 2900 0 
L 2900 538 
Q 2691 219 2414 64 
Q 2138 -91 1772 -91 
Q 1169 -91 856 284 
Q 544 659 544 1381 
z
M 1991 3584 
L 1991 3584 
z
" transform="scale(0.015625)"/>
       <path id="DejaVuSans-6e" d="M 3513 2113 
L 3513 0 
L 2938 0 
L 2938 2094 
Q 2938 2591 2744 2837 
Q 2550 3084 2163 3084 
Q 1697 3084 1428 2787 
Q 1159 2491 1159 1978 
L 1159 0 
L 581 0 
L 581 3500 
L 1159 3500 
L 1159 2956 
Q 1366 3272 1645 3428 
Q 1925 3584 2291 3584 
Q 2894 3584 3203 3211 
Q 3513 2838 3513 2113 
z
" transform="scale(0.015625)"/>
      </defs>
      <use xlink:href="#DejaVuSans-4e"/>
      <use xlink:href="#DejaVuSans-6f" transform="translate(74.804688 0)"/>
      <use xlink:href="#DejaVuSans-72" transform="translate(135.986328 0)"/>
      <use xlink:href="#DejaVuSans-6d" transform="translate(175.349609 0)"/>
      <use xlink:href="#DejaVuSans-65" transform="translate(272.761719 0)"/>
      <use xlink:href="#DejaVuSans-64" transform="translate(334.285156 0)"/>
      <use xlink:href="#DejaVuSans-20" transform="translate(397.761719 0)"/>
      <use xlink:href="#DejaVuSans-48" transform="translate(429.548828 0)"/>
      <use xlink:href="#DejaVuSans-69" transform="translate(504.744141 0)"/>
      <use xlink:href="#DejaVuSans-73" transform="translate(532.527344 0)"/>
      <use xlink:href="#DejaVuSans-74" transform="translate(584.626953 0)"/>
      <use xlink:href="#DejaVuSans-20" transform="translate(623.835938 0)"/>
      <use xlink:href="#DejaVuSans-43" transform="translate(655.623047 0)"/>
      <use xlink:href="#DejaVuSans-6f" transform="translate(725.447266 0)"/>
      <use xlink:href="#DejaVuSans-75" transform="translate(786.628906 0)"/>
      <use xlink:href="#DejaVuSans-6e" transform="translate(850.007812 0)"/>
      <use xlink:href="#DejaVuSans-74" transform="translate(913.386719 0)"/>
      <use xlink:href="#DejaVuSans-73" transform="translate(952.595703 0)"/>
     </g>
    </g>
   </g>
   <g id="line2d_15">
    <path d="M 159.239866 175.290668 
L 162.943633 -1 
M 285.440469 -1 
L 292.600835 77.063013 
L 298.662697 141.236509 
L 304.724559 203.147845 
L 310.786421 262.36825 
L 316.848283 318.558762 
L 322.910146 371.465903 
L 328.972008 420.916044 
L 335.03387 466.808724 
L 341.095732 509.109206 
L 347.157594 547.840541 
L 353.219457 583.075393 
L 359.281319 614.927868 
L 365.343181 643.545552 
L 371.405043 669.101928 
L 377.466906 691.789326 
L 383.528768 711.812499 
L 389.59063 729.382902 
L 395.652492 744.713718 
L 401.714354 758.01564 
L 407.776217 769.493402 
L 413.838079 779.343015 
L 419.899941 787.749679 
L 425.961803 794.886293 
L 432.023665 800.912502 
L 438.085528 805.97422 
L 444.14739 810.203536 
L 450.209252 813.718948 
L 456.271114 816.62585 
L 462.332977 819.017218 
L 468.394839 820.974423 
L 474.456701 822.568142 
L 480.518563 823.859312 
L 486.580425 824.900099 
L 492.642288 825.734849 
L 498.70415 826.401004 
L 510.827874 827.347918 
L 522.951599 827.933592 
L 535.075323 828.288769 
L 553.26091 828.569986 
L 583.570221 828.733163 
L 656.312567 828.778604 
L 1365.550447 828.779375 
L 1365.550447 828.779375 
" clip-path="url(#pfd8a76ab54)" style="fill: none; stroke: #ff7f0e; stroke-width: 1.5; stroke-linecap: square"/>
   </g>
   <g id="line2d_16">
    <path d="M 159.239866 765.066404 
L 165.301728 661.740985 
L 171.36359 571.390324 
L 177.425452 492.432504 
L 183.487315 423.689388 
L 189.549177 364.159062 
L 195.611039 312.955396 
L 201.672901 269.281816 
L 207.734763 232.416511 
L 213.796626 201.702595 
L 219.858488 176.540797 
L 225.92035 156.38364 
L 231.982212 140.730583 
L 238.044075 129.123833 
L 244.105937 121.144665 
L 250.167799 116.410148 
L 256.229661 114.570188 
L 262.291523 115.304855 
L 268.353386 118.321947 
L 274.415248 123.354759 
L 280.47711 130.160044 
L 286.538972 138.516132 
L 292.600835 148.221213 
L 298.662697 159.091737 
L 304.724559 170.960956 
L 310.786421 183.677574 
L 316.848283 197.104496 
L 322.910146 211.117678 
L 328.972008 225.605067 
L 341.095732 255.608398 
L 353.219457 286.422422 
L 377.466906 348.37425 
L 389.59063 378.725126 
L 401.714354 408.278152 
L 413.838079 436.833528 
L 419.899941 450.689878 
L 425.961803 464.246094 
L 432.023665 477.490972 
L 438.085528 490.415586 
L 444.14739 503.013067 
L 450.209252 515.278393 
L 456.271114 527.208201 
L 462.332977 538.80061 
L 468.394839 550.055062 
L 474.456701 560.972178 
L 480.518563 571.553621 
L 486.580425 581.801979 
L 492.642288 591.720645 
L 498.70415 601.313724 
L 504.766012 610.585935 
L 510.827874 619.542529 
L 516.889737 628.18921 
L 522.951599 636.532068 
L 529.013461 644.577515 
L 535.075323 652.332228 
L 541.137185 659.803096 
L 547.199048 666.997174 
L 553.26091 673.921644 
L 559.322772 680.583774 
L 565.384634 686.990884 
L 571.446496 693.15032 
L 577.508359 699.069422 
L 583.570221 704.755504 
L 589.632083 710.215833 
L 595.693945 715.457605 
L 601.755808 720.487938 
L 607.81767 725.313848 
L 613.879532 729.942244 
L 619.941394 734.379914 
L 626.003256 738.633518 
L 632.065119 742.709578 
L 638.126981 746.614474 
L 644.188843 750.354438 
L 650.250705 753.935549 
L 656.312567 757.363732 
L 662.37443 760.644754 
L 668.436292 763.784225 
L 674.498154 766.787594 
L 680.560016 769.66015 
L 692.683741 775.033188 
L 704.807465 779.94249 
L 716.93119 784.424723 
L 729.054914 788.514138 
L 741.178638 792.242653 
L 753.302363 795.639947 
L 765.426087 798.733564 
L 777.549812 801.549019 
L 789.673536 804.109912 
L 801.797261 806.438034 
L 813.920985 808.553477 
L 826.04471 810.474748 
L 838.168434 812.218864 
L 850.292158 813.801464 
L 868.477745 815.903583 
L 886.663332 817.717786 
L 904.848918 819.282173 
L 923.034505 820.63006 
L 941.220092 821.790526 
L 965.46754 823.089587 
L 989.714989 824.151284 
L 1020.0243 825.208482 
L 1050.333612 826.027528 
L 1086.704785 826.769383 
L 1129.13782 827.388776 
L 1177.632718 827.868708 
L 1238.25134 828.244555 
L 1323.117411 828.526815 
L 1365.550447 828.606165 
L 1365.550447 828.606165 
" clip-path="url(#pfd8a76ab54)" style="fill: none; stroke: #2ca02c; stroke-width: 1.5; stroke-linecap: square"/>
   </g>
   <g id="line2d_17">
    <path d="M 159.239866 619.411359 
L 165.301728 607.165463 
L 171.36359 594.611066 
L 183.487315 568.689427 
L 195.611039 541.901749 
L 213.796626 500.767577 
L 231.982212 459.562114 
L 244.105937 432.715016 
L 250.167799 419.63718 
L 256.229661 406.86221 
L 262.291523 394.444669 
L 268.353386 382.438881 
L 274.415248 370.898546 
L 280.47711 359.876335 
L 286.538972 349.423503 
L 292.600835 339.589486 
L 298.662697 330.421521 
L 304.724559 321.96426 
L 310.786421 314.259416 
L 316.848283 307.345418 
L 322.910146 301.257092 
L 328.972008 296.025368 
L 335.03387 291.67702 
L 341.095732 288.234437 
L 347.157594 285.715433 
L 353.219457 284.133088 
L 359.281319 283.49564 
L 365.343181 283.806415 
L 371.405043 285.063789 
L 377.466906 287.261214 
L 383.528768 290.387267 
L 389.59063 294.425749 
L 395.652492 299.355829 
L 401.714354 305.152221 
L 407.776217 311.785398 
L 413.838079 319.221845 
L 419.899941 327.424342 
L 425.961803 336.352269 
L 432.023665 345.961947 
L 438.085528 356.206988 
L 444.14739 367.03867 
L 450.209252 378.406323 
L 456.271114 390.257716 
L 462.332977 402.53946 
L 468.394839 415.197403 
L 474.456701 428.177019 
L 486.580425 454.88361 
L 504.766012 496.013152 
L 522.951599 537.219556 
L 535.075323 564.127256 
L 547.199048 590.217663 
L 553.26091 602.872187 
L 559.322772 615.227311 
L 565.384634 627.257631 
L 571.446496 638.940798 
L 577.508359 650.2575 
L 583.570221 661.19141 
L 589.632083 671.729125 
L 595.693945 681.860075 
L 601.755808 691.576413 
L 607.81767 700.872898 
L 613.879532 709.746751 
L 619.941394 718.197515 
L 626.003256 726.22689 
L 632.065119 733.838571 
L 638.126981 741.038081 
L 644.188843 747.832594 
L 650.250705 754.230765 
L 656.312567 760.242559 
L 662.37443 765.879074 
L 668.436292 771.152385 
L 674.498154 776.075377 
L 680.560016 780.661592 
L 686.621879 784.925087 
L 692.683741 788.88029 
L 698.745603 792.541875 
L 704.807465 795.924642 
L 710.869327 799.043408 
L 716.93119 801.912905 
L 722.993052 804.547693 
L 729.054914 806.962079 
L 735.116776 809.170047 
L 741.178638 811.185199 
L 747.240501 813.020706 
L 753.302363 814.689259 
L 759.364225 816.203042 
L 765.426087 817.573703 
L 771.48795 818.812335 
L 783.611674 820.935042 
L 795.735398 822.648486 
L 807.859123 824.020891 
L 819.982847 825.111695 
L 832.106572 825.972055 
L 844.230296 826.645495 
L 862.415883 827.383584 
L 880.601469 827.88056 
L 904.848918 828.291593 
L 935.158229 828.560891 
L 983.653127 828.724162 
L 1092.766647 828.777711 
L 1365.550447 828.779375 
L 1365.550447 828.779375 
" clip-path="url(#pfd8a76ab54)" style="fill: none; stroke: #d62728; stroke-width: 1.5; stroke-linecap: square"/>
   </g>
   <g id="patch_103">
    <path d="M 95.590313 828.779375 
L 95.590313 38.075625 
" style="fill: none; stroke: #000000; stroke-width: 0.8; stroke-linejoin: miter; stroke-linecap: square"/>
   </g>
   <g id="patch_104">
    <path d="M 1429.2 828.779375 
L 1429.2 38.075625 
" style="fill: none; stroke: #000000; stroke-width: 0.8; stroke-linejoin: miter; stroke-linecap: square"/>
   </g>
   <g id="patch_105">
    <path d="M 95.590313 828.779375 
L 1429.2 828.779375 
" style="fill: none; stroke: #000000; stroke-width: 0.8; stroke-linejoin: miter; stroke-linecap: square"/>
   </g>
   <g id="patch_106">
    <path d="M 95.590313 38.075625 
L 1429.2 38.075625 
" style="fill: none; stroke: #000000; stroke-width: 0.8; stroke-linejoin: miter; stroke-linecap: square"/>
   </g>
   <g id="text_16">
    <!-- All Fitted Distributions -->
    <g transform="translate(607.769531 32.075625) scale(0.28 -0.28)">
     <defs>
      <path id="DejaVuSans-41" d="M 2188 4044 
L 1331 1722 
L 3047 1722 
L 2188 4044 
z
M 1831 4666 
L 2547 4666 
L 4325 0 
L 3669 0 
L 3244 1197 
L 1141 1197 
L 716 0 
L 50 0 
L 1831 4666 
z
" transform="scale(0.015625)"/>
      <path id="DejaVuSans-6c" d="M 603 4863 
L 1178 4863 
L 1178 0 
L 603 0 
L 603 4863 
z
" transform="scale(0.015625)"/>
      <path id="DejaVuSans-46" d="M 628 4666 
L 3309 4666 
L 3309 4134 
L 1259 4134 
L 1259 2759 
L 3109 2759 
L 3109 2228 
L 1259 2228 
L 1259 0 
L 628 0 
L 628 4666 
z
" transform="scale(0.015625)"/>
      <path id="DejaVuSans-44" d="M 1259 4147 
L 1259 519 
L 2022 519 
Q 2988 519 3436 956 
Q 3884 1394 3884 2338 
Q 3884 3275 3436 3711 
Q 2988 4147 2022 4147 
L 1259 4147 
z
M 628 4666 
L 1925 4666 
Q 3281 4666 3915 4102 
Q 4550 3538 4550 2338 
Q 4550 1131 3912 565 
Q 3275 0 1925 0 
L 628 0 
L 628 4666 
z
" transform="scale(0.015625)"/>
      <path id="DejaVuSans-62" d="M 3116 1747 
Q 3116 2381 2855 2742 
Q 2594 3103 2138 3103 
Q 1681 3103 1420 2742 
Q 1159 2381 1159 1747 
Q 1159 1113 1420 752 
Q 1681 391 2138 391 
Q 2594 391 2855 752 
Q 3116 1113 3116 1747 
z
M 1159 2969 
Q 1341 3281 1617 3432 
Q 1894 3584 2278 3584 
Q 2916 3584 3314 3078 
Q 3713 2572 3713 1747 
Q 3713 922 3314 415 
Q 2916 -91 2278 -91 
Q 1894 -91 1617 61 
Q 1341 213 1159 525 
L 1159 0 
L 581 0 
L 581 4863 
L 1159 4863 
L 1159 2969 
z
" transform="scale(0.015625)"/>
     </defs>
     <use xlink:href="#DejaVuSans-41"/>
     <use xlink:href="#DejaVuSans-6c" transform="translate(68.408203 0)"/>
     <use xlink:href="#DejaVuSans-6c" transform="translate(96.191406 0)"/>
     <use xlink:href="#DejaVuSans-20" transform="translate(123.974609 0)"/>
     <use xlink:href="#DejaVuSans-46" transform="translate(155.761719 0)"/>
     <use xlink:href="#DejaVuSans-69" transform="translate(206.03125 0)"/>
     <use xlink:href="#DejaVuSans-74" transform="translate(233.814453 0)"/>
     <use xlink:href="#DejaVuSans-74" transform="translate(273.023438 0)"/>
     <use xlink:href="#DejaVuSans-65" transform="translate(312.232422 0)"/>
     <use xlink:href="#DejaVuSans-64" transform="translate(373.755859 0)"/>
     <use xlink:href="#DejaVuSans-20" transform="translate(437.232422 0)"/>
     <use xlink:href="#DejaVuSans-44" transform="translate(469.019531 0)"/>
     <use xlink:href="#DejaVuSans-69" transform="translate(546.021484 0)"/>
     <use xlink:href="#DejaVuSans-73" transform="translate(573.804688 0)"/>
     <use xlink:href="#DejaVuSans-74" transform="translate(625.904297 0)"/>
     <use xlink:href="#DejaVuSans-72" transform="translate(665.113281 0)"/>
     <use xlink:href="#DejaVuSans-69" transform="translate(706.226562 0)"/>
     <use xlink:href="#DejaVuSans-62" transform="translate(734.009766 0)"/>
     <use xlink:href="#DejaVuSans-75" transform="translate(797.486328 0)"/>
     <use xlink:href="#DejaVuSans-74" transform="translate(860.865234 0)"/>
     <use xlink:href="#DejaVuSans-69" transform="translate(900.074219 0)"/>
     <use xlink:href="#DejaVuSans-6f" transform="translate(927.857422 0)"/>
     <use xlink:href="#DejaVuSans-6e" transform="translate(989.039062 0)"/>
     <use xlink:href="#DejaVuSans-73" transform="translate(1052.417969 0)"/>
    </g>
   </g>
   <g id="legend_1">
    <g id="patch_107">
     <path d="M 1060.635 198.185625 
L 1412.4 198.185625 
Q 1417.2 198.185625 1417.2 193.385625 
L 1417.2 54.875625 
Q 1417.2 50.075625 1412.4 50.075625 
L 1060.635 50.075625 
Q 1055.835 50.075625 1055.835 54.875625 
L 1055.835 193.385625 
Q 1055.835 198.185625 1060.635 198.185625 
z
" style="fill: #ffffff; opacity: 0.8; stroke: #cccccc; stroke-linejoin: miter"/>
    </g>
    <g id="patch_108">
     <path d="M 1065.435 77.911875 
L 1113.435 77.911875 
L 1113.435 61.111875 
L 1065.435 61.111875 
z
" style="fill: #1f77b4; opacity: 0.6"/>
    </g>
    <g id="text_17">
     <!-- Generated Distribution -->
     <g transform="translate(1132.635 77.911875) scale(0.24 -0.24)">
      <defs>
       <path id="DejaVuSans-47" d="M 3809 666 
L 3809 1919 
L 2778 1919 
L 2778 2438 
L 4434 2438 
L 4434 434 
Q 4069 175 3628 42 
Q 3188 -91 2688 -91 
Q 1594 -91 976 548 
Q 359 1188 359 2328 
Q 359 3472 976 4111 
Q 1594 4750 2688 4750 
Q 3144 4750 3555 4637 
Q 3966 4525 4313 4306 
L 4313 3634 
Q 3963 3931 3569 4081 
Q 3175 4231 2741 4231 
Q 1884 4231 1454 3753 
Q 1025 3275 1025 2328 
Q 1025 1384 1454 906 
Q 1884 428 2741 428 
Q 3075 428 3337 486 
Q 3600 544 3809 666 
z
" transform="scale(0.015625)"/>
       <path id="DejaVuSans-61" d="M 2194 1759 
Q 1497 1759 1228 1600 
Q 959 1441 959 1056 
Q 959 750 1161 570 
Q 1363 391 1709 391 
Q 2188 391 2477 730 
Q 2766 1069 2766 1631 
L 2766 1759 
L 2194 1759 
z
M 3341 1997 
L 3341 0 
L 2766 0 
L 2766 531 
Q 2569 213 2275 61 
Q 1981 -91 1556 -91 
Q 1019 -91 701 211 
Q 384 513 384 1019 
Q 384 1609 779 1909 
Q 1175 2209 1959 2209 
L 2766 2209 
L 2766 2266 
Q 2766 2663 2505 2880 
Q 2244 3097 1772 3097 
Q 1472 3097 1187 3025 
Q 903 2953 641 2809 
L 641 3341 
Q 956 3463 1253 3523 
Q 1550 3584 1831 3584 
Q 2591 3584 2966 3190 
Q 3341 2797 3341 1997 
z
" transform="scale(0.015625)"/>
      </defs>
      <use xlink:href="#DejaVuSans-47"/>
      <use xlink:href="#DejaVuSans-65" transform="translate(77.490234 0)"/>
      <use xlink:href="#DejaVuSans-6e" transform="translate(139.013672 0)"/>
      <use xlink:href="#DejaVuSans-65" transform="translate(202.392578 0)"/>
      <use xlink:href="#DejaVuSans-72" transform="translate(263.916016 0)"/>
      <use xlink:href="#DejaVuSans-61" transform="translate(305.029297 0)"/>
      <use xlink:href="#DejaVuSans-74" transform="translate(366.308594 0)"/>
      <use xlink:href="#DejaVuSans-65" transform="translate(405.517578 0)"/>
      <use xlink:href="#DejaVuSans-64" transform="translate(467.041016 0)"/>
      <use xlink:href="#DejaVuSans-20" transform="translate(530.517578 0)"/>
      <use xlink:href="#DejaVuSans-44" transform="translate(562.304688 0)"/>
      <use xlink:href="#DejaVuSans-69" transform="translate(639.306641 0)"/>
      <use xlink:href="#DejaVuSans-73" transform="translate(667.089844 0)"/>
      <use xlink:href="#DejaVuSans-74" transform="translate(719.189453 0)"/>
      <use xlink:href="#DejaVuSans-72" transform="translate(758.398438 0)"/>
      <use xlink:href="#DejaVuSans-69" transform="translate(799.511719 0)"/>
      <use xlink:href="#DejaVuSans-62" transform="translate(827.294922 0)"/>
      <use xlink:href="#DejaVuSans-75" transform="translate(890.771484 0)"/>
      <use xlink:href="#DejaVuSans-74" transform="translate(954.150391 0)"/>
      <use xlink:href="#DejaVuSans-69" transform="translate(993.359375 0)"/>
      <use xlink:href="#DejaVuSans-6f" transform="translate(1021.142578 0)"/>
      <use xlink:href="#DejaVuSans-6e" transform="translate(1082.324219 0)"/>
     </g>
    </g>
    <g id="line2d_18">
     <path d="M 1065.435 104.739375 
L 1089.435 104.739375 
L 1113.435 104.739375 
" style="fill: none; stroke: #ff7f0e; stroke-width: 1.5; stroke-linecap: square"/>
    </g>
    <g id="text_18">
     <!-- Chi fit -->
     <g transform="translate(1132.635 113.139375) scale(0.24 -0.24)">
      <defs>
       <path id="DejaVuSans-68" d="M 3513 2113 
L 3513 0 
L 2938 0 
L 2938 2094 
Q 2938 2591 2744 2837 
Q 2550 3084 2163 3084 
Q 1697 3084 1428 2787 
Q 1159 2491 1159 1978 
L 1159 0 
L 581 0 
L 581 4863 
L 1159 4863 
L 1159 2956 
Q 1366 3272 1645 3428 
Q 1925 3584 2291 3584 
Q 2894 3584 3203 3211 
Q 3513 2838 3513 2113 
z
" transform="scale(0.015625)"/>
       <path id="DejaVuSans-66" d="M 2375 4863 
L 2375 4384 
L 1825 4384 
Q 1516 4384 1395 4259 
Q 1275 4134 1275 3809 
L 1275 3500 
L 2222 3500 
L 2222 3053 
L 1275 3053 
L 1275 0 
L 697 0 
L 697 3053 
L 147 3053 
L 147 3500 
L 697 3500 
L 697 3744 
Q 697 4328 969 4595 
Q 1241 4863 1831 4863 
L 2375 4863 
z
" transform="scale(0.015625)"/>
      </defs>
      <use xlink:href="#DejaVuSans-43"/>
      <use xlink:href="#DejaVuSans-68" transform="translate(69.824219 0)"/>
      <use xlink:href="#DejaVuSans-69" transform="translate(133.203125 0)"/>
      <use xlink:href="#DejaVuSans-20" transform="translate(160.986328 0)"/>
      <use xlink:href="#DejaVuSans-66" transform="translate(192.773438 0)"/>
      <use xlink:href="#DejaVuSans-69" transform="translate(227.978516 0)"/>
      <use xlink:href="#DejaVuSans-74" transform="translate(255.761719 0)"/>
     </g>
    </g>
    <g id="line2d_19">
     <path d="M 1065.435 139.966875 
L 1089.435 139.966875 
L 1113.435 139.966875 
" style="fill: none; stroke: #2ca02c; stroke-width: 1.5; stroke-linecap: square"/>
    </g>
    <g id="text_19">
     <!-- ChiSquared fit -->
     <g transform="translate(1132.635 148.366875) scale(0.24 -0.24)">
      <defs>
       <path id="DejaVuSans-53" d="M 3425 4513 
L 3425 3897 
Q 3066 4069 2747 4153 
Q 2428 4238 2131 4238 
Q 1616 4238 1336 4038 
Q 1056 3838 1056 3469 
Q 1056 3159 1242 3001 
Q 1428 2844 1947 2747 
L 2328 2669 
Q 3034 2534 3370 2195 
Q 3706 1856 3706 1288 
Q 3706 609 3251 259 
Q 2797 -91 1919 -91 
Q 1588 -91 1214 -16 
Q 841 59 441 206 
L 441 856 
Q 825 641 1194 531 
Q 1563 422 1919 422 
Q 2459 422 2753 634 
Q 3047 847 3047 1241 
Q 3047 1584 2836 1778 
Q 2625 1972 2144 2069 
L 1759 2144 
Q 1053 2284 737 2584 
Q 422 2884 422 3419 
Q 422 4038 858 4394 
Q 1294 4750 2059 4750 
Q 2388 4750 2728 4690 
Q 3069 4631 3425 4513 
z
" transform="scale(0.015625)"/>
       <path id="DejaVuSans-71" d="M 947 1747 
Q 947 1113 1208 752 
Q 1469 391 1925 391 
Q 2381 391 2643 752 
Q 2906 1113 2906 1747 
Q 2906 2381 2643 2742 
Q 2381 3103 1925 3103 
Q 1469 3103 1208 2742 
Q 947 2381 947 1747 
z
M 2906 525 
Q 2725 213 2448 61 
Q 2172 -91 1784 -91 
Q 1150 -91 751 415 
Q 353 922 353 1747 
Q 353 2572 751 3078 
Q 1150 3584 1784 3584 
Q 2172 3584 2448 3432 
Q 2725 3281 2906 2969 
L 2906 3500 
L 3481 3500 
L 3481 -1331 
L 2906 -1331 
L 2906 525 
z
" transform="scale(0.015625)"/>
      </defs>
      <use xlink:href="#DejaVuSans-43"/>
      <use xlink:href="#DejaVuSans-68" transform="translate(69.824219 0)"/>
      <use xlink:href="#DejaVuSans-69" transform="translate(133.203125 0)"/>
      <use xlink:href="#DejaVuSans-53" transform="translate(160.986328 0)"/>
      <use xlink:href="#DejaVuSans-71" transform="translate(224.462891 0)"/>
      <use xlink:href="#DejaVuSans-75" transform="translate(287.939453 0)"/>
      <use xlink:href="#DejaVuSans-61" transform="translate(351.318359 0)"/>
      <use xlink:href="#DejaVuSans-72" transform="translate(412.597656 0)"/>
      <use xlink:href="#DejaVuSans-65" transform="translate(451.460938 0)"/>
      <use xlink:href="#DejaVuSans-64" transform="translate(512.984375 0)"/>
      <use xlink:href="#DejaVuSans-20" transform="translate(576.460938 0)"/>
      <use xlink:href="#DejaVuSans-66" transform="translate(608.248047 0)"/>
      <use xlink:href="#DejaVuSans-69" transform="translate(643.453125 0)"/>
      <use xlink:href="#DejaVuSans-74" transform="translate(671.236328 0)"/>
     </g>
    </g>
    <g id="line2d_20">
     <path d="M 1065.435 175.194375 
L 1089.435 175.194375 
L 1113.435 175.194375 
" style="fill: none; stroke: #d62728; stroke-width: 1.5; stroke-linecap: square"/>
    </g>
    <g id="text_20">
     <!-- Normal fit -->
     <g transform="translate(1132.635 183.594375) scale(0.24 -0.24)">
      <use xlink:href="#DejaVuSans-4e"/>
      <use xlink:href="#DejaVuSans-6f" transform="translate(74.804688 0)"/>
      <use xlink:href="#DejaVuSans-72" transform="translate(135.986328 0)"/>
      <use xlink:href="#DejaVuSans-6d" transform="translate(175.349609 0)"/>
      <use xlink:href="#DejaVuSans-61" transform="translate(272.761719 0)"/>
      <use xlink:href="#DejaVuSans-6c" transform="translate(334.041016 0)"/>
      <use xlink:href="#DejaVuSans-20" transform="translate(361.824219 0)"/>
      <use xlink:href="#DejaVuSans-66" transform="translate(393.611328 0)"/>
      <use xlink:href="#DejaVuSans-69" transform="translate(428.816406 0)"/>
      <use xlink:href="#DejaVuSans-74" transform="translate(456.599609 0)"/>
     </g>
    </g>
   </g>
  </g>
 </g>
 <defs>
  <clipPath id="pfd8a76ab54">
   <rect x="95.590313" y="38.075625" width="1333.609687" height="790.70375"/>
  </clipPath>
 </defs>
</svg>
