<?xml version="1.0" encoding="utf-8" standalone="no"?>
<!DOCTYPE svg PUBLIC "-//W3C//DTD SVG 1.1//EN"
  "http://www.w3.org/Graphics/SVG/1.1/DTD/svg11.dtd">
<svg height="864pt" version="1.1" viewBox="0 0 1440 864" width="1440pt" xmlns="http://www.w3.org/2000/svg" xmlns:xlink="http://www.w3.org/1999/xlink">
 <metadata>
  <rdf:RDF xmlns:cc="http://creativecommons.org/ns#" xmlns:dc="http://purl.org/dc/elements/1.1/" xmlns:rdf="http://www.w3.org/1999/02/22-rdf-syntax-ns#">
   <cc:Work>
    <dc:type rdf:resource="http://purl.org/dc/dcmitype/StillImage"/>
    <dc:date>2022-06-27T11:09:15.491180</dc:date>
    <dc:format>image/svg+xml</dc:format>
    <dc:creator>
     <cc:Agent>
      <dc:title>Matplotlib v3.4.3, https://matplotlib.org/</dc:title>
     </cc:Agent>
    </dc:creator>
   </cc:Work>
  </rdf:RDF>
 </metadata>
 <defs>
  <style type="text/css">*{stroke-linecap:butt;stroke-linejoin:round;}</style>
 </defs>
 <g id="figure_1">
  <g id="patch_1">
   <path d="M 0 864 
L 1440 864 
L 1440 0 
L 0 0 
z
" style="fill:#ffffff;"/>
  </g>
  <g id="axes_1">
   <g id="patch_2">
    <path d="M 95.590313 802.519687 
L 1429.2 802.519687 
L 1429.2 69.4295 
L 95.590313 69.4295 
z
" style="fill:#ffffff;"/>
   </g>
   <g id="patch_3">
    <path clip-path="url(#p8833c10891)" d="M 156.208935 802.519687 
L 168.332659 802.519687 
L 168.332659 675.537542 
L 156.208935 675.537542 
z
" style="fill:#ff7f0e;opacity:0.5;"/>
   </g>
   <g id="patch_4">
    <path clip-path="url(#p8833c10891)" d="M 168.332659 802.519687 
L 180.456384 802.519687 
L 180.456384 475.826592 
L 168.332659 475.826592 
z
" style="fill:#ff7f0e;opacity:0.5;"/>
   </g>
   <g id="patch_5">
    <path clip-path="url(#p8833c10891)" d="M 180.456384 802.519687 
L 192.580108 802.519687 
L 192.580108 352.363582 
L 180.456384 352.363582 
z
" style="fill:#ff7f0e;opacity:0.5;"/>
   </g>
   <g id="patch_6">
    <path clip-path="url(#p8833c10891)" d="M 192.580108 802.519687 
L 204.703832 802.519687 
L 204.703832 237.40515 
L 192.580108 237.40515 
z
" style="fill:#ff7f0e;opacity:0.5;"/>
   </g>
   <g id="patch_7">
    <path clip-path="url(#p8833c10891)" d="M 204.703832 802.519687 
L 216.827557 802.519687 
L 216.827557 181.09898 
L 204.703832 181.09898 
z
" style="fill:#ff7f0e;opacity:0.5;"/>
   </g>
   <g id="patch_8">
    <path clip-path="url(#p8833c10891)" d="M 216.827557 802.519687 
L 228.951281 802.519687 
L 228.951281 160.277427 
L 216.827557 160.277427 
z
" style="fill:#ff7f0e;opacity:0.5;"/>
   </g>
   <g id="patch_9">
    <path clip-path="url(#p8833c10891)" d="M 228.951281 802.519687 
L 241.075006 802.519687 
L 241.075006 118.634321 
L 228.951281 118.634321 
z
" style="fill:#ff7f0e;opacity:0.5;"/>
   </g>
   <g id="patch_10">
    <path clip-path="url(#p8833c10891)" d="M 241.075006 802.519687 
L 253.19873 802.519687 
L 253.19873 104.557779 
L 241.075006 104.557779 
z
" style="fill:#ff7f0e;opacity:0.5;"/>
   </g>
   <g id="patch_11">
    <path clip-path="url(#p8833c10891)" d="M 253.19873 802.519687 
L 265.322455 802.519687 
L 265.322455 110.129744 
L 253.19873 110.129744 
z
" style="fill:#ff7f0e;opacity:0.5;"/>
   </g>
   <g id="patch_12">
    <path clip-path="url(#p8833c10891)" d="M 265.322455 802.519687 
L 277.446179 802.519687 
L 277.446179 141.215442 
L 265.322455 141.215442 
z
" style="fill:#ff7f0e;opacity:0.5;"/>
   </g>
   <g id="patch_13">
    <path clip-path="url(#p8833c10891)" d="M 277.446179 802.519687 
L 289.569903 802.519687 
L 289.569903 148.546975 
L 277.446179 148.546975 
z
" style="fill:#ff7f0e;opacity:0.5;"/>
   </g>
   <g id="patch_14">
    <path clip-path="url(#p8833c10891)" d="M 289.569903 802.519687 
L 301.693628 802.519687 
L 301.693628 176.70006 
L 289.569903 176.70006 
z
" style="fill:#ff7f0e;opacity:0.5;"/>
   </g>
   <g id="patch_15">
    <path clip-path="url(#p8833c10891)" d="M 301.693628 802.519687 
L 313.817352 802.519687 
L 313.817352 175.527015 
L 301.693628 175.527015 
z
" style="fill:#ff7f0e;opacity:0.5;"/>
   </g>
   <g id="patch_16">
    <path clip-path="url(#p8833c10891)" d="M 313.817352 802.519687 
L 325.941077 802.519687 
L 325.941077 219.516211 
L 313.817352 219.516211 
z
" style="fill:#ff7f0e;opacity:0.5;"/>
   </g>
   <g id="patch_17">
    <path clip-path="url(#p8833c10891)" d="M 325.941077 802.519687 
L 338.064801 802.519687 
L 338.064801 272.009985 
L 325.941077 272.009985 
z
" style="fill:#ff7f0e;opacity:0.5;"/>
   </g>
   <g id="patch_18">
    <path clip-path="url(#p8833c10891)" d="M 338.064801 802.519687 
L 350.188526 802.519687 
L 350.188526 296.643934 
L 338.064801 296.643934 
z
" style="fill:#ff7f0e;opacity:0.5;"/>
   </g>
   <g id="patch_19">
    <path clip-path="url(#p8833c10891)" d="M 350.188526 802.519687 
L 362.31225 802.519687 
L 362.31225 323.330713 
L 350.188526 323.330713 
z
" style="fill:#ff7f0e;opacity:0.5;"/>
   </g>
   <g id="patch_20">
    <path clip-path="url(#p8833c10891)" d="M 362.31225 802.519687 
L 374.435974 802.519687 
L 374.435974 336.527472 
L 362.31225 336.527472 
z
" style="fill:#ff7f0e;opacity:0.5;"/>
   </g>
   <g id="patch_21">
    <path clip-path="url(#p8833c10891)" d="M 374.435974 802.519687 
L 386.559699 802.519687 
L 386.559699 394.593211 
L 374.435974 394.593211 
z
" style="fill:#ff7f0e;opacity:0.5;"/>
   </g>
   <g id="patch_22">
    <path clip-path="url(#p8833c10891)" d="M 386.559699 802.519687 
L 398.683423 802.519687 
L 398.683423 410.13606 
L 386.559699 410.13606 
z
" style="fill:#ff7f0e;opacity:0.5;"/>
   </g>
   <g id="patch_23">
    <path clip-path="url(#p8833c10891)" d="M 398.683423 802.519687 
L 410.807148 802.519687 
L 410.807148 457.937653 
L 398.683423 457.937653 
z
" style="fill:#ff7f0e;opacity:0.5;"/>
   </g>
   <g id="patch_24">
    <path clip-path="url(#p8833c10891)" d="M 410.807148 802.519687 
L 422.930872 802.519687 
L 422.930872 481.691819 
L 410.807148 481.691819 
z
" style="fill:#ff7f0e;opacity:0.5;"/>
   </g>
   <g id="patch_25">
    <path clip-path="url(#p8833c10891)" d="M 422.930872 802.519687 
L 435.054597 802.519687 
L 435.054597 503.393155 
L 422.930872 503.393155 
z
" style="fill:#ff7f0e;opacity:0.5;"/>
   </g>
   <g id="patch_26">
    <path clip-path="url(#p8833c10891)" d="M 435.054597 802.519687 
L 447.178321 802.519687 
L 447.178321 504.859462 
L 435.054597 504.859462 
z
" style="fill:#ff7f0e;opacity:0.5;"/>
   </g>
   <g id="patch_27">
    <path clip-path="url(#p8833c10891)" d="M 447.178321 802.519687 
L 459.302045 802.519687 
L 459.302045 558.819542 
L 447.178321 558.819542 
z
" style="fill:#ff7f0e;opacity:0.5;"/>
   </g>
   <g id="patch_28">
    <path clip-path="url(#p8833c10891)" d="M 459.302045 802.519687 
L 471.42577 802.519687 
L 471.42577 574.06913 
L 459.302045 574.06913 
z
" style="fill:#ff7f0e;opacity:0.5;"/>
   </g>
   <g id="patch_29">
    <path clip-path="url(#p8833c10891)" d="M 471.42577 802.519687 
L 483.549494 802.519687 
L 483.549494 599.876125 
L 471.42577 599.876125 
z
" style="fill:#ff7f0e;opacity:0.5;"/>
   </g>
   <g id="patch_30">
    <path clip-path="url(#p8833c10891)" d="M 483.549494 802.519687 
L 495.673219 802.519687 
L 495.673219 610.433532 
L 483.549494 610.433532 
z
" style="fill:#ff7f0e;opacity:0.5;"/>
   </g>
   <g id="patch_31">
    <path clip-path="url(#p8833c10891)" d="M 495.673219 802.519687 
L 507.796943 802.519687 
L 507.796943 634.187698 
L 495.673219 634.187698 
z
" style="fill:#ff7f0e;opacity:0.5;"/>
   </g>
   <g id="patch_32">
    <path clip-path="url(#p8833c10891)" d="M 507.796943 802.519687 
L 519.920668 802.519687 
L 519.920668 645.91815 
L 507.796943 645.91815 
z
" style="fill:#ff7f0e;opacity:0.5;"/>
   </g>
   <g id="patch_33">
    <path clip-path="url(#p8833c10891)" d="M 519.920668 802.519687 
L 532.044392 802.519687 
L 532.044392 646.211411 
L 519.920668 646.211411 
z
" style="fill:#ff7f0e;opacity:0.5;"/>
   </g>
   <g id="patch_34">
    <path clip-path="url(#p8833c10891)" d="M 532.044392 802.519687 
L 544.168116 802.519687 
L 544.168116 676.417326 
L 532.044392 676.417326 
z
" style="fill:#ff7f0e;opacity:0.5;"/>
   </g>
   <g id="patch_35">
    <path clip-path="url(#p8833c10891)" d="M 544.168116 802.519687 
L 556.291841 802.519687 
L 556.291841 689.320823 
L 544.168116 689.320823 
z
" style="fill:#ff7f0e;opacity:0.5;"/>
   </g>
   <g id="patch_36">
    <path clip-path="url(#p8833c10891)" d="M 556.291841 802.519687 
L 568.415565 802.519687 
L 568.415565 697.825401 
L 556.291841 697.825401 
z
" style="fill:#ff7f0e;opacity:0.5;"/>
   </g>
   <g id="patch_37">
    <path clip-path="url(#p8833c10891)" d="M 568.415565 802.519687 
L 580.53929 802.519687 
L 580.53929 695.479311 
L 568.415565 695.479311 
z
" style="fill:#ff7f0e;opacity:0.5;"/>
   </g>
   <g id="patch_38">
    <path clip-path="url(#p8833c10891)" d="M 580.53929 802.519687 
L 592.663014 802.519687 
L 592.663014 719.819999 
L 580.53929 719.819999 
z
" style="fill:#ff7f0e;opacity:0.5;"/>
   </g>
   <g id="patch_39">
    <path clip-path="url(#p8833c10891)" d="M 592.663014 802.519687 
L 604.786739 802.519687 
L 604.786739 717.76717 
L 592.663014 717.76717 
z
" style="fill:#ff7f0e;opacity:0.5;"/>
   </g>
   <g id="patch_40">
    <path clip-path="url(#p8833c10891)" d="M 604.786739 802.519687 
L 616.910463 802.519687 
L 616.910463 736.242632 
L 604.786739 736.242632 
z
" style="fill:#ff7f0e;opacity:0.5;"/>
   </g>
   <g id="patch_41">
    <path clip-path="url(#p8833c10891)" d="M 616.910463 802.519687 
L 629.034188 802.519687 
L 629.034188 738.295461 
L 616.910463 738.295461 
z
" style="fill:#ff7f0e;opacity:0.5;"/>
   </g>
   <g id="patch_42">
    <path clip-path="url(#p8833c10891)" d="M 629.034188 802.519687 
L 641.157912 802.519687 
L 641.157912 744.453949 
L 629.034188 744.453949 
z
" style="fill:#ff7f0e;opacity:0.5;"/>
   </g>
   <g id="patch_43">
    <path clip-path="url(#p8833c10891)" d="M 641.157912 802.519687 
L 653.281636 802.519687 
L 653.281636 758.823753 
L 641.157912 758.823753 
z
" style="fill:#ff7f0e;opacity:0.5;"/>
   </g>
   <g id="patch_44">
    <path clip-path="url(#p8833c10891)" d="M 653.281636 802.519687 
L 665.405361 802.519687 
L 665.405361 755.011356 
L 653.281636 755.011356 
z
" style="fill:#ff7f0e;opacity:0.5;"/>
   </g>
   <g id="patch_45">
    <path clip-path="url(#p8833c10891)" d="M 665.405361 802.519687 
L 677.529085 802.519687 
L 677.529085 750.905698 
L 665.405361 750.905698 
z
" style="fill:#ff7f0e;opacity:0.5;"/>
   </g>
   <g id="patch_46">
    <path clip-path="url(#p8833c10891)" d="M 677.529085 802.519687 
L 689.65281 802.519687 
L 689.65281 764.395718 
L 677.529085 764.395718 
z
" style="fill:#ff7f0e;opacity:0.5;"/>
   </g>
   <g id="patch_47">
    <path clip-path="url(#p8833c10891)" d="M 689.65281 802.519687 
L 701.776534 802.519687 
L 701.776534 772.607034 
L 689.65281 772.607034 
z
" style="fill:#ff7f0e;opacity:0.5;"/>
   </g>
   <g id="patch_48">
    <path clip-path="url(#p8833c10891)" d="M 701.776534 802.519687 
L 713.900259 802.519687 
L 713.900259 771.140728 
L 701.776534 771.140728 
z
" style="fill:#ff7f0e;opacity:0.5;"/>
   </g>
   <g id="patch_49">
    <path clip-path="url(#p8833c10891)" d="M 713.900259 802.519687 
L 726.023983 802.519687 
L 726.023983 778.47226 
L 713.900259 778.47226 
z
" style="fill:#ff7f0e;opacity:0.5;"/>
   </g>
   <g id="patch_50">
    <path clip-path="url(#p8833c10891)" d="M 726.023983 802.519687 
L 738.147707 802.519687 
L 738.147707 777.885738 
L 726.023983 777.885738 
z
" style="fill:#ff7f0e;opacity:0.5;"/>
   </g>
   <g id="patch_51">
    <path clip-path="url(#p8833c10891)" d="M 738.147707 802.519687 
L 750.271432 802.519687 
L 750.271432 775.832909 
L 738.147707 775.832909 
z
" style="fill:#ff7f0e;opacity:0.5;"/>
   </g>
   <g id="patch_52">
    <path clip-path="url(#p8833c10891)" d="M 750.271432 802.519687 
L 762.395156 802.519687 
L 762.395156 779.938567 
L 750.271432 779.938567 
z
" style="fill:#ff7f0e;opacity:0.5;"/>
   </g>
   <g id="patch_53">
    <path clip-path="url(#p8833c10891)" d="M 762.395156 802.519687 
L 774.518881 802.519687 
L 774.518881 784.337487 
L 762.395156 784.337487 
z
" style="fill:#ff7f0e;opacity:0.5;"/>
   </g>
   <g id="patch_54">
    <path clip-path="url(#p8833c10891)" d="M 774.518881 802.519687 
L 786.642605 802.519687 
L 786.642605 788.736406 
L 774.518881 788.736406 
z
" style="fill:#ff7f0e;opacity:0.5;"/>
   </g>
   <g id="patch_55">
    <path clip-path="url(#p8833c10891)" d="M 786.642605 802.519687 
L 798.76633 802.519687 
L 798.76633 786.976838 
L 786.642605 786.976838 
z
" style="fill:#ff7f0e;opacity:0.5;"/>
   </g>
   <g id="patch_56">
    <path clip-path="url(#p8833c10891)" d="M 798.76633 802.519687 
L 810.890054 802.519687 
L 810.890054 790.495974 
L 798.76633 790.495974 
z
" style="fill:#ff7f0e;opacity:0.5;"/>
   </g>
   <g id="patch_57">
    <path clip-path="url(#p8833c10891)" d="M 810.890054 802.519687 
L 823.013778 802.519687 
L 823.013778 789.029667 
L 810.890054 789.029667 
z
" style="fill:#ff7f0e;opacity:0.5;"/>
   </g>
   <g id="patch_58">
    <path clip-path="url(#p8833c10891)" d="M 823.013778 802.519687 
L 835.137503 802.519687 
L 835.137503 794.308371 
L 823.013778 794.308371 
z
" style="fill:#ff7f0e;opacity:0.5;"/>
   </g>
   <g id="patch_59">
    <path clip-path="url(#p8833c10891)" d="M 835.137503 802.519687 
L 847.261227 802.519687 
L 847.261227 794.01511 
L 835.137503 794.01511 
z
" style="fill:#ff7f0e;opacity:0.5;"/>
   </g>
   <g id="patch_60">
    <path clip-path="url(#p8833c10891)" d="M 847.261227 802.519687 
L 859.384952 802.519687 
L 859.384952 794.894894 
L 847.261227 794.894894 
z
" style="fill:#ff7f0e;opacity:0.5;"/>
   </g>
   <g id="patch_61">
    <path clip-path="url(#p8833c10891)" d="M 859.384952 802.519687 
L 871.508676 802.519687 
L 871.508676 795.774677 
L 859.384952 795.774677 
z
" style="fill:#ff7f0e;opacity:0.5;"/>
   </g>
   <g id="patch_62">
    <path clip-path="url(#p8833c10891)" d="M 871.508676 802.519687 
L 883.632401 802.519687 
L 883.632401 796.067939 
L 871.508676 796.067939 
z
" style="fill:#ff7f0e;opacity:0.5;"/>
   </g>
   <g id="patch_63">
    <path clip-path="url(#p8833c10891)" d="M 883.632401 802.519687 
L 895.756125 802.519687 
L 895.756125 797.240984 
L 883.632401 797.240984 
z
" style="fill:#ff7f0e;opacity:0.5;"/>
   </g>
   <g id="patch_64">
    <path clip-path="url(#p8833c10891)" d="M 895.756125 802.519687 
L 907.879849 802.519687 
L 907.879849 796.654461 
L 895.756125 796.654461 
z
" style="fill:#ff7f0e;opacity:0.5;"/>
   </g>
   <g id="patch_65">
    <path clip-path="url(#p8833c10891)" d="M 907.879849 802.519687 
L 920.003574 802.519687 
L 920.003574 797.827507 
L 907.879849 797.827507 
z
" style="fill:#ff7f0e;opacity:0.5;"/>
   </g>
   <g id="patch_66">
    <path clip-path="url(#p8833c10891)" d="M 920.003574 802.519687 
L 932.127298 802.519687 
L 932.127298 796.3612 
L 920.003574 796.3612 
z
" style="fill:#ff7f0e;opacity:0.5;"/>
   </g>
   <g id="patch_67">
    <path clip-path="url(#p8833c10891)" d="M 932.127298 802.519687 
L 944.251023 802.519687 
L 944.251023 799.880336 
L 932.127298 799.880336 
z
" style="fill:#ff7f0e;opacity:0.5;"/>
   </g>
   <g id="patch_68">
    <path clip-path="url(#p8833c10891)" d="M 944.251023 802.519687 
L 956.374747 802.519687 
L 956.374747 798.120768 
L 944.251023 798.120768 
z
" style="fill:#ff7f0e;opacity:0.5;"/>
   </g>
   <g id="patch_69">
    <path clip-path="url(#p8833c10891)" d="M 956.374747 802.519687 
L 968.498472 802.519687 
L 968.498472 798.120768 
L 956.374747 798.120768 
z
" style="fill:#ff7f0e;opacity:0.5;"/>
   </g>
   <g id="patch_70">
    <path clip-path="url(#p8833c10891)" d="M 968.498472 802.519687 
L 980.622196 802.519687 
L 980.622196 800.173597 
L 968.498472 800.173597 
z
" style="fill:#ff7f0e;opacity:0.5;"/>
   </g>
   <g id="patch_71">
    <path clip-path="url(#p8833c10891)" d="M 980.622196 802.519687 
L 992.74592 802.519687 
L 992.74592 800.466858 
L 980.622196 800.466858 
z
" style="fill:#ff7f0e;opacity:0.5;"/>
   </g>
   <g id="patch_72">
    <path clip-path="url(#p8833c10891)" d="M 992.74592 802.519687 
L 1004.869645 802.519687 
L 1004.869645 801.346642 
L 992.74592 801.346642 
z
" style="fill:#ff7f0e;opacity:0.5;"/>
   </g>
   <g id="patch_73">
    <path clip-path="url(#p8833c10891)" d="M 1004.869645 802.519687 
L 1016.993369 802.519687 
L 1016.993369 801.053381 
L 1004.869645 801.053381 
z
" style="fill:#ff7f0e;opacity:0.5;"/>
   </g>
   <g id="patch_74">
    <path clip-path="url(#p8833c10891)" d="M 1016.993369 802.519687 
L 1029.117094 802.519687 
L 1029.117094 800.173597 
L 1016.993369 800.173597 
z
" style="fill:#ff7f0e;opacity:0.5;"/>
   </g>
   <g id="patch_75">
    <path clip-path="url(#p8833c10891)" d="M 1029.117094 802.519687 
L 1041.240818 802.519687 
L 1041.240818 800.76012 
L 1029.117094 800.76012 
z
" style="fill:#ff7f0e;opacity:0.5;"/>
   </g>
   <g id="patch_76">
    <path clip-path="url(#p8833c10891)" d="M 1041.240818 802.519687 
L 1053.364543 802.519687 
L 1053.364543 801.346642 
L 1041.240818 801.346642 
z
" style="fill:#ff7f0e;opacity:0.5;"/>
   </g>
   <g id="patch_77">
    <path clip-path="url(#p8833c10891)" d="M 1053.364543 802.519687 
L 1065.488267 802.519687 
L 1065.488267 801.346642 
L 1053.364543 801.346642 
z
" style="fill:#ff7f0e;opacity:0.5;"/>
   </g>
   <g id="patch_78">
    <path clip-path="url(#p8833c10891)" d="M 1065.488267 802.519687 
L 1077.611991 802.519687 
L 1077.611991 801.346642 
L 1065.488267 801.346642 
z
" style="fill:#ff7f0e;opacity:0.5;"/>
   </g>
   <g id="patch_79">
    <path clip-path="url(#p8833c10891)" d="M 1077.611991 802.519687 
L 1089.735716 802.519687 
L 1089.735716 801.053381 
L 1077.611991 801.053381 
z
" style="fill:#ff7f0e;opacity:0.5;"/>
   </g>
   <g id="patch_80">
    <path clip-path="url(#p8833c10891)" d="M 1089.735716 802.519687 
L 1101.85944 802.519687 
L 1101.85944 801.639904 
L 1089.735716 801.639904 
z
" style="fill:#ff7f0e;opacity:0.5;"/>
   </g>
   <g id="patch_81">
    <path clip-path="url(#p8833c10891)" d="M 1101.85944 802.519687 
L 1113.983165 802.519687 
L 1113.983165 801.639904 
L 1101.85944 801.639904 
z
" style="fill:#ff7f0e;opacity:0.5;"/>
   </g>
   <g id="patch_82">
    <path clip-path="url(#p8833c10891)" d="M 1113.983165 802.519687 
L 1126.106889 802.519687 
L 1126.106889 802.519687 
L 1113.983165 802.519687 
z
" style="fill:#ff7f0e;opacity:0.5;"/>
   </g>
   <g id="patch_83">
    <path clip-path="url(#p8833c10891)" d="M 1126.106889 802.519687 
L 1138.230614 802.519687 
L 1138.230614 802.519687 
L 1126.106889 802.519687 
z
" style="fill:#ff7f0e;opacity:0.5;"/>
   </g>
   <g id="patch_84">
    <path clip-path="url(#p8833c10891)" d="M 1138.230614 802.519687 
L 1150.354338 802.519687 
L 1150.354338 802.226426 
L 1138.230614 802.226426 
z
" style="fill:#ff7f0e;opacity:0.5;"/>
   </g>
   <g id="patch_85">
    <path clip-path="url(#p8833c10891)" d="M 1150.354338 802.519687 
L 1162.478062 802.519687 
L 1162.478062 801.933165 
L 1150.354338 801.933165 
z
" style="fill:#ff7f0e;opacity:0.5;"/>
   </g>
   <g id="patch_86">
    <path clip-path="url(#p8833c10891)" d="M 1162.478062 802.519687 
L 1174.601787 802.519687 
L 1174.601787 802.226426 
L 1162.478062 802.226426 
z
" style="fill:#ff7f0e;opacity:0.5;"/>
   </g>
   <g id="patch_87">
    <path clip-path="url(#p8833c10891)" d="M 1174.601787 802.519687 
L 1186.725511 802.519687 
L 1186.725511 802.519687 
L 1174.601787 802.519687 
z
" style="fill:#ff7f0e;opacity:0.5;"/>
   </g>
   <g id="patch_88">
    <path clip-path="url(#p8833c10891)" d="M 1186.725511 802.519687 
L 1198.849236 802.519687 
L 1198.849236 801.933165 
L 1186.725511 801.933165 
z
" style="fill:#ff7f0e;opacity:0.5;"/>
   </g>
   <g id="patch_89">
    <path clip-path="url(#p8833c10891)" d="M 1198.849236 802.519687 
L 1210.97296 802.519687 
L 1210.97296 801.933165 
L 1198.849236 801.933165 
z
" style="fill:#ff7f0e;opacity:0.5;"/>
   </g>
   <g id="patch_90">
    <path clip-path="url(#p8833c10891)" d="M 1210.97296 802.519687 
L 1223.096685 802.519687 
L 1223.096685 802.226426 
L 1210.97296 802.226426 
z
" style="fill:#ff7f0e;opacity:0.5;"/>
   </g>
   <g id="patch_91">
    <path clip-path="url(#p8833c10891)" d="M 1223.096685 802.519687 
L 1235.220409 802.519687 
L 1235.220409 802.519687 
L 1223.096685 802.519687 
z
" style="fill:#ff7f0e;opacity:0.5;"/>
   </g>
   <g id="patch_92">
    <path clip-path="url(#p8833c10891)" d="M 1235.220409 802.519687 
L 1247.344134 802.519687 
L 1247.344134 802.519687 
L 1235.220409 802.519687 
z
" style="fill:#ff7f0e;opacity:0.5;"/>
   </g>
   <g id="patch_93">
    <path clip-path="url(#p8833c10891)" d="M 1247.344134 802.519687 
L 1259.467858 802.519687 
L 1259.467858 802.226426 
L 1247.344134 802.226426 
z
" style="fill:#ff7f0e;opacity:0.5;"/>
   </g>
   <g id="patch_94">
    <path clip-path="url(#p8833c10891)" d="M 1259.467858 802.519687 
L 1271.591582 802.519687 
L 1271.591582 802.226426 
L 1259.467858 802.226426 
z
" style="fill:#ff7f0e;opacity:0.5;"/>
   </g>
   <g id="patch_95">
    <path clip-path="url(#p8833c10891)" d="M 1271.591582 802.519687 
L 1283.715307 802.519687 
L 1283.715307 802.519687 
L 1271.591582 802.519687 
z
" style="fill:#ff7f0e;opacity:0.5;"/>
   </g>
   <g id="patch_96">
    <path clip-path="url(#p8833c10891)" d="M 1283.715307 802.519687 
L 1295.839031 802.519687 
L 1295.839031 802.519687 
L 1283.715307 802.519687 
z
" style="fill:#ff7f0e;opacity:0.5;"/>
   </g>
   <g id="patch_97">
    <path clip-path="url(#p8833c10891)" d="M 1295.839031 802.519687 
L 1307.962756 802.519687 
L 1307.962756 802.519687 
L 1295.839031 802.519687 
z
" style="fill:#ff7f0e;opacity:0.5;"/>
   </g>
   <g id="patch_98">
    <path clip-path="url(#p8833c10891)" d="M 1307.962756 802.519687 
L 1320.08648 802.519687 
L 1320.08648 802.519687 
L 1307.962756 802.519687 
z
" style="fill:#ff7f0e;opacity:0.5;"/>
   </g>
   <g id="patch_99">
    <path clip-path="url(#p8833c10891)" d="M 1320.08648 802.519687 
L 1332.210205 802.519687 
L 1332.210205 802.519687 
L 1320.08648 802.519687 
z
" style="fill:#ff7f0e;opacity:0.5;"/>
   </g>
   <g id="patch_100">
    <path clip-path="url(#p8833c10891)" d="M 1332.210205 802.519687 
L 1344.333929 802.519687 
L 1344.333929 802.519687 
L 1332.210205 802.519687 
z
" style="fill:#ff7f0e;opacity:0.5;"/>
   </g>
   <g id="patch_101">
    <path clip-path="url(#p8833c10891)" d="M 1344.333929 802.519687 
L 1356.457653 802.519687 
L 1356.457653 802.519687 
L 1344.333929 802.519687 
z
" style="fill:#ff7f0e;opacity:0.5;"/>
   </g>
   <g id="patch_102">
    <path clip-path="url(#p8833c10891)" d="M 1356.457653 802.519687 
L 1368.581378 802.519687 
L 1368.581378 801.933165 
L 1356.457653 801.933165 
z
" style="fill:#ff7f0e;opacity:0.5;"/>
   </g>
   <g id="matplotlib.axis_1">
    <g id="xtick_1">
     <g id="line2d_1">
      <defs>
       <path d="M 0 0 
L 0 3.5 
" id="m2ff8c459fb" style="stroke:#000000;stroke-width:0.8;"/>
      </defs>
      <g>
       <use style="stroke:#000000;stroke-width:0.8;" x="155.593352" xlink:href="#m2ff8c459fb" y="802.519687"/>
      </g>
     </g>
     <g id="text_1">
      <!-- 0 -->
      <g transform="translate(149.867102 823.196875)scale(0.18 -0.18)">
       <defs>
        <path d="M 2034 4250 
Q 1547 4250 1301 3770 
Q 1056 3291 1056 2328 
Q 1056 1369 1301 889 
Q 1547 409 2034 409 
Q 2525 409 2770 889 
Q 3016 1369 3016 2328 
Q 3016 3291 2770 3770 
Q 2525 4250 2034 4250 
z
M 2034 4750 
Q 2819 4750 3233 4129 
Q 3647 3509 3647 2328 
Q 3647 1150 3233 529 
Q 2819 -91 2034 -91 
Q 1250 -91 836 529 
Q 422 1150 422 2328 
Q 422 3509 836 4129 
Q 1250 4750 2034 4750 
z
" id="DejaVuSans-30" transform="scale(0.015625)"/>
       </defs>
       <use xlink:href="#DejaVuSans-30"/>
      </g>
     </g>
    </g>
    <g id="xtick_2">
     <g id="line2d_2">
      <g>
       <use style="stroke:#000000;stroke-width:0.8;" x="389.74754" xlink:href="#m2ff8c459fb" y="802.519687"/>
      </g>
     </g>
     <g id="text_2">
      <!-- 5 -->
      <g transform="translate(384.02129 823.196875)scale(0.18 -0.18)">
       <defs>
        <path d="M 691 4666 
L 3169 4666 
L 3169 4134 
L 1269 4134 
L 1269 2991 
Q 1406 3038 1543 3061 
Q 1681 3084 1819 3084 
Q 2600 3084 3056 2656 
Q 3513 2228 3513 1497 
Q 3513 744 3044 326 
Q 2575 -91 1722 -91 
Q 1428 -91 1123 -41 
Q 819 9 494 109 
L 494 744 
Q 775 591 1075 516 
Q 1375 441 1709 441 
Q 2250 441 2565 725 
Q 2881 1009 2881 1497 
Q 2881 1984 2565 2268 
Q 2250 2553 1709 2553 
Q 1456 2553 1204 2497 
Q 953 2441 691 2322 
L 691 4666 
z
" id="DejaVuSans-35" transform="scale(0.015625)"/>
       </defs>
       <use xlink:href="#DejaVuSans-35"/>
      </g>
     </g>
    </g>
    <g id="xtick_3">
     <g id="line2d_3">
      <g>
       <use style="stroke:#000000;stroke-width:0.8;" x="623.901727" xlink:href="#m2ff8c459fb" y="802.519687"/>
      </g>
     </g>
     <g id="text_3">
      <!-- 10 -->
      <g transform="translate(612.449227 823.196875)scale(0.18 -0.18)">
       <defs>
        <path d="M 794 531 
L 1825 531 
L 1825 4091 
L 703 3866 
L 703 4441 
L 1819 4666 
L 2450 4666 
L 2450 531 
L 3481 531 
L 3481 0 
L 794 0 
L 794 531 
z
" id="DejaVuSans-31" transform="scale(0.015625)"/>
       </defs>
       <use xlink:href="#DejaVuSans-31"/>
       <use x="63.623047" xlink:href="#DejaVuSans-30"/>
      </g>
     </g>
    </g>
    <g id="xtick_4">
     <g id="line2d_4">
      <g>
       <use style="stroke:#000000;stroke-width:0.8;" x="858.055915" xlink:href="#m2ff8c459fb" y="802.519687"/>
      </g>
     </g>
     <g id="text_4">
      <!-- 15 -->
      <g transform="translate(846.603415 823.196875)scale(0.18 -0.18)">
       <use xlink:href="#DejaVuSans-31"/>
       <use x="63.623047" xlink:href="#DejaVuSans-35"/>
      </g>
     </g>
    </g>
    <g id="xtick_5">
     <g id="line2d_5">
      <g>
       <use style="stroke:#000000;stroke-width:0.8;" x="1092.210103" xlink:href="#m2ff8c459fb" y="802.519687"/>
      </g>
     </g>
     <g id="text_5">
      <!-- 20 -->
      <g transform="translate(1080.757603 823.196875)scale(0.18 -0.18)">
       <defs>
        <path d="M 1228 531 
L 3431 531 
L 3431 0 
L 469 0 
L 469 531 
Q 828 903 1448 1529 
Q 2069 2156 2228 2338 
Q 2531 2678 2651 2914 
Q 2772 3150 2772 3378 
Q 2772 3750 2511 3984 
Q 2250 4219 1831 4219 
Q 1534 4219 1204 4116 
Q 875 4013 500 3803 
L 500 4441 
Q 881 4594 1212 4672 
Q 1544 4750 1819 4750 
Q 2544 4750 2975 4387 
Q 3406 4025 3406 3419 
Q 3406 3131 3298 2873 
Q 3191 2616 2906 2266 
Q 2828 2175 2409 1742 
Q 1991 1309 1228 531 
z
" id="DejaVuSans-32" transform="scale(0.015625)"/>
       </defs>
       <use xlink:href="#DejaVuSans-32"/>
       <use x="63.623047" xlink:href="#DejaVuSans-30"/>
      </g>
     </g>
    </g>
    <g id="xtick_6">
     <g id="line2d_6">
      <g>
       <use style="stroke:#000000;stroke-width:0.8;" x="1326.36429" xlink:href="#m2ff8c459fb" y="802.519687"/>
      </g>
     </g>
     <g id="text_6">
      <!-- 25 -->
      <g transform="translate(1314.91179 823.196875)scale(0.18 -0.18)">
       <use xlink:href="#DejaVuSans-32"/>
       <use x="63.623047" xlink:href="#DejaVuSans-35"/>
      </g>
     </g>
    </g>
    <g id="text_7">
     <!-- x -->
     <g transform="translate(755.588594 848.416719)scale(0.23 -0.23)">
      <defs>
       <path d="M 3513 3500 
L 2247 1797 
L 3578 0 
L 2900 0 
L 1881 1375 
L 863 0 
L 184 0 
L 1544 1831 
L 300 3500 
L 978 3500 
L 1906 2253 
L 2834 3500 
L 3513 3500 
z
" id="DejaVuSans-78" transform="scale(0.015625)"/>
      </defs>
      <use xlink:href="#DejaVuSans-78"/>
     </g>
    </g>
   </g>
   <g id="matplotlib.axis_2">
    <g id="ytick_1">
     <g id="line2d_7">
      <defs>
       <path d="M 0 0 
L -3.5 0 
" id="meccc8abc0b" style="stroke:#000000;stroke-width:0.8;"/>
      </defs>
      <g>
       <use style="stroke:#000000;stroke-width:0.8;" x="95.590313" xlink:href="#meccc8abc0b" y="802.519687"/>
      </g>
     </g>
     <g id="text_8">
      <!-- 0.000 -->
      <g transform="translate(37.059688 809.358281)scale(0.18 -0.18)">
       <defs>
        <path d="M 684 794 
L 1344 794 
L 1344 0 
L 684 0 
L 684 794 
z
" id="DejaVuSans-2e" transform="scale(0.015625)"/>
       </defs>
       <use xlink:href="#DejaVuSans-30"/>
       <use x="63.623047" xlink:href="#DejaVuSans-2e"/>
       <use x="95.410156" xlink:href="#DejaVuSans-30"/>
       <use x="159.033203" xlink:href="#DejaVuSans-30"/>
       <use x="222.65625" xlink:href="#DejaVuSans-30"/>
      </g>
     </g>
    </g>
    <g id="ytick_2">
     <g id="line2d_8">
      <g>
       <use style="stroke:#000000;stroke-width:0.8;" x="95.590313" xlink:href="#meccc8abc0b" y="707.619098"/>
      </g>
     </g>
     <g id="text_9">
      <!-- 0.025 -->
      <g transform="translate(37.059688 714.457692)scale(0.18 -0.18)">
       <use xlink:href="#DejaVuSans-30"/>
       <use x="63.623047" xlink:href="#DejaVuSans-2e"/>
       <use x="95.410156" xlink:href="#DejaVuSans-30"/>
       <use x="159.033203" xlink:href="#DejaVuSans-32"/>
       <use x="222.65625" xlink:href="#DejaVuSans-35"/>
      </g>
     </g>
    </g>
    <g id="ytick_3">
     <g id="line2d_9">
      <g>
       <use style="stroke:#000000;stroke-width:0.8;" x="95.590313" xlink:href="#meccc8abc0b" y="612.718509"/>
      </g>
     </g>
     <g id="text_10">
      <!-- 0.050 -->
      <g transform="translate(37.059688 619.557103)scale(0.18 -0.18)">
       <use xlink:href="#DejaVuSans-30"/>
       <use x="63.623047" xlink:href="#DejaVuSans-2e"/>
       <use x="95.410156" xlink:href="#DejaVuSans-30"/>
       <use x="159.033203" xlink:href="#DejaVuSans-35"/>
       <use x="222.65625" xlink:href="#DejaVuSans-30"/>
      </g>
     </g>
    </g>
    <g id="ytick_4">
     <g id="line2d_10">
      <g>
       <use style="stroke:#000000;stroke-width:0.8;" x="95.590313" xlink:href="#meccc8abc0b" y="517.81792"/>
      </g>
     </g>
     <g id="text_11">
      <!-- 0.075 -->
      <g transform="translate(37.059688 524.656513)scale(0.18 -0.18)">
       <defs>
        <path d="M 525 4666 
L 3525 4666 
L 3525 4397 
L 1831 0 
L 1172 0 
L 2766 4134 
L 525 4134 
L 525 4666 
z
" id="DejaVuSans-37" transform="scale(0.015625)"/>
       </defs>
       <use xlink:href="#DejaVuSans-30"/>
       <use x="63.623047" xlink:href="#DejaVuSans-2e"/>
       <use x="95.410156" xlink:href="#DejaVuSans-30"/>
       <use x="159.033203" xlink:href="#DejaVuSans-37"/>
       <use x="222.65625" xlink:href="#DejaVuSans-35"/>
      </g>
     </g>
    </g>
    <g id="ytick_5">
     <g id="line2d_11">
      <g>
       <use style="stroke:#000000;stroke-width:0.8;" x="95.590313" xlink:href="#meccc8abc0b" y="422.91733"/>
      </g>
     </g>
     <g id="text_12">
      <!-- 0.100 -->
      <g transform="translate(37.059688 429.755924)scale(0.18 -0.18)">
       <use xlink:href="#DejaVuSans-30"/>
       <use x="63.623047" xlink:href="#DejaVuSans-2e"/>
       <use x="95.410156" xlink:href="#DejaVuSans-31"/>
       <use x="159.033203" xlink:href="#DejaVuSans-30"/>
       <use x="222.65625" xlink:href="#DejaVuSans-30"/>
      </g>
     </g>
    </g>
    <g id="ytick_6">
     <g id="line2d_12">
      <g>
       <use style="stroke:#000000;stroke-width:0.8;" x="95.590313" xlink:href="#meccc8abc0b" y="328.016741"/>
      </g>
     </g>
     <g id="text_13">
      <!-- 0.125 -->
      <g transform="translate(37.059688 334.855335)scale(0.18 -0.18)">
       <use xlink:href="#DejaVuSans-30"/>
       <use x="63.623047" xlink:href="#DejaVuSans-2e"/>
       <use x="95.410156" xlink:href="#DejaVuSans-31"/>
       <use x="159.033203" xlink:href="#DejaVuSans-32"/>
       <use x="222.65625" xlink:href="#DejaVuSans-35"/>
      </g>
     </g>
    </g>
    <g id="ytick_7">
     <g id="line2d_13">
      <g>
       <use style="stroke:#000000;stroke-width:0.8;" x="95.590313" xlink:href="#meccc8abc0b" y="233.116152"/>
      </g>
     </g>
     <g id="text_14">
      <!-- 0.150 -->
      <g transform="translate(37.059688 239.954746)scale(0.18 -0.18)">
       <use xlink:href="#DejaVuSans-30"/>
       <use x="63.623047" xlink:href="#DejaVuSans-2e"/>
       <use x="95.410156" xlink:href="#DejaVuSans-31"/>
       <use x="159.033203" xlink:href="#DejaVuSans-35"/>
       <use x="222.65625" xlink:href="#DejaVuSans-30"/>
      </g>
     </g>
    </g>
    <g id="ytick_8">
     <g id="line2d_14">
      <g>
       <use style="stroke:#000000;stroke-width:0.8;" x="95.590313" xlink:href="#meccc8abc0b" y="138.215562"/>
      </g>
     </g>
     <g id="text_15">
      <!-- 0.175 -->
      <g transform="translate(37.059688 145.054156)scale(0.18 -0.18)">
       <use xlink:href="#DejaVuSans-30"/>
       <use x="63.623047" xlink:href="#DejaVuSans-2e"/>
       <use x="95.410156" xlink:href="#DejaVuSans-31"/>
       <use x="159.033203" xlink:href="#DejaVuSans-37"/>
       <use x="222.65625" xlink:href="#DejaVuSans-35"/>
      </g>
     </g>
    </g>
    <g id="text_16">
     <!-- Normed Hist Counts -->
     <g transform="translate(28.276406 551.513656)rotate(-90)scale(0.23 -0.23)">
      <defs>
       <path d="M 628 4666 
L 1478 4666 
L 3547 763 
L 3547 4666 
L 4159 4666 
L 4159 0 
L 3309 0 
L 1241 3903 
L 1241 0 
L 628 0 
L 628 4666 
z
" id="DejaVuSans-4e" transform="scale(0.015625)"/>
       <path d="M 1959 3097 
Q 1497 3097 1228 2736 
Q 959 2375 959 1747 
Q 959 1119 1226 758 
Q 1494 397 1959 397 
Q 2419 397 2687 759 
Q 2956 1122 2956 1747 
Q 2956 2369 2687 2733 
Q 2419 3097 1959 3097 
z
M 1959 3584 
Q 2709 3584 3137 3096 
Q 3566 2609 3566 1747 
Q 3566 888 3137 398 
Q 2709 -91 1959 -91 
Q 1206 -91 779 398 
Q 353 888 353 1747 
Q 353 2609 779 3096 
Q 1206 3584 1959 3584 
z
" id="DejaVuSans-6f" transform="scale(0.015625)"/>
       <path d="M 2631 2963 
Q 2534 3019 2420 3045 
Q 2306 3072 2169 3072 
Q 1681 3072 1420 2755 
Q 1159 2438 1159 1844 
L 1159 0 
L 581 0 
L 581 3500 
L 1159 3500 
L 1159 2956 
Q 1341 3275 1631 3429 
Q 1922 3584 2338 3584 
Q 2397 3584 2469 3576 
Q 2541 3569 2628 3553 
L 2631 2963 
z
" id="DejaVuSans-72" transform="scale(0.015625)"/>
       <path d="M 3328 2828 
Q 3544 3216 3844 3400 
Q 4144 3584 4550 3584 
Q 5097 3584 5394 3201 
Q 5691 2819 5691 2113 
L 5691 0 
L 5113 0 
L 5113 2094 
Q 5113 2597 4934 2840 
Q 4756 3084 4391 3084 
Q 3944 3084 3684 2787 
Q 3425 2491 3425 1978 
L 3425 0 
L 2847 0 
L 2847 2094 
Q 2847 2600 2669 2842 
Q 2491 3084 2119 3084 
Q 1678 3084 1418 2786 
Q 1159 2488 1159 1978 
L 1159 0 
L 581 0 
L 581 3500 
L 1159 3500 
L 1159 2956 
Q 1356 3278 1631 3431 
Q 1906 3584 2284 3584 
Q 2666 3584 2933 3390 
Q 3200 3197 3328 2828 
z
" id="DejaVuSans-6d" transform="scale(0.015625)"/>
       <path d="M 3597 1894 
L 3597 1613 
L 953 1613 
Q 991 1019 1311 708 
Q 1631 397 2203 397 
Q 2534 397 2845 478 
Q 3156 559 3463 722 
L 3463 178 
Q 3153 47 2828 -22 
Q 2503 -91 2169 -91 
Q 1331 -91 842 396 
Q 353 884 353 1716 
Q 353 2575 817 3079 
Q 1281 3584 2069 3584 
Q 2775 3584 3186 3129 
Q 3597 2675 3597 1894 
z
M 3022 2063 
Q 3016 2534 2758 2815 
Q 2500 3097 2075 3097 
Q 1594 3097 1305 2825 
Q 1016 2553 972 2059 
L 3022 2063 
z
" id="DejaVuSans-65" transform="scale(0.015625)"/>
       <path d="M 2906 2969 
L 2906 4863 
L 3481 4863 
L 3481 0 
L 2906 0 
L 2906 525 
Q 2725 213 2448 61 
Q 2172 -91 1784 -91 
Q 1150 -91 751 415 
Q 353 922 353 1747 
Q 353 2572 751 3078 
Q 1150 3584 1784 3584 
Q 2172 3584 2448 3432 
Q 2725 3281 2906 2969 
z
M 947 1747 
Q 947 1113 1208 752 
Q 1469 391 1925 391 
Q 2381 391 2643 752 
Q 2906 1113 2906 1747 
Q 2906 2381 2643 2742 
Q 2381 3103 1925 3103 
Q 1469 3103 1208 2742 
Q 947 2381 947 1747 
z
" id="DejaVuSans-64" transform="scale(0.015625)"/>
       <path id="DejaVuSans-20" transform="scale(0.015625)"/>
       <path d="M 628 4666 
L 1259 4666 
L 1259 2753 
L 3553 2753 
L 3553 4666 
L 4184 4666 
L 4184 0 
L 3553 0 
L 3553 2222 
L 1259 2222 
L 1259 0 
L 628 0 
L 628 4666 
z
" id="DejaVuSans-48" transform="scale(0.015625)"/>
       <path d="M 603 3500 
L 1178 3500 
L 1178 0 
L 603 0 
L 603 3500 
z
M 603 4863 
L 1178 4863 
L 1178 4134 
L 603 4134 
L 603 4863 
z
" id="DejaVuSans-69" transform="scale(0.015625)"/>
       <path d="M 2834 3397 
L 2834 2853 
Q 2591 2978 2328 3040 
Q 2066 3103 1784 3103 
Q 1356 3103 1142 2972 
Q 928 2841 928 2578 
Q 928 2378 1081 2264 
Q 1234 2150 1697 2047 
L 1894 2003 
Q 2506 1872 2764 1633 
Q 3022 1394 3022 966 
Q 3022 478 2636 193 
Q 2250 -91 1575 -91 
Q 1294 -91 989 -36 
Q 684 19 347 128 
L 347 722 
Q 666 556 975 473 
Q 1284 391 1588 391 
Q 1994 391 2212 530 
Q 2431 669 2431 922 
Q 2431 1156 2273 1281 
Q 2116 1406 1581 1522 
L 1381 1569 
Q 847 1681 609 1914 
Q 372 2147 372 2553 
Q 372 3047 722 3315 
Q 1072 3584 1716 3584 
Q 2034 3584 2315 3537 
Q 2597 3491 2834 3397 
z
" id="DejaVuSans-73" transform="scale(0.015625)"/>
       <path d="M 1172 4494 
L 1172 3500 
L 2356 3500 
L 2356 3053 
L 1172 3053 
L 1172 1153 
Q 1172 725 1289 603 
Q 1406 481 1766 481 
L 2356 481 
L 2356 0 
L 1766 0 
Q 1100 0 847 248 
Q 594 497 594 1153 
L 594 3053 
L 172 3053 
L 172 3500 
L 594 3500 
L 594 4494 
L 1172 4494 
z
" id="DejaVuSans-74" transform="scale(0.015625)"/>
       <path d="M 4122 4306 
L 4122 3641 
Q 3803 3938 3442 4084 
Q 3081 4231 2675 4231 
Q 1875 4231 1450 3742 
Q 1025 3253 1025 2328 
Q 1025 1406 1450 917 
Q 1875 428 2675 428 
Q 3081 428 3442 575 
Q 3803 722 4122 1019 
L 4122 359 
Q 3791 134 3420 21 
Q 3050 -91 2638 -91 
Q 1578 -91 968 557 
Q 359 1206 359 2328 
Q 359 3453 968 4101 
Q 1578 4750 2638 4750 
Q 3056 4750 3426 4639 
Q 3797 4528 4122 4306 
z
" id="DejaVuSans-43" transform="scale(0.015625)"/>
       <path d="M 544 1381 
L 544 3500 
L 1119 3500 
L 1119 1403 
Q 1119 906 1312 657 
Q 1506 409 1894 409 
Q 2359 409 2629 706 
Q 2900 1003 2900 1516 
L 2900 3500 
L 3475 3500 
L 3475 0 
L 2900 0 
L 2900 538 
Q 2691 219 2414 64 
Q 2138 -91 1772 -91 
Q 1169 -91 856 284 
Q 544 659 544 1381 
z
M 1991 3584 
L 1991 3584 
z
" id="DejaVuSans-75" transform="scale(0.015625)"/>
       <path d="M 3513 2113 
L 3513 0 
L 2938 0 
L 2938 2094 
Q 2938 2591 2744 2837 
Q 2550 3084 2163 3084 
Q 1697 3084 1428 2787 
Q 1159 2491 1159 1978 
L 1159 0 
L 581 0 
L 581 3500 
L 1159 3500 
L 1159 2956 
Q 1366 3272 1645 3428 
Q 1925 3584 2291 3584 
Q 2894 3584 3203 3211 
Q 3513 2838 3513 2113 
z
" id="DejaVuSans-6e" transform="scale(0.015625)"/>
      </defs>
      <use xlink:href="#DejaVuSans-4e"/>
      <use x="74.804688" xlink:href="#DejaVuSans-6f"/>
      <use x="135.986328" xlink:href="#DejaVuSans-72"/>
      <use x="175.349609" xlink:href="#DejaVuSans-6d"/>
      <use x="272.761719" xlink:href="#DejaVuSans-65"/>
      <use x="334.285156" xlink:href="#DejaVuSans-64"/>
      <use x="397.761719" xlink:href="#DejaVuSans-20"/>
      <use x="429.548828" xlink:href="#DejaVuSans-48"/>
      <use x="504.744141" xlink:href="#DejaVuSans-69"/>
      <use x="532.527344" xlink:href="#DejaVuSans-73"/>
      <use x="584.626953" xlink:href="#DejaVuSans-74"/>
      <use x="623.835938" xlink:href="#DejaVuSans-20"/>
      <use x="655.623047" xlink:href="#DejaVuSans-43"/>
      <use x="725.447266" xlink:href="#DejaVuSans-6f"/>
      <use x="786.628906" xlink:href="#DejaVuSans-75"/>
      <use x="850.007812" xlink:href="#DejaVuSans-6e"/>
      <use x="913.386719" xlink:href="#DejaVuSans-74"/>
      <use x="952.595703" xlink:href="#DejaVuSans-73"/>
     </g>
    </g>
   </g>
   <g id="LineCollection_1">
    <path clip-path="url(#p8833c10891)" d="M 248.581327 802.519687 
L 248.581327 104.338557 
" style="fill:none;stroke:#cd5c5c;stroke-dasharray:5.55,2.4;stroke-dashoffset:0;stroke-width:1.5;"/>
   </g>
   <g id="line2d_15">
    <path clip-path="url(#p8833c10891)" d="M 169.326729 557.488568 
L 172.397479 513.031261 
L 175.443858 472.113907 
L 178.465866 434.48322 
L 181.463503 399.908671 
L 184.412398 368.428638 
L 187.336922 339.559443 
L 190.212704 313.336714 
L 193.064115 289.348418 
L 195.866784 267.624861 
L 198.62071 247.981407 
L 201.325895 230.248236 
L 204.006708 214.128802 
L 206.63878 199.643267 
L 209.222109 186.656646 
L 211.732326 175.151018 
L 214.1938 164.885608 
L 216.606532 155.756489 
L 218.970522 147.667755 
L 221.261399 140.602084 
L 223.503534 134.39165 
L 225.672556 129.019318 
L 227.792836 124.346816 
L 229.864374 120.312169 
L 231.862799 116.896943 
L 233.812481 113.99881 
L 235.689051 111.598558 
L 237.516878 109.613967 
L 239.295963 108.004918 
L 241.026307 106.734319 
L 242.732279 105.755764 
L 244.389509 105.056761 
L 246.046739 104.597149 
L 247.70397 104.368681 
L 249.3612 104.36333 
L 251.067172 104.582639 
L 252.797515 105.02964 
L 254.600972 105.727182 
L 256.477541 106.694207 
L 258.451595 107.966012 
L 260.523133 109.569012 
L 262.716526 111.551959 
L 265.056145 113.974822 
L 267.54199 116.878489 
L 270.174062 120.301455 
L 273.001101 124.35223 
L 276.023109 129.081825 
L 279.264457 134.579311 
L 282.749514 140.94032 
L 286.502653 148.265183 
L 290.572616 156.708587 
L 295.008144 166.43595 
L 299.88235 177.675838 
L 305.292719 190.72581 
L 311.409849 206.077372 
L 318.550561 224.620574 
L 327.372875 248.181157 
L 340.630716 284.298692 
L 361.321723 340.617557 
L 372.044977 369.121467 
L 381.354712 393.24695 
L 389.908944 414.804786 
L 397.975756 434.53758 
L 405.677002 452.795855 
L 413.134538 469.909694 
L 420.372735 485.969812 
L 427.464705 501.168952 
L 434.410449 515.534136 
L 441.258709 529.191187 
L 448.009485 542.162262 
L 454.687148 554.51561 
L 461.316069 566.314006 
L 467.896248 577.573772 
L 474.427685 588.31215 
L 480.93475 598.584715 
L 487.417445 608.40516 
L 493.875769 617.787656 
L 500.334092 626.7799 
L 506.792416 635.392345 
L 513.250739 643.635775 
L 519.709063 651.521219 
L 526.191758 659.087676 
L 532.698823 666.342684 
L 539.23026 673.294057 
L 545.810439 679.973989 
L 552.43936 686.387267 
L 559.117022 692.539036 
L 565.843427 698.434753 
L 572.642946 704.099941 
L 579.515577 709.537564 
L 586.485692 714.768805 
L 593.52892 719.77773 
L 600.694004 724.600449 
L 607.956572 729.221135 
L 615.340994 733.656463 
L 622.871643 737.920266 
L 630.548519 742.011199 
L 638.395991 745.940481 
L 646.414061 749.705994 
L 654.627099 753.31683 
L 663.059476 756.780131 
L 671.711192 760.092324 
L 680.606619 763.259266 
L 689.794499 766.293131 
L 699.27483 769.188216 
L 709.071985 771.946822 
L 719.234706 774.576498 
L 729.787363 777.076609 
L 740.778698 779.451298 
L 752.257455 781.702767 
L 764.296745 783.835796 
L 776.92094 785.845018 
L 778.57817 786.09271 
L 778.57817 786.09271 
" style="fill:none;stroke:#1f77b4;stroke-linecap:square;stroke-width:2;"/>
   </g>
   <g id="patch_103">
    <path d="M 95.590313 802.519687 
L 95.590313 69.4295 
" style="fill:none;stroke:#000000;stroke-linecap:square;stroke-linejoin:miter;stroke-width:0.8;"/>
   </g>
   <g id="patch_104">
    <path d="M 1429.2 802.519687 
L 1429.2 69.4295 
" style="fill:none;stroke:#000000;stroke-linecap:square;stroke-linejoin:miter;stroke-width:0.8;"/>
   </g>
   <g id="patch_105">
    <path d="M 95.590313 802.519687 
L 1429.2 802.519687 
" style="fill:none;stroke:#000000;stroke-linecap:square;stroke-linejoin:miter;stroke-width:0.8;"/>
   </g>
   <g id="patch_106">
    <path d="M 95.590313 69.4295 
L 1429.2 69.4295 
" style="fill:none;stroke:#000000;stroke-linecap:square;stroke-linejoin:miter;stroke-width:0.8;"/>
   </g>
   <g id="patch_107">
    <path d="M 806.959282 261.604266 
Q 577.309783 22.867544 252.690555 103.317572 
" style="fill:none;stroke:#cd5c5c;stroke-linecap:round;stroke-width:2;"/>
    <path d="M 261.417852 105.275703 
L 252.690555 103.317572 
L 259.493438 97.510613 
L 261.417852 105.275703 
z
" style="fill:#ffffff;stroke:#cd5c5c;stroke-linecap:round;stroke-width:2;"/>
   </g>
   <g id="text_17">
    <g id="patch_108">
     <path d="M 705.630024 291.561964 
C 708.630024 294.561964 937.520649 294.561964 940.520649 291.561964 
C 943.520649 288.561964 943.520649 269.205714 940.520649 266.205714 
C 937.520649 263.205714 708.630024 263.205714 705.630024 266.205714 
C 702.630024 269.205714 702.630024 288.561964 705.630024 291.561964 
z
" style="fill:#ffffff;stroke:#cd5c5c;stroke-linejoin:miter;stroke-width:2;"/>
    </g>
    <!-- Measured Mode: 1.986 -->
    <g style="fill:#cd5c5c;" transform="translate(708.630024 284.402589)scale(0.2 -0.2)">
     <defs>
      <path d="M 628 4666 
L 1569 4666 
L 2759 1491 
L 3956 4666 
L 4897 4666 
L 4897 0 
L 4281 0 
L 4281 4097 
L 3078 897 
L 2444 897 
L 1241 4097 
L 1241 0 
L 628 0 
L 628 4666 
z
" id="DejaVuSans-4d" transform="scale(0.015625)"/>
      <path d="M 2194 1759 
Q 1497 1759 1228 1600 
Q 959 1441 959 1056 
Q 959 750 1161 570 
Q 1363 391 1709 391 
Q 2188 391 2477 730 
Q 2766 1069 2766 1631 
L 2766 1759 
L 2194 1759 
z
M 3341 1997 
L 3341 0 
L 2766 0 
L 2766 531 
Q 2569 213 2275 61 
Q 1981 -91 1556 -91 
Q 1019 -91 701 211 
Q 384 513 384 1019 
Q 384 1609 779 1909 
Q 1175 2209 1959 2209 
L 2766 2209 
L 2766 2266 
Q 2766 2663 2505 2880 
Q 2244 3097 1772 3097 
Q 1472 3097 1187 3025 
Q 903 2953 641 2809 
L 641 3341 
Q 956 3463 1253 3523 
Q 1550 3584 1831 3584 
Q 2591 3584 2966 3190 
Q 3341 2797 3341 1997 
z
" id="DejaVuSans-61" transform="scale(0.015625)"/>
      <path d="M 750 794 
L 1409 794 
L 1409 0 
L 750 0 
L 750 794 
z
M 750 3309 
L 1409 3309 
L 1409 2516 
L 750 2516 
L 750 3309 
z
" id="DejaVuSans-3a" transform="scale(0.015625)"/>
      <path d="M 703 97 
L 703 672 
Q 941 559 1184 500 
Q 1428 441 1663 441 
Q 2288 441 2617 861 
Q 2947 1281 2994 2138 
Q 2813 1869 2534 1725 
Q 2256 1581 1919 1581 
Q 1219 1581 811 2004 
Q 403 2428 403 3163 
Q 403 3881 828 4315 
Q 1253 4750 1959 4750 
Q 2769 4750 3195 4129 
Q 3622 3509 3622 2328 
Q 3622 1225 3098 567 
Q 2575 -91 1691 -91 
Q 1453 -91 1209 -44 
Q 966 3 703 97 
z
M 1959 2075 
Q 2384 2075 2632 2365 
Q 2881 2656 2881 3163 
Q 2881 3666 2632 3958 
Q 2384 4250 1959 4250 
Q 1534 4250 1286 3958 
Q 1038 3666 1038 3163 
Q 1038 2656 1286 2365 
Q 1534 2075 1959 2075 
z
" id="DejaVuSans-39" transform="scale(0.015625)"/>
      <path d="M 2034 2216 
Q 1584 2216 1326 1975 
Q 1069 1734 1069 1313 
Q 1069 891 1326 650 
Q 1584 409 2034 409 
Q 2484 409 2743 651 
Q 3003 894 3003 1313 
Q 3003 1734 2745 1975 
Q 2488 2216 2034 2216 
z
M 1403 2484 
Q 997 2584 770 2862 
Q 544 3141 544 3541 
Q 544 4100 942 4425 
Q 1341 4750 2034 4750 
Q 2731 4750 3128 4425 
Q 3525 4100 3525 3541 
Q 3525 3141 3298 2862 
Q 3072 2584 2669 2484 
Q 3125 2378 3379 2068 
Q 3634 1759 3634 1313 
Q 3634 634 3220 271 
Q 2806 -91 2034 -91 
Q 1263 -91 848 271 
Q 434 634 434 1313 
Q 434 1759 690 2068 
Q 947 2378 1403 2484 
z
M 1172 3481 
Q 1172 3119 1398 2916 
Q 1625 2713 2034 2713 
Q 2441 2713 2670 2916 
Q 2900 3119 2900 3481 
Q 2900 3844 2670 4047 
Q 2441 4250 2034 4250 
Q 1625 4250 1398 4047 
Q 1172 3844 1172 3481 
z
" id="DejaVuSans-38" transform="scale(0.015625)"/>
      <path d="M 2113 2584 
Q 1688 2584 1439 2293 
Q 1191 2003 1191 1497 
Q 1191 994 1439 701 
Q 1688 409 2113 409 
Q 2538 409 2786 701 
Q 3034 994 3034 1497 
Q 3034 2003 2786 2293 
Q 2538 2584 2113 2584 
z
M 3366 4563 
L 3366 3988 
Q 3128 4100 2886 4159 
Q 2644 4219 2406 4219 
Q 1781 4219 1451 3797 
Q 1122 3375 1075 2522 
Q 1259 2794 1537 2939 
Q 1816 3084 2150 3084 
Q 2853 3084 3261 2657 
Q 3669 2231 3669 1497 
Q 3669 778 3244 343 
Q 2819 -91 2113 -91 
Q 1303 -91 875 529 
Q 447 1150 447 2328 
Q 447 3434 972 4092 
Q 1497 4750 2381 4750 
Q 2619 4750 2861 4703 
Q 3103 4656 3366 4563 
z
" id="DejaVuSans-36" transform="scale(0.015625)"/>
     </defs>
     <use xlink:href="#DejaVuSans-4d"/>
     <use x="86.279297" xlink:href="#DejaVuSans-65"/>
     <use x="147.802734" xlink:href="#DejaVuSans-61"/>
     <use x="209.082031" xlink:href="#DejaVuSans-73"/>
     <use x="261.181641" xlink:href="#DejaVuSans-75"/>
     <use x="324.560547" xlink:href="#DejaVuSans-72"/>
     <use x="363.423828" xlink:href="#DejaVuSans-65"/>
     <use x="424.947266" xlink:href="#DejaVuSans-64"/>
     <use x="488.423828" xlink:href="#DejaVuSans-20"/>
     <use x="520.210938" xlink:href="#DejaVuSans-4d"/>
     <use x="606.490234" xlink:href="#DejaVuSans-6f"/>
     <use x="667.671875" xlink:href="#DejaVuSans-64"/>
     <use x="731.148438" xlink:href="#DejaVuSans-65"/>
     <use x="792.671875" xlink:href="#DejaVuSans-3a"/>
     <use x="826.363281" xlink:href="#DejaVuSans-20"/>
     <use x="858.150391" xlink:href="#DejaVuSans-31"/>
     <use x="921.773438" xlink:href="#DejaVuSans-2e"/>
     <use x="953.560547" xlink:href="#DejaVuSans-39"/>
     <use x="1017.183594" xlink:href="#DejaVuSans-38"/>
     <use x="1080.806641" xlink:href="#DejaVuSans-36"/>
    </g>
   </g>
   <g id="text_18">
    <!-- Best fit to distribution: -->
    <g transform="translate(605.188281 32.075625)scale(0.28 -0.28)">
     <defs>
      <path d="M 1259 2228 
L 1259 519 
L 2272 519 
Q 2781 519 3026 730 
Q 3272 941 3272 1375 
Q 3272 1813 3026 2020 
Q 2781 2228 2272 2228 
L 1259 2228 
z
M 1259 4147 
L 1259 2741 
L 2194 2741 
Q 2656 2741 2882 2914 
Q 3109 3088 3109 3444 
Q 3109 3797 2882 3972 
Q 2656 4147 2194 4147 
L 1259 4147 
z
M 628 4666 
L 2241 4666 
Q 2963 4666 3353 4366 
Q 3744 4066 3744 3513 
Q 3744 3084 3544 2831 
Q 3344 2578 2956 2516 
Q 3422 2416 3680 2098 
Q 3938 1781 3938 1306 
Q 3938 681 3513 340 
Q 3088 0 2303 0 
L 628 0 
L 628 4666 
z
" id="DejaVuSans-42" transform="scale(0.015625)"/>
      <path d="M 2375 4863 
L 2375 4384 
L 1825 4384 
Q 1516 4384 1395 4259 
Q 1275 4134 1275 3809 
L 1275 3500 
L 2222 3500 
L 2222 3053 
L 1275 3053 
L 1275 0 
L 697 0 
L 697 3053 
L 147 3053 
L 147 3500 
L 697 3500 
L 697 3744 
Q 697 4328 969 4595 
Q 1241 4863 1831 4863 
L 2375 4863 
z
" id="DejaVuSans-66" transform="scale(0.015625)"/>
      <path d="M 3116 1747 
Q 3116 2381 2855 2742 
Q 2594 3103 2138 3103 
Q 1681 3103 1420 2742 
Q 1159 2381 1159 1747 
Q 1159 1113 1420 752 
Q 1681 391 2138 391 
Q 2594 391 2855 752 
Q 3116 1113 3116 1747 
z
M 1159 2969 
Q 1341 3281 1617 3432 
Q 1894 3584 2278 3584 
Q 2916 3584 3314 3078 
Q 3713 2572 3713 1747 
Q 3713 922 3314 415 
Q 2916 -91 2278 -91 
Q 1894 -91 1617 61 
Q 1341 213 1159 525 
L 1159 0 
L 581 0 
L 581 4863 
L 1159 4863 
L 1159 2969 
z
" id="DejaVuSans-62" transform="scale(0.015625)"/>
     </defs>
     <use xlink:href="#DejaVuSans-42"/>
     <use x="68.603516" xlink:href="#DejaVuSans-65"/>
     <use x="130.126953" xlink:href="#DejaVuSans-73"/>
     <use x="182.226562" xlink:href="#DejaVuSans-74"/>
     <use x="221.435547" xlink:href="#DejaVuSans-20"/>
     <use x="253.222656" xlink:href="#DejaVuSans-66"/>
     <use x="288.427734" xlink:href="#DejaVuSans-69"/>
     <use x="316.210938" xlink:href="#DejaVuSans-74"/>
     <use x="355.419922" xlink:href="#DejaVuSans-20"/>
     <use x="387.207031" xlink:href="#DejaVuSans-74"/>
     <use x="426.416016" xlink:href="#DejaVuSans-6f"/>
     <use x="487.597656" xlink:href="#DejaVuSans-20"/>
     <use x="519.384766" xlink:href="#DejaVuSans-64"/>
     <use x="582.861328" xlink:href="#DejaVuSans-69"/>
     <use x="610.644531" xlink:href="#DejaVuSans-73"/>
     <use x="662.744141" xlink:href="#DejaVuSans-74"/>
     <use x="701.953125" xlink:href="#DejaVuSans-72"/>
     <use x="743.066406" xlink:href="#DejaVuSans-69"/>
     <use x="770.849609" xlink:href="#DejaVuSans-62"/>
     <use x="834.326172" xlink:href="#DejaVuSans-75"/>
     <use x="897.705078" xlink:href="#DejaVuSans-74"/>
     <use x="936.914062" xlink:href="#DejaVuSans-69"/>
     <use x="964.697266" xlink:href="#DejaVuSans-6f"/>
     <use x="1025.878906" xlink:href="#DejaVuSans-6e"/>
     <use x="1089.257812" xlink:href="#DejaVuSans-3a"/>
    </g>
    <!-- ChiSquared(df=3.97, loc=0.00, scale=1.01) -->
    <g transform="translate(454.211406 63.4295)scale(0.28 -0.28)">
     <defs>
      <path d="M 3513 2113 
L 3513 0 
L 2938 0 
L 2938 2094 
Q 2938 2591 2744 2837 
Q 2550 3084 2163 3084 
Q 1697 3084 1428 2787 
Q 1159 2491 1159 1978 
L 1159 0 
L 581 0 
L 581 4863 
L 1159 4863 
L 1159 2956 
Q 1366 3272 1645 3428 
Q 1925 3584 2291 3584 
Q 2894 3584 3203 3211 
Q 3513 2838 3513 2113 
z
" id="DejaVuSans-68" transform="scale(0.015625)"/>
      <path d="M 3425 4513 
L 3425 3897 
Q 3066 4069 2747 4153 
Q 2428 4238 2131 4238 
Q 1616 4238 1336 4038 
Q 1056 3838 1056 3469 
Q 1056 3159 1242 3001 
Q 1428 2844 1947 2747 
L 2328 2669 
Q 3034 2534 3370 2195 
Q 3706 1856 3706 1288 
Q 3706 609 3251 259 
Q 2797 -91 1919 -91 
Q 1588 -91 1214 -16 
Q 841 59 441 206 
L 441 856 
Q 825 641 1194 531 
Q 1563 422 1919 422 
Q 2459 422 2753 634 
Q 3047 847 3047 1241 
Q 3047 1584 2836 1778 
Q 2625 1972 2144 2069 
L 1759 2144 
Q 1053 2284 737 2584 
Q 422 2884 422 3419 
Q 422 4038 858 4394 
Q 1294 4750 2059 4750 
Q 2388 4750 2728 4690 
Q 3069 4631 3425 4513 
z
" id="DejaVuSans-53" transform="scale(0.015625)"/>
      <path d="M 947 1747 
Q 947 1113 1208 752 
Q 1469 391 1925 391 
Q 2381 391 2643 752 
Q 2906 1113 2906 1747 
Q 2906 2381 2643 2742 
Q 2381 3103 1925 3103 
Q 1469 3103 1208 2742 
Q 947 2381 947 1747 
z
M 2906 525 
Q 2725 213 2448 61 
Q 2172 -91 1784 -91 
Q 1150 -91 751 415 
Q 353 922 353 1747 
Q 353 2572 751 3078 
Q 1150 3584 1784 3584 
Q 2172 3584 2448 3432 
Q 2725 3281 2906 2969 
L 2906 3500 
L 3481 3500 
L 3481 -1331 
L 2906 -1331 
L 2906 525 
z
" id="DejaVuSans-71" transform="scale(0.015625)"/>
      <path d="M 1984 4856 
Q 1566 4138 1362 3434 
Q 1159 2731 1159 2009 
Q 1159 1288 1364 580 
Q 1569 -128 1984 -844 
L 1484 -844 
Q 1016 -109 783 600 
Q 550 1309 550 2009 
Q 550 2706 781 3412 
Q 1013 4119 1484 4856 
L 1984 4856 
z
" id="DejaVuSans-28" transform="scale(0.015625)"/>
      <path d="M 678 2906 
L 4684 2906 
L 4684 2381 
L 678 2381 
L 678 2906 
z
M 678 1631 
L 4684 1631 
L 4684 1100 
L 678 1100 
L 678 1631 
z
" id="DejaVuSans-3d" transform="scale(0.015625)"/>
      <path d="M 2597 2516 
Q 3050 2419 3304 2112 
Q 3559 1806 3559 1356 
Q 3559 666 3084 287 
Q 2609 -91 1734 -91 
Q 1441 -91 1130 -33 
Q 819 25 488 141 
L 488 750 
Q 750 597 1062 519 
Q 1375 441 1716 441 
Q 2309 441 2620 675 
Q 2931 909 2931 1356 
Q 2931 1769 2642 2001 
Q 2353 2234 1838 2234 
L 1294 2234 
L 1294 2753 
L 1863 2753 
Q 2328 2753 2575 2939 
Q 2822 3125 2822 3475 
Q 2822 3834 2567 4026 
Q 2313 4219 1838 4219 
Q 1578 4219 1281 4162 
Q 984 4106 628 3988 
L 628 4550 
Q 988 4650 1302 4700 
Q 1616 4750 1894 4750 
Q 2613 4750 3031 4423 
Q 3450 4097 3450 3541 
Q 3450 3153 3228 2886 
Q 3006 2619 2597 2516 
z
" id="DejaVuSans-33" transform="scale(0.015625)"/>
      <path d="M 750 794 
L 1409 794 
L 1409 256 
L 897 -744 
L 494 -744 
L 750 256 
L 750 794 
z
" id="DejaVuSans-2c" transform="scale(0.015625)"/>
      <path d="M 603 4863 
L 1178 4863 
L 1178 0 
L 603 0 
L 603 4863 
z
" id="DejaVuSans-6c" transform="scale(0.015625)"/>
      <path d="M 3122 3366 
L 3122 2828 
Q 2878 2963 2633 3030 
Q 2388 3097 2138 3097 
Q 1578 3097 1268 2742 
Q 959 2388 959 1747 
Q 959 1106 1268 751 
Q 1578 397 2138 397 
Q 2388 397 2633 464 
Q 2878 531 3122 666 
L 3122 134 
Q 2881 22 2623 -34 
Q 2366 -91 2075 -91 
Q 1284 -91 818 406 
Q 353 903 353 1747 
Q 353 2603 823 3093 
Q 1294 3584 2113 3584 
Q 2378 3584 2631 3529 
Q 2884 3475 3122 3366 
z
" id="DejaVuSans-63" transform="scale(0.015625)"/>
      <path d="M 513 4856 
L 1013 4856 
Q 1481 4119 1714 3412 
Q 1947 2706 1947 2009 
Q 1947 1309 1714 600 
Q 1481 -109 1013 -844 
L 513 -844 
Q 928 -128 1133 580 
Q 1338 1288 1338 2009 
Q 1338 2731 1133 3434 
Q 928 4138 513 4856 
z
" id="DejaVuSans-29" transform="scale(0.015625)"/>
     </defs>
     <use xlink:href="#DejaVuSans-43"/>
     <use x="69.824219" xlink:href="#DejaVuSans-68"/>
     <use x="133.203125" xlink:href="#DejaVuSans-69"/>
     <use x="160.986328" xlink:href="#DejaVuSans-53"/>
     <use x="224.462891" xlink:href="#DejaVuSans-71"/>
     <use x="287.939453" xlink:href="#DejaVuSans-75"/>
     <use x="351.318359" xlink:href="#DejaVuSans-61"/>
     <use x="412.597656" xlink:href="#DejaVuSans-72"/>
     <use x="451.460938" xlink:href="#DejaVuSans-65"/>
     <use x="512.984375" xlink:href="#DejaVuSans-64"/>
     <use x="576.460938" xlink:href="#DejaVuSans-28"/>
     <use x="615.474609" xlink:href="#DejaVuSans-64"/>
     <use x="678.951172" xlink:href="#DejaVuSans-66"/>
     <use x="714.15625" xlink:href="#DejaVuSans-3d"/>
     <use x="797.945312" xlink:href="#DejaVuSans-33"/>
     <use x="861.568359" xlink:href="#DejaVuSans-2e"/>
     <use x="893.355469" xlink:href="#DejaVuSans-39"/>
     <use x="956.978516" xlink:href="#DejaVuSans-37"/>
     <use x="1020.601562" xlink:href="#DejaVuSans-2c"/>
     <use x="1052.388672" xlink:href="#DejaVuSans-20"/>
     <use x="1084.175781" xlink:href="#DejaVuSans-6c"/>
     <use x="1111.958984" xlink:href="#DejaVuSans-6f"/>
     <use x="1173.140625" xlink:href="#DejaVuSans-63"/>
     <use x="1228.121094" xlink:href="#DejaVuSans-3d"/>
     <use x="1311.910156" xlink:href="#DejaVuSans-30"/>
     <use x="1375.533203" xlink:href="#DejaVuSans-2e"/>
     <use x="1407.320312" xlink:href="#DejaVuSans-30"/>
     <use x="1470.943359" xlink:href="#DejaVuSans-30"/>
     <use x="1534.566406" xlink:href="#DejaVuSans-2c"/>
     <use x="1566.353516" xlink:href="#DejaVuSans-20"/>
     <use x="1598.140625" xlink:href="#DejaVuSans-73"/>
     <use x="1650.240234" xlink:href="#DejaVuSans-63"/>
     <use x="1705.220703" xlink:href="#DejaVuSans-61"/>
     <use x="1766.5" xlink:href="#DejaVuSans-6c"/>
     <use x="1794.283203" xlink:href="#DejaVuSans-65"/>
     <use x="1855.806641" xlink:href="#DejaVuSans-3d"/>
     <use x="1939.595703" xlink:href="#DejaVuSans-31"/>
     <use x="2003.21875" xlink:href="#DejaVuSans-2e"/>
     <use x="2035.005859" xlink:href="#DejaVuSans-30"/>
     <use x="2098.628906" xlink:href="#DejaVuSans-31"/>
     <use x="2162.251953" xlink:href="#DejaVuSans-29"/>
    </g>
   </g>
   <g id="legend_1">
    <g id="patch_109">
     <path d="M 923.41875 159.0845 
L 1412.4 159.0845 
Q 1417.2 159.0845 1417.2 154.2845 
L 1417.2 86.2295 
Q 1417.2 81.4295 1412.4 81.4295 
L 923.41875 81.4295 
Q 918.61875 81.4295 918.61875 86.2295 
L 918.61875 154.2845 
Q 918.61875 159.0845 923.41875 159.0845 
z
" style="fill:#ffffff;opacity:0.8;stroke:#cccccc;stroke-linejoin:miter;"/>
    </g>
    <g id="line2d_16">
     <path d="M 928.21875 100.86575 
L 976.21875 100.86575 
" style="fill:none;stroke:#1f77b4;stroke-linecap:square;stroke-width:2;"/>
    </g>
    <g id="line2d_17"/>
    <g id="text_19">
     <!-- ChiSquared fit PDF -->
     <g transform="translate(995.41875 109.26575)scale(0.24 -0.24)">
      <defs>
       <path d="M 1259 4147 
L 1259 2394 
L 2053 2394 
Q 2494 2394 2734 2622 
Q 2975 2850 2975 3272 
Q 2975 3691 2734 3919 
Q 2494 4147 2053 4147 
L 1259 4147 
z
M 628 4666 
L 2053 4666 
Q 2838 4666 3239 4311 
Q 3641 3956 3641 3272 
Q 3641 2581 3239 2228 
Q 2838 1875 2053 1875 
L 1259 1875 
L 1259 0 
L 628 0 
L 628 4666 
z
" id="DejaVuSans-50" transform="scale(0.015625)"/>
       <path d="M 1259 4147 
L 1259 519 
L 2022 519 
Q 2988 519 3436 956 
Q 3884 1394 3884 2338 
Q 3884 3275 3436 3711 
Q 2988 4147 2022 4147 
L 1259 4147 
z
M 628 4666 
L 1925 4666 
Q 3281 4666 3915 4102 
Q 4550 3538 4550 2338 
Q 4550 1131 3912 565 
Q 3275 0 1925 0 
L 628 0 
L 628 4666 
z
" id="DejaVuSans-44" transform="scale(0.015625)"/>
       <path d="M 628 4666 
L 3309 4666 
L 3309 4134 
L 1259 4134 
L 1259 2759 
L 3109 2759 
L 3109 2228 
L 1259 2228 
L 1259 0 
L 628 0 
L 628 4666 
z
" id="DejaVuSans-46" transform="scale(0.015625)"/>
      </defs>
      <use xlink:href="#DejaVuSans-43"/>
      <use x="69.824219" xlink:href="#DejaVuSans-68"/>
      <use x="133.203125" xlink:href="#DejaVuSans-69"/>
      <use x="160.986328" xlink:href="#DejaVuSans-53"/>
      <use x="224.462891" xlink:href="#DejaVuSans-71"/>
      <use x="287.939453" xlink:href="#DejaVuSans-75"/>
      <use x="351.318359" xlink:href="#DejaVuSans-61"/>
      <use x="412.597656" xlink:href="#DejaVuSans-72"/>
      <use x="451.460938" xlink:href="#DejaVuSans-65"/>
      <use x="512.984375" xlink:href="#DejaVuSans-64"/>
      <use x="576.460938" xlink:href="#DejaVuSans-20"/>
      <use x="608.248047" xlink:href="#DejaVuSans-66"/>
      <use x="643.453125" xlink:href="#DejaVuSans-69"/>
      <use x="671.236328" xlink:href="#DejaVuSans-74"/>
      <use x="710.445312" xlink:href="#DejaVuSans-20"/>
      <use x="742.232422" xlink:href="#DejaVuSans-50"/>
      <use x="802.535156" xlink:href="#DejaVuSans-44"/>
      <use x="879.537109" xlink:href="#DejaVuSans-46"/>
     </g>
    </g>
    <g id="patch_110">
     <path d="M 928.21875 144.49325 
L 976.21875 144.49325 
L 976.21875 127.69325 
L 928.21875 127.69325 
z
" style="fill:#ff7f0e;opacity:0.5;"/>
    </g>
    <g id="text_20">
     <!-- Generated (4 degrees of freedom) -->
     <g transform="translate(995.41875 144.49325)scale(0.24 -0.24)">
      <defs>
       <path d="M 3809 666 
L 3809 1919 
L 2778 1919 
L 2778 2438 
L 4434 2438 
L 4434 434 
Q 4069 175 3628 42 
Q 3188 -91 2688 -91 
Q 1594 -91 976 548 
Q 359 1188 359 2328 
Q 359 3472 976 4111 
Q 1594 4750 2688 4750 
Q 3144 4750 3555 4637 
Q 3966 4525 4313 4306 
L 4313 3634 
Q 3963 3931 3569 4081 
Q 3175 4231 2741 4231 
Q 1884 4231 1454 3753 
Q 1025 3275 1025 2328 
Q 1025 1384 1454 906 
Q 1884 428 2741 428 
Q 3075 428 3337 486 
Q 3600 544 3809 666 
z
" id="DejaVuSans-47" transform="scale(0.015625)"/>
       <path d="M 2419 4116 
L 825 1625 
L 2419 1625 
L 2419 4116 
z
M 2253 4666 
L 3047 4666 
L 3047 1625 
L 3713 1625 
L 3713 1100 
L 3047 1100 
L 3047 0 
L 2419 0 
L 2419 1100 
L 313 1100 
L 313 1709 
L 2253 4666 
z
" id="DejaVuSans-34" transform="scale(0.015625)"/>
       <path d="M 2906 1791 
Q 2906 2416 2648 2759 
Q 2391 3103 1925 3103 
Q 1463 3103 1205 2759 
Q 947 2416 947 1791 
Q 947 1169 1205 825 
Q 1463 481 1925 481 
Q 2391 481 2648 825 
Q 2906 1169 2906 1791 
z
M 3481 434 
Q 3481 -459 3084 -895 
Q 2688 -1331 1869 -1331 
Q 1566 -1331 1297 -1286 
Q 1028 -1241 775 -1147 
L 775 -588 
Q 1028 -725 1275 -790 
Q 1522 -856 1778 -856 
Q 2344 -856 2625 -561 
Q 2906 -266 2906 331 
L 2906 616 
Q 2728 306 2450 153 
Q 2172 0 1784 0 
Q 1141 0 747 490 
Q 353 981 353 1791 
Q 353 2603 747 3093 
Q 1141 3584 1784 3584 
Q 2172 3584 2450 3431 
Q 2728 3278 2906 2969 
L 2906 3500 
L 3481 3500 
L 3481 434 
z
" id="DejaVuSans-67" transform="scale(0.015625)"/>
      </defs>
      <use xlink:href="#DejaVuSans-47"/>
      <use x="77.490234" xlink:href="#DejaVuSans-65"/>
      <use x="139.013672" xlink:href="#DejaVuSans-6e"/>
      <use x="202.392578" xlink:href="#DejaVuSans-65"/>
      <use x="263.916016" xlink:href="#DejaVuSans-72"/>
      <use x="305.029297" xlink:href="#DejaVuSans-61"/>
      <use x="366.308594" xlink:href="#DejaVuSans-74"/>
      <use x="405.517578" xlink:href="#DejaVuSans-65"/>
      <use x="467.041016" xlink:href="#DejaVuSans-64"/>
      <use x="530.517578" xlink:href="#DejaVuSans-20"/>
      <use x="562.304688" xlink:href="#DejaVuSans-28"/>
      <use x="601.318359" xlink:href="#DejaVuSans-34"/>
      <use x="664.941406" xlink:href="#DejaVuSans-20"/>
      <use x="696.728516" xlink:href="#DejaVuSans-64"/>
      <use x="760.205078" xlink:href="#DejaVuSans-65"/>
      <use x="821.728516" xlink:href="#DejaVuSans-67"/>
      <use x="885.205078" xlink:href="#DejaVuSans-72"/>
      <use x="924.068359" xlink:href="#DejaVuSans-65"/>
      <use x="985.591797" xlink:href="#DejaVuSans-65"/>
      <use x="1047.115234" xlink:href="#DejaVuSans-73"/>
      <use x="1099.214844" xlink:href="#DejaVuSans-20"/>
      <use x="1131.001953" xlink:href="#DejaVuSans-6f"/>
      <use x="1192.183594" xlink:href="#DejaVuSans-66"/>
      <use x="1227.388672" xlink:href="#DejaVuSans-20"/>
      <use x="1259.175781" xlink:href="#DejaVuSans-66"/>
      <use x="1294.380859" xlink:href="#DejaVuSans-72"/>
      <use x="1333.244141" xlink:href="#DejaVuSans-65"/>
      <use x="1394.767578" xlink:href="#DejaVuSans-65"/>
      <use x="1456.291016" xlink:href="#DejaVuSans-64"/>
      <use x="1519.767578" xlink:href="#DejaVuSans-6f"/>
      <use x="1580.949219" xlink:href="#DejaVuSans-6d"/>
      <use x="1678.361328" xlink:href="#DejaVuSans-29"/>
     </g>
    </g>
   </g>
  </g>
 </g>
 <defs>
  <clipPath id="p8833c10891">
   <rect height="733.090187" width="1333.609688" x="95.590313" y="69.4295"/>
  </clipPath>
 </defs>
</svg>
