<?xml version="1.0" encoding="utf-8" standalone="no"?>
<!DOCTYPE svg PUBLIC "-//W3C//DTD SVG 1.1//EN"
  "http://www.w3.org/Graphics/SVG/1.1/DTD/svg11.dtd">
<svg height="864pt" version="1.1" viewBox="0 0 1440 864" width="1440pt" xmlns="http://www.w3.org/2000/svg" xmlns:xlink="http://www.w3.org/1999/xlink">
 <metadata>
  <rdf:RDF xmlns:cc="http://creativecommons.org/ns#" xmlns:dc="http://purl.org/dc/elements/1.1/" xmlns:rdf="http://www.w3.org/1999/02/22-rdf-syntax-ns#">
   <cc:Work>
    <dc:type rdf:resource="http://purl.org/dc/dcmitype/StillImage"/>
    <dc:date>2022-06-27T11:58:23.594982</dc:date>
    <dc:format>image/svg+xml</dc:format>
    <dc:creator>
     <cc:Agent>
      <dc:title>Matplotlib v3.4.3, https://matplotlib.org/</dc:title>
     </cc:Agent>
    </dc:creator>
   </cc:Work>
  </rdf:RDF>
 </metadata>
 <defs>
  <style type="text/css">*{stroke-linecap:butt;stroke-linejoin:round;}</style>
 </defs>
 <g id="figure_1">
  <g id="patch_1">
   <path d="M 0 864 
L 1440 864 
L 1440 0 
L 0 0 
z
" style="fill:#ffffff;"/>
  </g>
  <g id="axes_1">
   <g id="patch_2">
    <path d="M 95.590313 802.519687 
L 1429.2 802.519687 
L 1429.2 69.4295 
L 95.590313 69.4295 
z
" style="fill:#ffffff;"/>
   </g>
   <g id="patch_3">
    <path clip-path="url(#p0f791b6c8c)" d="M 156.208935 802.519687 
L 168.332659 802.519687 
L 168.332659 650.590242 
L 156.208935 650.590242 
z
" style="fill:#ff7f0e;opacity:0.5;"/>
   </g>
   <g id="patch_4">
    <path clip-path="url(#p0f791b6c8c)" d="M 168.332659 802.519687 
L 180.456384 802.519687 
L 180.456384 454.792098 
L 168.332659 454.792098 
z
" style="fill:#ff7f0e;opacity:0.5;"/>
   </g>
   <g id="patch_5">
    <path clip-path="url(#p0f791b6c8c)" d="M 180.456384 802.519687 
L 192.580108 802.519687 
L 192.580108 319.716163 
L 180.456384 319.716163 
z
" style="fill:#ff7f0e;opacity:0.5;"/>
   </g>
   <g id="patch_6">
    <path clip-path="url(#p0f791b6c8c)" d="M 192.580108 802.519687 
L 204.703832 802.519687 
L 204.703832 184.144537 
L 192.580108 184.144537 
z
" style="fill:#ff7f0e;opacity:0.5;"/>
   </g>
   <g id="patch_7">
    <path clip-path="url(#p0f791b6c8c)" d="M 204.703832 802.519687 
L 216.827557 802.519687 
L 216.827557 127.883551 
L 204.703832 127.883551 
z
" style="fill:#ff7f0e;opacity:0.5;"/>
   </g>
   <g id="patch_8">
    <path clip-path="url(#p0f791b6c8c)" d="M 216.827557 802.519687 
L 228.951281 802.519687 
L 228.951281 107.064508 
L 216.827557 107.064508 
z
" style="fill:#ff7f0e;opacity:0.5;"/>
   </g>
   <g id="patch_9">
    <path clip-path="url(#p0f791b6c8c)" d="M 228.951281 802.519687 
L 241.075006 802.519687 
L 241.075006 112.76496 
L 228.951281 112.76496 
z
" style="fill:#ff7f0e;opacity:0.5;"/>
   </g>
   <g id="patch_10">
    <path clip-path="url(#p0f791b6c8c)" d="M 241.075006 802.519687 
L 253.19873 802.519687 
L 253.19873 112.517115 
L 241.075006 112.517115 
z
" style="fill:#ff7f0e;opacity:0.5;"/>
   </g>
   <g id="patch_11">
    <path clip-path="url(#p0f791b6c8c)" d="M 253.19873 802.519687 
L 265.322455 802.519687 
L 265.322455 160.351345 
L 253.19873 160.351345 
z
" style="fill:#ff7f0e;opacity:0.5;"/>
   </g>
   <g id="patch_12">
    <path clip-path="url(#p0f791b6c8c)" d="M 265.322455 802.519687 
L 277.446179 802.519687 
L 277.446179 180.426851 
L 265.322455 180.426851 
z
" style="fill:#ff7f0e;opacity:0.5;"/>
   </g>
   <g id="patch_13">
    <path clip-path="url(#p0f791b6c8c)" d="M 277.446179 802.519687 
L 289.569903 802.519687 
L 289.569903 203.724351 
L 277.446179 203.724351 
z
" style="fill:#ff7f0e;opacity:0.5;"/>
   </g>
   <g id="patch_14">
    <path clip-path="url(#p0f791b6c8c)" d="M 289.569903 802.519687 
L 301.693628 802.519687 
L 301.693628 234.952916 
L 289.569903 234.952916 
z
" style="fill:#ff7f0e;opacity:0.5;"/>
   </g>
   <g id="patch_15">
    <path clip-path="url(#p0f791b6c8c)" d="M 301.693628 802.519687 
L 313.817352 802.519687 
L 313.817352 270.89055 
L 301.693628 270.89055 
z
" style="fill:#ff7f0e;opacity:0.5;"/>
   </g>
   <g id="patch_16">
    <path clip-path="url(#p0f791b6c8c)" d="M 313.817352 802.519687 
L 325.941077 802.519687 
L 325.941077 303.358343 
L 313.817352 303.358343 
z
" style="fill:#ff7f0e;opacity:0.5;"/>
   </g>
   <g id="patch_17">
    <path clip-path="url(#p0f791b6c8c)" d="M 325.941077 802.519687 
L 338.064801 802.519687 
L 338.064801 326.655844 
L 325.941077 326.655844 
z
" style="fill:#ff7f0e;opacity:0.5;"/>
   </g>
   <g id="patch_18">
    <path clip-path="url(#p0f791b6c8c)" d="M 338.064801 802.519687 
L 350.188526 802.519687 
L 350.188526 369.533159 
L 338.064801 369.533159 
z
" style="fill:#ff7f0e;opacity:0.5;"/>
   </g>
   <g id="patch_19">
    <path clip-path="url(#p0f791b6c8c)" d="M 350.188526 802.519687 
L 362.31225 802.519687 
L 362.31225 412.162629 
L 350.188526 412.162629 
z
" style="fill:#ff7f0e;opacity:0.5;"/>
   </g>
   <g id="patch_20">
    <path clip-path="url(#p0f791b6c8c)" d="M 362.31225 802.519687 
L 374.435974 802.519687 
L 374.435974 464.953774 
L 362.31225 464.953774 
z
" style="fill:#ff7f0e;opacity:0.5;"/>
   </g>
   <g id="patch_21">
    <path clip-path="url(#p0f791b6c8c)" d="M 374.435974 802.519687 
L 386.559699 802.519687 
L 386.559699 480.815902 
L 374.435974 480.815902 
z
" style="fill:#ff7f0e;opacity:0.5;"/>
   </g>
   <g id="patch_22">
    <path clip-path="url(#p0f791b6c8c)" d="M 386.559699 802.519687 
L 398.683423 802.519687 
L 398.683423 514.027232 
L 386.559699 514.027232 
z
" style="fill:#ff7f0e;opacity:0.5;"/>
   </g>
   <g id="patch_23">
    <path clip-path="url(#p0f791b6c8c)" d="M 398.683423 802.519687 
L 410.807148 802.519687 
L 410.807148 533.607047 
L 398.683423 533.607047 
z
" style="fill:#ff7f0e;opacity:0.5;"/>
   </g>
   <g id="patch_24">
    <path clip-path="url(#p0f791b6c8c)" d="M 410.807148 802.519687 
L 422.930872 802.519687 
L 422.930872 581.689123 
L 410.807148 581.689123 
z
" style="fill:#ff7f0e;opacity:0.5;"/>
   </g>
   <g id="patch_25">
    <path clip-path="url(#p0f791b6c8c)" d="M 422.930872 802.519687 
L 435.054597 802.519687 
L 435.054597 595.320639 
L 422.930872 595.320639 
z
" style="fill:#ff7f0e;opacity:0.5;"/>
   </g>
   <g id="patch_26">
    <path clip-path="url(#p0f791b6c8c)" d="M 435.054597 802.519687 
L 447.178321 802.519687 
L 447.178321 618.865985 
L 435.054597 618.865985 
z
" style="fill:#ff7f0e;opacity:0.5;"/>
   </g>
   <g id="patch_27">
    <path clip-path="url(#p0f791b6c8c)" d="M 447.178321 802.519687 
L 459.302045 802.519687 
L 459.302045 630.019044 
L 447.178321 630.019044 
z
" style="fill:#ff7f0e;opacity:0.5;"/>
   </g>
   <g id="patch_28">
    <path clip-path="url(#p0f791b6c8c)" d="M 459.302045 802.519687 
L 471.42577 802.519687 
L 471.42577 664.469604 
L 459.302045 664.469604 
z
" style="fill:#ff7f0e;opacity:0.5;"/>
   </g>
   <g id="patch_29">
    <path clip-path="url(#p0f791b6c8c)" d="M 471.42577 802.519687 
L 483.549494 802.519687 
L 483.549494 670.170056 
L 471.42577 670.170056 
z
" style="fill:#ff7f0e;opacity:0.5;"/>
   </g>
   <g id="patch_30">
    <path clip-path="url(#p0f791b6c8c)" d="M 483.549494 802.519687 
L 495.673219 802.519687 
L 495.673219 687.271413 
L 483.549494 687.271413 
z
" style="fill:#ff7f0e;opacity:0.5;"/>
   </g>
   <g id="patch_31">
    <path clip-path="url(#p0f791b6c8c)" d="M 495.673219 802.519687 
L 507.796943 802.519687 
L 507.796943 696.689552 
L 495.673219 696.689552 
z
" style="fill:#ff7f0e;opacity:0.5;"/>
   </g>
   <g id="patch_32">
    <path clip-path="url(#p0f791b6c8c)" d="M 507.796943 802.519687 
L 519.920668 802.519687 
L 519.920668 712.303834 
L 507.796943 712.303834 
z
" style="fill:#ff7f0e;opacity:0.5;"/>
   </g>
   <g id="patch_33">
    <path clip-path="url(#p0f791b6c8c)" d="M 519.920668 802.519687 
L 532.044392 802.519687 
L 532.044392 719.243515 
L 519.920668 719.243515 
z
" style="fill:#ff7f0e;opacity:0.5;"/>
   </g>
   <g id="patch_34">
    <path clip-path="url(#p0f791b6c8c)" d="M 532.044392 802.519687 
L 544.168116 802.519687 
L 544.168116 734.362106 
L 532.044392 734.362106 
z
" style="fill:#ff7f0e;opacity:0.5;"/>
   </g>
   <g id="patch_35">
    <path clip-path="url(#p0f791b6c8c)" d="M 544.168116 802.519687 
L 556.291841 802.519687 
L 556.291841 738.575484 
L 544.168116 738.575484 
z
" style="fill:#ff7f0e;opacity:0.5;"/>
   </g>
   <g id="patch_36">
    <path clip-path="url(#p0f791b6c8c)" d="M 556.291841 802.519687 
L 568.415565 802.519687 
L 568.415565 737.088409 
L 556.291841 737.088409 
z
" style="fill:#ff7f0e;opacity:0.5;"/>
   </g>
   <g id="patch_37">
    <path clip-path="url(#p0f791b6c8c)" d="M 568.415565 802.519687 
L 580.53929 802.519687 
L 580.53929 749.976388 
L 568.415565 749.976388 
z
" style="fill:#ff7f0e;opacity:0.5;"/>
   </g>
   <g id="patch_38">
    <path clip-path="url(#p0f791b6c8c)" d="M 580.53929 802.519687 
L 592.663014 802.519687 
L 592.663014 756.916069 
L 580.53929 756.916069 
z
" style="fill:#ff7f0e;opacity:0.5;"/>
   </g>
   <g id="patch_39">
    <path clip-path="url(#p0f791b6c8c)" d="M 592.663014 802.519687 
L 604.786739 802.519687 
L 604.786739 766.334208 
L 592.663014 766.334208 
z
" style="fill:#ff7f0e;opacity:0.5;"/>
   </g>
   <g id="patch_40">
    <path clip-path="url(#p0f791b6c8c)" d="M 604.786739 802.519687 
L 616.910463 802.519687 
L 616.910463 768.56482 
L 604.786739 768.56482 
z
" style="fill:#ff7f0e;opacity:0.5;"/>
   </g>
   <g id="patch_41">
    <path clip-path="url(#p0f791b6c8c)" d="M 616.910463 802.519687 
L 629.034188 802.519687 
L 629.034188 772.03466 
L 616.910463 772.03466 
z
" style="fill:#ff7f0e;opacity:0.5;"/>
   </g>
   <g id="patch_42">
    <path clip-path="url(#p0f791b6c8c)" d="M 629.034188 802.519687 
L 641.157912 802.519687 
L 641.157912 776.000192 
L 629.034188 776.000192 
z
" style="fill:#ff7f0e;opacity:0.5;"/>
   </g>
   <g id="patch_43">
    <path clip-path="url(#p0f791b6c8c)" d="M 641.157912 802.519687 
L 653.281636 802.519687 
L 653.281636 777.487267 
L 641.157912 777.487267 
z
" style="fill:#ff7f0e;opacity:0.5;"/>
   </g>
   <g id="patch_44">
    <path clip-path="url(#p0f791b6c8c)" d="M 653.281636 802.519687 
L 665.405361 802.519687 
L 665.405361 780.461416 
L 653.281636 780.461416 
z
" style="fill:#ff7f0e;opacity:0.5;"/>
   </g>
   <g id="patch_45">
    <path clip-path="url(#p0f791b6c8c)" d="M 665.405361 802.519687 
L 677.529085 802.519687 
L 677.529085 779.965724 
L 665.405361 779.965724 
z
" style="fill:#ff7f0e;opacity:0.5;"/>
   </g>
   <g id="patch_46">
    <path clip-path="url(#p0f791b6c8c)" d="M 677.529085 802.519687 
L 689.65281 802.519687 
L 689.65281 786.161868 
L 677.529085 786.161868 
z
" style="fill:#ff7f0e;opacity:0.5;"/>
   </g>
   <g id="patch_47">
    <path clip-path="url(#p0f791b6c8c)" d="M 689.65281 802.519687 
L 701.776534 802.519687 
L 701.776534 790.1274 
L 689.65281 790.1274 
z
" style="fill:#ff7f0e;opacity:0.5;"/>
   </g>
   <g id="patch_48">
    <path clip-path="url(#p0f791b6c8c)" d="M 701.776534 802.519687 
L 713.900259 802.519687 
L 713.900259 790.623091 
L 701.776534 790.623091 
z
" style="fill:#ff7f0e;opacity:0.5;"/>
   </g>
   <g id="patch_49">
    <path clip-path="url(#p0f791b6c8c)" d="M 713.900259 802.519687 
L 726.023983 802.519687 
L 726.023983 792.853703 
L 713.900259 792.853703 
z
" style="fill:#ff7f0e;opacity:0.5;"/>
   </g>
   <g id="patch_50">
    <path clip-path="url(#p0f791b6c8c)" d="M 726.023983 802.519687 
L 738.147707 802.519687 
L 738.147707 793.59724 
L 726.023983 793.59724 
z
" style="fill:#ff7f0e;opacity:0.5;"/>
   </g>
   <g id="patch_51">
    <path clip-path="url(#p0f791b6c8c)" d="M 738.147707 802.519687 
L 750.271432 802.519687 
L 750.271432 795.084315 
L 738.147707 795.084315 
z
" style="fill:#ff7f0e;opacity:0.5;"/>
   </g>
   <g id="patch_52">
    <path clip-path="url(#p0f791b6c8c)" d="M 750.271432 802.519687 
L 762.395156 802.519687 
L 762.395156 793.845086 
L 750.271432 793.845086 
z
" style="fill:#ff7f0e;opacity:0.5;"/>
   </g>
   <g id="patch_53">
    <path clip-path="url(#p0f791b6c8c)" d="M 762.395156 802.519687 
L 774.518881 802.519687 
L 774.518881 795.332161 
L 762.395156 795.332161 
z
" style="fill:#ff7f0e;opacity:0.5;"/>
   </g>
   <g id="patch_54">
    <path clip-path="url(#p0f791b6c8c)" d="M 774.518881 802.519687 
L 786.642605 802.519687 
L 786.642605 796.571389 
L 774.518881 796.571389 
z
" style="fill:#ff7f0e;opacity:0.5;"/>
   </g>
   <g id="patch_55">
    <path clip-path="url(#p0f791b6c8c)" d="M 786.642605 802.519687 
L 798.76633 802.519687 
L 798.76633 797.314927 
L 786.642605 797.314927 
z
" style="fill:#ff7f0e;opacity:0.5;"/>
   </g>
   <g id="patch_56">
    <path clip-path="url(#p0f791b6c8c)" d="M 798.76633 802.519687 
L 810.890054 802.519687 
L 810.890054 799.297693 
L 798.76633 799.297693 
z
" style="fill:#ff7f0e;opacity:0.5;"/>
   </g>
   <g id="patch_57">
    <path clip-path="url(#p0f791b6c8c)" d="M 810.890054 802.519687 
L 823.013778 802.519687 
L 823.013778 799.297693 
L 810.890054 799.297693 
z
" style="fill:#ff7f0e;opacity:0.5;"/>
   </g>
   <g id="patch_58">
    <path clip-path="url(#p0f791b6c8c)" d="M 823.013778 802.519687 
L 835.137503 802.519687 
L 835.137503 801.032613 
L 823.013778 801.032613 
z
" style="fill:#ff7f0e;opacity:0.5;"/>
   </g>
   <g id="patch_59">
    <path clip-path="url(#p0f791b6c8c)" d="M 835.137503 802.519687 
L 847.261227 802.519687 
L 847.261227 800.04123 
L 835.137503 800.04123 
z
" style="fill:#ff7f0e;opacity:0.5;"/>
   </g>
   <g id="patch_60">
    <path clip-path="url(#p0f791b6c8c)" d="M 847.261227 802.519687 
L 859.384952 802.519687 
L 859.384952 800.289076 
L 847.261227 800.289076 
z
" style="fill:#ff7f0e;opacity:0.5;"/>
   </g>
   <g id="patch_61">
    <path clip-path="url(#p0f791b6c8c)" d="M 859.384952 802.519687 
L 871.508676 802.519687 
L 871.508676 800.784767 
L 859.384952 800.784767 
z
" style="fill:#ff7f0e;opacity:0.5;"/>
   </g>
   <g id="patch_62">
    <path clip-path="url(#p0f791b6c8c)" d="M 871.508676 802.519687 
L 883.632401 802.519687 
L 883.632401 800.289076 
L 871.508676 800.289076 
z
" style="fill:#ff7f0e;opacity:0.5;"/>
   </g>
   <g id="patch_63">
    <path clip-path="url(#p0f791b6c8c)" d="M 883.632401 802.519687 
L 895.756125 802.519687 
L 895.756125 800.784767 
L 883.632401 800.784767 
z
" style="fill:#ff7f0e;opacity:0.5;"/>
   </g>
   <g id="patch_64">
    <path clip-path="url(#p0f791b6c8c)" d="M 895.756125 802.519687 
L 907.879849 802.519687 
L 907.879849 801.77615 
L 895.756125 801.77615 
z
" style="fill:#ff7f0e;opacity:0.5;"/>
   </g>
   <g id="patch_65">
    <path clip-path="url(#p0f791b6c8c)" d="M 907.879849 802.519687 
L 920.003574 802.519687 
L 920.003574 800.536921 
L 907.879849 800.536921 
z
" style="fill:#ff7f0e;opacity:0.5;"/>
   </g>
   <g id="patch_66">
    <path clip-path="url(#p0f791b6c8c)" d="M 920.003574 802.519687 
L 932.127298 802.519687 
L 932.127298 802.023996 
L 920.003574 802.023996 
z
" style="fill:#ff7f0e;opacity:0.5;"/>
   </g>
   <g id="patch_67">
    <path clip-path="url(#p0f791b6c8c)" d="M 932.127298 802.519687 
L 944.251023 802.519687 
L 944.251023 800.784767 
L 932.127298 800.784767 
z
" style="fill:#ff7f0e;opacity:0.5;"/>
   </g>
   <g id="patch_68">
    <path clip-path="url(#p0f791b6c8c)" d="M 944.251023 802.519687 
L 956.374747 802.519687 
L 956.374747 801.032613 
L 944.251023 801.032613 
z
" style="fill:#ff7f0e;opacity:0.5;"/>
   </g>
   <g id="patch_69">
    <path clip-path="url(#p0f791b6c8c)" d="M 956.374747 802.519687 
L 968.498472 802.519687 
L 968.498472 802.023996 
L 956.374747 802.023996 
z
" style="fill:#ff7f0e;opacity:0.5;"/>
   </g>
   <g id="patch_70">
    <path clip-path="url(#p0f791b6c8c)" d="M 968.498472 802.519687 
L 980.622196 802.519687 
L 980.622196 802.023996 
L 968.498472 802.023996 
z
" style="fill:#ff7f0e;opacity:0.5;"/>
   </g>
   <g id="patch_71">
    <path clip-path="url(#p0f791b6c8c)" d="M 980.622196 802.519687 
L 992.74592 802.519687 
L 992.74592 802.023996 
L 980.622196 802.023996 
z
" style="fill:#ff7f0e;opacity:0.5;"/>
   </g>
   <g id="patch_72">
    <path clip-path="url(#p0f791b6c8c)" d="M 992.74592 802.519687 
L 1004.869645 802.519687 
L 1004.869645 802.271842 
L 992.74592 802.271842 
z
" style="fill:#ff7f0e;opacity:0.5;"/>
   </g>
   <g id="patch_73">
    <path clip-path="url(#p0f791b6c8c)" d="M 1004.869645 802.519687 
L 1016.993369 802.519687 
L 1016.993369 802.271842 
L 1004.869645 802.271842 
z
" style="fill:#ff7f0e;opacity:0.5;"/>
   </g>
   <g id="patch_74">
    <path clip-path="url(#p0f791b6c8c)" d="M 1016.993369 802.519687 
L 1029.117094 802.519687 
L 1029.117094 802.271842 
L 1016.993369 802.271842 
z
" style="fill:#ff7f0e;opacity:0.5;"/>
   </g>
   <g id="patch_75">
    <path clip-path="url(#p0f791b6c8c)" d="M 1029.117094 802.519687 
L 1041.240818 802.519687 
L 1041.240818 802.519687 
L 1029.117094 802.519687 
z
" style="fill:#ff7f0e;opacity:0.5;"/>
   </g>
   <g id="patch_76">
    <path clip-path="url(#p0f791b6c8c)" d="M 1041.240818 802.519687 
L 1053.364543 802.519687 
L 1053.364543 802.271842 
L 1041.240818 802.271842 
z
" style="fill:#ff7f0e;opacity:0.5;"/>
   </g>
   <g id="patch_77">
    <path clip-path="url(#p0f791b6c8c)" d="M 1053.364543 802.519687 
L 1065.488267 802.519687 
L 1065.488267 802.271842 
L 1053.364543 802.271842 
z
" style="fill:#ff7f0e;opacity:0.5;"/>
   </g>
   <g id="patch_78">
    <path clip-path="url(#p0f791b6c8c)" d="M 1065.488267 802.519687 
L 1077.611991 802.519687 
L 1077.611991 802.519687 
L 1065.488267 802.519687 
z
" style="fill:#ff7f0e;opacity:0.5;"/>
   </g>
   <g id="patch_79">
    <path clip-path="url(#p0f791b6c8c)" d="M 1077.611991 802.519687 
L 1089.735716 802.519687 
L 1089.735716 802.519687 
L 1077.611991 802.519687 
z
" style="fill:#ff7f0e;opacity:0.5;"/>
   </g>
   <g id="patch_80">
    <path clip-path="url(#p0f791b6c8c)" d="M 1089.735716 802.519687 
L 1101.85944 802.519687 
L 1101.85944 802.519687 
L 1089.735716 802.519687 
z
" style="fill:#ff7f0e;opacity:0.5;"/>
   </g>
   <g id="patch_81">
    <path clip-path="url(#p0f791b6c8c)" d="M 1101.85944 802.519687 
L 1113.983165 802.519687 
L 1113.983165 802.519687 
L 1101.85944 802.519687 
z
" style="fill:#ff7f0e;opacity:0.5;"/>
   </g>
   <g id="patch_82">
    <path clip-path="url(#p0f791b6c8c)" d="M 1113.983165 802.519687 
L 1126.106889 802.519687 
L 1126.106889 802.519687 
L 1113.983165 802.519687 
z
" style="fill:#ff7f0e;opacity:0.5;"/>
   </g>
   <g id="patch_83">
    <path clip-path="url(#p0f791b6c8c)" d="M 1126.106889 802.519687 
L 1138.230614 802.519687 
L 1138.230614 802.271842 
L 1126.106889 802.271842 
z
" style="fill:#ff7f0e;opacity:0.5;"/>
   </g>
   <g id="patch_84">
    <path clip-path="url(#p0f791b6c8c)" d="M 1138.230614 802.519687 
L 1150.354338 802.519687 
L 1150.354338 802.519687 
L 1138.230614 802.519687 
z
" style="fill:#ff7f0e;opacity:0.5;"/>
   </g>
   <g id="patch_85">
    <path clip-path="url(#p0f791b6c8c)" d="M 1150.354338 802.519687 
L 1162.478063 802.519687 
L 1162.478063 802.519687 
L 1150.354338 802.519687 
z
" style="fill:#ff7f0e;opacity:0.5;"/>
   </g>
   <g id="patch_86">
    <path clip-path="url(#p0f791b6c8c)" d="M 1162.478063 802.519687 
L 1174.601787 802.519687 
L 1174.601787 802.519687 
L 1162.478063 802.519687 
z
" style="fill:#ff7f0e;opacity:0.5;"/>
   </g>
   <g id="patch_87">
    <path clip-path="url(#p0f791b6c8c)" d="M 1174.601787 802.519687 
L 1186.725511 802.519687 
L 1186.725511 802.271842 
L 1174.601787 802.271842 
z
" style="fill:#ff7f0e;opacity:0.5;"/>
   </g>
   <g id="patch_88">
    <path clip-path="url(#p0f791b6c8c)" d="M 1186.725511 802.519687 
L 1198.849236 802.519687 
L 1198.849236 802.519687 
L 1186.725511 802.519687 
z
" style="fill:#ff7f0e;opacity:0.5;"/>
   </g>
   <g id="patch_89">
    <path clip-path="url(#p0f791b6c8c)" d="M 1198.849236 802.519687 
L 1210.97296 802.519687 
L 1210.97296 802.519687 
L 1198.849236 802.519687 
z
" style="fill:#ff7f0e;opacity:0.5;"/>
   </g>
   <g id="patch_90">
    <path clip-path="url(#p0f791b6c8c)" d="M 1210.97296 802.519687 
L 1223.096685 802.519687 
L 1223.096685 802.271842 
L 1210.97296 802.271842 
z
" style="fill:#ff7f0e;opacity:0.5;"/>
   </g>
   <g id="patch_91">
    <path clip-path="url(#p0f791b6c8c)" d="M 1223.096685 802.519687 
L 1235.220409 802.519687 
L 1235.220409 802.519687 
L 1223.096685 802.519687 
z
" style="fill:#ff7f0e;opacity:0.5;"/>
   </g>
   <g id="patch_92">
    <path clip-path="url(#p0f791b6c8c)" d="M 1235.220409 802.519687 
L 1247.344134 802.519687 
L 1247.344134 802.271842 
L 1235.220409 802.271842 
z
" style="fill:#ff7f0e;opacity:0.5;"/>
   </g>
   <g id="patch_93">
    <path clip-path="url(#p0f791b6c8c)" d="M 1247.344134 802.519687 
L 1259.467858 802.519687 
L 1259.467858 802.271842 
L 1247.344134 802.271842 
z
" style="fill:#ff7f0e;opacity:0.5;"/>
   </g>
   <g id="patch_94">
    <path clip-path="url(#p0f791b6c8c)" d="M 1259.467858 802.519687 
L 1271.591582 802.519687 
L 1271.591582 802.519687 
L 1259.467858 802.519687 
z
" style="fill:#ff7f0e;opacity:0.5;"/>
   </g>
   <g id="patch_95">
    <path clip-path="url(#p0f791b6c8c)" d="M 1271.591582 802.519687 
L 1283.715307 802.519687 
L 1283.715307 802.519687 
L 1271.591582 802.519687 
z
" style="fill:#ff7f0e;opacity:0.5;"/>
   </g>
   <g id="patch_96">
    <path clip-path="url(#p0f791b6c8c)" d="M 1283.715307 802.519687 
L 1295.839031 802.519687 
L 1295.839031 802.519687 
L 1283.715307 802.519687 
z
" style="fill:#ff7f0e;opacity:0.5;"/>
   </g>
   <g id="patch_97">
    <path clip-path="url(#p0f791b6c8c)" d="M 1295.839031 802.519687 
L 1307.962756 802.519687 
L 1307.962756 802.519687 
L 1295.839031 802.519687 
z
" style="fill:#ff7f0e;opacity:0.5;"/>
   </g>
   <g id="patch_98">
    <path clip-path="url(#p0f791b6c8c)" d="M 1307.962756 802.519687 
L 1320.08648 802.519687 
L 1320.08648 802.519687 
L 1307.962756 802.519687 
z
" style="fill:#ff7f0e;opacity:0.5;"/>
   </g>
   <g id="patch_99">
    <path clip-path="url(#p0f791b6c8c)" d="M 1320.08648 802.519687 
L 1332.210205 802.519687 
L 1332.210205 802.519687 
L 1320.08648 802.519687 
z
" style="fill:#ff7f0e;opacity:0.5;"/>
   </g>
   <g id="patch_100">
    <path clip-path="url(#p0f791b6c8c)" d="M 1332.210205 802.519687 
L 1344.333929 802.519687 
L 1344.333929 802.519687 
L 1332.210205 802.519687 
z
" style="fill:#ff7f0e;opacity:0.5;"/>
   </g>
   <g id="patch_101">
    <path clip-path="url(#p0f791b6c8c)" d="M 1344.333929 802.519687 
L 1356.457653 802.519687 
L 1356.457653 802.519687 
L 1344.333929 802.519687 
z
" style="fill:#ff7f0e;opacity:0.5;"/>
   </g>
   <g id="patch_102">
    <path clip-path="url(#p0f791b6c8c)" d="M 1356.457653 802.519687 
L 1368.581378 802.519687 
L 1368.581378 802.271842 
L 1356.457653 802.271842 
z
" style="fill:#ff7f0e;opacity:0.5;"/>
   </g>
   <g id="matplotlib.axis_1">
    <g id="xtick_1">
     <g id="line2d_1">
      <defs>
       <path d="M 0 0 
L 0 3.5 
" id="m15dfb04122" style="stroke:#000000;stroke-width:0.8;"/>
      </defs>
      <g>
       <use style="stroke:#000000;stroke-width:0.8;" x="155.575397" xlink:href="#m15dfb04122" y="802.519687"/>
      </g>
     </g>
     <g id="text_1">
      <!-- 0 -->
      <g transform="translate(149.849147 823.196875)scale(0.18 -0.18)">
       <defs>
        <path d="M 2034 4250 
Q 1547 4250 1301 3770 
Q 1056 3291 1056 2328 
Q 1056 1369 1301 889 
Q 1547 409 2034 409 
Q 2525 409 2770 889 
Q 3016 1369 3016 2328 
Q 3016 3291 2770 3770 
Q 2525 4250 2034 4250 
z
M 2034 4750 
Q 2819 4750 3233 4129 
Q 3647 3509 3647 2328 
Q 3647 1150 3233 529 
Q 2819 -91 2034 -91 
Q 1250 -91 836 529 
Q 422 1150 422 2328 
Q 422 3509 836 4129 
Q 1250 4750 2034 4750 
z
" id="DejaVuSans-30" transform="scale(0.015625)"/>
       </defs>
       <use xlink:href="#DejaVuSans-30"/>
      </g>
     </g>
    </g>
    <g id="xtick_2">
     <g id="line2d_2">
      <g>
       <use style="stroke:#000000;stroke-width:0.8;" x="352.931142" xlink:href="#m15dfb04122" y="802.519687"/>
      </g>
     </g>
     <g id="text_2">
      <!-- 5 -->
      <g transform="translate(347.204892 823.196875)scale(0.18 -0.18)">
       <defs>
        <path d="M 691 4666 
L 3169 4666 
L 3169 4134 
L 1269 4134 
L 1269 2991 
Q 1406 3038 1543 3061 
Q 1681 3084 1819 3084 
Q 2600 3084 3056 2656 
Q 3513 2228 3513 1497 
Q 3513 744 3044 326 
Q 2575 -91 1722 -91 
Q 1428 -91 1123 -41 
Q 819 9 494 109 
L 494 744 
Q 775 591 1075 516 
Q 1375 441 1709 441 
Q 2250 441 2565 725 
Q 2881 1009 2881 1497 
Q 2881 1984 2565 2268 
Q 2250 2553 1709 2553 
Q 1456 2553 1204 2497 
Q 953 2441 691 2322 
L 691 4666 
z
" id="DejaVuSans-35" transform="scale(0.015625)"/>
       </defs>
       <use xlink:href="#DejaVuSans-35"/>
      </g>
     </g>
    </g>
    <g id="xtick_3">
     <g id="line2d_3">
      <g>
       <use style="stroke:#000000;stroke-width:0.8;" x="550.286887" xlink:href="#m15dfb04122" y="802.519687"/>
      </g>
     </g>
     <g id="text_3">
      <!-- 10 -->
      <g transform="translate(538.834387 823.196875)scale(0.18 -0.18)">
       <defs>
        <path d="M 794 531 
L 1825 531 
L 1825 4091 
L 703 3866 
L 703 4441 
L 1819 4666 
L 2450 4666 
L 2450 531 
L 3481 531 
L 3481 0 
L 794 0 
L 794 531 
z
" id="DejaVuSans-31" transform="scale(0.015625)"/>
       </defs>
       <use xlink:href="#DejaVuSans-31"/>
       <use x="63.623047" xlink:href="#DejaVuSans-30"/>
      </g>
     </g>
    </g>
    <g id="xtick_4">
     <g id="line2d_4">
      <g>
       <use style="stroke:#000000;stroke-width:0.8;" x="747.642631" xlink:href="#m15dfb04122" y="802.519687"/>
      </g>
     </g>
     <g id="text_4">
      <!-- 15 -->
      <g transform="translate(736.190131 823.196875)scale(0.18 -0.18)">
       <use xlink:href="#DejaVuSans-31"/>
       <use x="63.623047" xlink:href="#DejaVuSans-35"/>
      </g>
     </g>
    </g>
    <g id="xtick_5">
     <g id="line2d_5">
      <g>
       <use style="stroke:#000000;stroke-width:0.8;" x="944.998376" xlink:href="#m15dfb04122" y="802.519687"/>
      </g>
     </g>
     <g id="text_5">
      <!-- 20 -->
      <g transform="translate(933.545876 823.196875)scale(0.18 -0.18)">
       <defs>
        <path d="M 1228 531 
L 3431 531 
L 3431 0 
L 469 0 
L 469 531 
Q 828 903 1448 1529 
Q 2069 2156 2228 2338 
Q 2531 2678 2651 2914 
Q 2772 3150 2772 3378 
Q 2772 3750 2511 3984 
Q 2250 4219 1831 4219 
Q 1534 4219 1204 4116 
Q 875 4013 500 3803 
L 500 4441 
Q 881 4594 1212 4672 
Q 1544 4750 1819 4750 
Q 2544 4750 2975 4387 
Q 3406 4025 3406 3419 
Q 3406 3131 3298 2873 
Q 3191 2616 2906 2266 
Q 2828 2175 2409 1742 
Q 1991 1309 1228 531 
z
" id="DejaVuSans-32" transform="scale(0.015625)"/>
       </defs>
       <use xlink:href="#DejaVuSans-32"/>
       <use x="63.623047" xlink:href="#DejaVuSans-30"/>
      </g>
     </g>
    </g>
    <g id="xtick_6">
     <g id="line2d_6">
      <g>
       <use style="stroke:#000000;stroke-width:0.8;" x="1142.354121" xlink:href="#m15dfb04122" y="802.519687"/>
      </g>
     </g>
     <g id="text_6">
      <!-- 25 -->
      <g transform="translate(1130.901621 823.196875)scale(0.18 -0.18)">
       <use xlink:href="#DejaVuSans-32"/>
       <use x="63.623047" xlink:href="#DejaVuSans-35"/>
      </g>
     </g>
    </g>
    <g id="xtick_7">
     <g id="line2d_7">
      <g>
       <use style="stroke:#000000;stroke-width:0.8;" x="1339.709866" xlink:href="#m15dfb04122" y="802.519687"/>
      </g>
     </g>
     <g id="text_7">
      <!-- 30 -->
      <g transform="translate(1328.257366 823.196875)scale(0.18 -0.18)">
       <defs>
        <path d="M 2597 2516 
Q 3050 2419 3304 2112 
Q 3559 1806 3559 1356 
Q 3559 666 3084 287 
Q 2609 -91 1734 -91 
Q 1441 -91 1130 -33 
Q 819 25 488 141 
L 488 750 
Q 750 597 1062 519 
Q 1375 441 1716 441 
Q 2309 441 2620 675 
Q 2931 909 2931 1356 
Q 2931 1769 2642 2001 
Q 2353 2234 1838 2234 
L 1294 2234 
L 1294 2753 
L 1863 2753 
Q 2328 2753 2575 2939 
Q 2822 3125 2822 3475 
Q 2822 3834 2567 4026 
Q 2313 4219 1838 4219 
Q 1578 4219 1281 4162 
Q 984 4106 628 3988 
L 628 4550 
Q 988 4650 1302 4700 
Q 1616 4750 1894 4750 
Q 2613 4750 3031 4423 
Q 3450 4097 3450 3541 
Q 3450 3153 3228 2886 
Q 3006 2619 2597 2516 
z
" id="DejaVuSans-33" transform="scale(0.015625)"/>
       </defs>
       <use xlink:href="#DejaVuSans-33"/>
       <use x="63.623047" xlink:href="#DejaVuSans-30"/>
      </g>
     </g>
    </g>
    <g id="text_8">
     <!-- x -->
     <g transform="translate(755.588594 848.416719)scale(0.23 -0.23)">
      <defs>
       <path d="M 3513 3500 
L 2247 1797 
L 3578 0 
L 2900 0 
L 1881 1375 
L 863 0 
L 184 0 
L 1544 1831 
L 300 3500 
L 978 3500 
L 1906 2253 
L 2834 3500 
L 3513 3500 
z
" id="DejaVuSans-78" transform="scale(0.015625)"/>
      </defs>
      <use xlink:href="#DejaVuSans-78"/>
     </g>
    </g>
   </g>
   <g id="matplotlib.axis_2">
    <g id="ytick_1">
     <g id="line2d_8">
      <defs>
       <path d="M 0 0 
L -3.5 0 
" id="m5d4fe7ad43" style="stroke:#000000;stroke-width:0.8;"/>
      </defs>
      <g>
       <use style="stroke:#000000;stroke-width:0.8;" x="95.590313" xlink:href="#m5d4fe7ad43" y="802.519687"/>
      </g>
     </g>
     <g id="text_9">
      <!-- 0.000 -->
      <g transform="translate(37.059688 809.358281)scale(0.18 -0.18)">
       <defs>
        <path d="M 684 794 
L 1344 794 
L 1344 0 
L 684 0 
L 684 794 
z
" id="DejaVuSans-2e" transform="scale(0.015625)"/>
       </defs>
       <use xlink:href="#DejaVuSans-30"/>
       <use x="63.623047" xlink:href="#DejaVuSans-2e"/>
       <use x="95.410156" xlink:href="#DejaVuSans-30"/>
       <use x="159.033203" xlink:href="#DejaVuSans-30"/>
       <use x="222.65625" xlink:href="#DejaVuSans-30"/>
      </g>
     </g>
    </g>
    <g id="ytick_2">
     <g id="line2d_9">
      <g>
       <use style="stroke:#000000;stroke-width:0.8;" x="95.590313" xlink:href="#m5d4fe7ad43" y="707.361145"/>
      </g>
     </g>
     <g id="text_10">
      <!-- 0.025 -->
      <g transform="translate(37.059688 714.199739)scale(0.18 -0.18)">
       <use xlink:href="#DejaVuSans-30"/>
       <use x="63.623047" xlink:href="#DejaVuSans-2e"/>
       <use x="95.410156" xlink:href="#DejaVuSans-30"/>
       <use x="159.033203" xlink:href="#DejaVuSans-32"/>
       <use x="222.65625" xlink:href="#DejaVuSans-35"/>
      </g>
     </g>
    </g>
    <g id="ytick_3">
     <g id="line2d_10">
      <g>
       <use style="stroke:#000000;stroke-width:0.8;" x="95.590313" xlink:href="#m5d4fe7ad43" y="612.202603"/>
      </g>
     </g>
     <g id="text_11">
      <!-- 0.050 -->
      <g transform="translate(37.059688 619.041197)scale(0.18 -0.18)">
       <use xlink:href="#DejaVuSans-30"/>
       <use x="63.623047" xlink:href="#DejaVuSans-2e"/>
       <use x="95.410156" xlink:href="#DejaVuSans-30"/>
       <use x="159.033203" xlink:href="#DejaVuSans-35"/>
       <use x="222.65625" xlink:href="#DejaVuSans-30"/>
      </g>
     </g>
    </g>
    <g id="ytick_4">
     <g id="line2d_11">
      <g>
       <use style="stroke:#000000;stroke-width:0.8;" x="95.590313" xlink:href="#m5d4fe7ad43" y="517.044061"/>
      </g>
     </g>
     <g id="text_12">
      <!-- 0.075 -->
      <g transform="translate(37.059688 523.882655)scale(0.18 -0.18)">
       <defs>
        <path d="M 525 4666 
L 3525 4666 
L 3525 4397 
L 1831 0 
L 1172 0 
L 2766 4134 
L 525 4134 
L 525 4666 
z
" id="DejaVuSans-37" transform="scale(0.015625)"/>
       </defs>
       <use xlink:href="#DejaVuSans-30"/>
       <use x="63.623047" xlink:href="#DejaVuSans-2e"/>
       <use x="95.410156" xlink:href="#DejaVuSans-30"/>
       <use x="159.033203" xlink:href="#DejaVuSans-37"/>
       <use x="222.65625" xlink:href="#DejaVuSans-35"/>
      </g>
     </g>
    </g>
    <g id="ytick_5">
     <g id="line2d_12">
      <g>
       <use style="stroke:#000000;stroke-width:0.8;" x="95.590313" xlink:href="#m5d4fe7ad43" y="421.885519"/>
      </g>
     </g>
     <g id="text_13">
      <!-- 0.100 -->
      <g transform="translate(37.059688 428.724112)scale(0.18 -0.18)">
       <use xlink:href="#DejaVuSans-30"/>
       <use x="63.623047" xlink:href="#DejaVuSans-2e"/>
       <use x="95.410156" xlink:href="#DejaVuSans-31"/>
       <use x="159.033203" xlink:href="#DejaVuSans-30"/>
       <use x="222.65625" xlink:href="#DejaVuSans-30"/>
      </g>
     </g>
    </g>
    <g id="ytick_6">
     <g id="line2d_13">
      <g>
       <use style="stroke:#000000;stroke-width:0.8;" x="95.590313" xlink:href="#m5d4fe7ad43" y="326.726976"/>
      </g>
     </g>
     <g id="text_14">
      <!-- 0.125 -->
      <g transform="translate(37.059688 333.56557)scale(0.18 -0.18)">
       <use xlink:href="#DejaVuSans-30"/>
       <use x="63.623047" xlink:href="#DejaVuSans-2e"/>
       <use x="95.410156" xlink:href="#DejaVuSans-31"/>
       <use x="159.033203" xlink:href="#DejaVuSans-32"/>
       <use x="222.65625" xlink:href="#DejaVuSans-35"/>
      </g>
     </g>
    </g>
    <g id="ytick_7">
     <g id="line2d_14">
      <g>
       <use style="stroke:#000000;stroke-width:0.8;" x="95.590313" xlink:href="#m5d4fe7ad43" y="231.568434"/>
      </g>
     </g>
     <g id="text_15">
      <!-- 0.150 -->
      <g transform="translate(37.059688 238.407028)scale(0.18 -0.18)">
       <use xlink:href="#DejaVuSans-30"/>
       <use x="63.623047" xlink:href="#DejaVuSans-2e"/>
       <use x="95.410156" xlink:href="#DejaVuSans-31"/>
       <use x="159.033203" xlink:href="#DejaVuSans-35"/>
       <use x="222.65625" xlink:href="#DejaVuSans-30"/>
      </g>
     </g>
    </g>
    <g id="ytick_8">
     <g id="line2d_15">
      <g>
       <use style="stroke:#000000;stroke-width:0.8;" x="95.590313" xlink:href="#m5d4fe7ad43" y="136.409892"/>
      </g>
     </g>
     <g id="text_16">
      <!-- 0.175 -->
      <g transform="translate(37.059688 143.248486)scale(0.18 -0.18)">
       <use xlink:href="#DejaVuSans-30"/>
       <use x="63.623047" xlink:href="#DejaVuSans-2e"/>
       <use x="95.410156" xlink:href="#DejaVuSans-31"/>
       <use x="159.033203" xlink:href="#DejaVuSans-37"/>
       <use x="222.65625" xlink:href="#DejaVuSans-35"/>
      </g>
     </g>
    </g>
    <g id="text_17">
     <!-- Normed Hist Counts -->
     <g transform="translate(28.276406 551.513656)rotate(-90)scale(0.23 -0.23)">
      <defs>
       <path d="M 628 4666 
L 1478 4666 
L 3547 763 
L 3547 4666 
L 4159 4666 
L 4159 0 
L 3309 0 
L 1241 3903 
L 1241 0 
L 628 0 
L 628 4666 
z
" id="DejaVuSans-4e" transform="scale(0.015625)"/>
       <path d="M 1959 3097 
Q 1497 3097 1228 2736 
Q 959 2375 959 1747 
Q 959 1119 1226 758 
Q 1494 397 1959 397 
Q 2419 397 2687 759 
Q 2956 1122 2956 1747 
Q 2956 2369 2687 2733 
Q 2419 3097 1959 3097 
z
M 1959 3584 
Q 2709 3584 3137 3096 
Q 3566 2609 3566 1747 
Q 3566 888 3137 398 
Q 2709 -91 1959 -91 
Q 1206 -91 779 398 
Q 353 888 353 1747 
Q 353 2609 779 3096 
Q 1206 3584 1959 3584 
z
" id="DejaVuSans-6f" transform="scale(0.015625)"/>
       <path d="M 2631 2963 
Q 2534 3019 2420 3045 
Q 2306 3072 2169 3072 
Q 1681 3072 1420 2755 
Q 1159 2438 1159 1844 
L 1159 0 
L 581 0 
L 581 3500 
L 1159 3500 
L 1159 2956 
Q 1341 3275 1631 3429 
Q 1922 3584 2338 3584 
Q 2397 3584 2469 3576 
Q 2541 3569 2628 3553 
L 2631 2963 
z
" id="DejaVuSans-72" transform="scale(0.015625)"/>
       <path d="M 3328 2828 
Q 3544 3216 3844 3400 
Q 4144 3584 4550 3584 
Q 5097 3584 5394 3201 
Q 5691 2819 5691 2113 
L 5691 0 
L 5113 0 
L 5113 2094 
Q 5113 2597 4934 2840 
Q 4756 3084 4391 3084 
Q 3944 3084 3684 2787 
Q 3425 2491 3425 1978 
L 3425 0 
L 2847 0 
L 2847 2094 
Q 2847 2600 2669 2842 
Q 2491 3084 2119 3084 
Q 1678 3084 1418 2786 
Q 1159 2488 1159 1978 
L 1159 0 
L 581 0 
L 581 3500 
L 1159 3500 
L 1159 2956 
Q 1356 3278 1631 3431 
Q 1906 3584 2284 3584 
Q 2666 3584 2933 3390 
Q 3200 3197 3328 2828 
z
" id="DejaVuSans-6d" transform="scale(0.015625)"/>
       <path d="M 3597 1894 
L 3597 1613 
L 953 1613 
Q 991 1019 1311 708 
Q 1631 397 2203 397 
Q 2534 397 2845 478 
Q 3156 559 3463 722 
L 3463 178 
Q 3153 47 2828 -22 
Q 2503 -91 2169 -91 
Q 1331 -91 842 396 
Q 353 884 353 1716 
Q 353 2575 817 3079 
Q 1281 3584 2069 3584 
Q 2775 3584 3186 3129 
Q 3597 2675 3597 1894 
z
M 3022 2063 
Q 3016 2534 2758 2815 
Q 2500 3097 2075 3097 
Q 1594 3097 1305 2825 
Q 1016 2553 972 2059 
L 3022 2063 
z
" id="DejaVuSans-65" transform="scale(0.015625)"/>
       <path d="M 2906 2969 
L 2906 4863 
L 3481 4863 
L 3481 0 
L 2906 0 
L 2906 525 
Q 2725 213 2448 61 
Q 2172 -91 1784 -91 
Q 1150 -91 751 415 
Q 353 922 353 1747 
Q 353 2572 751 3078 
Q 1150 3584 1784 3584 
Q 2172 3584 2448 3432 
Q 2725 3281 2906 2969 
z
M 947 1747 
Q 947 1113 1208 752 
Q 1469 391 1925 391 
Q 2381 391 2643 752 
Q 2906 1113 2906 1747 
Q 2906 2381 2643 2742 
Q 2381 3103 1925 3103 
Q 1469 3103 1208 2742 
Q 947 2381 947 1747 
z
" id="DejaVuSans-64" transform="scale(0.015625)"/>
       <path id="DejaVuSans-20" transform="scale(0.015625)"/>
       <path d="M 628 4666 
L 1259 4666 
L 1259 2753 
L 3553 2753 
L 3553 4666 
L 4184 4666 
L 4184 0 
L 3553 0 
L 3553 2222 
L 1259 2222 
L 1259 0 
L 628 0 
L 628 4666 
z
" id="DejaVuSans-48" transform="scale(0.015625)"/>
       <path d="M 603 3500 
L 1178 3500 
L 1178 0 
L 603 0 
L 603 3500 
z
M 603 4863 
L 1178 4863 
L 1178 4134 
L 603 4134 
L 603 4863 
z
" id="DejaVuSans-69" transform="scale(0.015625)"/>
       <path d="M 2834 3397 
L 2834 2853 
Q 2591 2978 2328 3040 
Q 2066 3103 1784 3103 
Q 1356 3103 1142 2972 
Q 928 2841 928 2578 
Q 928 2378 1081 2264 
Q 1234 2150 1697 2047 
L 1894 2003 
Q 2506 1872 2764 1633 
Q 3022 1394 3022 966 
Q 3022 478 2636 193 
Q 2250 -91 1575 -91 
Q 1294 -91 989 -36 
Q 684 19 347 128 
L 347 722 
Q 666 556 975 473 
Q 1284 391 1588 391 
Q 1994 391 2212 530 
Q 2431 669 2431 922 
Q 2431 1156 2273 1281 
Q 2116 1406 1581 1522 
L 1381 1569 
Q 847 1681 609 1914 
Q 372 2147 372 2553 
Q 372 3047 722 3315 
Q 1072 3584 1716 3584 
Q 2034 3584 2315 3537 
Q 2597 3491 2834 3397 
z
" id="DejaVuSans-73" transform="scale(0.015625)"/>
       <path d="M 1172 4494 
L 1172 3500 
L 2356 3500 
L 2356 3053 
L 1172 3053 
L 1172 1153 
Q 1172 725 1289 603 
Q 1406 481 1766 481 
L 2356 481 
L 2356 0 
L 1766 0 
Q 1100 0 847 248 
Q 594 497 594 1153 
L 594 3053 
L 172 3053 
L 172 3500 
L 594 3500 
L 594 4494 
L 1172 4494 
z
" id="DejaVuSans-74" transform="scale(0.015625)"/>
       <path d="M 4122 4306 
L 4122 3641 
Q 3803 3938 3442 4084 
Q 3081 4231 2675 4231 
Q 1875 4231 1450 3742 
Q 1025 3253 1025 2328 
Q 1025 1406 1450 917 
Q 1875 428 2675 428 
Q 3081 428 3442 575 
Q 3803 722 4122 1019 
L 4122 359 
Q 3791 134 3420 21 
Q 3050 -91 2638 -91 
Q 1578 -91 968 557 
Q 359 1206 359 2328 
Q 359 3453 968 4101 
Q 1578 4750 2638 4750 
Q 3056 4750 3426 4639 
Q 3797 4528 4122 4306 
z
" id="DejaVuSans-43" transform="scale(0.015625)"/>
       <path d="M 544 1381 
L 544 3500 
L 1119 3500 
L 1119 1403 
Q 1119 906 1312 657 
Q 1506 409 1894 409 
Q 2359 409 2629 706 
Q 2900 1003 2900 1516 
L 2900 3500 
L 3475 3500 
L 3475 0 
L 2900 0 
L 2900 538 
Q 2691 219 2414 64 
Q 2138 -91 1772 -91 
Q 1169 -91 856 284 
Q 544 659 544 1381 
z
M 1991 3584 
L 1991 3584 
z
" id="DejaVuSans-75" transform="scale(0.015625)"/>
       <path d="M 3513 2113 
L 3513 0 
L 2938 0 
L 2938 2094 
Q 2938 2591 2744 2837 
Q 2550 3084 2163 3084 
Q 1697 3084 1428 2787 
Q 1159 2491 1159 1978 
L 1159 0 
L 581 0 
L 581 3500 
L 1159 3500 
L 1159 2956 
Q 1366 3272 1645 3428 
Q 1925 3584 2291 3584 
Q 2894 3584 3203 3211 
Q 3513 2838 3513 2113 
z
" id="DejaVuSans-6e" transform="scale(0.015625)"/>
      </defs>
      <use xlink:href="#DejaVuSans-4e"/>
      <use x="74.804688" xlink:href="#DejaVuSans-6f"/>
      <use x="135.986328" xlink:href="#DejaVuSans-72"/>
      <use x="175.349609" xlink:href="#DejaVuSans-6d"/>
      <use x="272.761719" xlink:href="#DejaVuSans-65"/>
      <use x="334.285156" xlink:href="#DejaVuSans-64"/>
      <use x="397.761719" xlink:href="#DejaVuSans-20"/>
      <use x="429.548828" xlink:href="#DejaVuSans-48"/>
      <use x="504.744141" xlink:href="#DejaVuSans-69"/>
      <use x="532.527344" xlink:href="#DejaVuSans-73"/>
      <use x="584.626953" xlink:href="#DejaVuSans-74"/>
      <use x="623.835938" xlink:href="#DejaVuSans-20"/>
      <use x="655.623047" xlink:href="#DejaVuSans-43"/>
      <use x="725.447266" xlink:href="#DejaVuSans-6f"/>
      <use x="786.628906" xlink:href="#DejaVuSans-75"/>
      <use x="850.007812" xlink:href="#DejaVuSans-6e"/>
      <use x="913.386719" xlink:href="#DejaVuSans-74"/>
      <use x="952.595703" xlink:href="#DejaVuSans-73"/>
     </g>
    </g>
   </g>
   <g id="LineCollection_1">
    <path clip-path="url(#p0f791b6c8c)" d="M 234.495237 802.519687 
L 234.495237 104.338557 
" style="fill:none;stroke:#cd5c5c;stroke-dasharray:5.55,2.4;stroke-dashoffset:0;stroke-width:1.5;"/>
   </g>
   <g id="line2d_16">
    <path clip-path="url(#p0f791b6c8c)" d="M 167.33327 558.38036 
L 170.172839 510.094221 
L 172.991831 465.889738 
L 175.769669 425.756788 
L 178.526931 389.093443 
L 181.24304 355.894906 
L 183.917996 325.873621 
L 186.551799 298.766152 
L 189.144448 274.330834 
L 191.695944 252.345752 
L 194.206288 232.606974 
L 196.675478 214.926987 
L 199.082938 199.260739 
L 201.449245 185.297834 
L 203.753822 172.99879 
L 206.017246 162.106075 
L 208.218941 152.583986 
L 210.358905 144.294998 
L 212.43714 137.113998 
L 214.453645 130.927142 
L 216.40842 125.630825 
L 218.301466 121.130754 
L 220.132782 117.341103 
L 221.881792 114.217691 
L 223.569071 111.645068 
L 225.194621 109.559663 
L 226.758442 107.903617 
L 228.281109 106.608812 
L 229.742046 105.650441 
L 231.182407 104.968102 
L 232.602191 104.541682 
L 234.001399 104.352226 
L 235.421183 104.385975 
L 236.861544 104.644584 
L 238.343058 105.137761 
L 239.886302 105.887206 
L 241.511852 106.926405 
L 243.240285 108.300622 
L 245.0716 110.045729 
L 247.026376 112.220734 
L 249.125187 114.896092 
L 251.368035 118.122125 
L 253.796072 122.01543 
L 256.409298 126.639626 
L 259.207713 132.053005 
L 262.253047 138.441505 
L 265.5453 145.877735 
L 269.125626 154.525156 
L 273.055753 164.611709 
L 277.397412 176.3811 
L 282.274062 190.26259 
L 287.82974 206.769549 
L 294.39367 226.996879 
L 302.727186 253.439451 
L 317.562902 301.409008 
L 331.431519 345.937031 
L 340.87617 375.516732 
L 349.12738 400.640571 
L 356.740716 423.118986 
L 363.921943 443.637476 
L 370.815098 462.66644 
L 377.481911 480.42295 
L 383.963535 497.059343 
L 390.301122 512.719363 
L 396.51525 527.488135 
L 402.647072 541.492602 
L 408.696587 554.75881 
L 414.684373 567.357089 
L 420.610429 579.311315 
L 426.495332 590.685266 
L 432.339081 601.499385 
L 438.162254 611.810302 
L 443.96485 621.634607 
L 449.74687 630.989283 
L 455.52889 639.922592 
L 461.290333 648.417913 
L 467.072353 656.54915 
L 472.854373 664.298661 
L 478.656969 671.705555 
L 484.480142 678.77958 
L 490.323892 685.530682 
L 496.208794 691.990963 
L 502.13485 698.16724 
L 508.102059 704.066622 
L 514.130998 709.715221 
L 520.221667 715.117572 
L 526.374065 720.278601 
L 532.60877 725.219425 
L 538.92578 729.942926 
L 545.345674 734.466539 
L 551.868451 738.791567 
L 558.514687 742.932339 
L 565.30496 746.900645 
L 572.239268 750.695104 
L 579.338189 754.325362 
L 586.601723 757.78964 
L 594.050446 761.095915 
L 601.725511 764.258683 
L 609.626919 767.273468 
L 617.775246 770.144069 
L 626.211645 772.879697 
L 634.956693 775.480782 
L 644.051542 777.952672 
L 653.51677 780.293685 
L 663.414107 782.511017 
L 673.784705 784.604683 
L 681.727266 786.063212 
L 681.727266 786.063212 
" style="fill:none;stroke:#1f77b4;stroke-linecap:square;stroke-width:2;"/>
   </g>
   <g id="patch_103">
    <path d="M 95.590313 802.519687 
L 95.590313 69.4295 
" style="fill:none;stroke:#000000;stroke-linecap:square;stroke-linejoin:miter;stroke-width:0.8;"/>
   </g>
   <g id="patch_104">
    <path d="M 1429.2 802.519687 
L 1429.2 69.4295 
" style="fill:none;stroke:#000000;stroke-linecap:square;stroke-linejoin:miter;stroke-width:0.8;"/>
   </g>
   <g id="patch_105">
    <path d="M 95.590313 802.519687 
L 1429.2 802.519687 
" style="fill:none;stroke:#000000;stroke-linecap:square;stroke-linejoin:miter;stroke-width:0.8;"/>
   </g>
   <g id="patch_106">
    <path d="M 95.590313 69.4295 
L 1429.2 69.4295 
" style="fill:none;stroke:#000000;stroke-linecap:square;stroke-linejoin:miter;stroke-width:0.8;"/>
   </g>
   <g id="patch_107">
    <path d="M 806.760548 261.612748 
Q 570.230787 18.731679 238.601331 103.289047 
" style="fill:none;stroke:#cd5c5c;stroke-linecap:round;stroke-width:2;"/>
    <path d="M 247.341593 105.188472 
L 238.601331 103.289047 
L 245.365029 97.436492 
L 247.341593 105.188472 
z
" style="fill:#ffffff;stroke:#cd5c5c;stroke-linecap:round;stroke-width:2;"/>
   </g>
   <g id="text_18">
    <g id="patch_108">
     <path d="M 705.63182 291.561964 
C 708.63182 294.561964 937.522445 294.561964 940.522445 291.561964 
C 943.522445 288.561964 943.522445 269.205714 940.522445 266.205714 
C 937.522445 263.205714 708.63182 263.205714 705.63182 266.205714 
C 702.63182 269.205714 702.63182 288.561964 705.63182 291.561964 
z
" style="fill:#ffffff;stroke:#cd5c5c;stroke-linejoin:miter;stroke-width:2;"/>
    </g>
    <!-- Measured Mode: 1.999 -->
    <g style="fill:#cd5c5c;" transform="translate(708.63182 284.402589)scale(0.2 -0.2)">
     <defs>
      <path d="M 628 4666 
L 1569 4666 
L 2759 1491 
L 3956 4666 
L 4897 4666 
L 4897 0 
L 4281 0 
L 4281 4097 
L 3078 897 
L 2444 897 
L 1241 4097 
L 1241 0 
L 628 0 
L 628 4666 
z
" id="DejaVuSans-4d" transform="scale(0.015625)"/>
      <path d="M 2194 1759 
Q 1497 1759 1228 1600 
Q 959 1441 959 1056 
Q 959 750 1161 570 
Q 1363 391 1709 391 
Q 2188 391 2477 730 
Q 2766 1069 2766 1631 
L 2766 1759 
L 2194 1759 
z
M 3341 1997 
L 3341 0 
L 2766 0 
L 2766 531 
Q 2569 213 2275 61 
Q 1981 -91 1556 -91 
Q 1019 -91 701 211 
Q 384 513 384 1019 
Q 384 1609 779 1909 
Q 1175 2209 1959 2209 
L 2766 2209 
L 2766 2266 
Q 2766 2663 2505 2880 
Q 2244 3097 1772 3097 
Q 1472 3097 1187 3025 
Q 903 2953 641 2809 
L 641 3341 
Q 956 3463 1253 3523 
Q 1550 3584 1831 3584 
Q 2591 3584 2966 3190 
Q 3341 2797 3341 1997 
z
" id="DejaVuSans-61" transform="scale(0.015625)"/>
      <path d="M 750 794 
L 1409 794 
L 1409 0 
L 750 0 
L 750 794 
z
M 750 3309 
L 1409 3309 
L 1409 2516 
L 750 2516 
L 750 3309 
z
" id="DejaVuSans-3a" transform="scale(0.015625)"/>
      <path d="M 703 97 
L 703 672 
Q 941 559 1184 500 
Q 1428 441 1663 441 
Q 2288 441 2617 861 
Q 2947 1281 2994 2138 
Q 2813 1869 2534 1725 
Q 2256 1581 1919 1581 
Q 1219 1581 811 2004 
Q 403 2428 403 3163 
Q 403 3881 828 4315 
Q 1253 4750 1959 4750 
Q 2769 4750 3195 4129 
Q 3622 3509 3622 2328 
Q 3622 1225 3098 567 
Q 2575 -91 1691 -91 
Q 1453 -91 1209 -44 
Q 966 3 703 97 
z
M 1959 2075 
Q 2384 2075 2632 2365 
Q 2881 2656 2881 3163 
Q 2881 3666 2632 3958 
Q 2384 4250 1959 4250 
Q 1534 4250 1286 3958 
Q 1038 3666 1038 3163 
Q 1038 2656 1286 2365 
Q 1534 2075 1959 2075 
z
" id="DejaVuSans-39" transform="scale(0.015625)"/>
     </defs>
     <use xlink:href="#DejaVuSans-4d"/>
     <use x="86.279297" xlink:href="#DejaVuSans-65"/>
     <use x="147.802734" xlink:href="#DejaVuSans-61"/>
     <use x="209.082031" xlink:href="#DejaVuSans-73"/>
     <use x="261.181641" xlink:href="#DejaVuSans-75"/>
     <use x="324.560547" xlink:href="#DejaVuSans-72"/>
     <use x="363.423828" xlink:href="#DejaVuSans-65"/>
     <use x="424.947266" xlink:href="#DejaVuSans-64"/>
     <use x="488.423828" xlink:href="#DejaVuSans-20"/>
     <use x="520.210938" xlink:href="#DejaVuSans-4d"/>
     <use x="606.490234" xlink:href="#DejaVuSans-6f"/>
     <use x="667.671875" xlink:href="#DejaVuSans-64"/>
     <use x="731.148438" xlink:href="#DejaVuSans-65"/>
     <use x="792.671875" xlink:href="#DejaVuSans-3a"/>
     <use x="826.363281" xlink:href="#DejaVuSans-20"/>
     <use x="858.150391" xlink:href="#DejaVuSans-31"/>
     <use x="921.773438" xlink:href="#DejaVuSans-2e"/>
     <use x="953.560547" xlink:href="#DejaVuSans-39"/>
     <use x="1017.183594" xlink:href="#DejaVuSans-39"/>
     <use x="1080.806641" xlink:href="#DejaVuSans-39"/>
    </g>
   </g>
   <g id="text_19">
    <!-- Best fit to distribution: -->
    <g transform="translate(605.188281 32.075625)scale(0.28 -0.28)">
     <defs>
      <path d="M 1259 2228 
L 1259 519 
L 2272 519 
Q 2781 519 3026 730 
Q 3272 941 3272 1375 
Q 3272 1813 3026 2020 
Q 2781 2228 2272 2228 
L 1259 2228 
z
M 1259 4147 
L 1259 2741 
L 2194 2741 
Q 2656 2741 2882 2914 
Q 3109 3088 3109 3444 
Q 3109 3797 2882 3972 
Q 2656 4147 2194 4147 
L 1259 4147 
z
M 628 4666 
L 2241 4666 
Q 2963 4666 3353 4366 
Q 3744 4066 3744 3513 
Q 3744 3084 3544 2831 
Q 3344 2578 2956 2516 
Q 3422 2416 3680 2098 
Q 3938 1781 3938 1306 
Q 3938 681 3513 340 
Q 3088 0 2303 0 
L 628 0 
L 628 4666 
z
" id="DejaVuSans-42" transform="scale(0.015625)"/>
      <path d="M 2375 4863 
L 2375 4384 
L 1825 4384 
Q 1516 4384 1395 4259 
Q 1275 4134 1275 3809 
L 1275 3500 
L 2222 3500 
L 2222 3053 
L 1275 3053 
L 1275 0 
L 697 0 
L 697 3053 
L 147 3053 
L 147 3500 
L 697 3500 
L 697 3744 
Q 697 4328 969 4595 
Q 1241 4863 1831 4863 
L 2375 4863 
z
" id="DejaVuSans-66" transform="scale(0.015625)"/>
      <path d="M 3116 1747 
Q 3116 2381 2855 2742 
Q 2594 3103 2138 3103 
Q 1681 3103 1420 2742 
Q 1159 2381 1159 1747 
Q 1159 1113 1420 752 
Q 1681 391 2138 391 
Q 2594 391 2855 752 
Q 3116 1113 3116 1747 
z
M 1159 2969 
Q 1341 3281 1617 3432 
Q 1894 3584 2278 3584 
Q 2916 3584 3314 3078 
Q 3713 2572 3713 1747 
Q 3713 922 3314 415 
Q 2916 -91 2278 -91 
Q 1894 -91 1617 61 
Q 1341 213 1159 525 
L 1159 0 
L 581 0 
L 581 4863 
L 1159 4863 
L 1159 2969 
z
" id="DejaVuSans-62" transform="scale(0.015625)"/>
     </defs>
     <use xlink:href="#DejaVuSans-42"/>
     <use x="68.603516" xlink:href="#DejaVuSans-65"/>
     <use x="130.126953" xlink:href="#DejaVuSans-73"/>
     <use x="182.226562" xlink:href="#DejaVuSans-74"/>
     <use x="221.435547" xlink:href="#DejaVuSans-20"/>
     <use x="253.222656" xlink:href="#DejaVuSans-66"/>
     <use x="288.427734" xlink:href="#DejaVuSans-69"/>
     <use x="316.210938" xlink:href="#DejaVuSans-74"/>
     <use x="355.419922" xlink:href="#DejaVuSans-20"/>
     <use x="387.207031" xlink:href="#DejaVuSans-74"/>
     <use x="426.416016" xlink:href="#DejaVuSans-6f"/>
     <use x="487.597656" xlink:href="#DejaVuSans-20"/>
     <use x="519.384766" xlink:href="#DejaVuSans-64"/>
     <use x="582.861328" xlink:href="#DejaVuSans-69"/>
     <use x="610.644531" xlink:href="#DejaVuSans-73"/>
     <use x="662.744141" xlink:href="#DejaVuSans-74"/>
     <use x="701.953125" xlink:href="#DejaVuSans-72"/>
     <use x="743.066406" xlink:href="#DejaVuSans-69"/>
     <use x="770.849609" xlink:href="#DejaVuSans-62"/>
     <use x="834.326172" xlink:href="#DejaVuSans-75"/>
     <use x="897.705078" xlink:href="#DejaVuSans-74"/>
     <use x="936.914062" xlink:href="#DejaVuSans-69"/>
     <use x="964.697266" xlink:href="#DejaVuSans-6f"/>
     <use x="1025.878906" xlink:href="#DejaVuSans-6e"/>
     <use x="1089.257812" xlink:href="#DejaVuSans-3a"/>
    </g>
    <!-- ChiSquared(df=3.99, loc=0.00, scale=1.01) -->
    <g transform="translate(454.211406 63.4295)scale(0.28 -0.28)">
     <defs>
      <path d="M 3513 2113 
L 3513 0 
L 2938 0 
L 2938 2094 
Q 2938 2591 2744 2837 
Q 2550 3084 2163 3084 
Q 1697 3084 1428 2787 
Q 1159 2491 1159 1978 
L 1159 0 
L 581 0 
L 581 4863 
L 1159 4863 
L 1159 2956 
Q 1366 3272 1645 3428 
Q 1925 3584 2291 3584 
Q 2894 3584 3203 3211 
Q 3513 2838 3513 2113 
z
" id="DejaVuSans-68" transform="scale(0.015625)"/>
      <path d="M 3425 4513 
L 3425 3897 
Q 3066 4069 2747 4153 
Q 2428 4238 2131 4238 
Q 1616 4238 1336 4038 
Q 1056 3838 1056 3469 
Q 1056 3159 1242 3001 
Q 1428 2844 1947 2747 
L 2328 2669 
Q 3034 2534 3370 2195 
Q 3706 1856 3706 1288 
Q 3706 609 3251 259 
Q 2797 -91 1919 -91 
Q 1588 -91 1214 -16 
Q 841 59 441 206 
L 441 856 
Q 825 641 1194 531 
Q 1563 422 1919 422 
Q 2459 422 2753 634 
Q 3047 847 3047 1241 
Q 3047 1584 2836 1778 
Q 2625 1972 2144 2069 
L 1759 2144 
Q 1053 2284 737 2584 
Q 422 2884 422 3419 
Q 422 4038 858 4394 
Q 1294 4750 2059 4750 
Q 2388 4750 2728 4690 
Q 3069 4631 3425 4513 
z
" id="DejaVuSans-53" transform="scale(0.015625)"/>
      <path d="M 947 1747 
Q 947 1113 1208 752 
Q 1469 391 1925 391 
Q 2381 391 2643 752 
Q 2906 1113 2906 1747 
Q 2906 2381 2643 2742 
Q 2381 3103 1925 3103 
Q 1469 3103 1208 2742 
Q 947 2381 947 1747 
z
M 2906 525 
Q 2725 213 2448 61 
Q 2172 -91 1784 -91 
Q 1150 -91 751 415 
Q 353 922 353 1747 
Q 353 2572 751 3078 
Q 1150 3584 1784 3584 
Q 2172 3584 2448 3432 
Q 2725 3281 2906 2969 
L 2906 3500 
L 3481 3500 
L 3481 -1331 
L 2906 -1331 
L 2906 525 
z
" id="DejaVuSans-71" transform="scale(0.015625)"/>
      <path d="M 1984 4856 
Q 1566 4138 1362 3434 
Q 1159 2731 1159 2009 
Q 1159 1288 1364 580 
Q 1569 -128 1984 -844 
L 1484 -844 
Q 1016 -109 783 600 
Q 550 1309 550 2009 
Q 550 2706 781 3412 
Q 1013 4119 1484 4856 
L 1984 4856 
z
" id="DejaVuSans-28" transform="scale(0.015625)"/>
      <path d="M 678 2906 
L 4684 2906 
L 4684 2381 
L 678 2381 
L 678 2906 
z
M 678 1631 
L 4684 1631 
L 4684 1100 
L 678 1100 
L 678 1631 
z
" id="DejaVuSans-3d" transform="scale(0.015625)"/>
      <path d="M 750 794 
L 1409 794 
L 1409 256 
L 897 -744 
L 494 -744 
L 750 256 
L 750 794 
z
" id="DejaVuSans-2c" transform="scale(0.015625)"/>
      <path d="M 603 4863 
L 1178 4863 
L 1178 0 
L 603 0 
L 603 4863 
z
" id="DejaVuSans-6c" transform="scale(0.015625)"/>
      <path d="M 3122 3366 
L 3122 2828 
Q 2878 2963 2633 3030 
Q 2388 3097 2138 3097 
Q 1578 3097 1268 2742 
Q 959 2388 959 1747 
Q 959 1106 1268 751 
Q 1578 397 2138 397 
Q 2388 397 2633 464 
Q 2878 531 3122 666 
L 3122 134 
Q 2881 22 2623 -34 
Q 2366 -91 2075 -91 
Q 1284 -91 818 406 
Q 353 903 353 1747 
Q 353 2603 823 3093 
Q 1294 3584 2113 3584 
Q 2378 3584 2631 3529 
Q 2884 3475 3122 3366 
z
" id="DejaVuSans-63" transform="scale(0.015625)"/>
      <path d="M 513 4856 
L 1013 4856 
Q 1481 4119 1714 3412 
Q 1947 2706 1947 2009 
Q 1947 1309 1714 600 
Q 1481 -109 1013 -844 
L 513 -844 
Q 928 -128 1133 580 
Q 1338 1288 1338 2009 
Q 1338 2731 1133 3434 
Q 928 4138 513 4856 
z
" id="DejaVuSans-29" transform="scale(0.015625)"/>
     </defs>
     <use xlink:href="#DejaVuSans-43"/>
     <use x="69.824219" xlink:href="#DejaVuSans-68"/>
     <use x="133.203125" xlink:href="#DejaVuSans-69"/>
     <use x="160.986328" xlink:href="#DejaVuSans-53"/>
     <use x="224.462891" xlink:href="#DejaVuSans-71"/>
     <use x="287.939453" xlink:href="#DejaVuSans-75"/>
     <use x="351.318359" xlink:href="#DejaVuSans-61"/>
     <use x="412.597656" xlink:href="#DejaVuSans-72"/>
     <use x="451.460938" xlink:href="#DejaVuSans-65"/>
     <use x="512.984375" xlink:href="#DejaVuSans-64"/>
     <use x="576.460938" xlink:href="#DejaVuSans-28"/>
     <use x="615.474609" xlink:href="#DejaVuSans-64"/>
     <use x="678.951172" xlink:href="#DejaVuSans-66"/>
     <use x="714.15625" xlink:href="#DejaVuSans-3d"/>
     <use x="797.945312" xlink:href="#DejaVuSans-33"/>
     <use x="861.568359" xlink:href="#DejaVuSans-2e"/>
     <use x="893.355469" xlink:href="#DejaVuSans-39"/>
     <use x="956.978516" xlink:href="#DejaVuSans-39"/>
     <use x="1020.601562" xlink:href="#DejaVuSans-2c"/>
     <use x="1052.388672" xlink:href="#DejaVuSans-20"/>
     <use x="1084.175781" xlink:href="#DejaVuSans-6c"/>
     <use x="1111.958984" xlink:href="#DejaVuSans-6f"/>
     <use x="1173.140625" xlink:href="#DejaVuSans-63"/>
     <use x="1228.121094" xlink:href="#DejaVuSans-3d"/>
     <use x="1311.910156" xlink:href="#DejaVuSans-30"/>
     <use x="1375.533203" xlink:href="#DejaVuSans-2e"/>
     <use x="1407.320312" xlink:href="#DejaVuSans-30"/>
     <use x="1470.943359" xlink:href="#DejaVuSans-30"/>
     <use x="1534.566406" xlink:href="#DejaVuSans-2c"/>
     <use x="1566.353516" xlink:href="#DejaVuSans-20"/>
     <use x="1598.140625" xlink:href="#DejaVuSans-73"/>
     <use x="1650.240234" xlink:href="#DejaVuSans-63"/>
     <use x="1705.220703" xlink:href="#DejaVuSans-61"/>
     <use x="1766.5" xlink:href="#DejaVuSans-6c"/>
     <use x="1794.283203" xlink:href="#DejaVuSans-65"/>
     <use x="1855.806641" xlink:href="#DejaVuSans-3d"/>
     <use x="1939.595703" xlink:href="#DejaVuSans-31"/>
     <use x="2003.21875" xlink:href="#DejaVuSans-2e"/>
     <use x="2035.005859" xlink:href="#DejaVuSans-30"/>
     <use x="2098.628906" xlink:href="#DejaVuSans-31"/>
     <use x="2162.251953" xlink:href="#DejaVuSans-29"/>
    </g>
   </g>
   <g id="legend_1">
    <g id="patch_109">
     <path d="M 923.41875 159.0845 
L 1412.4 159.0845 
Q 1417.2 159.0845 1417.2 154.2845 
L 1417.2 86.2295 
Q 1417.2 81.4295 1412.4 81.4295 
L 923.41875 81.4295 
Q 918.61875 81.4295 918.61875 86.2295 
L 918.61875 154.2845 
Q 918.61875 159.0845 923.41875 159.0845 
z
" style="fill:#ffffff;opacity:0.8;stroke:#cccccc;stroke-linejoin:miter;"/>
    </g>
    <g id="line2d_17">
     <path d="M 928.21875 100.86575 
L 976.21875 100.86575 
" style="fill:none;stroke:#1f77b4;stroke-linecap:square;stroke-width:2;"/>
    </g>
    <g id="line2d_18"/>
    <g id="text_20">
     <!-- ChiSquared fit PDF -->
     <g transform="translate(995.41875 109.26575)scale(0.24 -0.24)">
      <defs>
       <path d="M 1259 4147 
L 1259 2394 
L 2053 2394 
Q 2494 2394 2734 2622 
Q 2975 2850 2975 3272 
Q 2975 3691 2734 3919 
Q 2494 4147 2053 4147 
L 1259 4147 
z
M 628 4666 
L 2053 4666 
Q 2838 4666 3239 4311 
Q 3641 3956 3641 3272 
Q 3641 2581 3239 2228 
Q 2838 1875 2053 1875 
L 1259 1875 
L 1259 0 
L 628 0 
L 628 4666 
z
" id="DejaVuSans-50" transform="scale(0.015625)"/>
       <path d="M 1259 4147 
L 1259 519 
L 2022 519 
Q 2988 519 3436 956 
Q 3884 1394 3884 2338 
Q 3884 3275 3436 3711 
Q 2988 4147 2022 4147 
L 1259 4147 
z
M 628 4666 
L 1925 4666 
Q 3281 4666 3915 4102 
Q 4550 3538 4550 2338 
Q 4550 1131 3912 565 
Q 3275 0 1925 0 
L 628 0 
L 628 4666 
z
" id="DejaVuSans-44" transform="scale(0.015625)"/>
       <path d="M 628 4666 
L 3309 4666 
L 3309 4134 
L 1259 4134 
L 1259 2759 
L 3109 2759 
L 3109 2228 
L 1259 2228 
L 1259 0 
L 628 0 
L 628 4666 
z
" id="DejaVuSans-46" transform="scale(0.015625)"/>
      </defs>
      <use xlink:href="#DejaVuSans-43"/>
      <use x="69.824219" xlink:href="#DejaVuSans-68"/>
      <use x="133.203125" xlink:href="#DejaVuSans-69"/>
      <use x="160.986328" xlink:href="#DejaVuSans-53"/>
      <use x="224.462891" xlink:href="#DejaVuSans-71"/>
      <use x="287.939453" xlink:href="#DejaVuSans-75"/>
      <use x="351.318359" xlink:href="#DejaVuSans-61"/>
      <use x="412.597656" xlink:href="#DejaVuSans-72"/>
      <use x="451.460938" xlink:href="#DejaVuSans-65"/>
      <use x="512.984375" xlink:href="#DejaVuSans-64"/>
      <use x="576.460938" xlink:href="#DejaVuSans-20"/>
      <use x="608.248047" xlink:href="#DejaVuSans-66"/>
      <use x="643.453125" xlink:href="#DejaVuSans-69"/>
      <use x="671.236328" xlink:href="#DejaVuSans-74"/>
      <use x="710.445312" xlink:href="#DejaVuSans-20"/>
      <use x="742.232422" xlink:href="#DejaVuSans-50"/>
      <use x="802.535156" xlink:href="#DejaVuSans-44"/>
      <use x="879.537109" xlink:href="#DejaVuSans-46"/>
     </g>
    </g>
    <g id="patch_110">
     <path d="M 928.21875 144.49325 
L 976.21875 144.49325 
L 976.21875 127.69325 
L 928.21875 127.69325 
z
" style="fill:#ff7f0e;opacity:0.5;"/>
    </g>
    <g id="text_21">
     <!-- Generated (4 degrees of freedom) -->
     <g transform="translate(995.41875 144.49325)scale(0.24 -0.24)">
      <defs>
       <path d="M 3809 666 
L 3809 1919 
L 2778 1919 
L 2778 2438 
L 4434 2438 
L 4434 434 
Q 4069 175 3628 42 
Q 3188 -91 2688 -91 
Q 1594 -91 976 548 
Q 359 1188 359 2328 
Q 359 3472 976 4111 
Q 1594 4750 2688 4750 
Q 3144 4750 3555 4637 
Q 3966 4525 4313 4306 
L 4313 3634 
Q 3963 3931 3569 4081 
Q 3175 4231 2741 4231 
Q 1884 4231 1454 3753 
Q 1025 3275 1025 2328 
Q 1025 1384 1454 906 
Q 1884 428 2741 428 
Q 3075 428 3337 486 
Q 3600 544 3809 666 
z
" id="DejaVuSans-47" transform="scale(0.015625)"/>
       <path d="M 2419 4116 
L 825 1625 
L 2419 1625 
L 2419 4116 
z
M 2253 4666 
L 3047 4666 
L 3047 1625 
L 3713 1625 
L 3713 1100 
L 3047 1100 
L 3047 0 
L 2419 0 
L 2419 1100 
L 313 1100 
L 313 1709 
L 2253 4666 
z
" id="DejaVuSans-34" transform="scale(0.015625)"/>
       <path d="M 2906 1791 
Q 2906 2416 2648 2759 
Q 2391 3103 1925 3103 
Q 1463 3103 1205 2759 
Q 947 2416 947 1791 
Q 947 1169 1205 825 
Q 1463 481 1925 481 
Q 2391 481 2648 825 
Q 2906 1169 2906 1791 
z
M 3481 434 
Q 3481 -459 3084 -895 
Q 2688 -1331 1869 -1331 
Q 1566 -1331 1297 -1286 
Q 1028 -1241 775 -1147 
L 775 -588 
Q 1028 -725 1275 -790 
Q 1522 -856 1778 -856 
Q 2344 -856 2625 -561 
Q 2906 -266 2906 331 
L 2906 616 
Q 2728 306 2450 153 
Q 2172 0 1784 0 
Q 1141 0 747 490 
Q 353 981 353 1791 
Q 353 2603 747 3093 
Q 1141 3584 1784 3584 
Q 2172 3584 2450 3431 
Q 2728 3278 2906 2969 
L 2906 3500 
L 3481 3500 
L 3481 434 
z
" id="DejaVuSans-67" transform="scale(0.015625)"/>
      </defs>
      <use xlink:href="#DejaVuSans-47"/>
      <use x="77.490234" xlink:href="#DejaVuSans-65"/>
      <use x="139.013672" xlink:href="#DejaVuSans-6e"/>
      <use x="202.392578" xlink:href="#DejaVuSans-65"/>
      <use x="263.916016" xlink:href="#DejaVuSans-72"/>
      <use x="305.029297" xlink:href="#DejaVuSans-61"/>
      <use x="366.308594" xlink:href="#DejaVuSans-74"/>
      <use x="405.517578" xlink:href="#DejaVuSans-65"/>
      <use x="467.041016" xlink:href="#DejaVuSans-64"/>
      <use x="530.517578" xlink:href="#DejaVuSans-20"/>
      <use x="562.304688" xlink:href="#DejaVuSans-28"/>
      <use x="601.318359" xlink:href="#DejaVuSans-34"/>
      <use x="664.941406" xlink:href="#DejaVuSans-20"/>
      <use x="696.728516" xlink:href="#DejaVuSans-64"/>
      <use x="760.205078" xlink:href="#DejaVuSans-65"/>
      <use x="821.728516" xlink:href="#DejaVuSans-67"/>
      <use x="885.205078" xlink:href="#DejaVuSans-72"/>
      <use x="924.068359" xlink:href="#DejaVuSans-65"/>
      <use x="985.591797" xlink:href="#DejaVuSans-65"/>
      <use x="1047.115234" xlink:href="#DejaVuSans-73"/>
      <use x="1099.214844" xlink:href="#DejaVuSans-20"/>
      <use x="1131.001953" xlink:href="#DejaVuSans-6f"/>
      <use x="1192.183594" xlink:href="#DejaVuSans-66"/>
      <use x="1227.388672" xlink:href="#DejaVuSans-20"/>
      <use x="1259.175781" xlink:href="#DejaVuSans-66"/>
      <use x="1294.380859" xlink:href="#DejaVuSans-72"/>
      <use x="1333.244141" xlink:href="#DejaVuSans-65"/>
      <use x="1394.767578" xlink:href="#DejaVuSans-65"/>
      <use x="1456.291016" xlink:href="#DejaVuSans-64"/>
      <use x="1519.767578" xlink:href="#DejaVuSans-6f"/>
      <use x="1580.949219" xlink:href="#DejaVuSans-6d"/>
      <use x="1678.361328" xlink:href="#DejaVuSans-29"/>
     </g>
    </g>
   </g>
  </g>
 </g>
 <defs>
  <clipPath id="p0f791b6c8c">
   <rect height="733.090187" width="1333.609688" x="95.590313" y="69.4295"/>
  </clipPath>
 </defs>
</svg>
