<?xml version="1.0" encoding="utf-8" standalone="no"?>
<!DOCTYPE svg PUBLIC "-//W3C//DTD SVG 1.1//EN"
  "http://www.w3.org/Graphics/SVG/1.1/DTD/svg11.dtd">
<svg xmlns:xlink="http://www.w3.org/1999/xlink" width="1440pt" height="864pt" viewBox="0 0 1440 864" xmlns="http://www.w3.org/2000/svg" version="1.1">
 <metadata>
  <rdf:RDF xmlns:dc="http://purl.org/dc/elements/1.1/" xmlns:cc="http://creativecommons.org/ns#" xmlns:rdf="http://www.w3.org/1999/02/22-rdf-syntax-ns#">
   <cc:Work>
    <dc:type rdf:resource="http://purl.org/dc/dcmitype/StillImage"/>
    <dc:date>2022-03-09T18:12:50.997437</dc:date>
    <dc:format>image/svg+xml</dc:format>
    <dc:creator>
     <cc:Agent>
      <dc:title>Matplotlib v3.5.1, https://matplotlib.org/</dc:title>
     </cc:Agent>
    </dc:creator>
   </cc:Work>
  </rdf:RDF>
 </metadata>
 <defs>
  <style type="text/css">*{stroke-linejoin: round; stroke-linecap: butt}</style>
 </defs>
 <g id="figure_1">
  <g id="patch_1">
   <path d="M 0 864 
L 1440 864 
L 1440 0 
L 0 0 
z
" style="fill: #ffffff"/>
  </g>
  <g id="axes_1">
   <g id="patch_2">
    <path d="M 72.685313 828.779375 
L 1429.2 828.779375 
L 1429.2 38.075625 
L 72.685313 38.075625 
z
" style="fill: #ffffff"/>
   </g>
   <g id="patch_3">
    <path d="M 134.345071 828.779375 
L 146.677023 828.779375 
L 146.677023 825.826233 
L 134.345071 825.826233 
z
" clip-path="url(#p30d3be381f)" style="fill: #1f77b4; opacity: 0.6"/>
   </g>
   <g id="patch_4">
    <path d="M 146.677023 828.779375 
L 159.008974 828.779375 
L 159.008974 827.794994 
L 146.677023 827.794994 
z
" clip-path="url(#p30d3be381f)" style="fill: #1f77b4; opacity: 0.6"/>
   </g>
   <g id="patch_5">
    <path d="M 159.008974 828.779375 
L 171.340926 828.779375 
L 171.340926 823.365281 
L 159.008974 823.365281 
z
" clip-path="url(#p30d3be381f)" style="fill: #1f77b4; opacity: 0.6"/>
   </g>
   <g id="patch_6">
    <path d="M 171.340926 828.779375 
L 183.672878 828.779375 
L 183.672878 822.380901 
L 171.340926 822.380901 
z
" clip-path="url(#p30d3be381f)" style="fill: #1f77b4; opacity: 0.6"/>
   </g>
   <g id="patch_7">
    <path d="M 183.672878 828.779375 
L 196.00483 828.779375 
L 196.00483 808.599572 
L 183.672878 808.599572 
z
" clip-path="url(#p30d3be381f)" style="fill: #1f77b4; opacity: 0.6"/>
   </g>
   <g id="patch_8">
    <path d="M 196.00483 828.779375 
L 208.336781 828.779375 
L 208.336781 797.771385 
L 196.00483 797.771385 
z
" clip-path="url(#p30d3be381f)" style="fill: #1f77b4; opacity: 0.6"/>
   </g>
   <g id="patch_9">
    <path d="M 208.336781 828.779375 
L 220.668733 828.779375 
L 220.668733 788.419769 
L 208.336781 788.419769 
z
" clip-path="url(#p30d3be381f)" style="fill: #1f77b4; opacity: 0.6"/>
   </g>
   <g id="patch_10">
    <path d="M 220.668733 828.779375 
L 233.000685 828.779375 
L 233.000685 769.716537 
L 220.668733 769.716537 
z
" clip-path="url(#p30d3be381f)" style="fill: #1f77b4; opacity: 0.6"/>
   </g>
   <g id="patch_11">
    <path d="M 233.000685 828.779375 
L 245.332636 828.779375 
L 245.332636 752.489875 
L 233.000685 752.489875 
z
" clip-path="url(#p30d3be381f)" style="fill: #1f77b4; opacity: 0.6"/>
   </g>
   <g id="patch_12">
    <path d="M 245.332636 828.779375 
L 257.664588 828.779375 
L 257.664588 727.388169 
L 245.332636 727.388169 
z
" clip-path="url(#p30d3be381f)" style="fill: #1f77b4; opacity: 0.6"/>
   </g>
   <g id="patch_13">
    <path d="M 257.664588 828.779375 
L 269.99654 828.779375 
L 269.99654 704.747414 
L 257.664588 704.747414 
z
" clip-path="url(#p30d3be381f)" style="fill: #1f77b4; opacity: 0.6"/>
   </g>
   <g id="patch_14">
    <path d="M 269.99654 828.779375 
L 282.328491 828.779375 
L 282.328491 692.934847 
L 269.99654 692.934847 
z
" clip-path="url(#p30d3be381f)" style="fill: #1f77b4; opacity: 0.6"/>
   </g>
   <g id="patch_15">
    <path d="M 282.328491 828.779375 
L 294.660443 828.779375 
L 294.660443 655.528382 
L 282.328491 655.528382 
z
" clip-path="url(#p30d3be381f)" style="fill: #1f77b4; opacity: 0.6"/>
   </g>
   <g id="patch_16">
    <path d="M 294.660443 828.779375 
L 306.992395 828.779375 
L 306.992395 635.840769 
L 294.660443 635.840769 
z
" clip-path="url(#p30d3be381f)" style="fill: #1f77b4; opacity: 0.6"/>
   </g>
   <g id="patch_17">
    <path d="M 306.992395 828.779375 
L 319.324347 828.779375 
L 319.324347 579.731073 
L 306.992395 579.731073 
z
" clip-path="url(#p30d3be381f)" style="fill: #1f77b4; opacity: 0.6"/>
   </g>
   <g id="patch_18">
    <path d="M 319.324347 828.779375 
L 331.656298 828.779375 
L 331.656298 554.137176 
L 319.324347 554.137176 
z
" clip-path="url(#p30d3be381f)" style="fill: #1f77b4; opacity: 0.6"/>
   </g>
   <g id="patch_19">
    <path d="M 331.656298 828.779375 
L 343.98825 828.779375 
L 343.98825 492.121196 
L 331.656298 492.121196 
z
" clip-path="url(#p30d3be381f)" style="fill: #1f77b4; opacity: 0.6"/>
   </g>
   <g id="patch_20">
    <path d="M 343.98825 828.779375 
L 356.320202 828.779375 
L 356.320202 453.730351 
L 343.98825 453.730351 
z
" clip-path="url(#p30d3be381f)" style="fill: #1f77b4; opacity: 0.6"/>
   </g>
   <g id="patch_21">
    <path d="M 356.320202 828.779375 
L 368.652153 828.779375 
L 368.652153 437.48807 
L 356.320202 437.48807 
z
" clip-path="url(#p30d3be381f)" style="fill: #1f77b4; opacity: 0.6"/>
   </g>
   <g id="patch_22">
    <path d="M 368.652153 828.779375 
L 380.984105 828.779375 
L 380.984105 386.300277 
L 368.652153 386.300277 
z
" clip-path="url(#p30d3be381f)" style="fill: #1f77b4; opacity: 0.6"/>
   </g>
   <g id="patch_23">
    <path d="M 380.984105 828.779375 
L 393.316057 828.779375 
L 393.316057 339.050006 
L 380.984105 339.050006 
z
" clip-path="url(#p30d3be381f)" style="fill: #1f77b4; opacity: 0.6"/>
   </g>
   <g id="patch_24">
    <path d="M 393.316057 828.779375 
L 405.648009 828.779375 
L 405.648009 285.401261 
L 393.316057 285.401261 
z
" clip-path="url(#p30d3be381f)" style="fill: #1f77b4; opacity: 0.6"/>
   </g>
   <g id="patch_25">
    <path d="M 405.648009 828.779375 
L 417.97996 828.779375 
L 417.97996 306.565445 
L 405.648009 306.565445 
z
" clip-path="url(#p30d3be381f)" style="fill: #1f77b4; opacity: 0.6"/>
   </g>
   <g id="patch_26">
    <path d="M 417.97996 828.779375 
L 430.311912 828.779375 
L 430.311912 261.283935 
L 417.97996 261.283935 
z
" clip-path="url(#p30d3be381f)" style="fill: #1f77b4; opacity: 0.6"/>
   </g>
   <g id="patch_27">
    <path d="M 430.311912 828.779375 
L 442.643864 828.779375 
L 442.643864 219.939948 
L 430.311912 219.939948 
z
" clip-path="url(#p30d3be381f)" style="fill: #1f77b4; opacity: 0.6"/>
   </g>
   <g id="patch_28">
    <path d="M 442.643864 828.779375 
L 454.975815 828.779375 
L 454.975815 195.330432 
L 442.643864 195.330432 
z
" clip-path="url(#p30d3be381f)" style="fill: #1f77b4; opacity: 0.6"/>
   </g>
   <g id="patch_29">
    <path d="M 454.975815 828.779375 
L 467.307767 828.779375 
L 467.307767 143.158258 
L 454.975815 143.158258 
z
" clip-path="url(#p30d3be381f)" style="fill: #1f77b4; opacity: 0.6"/>
   </g>
   <g id="patch_30">
    <path d="M 467.307767 828.779375 
L 479.639719 828.779375 
L 479.639719 161.3693 
L 467.307767 161.3693 
z
" clip-path="url(#p30d3be381f)" style="fill: #1f77b4; opacity: 0.6"/>
   </g>
   <g id="patch_31">
    <path d="M 479.639719 828.779375 
L 491.97167 828.779375 
L 491.97167 116.579981 
L 479.639719 116.579981 
z
" clip-path="url(#p30d3be381f)" style="fill: #1f77b4; opacity: 0.6"/>
   </g>
   <g id="patch_32">
    <path d="M 491.97167 828.779375 
L 504.303622 828.779375 
L 504.303622 102.306462 
L 491.97167 102.306462 
z
" clip-path="url(#p30d3be381f)" style="fill: #1f77b4; opacity: 0.6"/>
   </g>
   <g id="patch_33">
    <path d="M 504.303622 828.779375 
L 516.635574 828.779375 
L 516.635574 104.275223 
L 504.303622 104.275223 
z
" clip-path="url(#p30d3be381f)" style="fill: #1f77b4; opacity: 0.6"/>
   </g>
   <g id="patch_34">
    <path d="M 516.635574 828.779375 
L 528.967526 828.779375 
L 528.967526 99.35332 
L 516.635574 99.35332 
z
" clip-path="url(#p30d3be381f)" style="fill: #1f77b4; opacity: 0.6"/>
   </g>
   <g id="patch_35">
    <path d="M 528.967526 828.779375 
L 541.299477 828.779375 
L 541.299477 104.767413 
L 528.967526 104.767413 
z
" clip-path="url(#p30d3be381f)" style="fill: #1f77b4; opacity: 0.6"/>
   </g>
   <g id="patch_36">
    <path d="M 541.299477 828.779375 
L 553.631429 828.779375 
L 553.631429 75.728185 
L 541.299477 75.728185 
z
" clip-path="url(#p30d3be381f)" style="fill: #1f77b4; opacity: 0.6"/>
   </g>
   <g id="patch_37">
    <path d="M 553.631429 828.779375 
L 565.963381 828.779375 
L 565.963381 146.1114 
L 553.631429 146.1114 
z
" clip-path="url(#p30d3be381f)" style="fill: #1f77b4; opacity: 0.6"/>
   </g>
   <g id="patch_38">
    <path d="M 565.963381 828.779375 
L 578.295332 828.779375 
L 578.295332 96.400178 
L 565.963381 96.400178 
z
" clip-path="url(#p30d3be381f)" style="fill: #1f77b4; opacity: 0.6"/>
   </g>
   <g id="patch_39">
    <path d="M 578.295332 828.779375 
L 590.627284 828.779375 
L 590.627284 131.345691 
L 578.295332 131.345691 
z
" clip-path="url(#p30d3be381f)" style="fill: #1f77b4; opacity: 0.6"/>
   </g>
   <g id="patch_40">
    <path d="M 590.627284 828.779375 
L 602.959236 828.779375 
L 602.959236 146.1114 
L 590.627284 146.1114 
z
" clip-path="url(#p30d3be381f)" style="fill: #1f77b4; opacity: 0.6"/>
   </g>
   <g id="patch_41">
    <path d="M 602.959236 828.779375 
L 615.291188 828.779375 
L 615.291188 186.471007 
L 602.959236 186.471007 
z
" clip-path="url(#p30d3be381f)" style="fill: #1f77b4; opacity: 0.6"/>
   </g>
   <g id="patch_42">
    <path d="M 615.291187 828.779375 
L 627.623139 828.779375 
L 627.623139 179.088152 
L 615.291187 179.088152 
z
" clip-path="url(#p30d3be381f)" style="fill: #1f77b4; opacity: 0.6"/>
   </g>
   <g id="patch_43">
    <path d="M 627.623139 828.779375 
L 639.955091 828.779375 
L 639.955091 184.010055 
L 627.623139 184.010055 
z
" clip-path="url(#p30d3be381f)" style="fill: #1f77b4; opacity: 0.6"/>
   </g>
   <g id="patch_44">
    <path d="M 639.955091 828.779375 
L 652.287043 828.779375 
L 652.287043 238.643181 
L 639.955091 238.643181 
z
" clip-path="url(#p30d3be381f)" style="fill: #1f77b4; opacity: 0.6"/>
   </g>
   <g id="patch_45">
    <path d="M 652.287043 828.779375 
L 664.618994 828.779375 
L 664.618994 277.526216 
L 652.287043 277.526216 
z
" clip-path="url(#p30d3be381f)" style="fill: #1f77b4; opacity: 0.6"/>
   </g>
   <g id="patch_46">
    <path d="M 664.618994 828.779375 
L 676.950946 828.779375 
L 676.950946 293.768497 
L 664.618994 293.768497 
z
" clip-path="url(#p30d3be381f)" style="fill: #1f77b4; opacity: 0.6"/>
   </g>
   <g id="patch_47">
    <path d="M 676.950946 828.779375 
L 689.282898 828.779375 
L 689.282898 307.057635 
L 676.950946 307.057635 
z
" clip-path="url(#p30d3be381f)" style="fill: #1f77b4; opacity: 0.6"/>
   </g>
   <g id="patch_48">
    <path d="M 689.282898 828.779375 
L 701.614849 828.779375 
L 701.614849 356.768858 
L 689.282898 356.768858 
z
" clip-path="url(#p30d3be381f)" style="fill: #1f77b4; opacity: 0.6"/>
   </g>
   <g id="patch_49">
    <path d="M 701.614849 828.779375 
L 713.946801 828.779375 
L 713.946801 355.784477 
L 701.614849 355.784477 
z
" clip-path="url(#p30d3be381f)" style="fill: #1f77b4; opacity: 0.6"/>
   </g>
   <g id="patch_50">
    <path d="M 713.946801 828.779375 
L 726.278753 828.779375 
L 726.278753 400.573796 
L 713.946801 400.573796 
z
" clip-path="url(#p30d3be381f)" style="fill: #1f77b4; opacity: 0.6"/>
   </g>
   <g id="patch_51">
    <path d="M 726.278753 828.779375 
L 738.610705 828.779375 
L 738.610705 450.285018 
L 726.278753 450.285018 
z
" clip-path="url(#p30d3be381f)" style="fill: #1f77b4; opacity: 0.6"/>
   </g>
   <g id="patch_52">
    <path d="M 738.610705 828.779375 
L 750.942656 828.779375 
L 750.942656 465.542918 
L 738.610705 465.542918 
z
" clip-path="url(#p30d3be381f)" style="fill: #1f77b4; opacity: 0.6"/>
   </g>
   <g id="patch_53">
    <path d="M 750.942656 828.779375 
L 763.274608 828.779375 
L 763.274608 464.066347 
L 750.942656 464.066347 
z
" clip-path="url(#p30d3be381f)" style="fill: #1f77b4; opacity: 0.6"/>
   </g>
   <g id="patch_54">
    <path d="M 763.274608 828.779375 
L 775.60656 828.779375 
L 775.60656 519.683854 
L 763.274608 519.683854 
z
" clip-path="url(#p30d3be381f)" style="fill: #1f77b4; opacity: 0.6"/>
   </g>
   <g id="patch_55">
    <path d="M 775.60656 828.779375 
L 787.938511 828.779375 
L 787.938511 536.418325 
L 775.60656 536.418325 
z
" clip-path="url(#p30d3be381f)" style="fill: #1f77b4; opacity: 0.6"/>
   </g>
   <g id="patch_56">
    <path d="M 787.938511 828.779375 
L 800.270463 828.779375 
L 800.270463 565.457553 
L 787.938511 565.457553 
z
" clip-path="url(#p30d3be381f)" style="fill: #1f77b4; opacity: 0.6"/>
   </g>
   <g id="patch_57">
    <path d="M 800.270463 828.779375 
L 812.602415 828.779375 
L 812.602415 580.223263 
L 800.270463 580.223263 
z
" clip-path="url(#p30d3be381f)" style="fill: #1f77b4; opacity: 0.6"/>
   </g>
   <g id="patch_58">
    <path d="M 812.602415 828.779375 
L 824.934366 828.779375 
L 824.934366 600.895257 
L 812.602415 600.895257 
z
" clip-path="url(#p30d3be381f)" style="fill: #1f77b4; opacity: 0.6"/>
   </g>
   <g id="patch_59">
    <path d="M 824.934366 828.779375 
L 837.266318 828.779375 
L 837.266318 628.457915 
L 824.934366 628.457915 
z
" clip-path="url(#p30d3be381f)" style="fill: #1f77b4; opacity: 0.6"/>
   </g>
   <g id="patch_60">
    <path d="M 837.266318 828.779375 
L 849.59827 828.779375 
L 849.59827 644.208005 
L 837.266318 644.208005 
z
" clip-path="url(#p30d3be381f)" style="fill: #1f77b4; opacity: 0.6"/>
   </g>
   <g id="patch_61">
    <path d="M 849.59827 828.779375 
L 861.930222 828.779375 
L 861.930222 659.958095 
L 849.59827 659.958095 
z
" clip-path="url(#p30d3be381f)" style="fill: #1f77b4; opacity: 0.6"/>
   </g>
   <g id="patch_62">
    <path d="M 861.930222 828.779375 
L 874.262173 828.779375 
L 874.262173 680.630089 
L 861.930222 680.630089 
z
" clip-path="url(#p30d3be381f)" style="fill: #1f77b4; opacity: 0.6"/>
   </g>
   <g id="patch_63">
    <path d="M 874.262173 828.779375 
L 886.594125 828.779375 
L 886.594125 695.887988 
L 874.262173 695.887988 
z
" clip-path="url(#p30d3be381f)" style="fill: #1f77b4; opacity: 0.6"/>
   </g>
   <g id="patch_64">
    <path d="M 886.594125 828.779375 
L 898.926077 828.779375 
L 898.926077 704.255224 
L 886.594125 704.255224 
z
" clip-path="url(#p30d3be381f)" style="fill: #1f77b4; opacity: 0.6"/>
   </g>
   <g id="patch_65">
    <path d="M 898.926077 828.779375 
L 911.258028 828.779375 
L 911.258028 719.513124 
L 898.926077 719.513124 
z
" clip-path="url(#p30d3be381f)" style="fill: #1f77b4; opacity: 0.6"/>
   </g>
   <g id="patch_66">
    <path d="M 911.258028 828.779375 
L 923.58998 828.779375 
L 923.58998 740.677308 
L 911.258028 740.677308 
z
" clip-path="url(#p30d3be381f)" style="fill: #1f77b4; opacity: 0.6"/>
   </g>
   <g id="patch_67">
    <path d="M 923.58998 828.779375 
L 935.921932 828.779375 
L 935.921932 746.091401 
L 923.58998 746.091401 
z
" clip-path="url(#p30d3be381f)" style="fill: #1f77b4; opacity: 0.6"/>
   </g>
   <g id="patch_68">
    <path d="M 935.921932 828.779375 
L 948.253884 828.779375 
L 948.253884 762.825872 
L 935.921932 762.825872 
z
" clip-path="url(#p30d3be381f)" style="fill: #1f77b4; opacity: 0.6"/>
   </g>
   <g id="patch_69">
    <path d="M 948.253884 828.779375 
L 960.585835 828.779375 
L 960.585835 760.857111 
L 948.253884 760.857111 
z
" clip-path="url(#p30d3be381f)" style="fill: #1f77b4; opacity: 0.6"/>
   </g>
   <g id="patch_70">
    <path d="M 960.585835 828.779375 
L 972.917787 828.779375 
L 972.917787 779.068153 
L 960.585835 779.068153 
z
" clip-path="url(#p30d3be381f)" style="fill: #1f77b4; opacity: 0.6"/>
   </g>
   <g id="patch_71">
    <path d="M 972.917787 828.779375 
L 985.249739 828.779375 
L 985.249739 783.497866 
L 972.917787 783.497866 
z
" clip-path="url(#p30d3be381f)" style="fill: #1f77b4; opacity: 0.6"/>
   </g>
   <g id="patch_72">
    <path d="M 985.249739 828.779375 
L 997.58169 828.779375 
L 997.58169 788.419769 
L 985.249739 788.419769 
z
" clip-path="url(#p30d3be381f)" style="fill: #1f77b4; opacity: 0.6"/>
   </g>
   <g id="patch_73">
    <path d="M 997.58169 828.779375 
L 1009.913642 828.779375 
L 1009.913642 804.169859 
L 997.58169 804.169859 
z
" clip-path="url(#p30d3be381f)" style="fill: #1f77b4; opacity: 0.6"/>
   </g>
   <g id="patch_74">
    <path d="M 1009.913642 828.779375 
L 1022.245594 828.779375 
L 1022.245594 802.693288 
L 1009.913642 802.693288 
z
" clip-path="url(#p30d3be381f)" style="fill: #1f77b4; opacity: 0.6"/>
   </g>
   <g id="patch_75">
    <path d="M 1022.245594 828.779375 
L 1034.577545 828.779375 
L 1034.577545 801.216717 
L 1022.245594 801.216717 
z
" clip-path="url(#p30d3be381f)" style="fill: #1f77b4; opacity: 0.6"/>
   </g>
   <g id="patch_76">
    <path d="M 1034.577545 828.779375 
L 1046.909497 828.779375 
L 1046.909497 804.662049 
L 1034.577545 804.662049 
z
" clip-path="url(#p30d3be381f)" style="fill: #1f77b4; opacity: 0.6"/>
   </g>
   <g id="patch_77">
    <path d="M 1046.909497 828.779375 
L 1059.241449 828.779375 
L 1059.241449 813.521475 
L 1046.909497 813.521475 
z
" clip-path="url(#p30d3be381f)" style="fill: #1f77b4; opacity: 0.6"/>
   </g>
   <g id="patch_78">
    <path d="M 1059.241449 828.779375 
L 1071.573401 828.779375 
L 1071.573401 813.029285 
L 1059.241449 813.029285 
z
" clip-path="url(#p30d3be381f)" style="fill: #1f77b4; opacity: 0.6"/>
   </g>
   <g id="patch_79">
    <path d="M 1071.573401 828.779375 
L 1083.905352 828.779375 
L 1083.905352 814.505856 
L 1071.573401 814.505856 
z
" clip-path="url(#p30d3be381f)" style="fill: #1f77b4; opacity: 0.6"/>
   </g>
   <g id="patch_80">
    <path d="M 1083.905352 828.779375 
L 1096.237304 828.779375 
L 1096.237304 820.90433 
L 1083.905352 820.90433 
z
" clip-path="url(#p30d3be381f)" style="fill: #1f77b4; opacity: 0.6"/>
   </g>
   <g id="patch_81">
    <path d="M 1096.237304 828.779375 
L 1108.569256 828.779375 
L 1108.569256 818.443378 
L 1096.237304 818.443378 
z
" clip-path="url(#p30d3be381f)" style="fill: #1f77b4; opacity: 0.6"/>
   </g>
   <g id="patch_82">
    <path d="M 1108.569256 828.779375 
L 1120.901207 828.779375 
L 1120.901207 818.935569 
L 1108.569256 818.935569 
z
" clip-path="url(#p30d3be381f)" style="fill: #1f77b4; opacity: 0.6"/>
   </g>
   <g id="patch_83">
    <path d="M 1120.901207 828.779375 
L 1133.233159 828.779375 
L 1133.233159 815.490236 
L 1120.901207 815.490236 
z
" clip-path="url(#p30d3be381f)" style="fill: #1f77b4; opacity: 0.6"/>
   </g>
   <g id="patch_84">
    <path d="M 1133.233159 828.779375 
L 1145.565111 828.779375 
L 1145.565111 821.39652 
L 1133.233159 821.39652 
z
" clip-path="url(#p30d3be381f)" style="fill: #1f77b4; opacity: 0.6"/>
   </g>
   <g id="patch_85">
    <path d="M 1145.565111 828.779375 
L 1157.897062 828.779375 
L 1157.897062 824.841852 
L 1145.565111 824.841852 
z
" clip-path="url(#p30d3be381f)" style="fill: #1f77b4; opacity: 0.6"/>
   </g>
   <g id="patch_86">
    <path d="M 1157.897062 828.779375 
L 1170.229014 828.779375 
L 1170.229014 827.302804 
L 1157.897062 827.302804 
z
" clip-path="url(#p30d3be381f)" style="fill: #1f77b4; opacity: 0.6"/>
   </g>
   <g id="patch_87">
    <path d="M 1170.229014 828.779375 
L 1182.560966 828.779375 
L 1182.560966 824.841852 
L 1170.229014 824.841852 
z
" clip-path="url(#p30d3be381f)" style="fill: #1f77b4; opacity: 0.6"/>
   </g>
   <g id="patch_88">
    <path d="M 1182.560966 828.779375 
L 1194.892918 828.779375 
L 1194.892918 825.334043 
L 1182.560966 825.334043 
z
" clip-path="url(#p30d3be381f)" style="fill: #1f77b4; opacity: 0.6"/>
   </g>
   <g id="patch_89">
    <path d="M 1194.892918 828.779375 
L 1207.224869 828.779375 
L 1207.224869 826.810614 
L 1194.892918 826.810614 
z
" clip-path="url(#p30d3be381f)" style="fill: #1f77b4; opacity: 0.6"/>
   </g>
   <g id="patch_90">
    <path d="M 1207.224869 828.779375 
L 1219.556821 828.779375 
L 1219.556821 825.826233 
L 1207.224869 825.826233 
z
" clip-path="url(#p30d3be381f)" style="fill: #1f77b4; opacity: 0.6"/>
   </g>
   <g id="patch_91">
    <path d="M 1219.556821 828.779375 
L 1231.888773 828.779375 
L 1231.888773 827.302804 
L 1219.556821 827.302804 
z
" clip-path="url(#p30d3be381f)" style="fill: #1f77b4; opacity: 0.6"/>
   </g>
   <g id="patch_92">
    <path d="M 1231.888773 828.779375 
L 1244.220724 828.779375 
L 1244.220724 827.302804 
L 1231.888773 827.302804 
z
" clip-path="url(#p30d3be381f)" style="fill: #1f77b4; opacity: 0.6"/>
   </g>
   <g id="patch_93">
    <path d="M 1244.220724 828.779375 
L 1256.552676 828.779375 
L 1256.552676 828.779375 
L 1244.220724 828.779375 
z
" clip-path="url(#p30d3be381f)" style="fill: #1f77b4; opacity: 0.6"/>
   </g>
   <g id="patch_94">
    <path d="M 1256.552676 828.779375 
L 1268.884628 828.779375 
L 1268.884628 827.794994 
L 1256.552676 827.794994 
z
" clip-path="url(#p30d3be381f)" style="fill: #1f77b4; opacity: 0.6"/>
   </g>
   <g id="patch_95">
    <path d="M 1268.884628 828.779375 
L 1281.21658 828.779375 
L 1281.21658 826.810614 
L 1268.884628 826.810614 
z
" clip-path="url(#p30d3be381f)" style="fill: #1f77b4; opacity: 0.6"/>
   </g>
   <g id="patch_96">
    <path d="M 1281.21658 828.779375 
L 1293.548531 828.779375 
L 1293.548531 828.287185 
L 1281.21658 828.287185 
z
" clip-path="url(#p30d3be381f)" style="fill: #1f77b4; opacity: 0.6"/>
   </g>
   <g id="patch_97">
    <path d="M 1293.548531 828.779375 
L 1305.880483 828.779375 
L 1305.880483 828.779375 
L 1293.548531 828.779375 
z
" clip-path="url(#p30d3be381f)" style="fill: #1f77b4; opacity: 0.6"/>
   </g>
   <g id="patch_98">
    <path d="M 1305.880483 828.779375 
L 1318.212435 828.779375 
L 1318.212435 828.287185 
L 1305.880483 828.287185 
z
" clip-path="url(#p30d3be381f)" style="fill: #1f77b4; opacity: 0.6"/>
   </g>
   <g id="patch_99">
    <path d="M 1318.212435 828.779375 
L 1330.544386 828.779375 
L 1330.544386 827.794994 
L 1318.212435 827.794994 
z
" clip-path="url(#p30d3be381f)" style="fill: #1f77b4; opacity: 0.6"/>
   </g>
   <g id="patch_100">
    <path d="M 1330.544386 828.779375 
L 1342.876338 828.779375 
L 1342.876338 828.779375 
L 1330.544386 828.779375 
z
" clip-path="url(#p30d3be381f)" style="fill: #1f77b4; opacity: 0.6"/>
   </g>
   <g id="patch_101">
    <path d="M 1342.876338 828.779375 
L 1355.20829 828.779375 
L 1355.20829 828.779375 
L 1342.876338 828.779375 
z
" clip-path="url(#p30d3be381f)" style="fill: #1f77b4; opacity: 0.6"/>
   </g>
   <g id="patch_102">
    <path d="M 1355.20829 828.779375 
L 1367.540241 828.779375 
L 1367.540241 827.794994 
L 1355.20829 827.794994 
z
" clip-path="url(#p30d3be381f)" style="fill: #1f77b4; opacity: 0.6"/>
   </g>
   <g id="matplotlib.axis_1">
    <g id="xtick_1">
     <g id="line2d_1">
      <defs>
       <path id="m37ccf4e70b" d="M 0 0 
L 0 3.5 
" style="stroke: #000000; stroke-width: 0.8"/>
      </defs>
      <g>
       <use xlink:href="#m37ccf4e70b" x="115.023939" y="828.779375" style="stroke: #000000; stroke-width: 0.8"/>
      </g>
     </g>
     <g id="text_1">
      <!-- 0 -->
      <g transform="translate(109.297689 849.456562)scale(0.18 -0.18)">
       <defs>
        <path id="DejaVuSans-30" d="M 2034 4250 
Q 1547 4250 1301 3770 
Q 1056 3291 1056 2328 
Q 1056 1369 1301 889 
Q 1547 409 2034 409 
Q 2525 409 2770 889 
Q 3016 1369 3016 2328 
Q 3016 3291 2770 3770 
Q 2525 4250 2034 4250 
z
M 2034 4750 
Q 2819 4750 3233 4129 
Q 3647 3509 3647 2328 
Q 3647 1150 3233 529 
Q 2819 -91 2034 -91 
Q 1250 -91 836 529 
Q 422 1150 422 2328 
Q 422 3509 836 4129 
Q 1250 4750 2034 4750 
z
" transform="scale(0.015625)"/>
       </defs>
       <use xlink:href="#DejaVuSans-30"/>
      </g>
     </g>
    </g>
    <g id="xtick_2">
     <g id="line2d_2">
      <g>
       <use xlink:href="#m37ccf4e70b" x="356.11793" y="828.779375" style="stroke: #000000; stroke-width: 0.8"/>
      </g>
     </g>
     <g id="text_2">
      <!-- 1 -->
      <g transform="translate(350.39168 849.456562)scale(0.18 -0.18)">
       <defs>
        <path id="DejaVuSans-31" d="M 794 531 
L 1825 531 
L 1825 4091 
L 703 3866 
L 703 4441 
L 1819 4666 
L 2450 4666 
L 2450 531 
L 3481 531 
L 3481 0 
L 794 0 
L 794 531 
z
" transform="scale(0.015625)"/>
       </defs>
       <use xlink:href="#DejaVuSans-31"/>
      </g>
     </g>
    </g>
    <g id="xtick_3">
     <g id="line2d_3">
      <g>
       <use xlink:href="#m37ccf4e70b" x="597.211921" y="828.779375" style="stroke: #000000; stroke-width: 0.8"/>
      </g>
     </g>
     <g id="text_3">
      <!-- 2 -->
      <g transform="translate(591.485671 849.456562)scale(0.18 -0.18)">
       <defs>
        <path id="DejaVuSans-32" d="M 1228 531 
L 3431 531 
L 3431 0 
L 469 0 
L 469 531 
Q 828 903 1448 1529 
Q 2069 2156 2228 2338 
Q 2531 2678 2651 2914 
Q 2772 3150 2772 3378 
Q 2772 3750 2511 3984 
Q 2250 4219 1831 4219 
Q 1534 4219 1204 4116 
Q 875 4013 500 3803 
L 500 4441 
Q 881 4594 1212 4672 
Q 1544 4750 1819 4750 
Q 2544 4750 2975 4387 
Q 3406 4025 3406 3419 
Q 3406 3131 3298 2873 
Q 3191 2616 2906 2266 
Q 2828 2175 2409 1742 
Q 1991 1309 1228 531 
z
" transform="scale(0.015625)"/>
       </defs>
       <use xlink:href="#DejaVuSans-32"/>
      </g>
     </g>
    </g>
    <g id="xtick_4">
     <g id="line2d_4">
      <g>
       <use xlink:href="#m37ccf4e70b" x="838.305912" y="828.779375" style="stroke: #000000; stroke-width: 0.8"/>
      </g>
     </g>
     <g id="text_4">
      <!-- 3 -->
      <g transform="translate(832.579662 849.456562)scale(0.18 -0.18)">
       <defs>
        <path id="DejaVuSans-33" d="M 2597 2516 
Q 3050 2419 3304 2112 
Q 3559 1806 3559 1356 
Q 3559 666 3084 287 
Q 2609 -91 1734 -91 
Q 1441 -91 1130 -33 
Q 819 25 488 141 
L 488 750 
Q 750 597 1062 519 
Q 1375 441 1716 441 
Q 2309 441 2620 675 
Q 2931 909 2931 1356 
Q 2931 1769 2642 2001 
Q 2353 2234 1838 2234 
L 1294 2234 
L 1294 2753 
L 1863 2753 
Q 2328 2753 2575 2939 
Q 2822 3125 2822 3475 
Q 2822 3834 2567 4026 
Q 2313 4219 1838 4219 
Q 1578 4219 1281 4162 
Q 984 4106 628 3988 
L 628 4550 
Q 988 4650 1302 4700 
Q 1616 4750 1894 4750 
Q 2613 4750 3031 4423 
Q 3450 4097 3450 3541 
Q 3450 3153 3228 2886 
Q 3006 2619 2597 2516 
z
" transform="scale(0.015625)"/>
       </defs>
       <use xlink:href="#DejaVuSans-33"/>
      </g>
     </g>
    </g>
    <g id="xtick_5">
     <g id="line2d_5">
      <g>
       <use xlink:href="#m37ccf4e70b" x="1079.399903" y="828.779375" style="stroke: #000000; stroke-width: 0.8"/>
      </g>
     </g>
     <g id="text_5">
      <!-- 4 -->
      <g transform="translate(1073.673653 849.456562)scale(0.18 -0.18)">
       <defs>
        <path id="DejaVuSans-34" d="M 2419 4116 
L 825 1625 
L 2419 1625 
L 2419 4116 
z
M 2253 4666 
L 3047 4666 
L 3047 1625 
L 3713 1625 
L 3713 1100 
L 3047 1100 
L 3047 0 
L 2419 0 
L 2419 1100 
L 313 1100 
L 313 1709 
L 2253 4666 
z
" transform="scale(0.015625)"/>
       </defs>
       <use xlink:href="#DejaVuSans-34"/>
      </g>
     </g>
    </g>
    <g id="xtick_6">
     <g id="line2d_6">
      <g>
       <use xlink:href="#m37ccf4e70b" x="1320.493895" y="828.779375" style="stroke: #000000; stroke-width: 0.8"/>
      </g>
     </g>
     <g id="text_6">
      <!-- 5 -->
      <g transform="translate(1314.767645 849.456562)scale(0.18 -0.18)">
       <defs>
        <path id="DejaVuSans-35" d="M 691 4666 
L 3169 4666 
L 3169 4134 
L 1269 4134 
L 1269 2991 
Q 1406 3038 1543 3061 
Q 1681 3084 1819 3084 
Q 2600 3084 3056 2656 
Q 3513 2228 3513 1497 
Q 3513 744 3044 326 
Q 2575 -91 1722 -91 
Q 1428 -91 1123 -41 
Q 819 9 494 109 
L 494 744 
Q 775 591 1075 516 
Q 1375 441 1709 441 
Q 2250 441 2565 725 
Q 2881 1009 2881 1497 
Q 2881 1984 2565 2268 
Q 2250 2553 1709 2553 
Q 1456 2553 1204 2497 
Q 953 2441 691 2322 
L 691 4666 
z
" transform="scale(0.015625)"/>
       </defs>
       <use xlink:href="#DejaVuSans-35"/>
      </g>
     </g>
    </g>
   </g>
   <g id="matplotlib.axis_2">
    <g id="ytick_1">
     <g id="line2d_7">
      <defs>
       <path id="maaa22c4740" d="M 0 0 
L -3.5 0 
" style="stroke: #000000; stroke-width: 0.8"/>
      </defs>
      <g>
       <use xlink:href="#maaa22c4740" x="72.685313" y="828.779375" style="stroke: #000000; stroke-width: 0.8"/>
      </g>
     </g>
     <g id="text_7">
      <!-- 0.0 -->
      <g transform="translate(37.059688 835.617969)scale(0.18 -0.18)">
       <defs>
        <path id="DejaVuSans-2e" d="M 684 794 
L 1344 794 
L 1344 0 
L 684 0 
L 684 794 
z
" transform="scale(0.015625)"/>
       </defs>
       <use xlink:href="#DejaVuSans-30"/>
       <use xlink:href="#DejaVuSans-2e" x="63.623047"/>
       <use xlink:href="#DejaVuSans-30" x="95.410156"/>
      </g>
     </g>
    </g>
    <g id="ytick_2">
     <g id="line2d_8">
      <g>
       <use xlink:href="#maaa22c4740" x="72.685313" y="702.901761" style="stroke: #000000; stroke-width: 0.8"/>
      </g>
     </g>
     <g id="text_8">
      <!-- 0.1 -->
      <g transform="translate(37.059688 709.740355)scale(0.18 -0.18)">
       <use xlink:href="#DejaVuSans-30"/>
       <use xlink:href="#DejaVuSans-2e" x="63.623047"/>
       <use xlink:href="#DejaVuSans-31" x="95.410156"/>
      </g>
     </g>
    </g>
    <g id="ytick_3">
     <g id="line2d_9">
      <g>
       <use xlink:href="#maaa22c4740" x="72.685313" y="577.024147" style="stroke: #000000; stroke-width: 0.8"/>
      </g>
     </g>
     <g id="text_9">
      <!-- 0.2 -->
      <g transform="translate(37.059688 583.862741)scale(0.18 -0.18)">
       <use xlink:href="#DejaVuSans-30"/>
       <use xlink:href="#DejaVuSans-2e" x="63.623047"/>
       <use xlink:href="#DejaVuSans-32" x="95.410156"/>
      </g>
     </g>
    </g>
    <g id="ytick_4">
     <g id="line2d_10">
      <g>
       <use xlink:href="#maaa22c4740" x="72.685313" y="451.146534" style="stroke: #000000; stroke-width: 0.8"/>
      </g>
     </g>
     <g id="text_10">
      <!-- 0.3 -->
      <g transform="translate(37.059688 457.985127)scale(0.18 -0.18)">
       <use xlink:href="#DejaVuSans-30"/>
       <use xlink:href="#DejaVuSans-2e" x="63.623047"/>
       <use xlink:href="#DejaVuSans-33" x="95.410156"/>
      </g>
     </g>
    </g>
    <g id="ytick_5">
     <g id="line2d_11">
      <g>
       <use xlink:href="#maaa22c4740" x="72.685313" y="325.26892" style="stroke: #000000; stroke-width: 0.8"/>
      </g>
     </g>
     <g id="text_11">
      <!-- 0.4 -->
      <g transform="translate(37.059688 332.107513)scale(0.18 -0.18)">
       <use xlink:href="#DejaVuSans-30"/>
       <use xlink:href="#DejaVuSans-2e" x="63.623047"/>
       <use xlink:href="#DejaVuSans-34" x="95.410156"/>
      </g>
     </g>
    </g>
    <g id="ytick_6">
     <g id="line2d_12">
      <g>
       <use xlink:href="#maaa22c4740" x="72.685313" y="199.391306" style="stroke: #000000; stroke-width: 0.8"/>
      </g>
     </g>
     <g id="text_12">
      <!-- 0.5 -->
      <g transform="translate(37.059688 206.2299)scale(0.18 -0.18)">
       <use xlink:href="#DejaVuSans-30"/>
       <use xlink:href="#DejaVuSans-2e" x="63.623047"/>
       <use xlink:href="#DejaVuSans-35" x="95.410156"/>
      </g>
     </g>
    </g>
    <g id="ytick_7">
     <g id="line2d_13">
      <g>
       <use xlink:href="#maaa22c4740" x="72.685313" y="73.513692" style="stroke: #000000; stroke-width: 0.8"/>
      </g>
     </g>
     <g id="text_13">
      <!-- 0.6 -->
      <g transform="translate(37.059688 80.352286)scale(0.18 -0.18)">
       <defs>
        <path id="DejaVuSans-36" d="M 2113 2584 
Q 1688 2584 1439 2293 
Q 1191 2003 1191 1497 
Q 1191 994 1439 701 
Q 1688 409 2113 409 
Q 2538 409 2786 701 
Q 3034 994 3034 1497 
Q 3034 2003 2786 2293 
Q 2538 2584 2113 2584 
z
M 3366 4563 
L 3366 3988 
Q 3128 4100 2886 4159 
Q 2644 4219 2406 4219 
Q 1781 4219 1451 3797 
Q 1122 3375 1075 2522 
Q 1259 2794 1537 2939 
Q 1816 3084 2150 3084 
Q 2853 3084 3261 2657 
Q 3669 2231 3669 1497 
Q 3669 778 3244 343 
Q 2819 -91 2113 -91 
Q 1303 -91 875 529 
Q 447 1150 447 2328 
Q 447 3434 972 4092 
Q 1497 4750 2381 4750 
Q 2619 4750 2861 4703 
Q 3103 4656 3366 4563 
z
" transform="scale(0.015625)"/>
       </defs>
       <use xlink:href="#DejaVuSans-30"/>
       <use xlink:href="#DejaVuSans-2e" x="63.623047"/>
       <use xlink:href="#DejaVuSans-36" x="95.410156"/>
      </g>
     </g>
    </g>
    <g id="text_14">
     <!-- Normed Hist Counts -->
     <g transform="translate(28.276406 548.966563)rotate(-90)scale(0.23 -0.23)">
      <defs>
       <path id="DejaVuSans-4e" d="M 628 4666 
L 1478 4666 
L 3547 763 
L 3547 4666 
L 4159 4666 
L 4159 0 
L 3309 0 
L 1241 3903 
L 1241 0 
L 628 0 
L 628 4666 
z
" transform="scale(0.015625)"/>
       <path id="DejaVuSans-6f" d="M 1959 3097 
Q 1497 3097 1228 2736 
Q 959 2375 959 1747 
Q 959 1119 1226 758 
Q 1494 397 1959 397 
Q 2419 397 2687 759 
Q 2956 1122 2956 1747 
Q 2956 2369 2687 2733 
Q 2419 3097 1959 3097 
z
M 1959 3584 
Q 2709 3584 3137 3096 
Q 3566 2609 3566 1747 
Q 3566 888 3137 398 
Q 2709 -91 1959 -91 
Q 1206 -91 779 398 
Q 353 888 353 1747 
Q 353 2609 779 3096 
Q 1206 3584 1959 3584 
z
" transform="scale(0.015625)"/>
       <path id="DejaVuSans-72" d="M 2631 2963 
Q 2534 3019 2420 3045 
Q 2306 3072 2169 3072 
Q 1681 3072 1420 2755 
Q 1159 2438 1159 1844 
L 1159 0 
L 581 0 
L 581 3500 
L 1159 3500 
L 1159 2956 
Q 1341 3275 1631 3429 
Q 1922 3584 2338 3584 
Q 2397 3584 2469 3576 
Q 2541 3569 2628 3553 
L 2631 2963 
z
" transform="scale(0.015625)"/>
       <path id="DejaVuSans-6d" d="M 3328 2828 
Q 3544 3216 3844 3400 
Q 4144 3584 4550 3584 
Q 5097 3584 5394 3201 
Q 5691 2819 5691 2113 
L 5691 0 
L 5113 0 
L 5113 2094 
Q 5113 2597 4934 2840 
Q 4756 3084 4391 3084 
Q 3944 3084 3684 2787 
Q 3425 2491 3425 1978 
L 3425 0 
L 2847 0 
L 2847 2094 
Q 2847 2600 2669 2842 
Q 2491 3084 2119 3084 
Q 1678 3084 1418 2786 
Q 1159 2488 1159 1978 
L 1159 0 
L 581 0 
L 581 3500 
L 1159 3500 
L 1159 2956 
Q 1356 3278 1631 3431 
Q 1906 3584 2284 3584 
Q 2666 3584 2933 3390 
Q 3200 3197 3328 2828 
z
" transform="scale(0.015625)"/>
       <path id="DejaVuSans-65" d="M 3597 1894 
L 3597 1613 
L 953 1613 
Q 991 1019 1311 708 
Q 1631 397 2203 397 
Q 2534 397 2845 478 
Q 3156 559 3463 722 
L 3463 178 
Q 3153 47 2828 -22 
Q 2503 -91 2169 -91 
Q 1331 -91 842 396 
Q 353 884 353 1716 
Q 353 2575 817 3079 
Q 1281 3584 2069 3584 
Q 2775 3584 3186 3129 
Q 3597 2675 3597 1894 
z
M 3022 2063 
Q 3016 2534 2758 2815 
Q 2500 3097 2075 3097 
Q 1594 3097 1305 2825 
Q 1016 2553 972 2059 
L 3022 2063 
z
" transform="scale(0.015625)"/>
       <path id="DejaVuSans-64" d="M 2906 2969 
L 2906 4863 
L 3481 4863 
L 3481 0 
L 2906 0 
L 2906 525 
Q 2725 213 2448 61 
Q 2172 -91 1784 -91 
Q 1150 -91 751 415 
Q 353 922 353 1747 
Q 353 2572 751 3078 
Q 1150 3584 1784 3584 
Q 2172 3584 2448 3432 
Q 2725 3281 2906 2969 
z
M 947 1747 
Q 947 1113 1208 752 
Q 1469 391 1925 391 
Q 2381 391 2643 752 
Q 2906 1113 2906 1747 
Q 2906 2381 2643 2742 
Q 2381 3103 1925 3103 
Q 1469 3103 1208 2742 
Q 947 2381 947 1747 
z
" transform="scale(0.015625)"/>
       <path id="DejaVuSans-20" transform="scale(0.015625)"/>
       <path id="DejaVuSans-48" d="M 628 4666 
L 1259 4666 
L 1259 2753 
L 3553 2753 
L 3553 4666 
L 4184 4666 
L 4184 0 
L 3553 0 
L 3553 2222 
L 1259 2222 
L 1259 0 
L 628 0 
L 628 4666 
z
" transform="scale(0.015625)"/>
       <path id="DejaVuSans-69" d="M 603 3500 
L 1178 3500 
L 1178 0 
L 603 0 
L 603 3500 
z
M 603 4863 
L 1178 4863 
L 1178 4134 
L 603 4134 
L 603 4863 
z
" transform="scale(0.015625)"/>
       <path id="DejaVuSans-73" d="M 2834 3397 
L 2834 2853 
Q 2591 2978 2328 3040 
Q 2066 3103 1784 3103 
Q 1356 3103 1142 2972 
Q 928 2841 928 2578 
Q 928 2378 1081 2264 
Q 1234 2150 1697 2047 
L 1894 2003 
Q 2506 1872 2764 1633 
Q 3022 1394 3022 966 
Q 3022 478 2636 193 
Q 2250 -91 1575 -91 
Q 1294 -91 989 -36 
Q 684 19 347 128 
L 347 722 
Q 666 556 975 473 
Q 1284 391 1588 391 
Q 1994 391 2212 530 
Q 2431 669 2431 922 
Q 2431 1156 2273 1281 
Q 2116 1406 1581 1522 
L 1381 1569 
Q 847 1681 609 1914 
Q 372 2147 372 2553 
Q 372 3047 722 3315 
Q 1072 3584 1716 3584 
Q 2034 3584 2315 3537 
Q 2597 3491 2834 3397 
z
" transform="scale(0.015625)"/>
       <path id="DejaVuSans-74" d="M 1172 4494 
L 1172 3500 
L 2356 3500 
L 2356 3053 
L 1172 3053 
L 1172 1153 
Q 1172 725 1289 603 
Q 1406 481 1766 481 
L 2356 481 
L 2356 0 
L 1766 0 
Q 1100 0 847 248 
Q 594 497 594 1153 
L 594 3053 
L 172 3053 
L 172 3500 
L 594 3500 
L 594 4494 
L 1172 4494 
z
" transform="scale(0.015625)"/>
       <path id="DejaVuSans-43" d="M 4122 4306 
L 4122 3641 
Q 3803 3938 3442 4084 
Q 3081 4231 2675 4231 
Q 1875 4231 1450 3742 
Q 1025 3253 1025 2328 
Q 1025 1406 1450 917 
Q 1875 428 2675 428 
Q 3081 428 3442 575 
Q 3803 722 4122 1019 
L 4122 359 
Q 3791 134 3420 21 
Q 3050 -91 2638 -91 
Q 1578 -91 968 557 
Q 359 1206 359 2328 
Q 359 3453 968 4101 
Q 1578 4750 2638 4750 
Q 3056 4750 3426 4639 
Q 3797 4528 4122 4306 
z
" transform="scale(0.015625)"/>
       <path id="DejaVuSans-75" d="M 544 1381 
L 544 3500 
L 1119 3500 
L 1119 1403 
Q 1119 906 1312 657 
Q 1506 409 1894 409 
Q 2359 409 2629 706 
Q 2900 1003 2900 1516 
L 2900 3500 
L 3475 3500 
L 3475 0 
L 2900 0 
L 2900 538 
Q 2691 219 2414 64 
Q 2138 -91 1772 -91 
Q 1169 -91 856 284 
Q 544 659 544 1381 
z
M 1991 3584 
L 1991 3584 
z
" transform="scale(0.015625)"/>
       <path id="DejaVuSans-6e" d="M 3513 2113 
L 3513 0 
L 2938 0 
L 2938 2094 
Q 2938 2591 2744 2837 
Q 2550 3084 2163 3084 
Q 1697 3084 1428 2787 
Q 1159 2491 1159 1978 
L 1159 0 
L 581 0 
L 581 3500 
L 1159 3500 
L 1159 2956 
Q 1366 3272 1645 3428 
Q 1925 3584 2291 3584 
Q 2894 3584 3203 3211 
Q 3513 2838 3513 2113 
z
" transform="scale(0.015625)"/>
      </defs>
      <use xlink:href="#DejaVuSans-4e"/>
      <use xlink:href="#DejaVuSans-6f" x="74.804688"/>
      <use xlink:href="#DejaVuSans-72" x="135.986328"/>
      <use xlink:href="#DejaVuSans-6d" x="175.349609"/>
      <use xlink:href="#DejaVuSans-65" x="272.761719"/>
      <use xlink:href="#DejaVuSans-64" x="334.285156"/>
      <use xlink:href="#DejaVuSans-20" x="397.761719"/>
      <use xlink:href="#DejaVuSans-48" x="429.548828"/>
      <use xlink:href="#DejaVuSans-69" x="504.744141"/>
      <use xlink:href="#DejaVuSans-73" x="532.527344"/>
      <use xlink:href="#DejaVuSans-74" x="584.626953"/>
      <use xlink:href="#DejaVuSans-20" x="623.835938"/>
      <use xlink:href="#DejaVuSans-43" x="655.623047"/>
      <use xlink:href="#DejaVuSans-6f" x="725.447266"/>
      <use xlink:href="#DejaVuSans-75" x="786.628906"/>
      <use xlink:href="#DejaVuSans-6e" x="850.007812"/>
      <use xlink:href="#DejaVuSans-74" x="913.386719"/>
      <use xlink:href="#DejaVuSans-73" x="952.595703"/>
     </g>
    </g>
   </g>
   <g id="line2d_14">
    <path d="M 137.428059 828.157483 
L 143.594035 827.576866 
L 149.760011 826.714256 
L 155.925987 825.51498 
L 162.091962 823.925961 
L 168.257938 821.896168 
L 174.423914 819.377024 
L 180.58989 816.322782 
L 186.755866 812.690875 
L 192.921842 808.442237 
L 199.087817 803.541585 
L 205.253793 797.957686 
L 211.419769 791.663577 
L 217.585745 784.636763 
L 223.751721 776.85938 
L 229.917697 768.318326 
L 236.083673 759.005355 
L 242.249648 748.917141 
L 248.415624 738.055307 
L 254.5816 726.426421 
L 260.747576 714.041962 
L 266.913552 700.918246 
L 273.079528 687.076331 
L 279.245504 672.541882 
L 285.411479 657.345017 
L 291.577455 641.520118 
L 297.743431 625.105617 
L 303.909407 608.143763 
L 310.075383 590.680361 
L 316.241359 572.764496 
L 328.57331 535.786321 
L 340.905262 497.655881 
L 359.40319 439.353093 
L 377.901117 381.232665 
L 390.233069 343.435141 
L 396.399045 325.008684 
L 402.565021 306.977725 
L 408.730996 289.400674 
L 414.896972 272.33395 
L 421.062948 255.831712 
L 427.228924 239.945609 
L 433.3949 224.724553 
L 439.560876 210.214509 
L 445.726852 196.458304 
L 451.892827 183.495468 
L 458.058803 171.362083 
L 464.224779 160.09067 
L 470.390755 149.710083 
L 476.556731 140.245442 
L 482.722707 131.718077 
L 488.888683 124.145501 
L 495.054658 117.5414 
L 501.220634 111.915649 
L 507.38661 107.274346 
L 513.552586 103.619868 
L 519.718562 100.950942 
L 525.884538 99.262739 
L 532.050513 98.546982 
L 538.216489 98.792065 
L 544.382465 99.983198 
L 550.548441 102.102551 
L 556.714417 105.129422 
L 562.880393 109.040403 
L 569.046369 113.809567 
L 575.212344 119.408654 
L 581.37832 125.807262 
L 587.544296 132.973053 
L 593.710272 140.871947 
L 599.876248 149.468332 
L 606.042224 158.725266 
L 612.2082 168.604679 
L 618.374175 179.067577 
L 624.540151 190.07424 
L 630.706127 201.584418 
L 636.872103 213.557517 
L 643.038079 225.952788 
L 649.204055 238.729499 
L 655.370031 251.847108 
L 667.701982 278.944759 
L 680.033934 306.9311 
L 692.365886 335.503905 
L 735.527717 436.179455 
L 747.859668 464.152575 
L 760.19162 491.409097 
L 772.523572 517.791268 
L 778.689548 530.612154 
L 784.855523 543.166813 
L 791.021499 555.44259 
L 797.187475 567.428325 
L 803.353451 579.114312 
L 809.519427 590.492254 
L 815.685403 601.555217 
L 821.851379 612.297577 
L 828.017354 622.714965 
L 834.18333 632.804212 
L 840.349306 642.563286 
L 846.515282 651.991235 
L 852.681258 661.088125 
L 858.847234 669.854973 
L 865.01321 678.293687 
L 871.179185 686.407005 
L 877.345161 694.198428 
L 883.511137 701.672159 
L 889.677113 708.833044 
L 895.843089 715.68651 
L 902.009065 722.238506 
L 908.17504 728.495447 
L 914.341016 734.46416 
L 920.506992 740.151828 
L 926.672968 745.565942 
L 932.838944 750.714251 
L 939.00492 755.604714 
L 945.170896 760.245458 
L 951.336871 764.644738 
L 957.502847 768.810893 
L 963.668823 772.752314 
L 969.834799 776.477409 
L 976.000775 779.994569 
L 982.166751 783.312143 
L 988.332727 786.438408 
L 994.498702 789.381545 
L 1000.664678 792.149621 
L 1006.830654 794.750563 
L 1012.99663 797.192145 
L 1019.162606 799.481973 
L 1025.328582 801.627467 
L 1031.494558 803.635854 
L 1037.660533 805.514157 
L 1043.826509 807.269183 
L 1056.158461 810.435547 
L 1068.490413 813.184954 
L 1080.822364 815.563744 
L 1093.154316 817.61456 
L 1105.486268 819.376394 
L 1117.818219 820.884684 
L 1130.150171 822.171447 
L 1142.482123 823.265451 
L 1154.814075 824.1924 
L 1173.312002 825.318859 
L 1191.80993 826.186466 
L 1210.307857 826.84972 
L 1234.971761 827.491629 
L 1265.80164 828.01561 
L 1302.797495 828.381208 
L 1352.125302 828.619074 
L 1364.457254 828.652619 
L 1364.457254 828.652619 
" clip-path="url(#p30d3be381f)" style="fill: none; stroke: #ff7f0e; stroke-width: 2; stroke-linecap: square"/>
   </g>
   <g id="line2d_15">
    <path d="M 137.428059 779.686076 
L 143.594035 716.230113 
L 149.760011 665.570812 
L 155.925987 622.203997 
L 162.091962 584.122647 
L 168.257938 550.249498 
L 174.423914 519.897701 
L 180.58989 492.582946 
L 186.755866 467.940391 
L 192.921842 445.682112 
L 199.087817 425.572999 
L 205.253793 407.416025 
L 211.419769 391.042717 
L 217.585745 376.306706 
L 223.751721 363.079173 
L 229.917697 351.245552 
L 236.083673 340.703068 
L 242.249648 331.358848 
L 248.415624 323.128459 
L 254.5816 315.934743 
L 260.747576 309.706878 
L 266.913552 304.37961 
L 273.079528 299.892622 
L 279.245504 296.189997 
L 285.411479 293.219774 
L 291.577455 290.933558 
L 297.743431 289.286194 
L 303.909407 288.235478 
L 310.075383 287.741908 
L 316.241359 287.768458 
L 322.407335 288.28039 
L 328.57331 289.245075 
L 334.739286 290.631838 
L 340.905262 292.411821 
L 347.071238 294.557853 
L 353.237214 297.044339 
L 359.40319 299.847154 
L 365.569165 302.94355 
L 371.735141 306.312066 
L 377.901117 309.932452 
L 384.067093 313.785592 
L 390.233069 317.85344 
L 396.399045 322.118952 
L 402.565021 326.566036 
L 408.730996 331.179488 
L 421.062948 340.848863 
L 433.3949 351.021502 
L 445.726852 361.603236 
L 458.058803 372.510107 
L 470.390755 383.667323 
L 488.888683 400.728999 
L 519.718562 429.575311 
L 550.548441 458.33927 
L 569.046369 475.336516 
L 587.544296 492.030708 
L 606.042224 508.353778 
L 618.374175 519.002483 
L 630.706127 529.449086 
L 643.038079 539.682797 
L 655.370031 549.694753 
L 667.701982 559.477821 
L 680.033934 569.026421 
L 692.365886 578.336363 
L 704.697837 587.4047 
L 717.029789 596.229595 
L 729.361741 604.810198 
L 741.693692 613.146538 
L 754.025644 621.23942 
L 766.357596 629.090335 
L 778.689548 636.701377 
L 791.021499 644.075167 
L 803.353451 651.214788 
L 815.685403 658.123716 
L 828.017354 664.805775 
L 840.349306 671.265074 
L 852.681258 677.505972 
L 865.01321 683.533028 
L 877.345161 689.35097 
L 889.677113 694.964658 
L 902.009065 700.379056 
L 914.341016 705.599201 
L 926.672968 710.630182 
L 939.00492 715.47712 
L 951.336871 720.145144 
L 963.668823 724.639374 
L 976.000775 728.964912 
L 988.332727 733.126821 
L 1006.830654 739.073838 
L 1025.328582 744.680635 
L 1043.826509 749.96353 
L 1062.324437 754.938422 
L 1080.822364 759.62076 
L 1099.320292 764.025503 
L 1117.818219 768.167101 
L 1136.316147 772.059478 
L 1154.814075 775.716021 
L 1173.312002 779.149574 
L 1191.80993 782.372442 
L 1210.307857 785.39639 
L 1228.805785 788.232652 
L 1247.303712 790.891939 
L 1271.967616 794.179917 
L 1296.631519 797.194151 
L 1321.295423 799.955929 
L 1345.959326 802.485088 
L 1364.457254 804.240452 
L 1364.457254 804.240452 
" clip-path="url(#p30d3be381f)" style="fill: none; stroke: #2ca02c; stroke-width: 2; stroke-linecap: square"/>
   </g>
   <g id="line2d_16">
    <path d="M 137.428059 135.09381 
L 149.760011 154.509579 
L 162.091962 173.381914 
L 174.423914 191.726025 
L 186.755866 209.556698 
L 199.087817 226.888303 
L 211.419769 243.734809 
L 223.751721 260.109793 
L 236.083673 276.026452 
L 248.415624 291.497616 
L 260.747576 306.535752 
L 273.079528 321.152982 
L 285.411479 335.361086 
L 297.743431 349.171515 
L 310.075383 362.5954 
L 322.407335 375.64356 
L 334.739286 388.326511 
L 347.071238 400.654476 
L 359.40319 412.637389 
L 371.735141 424.284909 
L 384.067093 435.606423 
L 396.399045 446.611056 
L 408.730996 457.307677 
L 421.062948 467.704907 
L 433.3949 477.811126 
L 445.726852 487.63448 
L 458.058803 497.182884 
L 470.390755 506.464035 
L 482.722707 515.485414 
L 495.054658 524.25429 
L 507.38661 532.777732 
L 519.718562 541.062609 
L 532.050513 549.115598 
L 544.382465 556.943189 
L 556.714417 564.551692 
L 569.046369 571.947238 
L 581.37832 579.135788 
L 593.710272 586.123135 
L 606.042224 592.914912 
L 618.374175 599.516592 
L 630.706127 605.933495 
L 643.038079 612.170794 
L 655.370031 618.233515 
L 667.701982 624.126544 
L 686.19991 632.658271 
L 704.697837 640.834321 
L 723.195765 648.66952 
L 741.693692 656.17808 
L 760.19162 663.373618 
L 778.689548 670.269182 
L 797.187475 676.877278 
L 815.685403 683.209891 
L 834.18333 689.278505 
L 852.681258 695.094126 
L 871.179185 700.667301 
L 889.677113 706.008137 
L 908.17504 711.12632 
L 926.672968 716.031133 
L 945.170896 720.731469 
L 963.668823 725.235854 
L 982.166751 729.552457 
L 1000.664678 733.689106 
L 1025.328582 738.937632 
L 1049.992485 743.896463 
L 1074.656388 748.581591 
L 1099.320292 753.008123 
L 1123.984195 757.190331 
L 1148.648099 761.141702 
L 1173.312002 764.874976 
L 1197.975906 768.402191 
L 1222.639809 771.734721 
L 1253.469688 775.64292 
L 1284.299567 779.283364 
L 1315.129447 782.674397 
L 1345.959326 785.833106 
L 1364.457254 787.623484 
L 1364.457254 787.623484 
" clip-path="url(#p30d3be381f)" style="fill: none; stroke: #d62728; stroke-width: 2; stroke-linecap: square"/>
   </g>
   <g id="line2d_17">
    <path d="M 137.428059 781.076231 
L 149.760011 776.388179 
L 155.925987 773.874113 
L 162.091962 771.239406 
L 168.257938 768.478269 
L 174.423914 765.584635 
L 180.58989 762.552146 
L 186.755866 759.374138 
L 192.921842 756.043629 
L 199.087817 752.553301 
L 205.253793 748.895484 
L 211.419769 745.062142 
L 217.585745 741.044852 
L 223.751721 736.834786 
L 229.917697 732.422695 
L 236.083673 727.798882 
L 242.249648 722.95319 
L 248.415624 717.87497 
L 254.5816 712.553065 
L 260.747576 706.97578 
L 266.913552 701.130862 
L 273.079528 695.005466 
L 279.245504 688.586135 
L 285.411479 681.858763 
L 291.577455 674.808569 
L 297.743431 667.420061 
L 303.909407 659.677005 
L 310.075383 651.562388 
L 316.241359 643.058379 
L 322.407335 634.146293 
L 328.57331 624.806548 
L 334.739286 615.018622 
L 340.905262 604.761009 
L 347.071238 594.011169 
L 353.237214 582.745483 
L 359.40319 570.939198 
L 365.569165 558.56637 
L 371.735141 545.599815 
L 377.901117 532.011042 
L 384.067093 517.770192 
L 390.233069 502.845974 
L 396.399045 487.205597 
L 402.565021 470.814694 
L 408.730996 453.63725 
L 414.896972 435.635522 
L 421.062948 416.769956 
L 427.228924 396.999099 
L 433.3949 376.279509 
L 439.560876 354.56566 
L 445.726852 331.809841 
L 451.892827 307.962052 
L 458.058803 282.969892 
L 464.224779 256.778449 
L 470.390755 229.330172 
L 476.556731 200.56475 
L 482.722707 170.418979 
L 488.888683 138.82662 
L 495.054658 105.718257 
L 501.220634 71.021142 
L 507.38661 34.659036 
L 513.15649 -1 
M 599.824139 -1 
L 599.876248 -0.663634 
L 606.042224 37.315866 
L 612.2082 73.556318 
L 618.374175 108.137349 
L 624.540151 141.134944 
L 630.706127 172.621607 
L 636.872103 202.666522 
L 643.038079 231.335705 
L 649.204055 258.692151 
L 655.370031 284.795967 
L 661.536006 309.704512 
L 667.701982 333.472515 
L 673.867958 356.152202 
L 680.033934 377.793404 
L 686.19991 398.443674 
L 692.365886 418.148386 
L 698.531862 436.950835 
L 704.697837 454.892336 
L 710.863813 472.01231 
L 717.029789 488.348375 
L 723.195765 503.936426 
L 729.361741 518.810712 
L 735.527717 533.003918 
L 741.693692 546.547228 
L 747.859668 559.470402 
L 754.025644 571.801835 
L 760.19162 583.568621 
L 766.357596 594.796616 
L 772.523572 605.510491 
L 778.689548 615.733786 
L 784.855523 625.488965 
L 791.021499 634.797463 
L 797.187475 643.679732 
L 803.353451 652.15529 
L 809.519427 660.242759 
L 815.685403 667.959909 
L 821.851379 675.323698 
L 828.017354 682.350305 
L 834.18333 689.055169 
L 840.349306 695.453024 
L 846.515282 701.557926 
L 852.681258 707.383289 
L 858.847234 712.941915 
L 865.01321 718.246015 
L 871.179185 723.307245 
L 877.345161 728.136725 
L 883.511137 732.745068 
L 889.677113 737.142399 
L 895.843089 741.338379 
L 902.009065 745.342229 
L 908.17504 749.162746 
L 914.341016 752.808325 
L 920.506992 756.286976 
L 926.672968 759.606342 
L 932.838944 762.773717 
L 939.00492 765.796061 
L 945.170896 768.680014 
L 951.336871 771.431914 
L 963.668823 776.563461 
L 976.000775 781.235828 
L 988.332727 785.490105 
L 1000.664678 789.363701 
L 1012.99663 792.890682 
L 1025.328582 796.102062 
L 1037.660533 799.026083 
L 1049.992485 801.688458 
L 1062.324437 804.112598 
L 1074.656388 806.319823 
L 1086.98834 808.329541 
L 1099.320292 810.159427 
L 1111.652244 811.825571 
L 1130.150171 814.049462 
L 1148.648099 815.981637 
L 1167.146026 817.660361 
L 1185.643954 819.118882 
L 1204.141881 820.386083 
L 1228.805785 821.82097 
L 1253.469688 823.010554 
L 1278.133592 823.996771 
L 1308.963471 824.995941 
L 1339.79335 825.786367 
L 1364.457254 826.298041 
L 1364.457254 826.298041 
" clip-path="url(#p30d3be381f)" style="fill: none; stroke: #9467bd; stroke-width: 2; stroke-linecap: square"/>
   </g>
   <g id="line2d_18">
    <path d="M 137.428059 823.591314 
L 143.594035 822.449542 
L 149.760011 821.102337 
L 155.925987 819.522237 
L 162.091962 817.679796 
L 168.257938 815.543705 
L 174.423914 813.080961 
L 180.58989 810.257076 
L 186.755866 807.036341 
L 192.921842 803.382132 
L 199.087817 799.25726 
L 205.253793 794.624366 
L 211.419769 789.446351 
L 217.585745 783.686841 
L 223.751721 777.310674 
L 229.917697 770.284413 
L 236.083673 762.576864 
L 242.249648 754.159603 
L 248.415624 745.007498 
L 254.5816 735.099212 
L 260.747576 724.417689 
L 266.913552 712.950606 
L 273.079528 700.690784 
L 279.245504 687.636557 
L 285.411479 673.79208 
L 291.577455 659.167577 
L 297.743431 643.779528 
L 303.909407 627.650781 
L 310.075383 610.810588 
L 316.241359 593.294578 
L 322.407335 575.144635 
L 328.57331 556.408722 
L 334.739286 537.140619 
L 340.905262 517.399591 
L 353.237214 476.760848 
L 365.569165 435.059972 
L 390.233069 351.006802 
L 402.565021 309.994703 
L 408.730996 290.038293 
L 414.896972 270.558498 
L 421.062948 251.635314 
L 427.228924 233.345905 
L 433.3949 215.764044 
L 439.560876 198.959605 
L 445.726852 182.998094 
L 451.892827 167.940237 
L 458.058803 153.841611 
L 464.224779 140.752342 
L 470.390755 128.716852 
L 476.556731 117.773661 
L 482.722707 107.955257 
L 488.888683 99.288007 
L 495.054658 91.792136 
L 501.220634 85.481749 
L 507.38661 80.364908 
L 513.552586 76.443753 
L 519.718562 73.714669 
L 525.884538 72.168489 
L 532.050513 71.790736 
L 538.216489 72.561898 
L 544.382465 74.457721 
L 550.548441 77.44954 
L 556.714417 81.504614 
L 562.880393 86.586489 
L 569.046369 92.655358 
L 575.212344 99.668441 
L 581.37832 107.580357 
L 587.544296 116.343505 
L 593.710272 125.908431 
L 599.876248 136.224197 
L 606.042224 147.238738 
L 612.2082 158.899201 
L 618.374175 171.152282 
L 624.540151 183.944535 
L 630.706127 197.222668 
L 636.872103 210.933827 
L 643.038079 225.025847 
L 655.370031 254.148681 
L 667.701982 284.19621 
L 686.19991 330.197795 
L 710.863813 391.557727 
L 723.195765 421.61767 
L 735.527717 450.954692 
L 747.859668 479.38033 
L 754.025644 493.201772 
L 760.19162 506.73993 
L 766.357596 519.980478 
L 772.523572 532.910968 
L 778.689548 545.520753 
L 784.855523 557.800908 
L 791.021499 569.744145 
L 797.187475 581.344732 
L 803.353451 592.5984 
L 809.519427 603.50226 
L 815.685403 614.054711 
L 821.851379 624.255353 
L 828.017354 634.104902 
L 834.18333 643.605098 
L 840.349306 652.758629 
L 846.515282 661.569039 
L 852.681258 670.040657 
L 858.847234 678.178514 
L 865.01321 685.988271 
L 871.179185 693.476146 
L 877.345161 700.64885 
L 883.511137 707.513518 
L 889.677113 714.07765 
L 895.843089 720.349052 
L 902.009065 726.335785 
L 908.17504 732.046109 
L 914.341016 737.48844 
L 920.506992 742.671304 
L 926.672968 747.6033 
L 932.838944 752.293055 
L 939.00492 756.749199 
L 945.170896 760.980326 
L 951.336871 764.994971 
L 957.502847 768.801582 
L 963.668823 772.408499 
L 969.834799 775.823932 
L 976.000775 779.055944 
L 982.166751 782.112435 
L 988.332727 785.00113 
L 994.498702 787.729563 
L 1000.664678 790.305076 
L 1006.830654 792.734803 
L 1012.99663 795.025665 
L 1019.162606 797.18437 
L 1025.328582 799.217405 
L 1037.660533 802.931302 
L 1049.992485 806.214802 
L 1062.324437 809.111803 
L 1074.656388 811.662719 
L 1086.98834 813.90458 
L 1099.320292 815.871179 
L 1111.652244 817.593221 
L 1123.984195 819.098509 
L 1136.316147 820.412122 
L 1148.648099 821.556612 
L 1167.146026 822.999865 
L 1185.643954 824.166908 
L 1204.141881 825.107568 
L 1228.805785 826.080478 
L 1253.469688 826.803603 
L 1284.299567 827.448586 
L 1321.295423 827.957128 
L 1364.457254 828.314786 
L 1364.457254 828.314786 
" clip-path="url(#p30d3be381f)" style="fill: none; stroke: #8c564b; stroke-width: 2; stroke-linecap: square"/>
   </g>
   <g id="line2d_19">
    <path d="M 137.428059 805.142049 
L 143.594035 802.718428 
L 149.760011 800.086659 
L 155.925987 797.233487 
L 162.091962 794.145311 
L 168.257938 790.808222 
L 174.423914 787.208064 
L 180.58989 783.330486 
L 186.755866 779.161011 
L 192.921842 774.685109 
L 199.087817 769.88828 
L 205.253793 764.756135 
L 211.419769 759.274497 
L 217.585745 753.4295 
L 223.751721 747.207695 
L 229.917697 740.596168 
L 236.083673 733.582654 
L 242.249648 726.155666 
L 248.415624 718.304621 
L 254.5816 710.019976 
L 260.747576 701.293357 
L 266.913552 692.1177 
L 273.079528 682.487388 
L 279.245504 672.398387 
L 285.411479 661.848379 
L 291.577455 650.836897 
L 297.743431 639.365453 
L 303.909407 627.437653 
L 310.075383 615.059321 
L 316.241359 602.238597 
L 322.407335 588.986034 
L 328.57331 575.314687 
L 334.739286 561.240174 
L 340.905262 546.780741 
L 347.071238 531.957298 
L 353.237214 516.793443 
L 365.569165 485.552345 
L 377.901117 453.299712 
L 390.233069 420.319104 
L 427.228924 320.396608 
L 439.560876 288.039888 
L 445.726852 272.271722 
L 451.892827 256.848143 
L 458.058803 241.822623 
L 464.224779 227.248383 
L 470.390755 213.178073 
L 476.556731 199.663466 
L 482.722707 186.75514 
L 488.888683 174.502165 
L 495.054658 162.951796 
L 501.220634 152.149166 
L 507.38661 142.136997 
L 513.552586 132.955318 
L 519.718562 124.641197 
L 525.884538 117.228494 
L 532.050513 110.747629 
L 538.216489 105.225377 
L 544.382465 100.684682 
L 550.548441 97.144499 
L 556.714417 94.61966 
L 562.880393 93.120774 
L 569.046369 92.65415 
L 575.212344 93.221754 
L 581.37832 94.821194 
L 587.544296 97.44574 
L 593.710272 101.084366 
L 599.876248 105.721832 
L 606.042224 111.338787 
L 612.2082 117.911906 
L 618.374175 125.414051 
L 624.540151 133.814453 
L 630.706127 143.078931 
L 636.872103 153.170114 
L 643.038079 164.047701 
L 649.204055 175.66872 
L 655.370031 187.987818 
L 661.536006 200.95755 
L 667.701982 214.528684 
L 673.867958 228.650512 
L 680.033934 243.271161 
L 686.19991 258.337911 
L 692.365886 273.797505 
L 704.697837 305.681369 
L 717.029789 338.497544 
L 760.19162 454.894166 
L 772.523572 487.103659 
L 784.855523 518.28881 
L 791.021499 533.420532 
L 797.187475 548.209418 
L 803.353451 562.632133 
L 809.519427 576.668029 
L 815.685403 590.29912 
L 821.851379 603.510038 
L 828.017354 616.287979 
L 834.18333 628.622627 
L 840.349306 640.506073 
L 846.515282 651.932717 
L 852.681258 662.899159 
L 858.847234 673.404088 
L 865.01321 683.448158 
L 871.179185 693.033858 
L 877.345161 702.165385 
L 883.511137 710.848503 
L 889.677113 719.090409 
L 895.843089 726.899596 
L 902.009065 734.285717 
L 908.17504 741.259449 
L 914.341016 747.83236 
L 920.506992 754.016782 
L 926.672968 759.825689 
L 932.838944 765.272575 
L 939.00492 770.37134 
L 945.170896 775.136187 
L 951.336871 779.581519 
L 957.502847 783.721845 
L 963.668823 787.57169 
L 969.834799 791.145524 
L 976.000775 794.45768 
L 982.166751 797.522295 
L 988.332727 800.353248 
L 994.498702 802.964109 
L 1000.664678 805.368096 
L 1006.830654 807.578037 
L 1012.99663 809.606333 
L 1019.162606 811.464937 
L 1025.328582 813.165331 
L 1031.494558 814.718511 
L 1037.660533 816.134975 
L 1043.826509 817.424716 
L 1056.158461 819.661479 
L 1068.490413 821.498667 
L 1080.822364 822.998267 
L 1093.154316 824.21473 
L 1105.486268 825.19543 
L 1117.818219 825.981204 
L 1136.316147 826.869233 
L 1154.814075 827.491826 
L 1179.477978 828.033243 
L 1210.307857 828.413867 
L 1253.469688 828.6525 
L 1321.295423 828.758442 
L 1364.457254 828.773288 
L 1364.457254 828.773288 
" clip-path="url(#p30d3be381f)" style="fill: none; stroke: #e377c2; stroke-width: 2; stroke-linecap: square"/>
   </g>
   <g id="patch_103">
    <path d="M 72.685313 828.779375 
L 72.685313 38.075625 
" style="fill: none; stroke: #000000; stroke-width: 0.8; stroke-linejoin: miter; stroke-linecap: square"/>
   </g>
   <g id="patch_104">
    <path d="M 1429.2 828.779375 
L 1429.2 38.075625 
" style="fill: none; stroke: #000000; stroke-width: 0.8; stroke-linejoin: miter; stroke-linecap: square"/>
   </g>
   <g id="patch_105">
    <path d="M 72.685313 828.779375 
L 1429.2 828.779375 
" style="fill: none; stroke: #000000; stroke-width: 0.8; stroke-linejoin: miter; stroke-linecap: square"/>
   </g>
   <g id="patch_106">
    <path d="M 72.685313 38.075625 
L 1429.2 38.075625 
" style="fill: none; stroke: #000000; stroke-width: 0.8; stroke-linejoin: miter; stroke-linecap: square"/>
   </g>
   <g id="text_15">
    <!-- All Fitted Distributions -->
    <g transform="translate(596.317031 32.075625)scale(0.28 -0.28)">
     <defs>
      <path id="DejaVuSans-41" d="M 2188 4044 
L 1331 1722 
L 3047 1722 
L 2188 4044 
z
M 1831 4666 
L 2547 4666 
L 4325 0 
L 3669 0 
L 3244 1197 
L 1141 1197 
L 716 0 
L 50 0 
L 1831 4666 
z
" transform="scale(0.015625)"/>
      <path id="DejaVuSans-6c" d="M 603 4863 
L 1178 4863 
L 1178 0 
L 603 0 
L 603 4863 
z
" transform="scale(0.015625)"/>
      <path id="DejaVuSans-46" d="M 628 4666 
L 3309 4666 
L 3309 4134 
L 1259 4134 
L 1259 2759 
L 3109 2759 
L 3109 2228 
L 1259 2228 
L 1259 0 
L 628 0 
L 628 4666 
z
" transform="scale(0.015625)"/>
      <path id="DejaVuSans-44" d="M 1259 4147 
L 1259 519 
L 2022 519 
Q 2988 519 3436 956 
Q 3884 1394 3884 2338 
Q 3884 3275 3436 3711 
Q 2988 4147 2022 4147 
L 1259 4147 
z
M 628 4666 
L 1925 4666 
Q 3281 4666 3915 4102 
Q 4550 3538 4550 2338 
Q 4550 1131 3912 565 
Q 3275 0 1925 0 
L 628 0 
L 628 4666 
z
" transform="scale(0.015625)"/>
      <path id="DejaVuSans-62" d="M 3116 1747 
Q 3116 2381 2855 2742 
Q 2594 3103 2138 3103 
Q 1681 3103 1420 2742 
Q 1159 2381 1159 1747 
Q 1159 1113 1420 752 
Q 1681 391 2138 391 
Q 2594 391 2855 752 
Q 3116 1113 3116 1747 
z
M 1159 2969 
Q 1341 3281 1617 3432 
Q 1894 3584 2278 3584 
Q 2916 3584 3314 3078 
Q 3713 2572 3713 1747 
Q 3713 922 3314 415 
Q 2916 -91 2278 -91 
Q 1894 -91 1617 61 
Q 1341 213 1159 525 
L 1159 0 
L 581 0 
L 581 4863 
L 1159 4863 
L 1159 2969 
z
" transform="scale(0.015625)"/>
     </defs>
     <use xlink:href="#DejaVuSans-41"/>
     <use xlink:href="#DejaVuSans-6c" x="68.408203"/>
     <use xlink:href="#DejaVuSans-6c" x="96.191406"/>
     <use xlink:href="#DejaVuSans-20" x="123.974609"/>
     <use xlink:href="#DejaVuSans-46" x="155.761719"/>
     <use xlink:href="#DejaVuSans-69" x="206.03125"/>
     <use xlink:href="#DejaVuSans-74" x="233.814453"/>
     <use xlink:href="#DejaVuSans-74" x="273.023438"/>
     <use xlink:href="#DejaVuSans-65" x="312.232422"/>
     <use xlink:href="#DejaVuSans-64" x="373.755859"/>
     <use xlink:href="#DejaVuSans-20" x="437.232422"/>
     <use xlink:href="#DejaVuSans-44" x="469.019531"/>
     <use xlink:href="#DejaVuSans-69" x="546.021484"/>
     <use xlink:href="#DejaVuSans-73" x="573.804688"/>
     <use xlink:href="#DejaVuSans-74" x="625.904297"/>
     <use xlink:href="#DejaVuSans-72" x="665.113281"/>
     <use xlink:href="#DejaVuSans-69" x="706.226562"/>
     <use xlink:href="#DejaVuSans-62" x="734.009766"/>
     <use xlink:href="#DejaVuSans-75" x="797.486328"/>
     <use xlink:href="#DejaVuSans-74" x="860.865234"/>
     <use xlink:href="#DejaVuSans-69" x="900.074219"/>
     <use xlink:href="#DejaVuSans-6f" x="927.857422"/>
     <use xlink:href="#DejaVuSans-6e" x="989.039062"/>
     <use xlink:href="#DejaVuSans-73" x="1052.417969"/>
    </g>
   </g>
   <g id="legend_1">
    <g id="patch_107">
     <path d="M 1014.37125 303.868125 
L 1412.4 303.868125 
Q 1417.2 303.868125 1417.2 299.068125 
L 1417.2 54.875625 
Q 1417.2 50.075625 1412.4 50.075625 
L 1014.37125 50.075625 
Q 1009.57125 50.075625 1009.57125 54.875625 
L 1009.57125 299.068125 
Q 1009.57125 303.868125 1014.37125 303.868125 
z
" style="fill: #ffffff; opacity: 0.8; stroke: #cccccc; stroke-linejoin: miter"/>
    </g>
    <g id="patch_108">
     <path d="M 1019.17125 77.911875 
L 1067.17125 77.911875 
L 1067.17125 61.111875 
L 1019.17125 61.111875 
z
" style="fill: #1f77b4; opacity: 0.6"/>
    </g>
    <g id="text_16">
     <!-- Generated Chi Distribution -->
     <g transform="translate(1086.37125 77.911875)scale(0.24 -0.24)">
      <defs>
       <path id="DejaVuSans-47" d="M 3809 666 
L 3809 1919 
L 2778 1919 
L 2778 2438 
L 4434 2438 
L 4434 434 
Q 4069 175 3628 42 
Q 3188 -91 2688 -91 
Q 1594 -91 976 548 
Q 359 1188 359 2328 
Q 359 3472 976 4111 
Q 1594 4750 2688 4750 
Q 3144 4750 3555 4637 
Q 3966 4525 4313 4306 
L 4313 3634 
Q 3963 3931 3569 4081 
Q 3175 4231 2741 4231 
Q 1884 4231 1454 3753 
Q 1025 3275 1025 2328 
Q 1025 1384 1454 906 
Q 1884 428 2741 428 
Q 3075 428 3337 486 
Q 3600 544 3809 666 
z
" transform="scale(0.015625)"/>
       <path id="DejaVuSans-61" d="M 2194 1759 
Q 1497 1759 1228 1600 
Q 959 1441 959 1056 
Q 959 750 1161 570 
Q 1363 391 1709 391 
Q 2188 391 2477 730 
Q 2766 1069 2766 1631 
L 2766 1759 
L 2194 1759 
z
M 3341 1997 
L 3341 0 
L 2766 0 
L 2766 531 
Q 2569 213 2275 61 
Q 1981 -91 1556 -91 
Q 1019 -91 701 211 
Q 384 513 384 1019 
Q 384 1609 779 1909 
Q 1175 2209 1959 2209 
L 2766 2209 
L 2766 2266 
Q 2766 2663 2505 2880 
Q 2244 3097 1772 3097 
Q 1472 3097 1187 3025 
Q 903 2953 641 2809 
L 641 3341 
Q 956 3463 1253 3523 
Q 1550 3584 1831 3584 
Q 2591 3584 2966 3190 
Q 3341 2797 3341 1997 
z
" transform="scale(0.015625)"/>
       <path id="DejaVuSans-68" d="M 3513 2113 
L 3513 0 
L 2938 0 
L 2938 2094 
Q 2938 2591 2744 2837 
Q 2550 3084 2163 3084 
Q 1697 3084 1428 2787 
Q 1159 2491 1159 1978 
L 1159 0 
L 581 0 
L 581 4863 
L 1159 4863 
L 1159 2956 
Q 1366 3272 1645 3428 
Q 1925 3584 2291 3584 
Q 2894 3584 3203 3211 
Q 3513 2838 3513 2113 
z
" transform="scale(0.015625)"/>
      </defs>
      <use xlink:href="#DejaVuSans-47"/>
      <use xlink:href="#DejaVuSans-65" x="77.490234"/>
      <use xlink:href="#DejaVuSans-6e" x="139.013672"/>
      <use xlink:href="#DejaVuSans-65" x="202.392578"/>
      <use xlink:href="#DejaVuSans-72" x="263.916016"/>
      <use xlink:href="#DejaVuSans-61" x="305.029297"/>
      <use xlink:href="#DejaVuSans-74" x="366.308594"/>
      <use xlink:href="#DejaVuSans-65" x="405.517578"/>
      <use xlink:href="#DejaVuSans-64" x="467.041016"/>
      <use xlink:href="#DejaVuSans-20" x="530.517578"/>
      <use xlink:href="#DejaVuSans-43" x="562.304688"/>
      <use xlink:href="#DejaVuSans-68" x="632.128906"/>
      <use xlink:href="#DejaVuSans-69" x="695.507812"/>
      <use xlink:href="#DejaVuSans-20" x="723.291016"/>
      <use xlink:href="#DejaVuSans-44" x="755.078125"/>
      <use xlink:href="#DejaVuSans-69" x="832.080078"/>
      <use xlink:href="#DejaVuSans-73" x="859.863281"/>
      <use xlink:href="#DejaVuSans-74" x="911.962891"/>
      <use xlink:href="#DejaVuSans-72" x="951.171875"/>
      <use xlink:href="#DejaVuSans-69" x="992.285156"/>
      <use xlink:href="#DejaVuSans-62" x="1020.068359"/>
      <use xlink:href="#DejaVuSans-75" x="1083.544922"/>
      <use xlink:href="#DejaVuSans-74" x="1146.923828"/>
      <use xlink:href="#DejaVuSans-69" x="1186.132812"/>
      <use xlink:href="#DejaVuSans-6f" x="1213.916016"/>
      <use xlink:href="#DejaVuSans-6e" x="1275.097656"/>
     </g>
    </g>
    <g id="line2d_20">
     <path d="M 1019.17125 104.739375 
L 1043.17125 104.739375 
L 1067.17125 104.739375 
" style="fill: none; stroke: #ff7f0e; stroke-width: 2; stroke-linecap: square"/>
    </g>
    <g id="text_17">
     <!-- Chi fit -->
     <g transform="translate(1086.37125 113.139375)scale(0.24 -0.24)">
      <defs>
       <path id="DejaVuSans-66" d="M 2375 4863 
L 2375 4384 
L 1825 4384 
Q 1516 4384 1395 4259 
Q 1275 4134 1275 3809 
L 1275 3500 
L 2222 3500 
L 2222 3053 
L 1275 3053 
L 1275 0 
L 697 0 
L 697 3053 
L 147 3053 
L 147 3500 
L 697 3500 
L 697 3744 
Q 697 4328 969 4595 
Q 1241 4863 1831 4863 
L 2375 4863 
z
" transform="scale(0.015625)"/>
      </defs>
      <use xlink:href="#DejaVuSans-43"/>
      <use xlink:href="#DejaVuSans-68" x="69.824219"/>
      <use xlink:href="#DejaVuSans-69" x="133.203125"/>
      <use xlink:href="#DejaVuSans-20" x="160.986328"/>
      <use xlink:href="#DejaVuSans-66" x="192.773438"/>
      <use xlink:href="#DejaVuSans-69" x="227.978516"/>
      <use xlink:href="#DejaVuSans-74" x="255.761719"/>
     </g>
    </g>
    <g id="line2d_21">
     <path d="M 1019.17125 139.966875 
L 1043.17125 139.966875 
L 1067.17125 139.966875 
" style="fill: none; stroke: #2ca02c; stroke-width: 2; stroke-linecap: square"/>
    </g>
    <g id="text_18">
     <!-- Chi-Square fit -->
     <g transform="translate(1086.37125 148.366875)scale(0.24 -0.24)">
      <defs>
       <path id="DejaVuSans-2d" d="M 313 2009 
L 1997 2009 
L 1997 1497 
L 313 1497 
L 313 2009 
z
" transform="scale(0.015625)"/>
       <path id="DejaVuSans-53" d="M 3425 4513 
L 3425 3897 
Q 3066 4069 2747 4153 
Q 2428 4238 2131 4238 
Q 1616 4238 1336 4038 
Q 1056 3838 1056 3469 
Q 1056 3159 1242 3001 
Q 1428 2844 1947 2747 
L 2328 2669 
Q 3034 2534 3370 2195 
Q 3706 1856 3706 1288 
Q 3706 609 3251 259 
Q 2797 -91 1919 -91 
Q 1588 -91 1214 -16 
Q 841 59 441 206 
L 441 856 
Q 825 641 1194 531 
Q 1563 422 1919 422 
Q 2459 422 2753 634 
Q 3047 847 3047 1241 
Q 3047 1584 2836 1778 
Q 2625 1972 2144 2069 
L 1759 2144 
Q 1053 2284 737 2584 
Q 422 2884 422 3419 
Q 422 4038 858 4394 
Q 1294 4750 2059 4750 
Q 2388 4750 2728 4690 
Q 3069 4631 3425 4513 
z
" transform="scale(0.015625)"/>
       <path id="DejaVuSans-71" d="M 947 1747 
Q 947 1113 1208 752 
Q 1469 391 1925 391 
Q 2381 391 2643 752 
Q 2906 1113 2906 1747 
Q 2906 2381 2643 2742 
Q 2381 3103 1925 3103 
Q 1469 3103 1208 2742 
Q 947 2381 947 1747 
z
M 2906 525 
Q 2725 213 2448 61 
Q 2172 -91 1784 -91 
Q 1150 -91 751 415 
Q 353 922 353 1747 
Q 353 2572 751 3078 
Q 1150 3584 1784 3584 
Q 2172 3584 2448 3432 
Q 2725 3281 2906 2969 
L 2906 3500 
L 3481 3500 
L 3481 -1331 
L 2906 -1331 
L 2906 525 
z
" transform="scale(0.015625)"/>
      </defs>
      <use xlink:href="#DejaVuSans-43"/>
      <use xlink:href="#DejaVuSans-68" x="69.824219"/>
      <use xlink:href="#DejaVuSans-69" x="133.203125"/>
      <use xlink:href="#DejaVuSans-2d" x="160.986328"/>
      <use xlink:href="#DejaVuSans-53" x="197.070312"/>
      <use xlink:href="#DejaVuSans-71" x="260.546875"/>
      <use xlink:href="#DejaVuSans-75" x="324.023438"/>
      <use xlink:href="#DejaVuSans-61" x="387.402344"/>
      <use xlink:href="#DejaVuSans-72" x="448.681641"/>
      <use xlink:href="#DejaVuSans-65" x="487.544922"/>
      <use xlink:href="#DejaVuSans-20" x="549.068359"/>
      <use xlink:href="#DejaVuSans-66" x="580.855469"/>
      <use xlink:href="#DejaVuSans-69" x="616.060547"/>
      <use xlink:href="#DejaVuSans-74" x="643.84375"/>
     </g>
    </g>
    <g id="line2d_22">
     <path d="M 1019.17125 175.194375 
L 1043.17125 175.194375 
L 1067.17125 175.194375 
" style="fill: none; stroke: #d62728; stroke-width: 2; stroke-linecap: square"/>
    </g>
    <g id="text_19">
     <!-- Exponential fit -->
     <g transform="translate(1086.37125 183.594375)scale(0.24 -0.24)">
      <defs>
       <path id="DejaVuSans-45" d="M 628 4666 
L 3578 4666 
L 3578 4134 
L 1259 4134 
L 1259 2753 
L 3481 2753 
L 3481 2222 
L 1259 2222 
L 1259 531 
L 3634 531 
L 3634 0 
L 628 0 
L 628 4666 
z
" transform="scale(0.015625)"/>
       <path id="DejaVuSans-78" d="M 3513 3500 
L 2247 1797 
L 3578 0 
L 2900 0 
L 1881 1375 
L 863 0 
L 184 0 
L 1544 1831 
L 300 3500 
L 978 3500 
L 1906 2253 
L 2834 3500 
L 3513 3500 
z
" transform="scale(0.015625)"/>
       <path id="DejaVuSans-70" d="M 1159 525 
L 1159 -1331 
L 581 -1331 
L 581 3500 
L 1159 3500 
L 1159 2969 
Q 1341 3281 1617 3432 
Q 1894 3584 2278 3584 
Q 2916 3584 3314 3078 
Q 3713 2572 3713 1747 
Q 3713 922 3314 415 
Q 2916 -91 2278 -91 
Q 1894 -91 1617 61 
Q 1341 213 1159 525 
z
M 3116 1747 
Q 3116 2381 2855 2742 
Q 2594 3103 2138 3103 
Q 1681 3103 1420 2742 
Q 1159 2381 1159 1747 
Q 1159 1113 1420 752 
Q 1681 391 2138 391 
Q 2594 391 2855 752 
Q 3116 1113 3116 1747 
z
" transform="scale(0.015625)"/>
      </defs>
      <use xlink:href="#DejaVuSans-45"/>
      <use xlink:href="#DejaVuSans-78" x="63.183594"/>
      <use xlink:href="#DejaVuSans-70" x="122.363281"/>
      <use xlink:href="#DejaVuSans-6f" x="185.839844"/>
      <use xlink:href="#DejaVuSans-6e" x="247.021484"/>
      <use xlink:href="#DejaVuSans-65" x="310.400391"/>
      <use xlink:href="#DejaVuSans-6e" x="371.923828"/>
      <use xlink:href="#DejaVuSans-74" x="435.302734"/>
      <use xlink:href="#DejaVuSans-69" x="474.511719"/>
      <use xlink:href="#DejaVuSans-61" x="502.294922"/>
      <use xlink:href="#DejaVuSans-6c" x="563.574219"/>
      <use xlink:href="#DejaVuSans-20" x="591.357422"/>
      <use xlink:href="#DejaVuSans-66" x="623.144531"/>
      <use xlink:href="#DejaVuSans-69" x="658.349609"/>
      <use xlink:href="#DejaVuSans-74" x="686.132812"/>
     </g>
    </g>
    <g id="line2d_23">
     <path d="M 1019.17125 210.421875 
L 1043.17125 210.421875 
L 1067.17125 210.421875 
" style="fill: none; stroke: #9467bd; stroke-width: 2; stroke-linecap: square"/>
    </g>
    <g id="text_20">
     <!-- Laplace fit -->
     <g transform="translate(1086.37125 218.821875)scale(0.24 -0.24)">
      <defs>
       <path id="DejaVuSans-4c" d="M 628 4666 
L 1259 4666 
L 1259 531 
L 3531 531 
L 3531 0 
L 628 0 
L 628 4666 
z
" transform="scale(0.015625)"/>
       <path id="DejaVuSans-63" d="M 3122 3366 
L 3122 2828 
Q 2878 2963 2633 3030 
Q 2388 3097 2138 3097 
Q 1578 3097 1268 2742 
Q 959 2388 959 1747 
Q 959 1106 1268 751 
Q 1578 397 2138 397 
Q 2388 397 2633 464 
Q 2878 531 3122 666 
L 3122 134 
Q 2881 22 2623 -34 
Q 2366 -91 2075 -91 
Q 1284 -91 818 406 
Q 353 903 353 1747 
Q 353 2603 823 3093 
Q 1294 3584 2113 3584 
Q 2378 3584 2631 3529 
Q 2884 3475 3122 3366 
z
" transform="scale(0.015625)"/>
      </defs>
      <use xlink:href="#DejaVuSans-4c"/>
      <use xlink:href="#DejaVuSans-61" x="55.712891"/>
      <use xlink:href="#DejaVuSans-70" x="116.992188"/>
      <use xlink:href="#DejaVuSans-6c" x="180.46875"/>
      <use xlink:href="#DejaVuSans-61" x="208.251953"/>
      <use xlink:href="#DejaVuSans-63" x="269.53125"/>
      <use xlink:href="#DejaVuSans-65" x="324.511719"/>
      <use xlink:href="#DejaVuSans-20" x="386.035156"/>
      <use xlink:href="#DejaVuSans-66" x="417.822266"/>
      <use xlink:href="#DejaVuSans-69" x="453.027344"/>
      <use xlink:href="#DejaVuSans-74" x="480.810547"/>
     </g>
    </g>
    <g id="line2d_24">
     <path d="M 1019.17125 245.649375 
L 1043.17125 245.649375 
L 1067.17125 245.649375 
" style="fill: none; stroke: #8c564b; stroke-width: 2; stroke-linecap: square"/>
    </g>
    <g id="text_21">
     <!-- LogNorm fit -->
     <g transform="translate(1086.37125 254.049375)scale(0.24 -0.24)">
      <defs>
       <path id="DejaVuSans-67" d="M 2906 1791 
Q 2906 2416 2648 2759 
Q 2391 3103 1925 3103 
Q 1463 3103 1205 2759 
Q 947 2416 947 1791 
Q 947 1169 1205 825 
Q 1463 481 1925 481 
Q 2391 481 2648 825 
Q 2906 1169 2906 1791 
z
M 3481 434 
Q 3481 -459 3084 -895 
Q 2688 -1331 1869 -1331 
Q 1566 -1331 1297 -1286 
Q 1028 -1241 775 -1147 
L 775 -588 
Q 1028 -725 1275 -790 
Q 1522 -856 1778 -856 
Q 2344 -856 2625 -561 
Q 2906 -266 2906 331 
L 2906 616 
Q 2728 306 2450 153 
Q 2172 0 1784 0 
Q 1141 0 747 490 
Q 353 981 353 1791 
Q 353 2603 747 3093 
Q 1141 3584 1784 3584 
Q 2172 3584 2450 3431 
Q 2728 3278 2906 2969 
L 2906 3500 
L 3481 3500 
L 3481 434 
z
" transform="scale(0.015625)"/>
      </defs>
      <use xlink:href="#DejaVuSans-4c"/>
      <use xlink:href="#DejaVuSans-6f" x="53.962891"/>
      <use xlink:href="#DejaVuSans-67" x="115.144531"/>
      <use xlink:href="#DejaVuSans-4e" x="178.621094"/>
      <use xlink:href="#DejaVuSans-6f" x="253.425781"/>
      <use xlink:href="#DejaVuSans-72" x="314.607422"/>
      <use xlink:href="#DejaVuSans-6d" x="353.970703"/>
      <use xlink:href="#DejaVuSans-20" x="451.382812"/>
      <use xlink:href="#DejaVuSans-66" x="483.169922"/>
      <use xlink:href="#DejaVuSans-69" x="518.375"/>
      <use xlink:href="#DejaVuSans-74" x="546.158203"/>
     </g>
    </g>
    <g id="line2d_25">
     <path d="M 1019.17125 280.876875 
L 1043.17125 280.876875 
L 1067.17125 280.876875 
" style="fill: none; stroke: #e377c2; stroke-width: 2; stroke-linecap: square"/>
    </g>
    <g id="text_22">
     <!-- Normal fit -->
     <g transform="translate(1086.37125 289.276875)scale(0.24 -0.24)">
      <use xlink:href="#DejaVuSans-4e"/>
      <use xlink:href="#DejaVuSans-6f" x="74.804688"/>
      <use xlink:href="#DejaVuSans-72" x="135.986328"/>
      <use xlink:href="#DejaVuSans-6d" x="175.349609"/>
      <use xlink:href="#DejaVuSans-61" x="272.761719"/>
      <use xlink:href="#DejaVuSans-6c" x="334.041016"/>
      <use xlink:href="#DejaVuSans-20" x="361.824219"/>
      <use xlink:href="#DejaVuSans-66" x="393.611328"/>
      <use xlink:href="#DejaVuSans-69" x="428.816406"/>
      <use xlink:href="#DejaVuSans-74" x="456.599609"/>
     </g>
    </g>
   </g>
  </g>
 </g>
 <defs>
  <clipPath id="p30d3be381f">
   <rect x="72.685313" y="38.075625" width="1356.514688" height="790.70375"/>
  </clipPath>
 </defs>
</svg>
