<?xml version="1.0" encoding="utf-8" standalone="no"?>
<!DOCTYPE svg PUBLIC "-//W3C//DTD SVG 1.1//EN"
  "http://www.w3.org/Graphics/SVG/1.1/DTD/svg11.dtd">
<svg xmlns:xlink="http://www.w3.org/1999/xlink" width="1440pt" height="864pt" viewBox="0 0 1440 864" xmlns="http://www.w3.org/2000/svg" version="1.1">
 <metadata>
  <rdf:RDF xmlns:dc="http://purl.org/dc/elements/1.1/" xmlns:cc="http://creativecommons.org/ns#" xmlns:rdf="http://www.w3.org/1999/02/22-rdf-syntax-ns#">
   <cc:Work>
    <dc:type rdf:resource="http://purl.org/dc/dcmitype/StillImage"/>
    <dc:date>2023-03-10T23:45:32.820249</dc:date>
    <dc:format>image/svg+xml</dc:format>
    <dc:creator>
     <cc:Agent>
      <dc:title>Matplotlib v3.7.1, https://matplotlib.org/</dc:title>
     </cc:Agent>
    </dc:creator>
   </cc:Work>
  </rdf:RDF>
 </metadata>
 <defs>
  <style type="text/css">*{stroke-linejoin: round; stroke-linecap: butt}</style>
 </defs>
 <g id="figure_1">
  <g id="patch_1">
   <path d="M 0 864 
L 1440 864 
L 1440 0 
L 0 0 
z
" style="fill: #ffffff"/>
  </g>
  <g id="axes_1">
   <g id="patch_2">
    <path d="M 95.590313 828.779375 
L 1429.2 828.779375 
L 1429.2 38.075625 
L 95.590313 38.075625 
z
" style="fill: #ffffff"/>
   </g>
   <g id="patch_3">
    <path d="M 156.208935 828.779375 
L 168.332659 828.779375 
L 168.332659 693.719716 
L 156.208935 693.719716 
z
" clip-path="url(#pdc95fd6475)" style="fill: #1f77b4; opacity: 0.6"/>
   </g>
   <g id="patch_4">
    <path d="M 168.332659 828.779375 
L 180.456384 828.779375 
L 180.456384 470.252135 
L 168.332659 470.252135 
z
" clip-path="url(#pdc95fd6475)" style="fill: #1f77b4; opacity: 0.6"/>
   </g>
   <g id="patch_5">
    <path d="M 180.456384 828.779375 
L 192.580108 828.779375 
L 192.580108 366.293634 
L 180.456384 366.293634 
z
" clip-path="url(#pdc95fd6475)" style="fill: #1f77b4; opacity: 0.6"/>
   </g>
   <g id="patch_6">
    <path d="M 192.580108 828.779375 
L 204.703832 828.779375 
L 204.703832 249.664291 
L 192.580108 249.664291 
z
" clip-path="url(#pdc95fd6475)" style="fill: #1f77b4; opacity: 0.6"/>
   </g>
   <g id="patch_7">
    <path d="M 204.703832 828.779375 
L 216.827557 828.779375 
L 216.827557 176.518975 
L 204.703832 176.518975 
z
" clip-path="url(#pdc95fd6475)" style="fill: #1f77b4; opacity: 0.6"/>
   </g>
   <g id="patch_8">
    <path d="M 216.827557 828.779375 
L 228.951281 828.779375 
L 228.951281 134.76279 
L 216.827557 134.76279 
z
" clip-path="url(#pdc95fd6475)" style="fill: #1f77b4; opacity: 0.6"/>
   </g>
   <g id="patch_9">
    <path d="M 228.951281 828.779375 
L 241.075006 828.779375 
L 241.075006 98.190132 
L 228.951281 98.190132 
z
" clip-path="url(#pdc95fd6475)" style="fill: #1f77b4; opacity: 0.6"/>
   </g>
   <g id="patch_10">
    <path d="M 241.075006 828.779375 
L 253.19873 828.779375 
L 253.19873 75.728185 
L 241.075006 75.728185 
z
" clip-path="url(#pdc95fd6475)" style="fill: #1f77b4; opacity: 0.6"/>
   </g>
   <g id="patch_11">
    <path d="M 253.19873 828.779375 
L 265.322455 828.779375 
L 265.322455 109.421106 
L 253.19873 109.421106 
z
" clip-path="url(#pdc95fd6475)" style="fill: #1f77b4; opacity: 0.6"/>
   </g>
   <g id="patch_12">
    <path d="M 265.322455 828.779375 
L 277.446179 828.779375 
L 277.446179 109.70908 
L 265.322455 109.70908 
z
" clip-path="url(#pdc95fd6475)" style="fill: #1f77b4; opacity: 0.6"/>
   </g>
   <g id="patch_13">
    <path d="M 277.446179 828.779375 
L 289.569903 828.779375 
L 289.569903 158.95258 
L 277.446179 158.95258 
z
" clip-path="url(#pdc95fd6475)" style="fill: #1f77b4; opacity: 0.6"/>
   </g>
   <g id="patch_14">
    <path d="M 289.569903 828.779375 
L 301.693628 828.779375 
L 301.693628 204.452422 
L 289.569903 204.452422 
z
" clip-path="url(#pdc95fd6475)" style="fill: #1f77b4; opacity: 0.6"/>
   </g>
   <g id="patch_15">
    <path d="M 301.693628 828.779375 
L 313.817352 828.779375 
L 313.817352 220.003002 
L 301.693628 220.003002 
z
" clip-path="url(#pdc95fd6475)" style="fill: #1f77b4; opacity: 0.6"/>
   </g>
   <g id="patch_16">
    <path d="M 313.817352 828.779375 
L 325.941077 828.779375 
L 325.941077 264.062976 
L 313.817352 264.062976 
z
" clip-path="url(#pdc95fd6475)" style="fill: #1f77b4; opacity: 0.6"/>
   </g>
   <g id="patch_17">
    <path d="M 325.941077 828.779375 
L 338.064801 828.779375 
L 338.064801 288.828713 
L 325.941077 288.828713 
z
" clip-path="url(#pdc95fd6475)" style="fill: #1f77b4; opacity: 0.6"/>
   </g>
   <g id="patch_18">
    <path d="M 338.064801 828.779375 
L 350.188526 828.779375 
L 350.188526 336.344371 
L 338.064801 336.344371 
z
" clip-path="url(#pdc95fd6475)" style="fill: #1f77b4; opacity: 0.6"/>
   </g>
   <g id="patch_19">
    <path d="M 350.188526 828.779375 
L 362.31225 828.779375 
L 362.31225 353.046845 
L 350.188526 353.046845 
z
" clip-path="url(#pdc95fd6475)" style="fill: #1f77b4; opacity: 0.6"/>
   </g>
   <g id="patch_20">
    <path d="M 362.31225 828.779375 
L 374.435974 828.779375 
L 374.435974 396.242898 
L 362.31225 396.242898 
z
" clip-path="url(#pdc95fd6475)" style="fill: #1f77b4; opacity: 0.6"/>
   </g>
   <g id="patch_21">
    <path d="M 374.435974 828.779375 
L 386.559699 828.779375 
L 386.559699 437.423135 
L 374.435974 437.423135 
z
" clip-path="url(#pdc95fd6475)" style="fill: #1f77b4; opacity: 0.6"/>
   </g>
   <g id="patch_22">
    <path d="M 386.559699 828.779375 
L 398.683423 828.779375 
L 398.683423 473.131872 
L 386.559699 473.131872 
z
" clip-path="url(#pdc95fd6475)" style="fill: #1f77b4; opacity: 0.6"/>
   </g>
   <g id="patch_23">
    <path d="M 398.683423 828.779375 
L 410.807148 828.779375 
L 410.807148 497.897609 
L 398.683423 497.897609 
z
" clip-path="url(#pdc95fd6475)" style="fill: #1f77b4; opacity: 0.6"/>
   </g>
   <g id="patch_24">
    <path d="M 410.807148 828.779375 
L 422.930872 828.779375 
L 422.930872 526.407004 
L 410.807148 526.407004 
z
" clip-path="url(#pdc95fd6475)" style="fill: #1f77b4; opacity: 0.6"/>
   </g>
   <g id="patch_25">
    <path d="M 422.930872 828.779375 
L 435.054597 828.779375 
L 435.054597 552.036662 
L 422.930872 552.036662 
z
" clip-path="url(#pdc95fd6475)" style="fill: #1f77b4; opacity: 0.6"/>
   </g>
   <g id="patch_26">
    <path d="M 435.054597 828.779375 
L 447.178321 828.779375 
L 447.178321 585.153636 
L 435.054597 585.153636 
z
" clip-path="url(#pdc95fd6475)" style="fill: #1f77b4; opacity: 0.6"/>
   </g>
   <g id="patch_27">
    <path d="M 447.178321 828.779375 
L 459.302045 828.779375 
L 459.302045 592.352978 
L 447.178321 592.352978 
z
" clip-path="url(#pdc95fd6475)" style="fill: #1f77b4; opacity: 0.6"/>
   </g>
   <g id="patch_28">
    <path d="M 459.302045 828.779375 
L 471.42577 828.779375 
L 471.42577 617.694663 
L 459.302045 617.694663 
z
" clip-path="url(#pdc95fd6475)" style="fill: #1f77b4; opacity: 0.6"/>
   </g>
   <g id="patch_29">
    <path d="M 471.42577 828.779375 
L 483.549494 828.779375 
L 483.549494 642.172426 
L 471.42577 642.172426 
z
" clip-path="url(#pdc95fd6475)" style="fill: #1f77b4; opacity: 0.6"/>
   </g>
   <g id="patch_30">
    <path d="M 483.549494 828.779375 
L 495.673219 828.779375 
L 495.673219 643.324321 
L 483.549494 643.324321 
z
" clip-path="url(#pdc95fd6475)" style="fill: #1f77b4; opacity: 0.6"/>
   </g>
   <g id="patch_31">
    <path d="M 495.673219 828.779375 
L 507.796943 828.779375 
L 507.796943 682.200769 
L 495.673219 682.200769 
z
" clip-path="url(#pdc95fd6475)" style="fill: #1f77b4; opacity: 0.6"/>
   </g>
   <g id="patch_32">
    <path d="M 507.796943 828.779375 
L 519.920668 828.779375 
L 519.920668 689.976058 
L 507.796943 689.976058 
z
" clip-path="url(#pdc95fd6475)" style="fill: #1f77b4; opacity: 0.6"/>
   </g>
   <g id="patch_33">
    <path d="M 519.920668 828.779375 
L 532.044392 828.779375 
L 532.044392 713.877874 
L 519.920668 713.877874 
z
" clip-path="url(#pdc95fd6475)" style="fill: #1f77b4; opacity: 0.6"/>
   </g>
   <g id="patch_34">
    <path d="M 532.044392 828.779375 
L 544.168116 828.779375 
L 544.168116 706.678532 
L 532.044392 706.678532 
z
" clip-path="url(#pdc95fd6475)" style="fill: #1f77b4; opacity: 0.6"/>
   </g>
   <g id="patch_35">
    <path d="M 544.168116 828.779375 
L 556.291841 828.779375 
L 556.291841 728.276558 
L 544.168116 728.276558 
z
" clip-path="url(#pdc95fd6475)" style="fill: #1f77b4; opacity: 0.6"/>
   </g>
   <g id="patch_36">
    <path d="M 556.291841 828.779375 
L 568.415565 828.779375 
L 568.415565 737.77969 
L 556.291841 737.77969 
z
" clip-path="url(#pdc95fd6475)" style="fill: #1f77b4; opacity: 0.6"/>
   </g>
   <g id="patch_37">
    <path d="M 568.415565 828.779375 
L 580.53929 828.779375 
L 580.53929 745.267006 
L 568.415565 745.267006 
z
" clip-path="url(#pdc95fd6475)" style="fill: #1f77b4; opacity: 0.6"/>
   </g>
   <g id="patch_38">
    <path d="M 580.53929 828.779375 
L 592.663014 828.779375 
L 592.663014 758.513795 
L 580.53929 758.513795 
z
" clip-path="url(#pdc95fd6475)" style="fill: #1f77b4; opacity: 0.6"/>
   </g>
   <g id="patch_39">
    <path d="M 592.663014 828.779375 
L 604.786739 828.779375 
L 604.786739 757.073927 
L 592.663014 757.073927 
z
" clip-path="url(#pdc95fd6475)" style="fill: #1f77b4; opacity: 0.6"/>
   </g>
   <g id="patch_40">
    <path d="M 604.786739 828.779375 
L 616.910463 828.779375 
L 616.910463 771.472611 
L 604.786739 771.472611 
z
" clip-path="url(#pdc95fd6475)" style="fill: #1f77b4; opacity: 0.6"/>
   </g>
   <g id="patch_41">
    <path d="M 616.910463 828.779375 
L 629.034188 828.779375 
L 629.034188 778.671954 
L 616.910463 778.671954 
z
" clip-path="url(#pdc95fd6475)" style="fill: #1f77b4; opacity: 0.6"/>
   </g>
   <g id="patch_42">
    <path d="M 629.034188 828.779375 
L 641.157912 828.779375 
L 641.157912 780.687769 
L 629.034188 780.687769 
z
" clip-path="url(#pdc95fd6475)" style="fill: #1f77b4; opacity: 0.6"/>
   </g>
   <g id="patch_43">
    <path d="M 641.157912 828.779375 
L 653.281636 828.779375 
L 653.281636 791.918743 
L 641.157912 791.918743 
z
" clip-path="url(#pdc95fd6475)" style="fill: #1f77b4; opacity: 0.6"/>
   </g>
   <g id="patch_44">
    <path d="M 653.281636 828.779375 
L 665.405361 828.779375 
L 665.405361 797.102269 
L 653.281636 797.102269 
z
" clip-path="url(#pdc95fd6475)" style="fill: #1f77b4; opacity: 0.6"/>
   </g>
   <g id="patch_45">
    <path d="M 665.405361 828.779375 
L 677.529085 828.779375 
L 677.529085 803.149717 
L 665.405361 803.149717 
z
" clip-path="url(#pdc95fd6475)" style="fill: #1f77b4; opacity: 0.6"/>
   </g>
   <g id="patch_46">
    <path d="M 677.529085 828.779375 
L 689.65281 828.779375 
L 689.65281 797.966191 
L 677.529085 797.966191 
z
" clip-path="url(#pdc95fd6475)" style="fill: #1f77b4; opacity: 0.6"/>
   </g>
   <g id="patch_47">
    <path d="M 689.65281 828.779375 
L 701.776534 828.779375 
L 701.776534 803.149717 
L 689.65281 803.149717 
z
" clip-path="url(#pdc95fd6475)" style="fill: #1f77b4; opacity: 0.6"/>
   </g>
   <g id="patch_48">
    <path d="M 701.776534 828.779375 
L 713.900259 828.779375 
L 713.900259 803.149717 
L 701.776534 803.149717 
z
" clip-path="url(#pdc95fd6475)" style="fill: #1f77b4; opacity: 0.6"/>
   </g>
   <g id="patch_49">
    <path d="M 713.900259 828.779375 
L 726.023983 828.779375 
L 726.023983 809.197164 
L 713.900259 809.197164 
z
" clip-path="url(#pdc95fd6475)" style="fill: #1f77b4; opacity: 0.6"/>
   </g>
   <g id="patch_50">
    <path d="M 726.023983 828.779375 
L 738.147707 828.779375 
L 738.147707 806.893375 
L 726.023983 806.893375 
z
" clip-path="url(#pdc95fd6475)" style="fill: #1f77b4; opacity: 0.6"/>
   </g>
   <g id="patch_51">
    <path d="M 738.147707 828.779375 
L 750.271432 828.779375 
L 750.271432 813.228796 
L 738.147707 813.228796 
z
" clip-path="url(#pdc95fd6475)" style="fill: #1f77b4; opacity: 0.6"/>
   </g>
   <g id="patch_52">
    <path d="M 750.271432 828.779375 
L 762.395156 828.779375 
L 762.395156 816.972454 
L 750.271432 816.972454 
z
" clip-path="url(#pdc95fd6475)" style="fill: #1f77b4; opacity: 0.6"/>
   </g>
   <g id="patch_53">
    <path d="M 762.395156 828.779375 
L 774.518881 828.779375 
L 774.518881 814.380691 
L 762.395156 814.380691 
z
" clip-path="url(#pdc95fd6475)" style="fill: #1f77b4; opacity: 0.6"/>
   </g>
   <g id="patch_54">
    <path d="M 774.518881 828.779375 
L 786.642605 828.779375 
L 786.642605 816.108533 
L 774.518881 816.108533 
z
" clip-path="url(#pdc95fd6475)" style="fill: #1f77b4; opacity: 0.6"/>
   </g>
   <g id="patch_55">
    <path d="M 786.642605 828.779375 
L 798.76633 828.779375 
L 798.76633 818.412322 
L 786.642605 818.412322 
z
" clip-path="url(#pdc95fd6475)" style="fill: #1f77b4; opacity: 0.6"/>
   </g>
   <g id="patch_56">
    <path d="M 798.76633 828.779375 
L 810.890054 828.779375 
L 810.890054 822.443954 
L 798.76633 822.443954 
z
" clip-path="url(#pdc95fd6475)" style="fill: #1f77b4; opacity: 0.6"/>
   </g>
   <g id="patch_57">
    <path d="M 810.890054 828.779375 
L 823.013778 828.779375 
L 823.013778 820.428138 
L 810.890054 820.428138 
z
" clip-path="url(#pdc95fd6475)" style="fill: #1f77b4; opacity: 0.6"/>
   </g>
   <g id="patch_58">
    <path d="M 823.013778 828.779375 
L 835.137503 828.779375 
L 835.137503 818.98827 
L 823.013778 818.98827 
z
" clip-path="url(#pdc95fd6475)" style="fill: #1f77b4; opacity: 0.6"/>
   </g>
   <g id="patch_59">
    <path d="M 835.137503 828.779375 
L 847.261227 828.779375 
L 847.261227 821.004085 
L 835.137503 821.004085 
z
" clip-path="url(#pdc95fd6475)" style="fill: #1f77b4; opacity: 0.6"/>
   </g>
   <g id="patch_60">
    <path d="M 847.261227 828.779375 
L 859.384952 828.779375 
L 859.384952 823.019901 
L 847.261227 823.019901 
z
" clip-path="url(#pdc95fd6475)" style="fill: #1f77b4; opacity: 0.6"/>
   </g>
   <g id="patch_61">
    <path d="M 859.384952 828.779375 
L 871.508676 828.779375 
L 871.508676 825.323691 
L 859.384952 825.323691 
z
" clip-path="url(#pdc95fd6475)" style="fill: #1f77b4; opacity: 0.6"/>
   </g>
   <g id="patch_62">
    <path d="M 871.508676 828.779375 
L 883.632401 828.779375 
L 883.632401 823.019901 
L 871.508676 823.019901 
z
" clip-path="url(#pdc95fd6475)" style="fill: #1f77b4; opacity: 0.6"/>
   </g>
   <g id="patch_63">
    <path d="M 883.632401 828.779375 
L 895.756125 828.779375 
L 895.756125 823.595849 
L 883.632401 823.595849 
z
" clip-path="url(#pdc95fd6475)" style="fill: #1f77b4; opacity: 0.6"/>
   </g>
   <g id="patch_64">
    <path d="M 895.756125 828.779375 
L 907.879849 828.779375 
L 907.879849 824.747743 
L 895.756125 824.747743 
z
" clip-path="url(#pdc95fd6475)" style="fill: #1f77b4; opacity: 0.6"/>
   </g>
   <g id="patch_65">
    <path d="M 907.879849 828.779375 
L 920.003574 828.779375 
L 920.003574 826.475586 
L 907.879849 826.475586 
z
" clip-path="url(#pdc95fd6475)" style="fill: #1f77b4; opacity: 0.6"/>
   </g>
   <g id="patch_66">
    <path d="M 920.003574 828.779375 
L 932.127298 828.779375 
L 932.127298 826.763559 
L 920.003574 826.763559 
z
" clip-path="url(#pdc95fd6475)" style="fill: #1f77b4; opacity: 0.6"/>
   </g>
   <g id="patch_67">
    <path d="M 932.127298 828.779375 
L 944.251023 828.779375 
L 944.251023 824.171796 
L 932.127298 824.171796 
z
" clip-path="url(#pdc95fd6475)" style="fill: #1f77b4; opacity: 0.6"/>
   </g>
   <g id="patch_68">
    <path d="M 944.251023 828.779375 
L 956.374747 828.779375 
L 956.374747 827.62748 
L 944.251023 827.62748 
z
" clip-path="url(#pdc95fd6475)" style="fill: #1f77b4; opacity: 0.6"/>
   </g>
   <g id="patch_69">
    <path d="M 956.374747 828.779375 
L 968.498472 828.779375 
L 968.498472 824.45977 
L 956.374747 824.45977 
z
" clip-path="url(#pdc95fd6475)" style="fill: #1f77b4; opacity: 0.6"/>
   </g>
   <g id="patch_70">
    <path d="M 968.498472 828.779375 
L 980.622196 828.779375 
L 980.622196 826.187612 
L 968.498472 826.187612 
z
" clip-path="url(#pdc95fd6475)" style="fill: #1f77b4; opacity: 0.6"/>
   </g>
   <g id="patch_71">
    <path d="M 980.622196 828.779375 
L 992.74592 828.779375 
L 992.74592 827.62748 
L 980.622196 827.62748 
z
" clip-path="url(#pdc95fd6475)" style="fill: #1f77b4; opacity: 0.6"/>
   </g>
   <g id="patch_72">
    <path d="M 992.74592 828.779375 
L 1004.869645 828.779375 
L 1004.869645 827.915454 
L 992.74592 827.915454 
z
" clip-path="url(#pdc95fd6475)" style="fill: #1f77b4; opacity: 0.6"/>
   </g>
   <g id="patch_73">
    <path d="M 1004.869645 828.779375 
L 1016.993369 828.779375 
L 1016.993369 828.491401 
L 1004.869645 828.491401 
z
" clip-path="url(#pdc95fd6475)" style="fill: #1f77b4; opacity: 0.6"/>
   </g>
   <g id="patch_74">
    <path d="M 1016.993369 828.779375 
L 1029.117094 828.779375 
L 1029.117094 827.62748 
L 1016.993369 827.62748 
z
" clip-path="url(#pdc95fd6475)" style="fill: #1f77b4; opacity: 0.6"/>
   </g>
   <g id="patch_75">
    <path d="M 1029.117094 828.779375 
L 1041.240818 828.779375 
L 1041.240818 826.763559 
L 1029.117094 826.763559 
z
" clip-path="url(#pdc95fd6475)" style="fill: #1f77b4; opacity: 0.6"/>
   </g>
   <g id="patch_76">
    <path d="M 1041.240818 828.779375 
L 1053.364543 828.779375 
L 1053.364543 827.62748 
L 1041.240818 827.62748 
z
" clip-path="url(#pdc95fd6475)" style="fill: #1f77b4; opacity: 0.6"/>
   </g>
   <g id="patch_77">
    <path d="M 1053.364543 828.779375 
L 1065.488267 828.779375 
L 1065.488267 826.187612 
L 1053.364543 826.187612 
z
" clip-path="url(#pdc95fd6475)" style="fill: #1f77b4; opacity: 0.6"/>
   </g>
   <g id="patch_78">
    <path d="M 1065.488267 828.779375 
L 1077.611991 828.779375 
L 1077.611991 828.203428 
L 1065.488267 828.203428 
z
" clip-path="url(#pdc95fd6475)" style="fill: #1f77b4; opacity: 0.6"/>
   </g>
   <g id="patch_79">
    <path d="M 1077.611991 828.779375 
L 1089.735716 828.779375 
L 1089.735716 827.915454 
L 1077.611991 827.915454 
z
" clip-path="url(#pdc95fd6475)" style="fill: #1f77b4; opacity: 0.6"/>
   </g>
   <g id="patch_80">
    <path d="M 1089.735716 828.779375 
L 1101.85944 828.779375 
L 1101.85944 828.203428 
L 1089.735716 828.203428 
z
" clip-path="url(#pdc95fd6475)" style="fill: #1f77b4; opacity: 0.6"/>
   </g>
   <g id="patch_81">
    <path d="M 1101.85944 828.779375 
L 1113.983165 828.779375 
L 1113.983165 828.203428 
L 1101.85944 828.203428 
z
" clip-path="url(#pdc95fd6475)" style="fill: #1f77b4; opacity: 0.6"/>
   </g>
   <g id="patch_82">
    <path d="M 1113.983165 828.779375 
L 1126.106889 828.779375 
L 1126.106889 827.915454 
L 1113.983165 827.915454 
z
" clip-path="url(#pdc95fd6475)" style="fill: #1f77b4; opacity: 0.6"/>
   </g>
   <g id="patch_83">
    <path d="M 1126.106889 828.779375 
L 1138.230614 828.779375 
L 1138.230614 828.491401 
L 1126.106889 828.491401 
z
" clip-path="url(#pdc95fd6475)" style="fill: #1f77b4; opacity: 0.6"/>
   </g>
   <g id="patch_84">
    <path d="M 1138.230614 828.779375 
L 1150.354338 828.779375 
L 1150.354338 827.915454 
L 1138.230614 827.915454 
z
" clip-path="url(#pdc95fd6475)" style="fill: #1f77b4; opacity: 0.6"/>
   </g>
   <g id="patch_85">
    <path d="M 1150.354338 828.779375 
L 1162.478062 828.779375 
L 1162.478062 828.491401 
L 1150.354338 828.491401 
z
" clip-path="url(#pdc95fd6475)" style="fill: #1f77b4; opacity: 0.6"/>
   </g>
   <g id="patch_86">
    <path d="M 1162.478063 828.779375 
L 1174.601787 828.779375 
L 1174.601787 828.491401 
L 1162.478063 828.491401 
z
" clip-path="url(#pdc95fd6475)" style="fill: #1f77b4; opacity: 0.6"/>
   </g>
   <g id="patch_87">
    <path d="M 1174.601787 828.779375 
L 1186.725511 828.779375 
L 1186.725511 828.491401 
L 1174.601787 828.491401 
z
" clip-path="url(#pdc95fd6475)" style="fill: #1f77b4; opacity: 0.6"/>
   </g>
   <g id="patch_88">
    <path d="M 1186.725511 828.779375 
L 1198.849236 828.779375 
L 1198.849236 828.779375 
L 1186.725511 828.779375 
z
" clip-path="url(#pdc95fd6475)" style="fill: #1f77b4; opacity: 0.6"/>
   </g>
   <g id="patch_89">
    <path d="M 1198.849236 828.779375 
L 1210.97296 828.779375 
L 1210.97296 828.779375 
L 1198.849236 828.779375 
z
" clip-path="url(#pdc95fd6475)" style="fill: #1f77b4; opacity: 0.6"/>
   </g>
   <g id="patch_90">
    <path d="M 1210.97296 828.779375 
L 1223.096685 828.779375 
L 1223.096685 828.491401 
L 1210.97296 828.491401 
z
" clip-path="url(#pdc95fd6475)" style="fill: #1f77b4; opacity: 0.6"/>
   </g>
   <g id="patch_91">
    <path d="M 1223.096685 828.779375 
L 1235.220409 828.779375 
L 1235.220409 828.779375 
L 1223.096685 828.779375 
z
" clip-path="url(#pdc95fd6475)" style="fill: #1f77b4; opacity: 0.6"/>
   </g>
   <g id="patch_92">
    <path d="M 1235.220409 828.779375 
L 1247.344134 828.779375 
L 1247.344134 828.779375 
L 1235.220409 828.779375 
z
" clip-path="url(#pdc95fd6475)" style="fill: #1f77b4; opacity: 0.6"/>
   </g>
   <g id="patch_93">
    <path d="M 1247.344134 828.779375 
L 1259.467858 828.779375 
L 1259.467858 828.491401 
L 1247.344134 828.491401 
z
" clip-path="url(#pdc95fd6475)" style="fill: #1f77b4; opacity: 0.6"/>
   </g>
   <g id="patch_94">
    <path d="M 1259.467858 828.779375 
L 1271.591582 828.779375 
L 1271.591582 828.779375 
L 1259.467858 828.779375 
z
" clip-path="url(#pdc95fd6475)" style="fill: #1f77b4; opacity: 0.6"/>
   </g>
   <g id="patch_95">
    <path d="M 1271.591582 828.779375 
L 1283.715307 828.779375 
L 1283.715307 828.491401 
L 1271.591582 828.491401 
z
" clip-path="url(#pdc95fd6475)" style="fill: #1f77b4; opacity: 0.6"/>
   </g>
   <g id="patch_96">
    <path d="M 1283.715307 828.779375 
L 1295.839031 828.779375 
L 1295.839031 828.779375 
L 1283.715307 828.779375 
z
" clip-path="url(#pdc95fd6475)" style="fill: #1f77b4; opacity: 0.6"/>
   </g>
   <g id="patch_97">
    <path d="M 1295.839031 828.779375 
L 1307.962756 828.779375 
L 1307.962756 828.779375 
L 1295.839031 828.779375 
z
" clip-path="url(#pdc95fd6475)" style="fill: #1f77b4; opacity: 0.6"/>
   </g>
   <g id="patch_98">
    <path d="M 1307.962756 828.779375 
L 1320.08648 828.779375 
L 1320.08648 828.779375 
L 1307.962756 828.779375 
z
" clip-path="url(#pdc95fd6475)" style="fill: #1f77b4; opacity: 0.6"/>
   </g>
   <g id="patch_99">
    <path d="M 1320.08648 828.779375 
L 1332.210205 828.779375 
L 1332.210205 828.779375 
L 1320.08648 828.779375 
z
" clip-path="url(#pdc95fd6475)" style="fill: #1f77b4; opacity: 0.6"/>
   </g>
   <g id="patch_100">
    <path d="M 1332.210205 828.779375 
L 1344.333929 828.779375 
L 1344.333929 828.779375 
L 1332.210205 828.779375 
z
" clip-path="url(#pdc95fd6475)" style="fill: #1f77b4; opacity: 0.6"/>
   </g>
   <g id="patch_101">
    <path d="M 1344.333929 828.779375 
L 1356.457653 828.779375 
L 1356.457653 828.779375 
L 1344.333929 828.779375 
z
" clip-path="url(#pdc95fd6475)" style="fill: #1f77b4; opacity: 0.6"/>
   </g>
   <g id="patch_102">
    <path d="M 1356.457653 828.779375 
L 1368.581378 828.779375 
L 1368.581378 828.491401 
L 1356.457653 828.491401 
z
" clip-path="url(#pdc95fd6475)" style="fill: #1f77b4; opacity: 0.6"/>
   </g>
   <g id="matplotlib.axis_1">
    <g id="xtick_1">
     <g id="line2d_1">
      <defs>
       <path id="m2777a44d56" d="M 0 0 
L 0 3.5 
" style="stroke: #000000; stroke-width: 0.8"/>
      </defs>
      <g>
       <use xlink:href="#m2777a44d56" x="155.265115" y="828.779375" style="stroke: #000000; stroke-width: 0.8"/>
      </g>
     </g>
     <g id="text_1">
      <!-- 0 -->
      <g transform="translate(149.538865 849.456562) scale(0.18 -0.18)">
       <defs>
        <path id="DejaVuSans-30" d="M 2034 4250 
Q 1547 4250 1301 3770 
Q 1056 3291 1056 2328 
Q 1056 1369 1301 889 
Q 1547 409 2034 409 
Q 2525 409 2770 889 
Q 3016 1369 3016 2328 
Q 3016 3291 2770 3770 
Q 2525 4250 2034 4250 
z
M 2034 4750 
Q 2819 4750 3233 4129 
Q 3647 3509 3647 2328 
Q 3647 1150 3233 529 
Q 2819 -91 2034 -91 
Q 1250 -91 836 529 
Q 422 1150 422 2328 
Q 422 3509 836 4129 
Q 1250 4750 2034 4750 
z
" transform="scale(0.015625)"/>
       </defs>
       <use xlink:href="#DejaVuSans-30"/>
      </g>
     </g>
    </g>
    <g id="xtick_2">
     <g id="line2d_2">
      <g>
       <use xlink:href="#m2777a44d56" x="376.534052" y="828.779375" style="stroke: #000000; stroke-width: 0.8"/>
      </g>
     </g>
     <g id="text_2">
      <!-- 5 -->
      <g transform="translate(370.807802 849.456562) scale(0.18 -0.18)">
       <defs>
        <path id="DejaVuSans-35" d="M 691 4666 
L 3169 4666 
L 3169 4134 
L 1269 4134 
L 1269 2991 
Q 1406 3038 1543 3061 
Q 1681 3084 1819 3084 
Q 2600 3084 3056 2656 
Q 3513 2228 3513 1497 
Q 3513 744 3044 326 
Q 2575 -91 1722 -91 
Q 1428 -91 1123 -41 
Q 819 9 494 109 
L 494 744 
Q 775 591 1075 516 
Q 1375 441 1709 441 
Q 2250 441 2565 725 
Q 2881 1009 2881 1497 
Q 2881 1984 2565 2268 
Q 2250 2553 1709 2553 
Q 1456 2553 1204 2497 
Q 953 2441 691 2322 
L 691 4666 
z
" transform="scale(0.015625)"/>
       </defs>
       <use xlink:href="#DejaVuSans-35"/>
      </g>
     </g>
    </g>
    <g id="xtick_3">
     <g id="line2d_3">
      <g>
       <use xlink:href="#m2777a44d56" x="597.802988" y="828.779375" style="stroke: #000000; stroke-width: 0.8"/>
      </g>
     </g>
     <g id="text_3">
      <!-- 10 -->
      <g transform="translate(586.350488 849.456562) scale(0.18 -0.18)">
       <defs>
        <path id="DejaVuSans-31" d="M 794 531 
L 1825 531 
L 1825 4091 
L 703 3866 
L 703 4441 
L 1819 4666 
L 2450 4666 
L 2450 531 
L 3481 531 
L 3481 0 
L 794 0 
L 794 531 
z
" transform="scale(0.015625)"/>
       </defs>
       <use xlink:href="#DejaVuSans-31"/>
       <use xlink:href="#DejaVuSans-30" x="63.623047"/>
      </g>
     </g>
    </g>
    <g id="xtick_4">
     <g id="line2d_4">
      <g>
       <use xlink:href="#m2777a44d56" x="819.071924" y="828.779375" style="stroke: #000000; stroke-width: 0.8"/>
      </g>
     </g>
     <g id="text_4">
      <!-- 15 -->
      <g transform="translate(807.619424 849.456562) scale(0.18 -0.18)">
       <use xlink:href="#DejaVuSans-31"/>
       <use xlink:href="#DejaVuSans-35" x="63.623047"/>
      </g>
     </g>
    </g>
    <g id="xtick_5">
     <g id="line2d_5">
      <g>
       <use xlink:href="#m2777a44d56" x="1040.340861" y="828.779375" style="stroke: #000000; stroke-width: 0.8"/>
      </g>
     </g>
     <g id="text_5">
      <!-- 20 -->
      <g transform="translate(1028.888361 849.456562) scale(0.18 -0.18)">
       <defs>
        <path id="DejaVuSans-32" d="M 1228 531 
L 3431 531 
L 3431 0 
L 469 0 
L 469 531 
Q 828 903 1448 1529 
Q 2069 2156 2228 2338 
Q 2531 2678 2651 2914 
Q 2772 3150 2772 3378 
Q 2772 3750 2511 3984 
Q 2250 4219 1831 4219 
Q 1534 4219 1204 4116 
Q 875 4013 500 3803 
L 500 4441 
Q 881 4594 1212 4672 
Q 1544 4750 1819 4750 
Q 2544 4750 2975 4387 
Q 3406 4025 3406 3419 
Q 3406 3131 3298 2873 
Q 3191 2616 2906 2266 
Q 2828 2175 2409 1742 
Q 1991 1309 1228 531 
z
" transform="scale(0.015625)"/>
       </defs>
       <use xlink:href="#DejaVuSans-32"/>
       <use xlink:href="#DejaVuSans-30" x="63.623047"/>
      </g>
     </g>
    </g>
    <g id="xtick_6">
     <g id="line2d_6">
      <g>
       <use xlink:href="#m2777a44d56" x="1261.609797" y="828.779375" style="stroke: #000000; stroke-width: 0.8"/>
      </g>
     </g>
     <g id="text_6">
      <!-- 25 -->
      <g transform="translate(1250.157297 849.456562) scale(0.18 -0.18)">
       <use xlink:href="#DejaVuSans-32"/>
       <use xlink:href="#DejaVuSans-35" x="63.623047"/>
      </g>
     </g>
    </g>
   </g>
   <g id="matplotlib.axis_2">
    <g id="ytick_1">
     <g id="line2d_7">
      <defs>
       <path id="ma3116b68b0" d="M 0 0 
L -3.5 0 
" style="stroke: #000000; stroke-width: 0.8"/>
      </defs>
      <g>
       <use xlink:href="#ma3116b68b0" x="95.590313" y="828.779375" style="stroke: #000000; stroke-width: 0.8"/>
      </g>
     </g>
     <g id="text_7">
      <!-- 0.000 -->
      <g transform="translate(37.059688 835.617969) scale(0.18 -0.18)">
       <defs>
        <path id="DejaVuSans-2e" d="M 684 794 
L 1344 794 
L 1344 0 
L 684 0 
L 684 794 
z
" transform="scale(0.015625)"/>
       </defs>
       <use xlink:href="#DejaVuSans-30"/>
       <use xlink:href="#DejaVuSans-2e" x="63.623047"/>
       <use xlink:href="#DejaVuSans-30" x="95.410156"/>
       <use xlink:href="#DejaVuSans-30" x="159.033203"/>
       <use xlink:href="#DejaVuSans-30" x="222.65625"/>
      </g>
     </g>
    </g>
    <g id="ytick_2">
     <g id="line2d_8">
      <g>
       <use xlink:href="#ma3116b68b0" x="95.590313" y="730.163137" style="stroke: #000000; stroke-width: 0.8"/>
      </g>
     </g>
     <g id="text_8">
      <!-- 0.025 -->
      <g transform="translate(37.059688 737.001731) scale(0.18 -0.18)">
       <use xlink:href="#DejaVuSans-30"/>
       <use xlink:href="#DejaVuSans-2e" x="63.623047"/>
       <use xlink:href="#DejaVuSans-30" x="95.410156"/>
       <use xlink:href="#DejaVuSans-32" x="159.033203"/>
       <use xlink:href="#DejaVuSans-35" x="222.65625"/>
      </g>
     </g>
    </g>
    <g id="ytick_3">
     <g id="line2d_9">
      <g>
       <use xlink:href="#ma3116b68b0" x="95.590313" y="631.546899" style="stroke: #000000; stroke-width: 0.8"/>
      </g>
     </g>
     <g id="text_9">
      <!-- 0.050 -->
      <g transform="translate(37.059688 638.385493) scale(0.18 -0.18)">
       <use xlink:href="#DejaVuSans-30"/>
       <use xlink:href="#DejaVuSans-2e" x="63.623047"/>
       <use xlink:href="#DejaVuSans-30" x="95.410156"/>
       <use xlink:href="#DejaVuSans-35" x="159.033203"/>
       <use xlink:href="#DejaVuSans-30" x="222.65625"/>
      </g>
     </g>
    </g>
    <g id="ytick_4">
     <g id="line2d_10">
      <g>
       <use xlink:href="#ma3116b68b0" x="95.590313" y="532.930661" style="stroke: #000000; stroke-width: 0.8"/>
      </g>
     </g>
     <g id="text_10">
      <!-- 0.075 -->
      <g transform="translate(37.059688 539.769254) scale(0.18 -0.18)">
       <defs>
        <path id="DejaVuSans-37" d="M 525 4666 
L 3525 4666 
L 3525 4397 
L 1831 0 
L 1172 0 
L 2766 4134 
L 525 4134 
L 525 4666 
z
" transform="scale(0.015625)"/>
       </defs>
       <use xlink:href="#DejaVuSans-30"/>
       <use xlink:href="#DejaVuSans-2e" x="63.623047"/>
       <use xlink:href="#DejaVuSans-30" x="95.410156"/>
       <use xlink:href="#DejaVuSans-37" x="159.033203"/>
       <use xlink:href="#DejaVuSans-35" x="222.65625"/>
      </g>
     </g>
    </g>
    <g id="ytick_5">
     <g id="line2d_11">
      <g>
       <use xlink:href="#ma3116b68b0" x="95.590313" y="434.314423" style="stroke: #000000; stroke-width: 0.8"/>
      </g>
     </g>
     <g id="text_11">
      <!-- 0.100 -->
      <g transform="translate(37.059688 441.153016) scale(0.18 -0.18)">
       <use xlink:href="#DejaVuSans-30"/>
       <use xlink:href="#DejaVuSans-2e" x="63.623047"/>
       <use xlink:href="#DejaVuSans-31" x="95.410156"/>
       <use xlink:href="#DejaVuSans-30" x="159.033203"/>
       <use xlink:href="#DejaVuSans-30" x="222.65625"/>
      </g>
     </g>
    </g>
    <g id="ytick_6">
     <g id="line2d_12">
      <g>
       <use xlink:href="#ma3116b68b0" x="95.590313" y="335.698184" style="stroke: #000000; stroke-width: 0.8"/>
      </g>
     </g>
     <g id="text_12">
      <!-- 0.125 -->
      <g transform="translate(37.059688 342.536778) scale(0.18 -0.18)">
       <use xlink:href="#DejaVuSans-30"/>
       <use xlink:href="#DejaVuSans-2e" x="63.623047"/>
       <use xlink:href="#DejaVuSans-31" x="95.410156"/>
       <use xlink:href="#DejaVuSans-32" x="159.033203"/>
       <use xlink:href="#DejaVuSans-35" x="222.65625"/>
      </g>
     </g>
    </g>
    <g id="ytick_7">
     <g id="line2d_13">
      <g>
       <use xlink:href="#ma3116b68b0" x="95.590313" y="237.081946" style="stroke: #000000; stroke-width: 0.8"/>
      </g>
     </g>
     <g id="text_13">
      <!-- 0.150 -->
      <g transform="translate(37.059688 243.92054) scale(0.18 -0.18)">
       <use xlink:href="#DejaVuSans-30"/>
       <use xlink:href="#DejaVuSans-2e" x="63.623047"/>
       <use xlink:href="#DejaVuSans-31" x="95.410156"/>
       <use xlink:href="#DejaVuSans-35" x="159.033203"/>
       <use xlink:href="#DejaVuSans-30" x="222.65625"/>
      </g>
     </g>
    </g>
    <g id="ytick_8">
     <g id="line2d_14">
      <g>
       <use xlink:href="#ma3116b68b0" x="95.590313" y="138.465708" style="stroke: #000000; stroke-width: 0.8"/>
      </g>
     </g>
     <g id="text_14">
      <!-- 0.175 -->
      <g transform="translate(37.059688 145.304302) scale(0.18 -0.18)">
       <use xlink:href="#DejaVuSans-30"/>
       <use xlink:href="#DejaVuSans-2e" x="63.623047"/>
       <use xlink:href="#DejaVuSans-31" x="95.410156"/>
       <use xlink:href="#DejaVuSans-37" x="159.033203"/>
       <use xlink:href="#DejaVuSans-35" x="222.65625"/>
      </g>
     </g>
    </g>
    <g id="ytick_9">
     <g id="line2d_15">
      <g>
       <use xlink:href="#ma3116b68b0" x="95.590313" y="39.84947" style="stroke: #000000; stroke-width: 0.8"/>
      </g>
     </g>
     <g id="text_15">
      <!-- 0.200 -->
      <g transform="translate(37.059688 46.688064) scale(0.18 -0.18)">
       <use xlink:href="#DejaVuSans-30"/>
       <use xlink:href="#DejaVuSans-2e" x="63.623047"/>
       <use xlink:href="#DejaVuSans-32" x="95.410156"/>
       <use xlink:href="#DejaVuSans-30" x="159.033203"/>
       <use xlink:href="#DejaVuSans-30" x="222.65625"/>
      </g>
     </g>
    </g>
    <g id="text_16">
     <!-- Normed Hist Counts -->
     <g transform="translate(28.276406 548.966563) rotate(-90) scale(0.23 -0.23)">
      <defs>
       <path id="DejaVuSans-4e" d="M 628 4666 
L 1478 4666 
L 3547 763 
L 3547 4666 
L 4159 4666 
L 4159 0 
L 3309 0 
L 1241 3903 
L 1241 0 
L 628 0 
L 628 4666 
z
" transform="scale(0.015625)"/>
       <path id="DejaVuSans-6f" d="M 1959 3097 
Q 1497 3097 1228 2736 
Q 959 2375 959 1747 
Q 959 1119 1226 758 
Q 1494 397 1959 397 
Q 2419 397 2687 759 
Q 2956 1122 2956 1747 
Q 2956 2369 2687 2733 
Q 2419 3097 1959 3097 
z
M 1959 3584 
Q 2709 3584 3137 3096 
Q 3566 2609 3566 1747 
Q 3566 888 3137 398 
Q 2709 -91 1959 -91 
Q 1206 -91 779 398 
Q 353 888 353 1747 
Q 353 2609 779 3096 
Q 1206 3584 1959 3584 
z
" transform="scale(0.015625)"/>
       <path id="DejaVuSans-72" d="M 2631 2963 
Q 2534 3019 2420 3045 
Q 2306 3072 2169 3072 
Q 1681 3072 1420 2755 
Q 1159 2438 1159 1844 
L 1159 0 
L 581 0 
L 581 3500 
L 1159 3500 
L 1159 2956 
Q 1341 3275 1631 3429 
Q 1922 3584 2338 3584 
Q 2397 3584 2469 3576 
Q 2541 3569 2628 3553 
L 2631 2963 
z
" transform="scale(0.015625)"/>
       <path id="DejaVuSans-6d" d="M 3328 2828 
Q 3544 3216 3844 3400 
Q 4144 3584 4550 3584 
Q 5097 3584 5394 3201 
Q 5691 2819 5691 2113 
L 5691 0 
L 5113 0 
L 5113 2094 
Q 5113 2597 4934 2840 
Q 4756 3084 4391 3084 
Q 3944 3084 3684 2787 
Q 3425 2491 3425 1978 
L 3425 0 
L 2847 0 
L 2847 2094 
Q 2847 2600 2669 2842 
Q 2491 3084 2119 3084 
Q 1678 3084 1418 2786 
Q 1159 2488 1159 1978 
L 1159 0 
L 581 0 
L 581 3500 
L 1159 3500 
L 1159 2956 
Q 1356 3278 1631 3431 
Q 1906 3584 2284 3584 
Q 2666 3584 2933 3390 
Q 3200 3197 3328 2828 
z
" transform="scale(0.015625)"/>
       <path id="DejaVuSans-65" d="M 3597 1894 
L 3597 1613 
L 953 1613 
Q 991 1019 1311 708 
Q 1631 397 2203 397 
Q 2534 397 2845 478 
Q 3156 559 3463 722 
L 3463 178 
Q 3153 47 2828 -22 
Q 2503 -91 2169 -91 
Q 1331 -91 842 396 
Q 353 884 353 1716 
Q 353 2575 817 3079 
Q 1281 3584 2069 3584 
Q 2775 3584 3186 3129 
Q 3597 2675 3597 1894 
z
M 3022 2063 
Q 3016 2534 2758 2815 
Q 2500 3097 2075 3097 
Q 1594 3097 1305 2825 
Q 1016 2553 972 2059 
L 3022 2063 
z
" transform="scale(0.015625)"/>
       <path id="DejaVuSans-64" d="M 2906 2969 
L 2906 4863 
L 3481 4863 
L 3481 0 
L 2906 0 
L 2906 525 
Q 2725 213 2448 61 
Q 2172 -91 1784 -91 
Q 1150 -91 751 415 
Q 353 922 353 1747 
Q 353 2572 751 3078 
Q 1150 3584 1784 3584 
Q 2172 3584 2448 3432 
Q 2725 3281 2906 2969 
z
M 947 1747 
Q 947 1113 1208 752 
Q 1469 391 1925 391 
Q 2381 391 2643 752 
Q 2906 1113 2906 1747 
Q 2906 2381 2643 2742 
Q 2381 3103 1925 3103 
Q 1469 3103 1208 2742 
Q 947 2381 947 1747 
z
" transform="scale(0.015625)"/>
       <path id="DejaVuSans-20" transform="scale(0.015625)"/>
       <path id="DejaVuSans-48" d="M 628 4666 
L 1259 4666 
L 1259 2753 
L 3553 2753 
L 3553 4666 
L 4184 4666 
L 4184 0 
L 3553 0 
L 3553 2222 
L 1259 2222 
L 1259 0 
L 628 0 
L 628 4666 
z
" transform="scale(0.015625)"/>
       <path id="DejaVuSans-69" d="M 603 3500 
L 1178 3500 
L 1178 0 
L 603 0 
L 603 3500 
z
M 603 4863 
L 1178 4863 
L 1178 4134 
L 603 4134 
L 603 4863 
z
" transform="scale(0.015625)"/>
       <path id="DejaVuSans-73" d="M 2834 3397 
L 2834 2853 
Q 2591 2978 2328 3040 
Q 2066 3103 1784 3103 
Q 1356 3103 1142 2972 
Q 928 2841 928 2578 
Q 928 2378 1081 2264 
Q 1234 2150 1697 2047 
L 1894 2003 
Q 2506 1872 2764 1633 
Q 3022 1394 3022 966 
Q 3022 478 2636 193 
Q 2250 -91 1575 -91 
Q 1294 -91 989 -36 
Q 684 19 347 128 
L 347 722 
Q 666 556 975 473 
Q 1284 391 1588 391 
Q 1994 391 2212 530 
Q 2431 669 2431 922 
Q 2431 1156 2273 1281 
Q 2116 1406 1581 1522 
L 1381 1569 
Q 847 1681 609 1914 
Q 372 2147 372 2553 
Q 372 3047 722 3315 
Q 1072 3584 1716 3584 
Q 2034 3584 2315 3537 
Q 2597 3491 2834 3397 
z
" transform="scale(0.015625)"/>
       <path id="DejaVuSans-74" d="M 1172 4494 
L 1172 3500 
L 2356 3500 
L 2356 3053 
L 1172 3053 
L 1172 1153 
Q 1172 725 1289 603 
Q 1406 481 1766 481 
L 2356 481 
L 2356 0 
L 1766 0 
Q 1100 0 847 248 
Q 594 497 594 1153 
L 594 3053 
L 172 3053 
L 172 3500 
L 594 3500 
L 594 4494 
L 1172 4494 
z
" transform="scale(0.015625)"/>
       <path id="DejaVuSans-43" d="M 4122 4306 
L 4122 3641 
Q 3803 3938 3442 4084 
Q 3081 4231 2675 4231 
Q 1875 4231 1450 3742 
Q 1025 3253 1025 2328 
Q 1025 1406 1450 917 
Q 1875 428 2675 428 
Q 3081 428 3442 575 
Q 3803 722 4122 1019 
L 4122 359 
Q 3791 134 3420 21 
Q 3050 -91 2638 -91 
Q 1578 -91 968 557 
Q 359 1206 359 2328 
Q 359 3453 968 4101 
Q 1578 4750 2638 4750 
Q 3056 4750 3426 4639 
Q 3797 4528 4122 4306 
z
" transform="scale(0.015625)"/>
       <path id="DejaVuSans-75" d="M 544 1381 
L 544 3500 
L 1119 3500 
L 1119 1403 
Q 1119 906 1312 657 
Q 1506 409 1894 409 
Q 2359 409 2629 706 
Q 2900 1003 2900 1516 
L 2900 3500 
L 3475 3500 
L 3475 0 
L 2900 0 
L 2900 538 
Q 2691 219 2414 64 
Q 2138 -91 1772 -91 
Q 1169 -91 856 284 
Q 544 659 544 1381 
z
M 1991 3584 
L 1991 3584 
z
" transform="scale(0.015625)"/>
       <path id="DejaVuSans-6e" d="M 3513 2113 
L 3513 0 
L 2938 0 
L 2938 2094 
Q 2938 2591 2744 2837 
Q 2550 3084 2163 3084 
Q 1697 3084 1428 2787 
Q 1159 2491 1159 1978 
L 1159 0 
L 581 0 
L 581 3500 
L 1159 3500 
L 1159 2956 
Q 1366 3272 1645 3428 
Q 1925 3584 2291 3584 
Q 2894 3584 3203 3211 
Q 3513 2838 3513 2113 
z
" transform="scale(0.015625)"/>
      </defs>
      <use xlink:href="#DejaVuSans-4e"/>
      <use xlink:href="#DejaVuSans-6f" x="74.804688"/>
      <use xlink:href="#DejaVuSans-72" x="135.986328"/>
      <use xlink:href="#DejaVuSans-6d" x="175.349609"/>
      <use xlink:href="#DejaVuSans-65" x="272.761719"/>
      <use xlink:href="#DejaVuSans-64" x="334.285156"/>
      <use xlink:href="#DejaVuSans-20" x="397.761719"/>
      <use xlink:href="#DejaVuSans-48" x="429.548828"/>
      <use xlink:href="#DejaVuSans-69" x="504.744141"/>
      <use xlink:href="#DejaVuSans-73" x="532.527344"/>
      <use xlink:href="#DejaVuSans-74" x="584.626953"/>
      <use xlink:href="#DejaVuSans-20" x="623.835938"/>
      <use xlink:href="#DejaVuSans-43" x="655.623047"/>
      <use xlink:href="#DejaVuSans-6f" x="725.447266"/>
      <use xlink:href="#DejaVuSans-75" x="786.628906"/>
      <use xlink:href="#DejaVuSans-6e" x="850.007812"/>
      <use xlink:href="#DejaVuSans-74" x="913.386719"/>
      <use xlink:href="#DejaVuSans-73" x="952.595703"/>
     </g>
    </g>
   </g>
   <g id="line2d_16">
    <path d="M 159.239866 658.978371 
L 165.301728 543.468534 
L 171.36359 466.117179 
L 177.425452 405.077652 
L 183.487315 354.1512 
L 189.549177 310.574751 
L 195.611039 272.850304 
L 201.672901 240.06521 
L 207.734763 211.616068 
L 213.796626 187.077354 
L 219.858488 166.131818 
L 225.92035 148.530621 
L 231.982212 134.069144 
L 238.044075 122.571648 
L 244.105937 113.881237 
L 250.167799 107.853141 
L 256.229661 104.350169 
L 262.291523 103.239621 
L 268.353386 104.391223 
L 274.415248 107.675781 
L 280.47711 112.964352 
L 286.538972 120.127818 
L 292.600835 129.036726 
L 298.662697 139.561355 
L 304.724559 151.571932 
L 310.786421 164.938971 
L 316.848283 179.533686 
L 322.910146 195.228462 
L 328.972008 211.897357 
L 335.03387 229.416622 
L 341.095732 247.665218 
L 347.157594 266.525321 
L 353.219457 285.882805 
L 365.343181 325.654585 
L 395.652492 426.692191 
L 407.776217 465.992966 
L 413.838079 485.129434 
L 419.899941 503.849938 
L 425.961803 522.107054 
L 432.023665 539.85931 
L 438.085528 557.071027 
L 444.14739 573.71214 
L 450.209252 589.757981 
L 456.271114 605.189037 
L 462.332977 619.990684 
L 468.394839 634.152904 
L 474.456701 647.669985 
L 480.518563 660.540212 
L 486.580425 672.765549 
L 492.642288 684.351318 
L 498.70415 695.305881 
L 504.766012 705.640316 
L 510.827874 715.368104 
L 516.889737 724.504829 
L 522.951599 733.067875 
L 529.013461 741.076147 
L 535.075323 748.549797 
L 541.137185 755.509973 
L 547.199048 761.978576 
L 553.26091 767.978041 
L 559.322772 773.531126 
L 565.384634 778.660728 
L 571.446496 783.389715 
L 577.508359 787.740767 
L 583.570221 791.736246 
L 589.632083 795.398072 
L 595.693945 798.747626 
L 601.755808 801.805658 
L 607.81767 804.592215 
L 613.879532 807.126584 
L 619.941394 809.427244 
L 626.003256 811.511832 
L 632.065119 813.397118 
L 638.126981 815.098993 
L 644.188843 816.632464 
L 650.250705 818.011655 
L 656.312567 819.249817 
L 662.37443 820.359347 
L 674.498154 822.237934 
L 686.621879 823.730333 
L 698.745603 824.907465 
L 710.869327 825.82934 
L 722.993052 826.546219 
L 741.178638 827.326269 
L 759.364225 827.847462 
L 783.611674 828.275449 
L 813.920985 828.553991 
L 862.415883 828.722139 
L 965.46754 828.777159 
L 1365.550447 828.779375 
L 1365.550447 828.779375 
" clip-path="url(#pdc95fd6475)" style="fill: none; stroke: #ff7f0e; stroke-width: 1.5; stroke-linecap: square"/>
   </g>
   <g id="line2d_17">
    <path d="M 159.239866 750.929974 
L 165.301728 633.60025 
L 171.36359 532.561262 
L 177.425452 445.979885 
L 183.487315 372.308644 
L 189.549177 310.1765 
L 195.611039 258.35288 
L 201.672901 215.727836 
L 207.734763 181.298133 
L 213.796626 154.156218 
L 219.858488 133.480935 
L 225.92035 118.529437 
L 231.982212 108.630008 
L 238.044075 103.175621 
L 244.105937 101.618126 
L 250.167799 103.462973 
L 256.229661 108.264416 
L 262.291523 115.621138 
L 268.353386 125.172261 
L 274.415248 136.59371 
L 280.47711 149.594877 
L 286.538972 163.915587 
L 292.600835 179.323315 
L 298.662697 195.610648 
L 304.724559 212.592961 
L 310.786421 230.106298 
L 322.910146 266.162097 
L 347.157594 339.30559 
L 359.281319 375.084893 
L 371.405043 409.731811 
L 377.466906 426.53365 
L 383.528768 442.948687 
L 389.59063 458.954378 
L 395.652492 474.53287 
L 401.714354 489.67048 
L 407.776217 504.357219 
L 413.838079 518.586359 
L 419.899941 532.354051 
L 425.961803 545.658964 
L 432.023665 558.501975 
L 438.085528 570.885876 
L 444.14739 582.815121 
L 450.209252 594.29559 
L 456.271114 605.334382 
L 462.332977 615.939624 
L 468.394839 626.12031 
L 474.456701 635.886142 
L 480.518563 645.247405 
L 486.580425 654.214839 
L 492.642288 662.799541 
L 498.70415 671.012863 
L 504.766012 678.866336 
L 510.827874 686.371592 
L 516.889737 693.540302 
L 522.951599 700.38412 
L 529.013461 706.914632 
L 535.075323 713.143314 
L 541.137185 719.0815 
L 547.199048 724.740343 
L 553.26091 730.130797 
L 559.322772 735.263588 
L 565.384634 740.1492 
L 571.446496 744.797859 
L 577.508359 749.219519 
L 583.570221 753.423858 
L 589.632083 757.420266 
L 595.693945 761.217843 
L 601.755808 764.825396 
L 607.81767 768.251437 
L 613.879532 771.504185 
L 619.941394 774.591566 
L 626.003256 777.521217 
L 632.065119 780.300488 
L 638.126981 782.936448 
L 644.188843 785.435889 
L 650.250705 787.805332 
L 662.37443 792.17899 
L 674.498154 796.10441 
L 686.621879 799.624668 
L 698.745603 802.77916 
L 710.869327 805.603834 
L 722.993052 808.131432 
L 735.116776 810.391719 
L 747.240501 812.411706 
L 759.364225 814.215873 
L 771.48795 815.82637 
L 783.611674 817.263211 
L 801.797261 819.1319 
L 819.982847 820.70373 
L 838.168434 822.024506 
L 856.354021 823.133259 
L 880.601469 824.338416 
L 904.848918 825.290221 
L 929.096367 826.040887 
L 959.405678 826.759126 
L 995.776852 827.379561 
L 1038.209887 827.869125 
L 1092.766647 828.25771 
L 1165.508994 828.532328 
L 1274.622513 828.699623 
L 1365.550447 828.748518 
L 1365.550447 828.748518 
" clip-path="url(#pdc95fd6475)" style="fill: none; stroke: #2ca02c; stroke-width: 1.5; stroke-linecap: square"/>
   </g>
   <g id="line2d_18">
    <path d="M 159.239866 614.41862 
L 165.301728 599.888817 
L 171.36359 584.945196 
L 177.425452 569.632851 
L 189.549177 538.109977 
L 201.672901 505.788951 
L 219.858488 457.025141 
L 231.982212 425.238723 
L 238.044075 409.813038 
L 244.105937 394.814008 
L 250.167799 380.328252 
L 256.229661 366.441722 
L 262.291523 353.238869 
L 268.353386 340.801794 
L 274.415248 329.209401 
L 280.47711 318.536571 
L 286.538972 308.853355 
L 292.600835 300.224212 
L 298.662697 292.707293 
L 304.724559 286.353793 
L 310.786421 281.207365 
L 316.848283 277.303624 
L 322.910146 274.669737 
L 328.972008 273.324107 
L 335.03387 273.276156 
L 341.095732 274.526222 
L 347.157594 277.065548 
L 353.219457 280.876388 
L 359.281319 285.932215 
L 365.343181 292.198023 
L 371.405043 299.630735 
L 377.466906 308.179696 
L 383.528768 317.787245 
L 389.59063 328.389366 
L 395.652492 339.916394 
L 401.714354 352.29378 
L 407.776217 365.442885 
L 413.838079 379.281819 
L 419.899941 393.726273 
L 425.961803 408.690378 
L 432.023665 424.087535 
L 444.14739 455.835878 
L 480.518563 552.837705 
L 486.580425 568.48945 
L 492.642288 583.82707 
L 498.70415 598.799515 
L 504.766012 613.361278 
L 510.827874 627.472472 
L 516.889737 641.098831 
L 522.951599 654.211654 
L 529.013461 666.787686 
L 535.075323 678.808948 
L 541.137185 690.262519 
L 547.199048 701.140277 
L 553.26091 711.438605 
L 559.322772 721.158073 
L 565.384634 730.303091 
L 571.446496 738.881554 
L 577.508359 746.904475 
L 583.570221 754.385616 
L 589.632083 761.34112 
L 595.693945 767.789147 
L 601.755808 773.749531 
L 607.81767 779.243434 
L 613.879532 784.293037 
L 619.941394 788.921238 
L 626.003256 793.151376 
L 632.065119 797.006978 
L 638.126981 800.511535 
L 644.188843 803.688293 
L 650.250705 806.560082 
L 656.312567 809.149154 
L 662.37443 811.477058 
L 668.436292 813.564534 
L 674.498154 815.431421 
L 680.560016 817.096599 
L 686.621879 818.577934 
L 692.683741 819.892253 
L 698.745603 821.05533 
L 704.807465 822.081877 
L 716.93119 823.779024 
L 729.054914 825.080882 
L 741.178638 826.069274 
L 753.302363 826.812021 
L 765.426087 827.364506 
L 783.611674 827.93147 
L 801.797261 828.281827 
L 826.04471 828.542821 
L 862.415883 828.707082 
L 941.220092 828.775224 
L 1365.550447 828.779375 
L 1365.550447 828.779375 
" clip-path="url(#pdc95fd6475)" style="fill: none; stroke: #d62728; stroke-width: 1.5; stroke-linecap: square"/>
   </g>
   <g id="patch_103">
    <path d="M 95.590313 828.779375 
L 95.590313 38.075625 
" style="fill: none; stroke: #000000; stroke-width: 0.8; stroke-linejoin: miter; stroke-linecap: square"/>
   </g>
   <g id="patch_104">
    <path d="M 1429.2 828.779375 
L 1429.2 38.075625 
" style="fill: none; stroke: #000000; stroke-width: 0.8; stroke-linejoin: miter; stroke-linecap: square"/>
   </g>
   <g id="patch_105">
    <path d="M 95.590313 828.779375 
L 1429.2 828.779375 
" style="fill: none; stroke: #000000; stroke-width: 0.8; stroke-linejoin: miter; stroke-linecap: square"/>
   </g>
   <g id="patch_106">
    <path d="M 95.590313 38.075625 
L 1429.2 38.075625 
" style="fill: none; stroke: #000000; stroke-width: 0.8; stroke-linejoin: miter; stroke-linecap: square"/>
   </g>
   <g id="text_17">
    <!-- All Fitted Distributions -->
    <g transform="translate(607.769531 32.075625) scale(0.28 -0.28)">
     <defs>
      <path id="DejaVuSans-41" d="M 2188 4044 
L 1331 1722 
L 3047 1722 
L 2188 4044 
z
M 1831 4666 
L 2547 4666 
L 4325 0 
L 3669 0 
L 3244 1197 
L 1141 1197 
L 716 0 
L 50 0 
L 1831 4666 
z
" transform="scale(0.015625)"/>
      <path id="DejaVuSans-6c" d="M 603 4863 
L 1178 4863 
L 1178 0 
L 603 0 
L 603 4863 
z
" transform="scale(0.015625)"/>
      <path id="DejaVuSans-46" d="M 628 4666 
L 3309 4666 
L 3309 4134 
L 1259 4134 
L 1259 2759 
L 3109 2759 
L 3109 2228 
L 1259 2228 
L 1259 0 
L 628 0 
L 628 4666 
z
" transform="scale(0.015625)"/>
      <path id="DejaVuSans-44" d="M 1259 4147 
L 1259 519 
L 2022 519 
Q 2988 519 3436 956 
Q 3884 1394 3884 2338 
Q 3884 3275 3436 3711 
Q 2988 4147 2022 4147 
L 1259 4147 
z
M 628 4666 
L 1925 4666 
Q 3281 4666 3915 4102 
Q 4550 3538 4550 2338 
Q 4550 1131 3912 565 
Q 3275 0 1925 0 
L 628 0 
L 628 4666 
z
" transform="scale(0.015625)"/>
      <path id="DejaVuSans-62" d="M 3116 1747 
Q 3116 2381 2855 2742 
Q 2594 3103 2138 3103 
Q 1681 3103 1420 2742 
Q 1159 2381 1159 1747 
Q 1159 1113 1420 752 
Q 1681 391 2138 391 
Q 2594 391 2855 752 
Q 3116 1113 3116 1747 
z
M 1159 2969 
Q 1341 3281 1617 3432 
Q 1894 3584 2278 3584 
Q 2916 3584 3314 3078 
Q 3713 2572 3713 1747 
Q 3713 922 3314 415 
Q 2916 -91 2278 -91 
Q 1894 -91 1617 61 
Q 1341 213 1159 525 
L 1159 0 
L 581 0 
L 581 4863 
L 1159 4863 
L 1159 2969 
z
" transform="scale(0.015625)"/>
     </defs>
     <use xlink:href="#DejaVuSans-41"/>
     <use xlink:href="#DejaVuSans-6c" x="68.408203"/>
     <use xlink:href="#DejaVuSans-6c" x="96.191406"/>
     <use xlink:href="#DejaVuSans-20" x="123.974609"/>
     <use xlink:href="#DejaVuSans-46" x="155.761719"/>
     <use xlink:href="#DejaVuSans-69" x="206.03125"/>
     <use xlink:href="#DejaVuSans-74" x="233.814453"/>
     <use xlink:href="#DejaVuSans-74" x="273.023438"/>
     <use xlink:href="#DejaVuSans-65" x="312.232422"/>
     <use xlink:href="#DejaVuSans-64" x="373.755859"/>
     <use xlink:href="#DejaVuSans-20" x="437.232422"/>
     <use xlink:href="#DejaVuSans-44" x="469.019531"/>
     <use xlink:href="#DejaVuSans-69" x="546.021484"/>
     <use xlink:href="#DejaVuSans-73" x="573.804688"/>
     <use xlink:href="#DejaVuSans-74" x="625.904297"/>
     <use xlink:href="#DejaVuSans-72" x="665.113281"/>
     <use xlink:href="#DejaVuSans-69" x="706.226562"/>
     <use xlink:href="#DejaVuSans-62" x="734.009766"/>
     <use xlink:href="#DejaVuSans-75" x="797.486328"/>
     <use xlink:href="#DejaVuSans-74" x="860.865234"/>
     <use xlink:href="#DejaVuSans-69" x="900.074219"/>
     <use xlink:href="#DejaVuSans-6f" x="927.857422"/>
     <use xlink:href="#DejaVuSans-6e" x="989.039062"/>
     <use xlink:href="#DejaVuSans-73" x="1052.417969"/>
    </g>
   </g>
   <g id="legend_1">
    <g id="patch_107">
     <path d="M 1060.635 198.185625 
L 1412.4 198.185625 
Q 1417.2 198.185625 1417.2 193.385625 
L 1417.2 54.875625 
Q 1417.2 50.075625 1412.4 50.075625 
L 1060.635 50.075625 
Q 1055.835 50.075625 1055.835 54.875625 
L 1055.835 193.385625 
Q 1055.835 198.185625 1060.635 198.185625 
z
" style="fill: #ffffff; opacity: 0.8; stroke: #cccccc; stroke-linejoin: miter"/>
    </g>
    <g id="patch_108">
     <path d="M 1065.435 77.911875 
L 1113.435 77.911875 
L 1113.435 61.111875 
L 1065.435 61.111875 
z
" style="fill: #1f77b4; opacity: 0.6"/>
    </g>
    <g id="text_18">
     <!-- Generated Distribution -->
     <g transform="translate(1132.635 77.911875) scale(0.24 -0.24)">
      <defs>
       <path id="DejaVuSans-47" d="M 3809 666 
L 3809 1919 
L 2778 1919 
L 2778 2438 
L 4434 2438 
L 4434 434 
Q 4069 175 3628 42 
Q 3188 -91 2688 -91 
Q 1594 -91 976 548 
Q 359 1188 359 2328 
Q 359 3472 976 4111 
Q 1594 4750 2688 4750 
Q 3144 4750 3555 4637 
Q 3966 4525 4313 4306 
L 4313 3634 
Q 3963 3931 3569 4081 
Q 3175 4231 2741 4231 
Q 1884 4231 1454 3753 
Q 1025 3275 1025 2328 
Q 1025 1384 1454 906 
Q 1884 428 2741 428 
Q 3075 428 3337 486 
Q 3600 544 3809 666 
z
" transform="scale(0.015625)"/>
       <path id="DejaVuSans-61" d="M 2194 1759 
Q 1497 1759 1228 1600 
Q 959 1441 959 1056 
Q 959 750 1161 570 
Q 1363 391 1709 391 
Q 2188 391 2477 730 
Q 2766 1069 2766 1631 
L 2766 1759 
L 2194 1759 
z
M 3341 1997 
L 3341 0 
L 2766 0 
L 2766 531 
Q 2569 213 2275 61 
Q 1981 -91 1556 -91 
Q 1019 -91 701 211 
Q 384 513 384 1019 
Q 384 1609 779 1909 
Q 1175 2209 1959 2209 
L 2766 2209 
L 2766 2266 
Q 2766 2663 2505 2880 
Q 2244 3097 1772 3097 
Q 1472 3097 1187 3025 
Q 903 2953 641 2809 
L 641 3341 
Q 956 3463 1253 3523 
Q 1550 3584 1831 3584 
Q 2591 3584 2966 3190 
Q 3341 2797 3341 1997 
z
" transform="scale(0.015625)"/>
      </defs>
      <use xlink:href="#DejaVuSans-47"/>
      <use xlink:href="#DejaVuSans-65" x="77.490234"/>
      <use xlink:href="#DejaVuSans-6e" x="139.013672"/>
      <use xlink:href="#DejaVuSans-65" x="202.392578"/>
      <use xlink:href="#DejaVuSans-72" x="263.916016"/>
      <use xlink:href="#DejaVuSans-61" x="305.029297"/>
      <use xlink:href="#DejaVuSans-74" x="366.308594"/>
      <use xlink:href="#DejaVuSans-65" x="405.517578"/>
      <use xlink:href="#DejaVuSans-64" x="467.041016"/>
      <use xlink:href="#DejaVuSans-20" x="530.517578"/>
      <use xlink:href="#DejaVuSans-44" x="562.304688"/>
      <use xlink:href="#DejaVuSans-69" x="639.306641"/>
      <use xlink:href="#DejaVuSans-73" x="667.089844"/>
      <use xlink:href="#DejaVuSans-74" x="719.189453"/>
      <use xlink:href="#DejaVuSans-72" x="758.398438"/>
      <use xlink:href="#DejaVuSans-69" x="799.511719"/>
      <use xlink:href="#DejaVuSans-62" x="827.294922"/>
      <use xlink:href="#DejaVuSans-75" x="890.771484"/>
      <use xlink:href="#DejaVuSans-74" x="954.150391"/>
      <use xlink:href="#DejaVuSans-69" x="993.359375"/>
      <use xlink:href="#DejaVuSans-6f" x="1021.142578"/>
      <use xlink:href="#DejaVuSans-6e" x="1082.324219"/>
     </g>
    </g>
    <g id="line2d_19">
     <path d="M 1065.435 104.739375 
L 1089.435 104.739375 
L 1113.435 104.739375 
" style="fill: none; stroke: #ff7f0e; stroke-width: 1.5; stroke-linecap: square"/>
    </g>
    <g id="text_19">
     <!-- Chi fit -->
     <g transform="translate(1132.635 113.139375) scale(0.24 -0.24)">
      <defs>
       <path id="DejaVuSans-68" d="M 3513 2113 
L 3513 0 
L 2938 0 
L 2938 2094 
Q 2938 2591 2744 2837 
Q 2550 3084 2163 3084 
Q 1697 3084 1428 2787 
Q 1159 2491 1159 1978 
L 1159 0 
L 581 0 
L 581 4863 
L 1159 4863 
L 1159 2956 
Q 1366 3272 1645 3428 
Q 1925 3584 2291 3584 
Q 2894 3584 3203 3211 
Q 3513 2838 3513 2113 
z
" transform="scale(0.015625)"/>
       <path id="DejaVuSans-66" d="M 2375 4863 
L 2375 4384 
L 1825 4384 
Q 1516 4384 1395 4259 
Q 1275 4134 1275 3809 
L 1275 3500 
L 2222 3500 
L 2222 3053 
L 1275 3053 
L 1275 0 
L 697 0 
L 697 3053 
L 147 3053 
L 147 3500 
L 697 3500 
L 697 3744 
Q 697 4328 969 4595 
Q 1241 4863 1831 4863 
L 2375 4863 
z
" transform="scale(0.015625)"/>
      </defs>
      <use xlink:href="#DejaVuSans-43"/>
      <use xlink:href="#DejaVuSans-68" x="69.824219"/>
      <use xlink:href="#DejaVuSans-69" x="133.203125"/>
      <use xlink:href="#DejaVuSans-20" x="160.986328"/>
      <use xlink:href="#DejaVuSans-66" x="192.773438"/>
      <use xlink:href="#DejaVuSans-69" x="227.978516"/>
      <use xlink:href="#DejaVuSans-74" x="255.761719"/>
     </g>
    </g>
    <g id="line2d_20">
     <path d="M 1065.435 139.966875 
L 1089.435 139.966875 
L 1113.435 139.966875 
" style="fill: none; stroke: #2ca02c; stroke-width: 1.5; stroke-linecap: square"/>
    </g>
    <g id="text_20">
     <!-- ChiSquared fit -->
     <g transform="translate(1132.635 148.366875) scale(0.24 -0.24)">
      <defs>
       <path id="DejaVuSans-53" d="M 3425 4513 
L 3425 3897 
Q 3066 4069 2747 4153 
Q 2428 4238 2131 4238 
Q 1616 4238 1336 4038 
Q 1056 3838 1056 3469 
Q 1056 3159 1242 3001 
Q 1428 2844 1947 2747 
L 2328 2669 
Q 3034 2534 3370 2195 
Q 3706 1856 3706 1288 
Q 3706 609 3251 259 
Q 2797 -91 1919 -91 
Q 1588 -91 1214 -16 
Q 841 59 441 206 
L 441 856 
Q 825 641 1194 531 
Q 1563 422 1919 422 
Q 2459 422 2753 634 
Q 3047 847 3047 1241 
Q 3047 1584 2836 1778 
Q 2625 1972 2144 2069 
L 1759 2144 
Q 1053 2284 737 2584 
Q 422 2884 422 3419 
Q 422 4038 858 4394 
Q 1294 4750 2059 4750 
Q 2388 4750 2728 4690 
Q 3069 4631 3425 4513 
z
" transform="scale(0.015625)"/>
       <path id="DejaVuSans-71" d="M 947 1747 
Q 947 1113 1208 752 
Q 1469 391 1925 391 
Q 2381 391 2643 752 
Q 2906 1113 2906 1747 
Q 2906 2381 2643 2742 
Q 2381 3103 1925 3103 
Q 1469 3103 1208 2742 
Q 947 2381 947 1747 
z
M 2906 525 
Q 2725 213 2448 61 
Q 2172 -91 1784 -91 
Q 1150 -91 751 415 
Q 353 922 353 1747 
Q 353 2572 751 3078 
Q 1150 3584 1784 3584 
Q 2172 3584 2448 3432 
Q 2725 3281 2906 2969 
L 2906 3500 
L 3481 3500 
L 3481 -1331 
L 2906 -1331 
L 2906 525 
z
" transform="scale(0.015625)"/>
      </defs>
      <use xlink:href="#DejaVuSans-43"/>
      <use xlink:href="#DejaVuSans-68" x="69.824219"/>
      <use xlink:href="#DejaVuSans-69" x="133.203125"/>
      <use xlink:href="#DejaVuSans-53" x="160.986328"/>
      <use xlink:href="#DejaVuSans-71" x="224.462891"/>
      <use xlink:href="#DejaVuSans-75" x="287.939453"/>
      <use xlink:href="#DejaVuSans-61" x="351.318359"/>
      <use xlink:href="#DejaVuSans-72" x="412.597656"/>
      <use xlink:href="#DejaVuSans-65" x="451.460938"/>
      <use xlink:href="#DejaVuSans-64" x="512.984375"/>
      <use xlink:href="#DejaVuSans-20" x="576.460938"/>
      <use xlink:href="#DejaVuSans-66" x="608.248047"/>
      <use xlink:href="#DejaVuSans-69" x="643.453125"/>
      <use xlink:href="#DejaVuSans-74" x="671.236328"/>
     </g>
    </g>
    <g id="line2d_21">
     <path d="M 1065.435 175.194375 
L 1089.435 175.194375 
L 1113.435 175.194375 
" style="fill: none; stroke: #d62728; stroke-width: 1.5; stroke-linecap: square"/>
    </g>
    <g id="text_21">
     <!-- Normal fit -->
     <g transform="translate(1132.635 183.594375) scale(0.24 -0.24)">
      <use xlink:href="#DejaVuSans-4e"/>
      <use xlink:href="#DejaVuSans-6f" x="74.804688"/>
      <use xlink:href="#DejaVuSans-72" x="135.986328"/>
      <use xlink:href="#DejaVuSans-6d" x="175.349609"/>
      <use xlink:href="#DejaVuSans-61" x="272.761719"/>
      <use xlink:href="#DejaVuSans-6c" x="334.041016"/>
      <use xlink:href="#DejaVuSans-20" x="361.824219"/>
      <use xlink:href="#DejaVuSans-66" x="393.611328"/>
      <use xlink:href="#DejaVuSans-69" x="428.816406"/>
      <use xlink:href="#DejaVuSans-74" x="456.599609"/>
     </g>
    </g>
   </g>
  </g>
 </g>
 <defs>
  <clipPath id="pdc95fd6475">
   <rect x="95.590313" y="38.075625" width="1333.609688" height="790.70375"/>
  </clipPath>
 </defs>
</svg>
