<?xml version="1.0" encoding="utf-8" standalone="no"?>
<!DOCTYPE svg PUBLIC "-//W3C//DTD SVG 1.1//EN"
  "http://www.w3.org/Graphics/SVG/1.1/DTD/svg11.dtd">
<svg xmlns:xlink="http://www.w3.org/1999/xlink" width="1296pt" height="720pt" viewBox="0 0 1296 720" xmlns="http://www.w3.org/2000/svg" version="1.1">
 <metadata>
  <rdf:RDF xmlns:dc="http://purl.org/dc/elements/1.1/" xmlns:cc="http://creativecommons.org/ns#" xmlns:rdf="http://www.w3.org/1999/02/22-rdf-syntax-ns#">
   <cc:Work>
    <dc:type rdf:resource="http://purl.org/dc/dcmitype/StillImage"/>
    <dc:date>2023-07-16T15:31:00.926629</dc:date>
    <dc:format>image/svg+xml</dc:format>
    <dc:creator>
     <cc:Agent>
      <dc:title>Matplotlib v3.7.2, https://matplotlib.org/</dc:title>
     </cc:Agent>
    </dc:creator>
   </cc:Work>
  </rdf:RDF>
 </metadata>
 <defs>
  <style type="text/css">*{stroke-linejoin: round; stroke-linecap: butt}</style>
 </defs>
 <g id="figure_1">
  <g id="patch_1">
   <path d="M 0 720 
L 1296 720 
L 1296 0 
L 0 0 
z
" style="fill: #ffffff"/>
  </g>
  <g id="axes_1">
   <g id="patch_2">
    <path d="M 86.359688 658.519688 
L 1265.160938 658.519688 
L 1265.160938 38.075625 
L 86.359688 38.075625 
z
" style="fill: #ffffff"/>
   </g>
   <g id="matplotlib.axis_1">
    <g id="xtick_1">
     <g id="line2d_1">
      <defs>
       <path id="m8d7a7c1c8a" d="M 0 0 
L 0 3.5 
" style="stroke: #000000; stroke-width: 0.8"/>
      </defs>
      <g>
       <use xlink:href="#m8d7a7c1c8a" x="86.359687" y="658.519688" style="stroke: #000000; stroke-width: 0.8"/>
      </g>
     </g>
     <g id="text_1">
      <!-- 0.28 -->
      <g transform="translate(66.320625 679.196875) scale(0.18 -0.18)">
       <defs>
        <path id="DejaVuSans-30" d="M 2034 4250 
Q 1547 4250 1301 3770 
Q 1056 3291 1056 2328 
Q 1056 1369 1301 889 
Q 1547 409 2034 409 
Q 2525 409 2770 889 
Q 3016 1369 3016 2328 
Q 3016 3291 2770 3770 
Q 2525 4250 2034 4250 
z
M 2034 4750 
Q 2819 4750 3233 4129 
Q 3647 3509 3647 2328 
Q 3647 1150 3233 529 
Q 2819 -91 2034 -91 
Q 1250 -91 836 529 
Q 422 1150 422 2328 
Q 422 3509 836 4129 
Q 1250 4750 2034 4750 
z
" transform="scale(0.015625)"/>
        <path id="DejaVuSans-2e" d="M 684 794 
L 1344 794 
L 1344 0 
L 684 0 
L 684 794 
z
" transform="scale(0.015625)"/>
        <path id="DejaVuSans-32" d="M 1228 531 
L 3431 531 
L 3431 0 
L 469 0 
L 469 531 
Q 828 903 1448 1529 
Q 2069 2156 2228 2338 
Q 2531 2678 2651 2914 
Q 2772 3150 2772 3378 
Q 2772 3750 2511 3984 
Q 2250 4219 1831 4219 
Q 1534 4219 1204 4116 
Q 875 4013 500 3803 
L 500 4441 
Q 881 4594 1212 4672 
Q 1544 4750 1819 4750 
Q 2544 4750 2975 4387 
Q 3406 4025 3406 3419 
Q 3406 3131 3298 2873 
Q 3191 2616 2906 2266 
Q 2828 2175 2409 1742 
Q 1991 1309 1228 531 
z
" transform="scale(0.015625)"/>
        <path id="DejaVuSans-38" d="M 2034 2216 
Q 1584 2216 1326 1975 
Q 1069 1734 1069 1313 
Q 1069 891 1326 650 
Q 1584 409 2034 409 
Q 2484 409 2743 651 
Q 3003 894 3003 1313 
Q 3003 1734 2745 1975 
Q 2488 2216 2034 2216 
z
M 1403 2484 
Q 997 2584 770 2862 
Q 544 3141 544 3541 
Q 544 4100 942 4425 
Q 1341 4750 2034 4750 
Q 2731 4750 3128 4425 
Q 3525 4100 3525 3541 
Q 3525 3141 3298 2862 
Q 3072 2584 2669 2484 
Q 3125 2378 3379 2068 
Q 3634 1759 3634 1313 
Q 3634 634 3220 271 
Q 2806 -91 2034 -91 
Q 1263 -91 848 271 
Q 434 634 434 1313 
Q 434 1759 690 2068 
Q 947 2378 1403 2484 
z
M 1172 3481 
Q 1172 3119 1398 2916 
Q 1625 2713 2034 2713 
Q 2441 2713 2670 2916 
Q 2900 3119 2900 3481 
Q 2900 3844 2670 4047 
Q 2441 4250 2034 4250 
Q 1625 4250 1398 4047 
Q 1172 3844 1172 3481 
z
" transform="scale(0.015625)"/>
       </defs>
       <use xlink:href="#DejaVuSans-30"/>
       <use xlink:href="#DejaVuSans-2e" x="63.623047"/>
       <use xlink:href="#DejaVuSans-32" x="95.410156"/>
       <use xlink:href="#DejaVuSans-38" x="159.033203"/>
      </g>
     </g>
    </g>
    <g id="xtick_2">
     <g id="line2d_2">
      <g>
       <use xlink:href="#m8d7a7c1c8a" x="322.119938" y="658.519688" style="stroke: #000000; stroke-width: 0.8"/>
      </g>
     </g>
     <g id="text_2">
      <!-- 0.30 -->
      <g transform="translate(302.080875 679.196875) scale(0.18 -0.18)">
       <defs>
        <path id="DejaVuSans-33" d="M 2597 2516 
Q 3050 2419 3304 2112 
Q 3559 1806 3559 1356 
Q 3559 666 3084 287 
Q 2609 -91 1734 -91 
Q 1441 -91 1130 -33 
Q 819 25 488 141 
L 488 750 
Q 750 597 1062 519 
Q 1375 441 1716 441 
Q 2309 441 2620 675 
Q 2931 909 2931 1356 
Q 2931 1769 2642 2001 
Q 2353 2234 1838 2234 
L 1294 2234 
L 1294 2753 
L 1863 2753 
Q 2328 2753 2575 2939 
Q 2822 3125 2822 3475 
Q 2822 3834 2567 4026 
Q 2313 4219 1838 4219 
Q 1578 4219 1281 4162 
Q 984 4106 628 3988 
L 628 4550 
Q 988 4650 1302 4700 
Q 1616 4750 1894 4750 
Q 2613 4750 3031 4423 
Q 3450 4097 3450 3541 
Q 3450 3153 3228 2886 
Q 3006 2619 2597 2516 
z
" transform="scale(0.015625)"/>
       </defs>
       <use xlink:href="#DejaVuSans-30"/>
       <use xlink:href="#DejaVuSans-2e" x="63.623047"/>
       <use xlink:href="#DejaVuSans-33" x="95.410156"/>
       <use xlink:href="#DejaVuSans-30" x="159.033203"/>
      </g>
     </g>
    </g>
    <g id="xtick_3">
     <g id="line2d_3">
      <g>
       <use xlink:href="#m8d7a7c1c8a" x="557.880187" y="658.519688" style="stroke: #000000; stroke-width: 0.8"/>
      </g>
     </g>
     <g id="text_3">
      <!-- 0.32 -->
      <g transform="translate(537.841125 679.196875) scale(0.18 -0.18)">
       <use xlink:href="#DejaVuSans-30"/>
       <use xlink:href="#DejaVuSans-2e" x="63.623047"/>
       <use xlink:href="#DejaVuSans-33" x="95.410156"/>
       <use xlink:href="#DejaVuSans-32" x="159.033203"/>
      </g>
     </g>
    </g>
    <g id="xtick_4">
     <g id="line2d_4">
      <g>
       <use xlink:href="#m8d7a7c1c8a" x="793.640438" y="658.519688" style="stroke: #000000; stroke-width: 0.8"/>
      </g>
     </g>
     <g id="text_4">
      <!-- 0.34 -->
      <g transform="translate(773.601375 679.196875) scale(0.18 -0.18)">
       <defs>
        <path id="DejaVuSans-34" d="M 2419 4116 
L 825 1625 
L 2419 1625 
L 2419 4116 
z
M 2253 4666 
L 3047 4666 
L 3047 1625 
L 3713 1625 
L 3713 1100 
L 3047 1100 
L 3047 0 
L 2419 0 
L 2419 1100 
L 313 1100 
L 313 1709 
L 2253 4666 
z
" transform="scale(0.015625)"/>
       </defs>
       <use xlink:href="#DejaVuSans-30"/>
       <use xlink:href="#DejaVuSans-2e" x="63.623047"/>
       <use xlink:href="#DejaVuSans-33" x="95.410156"/>
       <use xlink:href="#DejaVuSans-34" x="159.033203"/>
      </g>
     </g>
    </g>
    <g id="xtick_5">
     <g id="line2d_5">
      <g>
       <use xlink:href="#m8d7a7c1c8a" x="1029.400688" y="658.519688" style="stroke: #000000; stroke-width: 0.8"/>
      </g>
     </g>
     <g id="text_5">
      <!-- 0.36 -->
      <g transform="translate(1009.361625 679.196875) scale(0.18 -0.18)">
       <defs>
        <path id="DejaVuSans-36" d="M 2113 2584 
Q 1688 2584 1439 2293 
Q 1191 2003 1191 1497 
Q 1191 994 1439 701 
Q 1688 409 2113 409 
Q 2538 409 2786 701 
Q 3034 994 3034 1497 
Q 3034 2003 2786 2293 
Q 2538 2584 2113 2584 
z
M 3366 4563 
L 3366 3988 
Q 3128 4100 2886 4159 
Q 2644 4219 2406 4219 
Q 1781 4219 1451 3797 
Q 1122 3375 1075 2522 
Q 1259 2794 1537 2939 
Q 1816 3084 2150 3084 
Q 2853 3084 3261 2657 
Q 3669 2231 3669 1497 
Q 3669 778 3244 343 
Q 2819 -91 2113 -91 
Q 1303 -91 875 529 
Q 447 1150 447 2328 
Q 447 3434 972 4092 
Q 1497 4750 2381 4750 
Q 2619 4750 2861 4703 
Q 3103 4656 3366 4563 
z
" transform="scale(0.015625)"/>
       </defs>
       <use xlink:href="#DejaVuSans-30"/>
       <use xlink:href="#DejaVuSans-2e" x="63.623047"/>
       <use xlink:href="#DejaVuSans-33" x="95.410156"/>
       <use xlink:href="#DejaVuSans-36" x="159.033203"/>
      </g>
     </g>
    </g>
    <g id="xtick_6">
     <g id="line2d_6">
      <g>
       <use xlink:href="#m8d7a7c1c8a" x="1265.160938" y="658.519688" style="stroke: #000000; stroke-width: 0.8"/>
      </g>
     </g>
     <g id="text_6">
      <!-- 0.38 -->
      <g transform="translate(1245.121875 679.196875) scale(0.18 -0.18)">
       <use xlink:href="#DejaVuSans-30"/>
       <use xlink:href="#DejaVuSans-2e" x="63.623047"/>
       <use xlink:href="#DejaVuSans-33" x="95.410156"/>
       <use xlink:href="#DejaVuSans-38" x="159.033203"/>
      </g>
     </g>
    </g>
    <g id="text_7">
     <!-- Tunes -->
     <g transform="translate(642.832578 704.416719) scale(0.23 -0.23)">
      <defs>
       <path id="DejaVuSans-54" d="M -19 4666 
L 3928 4666 
L 3928 4134 
L 2272 4134 
L 2272 0 
L 1638 0 
L 1638 4134 
L -19 4134 
L -19 4666 
z
" transform="scale(0.015625)"/>
       <path id="DejaVuSans-75" d="M 544 1381 
L 544 3500 
L 1119 3500 
L 1119 1403 
Q 1119 906 1312 657 
Q 1506 409 1894 409 
Q 2359 409 2629 706 
Q 2900 1003 2900 1516 
L 2900 3500 
L 3475 3500 
L 3475 0 
L 2900 0 
L 2900 538 
Q 2691 219 2414 64 
Q 2138 -91 1772 -91 
Q 1169 -91 856 284 
Q 544 659 544 1381 
z
M 1991 3584 
L 1991 3584 
z
" transform="scale(0.015625)"/>
       <path id="DejaVuSans-6e" d="M 3513 2113 
L 3513 0 
L 2938 0 
L 2938 2094 
Q 2938 2591 2744 2837 
Q 2550 3084 2163 3084 
Q 1697 3084 1428 2787 
Q 1159 2491 1159 1978 
L 1159 0 
L 581 0 
L 581 3500 
L 1159 3500 
L 1159 2956 
Q 1366 3272 1645 3428 
Q 1925 3584 2291 3584 
Q 2894 3584 3203 3211 
Q 3513 2838 3513 2113 
z
" transform="scale(0.015625)"/>
       <path id="DejaVuSans-65" d="M 3597 1894 
L 3597 1613 
L 953 1613 
Q 991 1019 1311 708 
Q 1631 397 2203 397 
Q 2534 397 2845 478 
Q 3156 559 3463 722 
L 3463 178 
Q 3153 47 2828 -22 
Q 2503 -91 2169 -91 
Q 1331 -91 842 396 
Q 353 884 353 1716 
Q 353 2575 817 3079 
Q 1281 3584 2069 3584 
Q 2775 3584 3186 3129 
Q 3597 2675 3597 1894 
z
M 3022 2063 
Q 3016 2534 2758 2815 
Q 2500 3097 2075 3097 
Q 1594 3097 1305 2825 
Q 1016 2553 972 2059 
L 3022 2063 
z
" transform="scale(0.015625)"/>
       <path id="DejaVuSans-73" d="M 2834 3397 
L 2834 2853 
Q 2591 2978 2328 3040 
Q 2066 3103 1784 3103 
Q 1356 3103 1142 2972 
Q 928 2841 928 2578 
Q 928 2378 1081 2264 
Q 1234 2150 1697 2047 
L 1894 2003 
Q 2506 1872 2764 1633 
Q 3022 1394 3022 966 
Q 3022 478 2636 193 
Q 2250 -91 1575 -91 
Q 1294 -91 989 -36 
Q 684 19 347 128 
L 347 722 
Q 666 556 975 473 
Q 1284 391 1588 391 
Q 1994 391 2212 530 
Q 2431 669 2431 922 
Q 2431 1156 2273 1281 
Q 2116 1406 1581 1522 
L 1381 1569 
Q 847 1681 609 1914 
Q 372 2147 372 2553 
Q 372 3047 722 3315 
Q 1072 3584 1716 3584 
Q 2034 3584 2315 3537 
Q 2597 3491 2834 3397 
z
" transform="scale(0.015625)"/>
      </defs>
      <use xlink:href="#DejaVuSans-54"/>
      <use xlink:href="#DejaVuSans-75" x="45.958984"/>
      <use xlink:href="#DejaVuSans-6e" x="109.337891"/>
      <use xlink:href="#DejaVuSans-65" x="172.716797"/>
      <use xlink:href="#DejaVuSans-73" x="234.240234"/>
     </g>
    </g>
   </g>
   <g id="matplotlib.axis_2">
    <g id="ytick_1">
     <g id="line2d_7">
      <defs>
       <path id="m235117a0c6" d="M 0 0 
L -3.5 0 
" style="stroke: #000000; stroke-width: 0.8"/>
      </defs>
      <g>
       <use xlink:href="#m235117a0c6" x="86.359688" y="607.151954" style="stroke: #000000; stroke-width: 0.8"/>
      </g>
     </g>
     <g id="text_8">
      <!-- $\mathdefault{10^{-5}}$ -->
      <g transform="translate(37.059688 613.990548) scale(0.18 -0.18)">
       <defs>
        <path id="DejaVuSans-31" d="M 794 531 
L 1825 531 
L 1825 4091 
L 703 3866 
L 703 4441 
L 1819 4666 
L 2450 4666 
L 2450 531 
L 3481 531 
L 3481 0 
L 794 0 
L 794 531 
z
" transform="scale(0.015625)"/>
        <path id="DejaVuSans-2212" d="M 678 2272 
L 4684 2272 
L 4684 1741 
L 678 1741 
L 678 2272 
z
" transform="scale(0.015625)"/>
        <path id="DejaVuSans-35" d="M 691 4666 
L 3169 4666 
L 3169 4134 
L 1269 4134 
L 1269 2991 
Q 1406 3038 1543 3061 
Q 1681 3084 1819 3084 
Q 2600 3084 3056 2656 
Q 3513 2228 3513 1497 
Q 3513 744 3044 326 
Q 2575 -91 1722 -91 
Q 1428 -91 1123 -41 
Q 819 9 494 109 
L 494 744 
Q 775 591 1075 516 
Q 1375 441 1709 441 
Q 2250 441 2565 725 
Q 2881 1009 2881 1497 
Q 2881 1984 2565 2268 
Q 2250 2553 1709 2553 
Q 1456 2553 1204 2497 
Q 953 2441 691 2322 
L 691 4666 
z
" transform="scale(0.015625)"/>
       </defs>
       <use xlink:href="#DejaVuSans-31" transform="translate(0 0.684375)"/>
       <use xlink:href="#DejaVuSans-30" transform="translate(63.623047 0.684375)"/>
       <use xlink:href="#DejaVuSans-2212" transform="translate(128.203125 38.965625) scale(0.7)"/>
       <use xlink:href="#DejaVuSans-35" transform="translate(186.855469 38.965625) scale(0.7)"/>
      </g>
     </g>
    </g>
    <g id="ytick_2">
     <g id="line2d_8">
      <g>
       <use xlink:href="#m235117a0c6" x="86.359688" y="511.348517" style="stroke: #000000; stroke-width: 0.8"/>
      </g>
     </g>
     <g id="text_9">
      <!-- $\mathdefault{10^{-4}}$ -->
      <g transform="translate(37.059688 518.187111) scale(0.18 -0.18)">
       <use xlink:href="#DejaVuSans-31" transform="translate(0 0.684375)"/>
       <use xlink:href="#DejaVuSans-30" transform="translate(63.623047 0.684375)"/>
       <use xlink:href="#DejaVuSans-2212" transform="translate(128.203125 38.965625) scale(0.7)"/>
       <use xlink:href="#DejaVuSans-34" transform="translate(186.855469 38.965625) scale(0.7)"/>
      </g>
     </g>
    </g>
    <g id="ytick_3">
     <g id="line2d_9">
      <g>
       <use xlink:href="#m235117a0c6" x="86.359688" y="415.545081" style="stroke: #000000; stroke-width: 0.8"/>
      </g>
     </g>
     <g id="text_10">
      <!-- $\mathdefault{10^{-3}}$ -->
      <g transform="translate(37.059688 422.383674) scale(0.18 -0.18)">
       <use xlink:href="#DejaVuSans-31" transform="translate(0 0.765625)"/>
       <use xlink:href="#DejaVuSans-30" transform="translate(63.623047 0.765625)"/>
       <use xlink:href="#DejaVuSans-2212" transform="translate(128.203125 39.046875) scale(0.7)"/>
       <use xlink:href="#DejaVuSans-33" transform="translate(186.855469 39.046875) scale(0.7)"/>
      </g>
     </g>
    </g>
    <g id="ytick_4">
     <g id="line2d_10">
      <g>
       <use xlink:href="#m235117a0c6" x="86.359688" y="319.741644" style="stroke: #000000; stroke-width: 0.8"/>
      </g>
     </g>
     <g id="text_11">
      <!-- $\mathdefault{10^{-2}}$ -->
      <g transform="translate(37.059688 326.580238) scale(0.18 -0.18)">
       <use xlink:href="#DejaVuSans-31" transform="translate(0 0.765625)"/>
       <use xlink:href="#DejaVuSans-30" transform="translate(63.623047 0.765625)"/>
       <use xlink:href="#DejaVuSans-2212" transform="translate(128.203125 39.046875) scale(0.7)"/>
       <use xlink:href="#DejaVuSans-32" transform="translate(186.855469 39.046875) scale(0.7)"/>
      </g>
     </g>
    </g>
    <g id="ytick_5">
     <g id="line2d_11">
      <g>
       <use xlink:href="#m235117a0c6" x="86.359688" y="223.938207" style="stroke: #000000; stroke-width: 0.8"/>
      </g>
     </g>
     <g id="text_12">
      <!-- $\mathdefault{10^{-1}}$ -->
      <g transform="translate(37.059688 230.776801) scale(0.18 -0.18)">
       <use xlink:href="#DejaVuSans-31" transform="translate(0 0.684375)"/>
       <use xlink:href="#DejaVuSans-30" transform="translate(63.623047 0.684375)"/>
       <use xlink:href="#DejaVuSans-2212" transform="translate(128.203125 38.965625) scale(0.7)"/>
       <use xlink:href="#DejaVuSans-31" transform="translate(186.855469 38.965625) scale(0.7)"/>
      </g>
     </g>
    </g>
    <g id="ytick_6">
     <g id="line2d_12">
      <g>
       <use xlink:href="#m235117a0c6" x="86.359688" y="128.13477" style="stroke: #000000; stroke-width: 0.8"/>
      </g>
     </g>
     <g id="text_13">
      <!-- $\mathdefault{10^{0}}$ -->
      <g transform="translate(47.679688 134.973364) scale(0.18 -0.18)">
       <use xlink:href="#DejaVuSans-31" transform="translate(0 0.765625)"/>
       <use xlink:href="#DejaVuSans-30" transform="translate(63.623047 0.765625)"/>
       <use xlink:href="#DejaVuSans-30" transform="translate(128.203125 39.046875) scale(0.7)"/>
      </g>
     </g>
    </g>
    <g id="ytick_7">
     <g id="line2d_13">
      <defs>
       <path id="m19fd4efc2c" d="M 0 0 
L -2 0 
" style="stroke: #000000; stroke-width: 0.6"/>
      </defs>
      <g>
       <use xlink:href="#m19fd4efc2c" x="86.359688" y="657.245535" style="stroke: #000000; stroke-width: 0.6"/>
      </g>
     </g>
    </g>
    <g id="ytick_8">
     <g id="line2d_14">
      <g>
       <use xlink:href="#m19fd4efc2c" x="86.359688" y="645.275975" style="stroke: #000000; stroke-width: 0.6"/>
      </g>
     </g>
    </g>
    <g id="ytick_9">
     <g id="line2d_15">
      <g>
       <use xlink:href="#m19fd4efc2c" x="86.359688" y="635.991662" style="stroke: #000000; stroke-width: 0.6"/>
      </g>
     </g>
    </g>
    <g id="ytick_10">
     <g id="line2d_16">
      <g>
       <use xlink:href="#m19fd4efc2c" x="86.359688" y="628.405827" style="stroke: #000000; stroke-width: 0.6"/>
      </g>
     </g>
    </g>
    <g id="ytick_11">
     <g id="line2d_17">
      <g>
       <use xlink:href="#m19fd4efc2c" x="86.359688" y="621.992094" style="stroke: #000000; stroke-width: 0.6"/>
      </g>
     </g>
    </g>
    <g id="ytick_12">
     <g id="line2d_18">
      <g>
       <use xlink:href="#m19fd4efc2c" x="86.359688" y="616.436267" style="stroke: #000000; stroke-width: 0.6"/>
      </g>
     </g>
    </g>
    <g id="ytick_13">
     <g id="line2d_19">
      <g>
       <use xlink:href="#m19fd4efc2c" x="86.359688" y="611.535679" style="stroke: #000000; stroke-width: 0.6"/>
      </g>
     </g>
    </g>
    <g id="ytick_14">
     <g id="line2d_20">
      <g>
       <use xlink:href="#m19fd4efc2c" x="86.359688" y="578.312246" style="stroke: #000000; stroke-width: 0.6"/>
      </g>
     </g>
    </g>
    <g id="ytick_15">
     <g id="line2d_21">
      <g>
       <use xlink:href="#m19fd4efc2c" x="86.359688" y="561.442098" style="stroke: #000000; stroke-width: 0.6"/>
      </g>
     </g>
    </g>
    <g id="ytick_16">
     <g id="line2d_22">
      <g>
       <use xlink:href="#m19fd4efc2c" x="86.359688" y="549.472538" style="stroke: #000000; stroke-width: 0.6"/>
      </g>
     </g>
    </g>
    <g id="ytick_17">
     <g id="line2d_23">
      <g>
       <use xlink:href="#m19fd4efc2c" x="86.359688" y="540.188226" style="stroke: #000000; stroke-width: 0.6"/>
      </g>
     </g>
    </g>
    <g id="ytick_18">
     <g id="line2d_24">
      <g>
       <use xlink:href="#m19fd4efc2c" x="86.359688" y="532.60239" style="stroke: #000000; stroke-width: 0.6"/>
      </g>
     </g>
    </g>
    <g id="ytick_19">
     <g id="line2d_25">
      <g>
       <use xlink:href="#m19fd4efc2c" x="86.359688" y="526.188658" style="stroke: #000000; stroke-width: 0.6"/>
      </g>
     </g>
    </g>
    <g id="ytick_20">
     <g id="line2d_26">
      <g>
       <use xlink:href="#m19fd4efc2c" x="86.359688" y="520.63283" style="stroke: #000000; stroke-width: 0.6"/>
      </g>
     </g>
    </g>
    <g id="ytick_21">
     <g id="line2d_27">
      <g>
       <use xlink:href="#m19fd4efc2c" x="86.359688" y="515.732242" style="stroke: #000000; stroke-width: 0.6"/>
      </g>
     </g>
    </g>
    <g id="ytick_22">
     <g id="line2d_28">
      <g>
       <use xlink:href="#m19fd4efc2c" x="86.359688" y="482.508809" style="stroke: #000000; stroke-width: 0.6"/>
      </g>
     </g>
    </g>
    <g id="ytick_23">
     <g id="line2d_29">
      <g>
       <use xlink:href="#m19fd4efc2c" x="86.359688" y="465.638662" style="stroke: #000000; stroke-width: 0.6"/>
      </g>
     </g>
    </g>
    <g id="ytick_24">
     <g id="line2d_30">
      <g>
       <use xlink:href="#m19fd4efc2c" x="86.359688" y="453.669101" style="stroke: #000000; stroke-width: 0.6"/>
      </g>
     </g>
    </g>
    <g id="ytick_25">
     <g id="line2d_31">
      <g>
       <use xlink:href="#m19fd4efc2c" x="86.359688" y="444.384789" style="stroke: #000000; stroke-width: 0.6"/>
      </g>
     </g>
    </g>
    <g id="ytick_26">
     <g id="line2d_32">
      <g>
       <use xlink:href="#m19fd4efc2c" x="86.359688" y="436.798953" style="stroke: #000000; stroke-width: 0.6"/>
      </g>
     </g>
    </g>
    <g id="ytick_27">
     <g id="line2d_33">
      <g>
       <use xlink:href="#m19fd4efc2c" x="86.359688" y="430.385221" style="stroke: #000000; stroke-width: 0.6"/>
      </g>
     </g>
    </g>
    <g id="ytick_28">
     <g id="line2d_34">
      <g>
       <use xlink:href="#m19fd4efc2c" x="86.359688" y="424.829393" style="stroke: #000000; stroke-width: 0.6"/>
      </g>
     </g>
    </g>
    <g id="ytick_29">
     <g id="line2d_35">
      <g>
       <use xlink:href="#m19fd4efc2c" x="86.359688" y="419.928806" style="stroke: #000000; stroke-width: 0.6"/>
      </g>
     </g>
    </g>
    <g id="ytick_30">
     <g id="line2d_36">
      <g>
       <use xlink:href="#m19fd4efc2c" x="86.359688" y="386.705373" style="stroke: #000000; stroke-width: 0.6"/>
      </g>
     </g>
    </g>
    <g id="ytick_31">
     <g id="line2d_37">
      <g>
       <use xlink:href="#m19fd4efc2c" x="86.359688" y="369.835225" style="stroke: #000000; stroke-width: 0.6"/>
      </g>
     </g>
    </g>
    <g id="ytick_32">
     <g id="line2d_38">
      <g>
       <use xlink:href="#m19fd4efc2c" x="86.359688" y="357.865664" style="stroke: #000000; stroke-width: 0.6"/>
      </g>
     </g>
    </g>
    <g id="ytick_33">
     <g id="line2d_39">
      <g>
       <use xlink:href="#m19fd4efc2c" x="86.359688" y="348.581352" style="stroke: #000000; stroke-width: 0.6"/>
      </g>
     </g>
    </g>
    <g id="ytick_34">
     <g id="line2d_40">
      <g>
       <use xlink:href="#m19fd4efc2c" x="86.359688" y="340.995517" style="stroke: #000000; stroke-width: 0.6"/>
      </g>
     </g>
    </g>
    <g id="ytick_35">
     <g id="line2d_41">
      <g>
       <use xlink:href="#m19fd4efc2c" x="86.359688" y="334.581784" style="stroke: #000000; stroke-width: 0.6"/>
      </g>
     </g>
    </g>
    <g id="ytick_36">
     <g id="line2d_42">
      <g>
       <use xlink:href="#m19fd4efc2c" x="86.359688" y="329.025956" style="stroke: #000000; stroke-width: 0.6"/>
      </g>
     </g>
    </g>
    <g id="ytick_37">
     <g id="line2d_43">
      <g>
       <use xlink:href="#m19fd4efc2c" x="86.359688" y="324.125369" style="stroke: #000000; stroke-width: 0.6"/>
      </g>
     </g>
    </g>
    <g id="ytick_38">
     <g id="line2d_44">
      <g>
       <use xlink:href="#m19fd4efc2c" x="86.359688" y="290.901936" style="stroke: #000000; stroke-width: 0.6"/>
      </g>
     </g>
    </g>
    <g id="ytick_39">
     <g id="line2d_45">
      <g>
       <use xlink:href="#m19fd4efc2c" x="86.359688" y="274.031788" style="stroke: #000000; stroke-width: 0.6"/>
      </g>
     </g>
    </g>
    <g id="ytick_40">
     <g id="line2d_46">
      <g>
       <use xlink:href="#m19fd4efc2c" x="86.359688" y="262.062228" style="stroke: #000000; stroke-width: 0.6"/>
      </g>
     </g>
    </g>
    <g id="ytick_41">
     <g id="line2d_47">
      <g>
       <use xlink:href="#m19fd4efc2c" x="86.359688" y="252.777915" style="stroke: #000000; stroke-width: 0.6"/>
      </g>
     </g>
    </g>
    <g id="ytick_42">
     <g id="line2d_48">
      <g>
       <use xlink:href="#m19fd4efc2c" x="86.359688" y="245.19208" style="stroke: #000000; stroke-width: 0.6"/>
      </g>
     </g>
    </g>
    <g id="ytick_43">
     <g id="line2d_49">
      <g>
       <use xlink:href="#m19fd4efc2c" x="86.359688" y="238.778347" style="stroke: #000000; stroke-width: 0.6"/>
      </g>
     </g>
    </g>
    <g id="ytick_44">
     <g id="line2d_50">
      <g>
       <use xlink:href="#m19fd4efc2c" x="86.359688" y="233.22252" style="stroke: #000000; stroke-width: 0.6"/>
      </g>
     </g>
    </g>
    <g id="ytick_45">
     <g id="line2d_51">
      <g>
       <use xlink:href="#m19fd4efc2c" x="86.359688" y="228.321932" style="stroke: #000000; stroke-width: 0.6"/>
      </g>
     </g>
    </g>
    <g id="ytick_46">
     <g id="line2d_52">
      <g>
       <use xlink:href="#m19fd4efc2c" x="86.359688" y="195.098499" style="stroke: #000000; stroke-width: 0.6"/>
      </g>
     </g>
    </g>
    <g id="ytick_47">
     <g id="line2d_53">
      <g>
       <use xlink:href="#m19fd4efc2c" x="86.359688" y="178.228351" style="stroke: #000000; stroke-width: 0.6"/>
      </g>
     </g>
    </g>
    <g id="ytick_48">
     <g id="line2d_54">
      <g>
       <use xlink:href="#m19fd4efc2c" x="86.359688" y="166.258791" style="stroke: #000000; stroke-width: 0.6"/>
      </g>
     </g>
    </g>
    <g id="ytick_49">
     <g id="line2d_55">
      <g>
       <use xlink:href="#m19fd4efc2c" x="86.359688" y="156.974479" style="stroke: #000000; stroke-width: 0.6"/>
      </g>
     </g>
    </g>
    <g id="ytick_50">
     <g id="line2d_56">
      <g>
       <use xlink:href="#m19fd4efc2c" x="86.359688" y="149.388643" style="stroke: #000000; stroke-width: 0.6"/>
      </g>
     </g>
    </g>
    <g id="ytick_51">
     <g id="line2d_57">
      <g>
       <use xlink:href="#m19fd4efc2c" x="86.359688" y="142.974911" style="stroke: #000000; stroke-width: 0.6"/>
      </g>
     </g>
    </g>
    <g id="ytick_52">
     <g id="line2d_58">
      <g>
       <use xlink:href="#m19fd4efc2c" x="86.359688" y="137.419083" style="stroke: #000000; stroke-width: 0.6"/>
      </g>
     </g>
    </g>
    <g id="ytick_53">
     <g id="line2d_59">
      <g>
       <use xlink:href="#m19fd4efc2c" x="86.359688" y="132.518495" style="stroke: #000000; stroke-width: 0.6"/>
      </g>
     </g>
    </g>
    <g id="ytick_54">
     <g id="line2d_60">
      <g>
       <use xlink:href="#m19fd4efc2c" x="86.359688" y="99.295062" style="stroke: #000000; stroke-width: 0.6"/>
      </g>
     </g>
    </g>
    <g id="ytick_55">
     <g id="line2d_61">
      <g>
       <use xlink:href="#m19fd4efc2c" x="86.359688" y="82.424914" style="stroke: #000000; stroke-width: 0.6"/>
      </g>
     </g>
    </g>
    <g id="ytick_56">
     <g id="line2d_62">
      <g>
       <use xlink:href="#m19fd4efc2c" x="86.359688" y="70.455354" style="stroke: #000000; stroke-width: 0.6"/>
      </g>
     </g>
    </g>
    <g id="ytick_57">
     <g id="line2d_63">
      <g>
       <use xlink:href="#m19fd4efc2c" x="86.359688" y="61.171042" style="stroke: #000000; stroke-width: 0.6"/>
      </g>
     </g>
    </g>
    <g id="ytick_58">
     <g id="line2d_64">
      <g>
       <use xlink:href="#m19fd4efc2c" x="86.359688" y="53.585206" style="stroke: #000000; stroke-width: 0.6"/>
      </g>
     </g>
    </g>
    <g id="ytick_59">
     <g id="line2d_65">
      <g>
       <use xlink:href="#m19fd4efc2c" x="86.359688" y="47.171474" style="stroke: #000000; stroke-width: 0.6"/>
      </g>
     </g>
    </g>
    <g id="ytick_60">
     <g id="line2d_66">
      <g>
       <use xlink:href="#m19fd4efc2c" x="86.359688" y="41.615646" style="stroke: #000000; stroke-width: 0.6"/>
      </g>
     </g>
    </g>
    <g id="text_14">
     <!-- Spectrum [a.u] -->
     <g transform="translate(28.276406 434.642891) rotate(-90) scale(0.23 -0.23)">
      <defs>
       <path id="DejaVuSans-53" d="M 3425 4513 
L 3425 3897 
Q 3066 4069 2747 4153 
Q 2428 4238 2131 4238 
Q 1616 4238 1336 4038 
Q 1056 3838 1056 3469 
Q 1056 3159 1242 3001 
Q 1428 2844 1947 2747 
L 2328 2669 
Q 3034 2534 3370 2195 
Q 3706 1856 3706 1288 
Q 3706 609 3251 259 
Q 2797 -91 1919 -91 
Q 1588 -91 1214 -16 
Q 841 59 441 206 
L 441 856 
Q 825 641 1194 531 
Q 1563 422 1919 422 
Q 2459 422 2753 634 
Q 3047 847 3047 1241 
Q 3047 1584 2836 1778 
Q 2625 1972 2144 2069 
L 1759 2144 
Q 1053 2284 737 2584 
Q 422 2884 422 3419 
Q 422 4038 858 4394 
Q 1294 4750 2059 4750 
Q 2388 4750 2728 4690 
Q 3069 4631 3425 4513 
z
" transform="scale(0.015625)"/>
       <path id="DejaVuSans-70" d="M 1159 525 
L 1159 -1331 
L 581 -1331 
L 581 3500 
L 1159 3500 
L 1159 2969 
Q 1341 3281 1617 3432 
Q 1894 3584 2278 3584 
Q 2916 3584 3314 3078 
Q 3713 2572 3713 1747 
Q 3713 922 3314 415 
Q 2916 -91 2278 -91 
Q 1894 -91 1617 61 
Q 1341 213 1159 525 
z
M 3116 1747 
Q 3116 2381 2855 2742 
Q 2594 3103 2138 3103 
Q 1681 3103 1420 2742 
Q 1159 2381 1159 1747 
Q 1159 1113 1420 752 
Q 1681 391 2138 391 
Q 2594 391 2855 752 
Q 3116 1113 3116 1747 
z
" transform="scale(0.015625)"/>
       <path id="DejaVuSans-63" d="M 3122 3366 
L 3122 2828 
Q 2878 2963 2633 3030 
Q 2388 3097 2138 3097 
Q 1578 3097 1268 2742 
Q 959 2388 959 1747 
Q 959 1106 1268 751 
Q 1578 397 2138 397 
Q 2388 397 2633 464 
Q 2878 531 3122 666 
L 3122 134 
Q 2881 22 2623 -34 
Q 2366 -91 2075 -91 
Q 1284 -91 818 406 
Q 353 903 353 1747 
Q 353 2603 823 3093 
Q 1294 3584 2113 3584 
Q 2378 3584 2631 3529 
Q 2884 3475 3122 3366 
z
" transform="scale(0.015625)"/>
       <path id="DejaVuSans-74" d="M 1172 4494 
L 1172 3500 
L 2356 3500 
L 2356 3053 
L 1172 3053 
L 1172 1153 
Q 1172 725 1289 603 
Q 1406 481 1766 481 
L 2356 481 
L 2356 0 
L 1766 0 
Q 1100 0 847 248 
Q 594 497 594 1153 
L 594 3053 
L 172 3053 
L 172 3500 
L 594 3500 
L 594 4494 
L 1172 4494 
z
" transform="scale(0.015625)"/>
       <path id="DejaVuSans-72" d="M 2631 2963 
Q 2534 3019 2420 3045 
Q 2306 3072 2169 3072 
Q 1681 3072 1420 2755 
Q 1159 2438 1159 1844 
L 1159 0 
L 581 0 
L 581 3500 
L 1159 3500 
L 1159 2956 
Q 1341 3275 1631 3429 
Q 1922 3584 2338 3584 
Q 2397 3584 2469 3576 
Q 2541 3569 2628 3553 
L 2631 2963 
z
" transform="scale(0.015625)"/>
       <path id="DejaVuSans-6d" d="M 3328 2828 
Q 3544 3216 3844 3400 
Q 4144 3584 4550 3584 
Q 5097 3584 5394 3201 
Q 5691 2819 5691 2113 
L 5691 0 
L 5113 0 
L 5113 2094 
Q 5113 2597 4934 2840 
Q 4756 3084 4391 3084 
Q 3944 3084 3684 2787 
Q 3425 2491 3425 1978 
L 3425 0 
L 2847 0 
L 2847 2094 
Q 2847 2600 2669 2842 
Q 2491 3084 2119 3084 
Q 1678 3084 1418 2786 
Q 1159 2488 1159 1978 
L 1159 0 
L 581 0 
L 581 3500 
L 1159 3500 
L 1159 2956 
Q 1356 3278 1631 3431 
Q 1906 3584 2284 3584 
Q 2666 3584 2933 3390 
Q 3200 3197 3328 2828 
z
" transform="scale(0.015625)"/>
       <path id="DejaVuSans-20" transform="scale(0.015625)"/>
       <path id="DejaVuSans-5b" d="M 550 4863 
L 1875 4863 
L 1875 4416 
L 1125 4416 
L 1125 -397 
L 1875 -397 
L 1875 -844 
L 550 -844 
L 550 4863 
z
" transform="scale(0.015625)"/>
       <path id="DejaVuSans-61" d="M 2194 1759 
Q 1497 1759 1228 1600 
Q 959 1441 959 1056 
Q 959 750 1161 570 
Q 1363 391 1709 391 
Q 2188 391 2477 730 
Q 2766 1069 2766 1631 
L 2766 1759 
L 2194 1759 
z
M 3341 1997 
L 3341 0 
L 2766 0 
L 2766 531 
Q 2569 213 2275 61 
Q 1981 -91 1556 -91 
Q 1019 -91 701 211 
Q 384 513 384 1019 
Q 384 1609 779 1909 
Q 1175 2209 1959 2209 
L 2766 2209 
L 2766 2266 
Q 2766 2663 2505 2880 
Q 2244 3097 1772 3097 
Q 1472 3097 1187 3025 
Q 903 2953 641 2809 
L 641 3341 
Q 956 3463 1253 3523 
Q 1550 3584 1831 3584 
Q 2591 3584 2966 3190 
Q 3341 2797 3341 1997 
z
" transform="scale(0.015625)"/>
       <path id="DejaVuSans-5d" d="M 1947 4863 
L 1947 -844 
L 622 -844 
L 622 -397 
L 1369 -397 
L 1369 4416 
L 622 4416 
L 622 4863 
L 1947 4863 
z
" transform="scale(0.015625)"/>
      </defs>
      <use xlink:href="#DejaVuSans-53"/>
      <use xlink:href="#DejaVuSans-70" x="63.476562"/>
      <use xlink:href="#DejaVuSans-65" x="126.953125"/>
      <use xlink:href="#DejaVuSans-63" x="188.476562"/>
      <use xlink:href="#DejaVuSans-74" x="243.457031"/>
      <use xlink:href="#DejaVuSans-72" x="282.666016"/>
      <use xlink:href="#DejaVuSans-75" x="323.779297"/>
      <use xlink:href="#DejaVuSans-6d" x="387.158203"/>
      <use xlink:href="#DejaVuSans-20" x="484.570312"/>
      <use xlink:href="#DejaVuSans-5b" x="516.357422"/>
      <use xlink:href="#DejaVuSans-61" x="555.371094"/>
      <use xlink:href="#DejaVuSans-2e" x="616.650391"/>
      <use xlink:href="#DejaVuSans-75" x="648.4375"/>
      <use xlink:href="#DejaVuSans-5d" x="711.816406"/>
     </g>
    </g>
   </g>
   <g id="line2d_67">
    <path d="M 85.073528 492.574126 
L 94.005193 492.05472 
L 111.868525 491.139456 
L 113.654858 491.148431 
L 115.441191 490.365719 
L 117.227524 490.67072 
L 124.372857 490.388988 
L 131.51819 490.139215 
L 133.304523 490.18336 
L 135.090856 490.819726 
L 136.877189 488.71866 
L 138.663522 489.237261 
L 142.236189 489.243321 
L 163.672187 488.261006 
L 169.031186 487.901214 
L 172.603852 487.429553 
L 174.390185 486.926384 
L 176.176519 485.756072 
L 177.962852 480.732118 
L 179.749185 482.275666 
L 181.535518 492.050947 
L 183.321851 491.353887 
L 185.108184 491.20053 
L 186.894518 491.375965 
L 188.680851 491.839879 
L 190.467184 492.659922 
L 192.253517 494.035925 
L 194.03985 496.464885 
L 195.826183 501.426217 
L 197.612516 515.788186 
L 199.39885 491.258641 
L 201.185183 446.629184 
L 202.971516 467.380868 
L 204.757849 473.349697 
L 206.544182 476.157045 
L 208.330515 477.756467 
L 210.116849 478.766806 
L 211.903182 479.445115 
L 213.689515 479.918205 
L 217.262181 480.499018 
L 220.834848 480.800161 
L 226.193847 481.009179 
L 227.98018 481.349368 
L 229.766513 480.840295 
L 233.33918 480.853351 
L 242.270845 480.57127 
L 254.775177 479.939357 
L 272.638509 478.788945 
L 292.288174 477.260408 
L 299.433506 476.606097 
L 301.21984 476.296055 
L 303.006173 476.377169 
L 313.724172 475.241254 
L 320.869504 474.463595 
L 322.655837 66.277628 
L 324.442171 473.918714 
L 331.587503 472.985711 
L 340.519169 471.559959 
L 342.305502 471.224423 
L 344.091835 471.010275 
L 360.168834 467.177301 
L 363.7415 466.12382 
L 365.527833 465.739139 
L 367.314166 464.782055 
L 370.886833 463.505682 
L 374.459499 462.019718 
L 378.032165 460.354638 
L 381.604832 458.490062 
L 385.177498 456.402318 
L 388.750164 454.064406 
L 392.322831 451.446979 
L 395.895497 448.517193 
L 399.468163 445.238669 
L 403.040829 441.570026 
L 406.613496 437.463532 
L 410.186162 432.863558 
L 413.758828 427.716301 
L 415.545162 424.977692 
L 417.331495 421.005209 
L 419.117828 418.402435 
L 420.904161 414.99691 
L 422.690494 411.297407 
L 424.476827 407.293516 
L 426.263161 402.941606 
L 428.049494 398.184227 
L 429.835827 392.939374 
L 431.62216 387.093737 
L 433.408493 380.484512 
L 435.194826 372.866514 
L 436.981159 363.846113 
L 438.767493 352.731695 
L 440.553826 338.128137 
L 442.340159 316.472803 
L 444.126492 271.853363 
L 445.912825 265.029187 
L 447.699158 311.980065 
L 449.485492 332.764153 
L 451.271825 346.034283 
L 453.058158 355.65214 
L 454.844491 363.085874 
L 456.630824 369.041598 
L 458.417157 373.892381 
L 460.203491 377.810363 
L 461.989824 380.743004 
L 463.776157 381.907109 
L 465.56249 369.58571 
L 467.348823 402.097862 
L 469.135156 398.75098 
L 470.921489 399.397326 
L 474.494156 401.992954 
L 478.066822 404.601576 
L 481.639488 406.921271 
L 485.212155 408.927961 
L 488.784821 410.661877 
L 492.357487 412.159802 
L 495.930154 413.462558 
L 504.861819 416.345242 
L 506.648153 417.225315 
L 508.434486 419.847382 
L 510.220819 411.777631 
L 512.007152 415.294761 
L 513.793485 416.133116 
L 515.579818 416.596949 
L 519.152485 417.174191 
L 524.511484 417.670369 
L 528.08415 417.83489 
L 529.870484 417.710168 
L 531.656817 418.080358 
L 544.161149 417.844273 
L 551.306481 417.444721 
L 560.238147 416.692227 
L 565.597147 416.084446 
L 567.38348 415.670021 
L 569.169813 415.675113 
L 579.887812 414.111456 
L 588.819478 412.606462 
L 599.537477 410.294931 
L 601.32381 409.753905 
L 603.110143 408.256833 
L 604.896476 410.068088 
L 606.682809 409.217228 
L 612.041809 407.749842 
L 622.759808 404.882256 
L 624.546141 403.733577 
L 626.332474 403.980236 
L 638.836806 400.368538 
L 642.409472 399.440141 
L 644.195806 399.05574 
L 645.982139 398.787577 
L 647.768472 398.754703 
L 649.554805 399.258725 
L 651.341138 400.398019 
L 653.127471 353.142941 
L 654.913805 385.504954 
L 656.700138 388.366084 
L 658.486471 388.903647 
L 660.272804 388.780996 
L 662.059137 388.373903 
L 665.631804 387.15291 
L 669.20447 385.639944 
L 674.563469 383.031364 
L 679.922469 380.094203 
L 685.281468 376.836886 
L 690.640468 373.231188 
L 694.213134 370.608971 
L 697.7858 367.787618 
L 701.358467 364.739759 
L 704.931133 361.430711 
L 708.503799 357.81615 
L 712.076466 353.838234 
L 715.649132 349.420224 
L 719.221798 344.45722 
L 722.794465 338.800773 
L 724.580798 335.647825 
L 726.367131 332.230434 
L 728.153464 328.502924 
L 729.939797 324.402194 
L 731.72613 319.846714 
L 733.512463 314.724062 
L 735.298797 308.874002 
L 737.08513 302.05691 
L 738.871463 293.890737 
L 740.657796 283.709586 
L 742.444129 270.186722 
L 744.230462 250.002528 
L 746.016796 209.208859 
L 747.803129 192.353912 
L 749.589462 244.491813 
L 751.375795 266.931562 
L 753.162128 281.436712 
L 754.948461 292.176791 
L 756.734794 300.709692 
L 758.521128 307.790145 
L 760.307461 313.84165 
L 762.093794 319.125783 
L 763.880127 323.815485 
L 765.66646 328.031034 
L 767.452793 331.858825 
L 769.239127 335.367533 
L 771.02546 338.602061 
L 774.598126 344.405278 
L 778.170792 349.496917 
L 781.743459 354.034895 
L 785.316125 358.126691 
L 788.888791 361.85253 
L 792.461458 365.269706 
L 796.034124 368.436574 
L 801.393123 372.757892 
L 806.752123 376.682719 
L 810.324789 379.148607 
L 812.111122 380.160345 
L 815.683789 382.456709 
L 821.042788 385.591915 
L 826.401788 388.501933 
L 833.54712 392.092688 
L 840.692453 395.384011 
L 846.051452 397.737448 
L 854.983118 401.397529 
L 865.701117 405.695432 
L 867.48745 406.601024 
L 869.273783 411.006953 
L 871.060117 406.840556 
L 872.84645 407.883295 
L 879.991782 411.275287 
L 881.778115 412.33466 
L 883.564449 413.664726 
L 885.350782 415.579979 
L 887.137115 419.130838 
L 888.923448 431.400367 
L 890.709781 357.467654 
L 892.496114 401.382631 
L 894.282448 406.664692 
L 896.068781 409.003584 
L 897.855114 410.459072 
L 899.641447 411.52897 
L 903.214113 413.135873 
L 906.78678 414.399919 
L 912.145779 415.990585 
L 919.291112 417.797197 
L 924.650111 418.973969 
L 928.222778 419.629591 
L 930.009111 419.849597 
L 931.795444 419.765125 
L 933.581777 411.637102 
L 935.36811 422.659245 
L 937.154443 422.403636 
L 940.72711 422.840836 
L 946.086109 423.860083 
L 949.658775 424.788708 
L 951.445109 425.553849 
L 953.231442 427.494711 
L 955.017775 409.015665 
L 956.804108 422.745559 
L 958.590441 424.013869 
L 960.376774 424.633694 
L 963.949441 425.419982 
L 969.30844 426.261082 
L 976.453773 427.141575 
L 985.385439 427.995935 
L 994.317104 428.580836 
L 1001.462437 428.83287 
L 1008.60777 428.851821 
L 1013.966769 428.669067 
L 1019.325768 428.30007 
L 1024.684768 427.677041 
L 1028.257434 427.088868 
L 1031.830101 426.312388 
L 1033.616434 425.564479 
L 1035.402767 425.467012 
L 1038.975433 424.234588 
L 1042.5481 422.733391 
L 1046.120766 420.853103 
L 1049.693432 418.512004 
L 1051.479765 417.07983 
L 1053.266098 415.474767 
L 1055.052432 413.651592 
L 1056.838765 411.567359 
L 1058.625098 409.172992 
L 1060.411431 406.399126 
L 1062.197764 403.156368 
L 1063.984097 399.321183 
L 1065.770431 394.716764 
L 1067.556764 389.076952 
L 1069.343097 381.972873 
L 1071.12943 372.643543 
L 1072.915763 359.523906 
L 1074.702096 338.436295 
L 1076.48843 287.608056 
L 1078.274763 305.720247 
L 1080.061096 347.707895 
L 1081.847429 369.01148 
L 1083.633762 383.567486 
L 1085.420095 394.683935 
L 1087.206428 403.676489 
L 1088.992762 411.200993 
L 1090.779095 417.630979 
L 1092.565428 423.199564 
L 1094.351761 428.062932 
L 1096.138094 432.332085 
L 1097.924427 436.089914 
L 1099.710761 439.403693 
L 1101.497094 442.325481 
L 1103.283427 444.901873 
L 1105.06976 447.172815 
L 1106.856093 449.173768 
L 1108.642426 450.936382 
L 1110.428759 452.489148 
L 1112.215093 453.857646 
L 1114.001426 455.064178 
L 1117.574092 457.07305 
L 1121.146758 458.65144 
L 1124.719425 459.905675 
L 1128.292091 460.916343 
L 1133.651091 462.104807 
L 1139.01009 463.029864 
L 1146.155423 464.014016 
L 1162.232421 466.01406 
L 1164.018754 466.340907 
L 1165.805087 466.780976 
L 1167.59142 467.495754 
L 1169.377754 469.200877 
L 1171.164087 489.542968 
L 1172.95042 461.365843 
L 1174.736753 464.057102 
L 1176.523086 464.942937 
L 1178.309419 465.433068 
L 1181.882086 466.039471 
L 1187.241085 466.645237 
L 1199.745417 467.829503 
L 1203.318084 467.99411 
L 1233.685747 470.216894 
L 1235.47208 470.208052 
L 1237.258414 470.546791 
L 1255.121745 471.634807 
L 1256.908078 475.524536 
L 1258.694411 472.398369 
L 1262.267078 472.534324 
L 1265.839744 472.791307 
L 1265.839744 472.791307 
" clip-path="url(#p87a2cfeb2e)" style="fill: none; stroke: #1f77b4; stroke-width: 1.5; stroke-linecap: square"/>
   </g>
   <g id="line2d_68">
    <path d="M 85.073528 391.800161 
L 86.859861 391.746465 
L 88.646194 392.900859 
L 90.432527 391.343025 
L 95.791527 391.10026 
L 119.013858 389.616377 
L 158.313187 386.883333 
L 188.680851 384.620872 
L 192.253517 384.33379 
L 220.834848 382.042084 
L 252.988844 379.282465 
L 272.638509 377.609822 
L 274.424842 377.708289 
L 276.211175 376.420172 
L 277.997509 376.739774 
L 281.570175 376.505176 
L 294.074507 375.307961 
L 315.510505 373.027428 
L 331.587503 371.114631 
L 342.305502 369.648759 
L 349.450835 368.47655 
L 354.809834 367.353478 
L 358.382501 366.331471 
L 360.168834 365.649235 
L 361.955167 364.750245 
L 363.7415 363.445594 
L 365.527833 361.239011 
L 367.314166 356.301783 
L 369.1005 333.240641 
L 370.886833 374.176426 
L 372.673166 375.873987 
L 374.459499 372.774989 
L 376.245832 371.043833 
L 378.032165 369.924413 
L 379.818498 369.11102 
L 383.391165 367.935052 
L 386.963831 367.051601 
L 392.322831 365.968051 
L 401.254496 364.441431 
L 417.331495 361.920963 
L 447.699158 357.117274 
L 467.348823 353.781977 
L 483.425822 350.846149 
L 490.571154 349.379962 
L 492.357487 351.006254 
L 494.14382 348.912534 
L 501.289153 347.37839 
L 508.434486 345.784825 
L 510.220819 345.286837 
L 512.007152 344.403362 
L 513.793485 346.449283 
L 515.579818 344.900332 
L 519.152485 343.891673 
L 529.870484 341.466366 
L 540.588483 339.236316 
L 544.161149 338.646421 
L 547.733815 338.329691 
L 549.520148 338.419426 
L 551.306481 338.919148 
L 553.092815 340.52185 
L 554.879148 347.394674 
L 556.665481 269.904367 
L 558.451814 324.068963 
L 560.238147 327.626113 
L 562.02448 328.601646 
L 563.810814 328.836573 
L 565.597147 328.7496 
L 567.38348 328.485662 
L 570.956146 327.621512 
L 572.742479 327.021255 
L 574.528813 326.187151 
L 576.315146 324.250382 
L 578.101479 331.186888 
L 579.887812 326.829301 
L 581.674145 325.735369 
L 585.246811 324.235133 
L 599.537477 318.705556 
L 606.682809 315.662757 
L 612.041809 313.24493 
L 619.187141 309.757437 
L 624.546141 306.92717 
L 629.90514 303.883531 
L 635.26414 300.5852 
L 640.623139 297.016604 
L 645.982139 293.095089 
L 649.554805 290.256039 
L 653.127471 287.20703 
L 656.700138 283.913178 
L 660.272804 280.335075 
L 663.84547 276.416689 
L 667.418137 272.087892 
L 670.990803 267.253048 
L 674.563469 261.778887 
L 676.349802 258.744587 
L 678.136136 255.471438 
L 679.922469 251.914252 
L 681.708802 248.027199 
L 683.495135 243.737581 
L 685.281468 238.953252 
L 687.067801 233.545343 
L 688.854135 227.326858 
L 690.640468 220.011533 
L 692.426801 211.128195 
L 694.213134 199.816574 
L 695.999467 184.229319 
L 697.7858 159.012352 
L 699.572133 84.46522 
L 701.358467 142.146715 
L 703.1448 175.889128 
L 704.931133 194.274407 
L 706.717466 206.982257 
L 708.503799 216.703993 
L 710.290132 224.579391 
L 712.076466 231.199085 
L 713.862799 236.908982 
L 715.649132 241.929202 
L 717.435465 246.408523 
L 719.221798 250.452233 
L 721.008131 254.137255 
L 722.794465 257.522832 
L 726.367131 263.56458 
L 729.939797 268.838985 
L 733.512463 273.518989 
L 737.08513 277.724905 
L 740.657796 281.543816 
L 744.230462 285.040848 
L 747.803129 288.265776 
L 751.375795 291.257816 
L 756.734794 295.375762 
L 762.093794 299.120434 
L 767.452793 302.55336 
L 772.811793 305.721994 
L 778.170792 308.663627 
L 785.316125 312.283413 
L 792.461458 315.608073 
L 794.247791 315.643584 
L 796.034124 317.173657 
L 803.179457 320.133937 
L 810.324789 322.890579 
L 817.470122 325.461257 
L 821.042788 326.631273 
L 822.829121 327.566828 
L 824.615454 327.968566 
L 838.90612 332.521009 
L 840.692453 333.190361 
L 842.478786 334.500149 
L 844.265119 332.812172 
L 846.051452 333.976907 
L 849.624119 335.155195 
L 856.769451 337.117156 
L 867.48745 339.798412 
L 879.991782 342.667517 
L 892.496114 345.31082 
L 905.000446 347.738931 
L 922.863778 350.888578 
L 935.36811 352.86867 
L 940.72711 353.682304 
L 955.017775 355.647892 
L 969.30844 357.374005 
L 978.240106 358.379632 
L 980.026439 358.801295 
L 981.812772 358.103662 
L 983.599105 358.541964 
L 987.171772 358.852949 
L 990.744438 359.006687 
L 994.317104 358.936378 
L 996.103437 358.707479 
L 997.889771 358.132346 
L 999.676104 356.411914 
L 1001.462437 342.012923 
L 1003.24877 368.123364 
L 1005.035103 364.194809 
L 1006.821436 363.192762 
L 1008.60777 362.788938 
L 1012.180436 362.517168 
L 1017.539435 362.501072 
L 1028.257434 362.697456 
L 1030.043767 363.016686 
L 1031.830101 362.746842 
L 1042.5481 362.737342 
L 1051.479765 362.470339 
L 1058.625098 362.021386 
L 1063.984097 361.506443 
L 1069.343097 360.798594 
L 1074.702096 359.847966 
L 1078.274763 359.046183 
L 1081.847429 358.078872 
L 1085.420095 356.910414 
L 1088.992762 355.493786 
L 1092.565428 353.765247 
L 1096.138094 351.635954 
L 1097.924427 350.383195 
L 1099.710761 348.977934 
L 1101.497094 347.393905 
L 1103.283427 345.598197 
L 1105.06976 343.547778 
L 1106.856093 341.188048 
L 1108.642426 338.444854 
L 1110.428759 335.216594 
L 1112.215093 331.358533 
L 1114.001426 326.655005 
L 1115.787759 320.765016 
L 1117.574092 313.103365 
L 1119.360425 302.536277 
L 1121.146758 286.379079 
L 1122.933092 254.959404 
L 1124.719425 199.703444 
L 1126.505758 276.787684 
L 1128.292091 304.663108 
L 1130.078424 323.040555 
L 1131.864757 337.285063 
L 1133.651091 349.255077 
L 1135.437424 359.821339 
L 1137.223757 369.463526 
L 1140.796423 387.031963 
L 1144.369089 403.353528 
L 1146.155423 410.131998 
L 1147.941756 417.432275 
L 1149.728089 423.808649 
L 1151.514422 429.138483 
L 1153.300755 433.123705 
L 1155.087088 435.591189 
L 1156.873422 436.597189 
L 1158.659755 436.418721 
L 1160.446088 435.423864 
L 1162.232421 433.949354 
L 1171.164087 425.499487 
L 1174.736753 422.712191 
L 1178.309419 420.352299 
L 1181.882086 418.365053 
L 1185.454752 416.69015 
L 1189.027418 415.262998 
L 1192.600085 414.068376 
L 1196.172751 413.044047 
L 1201.53175 411.779241 
L 1206.89075 410.775937 
L 1214.036083 409.747587 
L 1221.181415 408.993955 
L 1230.113081 408.325472 
L 1242.617413 407.556013 
L 1244.403746 407.230124 
L 1246.190079 405.232582 
L 1247.976413 409.279713 
L 1249.762746 408.417443 
L 1251.549079 408.208305 
L 1255.121745 408.097555 
L 1258.694411 408.153489 
L 1262.267078 408.428685 
L 1264.053411 408.802537 
L 1265.839744 409.898636 
L 1265.839744 409.898636 
" clip-path="url(#p87a2cfeb2e)" style="fill: none; stroke: #ff7f0e; stroke-width: 1.5; stroke-linecap: square"/>
   </g>
   <g id="LineCollection_1">
    <path d="M 322.655837 721 
L 322.655837 66.277628 
" clip-path="url(#p87a2cfeb2e)" style="fill: none; stroke-dasharray: 5.55,2.4; stroke-dashoffset: 0; stroke: #1f77b4; stroke-width: 1.5"/>
   </g>
   <g id="line2d_69">
    <defs>
     <path id="m018c6cf934" d="M 0 3 
C 0.795609 3 1.55874 2.683901 2.12132 2.12132 
C 2.683901 1.55874 3 0.795609 3 0 
C 3 -0.795609 2.683901 -1.55874 2.12132 -2.12132 
C 1.55874 -2.683901 0.795609 -3 0 -3 
C -0.795609 -3 -1.55874 -2.683901 -2.12132 -2.12132 
C -2.683901 -1.55874 -3 -0.795609 -3 0 
C -3 0.795609 -2.683901 1.55874 -2.12132 2.12132 
C -1.55874 2.683901 -0.795609 3 0 3 
z
" style="stroke: #1f77b4"/>
    </defs>
    <g clip-path="url(#p87a2cfeb2e)">
     <use xlink:href="#m018c6cf934" x="322.655837" y="66.277628" style="fill: #1f77b4; stroke: #1f77b4"/>
    </g>
   </g>
   <g id="line2d_70">
    <path clip-path="url(#p87a2cfeb2e)" style="fill: none; stroke: #d62728; stroke-width: 1.5; stroke-linecap: square"/>
   </g>
   <g id="LineCollection_2">
    <path d="M 699.572133 721 
L 699.572133 84.46522 
" clip-path="url(#p87a2cfeb2e)" style="fill: none; stroke-dasharray: 5.55,2.4; stroke-dashoffset: 0; stroke: #ff7f0e; stroke-width: 1.5"/>
   </g>
   <g id="line2d_71">
    <defs>
     <path id="m0956ac633d" d="M 0 3 
C 0.795609 3 1.55874 2.683901 2.12132 2.12132 
C 2.683901 1.55874 3 0.795609 3 0 
C 3 -0.795609 2.683901 -1.55874 2.12132 -2.12132 
C 1.55874 -2.683901 0.795609 -3 0 -3 
C -0.795609 -3 -1.55874 -2.683901 -2.12132 -2.12132 
C -2.683901 -1.55874 -3 -0.795609 -3 0 
C -3 0.795609 -2.683901 1.55874 -2.12132 2.12132 
C -1.55874 2.683901 -0.795609 3 0 3 
z
" style="stroke: #ff7f0e"/>
    </defs>
    <g clip-path="url(#p87a2cfeb2e)">
     <use xlink:href="#m0956ac633d" x="699.572133" y="84.46522" style="fill: #ff7f0e; stroke: #ff7f0e"/>
    </g>
   </g>
   <g id="line2d_72">
    <path clip-path="url(#p87a2cfeb2e)" style="fill: none; stroke: #d62728; stroke-width: 1.5; stroke-linecap: square"/>
   </g>
   <g id="patch_3">
    <path d="M 86.359688 658.519688 
L 86.359688 38.075625 
" style="fill: none; stroke: #000000; stroke-width: 0.8; stroke-linejoin: miter; stroke-linecap: square"/>
   </g>
   <g id="patch_4">
    <path d="M 1265.160938 658.519688 
L 1265.160938 38.075625 
" style="fill: none; stroke: #000000; stroke-width: 0.8; stroke-linejoin: miter; stroke-linecap: square"/>
   </g>
   <g id="patch_5">
    <path d="M 86.359687 658.519688 
L 1265.160938 658.519688 
" style="fill: none; stroke: #000000; stroke-width: 0.8; stroke-linejoin: miter; stroke-linecap: square"/>
   </g>
   <g id="patch_6">
    <path d="M 86.359687 38.075625 
L 1265.160938 38.075625 
" style="fill: none; stroke: #000000; stroke-width: 0.8; stroke-linejoin: miter; stroke-linecap: square"/>
   </g>
   <g id="text_15">
    <!-- Driven Motion Spectrum -->
    <g transform="translate(505.360625 32.075625) scale(0.28 -0.28)">
     <defs>
      <path id="DejaVuSans-44" d="M 1259 4147 
L 1259 519 
L 2022 519 
Q 2988 519 3436 956 
Q 3884 1394 3884 2338 
Q 3884 3275 3436 3711 
Q 2988 4147 2022 4147 
L 1259 4147 
z
M 628 4666 
L 1925 4666 
Q 3281 4666 3915 4102 
Q 4550 3538 4550 2338 
Q 4550 1131 3912 565 
Q 3275 0 1925 0 
L 628 0 
L 628 4666 
z
" transform="scale(0.015625)"/>
      <path id="DejaVuSans-69" d="M 603 3500 
L 1178 3500 
L 1178 0 
L 603 0 
L 603 3500 
z
M 603 4863 
L 1178 4863 
L 1178 4134 
L 603 4134 
L 603 4863 
z
" transform="scale(0.015625)"/>
      <path id="DejaVuSans-76" d="M 191 3500 
L 800 3500 
L 1894 563 
L 2988 3500 
L 3597 3500 
L 2284 0 
L 1503 0 
L 191 3500 
z
" transform="scale(0.015625)"/>
      <path id="DejaVuSans-4d" d="M 628 4666 
L 1569 4666 
L 2759 1491 
L 3956 4666 
L 4897 4666 
L 4897 0 
L 4281 0 
L 4281 4097 
L 3078 897 
L 2444 897 
L 1241 4097 
L 1241 0 
L 628 0 
L 628 4666 
z
" transform="scale(0.015625)"/>
      <path id="DejaVuSans-6f" d="M 1959 3097 
Q 1497 3097 1228 2736 
Q 959 2375 959 1747 
Q 959 1119 1226 758 
Q 1494 397 1959 397 
Q 2419 397 2687 759 
Q 2956 1122 2956 1747 
Q 2956 2369 2687 2733 
Q 2419 3097 1959 3097 
z
M 1959 3584 
Q 2709 3584 3137 3096 
Q 3566 2609 3566 1747 
Q 3566 888 3137 398 
Q 2709 -91 1959 -91 
Q 1206 -91 779 398 
Q 353 888 353 1747 
Q 353 2609 779 3096 
Q 1206 3584 1959 3584 
z
" transform="scale(0.015625)"/>
     </defs>
     <use xlink:href="#DejaVuSans-44"/>
     <use xlink:href="#DejaVuSans-72" x="77.001953"/>
     <use xlink:href="#DejaVuSans-69" x="118.115234"/>
     <use xlink:href="#DejaVuSans-76" x="145.898438"/>
     <use xlink:href="#DejaVuSans-65" x="205.078125"/>
     <use xlink:href="#DejaVuSans-6e" x="266.601562"/>
     <use xlink:href="#DejaVuSans-20" x="329.980469"/>
     <use xlink:href="#DejaVuSans-4d" x="361.767578"/>
     <use xlink:href="#DejaVuSans-6f" x="448.046875"/>
     <use xlink:href="#DejaVuSans-74" x="509.228516"/>
     <use xlink:href="#DejaVuSans-69" x="548.4375"/>
     <use xlink:href="#DejaVuSans-6f" x="576.220703"/>
     <use xlink:href="#DejaVuSans-6e" x="637.402344"/>
     <use xlink:href="#DejaVuSans-20" x="700.78125"/>
     <use xlink:href="#DejaVuSans-53" x="732.568359"/>
     <use xlink:href="#DejaVuSans-70" x="796.044922"/>
     <use xlink:href="#DejaVuSans-65" x="859.521484"/>
     <use xlink:href="#DejaVuSans-63" x="921.044922"/>
     <use xlink:href="#DejaVuSans-74" x="976.025391"/>
     <use xlink:href="#DejaVuSans-72" x="1015.234375"/>
     <use xlink:href="#DejaVuSans-75" x="1056.347656"/>
     <use xlink:href="#DejaVuSans-6d" x="1119.726562"/>
    </g>
   </g>
   <g id="legend_1">
    <g id="patch_7">
     <path d="M 103.159688 200.634375 
L 299.663437 200.634375 
Q 304.463437 200.634375 304.463437 195.834375 
L 304.463437 54.875625 
Q 304.463437 50.075625 299.663437 50.075625 
L 103.159688 50.075625 
Q 98.359688 50.075625 98.359688 54.875625 
L 98.359688 195.834375 
Q 98.359688 200.634375 103.159688 200.634375 
z
" style="fill: #ffffff; opacity: 0.8; stroke: #cccccc; stroke-linejoin: miter"/>
    </g>
    <g id="line2d_73">
     <path d="M 107.959688 69.511875 
L 131.959688 69.511875 
L 155.959688 69.511875 
" style="fill: none; stroke: #1f77b4; stroke-width: 1.5; stroke-linecap: square"/>
    </g>
    <g id="text_16">
     <!-- horizontal -->
     <g transform="translate(175.159688 77.911875) scale(0.24 -0.24)">
      <defs>
       <path id="DejaVuSans-68" d="M 3513 2113 
L 3513 0 
L 2938 0 
L 2938 2094 
Q 2938 2591 2744 2837 
Q 2550 3084 2163 3084 
Q 1697 3084 1428 2787 
Q 1159 2491 1159 1978 
L 1159 0 
L 581 0 
L 581 4863 
L 1159 4863 
L 1159 2956 
Q 1366 3272 1645 3428 
Q 1925 3584 2291 3584 
Q 2894 3584 3203 3211 
Q 3513 2838 3513 2113 
z
" transform="scale(0.015625)"/>
       <path id="DejaVuSans-7a" d="M 353 3500 
L 3084 3500 
L 3084 2975 
L 922 459 
L 3084 459 
L 3084 0 
L 275 0 
L 275 525 
L 2438 3041 
L 353 3041 
L 353 3500 
z
" transform="scale(0.015625)"/>
       <path id="DejaVuSans-6c" d="M 603 4863 
L 1178 4863 
L 1178 0 
L 603 0 
L 603 4863 
z
" transform="scale(0.015625)"/>
      </defs>
      <use xlink:href="#DejaVuSans-68"/>
      <use xlink:href="#DejaVuSans-6f" x="63.378906"/>
      <use xlink:href="#DejaVuSans-72" x="124.560547"/>
      <use xlink:href="#DejaVuSans-69" x="165.673828"/>
      <use xlink:href="#DejaVuSans-7a" x="193.457031"/>
      <use xlink:href="#DejaVuSans-6f" x="245.947266"/>
      <use xlink:href="#DejaVuSans-6e" x="307.128906"/>
      <use xlink:href="#DejaVuSans-74" x="370.507812"/>
      <use xlink:href="#DejaVuSans-61" x="409.716797"/>
      <use xlink:href="#DejaVuSans-6c" x="470.996094"/>
     </g>
    </g>
    <g id="line2d_74">
     <path d="M 107.959688 104.739375 
L 131.959688 104.739375 
L 155.959688 104.739375 
" style="fill: none; stroke: #ff7f0e; stroke-width: 1.5; stroke-linecap: square"/>
    </g>
    <g id="text_17">
     <!-- vertical -->
     <g transform="translate(175.159688 113.139375) scale(0.24 -0.24)">
      <use xlink:href="#DejaVuSans-76"/>
      <use xlink:href="#DejaVuSans-65" x="59.179688"/>
      <use xlink:href="#DejaVuSans-72" x="120.703125"/>
      <use xlink:href="#DejaVuSans-74" x="161.816406"/>
      <use xlink:href="#DejaVuSans-69" x="201.025391"/>
      <use xlink:href="#DejaVuSans-63" x="228.808594"/>
      <use xlink:href="#DejaVuSans-61" x="283.789062"/>
      <use xlink:href="#DejaVuSans-6c" x="345.068359"/>
     </g>
    </g>
    <g id="line2d_75">
     <path d="M 131.959688 148.366875 
L 131.959688 136.816875 
" style="fill: none; stroke-dasharray: 8.325,3.6; stroke-dashoffset: 0; stroke: #1f77b4; stroke-width: 1.5"/>
    </g>
    <g id="line2d_76">
     <path d="M 107.959688 148.366875 
L 155.959688 148.366875 
" style="fill: none; stroke: #d62728; stroke-width: 1.5; stroke-linecap: square"/>
    </g>
    <g id="line2d_77">
     <g>
      <use xlink:href="#m018c6cf934" x="131.959688" y="136.816875" style="fill: #1f77b4; stroke: #1f77b4"/>
     </g>
    </g>
    <g id="text_18">
     <!-- $Q_{xD}$ -->
     <g transform="translate(175.159688 148.366875) scale(0.24 -0.24)">
      <defs>
       <path id="DejaVuSans-Oblique-51" d="M 2309 -84 
Q 2275 -88 2237 -89 
Q 2200 -91 2125 -91 
Q 1250 -91 756 411 
Q 263 913 263 1797 
Q 263 2319 452 2844 
Q 641 3369 978 3788 
Q 1369 4269 1858 4509 
Q 2347 4750 2938 4750 
Q 3794 4750 4287 4245 
Q 4781 3741 4781 2869 
Q 4781 1928 4265 1147 
Q 3750 366 2919 44 
L 3553 -825 
L 2847 -825 
L 2309 -84 
z
M 2919 4238 
Q 2400 4238 2003 3986 
Q 1606 3734 1313 3219 
Q 1125 2891 1026 2522 
Q 928 2153 928 1778 
Q 928 1128 1239 775 
Q 1550 422 2119 422 
Q 2631 422 3032 676 
Q 3434 931 3719 1434 
Q 3909 1772 4009 2142 
Q 4109 2513 4109 2881 
Q 4109 3528 3796 3883 
Q 3484 4238 2919 4238 
z
" transform="scale(0.015625)"/>
       <path id="DejaVuSans-Oblique-78" d="M 3841 3500 
L 2234 1784 
L 3219 0 
L 2559 0 
L 1819 1388 
L 531 0 
L -166 0 
L 1556 1844 
L 641 3500 
L 1300 3500 
L 1972 2234 
L 3144 3500 
L 3841 3500 
z
" transform="scale(0.015625)"/>
       <path id="DejaVuSans-Oblique-44" d="M 1081 4666 
L 2438 4666 
Q 3519 4666 4070 4208 
Q 4622 3750 4622 2847 
Q 4622 2250 4412 1698 
Q 4203 1147 3834 769 
Q 3463 381 2891 190 
Q 2319 0 1538 0 
L 172 0 
L 1081 4666 
z
M 1613 4147 
L 909 519 
L 1734 519 
Q 2794 519 3375 1128 
Q 3956 1738 3956 2847 
Q 3956 3519 3581 3833 
Q 3206 4147 2406 4147 
L 1613 4147 
z
" transform="scale(0.015625)"/>
      </defs>
      <use xlink:href="#DejaVuSans-Oblique-51" transform="translate(0 0.78125)"/>
      <use xlink:href="#DejaVuSans-Oblique-78" transform="translate(78.710938 -15.625) scale(0.7)"/>
      <use xlink:href="#DejaVuSans-Oblique-44" transform="translate(120.136719 -15.625) scale(0.7)"/>
     </g>
    </g>
    <g id="line2d_78">
     <path d="M 131.959688 183.594375 
L 131.959688 172.044375 
" style="fill: none; stroke-dasharray: 8.325,3.6; stroke-dashoffset: 0; stroke: #ff7f0e; stroke-width: 1.5"/>
    </g>
    <g id="line2d_79">
     <path d="M 107.959688 183.594375 
L 155.959688 183.594375 
" style="fill: none; stroke: #d62728; stroke-width: 1.5; stroke-linecap: square"/>
    </g>
    <g id="line2d_80">
     <g>
      <use xlink:href="#m0956ac633d" x="131.959688" y="172.044375" style="fill: #ff7f0e; stroke: #ff7f0e"/>
     </g>
    </g>
    <g id="text_19">
     <!-- $Q_{yD}$ -->
     <g transform="translate(175.159688 183.594375) scale(0.24 -0.24)">
      <defs>
       <path id="DejaVuSans-Oblique-79" d="M 1588 -325 
Q 1188 -997 936 -1164 
Q 684 -1331 294 -1331 
L -159 -1331 
L -63 -850 
L 269 -850 
Q 509 -850 678 -719 
Q 847 -588 1056 -206 
L 1234 128 
L 459 3500 
L 1069 3500 
L 1650 819 
L 3256 3500 
L 3859 3500 
L 1588 -325 
z
" transform="scale(0.015625)"/>
      </defs>
      <use xlink:href="#DejaVuSans-Oblique-51" transform="translate(0 0.78125)"/>
      <use xlink:href="#DejaVuSans-Oblique-79" transform="translate(78.710938 -15.625) scale(0.7)"/>
      <use xlink:href="#DejaVuSans-Oblique-44" transform="translate(120.136719 -15.625) scale(0.7)"/>
     </g>
    </g>
   </g>
  </g>
 </g>
 <defs>
  <clipPath id="p87a2cfeb2e">
   <rect x="86.359688" y="38.075625" width="1178.80125" height="620.444062"/>
  </clipPath>
 </defs>
</svg>
