<?xml version="1.0" encoding="utf-8" standalone="no"?>
<!DOCTYPE svg PUBLIC "-//W3C//DTD SVG 1.1//EN"
  "http://www.w3.org/Graphics/SVG/1.1/DTD/svg11.dtd">
<svg xmlns:xlink="http://www.w3.org/1999/xlink" width="1080pt" height="720pt" viewBox="0 0 1080 720" xmlns="http://www.w3.org/2000/svg" version="1.1">
 <metadata>
  <rdf:RDF xmlns:dc="http://purl.org/dc/elements/1.1/" xmlns:cc="http://creativecommons.org/ns#" xmlns:rdf="http://www.w3.org/1999/02/22-rdf-syntax-ns#">
   <cc:Work>
    <dc:type rdf:resource="http://purl.org/dc/dcmitype/StillImage"/>
    <dc:date>2023-03-11T10:11:18.314071</dc:date>
    <dc:format>image/svg+xml</dc:format>
    <dc:creator>
     <cc:Agent>
      <dc:title>Matplotlib v3.7.1, https://matplotlib.org/</dc:title>
     </cc:Agent>
    </dc:creator>
   </cc:Work>
  </rdf:RDF>
 </metadata>
 <defs>
  <style type="text/css">*{stroke-linejoin: round; stroke-linecap: butt}</style>
 </defs>
 <g id="figure_1">
  <g id="patch_1">
   <path d="M 0 720 
L 1080 720 
L 1080 0 
L 0 0 
z
" style="fill: #ffffff"/>
  </g>
  <g id="axes_1">
   <g id="patch_2">
    <path d="M 96.330625 327.509844 
L 1069.2 327.509844 
L 1069.2 38.075625 
L 96.330625 38.075625 
z
" style="fill: #ffffff"/>
   </g>
   <g id="line2d_1">
    <path d="M 920.823152 327.509844 
L 920.823152 38.075625 
" clip-path="url(#p22b9038f01)" style="fill: none; stroke-dasharray: 1.5,2.475; stroke-dashoffset: 0; stroke: #808080; stroke-width: 1.5"/>
   </g>
   <g id="line2d_2">
    <path d="M 146.952313 327.509844 
L 146.952313 38.075625 
" clip-path="url(#p22b9038f01)" style="fill: none; stroke-dasharray: 1.5,2.475; stroke-dashoffset: 0; stroke: #808080; stroke-width: 1.5"/>
   </g>
   <g id="line2d_3">
    <path d="M 257.503123 327.509844 
L 257.503123 38.075625 
" clip-path="url(#p22b9038f01)" style="fill: none; stroke-dasharray: 1.5,2.475; stroke-dashoffset: 0; stroke: #808080; stroke-width: 1.5"/>
   </g>
   <g id="line2d_4">
    <path d="M 368.053934 327.509844 
L 368.053934 38.075625 
" clip-path="url(#p22b9038f01)" style="fill: none; stroke-dasharray: 1.5,2.475; stroke-dashoffset: 0; stroke: #808080; stroke-width: 1.5"/>
   </g>
   <g id="line2d_5">
    <path d="M 478.604745 327.509844 
L 478.604745 38.075625 
" clip-path="url(#p22b9038f01)" style="fill: none; stroke-dasharray: 1.5,2.475; stroke-dashoffset: 0; stroke: #808080; stroke-width: 1.5"/>
   </g>
   <g id="line2d_6">
    <path d="M 589.16061 327.509844 
L 589.16061 38.075625 
" clip-path="url(#p22b9038f01)" style="fill: none; stroke-dasharray: 1.5,2.475; stroke-dashoffset: 0; stroke: #808080; stroke-width: 1.5"/>
   </g>
   <g id="line2d_7">
    <path d="M 699.716476 327.509844 
L 699.716476 38.075625 
" clip-path="url(#p22b9038f01)" style="fill: none; stroke-dasharray: 1.5,2.475; stroke-dashoffset: 0; stroke: #808080; stroke-width: 1.5"/>
   </g>
   <g id="line2d_8">
    <path d="M 809.90011 327.509844 
L 809.90011 38.075625 
" clip-path="url(#p22b9038f01)" style="fill: none; stroke-dasharray: 1.5,2.475; stroke-dashoffset: 0; stroke: #808080; stroke-width: 1.5"/>
   </g>
   <g id="matplotlib.axis_1">
    <g id="xtick_1">
     <g id="line2d_9">
      <defs>
       <path id="mcb7698c830" d="M 0 0 
L 0 3.5 
" style="stroke: #000000; stroke-width: 0.8"/>
      </defs>
      <g>
       <use xlink:href="#mcb7698c830" x="140.55196" y="327.509844" style="stroke: #000000; stroke-width: 0.8"/>
      </g>
     </g>
    </g>
    <g id="xtick_2">
     <g id="line2d_10">
      <g>
       <use xlink:href="#mcb7698c830" x="306.430384" y="327.509844" style="stroke: #000000; stroke-width: 0.8"/>
      </g>
     </g>
    </g>
    <g id="xtick_3">
     <g id="line2d_11">
      <g>
       <use xlink:href="#mcb7698c830" x="472.308808" y="327.509844" style="stroke: #000000; stroke-width: 0.8"/>
      </g>
     </g>
    </g>
    <g id="xtick_4">
     <g id="line2d_12">
      <g>
       <use xlink:href="#mcb7698c830" x="638.187231" y="327.509844" style="stroke: #000000; stroke-width: 0.8"/>
      </g>
     </g>
    </g>
    <g id="xtick_5">
     <g id="line2d_13">
      <g>
       <use xlink:href="#mcb7698c830" x="804.065655" y="327.509844" style="stroke: #000000; stroke-width: 0.8"/>
      </g>
     </g>
    </g>
    <g id="xtick_6">
     <g id="line2d_14">
      <g>
       <use xlink:href="#mcb7698c830" x="969.944079" y="327.509844" style="stroke: #000000; stroke-width: 0.8"/>
      </g>
     </g>
    </g>
   </g>
   <g id="matplotlib.axis_2">
    <g id="ytick_1">
     <g id="line2d_15">
      <defs>
       <path id="m6659cef5bc" d="M 0 0 
L -3.5 0 
" style="stroke: #000000; stroke-width: 0.8"/>
      </defs>
      <g>
       <use xlink:href="#m6659cef5bc" x="96.330625" y="315.678959" style="stroke: #000000; stroke-width: 0.8"/>
      </g>
     </g>
     <g id="text_1">
      <!-- 0.00 -->
      <g transform="translate(49.2525 322.517552) scale(0.18 -0.18)">
       <defs>
        <path id="DejaVuSans-30" d="M 2034 4250 
Q 1547 4250 1301 3770 
Q 1056 3291 1056 2328 
Q 1056 1369 1301 889 
Q 1547 409 2034 409 
Q 2525 409 2770 889 
Q 3016 1369 3016 2328 
Q 3016 3291 2770 3770 
Q 2525 4250 2034 4250 
z
M 2034 4750 
Q 2819 4750 3233 4129 
Q 3647 3509 3647 2328 
Q 3647 1150 3233 529 
Q 2819 -91 2034 -91 
Q 1250 -91 836 529 
Q 422 1150 422 2328 
Q 422 3509 836 4129 
Q 1250 4750 2034 4750 
z
" transform="scale(0.015625)"/>
        <path id="DejaVuSans-2e" d="M 684 794 
L 1344 794 
L 1344 0 
L 684 0 
L 684 794 
z
" transform="scale(0.015625)"/>
       </defs>
       <use xlink:href="#DejaVuSans-30"/>
       <use xlink:href="#DejaVuSans-2e" x="63.623047"/>
       <use xlink:href="#DejaVuSans-30" x="95.410156"/>
       <use xlink:href="#DejaVuSans-30" x="159.033203"/>
      </g>
     </g>
    </g>
    <g id="ytick_2">
     <g id="line2d_16">
      <g>
       <use xlink:href="#m6659cef5bc" x="96.330625" y="248.373121" style="stroke: #000000; stroke-width: 0.8"/>
      </g>
     </g>
     <g id="text_2">
      <!-- 0.05 -->
      <g transform="translate(49.2525 255.211715) scale(0.18 -0.18)">
       <defs>
        <path id="DejaVuSans-35" d="M 691 4666 
L 3169 4666 
L 3169 4134 
L 1269 4134 
L 1269 2991 
Q 1406 3038 1543 3061 
Q 1681 3084 1819 3084 
Q 2600 3084 3056 2656 
Q 3513 2228 3513 1497 
Q 3513 744 3044 326 
Q 2575 -91 1722 -91 
Q 1428 -91 1123 -41 
Q 819 9 494 109 
L 494 744 
Q 775 591 1075 516 
Q 1375 441 1709 441 
Q 2250 441 2565 725 
Q 2881 1009 2881 1497 
Q 2881 1984 2565 2268 
Q 2250 2553 1709 2553 
Q 1456 2553 1204 2497 
Q 953 2441 691 2322 
L 691 4666 
z
" transform="scale(0.015625)"/>
       </defs>
       <use xlink:href="#DejaVuSans-30"/>
       <use xlink:href="#DejaVuSans-2e" x="63.623047"/>
       <use xlink:href="#DejaVuSans-30" x="95.410156"/>
       <use xlink:href="#DejaVuSans-35" x="159.033203"/>
      </g>
     </g>
    </g>
    <g id="ytick_3">
     <g id="line2d_17">
      <g>
       <use xlink:href="#m6659cef5bc" x="96.330625" y="181.067283" style="stroke: #000000; stroke-width: 0.8"/>
      </g>
     </g>
     <g id="text_3">
      <!-- 0.10 -->
      <g transform="translate(49.2525 187.905877) scale(0.18 -0.18)">
       <defs>
        <path id="DejaVuSans-31" d="M 794 531 
L 1825 531 
L 1825 4091 
L 703 3866 
L 703 4441 
L 1819 4666 
L 2450 4666 
L 2450 531 
L 3481 531 
L 3481 0 
L 794 0 
L 794 531 
z
" transform="scale(0.015625)"/>
       </defs>
       <use xlink:href="#DejaVuSans-30"/>
       <use xlink:href="#DejaVuSans-2e" x="63.623047"/>
       <use xlink:href="#DejaVuSans-31" x="95.410156"/>
       <use xlink:href="#DejaVuSans-30" x="159.033203"/>
      </g>
     </g>
    </g>
    <g id="ytick_4">
     <g id="line2d_18">
      <g>
       <use xlink:href="#m6659cef5bc" x="96.330625" y="113.761445" style="stroke: #000000; stroke-width: 0.8"/>
      </g>
     </g>
     <g id="text_4">
      <!-- 0.15 -->
      <g transform="translate(49.2525 120.600039) scale(0.18 -0.18)">
       <use xlink:href="#DejaVuSans-30"/>
       <use xlink:href="#DejaVuSans-2e" x="63.623047"/>
       <use xlink:href="#DejaVuSans-31" x="95.410156"/>
       <use xlink:href="#DejaVuSans-35" x="159.033203"/>
      </g>
     </g>
    </g>
    <g id="ytick_5">
     <g id="line2d_19">
      <g>
       <use xlink:href="#m6659cef5bc" x="96.330625" y="46.455607" style="stroke: #000000; stroke-width: 0.8"/>
      </g>
     </g>
     <g id="text_5">
      <!-- 0.20 -->
      <g transform="translate(49.2525 53.294201) scale(0.18 -0.18)">
       <defs>
        <path id="DejaVuSans-32" d="M 1228 531 
L 3431 531 
L 3431 0 
L 469 0 
L 469 531 
Q 828 903 1448 1529 
Q 2069 2156 2228 2338 
Q 2531 2678 2651 2914 
Q 2772 3150 2772 3378 
Q 2772 3750 2511 3984 
Q 2250 4219 1831 4219 
Q 1534 4219 1204 4116 
Q 875 4013 500 3803 
L 500 4441 
Q 881 4594 1212 4672 
Q 1544 4750 1819 4750 
Q 2544 4750 2975 4387 
Q 3406 4025 3406 3419 
Q 3406 3131 3298 2873 
Q 3191 2616 2906 2266 
Q 2828 2175 2409 1742 
Q 1991 1309 1228 531 
z
" transform="scale(0.015625)"/>
       </defs>
       <use xlink:href="#DejaVuSans-30"/>
       <use xlink:href="#DejaVuSans-2e" x="63.623047"/>
       <use xlink:href="#DejaVuSans-32" x="95.410156"/>
       <use xlink:href="#DejaVuSans-30" x="159.033203"/>
      </g>
     </g>
    </g>
    <g id="text_6">
     <!-- |RDT| -->
     <g transform="translate(39.829531 214.410547) rotate(-90) scale(0.23 -0.23)">
      <defs>
       <path id="DejaVuSans-7c" d="M 1344 4891 
L 1344 -1509 
L 813 -1509 
L 813 4891 
L 1344 4891 
z
" transform="scale(0.015625)"/>
       <path id="DejaVuSans-52" d="M 2841 2188 
Q 3044 2119 3236 1894 
Q 3428 1669 3622 1275 
L 4263 0 
L 3584 0 
L 2988 1197 
Q 2756 1666 2539 1819 
Q 2322 1972 1947 1972 
L 1259 1972 
L 1259 0 
L 628 0 
L 628 4666 
L 2053 4666 
Q 2853 4666 3247 4331 
Q 3641 3997 3641 3322 
Q 3641 2881 3436 2590 
Q 3231 2300 2841 2188 
z
M 1259 4147 
L 1259 2491 
L 2053 2491 
Q 2509 2491 2742 2702 
Q 2975 2913 2975 3322 
Q 2975 3731 2742 3939 
Q 2509 4147 2053 4147 
L 1259 4147 
z
" transform="scale(0.015625)"/>
       <path id="DejaVuSans-44" d="M 1259 4147 
L 1259 519 
L 2022 519 
Q 2988 519 3436 956 
Q 3884 1394 3884 2338 
Q 3884 3275 3436 3711 
Q 2988 4147 2022 4147 
L 1259 4147 
z
M 628 4666 
L 1925 4666 
Q 3281 4666 3915 4102 
Q 4550 3538 4550 2338 
Q 4550 1131 3912 565 
Q 3275 0 1925 0 
L 628 0 
L 628 4666 
z
" transform="scale(0.015625)"/>
       <path id="DejaVuSans-54" d="M -19 4666 
L 3928 4666 
L 3928 4134 
L 2272 4134 
L 2272 0 
L 1638 0 
L 1638 4134 
L -19 4134 
L -19 4666 
z
" transform="scale(0.015625)"/>
      </defs>
      <use xlink:href="#DejaVuSans-7c"/>
      <use xlink:href="#DejaVuSans-52" x="33.691406"/>
      <use xlink:href="#DejaVuSans-44" x="103.173828"/>
      <use xlink:href="#DejaVuSans-54" x="180.175781"/>
      <use xlink:href="#DejaVuSans-7c" x="241.259766"/>
     </g>
    </g>
   </g>
   <g id="line2d_20">
    <path d="M 140.55196 157.780335 
L 182.643542 157.780335 
L 182.664044 156.841707 
L 189.736306 156.841707 
L 189.756809 155.830867 
L 214.560982 155.830867 
L 214.581484 154.711518 
L 221.653746 154.711518 
L 221.674249 153.595523 
L 293.208651 153.595523 
L 293.229154 152.325561 
L 300.301415 152.325561 
L 300.321918 150.936909 
L 325.126091 150.936909 
L 325.146594 149.343891 
L 332.218856 149.343891 
L 332.239358 147.739868 
L 477.054793 147.739868 
L 477.143356 51.231726 
L 480.147298 51.231726 
L 480.162841 147.741686 
L 624.853283 147.741686 
L 624.873786 149.961998 
L 631.946442 149.961998 
L 631.966944 152.276712 
L 656.772496 152.276712 
L 656.792998 155.017136 
L 663.865654 155.017136 
L 663.886157 157.829744 
L 1024.978665 157.780335 
L 1024.978665 157.780335 
" clip-path="url(#p22b9038f01)" style="fill: none; stroke: #1f77b4; stroke-width: 1.5; stroke-linecap: square"/>
   </g>
   <g id="line2d_21">
    <path d="M 140.55196 312.821659 
L 182.643542 312.821659 
L 182.664044 311.804079 
L 189.736306 311.804079 
L 189.756809 310.722422 
L 214.560982 310.722422 
L 214.581484 311.839374 
L 221.653746 311.839374 
L 221.674249 312.960203 
L 293.208651 312.960203 
L 293.229154 311.43781 
L 300.301415 311.43781 
L 300.321918 309.852125 
L 325.126091 309.852125 
L 325.146594 311.451515 
L 332.218856 311.451515 
L 332.239358 313.041512 
L 477.054793 313.041512 
L 477.143356 186.334347 
L 480.147298 186.334347 
L 480.162841 314.353743 
L 624.853283 314.353743 
L 624.873786 311.221678 
L 631.946442 311.221678 
L 631.966944 307.904648 
L 656.772496 307.904648 
L 656.792998 310.967099 
L 663.865654 310.967099 
L 663.886157 312.831939 
L 1024.978665 312.821659 
L 1024.978665 312.821659 
" clip-path="url(#p22b9038f01)" style="fill: none; stroke: #ff7f0e; stroke-width: 1.5; stroke-linecap: square"/>
   </g>
   <g id="patch_3">
    <path d="M 96.330625 327.509844 
L 96.330625 38.075625 
" style="fill: none; stroke: #000000; stroke-width: 0.8; stroke-linejoin: miter; stroke-linecap: square"/>
   </g>
   <g id="patch_4">
    <path d="M 1069.2 327.509844 
L 1069.2 38.075625 
" style="fill: none; stroke: #000000; stroke-width: 0.8; stroke-linejoin: miter; stroke-linecap: square"/>
   </g>
   <g id="patch_5">
    <path d="M 96.330625 327.509844 
L 1069.2 327.509844 
" style="fill: none; stroke: #000000; stroke-width: 0.8; stroke-linejoin: miter; stroke-linecap: square"/>
   </g>
   <g id="patch_6">
    <path d="M 96.330625 38.075625 
L 1069.2 38.075625 
" style="fill: none; stroke: #000000; stroke-width: 0.8; stroke-linejoin: miter; stroke-linecap: square"/>
   </g>
   <g id="text_7">
    <!-- IP1 -->
    <g style="fill: #808080" transform="translate(907.015183 321.108682) scale(0.18 -0.18)">
     <defs>
      <path id="DejaVuSans-49" d="M 628 4666 
L 1259 4666 
L 1259 0 
L 628 0 
L 628 4666 
z
" transform="scale(0.015625)"/>
      <path id="DejaVuSans-50" d="M 1259 4147 
L 1259 2394 
L 2053 2394 
Q 2494 2394 2734 2622 
Q 2975 2850 2975 3272 
Q 2975 3691 2734 3919 
Q 2494 4147 2053 4147 
L 1259 4147 
z
M 628 4666 
L 2053 4666 
Q 2838 4666 3239 4311 
Q 3641 3956 3641 3272 
Q 3641 2581 3239 2228 
Q 2838 1875 2053 1875 
L 1259 1875 
L 1259 0 
L 628 0 
L 628 4666 
z
" transform="scale(0.015625)"/>
     </defs>
     <use xlink:href="#DejaVuSans-49"/>
     <use xlink:href="#DejaVuSans-50" x="29.492188"/>
     <use xlink:href="#DejaVuSans-31" x="89.794922"/>
    </g>
   </g>
   <g id="text_8">
    <!-- IP2 -->
    <g style="fill: #808080" transform="translate(133.144344 321.108682) scale(0.18 -0.18)">
     <use xlink:href="#DejaVuSans-49"/>
     <use xlink:href="#DejaVuSans-50" x="29.492188"/>
     <use xlink:href="#DejaVuSans-32" x="89.794922"/>
    </g>
   </g>
   <g id="text_9">
    <!-- IP3 -->
    <g style="fill: #808080" transform="translate(243.695155 321.108682) scale(0.18 -0.18)">
     <defs>
      <path id="DejaVuSans-33" d="M 2597 2516 
Q 3050 2419 3304 2112 
Q 3559 1806 3559 1356 
Q 3559 666 3084 287 
Q 2609 -91 1734 -91 
Q 1441 -91 1130 -33 
Q 819 25 488 141 
L 488 750 
Q 750 597 1062 519 
Q 1375 441 1716 441 
Q 2309 441 2620 675 
Q 2931 909 2931 1356 
Q 2931 1769 2642 2001 
Q 2353 2234 1838 2234 
L 1294 2234 
L 1294 2753 
L 1863 2753 
Q 2328 2753 2575 2939 
Q 2822 3125 2822 3475 
Q 2822 3834 2567 4026 
Q 2313 4219 1838 4219 
Q 1578 4219 1281 4162 
Q 984 4106 628 3988 
L 628 4550 
Q 988 4650 1302 4700 
Q 1616 4750 1894 4750 
Q 2613 4750 3031 4423 
Q 3450 4097 3450 3541 
Q 3450 3153 3228 2886 
Q 3006 2619 2597 2516 
z
" transform="scale(0.015625)"/>
     </defs>
     <use xlink:href="#DejaVuSans-49"/>
     <use xlink:href="#DejaVuSans-50" x="29.492188"/>
     <use xlink:href="#DejaVuSans-33" x="89.794922"/>
    </g>
   </g>
   <g id="text_10">
    <!-- IP4 -->
    <g style="fill: #808080" transform="translate(354.245965 321.108682) scale(0.18 -0.18)">
     <defs>
      <path id="DejaVuSans-34" d="M 2419 4116 
L 825 1625 
L 2419 1625 
L 2419 4116 
z
M 2253 4666 
L 3047 4666 
L 3047 1625 
L 3713 1625 
L 3713 1100 
L 3047 1100 
L 3047 0 
L 2419 0 
L 2419 1100 
L 313 1100 
L 313 1709 
L 2253 4666 
z
" transform="scale(0.015625)"/>
     </defs>
     <use xlink:href="#DejaVuSans-49"/>
     <use xlink:href="#DejaVuSans-50" x="29.492188"/>
     <use xlink:href="#DejaVuSans-34" x="89.794922"/>
    </g>
   </g>
   <g id="text_11">
    <!-- IP5 -->
    <g style="fill: #808080" transform="translate(464.796776 321.108682) scale(0.18 -0.18)">
     <use xlink:href="#DejaVuSans-49"/>
     <use xlink:href="#DejaVuSans-50" x="29.492188"/>
     <use xlink:href="#DejaVuSans-35" x="89.794922"/>
    </g>
   </g>
   <g id="text_12">
    <!-- IP6 -->
    <g style="fill: #808080" transform="translate(575.352641 321.108682) scale(0.18 -0.18)">
     <defs>
      <path id="DejaVuSans-36" d="M 2113 2584 
Q 1688 2584 1439 2293 
Q 1191 2003 1191 1497 
Q 1191 994 1439 701 
Q 1688 409 2113 409 
Q 2538 409 2786 701 
Q 3034 994 3034 1497 
Q 3034 2003 2786 2293 
Q 2538 2584 2113 2584 
z
M 3366 4563 
L 3366 3988 
Q 3128 4100 2886 4159 
Q 2644 4219 2406 4219 
Q 1781 4219 1451 3797 
Q 1122 3375 1075 2522 
Q 1259 2794 1537 2939 
Q 1816 3084 2150 3084 
Q 2853 3084 3261 2657 
Q 3669 2231 3669 1497 
Q 3669 778 3244 343 
Q 2819 -91 2113 -91 
Q 1303 -91 875 529 
Q 447 1150 447 2328 
Q 447 3434 972 4092 
Q 1497 4750 2381 4750 
Q 2619 4750 2861 4703 
Q 3103 4656 3366 4563 
z
" transform="scale(0.015625)"/>
     </defs>
     <use xlink:href="#DejaVuSans-49"/>
     <use xlink:href="#DejaVuSans-50" x="29.492188"/>
     <use xlink:href="#DejaVuSans-36" x="89.794922"/>
    </g>
   </g>
   <g id="text_13">
    <!-- IP7 -->
    <g style="fill: #808080" transform="translate(685.908507 321.108682) scale(0.18 -0.18)">
     <defs>
      <path id="DejaVuSans-37" d="M 525 4666 
L 3525 4666 
L 3525 4397 
L 1831 0 
L 1172 0 
L 2766 4134 
L 525 4134 
L 525 4666 
z
" transform="scale(0.015625)"/>
     </defs>
     <use xlink:href="#DejaVuSans-49"/>
     <use xlink:href="#DejaVuSans-50" x="29.492188"/>
     <use xlink:href="#DejaVuSans-37" x="89.794922"/>
    </g>
   </g>
   <g id="text_14">
    <!-- IP8 -->
    <g style="fill: #808080" transform="translate(796.092141 321.108682) scale(0.18 -0.18)">
     <defs>
      <path id="DejaVuSans-38" d="M 2034 2216 
Q 1584 2216 1326 1975 
Q 1069 1734 1069 1313 
Q 1069 891 1326 650 
Q 1584 409 2034 409 
Q 2484 409 2743 651 
Q 3003 894 3003 1313 
Q 3003 1734 2745 1975 
Q 2488 2216 2034 2216 
z
M 1403 2484 
Q 997 2584 770 2862 
Q 544 3141 544 3541 
Q 544 4100 942 4425 
Q 1341 4750 2034 4750 
Q 2731 4750 3128 4425 
Q 3525 4100 3525 3541 
Q 3525 3141 3298 2862 
Q 3072 2584 2669 2484 
Q 3125 2378 3379 2068 
Q 3634 1759 3634 1313 
Q 3634 634 3220 271 
Q 2806 -91 2034 -91 
Q 1263 -91 848 271 
Q 434 634 434 1313 
Q 434 1759 690 2068 
Q 947 2378 1403 2484 
z
M 1172 3481 
Q 1172 3119 1398 2916 
Q 1625 2713 2034 2713 
Q 2441 2713 2670 2916 
Q 2900 3119 2900 3481 
Q 2900 3844 2670 4047 
Q 2441 4250 2034 4250 
Q 1625 4250 1398 4047 
Q 1172 3844 1172 3481 
z
" transform="scale(0.015625)"/>
     </defs>
     <use xlink:href="#DejaVuSans-49"/>
     <use xlink:href="#DejaVuSans-50" x="29.492188"/>
     <use xlink:href="#DejaVuSans-38" x="89.794922"/>
    </g>
   </g>
   <g id="text_15">
    <!-- Beam 1 -->
    <g transform="translate(528.9725 32.075625) scale(0.28 -0.28)">
     <defs>
      <path id="DejaVuSans-42" d="M 1259 2228 
L 1259 519 
L 2272 519 
Q 2781 519 3026 730 
Q 3272 941 3272 1375 
Q 3272 1813 3026 2020 
Q 2781 2228 2272 2228 
L 1259 2228 
z
M 1259 4147 
L 1259 2741 
L 2194 2741 
Q 2656 2741 2882 2914 
Q 3109 3088 3109 3444 
Q 3109 3797 2882 3972 
Q 2656 4147 2194 4147 
L 1259 4147 
z
M 628 4666 
L 2241 4666 
Q 2963 4666 3353 4366 
Q 3744 4066 3744 3513 
Q 3744 3084 3544 2831 
Q 3344 2578 2956 2516 
Q 3422 2416 3680 2098 
Q 3938 1781 3938 1306 
Q 3938 681 3513 340 
Q 3088 0 2303 0 
L 628 0 
L 628 4666 
z
" transform="scale(0.015625)"/>
      <path id="DejaVuSans-65" d="M 3597 1894 
L 3597 1613 
L 953 1613 
Q 991 1019 1311 708 
Q 1631 397 2203 397 
Q 2534 397 2845 478 
Q 3156 559 3463 722 
L 3463 178 
Q 3153 47 2828 -22 
Q 2503 -91 2169 -91 
Q 1331 -91 842 396 
Q 353 884 353 1716 
Q 353 2575 817 3079 
Q 1281 3584 2069 3584 
Q 2775 3584 3186 3129 
Q 3597 2675 3597 1894 
z
M 3022 2063 
Q 3016 2534 2758 2815 
Q 2500 3097 2075 3097 
Q 1594 3097 1305 2825 
Q 1016 2553 972 2059 
L 3022 2063 
z
" transform="scale(0.015625)"/>
      <path id="DejaVuSans-61" d="M 2194 1759 
Q 1497 1759 1228 1600 
Q 959 1441 959 1056 
Q 959 750 1161 570 
Q 1363 391 1709 391 
Q 2188 391 2477 730 
Q 2766 1069 2766 1631 
L 2766 1759 
L 2194 1759 
z
M 3341 1997 
L 3341 0 
L 2766 0 
L 2766 531 
Q 2569 213 2275 61 
Q 1981 -91 1556 -91 
Q 1019 -91 701 211 
Q 384 513 384 1019 
Q 384 1609 779 1909 
Q 1175 2209 1959 2209 
L 2766 2209 
L 2766 2266 
Q 2766 2663 2505 2880 
Q 2244 3097 1772 3097 
Q 1472 3097 1187 3025 
Q 903 2953 641 2809 
L 641 3341 
Q 956 3463 1253 3523 
Q 1550 3584 1831 3584 
Q 2591 3584 2966 3190 
Q 3341 2797 3341 1997 
z
" transform="scale(0.015625)"/>
      <path id="DejaVuSans-6d" d="M 3328 2828 
Q 3544 3216 3844 3400 
Q 4144 3584 4550 3584 
Q 5097 3584 5394 3201 
Q 5691 2819 5691 2113 
L 5691 0 
L 5113 0 
L 5113 2094 
Q 5113 2597 4934 2840 
Q 4756 3084 4391 3084 
Q 3944 3084 3684 2787 
Q 3425 2491 3425 1978 
L 3425 0 
L 2847 0 
L 2847 2094 
Q 2847 2600 2669 2842 
Q 2491 3084 2119 3084 
Q 1678 3084 1418 2786 
Q 1159 2488 1159 1978 
L 1159 0 
L 581 0 
L 581 3500 
L 1159 3500 
L 1159 2956 
Q 1356 3278 1631 3431 
Q 1906 3584 2284 3584 
Q 2666 3584 2933 3390 
Q 3200 3197 3328 2828 
z
" transform="scale(0.015625)"/>
      <path id="DejaVuSans-20" transform="scale(0.015625)"/>
     </defs>
     <use xlink:href="#DejaVuSans-42"/>
     <use xlink:href="#DejaVuSans-65" x="68.603516"/>
     <use xlink:href="#DejaVuSans-61" x="130.126953"/>
     <use xlink:href="#DejaVuSans-6d" x="191.40625"/>
     <use xlink:href="#DejaVuSans-20" x="288.818359"/>
     <use xlink:href="#DejaVuSans-31" x="320.605469"/>
    </g>
   </g>
   <g id="legend_1">
    <g id="patch_7">
     <path d="M 923.52 127.730625 
L 1052.4 127.730625 
Q 1057.2 127.730625 1057.2 122.930625 
L 1057.2 54.875625 
Q 1057.2 50.075625 1052.4 50.075625 
L 923.52 50.075625 
Q 918.72 50.075625 918.72 54.875625 
L 918.72 122.930625 
Q 918.72 127.730625 923.52 127.730625 
z
" style="fill: #ffffff; opacity: 0.8; stroke: #cccccc; stroke-linejoin: miter"/>
    </g>
    <g id="line2d_22">
     <path d="M 928.32 69.511875 
L 952.32 69.511875 
L 976.32 69.511875 
" style="fill: none; stroke: #1f77b4; stroke-width: 1.5; stroke-linecap: square"/>
    </g>
    <g id="text_16">
     <!-- $f_{1001}$ -->
     <g transform="translate(995.52 77.911875) scale(0.24 -0.24)">
      <defs>
       <path id="DejaVuSans-Oblique-66" d="M 3059 4863 
L 2969 4384 
L 2419 4384 
Q 2106 4384 1964 4261 
Q 1822 4138 1753 3809 
L 1691 3500 
L 2638 3500 
L 2553 3053 
L 1606 3053 
L 1013 0 
L 434 0 
L 1031 3053 
L 481 3053 
L 563 3500 
L 1113 3500 
L 1159 3744 
Q 1278 4363 1576 4613 
Q 1875 4863 2516 4863 
L 3059 4863 
z
" transform="scale(0.015625)"/>
      </defs>
      <use xlink:href="#DejaVuSans-Oblique-66" transform="translate(0 0.015625)"/>
      <use xlink:href="#DejaVuSans-31" transform="translate(35.205078 -16.390625) scale(0.7)"/>
      <use xlink:href="#DejaVuSans-30" transform="translate(79.741211 -16.390625) scale(0.7)"/>
      <use xlink:href="#DejaVuSans-30" transform="translate(124.277344 -16.390625) scale(0.7)"/>
      <use xlink:href="#DejaVuSans-31" transform="translate(168.813477 -16.390625) scale(0.7)"/>
     </g>
    </g>
    <g id="line2d_23">
     <path d="M 928.32 104.739375 
L 952.32 104.739375 
L 976.32 104.739375 
" style="fill: none; stroke: #ff7f0e; stroke-width: 1.5; stroke-linecap: square"/>
    </g>
    <g id="text_17">
     <!-- $f_{1010}$ -->
     <g transform="translate(995.52 113.139375) scale(0.24 -0.24)">
      <use xlink:href="#DejaVuSans-Oblique-66" transform="translate(0 0.015625)"/>
      <use xlink:href="#DejaVuSans-31" transform="translate(35.205078 -16.390625) scale(0.7)"/>
      <use xlink:href="#DejaVuSans-30" transform="translate(79.741211 -16.390625) scale(0.7)"/>
      <use xlink:href="#DejaVuSans-31" transform="translate(124.277344 -16.390625) scale(0.7)"/>
      <use xlink:href="#DejaVuSans-30" transform="translate(168.813477 -16.390625) scale(0.7)"/>
     </g>
    </g>
   </g>
  </g>
  <g id="axes_2">
   <g id="patch_8">
    <path d="M 96.330625 658.519688 
L 1069.2 658.519688 
L 1069.2 369.085469 
L 96.330625 369.085469 
z
" style="fill: #ffffff"/>
   </g>
   <g id="line2d_24">
    <path d="M 245.079704 658.519688 
L 245.079704 369.085469 
" clip-path="url(#p4461f58cb6)" style="fill: none; stroke-dasharray: 1.5,2.475; stroke-dashoffset: 0; stroke: #808080; stroke-width: 1.5"/>
   </g>
   <g id="line2d_25">
    <path d="M 355.630515 658.519688 
L 355.630515 369.085469 
" clip-path="url(#p4461f58cb6)" style="fill: none; stroke-dasharray: 1.5,2.475; stroke-dashoffset: 0; stroke: #808080; stroke-width: 1.5"/>
   </g>
   <g id="line2d_26">
    <path d="M 466.18638 658.519688 
L 466.18638 369.085469 
" clip-path="url(#p4461f58cb6)" style="fill: none; stroke-dasharray: 1.5,2.475; stroke-dashoffset: 0; stroke: #808080; stroke-width: 1.5"/>
   </g>
   <g id="line2d_27">
    <path d="M 576.742246 658.519688 
L 576.742246 369.085469 
" clip-path="url(#p4461f58cb6)" style="fill: none; stroke-dasharray: 1.5,2.475; stroke-dashoffset: 0; stroke: #808080; stroke-width: 1.5"/>
   </g>
   <g id="line2d_28">
    <path d="M 687.298111 658.519688 
L 687.298111 369.085469 
" clip-path="url(#p4461f58cb6)" style="fill: none; stroke-dasharray: 1.5,2.475; stroke-dashoffset: 0; stroke: #808080; stroke-width: 1.5"/>
   </g>
   <g id="line2d_29">
    <path d="M 797.848922 658.519688 
L 797.848922 369.085469 
" clip-path="url(#p4461f58cb6)" style="fill: none; stroke-dasharray: 1.5,2.475; stroke-dashoffset: 0; stroke: #808080; stroke-width: 1.5"/>
   </g>
   <g id="line2d_30">
    <path d="M 908.399733 658.519688 
L 908.399733 369.085469 
" clip-path="url(#p4461f58cb6)" style="fill: none; stroke-dasharray: 1.5,2.475; stroke-dashoffset: 0; stroke: #808080; stroke-width: 1.5"/>
   </g>
   <g id="line2d_31">
    <path d="M 1018.578312 658.519688 
L 1018.578312 369.085469 
" clip-path="url(#p4461f58cb6)" style="fill: none; stroke-dasharray: 1.5,2.475; stroke-dashoffset: 0; stroke: #808080; stroke-width: 1.5"/>
   </g>
   <g id="matplotlib.axis_3">
    <g id="xtick_7">
     <g id="line2d_32">
      <g>
       <use xlink:href="#mcb7698c830" x="140.55196" y="658.519688" style="stroke: #000000; stroke-width: 0.8"/>
      </g>
     </g>
     <g id="text_18">
      <!-- 0 -->
      <g transform="translate(134.82571 679.196875) scale(0.18 -0.18)">
       <use xlink:href="#DejaVuSans-30"/>
      </g>
     </g>
    </g>
    <g id="xtick_8">
     <g id="line2d_33">
      <g>
       <use xlink:href="#mcb7698c830" x="306.430384" y="658.519688" style="stroke: #000000; stroke-width: 0.8"/>
      </g>
     </g>
     <g id="text_19">
      <!-- 5000 -->
      <g transform="translate(283.525384 679.196875) scale(0.18 -0.18)">
       <use xlink:href="#DejaVuSans-35"/>
       <use xlink:href="#DejaVuSans-30" x="63.623047"/>
       <use xlink:href="#DejaVuSans-30" x="127.246094"/>
       <use xlink:href="#DejaVuSans-30" x="190.869141"/>
      </g>
     </g>
    </g>
    <g id="xtick_9">
     <g id="line2d_34">
      <g>
       <use xlink:href="#mcb7698c830" x="472.308808" y="658.519688" style="stroke: #000000; stroke-width: 0.8"/>
      </g>
     </g>
     <g id="text_20">
      <!-- 10000 -->
      <g transform="translate(443.677558 679.196875) scale(0.18 -0.18)">
       <use xlink:href="#DejaVuSans-31"/>
       <use xlink:href="#DejaVuSans-30" x="63.623047"/>
       <use xlink:href="#DejaVuSans-30" x="127.246094"/>
       <use xlink:href="#DejaVuSans-30" x="190.869141"/>
       <use xlink:href="#DejaVuSans-30" x="254.492188"/>
      </g>
     </g>
    </g>
    <g id="xtick_10">
     <g id="line2d_35">
      <g>
       <use xlink:href="#mcb7698c830" x="638.187231" y="658.519688" style="stroke: #000000; stroke-width: 0.8"/>
      </g>
     </g>
     <g id="text_21">
      <!-- 15000 -->
      <g transform="translate(609.555981 679.196875) scale(0.18 -0.18)">
       <use xlink:href="#DejaVuSans-31"/>
       <use xlink:href="#DejaVuSans-35" x="63.623047"/>
       <use xlink:href="#DejaVuSans-30" x="127.246094"/>
       <use xlink:href="#DejaVuSans-30" x="190.869141"/>
       <use xlink:href="#DejaVuSans-30" x="254.492188"/>
      </g>
     </g>
    </g>
    <g id="xtick_11">
     <g id="line2d_36">
      <g>
       <use xlink:href="#mcb7698c830" x="804.065655" y="658.519688" style="stroke: #000000; stroke-width: 0.8"/>
      </g>
     </g>
     <g id="text_22">
      <!-- 20000 -->
      <g transform="translate(775.434405 679.196875) scale(0.18 -0.18)">
       <use xlink:href="#DejaVuSans-32"/>
       <use xlink:href="#DejaVuSans-30" x="63.623047"/>
       <use xlink:href="#DejaVuSans-30" x="127.246094"/>
       <use xlink:href="#DejaVuSans-30" x="190.869141"/>
       <use xlink:href="#DejaVuSans-30" x="254.492188"/>
      </g>
     </g>
    </g>
    <g id="xtick_12">
     <g id="line2d_37">
      <g>
       <use xlink:href="#mcb7698c830" x="969.944079" y="658.519688" style="stroke: #000000; stroke-width: 0.8"/>
      </g>
     </g>
     <g id="text_23">
      <!-- 25000 -->
      <g transform="translate(941.312829 679.196875) scale(0.18 -0.18)">
       <use xlink:href="#DejaVuSans-32"/>
       <use xlink:href="#DejaVuSans-35" x="63.623047"/>
       <use xlink:href="#DejaVuSans-30" x="127.246094"/>
       <use xlink:href="#DejaVuSans-30" x="190.869141"/>
       <use xlink:href="#DejaVuSans-30" x="254.492188"/>
      </g>
     </g>
    </g>
    <g id="text_24">
     <!-- S [m] -->
     <g transform="translate(551.634453 704.416719) scale(0.23 -0.23)">
      <defs>
       <path id="DejaVuSans-53" d="M 3425 4513 
L 3425 3897 
Q 3066 4069 2747 4153 
Q 2428 4238 2131 4238 
Q 1616 4238 1336 4038 
Q 1056 3838 1056 3469 
Q 1056 3159 1242 3001 
Q 1428 2844 1947 2747 
L 2328 2669 
Q 3034 2534 3370 2195 
Q 3706 1856 3706 1288 
Q 3706 609 3251 259 
Q 2797 -91 1919 -91 
Q 1588 -91 1214 -16 
Q 841 59 441 206 
L 441 856 
Q 825 641 1194 531 
Q 1563 422 1919 422 
Q 2459 422 2753 634 
Q 3047 847 3047 1241 
Q 3047 1584 2836 1778 
Q 2625 1972 2144 2069 
L 1759 2144 
Q 1053 2284 737 2584 
Q 422 2884 422 3419 
Q 422 4038 858 4394 
Q 1294 4750 2059 4750 
Q 2388 4750 2728 4690 
Q 3069 4631 3425 4513 
z
" transform="scale(0.015625)"/>
       <path id="DejaVuSans-5b" d="M 550 4863 
L 1875 4863 
L 1875 4416 
L 1125 4416 
L 1125 -397 
L 1875 -397 
L 1875 -844 
L 550 -844 
L 550 4863 
z
" transform="scale(0.015625)"/>
       <path id="DejaVuSans-5d" d="M 1947 4863 
L 1947 -844 
L 622 -844 
L 622 -397 
L 1369 -397 
L 1369 4416 
L 622 4416 
L 622 4863 
L 1947 4863 
z
" transform="scale(0.015625)"/>
      </defs>
      <use xlink:href="#DejaVuSans-53"/>
      <use xlink:href="#DejaVuSans-20" x="63.476562"/>
      <use xlink:href="#DejaVuSans-5b" x="95.263672"/>
      <use xlink:href="#DejaVuSans-6d" x="134.277344"/>
      <use xlink:href="#DejaVuSans-5d" x="231.689453"/>
     </g>
    </g>
   </g>
   <g id="matplotlib.axis_4">
    <g id="ytick_6">
     <g id="line2d_38">
      <g>
       <use xlink:href="#m6659cef5bc" x="96.330625" y="645.609235" style="stroke: #000000; stroke-width: 0.8"/>
      </g>
     </g>
     <g id="text_25">
      <!-- 0.000 -->
      <g transform="translate(37.8 652.447829) scale(0.18 -0.18)">
       <use xlink:href="#DejaVuSans-30"/>
       <use xlink:href="#DejaVuSans-2e" x="63.623047"/>
       <use xlink:href="#DejaVuSans-30" x="95.410156"/>
       <use xlink:href="#DejaVuSans-30" x="159.033203"/>
       <use xlink:href="#DejaVuSans-30" x="222.65625"/>
      </g>
     </g>
    </g>
    <g id="ytick_7">
     <g id="line2d_39">
      <g>
       <use xlink:href="#m6659cef5bc" x="96.330625" y="608.779774" style="stroke: #000000; stroke-width: 0.8"/>
      </g>
     </g>
     <g id="text_26">
      <!-- 0.025 -->
      <g transform="translate(37.8 615.618368) scale(0.18 -0.18)">
       <use xlink:href="#DejaVuSans-30"/>
       <use xlink:href="#DejaVuSans-2e" x="63.623047"/>
       <use xlink:href="#DejaVuSans-30" x="95.410156"/>
       <use xlink:href="#DejaVuSans-32" x="159.033203"/>
       <use xlink:href="#DejaVuSans-35" x="222.65625"/>
      </g>
     </g>
    </g>
    <g id="ytick_8">
     <g id="line2d_40">
      <g>
       <use xlink:href="#m6659cef5bc" x="96.330625" y="571.950313" style="stroke: #000000; stroke-width: 0.8"/>
      </g>
     </g>
     <g id="text_27">
      <!-- 0.050 -->
      <g transform="translate(37.8 578.788907) scale(0.18 -0.18)">
       <use xlink:href="#DejaVuSans-30"/>
       <use xlink:href="#DejaVuSans-2e" x="63.623047"/>
       <use xlink:href="#DejaVuSans-30" x="95.410156"/>
       <use xlink:href="#DejaVuSans-35" x="159.033203"/>
       <use xlink:href="#DejaVuSans-30" x="222.65625"/>
      </g>
     </g>
    </g>
    <g id="ytick_9">
     <g id="line2d_41">
      <g>
       <use xlink:href="#m6659cef5bc" x="96.330625" y="535.120852" style="stroke: #000000; stroke-width: 0.8"/>
      </g>
     </g>
     <g id="text_28">
      <!-- 0.075 -->
      <g transform="translate(37.8 541.959446) scale(0.18 -0.18)">
       <use xlink:href="#DejaVuSans-30"/>
       <use xlink:href="#DejaVuSans-2e" x="63.623047"/>
       <use xlink:href="#DejaVuSans-30" x="95.410156"/>
       <use xlink:href="#DejaVuSans-37" x="159.033203"/>
       <use xlink:href="#DejaVuSans-35" x="222.65625"/>
      </g>
     </g>
    </g>
    <g id="ytick_10">
     <g id="line2d_42">
      <g>
       <use xlink:href="#m6659cef5bc" x="96.330625" y="498.291391" style="stroke: #000000; stroke-width: 0.8"/>
      </g>
     </g>
     <g id="text_29">
      <!-- 0.100 -->
      <g transform="translate(37.8 505.129985) scale(0.18 -0.18)">
       <use xlink:href="#DejaVuSans-30"/>
       <use xlink:href="#DejaVuSans-2e" x="63.623047"/>
       <use xlink:href="#DejaVuSans-31" x="95.410156"/>
       <use xlink:href="#DejaVuSans-30" x="159.033203"/>
       <use xlink:href="#DejaVuSans-30" x="222.65625"/>
      </g>
     </g>
    </g>
    <g id="ytick_11">
     <g id="line2d_43">
      <g>
       <use xlink:href="#m6659cef5bc" x="96.330625" y="461.46193" style="stroke: #000000; stroke-width: 0.8"/>
      </g>
     </g>
     <g id="text_30">
      <!-- 0.125 -->
      <g transform="translate(37.8 468.300523) scale(0.18 -0.18)">
       <use xlink:href="#DejaVuSans-30"/>
       <use xlink:href="#DejaVuSans-2e" x="63.623047"/>
       <use xlink:href="#DejaVuSans-31" x="95.410156"/>
       <use xlink:href="#DejaVuSans-32" x="159.033203"/>
       <use xlink:href="#DejaVuSans-35" x="222.65625"/>
      </g>
     </g>
    </g>
    <g id="ytick_12">
     <g id="line2d_44">
      <g>
       <use xlink:href="#m6659cef5bc" x="96.330625" y="424.632469" style="stroke: #000000; stroke-width: 0.8"/>
      </g>
     </g>
     <g id="text_31">
      <!-- 0.150 -->
      <g transform="translate(37.8 431.471062) scale(0.18 -0.18)">
       <use xlink:href="#DejaVuSans-30"/>
       <use xlink:href="#DejaVuSans-2e" x="63.623047"/>
       <use xlink:href="#DejaVuSans-31" x="95.410156"/>
       <use xlink:href="#DejaVuSans-35" x="159.033203"/>
       <use xlink:href="#DejaVuSans-30" x="222.65625"/>
      </g>
     </g>
    </g>
    <g id="ytick_13">
     <g id="line2d_45">
      <g>
       <use xlink:href="#m6659cef5bc" x="96.330625" y="387.803008" style="stroke: #000000; stroke-width: 0.8"/>
      </g>
     </g>
     <g id="text_32">
      <!-- 0.175 -->
      <g transform="translate(37.8 394.641601) scale(0.18 -0.18)">
       <use xlink:href="#DejaVuSans-30"/>
       <use xlink:href="#DejaVuSans-2e" x="63.623047"/>
       <use xlink:href="#DejaVuSans-31" x="95.410156"/>
       <use xlink:href="#DejaVuSans-37" x="159.033203"/>
       <use xlink:href="#DejaVuSans-35" x="222.65625"/>
      </g>
     </g>
    </g>
    <g id="text_33">
     <!-- |RDT| -->
     <g transform="translate(28.377031 545.420391) rotate(-90) scale(0.23 -0.23)">
      <use xlink:href="#DejaVuSans-7c"/>
      <use xlink:href="#DejaVuSans-52" x="33.691406"/>
      <use xlink:href="#DejaVuSans-44" x="103.173828"/>
      <use xlink:href="#DejaVuSans-54" x="180.175781"/>
      <use xlink:href="#DejaVuSans-7c" x="241.259766"/>
     </g>
    </g>
   </g>
   <g id="line2d_46">
    <path d="M 140.55196 470.342742 
L 391.323188 470.342742 
L 391.343691 470.050651 
L 398.416346 470.050651 
L 398.436849 469.645691 
L 423.242401 469.645691 
L 423.262903 468.921009 
L 430.335559 468.921009 
L 430.356061 468.125177 
L 533.812565 468.029755 
L 533.833067 467.042511 
L 540.905723 467.042511 
L 540.926226 465.839632 
L 685.74816 465.839632 
L 685.836723 382.24157 
L 688.840665 382.24157 
L 688.856207 465.838717 
L 833.540151 465.838717 
L 833.560653 467.495901 
L 840.632915 467.495901 
L 840.653418 469.158729 
L 865.457591 469.158729 
L 865.478094 470.810571 
L 872.550355 470.810571 
L 872.570858 472.443992 
L 944.10526 472.443992 
L 944.125763 471.820881 
L 951.198025 471.820881 
L 951.218527 471.229329 
L 976.0227 471.229329 
L 976.043203 470.766981 
L 983.115465 470.766981 
L 983.135967 470.342742 
L 1024.978665 470.342742 
L 1024.978665 470.342742 
" clip-path="url(#p4461f58cb6)" style="fill: none; stroke: #1f77b4; stroke-width: 1.5; stroke-linecap: square"/>
   </g>
   <g id="line2d_47">
    <path d="M 140.55196 643.304745 
L 391.323188 643.304745 
L 391.343691 642.74986 
L 398.416346 642.74986 
L 398.436849 641.999557 
L 423.242401 641.999557 
L 423.262903 642.851368 
L 430.335559 642.851368 
L 430.356061 643.651903 
L 501.893352 643.651903 
L 501.913855 642.975335 
L 508.986511 642.975335 
L 509.007013 641.355734 
L 533.812565 641.355734 
L 533.833067 643.186817 
L 540.905723 643.186817 
L 540.926226 644.58064 
L 685.74816 644.58064 
L 685.836723 505.536204 
L 688.840665 505.536204 
L 688.856207 643.700186 
L 833.540151 643.700186 
L 833.560653 645.363587 
L 840.632915 645.363587 
L 840.653418 644.16964 
L 865.457591 644.16964 
L 865.478094 645.094473 
L 872.550355 645.094473 
L 872.570858 643.576256 
L 944.10526 643.576256 
L 944.125763 644.289315 
L 951.198025 644.289315 
L 951.218527 644.792069 
L 976.0227 644.792069 
L 976.043203 644.125765 
L 983.115465 644.125765 
L 983.135967 643.304745 
L 1024.978665 643.304745 
L 1024.978665 643.304745 
" clip-path="url(#p4461f58cb6)" style="fill: none; stroke: #ff7f0e; stroke-width: 1.5; stroke-linecap: square"/>
   </g>
   <g id="patch_9">
    <path d="M 96.330625 658.519687 
L 96.330625 369.085469 
" style="fill: none; stroke: #000000; stroke-width: 0.8; stroke-linejoin: miter; stroke-linecap: square"/>
   </g>
   <g id="patch_10">
    <path d="M 1069.2 658.519687 
L 1069.2 369.085469 
" style="fill: none; stroke: #000000; stroke-width: 0.8; stroke-linejoin: miter; stroke-linecap: square"/>
   </g>
   <g id="patch_11">
    <path d="M 96.330625 658.519688 
L 1069.2 658.519688 
" style="fill: none; stroke: #000000; stroke-width: 0.8; stroke-linejoin: miter; stroke-linecap: square"/>
   </g>
   <g id="patch_12">
    <path d="M 96.330625 369.085469 
L 1069.2 369.085469 
" style="fill: none; stroke: #000000; stroke-width: 0.8; stroke-linejoin: miter; stroke-linecap: square"/>
   </g>
   <g id="text_34">
    <!-- IP1 -->
    <g style="fill: #808080" transform="translate(231.271736 652.140117) scale(0.18 -0.18)">
     <use xlink:href="#DejaVuSans-49"/>
     <use xlink:href="#DejaVuSans-50" x="29.492188"/>
     <use xlink:href="#DejaVuSans-31" x="89.794922"/>
    </g>
   </g>
   <g id="text_35">
    <!-- IP2 -->
    <g style="fill: #808080" transform="translate(341.822546 652.140117) scale(0.18 -0.18)">
     <use xlink:href="#DejaVuSans-49"/>
     <use xlink:href="#DejaVuSans-50" x="29.492188"/>
     <use xlink:href="#DejaVuSans-32" x="89.794922"/>
    </g>
   </g>
   <g id="text_36">
    <!-- IP3 -->
    <g style="fill: #808080" transform="translate(452.378412 652.140117) scale(0.18 -0.18)">
     <use xlink:href="#DejaVuSans-49"/>
     <use xlink:href="#DejaVuSans-50" x="29.492188"/>
     <use xlink:href="#DejaVuSans-33" x="89.794922"/>
    </g>
   </g>
   <g id="text_37">
    <!-- IP4 -->
    <g style="fill: #808080" transform="translate(562.934277 652.140117) scale(0.18 -0.18)">
     <use xlink:href="#DejaVuSans-49"/>
     <use xlink:href="#DejaVuSans-50" x="29.492188"/>
     <use xlink:href="#DejaVuSans-34" x="89.794922"/>
    </g>
   </g>
   <g id="text_38">
    <!-- IP5 -->
    <g style="fill: #808080" transform="translate(673.490143 652.140117) scale(0.18 -0.18)">
     <use xlink:href="#DejaVuSans-49"/>
     <use xlink:href="#DejaVuSans-50" x="29.492188"/>
     <use xlink:href="#DejaVuSans-35" x="89.794922"/>
    </g>
   </g>
   <g id="text_39">
    <!-- IP6 -->
    <g style="fill: #808080" transform="translate(784.040953 652.140117) scale(0.18 -0.18)">
     <use xlink:href="#DejaVuSans-49"/>
     <use xlink:href="#DejaVuSans-50" x="29.492188"/>
     <use xlink:href="#DejaVuSans-36" x="89.794922"/>
    </g>
   </g>
   <g id="text_40">
    <!-- IP7 -->
    <g style="fill: #808080" transform="translate(894.591764 652.140117) scale(0.18 -0.18)">
     <use xlink:href="#DejaVuSans-49"/>
     <use xlink:href="#DejaVuSans-50" x="29.492188"/>
     <use xlink:href="#DejaVuSans-37" x="89.794922"/>
    </g>
   </g>
   <g id="text_41">
    <!-- IP8 -->
    <g style="fill: #808080" transform="translate(1004.770343 652.140117) scale(0.18 -0.18)">
     <use xlink:href="#DejaVuSans-49"/>
     <use xlink:href="#DejaVuSans-50" x="29.492188"/>
     <use xlink:href="#DejaVuSans-38" x="89.794922"/>
    </g>
   </g>
   <g id="text_42">
    <!-- Beam 2 -->
    <g transform="translate(528.9725 363.085469) scale(0.28 -0.28)">
     <use xlink:href="#DejaVuSans-42"/>
     <use xlink:href="#DejaVuSans-65" x="68.603516"/>
     <use xlink:href="#DejaVuSans-61" x="130.126953"/>
     <use xlink:href="#DejaVuSans-6d" x="191.40625"/>
     <use xlink:href="#DejaVuSans-20" x="288.818359"/>
     <use xlink:href="#DejaVuSans-32" x="320.605469"/>
    </g>
   </g>
   <g id="legend_2">
    <g id="patch_13">
     <path d="M 923.52 458.740469 
L 1052.4 458.740469 
Q 1057.2 458.740469 1057.2 453.940469 
L 1057.2 385.885469 
Q 1057.2 381.085469 1052.4 381.085469 
L 923.52 381.085469 
Q 918.72 381.085469 918.72 385.885469 
L 918.72 453.940469 
Q 918.72 458.740469 923.52 458.740469 
z
" style="fill: #ffffff; opacity: 0.8; stroke: #cccccc; stroke-linejoin: miter"/>
    </g>
    <g id="line2d_48">
     <path d="M 928.32 400.521719 
L 952.32 400.521719 
L 976.32 400.521719 
" style="fill: none; stroke: #1f77b4; stroke-width: 1.5; stroke-linecap: square"/>
    </g>
    <g id="text_43">
     <!-- $f_{1001}$ -->
     <g transform="translate(995.52 408.921719) scale(0.24 -0.24)">
      <use xlink:href="#DejaVuSans-Oblique-66" transform="translate(0 0.015625)"/>
      <use xlink:href="#DejaVuSans-31" transform="translate(35.205078 -16.390625) scale(0.7)"/>
      <use xlink:href="#DejaVuSans-30" transform="translate(79.741211 -16.390625) scale(0.7)"/>
      <use xlink:href="#DejaVuSans-30" transform="translate(124.277344 -16.390625) scale(0.7)"/>
      <use xlink:href="#DejaVuSans-31" transform="translate(168.813477 -16.390625) scale(0.7)"/>
     </g>
    </g>
    <g id="line2d_49">
     <path d="M 928.32 435.749219 
L 952.32 435.749219 
L 976.32 435.749219 
" style="fill: none; stroke: #ff7f0e; stroke-width: 1.5; stroke-linecap: square"/>
    </g>
    <g id="text_44">
     <!-- $f_{1010}$ -->
     <g transform="translate(995.52 444.149219) scale(0.24 -0.24)">
      <use xlink:href="#DejaVuSans-Oblique-66" transform="translate(0 0.015625)"/>
      <use xlink:href="#DejaVuSans-31" transform="translate(35.205078 -16.390625) scale(0.7)"/>
      <use xlink:href="#DejaVuSans-30" transform="translate(79.741211 -16.390625) scale(0.7)"/>
      <use xlink:href="#DejaVuSans-31" transform="translate(124.277344 -16.390625) scale(0.7)"/>
      <use xlink:href="#DejaVuSans-30" transform="translate(168.813477 -16.390625) scale(0.7)"/>
     </g>
    </g>
   </g>
  </g>
 </g>
 <defs>
  <clipPath id="p22b9038f01">
   <rect x="96.330625" y="38.075625" width="972.869375" height="289.434219"/>
  </clipPath>
  <clipPath id="p4461f58cb6">
   <rect x="96.330625" y="369.085469" width="972.869375" height="289.434219"/>
  </clipPath>
 </defs>
</svg>
