<?xml version="1.0" encoding="utf-8" standalone="no"?>
<!DOCTYPE svg PUBLIC "-//W3C//DTD SVG 1.1//EN"
  "http://www.w3.org/Graphics/SVG/1.1/DTD/svg11.dtd">
<svg xmlns:xlink="http://www.w3.org/1999/xlink" width="1440pt" height="864pt" viewBox="0 0 1440 864" xmlns="http://www.w3.org/2000/svg" version="1.1">
 <metadata>
  <rdf:RDF xmlns:dc="http://purl.org/dc/elements/1.1/" xmlns:cc="http://creativecommons.org/ns#" xmlns:rdf="http://www.w3.org/1999/02/22-rdf-syntax-ns#">
   <cc:Work>
    <dc:type rdf:resource="http://purl.org/dc/dcmitype/StillImage"/>
    <dc:date>2022-03-09T19:20:30.559735</dc:date>
    <dc:format>image/svg+xml</dc:format>
    <dc:creator>
     <cc:Agent>
      <dc:title>Matplotlib v3.5.1, https://matplotlib.org/</dc:title>
     </cc:Agent>
    </dc:creator>
   </cc:Work>
  </rdf:RDF>
 </metadata>
 <defs>
  <style type="text/css">*{stroke-linejoin: round; stroke-linecap: butt}</style>
 </defs>
 <g id="figure_1">
  <g id="patch_1">
   <path d="M 0 864 
L 1440 864 
L 1440 0 
L 0 0 
z
" style="fill: #ffffff"/>
  </g>
  <g id="axes_1">
   <g id="patch_2">
    <path d="M 95.590313 828.779375 
L 1429.2 828.779375 
L 1429.2 38.075625 
L 95.590313 38.075625 
z
" style="fill: #ffffff"/>
   </g>
   <g id="patch_3">
    <path d="M 156.208935 828.779375 
L 168.332659 828.779375 
L 168.332659 704.388733 
L 156.208935 704.388733 
z
" clip-path="url(#p3de0fac7b3)" style="fill: #1f77b4; opacity: 0.6"/>
   </g>
   <g id="patch_4">
    <path d="M 168.332659 828.779375 
L 180.456384 828.779375 
L 180.456384 494.631964 
L 168.332659 494.631964 
z
" clip-path="url(#p3de0fac7b3)" style="fill: #1f77b4; opacity: 0.6"/>
   </g>
   <g id="patch_5">
    <path d="M 180.456384 828.779375 
L 192.580108 828.779375 
L 192.580108 347.680274 
L 180.456384 347.680274 
z
" clip-path="url(#p3de0fac7b3)" style="fill: #1f77b4; opacity: 0.6"/>
   </g>
   <g id="patch_6">
    <path d="M 192.580108 828.779375 
L 204.703832 828.779375 
L 204.703832 205.911528 
L 192.580108 205.911528 
z
" clip-path="url(#p3de0fac7b3)" style="fill: #1f77b4; opacity: 0.6"/>
   </g>
   <g id="patch_7">
    <path d="M 204.703832 828.779375 
L 216.827557 828.779375 
L 216.827557 185.484633 
L 204.703832 185.484633 
z
" clip-path="url(#p3de0fac7b3)" style="fill: #1f77b4; opacity: 0.6"/>
   </g>
   <g id="patch_8">
    <path d="M 216.827557 828.779375 
L 228.951281 828.779375 
L 228.951281 109.874635 
L 216.827557 109.874635 
z
" clip-path="url(#p3de0fac7b3)" style="fill: #1f77b4; opacity: 0.6"/>
   </g>
   <g id="patch_9">
    <path d="M 228.951281 828.779375 
L 241.075006 828.779375 
L 241.075006 97.069716 
L 228.951281 97.069716 
z
" clip-path="url(#p3de0fac7b3)" style="fill: #1f77b4; opacity: 0.6"/>
   </g>
   <g id="patch_10">
    <path d="M 241.075006 828.779375 
L 253.19873 828.779375 
L 253.19873 80.606249 
L 241.075006 80.606249 
z
" clip-path="url(#p3de0fac7b3)" style="fill: #1f77b4; opacity: 0.6"/>
   </g>
   <g id="patch_11">
    <path d="M 253.19873 828.779375 
L 265.322455 828.779375 
L 265.322455 75.728185 
L 253.19873 75.728185 
z
" clip-path="url(#p3de0fac7b3)" style="fill: #1f77b4; opacity: 0.6"/>
   </g>
   <g id="patch_12">
    <path d="M 265.322455 828.779375 
L 277.446179 828.779375 
L 277.446179 127.25274 
L 265.322455 127.25274 
z
" clip-path="url(#p3de0fac7b3)" style="fill: #1f77b4; opacity: 0.6"/>
   </g>
   <g id="patch_13">
    <path d="M 277.446179 828.779375 
L 289.569903 828.779375 
L 289.569903 125.118586 
L 277.446179 125.118586 
z
" clip-path="url(#p3de0fac7b3)" style="fill: #1f77b4; opacity: 0.6"/>
   </g>
   <g id="patch_14">
    <path d="M 289.569903 828.779375 
L 301.693628 828.779375 
L 301.693628 160.484553 
L 289.569903 160.484553 
z
" clip-path="url(#p3de0fac7b3)" style="fill: #1f77b4; opacity: 0.6"/>
   </g>
   <g id="patch_15">
    <path d="M 301.693628 828.779375 
L 313.817352 828.779375 
L 313.817352 182.130964 
L 301.693628 182.130964 
z
" clip-path="url(#p3de0fac7b3)" style="fill: #1f77b4; opacity: 0.6"/>
   </g>
   <g id="patch_16">
    <path d="M 313.817352 828.779375 
L 325.941077 828.779375 
L 325.941077 193.411488 
L 313.817352 193.411488 
z
" clip-path="url(#p3de0fac7b3)" style="fill: #1f77b4; opacity: 0.6"/>
   </g>
   <g id="patch_17">
    <path d="M 325.941077 828.779375 
L 338.064801 828.779375 
L 338.064801 262.619027 
L 325.941077 262.619027 
z
" clip-path="url(#p3de0fac7b3)" style="fill: #1f77b4; opacity: 0.6"/>
   </g>
   <g id="patch_18">
    <path d="M 338.064801 828.779375 
L 350.188526 828.779375 
L 350.188526 295.85084 
L 338.064801 295.85084 
z
" clip-path="url(#p3de0fac7b3)" style="fill: #1f77b4; opacity: 0.6"/>
   </g>
   <g id="patch_19">
    <path d="M 350.188526 828.779375 
L 362.31225 828.779375 
L 362.31225 343.107089 
L 350.188526 343.107089 
z
" clip-path="url(#p3de0fac7b3)" style="fill: #1f77b4; opacity: 0.6"/>
   </g>
   <g id="patch_20">
    <path d="M 362.31225 828.779375 
L 374.435974 828.779375 
L 374.435974 376.643782 
L 362.31225 376.643782 
z
" clip-path="url(#p3de0fac7b3)" style="fill: #1f77b4; opacity: 0.6"/>
   </g>
   <g id="patch_21">
    <path d="M 374.435974 828.779375 
L 386.559699 828.779375 
L 386.559699 406.521926 
L 374.435974 406.521926 
z
" clip-path="url(#p3de0fac7b3)" style="fill: #1f77b4; opacity: 0.6"/>
   </g>
   <g id="patch_22">
    <path d="M 386.559699 828.779375 
L 398.683423 828.779375 
L 398.683423 452.863538 
L 386.559699 452.863538 
z
" clip-path="url(#p3de0fac7b3)" style="fill: #1f77b4; opacity: 0.6"/>
   </g>
   <g id="patch_23">
    <path d="M 398.683423 828.779375 
L 410.807148 828.779375 
L 410.807148 464.75382 
L 398.683423 464.75382 
z
" clip-path="url(#p3de0fac7b3)" style="fill: #1f77b4; opacity: 0.6"/>
   </g>
   <g id="patch_24">
    <path d="M 410.807148 828.779375 
L 422.930872 828.779375 
L 422.930872 485.485593 
L 410.807148 485.485593 
z
" clip-path="url(#p3de0fac7b3)" style="fill: #1f77b4; opacity: 0.6"/>
   </g>
   <g id="patch_25">
    <path d="M 422.930872 828.779375 
L 435.054597 828.779375 
L 435.054597 516.888133 
L 422.930872 516.888133 
z
" clip-path="url(#p3de0fac7b3)" style="fill: #1f77b4; opacity: 0.6"/>
   </g>
   <g id="patch_26">
    <path d="M 435.054597 828.779375 
L 447.178321 828.779375 
L 447.178321 558.35168 
L 435.054597 558.35168 
z
" clip-path="url(#p3de0fac7b3)" style="fill: #1f77b4; opacity: 0.6"/>
   </g>
   <g id="patch_27">
    <path d="M 447.178321 828.779375 
L 459.302045 828.779375 
L 459.302045 574.510269 
L 447.178321 574.510269 
z
" clip-path="url(#p3de0fac7b3)" style="fill: #1f77b4; opacity: 0.6"/>
   </g>
   <g id="patch_28">
    <path d="M 459.302045 828.779375 
L 471.42577 828.779375 
L 471.42577 583.656639 
L 459.302045 583.656639 
z
" clip-path="url(#p3de0fac7b3)" style="fill: #1f77b4; opacity: 0.6"/>
   </g>
   <g id="patch_29">
    <path d="M 471.42577 828.779375 
L 483.549494 828.779375 
L 483.549494 613.839663 
L 471.42577 613.839663 
z
" clip-path="url(#p3de0fac7b3)" style="fill: #1f77b4; opacity: 0.6"/>
   </g>
   <g id="patch_30">
    <path d="M 483.549494 828.779375 
L 495.673219 828.779375 
L 495.673219 637.010469 
L 483.549494 637.010469 
z
" clip-path="url(#p3de0fac7b3)" style="fill: #1f77b4; opacity: 0.6"/>
   </g>
   <g id="patch_31">
    <path d="M 495.673219 828.779375 
L 507.796943 828.779375 
L 507.796943 665.059339 
L 495.673219 665.059339 
z
" clip-path="url(#p3de0fac7b3)" style="fill: #1f77b4; opacity: 0.6"/>
   </g>
   <g id="patch_32">
    <path d="M 507.796943 828.779375 
L 519.920668 828.779375 
L 519.920668 675.120347 
L 507.796943 675.120347 
z
" clip-path="url(#p3de0fac7b3)" style="fill: #1f77b4; opacity: 0.6"/>
   </g>
   <g id="patch_33">
    <path d="M 519.920668 828.779375 
L 532.044392 828.779375 
L 532.044392 695.242362 
L 519.920668 695.242362 
z
" clip-path="url(#p3de0fac7b3)" style="fill: #1f77b4; opacity: 0.6"/>
   </g>
   <g id="patch_34">
    <path d="M 532.044392 828.779375 
L 544.168116 828.779375 
L 544.168116 697.071636 
L 532.044392 697.071636 
z
" clip-path="url(#p3de0fac7b3)" style="fill: #1f77b4; opacity: 0.6"/>
   </g>
   <g id="patch_35">
    <path d="M 544.168116 828.779375 
L 556.291841 828.779375 
L 556.291841 714.144862 
L 544.168116 714.144862 
z
" clip-path="url(#p3de0fac7b3)" style="fill: #1f77b4; opacity: 0.6"/>
   </g>
   <g id="patch_36">
    <path d="M 556.291841 828.779375 
L 568.415565 828.779375 
L 568.415565 722.986354 
L 556.291841 722.986354 
z
" clip-path="url(#p3de0fac7b3)" style="fill: #1f77b4; opacity: 0.6"/>
   </g>
   <g id="patch_37">
    <path d="M 568.415565 828.779375 
L 580.53929 828.779375 
L 580.53929 727.559539 
L 568.415565 727.559539 
z
" clip-path="url(#p3de0fac7b3)" style="fill: #1f77b4; opacity: 0.6"/>
   </g>
   <g id="patch_38">
    <path d="M 580.53929 828.779375 
L 592.663014 828.779375 
L 592.663014 743.108369 
L 580.53929 743.108369 
z
" clip-path="url(#p3de0fac7b3)" style="fill: #1f77b4; opacity: 0.6"/>
   </g>
   <g id="patch_39">
    <path d="M 592.663014 828.779375 
L 604.786739 828.779375 
L 604.786739 755.30353 
L 592.663014 755.30353 
z
" clip-path="url(#p3de0fac7b3)" style="fill: #1f77b4; opacity: 0.6"/>
   </g>
   <g id="patch_40">
    <path d="M 604.786739 828.779375 
L 616.910463 828.779375 
L 616.910463 762.925506 
L 604.786739 762.925506 
z
" clip-path="url(#p3de0fac7b3)" style="fill: #1f77b4; opacity: 0.6"/>
   </g>
   <g id="patch_41">
    <path d="M 616.910463 828.779375 
L 629.034188 828.779375 
L 629.034188 771.766997 
L 616.910463 771.766997 
z
" clip-path="url(#p3de0fac7b3)" style="fill: #1f77b4; opacity: 0.6"/>
   </g>
   <g id="patch_42">
    <path d="M 629.034187 828.779375 
L 641.157912 828.779375 
L 641.157912 770.547481 
L 629.034187 770.547481 
z
" clip-path="url(#p3de0fac7b3)" style="fill: #1f77b4; opacity: 0.6"/>
   </g>
   <g id="patch_43">
    <path d="M 641.157912 828.779375 
L 653.281636 828.779375 
L 653.281636 782.437763 
L 641.157912 782.437763 
z
" clip-path="url(#p3de0fac7b3)" style="fill: #1f77b4; opacity: 0.6"/>
   </g>
   <g id="patch_44">
    <path d="M 653.281636 828.779375 
L 665.405361 828.779375 
L 665.405361 784.267037 
L 653.281636 784.267037 
z
" clip-path="url(#p3de0fac7b3)" style="fill: #1f77b4; opacity: 0.6"/>
   </g>
   <g id="patch_45">
    <path d="M 665.405361 828.779375 
L 677.529085 828.779375 
L 677.529085 783.657279 
L 665.405361 783.657279 
z
" clip-path="url(#p3de0fac7b3)" style="fill: #1f77b4; opacity: 0.6"/>
   </g>
   <g id="patch_46">
    <path d="M 677.529085 828.779375 
L 689.65281 828.779375 
L 689.65281 793.108529 
L 677.529085 793.108529 
z
" clip-path="url(#p3de0fac7b3)" style="fill: #1f77b4; opacity: 0.6"/>
   </g>
   <g id="patch_47">
    <path d="M 689.65281 828.779375 
L 701.776534 828.779375 
L 701.776534 799.20611 
L 689.65281 799.20611 
z
" clip-path="url(#p3de0fac7b3)" style="fill: #1f77b4; opacity: 0.6"/>
   </g>
   <g id="patch_48">
    <path d="M 701.776534 828.779375 
L 713.900259 828.779375 
L 713.900259 800.730505 
L 701.776534 800.730505 
z
" clip-path="url(#p3de0fac7b3)" style="fill: #1f77b4; opacity: 0.6"/>
   </g>
   <g id="patch_49">
    <path d="M 713.900259 828.779375 
L 726.023983 828.779375 
L 726.023983 807.437843 
L 713.900259 807.437843 
z
" clip-path="url(#p3de0fac7b3)" style="fill: #1f77b4; opacity: 0.6"/>
   </g>
   <g id="patch_50">
    <path d="M 726.023983 828.779375 
L 738.147707 828.779375 
L 738.147707 808.35248 
L 726.023983 808.35248 
z
" clip-path="url(#p3de0fac7b3)" style="fill: #1f77b4; opacity: 0.6"/>
   </g>
   <g id="patch_51">
    <path d="M 738.147707 828.779375 
L 750.271432 828.779375 
L 750.271432 805.913448 
L 738.147707 805.913448 
z
" clip-path="url(#p3de0fac7b3)" style="fill: #1f77b4; opacity: 0.6"/>
   </g>
   <g id="patch_52">
    <path d="M 750.271432 828.779375 
L 762.395156 828.779375 
L 762.395156 809.571996 
L 750.271432 809.571996 
z
" clip-path="url(#p3de0fac7b3)" style="fill: #1f77b4; opacity: 0.6"/>
   </g>
   <g id="patch_53">
    <path d="M 762.395156 828.779375 
L 774.518881 828.779375 
L 774.518881 813.535424 
L 762.395156 813.535424 
z
" clip-path="url(#p3de0fac7b3)" style="fill: #1f77b4; opacity: 0.6"/>
   </g>
   <g id="patch_54">
    <path d="M 774.518881 828.779375 
L 786.642605 828.779375 
L 786.642605 815.364698 
L 774.518881 815.364698 
z
" clip-path="url(#p3de0fac7b3)" style="fill: #1f77b4; opacity: 0.6"/>
   </g>
   <g id="patch_55">
    <path d="M 786.642605 828.779375 
L 798.76633 828.779375 
L 798.76633 815.364698 
L 786.642605 815.364698 
z
" clip-path="url(#p3de0fac7b3)" style="fill: #1f77b4; opacity: 0.6"/>
   </g>
   <g id="patch_56">
    <path d="M 798.76633 828.779375 
L 810.890054 828.779375 
L 810.890054 819.328125 
L 798.76633 819.328125 
z
" clip-path="url(#p3de0fac7b3)" style="fill: #1f77b4; opacity: 0.6"/>
   </g>
   <g id="patch_57">
    <path d="M 810.890054 828.779375 
L 823.013778 828.779375 
L 823.013778 817.80373 
L 810.890054 817.80373 
z
" clip-path="url(#p3de0fac7b3)" style="fill: #1f77b4; opacity: 0.6"/>
   </g>
   <g id="patch_58">
    <path d="M 823.013778 828.779375 
L 835.137503 828.779375 
L 835.137503 817.498851 
L 823.013778 817.498851 
z
" clip-path="url(#p3de0fac7b3)" style="fill: #1f77b4; opacity: 0.6"/>
   </g>
   <g id="patch_59">
    <path d="M 835.137503 828.779375 
L 847.261227 828.779375 
L 847.261227 820.242762 
L 835.137503 820.242762 
z
" clip-path="url(#p3de0fac7b3)" style="fill: #1f77b4; opacity: 0.6"/>
   </g>
   <g id="patch_60">
    <path d="M 847.261227 828.779375 
L 859.384952 828.779375 
L 859.384952 822.376915 
L 847.261227 822.376915 
z
" clip-path="url(#p3de0fac7b3)" style="fill: #1f77b4; opacity: 0.6"/>
   </g>
   <g id="patch_61">
    <path d="M 859.384952 828.779375 
L 871.508676 828.779375 
L 871.508676 820.85252 
L 859.384952 820.85252 
z
" clip-path="url(#p3de0fac7b3)" style="fill: #1f77b4; opacity: 0.6"/>
   </g>
   <g id="patch_62">
    <path d="M 871.508676 828.779375 
L 883.632401 828.779375 
L 883.632401 824.511069 
L 871.508676 824.511069 
z
" clip-path="url(#p3de0fac7b3)" style="fill: #1f77b4; opacity: 0.6"/>
   </g>
   <g id="patch_63">
    <path d="M 883.632401 828.779375 
L 895.756125 828.779375 
L 895.756125 822.986674 
L 883.632401 822.986674 
z
" clip-path="url(#p3de0fac7b3)" style="fill: #1f77b4; opacity: 0.6"/>
   </g>
   <g id="patch_64">
    <path d="M 895.756125 828.779375 
L 907.879849 828.779375 
L 907.879849 825.730585 
L 895.756125 825.730585 
z
" clip-path="url(#p3de0fac7b3)" style="fill: #1f77b4; opacity: 0.6"/>
   </g>
   <g id="patch_65">
    <path d="M 907.879849 828.779375 
L 920.003574 828.779375 
L 920.003574 825.425706 
L 907.879849 825.425706 
z
" clip-path="url(#p3de0fac7b3)" style="fill: #1f77b4; opacity: 0.6"/>
   </g>
   <g id="patch_66">
    <path d="M 920.003574 828.779375 
L 932.127298 828.779375 
L 932.127298 824.511069 
L 920.003574 824.511069 
z
" clip-path="url(#p3de0fac7b3)" style="fill: #1f77b4; opacity: 0.6"/>
   </g>
   <g id="patch_67">
    <path d="M 932.127298 828.779375 
L 944.251023 828.779375 
L 944.251023 826.645222 
L 932.127298 826.645222 
z
" clip-path="url(#p3de0fac7b3)" style="fill: #1f77b4; opacity: 0.6"/>
   </g>
   <g id="patch_68">
    <path d="M 944.251023 828.779375 
L 956.374747 828.779375 
L 956.374747 825.730585 
L 944.251023 825.730585 
z
" clip-path="url(#p3de0fac7b3)" style="fill: #1f77b4; opacity: 0.6"/>
   </g>
   <g id="patch_69">
    <path d="M 956.374747 828.779375 
L 968.498472 828.779375 
L 968.498472 825.730585 
L 956.374747 825.730585 
z
" clip-path="url(#p3de0fac7b3)" style="fill: #1f77b4; opacity: 0.6"/>
   </g>
   <g id="patch_70">
    <path d="M 968.498472 828.779375 
L 980.622196 828.779375 
L 980.622196 826.645222 
L 968.498472 826.645222 
z
" clip-path="url(#p3de0fac7b3)" style="fill: #1f77b4; opacity: 0.6"/>
   </g>
   <g id="patch_71">
    <path d="M 980.622196 828.779375 
L 992.74592 828.779375 
L 992.74592 825.730585 
L 980.622196 825.730585 
z
" clip-path="url(#p3de0fac7b3)" style="fill: #1f77b4; opacity: 0.6"/>
   </g>
   <g id="patch_72">
    <path d="M 992.74592 828.779375 
L 1004.869645 828.779375 
L 1004.869645 826.950101 
L 992.74592 826.950101 
z
" clip-path="url(#p3de0fac7b3)" style="fill: #1f77b4; opacity: 0.6"/>
   </g>
   <g id="patch_73">
    <path d="M 1004.869645 828.779375 
L 1016.993369 828.779375 
L 1016.993369 826.950101 
L 1004.869645 826.950101 
z
" clip-path="url(#p3de0fac7b3)" style="fill: #1f77b4; opacity: 0.6"/>
   </g>
   <g id="patch_74">
    <path d="M 1016.993369 828.779375 
L 1029.117094 828.779375 
L 1029.117094 827.864738 
L 1016.993369 827.864738 
z
" clip-path="url(#p3de0fac7b3)" style="fill: #1f77b4; opacity: 0.6"/>
   </g>
   <g id="patch_75">
    <path d="M 1029.117094 828.779375 
L 1041.240818 828.779375 
L 1041.240818 827.864738 
L 1029.117094 827.864738 
z
" clip-path="url(#p3de0fac7b3)" style="fill: #1f77b4; opacity: 0.6"/>
   </g>
   <g id="patch_76">
    <path d="M 1041.240818 828.779375 
L 1053.364543 828.779375 
L 1053.364543 828.474496 
L 1041.240818 828.474496 
z
" clip-path="url(#p3de0fac7b3)" style="fill: #1f77b4; opacity: 0.6"/>
   </g>
   <g id="patch_77">
    <path d="M 1053.364543 828.779375 
L 1065.488267 828.779375 
L 1065.488267 827.864738 
L 1053.364543 827.864738 
z
" clip-path="url(#p3de0fac7b3)" style="fill: #1f77b4; opacity: 0.6"/>
   </g>
   <g id="patch_78">
    <path d="M 1065.488267 828.779375 
L 1077.611991 828.779375 
L 1077.611991 828.779375 
L 1065.488267 828.779375 
z
" clip-path="url(#p3de0fac7b3)" style="fill: #1f77b4; opacity: 0.6"/>
   </g>
   <g id="patch_79">
    <path d="M 1077.611991 828.779375 
L 1089.735716 828.779375 
L 1089.735716 828.474496 
L 1077.611991 828.474496 
z
" clip-path="url(#p3de0fac7b3)" style="fill: #1f77b4; opacity: 0.6"/>
   </g>
   <g id="patch_80">
    <path d="M 1089.735716 828.779375 
L 1101.85944 828.779375 
L 1101.85944 827.864738 
L 1089.735716 827.864738 
z
" clip-path="url(#p3de0fac7b3)" style="fill: #1f77b4; opacity: 0.6"/>
   </g>
   <g id="patch_81">
    <path d="M 1101.85944 828.779375 
L 1113.983165 828.779375 
L 1113.983165 828.474496 
L 1101.85944 828.474496 
z
" clip-path="url(#p3de0fac7b3)" style="fill: #1f77b4; opacity: 0.6"/>
   </g>
   <g id="patch_82">
    <path d="M 1113.983165 828.779375 
L 1126.106889 828.779375 
L 1126.106889 828.779375 
L 1113.983165 828.779375 
z
" clip-path="url(#p3de0fac7b3)" style="fill: #1f77b4; opacity: 0.6"/>
   </g>
   <g id="patch_83">
    <path d="M 1126.106889 828.779375 
L 1138.230614 828.779375 
L 1138.230614 828.779375 
L 1126.106889 828.779375 
z
" clip-path="url(#p3de0fac7b3)" style="fill: #1f77b4; opacity: 0.6"/>
   </g>
   <g id="patch_84">
    <path d="M 1138.230614 828.779375 
L 1150.354338 828.779375 
L 1150.354338 828.474496 
L 1138.230614 828.474496 
z
" clip-path="url(#p3de0fac7b3)" style="fill: #1f77b4; opacity: 0.6"/>
   </g>
   <g id="patch_85">
    <path d="M 1150.354338 828.779375 
L 1162.478063 828.779375 
L 1162.478063 828.474496 
L 1150.354338 828.474496 
z
" clip-path="url(#p3de0fac7b3)" style="fill: #1f77b4; opacity: 0.6"/>
   </g>
   <g id="patch_86">
    <path d="M 1162.478063 828.779375 
L 1174.601787 828.779375 
L 1174.601787 827.864738 
L 1162.478063 827.864738 
z
" clip-path="url(#p3de0fac7b3)" style="fill: #1f77b4; opacity: 0.6"/>
   </g>
   <g id="patch_87">
    <path d="M 1174.601787 828.779375 
L 1186.725511 828.779375 
L 1186.725511 828.474496 
L 1174.601787 828.474496 
z
" clip-path="url(#p3de0fac7b3)" style="fill: #1f77b4; opacity: 0.6"/>
   </g>
   <g id="patch_88">
    <path d="M 1186.725511 828.779375 
L 1198.849236 828.779375 
L 1198.849236 828.474496 
L 1186.725511 828.474496 
z
" clip-path="url(#p3de0fac7b3)" style="fill: #1f77b4; opacity: 0.6"/>
   </g>
   <g id="patch_89">
    <path d="M 1198.849236 828.779375 
L 1210.97296 828.779375 
L 1210.97296 828.474496 
L 1198.849236 828.474496 
z
" clip-path="url(#p3de0fac7b3)" style="fill: #1f77b4; opacity: 0.6"/>
   </g>
   <g id="patch_90">
    <path d="M 1210.97296 828.779375 
L 1223.096685 828.779375 
L 1223.096685 828.779375 
L 1210.97296 828.779375 
z
" clip-path="url(#p3de0fac7b3)" style="fill: #1f77b4; opacity: 0.6"/>
   </g>
   <g id="patch_91">
    <path d="M 1223.096685 828.779375 
L 1235.220409 828.779375 
L 1235.220409 828.779375 
L 1223.096685 828.779375 
z
" clip-path="url(#p3de0fac7b3)" style="fill: #1f77b4; opacity: 0.6"/>
   </g>
   <g id="patch_92">
    <path d="M 1235.220409 828.779375 
L 1247.344134 828.779375 
L 1247.344134 828.779375 
L 1235.220409 828.779375 
z
" clip-path="url(#p3de0fac7b3)" style="fill: #1f77b4; opacity: 0.6"/>
   </g>
   <g id="patch_93">
    <path d="M 1247.344134 828.779375 
L 1259.467858 828.779375 
L 1259.467858 828.779375 
L 1247.344134 828.779375 
z
" clip-path="url(#p3de0fac7b3)" style="fill: #1f77b4; opacity: 0.6"/>
   </g>
   <g id="patch_94">
    <path d="M 1259.467858 828.779375 
L 1271.591582 828.779375 
L 1271.591582 828.779375 
L 1259.467858 828.779375 
z
" clip-path="url(#p3de0fac7b3)" style="fill: #1f77b4; opacity: 0.6"/>
   </g>
   <g id="patch_95">
    <path d="M 1271.591582 828.779375 
L 1283.715307 828.779375 
L 1283.715307 828.779375 
L 1271.591582 828.779375 
z
" clip-path="url(#p3de0fac7b3)" style="fill: #1f77b4; opacity: 0.6"/>
   </g>
   <g id="patch_96">
    <path d="M 1283.715307 828.779375 
L 1295.839031 828.779375 
L 1295.839031 828.474496 
L 1283.715307 828.474496 
z
" clip-path="url(#p3de0fac7b3)" style="fill: #1f77b4; opacity: 0.6"/>
   </g>
   <g id="patch_97">
    <path d="M 1295.839031 828.779375 
L 1307.962756 828.779375 
L 1307.962756 828.779375 
L 1295.839031 828.779375 
z
" clip-path="url(#p3de0fac7b3)" style="fill: #1f77b4; opacity: 0.6"/>
   </g>
   <g id="patch_98">
    <path d="M 1307.962756 828.779375 
L 1320.08648 828.779375 
L 1320.08648 828.779375 
L 1307.962756 828.779375 
z
" clip-path="url(#p3de0fac7b3)" style="fill: #1f77b4; opacity: 0.6"/>
   </g>
   <g id="patch_99">
    <path d="M 1320.08648 828.779375 
L 1332.210205 828.779375 
L 1332.210205 828.779375 
L 1320.08648 828.779375 
z
" clip-path="url(#p3de0fac7b3)" style="fill: #1f77b4; opacity: 0.6"/>
   </g>
   <g id="patch_100">
    <path d="M 1332.210205 828.779375 
L 1344.333929 828.779375 
L 1344.333929 828.474496 
L 1332.210205 828.474496 
z
" clip-path="url(#p3de0fac7b3)" style="fill: #1f77b4; opacity: 0.6"/>
   </g>
   <g id="patch_101">
    <path d="M 1344.333929 828.779375 
L 1356.457653 828.779375 
L 1356.457653 828.779375 
L 1344.333929 828.779375 
z
" clip-path="url(#p3de0fac7b3)" style="fill: #1f77b4; opacity: 0.6"/>
   </g>
   <g id="patch_102">
    <path d="M 1356.457653 828.779375 
L 1368.581378 828.779375 
L 1368.581378 828.474496 
L 1356.457653 828.474496 
z
" clip-path="url(#p3de0fac7b3)" style="fill: #1f77b4; opacity: 0.6"/>
   </g>
   <g id="matplotlib.axis_1">
    <g id="xtick_1">
     <g id="line2d_1">
      <defs>
       <path id="maee598c33f" d="M 0 0 
L 0 3.5 
" style="stroke: #000000; stroke-width: 0.8"/>
      </defs>
      <g>
       <use xlink:href="#maee598c33f" x="155.984622" y="828.779375" style="stroke: #000000; stroke-width: 0.8"/>
      </g>
     </g>
     <g id="text_1">
      <!-- 0 -->
      <g transform="translate(150.258372 849.456563)scale(0.18 -0.18)">
       <defs>
        <path id="DejaVuSans-30" d="M 2034 4250 
Q 1547 4250 1301 3770 
Q 1056 3291 1056 2328 
Q 1056 1369 1301 889 
Q 1547 409 2034 409 
Q 2525 409 2770 889 
Q 3016 1369 3016 2328 
Q 3016 3291 2770 3770 
Q 2525 4250 2034 4250 
z
M 2034 4750 
Q 2819 4750 3233 4129 
Q 3647 3509 3647 2328 
Q 3647 1150 3233 529 
Q 2819 -91 2034 -91 
Q 1250 -91 836 529 
Q 422 1150 422 2328 
Q 422 3509 836 4129 
Q 1250 4750 2034 4750 
z
" transform="scale(0.015625)"/>
       </defs>
       <use xlink:href="#DejaVuSans-30"/>
      </g>
     </g>
    </g>
    <g id="xtick_2">
     <g id="line2d_2">
      <g>
       <use xlink:href="#maee598c33f" x="383.085021" y="828.779375" style="stroke: #000000; stroke-width: 0.8"/>
      </g>
     </g>
     <g id="text_2">
      <!-- 5 -->
      <g transform="translate(377.358771 849.456563)scale(0.18 -0.18)">
       <defs>
        <path id="DejaVuSans-35" d="M 691 4666 
L 3169 4666 
L 3169 4134 
L 1269 4134 
L 1269 2991 
Q 1406 3038 1543 3061 
Q 1681 3084 1819 3084 
Q 2600 3084 3056 2656 
Q 3513 2228 3513 1497 
Q 3513 744 3044 326 
Q 2575 -91 1722 -91 
Q 1428 -91 1123 -41 
Q 819 9 494 109 
L 494 744 
Q 775 591 1075 516 
Q 1375 441 1709 441 
Q 2250 441 2565 725 
Q 2881 1009 2881 1497 
Q 2881 1984 2565 2268 
Q 2250 2553 1709 2553 
Q 1456 2553 1204 2497 
Q 953 2441 691 2322 
L 691 4666 
z
" transform="scale(0.015625)"/>
       </defs>
       <use xlink:href="#DejaVuSans-35"/>
      </g>
     </g>
    </g>
    <g id="xtick_3">
     <g id="line2d_3">
      <g>
       <use xlink:href="#maee598c33f" x="610.185419" y="828.779375" style="stroke: #000000; stroke-width: 0.8"/>
      </g>
     </g>
     <g id="text_3">
      <!-- 10 -->
      <g transform="translate(598.732919 849.456563)scale(0.18 -0.18)">
       <defs>
        <path id="DejaVuSans-31" d="M 794 531 
L 1825 531 
L 1825 4091 
L 703 3866 
L 703 4441 
L 1819 4666 
L 2450 4666 
L 2450 531 
L 3481 531 
L 3481 0 
L 794 0 
L 794 531 
z
" transform="scale(0.015625)"/>
       </defs>
       <use xlink:href="#DejaVuSans-31"/>
       <use xlink:href="#DejaVuSans-30" x="63.623047"/>
      </g>
     </g>
    </g>
    <g id="xtick_4">
     <g id="line2d_4">
      <g>
       <use xlink:href="#maee598c33f" x="837.285818" y="828.779375" style="stroke: #000000; stroke-width: 0.8"/>
      </g>
     </g>
     <g id="text_4">
      <!-- 15 -->
      <g transform="translate(825.833318 849.456563)scale(0.18 -0.18)">
       <use xlink:href="#DejaVuSans-31"/>
       <use xlink:href="#DejaVuSans-35" x="63.623047"/>
      </g>
     </g>
    </g>
    <g id="xtick_5">
     <g id="line2d_5">
      <g>
       <use xlink:href="#maee598c33f" x="1064.386216" y="828.779375" style="stroke: #000000; stroke-width: 0.8"/>
      </g>
     </g>
     <g id="text_5">
      <!-- 20 -->
      <g transform="translate(1052.933716 849.456563)scale(0.18 -0.18)">
       <defs>
        <path id="DejaVuSans-32" d="M 1228 531 
L 3431 531 
L 3431 0 
L 469 0 
L 469 531 
Q 828 903 1448 1529 
Q 2069 2156 2228 2338 
Q 2531 2678 2651 2914 
Q 2772 3150 2772 3378 
Q 2772 3750 2511 3984 
Q 2250 4219 1831 4219 
Q 1534 4219 1204 4116 
Q 875 4013 500 3803 
L 500 4441 
Q 881 4594 1212 4672 
Q 1544 4750 1819 4750 
Q 2544 4750 2975 4387 
Q 3406 4025 3406 3419 
Q 3406 3131 3298 2873 
Q 3191 2616 2906 2266 
Q 2828 2175 2409 1742 
Q 1991 1309 1228 531 
z
" transform="scale(0.015625)"/>
       </defs>
       <use xlink:href="#DejaVuSans-32"/>
       <use xlink:href="#DejaVuSans-30" x="63.623047"/>
      </g>
     </g>
    </g>
    <g id="xtick_6">
     <g id="line2d_6">
      <g>
       <use xlink:href="#maee598c33f" x="1291.486615" y="828.779375" style="stroke: #000000; stroke-width: 0.8"/>
      </g>
     </g>
     <g id="text_6">
      <!-- 25 -->
      <g transform="translate(1280.034115 849.456563)scale(0.18 -0.18)">
       <use xlink:href="#DejaVuSans-32"/>
       <use xlink:href="#DejaVuSans-35" x="63.623047"/>
      </g>
     </g>
    </g>
   </g>
   <g id="matplotlib.axis_2">
    <g id="ytick_1">
     <g id="line2d_7">
      <defs>
       <path id="mfd42596082" d="M 0 0 
L -3.5 0 
" style="stroke: #000000; stroke-width: 0.8"/>
      </defs>
      <g>
       <use xlink:href="#mfd42596082" x="95.590313" y="828.779375" style="stroke: #000000; stroke-width: 0.8"/>
      </g>
     </g>
     <g id="text_7">
      <!-- 0.000 -->
      <g transform="translate(37.059688 835.617969)scale(0.18 -0.18)">
       <defs>
        <path id="DejaVuSans-2e" d="M 684 794 
L 1344 794 
L 1344 0 
L 684 0 
L 684 794 
z
" transform="scale(0.015625)"/>
       </defs>
       <use xlink:href="#DejaVuSans-30"/>
       <use xlink:href="#DejaVuSans-2e" x="63.623047"/>
       <use xlink:href="#DejaVuSans-30" x="95.410156"/>
       <use xlink:href="#DejaVuSans-30" x="159.033203"/>
       <use xlink:href="#DejaVuSans-30" x="222.65625"/>
      </g>
     </g>
    </g>
    <g id="ytick_2">
     <g id="line2d_8">
      <g>
       <use xlink:href="#mfd42596082" x="95.590313" y="727.054838" style="stroke: #000000; stroke-width: 0.8"/>
      </g>
     </g>
     <g id="text_8">
      <!-- 0.025 -->
      <g transform="translate(37.059688 733.893431)scale(0.18 -0.18)">
       <use xlink:href="#DejaVuSans-30"/>
       <use xlink:href="#DejaVuSans-2e" x="63.623047"/>
       <use xlink:href="#DejaVuSans-30" x="95.410156"/>
       <use xlink:href="#DejaVuSans-32" x="159.033203"/>
       <use xlink:href="#DejaVuSans-35" x="222.65625"/>
      </g>
     </g>
    </g>
    <g id="ytick_3">
     <g id="line2d_9">
      <g>
       <use xlink:href="#mfd42596082" x="95.590313" y="625.3303" style="stroke: #000000; stroke-width: 0.8"/>
      </g>
     </g>
     <g id="text_9">
      <!-- 0.050 -->
      <g transform="translate(37.059688 632.168894)scale(0.18 -0.18)">
       <use xlink:href="#DejaVuSans-30"/>
       <use xlink:href="#DejaVuSans-2e" x="63.623047"/>
       <use xlink:href="#DejaVuSans-30" x="95.410156"/>
       <use xlink:href="#DejaVuSans-35" x="159.033203"/>
       <use xlink:href="#DejaVuSans-30" x="222.65625"/>
      </g>
     </g>
    </g>
    <g id="ytick_4">
     <g id="line2d_10">
      <g>
       <use xlink:href="#mfd42596082" x="95.590313" y="523.605763" style="stroke: #000000; stroke-width: 0.8"/>
      </g>
     </g>
     <g id="text_10">
      <!-- 0.075 -->
      <g transform="translate(37.059688 530.444356)scale(0.18 -0.18)">
       <defs>
        <path id="DejaVuSans-37" d="M 525 4666 
L 3525 4666 
L 3525 4397 
L 1831 0 
L 1172 0 
L 2766 4134 
L 525 4134 
L 525 4666 
z
" transform="scale(0.015625)"/>
       </defs>
       <use xlink:href="#DejaVuSans-30"/>
       <use xlink:href="#DejaVuSans-2e" x="63.623047"/>
       <use xlink:href="#DejaVuSans-30" x="95.410156"/>
       <use xlink:href="#DejaVuSans-37" x="159.033203"/>
       <use xlink:href="#DejaVuSans-35" x="222.65625"/>
      </g>
     </g>
    </g>
    <g id="ytick_5">
     <g id="line2d_11">
      <g>
       <use xlink:href="#mfd42596082" x="95.590313" y="421.881225" style="stroke: #000000; stroke-width: 0.8"/>
      </g>
     </g>
     <g id="text_11">
      <!-- 0.100 -->
      <g transform="translate(37.059688 428.719819)scale(0.18 -0.18)">
       <use xlink:href="#DejaVuSans-30"/>
       <use xlink:href="#DejaVuSans-2e" x="63.623047"/>
       <use xlink:href="#DejaVuSans-31" x="95.410156"/>
       <use xlink:href="#DejaVuSans-30" x="159.033203"/>
       <use xlink:href="#DejaVuSans-30" x="222.65625"/>
      </g>
     </g>
    </g>
    <g id="ytick_6">
     <g id="line2d_12">
      <g>
       <use xlink:href="#mfd42596082" x="95.590313" y="320.156688" style="stroke: #000000; stroke-width: 0.8"/>
      </g>
     </g>
     <g id="text_12">
      <!-- 0.125 -->
      <g transform="translate(37.059688 326.995282)scale(0.18 -0.18)">
       <use xlink:href="#DejaVuSans-30"/>
       <use xlink:href="#DejaVuSans-2e" x="63.623047"/>
       <use xlink:href="#DejaVuSans-31" x="95.410156"/>
       <use xlink:href="#DejaVuSans-32" x="159.033203"/>
       <use xlink:href="#DejaVuSans-35" x="222.65625"/>
      </g>
     </g>
    </g>
    <g id="ytick_7">
     <g id="line2d_13">
      <g>
       <use xlink:href="#mfd42596082" x="95.590313" y="218.43215" style="stroke: #000000; stroke-width: 0.8"/>
      </g>
     </g>
     <g id="text_13">
      <!-- 0.150 -->
      <g transform="translate(37.059688 225.270744)scale(0.18 -0.18)">
       <use xlink:href="#DejaVuSans-30"/>
       <use xlink:href="#DejaVuSans-2e" x="63.623047"/>
       <use xlink:href="#DejaVuSans-31" x="95.410156"/>
       <use xlink:href="#DejaVuSans-35" x="159.033203"/>
       <use xlink:href="#DejaVuSans-30" x="222.65625"/>
      </g>
     </g>
    </g>
    <g id="ytick_8">
     <g id="line2d_14">
      <g>
       <use xlink:href="#mfd42596082" x="95.590313" y="116.707613" style="stroke: #000000; stroke-width: 0.8"/>
      </g>
     </g>
     <g id="text_14">
      <!-- 0.175 -->
      <g transform="translate(37.059688 123.546207)scale(0.18 -0.18)">
       <use xlink:href="#DejaVuSans-30"/>
       <use xlink:href="#DejaVuSans-2e" x="63.623047"/>
       <use xlink:href="#DejaVuSans-31" x="95.410156"/>
       <use xlink:href="#DejaVuSans-37" x="159.033203"/>
       <use xlink:href="#DejaVuSans-35" x="222.65625"/>
      </g>
     </g>
    </g>
    <g id="text_15">
     <!-- Normed Hist Counts -->
     <g transform="translate(28.276406 548.966563)rotate(-90)scale(0.23 -0.23)">
      <defs>
       <path id="DejaVuSans-4e" d="M 628 4666 
L 1478 4666 
L 3547 763 
L 3547 4666 
L 4159 4666 
L 4159 0 
L 3309 0 
L 1241 3903 
L 1241 0 
L 628 0 
L 628 4666 
z
" transform="scale(0.015625)"/>
       <path id="DejaVuSans-6f" d="M 1959 3097 
Q 1497 3097 1228 2736 
Q 959 2375 959 1747 
Q 959 1119 1226 758 
Q 1494 397 1959 397 
Q 2419 397 2687 759 
Q 2956 1122 2956 1747 
Q 2956 2369 2687 2733 
Q 2419 3097 1959 3097 
z
M 1959 3584 
Q 2709 3584 3137 3096 
Q 3566 2609 3566 1747 
Q 3566 888 3137 398 
Q 2709 -91 1959 -91 
Q 1206 -91 779 398 
Q 353 888 353 1747 
Q 353 2609 779 3096 
Q 1206 3584 1959 3584 
z
" transform="scale(0.015625)"/>
       <path id="DejaVuSans-72" d="M 2631 2963 
Q 2534 3019 2420 3045 
Q 2306 3072 2169 3072 
Q 1681 3072 1420 2755 
Q 1159 2438 1159 1844 
L 1159 0 
L 581 0 
L 581 3500 
L 1159 3500 
L 1159 2956 
Q 1341 3275 1631 3429 
Q 1922 3584 2338 3584 
Q 2397 3584 2469 3576 
Q 2541 3569 2628 3553 
L 2631 2963 
z
" transform="scale(0.015625)"/>
       <path id="DejaVuSans-6d" d="M 3328 2828 
Q 3544 3216 3844 3400 
Q 4144 3584 4550 3584 
Q 5097 3584 5394 3201 
Q 5691 2819 5691 2113 
L 5691 0 
L 5113 0 
L 5113 2094 
Q 5113 2597 4934 2840 
Q 4756 3084 4391 3084 
Q 3944 3084 3684 2787 
Q 3425 2491 3425 1978 
L 3425 0 
L 2847 0 
L 2847 2094 
Q 2847 2600 2669 2842 
Q 2491 3084 2119 3084 
Q 1678 3084 1418 2786 
Q 1159 2488 1159 1978 
L 1159 0 
L 581 0 
L 581 3500 
L 1159 3500 
L 1159 2956 
Q 1356 3278 1631 3431 
Q 1906 3584 2284 3584 
Q 2666 3584 2933 3390 
Q 3200 3197 3328 2828 
z
" transform="scale(0.015625)"/>
       <path id="DejaVuSans-65" d="M 3597 1894 
L 3597 1613 
L 953 1613 
Q 991 1019 1311 708 
Q 1631 397 2203 397 
Q 2534 397 2845 478 
Q 3156 559 3463 722 
L 3463 178 
Q 3153 47 2828 -22 
Q 2503 -91 2169 -91 
Q 1331 -91 842 396 
Q 353 884 353 1716 
Q 353 2575 817 3079 
Q 1281 3584 2069 3584 
Q 2775 3584 3186 3129 
Q 3597 2675 3597 1894 
z
M 3022 2063 
Q 3016 2534 2758 2815 
Q 2500 3097 2075 3097 
Q 1594 3097 1305 2825 
Q 1016 2553 972 2059 
L 3022 2063 
z
" transform="scale(0.015625)"/>
       <path id="DejaVuSans-64" d="M 2906 2969 
L 2906 4863 
L 3481 4863 
L 3481 0 
L 2906 0 
L 2906 525 
Q 2725 213 2448 61 
Q 2172 -91 1784 -91 
Q 1150 -91 751 415 
Q 353 922 353 1747 
Q 353 2572 751 3078 
Q 1150 3584 1784 3584 
Q 2172 3584 2448 3432 
Q 2725 3281 2906 2969 
z
M 947 1747 
Q 947 1113 1208 752 
Q 1469 391 1925 391 
Q 2381 391 2643 752 
Q 2906 1113 2906 1747 
Q 2906 2381 2643 2742 
Q 2381 3103 1925 3103 
Q 1469 3103 1208 2742 
Q 947 2381 947 1747 
z
" transform="scale(0.015625)"/>
       <path id="DejaVuSans-20" transform="scale(0.015625)"/>
       <path id="DejaVuSans-48" d="M 628 4666 
L 1259 4666 
L 1259 2753 
L 3553 2753 
L 3553 4666 
L 4184 4666 
L 4184 0 
L 3553 0 
L 3553 2222 
L 1259 2222 
L 1259 0 
L 628 0 
L 628 4666 
z
" transform="scale(0.015625)"/>
       <path id="DejaVuSans-69" d="M 603 3500 
L 1178 3500 
L 1178 0 
L 603 0 
L 603 3500 
z
M 603 4863 
L 1178 4863 
L 1178 4134 
L 603 4134 
L 603 4863 
z
" transform="scale(0.015625)"/>
       <path id="DejaVuSans-73" d="M 2834 3397 
L 2834 2853 
Q 2591 2978 2328 3040 
Q 2066 3103 1784 3103 
Q 1356 3103 1142 2972 
Q 928 2841 928 2578 
Q 928 2378 1081 2264 
Q 1234 2150 1697 2047 
L 1894 2003 
Q 2506 1872 2764 1633 
Q 3022 1394 3022 966 
Q 3022 478 2636 193 
Q 2250 -91 1575 -91 
Q 1294 -91 989 -36 
Q 684 19 347 128 
L 347 722 
Q 666 556 975 473 
Q 1284 391 1588 391 
Q 1994 391 2212 530 
Q 2431 669 2431 922 
Q 2431 1156 2273 1281 
Q 2116 1406 1581 1522 
L 1381 1569 
Q 847 1681 609 1914 
Q 372 2147 372 2553 
Q 372 3047 722 3315 
Q 1072 3584 1716 3584 
Q 2034 3584 2315 3537 
Q 2597 3491 2834 3397 
z
" transform="scale(0.015625)"/>
       <path id="DejaVuSans-74" d="M 1172 4494 
L 1172 3500 
L 2356 3500 
L 2356 3053 
L 1172 3053 
L 1172 1153 
Q 1172 725 1289 603 
Q 1406 481 1766 481 
L 2356 481 
L 2356 0 
L 1766 0 
Q 1100 0 847 248 
Q 594 497 594 1153 
L 594 3053 
L 172 3053 
L 172 3500 
L 594 3500 
L 594 4494 
L 1172 4494 
z
" transform="scale(0.015625)"/>
       <path id="DejaVuSans-43" d="M 4122 4306 
L 4122 3641 
Q 3803 3938 3442 4084 
Q 3081 4231 2675 4231 
Q 1875 4231 1450 3742 
Q 1025 3253 1025 2328 
Q 1025 1406 1450 917 
Q 1875 428 2675 428 
Q 3081 428 3442 575 
Q 3803 722 4122 1019 
L 4122 359 
Q 3791 134 3420 21 
Q 3050 -91 2638 -91 
Q 1578 -91 968 557 
Q 359 1206 359 2328 
Q 359 3453 968 4101 
Q 1578 4750 2638 4750 
Q 3056 4750 3426 4639 
Q 3797 4528 4122 4306 
z
" transform="scale(0.015625)"/>
       <path id="DejaVuSans-75" d="M 544 1381 
L 544 3500 
L 1119 3500 
L 1119 1403 
Q 1119 906 1312 657 
Q 1506 409 1894 409 
Q 2359 409 2629 706 
Q 2900 1003 2900 1516 
L 2900 3500 
L 3475 3500 
L 3475 0 
L 2900 0 
L 2900 538 
Q 2691 219 2414 64 
Q 2138 -91 1772 -91 
Q 1169 -91 856 284 
Q 544 659 544 1381 
z
M 1991 3584 
L 1991 3584 
z
" transform="scale(0.015625)"/>
       <path id="DejaVuSans-6e" d="M 3513 2113 
L 3513 0 
L 2938 0 
L 2938 2094 
Q 2938 2591 2744 2837 
Q 2550 3084 2163 3084 
Q 1697 3084 1428 2787 
Q 1159 2491 1159 1978 
L 1159 0 
L 581 0 
L 581 3500 
L 1159 3500 
L 1159 2956 
Q 1366 3272 1645 3428 
Q 1925 3584 2291 3584 
Q 2894 3584 3203 3211 
Q 3513 2838 3513 2113 
z
" transform="scale(0.015625)"/>
      </defs>
      <use xlink:href="#DejaVuSans-4e"/>
      <use xlink:href="#DejaVuSans-6f" x="74.804688"/>
      <use xlink:href="#DejaVuSans-72" x="135.986328"/>
      <use xlink:href="#DejaVuSans-6d" x="175.349609"/>
      <use xlink:href="#DejaVuSans-65" x="272.761719"/>
      <use xlink:href="#DejaVuSans-64" x="334.285156"/>
      <use xlink:href="#DejaVuSans-20" x="397.761719"/>
      <use xlink:href="#DejaVuSans-48" x="429.548828"/>
      <use xlink:href="#DejaVuSans-69" x="504.744141"/>
      <use xlink:href="#DejaVuSans-73" x="532.527344"/>
      <use xlink:href="#DejaVuSans-74" x="584.626953"/>
      <use xlink:href="#DejaVuSans-20" x="623.835938"/>
      <use xlink:href="#DejaVuSans-43" x="655.623047"/>
      <use xlink:href="#DejaVuSans-6f" x="725.447266"/>
      <use xlink:href="#DejaVuSans-75" x="786.628906"/>
      <use xlink:href="#DejaVuSans-6e" x="850.007812"/>
      <use xlink:href="#DejaVuSans-74" x="913.386719"/>
      <use xlink:href="#DejaVuSans-73" x="952.595703"/>
     </g>
    </g>
   </g>
   <g id="line2d_15">
    <path d="M 159.239866 582.92723 
L 165.301728 484.946318 
L 171.36359 427.179789 
L 177.425452 384.596595 
L 183.487315 350.676052 
L 189.549177 322.63059 
L 195.611039 298.986712 
L 201.672901 278.862308 
L 207.734763 261.682985 
L 213.796626 247.050697 
L 219.858488 234.675619 
L 225.92035 224.337794 
L 231.982212 215.864126 
L 238.044075 209.11389 
L 244.105937 203.96923 
L 250.167799 200.328733 
L 256.229661 198.102966 
L 262.291523 197.211317 
L 268.353386 197.579718 
L 274.415248 199.138989 
L 280.47711 201.823626 
L 286.538972 205.570907 
L 292.600835 210.320239 
L 298.662697 216.012684 
L 304.724559 222.590616 
L 310.786421 229.997492 
L 316.848283 238.177689 
L 322.910146 247.076423 
L 328.972008 256.639697 
L 335.03387 266.814298 
L 341.095732 277.547822 
L 347.157594 288.788716 
L 353.219457 300.486343 
L 359.281319 312.591051 
L 365.343181 325.054258 
L 371.405043 337.828533 
L 383.528768 364.126862 
L 395.652492 391.132967 
L 438.085528 486.716287 
L 450.209252 513.22702 
L 462.332977 538.981433 
L 474.456701 563.810066 
L 480.518563 575.832477 
L 486.580425 587.573428 
L 492.642288 599.019999 
L 498.70415 610.160999 
L 504.766012 620.986905 
L 510.827874 631.48981 
L 516.889737 641.663355 
L 522.951599 651.502665 
L 529.013461 661.004281 
L 535.075323 670.166083 
L 541.137185 678.987218 
L 547.199048 687.468024 
L 553.26091 695.609948 
L 559.322772 703.415475 
L 565.384634 710.888043 
L 571.446496 718.031968 
L 577.508359 724.852368 
L 583.570221 731.355083 
L 589.632083 737.546606 
L 595.693945 743.434004 
L 601.755808 749.024852 
L 607.81767 754.327165 
L 613.879532 759.349329 
L 619.941394 764.100041 
L 626.003256 768.58825 
L 632.065119 772.823099 
L 638.126981 776.813873 
L 644.188843 780.569945 
L 650.250705 784.100738 
L 656.312567 787.415673 
L 662.37443 790.524134 
L 668.436292 793.435432 
L 674.498154 796.158769 
L 680.560016 798.703209 
L 686.621879 801.077654 
L 692.683741 803.290817 
L 698.745603 805.351203 
L 704.807465 807.267089 
L 710.869327 809.046511 
L 716.93119 810.697253 
L 729.054914 813.642488 
L 741.178638 816.159627 
L 753.302363 818.300993 
L 765.426087 820.114356 
L 777.549812 821.642983 
L 789.673536 822.925763 
L 801.797261 823.997403 
L 813.920985 824.888656 
L 832.106572 825.945586 
L 850.292158 826.73409 
L 868.477745 827.316545 
L 892.725194 827.856839 
L 923.034505 828.272522 
L 959.405678 828.5404 
L 1013.962438 828.707074 
L 1129.13782 828.774935 
L 1365.550447 828.77937 
L 1365.550447 828.77937 
" clip-path="url(#p3de0fac7b3)" style="fill: none; stroke: #ff7f0e; stroke-width: 2; stroke-linecap: square"/>
   </g>
   <g id="line2d_16">
    <path d="M 159.239866 761.71906 
L 165.301728 644.964267 
L 171.36359 542.760606 
L 177.425452 454.123744 
L 183.487315 377.88438 
L 189.549177 312.893346 
L 195.611039 258.065628 
L 201.672901 212.392265 
L 207.734763 174.942103 
L 213.796626 144.859649 
L 219.858488 121.361302 
L 225.92035 103.730943 
L 231.982212 91.315329 
L 238.044075 83.51953 
L 244.105937 79.802518 
L 250.167799 79.67297 
L 256.229661 82.685313 
L 262.291523 88.436019 
L 268.353386 96.560148 
L 274.415248 106.72814 
L 280.47711 118.642835 
L 286.538972 132.03672 
L 292.600835 146.669379 
L 298.662697 162.325146 
L 304.724559 178.810937 
L 310.786421 195.954255 
L 316.848283 213.601358 
L 328.972008 249.875703 
L 359.281319 341.540556 
L 371.405043 377.055936 
L 377.466906 394.363448 
L 383.528768 411.324406 
L 389.59063 427.911152 
L 395.652492 444.101053 
L 401.714354 459.875964 
L 407.776217 475.221748 
L 413.838079 490.127833 
L 419.899941 504.586807 
L 425.961803 518.594059 
L 432.023665 532.147446 
L 438.085528 545.246994 
L 444.14739 557.894627 
L 450.209252 570.09392 
L 456.271114 581.849878 
L 462.332977 593.16874 
L 468.394839 604.057792 
L 474.456701 614.525211 
L 480.518563 624.579916 
L 486.580425 634.231441 
L 492.642288 643.489813 
L 498.70415 652.365454 
L 504.766012 660.869084 
L 510.827874 669.011641 
L 516.889737 676.804207 
L 522.951599 684.257943 
L 529.013461 691.384032 
L 535.075323 698.193633 
L 541.137185 704.697831 
L 547.199048 710.907606 
L 553.26091 716.833796 
L 559.322772 722.487071 
L 565.384634 727.87791 
L 571.446496 733.016578 
L 577.508359 737.913114 
L 583.570221 742.577314 
L 589.632083 747.01872 
L 595.693945 751.246616 
L 601.755808 755.270016 
L 607.81767 759.097665 
L 613.879532 762.73803 
L 619.941394 766.199306 
L 626.003256 769.489412 
L 632.065119 772.615991 
L 638.126981 775.586417 
L 644.188843 778.407794 
L 650.250705 781.08696 
L 656.312567 783.630496 
L 662.37443 786.044725 
L 674.498154 790.509311 
L 686.621879 794.52642 
L 698.745603 798.138047 
L 710.869327 801.382695 
L 722.993052 804.295588 
L 735.116776 806.908891 
L 747.240501 809.251917 
L 759.364225 811.351344 
L 771.48795 813.231409 
L 783.611674 814.914102 
L 795.735398 816.41935 
L 813.920985 818.383481 
L 832.106572 820.042248 
L 850.292158 821.441714 
L 868.477745 822.621296 
L 886.663332 823.614656 
L 910.910781 824.698429 
L 935.158229 825.558145 
L 965.46754 826.386045 
L 1001.838714 827.106859 
L 1044.271749 827.680934 
L 1092.766647 828.101928 
L 1159.447131 828.43235 
L 1250.375065 828.64098 
L 1365.550447 828.736608 
L 1365.550447 828.736608 
" clip-path="url(#p3de0fac7b3)" style="fill: none; stroke: #2ca02c; stroke-width: 2; stroke-linecap: square"/>
   </g>
   <g id="line2d_17">
    <path d="M 159.239866 611.131081 
L 165.301728 596.476155 
L 171.36359 581.39234 
L 177.425452 565.921868 
L 189.549177 534.016685 
L 201.672901 501.203725 
L 225.92035 435.002028 
L 238.044075 402.8371 
L 244.105937 387.276669 
L 250.167799 372.177451 
L 256.229661 357.624329 
L 262.291523 343.70124 
L 268.353386 330.49038 
L 274.415248 318.071406 
L 280.47711 306.520634 
L 286.538972 295.910268 
L 292.600835 286.307644 
L 298.662697 277.774523 
L 304.724559 270.366429 
L 310.786421 264.132048 
L 316.848283 259.112696 
L 322.910146 255.34186 
L 328.972008 252.844829 
L 335.03387 251.638412 
L 341.095732 251.730746 
L 347.157594 253.121208 
L 353.219457 255.80042 
L 359.281319 259.750357 
L 365.343181 264.944545 
L 371.405043 271.348358 
L 377.466906 278.919407 
L 383.528768 287.607998 
L 389.59063 297.357684 
L 395.652492 308.105869 
L 401.714354 319.784482 
L 407.776217 332.320689 
L 413.838079 345.637651 
L 419.899941 359.655302 
L 425.961803 374.291149 
L 432.023665 389.461071 
L 438.085528 405.080118 
L 450.209252 437.326272 
L 468.394839 486.976376 
L 480.518563 520.023423 
L 492.642288 552.376994 
L 498.70415 568.141446 
L 504.766012 583.559767 
L 510.827874 598.585101 
L 516.889737 613.175987 
L 522.951599 627.296384 
L 529.013461 640.915645 
L 535.075323 654.00843 
L 541.137185 666.554566 
L 547.199048 678.538864 
L 553.26091 689.950893 
L 559.322772 700.784717 
L 565.384634 711.03861 
L 571.446496 720.714736 
L 577.508359 729.818824 
L 583.570221 738.359825 
L 589.632083 746.34956 
L 595.693945 753.802376 
L 601.755808 760.734798 
L 607.81767 767.165187 
L 613.879532 773.113417 
L 619.941394 778.600562 
L 626.003256 783.648596 
L 632.065119 788.280122 
L 638.126981 792.518111 
L 644.188843 796.385671 
L 650.250705 799.905836 
L 656.312567 803.101376 
L 662.37443 805.994635 
L 668.436292 808.607386 
L 674.498154 810.960712 
L 680.560016 813.074907 
L 686.621879 814.969393 
L 692.683741 816.662665 
L 698.745603 818.17224 
L 704.807465 819.514636 
L 710.869327 820.705351 
L 716.93119 821.758866 
L 729.054914 823.507185 
L 741.178638 824.855633 
L 753.302363 825.885387 
L 765.426087 826.664035 
L 777.549812 827.247052 
L 795.735398 827.850475 
L 813.920985 828.227573 
L 838.168434 828.512378 
L 874.539607 828.695382 
L 947.281954 828.772858 
L 1365.550447 828.779375 
L 1365.550447 828.779375 
" clip-path="url(#p3de0fac7b3)" style="fill: none; stroke: #d62728; stroke-width: 2; stroke-linecap: square"/>
   </g>
   <g id="patch_103">
    <path d="M 95.590313 828.779375 
L 95.590313 38.075625 
" style="fill: none; stroke: #000000; stroke-width: 0.8; stroke-linejoin: miter; stroke-linecap: square"/>
   </g>
   <g id="patch_104">
    <path d="M 1429.2 828.779375 
L 1429.2 38.075625 
" style="fill: none; stroke: #000000; stroke-width: 0.8; stroke-linejoin: miter; stroke-linecap: square"/>
   </g>
   <g id="patch_105">
    <path d="M 95.590313 828.779375 
L 1429.2 828.779375 
" style="fill: none; stroke: #000000; stroke-width: 0.8; stroke-linejoin: miter; stroke-linecap: square"/>
   </g>
   <g id="patch_106">
    <path d="M 95.590313 38.075625 
L 1429.2 38.075625 
" style="fill: none; stroke: #000000; stroke-width: 0.8; stroke-linejoin: miter; stroke-linecap: square"/>
   </g>
   <g id="text_16">
    <!-- All Fitted Distributions -->
    <g transform="translate(607.769531 32.075625)scale(0.28 -0.28)">
     <defs>
      <path id="DejaVuSans-41" d="M 2188 4044 
L 1331 1722 
L 3047 1722 
L 2188 4044 
z
M 1831 4666 
L 2547 4666 
L 4325 0 
L 3669 0 
L 3244 1197 
L 1141 1197 
L 716 0 
L 50 0 
L 1831 4666 
z
" transform="scale(0.015625)"/>
      <path id="DejaVuSans-6c" d="M 603 4863 
L 1178 4863 
L 1178 0 
L 603 0 
L 603 4863 
z
" transform="scale(0.015625)"/>
      <path id="DejaVuSans-46" d="M 628 4666 
L 3309 4666 
L 3309 4134 
L 1259 4134 
L 1259 2759 
L 3109 2759 
L 3109 2228 
L 1259 2228 
L 1259 0 
L 628 0 
L 628 4666 
z
" transform="scale(0.015625)"/>
      <path id="DejaVuSans-44" d="M 1259 4147 
L 1259 519 
L 2022 519 
Q 2988 519 3436 956 
Q 3884 1394 3884 2338 
Q 3884 3275 3436 3711 
Q 2988 4147 2022 4147 
L 1259 4147 
z
M 628 4666 
L 1925 4666 
Q 3281 4666 3915 4102 
Q 4550 3538 4550 2338 
Q 4550 1131 3912 565 
Q 3275 0 1925 0 
L 628 0 
L 628 4666 
z
" transform="scale(0.015625)"/>
      <path id="DejaVuSans-62" d="M 3116 1747 
Q 3116 2381 2855 2742 
Q 2594 3103 2138 3103 
Q 1681 3103 1420 2742 
Q 1159 2381 1159 1747 
Q 1159 1113 1420 752 
Q 1681 391 2138 391 
Q 2594 391 2855 752 
Q 3116 1113 3116 1747 
z
M 1159 2969 
Q 1341 3281 1617 3432 
Q 1894 3584 2278 3584 
Q 2916 3584 3314 3078 
Q 3713 2572 3713 1747 
Q 3713 922 3314 415 
Q 2916 -91 2278 -91 
Q 1894 -91 1617 61 
Q 1341 213 1159 525 
L 1159 0 
L 581 0 
L 581 4863 
L 1159 4863 
L 1159 2969 
z
" transform="scale(0.015625)"/>
     </defs>
     <use xlink:href="#DejaVuSans-41"/>
     <use xlink:href="#DejaVuSans-6c" x="68.408203"/>
     <use xlink:href="#DejaVuSans-6c" x="96.191406"/>
     <use xlink:href="#DejaVuSans-20" x="123.974609"/>
     <use xlink:href="#DejaVuSans-46" x="155.761719"/>
     <use xlink:href="#DejaVuSans-69" x="206.03125"/>
     <use xlink:href="#DejaVuSans-74" x="233.814453"/>
     <use xlink:href="#DejaVuSans-74" x="273.023438"/>
     <use xlink:href="#DejaVuSans-65" x="312.232422"/>
     <use xlink:href="#DejaVuSans-64" x="373.755859"/>
     <use xlink:href="#DejaVuSans-20" x="437.232422"/>
     <use xlink:href="#DejaVuSans-44" x="469.019531"/>
     <use xlink:href="#DejaVuSans-69" x="546.021484"/>
     <use xlink:href="#DejaVuSans-73" x="573.804688"/>
     <use xlink:href="#DejaVuSans-74" x="625.904297"/>
     <use xlink:href="#DejaVuSans-72" x="665.113281"/>
     <use xlink:href="#DejaVuSans-69" x="706.226562"/>
     <use xlink:href="#DejaVuSans-62" x="734.009766"/>
     <use xlink:href="#DejaVuSans-75" x="797.486328"/>
     <use xlink:href="#DejaVuSans-74" x="860.865234"/>
     <use xlink:href="#DejaVuSans-69" x="900.074219"/>
     <use xlink:href="#DejaVuSans-6f" x="927.857422"/>
     <use xlink:href="#DejaVuSans-6e" x="989.039062"/>
     <use xlink:href="#DejaVuSans-73" x="1052.417969"/>
    </g>
   </g>
   <g id="legend_1">
    <g id="patch_107">
     <path d="M 1060.635 198.185625 
L 1412.4 198.185625 
Q 1417.2 198.185625 1417.2 193.385625 
L 1417.2 54.875625 
Q 1417.2 50.075625 1412.4 50.075625 
L 1060.635 50.075625 
Q 1055.835 50.075625 1055.835 54.875625 
L 1055.835 193.385625 
Q 1055.835 198.185625 1060.635 198.185625 
z
" style="fill: #ffffff; opacity: 0.8; stroke: #cccccc; stroke-linejoin: miter"/>
    </g>
    <g id="patch_108">
     <path d="M 1065.435 77.911875 
L 1113.435 77.911875 
L 1113.435 61.111875 
L 1065.435 61.111875 
z
" style="fill: #1f77b4; opacity: 0.6"/>
    </g>
    <g id="text_17">
     <!-- Generated Distribution -->
     <g transform="translate(1132.635 77.911875)scale(0.24 -0.24)">
      <defs>
       <path id="DejaVuSans-47" d="M 3809 666 
L 3809 1919 
L 2778 1919 
L 2778 2438 
L 4434 2438 
L 4434 434 
Q 4069 175 3628 42 
Q 3188 -91 2688 -91 
Q 1594 -91 976 548 
Q 359 1188 359 2328 
Q 359 3472 976 4111 
Q 1594 4750 2688 4750 
Q 3144 4750 3555 4637 
Q 3966 4525 4313 4306 
L 4313 3634 
Q 3963 3931 3569 4081 
Q 3175 4231 2741 4231 
Q 1884 4231 1454 3753 
Q 1025 3275 1025 2328 
Q 1025 1384 1454 906 
Q 1884 428 2741 428 
Q 3075 428 3337 486 
Q 3600 544 3809 666 
z
" transform="scale(0.015625)"/>
       <path id="DejaVuSans-61" d="M 2194 1759 
Q 1497 1759 1228 1600 
Q 959 1441 959 1056 
Q 959 750 1161 570 
Q 1363 391 1709 391 
Q 2188 391 2477 730 
Q 2766 1069 2766 1631 
L 2766 1759 
L 2194 1759 
z
M 3341 1997 
L 3341 0 
L 2766 0 
L 2766 531 
Q 2569 213 2275 61 
Q 1981 -91 1556 -91 
Q 1019 -91 701 211 
Q 384 513 384 1019 
Q 384 1609 779 1909 
Q 1175 2209 1959 2209 
L 2766 2209 
L 2766 2266 
Q 2766 2663 2505 2880 
Q 2244 3097 1772 3097 
Q 1472 3097 1187 3025 
Q 903 2953 641 2809 
L 641 3341 
Q 956 3463 1253 3523 
Q 1550 3584 1831 3584 
Q 2591 3584 2966 3190 
Q 3341 2797 3341 1997 
z
" transform="scale(0.015625)"/>
      </defs>
      <use xlink:href="#DejaVuSans-47"/>
      <use xlink:href="#DejaVuSans-65" x="77.490234"/>
      <use xlink:href="#DejaVuSans-6e" x="139.013672"/>
      <use xlink:href="#DejaVuSans-65" x="202.392578"/>
      <use xlink:href="#DejaVuSans-72" x="263.916016"/>
      <use xlink:href="#DejaVuSans-61" x="305.029297"/>
      <use xlink:href="#DejaVuSans-74" x="366.308594"/>
      <use xlink:href="#DejaVuSans-65" x="405.517578"/>
      <use xlink:href="#DejaVuSans-64" x="467.041016"/>
      <use xlink:href="#DejaVuSans-20" x="530.517578"/>
      <use xlink:href="#DejaVuSans-44" x="562.304688"/>
      <use xlink:href="#DejaVuSans-69" x="639.306641"/>
      <use xlink:href="#DejaVuSans-73" x="667.089844"/>
      <use xlink:href="#DejaVuSans-74" x="719.189453"/>
      <use xlink:href="#DejaVuSans-72" x="758.398438"/>
      <use xlink:href="#DejaVuSans-69" x="799.511719"/>
      <use xlink:href="#DejaVuSans-62" x="827.294922"/>
      <use xlink:href="#DejaVuSans-75" x="890.771484"/>
      <use xlink:href="#DejaVuSans-74" x="954.150391"/>
      <use xlink:href="#DejaVuSans-69" x="993.359375"/>
      <use xlink:href="#DejaVuSans-6f" x="1021.142578"/>
      <use xlink:href="#DejaVuSans-6e" x="1082.324219"/>
     </g>
    </g>
    <g id="line2d_18">
     <path d="M 1065.435 104.739375 
L 1089.435 104.739375 
L 1113.435 104.739375 
" style="fill: none; stroke: #ff7f0e; stroke-width: 2; stroke-linecap: square"/>
    </g>
    <g id="text_18">
     <!-- Chi fit -->
     <g transform="translate(1132.635 113.139375)scale(0.24 -0.24)">
      <defs>
       <path id="DejaVuSans-68" d="M 3513 2113 
L 3513 0 
L 2938 0 
L 2938 2094 
Q 2938 2591 2744 2837 
Q 2550 3084 2163 3084 
Q 1697 3084 1428 2787 
Q 1159 2491 1159 1978 
L 1159 0 
L 581 0 
L 581 4863 
L 1159 4863 
L 1159 2956 
Q 1366 3272 1645 3428 
Q 1925 3584 2291 3584 
Q 2894 3584 3203 3211 
Q 3513 2838 3513 2113 
z
" transform="scale(0.015625)"/>
       <path id="DejaVuSans-66" d="M 2375 4863 
L 2375 4384 
L 1825 4384 
Q 1516 4384 1395 4259 
Q 1275 4134 1275 3809 
L 1275 3500 
L 2222 3500 
L 2222 3053 
L 1275 3053 
L 1275 0 
L 697 0 
L 697 3053 
L 147 3053 
L 147 3500 
L 697 3500 
L 697 3744 
Q 697 4328 969 4595 
Q 1241 4863 1831 4863 
L 2375 4863 
z
" transform="scale(0.015625)"/>
      </defs>
      <use xlink:href="#DejaVuSans-43"/>
      <use xlink:href="#DejaVuSans-68" x="69.824219"/>
      <use xlink:href="#DejaVuSans-69" x="133.203125"/>
      <use xlink:href="#DejaVuSans-20" x="160.986328"/>
      <use xlink:href="#DejaVuSans-66" x="192.773438"/>
      <use xlink:href="#DejaVuSans-69" x="227.978516"/>
      <use xlink:href="#DejaVuSans-74" x="255.761719"/>
     </g>
    </g>
    <g id="line2d_19">
     <path d="M 1065.435 139.966875 
L 1089.435 139.966875 
L 1113.435 139.966875 
" style="fill: none; stroke: #2ca02c; stroke-width: 2; stroke-linecap: square"/>
    </g>
    <g id="text_19">
     <!-- ChiSquared fit -->
     <g transform="translate(1132.635 148.366875)scale(0.24 -0.24)">
      <defs>
       <path id="DejaVuSans-53" d="M 3425 4513 
L 3425 3897 
Q 3066 4069 2747 4153 
Q 2428 4238 2131 4238 
Q 1616 4238 1336 4038 
Q 1056 3838 1056 3469 
Q 1056 3159 1242 3001 
Q 1428 2844 1947 2747 
L 2328 2669 
Q 3034 2534 3370 2195 
Q 3706 1856 3706 1288 
Q 3706 609 3251 259 
Q 2797 -91 1919 -91 
Q 1588 -91 1214 -16 
Q 841 59 441 206 
L 441 856 
Q 825 641 1194 531 
Q 1563 422 1919 422 
Q 2459 422 2753 634 
Q 3047 847 3047 1241 
Q 3047 1584 2836 1778 
Q 2625 1972 2144 2069 
L 1759 2144 
Q 1053 2284 737 2584 
Q 422 2884 422 3419 
Q 422 4038 858 4394 
Q 1294 4750 2059 4750 
Q 2388 4750 2728 4690 
Q 3069 4631 3425 4513 
z
" transform="scale(0.015625)"/>
       <path id="DejaVuSans-71" d="M 947 1747 
Q 947 1113 1208 752 
Q 1469 391 1925 391 
Q 2381 391 2643 752 
Q 2906 1113 2906 1747 
Q 2906 2381 2643 2742 
Q 2381 3103 1925 3103 
Q 1469 3103 1208 2742 
Q 947 2381 947 1747 
z
M 2906 525 
Q 2725 213 2448 61 
Q 2172 -91 1784 -91 
Q 1150 -91 751 415 
Q 353 922 353 1747 
Q 353 2572 751 3078 
Q 1150 3584 1784 3584 
Q 2172 3584 2448 3432 
Q 2725 3281 2906 2969 
L 2906 3500 
L 3481 3500 
L 3481 -1331 
L 2906 -1331 
L 2906 525 
z
" transform="scale(0.015625)"/>
      </defs>
      <use xlink:href="#DejaVuSans-43"/>
      <use xlink:href="#DejaVuSans-68" x="69.824219"/>
      <use xlink:href="#DejaVuSans-69" x="133.203125"/>
      <use xlink:href="#DejaVuSans-53" x="160.986328"/>
      <use xlink:href="#DejaVuSans-71" x="224.462891"/>
      <use xlink:href="#DejaVuSans-75" x="287.939453"/>
      <use xlink:href="#DejaVuSans-61" x="351.318359"/>
      <use xlink:href="#DejaVuSans-72" x="412.597656"/>
      <use xlink:href="#DejaVuSans-65" x="451.460938"/>
      <use xlink:href="#DejaVuSans-64" x="512.984375"/>
      <use xlink:href="#DejaVuSans-20" x="576.460938"/>
      <use xlink:href="#DejaVuSans-66" x="608.248047"/>
      <use xlink:href="#DejaVuSans-69" x="643.453125"/>
      <use xlink:href="#DejaVuSans-74" x="671.236328"/>
     </g>
    </g>
    <g id="line2d_20">
     <path d="M 1065.435 175.194375 
L 1089.435 175.194375 
L 1113.435 175.194375 
" style="fill: none; stroke: #d62728; stroke-width: 2; stroke-linecap: square"/>
    </g>
    <g id="text_20">
     <!-- Normal fit -->
     <g transform="translate(1132.635 183.594375)scale(0.24 -0.24)">
      <use xlink:href="#DejaVuSans-4e"/>
      <use xlink:href="#DejaVuSans-6f" x="74.804688"/>
      <use xlink:href="#DejaVuSans-72" x="135.986328"/>
      <use xlink:href="#DejaVuSans-6d" x="175.349609"/>
      <use xlink:href="#DejaVuSans-61" x="272.761719"/>
      <use xlink:href="#DejaVuSans-6c" x="334.041016"/>
      <use xlink:href="#DejaVuSans-20" x="361.824219"/>
      <use xlink:href="#DejaVuSans-66" x="393.611328"/>
      <use xlink:href="#DejaVuSans-69" x="428.816406"/>
      <use xlink:href="#DejaVuSans-74" x="456.599609"/>
     </g>
    </g>
   </g>
  </g>
 </g>
 <defs>
  <clipPath id="p3de0fac7b3">
   <rect x="95.590313" y="38.075625" width="1333.609688" height="790.70375"/>
  </clipPath>
 </defs>
</svg>
