<?xml version="1.0" encoding="utf-8" standalone="no"?>
<!DOCTYPE svg PUBLIC "-//W3C//DTD SVG 1.1//EN"
  "http://www.w3.org/Graphics/SVG/1.1/DTD/svg11.dtd">
<svg xmlns:xlink="http://www.w3.org/1999/xlink" width="1440pt" height="864pt" viewBox="0 0 1440 864" xmlns="http://www.w3.org/2000/svg" version="1.1">
 <metadata>
  <rdf:RDF xmlns:dc="http://purl.org/dc/elements/1.1/" xmlns:cc="http://creativecommons.org/ns#" xmlns:rdf="http://www.w3.org/1999/02/22-rdf-syntax-ns#">
   <cc:Work>
    <dc:type rdf:resource="http://purl.org/dc/dcmitype/StillImage"/>
    <dc:date>2022-03-10T14:54:00.876618</dc:date>
    <dc:format>image/svg+xml</dc:format>
    <dc:creator>
     <cc:Agent>
      <dc:title>Matplotlib v3.5.1, https://matplotlib.org/</dc:title>
     </cc:Agent>
    </dc:creator>
   </cc:Work>
  </rdf:RDF>
 </metadata>
 <defs>
  <style type="text/css">*{stroke-linejoin: round; stroke-linecap: butt}</style>
 </defs>
 <g id="figure_1">
  <g id="patch_1">
   <path d="M 0 864 
L 1440 864 
L 1440 0 
L 0 0 
z
" style="fill: #ffffff"/>
  </g>
  <g id="axes_1">
   <g id="patch_2">
    <path d="M 72.685313 828.779375 
L 1429.2 828.779375 
L 1429.2 38.075625 
L 72.685313 38.075625 
z
" style="fill: #ffffff"/>
   </g>
   <g id="patch_3">
    <path d="M 134.345071 828.779375 
L 146.677023 828.779375 
L 146.677023 825.519413 
L 134.345071 825.519413 
z
" clip-path="url(#p34cae6e249)" style="fill: #1f77b4; opacity: 0.6"/>
   </g>
   <g id="patch_4">
    <path d="M 146.677023 828.779375 
L 159.008974 828.779375 
L 159.008974 824.122287 
L 146.677023 824.122287 
z
" clip-path="url(#p34cae6e249)" style="fill: #1f77b4; opacity: 0.6"/>
   </g>
   <g id="patch_5">
    <path d="M 159.008974 828.779375 
L 171.340926 828.779375 
L 171.340926 821.328034 
L 159.008974 821.328034 
z
" clip-path="url(#p34cae6e249)" style="fill: #1f77b4; opacity: 0.6"/>
   </g>
   <g id="patch_6">
    <path d="M 171.340926 828.779375 
L 183.672878 828.779375 
L 183.672878 813.410983 
L 171.340926 813.410983 
z
" clip-path="url(#p34cae6e249)" style="fill: #1f77b4; opacity: 0.6"/>
   </g>
   <g id="patch_7">
    <path d="M 183.672878 828.779375 
L 196.00483 828.779375 
L 196.00483 790.125541 
L 183.672878 790.125541 
z
" clip-path="url(#p34cae6e249)" style="fill: #1f77b4; opacity: 0.6"/>
   </g>
   <g id="patch_8">
    <path d="M 196.00483 828.779375 
L 208.336781 828.779375 
L 208.336781 780.811365 
L 196.00483 780.811365 
z
" clip-path="url(#p34cae6e249)" style="fill: #1f77b4; opacity: 0.6"/>
   </g>
   <g id="patch_9">
    <path d="M 208.336781 828.779375 
L 220.668733 828.779375 
L 220.668733 773.360023 
L 208.336781 773.360023 
z
" clip-path="url(#p34cae6e249)" style="fill: #1f77b4; opacity: 0.6"/>
   </g>
   <g id="patch_10">
    <path d="M 220.668733 828.779375 
L 233.000685 828.779375 
L 233.000685 740.294696 
L 220.668733 740.294696 
z
" clip-path="url(#p34cae6e249)" style="fill: #1f77b4; opacity: 0.6"/>
   </g>
   <g id="patch_11">
    <path d="M 233.000685 828.779375 
L 245.332636 828.779375 
L 245.332636 717.474963 
L 233.000685 717.474963 
z
" clip-path="url(#p34cae6e249)" style="fill: #1f77b4; opacity: 0.6"/>
   </g>
   <g id="patch_12">
    <path d="M 245.332636 828.779375 
L 257.664588 828.779375 
L 257.664588 678.821129 
L 245.332636 678.821129 
z
" clip-path="url(#p34cae6e249)" style="fill: #1f77b4; opacity: 0.6"/>
   </g>
   <g id="patch_13">
    <path d="M 257.664588 828.779375 
L 269.99654 828.779375 
L 269.99654 659.261358 
L 257.664588 659.261358 
z
" clip-path="url(#p34cae6e249)" style="fill: #1f77b4; opacity: 0.6"/>
   </g>
   <g id="patch_14">
    <path d="M 269.99654 828.779375 
L 282.328491 828.779375 
L 282.328491 642.961549 
L 269.99654 642.961549 
z
" clip-path="url(#p34cae6e249)" style="fill: #1f77b4; opacity: 0.6"/>
   </g>
   <g id="patch_15">
    <path d="M 282.328491 828.779375 
L 294.660443 828.779375 
L 294.660443 575.433767 
L 282.328491 575.433767 
z
" clip-path="url(#p34cae6e249)" style="fill: #1f77b4; opacity: 0.6"/>
   </g>
   <g id="patch_16">
    <path d="M 294.660443 828.779375 
L 306.992395 828.779375 
L 306.992395 539.574187 
L 294.660443 539.574187 
z
" clip-path="url(#p34cae6e249)" style="fill: #1f77b4; opacity: 0.6"/>
   </g>
   <g id="patch_17">
    <path d="M 306.992395 828.779375 
L 319.324347 828.779375 
L 319.324347 521.877251 
L 306.992395 521.877251 
z
" clip-path="url(#p34cae6e249)" style="fill: #1f77b4; opacity: 0.6"/>
   </g>
   <g id="patch_18">
    <path d="M 319.324347 828.779375 
L 331.656298 828.779375 
L 331.656298 438.515369 
L 319.324347 438.515369 
z
" clip-path="url(#p34cae6e249)" style="fill: #1f77b4; opacity: 0.6"/>
   </g>
   <g id="patch_19">
    <path d="M 331.656298 828.779375 
L 343.98825 828.779375 
L 343.98825 401.724371 
L 331.656298 401.724371 
z
" clip-path="url(#p34cae6e249)" style="fill: #1f77b4; opacity: 0.6"/>
   </g>
   <g id="patch_20">
    <path d="M 343.98825 828.779375 
L 356.320202 828.779375 
L 356.320202 374.247549 
L 343.98825 374.247549 
z
" clip-path="url(#p34cae6e249)" style="fill: #1f77b4; opacity: 0.6"/>
   </g>
   <g id="patch_21">
    <path d="M 356.320202 828.779375 
L 368.652153 828.779375 
L 368.652153 330.470919 
L 356.320202 330.470919 
z
" clip-path="url(#p34cae6e249)" style="fill: #1f77b4; opacity: 0.6"/>
   </g>
   <g id="patch_22">
    <path d="M 368.652153 828.779375 
L 380.984105 828.779375 
L 380.984105 282.0372 
L 368.652153 282.0372 
z
" clip-path="url(#p34cae6e249)" style="fill: #1f77b4; opacity: 0.6"/>
   </g>
   <g id="patch_23">
    <path d="M 380.984105 828.779375 
L 393.316057 828.779375 
L 393.316057 257.82034 
L 380.984105 257.82034 
z
" clip-path="url(#p34cae6e249)" style="fill: #1f77b4; opacity: 0.6"/>
   </g>
   <g id="patch_24">
    <path d="M 393.316057 828.779375 
L 405.648009 828.779375 
L 405.648009 235.466316 
L 393.316057 235.466316 
z
" clip-path="url(#p34cae6e249)" style="fill: #1f77b4; opacity: 0.6"/>
   </g>
   <g id="patch_25">
    <path d="M 405.648009 828.779375 
L 417.97996 828.779375 
L 417.97996 180.512673 
L 405.648009 180.512673 
z
" clip-path="url(#p34cae6e249)" style="fill: #1f77b4; opacity: 0.6"/>
   </g>
   <g id="patch_26">
    <path d="M 417.97996 828.779375 
L 430.311912 828.779375 
L 430.311912 168.869952 
L 417.97996 168.869952 
z
" clip-path="url(#p34cae6e249)" style="fill: #1f77b4; opacity: 0.6"/>
   </g>
   <g id="patch_27">
    <path d="M 430.311912 828.779375 
L 442.643864 828.779375 
L 442.643864 124.627612 
L 430.311912 124.627612 
z
" clip-path="url(#p34cae6e249)" style="fill: #1f77b4; opacity: 0.6"/>
   </g>
   <g id="patch_28">
    <path d="M 442.643864 828.779375 
L 454.975815 828.779375 
L 454.975815 140.461713 
L 442.643864 140.461713 
z
" clip-path="url(#p34cae6e249)" style="fill: #1f77b4; opacity: 0.6"/>
   </g>
   <g id="patch_29">
    <path d="M 454.975815 828.779375 
L 467.307767 828.779375 
L 467.307767 119.504815 
L 454.975815 119.504815 
z
" clip-path="url(#p34cae6e249)" style="fill: #1f77b4; opacity: 0.6"/>
   </g>
   <g id="patch_30">
    <path d="M 467.307767 828.779375 
L 479.639719 828.779375 
L 479.639719 85.042361 
L 467.307767 85.042361 
z
" clip-path="url(#p34cae6e249)" style="fill: #1f77b4; opacity: 0.6"/>
   </g>
   <g id="patch_31">
    <path d="M 479.639719 828.779375 
L 491.97167 828.779375 
L 491.97167 75.728185 
L 479.639719 75.728185 
z
" clip-path="url(#p34cae6e249)" style="fill: #1f77b4; opacity: 0.6"/>
   </g>
   <g id="patch_32">
    <path d="M 491.97167 828.779375 
L 504.303622 828.779375 
L 504.303622 111.587765 
L 491.97167 111.587765 
z
" clip-path="url(#p34cae6e249)" style="fill: #1f77b4; opacity: 0.6"/>
   </g>
   <g id="patch_33">
    <path d="M 504.303622 828.779375 
L 516.635574 828.779375 
L 516.635574 83.179526 
L 504.303622 83.179526 
z
" clip-path="url(#p34cae6e249)" style="fill: #1f77b4; opacity: 0.6"/>
   </g>
   <g id="patch_34">
    <path d="M 516.635574 828.779375 
L 528.967526 828.779375 
L 528.967526 87.370905 
L 516.635574 87.370905 
z
" clip-path="url(#p34cae6e249)" style="fill: #1f77b4; opacity: 0.6"/>
   </g>
   <g id="patch_35">
    <path d="M 528.967526 828.779375 
L 541.299477 828.779375 
L 541.299477 102.273588 
L 528.967526 102.273588 
z
" clip-path="url(#p34cae6e249)" style="fill: #1f77b4; opacity: 0.6"/>
   </g>
   <g id="patch_36">
    <path d="M 541.299477 828.779375 
L 553.631429 828.779375 
L 553.631429 112.984892 
L 541.299477 112.984892 
z
" clip-path="url(#p34cae6e249)" style="fill: #1f77b4; opacity: 0.6"/>
   </g>
   <g id="patch_37">
    <path d="M 553.631429 828.779375 
L 565.963381 828.779375 
L 565.963381 127.887574 
L 553.631429 127.887574 
z
" clip-path="url(#p34cae6e249)" style="fill: #1f77b4; opacity: 0.6"/>
   </g>
   <g id="patch_38">
    <path d="M 565.963381 828.779375 
L 578.295332 828.779375 
L 578.295332 180.046964 
L 565.963381 180.046964 
z
" clip-path="url(#p34cae6e249)" style="fill: #1f77b4; opacity: 0.6"/>
   </g>
   <g id="patch_39">
    <path d="M 578.295332 828.779375 
L 590.627284 828.779375 
L 590.627284 196.812482 
L 578.295332 196.812482 
z
" clip-path="url(#p34cae6e249)" style="fill: #1f77b4; opacity: 0.6"/>
   </g>
   <g id="patch_40">
    <path d="M 590.627284 828.779375 
L 602.959236 828.779375 
L 602.959236 209.386621 
L 590.627284 209.386621 
z
" clip-path="url(#p34cae6e249)" style="fill: #1f77b4; opacity: 0.6"/>
   </g>
   <g id="patch_41">
    <path d="M 602.959236 828.779375 
L 615.291187 828.779375 
L 615.291187 256.888922 
L 602.959236 256.888922 
z
" clip-path="url(#p34cae6e249)" style="fill: #1f77b4; opacity: 0.6"/>
   </g>
   <g id="patch_42">
    <path d="M 615.291187 828.779375 
L 627.623139 828.779375 
L 627.623139 295.542756 
L 615.291187 295.542756 
z
" clip-path="url(#p34cae6e249)" style="fill: #1f77b4; opacity: 0.6"/>
   </g>
   <g id="patch_43">
    <path d="M 627.623139 828.779375 
L 639.955091 828.779375 
L 639.955091 308.116895 
L 627.623139 308.116895 
z
" clip-path="url(#p34cae6e249)" style="fill: #1f77b4; opacity: 0.6"/>
   </g>
   <g id="patch_44">
    <path d="M 639.955091 828.779375 
L 652.287043 828.779375 
L 652.287043 336.059425 
L 639.955091 336.059425 
z
" clip-path="url(#p34cae6e249)" style="fill: #1f77b4; opacity: 0.6"/>
   </g>
   <g id="patch_45">
    <path d="M 652.287043 828.779375 
L 664.618994 828.779375 
L 664.618994 375.178967 
L 652.287043 375.178967 
z
" clip-path="url(#p34cae6e249)" style="fill: #1f77b4; opacity: 0.6"/>
   </g>
   <g id="patch_46">
    <path d="M 664.618994 828.779375 
L 676.950946 828.779375 
L 676.950946 392.875903 
L 664.618994 392.875903 
z
" clip-path="url(#p34cae6e249)" style="fill: #1f77b4; opacity: 0.6"/>
   </g>
   <g id="patch_47">
    <path d="M 676.950946 828.779375 
L 689.282898 828.779375 
L 689.282898 432.926863 
L 676.950946 432.926863 
z
" clip-path="url(#p34cae6e249)" style="fill: #1f77b4; opacity: 0.6"/>
   </g>
   <g id="patch_48">
    <path d="M 689.282898 828.779375 
L 701.614849 828.779375 
L 701.614849 453.418052 
L 689.282898 453.418052 
z
" clip-path="url(#p34cae6e249)" style="fill: #1f77b4; opacity: 0.6"/>
   </g>
   <g id="patch_49">
    <path d="M 701.614849 828.779375 
L 713.946801 828.779375 
L 713.946801 487.414797 
L 701.614849 487.414797 
z
" clip-path="url(#p34cae6e249)" style="fill: #1f77b4; opacity: 0.6"/>
   </g>
   <g id="patch_50">
    <path d="M 713.946801 828.779375 
L 726.278753 828.779375 
L 726.278753 509.303112 
L 713.946801 509.303112 
z
" clip-path="url(#p34cae6e249)" style="fill: #1f77b4; opacity: 0.6"/>
   </g>
   <g id="patch_51">
    <path d="M 726.278753 828.779375 
L 738.610705 828.779375 
L 738.610705 551.216908 
L 726.278753 551.216908 
z
" clip-path="url(#p34cae6e249)" style="fill: #1f77b4; opacity: 0.6"/>
   </g>
   <g id="patch_52">
    <path d="M 738.610705 828.779375 
L 750.942656 828.779375 
L 750.942656 560.531085 
L 738.610705 560.531085 
z
" clip-path="url(#p34cae6e249)" style="fill: #1f77b4; opacity: 0.6"/>
   </g>
   <g id="patch_53">
    <path d="M 750.942656 828.779375 
L 763.274608 828.779375 
L 763.274608 586.610779 
L 750.942656 586.610779 
z
" clip-path="url(#p34cae6e249)" style="fill: #1f77b4; opacity: 0.6"/>
   </g>
   <g id="patch_54">
    <path d="M 763.274608 828.779375 
L 775.60656 828.779375 
L 775.60656 625.730322 
L 763.274608 625.730322 
z
" clip-path="url(#p34cae6e249)" style="fill: #1f77b4; opacity: 0.6"/>
   </g>
   <g id="patch_55">
    <path d="M 775.60656 828.779375 
L 787.938511 828.779375 
L 787.938511 634.57879 
L 775.60656 634.57879 
z
" clip-path="url(#p34cae6e249)" style="fill: #1f77b4; opacity: 0.6"/>
   </g>
   <g id="patch_56">
    <path d="M 787.938511 828.779375 
L 800.270463 828.779375 
L 800.270463 677.424003 
L 787.938511 677.424003 
z
" clip-path="url(#p34cae6e249)" style="fill: #1f77b4; opacity: 0.6"/>
   </g>
   <g id="patch_57">
    <path d="M 800.270463 828.779375 
L 812.602415 828.779375 
L 812.602415 683.478218 
L 800.270463 683.478218 
z
" clip-path="url(#p34cae6e249)" style="fill: #1f77b4; opacity: 0.6"/>
   </g>
   <g id="patch_58">
    <path d="M 812.602415 828.779375 
L 824.934366 828.779375 
L 824.934366 701.175153 
L 812.602415 701.175153 
z
" clip-path="url(#p34cae6e249)" style="fill: #1f77b4; opacity: 0.6"/>
   </g>
   <g id="patch_59">
    <path d="M 824.934366 828.779375 
L 837.266318 828.779375 
L 837.266318 698.3809 
L 824.934366 698.3809 
z
" clip-path="url(#p34cae6e249)" style="fill: #1f77b4; opacity: 0.6"/>
   </g>
   <g id="patch_60">
    <path d="M 837.266318 828.779375 
L 849.59827 828.779375 
L 849.59827 723.063469 
L 837.266318 723.063469 
z
" clip-path="url(#p34cae6e249)" style="fill: #1f77b4; opacity: 0.6"/>
   </g>
   <g id="patch_61">
    <path d="M 849.59827 828.779375 
L 861.930222 828.779375 
L 861.930222 738.43186 
L 849.59827 738.43186 
z
" clip-path="url(#p34cae6e249)" style="fill: #1f77b4; opacity: 0.6"/>
   </g>
   <g id="patch_62">
    <path d="M 861.930222 828.779375 
L 874.262173 828.779375 
L 874.262173 749.143164 
L 861.930222 749.143164 
z
" clip-path="url(#p34cae6e249)" style="fill: #1f77b4; opacity: 0.6"/>
   </g>
   <g id="patch_63">
    <path d="M 874.262173 828.779375 
L 886.594125 828.779375 
L 886.594125 759.388758 
L 874.262173 759.388758 
z
" clip-path="url(#p34cae6e249)" style="fill: #1f77b4; opacity: 0.6"/>
   </g>
   <g id="patch_64">
    <path d="M 886.594125 828.779375 
L 898.926077 828.779375 
L 898.926077 771.497188 
L 886.594125 771.497188 
z
" clip-path="url(#p34cae6e249)" style="fill: #1f77b4; opacity: 0.6"/>
   </g>
   <g id="patch_65">
    <path d="M 898.926077 828.779375 
L 911.258028 828.779375 
L 911.258028 771.962897 
L 898.926077 771.962897 
z
" clip-path="url(#p34cae6e249)" style="fill: #1f77b4; opacity: 0.6"/>
   </g>
   <g id="patch_66">
    <path d="M 911.258028 828.779375 
L 923.58998 828.779375 
L 923.58998 778.948529 
L 911.258028 778.948529 
z
" clip-path="url(#p34cae6e249)" style="fill: #1f77b4; opacity: 0.6"/>
   </g>
   <g id="patch_67">
    <path d="M 923.58998 828.779375 
L 935.921932 828.779375 
L 935.921932 785.468453 
L 923.58998 785.468453 
z
" clip-path="url(#p34cae6e249)" style="fill: #1f77b4; opacity: 0.6"/>
   </g>
   <g id="patch_68">
    <path d="M 935.921932 828.779375 
L 948.253884 828.779375 
L 948.253884 797.576883 
L 935.921932 797.576883 
z
" clip-path="url(#p34cae6e249)" style="fill: #1f77b4; opacity: 0.6"/>
   </g>
   <g id="patch_69">
    <path d="M 948.253884 828.779375 
L 960.585835 828.779375 
L 960.585835 797.111174 
L 948.253884 797.111174 
z
" clip-path="url(#p34cae6e249)" style="fill: #1f77b4; opacity: 0.6"/>
   </g>
   <g id="patch_70">
    <path d="M 960.585835 828.779375 
L 972.917787 828.779375 
L 972.917787 810.151021 
L 960.585835 810.151021 
z
" clip-path="url(#p34cae6e249)" style="fill: #1f77b4; opacity: 0.6"/>
   </g>
   <g id="patch_71">
    <path d="M 972.917787 828.779375 
L 985.249739 828.779375 
L 985.249739 811.082439 
L 972.917787 811.082439 
z
" clip-path="url(#p34cae6e249)" style="fill: #1f77b4; opacity: 0.6"/>
   </g>
   <g id="patch_72">
    <path d="M 985.249739 828.779375 
L 997.58169 828.779375 
L 997.58169 813.410983 
L 985.249739 813.410983 
z
" clip-path="url(#p34cae6e249)" style="fill: #1f77b4; opacity: 0.6"/>
   </g>
   <g id="patch_73">
    <path d="M 997.58169 828.779375 
L 1009.913642 828.779375 
L 1009.913642 818.999489 
L 997.58169 818.999489 
z
" clip-path="url(#p34cae6e249)" style="fill: #1f77b4; opacity: 0.6"/>
   </g>
   <g id="patch_74">
    <path d="M 1009.913642 828.779375 
L 1022.245594 828.779375 
L 1022.245594 819.930907 
L 1009.913642 819.930907 
z
" clip-path="url(#p34cae6e249)" style="fill: #1f77b4; opacity: 0.6"/>
   </g>
   <g id="patch_75">
    <path d="M 1022.245594 828.779375 
L 1034.577545 828.779375 
L 1034.577545 819.465198 
L 1022.245594 819.465198 
z
" clip-path="url(#p34cae6e249)" style="fill: #1f77b4; opacity: 0.6"/>
   </g>
   <g id="patch_76">
    <path d="M 1034.577545 828.779375 
L 1046.909497 828.779375 
L 1046.909497 818.999489 
L 1034.577545 818.999489 
z
" clip-path="url(#p34cae6e249)" style="fill: #1f77b4; opacity: 0.6"/>
   </g>
   <g id="patch_77">
    <path d="M 1046.909497 828.779375 
L 1059.241449 828.779375 
L 1059.241449 821.328034 
L 1046.909497 821.328034 
z
" clip-path="url(#p34cae6e249)" style="fill: #1f77b4; opacity: 0.6"/>
   </g>
   <g id="patch_78">
    <path d="M 1059.241449 828.779375 
L 1071.573401 828.779375 
L 1071.573401 823.190869 
L 1059.241449 823.190869 
z
" clip-path="url(#p34cae6e249)" style="fill: #1f77b4; opacity: 0.6"/>
   </g>
   <g id="patch_79">
    <path d="M 1071.573401 828.779375 
L 1083.905352 828.779375 
L 1083.905352 822.259451 
L 1071.573401 822.259451 
z
" clip-path="url(#p34cae6e249)" style="fill: #1f77b4; opacity: 0.6"/>
   </g>
   <g id="patch_80">
    <path d="M 1083.905352 828.779375 
L 1096.237304 828.779375 
L 1096.237304 825.053704 
L 1083.905352 825.053704 
z
" clip-path="url(#p34cae6e249)" style="fill: #1f77b4; opacity: 0.6"/>
   </g>
   <g id="patch_81">
    <path d="M 1096.237304 828.779375 
L 1108.569256 828.779375 
L 1108.569256 828.313666 
L 1096.237304 828.313666 
z
" clip-path="url(#p34cae6e249)" style="fill: #1f77b4; opacity: 0.6"/>
   </g>
   <g id="patch_82">
    <path d="M 1108.569256 828.779375 
L 1120.901207 828.779375 
L 1120.901207 824.587995 
L 1108.569256 824.587995 
z
" clip-path="url(#p34cae6e249)" style="fill: #1f77b4; opacity: 0.6"/>
   </g>
   <g id="patch_83">
    <path d="M 1120.901207 828.779375 
L 1133.233159 828.779375 
L 1133.233159 828.313666 
L 1120.901207 828.313666 
z
" clip-path="url(#p34cae6e249)" style="fill: #1f77b4; opacity: 0.6"/>
   </g>
   <g id="patch_84">
    <path d="M 1133.233159 828.779375 
L 1145.565111 828.779375 
L 1145.565111 826.450831 
L 1133.233159 826.450831 
z
" clip-path="url(#p34cae6e249)" style="fill: #1f77b4; opacity: 0.6"/>
   </g>
   <g id="patch_85">
    <path d="M 1145.565111 828.779375 
L 1157.897063 828.779375 
L 1157.897063 827.382248 
L 1145.565111 827.382248 
z
" clip-path="url(#p34cae6e249)" style="fill: #1f77b4; opacity: 0.6"/>
   </g>
   <g id="patch_86">
    <path d="M 1157.897063 828.779375 
L 1170.229014 828.779375 
L 1170.229014 827.382248 
L 1157.897063 827.382248 
z
" clip-path="url(#p34cae6e249)" style="fill: #1f77b4; opacity: 0.6"/>
   </g>
   <g id="patch_87">
    <path d="M 1170.229014 828.779375 
L 1182.560966 828.779375 
L 1182.560966 827.382248 
L 1170.229014 827.382248 
z
" clip-path="url(#p34cae6e249)" style="fill: #1f77b4; opacity: 0.6"/>
   </g>
   <g id="patch_88">
    <path d="M 1182.560966 828.779375 
L 1194.892918 828.779375 
L 1194.892918 828.779375 
L 1182.560966 828.779375 
z
" clip-path="url(#p34cae6e249)" style="fill: #1f77b4; opacity: 0.6"/>
   </g>
   <g id="patch_89">
    <path d="M 1194.892918 828.779375 
L 1207.224869 828.779375 
L 1207.224869 828.313666 
L 1194.892918 828.313666 
z
" clip-path="url(#p34cae6e249)" style="fill: #1f77b4; opacity: 0.6"/>
   </g>
   <g id="patch_90">
    <path d="M 1207.224869 828.779375 
L 1219.556821 828.779375 
L 1219.556821 828.313666 
L 1207.224869 828.313666 
z
" clip-path="url(#p34cae6e249)" style="fill: #1f77b4; opacity: 0.6"/>
   </g>
   <g id="patch_91">
    <path d="M 1219.556821 828.779375 
L 1231.888773 828.779375 
L 1231.888773 828.313666 
L 1219.556821 828.313666 
z
" clip-path="url(#p34cae6e249)" style="fill: #1f77b4; opacity: 0.6"/>
   </g>
   <g id="patch_92">
    <path d="M 1231.888773 828.779375 
L 1244.220724 828.779375 
L 1244.220724 828.313666 
L 1231.888773 828.313666 
z
" clip-path="url(#p34cae6e249)" style="fill: #1f77b4; opacity: 0.6"/>
   </g>
   <g id="patch_93">
    <path d="M 1244.220724 828.779375 
L 1256.552676 828.779375 
L 1256.552676 828.779375 
L 1244.220724 828.779375 
z
" clip-path="url(#p34cae6e249)" style="fill: #1f77b4; opacity: 0.6"/>
   </g>
   <g id="patch_94">
    <path d="M 1256.552676 828.779375 
L 1268.884628 828.779375 
L 1268.884628 827.847957 
L 1256.552676 827.847957 
z
" clip-path="url(#p34cae6e249)" style="fill: #1f77b4; opacity: 0.6"/>
   </g>
   <g id="patch_95">
    <path d="M 1268.884628 828.779375 
L 1281.21658 828.779375 
L 1281.21658 828.779375 
L 1268.884628 828.779375 
z
" clip-path="url(#p34cae6e249)" style="fill: #1f77b4; opacity: 0.6"/>
   </g>
   <g id="patch_96">
    <path d="M 1281.21658 828.779375 
L 1293.548531 828.779375 
L 1293.548531 828.779375 
L 1281.21658 828.779375 
z
" clip-path="url(#p34cae6e249)" style="fill: #1f77b4; opacity: 0.6"/>
   </g>
   <g id="patch_97">
    <path d="M 1293.548531 828.779375 
L 1305.880483 828.779375 
L 1305.880483 828.779375 
L 1293.548531 828.779375 
z
" clip-path="url(#p34cae6e249)" style="fill: #1f77b4; opacity: 0.6"/>
   </g>
   <g id="patch_98">
    <path d="M 1305.880483 828.779375 
L 1318.212435 828.779375 
L 1318.212435 828.779375 
L 1305.880483 828.779375 
z
" clip-path="url(#p34cae6e249)" style="fill: #1f77b4; opacity: 0.6"/>
   </g>
   <g id="patch_99">
    <path d="M 1318.212435 828.779375 
L 1330.544386 828.779375 
L 1330.544386 828.779375 
L 1318.212435 828.779375 
z
" clip-path="url(#p34cae6e249)" style="fill: #1f77b4; opacity: 0.6"/>
   </g>
   <g id="patch_100">
    <path d="M 1330.544386 828.779375 
L 1342.876338 828.779375 
L 1342.876338 828.779375 
L 1330.544386 828.779375 
z
" clip-path="url(#p34cae6e249)" style="fill: #1f77b4; opacity: 0.6"/>
   </g>
   <g id="patch_101">
    <path d="M 1342.876338 828.779375 
L 1355.20829 828.779375 
L 1355.20829 828.779375 
L 1342.876338 828.779375 
z
" clip-path="url(#p34cae6e249)" style="fill: #1f77b4; opacity: 0.6"/>
   </g>
   <g id="patch_102">
    <path d="M 1355.20829 828.779375 
L 1367.540241 828.779375 
L 1367.540241 828.313666 
L 1355.20829 828.313666 
z
" clip-path="url(#p34cae6e249)" style="fill: #1f77b4; opacity: 0.6"/>
   </g>
   <g id="matplotlib.axis_1">
    <g id="xtick_1">
     <g id="line2d_1">
      <defs>
       <path id="mdd7d75944c" d="M 0 0 
L 0 3.5 
" style="stroke: #000000; stroke-width: 0.8"/>
      </defs>
      <g>
       <use xlink:href="#mdd7d75944c" x="106.477453" y="828.779375" style="stroke: #000000; stroke-width: 0.8"/>
      </g>
     </g>
     <g id="text_1">
      <!-- 0 -->
      <g transform="translate(100.751203 849.456562)scale(0.18 -0.18)">
       <defs>
        <path id="DejaVuSans-30" d="M 2034 4250 
Q 1547 4250 1301 3770 
Q 1056 3291 1056 2328 
Q 1056 1369 1301 889 
Q 1547 409 2034 409 
Q 2525 409 2770 889 
Q 3016 1369 3016 2328 
Q 3016 3291 2770 3770 
Q 2525 4250 2034 4250 
z
M 2034 4750 
Q 2819 4750 3233 4129 
Q 3647 3509 3647 2328 
Q 3647 1150 3233 529 
Q 2819 -91 2034 -91 
Q 1250 -91 836 529 
Q 422 1150 422 2328 
Q 422 3509 836 4129 
Q 1250 4750 2034 4750 
z
" transform="scale(0.015625)"/>
       </defs>
       <use xlink:href="#DejaVuSans-30"/>
      </g>
     </g>
    </g>
    <g id="xtick_2">
     <g id="line2d_2">
      <g>
       <use xlink:href="#mdd7d75944c" x="330.68899" y="828.779375" style="stroke: #000000; stroke-width: 0.8"/>
      </g>
     </g>
     <g id="text_2">
      <!-- 1 -->
      <g transform="translate(324.96274 849.456562)scale(0.18 -0.18)">
       <defs>
        <path id="DejaVuSans-31" d="M 794 531 
L 1825 531 
L 1825 4091 
L 703 3866 
L 703 4441 
L 1819 4666 
L 2450 4666 
L 2450 531 
L 3481 531 
L 3481 0 
L 794 0 
L 794 531 
z
" transform="scale(0.015625)"/>
       </defs>
       <use xlink:href="#DejaVuSans-31"/>
      </g>
     </g>
    </g>
    <g id="xtick_3">
     <g id="line2d_3">
      <g>
       <use xlink:href="#mdd7d75944c" x="554.900527" y="828.779375" style="stroke: #000000; stroke-width: 0.8"/>
      </g>
     </g>
     <g id="text_3">
      <!-- 2 -->
      <g transform="translate(549.174277 849.456562)scale(0.18 -0.18)">
       <defs>
        <path id="DejaVuSans-32" d="M 1228 531 
L 3431 531 
L 3431 0 
L 469 0 
L 469 531 
Q 828 903 1448 1529 
Q 2069 2156 2228 2338 
Q 2531 2678 2651 2914 
Q 2772 3150 2772 3378 
Q 2772 3750 2511 3984 
Q 2250 4219 1831 4219 
Q 1534 4219 1204 4116 
Q 875 4013 500 3803 
L 500 4441 
Q 881 4594 1212 4672 
Q 1544 4750 1819 4750 
Q 2544 4750 2975 4387 
Q 3406 4025 3406 3419 
Q 3406 3131 3298 2873 
Q 3191 2616 2906 2266 
Q 2828 2175 2409 1742 
Q 1991 1309 1228 531 
z
" transform="scale(0.015625)"/>
       </defs>
       <use xlink:href="#DejaVuSans-32"/>
      </g>
     </g>
    </g>
    <g id="xtick_4">
     <g id="line2d_4">
      <g>
       <use xlink:href="#mdd7d75944c" x="779.112064" y="828.779375" style="stroke: #000000; stroke-width: 0.8"/>
      </g>
     </g>
     <g id="text_4">
      <!-- 3 -->
      <g transform="translate(773.385814 849.456562)scale(0.18 -0.18)">
       <defs>
        <path id="DejaVuSans-33" d="M 2597 2516 
Q 3050 2419 3304 2112 
Q 3559 1806 3559 1356 
Q 3559 666 3084 287 
Q 2609 -91 1734 -91 
Q 1441 -91 1130 -33 
Q 819 25 488 141 
L 488 750 
Q 750 597 1062 519 
Q 1375 441 1716 441 
Q 2309 441 2620 675 
Q 2931 909 2931 1356 
Q 2931 1769 2642 2001 
Q 2353 2234 1838 2234 
L 1294 2234 
L 1294 2753 
L 1863 2753 
Q 2328 2753 2575 2939 
Q 2822 3125 2822 3475 
Q 2822 3834 2567 4026 
Q 2313 4219 1838 4219 
Q 1578 4219 1281 4162 
Q 984 4106 628 3988 
L 628 4550 
Q 988 4650 1302 4700 
Q 1616 4750 1894 4750 
Q 2613 4750 3031 4423 
Q 3450 4097 3450 3541 
Q 3450 3153 3228 2886 
Q 3006 2619 2597 2516 
z
" transform="scale(0.015625)"/>
       </defs>
       <use xlink:href="#DejaVuSans-33"/>
      </g>
     </g>
    </g>
    <g id="xtick_5">
     <g id="line2d_5">
      <g>
       <use xlink:href="#mdd7d75944c" x="1003.323601" y="828.779375" style="stroke: #000000; stroke-width: 0.8"/>
      </g>
     </g>
     <g id="text_5">
      <!-- 4 -->
      <g transform="translate(997.597351 849.456562)scale(0.18 -0.18)">
       <defs>
        <path id="DejaVuSans-34" d="M 2419 4116 
L 825 1625 
L 2419 1625 
L 2419 4116 
z
M 2253 4666 
L 3047 4666 
L 3047 1625 
L 3713 1625 
L 3713 1100 
L 3047 1100 
L 3047 0 
L 2419 0 
L 2419 1100 
L 313 1100 
L 313 1709 
L 2253 4666 
z
" transform="scale(0.015625)"/>
       </defs>
       <use xlink:href="#DejaVuSans-34"/>
      </g>
     </g>
    </g>
    <g id="xtick_6">
     <g id="line2d_6">
      <g>
       <use xlink:href="#mdd7d75944c" x="1227.535138" y="828.779375" style="stroke: #000000; stroke-width: 0.8"/>
      </g>
     </g>
     <g id="text_6">
      <!-- 5 -->
      <g transform="translate(1221.808888 849.456562)scale(0.18 -0.18)">
       <defs>
        <path id="DejaVuSans-35" d="M 691 4666 
L 3169 4666 
L 3169 4134 
L 1269 4134 
L 1269 2991 
Q 1406 3038 1543 3061 
Q 1681 3084 1819 3084 
Q 2600 3084 3056 2656 
Q 3513 2228 3513 1497 
Q 3513 744 3044 326 
Q 2575 -91 1722 -91 
Q 1428 -91 1123 -41 
Q 819 9 494 109 
L 494 744 
Q 775 591 1075 516 
Q 1375 441 1709 441 
Q 2250 441 2565 725 
Q 2881 1009 2881 1497 
Q 2881 1984 2565 2268 
Q 2250 2553 1709 2553 
Q 1456 2553 1204 2497 
Q 953 2441 691 2322 
L 691 4666 
z
" transform="scale(0.015625)"/>
       </defs>
       <use xlink:href="#DejaVuSans-35"/>
      </g>
     </g>
    </g>
   </g>
   <g id="matplotlib.axis_2">
    <g id="ytick_1">
     <g id="line2d_7">
      <defs>
       <path id="m9bf07b1d46" d="M 0 0 
L -3.5 0 
" style="stroke: #000000; stroke-width: 0.8"/>
      </defs>
      <g>
       <use xlink:href="#m9bf07b1d46" x="72.685313" y="828.779375" style="stroke: #000000; stroke-width: 0.8"/>
      </g>
     </g>
     <g id="text_7">
      <!-- 0.0 -->
      <g transform="translate(37.059688 835.617969)scale(0.18 -0.18)">
       <defs>
        <path id="DejaVuSans-2e" d="M 684 794 
L 1344 794 
L 1344 0 
L 684 0 
L 684 794 
z
" transform="scale(0.015625)"/>
       </defs>
       <use xlink:href="#DejaVuSans-30"/>
       <use xlink:href="#DejaVuSans-2e" x="63.623047"/>
       <use xlink:href="#DejaVuSans-30" x="95.410156"/>
      </g>
     </g>
    </g>
    <g id="ytick_2">
     <g id="line2d_8">
      <g>
       <use xlink:href="#m9bf07b1d46" x="72.685313" y="700.706151" style="stroke: #000000; stroke-width: 0.8"/>
      </g>
     </g>
     <g id="text_8">
      <!-- 0.1 -->
      <g transform="translate(37.059688 707.544744)scale(0.18 -0.18)">
       <use xlink:href="#DejaVuSans-30"/>
       <use xlink:href="#DejaVuSans-2e" x="63.623047"/>
       <use xlink:href="#DejaVuSans-31" x="95.410156"/>
      </g>
     </g>
    </g>
    <g id="ytick_3">
     <g id="line2d_9">
      <g>
       <use xlink:href="#m9bf07b1d46" x="72.685313" y="572.632926" style="stroke: #000000; stroke-width: 0.8"/>
      </g>
     </g>
     <g id="text_9">
      <!-- 0.2 -->
      <g transform="translate(37.059688 579.47152)scale(0.18 -0.18)">
       <use xlink:href="#DejaVuSans-30"/>
       <use xlink:href="#DejaVuSans-2e" x="63.623047"/>
       <use xlink:href="#DejaVuSans-32" x="95.410156"/>
      </g>
     </g>
    </g>
    <g id="ytick_4">
     <g id="line2d_10">
      <g>
       <use xlink:href="#m9bf07b1d46" x="72.685313" y="444.559702" style="stroke: #000000; stroke-width: 0.8"/>
      </g>
     </g>
     <g id="text_10">
      <!-- 0.3 -->
      <g transform="translate(37.059688 451.398296)scale(0.18 -0.18)">
       <use xlink:href="#DejaVuSans-30"/>
       <use xlink:href="#DejaVuSans-2e" x="63.623047"/>
       <use xlink:href="#DejaVuSans-33" x="95.410156"/>
      </g>
     </g>
    </g>
    <g id="ytick_5">
     <g id="line2d_11">
      <g>
       <use xlink:href="#m9bf07b1d46" x="72.685313" y="316.486478" style="stroke: #000000; stroke-width: 0.8"/>
      </g>
     </g>
     <g id="text_11">
      <!-- 0.4 -->
      <g transform="translate(37.059688 323.325071)scale(0.18 -0.18)">
       <use xlink:href="#DejaVuSans-30"/>
       <use xlink:href="#DejaVuSans-2e" x="63.623047"/>
       <use xlink:href="#DejaVuSans-34" x="95.410156"/>
      </g>
     </g>
    </g>
    <g id="ytick_6">
     <g id="line2d_12">
      <g>
       <use xlink:href="#m9bf07b1d46" x="72.685313" y="188.413253" style="stroke: #000000; stroke-width: 0.8"/>
      </g>
     </g>
     <g id="text_12">
      <!-- 0.5 -->
      <g transform="translate(37.059688 195.251847)scale(0.18 -0.18)">
       <use xlink:href="#DejaVuSans-30"/>
       <use xlink:href="#DejaVuSans-2e" x="63.623047"/>
       <use xlink:href="#DejaVuSans-35" x="95.410156"/>
      </g>
     </g>
    </g>
    <g id="ytick_7">
     <g id="line2d_13">
      <g>
       <use xlink:href="#m9bf07b1d46" x="72.685313" y="60.340029" style="stroke: #000000; stroke-width: 0.8"/>
      </g>
     </g>
     <g id="text_13">
      <!-- 0.6 -->
      <g transform="translate(37.059688 67.178623)scale(0.18 -0.18)">
       <defs>
        <path id="DejaVuSans-36" d="M 2113 2584 
Q 1688 2584 1439 2293 
Q 1191 2003 1191 1497 
Q 1191 994 1439 701 
Q 1688 409 2113 409 
Q 2538 409 2786 701 
Q 3034 994 3034 1497 
Q 3034 2003 2786 2293 
Q 2538 2584 2113 2584 
z
M 3366 4563 
L 3366 3988 
Q 3128 4100 2886 4159 
Q 2644 4219 2406 4219 
Q 1781 4219 1451 3797 
Q 1122 3375 1075 2522 
Q 1259 2794 1537 2939 
Q 1816 3084 2150 3084 
Q 2853 3084 3261 2657 
Q 3669 2231 3669 1497 
Q 3669 778 3244 343 
Q 2819 -91 2113 -91 
Q 1303 -91 875 529 
Q 447 1150 447 2328 
Q 447 3434 972 4092 
Q 1497 4750 2381 4750 
Q 2619 4750 2861 4703 
Q 3103 4656 3366 4563 
z
" transform="scale(0.015625)"/>
       </defs>
       <use xlink:href="#DejaVuSans-30"/>
       <use xlink:href="#DejaVuSans-2e" x="63.623047"/>
       <use xlink:href="#DejaVuSans-36" x="95.410156"/>
      </g>
     </g>
    </g>
    <g id="text_14">
     <!-- Normed Hist Counts -->
     <g transform="translate(28.276406 548.966563)rotate(-90)scale(0.23 -0.23)">
      <defs>
       <path id="DejaVuSans-4e" d="M 628 4666 
L 1478 4666 
L 3547 763 
L 3547 4666 
L 4159 4666 
L 4159 0 
L 3309 0 
L 1241 3903 
L 1241 0 
L 628 0 
L 628 4666 
z
" transform="scale(0.015625)"/>
       <path id="DejaVuSans-6f" d="M 1959 3097 
Q 1497 3097 1228 2736 
Q 959 2375 959 1747 
Q 959 1119 1226 758 
Q 1494 397 1959 397 
Q 2419 397 2687 759 
Q 2956 1122 2956 1747 
Q 2956 2369 2687 2733 
Q 2419 3097 1959 3097 
z
M 1959 3584 
Q 2709 3584 3137 3096 
Q 3566 2609 3566 1747 
Q 3566 888 3137 398 
Q 2709 -91 1959 -91 
Q 1206 -91 779 398 
Q 353 888 353 1747 
Q 353 2609 779 3096 
Q 1206 3584 1959 3584 
z
" transform="scale(0.015625)"/>
       <path id="DejaVuSans-72" d="M 2631 2963 
Q 2534 3019 2420 3045 
Q 2306 3072 2169 3072 
Q 1681 3072 1420 2755 
Q 1159 2438 1159 1844 
L 1159 0 
L 581 0 
L 581 3500 
L 1159 3500 
L 1159 2956 
Q 1341 3275 1631 3429 
Q 1922 3584 2338 3584 
Q 2397 3584 2469 3576 
Q 2541 3569 2628 3553 
L 2631 2963 
z
" transform="scale(0.015625)"/>
       <path id="DejaVuSans-6d" d="M 3328 2828 
Q 3544 3216 3844 3400 
Q 4144 3584 4550 3584 
Q 5097 3584 5394 3201 
Q 5691 2819 5691 2113 
L 5691 0 
L 5113 0 
L 5113 2094 
Q 5113 2597 4934 2840 
Q 4756 3084 4391 3084 
Q 3944 3084 3684 2787 
Q 3425 2491 3425 1978 
L 3425 0 
L 2847 0 
L 2847 2094 
Q 2847 2600 2669 2842 
Q 2491 3084 2119 3084 
Q 1678 3084 1418 2786 
Q 1159 2488 1159 1978 
L 1159 0 
L 581 0 
L 581 3500 
L 1159 3500 
L 1159 2956 
Q 1356 3278 1631 3431 
Q 1906 3584 2284 3584 
Q 2666 3584 2933 3390 
Q 3200 3197 3328 2828 
z
" transform="scale(0.015625)"/>
       <path id="DejaVuSans-65" d="M 3597 1894 
L 3597 1613 
L 953 1613 
Q 991 1019 1311 708 
Q 1631 397 2203 397 
Q 2534 397 2845 478 
Q 3156 559 3463 722 
L 3463 178 
Q 3153 47 2828 -22 
Q 2503 -91 2169 -91 
Q 1331 -91 842 396 
Q 353 884 353 1716 
Q 353 2575 817 3079 
Q 1281 3584 2069 3584 
Q 2775 3584 3186 3129 
Q 3597 2675 3597 1894 
z
M 3022 2063 
Q 3016 2534 2758 2815 
Q 2500 3097 2075 3097 
Q 1594 3097 1305 2825 
Q 1016 2553 972 2059 
L 3022 2063 
z
" transform="scale(0.015625)"/>
       <path id="DejaVuSans-64" d="M 2906 2969 
L 2906 4863 
L 3481 4863 
L 3481 0 
L 2906 0 
L 2906 525 
Q 2725 213 2448 61 
Q 2172 -91 1784 -91 
Q 1150 -91 751 415 
Q 353 922 353 1747 
Q 353 2572 751 3078 
Q 1150 3584 1784 3584 
Q 2172 3584 2448 3432 
Q 2725 3281 2906 2969 
z
M 947 1747 
Q 947 1113 1208 752 
Q 1469 391 1925 391 
Q 2381 391 2643 752 
Q 2906 1113 2906 1747 
Q 2906 2381 2643 2742 
Q 2381 3103 1925 3103 
Q 1469 3103 1208 2742 
Q 947 2381 947 1747 
z
" transform="scale(0.015625)"/>
       <path id="DejaVuSans-20" transform="scale(0.015625)"/>
       <path id="DejaVuSans-48" d="M 628 4666 
L 1259 4666 
L 1259 2753 
L 3553 2753 
L 3553 4666 
L 4184 4666 
L 4184 0 
L 3553 0 
L 3553 2222 
L 1259 2222 
L 1259 0 
L 628 0 
L 628 4666 
z
" transform="scale(0.015625)"/>
       <path id="DejaVuSans-69" d="M 603 3500 
L 1178 3500 
L 1178 0 
L 603 0 
L 603 3500 
z
M 603 4863 
L 1178 4863 
L 1178 4134 
L 603 4134 
L 603 4863 
z
" transform="scale(0.015625)"/>
       <path id="DejaVuSans-73" d="M 2834 3397 
L 2834 2853 
Q 2591 2978 2328 3040 
Q 2066 3103 1784 3103 
Q 1356 3103 1142 2972 
Q 928 2841 928 2578 
Q 928 2378 1081 2264 
Q 1234 2150 1697 2047 
L 1894 2003 
Q 2506 1872 2764 1633 
Q 3022 1394 3022 966 
Q 3022 478 2636 193 
Q 2250 -91 1575 -91 
Q 1294 -91 989 -36 
Q 684 19 347 128 
L 347 722 
Q 666 556 975 473 
Q 1284 391 1588 391 
Q 1994 391 2212 530 
Q 2431 669 2431 922 
Q 2431 1156 2273 1281 
Q 2116 1406 1581 1522 
L 1381 1569 
Q 847 1681 609 1914 
Q 372 2147 372 2553 
Q 372 3047 722 3315 
Q 1072 3584 1716 3584 
Q 2034 3584 2315 3537 
Q 2597 3491 2834 3397 
z
" transform="scale(0.015625)"/>
       <path id="DejaVuSans-74" d="M 1172 4494 
L 1172 3500 
L 2356 3500 
L 2356 3053 
L 1172 3053 
L 1172 1153 
Q 1172 725 1289 603 
Q 1406 481 1766 481 
L 2356 481 
L 2356 0 
L 1766 0 
Q 1100 0 847 248 
Q 594 497 594 1153 
L 594 3053 
L 172 3053 
L 172 3500 
L 594 3500 
L 594 4494 
L 1172 4494 
z
" transform="scale(0.015625)"/>
       <path id="DejaVuSans-43" d="M 4122 4306 
L 4122 3641 
Q 3803 3938 3442 4084 
Q 3081 4231 2675 4231 
Q 1875 4231 1450 3742 
Q 1025 3253 1025 2328 
Q 1025 1406 1450 917 
Q 1875 428 2675 428 
Q 3081 428 3442 575 
Q 3803 722 4122 1019 
L 4122 359 
Q 3791 134 3420 21 
Q 3050 -91 2638 -91 
Q 1578 -91 968 557 
Q 359 1206 359 2328 
Q 359 3453 968 4101 
Q 1578 4750 2638 4750 
Q 3056 4750 3426 4639 
Q 3797 4528 4122 4306 
z
" transform="scale(0.015625)"/>
       <path id="DejaVuSans-75" d="M 544 1381 
L 544 3500 
L 1119 3500 
L 1119 1403 
Q 1119 906 1312 657 
Q 1506 409 1894 409 
Q 2359 409 2629 706 
Q 2900 1003 2900 1516 
L 2900 3500 
L 3475 3500 
L 3475 0 
L 2900 0 
L 2900 538 
Q 2691 219 2414 64 
Q 2138 -91 1772 -91 
Q 1169 -91 856 284 
Q 544 659 544 1381 
z
M 1991 3584 
L 1991 3584 
z
" transform="scale(0.015625)"/>
       <path id="DejaVuSans-6e" d="M 3513 2113 
L 3513 0 
L 2938 0 
L 2938 2094 
Q 2938 2591 2744 2837 
Q 2550 3084 2163 3084 
Q 1697 3084 1428 2787 
Q 1159 2491 1159 1978 
L 1159 0 
L 581 0 
L 581 3500 
L 1159 3500 
L 1159 2956 
Q 1366 3272 1645 3428 
Q 1925 3584 2291 3584 
Q 2894 3584 3203 3211 
Q 3513 2838 3513 2113 
z
" transform="scale(0.015625)"/>
      </defs>
      <use xlink:href="#DejaVuSans-4e"/>
      <use xlink:href="#DejaVuSans-6f" x="74.804688"/>
      <use xlink:href="#DejaVuSans-72" x="135.986328"/>
      <use xlink:href="#DejaVuSans-6d" x="175.349609"/>
      <use xlink:href="#DejaVuSans-65" x="272.761719"/>
      <use xlink:href="#DejaVuSans-64" x="334.285156"/>
      <use xlink:href="#DejaVuSans-20" x="397.761719"/>
      <use xlink:href="#DejaVuSans-48" x="429.548828"/>
      <use xlink:href="#DejaVuSans-69" x="504.744141"/>
      <use xlink:href="#DejaVuSans-73" x="532.527344"/>
      <use xlink:href="#DejaVuSans-74" x="584.626953"/>
      <use xlink:href="#DejaVuSans-20" x="623.835938"/>
      <use xlink:href="#DejaVuSans-43" x="655.623047"/>
      <use xlink:href="#DejaVuSans-6f" x="725.447266"/>
      <use xlink:href="#DejaVuSans-75" x="786.628906"/>
      <use xlink:href="#DejaVuSans-6e" x="850.007812"/>
      <use xlink:href="#DejaVuSans-74" x="913.386719"/>
      <use xlink:href="#DejaVuSans-73" x="952.595703"/>
     </g>
    </g>
   </g>
   <g id="line2d_14">
    <path d="M 137.428059 827.558841 
L 143.594035 826.494777 
L 149.760011 824.96367 
L 155.925987 822.893022 
L 162.091962 820.215697 
L 168.257938 816.870149 
L 174.423914 812.800679 
L 180.58989 807.957686 
L 186.755866 802.297903 
L 192.921842 795.784606 
L 199.087817 788.387788 
L 205.253793 780.084301 
L 211.419769 770.857947 
L 217.585745 760.699538 
L 223.751721 749.6069 
L 229.917697 737.584842 
L 236.083673 724.645068 
L 242.249648 710.806054 
L 248.415624 696.092878 
L 254.5816 680.537005 
L 260.747576 664.176029 
L 266.913552 647.053387 
L 273.079528 629.218025 
L 279.245504 610.724035 
L 285.411479 591.630263 
L 291.577455 571.999887 
L 297.743431 551.899973 
L 310.075383 510.576433 
L 322.407335 468.255898 
L 347.071238 383.14806 
L 359.40319 341.643971 
L 365.569165 321.430674 
L 371.735141 301.677786 
L 377.901117 282.458379 
L 384.067093 263.842748 
L 390.233069 245.898047 
L 396.399045 228.687942 
L 402.565021 212.272304 
L 408.730996 196.706926 
L 414.896972 182.04328 
L 421.062948 168.328299 
L 427.228924 155.604202 
L 433.3949 143.908349 
L 439.560876 133.273133 
L 445.726852 123.725901 
L 451.892827 115.288917 
L 458.058803 107.979354 
L 464.224779 101.809313 
L 470.390755 96.785883 
L 476.556731 92.911226 
L 482.722707 90.182683 
L 488.888683 88.59292 
L 495.054658 88.130087 
L 501.220634 88.778001 
L 507.38661 90.516357 
L 513.552586 93.320947 
L 519.718562 97.163902 
L 525.884538 102.01394 
L 532.050513 107.836638 
L 538.216489 114.594698 
L 544.382465 122.248234 
L 550.548441 130.755049 
L 556.714417 140.070931 
L 562.880393 150.149937 
L 569.046369 160.944678 
L 575.212344 172.406608 
L 581.37832 184.486296 
L 587.544296 197.133706 
L 593.710272 210.298452 
L 599.876248 223.930059 
L 606.042224 237.978206 
L 612.2082 252.392952 
L 624.540151 282.125711 
L 636.872103 312.744493 
L 655.370031 359.541547 
L 673.867958 406.387515 
L 686.19991 437.153688 
L 698.531862 467.250598 
L 710.863813 496.460695 
L 717.029789 510.674453 
L 723.195765 524.600222 
L 729.361741 538.220233 
L 735.527717 551.518734 
L 741.693692 564.48194 
L 747.859668 577.097981 
L 754.025644 589.356835 
L 760.19162 601.250261 
L 766.357596 612.771726 
L 772.523572 623.916329 
L 778.689548 634.680717 
L 784.855523 645.062999 
L 791.021499 655.062666 
L 797.187475 664.680498 
L 803.353451 673.918477 
L 809.519427 682.779699 
L 815.685403 691.268286 
L 821.851379 699.389298 
L 828.017354 707.148645 
L 834.18333 714.553007 
L 840.349306 721.609748 
L 846.515282 728.326837 
L 852.681258 734.712774 
L 858.847234 740.776513 
L 865.01321 746.52739 
L 871.179185 751.975061 
L 877.345161 757.129434 
L 883.511137 762.000609 
L 889.677113 766.598823 
L 895.843089 770.9344 
L 902.009065 775.017694 
L 908.17504 778.859054 
L 914.341016 782.468774 
L 920.506992 785.85706 
L 926.672968 789.033995 
L 932.838944 792.009508 
L 939.00492 794.793345 
L 945.170896 797.395046 
L 951.336871 799.823926 
L 957.502847 802.089052 
L 963.668823 804.199233 
L 969.834799 806.163002 
L 976.000775 807.98861 
L 982.166751 809.684014 
L 988.332727 811.256876 
L 1000.664678 814.064106 
L 1012.99663 816.465525 
L 1025.328582 818.511524 
L 1037.660533 820.247753 
L 1049.992485 821.715288 
L 1062.324437 822.95085 
L 1074.656388 823.987062 
L 1086.98834 824.852737 
L 1105.486268 825.885945 
L 1123.984195 826.663773 
L 1142.482123 827.244405 
L 1167.146026 827.790532 
L 1197.975906 828.219474 
L 1234.971761 828.504208 
L 1290.465543 828.689782 
L 1364.457254 828.761298 
L 1364.457254 828.761298 
" clip-path="url(#p34cae6e249)" style="fill: none; stroke: #ff7f0e; stroke-width: 2; stroke-linecap: square"/>
   </g>
   <g id="line2d_15">
    <path d="M 137.428059 823.142831 
L 143.594035 821.630351 
L 149.760011 819.802163 
L 155.925987 817.613116 
L 162.091962 815.015492 
L 168.257938 811.959475 
L 174.423914 808.393719 
L 180.58989 804.265994 
L 186.755866 799.523899 
L 192.921842 794.115647 
L 199.087817 787.990887 
L 205.253793 781.10156 
L 211.419769 773.402766 
L 217.585745 764.853632 
L 223.751721 755.418157 
L 229.917697 745.066012 
L 236.083673 733.773295 
L 242.249648 721.523205 
L 248.415624 708.306639 
L 254.5816 694.122686 
L 260.747576 678.979017 
L 266.913552 662.892159 
L 273.079528 645.887645 
L 279.245504 628.000044 
L 285.411479 609.27287 
L 291.577455 589.758357 
L 297.743431 569.517129 
L 303.909407 548.617745 
L 310.075383 527.136154 
L 322.407335 482.763083 
L 334.739286 437.126576 
L 359.40319 345.294021 
L 371.735141 300.782373 
L 377.901117 279.243367 
L 384.067093 258.315727 
L 390.233069 238.094945 
L 396.399045 218.671917 
L 402.565021 200.132264 
L 408.730996 182.555733 
L 414.896972 166.015667 
L 421.062948 150.578566 
L 427.228924 136.303716 
L 433.3949 123.242916 
L 439.560876 111.440268 
L 445.726852 100.932064 
L 451.892827 91.746736 
L 458.058803 83.904892 
L 464.224779 77.41941 
L 470.390755 72.295605 
L 476.556731 68.531452 
L 482.722707 66.117863 
L 488.888683 65.039013 
L 495.054658 65.272708 
L 501.220634 66.790783 
L 507.38661 69.559542 
L 513.552586 73.540208 
L 519.718562 78.689398 
L 525.884538 84.959609 
L 532.050513 92.299708 
L 538.216489 100.655426 
L 544.382465 109.969849 
L 550.548441 120.183896 
L 556.714417 131.236794 
L 562.880393 143.066529 
L 569.046369 155.610286 
L 575.212344 168.804863 
L 581.37832 182.587067 
L 587.544296 196.89408 
L 593.710272 211.663802 
L 599.876248 226.835167 
L 612.2082 258.145412 
L 624.540151 290.367137 
L 667.701982 404.518877 
L 680.033934 436.1376 
L 692.365886 466.823298 
L 698.531862 481.752686 
L 704.697837 496.377651 
L 710.863813 510.679686 
L 717.029789 524.642652 
L 723.195765 538.25268 
L 729.361741 551.498079 
L 735.527717 564.369227 
L 741.693692 576.858469 
L 747.859668 588.960003 
L 754.025644 600.669771 
L 760.19162 611.985344 
L 766.357596 622.905811 
L 772.523572 633.431667 
L 778.689548 643.5647 
L 784.855523 653.307886 
L 791.021499 662.665282 
L 797.187475 671.641922 
L 803.353451 680.243717 
L 809.519427 688.477363 
L 815.685403 696.350246 
L 821.851379 703.870356 
L 828.017354 711.046203 
L 834.18333 717.886741 
L 840.349306 724.401291 
L 846.515282 730.599475 
L 852.681258 736.491149 
L 858.847234 742.086342 
L 865.01321 747.395206 
L 871.179185 752.427958 
L 877.345161 757.194839 
L 883.511137 761.706065 
L 889.677113 765.971795 
L 895.843089 770.002092 
L 902.009065 773.806893 
L 908.17504 777.395982 
L 914.341016 780.778964 
L 920.506992 783.965246 
L 926.672968 786.964015 
L 932.838944 789.784228 
L 939.00492 792.434594 
L 945.170896 794.923565 
L 951.336871 797.25933 
L 957.502847 799.449805 
L 963.668823 801.502631 
L 969.834799 803.425168 
L 976.000775 805.2245 
L 988.332727 808.480474 
L 1000.664678 811.32164 
L 1012.99663 813.794733 
L 1025.328582 815.942276 
L 1037.660533 817.80278 
L 1049.992485 819.410957 
L 1062.324437 820.79796 
L 1074.656388 821.991636 
L 1086.98834 823.016783 
L 1105.486268 824.285923 
L 1123.984195 825.288497 
L 1142.482123 826.077098 
L 1167.146026 826.869037 
L 1191.80993 827.436909 
L 1222.639809 827.922524 
L 1259.635664 828.285037 
L 1308.963471 828.546193 
L 1364.457254 828.681518 
L 1364.457254 828.681518 
" clip-path="url(#p34cae6e249)" style="fill: none; stroke: #2ca02c; stroke-width: 2; stroke-linecap: square"/>
   </g>
   <g id="line2d_16">
    <path d="M 137.428059 105.830074 
L 149.760011 128.10168 
L 162.091962 149.687173 
L 174.423914 170.607691 
L 186.755866 190.883719 
L 199.087817 210.535112 
L 211.419769 229.581112 
L 223.751721 248.04037 
L 236.083673 265.930961 
L 248.415624 283.270403 
L 260.747576 300.075677 
L 273.079528 316.363237 
L 285.411479 332.149033 
L 297.743431 347.448523 
L 310.075383 362.276687 
L 322.407335 376.648046 
L 334.739286 390.576673 
L 347.071238 404.076205 
L 359.40319 417.159864 
L 371.735141 429.840459 
L 384.067093 442.130408 
L 396.399045 454.041746 
L 408.730996 465.586136 
L 421.062948 476.774883 
L 433.3949 487.618942 
L 445.726852 498.128933 
L 458.058803 508.315147 
L 470.390755 518.187559 
L 482.722707 527.755835 
L 495.054658 537.029345 
L 507.38661 546.01717 
L 519.718562 554.72811 
L 532.050513 563.170696 
L 544.382465 571.353195 
L 556.714417 579.283619 
L 569.046369 586.969734 
L 581.37832 594.419065 
L 593.710272 601.638908 
L 606.042224 608.636332 
L 618.374175 615.41819 
L 630.706127 621.991121 
L 643.038079 628.361563 
L 655.370031 634.535753 
L 667.701982 640.519738 
L 680.033934 646.319376 
L 692.365886 651.940347 
L 704.697837 657.388155 
L 717.029789 662.668135 
L 735.527717 670.284693 
L 754.025644 677.552015 
L 772.523572 684.486114 
L 791.021499 691.102271 
L 809.519427 697.415062 
L 828.017354 703.438398 
L 846.515282 709.185551 
L 865.01321 714.669185 
L 883.511137 719.901383 
L 902.009065 724.893673 
L 920.506992 729.657056 
L 939.00492 734.202027 
L 957.502847 738.538602 
L 976.000775 742.676336 
L 994.498702 746.624345 
L 1012.99663 750.39133 
L 1037.660533 755.146673 
L 1062.324437 759.613538 
L 1086.98834 763.809424 
L 1111.652244 767.750771 
L 1136.316147 771.453018 
L 1160.98005 774.930673 
L 1185.643954 778.197358 
L 1210.307857 781.265873 
L 1234.971761 784.148239 
L 1265.80164 787.506562 
L 1296.631519 790.612184 
L 1327.461398 793.48412 
L 1358.291278 796.139954 
L 1364.457254 796.646641 
L 1364.457254 796.646641 
" clip-path="url(#p34cae6e249)" style="fill: none; stroke: #d62728; stroke-width: 2; stroke-linecap: square"/>
   </g>
   <g id="line2d_17">
    <path d="M 137.428059 776.154152 
L 143.594035 773.439797 
L 149.760011 770.585438 
L 155.925987 767.583854 
L 162.091962 764.427452 
L 168.257938 761.108245 
L 174.423914 757.617837 
L 180.58989 753.947398 
L 186.755866 750.087641 
L 192.921842 746.028802 
L 199.087817 741.760612 
L 205.253793 737.272273 
L 211.419769 732.55243 
L 217.585745 727.589142 
L 223.751721 722.369853 
L 229.917697 716.881359 
L 236.083673 711.109773 
L 242.249648 705.040495 
L 248.415624 698.65817 
L 254.5816 691.946652 
L 260.747576 684.888959 
L 266.913552 677.467239 
L 273.079528 669.662713 
L 279.245504 661.455638 
L 285.411479 652.825251 
L 291.577455 643.749717 
L 297.743431 634.206076 
L 303.909407 624.170184 
L 310.075383 613.616651 
L 316.241359 602.518777 
L 322.407335 590.848486 
L 328.57331 578.576254 
L 334.739286 565.671033 
L 340.905262 552.100173 
L 347.071238 537.829342 
L 353.237214 522.822437 
L 359.40319 507.04149 
L 365.569165 490.446579 
L 371.735141 472.995718 
L 377.901117 454.644761 
L 384.067093 435.347279 
L 390.233069 415.054454 
L 396.399045 393.714945 
L 402.565021 371.274765 
L 408.730996 347.677145 
L 414.896972 322.862383 
L 421.062948 296.767701 
L 427.228924 269.327082 
L 433.3949 240.471104 
L 439.560876 210.126765 
L 445.726852 178.217295 
L 451.892827 144.661967 
L 458.058803 109.375889 
L 464.224779 72.269792 
L 470.390755 33.2498 
L 475.537478 -1 
M 560.077145 -1 
L 562.880393 18.012038 
L 569.046369 57.779428 
L 575.212344 95.596264 
L 581.37832 131.558219 
L 587.544296 165.756274 
L 593.710272 198.276945 
L 599.876248 229.202508 
L 606.042224 258.6112 
L 612.2082 286.577423 
L 618.374175 313.171929 
L 624.540151 338.461998 
L 630.706127 362.511614 
L 636.872103 385.381617 
L 643.038079 407.129868 
L 649.204055 427.811387 
L 655.370031 447.478497 
L 661.536006 466.180954 
L 667.701982 483.966072 
L 673.867958 500.878846 
L 680.033934 516.962065 
L 686.19991 532.256416 
L 692.365886 546.800594 
L 698.531862 560.631393 
L 704.697837 573.783804 
L 710.863813 586.291102 
L 717.029789 598.184928 
L 723.195765 609.495373 
L 729.361741 620.251051 
L 735.527717 630.479173 
L 741.693692 640.205615 
L 747.859668 649.454984 
L 754.025644 658.25068 
L 760.19162 666.614955 
L 766.357596 674.56897 
L 772.523572 682.132848 
L 778.689548 689.325725 
L 784.855523 696.165798 
L 791.021499 702.670372 
L 797.187475 708.855902 
L 803.353451 714.738038 
L 809.519427 720.33166 
L 815.685403 725.65092 
L 821.851379 730.709276 
L 828.017354 735.519524 
L 834.18333 740.093833 
L 840.349306 744.443777 
L 846.515282 748.580361 
L 852.681258 752.514048 
L 858.847234 756.254792 
L 865.01321 759.812056 
L 871.179185 763.19484 
L 877.345161 766.411701 
L 883.511137 769.470777 
L 889.677113 772.379809 
L 895.843089 775.146156 
L 902.009065 777.776816 
L 908.17504 780.278444 
L 920.506992 784.919612 
L 932.838944 789.116656 
L 945.170896 792.912074 
L 957.502847 796.3443 
L 969.834799 799.448089 
L 982.166751 802.254868 
L 994.498702 804.79306 
L 1006.830654 807.088367 
L 1019.162606 809.16403 
L 1031.494558 811.041069 
L 1043.826509 812.738489 
L 1056.158461 814.273479 
L 1074.656388 816.304998 
L 1093.154316 818.052007 
L 1111.652244 819.554351 
L 1130.150171 820.846295 
L 1154.814075 822.291922 
L 1179.477978 823.474115 
L 1204.141881 824.44088 
L 1234.971761 825.405495 
L 1265.80164 826.155639 
L 1302.797495 826.839076 
L 1345.959326 827.414869 
L 1364.457254 827.605965 
L 1364.457254 827.605965 
" clip-path="url(#p34cae6e249)" style="fill: none; stroke: #9467bd; stroke-width: 2; stroke-linecap: square"/>
   </g>
   <g id="line2d_18">
    <path d="M 137.428059 821.493123 
L 143.594035 819.832347 
L 149.760011 817.86712 
L 155.925987 815.557438 
L 162.091962 812.860912 
L 168.257938 809.73309 
L 174.423914 806.127853 
L 180.58989 801.997892 
L 186.755866 797.295255 
L 192.921842 791.971958 
L 199.087817 785.980655 
L 205.253793 779.27536 
L 211.419769 771.8122 
L 217.585745 763.550195 
L 223.751721 754.452047 
L 229.917697 744.484921 
L 236.083673 733.621207 
L 242.249648 721.839246 
L 248.415624 709.123999 
L 254.5816 695.467654 
L 260.747576 680.870151 
L 266.913552 665.339614 
L 273.079528 648.892681 
L 279.245504 631.554726 
L 285.411479 613.35996 
L 291.577455 594.351413 
L 297.743431 574.580797 
L 303.909407 554.108245 
L 310.075383 533.00193 
L 316.241359 511.337579 
L 328.57331 466.67178 
L 340.905262 420.84282 
L 359.40319 351.694265 
L 371.735141 306.571638 
L 377.901117 284.626275 
L 384.067093 263.231956 
L 390.233069 242.490412 
L 396.399045 222.499451 
L 402.565021 203.352155 
L 408.730996 185.136131 
L 414.896972 167.932844 
L 421.062948 151.817035 
L 427.228924 136.856221 
L 433.3949 123.110281 
L 439.560876 110.631141 
L 445.726852 99.46254 
L 451.892827 89.639896 
L 458.058803 81.190245 
L 464.224779 74.132279 
L 470.390755 68.47645 
L 476.556731 64.225156 
L 482.722707 61.372989 
L 488.888683 59.907051 
L 495.054658 59.807319 
L 501.220634 61.047057 
L 507.38661 63.593277 
L 513.552586 67.407219 
L 519.718562 72.44487 
L 525.884538 78.657494 
L 532.050513 85.992177 
L 538.216489 94.392377 
L 544.382465 103.798473 
L 550.548441 114.14831 
L 556.714417 125.377731 
L 562.880393 137.421096 
L 569.046369 150.211776 
L 575.212344 163.682636 
L 581.37832 177.766475 
L 587.544296 192.396455 
L 593.710272 207.506488 
L 599.876248 223.031594 
L 612.2082 255.074589 
L 624.540151 288.039401 
L 667.701982 404.547057 
L 680.033934 436.703146 
L 692.365886 467.84895 
L 698.531862 482.978322 
L 704.697837 497.783055 
L 710.863813 512.244743 
L 717.029789 526.347514 
L 723.195765 540.077916 
L 729.361741 553.424804 
L 735.527717 566.379218 
L 741.693692 578.934264 
L 747.859668 591.084982 
L 754.025644 602.828223 
L 760.19162 614.162521 
L 766.357596 625.087967 
L 772.523572 635.606083 
L 778.689548 645.7197 
L 784.855523 655.432839 
L 791.021499 664.750597 
L 797.187475 673.679034 
L 803.353451 682.225063 
L 809.519427 690.396355 
L 815.685403 698.201234 
L 821.851379 705.648588 
L 828.017354 712.747784 
L 834.18333 719.508582 
L 840.349306 725.941063 
L 846.515282 732.055558 
L 852.681258 737.862576 
L 858.847234 743.372754 
L 865.01321 748.596791 
L 871.179185 753.545406 
L 877.345161 758.229288 
L 883.511137 762.659053 
L 889.677113 766.845212 
L 895.843089 770.798133 
L 902.009065 774.528017 
L 908.17504 778.044867 
L 914.341016 781.358471 
L 920.506992 784.478381 
L 926.672968 787.413897 
L 932.838944 790.174054 
L 939.00492 792.767613 
L 945.170896 795.203053 
L 951.336871 797.488562 
L 957.502847 799.632037 
L 963.668823 801.641079 
L 969.834799 803.522995 
L 982.166751 806.933197 
L 994.498702 809.915244 
L 1006.830654 812.517182 
L 1019.162606 814.782678 
L 1031.494558 816.751233 
L 1043.826509 818.458423 
L 1056.158461 819.936162 
L 1068.490413 821.212965 
L 1080.822364 822.314225 
L 1099.320292 823.685538 
L 1117.818219 824.777296 
L 1136.316147 825.643498 
L 1160.98005 826.523038 
L 1185.643954 827.162793 
L 1216.473833 827.719718 
L 1253.469688 828.145841 
L 1302.797495 828.463946 
L 1364.457254 828.649575 
L 1364.457254 828.649575 
" clip-path="url(#p34cae6e249)" style="fill: none; stroke: #8c564b; stroke-width: 2; stroke-linecap: square"/>
   </g>
   <g id="line2d_19">
    <path d="M 137.428059 799.824573 
L 143.594035 796.724966 
L 149.760011 793.35086 
L 155.925987 789.684834 
L 162.091962 785.709136 
L 168.257938 781.405769 
L 174.423914 776.756589 
L 180.58989 771.743414 
L 186.755866 766.348141 
L 192.921842 760.552878 
L 199.087817 754.340085 
L 205.253793 747.692723 
L 211.419769 740.594417 
L 217.585745 733.029624 
L 223.751721 724.983812 
L 229.917697 716.443642 
L 236.083673 707.39716 
L 242.249648 697.833993 
L 248.415624 687.745541 
L 254.5816 677.125177 
L 260.747576 665.968445 
L 266.913552 654.27325 
L 273.079528 642.040047 
L 279.245504 629.272023 
L 285.411479 615.975264 
L 291.577455 602.158913 
L 297.743431 587.835315 
L 303.909407 573.020139 
L 310.075383 557.732488 
L 316.241359 541.994978 
L 322.407335 525.833801 
L 328.57331 509.278757 
L 340.905262 475.124317 
L 353.237214 439.841683 
L 365.569165 403.795764 
L 396.399045 313.173919 
L 408.730996 277.994997 
L 414.896972 260.894026 
L 421.062948 244.207776 
L 427.228924 228.003124 
L 433.3949 212.346491 
L 439.560876 197.303392 
L 445.726852 182.937985 
L 451.892827 169.312619 
L 458.058803 156.487383 
L 464.224779 144.51967 
L 470.390755 133.463746 
L 476.556731 123.370347 
L 482.722707 114.286285 
L 488.888683 106.254091 
L 495.054658 99.311681 
L 501.220634 93.492059 
L 507.38661 88.823058 
L 513.552586 85.327112 
L 519.718562 83.021085 
L 525.884538 81.916126 
L 532.050513 82.017588 
L 538.216489 83.324978 
L 544.382465 85.831967 
L 550.548441 89.526436 
L 556.714417 94.390574 
L 562.880393 100.401025 
L 569.046369 107.529073 
L 575.212344 115.740866 
L 581.37832 124.997692 
L 587.544296 135.256275 
L 593.710272 146.469118 
L 599.876248 158.584866 
L 606.042224 171.548695 
L 612.2082 185.30273 
L 618.374175 199.786471 
L 624.540151 214.937233 
L 630.706127 230.690599 
L 636.872103 246.98087 
L 643.038079 263.741516 
L 649.204055 280.905628 
L 661.536006 316.17729 
L 673.867958 352.269138 
L 698.531862 424.918357 
L 710.863813 460.565823 
L 723.195765 495.230416 
L 729.361741 512.08781 
L 735.527717 528.578883 
L 741.693692 544.670827 
L 747.859668 560.334449 
L 754.025644 575.544162 
L 760.19162 590.277945 
L 766.357596 604.517279 
L 772.523572 618.247061 
L 778.689548 631.455494 
L 784.855523 644.13396 
L 791.021499 656.276869 
L 797.187475 667.881509 
L 803.353451 678.947865 
L 809.519427 689.478442 
L 815.685403 699.478075 
L 821.851379 708.953735 
L 828.017354 717.914335 
L 834.18333 726.370528 
L 840.349306 734.334514 
L 846.515282 741.819844 
L 852.681258 748.841235 
L 858.847234 755.414381 
L 865.01321 761.555781 
L 871.179185 767.282568 
L 877.345161 772.612352 
L 883.511137 777.56307 
L 889.677113 782.152847 
L 895.843089 786.399867 
L 902.009065 790.322257 
L 908.17504 793.937978 
L 914.341016 797.264733 
L 920.506992 800.319879 
L 926.672968 803.120358 
L 932.838944 805.682627 
L 939.00492 808.022611 
L 945.170896 810.155654 
L 951.336871 812.096486 
L 957.502847 813.859195 
L 963.668823 815.457208 
L 969.834799 816.90328 
L 976.000775 818.209485 
L 982.166751 819.38722 
L 994.498702 821.399503 
L 1006.830654 823.018023 
L 1019.162606 824.310565 
L 1031.494558 825.335468 
L 1043.826509 826.142418 
L 1056.158461 826.773303 
L 1074.656388 827.464311 
L 1093.154316 827.929747 
L 1117.818219 828.315454 
L 1148.648099 828.5694 
L 1197.975906 828.725072 
L 1308.963471 828.777601 
L 1364.457254 828.779111 
L 1364.457254 828.779111 
" clip-path="url(#p34cae6e249)" style="fill: none; stroke: #e377c2; stroke-width: 2; stroke-linecap: square"/>
   </g>
   <g id="patch_103">
    <path d="M 72.685313 828.779375 
L 72.685313 38.075625 
" style="fill: none; stroke: #000000; stroke-width: 0.8; stroke-linejoin: miter; stroke-linecap: square"/>
   </g>
   <g id="patch_104">
    <path d="M 1429.2 828.779375 
L 1429.2 38.075625 
" style="fill: none; stroke: #000000; stroke-width: 0.8; stroke-linejoin: miter; stroke-linecap: square"/>
   </g>
   <g id="patch_105">
    <path d="M 72.685313 828.779375 
L 1429.2 828.779375 
" style="fill: none; stroke: #000000; stroke-width: 0.8; stroke-linejoin: miter; stroke-linecap: square"/>
   </g>
   <g id="patch_106">
    <path d="M 72.685313 38.075625 
L 1429.2 38.075625 
" style="fill: none; stroke: #000000; stroke-width: 0.8; stroke-linejoin: miter; stroke-linecap: square"/>
   </g>
   <g id="text_15">
    <!-- All Fitted Distributions -->
    <g transform="translate(596.317031 32.075625)scale(0.28 -0.28)">
     <defs>
      <path id="DejaVuSans-41" d="M 2188 4044 
L 1331 1722 
L 3047 1722 
L 2188 4044 
z
M 1831 4666 
L 2547 4666 
L 4325 0 
L 3669 0 
L 3244 1197 
L 1141 1197 
L 716 0 
L 50 0 
L 1831 4666 
z
" transform="scale(0.015625)"/>
      <path id="DejaVuSans-6c" d="M 603 4863 
L 1178 4863 
L 1178 0 
L 603 0 
L 603 4863 
z
" transform="scale(0.015625)"/>
      <path id="DejaVuSans-46" d="M 628 4666 
L 3309 4666 
L 3309 4134 
L 1259 4134 
L 1259 2759 
L 3109 2759 
L 3109 2228 
L 1259 2228 
L 1259 0 
L 628 0 
L 628 4666 
z
" transform="scale(0.015625)"/>
      <path id="DejaVuSans-44" d="M 1259 4147 
L 1259 519 
L 2022 519 
Q 2988 519 3436 956 
Q 3884 1394 3884 2338 
Q 3884 3275 3436 3711 
Q 2988 4147 2022 4147 
L 1259 4147 
z
M 628 4666 
L 1925 4666 
Q 3281 4666 3915 4102 
Q 4550 3538 4550 2338 
Q 4550 1131 3912 565 
Q 3275 0 1925 0 
L 628 0 
L 628 4666 
z
" transform="scale(0.015625)"/>
      <path id="DejaVuSans-62" d="M 3116 1747 
Q 3116 2381 2855 2742 
Q 2594 3103 2138 3103 
Q 1681 3103 1420 2742 
Q 1159 2381 1159 1747 
Q 1159 1113 1420 752 
Q 1681 391 2138 391 
Q 2594 391 2855 752 
Q 3116 1113 3116 1747 
z
M 1159 2969 
Q 1341 3281 1617 3432 
Q 1894 3584 2278 3584 
Q 2916 3584 3314 3078 
Q 3713 2572 3713 1747 
Q 3713 922 3314 415 
Q 2916 -91 2278 -91 
Q 1894 -91 1617 61 
Q 1341 213 1159 525 
L 1159 0 
L 581 0 
L 581 4863 
L 1159 4863 
L 1159 2969 
z
" transform="scale(0.015625)"/>
     </defs>
     <use xlink:href="#DejaVuSans-41"/>
     <use xlink:href="#DejaVuSans-6c" x="68.408203"/>
     <use xlink:href="#DejaVuSans-6c" x="96.191406"/>
     <use xlink:href="#DejaVuSans-20" x="123.974609"/>
     <use xlink:href="#DejaVuSans-46" x="155.761719"/>
     <use xlink:href="#DejaVuSans-69" x="206.03125"/>
     <use xlink:href="#DejaVuSans-74" x="233.814453"/>
     <use xlink:href="#DejaVuSans-74" x="273.023438"/>
     <use xlink:href="#DejaVuSans-65" x="312.232422"/>
     <use xlink:href="#DejaVuSans-64" x="373.755859"/>
     <use xlink:href="#DejaVuSans-20" x="437.232422"/>
     <use xlink:href="#DejaVuSans-44" x="469.019531"/>
     <use xlink:href="#DejaVuSans-69" x="546.021484"/>
     <use xlink:href="#DejaVuSans-73" x="573.804688"/>
     <use xlink:href="#DejaVuSans-74" x="625.904297"/>
     <use xlink:href="#DejaVuSans-72" x="665.113281"/>
     <use xlink:href="#DejaVuSans-69" x="706.226562"/>
     <use xlink:href="#DejaVuSans-62" x="734.009766"/>
     <use xlink:href="#DejaVuSans-75" x="797.486328"/>
     <use xlink:href="#DejaVuSans-74" x="860.865234"/>
     <use xlink:href="#DejaVuSans-69" x="900.074219"/>
     <use xlink:href="#DejaVuSans-6f" x="927.857422"/>
     <use xlink:href="#DejaVuSans-6e" x="989.039062"/>
     <use xlink:href="#DejaVuSans-73" x="1052.417969"/>
    </g>
   </g>
   <g id="legend_1">
    <g id="patch_107">
     <path d="M 1014.37125 303.868125 
L 1412.4 303.868125 
Q 1417.2 303.868125 1417.2 299.068125 
L 1417.2 54.875625 
Q 1417.2 50.075625 1412.4 50.075625 
L 1014.37125 50.075625 
Q 1009.57125 50.075625 1009.57125 54.875625 
L 1009.57125 299.068125 
Q 1009.57125 303.868125 1014.37125 303.868125 
z
" style="fill: #ffffff; opacity: 0.8; stroke: #cccccc; stroke-linejoin: miter"/>
    </g>
    <g id="patch_108">
     <path d="M 1019.17125 77.911875 
L 1067.17125 77.911875 
L 1067.17125 61.111875 
L 1019.17125 61.111875 
z
" style="fill: #1f77b4; opacity: 0.6"/>
    </g>
    <g id="text_16">
     <!-- Generated Chi Distribution -->
     <g transform="translate(1086.37125 77.911875)scale(0.24 -0.24)">
      <defs>
       <path id="DejaVuSans-47" d="M 3809 666 
L 3809 1919 
L 2778 1919 
L 2778 2438 
L 4434 2438 
L 4434 434 
Q 4069 175 3628 42 
Q 3188 -91 2688 -91 
Q 1594 -91 976 548 
Q 359 1188 359 2328 
Q 359 3472 976 4111 
Q 1594 4750 2688 4750 
Q 3144 4750 3555 4637 
Q 3966 4525 4313 4306 
L 4313 3634 
Q 3963 3931 3569 4081 
Q 3175 4231 2741 4231 
Q 1884 4231 1454 3753 
Q 1025 3275 1025 2328 
Q 1025 1384 1454 906 
Q 1884 428 2741 428 
Q 3075 428 3337 486 
Q 3600 544 3809 666 
z
" transform="scale(0.015625)"/>
       <path id="DejaVuSans-61" d="M 2194 1759 
Q 1497 1759 1228 1600 
Q 959 1441 959 1056 
Q 959 750 1161 570 
Q 1363 391 1709 391 
Q 2188 391 2477 730 
Q 2766 1069 2766 1631 
L 2766 1759 
L 2194 1759 
z
M 3341 1997 
L 3341 0 
L 2766 0 
L 2766 531 
Q 2569 213 2275 61 
Q 1981 -91 1556 -91 
Q 1019 -91 701 211 
Q 384 513 384 1019 
Q 384 1609 779 1909 
Q 1175 2209 1959 2209 
L 2766 2209 
L 2766 2266 
Q 2766 2663 2505 2880 
Q 2244 3097 1772 3097 
Q 1472 3097 1187 3025 
Q 903 2953 641 2809 
L 641 3341 
Q 956 3463 1253 3523 
Q 1550 3584 1831 3584 
Q 2591 3584 2966 3190 
Q 3341 2797 3341 1997 
z
" transform="scale(0.015625)"/>
       <path id="DejaVuSans-68" d="M 3513 2113 
L 3513 0 
L 2938 0 
L 2938 2094 
Q 2938 2591 2744 2837 
Q 2550 3084 2163 3084 
Q 1697 3084 1428 2787 
Q 1159 2491 1159 1978 
L 1159 0 
L 581 0 
L 581 4863 
L 1159 4863 
L 1159 2956 
Q 1366 3272 1645 3428 
Q 1925 3584 2291 3584 
Q 2894 3584 3203 3211 
Q 3513 2838 3513 2113 
z
" transform="scale(0.015625)"/>
      </defs>
      <use xlink:href="#DejaVuSans-47"/>
      <use xlink:href="#DejaVuSans-65" x="77.490234"/>
      <use xlink:href="#DejaVuSans-6e" x="139.013672"/>
      <use xlink:href="#DejaVuSans-65" x="202.392578"/>
      <use xlink:href="#DejaVuSans-72" x="263.916016"/>
      <use xlink:href="#DejaVuSans-61" x="305.029297"/>
      <use xlink:href="#DejaVuSans-74" x="366.308594"/>
      <use xlink:href="#DejaVuSans-65" x="405.517578"/>
      <use xlink:href="#DejaVuSans-64" x="467.041016"/>
      <use xlink:href="#DejaVuSans-20" x="530.517578"/>
      <use xlink:href="#DejaVuSans-43" x="562.304688"/>
      <use xlink:href="#DejaVuSans-68" x="632.128906"/>
      <use xlink:href="#DejaVuSans-69" x="695.507812"/>
      <use xlink:href="#DejaVuSans-20" x="723.291016"/>
      <use xlink:href="#DejaVuSans-44" x="755.078125"/>
      <use xlink:href="#DejaVuSans-69" x="832.080078"/>
      <use xlink:href="#DejaVuSans-73" x="859.863281"/>
      <use xlink:href="#DejaVuSans-74" x="911.962891"/>
      <use xlink:href="#DejaVuSans-72" x="951.171875"/>
      <use xlink:href="#DejaVuSans-69" x="992.285156"/>
      <use xlink:href="#DejaVuSans-62" x="1020.068359"/>
      <use xlink:href="#DejaVuSans-75" x="1083.544922"/>
      <use xlink:href="#DejaVuSans-74" x="1146.923828"/>
      <use xlink:href="#DejaVuSans-69" x="1186.132812"/>
      <use xlink:href="#DejaVuSans-6f" x="1213.916016"/>
      <use xlink:href="#DejaVuSans-6e" x="1275.097656"/>
     </g>
    </g>
    <g id="line2d_20">
     <path d="M 1019.17125 104.739375 
L 1043.17125 104.739375 
L 1067.17125 104.739375 
" style="fill: none; stroke: #ff7f0e; stroke-width: 2; stroke-linecap: square"/>
    </g>
    <g id="text_17">
     <!-- Chi fit -->
     <g transform="translate(1086.37125 113.139375)scale(0.24 -0.24)">
      <defs>
       <path id="DejaVuSans-66" d="M 2375 4863 
L 2375 4384 
L 1825 4384 
Q 1516 4384 1395 4259 
Q 1275 4134 1275 3809 
L 1275 3500 
L 2222 3500 
L 2222 3053 
L 1275 3053 
L 1275 0 
L 697 0 
L 697 3053 
L 147 3053 
L 147 3500 
L 697 3500 
L 697 3744 
Q 697 4328 969 4595 
Q 1241 4863 1831 4863 
L 2375 4863 
z
" transform="scale(0.015625)"/>
      </defs>
      <use xlink:href="#DejaVuSans-43"/>
      <use xlink:href="#DejaVuSans-68" x="69.824219"/>
      <use xlink:href="#DejaVuSans-69" x="133.203125"/>
      <use xlink:href="#DejaVuSans-20" x="160.986328"/>
      <use xlink:href="#DejaVuSans-66" x="192.773438"/>
      <use xlink:href="#DejaVuSans-69" x="227.978516"/>
      <use xlink:href="#DejaVuSans-74" x="255.761719"/>
     </g>
    </g>
    <g id="line2d_21">
     <path d="M 1019.17125 139.966875 
L 1043.17125 139.966875 
L 1067.17125 139.966875 
" style="fill: none; stroke: #2ca02c; stroke-width: 2; stroke-linecap: square"/>
    </g>
    <g id="text_18">
     <!-- Chi-Square fit -->
     <g transform="translate(1086.37125 148.366875)scale(0.24 -0.24)">
      <defs>
       <path id="DejaVuSans-2d" d="M 313 2009 
L 1997 2009 
L 1997 1497 
L 313 1497 
L 313 2009 
z
" transform="scale(0.015625)"/>
       <path id="DejaVuSans-53" d="M 3425 4513 
L 3425 3897 
Q 3066 4069 2747 4153 
Q 2428 4238 2131 4238 
Q 1616 4238 1336 4038 
Q 1056 3838 1056 3469 
Q 1056 3159 1242 3001 
Q 1428 2844 1947 2747 
L 2328 2669 
Q 3034 2534 3370 2195 
Q 3706 1856 3706 1288 
Q 3706 609 3251 259 
Q 2797 -91 1919 -91 
Q 1588 -91 1214 -16 
Q 841 59 441 206 
L 441 856 
Q 825 641 1194 531 
Q 1563 422 1919 422 
Q 2459 422 2753 634 
Q 3047 847 3047 1241 
Q 3047 1584 2836 1778 
Q 2625 1972 2144 2069 
L 1759 2144 
Q 1053 2284 737 2584 
Q 422 2884 422 3419 
Q 422 4038 858 4394 
Q 1294 4750 2059 4750 
Q 2388 4750 2728 4690 
Q 3069 4631 3425 4513 
z
" transform="scale(0.015625)"/>
       <path id="DejaVuSans-71" d="M 947 1747 
Q 947 1113 1208 752 
Q 1469 391 1925 391 
Q 2381 391 2643 752 
Q 2906 1113 2906 1747 
Q 2906 2381 2643 2742 
Q 2381 3103 1925 3103 
Q 1469 3103 1208 2742 
Q 947 2381 947 1747 
z
M 2906 525 
Q 2725 213 2448 61 
Q 2172 -91 1784 -91 
Q 1150 -91 751 415 
Q 353 922 353 1747 
Q 353 2572 751 3078 
Q 1150 3584 1784 3584 
Q 2172 3584 2448 3432 
Q 2725 3281 2906 2969 
L 2906 3500 
L 3481 3500 
L 3481 -1331 
L 2906 -1331 
L 2906 525 
z
" transform="scale(0.015625)"/>
      </defs>
      <use xlink:href="#DejaVuSans-43"/>
      <use xlink:href="#DejaVuSans-68" x="69.824219"/>
      <use xlink:href="#DejaVuSans-69" x="133.203125"/>
      <use xlink:href="#DejaVuSans-2d" x="160.986328"/>
      <use xlink:href="#DejaVuSans-53" x="197.070312"/>
      <use xlink:href="#DejaVuSans-71" x="260.546875"/>
      <use xlink:href="#DejaVuSans-75" x="324.023438"/>
      <use xlink:href="#DejaVuSans-61" x="387.402344"/>
      <use xlink:href="#DejaVuSans-72" x="448.681641"/>
      <use xlink:href="#DejaVuSans-65" x="487.544922"/>
      <use xlink:href="#DejaVuSans-20" x="549.068359"/>
      <use xlink:href="#DejaVuSans-66" x="580.855469"/>
      <use xlink:href="#DejaVuSans-69" x="616.060547"/>
      <use xlink:href="#DejaVuSans-74" x="643.84375"/>
     </g>
    </g>
    <g id="line2d_22">
     <path d="M 1019.17125 175.194375 
L 1043.17125 175.194375 
L 1067.17125 175.194375 
" style="fill: none; stroke: #d62728; stroke-width: 2; stroke-linecap: square"/>
    </g>
    <g id="text_19">
     <!-- Exponential fit -->
     <g transform="translate(1086.37125 183.594375)scale(0.24 -0.24)">
      <defs>
       <path id="DejaVuSans-45" d="M 628 4666 
L 3578 4666 
L 3578 4134 
L 1259 4134 
L 1259 2753 
L 3481 2753 
L 3481 2222 
L 1259 2222 
L 1259 531 
L 3634 531 
L 3634 0 
L 628 0 
L 628 4666 
z
" transform="scale(0.015625)"/>
       <path id="DejaVuSans-78" d="M 3513 3500 
L 2247 1797 
L 3578 0 
L 2900 0 
L 1881 1375 
L 863 0 
L 184 0 
L 1544 1831 
L 300 3500 
L 978 3500 
L 1906 2253 
L 2834 3500 
L 3513 3500 
z
" transform="scale(0.015625)"/>
       <path id="DejaVuSans-70" d="M 1159 525 
L 1159 -1331 
L 581 -1331 
L 581 3500 
L 1159 3500 
L 1159 2969 
Q 1341 3281 1617 3432 
Q 1894 3584 2278 3584 
Q 2916 3584 3314 3078 
Q 3713 2572 3713 1747 
Q 3713 922 3314 415 
Q 2916 -91 2278 -91 
Q 1894 -91 1617 61 
Q 1341 213 1159 525 
z
M 3116 1747 
Q 3116 2381 2855 2742 
Q 2594 3103 2138 3103 
Q 1681 3103 1420 2742 
Q 1159 2381 1159 1747 
Q 1159 1113 1420 752 
Q 1681 391 2138 391 
Q 2594 391 2855 752 
Q 3116 1113 3116 1747 
z
" transform="scale(0.015625)"/>
      </defs>
      <use xlink:href="#DejaVuSans-45"/>
      <use xlink:href="#DejaVuSans-78" x="63.183594"/>
      <use xlink:href="#DejaVuSans-70" x="122.363281"/>
      <use xlink:href="#DejaVuSans-6f" x="185.839844"/>
      <use xlink:href="#DejaVuSans-6e" x="247.021484"/>
      <use xlink:href="#DejaVuSans-65" x="310.400391"/>
      <use xlink:href="#DejaVuSans-6e" x="371.923828"/>
      <use xlink:href="#DejaVuSans-74" x="435.302734"/>
      <use xlink:href="#DejaVuSans-69" x="474.511719"/>
      <use xlink:href="#DejaVuSans-61" x="502.294922"/>
      <use xlink:href="#DejaVuSans-6c" x="563.574219"/>
      <use xlink:href="#DejaVuSans-20" x="591.357422"/>
      <use xlink:href="#DejaVuSans-66" x="623.144531"/>
      <use xlink:href="#DejaVuSans-69" x="658.349609"/>
      <use xlink:href="#DejaVuSans-74" x="686.132812"/>
     </g>
    </g>
    <g id="line2d_23">
     <path d="M 1019.17125 210.421875 
L 1043.17125 210.421875 
L 1067.17125 210.421875 
" style="fill: none; stroke: #9467bd; stroke-width: 2; stroke-linecap: square"/>
    </g>
    <g id="text_20">
     <!-- Laplace fit -->
     <g transform="translate(1086.37125 218.821875)scale(0.24 -0.24)">
      <defs>
       <path id="DejaVuSans-4c" d="M 628 4666 
L 1259 4666 
L 1259 531 
L 3531 531 
L 3531 0 
L 628 0 
L 628 4666 
z
" transform="scale(0.015625)"/>
       <path id="DejaVuSans-63" d="M 3122 3366 
L 3122 2828 
Q 2878 2963 2633 3030 
Q 2388 3097 2138 3097 
Q 1578 3097 1268 2742 
Q 959 2388 959 1747 
Q 959 1106 1268 751 
Q 1578 397 2138 397 
Q 2388 397 2633 464 
Q 2878 531 3122 666 
L 3122 134 
Q 2881 22 2623 -34 
Q 2366 -91 2075 -91 
Q 1284 -91 818 406 
Q 353 903 353 1747 
Q 353 2603 823 3093 
Q 1294 3584 2113 3584 
Q 2378 3584 2631 3529 
Q 2884 3475 3122 3366 
z
" transform="scale(0.015625)"/>
      </defs>
      <use xlink:href="#DejaVuSans-4c"/>
      <use xlink:href="#DejaVuSans-61" x="55.712891"/>
      <use xlink:href="#DejaVuSans-70" x="116.992188"/>
      <use xlink:href="#DejaVuSans-6c" x="180.46875"/>
      <use xlink:href="#DejaVuSans-61" x="208.251953"/>
      <use xlink:href="#DejaVuSans-63" x="269.53125"/>
      <use xlink:href="#DejaVuSans-65" x="324.511719"/>
      <use xlink:href="#DejaVuSans-20" x="386.035156"/>
      <use xlink:href="#DejaVuSans-66" x="417.822266"/>
      <use xlink:href="#DejaVuSans-69" x="453.027344"/>
      <use xlink:href="#DejaVuSans-74" x="480.810547"/>
     </g>
    </g>
    <g id="line2d_24">
     <path d="M 1019.17125 245.649375 
L 1043.17125 245.649375 
L 1067.17125 245.649375 
" style="fill: none; stroke: #8c564b; stroke-width: 2; stroke-linecap: square"/>
    </g>
    <g id="text_21">
     <!-- LogNorm fit -->
     <g transform="translate(1086.37125 254.049375)scale(0.24 -0.24)">
      <defs>
       <path id="DejaVuSans-67" d="M 2906 1791 
Q 2906 2416 2648 2759 
Q 2391 3103 1925 3103 
Q 1463 3103 1205 2759 
Q 947 2416 947 1791 
Q 947 1169 1205 825 
Q 1463 481 1925 481 
Q 2391 481 2648 825 
Q 2906 1169 2906 1791 
z
M 3481 434 
Q 3481 -459 3084 -895 
Q 2688 -1331 1869 -1331 
Q 1566 -1331 1297 -1286 
Q 1028 -1241 775 -1147 
L 775 -588 
Q 1028 -725 1275 -790 
Q 1522 -856 1778 -856 
Q 2344 -856 2625 -561 
Q 2906 -266 2906 331 
L 2906 616 
Q 2728 306 2450 153 
Q 2172 0 1784 0 
Q 1141 0 747 490 
Q 353 981 353 1791 
Q 353 2603 747 3093 
Q 1141 3584 1784 3584 
Q 2172 3584 2450 3431 
Q 2728 3278 2906 2969 
L 2906 3500 
L 3481 3500 
L 3481 434 
z
" transform="scale(0.015625)"/>
      </defs>
      <use xlink:href="#DejaVuSans-4c"/>
      <use xlink:href="#DejaVuSans-6f" x="53.962891"/>
      <use xlink:href="#DejaVuSans-67" x="115.144531"/>
      <use xlink:href="#DejaVuSans-4e" x="178.621094"/>
      <use xlink:href="#DejaVuSans-6f" x="253.425781"/>
      <use xlink:href="#DejaVuSans-72" x="314.607422"/>
      <use xlink:href="#DejaVuSans-6d" x="353.970703"/>
      <use xlink:href="#DejaVuSans-20" x="451.382812"/>
      <use xlink:href="#DejaVuSans-66" x="483.169922"/>
      <use xlink:href="#DejaVuSans-69" x="518.375"/>
      <use xlink:href="#DejaVuSans-74" x="546.158203"/>
     </g>
    </g>
    <g id="line2d_25">
     <path d="M 1019.17125 280.876875 
L 1043.17125 280.876875 
L 1067.17125 280.876875 
" style="fill: none; stroke: #e377c2; stroke-width: 2; stroke-linecap: square"/>
    </g>
    <g id="text_22">
     <!-- Normal fit -->
     <g transform="translate(1086.37125 289.276875)scale(0.24 -0.24)">
      <use xlink:href="#DejaVuSans-4e"/>
      <use xlink:href="#DejaVuSans-6f" x="74.804688"/>
      <use xlink:href="#DejaVuSans-72" x="135.986328"/>
      <use xlink:href="#DejaVuSans-6d" x="175.349609"/>
      <use xlink:href="#DejaVuSans-61" x="272.761719"/>
      <use xlink:href="#DejaVuSans-6c" x="334.041016"/>
      <use xlink:href="#DejaVuSans-20" x="361.824219"/>
      <use xlink:href="#DejaVuSans-66" x="393.611328"/>
      <use xlink:href="#DejaVuSans-69" x="428.816406"/>
      <use xlink:href="#DejaVuSans-74" x="456.599609"/>
     </g>
    </g>
   </g>
  </g>
 </g>
 <defs>
  <clipPath id="p34cae6e249">
   <rect x="72.685313" y="38.075625" width="1356.514688" height="790.70375"/>
  </clipPath>
 </defs>
</svg>
