<?xml version="1.0" encoding="utf-8" standalone="no"?>
<!DOCTYPE svg PUBLIC "-//W3C//DTD SVG 1.1//EN"
  "http://www.w3.org/Graphics/SVG/1.1/DTD/svg11.dtd">
<svg height="864pt" version="1.1" viewBox="0 0 1440 864" width="1440pt" xmlns="http://www.w3.org/2000/svg" xmlns:xlink="http://www.w3.org/1999/xlink">
 <metadata>
  <rdf:RDF xmlns:cc="http://creativecommons.org/ns#" xmlns:dc="http://purl.org/dc/elements/1.1/" xmlns:rdf="http://www.w3.org/1999/02/22-rdf-syntax-ns#">
   <cc:Work>
    <dc:type rdf:resource="http://purl.org/dc/dcmitype/StillImage"/>
    <dc:date>2022-06-25T09:32:20.004900</dc:date>
    <dc:format>image/svg+xml</dc:format>
    <dc:creator>
     <cc:Agent>
      <dc:title>Matplotlib v3.4.3, https://matplotlib.org/</dc:title>
     </cc:Agent>
    </dc:creator>
   </cc:Work>
  </rdf:RDF>
 </metadata>
 <defs>
  <style type="text/css">*{stroke-linecap:butt;stroke-linejoin:round;}</style>
 </defs>
 <g id="figure_1">
  <g id="patch_1">
   <path d="M 0 864 
L 1440 864 
L 1440 0 
L 0 0 
z
" style="fill:#ffffff;"/>
  </g>
  <g id="axes_1">
   <g id="patch_2">
    <path d="M 72.685313 828.779375 
L 1429.2 828.779375 
L 1429.2 38.075625 
L 72.685313 38.075625 
z
" style="fill:#ffffff;"/>
   </g>
   <g id="patch_3">
    <path clip-path="url(#p264e7ddd5d)" d="M 134.345071 828.779375 
L 146.677023 828.779375 
L 146.677023 828.334572 
L 134.345071 828.334572 
z
" style="fill:#1f77b4;opacity:0.6;"/>
   </g>
   <g id="patch_4">
    <path clip-path="url(#p264e7ddd5d)" d="M 146.677023 828.779375 
L 159.008974 828.779375 
L 159.008974 827.889769 
L 146.677023 827.889769 
z
" style="fill:#1f77b4;opacity:0.6;"/>
   </g>
   <g id="patch_5">
    <path clip-path="url(#p264e7ddd5d)" d="M 159.008974 828.779375 
L 171.340926 828.779375 
L 171.340926 822.552135 
L 159.008974 822.552135 
z
" style="fill:#1f77b4;opacity:0.6;"/>
   </g>
   <g id="patch_6">
    <path clip-path="url(#p264e7ddd5d)" d="M 171.340926 828.779375 
L 183.672878 828.779375 
L 183.672878 809.20805 
L 171.340926 809.20805 
z
" style="fill:#1f77b4;opacity:0.6;"/>
   </g>
   <g id="patch_7">
    <path clip-path="url(#p264e7ddd5d)" d="M 183.672878 828.779375 
L 196.00483 828.779375 
L 196.00483 808.318445 
L 183.672878 808.318445 
z
" style="fill:#1f77b4;opacity:0.6;"/>
   </g>
   <g id="patch_8">
    <path clip-path="url(#p264e7ddd5d)" d="M 196.00483 828.779375 
L 208.336781 828.779375 
L 208.336781 798.08798 
L 196.00483 798.08798 
z
" style="fill:#1f77b4;opacity:0.6;"/>
   </g>
   <g id="patch_9">
    <path clip-path="url(#p264e7ddd5d)" d="M 208.336781 828.779375 
L 220.668733 828.779375 
L 220.668733 777.62705 
L 208.336781 777.62705 
z
" style="fill:#1f77b4;opacity:0.6;"/>
   </g>
   <g id="patch_10">
    <path clip-path="url(#p264e7ddd5d)" d="M 220.668733 828.779375 
L 233.000685 828.779375 
L 233.000685 753.162894 
L 220.668733 753.162894 
z
" style="fill:#1f77b4;opacity:0.6;"/>
   </g>
   <g id="patch_11">
    <path clip-path="url(#p264e7ddd5d)" d="M 233.000685 828.779375 
L 245.332636 828.779375 
L 245.332636 735.370781 
L 233.000685 735.370781 
z
" style="fill:#1f77b4;opacity:0.6;"/>
   </g>
   <g id="patch_12">
    <path clip-path="url(#p264e7ddd5d)" d="M 245.332636 828.779375 
L 257.664588 828.779375 
L 257.664588 713.575442 
L 245.332636 713.575442 
z
" style="fill:#1f77b4;opacity:0.6;"/>
   </g>
   <g id="patch_13">
    <path clip-path="url(#p264e7ddd5d)" d="M 257.664588 828.779375 
L 269.99654 828.779375 
L 269.99654 682.884047 
L 257.664588 682.884047 
z
" style="fill:#1f77b4;opacity:0.6;"/>
   </g>
   <g id="patch_14">
    <path clip-path="url(#p264e7ddd5d)" d="M 269.99654 828.779375 
L 282.328491 828.779375 
L 282.328491 637.514158 
L 269.99654 637.514158 
z
" style="fill:#1f77b4;opacity:0.6;"/>
   </g>
   <g id="patch_15">
    <path clip-path="url(#p264e7ddd5d)" d="M 282.328491 828.779375 
L 294.660443 828.779375 
L 294.660443 603.26434 
L 282.328491 603.26434 
z
" style="fill:#1f77b4;opacity:0.6;"/>
   </g>
   <g id="patch_16">
    <path clip-path="url(#p264e7ddd5d)" d="M 294.660443 828.779375 
L 306.992395 828.779375 
L 306.992395 553.001621 
L 294.660443 553.001621 
z
" style="fill:#1f77b4;opacity:0.6;"/>
   </g>
   <g id="patch_17">
    <path clip-path="url(#p264e7ddd5d)" d="M 306.992395 828.779375 
L 319.324347 828.779375 
L 319.324347 512.524563 
L 306.992395 512.524563 
z
" style="fill:#1f77b4;opacity:0.6;"/>
   </g>
   <g id="patch_18">
    <path clip-path="url(#p264e7ddd5d)" d="M 319.324347 828.779375 
L 331.656298 828.779375 
L 331.656298 452.476181 
L 319.324347 452.476181 
z
" style="fill:#1f77b4;opacity:0.6;"/>
   </g>
   <g id="patch_19">
    <path clip-path="url(#p264e7ddd5d)" d="M 331.656298 828.779375 
L 343.98825 828.779375 
L 343.98825 431.125645 
L 331.656298 431.125645 
z
" style="fill:#1f77b4;opacity:0.6;"/>
   </g>
   <g id="patch_20">
    <path clip-path="url(#p264e7ddd5d)" d="M 343.98825 828.779375 
L 356.320202 828.779375 
L 356.320202 353.28515 
L 343.98825 353.28515 
z
" style="fill:#1f77b4;opacity:0.6;"/>
   </g>
   <g id="patch_21">
    <path clip-path="url(#p264e7ddd5d)" d="M 356.320202 828.779375 
L 368.652153 828.779375 
L 368.652153 342.609882 
L 356.320202 342.609882 
z
" style="fill:#1f77b4;opacity:0.6;"/>
   </g>
   <g id="patch_22">
    <path clip-path="url(#p264e7ddd5d)" d="M 368.652153 828.779375 
L 380.984105 828.779375 
L 380.984105 323.038558 
L 368.652153 323.038558 
z
" style="fill:#1f77b4;opacity:0.6;"/>
   </g>
   <g id="patch_23">
    <path clip-path="url(#p264e7ddd5d)" d="M 380.984105 828.779375 
L 393.316057 828.779375 
L 393.316057 251.425302 
L 380.984105 251.425302 
z
" style="fill:#1f77b4;opacity:0.6;"/>
   </g>
   <g id="patch_24">
    <path clip-path="url(#p264e7ddd5d)" d="M 393.316057 828.779375 
L 405.648009 828.779375 
L 405.648009 218.509893 
L 393.316057 218.509893 
z
" style="fill:#1f77b4;opacity:0.6;"/>
   </g>
   <g id="patch_25">
    <path clip-path="url(#p264e7ddd5d)" d="M 405.648009 828.779375 
L 417.97996 828.779375 
L 417.97996 199.828174 
L 405.648009 199.828174 
z
" style="fill:#1f77b4;opacity:0.6;"/>
   </g>
   <g id="patch_26">
    <path clip-path="url(#p264e7ddd5d)" d="M 417.97996 828.779375 
L 430.311912 828.779375 
L 430.311912 184.260075 
L 417.97996 184.260075 
z
" style="fill:#1f77b4;opacity:0.6;"/>
   </g>
   <g id="patch_27">
    <path clip-path="url(#p264e7ddd5d)" d="M 430.311912 828.779375 
L 442.643864 828.779375 
L 442.643864 121.542876 
L 430.311912 121.542876 
z
" style="fill:#1f77b4;opacity:0.6;"/>
   </g>
   <g id="patch_28">
    <path clip-path="url(#p264e7ddd5d)" d="M 442.643864 828.779375 
L 454.975815 828.779375 
L 454.975815 124.656496 
L 442.643864 124.656496 
z
" style="fill:#1f77b4;opacity:0.6;"/>
   </g>
   <g id="patch_29">
    <path clip-path="url(#p264e7ddd5d)" d="M 454.975815 828.779375 
L 467.307767 828.779375 
L 467.307767 113.981228 
L 454.975815 113.981228 
z
" style="fill:#1f77b4;opacity:0.6;"/>
   </g>
   <g id="patch_30">
    <path clip-path="url(#p264e7ddd5d)" d="M 467.307767 828.779375 
L 479.639719 828.779375 
L 479.639719 75.728185 
L 467.307767 75.728185 
z
" style="fill:#1f77b4;opacity:0.6;"/>
   </g>
   <g id="patch_31">
    <path clip-path="url(#p264e7ddd5d)" d="M 479.639719 828.779375 
L 491.97167 828.779375 
L 491.97167 103.750763 
L 479.639719 103.750763 
z
" style="fill:#1f77b4;opacity:0.6;"/>
   </g>
   <g id="patch_32">
    <path clip-path="url(#p264e7ddd5d)" d="M 491.97167 828.779375 
L 504.303622 828.779375 
L 504.303622 100.19234 
L 491.97167 100.19234 
z
" style="fill:#1f77b4;opacity:0.6;"/>
   </g>
   <g id="patch_33">
    <path clip-path="url(#p264e7ddd5d)" d="M 504.303622 828.779375 
L 516.635574 828.779375 
L 516.635574 106.41958 
L 504.303622 106.41958 
z
" style="fill:#1f77b4;opacity:0.6;"/>
   </g>
   <g id="patch_34">
    <path clip-path="url(#p264e7ddd5d)" d="M 516.635574 828.779375 
L 528.967526 828.779375 
L 528.967526 105.529974 
L 516.635574 105.529974 
z
" style="fill:#1f77b4;opacity:0.6;"/>
   </g>
   <g id="patch_35">
    <path clip-path="url(#p264e7ddd5d)" d="M 528.967526 828.779375 
L 541.299477 828.779375 
L 541.299477 131.773341 
L 528.967526 131.773341 
z
" style="fill:#1f77b4;opacity:0.6;"/>
   </g>
   <g id="patch_36">
    <path clip-path="url(#p264e7ddd5d)" d="M 541.299477 828.779375 
L 553.631429 828.779375 
L 553.631429 167.357567 
L 541.299477 167.357567 
z
" style="fill:#1f77b4;opacity:0.6;"/>
   </g>
   <g id="patch_37">
    <path clip-path="url(#p264e7ddd5d)" d="M 553.631429 828.779375 
L 565.963381 828.779375 
L 565.963381 136.666172 
L 553.631429 136.666172 
z
" style="fill:#1f77b4;opacity:0.6;"/>
   </g>
   <g id="patch_38">
    <path clip-path="url(#p264e7ddd5d)" d="M 565.963381 828.779375 
L 578.295332 828.779375 
L 578.295332 140.224595 
L 565.963381 140.224595 
z
" style="fill:#1f77b4;opacity:0.6;"/>
   </g>
   <g id="patch_39">
    <path clip-path="url(#p264e7ddd5d)" d="M 578.295332 828.779375 
L 590.627284 828.779375 
L 590.627284 180.701652 
L 578.295332 180.701652 
z
" style="fill:#1f77b4;opacity:0.6;"/>
   </g>
   <g id="patch_40">
    <path clip-path="url(#p264e7ddd5d)" d="M 590.627284 828.779375 
L 602.959236 828.779375 
L 602.959236 218.06509 
L 590.627284 218.06509 
z
" style="fill:#1f77b4;opacity:0.6;"/>
   </g>
   <g id="patch_41">
    <path clip-path="url(#p264e7ddd5d)" d="M 602.959236 828.779375 
L 615.291188 828.779375 
L 615.291188 259.876556 
L 602.959236 259.876556 
z
" style="fill:#1f77b4;opacity:0.6;"/>
   </g>
   <g id="patch_42">
    <path clip-path="url(#p264e7ddd5d)" d="M 615.291187 828.779375 
L 627.623139 828.779375 
L 627.623139 291.457557 
L 615.291187 291.457557 
z
" style="fill:#1f77b4;opacity:0.6;"/>
   </g>
   <g id="patch_43">
    <path clip-path="url(#p264e7ddd5d)" d="M 627.623139 828.779375 
L 639.955091 828.779375 
L 639.955091 342.609882 
L 627.623139 342.609882 
z
" style="fill:#1f77b4;opacity:0.6;"/>
   </g>
   <g id="patch_44">
    <path clip-path="url(#p264e7ddd5d)" d="M 639.955091 828.779375 
L 652.287043 828.779375 
L 652.287043 355.953967 
L 639.955091 355.953967 
z
" style="fill:#1f77b4;opacity:0.6;"/>
   </g>
   <g id="patch_45">
    <path clip-path="url(#p264e7ddd5d)" d="M 652.287043 828.779375 
L 664.618994 828.779375 
L 664.618994 404.882278 
L 652.287043 404.882278 
z
" style="fill:#1f77b4;opacity:0.6;"/>
   </g>
   <g id="patch_46">
    <path clip-path="url(#p264e7ddd5d)" d="M 664.618994 828.779375 
L 676.950946 828.779375 
L 676.950946 407.995898 
L 664.618994 407.995898 
z
" style="fill:#1f77b4;opacity:0.6;"/>
   </g>
   <g id="patch_47">
    <path clip-path="url(#p264e7ddd5d)" d="M 676.950946 828.779375 
L 689.282898 828.779375 
L 689.282898 466.709872 
L 676.950946 466.709872 
z
" style="fill:#1f77b4;opacity:0.6;"/>
   </g>
   <g id="patch_48">
    <path clip-path="url(#p264e7ddd5d)" d="M 689.282898 828.779375 
L 701.614849 828.779375 
L 701.614849 490.729225 
L 689.282898 490.729225 
z
" style="fill:#1f77b4;opacity:0.6;"/>
   </g>
   <g id="patch_49">
    <path clip-path="url(#p264e7ddd5d)" d="M 701.614849 828.779375 
L 713.946801 828.779375 
L 713.946801 535.65431 
L 701.614849 535.65431 
z
" style="fill:#1f77b4;opacity:0.6;"/>
   </g>
   <g id="patch_50">
    <path clip-path="url(#p264e7ddd5d)" d="M 713.946801 828.779375 
L 726.278753 828.779375 
L 726.278753 545.884775 
L 713.946801 545.884775 
z
" style="fill:#1f77b4;opacity:0.6;"/>
   </g>
   <g id="patch_51">
    <path clip-path="url(#p264e7ddd5d)" d="M 726.278753 828.779375 
L 738.610705 828.779375 
L 738.610705 561.008072 
L 726.278753 561.008072 
z
" style="fill:#1f77b4;opacity:0.6;"/>
   </g>
   <g id="patch_52">
    <path clip-path="url(#p264e7ddd5d)" d="M 738.610705 828.779375 
L 750.942656 828.779375 
L 750.942656 610.381186 
L 738.610705 610.381186 
z
" style="fill:#1f77b4;opacity:0.6;"/>
   </g>
   <g id="patch_53">
    <path clip-path="url(#p264e7ddd5d)" d="M 750.942656 828.779375 
L 763.274608 828.779375 
L 763.274608 618.832439 
L 750.942656 618.832439 
z
" style="fill:#1f77b4;opacity:0.6;"/>
   </g>
   <g id="patch_54">
    <path clip-path="url(#p264e7ddd5d)" d="M 763.274608 828.779375 
L 775.60656 828.779375 
L 775.60656 653.971863 
L 763.274608 653.971863 
z
" style="fill:#1f77b4;opacity:0.6;"/>
   </g>
   <g id="patch_55">
    <path clip-path="url(#p264e7ddd5d)" d="M 775.60656 828.779375 
L 787.938511 828.779375 
L 787.938511 672.208779 
L 775.60656 672.208779 
z
" style="fill:#1f77b4;opacity:0.6;"/>
   </g>
   <g id="patch_56">
    <path clip-path="url(#p264e7ddd5d)" d="M 787.938511 828.779375 
L 800.270463 828.779375 
L 800.270463 694.44892 
L 787.938511 694.44892 
z
" style="fill:#1f77b4;opacity:0.6;"/>
   </g>
   <g id="patch_57">
    <path clip-path="url(#p264e7ddd5d)" d="M 800.270463 828.779375 
L 812.602415 828.779375 
L 812.602415 715.354653 
L 800.270463 715.354653 
z
" style="fill:#1f77b4;opacity:0.6;"/>
   </g>
   <g id="patch_58">
    <path clip-path="url(#p264e7ddd5d)" d="M 812.602415 828.779375 
L 824.934366 828.779375 
L 824.934366 718.02347 
L 812.602415 718.02347 
z
" style="fill:#1f77b4;opacity:0.6;"/>
   </g>
   <g id="patch_59">
    <path clip-path="url(#p264e7ddd5d)" d="M 824.934366 828.779375 
L 837.266318 828.779375 
L 837.266318 735.815584 
L 824.934366 735.815584 
z
" style="fill:#1f77b4;opacity:0.6;"/>
   </g>
   <g id="patch_60">
    <path clip-path="url(#p264e7ddd5d)" d="M 837.266318 828.779375 
L 849.59827 828.779375 
L 849.59827 747.380457 
L 837.266318 747.380457 
z
" style="fill:#1f77b4;opacity:0.6;"/>
   </g>
   <g id="patch_61">
    <path clip-path="url(#p264e7ddd5d)" d="M 849.59827 828.779375 
L 861.930222 828.779375 
L 861.930222 763.393359 
L 849.59827 763.393359 
z
" style="fill:#1f77b4;opacity:0.6;"/>
   </g>
   <g id="patch_62">
    <path clip-path="url(#p264e7ddd5d)" d="M 861.930222 828.779375 
L 874.262173 828.779375 
L 874.262173 767.841387 
L 861.930222 767.841387 
z
" style="fill:#1f77b4;opacity:0.6;"/>
   </g>
   <g id="patch_63">
    <path clip-path="url(#p264e7ddd5d)" d="M 874.262173 828.779375 
L 886.594125 828.779375 
L 886.594125 778.071852 
L 874.262173 778.071852 
z
" style="fill:#1f77b4;opacity:0.6;"/>
   </g>
   <g id="patch_64">
    <path clip-path="url(#p264e7ddd5d)" d="M 886.594125 828.779375 
L 898.926077 828.779375 
L 898.926077 788.74712 
L 886.594125 788.74712 
z
" style="fill:#1f77b4;opacity:0.6;"/>
   </g>
   <g id="patch_65">
    <path clip-path="url(#p264e7ddd5d)" d="M 898.926077 828.779375 
L 911.258028 828.779375 
L 911.258028 790.081529 
L 898.926077 790.081529 
z
" style="fill:#1f77b4;opacity:0.6;"/>
   </g>
   <g id="patch_66">
    <path clip-path="url(#p264e7ddd5d)" d="M 911.258028 828.779375 
L 923.58998 828.779375 
L 923.58998 794.97436 
L 911.258028 794.97436 
z
" style="fill:#1f77b4;opacity:0.6;"/>
   </g>
   <g id="patch_67">
    <path clip-path="url(#p264e7ddd5d)" d="M 923.58998 828.779375 
L 935.921932 828.779375 
L 935.921932 803.425614 
L 923.58998 803.425614 
z
" style="fill:#1f77b4;opacity:0.6;"/>
   </g>
   <g id="patch_68">
    <path clip-path="url(#p264e7ddd5d)" d="M 935.921932 828.779375 
L 948.253884 828.779375 
L 948.253884 806.984036 
L 935.921932 806.984036 
z
" style="fill:#1f77b4;opacity:0.6;"/>
   </g>
   <g id="patch_69">
    <path clip-path="url(#p264e7ddd5d)" d="M 948.253884 828.779375 
L 960.585835 828.779375 
L 960.585835 807.428839 
L 948.253884 807.428839 
z
" style="fill:#1f77b4;opacity:0.6;"/>
   </g>
   <g id="patch_70">
    <path clip-path="url(#p264e7ddd5d)" d="M 960.585835 828.779375 
L 972.917787 828.779375 
L 972.917787 808.318445 
L 960.585835 808.318445 
z
" style="fill:#1f77b4;opacity:0.6;"/>
   </g>
   <g id="patch_71">
    <path clip-path="url(#p264e7ddd5d)" d="M 972.917787 828.779375 
L 985.249739 828.779375 
L 985.249739 814.990487 
L 972.917787 814.990487 
z
" style="fill:#1f77b4;opacity:0.6;"/>
   </g>
   <g id="patch_72">
    <path clip-path="url(#p264e7ddd5d)" d="M 985.249739 828.779375 
L 997.58169 828.779375 
L 997.58169 818.104107 
L 985.249739 818.104107 
z
" style="fill:#1f77b4;opacity:0.6;"/>
   </g>
   <g id="patch_73">
    <path clip-path="url(#p264e7ddd5d)" d="M 997.58169 828.779375 
L 1009.913642 828.779375 
L 1009.913642 818.993713 
L 997.58169 818.993713 
z
" style="fill:#1f77b4;opacity:0.6;"/>
   </g>
   <g id="patch_74">
    <path clip-path="url(#p264e7ddd5d)" d="M 1009.913642 828.779375 
L 1022.245594 828.779375 
L 1022.245594 823.886544 
L 1009.913642 823.886544 
z
" style="fill:#1f77b4;opacity:0.6;"/>
   </g>
   <g id="patch_75">
    <path clip-path="url(#p264e7ddd5d)" d="M 1022.245594 828.779375 
L 1034.577545 828.779375 
L 1034.577545 822.107333 
L 1022.245594 822.107333 
z
" style="fill:#1f77b4;opacity:0.6;"/>
   </g>
   <g id="patch_76">
    <path clip-path="url(#p264e7ddd5d)" d="M 1034.577545 828.779375 
L 1046.909497 828.779375 
L 1046.909497 822.552135 
L 1034.577545 822.552135 
z
" style="fill:#1f77b4;opacity:0.6;"/>
   </g>
   <g id="patch_77">
    <path clip-path="url(#p264e7ddd5d)" d="M 1046.909497 828.779375 
L 1059.241449 828.779375 
L 1059.241449 825.220952 
L 1046.909497 825.220952 
z
" style="fill:#1f77b4;opacity:0.6;"/>
   </g>
   <g id="patch_78">
    <path clip-path="url(#p264e7ddd5d)" d="M 1059.241449 828.779375 
L 1071.573401 828.779375 
L 1071.573401 826.110558 
L 1059.241449 826.110558 
z
" style="fill:#1f77b4;opacity:0.6;"/>
   </g>
   <g id="patch_79">
    <path clip-path="url(#p264e7ddd5d)" d="M 1071.573401 828.779375 
L 1083.905352 828.779375 
L 1083.905352 827.444967 
L 1071.573401 827.444967 
z
" style="fill:#1f77b4;opacity:0.6;"/>
   </g>
   <g id="patch_80">
    <path clip-path="url(#p264e7ddd5d)" d="M 1083.905352 828.779375 
L 1096.237304 828.779375 
L 1096.237304 826.555361 
L 1083.905352 826.555361 
z
" style="fill:#1f77b4;opacity:0.6;"/>
   </g>
   <g id="patch_81">
    <path clip-path="url(#p264e7ddd5d)" d="M 1096.237304 828.779375 
L 1108.569256 828.779375 
L 1108.569256 828.334572 
L 1096.237304 828.334572 
z
" style="fill:#1f77b4;opacity:0.6;"/>
   </g>
   <g id="patch_82">
    <path clip-path="url(#p264e7ddd5d)" d="M 1108.569256 828.779375 
L 1120.901207 828.779375 
L 1120.901207 827.889769 
L 1108.569256 827.889769 
z
" style="fill:#1f77b4;opacity:0.6;"/>
   </g>
   <g id="patch_83">
    <path clip-path="url(#p264e7ddd5d)" d="M 1120.901207 828.779375 
L 1133.233159 828.779375 
L 1133.233159 828.334572 
L 1120.901207 828.334572 
z
" style="fill:#1f77b4;opacity:0.6;"/>
   </g>
   <g id="patch_84">
    <path clip-path="url(#p264e7ddd5d)" d="M 1133.233159 828.779375 
L 1145.565111 828.779375 
L 1145.565111 828.334572 
L 1133.233159 828.334572 
z
" style="fill:#1f77b4;opacity:0.6;"/>
   </g>
   <g id="patch_85">
    <path clip-path="url(#p264e7ddd5d)" d="M 1145.565111 828.779375 
L 1157.897063 828.779375 
L 1157.897063 828.334572 
L 1145.565111 828.334572 
z
" style="fill:#1f77b4;opacity:0.6;"/>
   </g>
   <g id="patch_86">
    <path clip-path="url(#p264e7ddd5d)" d="M 1157.897062 828.779375 
L 1170.229014 828.779375 
L 1170.229014 827.444967 
L 1157.897062 827.444967 
z
" style="fill:#1f77b4;opacity:0.6;"/>
   </g>
   <g id="patch_87">
    <path clip-path="url(#p264e7ddd5d)" d="M 1170.229014 828.779375 
L 1182.560966 828.779375 
L 1182.560966 828.334572 
L 1170.229014 828.334572 
z
" style="fill:#1f77b4;opacity:0.6;"/>
   </g>
   <g id="patch_88">
    <path clip-path="url(#p264e7ddd5d)" d="M 1182.560966 828.779375 
L 1194.892918 828.779375 
L 1194.892918 828.334572 
L 1182.560966 828.334572 
z
" style="fill:#1f77b4;opacity:0.6;"/>
   </g>
   <g id="patch_89">
    <path clip-path="url(#p264e7ddd5d)" d="M 1194.892918 828.779375 
L 1207.224869 828.779375 
L 1207.224869 828.779375 
L 1194.892918 828.779375 
z
" style="fill:#1f77b4;opacity:0.6;"/>
   </g>
   <g id="patch_90">
    <path clip-path="url(#p264e7ddd5d)" d="M 1207.224869 828.779375 
L 1219.556821 828.779375 
L 1219.556821 828.779375 
L 1207.224869 828.779375 
z
" style="fill:#1f77b4;opacity:0.6;"/>
   </g>
   <g id="patch_91">
    <path clip-path="url(#p264e7ddd5d)" d="M 1219.556821 828.779375 
L 1231.888773 828.779375 
L 1231.888773 828.779375 
L 1219.556821 828.779375 
z
" style="fill:#1f77b4;opacity:0.6;"/>
   </g>
   <g id="patch_92">
    <path clip-path="url(#p264e7ddd5d)" d="M 1231.888773 828.779375 
L 1244.220724 828.779375 
L 1244.220724 828.779375 
L 1231.888773 828.779375 
z
" style="fill:#1f77b4;opacity:0.6;"/>
   </g>
   <g id="patch_93">
    <path clip-path="url(#p264e7ddd5d)" d="M 1244.220724 828.779375 
L 1256.552676 828.779375 
L 1256.552676 828.334572 
L 1244.220724 828.334572 
z
" style="fill:#1f77b4;opacity:0.6;"/>
   </g>
   <g id="patch_94">
    <path clip-path="url(#p264e7ddd5d)" d="M 1256.552676 828.779375 
L 1268.884628 828.779375 
L 1268.884628 828.334572 
L 1256.552676 828.334572 
z
" style="fill:#1f77b4;opacity:0.6;"/>
   </g>
   <g id="patch_95">
    <path clip-path="url(#p264e7ddd5d)" d="M 1268.884628 828.779375 
L 1281.21658 828.779375 
L 1281.21658 828.779375 
L 1268.884628 828.779375 
z
" style="fill:#1f77b4;opacity:0.6;"/>
   </g>
   <g id="patch_96">
    <path clip-path="url(#p264e7ddd5d)" d="M 1281.21658 828.779375 
L 1293.548531 828.779375 
L 1293.548531 828.779375 
L 1281.21658 828.779375 
z
" style="fill:#1f77b4;opacity:0.6;"/>
   </g>
   <g id="patch_97">
    <path clip-path="url(#p264e7ddd5d)" d="M 1293.548531 828.779375 
L 1305.880483 828.779375 
L 1305.880483 828.779375 
L 1293.548531 828.779375 
z
" style="fill:#1f77b4;opacity:0.6;"/>
   </g>
   <g id="patch_98">
    <path clip-path="url(#p264e7ddd5d)" d="M 1305.880483 828.779375 
L 1318.212435 828.779375 
L 1318.212435 828.779375 
L 1305.880483 828.779375 
z
" style="fill:#1f77b4;opacity:0.6;"/>
   </g>
   <g id="patch_99">
    <path clip-path="url(#p264e7ddd5d)" d="M 1318.212435 828.779375 
L 1330.544386 828.779375 
L 1330.544386 828.779375 
L 1318.212435 828.779375 
z
" style="fill:#1f77b4;opacity:0.6;"/>
   </g>
   <g id="patch_100">
    <path clip-path="url(#p264e7ddd5d)" d="M 1330.544386 828.779375 
L 1342.876338 828.779375 
L 1342.876338 828.779375 
L 1330.544386 828.779375 
z
" style="fill:#1f77b4;opacity:0.6;"/>
   </g>
   <g id="patch_101">
    <path clip-path="url(#p264e7ddd5d)" d="M 1342.876338 828.779375 
L 1355.20829 828.779375 
L 1355.20829 828.779375 
L 1342.876338 828.779375 
z
" style="fill:#1f77b4;opacity:0.6;"/>
   </g>
   <g id="patch_102">
    <path clip-path="url(#p264e7ddd5d)" d="M 1355.20829 828.779375 
L 1367.540241 828.779375 
L 1367.540241 828.334572 
L 1355.20829 828.334572 
z
" style="fill:#1f77b4;opacity:0.6;"/>
   </g>
   <g id="matplotlib.axis_1">
    <g id="xtick_1">
     <g id="line2d_1">
      <defs>
       <path d="M 0 0 
L 0 3.5 
" id="m07b654c70b" style="stroke:#000000;stroke-width:0.8;"/>
      </defs>
      <g>
       <use style="stroke:#000000;stroke-width:0.8;" x="120.538066" xlink:href="#m07b654c70b" y="828.779375"/>
      </g>
     </g>
     <g id="text_1">
      <!-- 0 -->
      <g transform="translate(114.811816 849.456563)scale(0.18 -0.18)">
       <defs>
        <path d="M 2034 4250 
Q 1547 4250 1301 3770 
Q 1056 3291 1056 2328 
Q 1056 1369 1301 889 
Q 1547 409 2034 409 
Q 2525 409 2770 889 
Q 3016 1369 3016 2328 
Q 3016 3291 2770 3770 
Q 2525 4250 2034 4250 
z
M 2034 4750 
Q 2819 4750 3233 4129 
Q 3647 3509 3647 2328 
Q 3647 1150 3233 529 
Q 2819 -91 2034 -91 
Q 1250 -91 836 529 
Q 422 1150 422 2328 
Q 422 3509 836 4129 
Q 1250 4750 2034 4750 
z
" id="DejaVuSans-30" transform="scale(0.015625)"/>
       </defs>
       <use xlink:href="#DejaVuSans-30"/>
      </g>
     </g>
    </g>
    <g id="xtick_2">
     <g id="line2d_2">
      <g>
       <use style="stroke:#000000;stroke-width:0.8;" x="334.514999" xlink:href="#m07b654c70b" y="828.779375"/>
      </g>
     </g>
     <g id="text_2">
      <!-- 1 -->
      <g transform="translate(328.788749 849.456563)scale(0.18 -0.18)">
       <defs>
        <path d="M 794 531 
L 1825 531 
L 1825 4091 
L 703 3866 
L 703 4441 
L 1819 4666 
L 2450 4666 
L 2450 531 
L 3481 531 
L 3481 0 
L 794 0 
L 794 531 
z
" id="DejaVuSans-31" transform="scale(0.015625)"/>
       </defs>
       <use xlink:href="#DejaVuSans-31"/>
      </g>
     </g>
    </g>
    <g id="xtick_3">
     <g id="line2d_3">
      <g>
       <use style="stroke:#000000;stroke-width:0.8;" x="548.491931" xlink:href="#m07b654c70b" y="828.779375"/>
      </g>
     </g>
     <g id="text_3">
      <!-- 2 -->
      <g transform="translate(542.765681 849.456563)scale(0.18 -0.18)">
       <defs>
        <path d="M 1228 531 
L 3431 531 
L 3431 0 
L 469 0 
L 469 531 
Q 828 903 1448 1529 
Q 2069 2156 2228 2338 
Q 2531 2678 2651 2914 
Q 2772 3150 2772 3378 
Q 2772 3750 2511 3984 
Q 2250 4219 1831 4219 
Q 1534 4219 1204 4116 
Q 875 4013 500 3803 
L 500 4441 
Q 881 4594 1212 4672 
Q 1544 4750 1819 4750 
Q 2544 4750 2975 4387 
Q 3406 4025 3406 3419 
Q 3406 3131 3298 2873 
Q 3191 2616 2906 2266 
Q 2828 2175 2409 1742 
Q 1991 1309 1228 531 
z
" id="DejaVuSans-32" transform="scale(0.015625)"/>
       </defs>
       <use xlink:href="#DejaVuSans-32"/>
      </g>
     </g>
    </g>
    <g id="xtick_4">
     <g id="line2d_4">
      <g>
       <use style="stroke:#000000;stroke-width:0.8;" x="762.468864" xlink:href="#m07b654c70b" y="828.779375"/>
      </g>
     </g>
     <g id="text_4">
      <!-- 3 -->
      <g transform="translate(756.742614 849.456563)scale(0.18 -0.18)">
       <defs>
        <path d="M 2597 2516 
Q 3050 2419 3304 2112 
Q 3559 1806 3559 1356 
Q 3559 666 3084 287 
Q 2609 -91 1734 -91 
Q 1441 -91 1130 -33 
Q 819 25 488 141 
L 488 750 
Q 750 597 1062 519 
Q 1375 441 1716 441 
Q 2309 441 2620 675 
Q 2931 909 2931 1356 
Q 2931 1769 2642 2001 
Q 2353 2234 1838 2234 
L 1294 2234 
L 1294 2753 
L 1863 2753 
Q 2328 2753 2575 2939 
Q 2822 3125 2822 3475 
Q 2822 3834 2567 4026 
Q 2313 4219 1838 4219 
Q 1578 4219 1281 4162 
Q 984 4106 628 3988 
L 628 4550 
Q 988 4650 1302 4700 
Q 1616 4750 1894 4750 
Q 2613 4750 3031 4423 
Q 3450 4097 3450 3541 
Q 3450 3153 3228 2886 
Q 3006 2619 2597 2516 
z
" id="DejaVuSans-33" transform="scale(0.015625)"/>
       </defs>
       <use xlink:href="#DejaVuSans-33"/>
      </g>
     </g>
    </g>
    <g id="xtick_5">
     <g id="line2d_5">
      <g>
       <use style="stroke:#000000;stroke-width:0.8;" x="976.445797" xlink:href="#m07b654c70b" y="828.779375"/>
      </g>
     </g>
     <g id="text_5">
      <!-- 4 -->
      <g transform="translate(970.719547 849.456563)scale(0.18 -0.18)">
       <defs>
        <path d="M 2419 4116 
L 825 1625 
L 2419 1625 
L 2419 4116 
z
M 2253 4666 
L 3047 4666 
L 3047 1625 
L 3713 1625 
L 3713 1100 
L 3047 1100 
L 3047 0 
L 2419 0 
L 2419 1100 
L 313 1100 
L 313 1709 
L 2253 4666 
z
" id="DejaVuSans-34" transform="scale(0.015625)"/>
       </defs>
       <use xlink:href="#DejaVuSans-34"/>
      </g>
     </g>
    </g>
    <g id="xtick_6">
     <g id="line2d_6">
      <g>
       <use style="stroke:#000000;stroke-width:0.8;" x="1190.422729" xlink:href="#m07b654c70b" y="828.779375"/>
      </g>
     </g>
     <g id="text_6">
      <!-- 5 -->
      <g transform="translate(1184.696479 849.456563)scale(0.18 -0.18)">
       <defs>
        <path d="M 691 4666 
L 3169 4666 
L 3169 4134 
L 1269 4134 
L 1269 2991 
Q 1406 3038 1543 3061 
Q 1681 3084 1819 3084 
Q 2600 3084 3056 2656 
Q 3513 2228 3513 1497 
Q 3513 744 3044 326 
Q 2575 -91 1722 -91 
Q 1428 -91 1123 -41 
Q 819 9 494 109 
L 494 744 
Q 775 591 1075 516 
Q 1375 441 1709 441 
Q 2250 441 2565 725 
Q 2881 1009 2881 1497 
Q 2881 1984 2565 2268 
Q 2250 2553 1709 2553 
Q 1456 2553 1204 2497 
Q 953 2441 691 2322 
L 691 4666 
z
" id="DejaVuSans-35" transform="scale(0.015625)"/>
       </defs>
       <use xlink:href="#DejaVuSans-35"/>
      </g>
     </g>
    </g>
    <g id="xtick_7">
     <g id="line2d_7">
      <g>
       <use style="stroke:#000000;stroke-width:0.8;" x="1404.399662" xlink:href="#m07b654c70b" y="828.779375"/>
      </g>
     </g>
     <g id="text_7">
      <!-- 6 -->
      <g transform="translate(1398.673412 849.456563)scale(0.18 -0.18)">
       <defs>
        <path d="M 2113 2584 
Q 1688 2584 1439 2293 
Q 1191 2003 1191 1497 
Q 1191 994 1439 701 
Q 1688 409 2113 409 
Q 2538 409 2786 701 
Q 3034 994 3034 1497 
Q 3034 2003 2786 2293 
Q 2538 2584 2113 2584 
z
M 3366 4563 
L 3366 3988 
Q 3128 4100 2886 4159 
Q 2644 4219 2406 4219 
Q 1781 4219 1451 3797 
Q 1122 3375 1075 2522 
Q 1259 2794 1537 2939 
Q 1816 3084 2150 3084 
Q 2853 3084 3261 2657 
Q 3669 2231 3669 1497 
Q 3669 778 3244 343 
Q 2819 -91 2113 -91 
Q 1303 -91 875 529 
Q 447 1150 447 2328 
Q 447 3434 972 4092 
Q 1497 4750 2381 4750 
Q 2619 4750 2861 4703 
Q 3103 4656 3366 4563 
z
" id="DejaVuSans-36" transform="scale(0.015625)"/>
       </defs>
       <use xlink:href="#DejaVuSans-36"/>
      </g>
     </g>
    </g>
   </g>
   <g id="matplotlib.axis_2">
    <g id="ytick_1">
     <g id="line2d_8">
      <defs>
       <path d="M 0 0 
L -3.5 0 
" id="m4dc85a61b8" style="stroke:#000000;stroke-width:0.8;"/>
      </defs>
      <g>
       <use style="stroke:#000000;stroke-width:0.8;" x="72.685313" xlink:href="#m4dc85a61b8" y="828.779375"/>
      </g>
     </g>
     <g id="text_8">
      <!-- 0.0 -->
      <g transform="translate(37.059688 835.617969)scale(0.18 -0.18)">
       <defs>
        <path d="M 684 794 
L 1344 794 
L 1344 0 
L 684 0 
L 684 794 
z
" id="DejaVuSans-2e" transform="scale(0.015625)"/>
       </defs>
       <use xlink:href="#DejaVuSans-30"/>
       <use x="63.623047" xlink:href="#DejaVuSans-2e"/>
       <use x="95.410156" xlink:href="#DejaVuSans-30"/>
      </g>
     </g>
    </g>
    <g id="ytick_2">
     <g id="line2d_9">
      <g>
       <use style="stroke:#000000;stroke-width:0.8;" x="72.685313" xlink:href="#m4dc85a61b8" y="700.604647"/>
      </g>
     </g>
     <g id="text_9">
      <!-- 0.1 -->
      <g transform="translate(37.059688 707.443241)scale(0.18 -0.18)">
       <use xlink:href="#DejaVuSans-30"/>
       <use x="63.623047" xlink:href="#DejaVuSans-2e"/>
       <use x="95.410156" xlink:href="#DejaVuSans-31"/>
      </g>
     </g>
    </g>
    <g id="ytick_3">
     <g id="line2d_10">
      <g>
       <use style="stroke:#000000;stroke-width:0.8;" x="72.685313" xlink:href="#m4dc85a61b8" y="572.42992"/>
      </g>
     </g>
     <g id="text_10">
      <!-- 0.2 -->
      <g transform="translate(37.059688 579.268513)scale(0.18 -0.18)">
       <use xlink:href="#DejaVuSans-30"/>
       <use x="63.623047" xlink:href="#DejaVuSans-2e"/>
       <use x="95.410156" xlink:href="#DejaVuSans-32"/>
      </g>
     </g>
    </g>
    <g id="ytick_4">
     <g id="line2d_11">
      <g>
       <use style="stroke:#000000;stroke-width:0.8;" x="72.685313" xlink:href="#m4dc85a61b8" y="444.255192"/>
      </g>
     </g>
     <g id="text_11">
      <!-- 0.3 -->
      <g transform="translate(37.059688 451.093786)scale(0.18 -0.18)">
       <use xlink:href="#DejaVuSans-30"/>
       <use x="63.623047" xlink:href="#DejaVuSans-2e"/>
       <use x="95.410156" xlink:href="#DejaVuSans-33"/>
      </g>
     </g>
    </g>
    <g id="ytick_5">
     <g id="line2d_12">
      <g>
       <use style="stroke:#000000;stroke-width:0.8;" x="72.685313" xlink:href="#m4dc85a61b8" y="316.080464"/>
      </g>
     </g>
     <g id="text_12">
      <!-- 0.4 -->
      <g transform="translate(37.059688 322.919058)scale(0.18 -0.18)">
       <use xlink:href="#DejaVuSans-30"/>
       <use x="63.623047" xlink:href="#DejaVuSans-2e"/>
       <use x="95.410156" xlink:href="#DejaVuSans-34"/>
      </g>
     </g>
    </g>
    <g id="ytick_6">
     <g id="line2d_13">
      <g>
       <use style="stroke:#000000;stroke-width:0.8;" x="72.685313" xlink:href="#m4dc85a61b8" y="187.905737"/>
      </g>
     </g>
     <g id="text_13">
      <!-- 0.5 -->
      <g transform="translate(37.059688 194.74433)scale(0.18 -0.18)">
       <use xlink:href="#DejaVuSans-30"/>
       <use x="63.623047" xlink:href="#DejaVuSans-2e"/>
       <use x="95.410156" xlink:href="#DejaVuSans-35"/>
      </g>
     </g>
    </g>
    <g id="ytick_7">
     <g id="line2d_14">
      <g>
       <use style="stroke:#000000;stroke-width:0.8;" x="72.685313" xlink:href="#m4dc85a61b8" y="59.731009"/>
      </g>
     </g>
     <g id="text_14">
      <!-- 0.6 -->
      <g transform="translate(37.059688 66.569603)scale(0.18 -0.18)">
       <use xlink:href="#DejaVuSans-30"/>
       <use x="63.623047" xlink:href="#DejaVuSans-2e"/>
       <use x="95.410156" xlink:href="#DejaVuSans-36"/>
      </g>
     </g>
    </g>
    <g id="text_15">
     <!-- Normed Hist Counts -->
     <g transform="translate(28.276406 548.966563)rotate(-90)scale(0.23 -0.23)">
      <defs>
       <path d="M 628 4666 
L 1478 4666 
L 3547 763 
L 3547 4666 
L 4159 4666 
L 4159 0 
L 3309 0 
L 1241 3903 
L 1241 0 
L 628 0 
L 628 4666 
z
" id="DejaVuSans-4e" transform="scale(0.015625)"/>
       <path d="M 1959 3097 
Q 1497 3097 1228 2736 
Q 959 2375 959 1747 
Q 959 1119 1226 758 
Q 1494 397 1959 397 
Q 2419 397 2687 759 
Q 2956 1122 2956 1747 
Q 2956 2369 2687 2733 
Q 2419 3097 1959 3097 
z
M 1959 3584 
Q 2709 3584 3137 3096 
Q 3566 2609 3566 1747 
Q 3566 888 3137 398 
Q 2709 -91 1959 -91 
Q 1206 -91 779 398 
Q 353 888 353 1747 
Q 353 2609 779 3096 
Q 1206 3584 1959 3584 
z
" id="DejaVuSans-6f" transform="scale(0.015625)"/>
       <path d="M 2631 2963 
Q 2534 3019 2420 3045 
Q 2306 3072 2169 3072 
Q 1681 3072 1420 2755 
Q 1159 2438 1159 1844 
L 1159 0 
L 581 0 
L 581 3500 
L 1159 3500 
L 1159 2956 
Q 1341 3275 1631 3429 
Q 1922 3584 2338 3584 
Q 2397 3584 2469 3576 
Q 2541 3569 2628 3553 
L 2631 2963 
z
" id="DejaVuSans-72" transform="scale(0.015625)"/>
       <path d="M 3328 2828 
Q 3544 3216 3844 3400 
Q 4144 3584 4550 3584 
Q 5097 3584 5394 3201 
Q 5691 2819 5691 2113 
L 5691 0 
L 5113 0 
L 5113 2094 
Q 5113 2597 4934 2840 
Q 4756 3084 4391 3084 
Q 3944 3084 3684 2787 
Q 3425 2491 3425 1978 
L 3425 0 
L 2847 0 
L 2847 2094 
Q 2847 2600 2669 2842 
Q 2491 3084 2119 3084 
Q 1678 3084 1418 2786 
Q 1159 2488 1159 1978 
L 1159 0 
L 581 0 
L 581 3500 
L 1159 3500 
L 1159 2956 
Q 1356 3278 1631 3431 
Q 1906 3584 2284 3584 
Q 2666 3584 2933 3390 
Q 3200 3197 3328 2828 
z
" id="DejaVuSans-6d" transform="scale(0.015625)"/>
       <path d="M 3597 1894 
L 3597 1613 
L 953 1613 
Q 991 1019 1311 708 
Q 1631 397 2203 397 
Q 2534 397 2845 478 
Q 3156 559 3463 722 
L 3463 178 
Q 3153 47 2828 -22 
Q 2503 -91 2169 -91 
Q 1331 -91 842 396 
Q 353 884 353 1716 
Q 353 2575 817 3079 
Q 1281 3584 2069 3584 
Q 2775 3584 3186 3129 
Q 3597 2675 3597 1894 
z
M 3022 2063 
Q 3016 2534 2758 2815 
Q 2500 3097 2075 3097 
Q 1594 3097 1305 2825 
Q 1016 2553 972 2059 
L 3022 2063 
z
" id="DejaVuSans-65" transform="scale(0.015625)"/>
       <path d="M 2906 2969 
L 2906 4863 
L 3481 4863 
L 3481 0 
L 2906 0 
L 2906 525 
Q 2725 213 2448 61 
Q 2172 -91 1784 -91 
Q 1150 -91 751 415 
Q 353 922 353 1747 
Q 353 2572 751 3078 
Q 1150 3584 1784 3584 
Q 2172 3584 2448 3432 
Q 2725 3281 2906 2969 
z
M 947 1747 
Q 947 1113 1208 752 
Q 1469 391 1925 391 
Q 2381 391 2643 752 
Q 2906 1113 2906 1747 
Q 2906 2381 2643 2742 
Q 2381 3103 1925 3103 
Q 1469 3103 1208 2742 
Q 947 2381 947 1747 
z
" id="DejaVuSans-64" transform="scale(0.015625)"/>
       <path id="DejaVuSans-20" transform="scale(0.015625)"/>
       <path d="M 628 4666 
L 1259 4666 
L 1259 2753 
L 3553 2753 
L 3553 4666 
L 4184 4666 
L 4184 0 
L 3553 0 
L 3553 2222 
L 1259 2222 
L 1259 0 
L 628 0 
L 628 4666 
z
" id="DejaVuSans-48" transform="scale(0.015625)"/>
       <path d="M 603 3500 
L 1178 3500 
L 1178 0 
L 603 0 
L 603 3500 
z
M 603 4863 
L 1178 4863 
L 1178 4134 
L 603 4134 
L 603 4863 
z
" id="DejaVuSans-69" transform="scale(0.015625)"/>
       <path d="M 2834 3397 
L 2834 2853 
Q 2591 2978 2328 3040 
Q 2066 3103 1784 3103 
Q 1356 3103 1142 2972 
Q 928 2841 928 2578 
Q 928 2378 1081 2264 
Q 1234 2150 1697 2047 
L 1894 2003 
Q 2506 1872 2764 1633 
Q 3022 1394 3022 966 
Q 3022 478 2636 193 
Q 2250 -91 1575 -91 
Q 1294 -91 989 -36 
Q 684 19 347 128 
L 347 722 
Q 666 556 975 473 
Q 1284 391 1588 391 
Q 1994 391 2212 530 
Q 2431 669 2431 922 
Q 2431 1156 2273 1281 
Q 2116 1406 1581 1522 
L 1381 1569 
Q 847 1681 609 1914 
Q 372 2147 372 2553 
Q 372 3047 722 3315 
Q 1072 3584 1716 3584 
Q 2034 3584 2315 3537 
Q 2597 3491 2834 3397 
z
" id="DejaVuSans-73" transform="scale(0.015625)"/>
       <path d="M 1172 4494 
L 1172 3500 
L 2356 3500 
L 2356 3053 
L 1172 3053 
L 1172 1153 
Q 1172 725 1289 603 
Q 1406 481 1766 481 
L 2356 481 
L 2356 0 
L 1766 0 
Q 1100 0 847 248 
Q 594 497 594 1153 
L 594 3053 
L 172 3053 
L 172 3500 
L 594 3500 
L 594 4494 
L 1172 4494 
z
" id="DejaVuSans-74" transform="scale(0.015625)"/>
       <path d="M 4122 4306 
L 4122 3641 
Q 3803 3938 3442 4084 
Q 3081 4231 2675 4231 
Q 1875 4231 1450 3742 
Q 1025 3253 1025 2328 
Q 1025 1406 1450 917 
Q 1875 428 2675 428 
Q 3081 428 3442 575 
Q 3803 722 4122 1019 
L 4122 359 
Q 3791 134 3420 21 
Q 3050 -91 2638 -91 
Q 1578 -91 968 557 
Q 359 1206 359 2328 
Q 359 3453 968 4101 
Q 1578 4750 2638 4750 
Q 3056 4750 3426 4639 
Q 3797 4528 4122 4306 
z
" id="DejaVuSans-43" transform="scale(0.015625)"/>
       <path d="M 544 1381 
L 544 3500 
L 1119 3500 
L 1119 1403 
Q 1119 906 1312 657 
Q 1506 409 1894 409 
Q 2359 409 2629 706 
Q 2900 1003 2900 1516 
L 2900 3500 
L 3475 3500 
L 3475 0 
L 2900 0 
L 2900 538 
Q 2691 219 2414 64 
Q 2138 -91 1772 -91 
Q 1169 -91 856 284 
Q 544 659 544 1381 
z
M 1991 3584 
L 1991 3584 
z
" id="DejaVuSans-75" transform="scale(0.015625)"/>
       <path d="M 3513 2113 
L 3513 0 
L 2938 0 
L 2938 2094 
Q 2938 2591 2744 2837 
Q 2550 3084 2163 3084 
Q 1697 3084 1428 2787 
Q 1159 2491 1159 1978 
L 1159 0 
L 581 0 
L 581 3500 
L 1159 3500 
L 1159 2956 
Q 1366 3272 1645 3428 
Q 1925 3584 2291 3584 
Q 2894 3584 3203 3211 
Q 3513 2838 3513 2113 
z
" id="DejaVuSans-6e" transform="scale(0.015625)"/>
      </defs>
      <use xlink:href="#DejaVuSans-4e"/>
      <use x="74.804688" xlink:href="#DejaVuSans-6f"/>
      <use x="135.986328" xlink:href="#DejaVuSans-72"/>
      <use x="175.349609" xlink:href="#DejaVuSans-6d"/>
      <use x="272.761719" xlink:href="#DejaVuSans-65"/>
      <use x="334.285156" xlink:href="#DejaVuSans-64"/>
      <use x="397.761719" xlink:href="#DejaVuSans-20"/>
      <use x="429.548828" xlink:href="#DejaVuSans-48"/>
      <use x="504.744141" xlink:href="#DejaVuSans-69"/>
      <use x="532.527344" xlink:href="#DejaVuSans-73"/>
      <use x="584.626953" xlink:href="#DejaVuSans-74"/>
      <use x="623.835938" xlink:href="#DejaVuSans-20"/>
      <use x="655.623047" xlink:href="#DejaVuSans-43"/>
      <use x="725.447266" xlink:href="#DejaVuSans-6f"/>
      <use x="786.628906" xlink:href="#DejaVuSans-75"/>
      <use x="850.007812" xlink:href="#DejaVuSans-6e"/>
      <use x="913.386719" xlink:href="#DejaVuSans-74"/>
      <use x="952.595703" xlink:href="#DejaVuSans-73"/>
     </g>
    </g>
   </g>
   <g id="line2d_15">
    <path clip-path="url(#p264e7ddd5d)" d="M 137.428059 828.315763 
L 143.594035 827.742728 
L 149.760011 826.823916 
L 155.925987 825.479249 
L 162.091962 823.631225 
L 168.257938 821.205739 
L 174.423914 818.132828 
L 180.58989 814.34735 
L 186.755866 809.789605 
L 192.921842 804.405891 
L 199.087817 798.149002 
L 205.253793 790.978659 
L 211.419769 782.861881 
L 217.585745 773.773278 
L 223.751721 763.695288 
L 229.917697 752.618337 
L 236.083673 740.540934 
L 242.249648 727.469691 
L 248.415624 713.419283 
L 254.5816 698.412333 
L 260.747576 682.479237 
L 266.913552 665.657926 
L 273.079528 647.993563 
L 279.245504 629.538192 
L 285.411479 610.35033 
L 291.577455 590.494509 
L 297.743431 570.040782 
L 303.909407 549.064183 
L 316.241359 505.863965 
L 328.57331 461.571465 
L 353.237214 372.603685 
L 365.569165 329.40525 
L 371.735141 308.445292 
L 377.901117 288.027624 
L 384.067093 268.235722 
L 390.233069 249.149562 
L 396.399045 230.845146 
L 402.565021 213.394068 
L 408.730996 196.863125 
L 414.896972 181.313975 
L 421.062948 166.802831 
L 427.228924 153.380212 
L 433.3949 141.090733 
L 439.560876 129.972952 
L 445.726852 120.059251 
L 451.892827 111.375779 
L 458.058803 103.942431 
L 464.224779 97.772871 
L 470.390755 92.874604 
L 476.556731 89.249087 
L 482.722707 86.891872 
L 488.888683 85.792793 
L 495.054658 85.936182 
L 501.220634 87.301118 
L 507.38661 89.8617 
L 513.552586 93.587343 
L 519.718562 98.443104 
L 525.884538 104.390012 
L 532.050513 111.385424 
L 538.216489 119.383384 
L 544.382465 128.334992 
L 550.548441 138.188784 
L 556.714417 148.891101 
L 562.880393 160.386467 
L 569.046369 172.61796 
L 575.212344 185.527577 
L 581.37832 199.056583 
L 587.544296 213.145863 
L 593.710272 227.736247 
L 599.876248 242.768825 
L 606.042224 258.18525 
L 618.374175 289.94072 
L 630.706127 322.557277 
L 667.701982 421.528051 
L 680.033934 453.715668 
L 692.365886 485.011593 
L 698.531862 500.251018 
L 704.697837 515.18377 
L 710.863813 529.787346 
L 717.029789 544.041779 
L 723.195765 557.92958 
L 729.361741 571.435672 
L 735.527717 584.547314 
L 741.693692 597.254012 
L 747.859668 609.547429 
L 754.025644 621.421281 
L 760.19162 632.871235 
L 766.357596 643.894798 
L 772.523572 654.491204 
L 778.689548 664.661302 
L 784.855523 674.407436 
L 791.021499 683.733331 
L 797.187475 692.64398 
L 803.353451 701.145523 
L 809.519427 709.245142 
L 815.685403 716.950944 
L 821.851379 724.271858 
L 828.017354 731.217533 
L 834.18333 737.798234 
L 840.349306 744.024751 
L 846.515282 749.908305 
L 852.681258 755.460466 
L 858.847234 760.693068 
L 865.01321 765.618138 
L 871.179185 770.247822 
L 877.345161 774.59432 
L 883.511137 778.669828 
L 889.677113 782.486483 
L 895.843089 786.056309 
L 902.009065 789.391179 
L 908.17504 792.502768 
L 914.341016 795.402521 
L 920.506992 798.101621 
L 926.672968 800.610964 
L 932.838944 802.941134 
L 939.00492 805.102383 
L 945.170896 807.104619 
L 951.336871 808.95739 
L 957.502847 810.669879 
L 963.668823 812.250893 
L 969.834799 813.708864 
L 982.166751 816.28751 
L 994.498702 818.465731 
L 1006.830654 820.297534 
L 1019.162606 821.831237 
L 1031.494558 823.109754 
L 1043.826509 824.170939 
L 1056.158461 825.047961 
L 1074.656388 826.080286 
L 1093.154316 826.843777 
L 1111.652244 827.40316 
L 1136.316147 827.917562 
L 1167.146026 828.309364 
L 1210.307857 828.585998 
L 1278.133592 828.735681 
L 1364.457254 828.77377 
L 1364.457254 828.77377 
" style="fill:none;stroke:#ff7f0e;stroke-linecap:square;stroke-width:2;"/>
   </g>
   <g id="line2d_16">
    <path clip-path="url(#p264e7ddd5d)" d="M 137.428059 824.849015 
L 143.594035 823.706043 
L 149.760011 822.300015 
L 155.925987 820.587768 
L 162.091962 818.522641 
L 168.257938 816.05481 
L 174.423914 813.131735 
L 180.58989 809.698718 
L 186.755866 805.699564 
L 192.921842 801.077333 
L 199.087817 795.775184 
L 205.253793 789.737277 
L 211.419769 782.909737 
L 217.585745 775.241646 
L 223.751721 766.686049 
L 229.917697 757.200951 
L 236.083673 746.750282 
L 242.249648 735.30482 
L 248.415624 722.843028 
L 254.5816 709.351815 
L 260.747576 694.82718 
L 266.913552 679.27474 
L 273.079528 662.710119 
L 279.245504 645.159205 
L 285.411479 626.658244 
L 291.577455 607.253792 
L 297.743431 587.002516 
L 303.909407 565.970843 
L 310.075383 544.23447 
L 316.241359 521.877739 
L 322.407335 498.992894 
L 334.739286 452.04213 
L 365.569165 332.987416 
L 371.735141 309.829367 
L 377.901117 287.164979 
L 384.067093 265.108688 
L 390.233069 243.771083 
L 396.399045 223.257943 
L 402.565021 203.669349 
L 408.730996 185.098881 
L 414.896972 167.632911 
L 421.062948 151.349989 
L 427.228924 136.320343 
L 433.3949 122.605465 
L 439.560876 110.257824 
L 445.726852 99.32066 
L 451.892827 89.827896 
L 458.058803 81.804136 
L 464.224779 75.264764 
L 470.390755 70.216119 
L 476.556731 66.655757 
L 482.722707 64.572782 
L 488.888683 63.948244 
L 495.054658 64.755589 
L 501.220634 66.961157 
L 507.38661 70.524725 
L 513.552586 75.400078 
L 519.718562 81.535597 
L 525.884538 88.874876 
L 532.050513 97.357333 
L 538.216489 106.918834 
L 544.382465 117.492301 
L 550.548441 129.008318 
L 556.714417 141.395716 
L 562.880393 154.582136 
L 569.046369 168.494568 
L 575.212344 183.059866 
L 581.37832 198.205222 
L 587.544296 213.858613 
L 593.710272 229.949213 
L 606.042224 263.1669 
L 618.374175 297.328796 
L 655.370031 400.808502 
L 667.701982 434.31987 
L 680.033934 466.814119 
L 686.19991 482.60371 
L 692.365886 498.054022 
L 698.531862 513.143177 
L 704.697837 527.852222 
L 710.863813 542.165014 
L 717.029789 556.068094 
L 723.195765 569.550553 
L 729.361741 582.603897 
L 735.527717 595.221899 
L 741.693692 607.400456 
L 747.859668 619.137447 
L 754.025644 630.432578 
L 760.19162 641.287247 
L 766.357596 651.704392 
L 772.523572 661.688356 
L 778.689548 671.244749 
L 784.855523 680.380317 
L 791.021499 689.102812 
L 797.187475 697.420876 
L 803.353451 705.343918 
L 809.519427 712.88201 
L 815.685403 720.045779 
L 821.851379 726.846312 
L 828.017354 733.295064 
L 834.18333 739.403771 
L 840.349306 745.184375 
L 846.515282 750.648951 
L 852.681258 755.809639 
L 858.847234 760.678584 
L 865.01321 765.267884 
L 871.179185 769.589536 
L 877.345161 773.655399 
L 883.511137 777.477149 
L 889.677113 781.066247 
L 895.843089 784.433912 
L 902.009065 787.591092 
L 908.17504 790.548444 
L 914.341016 793.316317 
L 920.506992 795.904736 
L 926.672968 798.323393 
L 932.838944 800.581636 
L 939.00492 802.688465 
L 945.170896 804.652529 
L 951.336871 806.482122 
L 957.502847 808.185187 
L 969.834799 811.241753 
L 982.166751 813.878841 
L 994.498702 816.147714 
L 1006.830654 818.094528 
L 1019.162606 819.760626 
L 1031.494558 821.182855 
L 1043.826509 822.393901 
L 1056.158461 823.422634 
L 1074.656388 824.678572 
L 1093.154316 825.653452 
L 1111.652244 826.40644 
L 1136.316147 827.146374 
L 1160.98005 827.663277 
L 1191.80993 828.092189 
L 1234.971761 828.43656 
L 1296.631519 828.656315 
L 1364.457254 828.741021 
L 1364.457254 828.741021 
" style="fill:none;stroke:#2ca02c;stroke-linecap:square;stroke-width:2;"/>
   </g>
   <g id="line2d_17">
    <path clip-path="url(#p264e7ddd5d)" d="M 137.428059 127.915378 
L 149.760011 149.828256 
L 162.091962 171.056015 
L 174.423914 191.620078 
L 186.755866 211.541195 
L 199.087817 230.839467 
L 211.419769 249.534369 
L 223.751721 267.644765 
L 236.083673 285.188931 
L 248.415624 302.184568 
L 260.747576 318.648829 
L 273.079528 334.598325 
L 285.411479 350.049153 
L 297.743431 365.016902 
L 310.075383 379.516677 
L 322.407335 393.563108 
L 334.739286 407.170371 
L 347.071238 420.352196 
L 359.40319 433.121884 
L 371.735141 445.492321 
L 384.067093 457.47599 
L 396.399045 469.084983 
L 408.730996 480.331015 
L 421.062948 491.225434 
L 433.3949 501.779234 
L 445.726852 512.003063 
L 458.058803 521.907239 
L 470.390755 531.501756 
L 482.722707 540.796295 
L 495.054658 549.800236 
L 507.38661 558.522664 
L 519.718562 566.97238 
L 532.050513 575.157912 
L 544.382465 583.087519 
L 556.714417 590.769203 
L 569.046369 598.210714 
L 581.37832 605.419563 
L 593.710272 612.403024 
L 606.042224 619.168143 
L 618.374175 625.721747 
L 630.706127 632.070449 
L 643.038079 638.220656 
L 655.370031 644.178574 
L 667.701982 649.950214 
L 680.033934 655.5414 
L 692.365886 660.957776 
L 704.697837 666.204805 
L 717.029789 671.287784 
L 735.527717 678.615831 
L 754.025644 685.602907 
L 772.523572 692.264875 
L 791.021499 698.616864 
L 809.519427 704.673296 
L 828.017354 710.447923 
L 846.515282 715.953859 
L 865.01321 721.203604 
L 883.511137 726.20908 
L 902.009065 730.981653 
L 920.506992 735.532159 
L 939.00492 739.87093 
L 957.502847 744.00782 
L 976.000775 747.952221 
L 994.498702 751.71309 
L 1012.99663 755.298967 
L 1037.660533 759.821944 
L 1062.324437 764.066515 
L 1086.98834 768.049819 
L 1111.652244 771.787936 
L 1136.316147 775.295959 
L 1160.98005 778.588051 
L 1185.643954 781.677503 
L 1210.307857 784.576788 
L 1241.137737 787.951236 
L 1271.967616 791.068077 
L 1302.797495 793.946977 
L 1333.627374 796.6061 
L 1364.457254 799.062225 
L 1364.457254 799.062225 
" style="fill:none;stroke:#d62728;stroke-linecap:square;stroke-width:2;"/>
   </g>
   <g id="line2d_18">
    <path clip-path="url(#p264e7ddd5d)" d="M 137.428059 781.693444 
L 143.594035 779.144289 
L 149.760011 776.457128 
L 155.925987 773.624488 
L 162.091962 770.638494 
L 168.257938 767.490843 
L 174.423914 764.172783 
L 180.58989 760.675089 
L 186.755866 756.988036 
L 192.921842 753.101372 
L 199.087817 749.00429 
L 205.253793 744.685399 
L 211.419769 740.13269 
L 217.585745 735.333505 
L 223.751721 730.274501 
L 229.917697 724.94161 
L 236.083673 719.320005 
L 242.249648 713.394056 
L 248.415624 707.147286 
L 254.5816 700.562326 
L 260.747576 693.620867 
L 266.913552 686.303609 
L 273.079528 678.590207 
L 279.245504 670.459215 
L 285.411479 661.888023 
L 291.577455 652.852802 
L 297.743431 643.328428 
L 303.909407 633.288421 
L 310.075383 622.704864 
L 316.241359 611.548331 
L 322.407335 599.787802 
L 328.57331 587.390578 
L 334.739286 574.322188 
L 340.905262 560.546297 
L 347.071238 546.024602 
L 353.237214 530.716727 
L 359.40319 514.580109 
L 365.569165 497.56988 
L 371.735141 479.638747 
L 377.901117 460.736851 
L 384.067093 440.811638 
L 390.233069 419.807707 
L 396.399045 397.666658 
L 402.565021 374.326929 
L 408.730996 349.723626 
L 414.896972 323.788341 
L 421.062948 296.448963 
L 427.228924 267.629475 
L 433.3949 237.249749 
L 439.560876 205.225314 
L 445.726852 171.467129 
L 451.892827 135.881333 
L 458.058803 98.36898 
L 464.224779 58.82577 
L 470.390755 17.141757 
L 472.936495 -1 
M 553.899164 -1 
L 556.714417 19.016062 
L 562.880393 60.603815 
L 569.046369 100.055708 
L 575.212344 137.481434 
L 581.37832 172.985053 
L 587.544296 206.66528 
L 593.710272 238.615761 
L 599.876248 268.925332 
L 606.042224 297.678267 
L 612.2082 324.954511 
L 618.374175 350.829904 
L 624.540151 375.376391 
L 630.706127 398.662222 
L 636.872103 420.752141 
L 643.038079 441.707567 
L 649.204055 461.586767 
L 655.370031 480.445013 
L 661.536006 498.334739 
L 667.701982 515.305685 
L 673.867958 531.405039 
L 680.033934 546.677564 
L 686.19991 561.165724 
L 692.365886 574.909803 
L 698.531862 587.948014 
L 704.697837 600.31661 
L 710.863813 612.049981 
L 717.029789 623.18075 
L 723.195765 633.739866 
L 729.361741 643.756688 
L 735.527717 653.259067 
L 741.693692 662.273423 
L 747.859668 670.824821 
L 754.025644 678.937037 
L 760.19162 686.632627 
L 766.357596 693.932987 
L 772.523572 700.858416 
L 778.689548 707.42817 
L 784.855523 713.660514 
L 791.021499 719.572778 
L 797.187475 725.181401 
L 803.353451 730.501977 
L 809.519427 735.549299 
L 815.685403 740.337401 
L 821.851379 744.879596 
L 828.017354 749.188514 
L 834.18333 753.276134 
L 840.349306 757.153823 
L 846.515282 760.832362 
L 852.681258 764.321978 
L 858.847234 767.632376 
L 865.01321 770.772758 
L 871.179185 773.751857 
L 877.345161 776.577955 
L 883.511137 779.258911 
L 889.677113 781.802179 
L 895.843089 784.214829 
L 908.17504 788.674768 
L 920.506992 792.688365 
L 932.838944 796.300288 
L 945.170896 799.550736 
L 957.502847 802.475885 
L 969.834799 805.108291 
L 982.166751 807.47725 
L 994.498702 809.609128 
L 1006.830654 811.527652 
L 1019.162606 813.254173 
L 1031.494558 814.807907 
L 1049.992485 816.851881 
L 1068.490413 818.596829 
L 1086.98834 820.086498 
L 1105.486268 821.358234 
L 1123.984195 822.443919 
L 1148.648099 823.648547 
L 1173.312002 824.624127 
L 1204.141881 825.587037 
L 1234.971761 826.326808 
L 1271.967616 826.99192 
L 1315.129447 827.543564 
L 1364.457254 827.968841 
L 1364.457254 827.968841 
" style="fill:none;stroke:#9467bd;stroke-linecap:square;stroke-width:2;"/>
   </g>
   <g id="line2d_19">
    <path clip-path="url(#p264e7ddd5d)" d="M 137.428059 823.550208 
L 143.594035 822.25986 
L 149.760011 820.70981 
L 155.925987 818.861343 
L 162.091962 816.672649 
L 168.257938 814.099039 
L 174.423914 811.093254 
L 180.58989 807.60586 
L 186.755866 803.585736 
L 192.921842 798.980656 
L 199.087817 793.737945 
L 205.253793 787.805224 
L 211.419769 781.131207 
L 217.585745 773.666567 
L 223.751721 765.364826 
L 229.917697 756.183278 
L 236.083673 746.083906 
L 242.249648 735.034297 
L 248.415624 723.008507 
L 254.5816 709.987889 
L 260.747576 695.96183 
L 266.913552 680.928418 
L 273.079528 664.894986 
L 279.245504 647.878548 
L 285.411479 629.906095 
L 291.577455 611.01476 
L 297.743431 591.251828 
L 303.909407 570.674602 
L 310.075383 549.350116 
L 316.241359 527.354712 
L 322.407335 504.773463 
L 334.739286 458.233066 
L 353.237214 386.570684 
L 365.569165 338.907294 
L 377.901117 292.458495 
L 384.067093 269.990673 
L 390.233069 248.183445 
L 396.399045 227.149266 
L 402.565021 206.995578 
L 408.730996 187.823852 
L 414.896972 169.728728 
L 421.062948 152.797241 
L 427.228924 137.108168 
L 433.3949 122.731466 
L 439.560876 109.727845 
L 445.726852 98.148437 
L 451.892827 88.034592 
L 458.058803 79.417777 
L 464.224779 72.319589 
L 470.390755 66.75187 
L 476.556731 62.716911 
L 482.722707 60.207753 
L 488.888683 59.208564 
L 495.054658 59.695092 
L 501.220634 61.635168 
L 507.38661 64.989277 
L 513.552586 69.711162 
L 519.718562 75.74846 
L 525.884538 83.043371 
L 532.050513 91.533329 
L 538.216489 101.151692 
L 544.382465 111.828422 
L 550.548441 123.490755 
L 556.714417 136.063862 
L 562.880393 149.471483 
L 569.046369 163.636535 
L 575.212344 178.48169 
L 581.37832 193.929914 
L 587.544296 209.904972 
L 593.710272 226.331893 
L 606.042224 260.250219 
L 618.374175 295.125256 
L 649.204055 383.229654 
L 661.536006 417.720462 
L 673.867958 451.260114 
L 680.033934 467.586871 
L 686.19991 483.579156 
L 692.365886 499.211868 
L 698.531862 514.463146 
L 704.697837 529.314246 
L 710.863813 543.749409 
L 717.029789 557.755712 
L 723.195765 571.322913 
L 729.361741 584.443301 
L 735.527717 597.111526 
L 741.693692 609.324442 
L 747.859668 621.080939 
L 754.025644 632.381787 
L 760.19162 643.229469 
L 766.357596 653.628026 
L 772.523572 663.582908 
L 778.689548 673.100822 
L 784.855523 682.189594 
L 791.021499 690.858028 
L 797.187475 699.11578 
L 803.353451 706.973237 
L 809.519427 714.441399 
L 815.685403 721.531771 
L 821.851379 728.256263 
L 828.017354 734.627098 
L 834.18333 740.656723 
L 840.349306 746.357731 
L 846.515282 751.742789 
L 852.681258 756.824571 
L 858.847234 761.615702 
L 865.01321 766.128701 
L 871.179185 770.375936 
L 877.345161 774.369582 
L 883.511137 778.121587 
L 889.677113 781.643636 
L 895.843089 784.947127 
L 902.009065 788.043151 
L 908.17504 790.94247 
L 914.341016 793.655502 
L 920.506992 796.192312 
L 926.672968 798.562605 
L 932.838944 800.775715 
L 939.00492 802.840607 
L 945.170896 804.765875 
L 951.336871 806.559743 
L 957.502847 808.230066 
L 969.834799 811.2297 
L 982.166751 813.820496 
L 994.498702 816.052723 
L 1006.830654 817.971493 
L 1019.162606 819.617094 
L 1031.494558 821.025342 
L 1043.826509 822.227943 
L 1056.158461 823.252847 
L 1074.656388 824.509883 
L 1093.154316 825.491895 
L 1111.652244 826.256004 
L 1136.316147 827.014201 
L 1160.98005 827.550744 
L 1191.80993 828.003368 
L 1234.971761 828.37609 
L 1290.465543 828.608497 
L 1364.457254 828.726376 
L 1364.457254 828.726376 
" style="fill:none;stroke:#8c564b;stroke-linecap:square;stroke-width:2;"/>
   </g>
   <g id="line2d_20">
    <path clip-path="url(#p264e7ddd5d)" d="M 137.428059 805.707828 
L 143.594035 803.010608 
L 149.760011 800.049376 
L 155.925987 796.804955 
L 162.091962 793.257589 
L 168.257938 789.387015 
L 174.423914 785.172571 
L 180.58989 780.593295 
L 186.755866 775.628061 
L 192.921842 770.255714 
L 199.087817 764.455228 
L 205.253793 758.205876 
L 211.419769 751.487411 
L 217.585745 744.280272 
L 223.751721 736.565785 
L 229.917697 728.326394 
L 236.083673 719.545887 
L 242.249648 710.209642 
L 248.415624 700.30487 
L 254.5816 689.82087 
L 260.747576 678.749279 
L 266.913552 667.084331 
L 273.079528 654.823099 
L 279.245504 641.965742 
L 285.411479 628.515738 
L 291.577455 614.480099 
L 297.743431 599.869579 
L 303.909407 584.698853 
L 310.075383 568.986678 
L 316.241359 552.756024 
L 322.407335 536.034177 
L 328.57331 518.852808 
L 334.739286 501.248004 
L 347.071238 464.934461 
L 359.40319 427.469363 
L 377.901117 370.095416 
L 396.399045 312.870804 
L 408.730996 275.763554 
L 414.896972 257.75116 
L 421.062948 240.203238 
L 427.228924 223.197591 
L 433.3949 206.811396 
L 439.560876 191.120631 
L 445.726852 176.199489 
L 451.892827 162.119805 
L 458.058803 148.950475 
L 464.224779 136.756903 
L 470.390755 125.600455 
L 476.556731 115.53795 
L 482.722707 106.621178 
L 488.888683 98.896453 
L 495.054658 92.404217 
L 501.220634 87.178683 
L 507.38661 83.247538 
L 513.552586 80.631697 
L 519.718562 79.345118 
L 525.884538 79.394678 
L 532.050513 80.780113 
L 538.216489 83.494017 
L 544.382465 87.521911 
L 550.548441 92.842372 
L 556.714417 99.42722 
L 562.880393 107.241767 
L 569.046369 116.245127 
L 575.212344 126.390562 
L 581.37832 137.625896 
L 587.544296 149.893955 
L 593.710272 163.133056 
L 599.876248 177.277517 
L 606.042224 192.258205 
L 612.2082 208.003091 
L 618.374175 224.437828 
L 624.540151 241.486331 
L 630.706127 259.071356 
L 636.872103 277.115077 
L 649.204055 314.267762 
L 661.536006 352.331091 
L 686.19991 428.873503 
L 698.531862 466.303413 
L 710.863813 502.566632 
L 717.029789 520.141384 
L 723.195765 537.289876 
L 729.361741 553.976345 
L 735.527717 570.16945 
L 741.693692 585.842226 
L 747.859668 600.972019 
L 754.025644 615.54038 
L 760.19162 629.53293 
L 766.357596 642.9392 
L 772.523572 655.752446 
L 778.689548 667.969444 
L 784.855523 679.590273 
L 791.021499 690.618076 
L 797.187475 701.058824 
L 803.353451 710.921059 
L 809.519427 720.215647 
L 815.685403 728.955521 
L 821.851379 737.155429 
L 828.017354 744.831691 
L 834.18333 752.001954 
L 840.349306 758.684965 
L 846.515282 764.900343 
L 852.681258 770.668377 
L 858.847234 776.009822 
L 865.01321 780.94572 
L 871.179185 785.497229 
L 877.345161 789.685468 
L 883.511137 793.531378 
L 889.677113 797.055599 
L 895.843089 800.278357 
L 902.009065 803.219369 
L 908.17504 805.897764 
L 914.341016 808.332012 
L 920.506992 810.539868 
L 926.672968 812.538331 
L 932.838944 814.343608 
L 939.00492 815.971093 
L 945.170896 817.435356 
L 951.336871 818.750134 
L 957.502847 819.928336 
L 963.668823 820.982052 
L 976.000775 822.760389 
L 988.332727 824.166185 
L 1000.664678 825.268788 
L 1012.99663 826.126857 
L 1025.328582 826.789448 
L 1043.826509 827.503543 
L 1062.324437 827.974413 
L 1086.98834 828.354525 
L 1117.818219 828.595774 
L 1167.146026 828.735663 
L 1290.465543 828.778641 
L 1364.457254 828.77933 
L 1364.457254 828.77933 
" style="fill:none;stroke:#e377c2;stroke-linecap:square;stroke-width:2;"/>
   </g>
   <g id="patch_103">
    <path d="M 72.685313 828.779375 
L 72.685313 38.075625 
" style="fill:none;stroke:#000000;stroke-linecap:square;stroke-linejoin:miter;stroke-width:0.8;"/>
   </g>
   <g id="patch_104">
    <path d="M 1429.2 828.779375 
L 1429.2 38.075625 
" style="fill:none;stroke:#000000;stroke-linecap:square;stroke-linejoin:miter;stroke-width:0.8;"/>
   </g>
   <g id="patch_105">
    <path d="M 72.685313 828.779375 
L 1429.2 828.779375 
" style="fill:none;stroke:#000000;stroke-linecap:square;stroke-linejoin:miter;stroke-width:0.8;"/>
   </g>
   <g id="patch_106">
    <path d="M 72.685313 38.075625 
L 1429.2 38.075625 
" style="fill:none;stroke:#000000;stroke-linecap:square;stroke-linejoin:miter;stroke-width:0.8;"/>
   </g>
   <g id="text_16">
    <!-- All Fitted Distributions -->
    <g transform="translate(596.317031 32.075625)scale(0.28 -0.28)">
     <defs>
      <path d="M 2188 4044 
L 1331 1722 
L 3047 1722 
L 2188 4044 
z
M 1831 4666 
L 2547 4666 
L 4325 0 
L 3669 0 
L 3244 1197 
L 1141 1197 
L 716 0 
L 50 0 
L 1831 4666 
z
" id="DejaVuSans-41" transform="scale(0.015625)"/>
      <path d="M 603 4863 
L 1178 4863 
L 1178 0 
L 603 0 
L 603 4863 
z
" id="DejaVuSans-6c" transform="scale(0.015625)"/>
      <path d="M 628 4666 
L 3309 4666 
L 3309 4134 
L 1259 4134 
L 1259 2759 
L 3109 2759 
L 3109 2228 
L 1259 2228 
L 1259 0 
L 628 0 
L 628 4666 
z
" id="DejaVuSans-46" transform="scale(0.015625)"/>
      <path d="M 1259 4147 
L 1259 519 
L 2022 519 
Q 2988 519 3436 956 
Q 3884 1394 3884 2338 
Q 3884 3275 3436 3711 
Q 2988 4147 2022 4147 
L 1259 4147 
z
M 628 4666 
L 1925 4666 
Q 3281 4666 3915 4102 
Q 4550 3538 4550 2338 
Q 4550 1131 3912 565 
Q 3275 0 1925 0 
L 628 0 
L 628 4666 
z
" id="DejaVuSans-44" transform="scale(0.015625)"/>
      <path d="M 3116 1747 
Q 3116 2381 2855 2742 
Q 2594 3103 2138 3103 
Q 1681 3103 1420 2742 
Q 1159 2381 1159 1747 
Q 1159 1113 1420 752 
Q 1681 391 2138 391 
Q 2594 391 2855 752 
Q 3116 1113 3116 1747 
z
M 1159 2969 
Q 1341 3281 1617 3432 
Q 1894 3584 2278 3584 
Q 2916 3584 3314 3078 
Q 3713 2572 3713 1747 
Q 3713 922 3314 415 
Q 2916 -91 2278 -91 
Q 1894 -91 1617 61 
Q 1341 213 1159 525 
L 1159 0 
L 581 0 
L 581 4863 
L 1159 4863 
L 1159 2969 
z
" id="DejaVuSans-62" transform="scale(0.015625)"/>
     </defs>
     <use xlink:href="#DejaVuSans-41"/>
     <use x="68.408203" xlink:href="#DejaVuSans-6c"/>
     <use x="96.191406" xlink:href="#DejaVuSans-6c"/>
     <use x="123.974609" xlink:href="#DejaVuSans-20"/>
     <use x="155.761719" xlink:href="#DejaVuSans-46"/>
     <use x="206.03125" xlink:href="#DejaVuSans-69"/>
     <use x="233.814453" xlink:href="#DejaVuSans-74"/>
     <use x="273.023438" xlink:href="#DejaVuSans-74"/>
     <use x="312.232422" xlink:href="#DejaVuSans-65"/>
     <use x="373.755859" xlink:href="#DejaVuSans-64"/>
     <use x="437.232422" xlink:href="#DejaVuSans-20"/>
     <use x="469.019531" xlink:href="#DejaVuSans-44"/>
     <use x="546.021484" xlink:href="#DejaVuSans-69"/>
     <use x="573.804688" xlink:href="#DejaVuSans-73"/>
     <use x="625.904297" xlink:href="#DejaVuSans-74"/>
     <use x="665.113281" xlink:href="#DejaVuSans-72"/>
     <use x="706.226562" xlink:href="#DejaVuSans-69"/>
     <use x="734.009766" xlink:href="#DejaVuSans-62"/>
     <use x="797.486328" xlink:href="#DejaVuSans-75"/>
     <use x="860.865234" xlink:href="#DejaVuSans-74"/>
     <use x="900.074219" xlink:href="#DejaVuSans-69"/>
     <use x="927.857422" xlink:href="#DejaVuSans-6f"/>
     <use x="989.039062" xlink:href="#DejaVuSans-6e"/>
     <use x="1052.417969" xlink:href="#DejaVuSans-73"/>
    </g>
   </g>
   <g id="legend_1">
    <g id="patch_107">
     <path d="M 1014.37125 303.868125 
L 1412.4 303.868125 
Q 1417.2 303.868125 1417.2 299.068125 
L 1417.2 54.875625 
Q 1417.2 50.075625 1412.4 50.075625 
L 1014.37125 50.075625 
Q 1009.57125 50.075625 1009.57125 54.875625 
L 1009.57125 299.068125 
Q 1009.57125 303.868125 1014.37125 303.868125 
z
" style="fill:#ffffff;opacity:0.8;stroke:#cccccc;stroke-linejoin:miter;"/>
    </g>
    <g id="line2d_21">
     <path d="M 1019.17125 69.511875 
L 1067.17125 69.511875 
" style="fill:none;stroke:#ff7f0e;stroke-linecap:square;stroke-width:2;"/>
    </g>
    <g id="line2d_22"/>
    <g id="text_17">
     <!-- Chi fit -->
     <g transform="translate(1086.37125 77.911875)scale(0.24 -0.24)">
      <defs>
       <path d="M 3513 2113 
L 3513 0 
L 2938 0 
L 2938 2094 
Q 2938 2591 2744 2837 
Q 2550 3084 2163 3084 
Q 1697 3084 1428 2787 
Q 1159 2491 1159 1978 
L 1159 0 
L 581 0 
L 581 4863 
L 1159 4863 
L 1159 2956 
Q 1366 3272 1645 3428 
Q 1925 3584 2291 3584 
Q 2894 3584 3203 3211 
Q 3513 2838 3513 2113 
z
" id="DejaVuSans-68" transform="scale(0.015625)"/>
       <path d="M 2375 4863 
L 2375 4384 
L 1825 4384 
Q 1516 4384 1395 4259 
Q 1275 4134 1275 3809 
L 1275 3500 
L 2222 3500 
L 2222 3053 
L 1275 3053 
L 1275 0 
L 697 0 
L 697 3053 
L 147 3053 
L 147 3500 
L 697 3500 
L 697 3744 
Q 697 4328 969 4595 
Q 1241 4863 1831 4863 
L 2375 4863 
z
" id="DejaVuSans-66" transform="scale(0.015625)"/>
      </defs>
      <use xlink:href="#DejaVuSans-43"/>
      <use x="69.824219" xlink:href="#DejaVuSans-68"/>
      <use x="133.203125" xlink:href="#DejaVuSans-69"/>
      <use x="160.986328" xlink:href="#DejaVuSans-20"/>
      <use x="192.773438" xlink:href="#DejaVuSans-66"/>
      <use x="227.978516" xlink:href="#DejaVuSans-69"/>
      <use x="255.761719" xlink:href="#DejaVuSans-74"/>
     </g>
    </g>
    <g id="line2d_23">
     <path d="M 1019.17125 104.739375 
L 1067.17125 104.739375 
" style="fill:none;stroke:#2ca02c;stroke-linecap:square;stroke-width:2;"/>
    </g>
    <g id="line2d_24"/>
    <g id="text_18">
     <!-- Chi-Square fit -->
     <g transform="translate(1086.37125 113.139375)scale(0.24 -0.24)">
      <defs>
       <path d="M 313 2009 
L 1997 2009 
L 1997 1497 
L 313 1497 
L 313 2009 
z
" id="DejaVuSans-2d" transform="scale(0.015625)"/>
       <path d="M 3425 4513 
L 3425 3897 
Q 3066 4069 2747 4153 
Q 2428 4238 2131 4238 
Q 1616 4238 1336 4038 
Q 1056 3838 1056 3469 
Q 1056 3159 1242 3001 
Q 1428 2844 1947 2747 
L 2328 2669 
Q 3034 2534 3370 2195 
Q 3706 1856 3706 1288 
Q 3706 609 3251 259 
Q 2797 -91 1919 -91 
Q 1588 -91 1214 -16 
Q 841 59 441 206 
L 441 856 
Q 825 641 1194 531 
Q 1563 422 1919 422 
Q 2459 422 2753 634 
Q 3047 847 3047 1241 
Q 3047 1584 2836 1778 
Q 2625 1972 2144 2069 
L 1759 2144 
Q 1053 2284 737 2584 
Q 422 2884 422 3419 
Q 422 4038 858 4394 
Q 1294 4750 2059 4750 
Q 2388 4750 2728 4690 
Q 3069 4631 3425 4513 
z
" id="DejaVuSans-53" transform="scale(0.015625)"/>
       <path d="M 947 1747 
Q 947 1113 1208 752 
Q 1469 391 1925 391 
Q 2381 391 2643 752 
Q 2906 1113 2906 1747 
Q 2906 2381 2643 2742 
Q 2381 3103 1925 3103 
Q 1469 3103 1208 2742 
Q 947 2381 947 1747 
z
M 2906 525 
Q 2725 213 2448 61 
Q 2172 -91 1784 -91 
Q 1150 -91 751 415 
Q 353 922 353 1747 
Q 353 2572 751 3078 
Q 1150 3584 1784 3584 
Q 2172 3584 2448 3432 
Q 2725 3281 2906 2969 
L 2906 3500 
L 3481 3500 
L 3481 -1331 
L 2906 -1331 
L 2906 525 
z
" id="DejaVuSans-71" transform="scale(0.015625)"/>
       <path d="M 2194 1759 
Q 1497 1759 1228 1600 
Q 959 1441 959 1056 
Q 959 750 1161 570 
Q 1363 391 1709 391 
Q 2188 391 2477 730 
Q 2766 1069 2766 1631 
L 2766 1759 
L 2194 1759 
z
M 3341 1997 
L 3341 0 
L 2766 0 
L 2766 531 
Q 2569 213 2275 61 
Q 1981 -91 1556 -91 
Q 1019 -91 701 211 
Q 384 513 384 1019 
Q 384 1609 779 1909 
Q 1175 2209 1959 2209 
L 2766 2209 
L 2766 2266 
Q 2766 2663 2505 2880 
Q 2244 3097 1772 3097 
Q 1472 3097 1187 3025 
Q 903 2953 641 2809 
L 641 3341 
Q 956 3463 1253 3523 
Q 1550 3584 1831 3584 
Q 2591 3584 2966 3190 
Q 3341 2797 3341 1997 
z
" id="DejaVuSans-61" transform="scale(0.015625)"/>
      </defs>
      <use xlink:href="#DejaVuSans-43"/>
      <use x="69.824219" xlink:href="#DejaVuSans-68"/>
      <use x="133.203125" xlink:href="#DejaVuSans-69"/>
      <use x="160.986328" xlink:href="#DejaVuSans-2d"/>
      <use x="197.070312" xlink:href="#DejaVuSans-53"/>
      <use x="260.546875" xlink:href="#DejaVuSans-71"/>
      <use x="324.023438" xlink:href="#DejaVuSans-75"/>
      <use x="387.402344" xlink:href="#DejaVuSans-61"/>
      <use x="448.681641" xlink:href="#DejaVuSans-72"/>
      <use x="487.544922" xlink:href="#DejaVuSans-65"/>
      <use x="549.068359" xlink:href="#DejaVuSans-20"/>
      <use x="580.855469" xlink:href="#DejaVuSans-66"/>
      <use x="616.060547" xlink:href="#DejaVuSans-69"/>
      <use x="643.84375" xlink:href="#DejaVuSans-74"/>
     </g>
    </g>
    <g id="line2d_25">
     <path d="M 1019.17125 139.966875 
L 1067.17125 139.966875 
" style="fill:none;stroke:#d62728;stroke-linecap:square;stroke-width:2;"/>
    </g>
    <g id="line2d_26"/>
    <g id="text_19">
     <!-- Exponential fit -->
     <g transform="translate(1086.37125 148.366875)scale(0.24 -0.24)">
      <defs>
       <path d="M 628 4666 
L 3578 4666 
L 3578 4134 
L 1259 4134 
L 1259 2753 
L 3481 2753 
L 3481 2222 
L 1259 2222 
L 1259 531 
L 3634 531 
L 3634 0 
L 628 0 
L 628 4666 
z
" id="DejaVuSans-45" transform="scale(0.015625)"/>
       <path d="M 3513 3500 
L 2247 1797 
L 3578 0 
L 2900 0 
L 1881 1375 
L 863 0 
L 184 0 
L 1544 1831 
L 300 3500 
L 978 3500 
L 1906 2253 
L 2834 3500 
L 3513 3500 
z
" id="DejaVuSans-78" transform="scale(0.015625)"/>
       <path d="M 1159 525 
L 1159 -1331 
L 581 -1331 
L 581 3500 
L 1159 3500 
L 1159 2969 
Q 1341 3281 1617 3432 
Q 1894 3584 2278 3584 
Q 2916 3584 3314 3078 
Q 3713 2572 3713 1747 
Q 3713 922 3314 415 
Q 2916 -91 2278 -91 
Q 1894 -91 1617 61 
Q 1341 213 1159 525 
z
M 3116 1747 
Q 3116 2381 2855 2742 
Q 2594 3103 2138 3103 
Q 1681 3103 1420 2742 
Q 1159 2381 1159 1747 
Q 1159 1113 1420 752 
Q 1681 391 2138 391 
Q 2594 391 2855 752 
Q 3116 1113 3116 1747 
z
" id="DejaVuSans-70" transform="scale(0.015625)"/>
      </defs>
      <use xlink:href="#DejaVuSans-45"/>
      <use x="63.183594" xlink:href="#DejaVuSans-78"/>
      <use x="122.363281" xlink:href="#DejaVuSans-70"/>
      <use x="185.839844" xlink:href="#DejaVuSans-6f"/>
      <use x="247.021484" xlink:href="#DejaVuSans-6e"/>
      <use x="310.400391" xlink:href="#DejaVuSans-65"/>
      <use x="371.923828" xlink:href="#DejaVuSans-6e"/>
      <use x="435.302734" xlink:href="#DejaVuSans-74"/>
      <use x="474.511719" xlink:href="#DejaVuSans-69"/>
      <use x="502.294922" xlink:href="#DejaVuSans-61"/>
      <use x="563.574219" xlink:href="#DejaVuSans-6c"/>
      <use x="591.357422" xlink:href="#DejaVuSans-20"/>
      <use x="623.144531" xlink:href="#DejaVuSans-66"/>
      <use x="658.349609" xlink:href="#DejaVuSans-69"/>
      <use x="686.132812" xlink:href="#DejaVuSans-74"/>
     </g>
    </g>
    <g id="line2d_27">
     <path d="M 1019.17125 175.194375 
L 1067.17125 175.194375 
" style="fill:none;stroke:#9467bd;stroke-linecap:square;stroke-width:2;"/>
    </g>
    <g id="line2d_28"/>
    <g id="text_20">
     <!-- Laplace fit -->
     <g transform="translate(1086.37125 183.594375)scale(0.24 -0.24)">
      <defs>
       <path d="M 628 4666 
L 1259 4666 
L 1259 531 
L 3531 531 
L 3531 0 
L 628 0 
L 628 4666 
z
" id="DejaVuSans-4c" transform="scale(0.015625)"/>
       <path d="M 3122 3366 
L 3122 2828 
Q 2878 2963 2633 3030 
Q 2388 3097 2138 3097 
Q 1578 3097 1268 2742 
Q 959 2388 959 1747 
Q 959 1106 1268 751 
Q 1578 397 2138 397 
Q 2388 397 2633 464 
Q 2878 531 3122 666 
L 3122 134 
Q 2881 22 2623 -34 
Q 2366 -91 2075 -91 
Q 1284 -91 818 406 
Q 353 903 353 1747 
Q 353 2603 823 3093 
Q 1294 3584 2113 3584 
Q 2378 3584 2631 3529 
Q 2884 3475 3122 3366 
z
" id="DejaVuSans-63" transform="scale(0.015625)"/>
      </defs>
      <use xlink:href="#DejaVuSans-4c"/>
      <use x="55.712891" xlink:href="#DejaVuSans-61"/>
      <use x="116.992188" xlink:href="#DejaVuSans-70"/>
      <use x="180.46875" xlink:href="#DejaVuSans-6c"/>
      <use x="208.251953" xlink:href="#DejaVuSans-61"/>
      <use x="269.53125" xlink:href="#DejaVuSans-63"/>
      <use x="324.511719" xlink:href="#DejaVuSans-65"/>
      <use x="386.035156" xlink:href="#DejaVuSans-20"/>
      <use x="417.822266" xlink:href="#DejaVuSans-66"/>
      <use x="453.027344" xlink:href="#DejaVuSans-69"/>
      <use x="480.810547" xlink:href="#DejaVuSans-74"/>
     </g>
    </g>
    <g id="line2d_29">
     <path d="M 1019.17125 210.421875 
L 1067.17125 210.421875 
" style="fill:none;stroke:#8c564b;stroke-linecap:square;stroke-width:2;"/>
    </g>
    <g id="line2d_30"/>
    <g id="text_21">
     <!-- LogNorm fit -->
     <g transform="translate(1086.37125 218.821875)scale(0.24 -0.24)">
      <defs>
       <path d="M 2906 1791 
Q 2906 2416 2648 2759 
Q 2391 3103 1925 3103 
Q 1463 3103 1205 2759 
Q 947 2416 947 1791 
Q 947 1169 1205 825 
Q 1463 481 1925 481 
Q 2391 481 2648 825 
Q 2906 1169 2906 1791 
z
M 3481 434 
Q 3481 -459 3084 -895 
Q 2688 -1331 1869 -1331 
Q 1566 -1331 1297 -1286 
Q 1028 -1241 775 -1147 
L 775 -588 
Q 1028 -725 1275 -790 
Q 1522 -856 1778 -856 
Q 2344 -856 2625 -561 
Q 2906 -266 2906 331 
L 2906 616 
Q 2728 306 2450 153 
Q 2172 0 1784 0 
Q 1141 0 747 490 
Q 353 981 353 1791 
Q 353 2603 747 3093 
Q 1141 3584 1784 3584 
Q 2172 3584 2450 3431 
Q 2728 3278 2906 2969 
L 2906 3500 
L 3481 3500 
L 3481 434 
z
" id="DejaVuSans-67" transform="scale(0.015625)"/>
      </defs>
      <use xlink:href="#DejaVuSans-4c"/>
      <use x="53.962891" xlink:href="#DejaVuSans-6f"/>
      <use x="115.144531" xlink:href="#DejaVuSans-67"/>
      <use x="178.621094" xlink:href="#DejaVuSans-4e"/>
      <use x="253.425781" xlink:href="#DejaVuSans-6f"/>
      <use x="314.607422" xlink:href="#DejaVuSans-72"/>
      <use x="353.970703" xlink:href="#DejaVuSans-6d"/>
      <use x="451.382812" xlink:href="#DejaVuSans-20"/>
      <use x="483.169922" xlink:href="#DejaVuSans-66"/>
      <use x="518.375" xlink:href="#DejaVuSans-69"/>
      <use x="546.158203" xlink:href="#DejaVuSans-74"/>
     </g>
    </g>
    <g id="line2d_31">
     <path d="M 1019.17125 245.649375 
L 1067.17125 245.649375 
" style="fill:none;stroke:#e377c2;stroke-linecap:square;stroke-width:2;"/>
    </g>
    <g id="line2d_32"/>
    <g id="text_22">
     <!-- Normal fit -->
     <g transform="translate(1086.37125 254.049375)scale(0.24 -0.24)">
      <use xlink:href="#DejaVuSans-4e"/>
      <use x="74.804688" xlink:href="#DejaVuSans-6f"/>
      <use x="135.986328" xlink:href="#DejaVuSans-72"/>
      <use x="175.349609" xlink:href="#DejaVuSans-6d"/>
      <use x="272.761719" xlink:href="#DejaVuSans-61"/>
      <use x="334.041016" xlink:href="#DejaVuSans-6c"/>
      <use x="361.824219" xlink:href="#DejaVuSans-20"/>
      <use x="393.611328" xlink:href="#DejaVuSans-66"/>
      <use x="428.816406" xlink:href="#DejaVuSans-69"/>
      <use x="456.599609" xlink:href="#DejaVuSans-74"/>
     </g>
    </g>
    <g id="patch_108">
     <path d="M 1019.17125 289.276875 
L 1067.17125 289.276875 
L 1067.17125 272.476875 
L 1019.17125 272.476875 
z
" style="fill:#1f77b4;opacity:0.6;"/>
    </g>
    <g id="text_23">
     <!-- Generated Chi Distribution -->
     <g transform="translate(1086.37125 289.276875)scale(0.24 -0.24)">
      <defs>
       <path d="M 3809 666 
L 3809 1919 
L 2778 1919 
L 2778 2438 
L 4434 2438 
L 4434 434 
Q 4069 175 3628 42 
Q 3188 -91 2688 -91 
Q 1594 -91 976 548 
Q 359 1188 359 2328 
Q 359 3472 976 4111 
Q 1594 4750 2688 4750 
Q 3144 4750 3555 4637 
Q 3966 4525 4313 4306 
L 4313 3634 
Q 3963 3931 3569 4081 
Q 3175 4231 2741 4231 
Q 1884 4231 1454 3753 
Q 1025 3275 1025 2328 
Q 1025 1384 1454 906 
Q 1884 428 2741 428 
Q 3075 428 3337 486 
Q 3600 544 3809 666 
z
" id="DejaVuSans-47" transform="scale(0.015625)"/>
      </defs>
      <use xlink:href="#DejaVuSans-47"/>
      <use x="77.490234" xlink:href="#DejaVuSans-65"/>
      <use x="139.013672" xlink:href="#DejaVuSans-6e"/>
      <use x="202.392578" xlink:href="#DejaVuSans-65"/>
      <use x="263.916016" xlink:href="#DejaVuSans-72"/>
      <use x="305.029297" xlink:href="#DejaVuSans-61"/>
      <use x="366.308594" xlink:href="#DejaVuSans-74"/>
      <use x="405.517578" xlink:href="#DejaVuSans-65"/>
      <use x="467.041016" xlink:href="#DejaVuSans-64"/>
      <use x="530.517578" xlink:href="#DejaVuSans-20"/>
      <use x="562.304688" xlink:href="#DejaVuSans-43"/>
      <use x="632.128906" xlink:href="#DejaVuSans-68"/>
      <use x="695.507812" xlink:href="#DejaVuSans-69"/>
      <use x="723.291016" xlink:href="#DejaVuSans-20"/>
      <use x="755.078125" xlink:href="#DejaVuSans-44"/>
      <use x="832.080078" xlink:href="#DejaVuSans-69"/>
      <use x="859.863281" xlink:href="#DejaVuSans-73"/>
      <use x="911.962891" xlink:href="#DejaVuSans-74"/>
      <use x="951.171875" xlink:href="#DejaVuSans-72"/>
      <use x="992.285156" xlink:href="#DejaVuSans-69"/>
      <use x="1020.068359" xlink:href="#DejaVuSans-62"/>
      <use x="1083.544922" xlink:href="#DejaVuSans-75"/>
      <use x="1146.923828" xlink:href="#DejaVuSans-74"/>
      <use x="1186.132812" xlink:href="#DejaVuSans-69"/>
      <use x="1213.916016" xlink:href="#DejaVuSans-6f"/>
      <use x="1275.097656" xlink:href="#DejaVuSans-6e"/>
     </g>
    </g>
   </g>
  </g>
 </g>
 <defs>
  <clipPath id="p264e7ddd5d">
   <rect height="790.70375" width="1356.514687" x="72.685313" y="38.075625"/>
  </clipPath>
 </defs>
</svg>
