<?xml version="1.0" encoding="utf-8" standalone="no"?>
<!DOCTYPE svg PUBLIC "-//W3C//DTD SVG 1.1//EN"
  "http://www.w3.org/Graphics/SVG/1.1/DTD/svg11.dtd">
<svg xmlns:xlink="http://www.w3.org/1999/xlink" width="1440pt" height="864pt" viewBox="0 0 1440 864" xmlns="http://www.w3.org/2000/svg" version="1.1">
 <metadata>
  <rdf:RDF xmlns:dc="http://purl.org/dc/elements/1.1/" xmlns:cc="http://creativecommons.org/ns#" xmlns:rdf="http://www.w3.org/1999/02/22-rdf-syntax-ns#">
   <cc:Work>
    <dc:type rdf:resource="http://purl.org/dc/dcmitype/StillImage"/>
    <dc:date>2023-03-10T18:42:24.987981</dc:date>
    <dc:format>image/svg+xml</dc:format>
    <dc:creator>
     <cc:Agent>
      <dc:title>Matplotlib v3.7.1, https://matplotlib.org/</dc:title>
     </cc:Agent>
    </dc:creator>
   </cc:Work>
  </rdf:RDF>
 </metadata>
 <defs>
  <style type="text/css">*{stroke-linejoin: round; stroke-linecap: butt}</style>
 </defs>
 <g id="figure_1">
  <g id="patch_1">
   <path d="M 0 864 
L 1440 864 
L 1440 0 
L 0 0 
z
" style="fill: #ffffff"/>
  </g>
  <g id="axes_1">
   <g id="patch_2">
    <path d="M 72.685313 828.779375 
L 1429.2 828.779375 
L 1429.2 38.075625 
L 72.685313 38.075625 
z
" style="fill: #ffffff"/>
   </g>
   <g id="patch_3">
    <path d="M 134.345071 828.779375 
L 146.677023 828.779375 
L 146.677023 826.118417 
L 134.345071 826.118417 
z
" clip-path="url(#pcdb996b93a)" style="fill: #1f77b4; opacity: 0.6"/>
   </g>
   <g id="patch_4">
    <path d="M 146.677023 828.779375 
L 159.008974 828.779375 
L 159.008974 822.925267 
L 146.677023 822.925267 
z
" clip-path="url(#pcdb996b93a)" style="fill: #1f77b4; opacity: 0.6"/>
   </g>
   <g id="patch_5">
    <path d="M 159.008974 828.779375 
L 171.340926 828.779375 
L 171.340926 821.328692 
L 159.008974 821.328692 
z
" clip-path="url(#pcdb996b93a)" style="fill: #1f77b4; opacity: 0.6"/>
   </g>
   <g id="patch_6">
    <path d="M 171.340926 828.779375 
L 183.672878 828.779375 
L 183.672878 812.281434 
L 171.340926 812.281434 
z
" clip-path="url(#pcdb996b93a)" style="fill: #1f77b4; opacity: 0.6"/>
   </g>
   <g id="patch_7">
    <path d="M 183.672878 828.779375 
L 196.00483 828.779375 
L 196.00483 801.637601 
L 183.672878 801.637601 
z
" clip-path="url(#pcdb996b93a)" style="fill: #1f77b4; opacity: 0.6"/>
   </g>
   <g id="patch_8">
    <path d="M 196.00483 828.779375 
L 208.336781 828.779375 
L 208.336781 778.75336 
L 196.00483 778.75336 
z
" clip-path="url(#pcdb996b93a)" style="fill: #1f77b4; opacity: 0.6"/>
   </g>
   <g id="patch_9">
    <path d="M 208.336781 828.779375 
L 220.668733 828.779375 
L 220.668733 769.17391 
L 208.336781 769.17391 
z
" clip-path="url(#pcdb996b93a)" style="fill: #1f77b4; opacity: 0.6"/>
   </g>
   <g id="patch_10">
    <path d="M 220.668733 828.779375 
L 233.000685 828.779375 
L 233.000685 756.933502 
L 220.668733 756.933502 
z
" clip-path="url(#pcdb996b93a)" style="fill: #1f77b4; opacity: 0.6"/>
   </g>
   <g id="patch_11">
    <path d="M 233.000685 828.779375 
L 245.332636 828.779375 
L 245.332636 738.306794 
L 233.000685 738.306794 
z
" clip-path="url(#pcdb996b93a)" style="fill: #1f77b4; opacity: 0.6"/>
   </g>
   <g id="patch_12">
    <path d="M 245.332636 828.779375 
L 257.664588 828.779375 
L 257.664588 719.147894 
L 245.332636 719.147894 
z
" clip-path="url(#pcdb996b93a)" style="fill: #1f77b4; opacity: 0.6"/>
   </g>
   <g id="patch_13">
    <path d="M 257.664588 828.779375 
L 269.99654 828.779375 
L 269.99654 684.023245 
L 257.664588 684.023245 
z
" clip-path="url(#pcdb996b93a)" style="fill: #1f77b4; opacity: 0.6"/>
   </g>
   <g id="patch_14">
    <path d="M 269.99654 828.779375 
L 282.328491 828.779375 
L 282.328491 667.525304 
L 269.99654 667.525304 
z
" clip-path="url(#pcdb996b93a)" style="fill: #1f77b4; opacity: 0.6"/>
   </g>
   <g id="patch_15">
    <path d="M 282.328491 828.779375 
L 294.660443 828.779375 
L 294.660443 640.383529 
L 282.328491 640.383529 
z
" clip-path="url(#pcdb996b93a)" style="fill: #1f77b4; opacity: 0.6"/>
   </g>
   <g id="patch_16">
    <path d="M 294.660443 828.779375 
L 306.992395 828.779375 
L 306.992395 581.310256 
L 294.660443 581.310256 
z
" clip-path="url(#pcdb996b93a)" style="fill: #1f77b4; opacity: 0.6"/>
   </g>
   <g id="patch_17">
    <path d="M 306.992395 828.779375 
L 319.324347 828.779375 
L 319.324347 573.327381 
L 306.992395 573.327381 
z
" clip-path="url(#pcdb996b93a)" style="fill: #1f77b4; opacity: 0.6"/>
   </g>
   <g id="patch_18">
    <path d="M 319.324347 828.779375 
L 331.656298 828.779375 
L 331.656298 531.816432 
L 319.324347 531.816432 
z
" clip-path="url(#pcdb996b93a)" style="fill: #1f77b4; opacity: 0.6"/>
   </g>
   <g id="patch_19">
    <path d="M 331.656298 828.779375 
L 343.98825 828.779375 
L 343.98825 496.691783 
L 331.656298 496.691783 
z
" clip-path="url(#pcdb996b93a)" style="fill: #1f77b4; opacity: 0.6"/>
   </g>
   <g id="patch_20">
    <path d="M 343.98825 828.779375 
L 356.320202 828.779375 
L 356.320202 445.601384 
L 343.98825 445.601384 
z
" clip-path="url(#pcdb996b93a)" style="fill: #1f77b4; opacity: 0.6"/>
   </g>
   <g id="patch_21">
    <path d="M 356.320202 828.779375 
L 368.652153 828.779375 
L 368.652153 387.592494 
L 356.320202 387.592494 
z
" clip-path="url(#pcdb996b93a)" style="fill: #1f77b4; opacity: 0.6"/>
   </g>
   <g id="patch_22">
    <path d="M 368.652153 828.779375 
L 380.984105 828.779375 
L 380.984105 371.094553 
L 368.652153 371.094553 
z
" clip-path="url(#pcdb996b93a)" style="fill: #1f77b4; opacity: 0.6"/>
   </g>
   <g id="patch_23">
    <path d="M 380.984105 828.779375 
L 393.316057 828.779375 
L 393.316057 339.163053 
L 380.984105 339.163053 
z
" clip-path="url(#pcdb996b93a)" style="fill: #1f77b4; opacity: 0.6"/>
   </g>
   <g id="patch_24">
    <path d="M 393.316057 828.779375 
L 405.648009 828.779375 
L 405.648009 287.540463 
L 393.316057 287.540463 
z
" clip-path="url(#pcdb996b93a)" style="fill: #1f77b4; opacity: 0.6"/>
   </g>
   <g id="patch_25">
    <path d="M 405.648009 828.779375 
L 417.97996 828.779375 
L 417.97996 261.995263 
L 405.648009 261.995263 
z
" clip-path="url(#pcdb996b93a)" style="fill: #1f77b4; opacity: 0.6"/>
   </g>
   <g id="patch_26">
    <path d="M 417.97996 828.779375 
L 430.311912 828.779375 
L 430.311912 262.527455 
L 417.97996 262.527455 
z
" clip-path="url(#pcdb996b93a)" style="fill: #1f77b4; opacity: 0.6"/>
   </g>
   <g id="patch_27">
    <path d="M 430.311912 828.779375 
L 442.643864 828.779375 
L 442.643864 200.261032 
L 430.311912 200.261032 
z
" clip-path="url(#pcdb996b93a)" style="fill: #1f77b4; opacity: 0.6"/>
   </g>
   <g id="patch_28">
    <path d="M 442.643864 828.779375 
L 454.975815 828.779375 
L 454.975815 137.462416 
L 442.643864 137.462416 
z
" clip-path="url(#pcdb996b93a)" style="fill: #1f77b4; opacity: 0.6"/>
   </g>
   <g id="patch_29">
    <path d="M 454.975815 828.779375 
L 467.307767 828.779375 
L 467.307767 150.235016 
L 454.975815 150.235016 
z
" clip-path="url(#pcdb996b93a)" style="fill: #1f77b4; opacity: 0.6"/>
   </g>
   <g id="patch_30">
    <path d="M 467.307767 828.779375 
L 479.639719 828.779375 
L 479.639719 148.638441 
L 467.307767 148.638441 
z
" clip-path="url(#pcdb996b93a)" style="fill: #1f77b4; opacity: 0.6"/>
   </g>
   <g id="patch_31">
    <path d="M 479.639719 828.779375 
L 491.97167 828.779375 
L 491.97167 112.9816 
L 479.639719 112.9816 
z
" clip-path="url(#pcdb996b93a)" style="fill: #1f77b4; opacity: 0.6"/>
   </g>
   <g id="patch_32">
    <path d="M 491.97167 828.779375 
L 504.303622 828.779375 
L 504.303622 85.839826 
L 491.97167 85.839826 
z
" clip-path="url(#pcdb996b93a)" style="fill: #1f77b4; opacity: 0.6"/>
   </g>
   <g id="patch_33">
    <path d="M 504.303622 828.779375 
L 516.635574 828.779375 
L 516.635574 90.629551 
L 504.303622 90.629551 
z
" clip-path="url(#pcdb996b93a)" style="fill: #1f77b4; opacity: 0.6"/>
   </g>
   <g id="patch_34">
    <path d="M 516.635574 828.779375 
L 528.967526 828.779375 
L 528.967526 80.517909 
L 516.635574 80.517909 
z
" clip-path="url(#pcdb996b93a)" style="fill: #1f77b4; opacity: 0.6"/>
   </g>
   <g id="patch_35">
    <path d="M 528.967526 828.779375 
L 541.299477 828.779375 
L 541.299477 75.728185 
L 528.967526 75.728185 
z
" clip-path="url(#pcdb996b93a)" style="fill: #1f77b4; opacity: 0.6"/>
   </g>
   <g id="patch_36">
    <path d="M 541.299477 828.779375 
L 553.631429 828.779375 
L 553.631429 97.548042 
L 541.299477 97.548042 
z
" clip-path="url(#pcdb996b93a)" style="fill: #1f77b4; opacity: 0.6"/>
   </g>
   <g id="patch_37">
    <path d="M 553.631429 828.779375 
L 565.963381 828.779375 
L 565.963381 99.676809 
L 553.631429 99.676809 
z
" clip-path="url(#pcdb996b93a)" style="fill: #1f77b4; opacity: 0.6"/>
   </g>
   <g id="patch_38">
    <path d="M 565.963381 828.779375 
L 578.295332 828.779375 
L 578.295332 110.852834 
L 565.963381 110.852834 
z
" clip-path="url(#pcdb996b93a)" style="fill: #1f77b4; opacity: 0.6"/>
   </g>
   <g id="patch_39">
    <path d="M 578.295332 828.779375 
L 590.627284 828.779375 
L 590.627284 96.483659 
L 578.295332 96.483659 
z
" clip-path="url(#pcdb996b93a)" style="fill: #1f77b4; opacity: 0.6"/>
   </g>
   <g id="patch_40">
    <path d="M 590.627284 828.779375 
L 602.959236 828.779375 
L 602.959236 101.273384 
L 590.627284 101.273384 
z
" clip-path="url(#pcdb996b93a)" style="fill: #1f77b4; opacity: 0.6"/>
   </g>
   <g id="patch_41">
    <path d="M 602.959236 828.779375 
L 615.291187 828.779375 
L 615.291187 141.187758 
L 602.959236 141.187758 
z
" clip-path="url(#pcdb996b93a)" style="fill: #1f77b4; opacity: 0.6"/>
   </g>
   <g id="patch_42">
    <path d="M 615.291187 828.779375 
L 627.623139 828.779375 
L 627.623139 118.835709 
L 615.291187 118.835709 
z
" clip-path="url(#pcdb996b93a)" style="fill: #1f77b4; opacity: 0.6"/>
   </g>
   <g id="patch_43">
    <path d="M 627.623139 828.779375 
L 639.955091 828.779375 
L 639.955091 189.085007 
L 627.623139 189.085007 
z
" clip-path="url(#pcdb996b93a)" style="fill: #1f77b4; opacity: 0.6"/>
   </g>
   <g id="patch_44">
    <path d="M 639.955091 828.779375 
L 652.287043 828.779375 
L 652.287043 191.745965 
L 639.955091 191.745965 
z
" clip-path="url(#pcdb996b93a)" style="fill: #1f77b4; opacity: 0.6"/>
   </g>
   <g id="patch_45">
    <path d="M 652.287043 828.779375 
L 664.618994 828.779375 
L 664.618994 247.626089 
L 652.287043 247.626089 
z
" clip-path="url(#pcdb996b93a)" style="fill: #1f77b4; opacity: 0.6"/>
   </g>
   <g id="patch_46">
    <path d="M 664.618994 828.779375 
L 676.950946 828.779375 
L 676.950946 232.724722 
L 664.618994 232.724722 
z
" clip-path="url(#pcdb996b93a)" style="fill: #1f77b4; opacity: 0.6"/>
   </g>
   <g id="patch_47">
    <path d="M 676.950946 828.779375 
L 689.282898 828.779375 
L 689.282898 247.093897 
L 676.950946 247.093897 
z
" clip-path="url(#pcdb996b93a)" style="fill: #1f77b4; opacity: 0.6"/>
   </g>
   <g id="patch_48">
    <path d="M 689.282898 828.779375 
L 701.614849 828.779375 
L 701.614849 308.295937 
L 689.282898 308.295937 
z
" clip-path="url(#pcdb996b93a)" style="fill: #1f77b4; opacity: 0.6"/>
   </g>
   <g id="patch_49">
    <path d="M 701.614849 828.779375 
L 713.946801 828.779375 
L 713.946801 295.523338 
L 701.614849 295.523338 
z
" clip-path="url(#pcdb996b93a)" style="fill: #1f77b4; opacity: 0.6"/>
   </g>
   <g id="patch_50">
    <path d="M 713.946801 828.779375 
L 726.278753 828.779375 
L 726.278753 363.111678 
L 713.946801 363.111678 
z
" clip-path="url(#pcdb996b93a)" style="fill: #1f77b4; opacity: 0.6"/>
   </g>
   <g id="patch_51">
    <path d="M 726.278753 828.779375 
L 738.610705 828.779375 
L 738.610705 387.592494 
L 726.278753 387.592494 
z
" clip-path="url(#pcdb996b93a)" style="fill: #1f77b4; opacity: 0.6"/>
   </g>
   <g id="patch_52">
    <path d="M 738.610705 828.779375 
L 750.942656 828.779375 
L 750.942656 400.897285 
L 738.610705 400.897285 
z
" clip-path="url(#pcdb996b93a)" style="fill: #1f77b4; opacity: 0.6"/>
   </g>
   <g id="patch_53">
    <path d="M 750.942656 828.779375 
L 763.274608 828.779375 
L 763.274608 447.730151 
L 750.942656 447.730151 
z
" clip-path="url(#pcdb996b93a)" style="fill: #1f77b4; opacity: 0.6"/>
   </g>
   <g id="patch_54">
    <path d="M 763.274608 828.779375 
L 775.60656 828.779375 
L 775.60656 478.065075 
L 763.274608 478.065075 
z
" clip-path="url(#pcdb996b93a)" style="fill: #1f77b4; opacity: 0.6"/>
   </g>
   <g id="patch_55">
    <path d="M 775.60656 828.779375 
L 787.938511 828.779375 
L 787.938511 490.837675 
L 775.60656 490.837675 
z
" clip-path="url(#pcdb996b93a)" style="fill: #1f77b4; opacity: 0.6"/>
   </g>
   <g id="patch_56">
    <path d="M 787.938511 828.779375 
L 800.270463 828.779375 
L 800.270463 517.447257 
L 787.938511 517.447257 
z
" clip-path="url(#pcdb996b93a)" style="fill: #1f77b4; opacity: 0.6"/>
   </g>
   <g id="patch_57">
    <path d="M 800.270463 828.779375 
L 812.602415 828.779375 
L 812.602415 532.880815 
L 800.270463 532.880815 
z
" clip-path="url(#pcdb996b93a)" style="fill: #1f77b4; opacity: 0.6"/>
   </g>
   <g id="patch_58">
    <path d="M 812.602415 828.779375 
L 824.934366 828.779375 
L 824.934366 541.395882 
L 812.602415 541.395882 
z
" clip-path="url(#pcdb996b93a)" style="fill: #1f77b4; opacity: 0.6"/>
   </g>
   <g id="patch_59">
    <path d="M 824.934366 828.779375 
L 837.266318 828.779375 
L 837.266318 581.842448 
L 824.934366 581.842448 
z
" clip-path="url(#pcdb996b93a)" style="fill: #1f77b4; opacity: 0.6"/>
   </g>
   <g id="patch_60">
    <path d="M 837.266318 828.779375 
L 849.59827 828.779375 
L 849.59827 633.465038 
L 837.266318 633.465038 
z
" clip-path="url(#pcdb996b93a)" style="fill: #1f77b4; opacity: 0.6"/>
   </g>
   <g id="patch_61">
    <path d="M 849.59827 828.779375 
L 861.930222 828.779375 
L 861.930222 618.563672 
L 849.59827 618.563672 
z
" clip-path="url(#pcdb996b93a)" style="fill: #1f77b4; opacity: 0.6"/>
   </g>
   <g id="patch_62">
    <path d="M 861.930222 828.779375 
L 874.262173 828.779375 
L 874.262173 637.19038 
L 861.930222 637.19038 
z
" clip-path="url(#pcdb996b93a)" style="fill: #1f77b4; opacity: 0.6"/>
   </g>
   <g id="patch_63">
    <path d="M 874.262173 828.779375 
L 886.594125 828.779375 
L 886.594125 670.186262 
L 874.262173 670.186262 
z
" clip-path="url(#pcdb996b93a)" style="fill: #1f77b4; opacity: 0.6"/>
   </g>
   <g id="patch_64">
    <path d="M 886.594125 828.779375 
L 898.926077 828.779375 
L 898.926077 676.04037 
L 886.594125 676.04037 
z
" clip-path="url(#pcdb996b93a)" style="fill: #1f77b4; opacity: 0.6"/>
   </g>
   <g id="patch_65">
    <path d="M 898.926077 828.779375 
L 911.258028 828.779375 
L 911.258028 684.023245 
L 898.926077 684.023245 
z
" clip-path="url(#pcdb996b93a)" style="fill: #1f77b4; opacity: 0.6"/>
   </g>
   <g id="patch_66">
    <path d="M 911.258028 828.779375 
L 923.58998 828.779375 
L 923.58998 718.615703 
L 911.258028 718.615703 
z
" clip-path="url(#pcdb996b93a)" style="fill: #1f77b4; opacity: 0.6"/>
   </g>
   <g id="patch_67">
    <path d="M 923.58998 828.779375 
L 935.921932 828.779375 
L 935.921932 717.551319 
L 923.58998 717.551319 
z
" clip-path="url(#pcdb996b93a)" style="fill: #1f77b4; opacity: 0.6"/>
   </g>
   <g id="patch_68">
    <path d="M 935.921932 828.779375 
L 948.253884 828.779375 
L 948.253884 735.113644 
L 935.921932 735.113644 
z
" clip-path="url(#pcdb996b93a)" style="fill: #1f77b4; opacity: 0.6"/>
   </g>
   <g id="patch_69">
    <path d="M 948.253884 828.779375 
L 960.585835 828.779375 
L 960.585835 733.517069 
L 948.253884 733.517069 
z
" clip-path="url(#pcdb996b93a)" style="fill: #1f77b4; opacity: 0.6"/>
   </g>
   <g id="patch_70">
    <path d="M 960.585835 828.779375 
L 972.917787 828.779375 
L 972.917787 749.482819 
L 960.585835 749.482819 
z
" clip-path="url(#pcdb996b93a)" style="fill: #1f77b4; opacity: 0.6"/>
   </g>
   <g id="patch_71">
    <path d="M 972.917787 828.779375 
L 985.249739 828.779375 
L 985.249739 758.530077 
L 972.917787 758.530077 
z
" clip-path="url(#pcdb996b93a)" style="fill: #1f77b4; opacity: 0.6"/>
   </g>
   <g id="patch_72">
    <path d="M 985.249739 828.779375 
L 997.58169 828.779375 
L 997.58169 768.641718 
L 985.249739 768.641718 
z
" clip-path="url(#pcdb996b93a)" style="fill: #1f77b4; opacity: 0.6"/>
   </g>
   <g id="patch_73">
    <path d="M 997.58169 828.779375 
L 1009.913642 828.779375 
L 1009.913642 781.414318 
L 997.58169 781.414318 
z
" clip-path="url(#pcdb996b93a)" style="fill: #1f77b4; opacity: 0.6"/>
   </g>
   <g id="patch_74">
    <path d="M 1009.913642 828.779375 
L 1022.245594 828.779375 
L 1022.245594 783.543084 
L 1009.913642 783.543084 
z
" clip-path="url(#pcdb996b93a)" style="fill: #1f77b4; opacity: 0.6"/>
   </g>
   <g id="patch_75">
    <path d="M 1022.245594 828.779375 
L 1034.577545 828.779375 
L 1034.577545 785.671851 
L 1022.245594 785.671851 
z
" clip-path="url(#pcdb996b93a)" style="fill: #1f77b4; opacity: 0.6"/>
   </g>
   <g id="patch_76">
    <path d="M 1034.577545 828.779375 
L 1046.909497 828.779375 
L 1046.909497 793.122534 
L 1034.577545 793.122534 
z
" clip-path="url(#pcdb996b93a)" style="fill: #1f77b4; opacity: 0.6"/>
   </g>
   <g id="patch_77">
    <path d="M 1046.909497 828.779375 
L 1059.241449 828.779375 
L 1059.241449 804.830751 
L 1046.909497 804.830751 
z
" clip-path="url(#pcdb996b93a)" style="fill: #1f77b4; opacity: 0.6"/>
   </g>
   <g id="patch_78">
    <path d="M 1059.241449 828.779375 
L 1071.573401 828.779375 
L 1071.573401 796.315684 
L 1059.241449 796.315684 
z
" clip-path="url(#pcdb996b93a)" style="fill: #1f77b4; opacity: 0.6"/>
   </g>
   <g id="patch_79">
    <path d="M 1071.573401 828.779375 
L 1083.905352 828.779375 
L 1083.905352 803.234176 
L 1071.573401 803.234176 
z
" clip-path="url(#pcdb996b93a)" style="fill: #1f77b4; opacity: 0.6"/>
   </g>
   <g id="patch_80">
    <path d="M 1083.905352 828.779375 
L 1096.237304 828.779375 
L 1096.237304 806.959517 
L 1083.905352 806.959517 
z
" clip-path="url(#pcdb996b93a)" style="fill: #1f77b4; opacity: 0.6"/>
   </g>
   <g id="patch_81">
    <path d="M 1096.237304 828.779375 
L 1108.569256 828.779375 
L 1108.569256 812.281434 
L 1096.237304 812.281434 
z
" clip-path="url(#pcdb996b93a)" style="fill: #1f77b4; opacity: 0.6"/>
   </g>
   <g id="patch_82">
    <path d="M 1108.569256 828.779375 
L 1120.901207 828.779375 
L 1120.901207 819.199925 
L 1108.569256 819.199925 
z
" clip-path="url(#pcdb996b93a)" style="fill: #1f77b4; opacity: 0.6"/>
   </g>
   <g id="patch_83">
    <path d="M 1120.901207 828.779375 
L 1133.233159 828.779375 
L 1133.233159 818.135542 
L 1120.901207 818.135542 
z
" clip-path="url(#pcdb996b93a)" style="fill: #1f77b4; opacity: 0.6"/>
   </g>
   <g id="patch_84">
    <path d="M 1133.233159 828.779375 
L 1145.565111 828.779375 
L 1145.565111 817.60335 
L 1133.233159 817.60335 
z
" clip-path="url(#pcdb996b93a)" style="fill: #1f77b4; opacity: 0.6"/>
   </g>
   <g id="patch_85">
    <path d="M 1145.565111 828.779375 
L 1157.897062 828.779375 
L 1157.897062 818.667734 
L 1145.565111 818.667734 
z
" clip-path="url(#pcdb996b93a)" style="fill: #1f77b4; opacity: 0.6"/>
   </g>
   <g id="patch_86">
    <path d="M 1157.897063 828.779375 
L 1170.229014 828.779375 
L 1170.229014 819.732117 
L 1157.897063 819.732117 
z
" clip-path="url(#pcdb996b93a)" style="fill: #1f77b4; opacity: 0.6"/>
   </g>
   <g id="patch_87">
    <path d="M 1170.229014 828.779375 
L 1182.560966 828.779375 
L 1182.560966 822.925267 
L 1170.229014 822.925267 
z
" clip-path="url(#pcdb996b93a)" style="fill: #1f77b4; opacity: 0.6"/>
   </g>
   <g id="patch_88">
    <path d="M 1182.560966 828.779375 
L 1194.892918 828.779375 
L 1194.892918 826.118417 
L 1182.560966 826.118417 
z
" clip-path="url(#pcdb996b93a)" style="fill: #1f77b4; opacity: 0.6"/>
   </g>
   <g id="patch_89">
    <path d="M 1194.892918 828.779375 
L 1207.224869 828.779375 
L 1207.224869 823.457458 
L 1194.892918 823.457458 
z
" clip-path="url(#pcdb996b93a)" style="fill: #1f77b4; opacity: 0.6"/>
   </g>
   <g id="patch_90">
    <path d="M 1207.224869 828.779375 
L 1219.556821 828.779375 
L 1219.556821 827.1828 
L 1207.224869 827.1828 
z
" clip-path="url(#pcdb996b93a)" style="fill: #1f77b4; opacity: 0.6"/>
   </g>
   <g id="patch_91">
    <path d="M 1219.556821 828.779375 
L 1231.888773 828.779375 
L 1231.888773 826.118417 
L 1219.556821 826.118417 
z
" clip-path="url(#pcdb996b93a)" style="fill: #1f77b4; opacity: 0.6"/>
   </g>
   <g id="patch_92">
    <path d="M 1231.888773 828.779375 
L 1244.220724 828.779375 
L 1244.220724 828.247183 
L 1231.888773 828.247183 
z
" clip-path="url(#pcdb996b93a)" style="fill: #1f77b4; opacity: 0.6"/>
   </g>
   <g id="patch_93">
    <path d="M 1244.220724 828.779375 
L 1256.552676 828.779375 
L 1256.552676 827.1828 
L 1244.220724 827.1828 
z
" clip-path="url(#pcdb996b93a)" style="fill: #1f77b4; opacity: 0.6"/>
   </g>
   <g id="patch_94">
    <path d="M 1256.552676 828.779375 
L 1268.884628 828.779375 
L 1268.884628 826.650608 
L 1256.552676 826.650608 
z
" clip-path="url(#pcdb996b93a)" style="fill: #1f77b4; opacity: 0.6"/>
   </g>
   <g id="patch_95">
    <path d="M 1268.884628 828.779375 
L 1281.21658 828.779375 
L 1281.21658 823.98965 
L 1268.884628 823.98965 
z
" clip-path="url(#pcdb996b93a)" style="fill: #1f77b4; opacity: 0.6"/>
   </g>
   <g id="patch_96">
    <path d="M 1281.21658 828.779375 
L 1293.548531 828.779375 
L 1293.548531 827.1828 
L 1281.21658 827.1828 
z
" clip-path="url(#pcdb996b93a)" style="fill: #1f77b4; opacity: 0.6"/>
   </g>
   <g id="patch_97">
    <path d="M 1293.548531 828.779375 
L 1305.880483 828.779375 
L 1305.880483 827.1828 
L 1293.548531 827.1828 
z
" clip-path="url(#pcdb996b93a)" style="fill: #1f77b4; opacity: 0.6"/>
   </g>
   <g id="patch_98">
    <path d="M 1305.880483 828.779375 
L 1318.212435 828.779375 
L 1318.212435 827.714992 
L 1305.880483 827.714992 
z
" clip-path="url(#pcdb996b93a)" style="fill: #1f77b4; opacity: 0.6"/>
   </g>
   <g id="patch_99">
    <path d="M 1318.212435 828.779375 
L 1330.544386 828.779375 
L 1330.544386 828.247183 
L 1318.212435 828.247183 
z
" clip-path="url(#pcdb996b93a)" style="fill: #1f77b4; opacity: 0.6"/>
   </g>
   <g id="patch_100">
    <path d="M 1330.544386 828.779375 
L 1342.876338 828.779375 
L 1342.876338 828.779375 
L 1330.544386 828.779375 
z
" clip-path="url(#pcdb996b93a)" style="fill: #1f77b4; opacity: 0.6"/>
   </g>
   <g id="patch_101">
    <path d="M 1342.876338 828.779375 
L 1355.20829 828.779375 
L 1355.20829 828.247183 
L 1342.876338 828.247183 
z
" clip-path="url(#pcdb996b93a)" style="fill: #1f77b4; opacity: 0.6"/>
   </g>
   <g id="patch_102">
    <path d="M 1355.20829 828.779375 
L 1367.540241 828.779375 
L 1367.540241 828.247183 
L 1355.20829 828.247183 
z
" clip-path="url(#pcdb996b93a)" style="fill: #1f77b4; opacity: 0.6"/>
   </g>
   <g id="matplotlib.axis_1">
    <g id="xtick_1">
     <g id="line2d_1">
      <defs>
       <path id="mbb80a7c230" d="M 0 0 
L 0 3.5 
" style="stroke: #000000; stroke-width: 0.8"/>
      </defs>
      <g>
       <use xlink:href="#mbb80a7c230" x="101.380816" y="828.779375" style="stroke: #000000; stroke-width: 0.8"/>
      </g>
     </g>
     <g id="text_1">
      <!-- 0 -->
      <g transform="translate(95.654566 849.456563) scale(0.18 -0.18)">
       <defs>
        <path id="DejaVuSans-30" d="M 2034 4250 
Q 1547 4250 1301 3770 
Q 1056 3291 1056 2328 
Q 1056 1369 1301 889 
Q 1547 409 2034 409 
Q 2525 409 2770 889 
Q 3016 1369 3016 2328 
Q 3016 3291 2770 3770 
Q 2525 4250 2034 4250 
z
M 2034 4750 
Q 2819 4750 3233 4129 
Q 3647 3509 3647 2328 
Q 3647 1150 3233 529 
Q 2819 -91 2034 -91 
Q 1250 -91 836 529 
Q 422 1150 422 2328 
Q 422 3509 836 4129 
Q 1250 4750 2034 4750 
z
" transform="scale(0.015625)"/>
       </defs>
       <use xlink:href="#DejaVuSans-30"/>
      </g>
     </g>
    </g>
    <g id="xtick_2">
     <g id="line2d_2">
      <g>
       <use xlink:href="#mbb80a7c230" x="354.763182" y="828.779375" style="stroke: #000000; stroke-width: 0.8"/>
      </g>
     </g>
     <g id="text_2">
      <!-- 1 -->
      <g transform="translate(349.036932 849.456563) scale(0.18 -0.18)">
       <defs>
        <path id="DejaVuSans-31" d="M 794 531 
L 1825 531 
L 1825 4091 
L 703 3866 
L 703 4441 
L 1819 4666 
L 2450 4666 
L 2450 531 
L 3481 531 
L 3481 0 
L 794 0 
L 794 531 
z
" transform="scale(0.015625)"/>
       </defs>
       <use xlink:href="#DejaVuSans-31"/>
      </g>
     </g>
    </g>
    <g id="xtick_3">
     <g id="line2d_3">
      <g>
       <use xlink:href="#mbb80a7c230" x="608.145548" y="828.779375" style="stroke: #000000; stroke-width: 0.8"/>
      </g>
     </g>
     <g id="text_3">
      <!-- 2 -->
      <g transform="translate(602.419298 849.456563) scale(0.18 -0.18)">
       <defs>
        <path id="DejaVuSans-32" d="M 1228 531 
L 3431 531 
L 3431 0 
L 469 0 
L 469 531 
Q 828 903 1448 1529 
Q 2069 2156 2228 2338 
Q 2531 2678 2651 2914 
Q 2772 3150 2772 3378 
Q 2772 3750 2511 3984 
Q 2250 4219 1831 4219 
Q 1534 4219 1204 4116 
Q 875 4013 500 3803 
L 500 4441 
Q 881 4594 1212 4672 
Q 1544 4750 1819 4750 
Q 2544 4750 2975 4387 
Q 3406 4025 3406 3419 
Q 3406 3131 3298 2873 
Q 3191 2616 2906 2266 
Q 2828 2175 2409 1742 
Q 1991 1309 1228 531 
z
" transform="scale(0.015625)"/>
       </defs>
       <use xlink:href="#DejaVuSans-32"/>
      </g>
     </g>
    </g>
    <g id="xtick_4">
     <g id="line2d_4">
      <g>
       <use xlink:href="#mbb80a7c230" x="861.527914" y="828.779375" style="stroke: #000000; stroke-width: 0.8"/>
      </g>
     </g>
     <g id="text_4">
      <!-- 3 -->
      <g transform="translate(855.801664 849.456563) scale(0.18 -0.18)">
       <defs>
        <path id="DejaVuSans-33" d="M 2597 2516 
Q 3050 2419 3304 2112 
Q 3559 1806 3559 1356 
Q 3559 666 3084 287 
Q 2609 -91 1734 -91 
Q 1441 -91 1130 -33 
Q 819 25 488 141 
L 488 750 
Q 750 597 1062 519 
Q 1375 441 1716 441 
Q 2309 441 2620 675 
Q 2931 909 2931 1356 
Q 2931 1769 2642 2001 
Q 2353 2234 1838 2234 
L 1294 2234 
L 1294 2753 
L 1863 2753 
Q 2328 2753 2575 2939 
Q 2822 3125 2822 3475 
Q 2822 3834 2567 4026 
Q 2313 4219 1838 4219 
Q 1578 4219 1281 4162 
Q 984 4106 628 3988 
L 628 4550 
Q 988 4650 1302 4700 
Q 1616 4750 1894 4750 
Q 2613 4750 3031 4423 
Q 3450 4097 3450 3541 
Q 3450 3153 3228 2886 
Q 3006 2619 2597 2516 
z
" transform="scale(0.015625)"/>
       </defs>
       <use xlink:href="#DejaVuSans-33"/>
      </g>
     </g>
    </g>
    <g id="xtick_5">
     <g id="line2d_5">
      <g>
       <use xlink:href="#mbb80a7c230" x="1114.91028" y="828.779375" style="stroke: #000000; stroke-width: 0.8"/>
      </g>
     </g>
     <g id="text_5">
      <!-- 4 -->
      <g transform="translate(1109.18403 849.456563) scale(0.18 -0.18)">
       <defs>
        <path id="DejaVuSans-34" d="M 2419 4116 
L 825 1625 
L 2419 1625 
L 2419 4116 
z
M 2253 4666 
L 3047 4666 
L 3047 1625 
L 3713 1625 
L 3713 1100 
L 3047 1100 
L 3047 0 
L 2419 0 
L 2419 1100 
L 313 1100 
L 313 1709 
L 2253 4666 
z
" transform="scale(0.015625)"/>
       </defs>
       <use xlink:href="#DejaVuSans-34"/>
      </g>
     </g>
    </g>
    <g id="xtick_6">
     <g id="line2d_6">
      <g>
       <use xlink:href="#mbb80a7c230" x="1368.292647" y="828.779375" style="stroke: #000000; stroke-width: 0.8"/>
      </g>
     </g>
     <g id="text_6">
      <!-- 5 -->
      <g transform="translate(1362.566397 849.456563) scale(0.18 -0.18)">
       <defs>
        <path id="DejaVuSans-35" d="M 691 4666 
L 3169 4666 
L 3169 4134 
L 1269 4134 
L 1269 2991 
Q 1406 3038 1543 3061 
Q 1681 3084 1819 3084 
Q 2600 3084 3056 2656 
Q 3513 2228 3513 1497 
Q 3513 744 3044 326 
Q 2575 -91 1722 -91 
Q 1428 -91 1123 -41 
Q 819 9 494 109 
L 494 744 
Q 775 591 1075 516 
Q 1375 441 1709 441 
Q 2250 441 2565 725 
Q 2881 1009 2881 1497 
Q 2881 1984 2565 2268 
Q 2250 2553 1709 2553 
Q 1456 2553 1204 2497 
Q 953 2441 691 2322 
L 691 4666 
z
" transform="scale(0.015625)"/>
       </defs>
       <use xlink:href="#DejaVuSans-35"/>
      </g>
     </g>
    </g>
   </g>
   <g id="matplotlib.axis_2">
    <g id="ytick_1">
     <g id="line2d_7">
      <defs>
       <path id="mede1e73cc2" d="M 0 0 
L -3.5 0 
" style="stroke: #000000; stroke-width: 0.8"/>
      </defs>
      <g>
       <use xlink:href="#mede1e73cc2" x="72.685313" y="828.779375" style="stroke: #000000; stroke-width: 0.8"/>
      </g>
     </g>
     <g id="text_7">
      <!-- 0.0 -->
      <g transform="translate(37.059688 835.617969) scale(0.18 -0.18)">
       <defs>
        <path id="DejaVuSans-2e" d="M 684 794 
L 1344 794 
L 1344 0 
L 684 0 
L 684 794 
z
" transform="scale(0.015625)"/>
       </defs>
       <use xlink:href="#DejaVuSans-30"/>
       <use xlink:href="#DejaVuSans-2e" x="63.623047"/>
       <use xlink:href="#DejaVuSans-30" x="95.410156"/>
      </g>
     </g>
    </g>
    <g id="ytick_2">
     <g id="line2d_8">
      <g>
       <use xlink:href="#mede1e73cc2" x="72.685313" y="699.272301" style="stroke: #000000; stroke-width: 0.8"/>
      </g>
     </g>
     <g id="text_8">
      <!-- 0.1 -->
      <g transform="translate(37.059688 706.110895) scale(0.18 -0.18)">
       <use xlink:href="#DejaVuSans-30"/>
       <use xlink:href="#DejaVuSans-2e" x="63.623047"/>
       <use xlink:href="#DejaVuSans-31" x="95.410156"/>
      </g>
     </g>
    </g>
    <g id="ytick_3">
     <g id="line2d_9">
      <g>
       <use xlink:href="#mede1e73cc2" x="72.685313" y="569.765227" style="stroke: #000000; stroke-width: 0.8"/>
      </g>
     </g>
     <g id="text_9">
      <!-- 0.2 -->
      <g transform="translate(37.059688 576.60382) scale(0.18 -0.18)">
       <use xlink:href="#DejaVuSans-30"/>
       <use xlink:href="#DejaVuSans-2e" x="63.623047"/>
       <use xlink:href="#DejaVuSans-32" x="95.410156"/>
      </g>
     </g>
    </g>
    <g id="ytick_4">
     <g id="line2d_10">
      <g>
       <use xlink:href="#mede1e73cc2" x="72.685313" y="440.258152" style="stroke: #000000; stroke-width: 0.8"/>
      </g>
     </g>
     <g id="text_10">
      <!-- 0.3 -->
      <g transform="translate(37.059688 447.096746) scale(0.18 -0.18)">
       <use xlink:href="#DejaVuSans-30"/>
       <use xlink:href="#DejaVuSans-2e" x="63.623047"/>
       <use xlink:href="#DejaVuSans-33" x="95.410156"/>
      </g>
     </g>
    </g>
    <g id="ytick_5">
     <g id="line2d_11">
      <g>
       <use xlink:href="#mede1e73cc2" x="72.685313" y="310.751078" style="stroke: #000000; stroke-width: 0.8"/>
      </g>
     </g>
     <g id="text_11">
      <!-- 0.4 -->
      <g transform="translate(37.059688 317.589672) scale(0.18 -0.18)">
       <use xlink:href="#DejaVuSans-30"/>
       <use xlink:href="#DejaVuSans-2e" x="63.623047"/>
       <use xlink:href="#DejaVuSans-34" x="95.410156"/>
      </g>
     </g>
    </g>
    <g id="ytick_6">
     <g id="line2d_12">
      <g>
       <use xlink:href="#mede1e73cc2" x="72.685313" y="181.244004" style="stroke: #000000; stroke-width: 0.8"/>
      </g>
     </g>
     <g id="text_12">
      <!-- 0.5 -->
      <g transform="translate(37.059688 188.082598) scale(0.18 -0.18)">
       <use xlink:href="#DejaVuSans-30"/>
       <use xlink:href="#DejaVuSans-2e" x="63.623047"/>
       <use xlink:href="#DejaVuSans-35" x="95.410156"/>
      </g>
     </g>
    </g>
    <g id="ytick_7">
     <g id="line2d_13">
      <g>
       <use xlink:href="#mede1e73cc2" x="72.685313" y="51.73693" style="stroke: #000000; stroke-width: 0.8"/>
      </g>
     </g>
     <g id="text_13">
      <!-- 0.6 -->
      <g transform="translate(37.059688 58.575524) scale(0.18 -0.18)">
       <defs>
        <path id="DejaVuSans-36" d="M 2113 2584 
Q 1688 2584 1439 2293 
Q 1191 2003 1191 1497 
Q 1191 994 1439 701 
Q 1688 409 2113 409 
Q 2538 409 2786 701 
Q 3034 994 3034 1497 
Q 3034 2003 2786 2293 
Q 2538 2584 2113 2584 
z
M 3366 4563 
L 3366 3988 
Q 3128 4100 2886 4159 
Q 2644 4219 2406 4219 
Q 1781 4219 1451 3797 
Q 1122 3375 1075 2522 
Q 1259 2794 1537 2939 
Q 1816 3084 2150 3084 
Q 2853 3084 3261 2657 
Q 3669 2231 3669 1497 
Q 3669 778 3244 343 
Q 2819 -91 2113 -91 
Q 1303 -91 875 529 
Q 447 1150 447 2328 
Q 447 3434 972 4092 
Q 1497 4750 2381 4750 
Q 2619 4750 2861 4703 
Q 3103 4656 3366 4563 
z
" transform="scale(0.015625)"/>
       </defs>
       <use xlink:href="#DejaVuSans-30"/>
       <use xlink:href="#DejaVuSans-2e" x="63.623047"/>
       <use xlink:href="#DejaVuSans-36" x="95.410156"/>
      </g>
     </g>
    </g>
    <g id="text_14">
     <!-- Normed Hist Counts -->
     <g transform="translate(28.276406 548.966563) rotate(-90) scale(0.23 -0.23)">
      <defs>
       <path id="DejaVuSans-4e" d="M 628 4666 
L 1478 4666 
L 3547 763 
L 3547 4666 
L 4159 4666 
L 4159 0 
L 3309 0 
L 1241 3903 
L 1241 0 
L 628 0 
L 628 4666 
z
" transform="scale(0.015625)"/>
       <path id="DejaVuSans-6f" d="M 1959 3097 
Q 1497 3097 1228 2736 
Q 959 2375 959 1747 
Q 959 1119 1226 758 
Q 1494 397 1959 397 
Q 2419 397 2687 759 
Q 2956 1122 2956 1747 
Q 2956 2369 2687 2733 
Q 2419 3097 1959 3097 
z
M 1959 3584 
Q 2709 3584 3137 3096 
Q 3566 2609 3566 1747 
Q 3566 888 3137 398 
Q 2709 -91 1959 -91 
Q 1206 -91 779 398 
Q 353 888 353 1747 
Q 353 2609 779 3096 
Q 1206 3584 1959 3584 
z
" transform="scale(0.015625)"/>
       <path id="DejaVuSans-72" d="M 2631 2963 
Q 2534 3019 2420 3045 
Q 2306 3072 2169 3072 
Q 1681 3072 1420 2755 
Q 1159 2438 1159 1844 
L 1159 0 
L 581 0 
L 581 3500 
L 1159 3500 
L 1159 2956 
Q 1341 3275 1631 3429 
Q 1922 3584 2338 3584 
Q 2397 3584 2469 3576 
Q 2541 3569 2628 3553 
L 2631 2963 
z
" transform="scale(0.015625)"/>
       <path id="DejaVuSans-6d" d="M 3328 2828 
Q 3544 3216 3844 3400 
Q 4144 3584 4550 3584 
Q 5097 3584 5394 3201 
Q 5691 2819 5691 2113 
L 5691 0 
L 5113 0 
L 5113 2094 
Q 5113 2597 4934 2840 
Q 4756 3084 4391 3084 
Q 3944 3084 3684 2787 
Q 3425 2491 3425 1978 
L 3425 0 
L 2847 0 
L 2847 2094 
Q 2847 2600 2669 2842 
Q 2491 3084 2119 3084 
Q 1678 3084 1418 2786 
Q 1159 2488 1159 1978 
L 1159 0 
L 581 0 
L 581 3500 
L 1159 3500 
L 1159 2956 
Q 1356 3278 1631 3431 
Q 1906 3584 2284 3584 
Q 2666 3584 2933 3390 
Q 3200 3197 3328 2828 
z
" transform="scale(0.015625)"/>
       <path id="DejaVuSans-65" d="M 3597 1894 
L 3597 1613 
L 953 1613 
Q 991 1019 1311 708 
Q 1631 397 2203 397 
Q 2534 397 2845 478 
Q 3156 559 3463 722 
L 3463 178 
Q 3153 47 2828 -22 
Q 2503 -91 2169 -91 
Q 1331 -91 842 396 
Q 353 884 353 1716 
Q 353 2575 817 3079 
Q 1281 3584 2069 3584 
Q 2775 3584 3186 3129 
Q 3597 2675 3597 1894 
z
M 3022 2063 
Q 3016 2534 2758 2815 
Q 2500 3097 2075 3097 
Q 1594 3097 1305 2825 
Q 1016 2553 972 2059 
L 3022 2063 
z
" transform="scale(0.015625)"/>
       <path id="DejaVuSans-64" d="M 2906 2969 
L 2906 4863 
L 3481 4863 
L 3481 0 
L 2906 0 
L 2906 525 
Q 2725 213 2448 61 
Q 2172 -91 1784 -91 
Q 1150 -91 751 415 
Q 353 922 353 1747 
Q 353 2572 751 3078 
Q 1150 3584 1784 3584 
Q 2172 3584 2448 3432 
Q 2725 3281 2906 2969 
z
M 947 1747 
Q 947 1113 1208 752 
Q 1469 391 1925 391 
Q 2381 391 2643 752 
Q 2906 1113 2906 1747 
Q 2906 2381 2643 2742 
Q 2381 3103 1925 3103 
Q 1469 3103 1208 2742 
Q 947 2381 947 1747 
z
" transform="scale(0.015625)"/>
       <path id="DejaVuSans-20" transform="scale(0.015625)"/>
       <path id="DejaVuSans-48" d="M 628 4666 
L 1259 4666 
L 1259 2753 
L 3553 2753 
L 3553 4666 
L 4184 4666 
L 4184 0 
L 3553 0 
L 3553 2222 
L 1259 2222 
L 1259 0 
L 628 0 
L 628 4666 
z
" transform="scale(0.015625)"/>
       <path id="DejaVuSans-69" d="M 603 3500 
L 1178 3500 
L 1178 0 
L 603 0 
L 603 3500 
z
M 603 4863 
L 1178 4863 
L 1178 4134 
L 603 4134 
L 603 4863 
z
" transform="scale(0.015625)"/>
       <path id="DejaVuSans-73" d="M 2834 3397 
L 2834 2853 
Q 2591 2978 2328 3040 
Q 2066 3103 1784 3103 
Q 1356 3103 1142 2972 
Q 928 2841 928 2578 
Q 928 2378 1081 2264 
Q 1234 2150 1697 2047 
L 1894 2003 
Q 2506 1872 2764 1633 
Q 3022 1394 3022 966 
Q 3022 478 2636 193 
Q 2250 -91 1575 -91 
Q 1294 -91 989 -36 
Q 684 19 347 128 
L 347 722 
Q 666 556 975 473 
Q 1284 391 1588 391 
Q 1994 391 2212 530 
Q 2431 669 2431 922 
Q 2431 1156 2273 1281 
Q 2116 1406 1581 1522 
L 1381 1569 
Q 847 1681 609 1914 
Q 372 2147 372 2553 
Q 372 3047 722 3315 
Q 1072 3584 1716 3584 
Q 2034 3584 2315 3537 
Q 2597 3491 2834 3397 
z
" transform="scale(0.015625)"/>
       <path id="DejaVuSans-74" d="M 1172 4494 
L 1172 3500 
L 2356 3500 
L 2356 3053 
L 1172 3053 
L 1172 1153 
Q 1172 725 1289 603 
Q 1406 481 1766 481 
L 2356 481 
L 2356 0 
L 1766 0 
Q 1100 0 847 248 
Q 594 497 594 1153 
L 594 3053 
L 172 3053 
L 172 3500 
L 594 3500 
L 594 4494 
L 1172 4494 
z
" transform="scale(0.015625)"/>
       <path id="DejaVuSans-43" d="M 4122 4306 
L 4122 3641 
Q 3803 3938 3442 4084 
Q 3081 4231 2675 4231 
Q 1875 4231 1450 3742 
Q 1025 3253 1025 2328 
Q 1025 1406 1450 917 
Q 1875 428 2675 428 
Q 3081 428 3442 575 
Q 3803 722 4122 1019 
L 4122 359 
Q 3791 134 3420 21 
Q 3050 -91 2638 -91 
Q 1578 -91 968 557 
Q 359 1206 359 2328 
Q 359 3453 968 4101 
Q 1578 4750 2638 4750 
Q 3056 4750 3426 4639 
Q 3797 4528 4122 4306 
z
" transform="scale(0.015625)"/>
       <path id="DejaVuSans-75" d="M 544 1381 
L 544 3500 
L 1119 3500 
L 1119 1403 
Q 1119 906 1312 657 
Q 1506 409 1894 409 
Q 2359 409 2629 706 
Q 2900 1003 2900 1516 
L 2900 3500 
L 3475 3500 
L 3475 0 
L 2900 0 
L 2900 538 
Q 2691 219 2414 64 
Q 2138 -91 1772 -91 
Q 1169 -91 856 284 
Q 544 659 544 1381 
z
M 1991 3584 
L 1991 3584 
z
" transform="scale(0.015625)"/>
       <path id="DejaVuSans-6e" d="M 3513 2113 
L 3513 0 
L 2938 0 
L 2938 2094 
Q 2938 2591 2744 2837 
Q 2550 3084 2163 3084 
Q 1697 3084 1428 2787 
Q 1159 2491 1159 1978 
L 1159 0 
L 581 0 
L 581 3500 
L 1159 3500 
L 1159 2956 
Q 1366 3272 1645 3428 
Q 1925 3584 2291 3584 
Q 2894 3584 3203 3211 
Q 3513 2838 3513 2113 
z
" transform="scale(0.015625)"/>
      </defs>
      <use xlink:href="#DejaVuSans-4e"/>
      <use xlink:href="#DejaVuSans-6f" x="74.804688"/>
      <use xlink:href="#DejaVuSans-72" x="135.986328"/>
      <use xlink:href="#DejaVuSans-6d" x="175.349609"/>
      <use xlink:href="#DejaVuSans-65" x="272.761719"/>
      <use xlink:href="#DejaVuSans-64" x="334.285156"/>
      <use xlink:href="#DejaVuSans-20" x="397.761719"/>
      <use xlink:href="#DejaVuSans-48" x="429.548828"/>
      <use xlink:href="#DejaVuSans-69" x="504.744141"/>
      <use xlink:href="#DejaVuSans-73" x="532.527344"/>
      <use xlink:href="#DejaVuSans-74" x="584.626953"/>
      <use xlink:href="#DejaVuSans-20" x="623.835938"/>
      <use xlink:href="#DejaVuSans-43" x="655.623047"/>
      <use xlink:href="#DejaVuSans-6f" x="725.447266"/>
      <use xlink:href="#DejaVuSans-75" x="786.628906"/>
      <use xlink:href="#DejaVuSans-6e" x="850.007812"/>
      <use xlink:href="#DejaVuSans-74" x="913.386719"/>
      <use xlink:href="#DejaVuSans-73" x="952.595703"/>
     </g>
    </g>
   </g>
   <g id="line2d_14">
    <path d="M 137.428059 827.056476 
L 143.594035 825.949946 
L 149.760011 824.462827 
L 155.925987 822.546481 
L 162.091962 820.155314 
L 168.257938 817.246948 
L 174.423914 813.782392 
L 180.58989 809.726207 
L 186.755866 805.046663 
L 192.921842 799.715879 
L 199.087817 793.709939 
L 205.253793 787.008999 
L 211.419769 779.597372 
L 217.585745 771.463586 
L 223.751721 762.600422 
L 229.917697 753.004938 
L 236.083673 742.678458 
L 242.249648 731.626547 
L 248.415624 719.858958 
L 254.5816 707.389564 
L 260.747576 694.236261 
L 266.913552 680.420855 
L 273.079528 665.968924 
L 279.245504 650.909671 
L 285.411479 635.275745 
L 291.577455 619.103056 
L 297.743431 602.43057 
L 303.909407 585.30009 
L 310.075383 567.756025 
L 322.407335 531.61634 
L 334.739286 494.409448 
L 353.237214 437.528651 
L 371.735141 380.691602 
L 384.067093 343.569432 
L 396.399045 307.573908 
L 402.565021 290.130619 
L 408.730996 273.124529 
L 414.896972 256.604141 
L 421.062948 240.615992 
L 427.228924 225.204468 
L 433.3949 210.411628 
L 439.560876 196.277054 
L 445.726852 182.83771 
L 451.892827 170.127817 
L 458.058803 158.178746 
L 464.224779 147.018931 
L 470.390755 136.673793 
L 476.556731 127.165682 
L 482.722707 118.513839 
L 488.888683 110.734373 
L 495.054658 103.840248 
L 501.220634 97.841297 
L 507.38661 92.744242 
L 513.552586 88.552732 
L 519.718562 85.267394 
L 525.884538 82.885897 
L 532.050513 81.403033 
L 538.216489 80.810802 
L 544.382465 81.098513 
L 550.548441 82.252895 
L 556.714417 84.258213 
L 562.880393 87.096399 
L 569.046369 90.747183 
L 575.212344 95.188232 
L 581.37832 100.3953 
L 587.544296 106.342374 
L 593.710272 113.001827 
L 599.876248 120.344576 
L 606.042224 128.340237 
L 612.2082 136.957283 
L 618.374175 146.1632 
L 624.540151 155.924644 
L 630.706127 166.207598 
L 636.872103 176.977517 
L 643.038079 188.199482 
L 649.204055 199.838345 
L 655.370031 211.858863 
L 661.536006 224.225838 
L 667.701982 236.904247 
L 680.033934 263.05686 
L 692.365886 290.04449 
L 704.697837 317.604895 
L 754.025644 428.831111 
L 766.357596 455.851547 
L 778.689548 482.213363 
L 791.021499 507.780655 
L 803.353451 532.438273 
L 809.519427 544.395538 
L 815.685403 556.091361 
L 821.851379 567.516931 
L 828.017354 578.6646 
L 834.18333 589.527843 
L 840.349306 600.101225 
L 846.515282 610.380352 
L 852.681258 620.361838 
L 858.847234 630.043252 
L 865.01321 639.423077 
L 871.179185 648.500661 
L 877.345161 657.276171 
L 883.511137 665.750543 
L 889.677113 673.925435 
L 895.843089 681.803176 
L 902.009065 689.386722 
L 908.17504 696.679605 
L 914.341016 703.685886 
L 920.506992 710.410112 
L 926.672968 716.857266 
L 932.838944 723.032727 
L 939.00492 728.942224 
L 945.170896 734.591799 
L 951.336871 739.987761 
L 957.502847 745.136653 
L 963.668823 750.045213 
L 969.834799 754.720339 
L 976.000775 759.169058 
L 982.166751 763.398489 
L 988.332727 767.415821 
L 994.498702 771.22828 
L 1000.664678 774.843104 
L 1006.830654 778.26752 
L 1012.99663 781.508722 
L 1019.162606 784.573848 
L 1025.328582 787.469962 
L 1031.494558 790.204039 
L 1037.660533 792.782948 
L 1043.826509 795.213434 
L 1049.992485 797.502115 
L 1056.158461 799.65546 
L 1062.324437 801.679788 
L 1068.490413 803.581255 
L 1080.822364 807.039383 
L 1093.154316 810.075625 
L 1105.486268 812.732846 
L 1117.818219 815.050928 
L 1130.150171 817.066749 
L 1142.482123 818.814216 
L 1154.814075 820.324337 
L 1167.146026 821.625317 
L 1179.477978 822.742684 
L 1197.975906 824.124102 
L 1216.473833 825.211297 
L 1234.971761 826.061194 
L 1253.469688 826.72117 
L 1278.133592 827.372169 
L 1308.963471 827.917542 
L 1345.959326 828.311212 
L 1364.457254 828.437383 
L 1364.457254 828.437383 
" clip-path="url(#pcdb996b93a)" style="fill: none; stroke: #ff7f0e; stroke-width: 1.5; stroke-linecap: square"/>
   </g>
   <g id="line2d_15">
    <path d="M 137.428059 822.310519 
L 143.594035 820.849729 
L 149.760011 819.13093 
L 155.925987 817.122783 
L 162.091962 814.792453 
L 168.257938 812.105868 
L 174.423914 809.028013 
L 180.58989 805.523261 
L 186.755866 801.555746 
L 192.921842 797.089757 
L 199.087817 792.090165 
L 205.253793 786.522864 
L 211.419769 780.355225 
L 217.585745 773.556556 
L 223.751721 766.098563 
L 229.917697 757.955795 
L 236.083673 749.106079 
L 242.249648 739.530931 
L 248.415624 729.215935 
L 254.5816 718.151089 
L 260.747576 706.331105 
L 266.913552 693.755673 
L 273.079528 680.429661 
L 279.245504 666.363273 
L 285.411479 651.572147 
L 291.577455 636.07739 
L 297.743431 619.905565 
L 303.909407 603.088615 
L 310.075383 585.663725 
L 316.241359 567.673138 
L 322.407335 549.163914 
L 328.57331 530.187637 
L 340.905262 491.060843 
L 353.237214 450.782222 
L 390.233069 328.544556 
L 402.565021 289.26243 
L 408.730996 270.220055 
L 414.896972 251.668514 
L 421.062948 233.673708 
L 427.228924 216.298745 
L 433.3949 199.603579 
L 439.560876 183.644669 
L 445.726852 168.474691 
L 451.892827 154.142268 
L 458.058803 140.691757 
L 464.224779 128.163056 
L 470.390755 116.59147 
L 476.556731 106.007599 
L 482.722707 96.437268 
L 488.888683 87.901504 
L 495.054658 80.416531 
L 501.220634 73.993818 
L 507.38661 68.640138 
L 513.552586 64.357678 
L 519.718562 61.144161 
L 525.884538 58.993002 
L 532.050513 57.893478 
L 538.216489 57.830934 
L 544.382465 58.786985 
L 550.548441 60.739753 
L 556.714417 63.664103 
L 562.880393 67.531898 
L 569.046369 72.312254 
L 575.212344 77.971803 
L 581.37832 84.474963 
L 587.544296 91.784202 
L 593.710272 99.860305 
L 599.876248 108.662636 
L 606.042224 118.149395 
L 612.2082 128.277872 
L 618.374175 139.004686 
L 624.540151 150.286023 
L 630.706127 162.077861 
L 636.872103 174.336179 
L 643.038079 187.017161 
L 649.204055 200.077385 
L 655.370031 213.473998 
L 667.701982 241.108789 
L 680.033934 269.595939 
L 698.531862 313.257989 
L 723.195765 371.773277 
L 735.527717 400.619414 
L 747.859668 428.919603 
L 760.19162 456.503477 
L 772.523572 483.226851 
L 784.855523 508.970798 
L 791.021499 521.444923 
L 797.187475 533.640383 
L 803.353451 545.548805 
L 809.519427 557.163112 
L 815.685403 568.477464 
L 821.851379 579.487196 
L 828.017354 590.188764 
L 834.18333 600.579675 
L 840.349306 610.658433 
L 846.515282 620.424471 
L 852.681258 629.878097 
L 858.847234 639.020426 
L 865.01321 647.853325 
L 871.179185 656.379352 
L 877.345161 664.601702 
L 883.511137 672.524149 
L 889.677113 680.150991 
L 895.843089 687.487004 
L 902.009065 694.537384 
L 908.17504 701.307706 
L 914.341016 707.803872 
L 920.506992 714.032076 
L 926.672968 719.998751 
L 932.838944 725.710542 
L 939.00492 731.174261 
L 945.170896 736.396855 
L 951.336871 741.385372 
L 957.502847 746.146934 
L 963.668823 750.688707 
L 969.834799 755.017873 
L 976.000775 759.141611 
L 982.166751 763.067068 
L 988.332727 766.801346 
L 994.498702 770.35148 
L 1000.664678 773.724419 
L 1006.830654 776.927019 
L 1012.99663 779.966019 
L 1019.162606 782.84804 
L 1025.328582 785.579568 
L 1031.494558 788.166945 
L 1037.660533 790.616367 
L 1043.826509 792.93387 
L 1049.992485 795.125329 
L 1062.324437 799.152791 
L 1074.656388 802.742386 
L 1086.98834 805.934982 
L 1099.320292 808.768665 
L 1111.652244 811.278759 
L 1123.984195 813.497887 
L 1136.316147 815.456052 
L 1148.648099 817.180741 
L 1160.98005 818.697047 
L 1173.312002 820.027792 
L 1185.643954 821.193671 
L 1204.141881 822.673771 
L 1222.639809 823.880043 
L 1241.137737 824.859646 
L 1259.635664 825.652428 
L 1284.299567 826.475929 
L 1308.963471 827.090734 
L 1339.79335 827.641373 
L 1364.457254 827.953652 
L 1364.457254 827.953652 
" clip-path="url(#pcdb996b93a)" style="fill: none; stroke: #2ca02c; stroke-width: 1.5; stroke-linecap: square"/>
   </g>
   <g id="line2d_16">
    <path d="M 137.428059 93.354032 
L 149.760011 113.539158 
L 162.091962 133.170265 
L 174.423914 152.26256 
L 186.755866 170.830832 
L 199.087817 188.889462 
L 211.419769 206.452439 
L 223.751721 223.533368 
L 236.083673 240.145478 
L 248.415624 256.301638 
L 260.747576 272.014362 
L 273.079528 287.295821 
L 285.411479 302.157852 
L 297.743431 316.611966 
L 310.075383 330.66936 
L 322.407335 344.340922 
L 334.739286 357.637243 
L 347.071238 370.568621 
L 359.40319 383.145074 
L 371.735141 395.376342 
L 384.067093 407.2719 
L 396.399045 418.840963 
L 408.730996 430.09249 
L 421.062948 441.035199 
L 433.3949 451.677564 
L 445.726852 462.02783 
L 458.058803 472.094013 
L 470.390755 481.883911 
L 482.722707 491.405107 
L 495.054658 500.664975 
L 507.38661 509.67069 
L 519.718562 518.429225 
L 532.050513 526.947367 
L 544.382465 535.231711 
L 556.714417 543.288677 
L 569.046369 551.124504 
L 581.37832 558.745262 
L 593.710272 566.156854 
L 606.042224 573.365021 
L 618.374175 580.375347 
L 630.706127 587.19326 
L 643.038079 593.824044 
L 655.370031 600.272833 
L 667.701982 606.544623 
L 680.033934 612.644272 
L 698.531862 621.481281 
L 717.029789 629.956976 
L 735.527717 638.086129 
L 754.025644 645.882909 
L 772.523572 653.360907 
L 791.021499 660.533155 
L 809.519427 667.412155 
L 828.017354 674.009896 
L 846.515282 680.337879 
L 865.01321 686.407133 
L 883.511137 692.228237 
L 902.009065 697.811336 
L 920.506992 703.166161 
L 939.00492 708.302046 
L 957.502847 713.227943 
L 976.000775 717.952437 
L 994.498702 722.483764 
L 1012.99663 726.82982 
L 1031.494558 730.998181 
L 1056.158461 736.292095 
L 1080.822364 741.299395 
L 1105.486268 746.035597 
L 1130.150171 750.51538 
L 1154.814075 754.752625 
L 1179.477978 758.760464 
L 1204.141881 762.551317 
L 1228.805785 766.136932 
L 1253.469688 769.52842 
L 1284.299567 773.510746 
L 1315.129447 777.225415 
L 1345.959326 780.690417 
L 1364.457254 782.656607 
L 1364.457254 782.656607 
" clip-path="url(#pcdb996b93a)" style="fill: none; stroke: #d62728; stroke-width: 1.5; stroke-linecap: square"/>
   </g>
   <g id="line2d_17">
    <path d="M 137.428059 774.457321 
L 149.760011 769.410667 
L 155.925987 766.714154 
L 162.091962 763.895166 
L 168.257938 760.948141 
L 174.423914 757.867262 
L 180.58989 754.64645 
L 186.755866 751.279349 
L 192.921842 747.759316 
L 199.087817 744.079404 
L 205.253793 740.232351 
L 211.419769 736.210566 
L 217.585745 732.006112 
L 223.751721 727.610692 
L 229.917697 723.015634 
L 236.083673 718.21187 
L 242.249648 713.189919 
L 248.415624 707.939873 
L 254.5816 702.451371 
L 260.747576 696.713582 
L 266.913552 690.715184 
L 273.079528 684.44434 
L 279.245504 677.888677 
L 285.411479 671.035256 
L 291.577455 663.870555 
L 297.743431 656.380434 
L 303.909407 648.550114 
L 310.075383 640.364143 
L 316.241359 631.806367 
L 322.407335 622.859898 
L 328.57331 613.507083 
L 334.739286 603.729465 
L 340.905262 593.507751 
L 347.071238 582.821768 
L 353.237214 571.65043 
L 359.40319 559.971693 
L 365.569165 547.762511 
L 371.735141 534.99879 
L 377.901117 521.655343 
L 384.067093 507.705841 
L 390.233069 493.122755 
L 396.399045 477.877309 
L 402.565021 461.939419 
L 408.730996 445.277633 
L 414.896972 427.859072 
L 421.062948 409.649365 
L 427.228924 390.612577 
L 433.3949 370.711143 
L 439.560876 349.905789 
L 445.726852 328.155462 
L 451.892827 305.41724 
L 458.058803 281.646253 
L 464.224779 256.795593 
L 470.390755 230.816222 
L 476.556731 203.656874 
L 482.722707 175.263955 
L 488.888683 145.581435 
L 495.054658 114.550743 
L 501.220634 82.110644 
L 507.38661 48.197123 
L 515.838907 -1 
M 614.116913 -1 
L 618.374175 24.230506 
L 624.540151 59.185291 
L 630.706127 92.621415 
L 636.872103 124.604859 
L 643.038079 155.198735 
L 649.204055 184.463417 
L 655.370031 212.456652 
L 661.536006 239.233681 
L 667.701982 264.847344 
L 673.867958 289.348184 
L 680.033934 312.784549 
L 686.19991 335.202688 
L 692.365886 356.646839 
L 698.531862 377.159317 
L 704.697837 396.780601 
L 710.863813 415.549411 
L 717.029789 433.502782 
L 723.195765 450.676143 
L 729.361741 467.103383 
L 735.527717 482.816918 
L 741.693692 497.847756 
L 747.859668 512.225557 
L 754.025644 525.978694 
L 760.19162 539.134306 
L 766.357596 551.718353 
L 772.523572 563.755668 
L 778.689548 575.270005 
L 784.855523 586.284085 
L 791.021499 596.819643 
L 797.187475 606.897468 
L 803.353451 616.537447 
L 809.519427 625.758603 
L 815.685403 634.579133 
L 821.851379 643.016443 
L 828.017354 651.087181 
L 834.18333 658.807274 
L 840.349306 666.191957 
L 846.515282 673.255802 
L 852.681258 680.012748 
L 858.847234 686.476128 
L 865.01321 692.658698 
L 871.179185 698.572657 
L 877.345161 704.229676 
L 883.511137 709.640917 
L 889.677113 714.817059 
L 895.843089 719.768316 
L 902.009065 724.504458 
L 908.17504 729.034832 
L 914.341016 733.368378 
L 920.506992 737.513646 
L 926.672968 741.478817 
L 932.838944 745.271716 
L 939.00492 748.899826 
L 945.170896 752.370309 
L 951.336871 755.690011 
L 957.502847 758.865483 
L 963.668823 761.902993 
L 969.834799 764.808534 
L 982.166751 770.246394 
L 994.498702 775.222007 
L 1006.830654 779.774666 
L 1019.162606 783.940326 
L 1031.494558 787.751882 
L 1043.826509 791.239436 
L 1056.158461 794.430529 
L 1068.490413 797.350363 
L 1080.822364 800.021995 
L 1093.154316 802.466525 
L 1105.486268 804.703256 
L 1117.818219 806.749854 
L 1130.150171 808.622479 
L 1142.482123 810.335922 
L 1160.98005 812.636901 
L 1179.477978 814.650812 
L 1197.975906 816.413471 
L 1216.473833 817.956224 
L 1234.971761 819.306504 
L 1259.635664 820.848543 
L 1284.299567 822.139561 
L 1308.963471 823.220421 
L 1339.79335 824.327535 
L 1364.457254 825.052226 
L 1364.457254 825.052226 
" clip-path="url(#pcdb996b93a)" style="fill: none; stroke: #9467bd; stroke-width: 1.5; stroke-linecap: square"/>
   </g>
   <g id="line2d_18">
    <path d="M 137.428059 820.631653 
L 143.594035 819.048595 
L 149.760011 817.217444 
L 155.925987 815.110293 
L 162.091962 812.697831 
L 168.257938 809.949513 
L 174.423914 806.833778 
L 180.58989 803.318291 
L 186.755866 799.370225 
L 192.921842 794.956576 
L 199.087817 790.044501 
L 205.253793 784.601687 
L 211.419769 778.59674 
L 217.585745 771.999587 
L 223.751721 764.78189 
L 229.917697 756.91747 
L 236.083673 748.382718 
L 242.249648 739.157012 
L 248.415624 729.223109 
L 254.5816 718.567523 
L 260.747576 707.180872 
L 266.913552 695.058194 
L 273.079528 682.199227 
L 279.245504 668.608643 
L 285.411479 654.296233 
L 291.577455 639.277048 
L 297.743431 623.571479 
L 303.909407 607.205285 
L 310.075383 590.209562 
L 316.241359 572.620656 
L 322.407335 554.480019 
L 328.57331 535.834012 
L 334.739286 516.733648 
L 347.071238 477.395313 
L 359.40319 436.953577 
L 390.233069 334.643873 
L 402.565021 294.779201 
L 408.730996 275.370881 
L 414.896972 256.408476 
L 421.062948 237.962134 
L 427.228924 220.099607 
L 433.3949 202.88582 
L 439.560876 186.38246 
L 445.726852 170.647606 
L 451.892827 155.735395 
L 458.058803 141.695728 
L 464.224779 128.574016 
L 470.390755 116.410973 
L 476.556731 105.242444 
L 482.722707 95.099284 
L 488.888683 86.007272 
L 495.054658 77.987077 
L 501.220634 71.05425 
L 507.38661 65.219267 
L 513.552586 60.487602 
L 519.718562 56.859836 
L 525.884538 54.331797 
L 532.050513 52.89473 
L 538.216489 52.535493 
L 544.382465 53.236772 
L 550.548441 54.977328 
L 556.714417 57.732242 
L 562.880393 61.473194 
L 569.046369 66.16874 
L 575.212344 71.784601 
L 581.37832 78.283957 
L 587.544296 85.627747 
L 593.710272 93.774965 
L 599.876248 102.682953 
L 606.042224 112.307693 
L 612.2082 122.604094 
L 618.374175 133.526263 
L 624.540151 145.027777 
L 630.706127 157.061932 
L 636.872103 169.58199 
L 643.038079 182.541407 
L 649.204055 195.894048 
L 655.370031 209.594386 
L 667.701982 237.86018 
L 680.033934 266.993369 
L 698.531862 311.613828 
L 723.195765 371.310352 
L 735.527717 400.680523 
L 747.859668 429.450101 
L 760.19162 457.444048 
L 772.523572 484.515719 
L 778.689548 497.667358 
L 784.855523 510.545694 
L 791.021499 523.139801 
L 797.187475 535.440245 
L 803.353451 547.439023 
L 809.519427 559.1295 
L 815.685403 570.506336 
L 821.851379 581.565423 
L 828.017354 592.303817 
L 834.18333 602.719662 
L 840.349306 612.812129 
L 846.515282 622.581341 
L 852.681258 632.028308 
L 858.847234 641.15486 
L 865.01321 649.963579 
L 871.179185 658.457738 
L 877.345161 666.641241 
L 883.511137 674.518555 
L 889.677113 682.094661 
L 895.843089 689.374996 
L 902.009065 696.365397 
L 908.17504 703.072053 
L 914.341016 709.501459 
L 920.506992 715.660366 
L 926.672968 721.555744 
L 932.838944 727.194735 
L 939.00492 732.584622 
L 945.170896 737.73279 
L 951.336871 742.646695 
L 957.502847 747.333832 
L 963.668823 751.80171 
L 969.834799 756.057824 
L 976.000775 760.109634 
L 982.166751 763.964541 
L 988.332727 767.629871 
L 994.498702 771.112853 
L 1000.664678 774.420612 
L 1006.830654 777.560145 
L 1012.99663 780.538317 
L 1019.162606 783.361848 
L 1025.328582 786.037302 
L 1031.494558 788.571084 
L 1037.660533 790.969429 
L 1043.826509 793.238399 
L 1049.992485 795.383881 
L 1062.324437 799.327021 
L 1074.656388 802.842304 
L 1086.98834 805.970257 
L 1099.320292 808.748494 
L 1111.652244 811.211777 
L 1123.984195 813.392094 
L 1136.316147 815.318777 
L 1148.648099 817.01862 
L 1160.98005 818.51602 
L 1173.312002 819.833119 
L 1191.80993 821.513995 
L 1210.307857 822.893339 
L 1228.805785 824.021873 
L 1247.303712 824.942581 
L 1271.967616 825.908678 
L 1296.631519 826.639194 
L 1327.461398 827.303761 
L 1364.457254 827.840971 
L 1364.457254 827.840971 
" clip-path="url(#pcdb996b93a)" style="fill: none; stroke: #8c564b; stroke-width: 1.5; stroke-linecap: square"/>
   </g>
   <g id="line2d_19">
    <path d="M 137.428059 798.505195 
L 143.594035 795.670966 
L 149.760011 792.617099 
L 155.925987 789.331397 
L 162.091962 785.801467 
L 168.257938 782.014763 
L 174.423914 777.958641 
L 180.58989 773.620415 
L 186.755866 768.987421 
L 192.921842 764.047086 
L 199.087817 758.787003 
L 205.253793 753.195004 
L 211.419769 747.259252 
L 217.585745 740.968321 
L 223.751721 734.311294 
L 229.917697 727.277858 
L 236.083673 719.858403 
L 242.249648 712.044123 
L 248.415624 703.827126 
L 254.5816 695.200536 
L 260.747576 686.1586 
L 266.913552 676.6968 
L 273.079528 666.811956 
L 279.245504 656.502335 
L 285.411479 645.76775 
L 291.577455 634.60966 
L 297.743431 623.031269 
L 303.909407 611.037611 
L 310.075383 598.635635 
L 316.241359 585.834282 
L 322.407335 572.644547 
L 328.57331 559.079543 
L 334.739286 545.154541 
L 340.905262 530.88701 
L 347.071238 516.296641 
L 359.40319 486.237282 
L 371.735141 455.178385 
L 384.067093 423.356508 
L 402.565021 374.79061 
L 421.062948 326.152381 
L 433.3949 294.251162 
L 445.726852 263.189525 
L 451.892827 248.089303 
L 458.058803 233.338379 
L 464.224779 218.983333 
L 470.390755 205.07038 
L 476.556731 191.645125 
L 482.722707 178.752319 
L 488.888683 166.435609 
L 495.054658 154.737296 
L 501.220634 143.698089 
L 507.38661 133.356877 
L 513.552586 123.750496 
L 519.718562 114.913513 
L 525.884538 106.878017 
L 532.050513 99.673426 
L 538.216489 93.32631 
L 544.382465 87.860224 
L 550.548441 83.295566 
L 556.714417 79.649445 
L 562.880393 76.93558 
L 569.046369 75.164212 
L 575.212344 74.342036 
L 581.37832 74.472166 
L 587.544296 75.554109 
L 593.710272 77.58377 
L 599.876248 80.553479 
L 606.042224 84.452039 
L 612.2082 89.264795 
L 618.374175 94.973726 
L 624.540151 101.557561 
L 630.706127 108.991905 
L 636.872103 117.249393 
L 643.038079 126.29986 
L 649.204055 136.110518 
L 655.370031 146.64616 
L 661.536006 157.869367 
L 667.701982 169.740732 
L 673.867958 182.219084 
L 680.033934 195.261732 
L 686.19991 208.824703 
L 692.365886 222.862988 
L 698.531862 237.33079 
L 704.697837 252.181771 
L 717.029789 282.846662 
L 729.361741 314.485261 
L 747.859668 362.971593 
L 772.523572 427.738615 
L 784.855523 459.47145 
L 797.187475 490.407007 
L 809.519427 520.313373 
L 815.685403 534.817629 
L 821.851379 548.993446 
L 828.017354 562.821743 
L 834.18333 576.285653 
L 840.349306 589.370499 
L 846.515282 602.063752 
L 852.681258 614.354983 
L 858.847234 626.235803 
L 865.01321 637.699794 
L 871.179185 648.742432 
L 877.345161 659.360996 
L 883.511137 669.554488 
L 889.677113 679.323527 
L 895.843089 688.670252 
L 902.009065 697.598218 
L 908.17504 706.112293 
L 914.341016 714.218546 
L 920.506992 721.924141 
L 926.672968 729.237231 
L 932.838944 736.166851 
L 939.00492 742.722814 
L 945.170896 748.915608 
L 951.336871 754.756299 
L 957.502847 760.256432 
L 963.668823 765.427945 
L 969.834799 770.283077 
L 976.000775 774.834291 
L 982.166751 779.094191 
L 988.332727 783.075453 
L 994.498702 786.790758 
L 1000.664678 790.252728 
L 1006.830654 793.473873 
L 1012.99663 796.466536 
L 1019.162606 799.242852 
L 1025.328582 801.814702 
L 1031.494558 804.19368 
L 1037.660533 806.391063 
L 1043.826509 808.417782 
L 1049.992485 810.284402 
L 1056.158461 812.001105 
L 1062.324437 813.577673 
L 1068.490413 815.023483 
L 1080.822364 817.558248 
L 1093.154316 819.67206 
L 1105.486268 821.424922 
L 1117.818219 822.87034 
L 1130.150171 824.055603 
L 1142.482123 825.022149 
L 1154.814075 825.805984 
L 1173.312002 826.70582 
L 1191.80993 827.349682 
L 1216.473833 827.923782 
L 1247.303712 828.341644 
L 1284.299567 828.591514 
L 1345.959326 828.737911 
L 1364.457254 828.753663 
L 1364.457254 828.753663 
" clip-path="url(#pcdb996b93a)" style="fill: none; stroke: #e377c2; stroke-width: 1.5; stroke-linecap: square"/>
   </g>
   <g id="patch_103">
    <path d="M 72.685313 828.779375 
L 72.685313 38.075625 
" style="fill: none; stroke: #000000; stroke-width: 0.8; stroke-linejoin: miter; stroke-linecap: square"/>
   </g>
   <g id="patch_104">
    <path d="M 1429.2 828.779375 
L 1429.2 38.075625 
" style="fill: none; stroke: #000000; stroke-width: 0.8; stroke-linejoin: miter; stroke-linecap: square"/>
   </g>
   <g id="patch_105">
    <path d="M 72.685313 828.779375 
L 1429.2 828.779375 
" style="fill: none; stroke: #000000; stroke-width: 0.8; stroke-linejoin: miter; stroke-linecap: square"/>
   </g>
   <g id="patch_106">
    <path d="M 72.685313 38.075625 
L 1429.2 38.075625 
" style="fill: none; stroke: #000000; stroke-width: 0.8; stroke-linejoin: miter; stroke-linecap: square"/>
   </g>
   <g id="text_15">
    <!-- All Fitted Distributions -->
    <g transform="translate(596.317031 32.075625) scale(0.28 -0.28)">
     <defs>
      <path id="DejaVuSans-41" d="M 2188 4044 
L 1331 1722 
L 3047 1722 
L 2188 4044 
z
M 1831 4666 
L 2547 4666 
L 4325 0 
L 3669 0 
L 3244 1197 
L 1141 1197 
L 716 0 
L 50 0 
L 1831 4666 
z
" transform="scale(0.015625)"/>
      <path id="DejaVuSans-6c" d="M 603 4863 
L 1178 4863 
L 1178 0 
L 603 0 
L 603 4863 
z
" transform="scale(0.015625)"/>
      <path id="DejaVuSans-46" d="M 628 4666 
L 3309 4666 
L 3309 4134 
L 1259 4134 
L 1259 2759 
L 3109 2759 
L 3109 2228 
L 1259 2228 
L 1259 0 
L 628 0 
L 628 4666 
z
" transform="scale(0.015625)"/>
      <path id="DejaVuSans-44" d="M 1259 4147 
L 1259 519 
L 2022 519 
Q 2988 519 3436 956 
Q 3884 1394 3884 2338 
Q 3884 3275 3436 3711 
Q 2988 4147 2022 4147 
L 1259 4147 
z
M 628 4666 
L 1925 4666 
Q 3281 4666 3915 4102 
Q 4550 3538 4550 2338 
Q 4550 1131 3912 565 
Q 3275 0 1925 0 
L 628 0 
L 628 4666 
z
" transform="scale(0.015625)"/>
      <path id="DejaVuSans-62" d="M 3116 1747 
Q 3116 2381 2855 2742 
Q 2594 3103 2138 3103 
Q 1681 3103 1420 2742 
Q 1159 2381 1159 1747 
Q 1159 1113 1420 752 
Q 1681 391 2138 391 
Q 2594 391 2855 752 
Q 3116 1113 3116 1747 
z
M 1159 2969 
Q 1341 3281 1617 3432 
Q 1894 3584 2278 3584 
Q 2916 3584 3314 3078 
Q 3713 2572 3713 1747 
Q 3713 922 3314 415 
Q 2916 -91 2278 -91 
Q 1894 -91 1617 61 
Q 1341 213 1159 525 
L 1159 0 
L 581 0 
L 581 4863 
L 1159 4863 
L 1159 2969 
z
" transform="scale(0.015625)"/>
     </defs>
     <use xlink:href="#DejaVuSans-41"/>
     <use xlink:href="#DejaVuSans-6c" x="68.408203"/>
     <use xlink:href="#DejaVuSans-6c" x="96.191406"/>
     <use xlink:href="#DejaVuSans-20" x="123.974609"/>
     <use xlink:href="#DejaVuSans-46" x="155.761719"/>
     <use xlink:href="#DejaVuSans-69" x="206.03125"/>
     <use xlink:href="#DejaVuSans-74" x="233.814453"/>
     <use xlink:href="#DejaVuSans-74" x="273.023438"/>
     <use xlink:href="#DejaVuSans-65" x="312.232422"/>
     <use xlink:href="#DejaVuSans-64" x="373.755859"/>
     <use xlink:href="#DejaVuSans-20" x="437.232422"/>
     <use xlink:href="#DejaVuSans-44" x="469.019531"/>
     <use xlink:href="#DejaVuSans-69" x="546.021484"/>
     <use xlink:href="#DejaVuSans-73" x="573.804688"/>
     <use xlink:href="#DejaVuSans-74" x="625.904297"/>
     <use xlink:href="#DejaVuSans-72" x="665.113281"/>
     <use xlink:href="#DejaVuSans-69" x="706.226562"/>
     <use xlink:href="#DejaVuSans-62" x="734.009766"/>
     <use xlink:href="#DejaVuSans-75" x="797.486328"/>
     <use xlink:href="#DejaVuSans-74" x="860.865234"/>
     <use xlink:href="#DejaVuSans-69" x="900.074219"/>
     <use xlink:href="#DejaVuSans-6f" x="927.857422"/>
     <use xlink:href="#DejaVuSans-6e" x="989.039062"/>
     <use xlink:href="#DejaVuSans-73" x="1052.417969"/>
    </g>
   </g>
   <g id="legend_1">
    <g id="patch_107">
     <path d="M 1014.37125 303.868125 
L 1412.4 303.868125 
Q 1417.2 303.868125 1417.2 299.068125 
L 1417.2 54.875625 
Q 1417.2 50.075625 1412.4 50.075625 
L 1014.37125 50.075625 
Q 1009.57125 50.075625 1009.57125 54.875625 
L 1009.57125 299.068125 
Q 1009.57125 303.868125 1014.37125 303.868125 
z
" style="fill: #ffffff; opacity: 0.8; stroke: #cccccc; stroke-linejoin: miter"/>
    </g>
    <g id="patch_108">
     <path d="M 1019.17125 77.911875 
L 1067.17125 77.911875 
L 1067.17125 61.111875 
L 1019.17125 61.111875 
z
" style="fill: #1f77b4; opacity: 0.6"/>
    </g>
    <g id="text_16">
     <!-- Generated Chi Distribution -->
     <g transform="translate(1086.37125 77.911875) scale(0.24 -0.24)">
      <defs>
       <path id="DejaVuSans-47" d="M 3809 666 
L 3809 1919 
L 2778 1919 
L 2778 2438 
L 4434 2438 
L 4434 434 
Q 4069 175 3628 42 
Q 3188 -91 2688 -91 
Q 1594 -91 976 548 
Q 359 1188 359 2328 
Q 359 3472 976 4111 
Q 1594 4750 2688 4750 
Q 3144 4750 3555 4637 
Q 3966 4525 4313 4306 
L 4313 3634 
Q 3963 3931 3569 4081 
Q 3175 4231 2741 4231 
Q 1884 4231 1454 3753 
Q 1025 3275 1025 2328 
Q 1025 1384 1454 906 
Q 1884 428 2741 428 
Q 3075 428 3337 486 
Q 3600 544 3809 666 
z
" transform="scale(0.015625)"/>
       <path id="DejaVuSans-61" d="M 2194 1759 
Q 1497 1759 1228 1600 
Q 959 1441 959 1056 
Q 959 750 1161 570 
Q 1363 391 1709 391 
Q 2188 391 2477 730 
Q 2766 1069 2766 1631 
L 2766 1759 
L 2194 1759 
z
M 3341 1997 
L 3341 0 
L 2766 0 
L 2766 531 
Q 2569 213 2275 61 
Q 1981 -91 1556 -91 
Q 1019 -91 701 211 
Q 384 513 384 1019 
Q 384 1609 779 1909 
Q 1175 2209 1959 2209 
L 2766 2209 
L 2766 2266 
Q 2766 2663 2505 2880 
Q 2244 3097 1772 3097 
Q 1472 3097 1187 3025 
Q 903 2953 641 2809 
L 641 3341 
Q 956 3463 1253 3523 
Q 1550 3584 1831 3584 
Q 2591 3584 2966 3190 
Q 3341 2797 3341 1997 
z
" transform="scale(0.015625)"/>
       <path id="DejaVuSans-68" d="M 3513 2113 
L 3513 0 
L 2938 0 
L 2938 2094 
Q 2938 2591 2744 2837 
Q 2550 3084 2163 3084 
Q 1697 3084 1428 2787 
Q 1159 2491 1159 1978 
L 1159 0 
L 581 0 
L 581 4863 
L 1159 4863 
L 1159 2956 
Q 1366 3272 1645 3428 
Q 1925 3584 2291 3584 
Q 2894 3584 3203 3211 
Q 3513 2838 3513 2113 
z
" transform="scale(0.015625)"/>
      </defs>
      <use xlink:href="#DejaVuSans-47"/>
      <use xlink:href="#DejaVuSans-65" x="77.490234"/>
      <use xlink:href="#DejaVuSans-6e" x="139.013672"/>
      <use xlink:href="#DejaVuSans-65" x="202.392578"/>
      <use xlink:href="#DejaVuSans-72" x="263.916016"/>
      <use xlink:href="#DejaVuSans-61" x="305.029297"/>
      <use xlink:href="#DejaVuSans-74" x="366.308594"/>
      <use xlink:href="#DejaVuSans-65" x="405.517578"/>
      <use xlink:href="#DejaVuSans-64" x="467.041016"/>
      <use xlink:href="#DejaVuSans-20" x="530.517578"/>
      <use xlink:href="#DejaVuSans-43" x="562.304688"/>
      <use xlink:href="#DejaVuSans-68" x="632.128906"/>
      <use xlink:href="#DejaVuSans-69" x="695.507812"/>
      <use xlink:href="#DejaVuSans-20" x="723.291016"/>
      <use xlink:href="#DejaVuSans-44" x="755.078125"/>
      <use xlink:href="#DejaVuSans-69" x="832.080078"/>
      <use xlink:href="#DejaVuSans-73" x="859.863281"/>
      <use xlink:href="#DejaVuSans-74" x="911.962891"/>
      <use xlink:href="#DejaVuSans-72" x="951.171875"/>
      <use xlink:href="#DejaVuSans-69" x="992.285156"/>
      <use xlink:href="#DejaVuSans-62" x="1020.068359"/>
      <use xlink:href="#DejaVuSans-75" x="1083.544922"/>
      <use xlink:href="#DejaVuSans-74" x="1146.923828"/>
      <use xlink:href="#DejaVuSans-69" x="1186.132812"/>
      <use xlink:href="#DejaVuSans-6f" x="1213.916016"/>
      <use xlink:href="#DejaVuSans-6e" x="1275.097656"/>
     </g>
    </g>
    <g id="line2d_20">
     <path d="M 1019.17125 104.739375 
L 1043.17125 104.739375 
L 1067.17125 104.739375 
" style="fill: none; stroke: #ff7f0e; stroke-width: 1.5; stroke-linecap: square"/>
    </g>
    <g id="text_17">
     <!-- Chi fit -->
     <g transform="translate(1086.37125 113.139375) scale(0.24 -0.24)">
      <defs>
       <path id="DejaVuSans-66" d="M 2375 4863 
L 2375 4384 
L 1825 4384 
Q 1516 4384 1395 4259 
Q 1275 4134 1275 3809 
L 1275 3500 
L 2222 3500 
L 2222 3053 
L 1275 3053 
L 1275 0 
L 697 0 
L 697 3053 
L 147 3053 
L 147 3500 
L 697 3500 
L 697 3744 
Q 697 4328 969 4595 
Q 1241 4863 1831 4863 
L 2375 4863 
z
" transform="scale(0.015625)"/>
      </defs>
      <use xlink:href="#DejaVuSans-43"/>
      <use xlink:href="#DejaVuSans-68" x="69.824219"/>
      <use xlink:href="#DejaVuSans-69" x="133.203125"/>
      <use xlink:href="#DejaVuSans-20" x="160.986328"/>
      <use xlink:href="#DejaVuSans-66" x="192.773438"/>
      <use xlink:href="#DejaVuSans-69" x="227.978516"/>
      <use xlink:href="#DejaVuSans-74" x="255.761719"/>
     </g>
    </g>
    <g id="line2d_21">
     <path d="M 1019.17125 139.966875 
L 1043.17125 139.966875 
L 1067.17125 139.966875 
" style="fill: none; stroke: #2ca02c; stroke-width: 1.5; stroke-linecap: square"/>
    </g>
    <g id="text_18">
     <!-- Chi-Square fit -->
     <g transform="translate(1086.37125 148.366875) scale(0.24 -0.24)">
      <defs>
       <path id="DejaVuSans-2d" d="M 313 2009 
L 1997 2009 
L 1997 1497 
L 313 1497 
L 313 2009 
z
" transform="scale(0.015625)"/>
       <path id="DejaVuSans-53" d="M 3425 4513 
L 3425 3897 
Q 3066 4069 2747 4153 
Q 2428 4238 2131 4238 
Q 1616 4238 1336 4038 
Q 1056 3838 1056 3469 
Q 1056 3159 1242 3001 
Q 1428 2844 1947 2747 
L 2328 2669 
Q 3034 2534 3370 2195 
Q 3706 1856 3706 1288 
Q 3706 609 3251 259 
Q 2797 -91 1919 -91 
Q 1588 -91 1214 -16 
Q 841 59 441 206 
L 441 856 
Q 825 641 1194 531 
Q 1563 422 1919 422 
Q 2459 422 2753 634 
Q 3047 847 3047 1241 
Q 3047 1584 2836 1778 
Q 2625 1972 2144 2069 
L 1759 2144 
Q 1053 2284 737 2584 
Q 422 2884 422 3419 
Q 422 4038 858 4394 
Q 1294 4750 2059 4750 
Q 2388 4750 2728 4690 
Q 3069 4631 3425 4513 
z
" transform="scale(0.015625)"/>
       <path id="DejaVuSans-71" d="M 947 1747 
Q 947 1113 1208 752 
Q 1469 391 1925 391 
Q 2381 391 2643 752 
Q 2906 1113 2906 1747 
Q 2906 2381 2643 2742 
Q 2381 3103 1925 3103 
Q 1469 3103 1208 2742 
Q 947 2381 947 1747 
z
M 2906 525 
Q 2725 213 2448 61 
Q 2172 -91 1784 -91 
Q 1150 -91 751 415 
Q 353 922 353 1747 
Q 353 2572 751 3078 
Q 1150 3584 1784 3584 
Q 2172 3584 2448 3432 
Q 2725 3281 2906 2969 
L 2906 3500 
L 3481 3500 
L 3481 -1331 
L 2906 -1331 
L 2906 525 
z
" transform="scale(0.015625)"/>
      </defs>
      <use xlink:href="#DejaVuSans-43"/>
      <use xlink:href="#DejaVuSans-68" x="69.824219"/>
      <use xlink:href="#DejaVuSans-69" x="133.203125"/>
      <use xlink:href="#DejaVuSans-2d" x="160.986328"/>
      <use xlink:href="#DejaVuSans-53" x="197.070312"/>
      <use xlink:href="#DejaVuSans-71" x="260.546875"/>
      <use xlink:href="#DejaVuSans-75" x="324.023438"/>
      <use xlink:href="#DejaVuSans-61" x="387.402344"/>
      <use xlink:href="#DejaVuSans-72" x="448.681641"/>
      <use xlink:href="#DejaVuSans-65" x="487.544922"/>
      <use xlink:href="#DejaVuSans-20" x="549.068359"/>
      <use xlink:href="#DejaVuSans-66" x="580.855469"/>
      <use xlink:href="#DejaVuSans-69" x="616.060547"/>
      <use xlink:href="#DejaVuSans-74" x="643.84375"/>
     </g>
    </g>
    <g id="line2d_22">
     <path d="M 1019.17125 175.194375 
L 1043.17125 175.194375 
L 1067.17125 175.194375 
" style="fill: none; stroke: #d62728; stroke-width: 1.5; stroke-linecap: square"/>
    </g>
    <g id="text_19">
     <!-- Exponential fit -->
     <g transform="translate(1086.37125 183.594375) scale(0.24 -0.24)">
      <defs>
       <path id="DejaVuSans-45" d="M 628 4666 
L 3578 4666 
L 3578 4134 
L 1259 4134 
L 1259 2753 
L 3481 2753 
L 3481 2222 
L 1259 2222 
L 1259 531 
L 3634 531 
L 3634 0 
L 628 0 
L 628 4666 
z
" transform="scale(0.015625)"/>
       <path id="DejaVuSans-78" d="M 3513 3500 
L 2247 1797 
L 3578 0 
L 2900 0 
L 1881 1375 
L 863 0 
L 184 0 
L 1544 1831 
L 300 3500 
L 978 3500 
L 1906 2253 
L 2834 3500 
L 3513 3500 
z
" transform="scale(0.015625)"/>
       <path id="DejaVuSans-70" d="M 1159 525 
L 1159 -1331 
L 581 -1331 
L 581 3500 
L 1159 3500 
L 1159 2969 
Q 1341 3281 1617 3432 
Q 1894 3584 2278 3584 
Q 2916 3584 3314 3078 
Q 3713 2572 3713 1747 
Q 3713 922 3314 415 
Q 2916 -91 2278 -91 
Q 1894 -91 1617 61 
Q 1341 213 1159 525 
z
M 3116 1747 
Q 3116 2381 2855 2742 
Q 2594 3103 2138 3103 
Q 1681 3103 1420 2742 
Q 1159 2381 1159 1747 
Q 1159 1113 1420 752 
Q 1681 391 2138 391 
Q 2594 391 2855 752 
Q 3116 1113 3116 1747 
z
" transform="scale(0.015625)"/>
      </defs>
      <use xlink:href="#DejaVuSans-45"/>
      <use xlink:href="#DejaVuSans-78" x="63.183594"/>
      <use xlink:href="#DejaVuSans-70" x="122.363281"/>
      <use xlink:href="#DejaVuSans-6f" x="185.839844"/>
      <use xlink:href="#DejaVuSans-6e" x="247.021484"/>
      <use xlink:href="#DejaVuSans-65" x="310.400391"/>
      <use xlink:href="#DejaVuSans-6e" x="371.923828"/>
      <use xlink:href="#DejaVuSans-74" x="435.302734"/>
      <use xlink:href="#DejaVuSans-69" x="474.511719"/>
      <use xlink:href="#DejaVuSans-61" x="502.294922"/>
      <use xlink:href="#DejaVuSans-6c" x="563.574219"/>
      <use xlink:href="#DejaVuSans-20" x="591.357422"/>
      <use xlink:href="#DejaVuSans-66" x="623.144531"/>
      <use xlink:href="#DejaVuSans-69" x="658.349609"/>
      <use xlink:href="#DejaVuSans-74" x="686.132812"/>
     </g>
    </g>
    <g id="line2d_23">
     <path d="M 1019.17125 210.421875 
L 1043.17125 210.421875 
L 1067.17125 210.421875 
" style="fill: none; stroke: #9467bd; stroke-width: 1.5; stroke-linecap: square"/>
    </g>
    <g id="text_20">
     <!-- Laplace fit -->
     <g transform="translate(1086.37125 218.821875) scale(0.24 -0.24)">
      <defs>
       <path id="DejaVuSans-4c" d="M 628 4666 
L 1259 4666 
L 1259 531 
L 3531 531 
L 3531 0 
L 628 0 
L 628 4666 
z
" transform="scale(0.015625)"/>
       <path id="DejaVuSans-63" d="M 3122 3366 
L 3122 2828 
Q 2878 2963 2633 3030 
Q 2388 3097 2138 3097 
Q 1578 3097 1268 2742 
Q 959 2388 959 1747 
Q 959 1106 1268 751 
Q 1578 397 2138 397 
Q 2388 397 2633 464 
Q 2878 531 3122 666 
L 3122 134 
Q 2881 22 2623 -34 
Q 2366 -91 2075 -91 
Q 1284 -91 818 406 
Q 353 903 353 1747 
Q 353 2603 823 3093 
Q 1294 3584 2113 3584 
Q 2378 3584 2631 3529 
Q 2884 3475 3122 3366 
z
" transform="scale(0.015625)"/>
      </defs>
      <use xlink:href="#DejaVuSans-4c"/>
      <use xlink:href="#DejaVuSans-61" x="55.712891"/>
      <use xlink:href="#DejaVuSans-70" x="116.992188"/>
      <use xlink:href="#DejaVuSans-6c" x="180.46875"/>
      <use xlink:href="#DejaVuSans-61" x="208.251953"/>
      <use xlink:href="#DejaVuSans-63" x="269.53125"/>
      <use xlink:href="#DejaVuSans-65" x="324.511719"/>
      <use xlink:href="#DejaVuSans-20" x="386.035156"/>
      <use xlink:href="#DejaVuSans-66" x="417.822266"/>
      <use xlink:href="#DejaVuSans-69" x="453.027344"/>
      <use xlink:href="#DejaVuSans-74" x="480.810547"/>
     </g>
    </g>
    <g id="line2d_24">
     <path d="M 1019.17125 245.649375 
L 1043.17125 245.649375 
L 1067.17125 245.649375 
" style="fill: none; stroke: #8c564b; stroke-width: 1.5; stroke-linecap: square"/>
    </g>
    <g id="text_21">
     <!-- LogNorm fit -->
     <g transform="translate(1086.37125 254.049375) scale(0.24 -0.24)">
      <defs>
       <path id="DejaVuSans-67" d="M 2906 1791 
Q 2906 2416 2648 2759 
Q 2391 3103 1925 3103 
Q 1463 3103 1205 2759 
Q 947 2416 947 1791 
Q 947 1169 1205 825 
Q 1463 481 1925 481 
Q 2391 481 2648 825 
Q 2906 1169 2906 1791 
z
M 3481 434 
Q 3481 -459 3084 -895 
Q 2688 -1331 1869 -1331 
Q 1566 -1331 1297 -1286 
Q 1028 -1241 775 -1147 
L 775 -588 
Q 1028 -725 1275 -790 
Q 1522 -856 1778 -856 
Q 2344 -856 2625 -561 
Q 2906 -266 2906 331 
L 2906 616 
Q 2728 306 2450 153 
Q 2172 0 1784 0 
Q 1141 0 747 490 
Q 353 981 353 1791 
Q 353 2603 747 3093 
Q 1141 3584 1784 3584 
Q 2172 3584 2450 3431 
Q 2728 3278 2906 2969 
L 2906 3500 
L 3481 3500 
L 3481 434 
z
" transform="scale(0.015625)"/>
      </defs>
      <use xlink:href="#DejaVuSans-4c"/>
      <use xlink:href="#DejaVuSans-6f" x="53.962891"/>
      <use xlink:href="#DejaVuSans-67" x="115.144531"/>
      <use xlink:href="#DejaVuSans-4e" x="178.621094"/>
      <use xlink:href="#DejaVuSans-6f" x="253.425781"/>
      <use xlink:href="#DejaVuSans-72" x="314.607422"/>
      <use xlink:href="#DejaVuSans-6d" x="353.970703"/>
      <use xlink:href="#DejaVuSans-20" x="451.382812"/>
      <use xlink:href="#DejaVuSans-66" x="483.169922"/>
      <use xlink:href="#DejaVuSans-69" x="518.375"/>
      <use xlink:href="#DejaVuSans-74" x="546.158203"/>
     </g>
    </g>
    <g id="line2d_25">
     <path d="M 1019.17125 280.876875 
L 1043.17125 280.876875 
L 1067.17125 280.876875 
" style="fill: none; stroke: #e377c2; stroke-width: 1.5; stroke-linecap: square"/>
    </g>
    <g id="text_22">
     <!-- Normal fit -->
     <g transform="translate(1086.37125 289.276875) scale(0.24 -0.24)">
      <use xlink:href="#DejaVuSans-4e"/>
      <use xlink:href="#DejaVuSans-6f" x="74.804688"/>
      <use xlink:href="#DejaVuSans-72" x="135.986328"/>
      <use xlink:href="#DejaVuSans-6d" x="175.349609"/>
      <use xlink:href="#DejaVuSans-61" x="272.761719"/>
      <use xlink:href="#DejaVuSans-6c" x="334.041016"/>
      <use xlink:href="#DejaVuSans-20" x="361.824219"/>
      <use xlink:href="#DejaVuSans-66" x="393.611328"/>
      <use xlink:href="#DejaVuSans-69" x="428.816406"/>
      <use xlink:href="#DejaVuSans-74" x="456.599609"/>
     </g>
    </g>
   </g>
  </g>
 </g>
 <defs>
  <clipPath id="pcdb996b93a">
   <rect x="72.685313" y="38.075625" width="1356.514688" height="790.70375"/>
  </clipPath>
 </defs>
</svg>
