<?xml version="1.0" encoding="utf-8" standalone="no"?>
<!DOCTYPE svg PUBLIC "-//W3C//DTD SVG 1.1//EN"
  "http://www.w3.org/Graphics/SVG/1.1/DTD/svg11.dtd">
<svg height="864pt" version="1.1" viewBox="0 0 1440 864" width="1440pt" xmlns="http://www.w3.org/2000/svg" xmlns:xlink="http://www.w3.org/1999/xlink">
 <metadata>
  <rdf:RDF xmlns:cc="http://creativecommons.org/ns#" xmlns:dc="http://purl.org/dc/elements/1.1/" xmlns:rdf="http://www.w3.org/1999/02/22-rdf-syntax-ns#">
   <cc:Work>
    <dc:type rdf:resource="http://purl.org/dc/dcmitype/StillImage"/>
    <dc:date>2022-06-27T11:58:25.222118</dc:date>
    <dc:format>image/svg+xml</dc:format>
    <dc:creator>
     <cc:Agent>
      <dc:title>Matplotlib v3.4.3, https://matplotlib.org/</dc:title>
     </cc:Agent>
    </dc:creator>
   </cc:Work>
  </rdf:RDF>
 </metadata>
 <defs>
  <style type="text/css">*{stroke-linecap:butt;stroke-linejoin:round;}</style>
 </defs>
 <g id="figure_1">
  <g id="patch_1">
   <path d="M 0 864 
L 1440 864 
L 1440 0 
L 0 0 
z
" style="fill:#ffffff;"/>
  </g>
  <g id="axes_1">
   <g id="patch_2">
    <path d="M 72.685313 828.779375 
L 1429.2 828.779375 
L 1429.2 38.075625 
L 72.685313 38.075625 
z
" style="fill:#ffffff;"/>
   </g>
   <g id="patch_3">
    <path clip-path="url(#p4affd4635f)" d="M 134.345071 828.779375 
L 146.677023 828.779375 
L 146.677023 824.978486 
L 134.345071 824.978486 
z
" style="fill:#1f77b4;opacity:0.6;"/>
   </g>
   <g id="patch_4">
    <path clip-path="url(#p4affd4635f)" d="M 146.677023 828.779375 
L 159.008974 828.779375 
L 159.008974 826.403819 
L 146.677023 826.403819 
z
" style="fill:#1f77b4;opacity:0.6;"/>
   </g>
   <g id="patch_5">
    <path clip-path="url(#p4affd4635f)" d="M 159.008974 828.779375 
L 171.340926 828.779375 
L 171.340926 823.078041 
L 159.008974 823.078041 
z
" style="fill:#1f77b4;opacity:0.6;"/>
   </g>
   <g id="patch_6">
    <path clip-path="url(#p4affd4635f)" d="M 171.340926 828.779375 
L 183.672878 828.779375 
L 183.672878 809.774929 
L 171.340926 809.774929 
z
" style="fill:#1f77b4;opacity:0.6;"/>
   </g>
   <g id="patch_7">
    <path clip-path="url(#p4affd4635f)" d="M 183.672878 828.779375 
L 196.00483 828.779375 
L 196.00483 809.299817 
L 183.672878 809.299817 
z
" style="fill:#1f77b4;opacity:0.6;"/>
   </g>
   <g id="patch_8">
    <path clip-path="url(#p4affd4635f)" d="M 196.00483 828.779375 
L 208.336781 828.779375 
L 208.336781 793.621149 
L 196.00483 793.621149 
z
" style="fill:#1f77b4;opacity:0.6;"/>
   </g>
   <g id="patch_9">
    <path clip-path="url(#p4affd4635f)" d="M 208.336781 828.779375 
L 220.668733 828.779375 
L 220.668733 782.218481 
L 208.336781 782.218481 
z
" style="fill:#1f77b4;opacity:0.6;"/>
   </g>
   <g id="patch_10">
    <path clip-path="url(#p4affd4635f)" d="M 220.668733 828.779375 
L 233.000685 828.779375 
L 233.000685 755.612256 
L 220.668733 755.612256 
z
" style="fill:#1f77b4;opacity:0.6;"/>
   </g>
   <g id="patch_11">
    <path clip-path="url(#p4affd4635f)" d="M 233.000685 828.779375 
L 245.332636 828.779375 
L 245.332636 734.707365 
L 233.000685 734.707365 
z
" style="fill:#1f77b4;opacity:0.6;"/>
   </g>
   <g id="patch_12">
    <path clip-path="url(#p4affd4635f)" d="M 245.332636 828.779375 
L 257.664588 828.779375 
L 257.664588 704.775362 
L 245.332636 704.775362 
z
" style="fill:#1f77b4;opacity:0.6;"/>
   </g>
   <g id="patch_13">
    <path clip-path="url(#p4affd4635f)" d="M 257.664588 828.779375 
L 269.99654 828.779375 
L 269.99654 676.268692 
L 257.664588 676.268692 
z
" style="fill:#1f77b4;opacity:0.6;"/>
   </g>
   <g id="patch_14">
    <path clip-path="url(#p4affd4635f)" d="M 269.99654 828.779375 
L 282.328491 828.779375 
L 282.328491 639.210022 
L 269.99654 639.210022 
z
" style="fill:#1f77b4;opacity:0.6;"/>
   </g>
   <g id="patch_15">
    <path clip-path="url(#p4affd4635f)" d="M 282.328491 828.779375 
L 294.660443 828.779375 
L 294.660443 602.626462 
L 282.328491 602.626462 
z
" style="fill:#1f77b4;opacity:0.6;"/>
   </g>
   <g id="patch_16">
    <path clip-path="url(#p4affd4635f)" d="M 294.660443 828.779375 
L 306.992395 828.779375 
L 306.992395 545.613123 
L 294.660443 545.613123 
z
" style="fill:#1f77b4;opacity:0.6;"/>
   </g>
   <g id="patch_17">
    <path clip-path="url(#p4affd4635f)" d="M 306.992395 828.779375 
L 319.324347 828.779375 
L 319.324347 531.359788 
L 306.992395 531.359788 
z
" style="fill:#1f77b4;opacity:0.6;"/>
   </g>
   <g id="patch_18">
    <path clip-path="url(#p4affd4635f)" d="M 319.324347 828.779375 
L 331.656298 828.779375 
L 331.656298 487.649561 
L 319.324347 487.649561 
z
" style="fill:#1f77b4;opacity:0.6;"/>
   </g>
   <g id="patch_19">
    <path clip-path="url(#p4affd4635f)" d="M 331.656298 828.779375 
L 343.98825 828.779375 
L 343.98825 454.866891 
L 331.656298 454.866891 
z
" style="fill:#1f77b4;opacity:0.6;"/>
   </g>
   <g id="patch_20">
    <path clip-path="url(#p4affd4635f)" d="M 343.98825 828.779375 
L 356.320202 828.779375 
L 356.320202 400.704219 
L 343.98825 400.704219 
z
" style="fill:#1f77b4;opacity:0.6;"/>
   </g>
   <g id="patch_21">
    <path clip-path="url(#p4affd4635f)" d="M 356.320202 828.779375 
L 368.652153 828.779375 
L 368.652153 351.292658 
L 356.320202 351.292658 
z
" style="fill:#1f77b4;opacity:0.6;"/>
   </g>
   <g id="patch_22">
    <path clip-path="url(#p4affd4635f)" d="M 368.652153 828.779375 
L 380.984105 828.779375 
L 380.984105 335.138879 
L 368.652153 335.138879 
z
" style="fill:#1f77b4;opacity:0.6;"/>
   </g>
   <g id="patch_23">
    <path clip-path="url(#p4affd4635f)" d="M 380.984105 828.779375 
L 393.316057 828.779375 
L 393.316057 251.519314 
L 380.984105 251.519314 
z
" style="fill:#1f77b4;opacity:0.6;"/>
   </g>
   <g id="patch_24">
    <path clip-path="url(#p4affd4635f)" d="M 393.316057 828.779375 
L 405.648009 828.779375 
L 405.648009 270.523761 
L 393.316057 270.523761 
z
" style="fill:#1f77b4;opacity:0.6;"/>
   </g>
   <g id="patch_25">
    <path clip-path="url(#p4affd4635f)" d="M 405.648009 828.779375 
L 417.97996 828.779375 
L 417.97996 185.003752 
L 405.648009 185.003752 
z
" style="fill:#1f77b4;opacity:0.6;"/>
   </g>
   <g id="patch_26">
    <path clip-path="url(#p4affd4635f)" d="M 417.97996 828.779375 
L 430.311912 828.779375 
L 430.311912 196.881531 
L 417.97996 196.881531 
z
" style="fill:#1f77b4;opacity:0.6;"/>
   </g>
   <g id="patch_27">
    <path clip-path="url(#p4affd4635f)" d="M 430.311912 828.779375 
L 442.643864 828.779375 
L 442.643864 154.596637 
L 430.311912 154.596637 
z
" style="fill:#1f77b4;opacity:0.6;"/>
   </g>
   <g id="patch_28">
    <path clip-path="url(#p4affd4635f)" d="M 442.643864 828.779375 
L 454.975815 828.779375 
L 454.975815 141.768636 
L 442.643864 141.768636 
z
" style="fill:#1f77b4;opacity:0.6;"/>
   </g>
   <g id="patch_29">
    <path clip-path="url(#p4affd4635f)" d="M 454.975815 828.779375 
L 467.307767 828.779375 
L 467.307767 90.931742 
L 454.975815 90.931742 
z
" style="fill:#1f77b4;opacity:0.6;"/>
   </g>
   <g id="patch_30">
    <path clip-path="url(#p4affd4635f)" d="M 467.307767 828.779375 
L 479.639719 828.779375 
L 479.639719 87.130852 
L 467.307767 87.130852 
z
" style="fill:#1f77b4;opacity:0.6;"/>
   </g>
   <g id="patch_31">
    <path clip-path="url(#p4affd4635f)" d="M 479.639719 828.779375 
L 491.97167 828.779375 
L 491.97167 97.108187 
L 479.639719 97.108187 
z
" style="fill:#1f77b4;opacity:0.6;"/>
   </g>
   <g id="patch_32">
    <path clip-path="url(#p4affd4635f)" d="M 491.97167 828.779375 
L 504.303622 828.779375 
L 504.303622 83.805074 
L 491.97167 83.805074 
z
" style="fill:#1f77b4;opacity:0.6;"/>
   </g>
   <g id="patch_33">
    <path clip-path="url(#p4affd4635f)" d="M 504.303622 828.779375 
L 516.635574 828.779375 
L 516.635574 75.728185 
L 504.303622 75.728185 
z
" style="fill:#1f77b4;opacity:0.6;"/>
   </g>
   <g id="patch_34">
    <path clip-path="url(#p4affd4635f)" d="M 516.635574 828.779375 
L 528.967526 828.779375 
L 528.967526 95.682853 
L 516.635574 95.682853 
z
" style="fill:#1f77b4;opacity:0.6;"/>
   </g>
   <g id="patch_35">
    <path clip-path="url(#p4affd4635f)" d="M 528.967526 828.779375 
L 541.299477 828.779375 
L 541.299477 87.605964 
L 528.967526 87.605964 
z
" style="fill:#1f77b4;opacity:0.6;"/>
   </g>
   <g id="patch_36">
    <path clip-path="url(#p4affd4635f)" d="M 541.299477 828.779375 
L 553.631429 828.779375 
L 553.631429 118.488189 
L 541.299477 118.488189 
z
" style="fill:#1f77b4;opacity:0.6;"/>
   </g>
   <g id="patch_37">
    <path clip-path="url(#p4affd4635f)" d="M 553.631429 828.779375 
L 565.963381 828.779375 
L 565.963381 130.841079 
L 553.631429 130.841079 
z
" style="fill:#1f77b4;opacity:0.6;"/>
   </g>
   <g id="patch_38">
    <path clip-path="url(#p4affd4635f)" d="M 565.963381 828.779375 
L 578.295332 828.779375 
L 578.295332 130.841079 
L 565.963381 130.841079 
z
" style="fill:#1f77b4;opacity:0.6;"/>
   </g>
   <g id="patch_39">
    <path clip-path="url(#p4affd4635f)" d="M 578.295332 828.779375 
L 590.627284 828.779375 
L 590.627284 184.053529 
L 578.295332 184.053529 
z
" style="fill:#1f77b4;opacity:0.6;"/>
   </g>
   <g id="patch_40">
    <path clip-path="url(#p4affd4635f)" d="M 590.627284 828.779375 
L 602.959236 828.779375 
L 602.959236 185.478863 
L 590.627284 185.478863 
z
" style="fill:#1f77b4;opacity:0.6;"/>
   </g>
   <g id="patch_41">
    <path clip-path="url(#p4affd4635f)" d="M 602.959236 828.779375 
L 615.291187 828.779375 
L 615.291187 228.713978 
L 602.959236 228.713978 
z
" style="fill:#1f77b4;opacity:0.6;"/>
   </g>
   <g id="patch_42">
    <path clip-path="url(#p4affd4635f)" d="M 615.291187 828.779375 
L 627.623139 828.779375 
L 627.623139 243.442424 
L 615.291187 243.442424 
z
" style="fill:#1f77b4;opacity:0.6;"/>
   </g>
   <g id="patch_43">
    <path clip-path="url(#p4affd4635f)" d="M 627.623139 828.779375 
L 639.955091 828.779375 
L 639.955091 270.998872 
L 627.623139 270.998872 
z
" style="fill:#1f77b4;opacity:0.6;"/>
   </g>
   <g id="patch_44">
    <path clip-path="url(#p4affd4635f)" d="M 639.955091 828.779375 
L 652.287043 828.779375 
L 652.287043 287.627762 
L 639.955091 287.627762 
z
" style="fill:#1f77b4;opacity:0.6;"/>
   </g>
   <g id="patch_45">
    <path clip-path="url(#p4affd4635f)" d="M 652.287043 828.779375 
L 664.618994 828.779375 
L 664.618994 312.333543 
L 652.287043 312.333543 
z
" style="fill:#1f77b4;opacity:0.6;"/>
   </g>
   <g id="patch_46">
    <path clip-path="url(#p4affd4635f)" d="M 664.618994 828.779375 
L 676.950946 828.779375 
L 676.950946 395.002885 
L 664.618994 395.002885 
z
" style="fill:#1f77b4;opacity:0.6;"/>
   </g>
   <g id="patch_47">
    <path clip-path="url(#p4affd4635f)" d="M 676.950946 828.779375 
L 689.282898 828.779375 
L 689.282898 392.152218 
L 676.950946 392.152218 
z
" style="fill:#1f77b4;opacity:0.6;"/>
   </g>
   <g id="patch_48">
    <path clip-path="url(#p4affd4635f)" d="M 689.282898 828.779375 
L 701.614849 828.779375 
L 701.614849 434.437111 
L 689.282898 434.437111 
z
" style="fill:#1f77b4;opacity:0.6;"/>
   </g>
   <g id="patch_49">
    <path clip-path="url(#p4affd4635f)" d="M 701.614849 828.779375 
L 713.946801 828.779375 
L 713.946801 443.464223 
L 701.614849 443.464223 
z
" style="fill:#1f77b4;opacity:0.6;"/>
   </g>
   <g id="patch_50">
    <path clip-path="url(#p4affd4635f)" d="M 713.946801 828.779375 
L 726.278753 828.779375 
L 726.278753 485.749117 
L 713.946801 485.749117 
z
" style="fill:#1f77b4;opacity:0.6;"/>
   </g>
   <g id="patch_51">
    <path clip-path="url(#p4affd4635f)" d="M 726.278753 828.779375 
L 738.610705 828.779375 
L 738.610705 496.201562 
L 726.278753 496.201562 
z
" style="fill:#1f77b4;opacity:0.6;"/>
   </g>
   <g id="patch_52">
    <path clip-path="url(#p4affd4635f)" d="M 738.610705 828.779375 
L 750.942656 828.779375 
L 750.942656 537.061122 
L 738.610705 537.061122 
z
" style="fill:#1f77b4;opacity:0.6;"/>
   </g>
   <g id="patch_53">
    <path clip-path="url(#p4affd4635f)" d="M 750.942656 828.779375 
L 763.274608 828.779375 
L 763.274608 562.717125 
L 750.942656 562.717125 
z
" style="fill:#1f77b4;opacity:0.6;"/>
   </g>
   <g id="patch_54">
    <path clip-path="url(#p4affd4635f)" d="M 763.274608 828.779375 
L 775.60656 828.779375 
L 775.60656 557.966013 
L 763.274608 557.966013 
z
" style="fill:#1f77b4;opacity:0.6;"/>
   </g>
   <g id="patch_55">
    <path clip-path="url(#p4affd4635f)" d="M 775.60656 828.779375 
L 787.938511 828.779375 
L 787.938511 606.427352 
L 775.60656 606.427352 
z
" style="fill:#1f77b4;opacity:0.6;"/>
   </g>
   <g id="patch_56">
    <path clip-path="url(#p4affd4635f)" d="M 787.938511 828.779375 
L 800.270463 828.779375 
L 800.270463 637.784688 
L 787.938511 637.784688 
z
" style="fill:#1f77b4;opacity:0.6;"/>
   </g>
   <g id="patch_57">
    <path clip-path="url(#p4affd4635f)" d="M 800.270463 828.779375 
L 812.602415 828.779375 
L 812.602415 646.336689 
L 800.270463 646.336689 
z
" style="fill:#1f77b4;opacity:0.6;"/>
   </g>
   <g id="patch_58">
    <path clip-path="url(#p4affd4635f)" d="M 812.602415 828.779375 
L 824.934366 828.779375 
L 824.934366 676.743803 
L 812.602415 676.743803 
z
" style="fill:#1f77b4;opacity:0.6;"/>
   </g>
   <g id="patch_59">
    <path clip-path="url(#p4affd4635f)" d="M 824.934366 828.779375 
L 837.266318 828.779375 
L 837.266318 709.526474 
L 824.934366 709.526474 
z
" style="fill:#1f77b4;opacity:0.6;"/>
   </g>
   <g id="patch_60">
    <path clip-path="url(#p4affd4635f)" d="M 837.266318 828.779375 
L 849.59827 828.779375 
L 849.59827 711.902029 
L 837.266318 711.902029 
z
" style="fill:#1f77b4;opacity:0.6;"/>
   </g>
   <g id="patch_61">
    <path clip-path="url(#p4affd4635f)" d="M 849.59827 828.779375 
L 861.930222 828.779375 
L 861.930222 718.078474 
L 849.59827 718.078474 
z
" style="fill:#1f77b4;opacity:0.6;"/>
   </g>
   <g id="patch_62">
    <path clip-path="url(#p4affd4635f)" d="M 861.930222 828.779375 
L 874.262173 828.779375 
L 874.262173 722.829586 
L 861.930222 722.829586 
z
" style="fill:#1f77b4;opacity:0.6;"/>
   </g>
   <g id="patch_63">
    <path clip-path="url(#p4affd4635f)" d="M 874.262173 828.779375 
L 886.594125 828.779375 
L 886.594125 746.110033 
L 874.262173 746.110033 
z
" style="fill:#1f77b4;opacity:0.6;"/>
   </g>
   <g id="patch_64">
    <path clip-path="url(#p4affd4635f)" d="M 886.594125 828.779375 
L 898.926077 828.779375 
L 898.926077 768.440258 
L 886.594125 768.440258 
z
" style="fill:#1f77b4;opacity:0.6;"/>
   </g>
   <g id="patch_65">
    <path clip-path="url(#p4affd4635f)" d="M 898.926077 828.779375 
L 911.258028 828.779375 
L 911.258028 760.838479 
L 898.926077 760.838479 
z
" style="fill:#1f77b4;opacity:0.6;"/>
   </g>
   <g id="patch_66">
    <path clip-path="url(#p4affd4635f)" d="M 911.258028 828.779375 
L 923.58998 828.779375 
L 923.58998 780.793148 
L 911.258028 780.793148 
z
" style="fill:#1f77b4;opacity:0.6;"/>
   </g>
   <g id="patch_67">
    <path clip-path="url(#p4affd4635f)" d="M 923.58998 828.779375 
L 935.921932 828.779375 
L 935.921932 781.268259 
L 923.58998 781.268259 
z
" style="fill:#1f77b4;opacity:0.6;"/>
   </g>
   <g id="patch_68">
    <path clip-path="url(#p4affd4635f)" d="M 935.921932 828.779375 
L 948.253884 828.779375 
L 948.253884 793.146038 
L 935.921932 793.146038 
z
" style="fill:#1f77b4;opacity:0.6;"/>
   </g>
   <g id="patch_69">
    <path clip-path="url(#p4affd4635f)" d="M 948.253884 828.779375 
L 960.585835 828.779375 
L 960.585835 789.345149 
L 948.253884 789.345149 
z
" style="fill:#1f77b4;opacity:0.6;"/>
   </g>
   <g id="patch_70">
    <path clip-path="url(#p4affd4635f)" d="M 960.585835 828.779375 
L 972.917787 828.779375 
L 972.917787 800.272705 
L 960.585835 800.272705 
z
" style="fill:#1f77b4;opacity:0.6;"/>
   </g>
   <g id="patch_71">
    <path clip-path="url(#p4affd4635f)" d="M 972.917787 828.779375 
L 985.249739 828.779375 
L 985.249739 804.548706 
L 972.917787 804.548706 
z
" style="fill:#1f77b4;opacity:0.6;"/>
   </g>
   <g id="patch_72">
    <path clip-path="url(#p4affd4635f)" d="M 985.249739 828.779375 
L 997.58169 828.779375 
L 997.58169 807.399373 
L 985.249739 807.399373 
z
" style="fill:#1f77b4;opacity:0.6;"/>
   </g>
   <g id="patch_73">
    <path clip-path="url(#p4affd4635f)" d="M 997.58169 828.779375 
L 1009.913642 828.779375 
L 1009.913642 809.774929 
L 997.58169 809.774929 
z
" style="fill:#1f77b4;opacity:0.6;"/>
   </g>
   <g id="patch_74">
    <path clip-path="url(#p4affd4635f)" d="M 1009.913642 828.779375 
L 1022.245594 828.779375 
L 1022.245594 811.675373 
L 1009.913642 811.675373 
z
" style="fill:#1f77b4;opacity:0.6;"/>
   </g>
   <g id="patch_75">
    <path clip-path="url(#p4affd4635f)" d="M 1022.245594 828.779375 
L 1034.577545 828.779375 
L 1034.577545 816.901596 
L 1022.245594 816.901596 
z
" style="fill:#1f77b4;opacity:0.6;"/>
   </g>
   <g id="patch_76">
    <path clip-path="url(#p4affd4635f)" d="M 1034.577545 828.779375 
L 1046.909497 828.779375 
L 1046.909497 814.050929 
L 1034.577545 814.050929 
z
" style="fill:#1f77b4;opacity:0.6;"/>
   </g>
   <g id="patch_77">
    <path clip-path="url(#p4affd4635f)" d="M 1046.909497 828.779375 
L 1059.241449 828.779375 
L 1059.241449 821.652708 
L 1046.909497 821.652708 
z
" style="fill:#1f77b4;opacity:0.6;"/>
   </g>
   <g id="patch_78">
    <path clip-path="url(#p4affd4635f)" d="M 1059.241449 828.779375 
L 1071.573401 828.779375 
L 1071.573401 821.652708 
L 1059.241449 821.652708 
z
" style="fill:#1f77b4;opacity:0.6;"/>
   </g>
   <g id="patch_79">
    <path clip-path="url(#p4affd4635f)" d="M 1071.573401 828.779375 
L 1083.905352 828.779375 
L 1083.905352 820.702485 
L 1071.573401 820.702485 
z
" style="fill:#1f77b4;opacity:0.6;"/>
   </g>
   <g id="patch_80">
    <path clip-path="url(#p4affd4635f)" d="M 1083.905352 828.779375 
L 1096.237304 828.779375 
L 1096.237304 823.078041 
L 1083.905352 823.078041 
z
" style="fill:#1f77b4;opacity:0.6;"/>
   </g>
   <g id="patch_81">
    <path clip-path="url(#p4affd4635f)" d="M 1096.237304 828.779375 
L 1108.569256 828.779375 
L 1108.569256 826.403819 
L 1096.237304 826.403819 
z
" style="fill:#1f77b4;opacity:0.6;"/>
   </g>
   <g id="patch_82">
    <path clip-path="url(#p4affd4635f)" d="M 1108.569256 828.779375 
L 1120.901207 828.779375 
L 1120.901207 826.403819 
L 1108.569256 826.403819 
z
" style="fill:#1f77b4;opacity:0.6;"/>
   </g>
   <g id="patch_83">
    <path clip-path="url(#p4affd4635f)" d="M 1120.901207 828.779375 
L 1133.233159 828.779375 
L 1133.233159 825.453597 
L 1120.901207 825.453597 
z
" style="fill:#1f77b4;opacity:0.6;"/>
   </g>
   <g id="patch_84">
    <path clip-path="url(#p4affd4635f)" d="M 1133.233159 828.779375 
L 1145.565111 828.779375 
L 1145.565111 828.779375 
L 1133.233159 828.779375 
z
" style="fill:#1f77b4;opacity:0.6;"/>
   </g>
   <g id="patch_85">
    <path clip-path="url(#p4affd4635f)" d="M 1145.565111 828.779375 
L 1157.897062 828.779375 
L 1157.897062 826.87893 
L 1145.565111 826.87893 
z
" style="fill:#1f77b4;opacity:0.6;"/>
   </g>
   <g id="patch_86">
    <path clip-path="url(#p4affd4635f)" d="M 1157.897062 828.779375 
L 1170.229014 828.779375 
L 1170.229014 826.87893 
L 1157.897062 826.87893 
z
" style="fill:#1f77b4;opacity:0.6;"/>
   </g>
   <g id="patch_87">
    <path clip-path="url(#p4affd4635f)" d="M 1170.229014 828.779375 
L 1182.560966 828.779375 
L 1182.560966 827.829153 
L 1170.229014 827.829153 
z
" style="fill:#1f77b4;opacity:0.6;"/>
   </g>
   <g id="patch_88">
    <path clip-path="url(#p4affd4635f)" d="M 1182.560966 828.779375 
L 1194.892918 828.779375 
L 1194.892918 827.829153 
L 1182.560966 827.829153 
z
" style="fill:#1f77b4;opacity:0.6;"/>
   </g>
   <g id="patch_89">
    <path clip-path="url(#p4affd4635f)" d="M 1194.892918 828.779375 
L 1207.224869 828.779375 
L 1207.224869 828.779375 
L 1194.892918 828.779375 
z
" style="fill:#1f77b4;opacity:0.6;"/>
   </g>
   <g id="patch_90">
    <path clip-path="url(#p4affd4635f)" d="M 1207.224869 828.779375 
L 1219.556821 828.779375 
L 1219.556821 827.354042 
L 1207.224869 827.354042 
z
" style="fill:#1f77b4;opacity:0.6;"/>
   </g>
   <g id="patch_91">
    <path clip-path="url(#p4affd4635f)" d="M 1219.556821 828.779375 
L 1231.888773 828.779375 
L 1231.888773 828.779375 
L 1219.556821 828.779375 
z
" style="fill:#1f77b4;opacity:0.6;"/>
   </g>
   <g id="patch_92">
    <path clip-path="url(#p4affd4635f)" d="M 1231.888773 828.779375 
L 1244.220724 828.779375 
L 1244.220724 827.829153 
L 1231.888773 827.829153 
z
" style="fill:#1f77b4;opacity:0.6;"/>
   </g>
   <g id="patch_93">
    <path clip-path="url(#p4affd4635f)" d="M 1244.220724 828.779375 
L 1256.552676 828.779375 
L 1256.552676 828.779375 
L 1244.220724 828.779375 
z
" style="fill:#1f77b4;opacity:0.6;"/>
   </g>
   <g id="patch_94">
    <path clip-path="url(#p4affd4635f)" d="M 1256.552676 828.779375 
L 1268.884628 828.779375 
L 1268.884628 828.779375 
L 1256.552676 828.779375 
z
" style="fill:#1f77b4;opacity:0.6;"/>
   </g>
   <g id="patch_95">
    <path clip-path="url(#p4affd4635f)" d="M 1268.884628 828.779375 
L 1281.21658 828.779375 
L 1281.21658 828.779375 
L 1268.884628 828.779375 
z
" style="fill:#1f77b4;opacity:0.6;"/>
   </g>
   <g id="patch_96">
    <path clip-path="url(#p4affd4635f)" d="M 1281.21658 828.779375 
L 1293.548531 828.779375 
L 1293.548531 828.779375 
L 1281.21658 828.779375 
z
" style="fill:#1f77b4;opacity:0.6;"/>
   </g>
   <g id="patch_97">
    <path clip-path="url(#p4affd4635f)" d="M 1293.548531 828.779375 
L 1305.880483 828.779375 
L 1305.880483 828.779375 
L 1293.548531 828.779375 
z
" style="fill:#1f77b4;opacity:0.6;"/>
   </g>
   <g id="patch_98">
    <path clip-path="url(#p4affd4635f)" d="M 1305.880483 828.779375 
L 1318.212435 828.779375 
L 1318.212435 828.304264 
L 1305.880483 828.304264 
z
" style="fill:#1f77b4;opacity:0.6;"/>
   </g>
   <g id="patch_99">
    <path clip-path="url(#p4affd4635f)" d="M 1318.212435 828.779375 
L 1330.544386 828.779375 
L 1330.544386 828.779375 
L 1318.212435 828.779375 
z
" style="fill:#1f77b4;opacity:0.6;"/>
   </g>
   <g id="patch_100">
    <path clip-path="url(#p4affd4635f)" d="M 1330.544386 828.779375 
L 1342.876338 828.779375 
L 1342.876338 828.779375 
L 1330.544386 828.779375 
z
" style="fill:#1f77b4;opacity:0.6;"/>
   </g>
   <g id="patch_101">
    <path clip-path="url(#p4affd4635f)" d="M 1342.876338 828.779375 
L 1355.20829 828.779375 
L 1355.20829 828.779375 
L 1342.876338 828.779375 
z
" style="fill:#1f77b4;opacity:0.6;"/>
   </g>
   <g id="patch_102">
    <path clip-path="url(#p4affd4635f)" d="M 1355.20829 828.779375 
L 1367.540241 828.779375 
L 1367.540241 828.304264 
L 1355.20829 828.304264 
z
" style="fill:#1f77b4;opacity:0.6;"/>
   </g>
   <g id="matplotlib.axis_1">
    <g id="xtick_1">
     <g id="line2d_1">
      <defs>
       <path d="M 0 0 
L 0 3.5 
" id="m6d9624c0d8" style="stroke:#000000;stroke-width:0.8;"/>
      </defs>
      <g>
       <use style="stroke:#000000;stroke-width:0.8;" x="111.975331" xlink:href="#m6d9624c0d8" y="828.779375"/>
      </g>
     </g>
     <g id="text_1">
      <!-- 0 -->
      <g transform="translate(106.249081 849.456562)scale(0.18 -0.18)">
       <defs>
        <path d="M 2034 4250 
Q 1547 4250 1301 3770 
Q 1056 3291 1056 2328 
Q 1056 1369 1301 889 
Q 1547 409 2034 409 
Q 2525 409 2770 889 
Q 3016 1369 3016 2328 
Q 3016 3291 2770 3770 
Q 2525 4250 2034 4250 
z
M 2034 4750 
Q 2819 4750 3233 4129 
Q 3647 3509 3647 2328 
Q 3647 1150 3233 529 
Q 2819 -91 2034 -91 
Q 1250 -91 836 529 
Q 422 1150 422 2328 
Q 422 3509 836 4129 
Q 1250 4750 2034 4750 
z
" id="DejaVuSans-30" transform="scale(0.015625)"/>
       </defs>
       <use xlink:href="#DejaVuSans-30"/>
      </g>
     </g>
    </g>
    <g id="xtick_2">
     <g id="line2d_2">
      <g>
       <use style="stroke:#000000;stroke-width:0.8;" x="340.430802" xlink:href="#m6d9624c0d8" y="828.779375"/>
      </g>
     </g>
     <g id="text_2">
      <!-- 1 -->
      <g transform="translate(334.704552 849.456562)scale(0.18 -0.18)">
       <defs>
        <path d="M 794 531 
L 1825 531 
L 1825 4091 
L 703 3866 
L 703 4441 
L 1819 4666 
L 2450 4666 
L 2450 531 
L 3481 531 
L 3481 0 
L 794 0 
L 794 531 
z
" id="DejaVuSans-31" transform="scale(0.015625)"/>
       </defs>
       <use xlink:href="#DejaVuSans-31"/>
      </g>
     </g>
    </g>
    <g id="xtick_3">
     <g id="line2d_3">
      <g>
       <use style="stroke:#000000;stroke-width:0.8;" x="568.886274" xlink:href="#m6d9624c0d8" y="828.779375"/>
      </g>
     </g>
     <g id="text_3">
      <!-- 2 -->
      <g transform="translate(563.160024 849.456562)scale(0.18 -0.18)">
       <defs>
        <path d="M 1228 531 
L 3431 531 
L 3431 0 
L 469 0 
L 469 531 
Q 828 903 1448 1529 
Q 2069 2156 2228 2338 
Q 2531 2678 2651 2914 
Q 2772 3150 2772 3378 
Q 2772 3750 2511 3984 
Q 2250 4219 1831 4219 
Q 1534 4219 1204 4116 
Q 875 4013 500 3803 
L 500 4441 
Q 881 4594 1212 4672 
Q 1544 4750 1819 4750 
Q 2544 4750 2975 4387 
Q 3406 4025 3406 3419 
Q 3406 3131 3298 2873 
Q 3191 2616 2906 2266 
Q 2828 2175 2409 1742 
Q 1991 1309 1228 531 
z
" id="DejaVuSans-32" transform="scale(0.015625)"/>
       </defs>
       <use xlink:href="#DejaVuSans-32"/>
      </g>
     </g>
    </g>
    <g id="xtick_4">
     <g id="line2d_4">
      <g>
       <use style="stroke:#000000;stroke-width:0.8;" x="797.341745" xlink:href="#m6d9624c0d8" y="828.779375"/>
      </g>
     </g>
     <g id="text_4">
      <!-- 3 -->
      <g transform="translate(791.615495 849.456562)scale(0.18 -0.18)">
       <defs>
        <path d="M 2597 2516 
Q 3050 2419 3304 2112 
Q 3559 1806 3559 1356 
Q 3559 666 3084 287 
Q 2609 -91 1734 -91 
Q 1441 -91 1130 -33 
Q 819 25 488 141 
L 488 750 
Q 750 597 1062 519 
Q 1375 441 1716 441 
Q 2309 441 2620 675 
Q 2931 909 2931 1356 
Q 2931 1769 2642 2001 
Q 2353 2234 1838 2234 
L 1294 2234 
L 1294 2753 
L 1863 2753 
Q 2328 2753 2575 2939 
Q 2822 3125 2822 3475 
Q 2822 3834 2567 4026 
Q 2313 4219 1838 4219 
Q 1578 4219 1281 4162 
Q 984 4106 628 3988 
L 628 4550 
Q 988 4650 1302 4700 
Q 1616 4750 1894 4750 
Q 2613 4750 3031 4423 
Q 3450 4097 3450 3541 
Q 3450 3153 3228 2886 
Q 3006 2619 2597 2516 
z
" id="DejaVuSans-33" transform="scale(0.015625)"/>
       </defs>
       <use xlink:href="#DejaVuSans-33"/>
      </g>
     </g>
    </g>
    <g id="xtick_5">
     <g id="line2d_5">
      <g>
       <use style="stroke:#000000;stroke-width:0.8;" x="1025.797217" xlink:href="#m6d9624c0d8" y="828.779375"/>
      </g>
     </g>
     <g id="text_5">
      <!-- 4 -->
      <g transform="translate(1020.070967 849.456562)scale(0.18 -0.18)">
       <defs>
        <path d="M 2419 4116 
L 825 1625 
L 2419 1625 
L 2419 4116 
z
M 2253 4666 
L 3047 4666 
L 3047 1625 
L 3713 1625 
L 3713 1100 
L 3047 1100 
L 3047 0 
L 2419 0 
L 2419 1100 
L 313 1100 
L 313 1709 
L 2253 4666 
z
" id="DejaVuSans-34" transform="scale(0.015625)"/>
       </defs>
       <use xlink:href="#DejaVuSans-34"/>
      </g>
     </g>
    </g>
    <g id="xtick_6">
     <g id="line2d_6">
      <g>
       <use style="stroke:#000000;stroke-width:0.8;" x="1254.252688" xlink:href="#m6d9624c0d8" y="828.779375"/>
      </g>
     </g>
     <g id="text_6">
      <!-- 5 -->
      <g transform="translate(1248.526438 849.456562)scale(0.18 -0.18)">
       <defs>
        <path d="M 691 4666 
L 3169 4666 
L 3169 4134 
L 1269 4134 
L 1269 2991 
Q 1406 3038 1543 3061 
Q 1681 3084 1819 3084 
Q 2600 3084 3056 2656 
Q 3513 2228 3513 1497 
Q 3513 744 3044 326 
Q 2575 -91 1722 -91 
Q 1428 -91 1123 -41 
Q 819 9 494 109 
L 494 744 
Q 775 591 1075 516 
Q 1375 441 1709 441 
Q 2250 441 2565 725 
Q 2881 1009 2881 1497 
Q 2881 1984 2565 2268 
Q 2250 2553 1709 2553 
Q 1456 2553 1204 2497 
Q 953 2441 691 2322 
L 691 4666 
z
" id="DejaVuSans-35" transform="scale(0.015625)"/>
       </defs>
       <use xlink:href="#DejaVuSans-35"/>
      </g>
     </g>
    </g>
   </g>
   <g id="matplotlib.axis_2">
    <g id="ytick_1">
     <g id="line2d_7">
      <defs>
       <path d="M 0 0 
L -3.5 0 
" id="m0b5e82f319" style="stroke:#000000;stroke-width:0.8;"/>
      </defs>
      <g>
       <use style="stroke:#000000;stroke-width:0.8;" x="72.685313" xlink:href="#m0b5e82f319" y="828.779375"/>
      </g>
     </g>
     <g id="text_7">
      <!-- 0.0 -->
      <g transform="translate(37.059688 835.617969)scale(0.18 -0.18)">
       <defs>
        <path d="M 684 794 
L 1344 794 
L 1344 0 
L 684 0 
L 684 794 
z
" id="DejaVuSans-2e" transform="scale(0.015625)"/>
       </defs>
       <use xlink:href="#DejaVuSans-30"/>
       <use x="63.623047" xlink:href="#DejaVuSans-2e"/>
       <use x="95.410156" xlink:href="#DejaVuSans-30"/>
      </g>
     </g>
    </g>
    <g id="ytick_2">
     <g id="line2d_8">
      <g>
       <use style="stroke:#000000;stroke-width:0.8;" x="72.685313" xlink:href="#m0b5e82f319" y="700.547649"/>
      </g>
     </g>
     <g id="text_8">
      <!-- 0.1 -->
      <g transform="translate(37.059688 707.386243)scale(0.18 -0.18)">
       <use xlink:href="#DejaVuSans-30"/>
       <use x="63.623047" xlink:href="#DejaVuSans-2e"/>
       <use x="95.410156" xlink:href="#DejaVuSans-31"/>
      </g>
     </g>
    </g>
    <g id="ytick_3">
     <g id="line2d_9">
      <g>
       <use style="stroke:#000000;stroke-width:0.8;" x="72.685313" xlink:href="#m0b5e82f319" y="572.315923"/>
      </g>
     </g>
     <g id="text_9">
      <!-- 0.2 -->
      <g transform="translate(37.059688 579.154516)scale(0.18 -0.18)">
       <use xlink:href="#DejaVuSans-30"/>
       <use x="63.623047" xlink:href="#DejaVuSans-2e"/>
       <use x="95.410156" xlink:href="#DejaVuSans-32"/>
      </g>
     </g>
    </g>
    <g id="ytick_4">
     <g id="line2d_10">
      <g>
       <use style="stroke:#000000;stroke-width:0.8;" x="72.685313" xlink:href="#m0b5e82f319" y="444.084196"/>
      </g>
     </g>
     <g id="text_10">
      <!-- 0.3 -->
      <g transform="translate(37.059688 450.92279)scale(0.18 -0.18)">
       <use xlink:href="#DejaVuSans-30"/>
       <use x="63.623047" xlink:href="#DejaVuSans-2e"/>
       <use x="95.410156" xlink:href="#DejaVuSans-33"/>
      </g>
     </g>
    </g>
    <g id="ytick_5">
     <g id="line2d_11">
      <g>
       <use style="stroke:#000000;stroke-width:0.8;" x="72.685313" xlink:href="#m0b5e82f319" y="315.85247"/>
      </g>
     </g>
     <g id="text_11">
      <!-- 0.4 -->
      <g transform="translate(37.059688 322.691064)scale(0.18 -0.18)">
       <use xlink:href="#DejaVuSans-30"/>
       <use x="63.623047" xlink:href="#DejaVuSans-2e"/>
       <use x="95.410156" xlink:href="#DejaVuSans-34"/>
      </g>
     </g>
    </g>
    <g id="ytick_6">
     <g id="line2d_12">
      <g>
       <use style="stroke:#000000;stroke-width:0.8;" x="72.685313" xlink:href="#m0b5e82f319" y="187.620744"/>
      </g>
     </g>
     <g id="text_12">
      <!-- 0.5 -->
      <g transform="translate(37.059688 194.459338)scale(0.18 -0.18)">
       <use xlink:href="#DejaVuSans-30"/>
       <use x="63.623047" xlink:href="#DejaVuSans-2e"/>
       <use x="95.410156" xlink:href="#DejaVuSans-35"/>
      </g>
     </g>
    </g>
    <g id="ytick_7">
     <g id="line2d_13">
      <g>
       <use style="stroke:#000000;stroke-width:0.8;" x="72.685313" xlink:href="#m0b5e82f319" y="59.389018"/>
      </g>
     </g>
     <g id="text_13">
      <!-- 0.6 -->
      <g transform="translate(37.059688 66.227611)scale(0.18 -0.18)">
       <defs>
        <path d="M 2113 2584 
Q 1688 2584 1439 2293 
Q 1191 2003 1191 1497 
Q 1191 994 1439 701 
Q 1688 409 2113 409 
Q 2538 409 2786 701 
Q 3034 994 3034 1497 
Q 3034 2003 2786 2293 
Q 2538 2584 2113 2584 
z
M 3366 4563 
L 3366 3988 
Q 3128 4100 2886 4159 
Q 2644 4219 2406 4219 
Q 1781 4219 1451 3797 
Q 1122 3375 1075 2522 
Q 1259 2794 1537 2939 
Q 1816 3084 2150 3084 
Q 2853 3084 3261 2657 
Q 3669 2231 3669 1497 
Q 3669 778 3244 343 
Q 2819 -91 2113 -91 
Q 1303 -91 875 529 
Q 447 1150 447 2328 
Q 447 3434 972 4092 
Q 1497 4750 2381 4750 
Q 2619 4750 2861 4703 
Q 3103 4656 3366 4563 
z
" id="DejaVuSans-36" transform="scale(0.015625)"/>
       </defs>
       <use xlink:href="#DejaVuSans-30"/>
       <use x="63.623047" xlink:href="#DejaVuSans-2e"/>
       <use x="95.410156" xlink:href="#DejaVuSans-36"/>
      </g>
     </g>
    </g>
    <g id="text_14">
     <!-- Normed Hist Counts -->
     <g transform="translate(28.276406 548.966563)rotate(-90)scale(0.23 -0.23)">
      <defs>
       <path d="M 628 4666 
L 1478 4666 
L 3547 763 
L 3547 4666 
L 4159 4666 
L 4159 0 
L 3309 0 
L 1241 3903 
L 1241 0 
L 628 0 
L 628 4666 
z
" id="DejaVuSans-4e" transform="scale(0.015625)"/>
       <path d="M 1959 3097 
Q 1497 3097 1228 2736 
Q 959 2375 959 1747 
Q 959 1119 1226 758 
Q 1494 397 1959 397 
Q 2419 397 2687 759 
Q 2956 1122 2956 1747 
Q 2956 2369 2687 2733 
Q 2419 3097 1959 3097 
z
M 1959 3584 
Q 2709 3584 3137 3096 
Q 3566 2609 3566 1747 
Q 3566 888 3137 398 
Q 2709 -91 1959 -91 
Q 1206 -91 779 398 
Q 353 888 353 1747 
Q 353 2609 779 3096 
Q 1206 3584 1959 3584 
z
" id="DejaVuSans-6f" transform="scale(0.015625)"/>
       <path d="M 2631 2963 
Q 2534 3019 2420 3045 
Q 2306 3072 2169 3072 
Q 1681 3072 1420 2755 
Q 1159 2438 1159 1844 
L 1159 0 
L 581 0 
L 581 3500 
L 1159 3500 
L 1159 2956 
Q 1341 3275 1631 3429 
Q 1922 3584 2338 3584 
Q 2397 3584 2469 3576 
Q 2541 3569 2628 3553 
L 2631 2963 
z
" id="DejaVuSans-72" transform="scale(0.015625)"/>
       <path d="M 3328 2828 
Q 3544 3216 3844 3400 
Q 4144 3584 4550 3584 
Q 5097 3584 5394 3201 
Q 5691 2819 5691 2113 
L 5691 0 
L 5113 0 
L 5113 2094 
Q 5113 2597 4934 2840 
Q 4756 3084 4391 3084 
Q 3944 3084 3684 2787 
Q 3425 2491 3425 1978 
L 3425 0 
L 2847 0 
L 2847 2094 
Q 2847 2600 2669 2842 
Q 2491 3084 2119 3084 
Q 1678 3084 1418 2786 
Q 1159 2488 1159 1978 
L 1159 0 
L 581 0 
L 581 3500 
L 1159 3500 
L 1159 2956 
Q 1356 3278 1631 3431 
Q 1906 3584 2284 3584 
Q 2666 3584 2933 3390 
Q 3200 3197 3328 2828 
z
" id="DejaVuSans-6d" transform="scale(0.015625)"/>
       <path d="M 3597 1894 
L 3597 1613 
L 953 1613 
Q 991 1019 1311 708 
Q 1631 397 2203 397 
Q 2534 397 2845 478 
Q 3156 559 3463 722 
L 3463 178 
Q 3153 47 2828 -22 
Q 2503 -91 2169 -91 
Q 1331 -91 842 396 
Q 353 884 353 1716 
Q 353 2575 817 3079 
Q 1281 3584 2069 3584 
Q 2775 3584 3186 3129 
Q 3597 2675 3597 1894 
z
M 3022 2063 
Q 3016 2534 2758 2815 
Q 2500 3097 2075 3097 
Q 1594 3097 1305 2825 
Q 1016 2553 972 2059 
L 3022 2063 
z
" id="DejaVuSans-65" transform="scale(0.015625)"/>
       <path d="M 2906 2969 
L 2906 4863 
L 3481 4863 
L 3481 0 
L 2906 0 
L 2906 525 
Q 2725 213 2448 61 
Q 2172 -91 1784 -91 
Q 1150 -91 751 415 
Q 353 922 353 1747 
Q 353 2572 751 3078 
Q 1150 3584 1784 3584 
Q 2172 3584 2448 3432 
Q 2725 3281 2906 2969 
z
M 947 1747 
Q 947 1113 1208 752 
Q 1469 391 1925 391 
Q 2381 391 2643 752 
Q 2906 1113 2906 1747 
Q 2906 2381 2643 2742 
Q 2381 3103 1925 3103 
Q 1469 3103 1208 2742 
Q 947 2381 947 1747 
z
" id="DejaVuSans-64" transform="scale(0.015625)"/>
       <path id="DejaVuSans-20" transform="scale(0.015625)"/>
       <path d="M 628 4666 
L 1259 4666 
L 1259 2753 
L 3553 2753 
L 3553 4666 
L 4184 4666 
L 4184 0 
L 3553 0 
L 3553 2222 
L 1259 2222 
L 1259 0 
L 628 0 
L 628 4666 
z
" id="DejaVuSans-48" transform="scale(0.015625)"/>
       <path d="M 603 3500 
L 1178 3500 
L 1178 0 
L 603 0 
L 603 3500 
z
M 603 4863 
L 1178 4863 
L 1178 4134 
L 603 4134 
L 603 4863 
z
" id="DejaVuSans-69" transform="scale(0.015625)"/>
       <path d="M 2834 3397 
L 2834 2853 
Q 2591 2978 2328 3040 
Q 2066 3103 1784 3103 
Q 1356 3103 1142 2972 
Q 928 2841 928 2578 
Q 928 2378 1081 2264 
Q 1234 2150 1697 2047 
L 1894 2003 
Q 2506 1872 2764 1633 
Q 3022 1394 3022 966 
Q 3022 478 2636 193 
Q 2250 -91 1575 -91 
Q 1294 -91 989 -36 
Q 684 19 347 128 
L 347 722 
Q 666 556 975 473 
Q 1284 391 1588 391 
Q 1994 391 2212 530 
Q 2431 669 2431 922 
Q 2431 1156 2273 1281 
Q 2116 1406 1581 1522 
L 1381 1569 
Q 847 1681 609 1914 
Q 372 2147 372 2553 
Q 372 3047 722 3315 
Q 1072 3584 1716 3584 
Q 2034 3584 2315 3537 
Q 2597 3491 2834 3397 
z
" id="DejaVuSans-73" transform="scale(0.015625)"/>
       <path d="M 1172 4494 
L 1172 3500 
L 2356 3500 
L 2356 3053 
L 1172 3053 
L 1172 1153 
Q 1172 725 1289 603 
Q 1406 481 1766 481 
L 2356 481 
L 2356 0 
L 1766 0 
Q 1100 0 847 248 
Q 594 497 594 1153 
L 594 3053 
L 172 3053 
L 172 3500 
L 594 3500 
L 594 4494 
L 1172 4494 
z
" id="DejaVuSans-74" transform="scale(0.015625)"/>
       <path d="M 4122 4306 
L 4122 3641 
Q 3803 3938 3442 4084 
Q 3081 4231 2675 4231 
Q 1875 4231 1450 3742 
Q 1025 3253 1025 2328 
Q 1025 1406 1450 917 
Q 1875 428 2675 428 
Q 3081 428 3442 575 
Q 3803 722 4122 1019 
L 4122 359 
Q 3791 134 3420 21 
Q 3050 -91 2638 -91 
Q 1578 -91 968 557 
Q 359 1206 359 2328 
Q 359 3453 968 4101 
Q 1578 4750 2638 4750 
Q 3056 4750 3426 4639 
Q 3797 4528 4122 4306 
z
" id="DejaVuSans-43" transform="scale(0.015625)"/>
       <path d="M 544 1381 
L 544 3500 
L 1119 3500 
L 1119 1403 
Q 1119 906 1312 657 
Q 1506 409 1894 409 
Q 2359 409 2629 706 
Q 2900 1003 2900 1516 
L 2900 3500 
L 3475 3500 
L 3475 0 
L 2900 0 
L 2900 538 
Q 2691 219 2414 64 
Q 2138 -91 1772 -91 
Q 1169 -91 856 284 
Q 544 659 544 1381 
z
M 1991 3584 
L 1991 3584 
z
" id="DejaVuSans-75" transform="scale(0.015625)"/>
       <path d="M 3513 2113 
L 3513 0 
L 2938 0 
L 2938 2094 
Q 2938 2591 2744 2837 
Q 2550 3084 2163 3084 
Q 1697 3084 1428 2787 
Q 1159 2491 1159 1978 
L 1159 0 
L 581 0 
L 581 3500 
L 1159 3500 
L 1159 2956 
Q 1366 3272 1645 3428 
Q 1925 3584 2291 3584 
Q 2894 3584 3203 3211 
Q 3513 2838 3513 2113 
z
" id="DejaVuSans-6e" transform="scale(0.015625)"/>
      </defs>
      <use xlink:href="#DejaVuSans-4e"/>
      <use x="74.804688" xlink:href="#DejaVuSans-6f"/>
      <use x="135.986328" xlink:href="#DejaVuSans-72"/>
      <use x="175.349609" xlink:href="#DejaVuSans-6d"/>
      <use x="272.761719" xlink:href="#DejaVuSans-65"/>
      <use x="334.285156" xlink:href="#DejaVuSans-64"/>
      <use x="397.761719" xlink:href="#DejaVuSans-20"/>
      <use x="429.548828" xlink:href="#DejaVuSans-48"/>
      <use x="504.744141" xlink:href="#DejaVuSans-69"/>
      <use x="532.527344" xlink:href="#DejaVuSans-73"/>
      <use x="584.626953" xlink:href="#DejaVuSans-74"/>
      <use x="623.835938" xlink:href="#DejaVuSans-20"/>
      <use x="655.623047" xlink:href="#DejaVuSans-43"/>
      <use x="725.447266" xlink:href="#DejaVuSans-6f"/>
      <use x="786.628906" xlink:href="#DejaVuSans-75"/>
      <use x="850.007812" xlink:href="#DejaVuSans-6e"/>
      <use x="913.386719" xlink:href="#DejaVuSans-74"/>
      <use x="952.595703" xlink:href="#DejaVuSans-73"/>
     </g>
    </g>
   </g>
   <g id="line2d_14">
    <path clip-path="url(#p4affd4635f)" d="M 137.428059 827.880935 
L 143.594035 827.062053 
L 149.760011 825.860329 
L 155.925987 824.207713 
L 162.091962 822.039505 
L 168.257938 819.294826 
L 174.423914 815.917042 
L 180.58989 811.854168 
L 186.755866 807.059238 
L 192.921842 801.490634 
L 199.087817 795.11238 
L 205.253793 787.894388 
L 211.419769 779.812667 
L 217.585745 770.849486 
L 223.751721 760.993488 
L 229.917697 750.239762 
L 236.083673 738.589866 
L 242.249648 726.051804 
L 248.415624 712.639959 
L 254.5816 698.374982 
L 260.747576 683.283633 
L 266.913552 667.398588 
L 273.079528 650.758199 
L 279.245504 633.40622 
L 285.411479 615.391498 
L 291.577455 596.767636 
L 297.743431 577.592614 
L 303.909407 557.928401 
L 316.241359 517.397673 
L 328.57331 475.734549 
L 359.40319 370.568867 
L 371.735141 329.717575 
L 377.901117 309.856103 
L 384.067093 290.467749 
L 390.233069 271.622444 
L 396.399045 253.387415 
L 402.565021 235.826828 
L 408.730996 219.001476 
L 414.896972 202.968477 
L 421.062948 187.781021 
L 427.228924 173.488127 
L 433.3949 160.134454 
L 439.560876 147.760127 
L 445.726852 136.400603 
L 451.892827 126.08657 
L 458.058803 116.843876 
L 464.224779 108.693492 
L 470.390755 101.651506 
L 476.556731 95.729142 
L 482.722707 90.93282 
L 488.888683 87.264231 
L 495.054658 84.720445 
L 501.220634 83.294044 
L 507.38661 82.973277 
L 513.552586 83.742233 
L 519.718562 85.581039 
L 525.884538 88.46607 
L 532.050513 92.37018 
L 538.216489 97.262936 
L 544.382465 103.110876 
L 550.548441 109.877763 
L 556.714417 117.524858 
L 562.880393 126.011185 
L 569.046369 135.293811 
L 575.212344 145.328114 
L 581.37832 156.068064 
L 587.544296 167.466489 
L 593.710272 179.475343 
L 599.876248 192.045966 
L 606.042224 205.129335 
L 612.2082 218.676313 
L 618.374175 232.637878 
L 624.540151 246.965347 
L 636.872103 276.526224 
L 649.204055 306.983982 
L 667.701982 353.576484 
L 692.365886 415.701186 
L 704.697837 446.127149 
L 717.029789 475.808171 
L 729.361741 504.544227 
L 735.527717 518.504292 
L 741.693692 532.167814 
L 747.859668 545.518825 
L 754.025644 558.543275 
L 760.19162 571.228977 
L 766.357596 583.565551 
L 772.523572 595.544363 
L 778.689548 607.158453 
L 784.855523 618.402464 
L 791.021499 629.272565 
L 797.187475 639.76637 
L 803.353451 649.882861 
L 809.519427 659.622297 
L 815.685403 668.986138 
L 821.851379 677.976955 
L 828.017354 686.598346 
L 834.18333 694.854853 
L 840.349306 702.75188 
L 846.515282 710.295608 
L 852.681258 717.49292 
L 858.847234 724.35132 
L 865.01321 730.878859 
L 871.179185 737.084064 
L 877.345161 742.975868 
L 883.511137 748.563543 
L 889.677113 753.856638 
L 895.843089 758.86492 
L 902.009065 763.598317 
L 908.17504 768.066869 
L 914.341016 772.280672 
L 920.506992 776.249842 
L 926.672968 779.984465 
L 932.838944 783.494564 
L 939.00492 786.790061 
L 945.170896 789.88075 
L 951.336871 792.776261 
L 957.502847 795.486044 
L 963.668823 798.01934 
L 969.834799 800.385164 
L 976.000775 802.592291 
L 982.166751 804.649237 
L 988.332727 806.564252 
L 994.498702 808.345307 
L 1000.664678 810.000092 
L 1012.99663 812.960155 
L 1025.328582 815.50012 
L 1037.660533 817.670975 
L 1049.992485 819.519082 
L 1062.324437 821.086311 
L 1074.656388 822.410228 
L 1086.98834 823.524336 
L 1099.320292 824.458329 
L 1117.818219 825.577967 
L 1136.316147 826.425478 
L 1154.814075 827.06169 
L 1179.477978 827.664072 
L 1210.307857 828.14138 
L 1247.303712 828.461783 
L 1302.797495 828.673842 
L 1364.457254 828.750655 
L 1364.457254 828.750655 
" style="fill:none;stroke:#ff7f0e;stroke-linecap:square;stroke-width:2;"/>
   </g>
   <g id="line2d_15">
    <path clip-path="url(#p4affd4635f)" d="M 137.428059 824.147258 
L 143.594035 822.884025 
L 149.760011 821.350465 
L 155.925987 819.506107 
L 162.091962 817.307744 
L 168.257938 814.709792 
L 174.423914 811.664718 
L 180.58989 808.123568 
L 186.755866 804.03655 
L 192.921842 799.353696 
L 199.087817 794.025576 
L 205.253793 788.004051 
L 211.419769 781.243061 
L 217.585745 773.699424 
L 223.751721 765.333634 
L 229.917697 756.110644 
L 236.083673 746.000615 
L 242.249648 734.979621 
L 248.415624 723.030285 
L 254.5816 710.142351 
L 260.747576 696.313165 
L 266.913552 681.548058 
L 273.079528 665.860634 
L 279.245504 649.272941 
L 285.411479 631.81554 
L 291.577455 613.527449 
L 297.743431 594.455987 
L 303.909407 574.656498 
L 310.075383 554.191979 
L 316.241359 533.132599 
L 322.407335 511.555143 
L 334.739286 467.182242 
L 353.237214 398.960006 
L 365.569165 353.517752 
L 377.901117 309.053996 
L 384.067093 287.440793 
L 390.233069 266.370447 
L 396.399045 245.936959 
L 402.565021 226.230403 
L 408.730996 207.336259 
L 414.896972 189.334805 
L 421.062948 172.30058 
L 427.228924 156.301916 
L 433.3949 141.40055 
L 439.560876 127.651299 
L 445.726852 115.101827 
L 451.892827 103.792466 
L 458.058803 93.756129 
L 464.224779 85.018282 
L 470.390755 77.596984 
L 476.556731 71.502996 
L 482.722707 66.73994 
L 488.888683 63.304519 
L 495.054658 61.186784 
L 501.220634 60.370443 
L 507.38661 60.833207 
L 513.552586 62.547173 
L 519.718562 65.47923 
L 525.884538 69.591485 
L 532.050513 74.841707 
L 538.216489 81.183784 
L 544.382465 88.568182 
L 550.548441 96.942406 
L 556.714417 106.251459 
L 562.880393 116.438293 
L 569.046369 127.444249 
L 575.212344 139.209487 
L 581.37832 151.673393 
L 587.544296 164.774971 
L 593.710272 178.453217 
L 599.876248 192.647458 
L 606.042224 207.297685 
L 612.2082 222.344844 
L 624.540151 253.400143 
L 636.872103 285.369778 
L 686.19991 414.665649 
L 698.531862 445.747909 
L 710.863813 475.837403 
L 717.029789 490.452865 
L 723.195765 504.756541 
L 729.361741 518.732109 
L 735.527717 532.365446 
L 741.693692 545.644542 
L 747.859668 558.559399 
L 754.025644 571.101936 
L 760.19162 583.265883 
L 766.357596 595.046677 
L 772.523572 606.441358 
L 778.689548 617.448459 
L 784.855523 628.067903 
L 791.021499 638.3009 
L 797.187475 648.149836 
L 803.353451 657.618181 
L 809.519427 666.710385 
L 815.685403 675.431784 
L 821.851379 683.788507 
L 828.017354 691.787392 
L 834.18333 699.435894 
L 840.349306 706.742009 
L 846.515282 713.714198 
L 852.681258 720.361313 
L 858.847234 726.69253 
L 865.01321 732.717284 
L 871.179185 738.445212 
L 877.345161 743.886097 
L 883.511137 749.049816 
L 889.677113 753.946294 
L 895.843089 758.585461 
L 902.009065 762.977213 
L 908.17504 767.131378 
L 914.341016 771.057682 
L 920.506992 774.76572 
L 926.672968 778.264935 
L 932.838944 781.564592 
L 939.00492 784.673758 
L 945.170896 787.601289 
L 951.336871 790.355813 
L 957.502847 792.945722 
L 963.668823 795.379156 
L 969.834799 797.664002 
L 976.000775 799.807884 
L 982.166751 801.818161 
L 988.332727 803.701927 
L 1000.664678 807.116944 
L 1012.99663 810.104309 
L 1025.328582 812.711175 
L 1037.660533 814.980587 
L 1049.992485 816.951652 
L 1062.324437 818.659734 
L 1074.656388 820.136673 
L 1086.98834 821.411017 
L 1099.320292 822.508266 
L 1117.818219 823.871016 
L 1136.316147 824.951744 
L 1154.814075 825.805158 
L 1179.477978 826.666073 
L 1204.141881 827.286666 
L 1234.971761 827.82049 
L 1271.967616 828.221868 
L 1321.295423 828.513651 
L 1364.457254 828.642614 
L 1364.457254 828.642614 
" style="fill:none;stroke:#2ca02c;stroke-linecap:square;stroke-width:2;"/>
   </g>
   <g id="line2d_16">
    <path clip-path="url(#p4affd4635f)" d="M 137.428059 111.731353 
L 149.760011 133.21192 
L 162.091962 154.048995 
L 174.423914 174.261854 
L 186.755866 193.869199 
L 199.087817 212.889167 
L 211.419769 231.339355 
L 223.751721 249.236832 
L 236.083673 266.598155 
L 248.415624 283.439386 
L 260.747576 299.776105 
L 273.079528 315.623426 
L 285.411479 330.996009 
L 297.743431 345.908077 
L 310.075383 360.373426 
L 322.407335 374.405436 
L 334.739286 388.01709 
L 347.071238 401.220981 
L 359.40319 414.029324 
L 371.735141 426.453967 
L 384.067093 438.506407 
L 396.399045 450.197792 
L 408.730996 461.538939 
L 421.062948 472.54034 
L 433.3949 483.212173 
L 445.726852 493.56431 
L 458.058803 503.606328 
L 470.390755 513.347519 
L 482.722707 522.796893 
L 495.054658 531.963193 
L 507.38661 540.854898 
L 519.718562 549.480236 
L 532.050513 557.847184 
L 544.382465 565.963484 
L 556.714417 573.836645 
L 569.046369 581.47395 
L 581.37832 588.882465 
L 593.710272 596.069043 
L 606.042224 603.040333 
L 618.374175 609.802785 
L 630.706127 616.362654 
L 643.038079 622.72601 
L 655.370031 628.898739 
L 667.701982 634.886552 
L 680.033934 640.694988 
L 692.365886 646.329421 
L 704.697837 651.795064 
L 723.195765 659.688066 
L 741.693692 667.229062 
L 760.19162 674.433751 
L 778.689548 681.317131 
L 797.187475 687.893532 
L 815.685403 694.176644 
L 834.18333 700.179546 
L 852.681258 705.914737 
L 871.179185 711.394153 
L 889.677113 716.629204 
L 908.17504 721.630785 
L 926.672968 726.409311 
L 945.170896 730.974727 
L 963.668823 735.336539 
L 982.166751 739.503826 
L 1000.664678 743.485265 
L 1019.162606 747.289142 
L 1043.826509 752.098407 
L 1068.490413 756.623847 
L 1093.154316 760.882212 
L 1117.818219 764.889262 
L 1142.482123 768.659831 
L 1167.146026 772.207874 
L 1191.80993 775.546525 
L 1216.473833 778.688139 
L 1241.137737 781.644347 
L 1271.967616 785.095486 
L 1302.797495 788.293939 
L 1333.627374 791.258207 
L 1364.457254 794.005436 
L 1364.457254 794.005436 
" style="fill:none;stroke:#d62728;stroke-linecap:square;stroke-width:2;"/>
   </g>
   <g id="line2d_17">
    <path clip-path="url(#p4affd4635f)" d="M 137.428059 777.97934 
L 143.594035 775.399107 
L 149.760011 772.687819 
L 155.925987 769.838818 
L 162.091962 766.845112 
L 168.257938 763.69935 
L 174.423914 760.393808 
L 180.58989 756.920371 
L 186.755866 753.270511 
L 192.921842 749.435268 
L 199.087817 745.405225 
L 205.253793 741.170489 
L 211.419769 736.720662 
L 217.585745 732.04482 
L 223.751721 727.131482 
L 229.917697 721.968587 
L 236.083673 716.543457 
L 242.249648 710.842775 
L 248.415624 704.852544 
L 254.5816 698.558058 
L 260.747576 691.943862 
L 266.913552 684.993718 
L 273.079528 677.690563 
L 279.245504 670.016466 
L 285.411479 661.952587 
L 291.577455 653.479128 
L 297.743431 644.575285 
L 303.909407 635.219199 
L 310.075383 625.387898 
L 316.241359 615.057246 
L 322.407335 604.201881 
L 328.57331 592.79515 
L 334.739286 580.809049 
L 340.905262 568.21415 
L 347.071238 554.979532 
L 353.237214 541.072702 
L 359.40319 526.459516 
L 365.569165 511.104098 
L 371.735141 494.968749 
L 377.901117 478.013853 
L 384.067093 460.197785 
L 390.233069 441.476804 
L 396.399045 421.804948 
L 402.565021 401.13392 
L 408.730996 379.412969 
L 414.896972 356.588769 
L 421.062948 332.605284 
L 427.228924 307.40363 
L 433.3949 280.921934 
L 439.560876 253.095182 
L 445.726852 223.855054 
L 451.892827 193.129762 
L 458.058803 160.843873 
L 464.224779 126.918121 
L 470.390755 91.269213 
L 476.556731 53.809627 
L 482.722707 14.447396 
L 485.02553 -1 
M 572.098167 -1 
L 575.212344 19.75385 
L 581.37832 58.859584 
L 587.544296 96.075071 
L 593.710272 131.491679 
L 599.876248 165.196361 
L 606.042224 197.271864 
L 612.2082 227.796939 
L 618.374175 256.846529 
L 624.540151 284.491953 
L 630.706127 310.801085 
L 636.872103 335.838517 
L 643.038079 359.665719 
L 649.204055 382.341189 
L 655.370031 403.920598 
L 661.536006 424.456927 
L 667.701982 444.000595 
L 673.867958 462.599584 
L 680.033934 480.299557 
L 686.19991 497.143969 
L 692.365886 513.174175 
L 698.531862 528.429532 
L 704.697837 542.947493 
L 710.863813 556.763702 
L 717.029789 569.912079 
L 723.195765 582.424905 
L 729.361741 594.332901 
L 735.527717 605.665302 
L 741.693692 616.44993 
L 747.859668 626.713264 
L 754.025644 636.4805 
L 760.19162 645.775619 
L 766.357596 654.621442 
L 772.523572 663.039685 
L 778.689548 671.051018 
L 784.855523 678.675108 
L 791.021499 685.930673 
L 797.187475 692.835527 
L 803.353451 699.406623 
L 809.519427 705.660092 
L 815.685403 711.611289 
L 821.851379 717.274824 
L 828.017354 722.664601 
L 834.18333 727.793853 
L 840.349306 732.675174 
L 846.515282 737.320547 
L 852.681258 741.741377 
L 858.847234 745.948519 
L 865.01321 749.9523 
L 871.179185 753.762552 
L 877.345161 757.388628 
L 883.511137 760.83943 
L 889.677113 764.123432 
L 895.843089 767.248696 
L 902.009065 770.222894 
L 908.17504 773.05333 
L 914.341016 775.74695 
L 920.506992 778.31037 
L 932.838944 783.071476 
L 945.170896 787.383432 
L 957.502847 791.28861 
L 969.834799 794.825385 
L 982.166751 798.02851 
L 994.498702 800.929461 
L 1006.830654 803.556745 
L 1019.162606 805.936178 
L 1031.494558 808.091141 
L 1043.826509 810.042812 
L 1056.158461 811.810367 
L 1068.490413 813.411176 
L 1086.98834 815.533741 
L 1105.486268 817.36315 
L 1123.984195 818.939892 
L 1142.482123 820.298863 
L 1160.98005 821.470141 
L 1185.643954 822.784158 
L 1210.307857 823.861948 
L 1241.137737 824.94094 
L 1271.967616 825.783177 
L 1308.963471 826.553657 
L 1352.125302 827.205925 
L 1364.457254 827.35436 
L 1364.457254 827.35436 
" style="fill:none;stroke:#9467bd;stroke-linecap:square;stroke-width:2;"/>
   </g>
   <g id="line2d_18">
    <path clip-path="url(#p4affd4635f)" d="M 137.428059 822.628947 
L 143.594035 821.214224 
L 149.760011 819.535715 
L 155.925987 817.557514 
L 162.091962 815.241272 
L 168.257938 812.54642 
L 174.423914 809.430476 
L 180.58989 805.849409 
L 186.755866 801.758078 
L 192.921842 797.110736 
L 199.087817 791.861588 
L 205.253793 785.965411 
L 211.419769 779.37821 
L 217.585745 772.057913 
L 223.751721 763.96509 
L 229.917697 755.063673 
L 236.083673 745.321688 
L 242.249648 734.711954 
L 248.415624 723.212764 
L 254.5816 710.808512 
L 260.747576 697.490271 
L 266.913552 683.256289 
L 273.079528 668.112421 
L 279.245504 652.072452 
L 285.411479 635.158336 
L 291.577455 617.400322 
L 297.743431 598.836977 
L 303.909407 579.515093 
L 310.075383 559.489488 
L 316.241359 538.822696 
L 322.407335 517.584555 
L 328.57331 495.851693 
L 340.905262 451.238581 
L 377.901117 315.071772 
L 384.067093 293.102907 
L 390.233069 271.61529 
L 396.399045 250.708319 
L 402.565021 230.478178 
L 408.730996 211.017053 
L 414.896972 192.412394 
L 421.062948 174.746253 
L 427.228924 158.094686 
L 433.3949 142.52723 
L 439.560876 128.10647 
L 445.726852 114.887672 
L 451.892827 102.918513 
L 458.058803 92.238886 
L 464.224779 82.88079 
L 470.390755 74.868297 
L 476.556731 68.217592 
L 482.722707 62.937094 
L 488.888683 59.027634 
L 495.054658 56.482697 
L 501.220634 55.288722 
L 507.38661 55.425454 
L 513.552586 56.866325 
L 519.718562 59.578892 
L 525.884538 63.525288 
L 532.050513 68.662704 
L 538.216489 74.943886 
L 544.382465 82.317643 
L 550.548441 90.729365 
L 556.714417 100.12153 
L 562.880393 110.434215 
L 569.046369 121.605597 
L 575.212344 133.572431 
L 581.37832 146.270523 
L 587.544296 159.635172 
L 593.710272 173.601593 
L 599.876248 188.105312 
L 606.042224 203.082539 
L 612.2082 218.470501 
L 624.540151 250.234482 
L 636.872103 282.926517 
L 680.033934 398.695165 
L 692.365886 430.733035 
L 704.697837 461.808932 
L 710.863813 476.921699 
L 717.029789 491.721966 
L 723.195765 506.19114 
L 729.361741 520.313076 
L 735.527717 534.073974 
L 741.693692 547.462275 
L 747.859668 560.468549 
L 754.025644 573.085383 
L 760.19162 585.307257 
L 766.357596 597.130433 
L 772.523572 608.55283 
L 778.689548 619.573904 
L 784.855523 630.194534 
L 791.021499 640.416902 
L 797.187475 650.244382 
L 803.353451 659.681429 
L 809.519427 668.733468 
L 815.685403 677.406796 
L 821.851379 685.708482 
L 828.017354 693.646268 
L 834.18333 701.228487 
L 840.349306 708.463971 
L 846.515282 715.361977 
L 852.681258 721.932106 
L 858.847234 728.184239 
L 865.01321 734.128469 
L 871.179185 739.775041 
L 877.345161 745.134297 
L 883.511137 750.216624 
L 889.677113 755.032413 
L 895.843089 759.592008 
L 902.009065 763.905676 
L 908.17504 767.983571 
L 914.341016 771.835703 
L 920.506992 775.471911 
L 926.672968 778.901843 
L 932.838944 782.134932 
L 939.00492 785.180381 
L 945.170896 788.047151 
L 951.336871 790.743945 
L 957.502847 793.279201 
L 963.668823 795.661086 
L 969.834799 797.897485 
L 976.000775 799.996008 
L 982.166751 801.963976 
L 988.332727 803.808431 
L 1000.664678 807.15355 
L 1012.99663 810.082089 
L 1025.328582 812.640408 
L 1037.660533 814.870678 
L 1049.992485 816.81108 
L 1062.324437 818.496037 
L 1074.656388 819.956459 
L 1086.98834 821.22 
L 1099.320292 822.311311 
L 1117.818219 823.672569 
L 1136.316147 824.758616 
L 1154.814075 825.622141 
L 1179.477978 826.501163 
L 1204.141881 827.14242 
L 1234.971761 827.702491 
L 1271.967616 828.132754 
L 1321.295423 828.455583 
L 1364.457254 828.604299 
L 1364.457254 828.604299 
" style="fill:none;stroke:#8c564b;stroke-linecap:square;stroke-width:2;"/>
   </g>
   <g id="line2d_19">
    <path clip-path="url(#p4affd4635f)" d="M 137.428059 802.42176 
L 143.594035 799.594014 
L 149.760011 796.513713 
L 155.925987 793.164402 
L 162.091962 789.529235 
L 168.257938 785.591052 
L 174.423914 781.332457 
L 180.58989 776.735908 
L 186.755866 771.783821 
L 192.921842 766.458682 
L 199.087817 760.743164 
L 205.253793 754.620267 
L 211.419769 748.073449 
L 217.585745 741.086786 
L 223.751721 733.645125 
L 229.917697 725.73425 
L 236.083673 717.341058 
L 242.249648 708.453735 
L 248.415624 699.061939 
L 254.5816 689.156982 
L 260.747576 678.732022 
L 266.913552 667.782241 
L 273.079528 656.305035 
L 279.245504 644.300186 
L 285.411479 631.770037 
L 291.577455 618.719654 
L 297.743431 605.156977 
L 303.909407 591.092961 
L 310.075383 576.541698 
L 316.241359 561.520522 
L 322.407335 546.050097 
L 328.57331 530.154479 
L 334.739286 513.861161 
L 340.905262 497.201082 
L 353.237214 462.921556 
L 365.569165 427.631257 
L 384.067093 373.61585 
L 402.565021 319.59036 
L 414.896972 284.356808 
L 421.062948 267.163366 
L 427.228924 250.337958 
L 433.3949 233.945318 
L 439.560876 218.049995 
L 445.726852 202.715937 
L 451.892827 188.006066 
L 458.058803 173.981854 
L 464.224779 160.702895 
L 470.390755 148.226489 
L 476.556731 136.607226 
L 482.722707 125.896597 
L 488.888683 116.142605 
L 495.054658 107.389415 
L 501.220634 99.677017 
L 507.38661 93.040923 
L 513.552586 87.511895 
L 519.718562 83.115706 
L 525.884538 79.872942 
L 532.050513 77.798839 
L 538.216489 76.903165 
L 544.382465 77.190145 
L 550.548441 78.658425 
L 556.714417 81.301084 
L 562.880393 85.105688 
L 569.046369 90.054389 
L 575.212344 96.12406 
L 581.37832 103.286482 
L 587.544296 111.508556 
L 593.710272 120.752562 
L 599.876248 130.976444 
L 606.042224 142.134131 
L 612.2082 154.175883 
L 618.374175 167.048655 
L 624.540151 180.696494 
L 630.706127 195.060933 
L 636.872103 210.081416 
L 643.038079 225.695713 
L 649.204055 241.84035 
L 655.370031 258.451038 
L 661.536006 275.463084 
L 673.867958 310.432962 
L 686.19991 346.239834 
L 717.029789 436.266037 
L 729.361741 471.342941 
L 741.693692 505.327712 
L 747.859668 521.813933 
L 754.025644 537.917951 
L 760.19162 553.6105 
L 766.357596 568.865758 
L 772.523572 583.661321 
L 778.689548 597.97815 
L 784.855523 611.800496 
L 791.021499 625.115804 
L 797.187475 637.914598 
L 803.353451 650.190349 
L 809.519427 661.939334 
L 815.685403 673.160472 
L 821.851379 683.855161 
L 828.017354 694.027101 
L 834.18333 703.682117 
L 840.349306 712.827968 
L 846.515282 721.474168 
L 852.681258 729.631797 
L 858.847234 737.313316 
L 865.01321 744.53239 
L 871.179185 751.30371 
L 877.345161 757.642825 
L 883.511137 763.565978 
L 889.677113 769.08995 
L 895.843089 774.231919 
L 902.009065 779.009316 
L 908.17504 783.439705 
L 914.341016 787.540663 
L 920.506992 791.329673 
L 926.672968 794.824026 
L 932.838944 798.040741 
L 939.00492 800.996482 
L 945.170896 803.707494 
L 951.336871 806.189548 
L 957.502847 808.45789 
L 963.668823 810.527205 
L 969.834799 812.411582 
L 976.000775 814.124494 
L 982.166751 815.678781 
L 988.332727 817.086636 
L 994.498702 818.359608 
L 1000.664678 819.508593 
L 1012.99663 821.475007 
L 1025.328582 823.060441 
L 1037.660533 824.329849 
L 1049.992485 825.339216 
L 1062.324437 826.1363 
L 1074.656388 826.761443 
L 1093.154316 827.448993 
L 1111.652244 827.914616 
L 1136.316147 828.30307 
L 1167.146026 828.561231 
L 1216.473833 828.721754 
L 1327.461398 828.777381 
L 1364.457254 828.778795 
L 1364.457254 828.778795 
" style="fill:none;stroke:#e377c2;stroke-linecap:square;stroke-width:2;"/>
   </g>
   <g id="patch_103">
    <path d="M 72.685313 828.779375 
L 72.685313 38.075625 
" style="fill:none;stroke:#000000;stroke-linecap:square;stroke-linejoin:miter;stroke-width:0.8;"/>
   </g>
   <g id="patch_104">
    <path d="M 1429.2 828.779375 
L 1429.2 38.075625 
" style="fill:none;stroke:#000000;stroke-linecap:square;stroke-linejoin:miter;stroke-width:0.8;"/>
   </g>
   <g id="patch_105">
    <path d="M 72.685313 828.779375 
L 1429.2 828.779375 
" style="fill:none;stroke:#000000;stroke-linecap:square;stroke-linejoin:miter;stroke-width:0.8;"/>
   </g>
   <g id="patch_106">
    <path d="M 72.685313 38.075625 
L 1429.2 38.075625 
" style="fill:none;stroke:#000000;stroke-linecap:square;stroke-linejoin:miter;stroke-width:0.8;"/>
   </g>
   <g id="text_15">
    <!-- All Fitted Distributions -->
    <g transform="translate(596.317031 32.075625)scale(0.28 -0.28)">
     <defs>
      <path d="M 2188 4044 
L 1331 1722 
L 3047 1722 
L 2188 4044 
z
M 1831 4666 
L 2547 4666 
L 4325 0 
L 3669 0 
L 3244 1197 
L 1141 1197 
L 716 0 
L 50 0 
L 1831 4666 
z
" id="DejaVuSans-41" transform="scale(0.015625)"/>
      <path d="M 603 4863 
L 1178 4863 
L 1178 0 
L 603 0 
L 603 4863 
z
" id="DejaVuSans-6c" transform="scale(0.015625)"/>
      <path d="M 628 4666 
L 3309 4666 
L 3309 4134 
L 1259 4134 
L 1259 2759 
L 3109 2759 
L 3109 2228 
L 1259 2228 
L 1259 0 
L 628 0 
L 628 4666 
z
" id="DejaVuSans-46" transform="scale(0.015625)"/>
      <path d="M 1259 4147 
L 1259 519 
L 2022 519 
Q 2988 519 3436 956 
Q 3884 1394 3884 2338 
Q 3884 3275 3436 3711 
Q 2988 4147 2022 4147 
L 1259 4147 
z
M 628 4666 
L 1925 4666 
Q 3281 4666 3915 4102 
Q 4550 3538 4550 2338 
Q 4550 1131 3912 565 
Q 3275 0 1925 0 
L 628 0 
L 628 4666 
z
" id="DejaVuSans-44" transform="scale(0.015625)"/>
      <path d="M 3116 1747 
Q 3116 2381 2855 2742 
Q 2594 3103 2138 3103 
Q 1681 3103 1420 2742 
Q 1159 2381 1159 1747 
Q 1159 1113 1420 752 
Q 1681 391 2138 391 
Q 2594 391 2855 752 
Q 3116 1113 3116 1747 
z
M 1159 2969 
Q 1341 3281 1617 3432 
Q 1894 3584 2278 3584 
Q 2916 3584 3314 3078 
Q 3713 2572 3713 1747 
Q 3713 922 3314 415 
Q 2916 -91 2278 -91 
Q 1894 -91 1617 61 
Q 1341 213 1159 525 
L 1159 0 
L 581 0 
L 581 4863 
L 1159 4863 
L 1159 2969 
z
" id="DejaVuSans-62" transform="scale(0.015625)"/>
     </defs>
     <use xlink:href="#DejaVuSans-41"/>
     <use x="68.408203" xlink:href="#DejaVuSans-6c"/>
     <use x="96.191406" xlink:href="#DejaVuSans-6c"/>
     <use x="123.974609" xlink:href="#DejaVuSans-20"/>
     <use x="155.761719" xlink:href="#DejaVuSans-46"/>
     <use x="206.03125" xlink:href="#DejaVuSans-69"/>
     <use x="233.814453" xlink:href="#DejaVuSans-74"/>
     <use x="273.023438" xlink:href="#DejaVuSans-74"/>
     <use x="312.232422" xlink:href="#DejaVuSans-65"/>
     <use x="373.755859" xlink:href="#DejaVuSans-64"/>
     <use x="437.232422" xlink:href="#DejaVuSans-20"/>
     <use x="469.019531" xlink:href="#DejaVuSans-44"/>
     <use x="546.021484" xlink:href="#DejaVuSans-69"/>
     <use x="573.804688" xlink:href="#DejaVuSans-73"/>
     <use x="625.904297" xlink:href="#DejaVuSans-74"/>
     <use x="665.113281" xlink:href="#DejaVuSans-72"/>
     <use x="706.226562" xlink:href="#DejaVuSans-69"/>
     <use x="734.009766" xlink:href="#DejaVuSans-62"/>
     <use x="797.486328" xlink:href="#DejaVuSans-75"/>
     <use x="860.865234" xlink:href="#DejaVuSans-74"/>
     <use x="900.074219" xlink:href="#DejaVuSans-69"/>
     <use x="927.857422" xlink:href="#DejaVuSans-6f"/>
     <use x="989.039062" xlink:href="#DejaVuSans-6e"/>
     <use x="1052.417969" xlink:href="#DejaVuSans-73"/>
    </g>
   </g>
   <g id="legend_1">
    <g id="patch_107">
     <path d="M 1014.37125 303.868125 
L 1412.4 303.868125 
Q 1417.2 303.868125 1417.2 299.068125 
L 1417.2 54.875625 
Q 1417.2 50.075625 1412.4 50.075625 
L 1014.37125 50.075625 
Q 1009.57125 50.075625 1009.57125 54.875625 
L 1009.57125 299.068125 
Q 1009.57125 303.868125 1014.37125 303.868125 
z
" style="fill:#ffffff;opacity:0.8;stroke:#cccccc;stroke-linejoin:miter;"/>
    </g>
    <g id="line2d_20">
     <path d="M 1019.17125 69.511875 
L 1067.17125 69.511875 
" style="fill:none;stroke:#ff7f0e;stroke-linecap:square;stroke-width:2;"/>
    </g>
    <g id="line2d_21"/>
    <g id="text_16">
     <!-- Chi fit -->
     <g transform="translate(1086.37125 77.911875)scale(0.24 -0.24)">
      <defs>
       <path d="M 3513 2113 
L 3513 0 
L 2938 0 
L 2938 2094 
Q 2938 2591 2744 2837 
Q 2550 3084 2163 3084 
Q 1697 3084 1428 2787 
Q 1159 2491 1159 1978 
L 1159 0 
L 581 0 
L 581 4863 
L 1159 4863 
L 1159 2956 
Q 1366 3272 1645 3428 
Q 1925 3584 2291 3584 
Q 2894 3584 3203 3211 
Q 3513 2838 3513 2113 
z
" id="DejaVuSans-68" transform="scale(0.015625)"/>
       <path d="M 2375 4863 
L 2375 4384 
L 1825 4384 
Q 1516 4384 1395 4259 
Q 1275 4134 1275 3809 
L 1275 3500 
L 2222 3500 
L 2222 3053 
L 1275 3053 
L 1275 0 
L 697 0 
L 697 3053 
L 147 3053 
L 147 3500 
L 697 3500 
L 697 3744 
Q 697 4328 969 4595 
Q 1241 4863 1831 4863 
L 2375 4863 
z
" id="DejaVuSans-66" transform="scale(0.015625)"/>
      </defs>
      <use xlink:href="#DejaVuSans-43"/>
      <use x="69.824219" xlink:href="#DejaVuSans-68"/>
      <use x="133.203125" xlink:href="#DejaVuSans-69"/>
      <use x="160.986328" xlink:href="#DejaVuSans-20"/>
      <use x="192.773438" xlink:href="#DejaVuSans-66"/>
      <use x="227.978516" xlink:href="#DejaVuSans-69"/>
      <use x="255.761719" xlink:href="#DejaVuSans-74"/>
     </g>
    </g>
    <g id="line2d_22">
     <path d="M 1019.17125 104.739375 
L 1067.17125 104.739375 
" style="fill:none;stroke:#2ca02c;stroke-linecap:square;stroke-width:2;"/>
    </g>
    <g id="line2d_23"/>
    <g id="text_17">
     <!-- Chi-Square fit -->
     <g transform="translate(1086.37125 113.139375)scale(0.24 -0.24)">
      <defs>
       <path d="M 313 2009 
L 1997 2009 
L 1997 1497 
L 313 1497 
L 313 2009 
z
" id="DejaVuSans-2d" transform="scale(0.015625)"/>
       <path d="M 3425 4513 
L 3425 3897 
Q 3066 4069 2747 4153 
Q 2428 4238 2131 4238 
Q 1616 4238 1336 4038 
Q 1056 3838 1056 3469 
Q 1056 3159 1242 3001 
Q 1428 2844 1947 2747 
L 2328 2669 
Q 3034 2534 3370 2195 
Q 3706 1856 3706 1288 
Q 3706 609 3251 259 
Q 2797 -91 1919 -91 
Q 1588 -91 1214 -16 
Q 841 59 441 206 
L 441 856 
Q 825 641 1194 531 
Q 1563 422 1919 422 
Q 2459 422 2753 634 
Q 3047 847 3047 1241 
Q 3047 1584 2836 1778 
Q 2625 1972 2144 2069 
L 1759 2144 
Q 1053 2284 737 2584 
Q 422 2884 422 3419 
Q 422 4038 858 4394 
Q 1294 4750 2059 4750 
Q 2388 4750 2728 4690 
Q 3069 4631 3425 4513 
z
" id="DejaVuSans-53" transform="scale(0.015625)"/>
       <path d="M 947 1747 
Q 947 1113 1208 752 
Q 1469 391 1925 391 
Q 2381 391 2643 752 
Q 2906 1113 2906 1747 
Q 2906 2381 2643 2742 
Q 2381 3103 1925 3103 
Q 1469 3103 1208 2742 
Q 947 2381 947 1747 
z
M 2906 525 
Q 2725 213 2448 61 
Q 2172 -91 1784 -91 
Q 1150 -91 751 415 
Q 353 922 353 1747 
Q 353 2572 751 3078 
Q 1150 3584 1784 3584 
Q 2172 3584 2448 3432 
Q 2725 3281 2906 2969 
L 2906 3500 
L 3481 3500 
L 3481 -1331 
L 2906 -1331 
L 2906 525 
z
" id="DejaVuSans-71" transform="scale(0.015625)"/>
       <path d="M 2194 1759 
Q 1497 1759 1228 1600 
Q 959 1441 959 1056 
Q 959 750 1161 570 
Q 1363 391 1709 391 
Q 2188 391 2477 730 
Q 2766 1069 2766 1631 
L 2766 1759 
L 2194 1759 
z
M 3341 1997 
L 3341 0 
L 2766 0 
L 2766 531 
Q 2569 213 2275 61 
Q 1981 -91 1556 -91 
Q 1019 -91 701 211 
Q 384 513 384 1019 
Q 384 1609 779 1909 
Q 1175 2209 1959 2209 
L 2766 2209 
L 2766 2266 
Q 2766 2663 2505 2880 
Q 2244 3097 1772 3097 
Q 1472 3097 1187 3025 
Q 903 2953 641 2809 
L 641 3341 
Q 956 3463 1253 3523 
Q 1550 3584 1831 3584 
Q 2591 3584 2966 3190 
Q 3341 2797 3341 1997 
z
" id="DejaVuSans-61" transform="scale(0.015625)"/>
      </defs>
      <use xlink:href="#DejaVuSans-43"/>
      <use x="69.824219" xlink:href="#DejaVuSans-68"/>
      <use x="133.203125" xlink:href="#DejaVuSans-69"/>
      <use x="160.986328" xlink:href="#DejaVuSans-2d"/>
      <use x="197.070312" xlink:href="#DejaVuSans-53"/>
      <use x="260.546875" xlink:href="#DejaVuSans-71"/>
      <use x="324.023438" xlink:href="#DejaVuSans-75"/>
      <use x="387.402344" xlink:href="#DejaVuSans-61"/>
      <use x="448.681641" xlink:href="#DejaVuSans-72"/>
      <use x="487.544922" xlink:href="#DejaVuSans-65"/>
      <use x="549.068359" xlink:href="#DejaVuSans-20"/>
      <use x="580.855469" xlink:href="#DejaVuSans-66"/>
      <use x="616.060547" xlink:href="#DejaVuSans-69"/>
      <use x="643.84375" xlink:href="#DejaVuSans-74"/>
     </g>
    </g>
    <g id="line2d_24">
     <path d="M 1019.17125 139.966875 
L 1067.17125 139.966875 
" style="fill:none;stroke:#d62728;stroke-linecap:square;stroke-width:2;"/>
    </g>
    <g id="line2d_25"/>
    <g id="text_18">
     <!-- Exponential fit -->
     <g transform="translate(1086.37125 148.366875)scale(0.24 -0.24)">
      <defs>
       <path d="M 628 4666 
L 3578 4666 
L 3578 4134 
L 1259 4134 
L 1259 2753 
L 3481 2753 
L 3481 2222 
L 1259 2222 
L 1259 531 
L 3634 531 
L 3634 0 
L 628 0 
L 628 4666 
z
" id="DejaVuSans-45" transform="scale(0.015625)"/>
       <path d="M 3513 3500 
L 2247 1797 
L 3578 0 
L 2900 0 
L 1881 1375 
L 863 0 
L 184 0 
L 1544 1831 
L 300 3500 
L 978 3500 
L 1906 2253 
L 2834 3500 
L 3513 3500 
z
" id="DejaVuSans-78" transform="scale(0.015625)"/>
       <path d="M 1159 525 
L 1159 -1331 
L 581 -1331 
L 581 3500 
L 1159 3500 
L 1159 2969 
Q 1341 3281 1617 3432 
Q 1894 3584 2278 3584 
Q 2916 3584 3314 3078 
Q 3713 2572 3713 1747 
Q 3713 922 3314 415 
Q 2916 -91 2278 -91 
Q 1894 -91 1617 61 
Q 1341 213 1159 525 
z
M 3116 1747 
Q 3116 2381 2855 2742 
Q 2594 3103 2138 3103 
Q 1681 3103 1420 2742 
Q 1159 2381 1159 1747 
Q 1159 1113 1420 752 
Q 1681 391 2138 391 
Q 2594 391 2855 752 
Q 3116 1113 3116 1747 
z
" id="DejaVuSans-70" transform="scale(0.015625)"/>
      </defs>
      <use xlink:href="#DejaVuSans-45"/>
      <use x="63.183594" xlink:href="#DejaVuSans-78"/>
      <use x="122.363281" xlink:href="#DejaVuSans-70"/>
      <use x="185.839844" xlink:href="#DejaVuSans-6f"/>
      <use x="247.021484" xlink:href="#DejaVuSans-6e"/>
      <use x="310.400391" xlink:href="#DejaVuSans-65"/>
      <use x="371.923828" xlink:href="#DejaVuSans-6e"/>
      <use x="435.302734" xlink:href="#DejaVuSans-74"/>
      <use x="474.511719" xlink:href="#DejaVuSans-69"/>
      <use x="502.294922" xlink:href="#DejaVuSans-61"/>
      <use x="563.574219" xlink:href="#DejaVuSans-6c"/>
      <use x="591.357422" xlink:href="#DejaVuSans-20"/>
      <use x="623.144531" xlink:href="#DejaVuSans-66"/>
      <use x="658.349609" xlink:href="#DejaVuSans-69"/>
      <use x="686.132812" xlink:href="#DejaVuSans-74"/>
     </g>
    </g>
    <g id="line2d_26">
     <path d="M 1019.17125 175.194375 
L 1067.17125 175.194375 
" style="fill:none;stroke:#9467bd;stroke-linecap:square;stroke-width:2;"/>
    </g>
    <g id="line2d_27"/>
    <g id="text_19">
     <!-- Laplace fit -->
     <g transform="translate(1086.37125 183.594375)scale(0.24 -0.24)">
      <defs>
       <path d="M 628 4666 
L 1259 4666 
L 1259 531 
L 3531 531 
L 3531 0 
L 628 0 
L 628 4666 
z
" id="DejaVuSans-4c" transform="scale(0.015625)"/>
       <path d="M 3122 3366 
L 3122 2828 
Q 2878 2963 2633 3030 
Q 2388 3097 2138 3097 
Q 1578 3097 1268 2742 
Q 959 2388 959 1747 
Q 959 1106 1268 751 
Q 1578 397 2138 397 
Q 2388 397 2633 464 
Q 2878 531 3122 666 
L 3122 134 
Q 2881 22 2623 -34 
Q 2366 -91 2075 -91 
Q 1284 -91 818 406 
Q 353 903 353 1747 
Q 353 2603 823 3093 
Q 1294 3584 2113 3584 
Q 2378 3584 2631 3529 
Q 2884 3475 3122 3366 
z
" id="DejaVuSans-63" transform="scale(0.015625)"/>
      </defs>
      <use xlink:href="#DejaVuSans-4c"/>
      <use x="55.712891" xlink:href="#DejaVuSans-61"/>
      <use x="116.992188" xlink:href="#DejaVuSans-70"/>
      <use x="180.46875" xlink:href="#DejaVuSans-6c"/>
      <use x="208.251953" xlink:href="#DejaVuSans-61"/>
      <use x="269.53125" xlink:href="#DejaVuSans-63"/>
      <use x="324.511719" xlink:href="#DejaVuSans-65"/>
      <use x="386.035156" xlink:href="#DejaVuSans-20"/>
      <use x="417.822266" xlink:href="#DejaVuSans-66"/>
      <use x="453.027344" xlink:href="#DejaVuSans-69"/>
      <use x="480.810547" xlink:href="#DejaVuSans-74"/>
     </g>
    </g>
    <g id="line2d_28">
     <path d="M 1019.17125 210.421875 
L 1067.17125 210.421875 
" style="fill:none;stroke:#8c564b;stroke-linecap:square;stroke-width:2;"/>
    </g>
    <g id="line2d_29"/>
    <g id="text_20">
     <!-- LogNorm fit -->
     <g transform="translate(1086.37125 218.821875)scale(0.24 -0.24)">
      <defs>
       <path d="M 2906 1791 
Q 2906 2416 2648 2759 
Q 2391 3103 1925 3103 
Q 1463 3103 1205 2759 
Q 947 2416 947 1791 
Q 947 1169 1205 825 
Q 1463 481 1925 481 
Q 2391 481 2648 825 
Q 2906 1169 2906 1791 
z
M 3481 434 
Q 3481 -459 3084 -895 
Q 2688 -1331 1869 -1331 
Q 1566 -1331 1297 -1286 
Q 1028 -1241 775 -1147 
L 775 -588 
Q 1028 -725 1275 -790 
Q 1522 -856 1778 -856 
Q 2344 -856 2625 -561 
Q 2906 -266 2906 331 
L 2906 616 
Q 2728 306 2450 153 
Q 2172 0 1784 0 
Q 1141 0 747 490 
Q 353 981 353 1791 
Q 353 2603 747 3093 
Q 1141 3584 1784 3584 
Q 2172 3584 2450 3431 
Q 2728 3278 2906 2969 
L 2906 3500 
L 3481 3500 
L 3481 434 
z
" id="DejaVuSans-67" transform="scale(0.015625)"/>
      </defs>
      <use xlink:href="#DejaVuSans-4c"/>
      <use x="53.962891" xlink:href="#DejaVuSans-6f"/>
      <use x="115.144531" xlink:href="#DejaVuSans-67"/>
      <use x="178.621094" xlink:href="#DejaVuSans-4e"/>
      <use x="253.425781" xlink:href="#DejaVuSans-6f"/>
      <use x="314.607422" xlink:href="#DejaVuSans-72"/>
      <use x="353.970703" xlink:href="#DejaVuSans-6d"/>
      <use x="451.382812" xlink:href="#DejaVuSans-20"/>
      <use x="483.169922" xlink:href="#DejaVuSans-66"/>
      <use x="518.375" xlink:href="#DejaVuSans-69"/>
      <use x="546.158203" xlink:href="#DejaVuSans-74"/>
     </g>
    </g>
    <g id="line2d_30">
     <path d="M 1019.17125 245.649375 
L 1067.17125 245.649375 
" style="fill:none;stroke:#e377c2;stroke-linecap:square;stroke-width:2;"/>
    </g>
    <g id="line2d_31"/>
    <g id="text_21">
     <!-- Normal fit -->
     <g transform="translate(1086.37125 254.049375)scale(0.24 -0.24)">
      <use xlink:href="#DejaVuSans-4e"/>
      <use x="74.804688" xlink:href="#DejaVuSans-6f"/>
      <use x="135.986328" xlink:href="#DejaVuSans-72"/>
      <use x="175.349609" xlink:href="#DejaVuSans-6d"/>
      <use x="272.761719" xlink:href="#DejaVuSans-61"/>
      <use x="334.041016" xlink:href="#DejaVuSans-6c"/>
      <use x="361.824219" xlink:href="#DejaVuSans-20"/>
      <use x="393.611328" xlink:href="#DejaVuSans-66"/>
      <use x="428.816406" xlink:href="#DejaVuSans-69"/>
      <use x="456.599609" xlink:href="#DejaVuSans-74"/>
     </g>
    </g>
    <g id="patch_108">
     <path d="M 1019.17125 289.276875 
L 1067.17125 289.276875 
L 1067.17125 272.476875 
L 1019.17125 272.476875 
z
" style="fill:#1f77b4;opacity:0.6;"/>
    </g>
    <g id="text_22">
     <!-- Generated Chi Distribution -->
     <g transform="translate(1086.37125 289.276875)scale(0.24 -0.24)">
      <defs>
       <path d="M 3809 666 
L 3809 1919 
L 2778 1919 
L 2778 2438 
L 4434 2438 
L 4434 434 
Q 4069 175 3628 42 
Q 3188 -91 2688 -91 
Q 1594 -91 976 548 
Q 359 1188 359 2328 
Q 359 3472 976 4111 
Q 1594 4750 2688 4750 
Q 3144 4750 3555 4637 
Q 3966 4525 4313 4306 
L 4313 3634 
Q 3963 3931 3569 4081 
Q 3175 4231 2741 4231 
Q 1884 4231 1454 3753 
Q 1025 3275 1025 2328 
Q 1025 1384 1454 906 
Q 1884 428 2741 428 
Q 3075 428 3337 486 
Q 3600 544 3809 666 
z
" id="DejaVuSans-47" transform="scale(0.015625)"/>
      </defs>
      <use xlink:href="#DejaVuSans-47"/>
      <use x="77.490234" xlink:href="#DejaVuSans-65"/>
      <use x="139.013672" xlink:href="#DejaVuSans-6e"/>
      <use x="202.392578" xlink:href="#DejaVuSans-65"/>
      <use x="263.916016" xlink:href="#DejaVuSans-72"/>
      <use x="305.029297" xlink:href="#DejaVuSans-61"/>
      <use x="366.308594" xlink:href="#DejaVuSans-74"/>
      <use x="405.517578" xlink:href="#DejaVuSans-65"/>
      <use x="467.041016" xlink:href="#DejaVuSans-64"/>
      <use x="530.517578" xlink:href="#DejaVuSans-20"/>
      <use x="562.304688" xlink:href="#DejaVuSans-43"/>
      <use x="632.128906" xlink:href="#DejaVuSans-68"/>
      <use x="695.507812" xlink:href="#DejaVuSans-69"/>
      <use x="723.291016" xlink:href="#DejaVuSans-20"/>
      <use x="755.078125" xlink:href="#DejaVuSans-44"/>
      <use x="832.080078" xlink:href="#DejaVuSans-69"/>
      <use x="859.863281" xlink:href="#DejaVuSans-73"/>
      <use x="911.962891" xlink:href="#DejaVuSans-74"/>
      <use x="951.171875" xlink:href="#DejaVuSans-72"/>
      <use x="992.285156" xlink:href="#DejaVuSans-69"/>
      <use x="1020.068359" xlink:href="#DejaVuSans-62"/>
      <use x="1083.544922" xlink:href="#DejaVuSans-75"/>
      <use x="1146.923828" xlink:href="#DejaVuSans-74"/>
      <use x="1186.132812" xlink:href="#DejaVuSans-69"/>
      <use x="1213.916016" xlink:href="#DejaVuSans-6f"/>
      <use x="1275.097656" xlink:href="#DejaVuSans-6e"/>
     </g>
    </g>
   </g>
  </g>
 </g>
 <defs>
  <clipPath id="p4affd4635f">
   <rect height="790.70375" width="1356.514687" x="72.685313" y="38.075625"/>
  </clipPath>
 </defs>
</svg>
