<?xml version="1.0" encoding="utf-8" standalone="no"?>
<!DOCTYPE svg PUBLIC "-//W3C//DTD SVG 1.1//EN"
  "http://www.w3.org/Graphics/SVG/1.1/DTD/svg11.dtd">
<svg height="864pt" version="1.1" viewBox="0 0 1440 864" width="1440pt" xmlns="http://www.w3.org/2000/svg" xmlns:xlink="http://www.w3.org/1999/xlink">
 <metadata>
  <rdf:RDF xmlns:cc="http://creativecommons.org/ns#" xmlns:dc="http://purl.org/dc/elements/1.1/" xmlns:rdf="http://www.w3.org/1999/02/22-rdf-syntax-ns#">
   <cc:Work>
    <dc:type rdf:resource="http://purl.org/dc/dcmitype/StillImage"/>
    <dc:date>2022-06-25T09:32:17.818249</dc:date>
    <dc:format>image/svg+xml</dc:format>
    <dc:creator>
     <cc:Agent>
      <dc:title>Matplotlib v3.4.3, https://matplotlib.org/</dc:title>
     </cc:Agent>
    </dc:creator>
   </cc:Work>
  </rdf:RDF>
 </metadata>
 <defs>
  <style type="text/css">*{stroke-linecap:butt;stroke-linejoin:round;}</style>
 </defs>
 <g id="figure_1">
  <g id="patch_1">
   <path d="M 0 864 
L 1440 864 
L 1440 0 
L 0 0 
z
" style="fill:#ffffff;"/>
  </g>
  <g id="axes_1">
   <g id="patch_2">
    <path d="M 95.590313 828.779375 
L 1429.2 828.779375 
L 1429.2 38.075625 
L 95.590313 38.075625 
z
" style="fill:#ffffff;"/>
   </g>
   <g id="patch_3">
    <path clip-path="url(#pefa594aaf0)" d="M 156.208935 828.779375 
L 168.332659 828.779375 
L 168.332659 698.622379 
L 156.208935 698.622379 
z
" style="fill:#1f77b4;opacity:0.6;"/>
   </g>
   <g id="patch_4">
    <path clip-path="url(#pefa594aaf0)" d="M 168.332659 828.779375 
L 180.456384 828.779375 
L 180.456384 479.394812 
L 168.332659 479.394812 
z
" style="fill:#1f77b4;opacity:0.6;"/>
   </g>
   <g id="patch_5">
    <path clip-path="url(#pefa594aaf0)" d="M 180.456384 828.779375 
L 192.580108 828.779375 
L 192.580108 329.744257 
L 180.456384 329.744257 
z
" style="fill:#1f77b4;opacity:0.6;"/>
   </g>
   <g id="patch_6">
    <path clip-path="url(#pefa594aaf0)" d="M 192.580108 828.779375 
L 204.703832 828.779375 
L 204.703832 207.084784 
L 192.580108 207.084784 
z
" style="fill:#1f77b4;opacity:0.6;"/>
   </g>
   <g id="patch_7">
    <path clip-path="url(#pefa594aaf0)" d="M 204.703832 828.779375 
L 216.827557 828.779375 
L 216.827557 141.706385 
L 204.703832 141.706385 
z
" style="fill:#1f77b4;opacity:0.6;"/>
   </g>
   <g id="patch_8">
    <path clip-path="url(#pefa594aaf0)" d="M 216.827557 828.779375 
L 228.951281 828.779375 
L 228.951281 130.610051 
L 216.827557 130.610051 
z
" style="fill:#1f77b4;opacity:0.6;"/>
   </g>
   <g id="patch_9">
    <path clip-path="url(#pefa594aaf0)" d="M 228.951281 828.779375 
L 241.075006 828.779375 
L 241.075006 102.719267 
L 228.951281 102.719267 
z
" style="fill:#1f77b4;opacity:0.6;"/>
   </g>
   <g id="patch_10">
    <path clip-path="url(#pefa594aaf0)" d="M 241.075006 828.779375 
L 253.19873 828.779375 
L 253.19873 84.425311 
L 241.075006 84.425311 
z
" style="fill:#1f77b4;opacity:0.6;"/>
   </g>
   <g id="patch_11">
    <path clip-path="url(#pefa594aaf0)" d="M 253.19873 828.779375 
L 265.322455 828.779375 
L 265.322455 75.728185 
L 253.19873 75.728185 
z
" style="fill:#1f77b4;opacity:0.6;"/>
   </g>
   <g id="patch_12">
    <path clip-path="url(#pefa594aaf0)" d="M 265.322455 828.779375 
L 277.446179 828.779375 
L 277.446179 85.924816 
L 265.322455 85.924816 
z
" style="fill:#1f77b4;opacity:0.6;"/>
   </g>
   <g id="patch_13">
    <path clip-path="url(#pefa594aaf0)" d="M 277.446179 828.779375 
L 289.569903 828.779375 
L 289.569903 143.505791 
L 277.446179 143.505791 
z
" style="fill:#1f77b4;opacity:0.6;"/>
   </g>
   <g id="patch_14">
    <path clip-path="url(#pefa594aaf0)" d="M 289.569903 828.779375 
L 301.693628 828.779375 
L 301.693628 181.893107 
L 289.569903 181.893107 
z
" style="fill:#1f77b4;opacity:0.6;"/>
   </g>
   <g id="patch_15">
    <path clip-path="url(#pefa594aaf0)" d="M 301.693628 828.779375 
L 313.817352 828.779375 
L 313.817352 227.478046 
L 301.693628 227.478046 
z
" style="fill:#1f77b4;opacity:0.6;"/>
   </g>
   <g id="patch_16">
    <path clip-path="url(#pefa594aaf0)" d="M 313.817352 828.779375 
L 325.941077 828.779375 
L 325.941077 237.674677 
L 313.817352 237.674677 
z
" style="fill:#1f77b4;opacity:0.6;"/>
   </g>
   <g id="patch_17">
    <path clip-path="url(#pefa594aaf0)" d="M 325.941077 828.779375 
L 338.064801 828.779375 
L 338.064801 277.861399 
L 325.941077 277.861399 
z
" style="fill:#1f77b4;opacity:0.6;"/>
   </g>
   <g id="patch_18">
    <path clip-path="url(#pefa594aaf0)" d="M 338.064801 828.779375 
L 350.188526 828.779375 
L 350.188526 315.349013 
L 338.064801 315.349013 
z
" style="fill:#1f77b4;opacity:0.6;"/>
   </g>
   <g id="patch_19">
    <path clip-path="url(#pefa594aaf0)" d="M 350.188526 828.779375 
L 362.31225 828.779375 
L 362.31225 351.936925 
L 350.188526 351.936925 
z
" style="fill:#1f77b4;opacity:0.6;"/>
   </g>
   <g id="patch_20">
    <path clip-path="url(#pefa594aaf0)" d="M 362.31225 828.779375 
L 374.435974 828.779375 
L 374.435974 381.027313 
L 362.31225 381.027313 
z
" style="fill:#1f77b4;opacity:0.6;"/>
   </g>
   <g id="patch_21">
    <path clip-path="url(#pefa594aaf0)" d="M 374.435974 828.779375 
L 386.559699 828.779375 
L 386.559699 425.412648 
L 374.435974 425.412648 
z
" style="fill:#1f77b4;opacity:0.6;"/>
   </g>
   <g id="patch_22">
    <path clip-path="url(#pefa594aaf0)" d="M 386.559699 828.779375 
L 398.683423 828.779375 
L 398.683423 449.704622 
L 386.559699 449.704622 
z
" style="fill:#1f77b4;opacity:0.6;"/>
   </g>
   <g id="patch_23">
    <path clip-path="url(#pefa594aaf0)" d="M 398.683423 828.779375 
L 410.807148 828.779375 
L 410.807148 485.392831 
L 398.683423 485.392831 
z
" style="fill:#1f77b4;opacity:0.6;"/>
   </g>
   <g id="patch_24">
    <path clip-path="url(#pefa594aaf0)" d="M 410.807148 828.779375 
L 422.930872 828.779375 
L 422.930872 480.894317 
L 410.807148 480.894317 
z
" style="fill:#1f77b4;opacity:0.6;"/>
   </g>
   <g id="patch_25">
    <path clip-path="url(#pefa594aaf0)" d="M 422.930872 828.779375 
L 435.054597 828.779375 
L 435.054597 540.574598 
L 422.930872 540.574598 
z
" style="fill:#1f77b4;opacity:0.6;"/>
   </g>
   <g id="patch_26">
    <path clip-path="url(#pefa594aaf0)" d="M 435.054597 828.779375 
L 447.178321 828.779375 
L 447.178321 568.465383 
L 435.054597 568.465383 
z
" style="fill:#1f77b4;opacity:0.6;"/>
   </g>
   <g id="patch_27">
    <path clip-path="url(#pefa594aaf0)" d="M 447.178321 828.779375 
L 459.302045 828.779375 
L 459.302045 586.759339 
L 447.178321 586.759339 
z
" style="fill:#1f77b4;opacity:0.6;"/>
   </g>
   <g id="patch_28">
    <path clip-path="url(#pefa594aaf0)" d="M 459.302045 828.779375 
L 471.42577 828.779375 
L 471.42577 607.152601 
L 459.302045 607.152601 
z
" style="fill:#1f77b4;opacity:0.6;"/>
   </g>
   <g id="patch_29">
    <path clip-path="url(#pefa594aaf0)" d="M 471.42577 828.779375 
L 483.549494 828.779375 
L 483.549494 615.549826 
L 471.42577 615.549826 
z
" style="fill:#1f77b4;opacity:0.6;"/>
   </g>
   <g id="patch_30">
    <path clip-path="url(#pefa594aaf0)" d="M 483.549494 828.779375 
L 495.673219 828.779375 
L 495.673219 643.740512 
L 483.549494 643.740512 
z
" style="fill:#1f77b4;opacity:0.6;"/>
   </g>
   <g id="patch_31">
    <path clip-path="url(#pefa594aaf0)" d="M 495.673219 828.779375 
L 507.796943 828.779375 
L 507.796943 664.133774 
L 495.673219 664.133774 
z
" style="fill:#1f77b4;opacity:0.6;"/>
   </g>
   <g id="patch_32">
    <path clip-path="url(#pefa594aaf0)" d="M 507.796943 828.779375 
L 519.920668 828.779375 
L 519.920668 677.629315 
L 507.796943 677.629315 
z
" style="fill:#1f77b4;opacity:0.6;"/>
   </g>
   <g id="patch_33">
    <path clip-path="url(#pefa594aaf0)" d="M 519.920668 828.779375 
L 532.044392 828.779375 
L 532.044392 693.823965 
L 519.920668 693.823965 
z
" style="fill:#1f77b4;opacity:0.6;"/>
   </g>
   <g id="patch_34">
    <path clip-path="url(#pefa594aaf0)" d="M 532.044392 828.779375 
L 544.168116 828.779375 
L 544.168116 695.62337 
L 532.044392 695.62337 
z
" style="fill:#1f77b4;opacity:0.6;"/>
   </g>
   <g id="patch_35">
    <path clip-path="url(#pefa594aaf0)" d="M 544.168116 828.779375 
L 556.291841 828.779375 
L 556.291841 718.115938 
L 544.168116 718.115938 
z
" style="fill:#1f77b4;opacity:0.6;"/>
   </g>
   <g id="patch_36">
    <path clip-path="url(#pefa594aaf0)" d="M 556.291841 828.779375 
L 568.415565 828.779375 
L 568.415565 725.013659 
L 556.291841 725.013659 
z
" style="fill:#1f77b4;opacity:0.6;"/>
   </g>
   <g id="patch_37">
    <path clip-path="url(#pefa594aaf0)" d="M 568.415565 828.779375 
L 580.53929 828.779375 
L 580.53929 731.311579 
L 568.415565 731.311579 
z
" style="fill:#1f77b4;opacity:0.6;"/>
   </g>
   <g id="patch_38">
    <path clip-path="url(#pefa594aaf0)" d="M 580.53929 828.779375 
L 592.663014 828.779375 
L 592.663014 746.006723 
L 580.53929 746.006723 
z
" style="fill:#1f77b4;opacity:0.6;"/>
   </g>
   <g id="patch_39">
    <path clip-path="url(#pefa594aaf0)" d="M 592.663014 828.779375 
L 604.786739 828.779375 
L 604.786739 753.804147 
L 592.663014 753.804147 
z
" style="fill:#1f77b4;opacity:0.6;"/>
   </g>
   <g id="patch_40">
    <path clip-path="url(#pefa594aaf0)" d="M 604.786739 828.779375 
L 616.910463 828.779375 
L 616.910463 765.800183 
L 604.786739 765.800183 
z
" style="fill:#1f77b4;opacity:0.6;"/>
   </g>
   <g id="patch_41">
    <path clip-path="url(#pefa594aaf0)" d="M 616.910463 828.779375 
L 629.034188 828.779375 
L 629.034188 770.898499 
L 616.910463 770.898499 
z
" style="fill:#1f77b4;opacity:0.6;"/>
   </g>
   <g id="patch_42">
    <path clip-path="url(#pefa594aaf0)" d="M 629.034187 828.779375 
L 641.157912 828.779375 
L 641.157912 773.597607 
L 629.034187 773.597607 
z
" style="fill:#1f77b4;opacity:0.6;"/>
   </g>
   <g id="patch_43">
    <path clip-path="url(#pefa594aaf0)" d="M 641.157912 828.779375 
L 653.281636 828.779375 
L 653.281636 784.993842 
L 641.157912 784.993842 
z
" style="fill:#1f77b4;opacity:0.6;"/>
   </g>
   <g id="patch_44">
    <path clip-path="url(#pefa594aaf0)" d="M 653.281636 828.779375 
L 665.405361 828.779375 
L 665.405361 788.892554 
L 653.281636 788.892554 
z
" style="fill:#1f77b4;opacity:0.6;"/>
   </g>
   <g id="patch_45">
    <path clip-path="url(#pefa594aaf0)" d="M 665.405361 828.779375 
L 677.529085 828.779375 
L 677.529085 788.292752 
L 665.405361 788.292752 
z
" style="fill:#1f77b4;opacity:0.6;"/>
   </g>
   <g id="patch_46">
    <path clip-path="url(#pefa594aaf0)" d="M 677.529085 828.779375 
L 689.65281 828.779375 
L 689.65281 795.490374 
L 677.529085 795.490374 
z
" style="fill:#1f77b4;opacity:0.6;"/>
   </g>
   <g id="patch_47">
    <path clip-path="url(#pefa594aaf0)" d="M 689.65281 828.779375 
L 701.776534 828.779375 
L 701.776534 801.488392 
L 689.65281 801.488392 
z
" style="fill:#1f77b4;opacity:0.6;"/>
   </g>
   <g id="patch_48">
    <path clip-path="url(#pefa594aaf0)" d="M 701.776534 828.779375 
L 713.900259 828.779375 
L 713.900259 805.387104 
L 701.776534 805.387104 
z
" style="fill:#1f77b4;opacity:0.6;"/>
   </g>
   <g id="patch_49">
    <path clip-path="url(#pefa594aaf0)" d="M 713.900259 828.779375 
L 726.023983 828.779375 
L 726.023983 805.387104 
L 713.900259 805.387104 
z
" style="fill:#1f77b4;opacity:0.6;"/>
   </g>
   <g id="patch_50">
    <path clip-path="url(#pefa594aaf0)" d="M 726.023983 828.779375 
L 738.147707 828.779375 
L 738.147707 809.585717 
L 726.023983 809.585717 
z
" style="fill:#1f77b4;opacity:0.6;"/>
   </g>
   <g id="patch_51">
    <path clip-path="url(#pefa594aaf0)" d="M 738.147707 828.779375 
L 750.271432 828.779375 
L 750.271432 810.485419 
L 738.147707 810.485419 
z
" style="fill:#1f77b4;opacity:0.6;"/>
   </g>
   <g id="patch_52">
    <path clip-path="url(#pefa594aaf0)" d="M 750.271432 828.779375 
L 762.395156 828.779375 
L 762.395156 814.384131 
L 750.271432 814.384131 
z
" style="fill:#1f77b4;opacity:0.6;"/>
   </g>
   <g id="patch_53">
    <path clip-path="url(#pefa594aaf0)" d="M 762.395156 828.779375 
L 774.518881 828.779375 
L 774.518881 813.184528 
L 762.395156 813.184528 
z
" style="fill:#1f77b4;opacity:0.6;"/>
   </g>
   <g id="patch_54">
    <path clip-path="url(#pefa594aaf0)" d="M 774.518881 828.779375 
L 786.642605 828.779375 
L 786.642605 813.784329 
L 774.518881 813.784329 
z
" style="fill:#1f77b4;opacity:0.6;"/>
   </g>
   <g id="patch_55">
    <path clip-path="url(#pefa594aaf0)" d="M 786.642605 828.779375 
L 798.76633 828.779375 
L 798.76633 817.38314 
L 786.642605 817.38314 
z
" style="fill:#1f77b4;opacity:0.6;"/>
   </g>
   <g id="patch_56">
    <path clip-path="url(#pefa594aaf0)" d="M 798.76633 828.779375 
L 810.890054 828.779375 
L 810.890054 818.882645 
L 798.76633 818.882645 
z
" style="fill:#1f77b4;opacity:0.6;"/>
   </g>
   <g id="patch_57">
    <path clip-path="url(#pefa594aaf0)" d="M 810.890054 828.779375 
L 823.013778 828.779375 
L 823.013778 822.481456 
L 810.890054 822.481456 
z
" style="fill:#1f77b4;opacity:0.6;"/>
   </g>
   <g id="patch_58">
    <path clip-path="url(#pefa594aaf0)" d="M 823.013778 828.779375 
L 835.137503 828.779375 
L 835.137503 821.281852 
L 823.013778 821.281852 
z
" style="fill:#1f77b4;opacity:0.6;"/>
   </g>
   <g id="patch_59">
    <path clip-path="url(#pefa594aaf0)" d="M 835.137503 828.779375 
L 847.261227 828.779375 
L 847.261227 821.581753 
L 835.137503 821.581753 
z
" style="fill:#1f77b4;opacity:0.6;"/>
   </g>
   <g id="patch_60">
    <path clip-path="url(#pefa594aaf0)" d="M 847.261227 828.779375 
L 859.384952 828.779375 
L 859.384952 819.782348 
L 847.261227 819.782348 
z
" style="fill:#1f77b4;opacity:0.6;"/>
   </g>
   <g id="patch_61">
    <path clip-path="url(#pefa594aaf0)" d="M 859.384952 828.779375 
L 871.508676 828.779375 
L 871.508676 824.280861 
L 859.384952 824.280861 
z
" style="fill:#1f77b4;opacity:0.6;"/>
   </g>
   <g id="patch_62">
    <path clip-path="url(#pefa594aaf0)" d="M 871.508676 828.779375 
L 883.632401 828.779375 
L 883.632401 823.381159 
L 871.508676 823.381159 
z
" style="fill:#1f77b4;opacity:0.6;"/>
   </g>
   <g id="patch_63">
    <path clip-path="url(#pefa594aaf0)" d="M 883.632401 828.779375 
L 895.756125 828.779375 
L 895.756125 823.081258 
L 883.632401 823.081258 
z
" style="fill:#1f77b4;opacity:0.6;"/>
   </g>
   <g id="patch_64">
    <path clip-path="url(#pefa594aaf0)" d="M 895.756125 828.779375 
L 907.879849 828.779375 
L 907.879849 822.781357 
L 895.756125 822.781357 
z
" style="fill:#1f77b4;opacity:0.6;"/>
   </g>
   <g id="patch_65">
    <path clip-path="url(#pefa594aaf0)" d="M 907.879849 828.779375 
L 920.003574 828.779375 
L 920.003574 824.580762 
L 907.879849 824.580762 
z
" style="fill:#1f77b4;opacity:0.6;"/>
   </g>
   <g id="patch_66">
    <path clip-path="url(#pefa594aaf0)" d="M 920.003574 828.779375 
L 932.127298 828.779375 
L 932.127298 825.480465 
L 920.003574 825.480465 
z
" style="fill:#1f77b4;opacity:0.6;"/>
   </g>
   <g id="patch_67">
    <path clip-path="url(#pefa594aaf0)" d="M 932.127298 828.779375 
L 944.251023 828.779375 
L 944.251023 826.680069 
L 932.127298 826.680069 
z
" style="fill:#1f77b4;opacity:0.6;"/>
   </g>
   <g id="patch_68">
    <path clip-path="url(#pefa594aaf0)" d="M 944.251023 828.779375 
L 956.374747 828.779375 
L 956.374747 826.680069 
L 944.251023 826.680069 
z
" style="fill:#1f77b4;opacity:0.6;"/>
   </g>
   <g id="patch_69">
    <path clip-path="url(#pefa594aaf0)" d="M 956.374747 828.779375 
L 968.498472 828.779375 
L 968.498472 828.179573 
L 956.374747 828.179573 
z
" style="fill:#1f77b4;opacity:0.6;"/>
   </g>
   <g id="patch_70">
    <path clip-path="url(#pefa594aaf0)" d="M 968.498472 828.779375 
L 980.622196 828.779375 
L 980.622196 827.27987 
L 968.498472 827.27987 
z
" style="fill:#1f77b4;opacity:0.6;"/>
   </g>
   <g id="patch_71">
    <path clip-path="url(#pefa594aaf0)" d="M 980.622196 828.779375 
L 992.74592 828.779375 
L 992.74592 827.579771 
L 980.622196 827.579771 
z
" style="fill:#1f77b4;opacity:0.6;"/>
   </g>
   <g id="patch_72">
    <path clip-path="url(#pefa594aaf0)" d="M 992.74592 828.779375 
L 1004.869645 828.779375 
L 1004.869645 827.879672 
L 992.74592 827.879672 
z
" style="fill:#1f77b4;opacity:0.6;"/>
   </g>
   <g id="patch_73">
    <path clip-path="url(#pefa594aaf0)" d="M 1004.869645 828.779375 
L 1016.993369 828.779375 
L 1016.993369 826.97997 
L 1004.869645 826.97997 
z
" style="fill:#1f77b4;opacity:0.6;"/>
   </g>
   <g id="patch_74">
    <path clip-path="url(#pefa594aaf0)" d="M 1016.993369 828.779375 
L 1029.117094 828.779375 
L 1029.117094 827.579771 
L 1016.993369 827.579771 
z
" style="fill:#1f77b4;opacity:0.6;"/>
   </g>
   <g id="patch_75">
    <path clip-path="url(#pefa594aaf0)" d="M 1029.117094 828.779375 
L 1041.240818 828.779375 
L 1041.240818 827.579771 
L 1029.117094 827.579771 
z
" style="fill:#1f77b4;opacity:0.6;"/>
   </g>
   <g id="patch_76">
    <path clip-path="url(#pefa594aaf0)" d="M 1041.240818 828.779375 
L 1053.364543 828.779375 
L 1053.364543 827.27987 
L 1041.240818 827.27987 
z
" style="fill:#1f77b4;opacity:0.6;"/>
   </g>
   <g id="patch_77">
    <path clip-path="url(#pefa594aaf0)" d="M 1053.364543 828.779375 
L 1065.488267 828.779375 
L 1065.488267 828.179573 
L 1053.364543 828.179573 
z
" style="fill:#1f77b4;opacity:0.6;"/>
   </g>
   <g id="patch_78">
    <path clip-path="url(#pefa594aaf0)" d="M 1065.488267 828.779375 
L 1077.611991 828.779375 
L 1077.611991 827.27987 
L 1065.488267 827.27987 
z
" style="fill:#1f77b4;opacity:0.6;"/>
   </g>
   <g id="patch_79">
    <path clip-path="url(#pefa594aaf0)" d="M 1077.611991 828.779375 
L 1089.735716 828.779375 
L 1089.735716 827.879672 
L 1077.611991 827.879672 
z
" style="fill:#1f77b4;opacity:0.6;"/>
   </g>
   <g id="patch_80">
    <path clip-path="url(#pefa594aaf0)" d="M 1089.735716 828.779375 
L 1101.85944 828.779375 
L 1101.85944 828.479474 
L 1089.735716 828.479474 
z
" style="fill:#1f77b4;opacity:0.6;"/>
   </g>
   <g id="patch_81">
    <path clip-path="url(#pefa594aaf0)" d="M 1101.85944 828.779375 
L 1113.983165 828.779375 
L 1113.983165 827.579771 
L 1101.85944 827.579771 
z
" style="fill:#1f77b4;opacity:0.6;"/>
   </g>
   <g id="patch_82">
    <path clip-path="url(#pefa594aaf0)" d="M 1113.983165 828.779375 
L 1126.106889 828.779375 
L 1126.106889 828.779375 
L 1113.983165 828.779375 
z
" style="fill:#1f77b4;opacity:0.6;"/>
   </g>
   <g id="patch_83">
    <path clip-path="url(#pefa594aaf0)" d="M 1126.106889 828.779375 
L 1138.230614 828.779375 
L 1138.230614 828.179573 
L 1126.106889 828.179573 
z
" style="fill:#1f77b4;opacity:0.6;"/>
   </g>
   <g id="patch_84">
    <path clip-path="url(#pefa594aaf0)" d="M 1138.230614 828.779375 
L 1150.354338 828.779375 
L 1150.354338 828.179573 
L 1138.230614 828.179573 
z
" style="fill:#1f77b4;opacity:0.6;"/>
   </g>
   <g id="patch_85">
    <path clip-path="url(#pefa594aaf0)" d="M 1150.354338 828.779375 
L 1162.478062 828.779375 
L 1162.478062 828.779375 
L 1150.354338 828.779375 
z
" style="fill:#1f77b4;opacity:0.6;"/>
   </g>
   <g id="patch_86">
    <path clip-path="url(#pefa594aaf0)" d="M 1162.478062 828.779375 
L 1174.601787 828.779375 
L 1174.601787 828.779375 
L 1162.478062 828.779375 
z
" style="fill:#1f77b4;opacity:0.6;"/>
   </g>
   <g id="patch_87">
    <path clip-path="url(#pefa594aaf0)" d="M 1174.601787 828.779375 
L 1186.725511 828.779375 
L 1186.725511 828.479474 
L 1174.601787 828.479474 
z
" style="fill:#1f77b4;opacity:0.6;"/>
   </g>
   <g id="patch_88">
    <path clip-path="url(#pefa594aaf0)" d="M 1186.725511 828.779375 
L 1198.849236 828.779375 
L 1198.849236 828.479474 
L 1186.725511 828.479474 
z
" style="fill:#1f77b4;opacity:0.6;"/>
   </g>
   <g id="patch_89">
    <path clip-path="url(#pefa594aaf0)" d="M 1198.849236 828.779375 
L 1210.97296 828.779375 
L 1210.97296 828.479474 
L 1198.849236 828.479474 
z
" style="fill:#1f77b4;opacity:0.6;"/>
   </g>
   <g id="patch_90">
    <path clip-path="url(#pefa594aaf0)" d="M 1210.97296 828.779375 
L 1223.096685 828.779375 
L 1223.096685 828.479474 
L 1210.97296 828.479474 
z
" style="fill:#1f77b4;opacity:0.6;"/>
   </g>
   <g id="patch_91">
    <path clip-path="url(#pefa594aaf0)" d="M 1223.096685 828.779375 
L 1235.220409 828.779375 
L 1235.220409 828.779375 
L 1223.096685 828.779375 
z
" style="fill:#1f77b4;opacity:0.6;"/>
   </g>
   <g id="patch_92">
    <path clip-path="url(#pefa594aaf0)" d="M 1235.220409 828.779375 
L 1247.344134 828.779375 
L 1247.344134 828.779375 
L 1235.220409 828.779375 
z
" style="fill:#1f77b4;opacity:0.6;"/>
   </g>
   <g id="patch_93">
    <path clip-path="url(#pefa594aaf0)" d="M 1247.344134 828.779375 
L 1259.467858 828.779375 
L 1259.467858 828.779375 
L 1247.344134 828.779375 
z
" style="fill:#1f77b4;opacity:0.6;"/>
   </g>
   <g id="patch_94">
    <path clip-path="url(#pefa594aaf0)" d="M 1259.467858 828.779375 
L 1271.591582 828.779375 
L 1271.591582 828.779375 
L 1259.467858 828.779375 
z
" style="fill:#1f77b4;opacity:0.6;"/>
   </g>
   <g id="patch_95">
    <path clip-path="url(#pefa594aaf0)" d="M 1271.591582 828.779375 
L 1283.715307 828.779375 
L 1283.715307 828.779375 
L 1271.591582 828.779375 
z
" style="fill:#1f77b4;opacity:0.6;"/>
   </g>
   <g id="patch_96">
    <path clip-path="url(#pefa594aaf0)" d="M 1283.715307 828.779375 
L 1295.839031 828.779375 
L 1295.839031 828.779375 
L 1283.715307 828.779375 
z
" style="fill:#1f77b4;opacity:0.6;"/>
   </g>
   <g id="patch_97">
    <path clip-path="url(#pefa594aaf0)" d="M 1295.839031 828.779375 
L 1307.962756 828.779375 
L 1307.962756 828.479474 
L 1295.839031 828.479474 
z
" style="fill:#1f77b4;opacity:0.6;"/>
   </g>
   <g id="patch_98">
    <path clip-path="url(#pefa594aaf0)" d="M 1307.962756 828.779375 
L 1320.08648 828.779375 
L 1320.08648 828.779375 
L 1307.962756 828.779375 
z
" style="fill:#1f77b4;opacity:0.6;"/>
   </g>
   <g id="patch_99">
    <path clip-path="url(#pefa594aaf0)" d="M 1320.08648 828.779375 
L 1332.210205 828.779375 
L 1332.210205 828.779375 
L 1320.08648 828.779375 
z
" style="fill:#1f77b4;opacity:0.6;"/>
   </g>
   <g id="patch_100">
    <path clip-path="url(#pefa594aaf0)" d="M 1332.210205 828.779375 
L 1344.333929 828.779375 
L 1344.333929 828.779375 
L 1332.210205 828.779375 
z
" style="fill:#1f77b4;opacity:0.6;"/>
   </g>
   <g id="patch_101">
    <path clip-path="url(#pefa594aaf0)" d="M 1344.333929 828.779375 
L 1356.457653 828.779375 
L 1356.457653 828.779375 
L 1344.333929 828.779375 
z
" style="fill:#1f77b4;opacity:0.6;"/>
   </g>
   <g id="patch_102">
    <path clip-path="url(#pefa594aaf0)" d="M 1356.457653 828.779375 
L 1368.581378 828.779375 
L 1368.581378 828.479474 
L 1356.457653 828.479474 
z
" style="fill:#1f77b4;opacity:0.6;"/>
   </g>
   <g id="matplotlib.axis_1">
    <g id="xtick_1">
     <g id="line2d_1">
      <defs>
       <path d="M 0 0 
L 0 3.5 
" id="me9ae433939" style="stroke:#000000;stroke-width:0.8;"/>
      </defs>
      <g>
       <use style="stroke:#000000;stroke-width:0.8;" x="155.574177" xlink:href="#me9ae433939" y="828.779375"/>
      </g>
     </g>
     <g id="text_1">
      <!-- 0 -->
      <g transform="translate(149.847927 849.456562)scale(0.18 -0.18)">
       <defs>
        <path d="M 2034 4250 
Q 1547 4250 1301 3770 
Q 1056 3291 1056 2328 
Q 1056 1369 1301 889 
Q 1547 409 2034 409 
Q 2525 409 2770 889 
Q 3016 1369 3016 2328 
Q 3016 3291 2770 3770 
Q 2525 4250 2034 4250 
z
M 2034 4750 
Q 2819 4750 3233 4129 
Q 3647 3509 3647 2328 
Q 3647 1150 3233 529 
Q 2819 -91 2034 -91 
Q 1250 -91 836 529 
Q 422 1150 422 2328 
Q 422 3509 836 4129 
Q 1250 4750 2034 4750 
z
" id="DejaVuSans-30" transform="scale(0.015625)"/>
       </defs>
       <use xlink:href="#DejaVuSans-30"/>
      </g>
     </g>
    </g>
    <g id="xtick_2">
     <g id="line2d_2">
      <g>
       <use style="stroke:#000000;stroke-width:0.8;" x="381.032341" xlink:href="#me9ae433939" y="828.779375"/>
      </g>
     </g>
     <g id="text_2">
      <!-- 5 -->
      <g transform="translate(375.306091 849.456562)scale(0.18 -0.18)">
       <defs>
        <path d="M 691 4666 
L 3169 4666 
L 3169 4134 
L 1269 4134 
L 1269 2991 
Q 1406 3038 1543 3061 
Q 1681 3084 1819 3084 
Q 2600 3084 3056 2656 
Q 3513 2228 3513 1497 
Q 3513 744 3044 326 
Q 2575 -91 1722 -91 
Q 1428 -91 1123 -41 
Q 819 9 494 109 
L 494 744 
Q 775 591 1075 516 
Q 1375 441 1709 441 
Q 2250 441 2565 725 
Q 2881 1009 2881 1497 
Q 2881 1984 2565 2268 
Q 2250 2553 1709 2553 
Q 1456 2553 1204 2497 
Q 953 2441 691 2322 
L 691 4666 
z
" id="DejaVuSans-35" transform="scale(0.015625)"/>
       </defs>
       <use xlink:href="#DejaVuSans-35"/>
      </g>
     </g>
    </g>
    <g id="xtick_3">
     <g id="line2d_3">
      <g>
       <use style="stroke:#000000;stroke-width:0.8;" x="606.490505" xlink:href="#me9ae433939" y="828.779375"/>
      </g>
     </g>
     <g id="text_3">
      <!-- 10 -->
      <g transform="translate(595.038005 849.456562)scale(0.18 -0.18)">
       <defs>
        <path d="M 794 531 
L 1825 531 
L 1825 4091 
L 703 3866 
L 703 4441 
L 1819 4666 
L 2450 4666 
L 2450 531 
L 3481 531 
L 3481 0 
L 794 0 
L 794 531 
z
" id="DejaVuSans-31" transform="scale(0.015625)"/>
       </defs>
       <use xlink:href="#DejaVuSans-31"/>
       <use x="63.623047" xlink:href="#DejaVuSans-30"/>
      </g>
     </g>
    </g>
    <g id="xtick_4">
     <g id="line2d_4">
      <g>
       <use style="stroke:#000000;stroke-width:0.8;" x="831.948669" xlink:href="#me9ae433939" y="828.779375"/>
      </g>
     </g>
     <g id="text_4">
      <!-- 15 -->
      <g transform="translate(820.496169 849.456562)scale(0.18 -0.18)">
       <use xlink:href="#DejaVuSans-31"/>
       <use x="63.623047" xlink:href="#DejaVuSans-35"/>
      </g>
     </g>
    </g>
    <g id="xtick_5">
     <g id="line2d_5">
      <g>
       <use style="stroke:#000000;stroke-width:0.8;" x="1057.406833" xlink:href="#me9ae433939" y="828.779375"/>
      </g>
     </g>
     <g id="text_5">
      <!-- 20 -->
      <g transform="translate(1045.954333 849.456562)scale(0.18 -0.18)">
       <defs>
        <path d="M 1228 531 
L 3431 531 
L 3431 0 
L 469 0 
L 469 531 
Q 828 903 1448 1529 
Q 2069 2156 2228 2338 
Q 2531 2678 2651 2914 
Q 2772 3150 2772 3378 
Q 2772 3750 2511 3984 
Q 2250 4219 1831 4219 
Q 1534 4219 1204 4116 
Q 875 4013 500 3803 
L 500 4441 
Q 881 4594 1212 4672 
Q 1544 4750 1819 4750 
Q 2544 4750 2975 4387 
Q 3406 4025 3406 3419 
Q 3406 3131 3298 2873 
Q 3191 2616 2906 2266 
Q 2828 2175 2409 1742 
Q 1991 1309 1228 531 
z
" id="DejaVuSans-32" transform="scale(0.015625)"/>
       </defs>
       <use xlink:href="#DejaVuSans-32"/>
       <use x="63.623047" xlink:href="#DejaVuSans-30"/>
      </g>
     </g>
    </g>
    <g id="xtick_6">
     <g id="line2d_6">
      <g>
       <use style="stroke:#000000;stroke-width:0.8;" x="1282.864997" xlink:href="#me9ae433939" y="828.779375"/>
      </g>
     </g>
     <g id="text_6">
      <!-- 25 -->
      <g transform="translate(1271.412497 849.456562)scale(0.18 -0.18)">
       <use xlink:href="#DejaVuSans-32"/>
       <use x="63.623047" xlink:href="#DejaVuSans-35"/>
      </g>
     </g>
    </g>
   </g>
   <g id="matplotlib.axis_2">
    <g id="ytick_1">
     <g id="line2d_7">
      <defs>
       <path d="M 0 0 
L -3.5 0 
" id="m91fbedfa14" style="stroke:#000000;stroke-width:0.8;"/>
      </defs>
      <g>
       <use style="stroke:#000000;stroke-width:0.8;" x="95.590313" xlink:href="#m91fbedfa14" y="828.779375"/>
      </g>
     </g>
     <g id="text_7">
      <!-- 0.000 -->
      <g transform="translate(37.059688 835.617969)scale(0.18 -0.18)">
       <defs>
        <path d="M 684 794 
L 1344 794 
L 1344 0 
L 684 0 
L 684 794 
z
" id="DejaVuSans-2e" transform="scale(0.015625)"/>
       </defs>
       <use xlink:href="#DejaVuSans-30"/>
       <use x="63.623047" xlink:href="#DejaVuSans-2e"/>
       <use x="95.410156" xlink:href="#DejaVuSans-30"/>
       <use x="159.033203" xlink:href="#DejaVuSans-30"/>
       <use x="222.65625" xlink:href="#DejaVuSans-30"/>
      </g>
     </g>
    </g>
    <g id="ytick_2">
     <g id="line2d_8">
      <g>
       <use style="stroke:#000000;stroke-width:0.8;" x="95.590313" xlink:href="#m91fbedfa14" y="727.98695"/>
      </g>
     </g>
     <g id="text_8">
      <!-- 0.025 -->
      <g transform="translate(37.059688 734.825544)scale(0.18 -0.18)">
       <use xlink:href="#DejaVuSans-30"/>
       <use x="63.623047" xlink:href="#DejaVuSans-2e"/>
       <use x="95.410156" xlink:href="#DejaVuSans-30"/>
       <use x="159.033203" xlink:href="#DejaVuSans-32"/>
       <use x="222.65625" xlink:href="#DejaVuSans-35"/>
      </g>
     </g>
    </g>
    <g id="ytick_3">
     <g id="line2d_9">
      <g>
       <use style="stroke:#000000;stroke-width:0.8;" x="95.590313" xlink:href="#m91fbedfa14" y="627.194525"/>
      </g>
     </g>
     <g id="text_9">
      <!-- 0.050 -->
      <g transform="translate(37.059688 634.033119)scale(0.18 -0.18)">
       <use xlink:href="#DejaVuSans-30"/>
       <use x="63.623047" xlink:href="#DejaVuSans-2e"/>
       <use x="95.410156" xlink:href="#DejaVuSans-30"/>
       <use x="159.033203" xlink:href="#DejaVuSans-35"/>
       <use x="222.65625" xlink:href="#DejaVuSans-30"/>
      </g>
     </g>
    </g>
    <g id="ytick_4">
     <g id="line2d_10">
      <g>
       <use style="stroke:#000000;stroke-width:0.8;" x="95.590313" xlink:href="#m91fbedfa14" y="526.4021"/>
      </g>
     </g>
     <g id="text_10">
      <!-- 0.075 -->
      <g transform="translate(37.059688 533.240694)scale(0.18 -0.18)">
       <defs>
        <path d="M 525 4666 
L 3525 4666 
L 3525 4397 
L 1831 0 
L 1172 0 
L 2766 4134 
L 525 4134 
L 525 4666 
z
" id="DejaVuSans-37" transform="scale(0.015625)"/>
       </defs>
       <use xlink:href="#DejaVuSans-30"/>
       <use x="63.623047" xlink:href="#DejaVuSans-2e"/>
       <use x="95.410156" xlink:href="#DejaVuSans-30"/>
       <use x="159.033203" xlink:href="#DejaVuSans-37"/>
       <use x="222.65625" xlink:href="#DejaVuSans-35"/>
      </g>
     </g>
    </g>
    <g id="ytick_5">
     <g id="line2d_11">
      <g>
       <use style="stroke:#000000;stroke-width:0.8;" x="95.590313" xlink:href="#m91fbedfa14" y="425.609675"/>
      </g>
     </g>
     <g id="text_11">
      <!-- 0.100 -->
      <g transform="translate(37.059688 432.448269)scale(0.18 -0.18)">
       <use xlink:href="#DejaVuSans-30"/>
       <use x="63.623047" xlink:href="#DejaVuSans-2e"/>
       <use x="95.410156" xlink:href="#DejaVuSans-31"/>
       <use x="159.033203" xlink:href="#DejaVuSans-30"/>
       <use x="222.65625" xlink:href="#DejaVuSans-30"/>
      </g>
     </g>
    </g>
    <g id="ytick_6">
     <g id="line2d_12">
      <g>
       <use style="stroke:#000000;stroke-width:0.8;" x="95.590313" xlink:href="#m91fbedfa14" y="324.81725"/>
      </g>
     </g>
     <g id="text_12">
      <!-- 0.125 -->
      <g transform="translate(37.059688 331.655844)scale(0.18 -0.18)">
       <use xlink:href="#DejaVuSans-30"/>
       <use x="63.623047" xlink:href="#DejaVuSans-2e"/>
       <use x="95.410156" xlink:href="#DejaVuSans-31"/>
       <use x="159.033203" xlink:href="#DejaVuSans-32"/>
       <use x="222.65625" xlink:href="#DejaVuSans-35"/>
      </g>
     </g>
    </g>
    <g id="ytick_7">
     <g id="line2d_13">
      <g>
       <use style="stroke:#000000;stroke-width:0.8;" x="95.590313" xlink:href="#m91fbedfa14" y="224.024825"/>
      </g>
     </g>
     <g id="text_13">
      <!-- 0.150 -->
      <g transform="translate(37.059688 230.863419)scale(0.18 -0.18)">
       <use xlink:href="#DejaVuSans-30"/>
       <use x="63.623047" xlink:href="#DejaVuSans-2e"/>
       <use x="95.410156" xlink:href="#DejaVuSans-31"/>
       <use x="159.033203" xlink:href="#DejaVuSans-35"/>
       <use x="222.65625" xlink:href="#DejaVuSans-30"/>
      </g>
     </g>
    </g>
    <g id="ytick_8">
     <g id="line2d_14">
      <g>
       <use style="stroke:#000000;stroke-width:0.8;" x="95.590313" xlink:href="#m91fbedfa14" y="123.2324"/>
      </g>
     </g>
     <g id="text_14">
      <!-- 0.175 -->
      <g transform="translate(37.059688 130.070994)scale(0.18 -0.18)">
       <use xlink:href="#DejaVuSans-30"/>
       <use x="63.623047" xlink:href="#DejaVuSans-2e"/>
       <use x="95.410156" xlink:href="#DejaVuSans-31"/>
       <use x="159.033203" xlink:href="#DejaVuSans-37"/>
       <use x="222.65625" xlink:href="#DejaVuSans-35"/>
      </g>
     </g>
    </g>
    <g id="text_15">
     <!-- Normed Hist Counts -->
     <g transform="translate(28.276406 548.966563)rotate(-90)scale(0.23 -0.23)">
      <defs>
       <path d="M 628 4666 
L 1478 4666 
L 3547 763 
L 3547 4666 
L 4159 4666 
L 4159 0 
L 3309 0 
L 1241 3903 
L 1241 0 
L 628 0 
L 628 4666 
z
" id="DejaVuSans-4e" transform="scale(0.015625)"/>
       <path d="M 1959 3097 
Q 1497 3097 1228 2736 
Q 959 2375 959 1747 
Q 959 1119 1226 758 
Q 1494 397 1959 397 
Q 2419 397 2687 759 
Q 2956 1122 2956 1747 
Q 2956 2369 2687 2733 
Q 2419 3097 1959 3097 
z
M 1959 3584 
Q 2709 3584 3137 3096 
Q 3566 2609 3566 1747 
Q 3566 888 3137 398 
Q 2709 -91 1959 -91 
Q 1206 -91 779 398 
Q 353 888 353 1747 
Q 353 2609 779 3096 
Q 1206 3584 1959 3584 
z
" id="DejaVuSans-6f" transform="scale(0.015625)"/>
       <path d="M 2631 2963 
Q 2534 3019 2420 3045 
Q 2306 3072 2169 3072 
Q 1681 3072 1420 2755 
Q 1159 2438 1159 1844 
L 1159 0 
L 581 0 
L 581 3500 
L 1159 3500 
L 1159 2956 
Q 1341 3275 1631 3429 
Q 1922 3584 2338 3584 
Q 2397 3584 2469 3576 
Q 2541 3569 2628 3553 
L 2631 2963 
z
" id="DejaVuSans-72" transform="scale(0.015625)"/>
       <path d="M 3328 2828 
Q 3544 3216 3844 3400 
Q 4144 3584 4550 3584 
Q 5097 3584 5394 3201 
Q 5691 2819 5691 2113 
L 5691 0 
L 5113 0 
L 5113 2094 
Q 5113 2597 4934 2840 
Q 4756 3084 4391 3084 
Q 3944 3084 3684 2787 
Q 3425 2491 3425 1978 
L 3425 0 
L 2847 0 
L 2847 2094 
Q 2847 2600 2669 2842 
Q 2491 3084 2119 3084 
Q 1678 3084 1418 2786 
Q 1159 2488 1159 1978 
L 1159 0 
L 581 0 
L 581 3500 
L 1159 3500 
L 1159 2956 
Q 1356 3278 1631 3431 
Q 1906 3584 2284 3584 
Q 2666 3584 2933 3390 
Q 3200 3197 3328 2828 
z
" id="DejaVuSans-6d" transform="scale(0.015625)"/>
       <path d="M 3597 1894 
L 3597 1613 
L 953 1613 
Q 991 1019 1311 708 
Q 1631 397 2203 397 
Q 2534 397 2845 478 
Q 3156 559 3463 722 
L 3463 178 
Q 3153 47 2828 -22 
Q 2503 -91 2169 -91 
Q 1331 -91 842 396 
Q 353 884 353 1716 
Q 353 2575 817 3079 
Q 1281 3584 2069 3584 
Q 2775 3584 3186 3129 
Q 3597 2675 3597 1894 
z
M 3022 2063 
Q 3016 2534 2758 2815 
Q 2500 3097 2075 3097 
Q 1594 3097 1305 2825 
Q 1016 2553 972 2059 
L 3022 2063 
z
" id="DejaVuSans-65" transform="scale(0.015625)"/>
       <path d="M 2906 2969 
L 2906 4863 
L 3481 4863 
L 3481 0 
L 2906 0 
L 2906 525 
Q 2725 213 2448 61 
Q 2172 -91 1784 -91 
Q 1150 -91 751 415 
Q 353 922 353 1747 
Q 353 2572 751 3078 
Q 1150 3584 1784 3584 
Q 2172 3584 2448 3432 
Q 2725 3281 2906 2969 
z
M 947 1747 
Q 947 1113 1208 752 
Q 1469 391 1925 391 
Q 2381 391 2643 752 
Q 2906 1113 2906 1747 
Q 2906 2381 2643 2742 
Q 2381 3103 1925 3103 
Q 1469 3103 1208 2742 
Q 947 2381 947 1747 
z
" id="DejaVuSans-64" transform="scale(0.015625)"/>
       <path id="DejaVuSans-20" transform="scale(0.015625)"/>
       <path d="M 628 4666 
L 1259 4666 
L 1259 2753 
L 3553 2753 
L 3553 4666 
L 4184 4666 
L 4184 0 
L 3553 0 
L 3553 2222 
L 1259 2222 
L 1259 0 
L 628 0 
L 628 4666 
z
" id="DejaVuSans-48" transform="scale(0.015625)"/>
       <path d="M 603 3500 
L 1178 3500 
L 1178 0 
L 603 0 
L 603 3500 
z
M 603 4863 
L 1178 4863 
L 1178 4134 
L 603 4134 
L 603 4863 
z
" id="DejaVuSans-69" transform="scale(0.015625)"/>
       <path d="M 2834 3397 
L 2834 2853 
Q 2591 2978 2328 3040 
Q 2066 3103 1784 3103 
Q 1356 3103 1142 2972 
Q 928 2841 928 2578 
Q 928 2378 1081 2264 
Q 1234 2150 1697 2047 
L 1894 2003 
Q 2506 1872 2764 1633 
Q 3022 1394 3022 966 
Q 3022 478 2636 193 
Q 2250 -91 1575 -91 
Q 1294 -91 989 -36 
Q 684 19 347 128 
L 347 722 
Q 666 556 975 473 
Q 1284 391 1588 391 
Q 1994 391 2212 530 
Q 2431 669 2431 922 
Q 2431 1156 2273 1281 
Q 2116 1406 1581 1522 
L 1381 1569 
Q 847 1681 609 1914 
Q 372 2147 372 2553 
Q 372 3047 722 3315 
Q 1072 3584 1716 3584 
Q 2034 3584 2315 3537 
Q 2597 3491 2834 3397 
z
" id="DejaVuSans-73" transform="scale(0.015625)"/>
       <path d="M 1172 4494 
L 1172 3500 
L 2356 3500 
L 2356 3053 
L 1172 3053 
L 1172 1153 
Q 1172 725 1289 603 
Q 1406 481 1766 481 
L 2356 481 
L 2356 0 
L 1766 0 
Q 1100 0 847 248 
Q 594 497 594 1153 
L 594 3053 
L 172 3053 
L 172 3500 
L 594 3500 
L 594 4494 
L 1172 4494 
z
" id="DejaVuSans-74" transform="scale(0.015625)"/>
       <path d="M 4122 4306 
L 4122 3641 
Q 3803 3938 3442 4084 
Q 3081 4231 2675 4231 
Q 1875 4231 1450 3742 
Q 1025 3253 1025 2328 
Q 1025 1406 1450 917 
Q 1875 428 2675 428 
Q 3081 428 3442 575 
Q 3803 722 4122 1019 
L 4122 359 
Q 3791 134 3420 21 
Q 3050 -91 2638 -91 
Q 1578 -91 968 557 
Q 359 1206 359 2328 
Q 359 3453 968 4101 
Q 1578 4750 2638 4750 
Q 3056 4750 3426 4639 
Q 3797 4528 4122 4306 
z
" id="DejaVuSans-43" transform="scale(0.015625)"/>
       <path d="M 544 1381 
L 544 3500 
L 1119 3500 
L 1119 1403 
Q 1119 906 1312 657 
Q 1506 409 1894 409 
Q 2359 409 2629 706 
Q 2900 1003 2900 1516 
L 2900 3500 
L 3475 3500 
L 3475 0 
L 2900 0 
L 2900 538 
Q 2691 219 2414 64 
Q 2138 -91 1772 -91 
Q 1169 -91 856 284 
Q 544 659 544 1381 
z
M 1991 3584 
L 1991 3584 
z
" id="DejaVuSans-75" transform="scale(0.015625)"/>
       <path d="M 3513 2113 
L 3513 0 
L 2938 0 
L 2938 2094 
Q 2938 2591 2744 2837 
Q 2550 3084 2163 3084 
Q 1697 3084 1428 2787 
Q 1159 2491 1159 1978 
L 1159 0 
L 581 0 
L 581 3500 
L 1159 3500 
L 1159 2956 
Q 1366 3272 1645 3428 
Q 1925 3584 2291 3584 
Q 2894 3584 3203 3211 
Q 3513 2838 3513 2113 
z
" id="DejaVuSans-6e" transform="scale(0.015625)"/>
      </defs>
      <use xlink:href="#DejaVuSans-4e"/>
      <use x="74.804688" xlink:href="#DejaVuSans-6f"/>
      <use x="135.986328" xlink:href="#DejaVuSans-72"/>
      <use x="175.349609" xlink:href="#DejaVuSans-6d"/>
      <use x="272.761719" xlink:href="#DejaVuSans-65"/>
      <use x="334.285156" xlink:href="#DejaVuSans-64"/>
      <use x="397.761719" xlink:href="#DejaVuSans-20"/>
      <use x="429.548828" xlink:href="#DejaVuSans-48"/>
      <use x="504.744141" xlink:href="#DejaVuSans-69"/>
      <use x="532.527344" xlink:href="#DejaVuSans-73"/>
      <use x="584.626953" xlink:href="#DejaVuSans-74"/>
      <use x="623.835938" xlink:href="#DejaVuSans-20"/>
      <use x="655.623047" xlink:href="#DejaVuSans-43"/>
      <use x="725.447266" xlink:href="#DejaVuSans-6f"/>
      <use x="786.628906" xlink:href="#DejaVuSans-75"/>
      <use x="850.007812" xlink:href="#DejaVuSans-6e"/>
      <use x="913.386719" xlink:href="#DejaVuSans-74"/>
      <use x="952.595703" xlink:href="#DejaVuSans-73"/>
     </g>
    </g>
   </g>
   <g id="line2d_15">
    <path clip-path="url(#pefa594aaf0)" d="M 159.239866 139.687453 
L 161.961386 -1 
M 272.954133 -1 
L 274.415248 17.925735 
L 280.47711 94.476399 
L 286.538972 168.207688 
L 292.600835 238.430035 
L 298.662697 304.610752 
L 304.724559 366.365797 
L 310.786421 423.448597 
L 316.848283 475.73659 
L 322.910146 523.216198 
L 328.972008 565.966927 
L 335.03387 604.145203 
L 341.095732 637.968532 
L 347.157594 667.700428 
L 353.219457 693.636505 
L 359.281319 716.091988 
L 365.343181 735.390813 
L 371.405043 751.856423 
L 377.466906 765.804241 
L 383.528768 777.535777 
L 389.59063 787.334251 
L 395.652492 795.461594 
L 401.714354 802.156646 
L 407.776217 807.634377 
L 413.838079 812.085941 
L 419.899941 815.679391 
L 425.961803 818.560887 
L 432.023665 820.856244 
L 438.085528 822.672701 
L 444.14739 824.100803 
L 450.209252 825.216295 
L 456.271114 826.081982 
L 462.332977 826.749488 
L 468.394839 827.260889 
L 480.518563 827.944673 
L 492.642288 828.331328 
L 510.827874 828.610845 
L 541.137185 828.750034 
L 632.065119 828.779311 
L 1365.550447 828.779375 
L 1365.550447 828.779375 
" style="fill:none;stroke:#ff7f0e;stroke-linecap:square;stroke-width:2;"/>
   </g>
   <g id="line2d_16">
    <path clip-path="url(#pefa594aaf0)" d="M 159.239866 750.574253 
L 165.301728 630.552815 
L 171.36359 527.537246 
L 177.425452 439.32118 
L 183.487315 364.218093 
L 189.549177 300.789898 
L 195.611039 247.770515 
L 201.672901 204.030582 
L 207.734763 168.556305 
L 213.796626 140.434628 
L 219.858488 118.841783 
L 225.92035 103.033925 
L 231.982212 92.339163 
L 238.044075 86.150641 
L 244.105937 83.920417 
L 250.167799 85.154019 
L 256.229661 89.405532 
L 262.291523 96.273187 
L 268.353386 105.395346 
L 274.415248 116.446866 
L 280.47711 129.135791 
L 286.538972 143.200336 
L 292.600835 158.406137 
L 298.662697 174.543746 
L 304.724559 191.426344 
L 310.786421 208.887645 
L 322.910146 244.972632 
L 353.219457 336.856159 
L 365.343181 372.616381 
L 377.466906 407.173412 
L 383.528768 423.914262 
L 389.59063 440.26204 
L 395.652492 456.1969 
L 401.714354 471.703262 
L 407.776217 486.769335 
L 413.838079 501.386692 
L 419.899941 515.549876 
L 425.961803 529.256052 
L 432.023665 542.504685 
L 438.085528 555.297251 
L 444.14739 567.636979 
L 450.209252 579.528612 
L 456.271114 590.978201 
L 462.332977 601.992909 
L 468.394839 612.580841 
L 474.456701 622.750894 
L 480.518563 632.512615 
L 486.580425 641.87608 
L 492.642288 650.851786 
L 498.70415 659.450549 
L 504.766012 667.683423 
L 510.827874 675.561619 
L 516.889737 683.096441 
L 522.951599 690.299221 
L 529.013461 697.181274 
L 535.075323 703.753848 
L 541.137185 710.028083 
L 547.199048 716.014984 
L 553.26091 721.725383 
L 559.322772 727.169923 
L 565.384634 732.35903 
L 571.446496 737.302899 
L 577.508359 742.011481 
L 583.570221 746.494469 
L 589.632083 750.761292 
L 595.693945 754.821106 
L 601.755808 758.682791 
L 607.81767 762.354947 
L 613.879532 765.845894 
L 619.941394 769.163671 
L 626.003256 772.31604 
L 632.065119 775.310484 
L 638.126981 778.154212 
L 644.188843 780.854164 
L 650.250705 783.417015 
L 656.312567 785.84918 
L 668.436292 790.345843 
L 680.560016 794.39049 
L 692.683741 798.025687 
L 704.807465 801.290445 
L 716.93119 804.220439 
L 729.054914 806.848233 
L 741.178638 809.203494 
L 753.302363 811.313207 
L 765.426087 813.201883 
L 777.549812 814.891749 
L 789.673536 816.402939 
L 801.797261 817.753668 
L 819.982847 819.514458 
L 838.168434 820.999809 
L 856.354021 822.251605 
L 874.539607 823.305617 
L 898.787056 824.455343 
L 923.034505 825.367165 
L 953.343816 826.245002 
L 983.653127 826.899685 
L 1020.0243 827.468413 
L 1068.519198 827.97073 
L 1129.13782 828.339044 
L 1207.942029 828.580698 
L 1335.241136 828.725066 
L 1365.550447 828.739566 
L 1365.550447 828.739566 
" style="fill:none;stroke:#2ca02c;stroke-linecap:square;stroke-width:2;"/>
   </g>
   <g id="line2d_17">
    <path clip-path="url(#pefa594aaf0)" d="M 159.239866 610.202555 
L 165.301728 595.493595 
L 171.36359 580.362734 
L 177.425452 564.853873 
L 189.549177 532.904928 
L 201.672901 500.104446 
L 225.92035 434.155046 
L 231.982212 418.047119 
L 238.044075 402.256805 
L 244.105937 386.869732 
L 250.167799 371.971909 
L 256.229661 357.648939 
L 262.291523 343.985211 
L 268.353386 331.063081 
L 274.415248 318.962053 
L 280.47711 307.757965 
L 286.538972 297.522203 
L 292.600835 288.320944 
L 298.662697 280.214445 
L 304.724559 273.256386 
L 310.786421 267.493276 
L 316.848283 262.96394 
L 322.910146 259.699079 
L 328.972008 257.720928 
L 335.03387 257.042999 
L 341.095732 257.669929 
L 347.157594 259.59743 
L 353.219457 262.812334 
L 359.281319 267.292744 
L 365.343181 273.008284 
L 371.405043 279.920439 
L 377.466906 287.98299 
L 383.528768 297.142529 
L 389.59063 307.339042 
L 395.652492 318.506572 
L 401.714354 330.573923 
L 407.776217 343.465415 
L 413.838079 357.101674 
L 419.899941 371.400438 
L 425.961803 386.277384 
L 432.023665 401.64694 
L 438.085528 417.423099 
L 450.209252 449.853693 
L 480.518563 532.270115 
L 492.642288 564.240365 
L 498.70415 579.763041 
L 504.766012 594.909544 
L 510.827874 609.635761 
L 516.889737 623.903089 
L 522.951599 637.678437 
L 529.013461 650.934154 
L 535.075323 663.64791 
L 541.137185 675.802523 
L 547.199048 687.38574 
L 553.26091 698.389985 
L 559.322772 708.81207 
L 565.384634 718.652883 
L 571.446496 727.917054 
L 577.508359 736.612605 
L 583.570221 744.7506 
L 589.632083 752.344784 
L 595.693945 759.411224 
L 601.755808 765.967965 
L 607.81767 772.034687 
L 613.879532 777.632377 
L 619.941394 782.783029 
L 626.003256 787.509347 
L 632.065119 791.834478 
L 638.126981 795.781771 
L 644.188843 799.37455 
L 650.250705 802.635916 
L 656.312567 805.588573 
L 662.37443 808.25468 
L 668.436292 810.655714 
L 674.498154 812.812372 
L 680.560016 814.744482 
L 686.621879 816.470933 
L 692.683741 818.009633 
L 698.745603 819.377471 
L 704.807465 820.590306 
L 710.869327 821.662956 
L 716.93119 822.60921 
L 729.054914 824.172653 
L 741.178638 825.371213 
L 753.302363 826.280862 
L 765.426087 826.964378 
L 783.611674 827.674714 
L 801.797261 828.120722 
L 826.04471 828.459233 
L 862.415883 828.678073 
L 929.096367 828.76945 
L 1292.8081 828.779375 
L 1365.550447 828.779375 
L 1365.550447 828.779375 
" style="fill:none;stroke:#d62728;stroke-linecap:square;stroke-width:2;"/>
   </g>
   <g id="patch_103">
    <path d="M 95.590313 828.779375 
L 95.590313 38.075625 
" style="fill:none;stroke:#000000;stroke-linecap:square;stroke-linejoin:miter;stroke-width:0.8;"/>
   </g>
   <g id="patch_104">
    <path d="M 1429.2 828.779375 
L 1429.2 38.075625 
" style="fill:none;stroke:#000000;stroke-linecap:square;stroke-linejoin:miter;stroke-width:0.8;"/>
   </g>
   <g id="patch_105">
    <path d="M 95.590313 828.779375 
L 1429.2 828.779375 
" style="fill:none;stroke:#000000;stroke-linecap:square;stroke-linejoin:miter;stroke-width:0.8;"/>
   </g>
   <g id="patch_106">
    <path d="M 95.590313 38.075625 
L 1429.2 38.075625 
" style="fill:none;stroke:#000000;stroke-linecap:square;stroke-linejoin:miter;stroke-width:0.8;"/>
   </g>
   <g id="text_16">
    <!-- All Fitted Distributions -->
    <g transform="translate(607.769531 32.075625)scale(0.28 -0.28)">
     <defs>
      <path d="M 2188 4044 
L 1331 1722 
L 3047 1722 
L 2188 4044 
z
M 1831 4666 
L 2547 4666 
L 4325 0 
L 3669 0 
L 3244 1197 
L 1141 1197 
L 716 0 
L 50 0 
L 1831 4666 
z
" id="DejaVuSans-41" transform="scale(0.015625)"/>
      <path d="M 603 4863 
L 1178 4863 
L 1178 0 
L 603 0 
L 603 4863 
z
" id="DejaVuSans-6c" transform="scale(0.015625)"/>
      <path d="M 628 4666 
L 3309 4666 
L 3309 4134 
L 1259 4134 
L 1259 2759 
L 3109 2759 
L 3109 2228 
L 1259 2228 
L 1259 0 
L 628 0 
L 628 4666 
z
" id="DejaVuSans-46" transform="scale(0.015625)"/>
      <path d="M 1259 4147 
L 1259 519 
L 2022 519 
Q 2988 519 3436 956 
Q 3884 1394 3884 2338 
Q 3884 3275 3436 3711 
Q 2988 4147 2022 4147 
L 1259 4147 
z
M 628 4666 
L 1925 4666 
Q 3281 4666 3915 4102 
Q 4550 3538 4550 2338 
Q 4550 1131 3912 565 
Q 3275 0 1925 0 
L 628 0 
L 628 4666 
z
" id="DejaVuSans-44" transform="scale(0.015625)"/>
      <path d="M 3116 1747 
Q 3116 2381 2855 2742 
Q 2594 3103 2138 3103 
Q 1681 3103 1420 2742 
Q 1159 2381 1159 1747 
Q 1159 1113 1420 752 
Q 1681 391 2138 391 
Q 2594 391 2855 752 
Q 3116 1113 3116 1747 
z
M 1159 2969 
Q 1341 3281 1617 3432 
Q 1894 3584 2278 3584 
Q 2916 3584 3314 3078 
Q 3713 2572 3713 1747 
Q 3713 922 3314 415 
Q 2916 -91 2278 -91 
Q 1894 -91 1617 61 
Q 1341 213 1159 525 
L 1159 0 
L 581 0 
L 581 4863 
L 1159 4863 
L 1159 2969 
z
" id="DejaVuSans-62" transform="scale(0.015625)"/>
     </defs>
     <use xlink:href="#DejaVuSans-41"/>
     <use x="68.408203" xlink:href="#DejaVuSans-6c"/>
     <use x="96.191406" xlink:href="#DejaVuSans-6c"/>
     <use x="123.974609" xlink:href="#DejaVuSans-20"/>
     <use x="155.761719" xlink:href="#DejaVuSans-46"/>
     <use x="206.03125" xlink:href="#DejaVuSans-69"/>
     <use x="233.814453" xlink:href="#DejaVuSans-74"/>
     <use x="273.023438" xlink:href="#DejaVuSans-74"/>
     <use x="312.232422" xlink:href="#DejaVuSans-65"/>
     <use x="373.755859" xlink:href="#DejaVuSans-64"/>
     <use x="437.232422" xlink:href="#DejaVuSans-20"/>
     <use x="469.019531" xlink:href="#DejaVuSans-44"/>
     <use x="546.021484" xlink:href="#DejaVuSans-69"/>
     <use x="573.804688" xlink:href="#DejaVuSans-73"/>
     <use x="625.904297" xlink:href="#DejaVuSans-74"/>
     <use x="665.113281" xlink:href="#DejaVuSans-72"/>
     <use x="706.226562" xlink:href="#DejaVuSans-69"/>
     <use x="734.009766" xlink:href="#DejaVuSans-62"/>
     <use x="797.486328" xlink:href="#DejaVuSans-75"/>
     <use x="860.865234" xlink:href="#DejaVuSans-74"/>
     <use x="900.074219" xlink:href="#DejaVuSans-69"/>
     <use x="927.857422" xlink:href="#DejaVuSans-6f"/>
     <use x="989.039062" xlink:href="#DejaVuSans-6e"/>
     <use x="1052.417969" xlink:href="#DejaVuSans-73"/>
    </g>
   </g>
   <g id="legend_1">
    <g id="patch_107">
     <path d="M 1060.635 198.185625 
L 1412.4 198.185625 
Q 1417.2 198.185625 1417.2 193.385625 
L 1417.2 54.875625 
Q 1417.2 50.075625 1412.4 50.075625 
L 1060.635 50.075625 
Q 1055.835 50.075625 1055.835 54.875625 
L 1055.835 193.385625 
Q 1055.835 198.185625 1060.635 198.185625 
z
" style="fill:#ffffff;opacity:0.8;stroke:#cccccc;stroke-linejoin:miter;"/>
    </g>
    <g id="line2d_18">
     <path d="M 1065.435 69.511875 
L 1113.435 69.511875 
" style="fill:none;stroke:#ff7f0e;stroke-linecap:square;stroke-width:2;"/>
    </g>
    <g id="line2d_19"/>
    <g id="text_17">
     <!-- Chi fit -->
     <g transform="translate(1132.635 77.911875)scale(0.24 -0.24)">
      <defs>
       <path d="M 3513 2113 
L 3513 0 
L 2938 0 
L 2938 2094 
Q 2938 2591 2744 2837 
Q 2550 3084 2163 3084 
Q 1697 3084 1428 2787 
Q 1159 2491 1159 1978 
L 1159 0 
L 581 0 
L 581 4863 
L 1159 4863 
L 1159 2956 
Q 1366 3272 1645 3428 
Q 1925 3584 2291 3584 
Q 2894 3584 3203 3211 
Q 3513 2838 3513 2113 
z
" id="DejaVuSans-68" transform="scale(0.015625)"/>
       <path d="M 2375 4863 
L 2375 4384 
L 1825 4384 
Q 1516 4384 1395 4259 
Q 1275 4134 1275 3809 
L 1275 3500 
L 2222 3500 
L 2222 3053 
L 1275 3053 
L 1275 0 
L 697 0 
L 697 3053 
L 147 3053 
L 147 3500 
L 697 3500 
L 697 3744 
Q 697 4328 969 4595 
Q 1241 4863 1831 4863 
L 2375 4863 
z
" id="DejaVuSans-66" transform="scale(0.015625)"/>
      </defs>
      <use xlink:href="#DejaVuSans-43"/>
      <use x="69.824219" xlink:href="#DejaVuSans-68"/>
      <use x="133.203125" xlink:href="#DejaVuSans-69"/>
      <use x="160.986328" xlink:href="#DejaVuSans-20"/>
      <use x="192.773438" xlink:href="#DejaVuSans-66"/>
      <use x="227.978516" xlink:href="#DejaVuSans-69"/>
      <use x="255.761719" xlink:href="#DejaVuSans-74"/>
     </g>
    </g>
    <g id="line2d_20">
     <path d="M 1065.435 104.739375 
L 1113.435 104.739375 
" style="fill:none;stroke:#2ca02c;stroke-linecap:square;stroke-width:2;"/>
    </g>
    <g id="line2d_21"/>
    <g id="text_18">
     <!-- ChiSquared fit -->
     <g transform="translate(1132.635 113.139375)scale(0.24 -0.24)">
      <defs>
       <path d="M 3425 4513 
L 3425 3897 
Q 3066 4069 2747 4153 
Q 2428 4238 2131 4238 
Q 1616 4238 1336 4038 
Q 1056 3838 1056 3469 
Q 1056 3159 1242 3001 
Q 1428 2844 1947 2747 
L 2328 2669 
Q 3034 2534 3370 2195 
Q 3706 1856 3706 1288 
Q 3706 609 3251 259 
Q 2797 -91 1919 -91 
Q 1588 -91 1214 -16 
Q 841 59 441 206 
L 441 856 
Q 825 641 1194 531 
Q 1563 422 1919 422 
Q 2459 422 2753 634 
Q 3047 847 3047 1241 
Q 3047 1584 2836 1778 
Q 2625 1972 2144 2069 
L 1759 2144 
Q 1053 2284 737 2584 
Q 422 2884 422 3419 
Q 422 4038 858 4394 
Q 1294 4750 2059 4750 
Q 2388 4750 2728 4690 
Q 3069 4631 3425 4513 
z
" id="DejaVuSans-53" transform="scale(0.015625)"/>
       <path d="M 947 1747 
Q 947 1113 1208 752 
Q 1469 391 1925 391 
Q 2381 391 2643 752 
Q 2906 1113 2906 1747 
Q 2906 2381 2643 2742 
Q 2381 3103 1925 3103 
Q 1469 3103 1208 2742 
Q 947 2381 947 1747 
z
M 2906 525 
Q 2725 213 2448 61 
Q 2172 -91 1784 -91 
Q 1150 -91 751 415 
Q 353 922 353 1747 
Q 353 2572 751 3078 
Q 1150 3584 1784 3584 
Q 2172 3584 2448 3432 
Q 2725 3281 2906 2969 
L 2906 3500 
L 3481 3500 
L 3481 -1331 
L 2906 -1331 
L 2906 525 
z
" id="DejaVuSans-71" transform="scale(0.015625)"/>
       <path d="M 2194 1759 
Q 1497 1759 1228 1600 
Q 959 1441 959 1056 
Q 959 750 1161 570 
Q 1363 391 1709 391 
Q 2188 391 2477 730 
Q 2766 1069 2766 1631 
L 2766 1759 
L 2194 1759 
z
M 3341 1997 
L 3341 0 
L 2766 0 
L 2766 531 
Q 2569 213 2275 61 
Q 1981 -91 1556 -91 
Q 1019 -91 701 211 
Q 384 513 384 1019 
Q 384 1609 779 1909 
Q 1175 2209 1959 2209 
L 2766 2209 
L 2766 2266 
Q 2766 2663 2505 2880 
Q 2244 3097 1772 3097 
Q 1472 3097 1187 3025 
Q 903 2953 641 2809 
L 641 3341 
Q 956 3463 1253 3523 
Q 1550 3584 1831 3584 
Q 2591 3584 2966 3190 
Q 3341 2797 3341 1997 
z
" id="DejaVuSans-61" transform="scale(0.015625)"/>
      </defs>
      <use xlink:href="#DejaVuSans-43"/>
      <use x="69.824219" xlink:href="#DejaVuSans-68"/>
      <use x="133.203125" xlink:href="#DejaVuSans-69"/>
      <use x="160.986328" xlink:href="#DejaVuSans-53"/>
      <use x="224.462891" xlink:href="#DejaVuSans-71"/>
      <use x="287.939453" xlink:href="#DejaVuSans-75"/>
      <use x="351.318359" xlink:href="#DejaVuSans-61"/>
      <use x="412.597656" xlink:href="#DejaVuSans-72"/>
      <use x="451.460938" xlink:href="#DejaVuSans-65"/>
      <use x="512.984375" xlink:href="#DejaVuSans-64"/>
      <use x="576.460938" xlink:href="#DejaVuSans-20"/>
      <use x="608.248047" xlink:href="#DejaVuSans-66"/>
      <use x="643.453125" xlink:href="#DejaVuSans-69"/>
      <use x="671.236328" xlink:href="#DejaVuSans-74"/>
     </g>
    </g>
    <g id="line2d_22">
     <path d="M 1065.435 139.966875 
L 1113.435 139.966875 
" style="fill:none;stroke:#d62728;stroke-linecap:square;stroke-width:2;"/>
    </g>
    <g id="line2d_23"/>
    <g id="text_19">
     <!-- Normal fit -->
     <g transform="translate(1132.635 148.366875)scale(0.24 -0.24)">
      <use xlink:href="#DejaVuSans-4e"/>
      <use x="74.804688" xlink:href="#DejaVuSans-6f"/>
      <use x="135.986328" xlink:href="#DejaVuSans-72"/>
      <use x="175.349609" xlink:href="#DejaVuSans-6d"/>
      <use x="272.761719" xlink:href="#DejaVuSans-61"/>
      <use x="334.041016" xlink:href="#DejaVuSans-6c"/>
      <use x="361.824219" xlink:href="#DejaVuSans-20"/>
      <use x="393.611328" xlink:href="#DejaVuSans-66"/>
      <use x="428.816406" xlink:href="#DejaVuSans-69"/>
      <use x="456.599609" xlink:href="#DejaVuSans-74"/>
     </g>
    </g>
    <g id="patch_108">
     <path d="M 1065.435 183.594375 
L 1113.435 183.594375 
L 1113.435 166.794375 
L 1065.435 166.794375 
z
" style="fill:#1f77b4;opacity:0.6;"/>
    </g>
    <g id="text_20">
     <!-- Generated Distribution -->
     <g transform="translate(1132.635 183.594375)scale(0.24 -0.24)">
      <defs>
       <path d="M 3809 666 
L 3809 1919 
L 2778 1919 
L 2778 2438 
L 4434 2438 
L 4434 434 
Q 4069 175 3628 42 
Q 3188 -91 2688 -91 
Q 1594 -91 976 548 
Q 359 1188 359 2328 
Q 359 3472 976 4111 
Q 1594 4750 2688 4750 
Q 3144 4750 3555 4637 
Q 3966 4525 4313 4306 
L 4313 3634 
Q 3963 3931 3569 4081 
Q 3175 4231 2741 4231 
Q 1884 4231 1454 3753 
Q 1025 3275 1025 2328 
Q 1025 1384 1454 906 
Q 1884 428 2741 428 
Q 3075 428 3337 486 
Q 3600 544 3809 666 
z
" id="DejaVuSans-47" transform="scale(0.015625)"/>
      </defs>
      <use xlink:href="#DejaVuSans-47"/>
      <use x="77.490234" xlink:href="#DejaVuSans-65"/>
      <use x="139.013672" xlink:href="#DejaVuSans-6e"/>
      <use x="202.392578" xlink:href="#DejaVuSans-65"/>
      <use x="263.916016" xlink:href="#DejaVuSans-72"/>
      <use x="305.029297" xlink:href="#DejaVuSans-61"/>
      <use x="366.308594" xlink:href="#DejaVuSans-74"/>
      <use x="405.517578" xlink:href="#DejaVuSans-65"/>
      <use x="467.041016" xlink:href="#DejaVuSans-64"/>
      <use x="530.517578" xlink:href="#DejaVuSans-20"/>
      <use x="562.304688" xlink:href="#DejaVuSans-44"/>
      <use x="639.306641" xlink:href="#DejaVuSans-69"/>
      <use x="667.089844" xlink:href="#DejaVuSans-73"/>
      <use x="719.189453" xlink:href="#DejaVuSans-74"/>
      <use x="758.398438" xlink:href="#DejaVuSans-72"/>
      <use x="799.511719" xlink:href="#DejaVuSans-69"/>
      <use x="827.294922" xlink:href="#DejaVuSans-62"/>
      <use x="890.771484" xlink:href="#DejaVuSans-75"/>
      <use x="954.150391" xlink:href="#DejaVuSans-74"/>
      <use x="993.359375" xlink:href="#DejaVuSans-69"/>
      <use x="1021.142578" xlink:href="#DejaVuSans-6f"/>
      <use x="1082.324219" xlink:href="#DejaVuSans-6e"/>
     </g>
    </g>
   </g>
  </g>
 </g>
 <defs>
  <clipPath id="pefa594aaf0">
   <rect height="790.70375" width="1333.609688" x="95.590313" y="38.075625"/>
  </clipPath>
 </defs>
</svg>
