<?xml version="1.0" encoding="utf-8" standalone="no"?>
<!DOCTYPE svg PUBLIC "-//W3C//DTD SVG 1.1//EN"
  "http://www.w3.org/Graphics/SVG/1.1/DTD/svg11.dtd">
<svg xmlns:xlink="http://www.w3.org/1999/xlink" width="1296pt" height="792pt" viewBox="0 0 1296 792" xmlns="http://www.w3.org/2000/svg" version="1.1">
 <metadata>
  <rdf:RDF xmlns:dc="http://purl.org/dc/elements/1.1/" xmlns:cc="http://creativecommons.org/ns#" xmlns:rdf="http://www.w3.org/1999/02/22-rdf-syntax-ns#">
   <cc:Work>
    <dc:type rdf:resource="http://purl.org/dc/dcmitype/StillImage"/>
    <dc:date>2022-02-22T09:42:56.301083</dc:date>
    <dc:format>image/svg+xml</dc:format>
    <dc:creator>
     <cc:Agent>
      <dc:title>Matplotlib v3.5.1, https://matplotlib.org/</dc:title>
     </cc:Agent>
    </dc:creator>
   </cc:Work>
  </rdf:RDF>
 </metadata>
 <defs>
  <style type="text/css">*{stroke-linejoin: round; stroke-linecap: butt}</style>
 </defs>
 <g id="figure_1">
  <g id="patch_1">
   <path d="M 0 792 
L 1296 792 
L 1296 0 
L 0 0 
z
" style="fill: #ffffff"/>
  </g>
  <g id="axes_1">
   <g id="patch_2">
    <path d="M 54.686 246.159167 
L 1144.402 246.159167 
L 1144.402 26.88 
L 54.686 26.88 
z
" style="fill: #ffffff"/>
   </g>
   <g id="patch_3">
    <path d="M 60.115828 136.519583 
L 63.380895 136.519583 
L 63.380895 135.851993 
L 60.115828 135.851993 
z
" clip-path="url(#pf69a9eefc0)" style="fill: #ff0000; opacity: 0.5; stroke: #ff0000; stroke-width: 1.5; stroke-linejoin: miter"/>
   </g>
   <g id="patch_4">
    <path d="M 66.421488 136.519583 
L 98.051821 136.519583 
L 98.051821 61.981659 
L 66.421488 61.981659 
z
" clip-path="url(#pf69a9eefc0)" style="fill: #ff0000; opacity: 0.5; stroke: #ff0000; stroke-width: 1.5; stroke-linejoin: miter"/>
   </g>
   <g id="patch_5">
    <path d="M 605.499137 136.519583 
L 608.764204 136.519583 
L 608.764204 137.338229 
L 605.499137 137.338229 
z
" clip-path="url(#pf69a9eefc0)" style="fill: #ff0000; opacity: 0.5; stroke: #ff0000; stroke-width: 1.5; stroke-linejoin: miter"/>
   </g>
   <g id="patch_6">
    <path d="M 611.804797 136.519583 
L 643.435131 136.519583 
L 643.435131 211.800805 
L 611.804797 211.800805 
z
" clip-path="url(#pf69a9eefc0)" style="fill: #ff0000; opacity: 0.5; stroke: #ff0000; stroke-width: 1.5; stroke-linejoin: miter"/>
   </g>
   <g id="matplotlib.axis_1">
    <g id="xtick_1">
     <g id="line2d_1">
      <defs>
       <path id="mf49925156f" d="M 0 0 
L 0 3.5 
" style="stroke: #000000; stroke-width: 0.8"/>
      </defs>
      <g>
       <use xlink:href="#mf49925156f" x="212.837667" y="246.159167" style="stroke: #000000; stroke-width: 0.8"/>
      </g>
     </g>
     <g id="text_1">
      <!-- 14100 -->
      <g transform="translate(196.931417 260.757604)scale(0.1 -0.1)">
       <defs>
        <path id="DejaVuSans-31" d="M 794 531 
L 1825 531 
L 1825 4091 
L 703 3866 
L 703 4441 
L 1819 4666 
L 2450 4666 
L 2450 531 
L 3481 531 
L 3481 0 
L 794 0 
L 794 531 
z
" transform="scale(0.015625)"/>
        <path id="DejaVuSans-34" d="M 2419 4116 
L 825 1625 
L 2419 1625 
L 2419 4116 
z
M 2253 4666 
L 3047 4666 
L 3047 1625 
L 3713 1625 
L 3713 1100 
L 3047 1100 
L 3047 0 
L 2419 0 
L 2419 1100 
L 313 1100 
L 313 1709 
L 2253 4666 
z
" transform="scale(0.015625)"/>
        <path id="DejaVuSans-30" d="M 2034 4250 
Q 1547 4250 1301 3770 
Q 1056 3291 1056 2328 
Q 1056 1369 1301 889 
Q 1547 409 2034 409 
Q 2525 409 2770 889 
Q 3016 1369 3016 2328 
Q 3016 3291 2770 3770 
Q 2525 4250 2034 4250 
z
M 2034 4750 
Q 2819 4750 3233 4129 
Q 3647 3509 3647 2328 
Q 3647 1150 3233 529 
Q 2819 -91 2034 -91 
Q 1250 -91 836 529 
Q 422 1150 422 2328 
Q 422 3509 836 4129 
Q 1250 4750 2034 4750 
z
" transform="scale(0.015625)"/>
       </defs>
       <use xlink:href="#DejaVuSans-31"/>
       <use xlink:href="#DejaVuSans-34" x="63.623047"/>
       <use xlink:href="#DejaVuSans-31" x="127.246094"/>
       <use xlink:href="#DejaVuSans-30" x="190.869141"/>
       <use xlink:href="#DejaVuSans-30" x="254.492188"/>
      </g>
     </g>
    </g>
    <g id="xtick_2">
     <g id="line2d_2">
      <g>
       <use xlink:href="#mf49925156f" x="416.904333" y="246.159167" style="stroke: #000000; stroke-width: 0.8"/>
      </g>
     </g>
     <g id="text_2">
      <!-- 14120 -->
      <g transform="translate(400.998083 260.757604)scale(0.1 -0.1)">
       <defs>
        <path id="DejaVuSans-32" d="M 1228 531 
L 3431 531 
L 3431 0 
L 469 0 
L 469 531 
Q 828 903 1448 1529 
Q 2069 2156 2228 2338 
Q 2531 2678 2651 2914 
Q 2772 3150 2772 3378 
Q 2772 3750 2511 3984 
Q 2250 4219 1831 4219 
Q 1534 4219 1204 4116 
Q 875 4013 500 3803 
L 500 4441 
Q 881 4594 1212 4672 
Q 1544 4750 1819 4750 
Q 2544 4750 2975 4387 
Q 3406 4025 3406 3419 
Q 3406 3131 3298 2873 
Q 3191 2616 2906 2266 
Q 2828 2175 2409 1742 
Q 1991 1309 1228 531 
z
" transform="scale(0.015625)"/>
       </defs>
       <use xlink:href="#DejaVuSans-31"/>
       <use xlink:href="#DejaVuSans-34" x="63.623047"/>
       <use xlink:href="#DejaVuSans-31" x="127.246094"/>
       <use xlink:href="#DejaVuSans-32" x="190.869141"/>
       <use xlink:href="#DejaVuSans-30" x="254.492188"/>
      </g>
     </g>
    </g>
    <g id="xtick_3">
     <g id="line2d_3">
      <g>
       <use xlink:href="#mf49925156f" x="620.971" y="246.159167" style="stroke: #000000; stroke-width: 0.8"/>
      </g>
     </g>
     <g id="text_3">
      <!-- 14140 -->
      <g transform="translate(605.06475 260.757604)scale(0.1 -0.1)">
       <use xlink:href="#DejaVuSans-31"/>
       <use xlink:href="#DejaVuSans-34" x="63.623047"/>
       <use xlink:href="#DejaVuSans-31" x="127.246094"/>
       <use xlink:href="#DejaVuSans-34" x="190.869141"/>
       <use xlink:href="#DejaVuSans-30" x="254.492188"/>
      </g>
     </g>
    </g>
    <g id="xtick_4">
     <g id="line2d_4">
      <g>
       <use xlink:href="#mf49925156f" x="825.037667" y="246.159167" style="stroke: #000000; stroke-width: 0.8"/>
      </g>
     </g>
     <g id="text_4">
      <!-- 14160 -->
      <g transform="translate(809.131417 260.757604)scale(0.1 -0.1)">
       <defs>
        <path id="DejaVuSans-36" d="M 2113 2584 
Q 1688 2584 1439 2293 
Q 1191 2003 1191 1497 
Q 1191 994 1439 701 
Q 1688 409 2113 409 
Q 2538 409 2786 701 
Q 3034 994 3034 1497 
Q 3034 2003 2786 2293 
Q 2538 2584 2113 2584 
z
M 3366 4563 
L 3366 3988 
Q 3128 4100 2886 4159 
Q 2644 4219 2406 4219 
Q 1781 4219 1451 3797 
Q 1122 3375 1075 2522 
Q 1259 2794 1537 2939 
Q 1816 3084 2150 3084 
Q 2853 3084 3261 2657 
Q 3669 2231 3669 1497 
Q 3669 778 3244 343 
Q 2819 -91 2113 -91 
Q 1303 -91 875 529 
Q 447 1150 447 2328 
Q 447 3434 972 4092 
Q 1497 4750 2381 4750 
Q 2619 4750 2861 4703 
Q 3103 4656 3366 4563 
z
" transform="scale(0.015625)"/>
       </defs>
       <use xlink:href="#DejaVuSans-31"/>
       <use xlink:href="#DejaVuSans-34" x="63.623047"/>
       <use xlink:href="#DejaVuSans-31" x="127.246094"/>
       <use xlink:href="#DejaVuSans-36" x="190.869141"/>
       <use xlink:href="#DejaVuSans-30" x="254.492188"/>
      </g>
     </g>
    </g>
    <g id="xtick_5">
     <g id="line2d_5">
      <g>
       <use xlink:href="#mf49925156f" x="1029.104333" y="246.159167" style="stroke: #000000; stroke-width: 0.8"/>
      </g>
     </g>
     <g id="text_5">
      <!-- 14180 -->
      <g transform="translate(1013.198083 260.757604)scale(0.1 -0.1)">
       <defs>
        <path id="DejaVuSans-38" d="M 2034 2216 
Q 1584 2216 1326 1975 
Q 1069 1734 1069 1313 
Q 1069 891 1326 650 
Q 1584 409 2034 409 
Q 2484 409 2743 651 
Q 3003 894 3003 1313 
Q 3003 1734 2745 1975 
Q 2488 2216 2034 2216 
z
M 1403 2484 
Q 997 2584 770 2862 
Q 544 3141 544 3541 
Q 544 4100 942 4425 
Q 1341 4750 2034 4750 
Q 2731 4750 3128 4425 
Q 3525 4100 3525 3541 
Q 3525 3141 3298 2862 
Q 3072 2584 2669 2484 
Q 3125 2378 3379 2068 
Q 3634 1759 3634 1313 
Q 3634 634 3220 271 
Q 2806 -91 2034 -91 
Q 1263 -91 848 271 
Q 434 634 434 1313 
Q 434 1759 690 2068 
Q 947 2378 1403 2484 
z
M 1172 3481 
Q 1172 3119 1398 2916 
Q 1625 2713 2034 2713 
Q 2441 2713 2670 2916 
Q 2900 3119 2900 3481 
Q 2900 3844 2670 4047 
Q 2441 4250 2034 4250 
Q 1625 4250 1398 4047 
Q 1172 3844 1172 3481 
z
" transform="scale(0.015625)"/>
       </defs>
       <use xlink:href="#DejaVuSans-31"/>
       <use xlink:href="#DejaVuSans-34" x="63.623047"/>
       <use xlink:href="#DejaVuSans-31" x="127.246094"/>
       <use xlink:href="#DejaVuSans-38" x="190.869141"/>
       <use xlink:href="#DejaVuSans-30" x="254.492188"/>
      </g>
     </g>
    </g>
   </g>
   <g id="matplotlib.axis_2">
    <g id="ytick_1">
     <g id="line2d_6">
      <defs>
       <path id="m0ed10f723d" d="M 0 0 
L -3.5 0 
" style="stroke: #000000; stroke-width: 0.8"/>
      </defs>
      <g>
       <use xlink:href="#m0ed10f723d" x="54.686" y="246.159167" style="stroke: #000000; stroke-width: 0.8"/>
      </g>
     </g>
     <g id="text_6">
      <!-- −4 -->
      <g style="fill: #ff0000" transform="translate(32.943813 249.958385)scale(0.1 -0.1)">
       <defs>
        <path id="DejaVuSans-2212" d="M 678 2272 
L 4684 2272 
L 4684 1741 
L 678 1741 
L 678 2272 
z
" transform="scale(0.015625)"/>
       </defs>
       <use xlink:href="#DejaVuSans-2212"/>
       <use xlink:href="#DejaVuSans-34" x="83.789062"/>
      </g>
     </g>
    </g>
    <g id="ytick_2">
     <g id="line2d_7">
      <g>
       <use xlink:href="#m0ed10f723d" x="54.686" y="218.749271" style="stroke: #000000; stroke-width: 0.8"/>
      </g>
     </g>
     <g id="text_7">
      <!-- −3 -->
      <g style="fill: #ff0000" transform="translate(32.943813 222.54849)scale(0.1 -0.1)">
       <defs>
        <path id="DejaVuSans-33" d="M 2597 2516 
Q 3050 2419 3304 2112 
Q 3559 1806 3559 1356 
Q 3559 666 3084 287 
Q 2609 -91 1734 -91 
Q 1441 -91 1130 -33 
Q 819 25 488 141 
L 488 750 
Q 750 597 1062 519 
Q 1375 441 1716 441 
Q 2309 441 2620 675 
Q 2931 909 2931 1356 
Q 2931 1769 2642 2001 
Q 2353 2234 1838 2234 
L 1294 2234 
L 1294 2753 
L 1863 2753 
Q 2328 2753 2575 2939 
Q 2822 3125 2822 3475 
Q 2822 3834 2567 4026 
Q 2313 4219 1838 4219 
Q 1578 4219 1281 4162 
Q 984 4106 628 3988 
L 628 4550 
Q 988 4650 1302 4700 
Q 1616 4750 1894 4750 
Q 2613 4750 3031 4423 
Q 3450 4097 3450 3541 
Q 3450 3153 3228 2886 
Q 3006 2619 2597 2516 
z
" transform="scale(0.015625)"/>
       </defs>
       <use xlink:href="#DejaVuSans-2212"/>
       <use xlink:href="#DejaVuSans-33" x="83.789062"/>
      </g>
     </g>
    </g>
    <g id="ytick_3">
     <g id="line2d_8">
      <g>
       <use xlink:href="#m0ed10f723d" x="54.686" y="191.339375" style="stroke: #000000; stroke-width: 0.8"/>
      </g>
     </g>
     <g id="text_8">
      <!-- −2 -->
      <g style="fill: #ff0000" transform="translate(32.943813 195.138594)scale(0.1 -0.1)">
       <use xlink:href="#DejaVuSans-2212"/>
       <use xlink:href="#DejaVuSans-32" x="83.789062"/>
      </g>
     </g>
    </g>
    <g id="ytick_4">
     <g id="line2d_9">
      <g>
       <use xlink:href="#m0ed10f723d" x="54.686" y="163.929479" style="stroke: #000000; stroke-width: 0.8"/>
      </g>
     </g>
     <g id="text_9">
      <!-- −1 -->
      <g style="fill: #ff0000" transform="translate(32.943813 167.728698)scale(0.1 -0.1)">
       <use xlink:href="#DejaVuSans-2212"/>
       <use xlink:href="#DejaVuSans-31" x="83.789062"/>
      </g>
     </g>
    </g>
    <g id="ytick_5">
     <g id="line2d_10">
      <g>
       <use xlink:href="#m0ed10f723d" x="54.686" y="136.519583" style="stroke: #000000; stroke-width: 0.8"/>
      </g>
     </g>
     <g id="text_10">
      <!-- 0 -->
      <g style="fill: #ff0000" transform="translate(41.3235 140.318802)scale(0.1 -0.1)">
       <use xlink:href="#DejaVuSans-30"/>
      </g>
     </g>
    </g>
    <g id="ytick_6">
     <g id="line2d_11">
      <g>
       <use xlink:href="#m0ed10f723d" x="54.686" y="109.109688" style="stroke: #000000; stroke-width: 0.8"/>
      </g>
     </g>
     <g id="text_11">
      <!-- 1 -->
      <g style="fill: #ff0000" transform="translate(41.3235 112.908906)scale(0.1 -0.1)">
       <use xlink:href="#DejaVuSans-31"/>
      </g>
     </g>
    </g>
    <g id="ytick_7">
     <g id="line2d_12">
      <g>
       <use xlink:href="#m0ed10f723d" x="54.686" y="81.699792" style="stroke: #000000; stroke-width: 0.8"/>
      </g>
     </g>
     <g id="text_12">
      <!-- 2 -->
      <g style="fill: #ff0000" transform="translate(41.3235 85.49901)scale(0.1 -0.1)">
       <use xlink:href="#DejaVuSans-32"/>
      </g>
     </g>
    </g>
    <g id="ytick_8">
     <g id="line2d_13">
      <g>
       <use xlink:href="#m0ed10f723d" x="54.686" y="54.289896" style="stroke: #000000; stroke-width: 0.8"/>
      </g>
     </g>
     <g id="text_13">
      <!-- 3 -->
      <g style="fill: #ff0000" transform="translate(41.3235 58.089115)scale(0.1 -0.1)">
       <use xlink:href="#DejaVuSans-33"/>
      </g>
     </g>
    </g>
    <g id="ytick_9">
     <g id="line2d_14">
      <g>
       <use xlink:href="#m0ed10f723d" x="54.686" y="26.88" style="stroke: #000000; stroke-width: 0.8"/>
      </g>
     </g>
     <g id="text_14">
      <!-- 4 -->
      <g style="fill: #ff0000" transform="translate(41.3235 30.679219)scale(0.1 -0.1)">
       <use xlink:href="#DejaVuSans-34"/>
      </g>
     </g>
    </g>
    <g id="text_15">
     <!-- $1/f=K_{1}L$ $[m^{-1}]$ -->
     <g style="fill: #ff0000" transform="translate(26.864125 173.619583)rotate(-90)scale(0.1 -0.1)">
      <defs>
       <path id="DejaVuSans-2f" d="M 1625 4666 
L 2156 4666 
L 531 -594 
L 0 -594 
L 1625 4666 
z
" transform="scale(0.015625)"/>
       <path id="DejaVuSans-Oblique-66" d="M 3059 4863 
L 2969 4384 
L 2419 4384 
Q 2106 4384 1964 4261 
Q 1822 4138 1753 3809 
L 1691 3500 
L 2638 3500 
L 2553 3053 
L 1606 3053 
L 1013 0 
L 434 0 
L 1031 3053 
L 481 3053 
L 563 3500 
L 1113 3500 
L 1159 3744 
Q 1278 4363 1576 4613 
Q 1875 4863 2516 4863 
L 3059 4863 
z
" transform="scale(0.015625)"/>
       <path id="DejaVuSans-3d" d="M 678 2906 
L 4684 2906 
L 4684 2381 
L 678 2381 
L 678 2906 
z
M 678 1631 
L 4684 1631 
L 4684 1100 
L 678 1100 
L 678 1631 
z
" transform="scale(0.015625)"/>
       <path id="DejaVuSans-Oblique-4b" d="M 1081 4666 
L 1716 4666 
L 1331 2700 
L 3781 4666 
L 4622 4666 
L 1850 2438 
L 3878 0 
L 3109 0 
L 1247 2272 
L 806 0 
L 172 0 
L 1081 4666 
z
" transform="scale(0.015625)"/>
       <path id="DejaVuSans-Oblique-4c" d="M 1075 4666 
L 1709 4666 
L 909 525 
L 3181 525 
L 3078 0 
L 172 0 
L 1075 4666 
z
" transform="scale(0.015625)"/>
       <path id="DejaVuSans-20" transform="scale(0.015625)"/>
       <path id="DejaVuSans-5b" d="M 550 4863 
L 1875 4863 
L 1875 4416 
L 1125 4416 
L 1125 -397 
L 1875 -397 
L 1875 -844 
L 550 -844 
L 550 4863 
z
" transform="scale(0.015625)"/>
       <path id="DejaVuSans-Oblique-6d" d="M 5747 2113 
L 5338 0 
L 4763 0 
L 5166 2094 
Q 5191 2228 5203 2325 
Q 5216 2422 5216 2491 
Q 5216 2772 5059 2928 
Q 4903 3084 4622 3084 
Q 4203 3084 3875 2770 
Q 3547 2456 3450 1953 
L 3066 0 
L 2491 0 
L 2900 2094 
Q 2925 2209 2937 2307 
Q 2950 2406 2950 2484 
Q 2950 2769 2794 2926 
Q 2638 3084 2363 3084 
Q 1938 3084 1609 2770 
Q 1281 2456 1184 1953 
L 800 0 
L 225 0 
L 909 3500 
L 1484 3500 
L 1375 2956 
Q 1609 3263 1923 3423 
Q 2238 3584 2597 3584 
Q 2978 3584 3223 3384 
Q 3469 3184 3519 2828 
Q 3781 3197 4126 3390 
Q 4472 3584 4856 3584 
Q 5306 3584 5551 3325 
Q 5797 3066 5797 2591 
Q 5797 2488 5784 2364 
Q 5772 2241 5747 2113 
z
" transform="scale(0.015625)"/>
       <path id="DejaVuSans-5d" d="M 1947 4863 
L 1947 -844 
L 622 -844 
L 622 -397 
L 1369 -397 
L 1369 4416 
L 622 4416 
L 622 4863 
L 1947 4863 
z
" transform="scale(0.015625)"/>
      </defs>
      <use xlink:href="#DejaVuSans-31" transform="translate(0 0.684375)"/>
      <use xlink:href="#DejaVuSans-2f" transform="translate(63.623047 0.684375)"/>
      <use xlink:href="#DejaVuSans-Oblique-66" transform="translate(97.314453 0.684375)"/>
      <use xlink:href="#DejaVuSans-3d" transform="translate(152.001953 0.684375)"/>
      <use xlink:href="#DejaVuSans-Oblique-4b" transform="translate(255.273438 0.684375)"/>
      <use xlink:href="#DejaVuSans-31" transform="translate(320.849609 -15.721875)scale(0.7)"/>
      <use xlink:href="#DejaVuSans-Oblique-4c" transform="translate(368.120117 0.684375)"/>
      <use xlink:href="#DejaVuSans-20" transform="translate(423.833008 0.684375)"/>
      <use xlink:href="#DejaVuSans-5b" transform="translate(455.620117 0.684375)"/>
      <use xlink:href="#DejaVuSans-Oblique-6d" transform="translate(494.633789 0.684375)"/>
      <use xlink:href="#DejaVuSans-2212" transform="translate(596.695794 38.965625)scale(0.7)"/>
      <use xlink:href="#DejaVuSans-31" transform="translate(655.348138 38.965625)scale(0.7)"/>
      <use xlink:href="#DejaVuSans-5d" transform="translate(702.618646 0.684375)"/>
     </g>
    </g>
    <g id="text_16">
     <!-- 1e−2 -->
     <g style="fill: #ff0000" transform="translate(54.686 23.88)scale(0.1 -0.1)">
      <defs>
       <path id="DejaVuSans-65" d="M 3597 1894 
L 3597 1613 
L 953 1613 
Q 991 1019 1311 708 
Q 1631 397 2203 397 
Q 2534 397 2845 478 
Q 3156 559 3463 722 
L 3463 178 
Q 3153 47 2828 -22 
Q 2503 -91 2169 -91 
Q 1331 -91 842 396 
Q 353 884 353 1716 
Q 353 2575 817 3079 
Q 1281 3584 2069 3584 
Q 2775 3584 3186 3129 
Q 3597 2675 3597 1894 
z
M 3022 2063 
Q 3016 2534 2758 2815 
Q 2500 3097 2075 3097 
Q 1594 3097 1305 2825 
Q 1016 2553 972 2059 
L 3022 2063 
z
" transform="scale(0.015625)"/>
      </defs>
      <use xlink:href="#DejaVuSans-31"/>
      <use xlink:href="#DejaVuSans-65" x="63.623047"/>
      <use xlink:href="#DejaVuSans-2212" x="125.146484"/>
      <use xlink:href="#DejaVuSans-32" x="208.935547"/>
     </g>
    </g>
   </g>
   <g id="line2d_15">
    <path d="M 60.115828 136.519583 
L 63.380895 136.519583 
L 66.421488 136.519583 
L 98.051821 136.519583 
L 99.689456 136.519583 
L 103.454486 136.519583 
L 104.32177 136.519583 
L 110.923326 136.519583 
L 118.754385 136.519583 
L 118.754385 136.519583 
L 118.76969 136.519583 
L 118.76969 136.519583 
L 122.185228 136.519583 
L 268.092895 136.519583 
L 270.329949 136.519583 
L 271.452316 136.519583 
L 281.974476 136.519583 
L 427.882143 136.519583 
L 430.119196 136.519583 
L 431.241563 136.519583 
L 438.33288 136.519583 
L 438.33288 136.519583 
L 438.348185 136.519583 
L 438.348185 136.519583 
L 441.763724 136.519583 
L 587.67139 136.519583 
L 589.908444 136.519583 
L 591.030811 136.519583 
L 599.438357 136.519583 
L 599.438357 136.519583 
L 605.499137 136.519583 
L 608.764204 136.519583 
L 611.804797 136.519583 
L 643.435131 136.519583 
L 645.072766 136.519583 
L 648.837796 136.519583 
L 649.705079 136.519583 
L 656.306636 136.519583 
L 667.568538 136.519583 
L 813.476205 136.519583 
L 815.713258 136.519583 
L 816.835625 136.519583 
L 823.926942 136.519583 
L 823.926942 136.519583 
L 823.942247 136.519583 
L 823.942247 136.519583 
L 827.357785 136.519583 
L 973.265452 136.519583 
L 975.502506 136.519583 
L 976.624873 136.519583 
L 987.147033 136.519583 
L 1133.0547 136.519583 
L 1135.291753 136.519583 
L 1136.41412 136.519583 
" clip-path="url(#pf69a9eefc0)" style="fill: none; stroke: #000000; stroke-width: 1.5; stroke-linecap: square"/>
   </g>
   <g id="patch_7">
    <path d="M 54.686 246.159167 
L 54.686 26.88 
" style="fill: none; stroke: #000000; stroke-width: 0.8; stroke-linejoin: miter; stroke-linecap: square"/>
   </g>
   <g id="patch_8">
    <path d="M 1144.402 246.159167 
L 1144.402 26.88 
" style="fill: none; stroke: #000000; stroke-width: 0.8; stroke-linejoin: miter; stroke-linecap: square"/>
   </g>
   <g id="patch_9">
    <path d="M 54.686 246.159167 
L 1144.402 246.159167 
" style="fill: none; stroke: #000000; stroke-width: 0.8; stroke-linejoin: miter; stroke-linecap: square"/>
   </g>
   <g id="patch_10">
    <path d="M 54.686 26.88 
L 1144.402 26.88 
" style="fill: none; stroke: #000000; stroke-width: 0.8; stroke-linejoin: miter; stroke-linecap: square"/>
   </g>
   <g id="text_17">
    <!-- LHC Arc Cell, Flat LHCB1 Setup -->
    <g transform="translate(506.516813 20.88)scale(0.12 -0.12)">
     <defs>
      <path id="DejaVuSans-4c" d="M 628 4666 
L 1259 4666 
L 1259 531 
L 3531 531 
L 3531 0 
L 628 0 
L 628 4666 
z
" transform="scale(0.015625)"/>
      <path id="DejaVuSans-48" d="M 628 4666 
L 1259 4666 
L 1259 2753 
L 3553 2753 
L 3553 4666 
L 4184 4666 
L 4184 0 
L 3553 0 
L 3553 2222 
L 1259 2222 
L 1259 0 
L 628 0 
L 628 4666 
z
" transform="scale(0.015625)"/>
      <path id="DejaVuSans-43" d="M 4122 4306 
L 4122 3641 
Q 3803 3938 3442 4084 
Q 3081 4231 2675 4231 
Q 1875 4231 1450 3742 
Q 1025 3253 1025 2328 
Q 1025 1406 1450 917 
Q 1875 428 2675 428 
Q 3081 428 3442 575 
Q 3803 722 4122 1019 
L 4122 359 
Q 3791 134 3420 21 
Q 3050 -91 2638 -91 
Q 1578 -91 968 557 
Q 359 1206 359 2328 
Q 359 3453 968 4101 
Q 1578 4750 2638 4750 
Q 3056 4750 3426 4639 
Q 3797 4528 4122 4306 
z
" transform="scale(0.015625)"/>
      <path id="DejaVuSans-41" d="M 2188 4044 
L 1331 1722 
L 3047 1722 
L 2188 4044 
z
M 1831 4666 
L 2547 4666 
L 4325 0 
L 3669 0 
L 3244 1197 
L 1141 1197 
L 716 0 
L 50 0 
L 1831 4666 
z
" transform="scale(0.015625)"/>
      <path id="DejaVuSans-72" d="M 2631 2963 
Q 2534 3019 2420 3045 
Q 2306 3072 2169 3072 
Q 1681 3072 1420 2755 
Q 1159 2438 1159 1844 
L 1159 0 
L 581 0 
L 581 3500 
L 1159 3500 
L 1159 2956 
Q 1341 3275 1631 3429 
Q 1922 3584 2338 3584 
Q 2397 3584 2469 3576 
Q 2541 3569 2628 3553 
L 2631 2963 
z
" transform="scale(0.015625)"/>
      <path id="DejaVuSans-63" d="M 3122 3366 
L 3122 2828 
Q 2878 2963 2633 3030 
Q 2388 3097 2138 3097 
Q 1578 3097 1268 2742 
Q 959 2388 959 1747 
Q 959 1106 1268 751 
Q 1578 397 2138 397 
Q 2388 397 2633 464 
Q 2878 531 3122 666 
L 3122 134 
Q 2881 22 2623 -34 
Q 2366 -91 2075 -91 
Q 1284 -91 818 406 
Q 353 903 353 1747 
Q 353 2603 823 3093 
Q 1294 3584 2113 3584 
Q 2378 3584 2631 3529 
Q 2884 3475 3122 3366 
z
" transform="scale(0.015625)"/>
      <path id="DejaVuSans-6c" d="M 603 4863 
L 1178 4863 
L 1178 0 
L 603 0 
L 603 4863 
z
" transform="scale(0.015625)"/>
      <path id="DejaVuSans-2c" d="M 750 794 
L 1409 794 
L 1409 256 
L 897 -744 
L 494 -744 
L 750 256 
L 750 794 
z
" transform="scale(0.015625)"/>
      <path id="DejaVuSans-46" d="M 628 4666 
L 3309 4666 
L 3309 4134 
L 1259 4134 
L 1259 2759 
L 3109 2759 
L 3109 2228 
L 1259 2228 
L 1259 0 
L 628 0 
L 628 4666 
z
" transform="scale(0.015625)"/>
      <path id="DejaVuSans-61" d="M 2194 1759 
Q 1497 1759 1228 1600 
Q 959 1441 959 1056 
Q 959 750 1161 570 
Q 1363 391 1709 391 
Q 2188 391 2477 730 
Q 2766 1069 2766 1631 
L 2766 1759 
L 2194 1759 
z
M 3341 1997 
L 3341 0 
L 2766 0 
L 2766 531 
Q 2569 213 2275 61 
Q 1981 -91 1556 -91 
Q 1019 -91 701 211 
Q 384 513 384 1019 
Q 384 1609 779 1909 
Q 1175 2209 1959 2209 
L 2766 2209 
L 2766 2266 
Q 2766 2663 2505 2880 
Q 2244 3097 1772 3097 
Q 1472 3097 1187 3025 
Q 903 2953 641 2809 
L 641 3341 
Q 956 3463 1253 3523 
Q 1550 3584 1831 3584 
Q 2591 3584 2966 3190 
Q 3341 2797 3341 1997 
z
" transform="scale(0.015625)"/>
      <path id="DejaVuSans-74" d="M 1172 4494 
L 1172 3500 
L 2356 3500 
L 2356 3053 
L 1172 3053 
L 1172 1153 
Q 1172 725 1289 603 
Q 1406 481 1766 481 
L 2356 481 
L 2356 0 
L 1766 0 
Q 1100 0 847 248 
Q 594 497 594 1153 
L 594 3053 
L 172 3053 
L 172 3500 
L 594 3500 
L 594 4494 
L 1172 4494 
z
" transform="scale(0.015625)"/>
      <path id="DejaVuSans-42" d="M 1259 2228 
L 1259 519 
L 2272 519 
Q 2781 519 3026 730 
Q 3272 941 3272 1375 
Q 3272 1813 3026 2020 
Q 2781 2228 2272 2228 
L 1259 2228 
z
M 1259 4147 
L 1259 2741 
L 2194 2741 
Q 2656 2741 2882 2914 
Q 3109 3088 3109 3444 
Q 3109 3797 2882 3972 
Q 2656 4147 2194 4147 
L 1259 4147 
z
M 628 4666 
L 2241 4666 
Q 2963 4666 3353 4366 
Q 3744 4066 3744 3513 
Q 3744 3084 3544 2831 
Q 3344 2578 2956 2516 
Q 3422 2416 3680 2098 
Q 3938 1781 3938 1306 
Q 3938 681 3513 340 
Q 3088 0 2303 0 
L 628 0 
L 628 4666 
z
" transform="scale(0.015625)"/>
      <path id="DejaVuSans-53" d="M 3425 4513 
L 3425 3897 
Q 3066 4069 2747 4153 
Q 2428 4238 2131 4238 
Q 1616 4238 1336 4038 
Q 1056 3838 1056 3469 
Q 1056 3159 1242 3001 
Q 1428 2844 1947 2747 
L 2328 2669 
Q 3034 2534 3370 2195 
Q 3706 1856 3706 1288 
Q 3706 609 3251 259 
Q 2797 -91 1919 -91 
Q 1588 -91 1214 -16 
Q 841 59 441 206 
L 441 856 
Q 825 641 1194 531 
Q 1563 422 1919 422 
Q 2459 422 2753 634 
Q 3047 847 3047 1241 
Q 3047 1584 2836 1778 
Q 2625 1972 2144 2069 
L 1759 2144 
Q 1053 2284 737 2584 
Q 422 2884 422 3419 
Q 422 4038 858 4394 
Q 1294 4750 2059 4750 
Q 2388 4750 2728 4690 
Q 3069 4631 3425 4513 
z
" transform="scale(0.015625)"/>
      <path id="DejaVuSans-75" d="M 544 1381 
L 544 3500 
L 1119 3500 
L 1119 1403 
Q 1119 906 1312 657 
Q 1506 409 1894 409 
Q 2359 409 2629 706 
Q 2900 1003 2900 1516 
L 2900 3500 
L 3475 3500 
L 3475 0 
L 2900 0 
L 2900 538 
Q 2691 219 2414 64 
Q 2138 -91 1772 -91 
Q 1169 -91 856 284 
Q 544 659 544 1381 
z
M 1991 3584 
L 1991 3584 
z
" transform="scale(0.015625)"/>
      <path id="DejaVuSans-70" d="M 1159 525 
L 1159 -1331 
L 581 -1331 
L 581 3500 
L 1159 3500 
L 1159 2969 
Q 1341 3281 1617 3432 
Q 1894 3584 2278 3584 
Q 2916 3584 3314 3078 
Q 3713 2572 3713 1747 
Q 3713 922 3314 415 
Q 2916 -91 2278 -91 
Q 1894 -91 1617 61 
Q 1341 213 1159 525 
z
M 3116 1747 
Q 3116 2381 2855 2742 
Q 2594 3103 2138 3103 
Q 1681 3103 1420 2742 
Q 1159 2381 1159 1747 
Q 1159 1113 1420 752 
Q 1681 391 2138 391 
Q 2594 391 2855 752 
Q 3116 1113 3116 1747 
z
" transform="scale(0.015625)"/>
     </defs>
     <use xlink:href="#DejaVuSans-4c"/>
     <use xlink:href="#DejaVuSans-48" x="55.712891"/>
     <use xlink:href="#DejaVuSans-43" x="130.908203"/>
     <use xlink:href="#DejaVuSans-20" x="200.732422"/>
     <use xlink:href="#DejaVuSans-41" x="232.519531"/>
     <use xlink:href="#DejaVuSans-72" x="300.927734"/>
     <use xlink:href="#DejaVuSans-63" x="339.791016"/>
     <use xlink:href="#DejaVuSans-20" x="394.771484"/>
     <use xlink:href="#DejaVuSans-43" x="426.558594"/>
     <use xlink:href="#DejaVuSans-65" x="496.382812"/>
     <use xlink:href="#DejaVuSans-6c" x="557.90625"/>
     <use xlink:href="#DejaVuSans-6c" x="585.689453"/>
     <use xlink:href="#DejaVuSans-2c" x="613.472656"/>
     <use xlink:href="#DejaVuSans-20" x="645.259766"/>
     <use xlink:href="#DejaVuSans-46" x="677.046875"/>
     <use xlink:href="#DejaVuSans-6c" x="734.566406"/>
     <use xlink:href="#DejaVuSans-61" x="762.349609"/>
     <use xlink:href="#DejaVuSans-74" x="823.628906"/>
     <use xlink:href="#DejaVuSans-20" x="862.837891"/>
     <use xlink:href="#DejaVuSans-4c" x="894.625"/>
     <use xlink:href="#DejaVuSans-48" x="950.337891"/>
     <use xlink:href="#DejaVuSans-43" x="1025.533203"/>
     <use xlink:href="#DejaVuSans-42" x="1095.357422"/>
     <use xlink:href="#DejaVuSans-31" x="1163.960938"/>
     <use xlink:href="#DejaVuSans-20" x="1227.583984"/>
     <use xlink:href="#DejaVuSans-53" x="1259.371094"/>
     <use xlink:href="#DejaVuSans-65" x="1322.847656"/>
     <use xlink:href="#DejaVuSans-74" x="1384.371094"/>
     <use xlink:href="#DejaVuSans-75" x="1423.580078"/>
     <use xlink:href="#DejaVuSans-70" x="1486.958984"/>
    </g>
   </g>
   <g id="legend_1">
    <g id="patch_11">
     <path d="M 61.686 49.558125 
L 110.186 49.558125 
Q 112.186 49.558125 112.186 47.558125 
L 112.186 33.88 
Q 112.186 31.88 110.186 31.88 
L 61.686 31.88 
Q 59.686 31.88 59.686 33.88 
L 59.686 47.558125 
Q 59.686 49.558125 61.686 49.558125 
z
" style="fill: #ffffff; opacity: 0.8; stroke: #cccccc; stroke-linejoin: miter"/>
    </g>
    <g id="patch_12">
     <path d="M 63.686 43.478438 
L 83.686 43.478438 
L 83.686 36.478438 
L 63.686 36.478438 
z
" style="fill: #ff0000; opacity: 0.5; stroke: #ff0000; stroke-width: 1.5; stroke-linejoin: miter"/>
    </g>
    <g id="text_18">
     <!-- MQ -->
     <g transform="translate(91.686 43.478438)scale(0.1 -0.1)">
      <defs>
       <path id="DejaVuSans-4d" d="M 628 4666 
L 1569 4666 
L 2759 1491 
L 3956 4666 
L 4897 4666 
L 4897 0 
L 4281 0 
L 4281 4097 
L 3078 897 
L 2444 897 
L 1241 4097 
L 1241 0 
L 628 0 
L 628 4666 
z
" transform="scale(0.015625)"/>
       <path id="DejaVuSans-51" d="M 2522 4238 
Q 1834 4238 1429 3725 
Q 1025 3213 1025 2328 
Q 1025 1447 1429 934 
Q 1834 422 2522 422 
Q 3209 422 3611 934 
Q 4013 1447 4013 2328 
Q 4013 3213 3611 3725 
Q 3209 4238 2522 4238 
z
M 3406 84 
L 4238 -825 
L 3475 -825 
L 2784 -78 
Q 2681 -84 2626 -87 
Q 2572 -91 2522 -91 
Q 1538 -91 948 567 
Q 359 1225 359 2328 
Q 359 3434 948 4092 
Q 1538 4750 2522 4750 
Q 3503 4750 4090 4092 
Q 4678 3434 4678 2328 
Q 4678 1516 4351 937 
Q 4025 359 3406 84 
z
" transform="scale(0.015625)"/>
      </defs>
      <use xlink:href="#DejaVuSans-4d"/>
      <use xlink:href="#DejaVuSans-51" x="86.279297"/>
     </g>
    </g>
   </g>
  </g>
  <g id="axes_2">
   <g id="patch_13">
    <path d="M 122.185228 136.519583 
L 268.092895 136.519583 
L 268.092895 117.880898 
L 122.185228 117.880898 
z
" clip-path="url(#pf69a9eefc0)" style="fill: #4169e1; opacity: 0.5; stroke: #4169e1; stroke-width: 1.5; stroke-linejoin: miter"/>
   </g>
   <g id="patch_14">
    <path d="M 281.974476 136.519583 
L 427.882143 136.519583 
L 427.882143 117.880898 
L 281.974476 117.880898 
z
" clip-path="url(#pf69a9eefc0)" style="fill: #4169e1; opacity: 0.5; stroke: #4169e1; stroke-width: 1.5; stroke-linejoin: miter"/>
   </g>
   <g id="patch_15">
    <path d="M 441.763724 136.519583 
L 587.67139 136.519583 
L 587.67139 117.880898 
L 441.763724 117.880898 
z
" clip-path="url(#pf69a9eefc0)" style="fill: #4169e1; opacity: 0.5; stroke: #4169e1; stroke-width: 1.5; stroke-linejoin: miter"/>
   </g>
   <g id="patch_16">
    <path d="M 667.568538 136.519583 
L 813.476205 136.519583 
L 813.476205 117.880898 
L 667.568538 117.880898 
z
" clip-path="url(#pf69a9eefc0)" style="fill: #4169e1; opacity: 0.5; stroke: #4169e1; stroke-width: 1.5; stroke-linejoin: miter"/>
   </g>
   <g id="patch_17">
    <path d="M 827.357785 136.519583 
L 973.265452 136.519583 
L 973.265452 117.880898 
L 827.357785 117.880898 
z
" clip-path="url(#pf69a9eefc0)" style="fill: #4169e1; opacity: 0.5; stroke: #4169e1; stroke-width: 1.5; stroke-linejoin: miter"/>
   </g>
   <g id="patch_18">
    <path d="M 987.147033 136.519583 
L 1133.0547 136.519583 
L 1133.0547 117.880898 
L 987.147033 117.880898 
z
" clip-path="url(#pf69a9eefc0)" style="fill: #4169e1; opacity: 0.5; stroke: #4169e1; stroke-width: 1.5; stroke-linejoin: miter"/>
   </g>
   <g id="matplotlib.axis_3">
    <g id="ytick_10">
     <g id="line2d_16">
      <defs>
       <path id="m68e2347111" d="M 0 0 
L 3.5 0 
" style="stroke: #000000; stroke-width: 0.8"/>
      </defs>
      <g>
       <use xlink:href="#m68e2347111" x="1144.402" y="246.159167" style="stroke: #000000; stroke-width: 0.8"/>
      </g>
     </g>
     <g id="text_19">
      <!-- −3 -->
      <g style="fill: #4169e1" transform="translate(1151.402 249.958385)scale(0.1 -0.1)">
       <use xlink:href="#DejaVuSans-2212"/>
       <use xlink:href="#DejaVuSans-33" x="83.789062"/>
      </g>
     </g>
    </g>
    <g id="ytick_11">
     <g id="line2d_17">
      <g>
       <use xlink:href="#m68e2347111" x="1144.402" y="209.612639" style="stroke: #000000; stroke-width: 0.8"/>
      </g>
     </g>
     <g id="text_20">
      <!-- −2 -->
      <g style="fill: #4169e1" transform="translate(1151.402 213.411858)scale(0.1 -0.1)">
       <use xlink:href="#DejaVuSans-2212"/>
       <use xlink:href="#DejaVuSans-32" x="83.789062"/>
      </g>
     </g>
    </g>
    <g id="ytick_12">
     <g id="line2d_18">
      <g>
       <use xlink:href="#m68e2347111" x="1144.402" y="173.066111" style="stroke: #000000; stroke-width: 0.8"/>
      </g>
     </g>
     <g id="text_21">
      <!-- −1 -->
      <g style="fill: #4169e1" transform="translate(1151.402 176.86533)scale(0.1 -0.1)">
       <use xlink:href="#DejaVuSans-2212"/>
       <use xlink:href="#DejaVuSans-31" x="83.789062"/>
      </g>
     </g>
    </g>
    <g id="ytick_13">
     <g id="line2d_19">
      <g>
       <use xlink:href="#m68e2347111" x="1144.402" y="136.519583" style="stroke: #000000; stroke-width: 0.8"/>
      </g>
     </g>
     <g id="text_22">
      <!-- 0 -->
      <g style="fill: #4169e1" transform="translate(1151.402 140.318802)scale(0.1 -0.1)">
       <use xlink:href="#DejaVuSans-30"/>
      </g>
     </g>
    </g>
    <g id="ytick_14">
     <g id="line2d_20">
      <g>
       <use xlink:href="#m68e2347111" x="1144.402" y="99.973056" style="stroke: #000000; stroke-width: 0.8"/>
      </g>
     </g>
     <g id="text_23">
      <!-- 1 -->
      <g style="fill: #4169e1" transform="translate(1151.402 103.772274)scale(0.1 -0.1)">
       <use xlink:href="#DejaVuSans-31"/>
      </g>
     </g>
    </g>
    <g id="ytick_15">
     <g id="line2d_21">
      <g>
       <use xlink:href="#m68e2347111" x="1144.402" y="63.426528" style="stroke: #000000; stroke-width: 0.8"/>
      </g>
     </g>
     <g id="text_24">
      <!-- 2 -->
      <g style="fill: #4169e1" transform="translate(1151.402 67.225747)scale(0.1 -0.1)">
       <use xlink:href="#DejaVuSans-32"/>
      </g>
     </g>
    </g>
    <g id="ytick_16">
     <g id="line2d_22">
      <g>
       <use xlink:href="#m68e2347111" x="1144.402" y="26.88" style="stroke: #000000; stroke-width: 0.8"/>
      </g>
     </g>
     <g id="text_25">
      <!-- 3 -->
      <g style="fill: #4169e1" transform="translate(1151.402 30.679219)scale(0.1 -0.1)">
       <use xlink:href="#DejaVuSans-33"/>
      </g>
     </g>
    </g>
    <g id="text_26">
     <!-- $\theta=K_{0}L$ $[rad]$ -->
     <g style="fill: #4169e1" transform="translate(1177.742625 167.969583)rotate(-90)scale(0.1 -0.1)">
      <defs>
       <path id="DejaVuSans-Oblique-3b8" d="M 2913 2219 
L 925 2219 
Q 791 1284 928 888 
Q 1100 400 1566 400 
Q 2034 400 2391 891 
Q 2703 1322 2913 2219 
z
M 3009 2750 
Q 3094 3638 2984 3950 
Q 2813 4444 2353 4444 
Q 1875 4444 1525 3956 
Q 1250 3563 1034 2750 
L 3009 2750 
z
M 2444 4913 
Q 3194 4913 3494 4250 
Q 3794 3591 3566 2422 
Q 3341 1256 2781 594 
Q 2225 -72 1475 -72 
Q 722 -72 425 594 
Q 128 1256 353 2422 
Q 581 3591 1134 4250 
Q 1691 4913 2444 4913 
z
" transform="scale(0.015625)"/>
       <path id="DejaVuSans-Oblique-72" d="M 2853 2969 
Q 2766 3016 2653 3041 
Q 2541 3066 2413 3066 
Q 1953 3066 1609 2717 
Q 1266 2369 1153 1784 
L 800 0 
L 225 0 
L 909 3500 
L 1484 3500 
L 1375 2956 
Q 1603 3259 1920 3421 
Q 2238 3584 2597 3584 
Q 2691 3584 2781 3573 
Q 2872 3563 2963 3538 
L 2853 2969 
z
" transform="scale(0.015625)"/>
       <path id="DejaVuSans-Oblique-61" d="M 3438 1997 
L 3047 0 
L 2472 0 
L 2578 531 
Q 2325 219 2001 64 
Q 1678 -91 1281 -91 
Q 834 -91 548 182 
Q 263 456 263 884 
Q 263 1497 752 1853 
Q 1241 2209 2100 2209 
L 2900 2209 
L 2931 2363 
Q 2938 2388 2941 2417 
Q 2944 2447 2944 2509 
Q 2944 2788 2717 2942 
Q 2491 3097 2081 3097 
Q 1800 3097 1504 3025 
Q 1209 2953 897 2809 
L 997 3341 
Q 1322 3463 1633 3523 
Q 1944 3584 2234 3584 
Q 2853 3584 3176 3315 
Q 3500 3047 3500 2534 
Q 3500 2431 3484 2292 
Q 3469 2153 3438 1997 
z
M 2816 1759 
L 2241 1759 
Q 1534 1759 1195 1570 
Q 856 1381 856 984 
Q 856 709 1029 553 
Q 1203 397 1509 397 
Q 1978 397 2328 733 
Q 2678 1069 2791 1631 
L 2816 1759 
z
" transform="scale(0.015625)"/>
       <path id="DejaVuSans-Oblique-64" d="M 2675 525 
Q 2444 222 2128 65 
Q 1813 -91 1428 -91 
Q 903 -91 598 267 
Q 294 625 294 1247 
Q 294 1766 478 2236 
Q 663 2706 1013 3078 
Q 1244 3325 1534 3454 
Q 1825 3584 2144 3584 
Q 2481 3584 2739 3421 
Q 2997 3259 3138 2956 
L 3513 4863 
L 4091 4863 
L 3144 0 
L 2566 0 
L 2675 525 
z
M 891 1350 
Q 891 897 1095 644 
Q 1300 391 1663 391 
Q 1931 391 2161 520 
Q 2391 650 2566 903 
Q 2750 1166 2856 1509 
Q 2963 1853 2963 2188 
Q 2963 2622 2758 2865 
Q 2553 3109 2194 3109 
Q 1922 3109 1687 2981 
Q 1453 2853 1288 2613 
Q 1106 2353 998 2009 
Q 891 1666 891 1350 
z
" transform="scale(0.015625)"/>
      </defs>
      <use xlink:href="#DejaVuSans-Oblique-3b8" transform="translate(0 0.234375)"/>
      <use xlink:href="#DejaVuSans-3d" transform="translate(80.664062 0.234375)"/>
      <use xlink:href="#DejaVuSans-Oblique-4b" transform="translate(183.935547 0.234375)"/>
      <use xlink:href="#DejaVuSans-30" transform="translate(249.511719 -16.171875)scale(0.7)"/>
      <use xlink:href="#DejaVuSans-Oblique-4c" transform="translate(296.782227 0.234375)"/>
      <use xlink:href="#DejaVuSans-20" transform="translate(352.495117 0.234375)"/>
      <use xlink:href="#DejaVuSans-5b" transform="translate(384.282227 0.234375)"/>
      <use xlink:href="#DejaVuSans-Oblique-72" transform="translate(423.295898 0.234375)"/>
      <use xlink:href="#DejaVuSans-Oblique-61" transform="translate(464.40918 0.234375)"/>
      <use xlink:href="#DejaVuSans-Oblique-64" transform="translate(525.688477 0.234375)"/>
      <use xlink:href="#DejaVuSans-5d" transform="translate(589.165039 0.234375)"/>
     </g>
    </g>
    <g id="text_27">
     <!-- 1e−2 -->
     <g style="fill: #4169e1" transform="translate(1117.144187 23.88)scale(0.1 -0.1)">
      <use xlink:href="#DejaVuSans-31"/>
      <use xlink:href="#DejaVuSans-65" x="63.623047"/>
      <use xlink:href="#DejaVuSans-2212" x="125.146484"/>
      <use xlink:href="#DejaVuSans-32" x="208.935547"/>
     </g>
    </g>
   </g>
   <g id="patch_19">
    <path d="M 54.686 246.159167 
L 54.686 26.88 
" style="fill: none; stroke: #000000; stroke-width: 0.8; stroke-linejoin: miter; stroke-linecap: square"/>
   </g>
   <g id="patch_20">
    <path d="M 1144.402 246.159167 
L 1144.402 26.88 
" style="fill: none; stroke: #000000; stroke-width: 0.8; stroke-linejoin: miter; stroke-linecap: square"/>
   </g>
   <g id="patch_21">
    <path d="M 54.686 246.159167 
L 1144.402 246.159167 
" style="fill: none; stroke: #000000; stroke-width: 0.8; stroke-linejoin: miter; stroke-linecap: square"/>
   </g>
   <g id="patch_22">
    <path d="M 54.686 26.88 
L 1144.402 26.88 
" style="fill: none; stroke: #000000; stroke-width: 0.8; stroke-linejoin: miter; stroke-linecap: square"/>
   </g>
   <g id="legend_2">
    <g id="patch_23">
     <path d="M 1089.912937 49.558125 
L 1137.402 49.558125 
Q 1139.402 49.558125 1139.402 47.558125 
L 1139.402 33.88 
Q 1139.402 31.88 1137.402 31.88 
L 1089.912937 31.88 
Q 1087.912937 31.88 1087.912937 33.88 
L 1087.912937 47.558125 
Q 1087.912937 49.558125 1089.912937 49.558125 
z
" style="fill: #ffffff; opacity: 0.8; stroke: #cccccc; stroke-linejoin: miter"/>
    </g>
    <g id="patch_24">
     <path d="M 1091.912937 43.478438 
L 1111.912937 43.478438 
L 1111.912937 36.478438 
L 1091.912937 36.478438 
z
" style="fill: #4169e1; opacity: 0.5; stroke: #4169e1; stroke-width: 1.5; stroke-linejoin: miter"/>
    </g>
    <g id="text_28">
     <!-- MB -->
     <g transform="translate(1119.912937 43.478438)scale(0.1 -0.1)">
      <use xlink:href="#DejaVuSans-4d"/>
      <use xlink:href="#DejaVuSans-42" x="86.279297"/>
     </g>
    </g>
   </g>
  </g>
  <g id="axes_3">
   <g id="patch_25">
    <path d="M 99.689456 136.519583 
L 103.454486 136.519583 
L 103.454486 78.798518 
L 99.689456 78.798518 
z
" clip-path="url(#pf69a9eefc0)" style="fill: #daa520; opacity: 0.5; stroke: #daa520; stroke-width: 1.5; stroke-linejoin: miter"/>
   </g>
   <g id="patch_26">
    <path d="M 645.072766 136.519583 
L 648.837796 136.519583 
L 648.837796 236.049309 
L 645.072766 236.049309 
z
" clip-path="url(#pf69a9eefc0)" style="fill: #daa520; opacity: 0.5; stroke: #daa520; stroke-width: 1.5; stroke-linejoin: miter"/>
   </g>
   <g id="matplotlib.axis_4">
    <g id="ytick_17">
     <g id="line2d_23">
      <g>
       <use xlink:href="#m68e2347111" x="1253.3736" y="224.23125" style="stroke: #000000; stroke-width: 0.8"/>
      </g>
     </g>
     <g id="text_29">
      <!-- −4 -->
      <g style="fill: #b8860b" transform="translate(1260.3736 228.030469)scale(0.1 -0.1)">
       <use xlink:href="#DejaVuSans-2212"/>
       <use xlink:href="#DejaVuSans-34" x="83.789062"/>
      </g>
     </g>
    </g>
    <g id="ytick_18">
     <g id="line2d_24">
      <g>
       <use xlink:href="#m68e2347111" x="1253.3736" y="180.375417" style="stroke: #000000; stroke-width: 0.8"/>
      </g>
     </g>
     <g id="text_30">
      <!-- −2 -->
      <g style="fill: #b8860b" transform="translate(1260.3736 184.174635)scale(0.1 -0.1)">
       <use xlink:href="#DejaVuSans-2212"/>
       <use xlink:href="#DejaVuSans-32" x="83.789062"/>
      </g>
     </g>
    </g>
    <g id="ytick_19">
     <g id="line2d_25">
      <g>
       <use xlink:href="#m68e2347111" x="1253.3736" y="136.519583" style="stroke: #000000; stroke-width: 0.8"/>
      </g>
     </g>
     <g id="text_31">
      <!-- 0 -->
      <g style="fill: #b8860b" transform="translate(1260.3736 140.318802)scale(0.1 -0.1)">
       <use xlink:href="#DejaVuSans-30"/>
      </g>
     </g>
    </g>
    <g id="ytick_20">
     <g id="line2d_26">
      <g>
       <use xlink:href="#m68e2347111" x="1253.3736" y="92.66375" style="stroke: #000000; stroke-width: 0.8"/>
      </g>
     </g>
     <g id="text_32">
      <!-- 2 -->
      <g style="fill: #b8860b" transform="translate(1260.3736 96.462969)scale(0.1 -0.1)">
       <use xlink:href="#DejaVuSans-32"/>
      </g>
     </g>
    </g>
    <g id="ytick_21">
     <g id="line2d_27">
      <g>
       <use xlink:href="#m68e2347111" x="1253.3736" y="48.807917" style="stroke: #000000; stroke-width: 0.8"/>
      </g>
     </g>
     <g id="text_33">
      <!-- 4 -->
      <g style="fill: #b8860b" transform="translate(1260.3736 52.607135)scale(0.1 -0.1)">
       <use xlink:href="#DejaVuSans-34"/>
      </g>
     </g>
    </g>
    <g id="text_34">
     <!-- $K_{2}L$ $[m^{-2}]$ -->
     <g style="fill: #b8860b" transform="translate(1287.8361 160.869583)rotate(-90)scale(0.1 -0.1)">
      <use xlink:href="#DejaVuSans-Oblique-4b" transform="translate(0 0.765625)"/>
      <use xlink:href="#DejaVuSans-32" transform="translate(65.576172 -15.640625)scale(0.7)"/>
      <use xlink:href="#DejaVuSans-Oblique-4c" transform="translate(112.84668 0.765625)"/>
      <use xlink:href="#DejaVuSans-20" transform="translate(168.55957 0.765625)"/>
      <use xlink:href="#DejaVuSans-5b" transform="translate(200.34668 0.765625)"/>
      <use xlink:href="#DejaVuSans-Oblique-6d" transform="translate(239.360352 0.765625)"/>
      <use xlink:href="#DejaVuSans-2212" transform="translate(341.422357 39.046875)scale(0.7)"/>
      <use xlink:href="#DejaVuSans-32" transform="translate(400.074701 39.046875)scale(0.7)"/>
      <use xlink:href="#DejaVuSans-5d" transform="translate(447.345208 0.765625)"/>
     </g>
    </g>
    <g id="text_35">
     <!-- 1e−2 -->
     <g style="fill: #b8860b" transform="translate(1117.144187 23.88)scale(0.1 -0.1)">
      <use xlink:href="#DejaVuSans-31"/>
      <use xlink:href="#DejaVuSans-65" x="63.623047"/>
      <use xlink:href="#DejaVuSans-2212" x="125.146484"/>
      <use xlink:href="#DejaVuSans-32" x="208.935547"/>
     </g>
    </g>
   </g>
   <g id="patch_27">
    <path d="M 54.686 246.159167 
L 54.686 26.88 
" style="fill: none; stroke: #000000; stroke-width: 0.8; stroke-linejoin: miter; stroke-linecap: square"/>
   </g>
   <g id="patch_28">
    <path d="M 1253.3736 246.159167 
L 1253.3736 26.88 
" style="fill: none; stroke: #000000; stroke-width: 0.8; stroke-linejoin: miter; stroke-linecap: square"/>
   </g>
   <g id="patch_29">
    <path d="M 54.686 246.159167 
L 1144.402 246.159167 
" style="fill: none; stroke: #000000; stroke-width: 0.8; stroke-linejoin: miter; stroke-linecap: square"/>
   </g>
   <g id="patch_30">
    <path d="M 54.686 26.88 
L 1144.402 26.88 
" style="fill: none; stroke: #000000; stroke-width: 0.8; stroke-linejoin: miter; stroke-linecap: square"/>
   </g>
   <g id="legend_3">
    <g id="patch_31">
     <path d="M 61.686 241.159167 
L 108.662563 241.159167 
Q 110.662563 241.159167 110.662563 239.159167 
L 110.662563 225.481042 
Q 110.662563 223.481042 108.662563 223.481042 
L 61.686 223.481042 
Q 59.686 223.481042 59.686 225.481042 
L 59.686 239.159167 
Q 59.686 241.159167 61.686 241.159167 
z
" style="fill: #ffffff; opacity: 0.8; stroke: #cccccc; stroke-linejoin: miter"/>
    </g>
    <g id="patch_32">
     <path d="M 63.686 235.079479 
L 83.686 235.079479 
L 83.686 228.079479 
L 63.686 228.079479 
z
" style="fill: #daa520; opacity: 0.5; stroke: #daa520; stroke-width: 1.5; stroke-linejoin: miter"/>
    </g>
    <g id="text_36">
     <!-- MS -->
     <g transform="translate(91.686 235.079479)scale(0.1 -0.1)">
      <use xlink:href="#DejaVuSans-4d"/>
      <use xlink:href="#DejaVuSans-53" x="86.279297"/>
     </g>
    </g>
   </g>
  </g>
  <g id="axes_4">
   <g id="patch_33">
    <path d="M 599.438357 205.044323 
L 599.438357 205.044323 
L 599.438357 67.994844 
L 599.438357 67.994844 
z
" clip-path="url(#pf69a9eefc0)" style="fill: #696969; opacity: 0.5; stroke: #696969; stroke-width: 1.5; stroke-linejoin: miter"/>
   </g>
   <g id="legend_4">
    <g id="patch_34">
     <path d="M 1083.88325 241.159167 
L 1137.402 241.159167 
Q 1139.402 241.159167 1139.402 239.159167 
L 1139.402 225.481042 
Q 1139.402 223.481042 1137.402 223.481042 
L 1083.88325 223.481042 
Q 1081.88325 223.481042 1081.88325 225.481042 
L 1081.88325 239.159167 
Q 1081.88325 241.159167 1083.88325 241.159167 
z
" style="fill: #ffffff; opacity: 0.8; stroke: #cccccc; stroke-linejoin: miter"/>
    </g>
    <g id="patch_35">
     <path d="M 1085.88325 235.079479 
L 1105.88325 235.079479 
L 1105.88325 228.079479 
L 1085.88325 228.079479 
z
" style="fill: #696969; opacity: 0.5; stroke: #696969; stroke-width: 1.5; stroke-linejoin: miter"/>
    </g>
    <g id="text_37">
     <!-- BPM -->
     <g transform="translate(1113.88325 235.079479)scale(0.1 -0.1)">
      <defs>
       <path id="DejaVuSans-50" d="M 1259 4147 
L 1259 2394 
L 2053 2394 
Q 2494 2394 2734 2622 
Q 2975 2850 2975 3272 
Q 2975 3691 2734 3919 
Q 2494 4147 2053 4147 
L 1259 4147 
z
M 628 4666 
L 2053 4666 
Q 2838 4666 3239 4311 
Q 3641 3956 3641 3272 
Q 3641 2581 3239 2228 
Q 2838 1875 2053 1875 
L 1259 1875 
L 1259 0 
L 628 0 
L 628 4666 
z
" transform="scale(0.015625)"/>
      </defs>
      <use xlink:href="#DejaVuSans-42"/>
      <use xlink:href="#DejaVuSans-50" x="68.603516"/>
      <use xlink:href="#DejaVuSans-4d" x="128.90625"/>
     </g>
    </g>
   </g>
  </g>
  <g id="axes_5">
   <g id="patch_36">
    <path d="M 54.686 748.3975 
L 1144.402 748.3975 
L 1144.402 277.999167 
L 54.686 277.999167 
z
" style="fill: #ffffff"/>
   </g>
   <g id="matplotlib.axis_5">
    <g id="xtick_6">
     <g id="line2d_28">
      <g>
       <use xlink:href="#mf49925156f" x="212.837667" y="748.3975" style="stroke: #000000; stroke-width: 0.8"/>
      </g>
     </g>
     <g id="text_38">
      <!-- 14100 -->
      <g transform="translate(196.931417 762.995937)scale(0.1 -0.1)">
       <use xlink:href="#DejaVuSans-31"/>
       <use xlink:href="#DejaVuSans-34" x="63.623047"/>
       <use xlink:href="#DejaVuSans-31" x="127.246094"/>
       <use xlink:href="#DejaVuSans-30" x="190.869141"/>
       <use xlink:href="#DejaVuSans-30" x="254.492188"/>
      </g>
     </g>
    </g>
    <g id="xtick_7">
     <g id="line2d_29">
      <g>
       <use xlink:href="#mf49925156f" x="416.904333" y="748.3975" style="stroke: #000000; stroke-width: 0.8"/>
      </g>
     </g>
     <g id="text_39">
      <!-- 14120 -->
      <g transform="translate(400.998083 762.995937)scale(0.1 -0.1)">
       <use xlink:href="#DejaVuSans-31"/>
       <use xlink:href="#DejaVuSans-34" x="63.623047"/>
       <use xlink:href="#DejaVuSans-31" x="127.246094"/>
       <use xlink:href="#DejaVuSans-32" x="190.869141"/>
       <use xlink:href="#DejaVuSans-30" x="254.492188"/>
      </g>
     </g>
    </g>
    <g id="xtick_8">
     <g id="line2d_30">
      <g>
       <use xlink:href="#mf49925156f" x="620.971" y="748.3975" style="stroke: #000000; stroke-width: 0.8"/>
      </g>
     </g>
     <g id="text_40">
      <!-- 14140 -->
      <g transform="translate(605.06475 762.995937)scale(0.1 -0.1)">
       <use xlink:href="#DejaVuSans-31"/>
       <use xlink:href="#DejaVuSans-34" x="63.623047"/>
       <use xlink:href="#DejaVuSans-31" x="127.246094"/>
       <use xlink:href="#DejaVuSans-34" x="190.869141"/>
       <use xlink:href="#DejaVuSans-30" x="254.492188"/>
      </g>
     </g>
    </g>
    <g id="xtick_9">
     <g id="line2d_31">
      <g>
       <use xlink:href="#mf49925156f" x="825.037667" y="748.3975" style="stroke: #000000; stroke-width: 0.8"/>
      </g>
     </g>
     <g id="text_41">
      <!-- 14160 -->
      <g transform="translate(809.131417 762.995937)scale(0.1 -0.1)">
       <use xlink:href="#DejaVuSans-31"/>
       <use xlink:href="#DejaVuSans-34" x="63.623047"/>
       <use xlink:href="#DejaVuSans-31" x="127.246094"/>
       <use xlink:href="#DejaVuSans-36" x="190.869141"/>
       <use xlink:href="#DejaVuSans-30" x="254.492188"/>
      </g>
     </g>
    </g>
    <g id="xtick_10">
     <g id="line2d_32">
      <g>
       <use xlink:href="#mf49925156f" x="1029.104333" y="748.3975" style="stroke: #000000; stroke-width: 0.8"/>
      </g>
     </g>
     <g id="text_42">
      <!-- 14180 -->
      <g transform="translate(1013.198083 762.995937)scale(0.1 -0.1)">
       <use xlink:href="#DejaVuSans-31"/>
       <use xlink:href="#DejaVuSans-34" x="63.623047"/>
       <use xlink:href="#DejaVuSans-31" x="127.246094"/>
       <use xlink:href="#DejaVuSans-38" x="190.869141"/>
       <use xlink:href="#DejaVuSans-30" x="254.492188"/>
      </g>
     </g>
    </g>
    <g id="text_43">
     <!-- $S$ $[m]$ -->
     <g transform="translate(585.994 776.674062)scale(0.1 -0.1)">
      <defs>
       <path id="DejaVuSans-Oblique-53" d="M 3859 4513 
L 3738 3897 
Q 3422 4066 3111 4152 
Q 2800 4238 2509 4238 
Q 1944 4238 1609 3991 
Q 1275 3744 1275 3334 
Q 1275 3109 1398 2989 
Q 1522 2869 2034 2731 
L 2413 2638 
Q 3053 2472 3303 2217 
Q 3553 1963 3553 1503 
Q 3553 797 2998 353 
Q 2444 -91 1538 -91 
Q 1166 -91 791 -17 
Q 416 56 38 206 
L 166 856 
Q 513 641 861 531 
Q 1209 422 1556 422 
Q 2147 422 2503 684 
Q 2859 947 2859 1369 
Q 2859 1650 2717 1795 
Q 2575 1941 2106 2059 
L 1728 2156 
Q 1081 2325 845 2545 
Q 609 2766 609 3163 
Q 609 3859 1145 4304 
Q 1681 4750 2541 4750 
Q 2875 4750 3203 4690 
Q 3531 4631 3859 4513 
z
" transform="scale(0.015625)"/>
      </defs>
      <use xlink:href="#DejaVuSans-Oblique-53" transform="translate(0 0.015625)"/>
      <use xlink:href="#DejaVuSans-20" transform="translate(63.476562 0.015625)"/>
      <use xlink:href="#DejaVuSans-5b" transform="translate(95.263672 0.015625)"/>
      <use xlink:href="#DejaVuSans-Oblique-6d" transform="translate(134.277344 0.015625)"/>
      <use xlink:href="#DejaVuSans-5d" transform="translate(231.689453 0.015625)"/>
     </g>
    </g>
   </g>
   <g id="matplotlib.axis_6">
    <g id="ytick_22">
     <g id="line2d_33">
      <g>
       <use xlink:href="#m0ed10f723d" x="54.686" y="748.3975" style="stroke: #000000; stroke-width: 0.8"/>
      </g>
     </g>
     <g id="text_44">
      <!-- 0 -->
      <g transform="translate(41.3235 752.196719)scale(0.1 -0.1)">
       <use xlink:href="#DejaVuSans-30"/>
      </g>
     </g>
    </g>
    <g id="ytick_23">
     <g id="line2d_34">
      <g>
       <use xlink:href="#m0ed10f723d" x="54.686" y="689.597708" style="stroke: #000000; stroke-width: 0.8"/>
      </g>
     </g>
     <g id="text_45">
      <!-- 25 -->
      <g transform="translate(34.961 693.396927)scale(0.1 -0.1)">
       <defs>
        <path id="DejaVuSans-35" d="M 691 4666 
L 3169 4666 
L 3169 4134 
L 1269 4134 
L 1269 2991 
Q 1406 3038 1543 3061 
Q 1681 3084 1819 3084 
Q 2600 3084 3056 2656 
Q 3513 2228 3513 1497 
Q 3513 744 3044 326 
Q 2575 -91 1722 -91 
Q 1428 -91 1123 -41 
Q 819 9 494 109 
L 494 744 
Q 775 591 1075 516 
Q 1375 441 1709 441 
Q 2250 441 2565 725 
Q 2881 1009 2881 1497 
Q 2881 1984 2565 2268 
Q 2250 2553 1709 2553 
Q 1456 2553 1204 2497 
Q 953 2441 691 2322 
L 691 4666 
z
" transform="scale(0.015625)"/>
       </defs>
       <use xlink:href="#DejaVuSans-32"/>
       <use xlink:href="#DejaVuSans-35" x="63.623047"/>
      </g>
     </g>
    </g>
    <g id="ytick_24">
     <g id="line2d_35">
      <g>
       <use xlink:href="#m0ed10f723d" x="54.686" y="630.797917" style="stroke: #000000; stroke-width: 0.8"/>
      </g>
     </g>
     <g id="text_46">
      <!-- 50 -->
      <g transform="translate(34.961 634.597135)scale(0.1 -0.1)">
       <use xlink:href="#DejaVuSans-35"/>
       <use xlink:href="#DejaVuSans-30" x="63.623047"/>
      </g>
     </g>
    </g>
    <g id="ytick_25">
     <g id="line2d_36">
      <g>
       <use xlink:href="#m0ed10f723d" x="54.686" y="571.998125" style="stroke: #000000; stroke-width: 0.8"/>
      </g>
     </g>
     <g id="text_47">
      <!-- 75 -->
      <g transform="translate(34.961 575.797344)scale(0.1 -0.1)">
       <defs>
        <path id="DejaVuSans-37" d="M 525 4666 
L 3525 4666 
L 3525 4397 
L 1831 0 
L 1172 0 
L 2766 4134 
L 525 4134 
L 525 4666 
z
" transform="scale(0.015625)"/>
       </defs>
       <use xlink:href="#DejaVuSans-37"/>
       <use xlink:href="#DejaVuSans-35" x="63.623047"/>
      </g>
     </g>
    </g>
    <g id="ytick_26">
     <g id="line2d_37">
      <g>
       <use xlink:href="#m0ed10f723d" x="54.686" y="513.198333" style="stroke: #000000; stroke-width: 0.8"/>
      </g>
     </g>
     <g id="text_48">
      <!-- 100 -->
      <g transform="translate(28.5985 516.997552)scale(0.1 -0.1)">
       <use xlink:href="#DejaVuSans-31"/>
       <use xlink:href="#DejaVuSans-30" x="63.623047"/>
       <use xlink:href="#DejaVuSans-30" x="127.246094"/>
      </g>
     </g>
    </g>
    <g id="ytick_27">
     <g id="line2d_38">
      <g>
       <use xlink:href="#m0ed10f723d" x="54.686" y="454.398542" style="stroke: #000000; stroke-width: 0.8"/>
      </g>
     </g>
     <g id="text_49">
      <!-- 125 -->
      <g transform="translate(28.5985 458.19776)scale(0.1 -0.1)">
       <use xlink:href="#DejaVuSans-31"/>
       <use xlink:href="#DejaVuSans-32" x="63.623047"/>
       <use xlink:href="#DejaVuSans-35" x="127.246094"/>
      </g>
     </g>
    </g>
    <g id="ytick_28">
     <g id="line2d_39">
      <g>
       <use xlink:href="#m0ed10f723d" x="54.686" y="395.59875" style="stroke: #000000; stroke-width: 0.8"/>
      </g>
     </g>
     <g id="text_50">
      <!-- 150 -->
      <g transform="translate(28.5985 399.397969)scale(0.1 -0.1)">
       <use xlink:href="#DejaVuSans-31"/>
       <use xlink:href="#DejaVuSans-35" x="63.623047"/>
       <use xlink:href="#DejaVuSans-30" x="127.246094"/>
      </g>
     </g>
    </g>
    <g id="ytick_29">
     <g id="line2d_40">
      <g>
       <use xlink:href="#m0ed10f723d" x="54.686" y="336.798958" style="stroke: #000000; stroke-width: 0.8"/>
      </g>
     </g>
     <g id="text_51">
      <!-- 175 -->
      <g transform="translate(28.5985 340.598177)scale(0.1 -0.1)">
       <use xlink:href="#DejaVuSans-31"/>
       <use xlink:href="#DejaVuSans-37" x="63.623047"/>
       <use xlink:href="#DejaVuSans-35" x="127.246094"/>
      </g>
     </g>
    </g>
    <g id="ytick_30">
     <g id="line2d_41">
      <g>
       <use xlink:href="#m0ed10f723d" x="54.686" y="277.999167" style="stroke: #000000; stroke-width: 0.8"/>
      </g>
     </g>
     <g id="text_52">
      <!-- 200 -->
      <g transform="translate(28.5985 281.798385)scale(0.1 -0.1)">
       <use xlink:href="#DejaVuSans-32"/>
       <use xlink:href="#DejaVuSans-30" x="63.623047"/>
       <use xlink:href="#DejaVuSans-30" x="127.246094"/>
      </g>
     </g>
    </g>
    <g id="text_53">
     <!-- $\beta_{x,y}$ $[m]$ -->
     <g transform="translate(21.4985 532.848333)rotate(-90)scale(0.1 -0.1)">
      <defs>
       <path id="DejaVuSans-Oblique-3b2" d="M 872 216 
L 572 -1331 
L -6 -1331 
L 928 3478 
Q 1206 4903 2538 4903 
Q 3888 4903 3659 3700 
Q 3503 2844 2894 2531 
Q 3713 2250 3553 1416 
Q 3272 -69 1759 -66 
Q 1097 -63 872 216 
z
M 1019 966 
Q 1259 422 1875 425 
Q 2775 425 2966 1406 
Q 3138 2288 1675 2219 
L 1778 2750 
Q 2909 2731 3106 3750 
Q 3241 4438 2509 4434 
Q 1691 4434 1503 3459 
L 1019 966 
z
" transform="scale(0.015625)"/>
       <path id="DejaVuSans-Oblique-78" d="M 3841 3500 
L 2234 1784 
L 3219 0 
L 2559 0 
L 1819 1388 
L 531 0 
L -166 0 
L 1556 1844 
L 641 3500 
L 1300 3500 
L 1972 2234 
L 3144 3500 
L 3841 3500 
z
" transform="scale(0.015625)"/>
       <path id="DejaVuSans-Oblique-79" d="M 1588 -325 
Q 1188 -997 936 -1164 
Q 684 -1331 294 -1331 
L -159 -1331 
L -63 -850 
L 269 -850 
Q 509 -850 678 -719 
Q 847 -588 1056 -206 
L 1234 128 
L 459 3500 
L 1069 3500 
L 1650 819 
L 3256 3500 
L 3859 3500 
L 1588 -325 
z
" transform="scale(0.015625)"/>
      </defs>
      <use xlink:href="#DejaVuSans-Oblique-3b2" transform="translate(0 0.390625)"/>
      <use xlink:href="#DejaVuSans-Oblique-78" transform="translate(63.818359 -16.015625)scale(0.7)"/>
      <use xlink:href="#DejaVuSans-2c" transform="translate(105.244141 -16.015625)scale(0.7)"/>
      <use xlink:href="#DejaVuSans-Oblique-79" transform="translate(141.132812 -16.015625)scale(0.7)"/>
      <use xlink:href="#DejaVuSans-20" transform="translate(185.292969 0.390625)"/>
      <use xlink:href="#DejaVuSans-5b" transform="translate(217.080078 0.390625)"/>
      <use xlink:href="#DejaVuSans-Oblique-6d" transform="translate(256.09375 0.390625)"/>
      <use xlink:href="#DejaVuSans-5d" transform="translate(353.505859 0.390625)"/>
     </g>
    </g>
   </g>
   <g id="line2d_42">
    <path d="M 60.115828 336.062407 
L 63.380895 332.395277 
L 66.421488 328.993477 
L 98.051821 329.002791 
L 99.689456 330.837917 
L 103.454486 335.03915 
L 104.32177 336.00339 
L 110.923326 343.299706 
L 118.754385 351.855781 
L 118.754385 351.855781 
L 118.76969 351.872397 
L 118.76969 351.872397 
L 122.185228 355.570368 
L 268.092895 494.439873 
L 270.329949 496.278401 
L 271.452316 497.197513 
L 281.974476 505.706668 
L 427.882143 603.680688 
L 430.119196 604.892113 
L 431.241563 605.496596 
L 438.33288 609.264725 
L 438.33288 609.264725 
L 438.348185 609.272762 
L 438.348185 609.272762 
L 441.763724 611.056104 
L 587.67139 668.123475 
L 589.908444 668.70766 
L 591.030811 668.997447 
L 599.438357 671.097903 
L 599.438357 671.097903 
L 605.499137 672.535119 
L 608.764204 673.275453 
L 611.804797 673.941463 
L 643.435131 673.763603 
L 645.072766 673.38792 
L 648.837796 672.506177 
L 649.705079 672.299506 
L 656.306636 670.682688 
L 667.568538 667.746239 
L 813.476205 609.386651 
L 815.713258 608.198312 
L 816.835625 607.598763 
L 823.926942 603.759096 
L 823.926942 603.759096 
L 823.942247 603.750713 
L 823.942247 603.750713 
L 827.357785 601.869448 
L 973.265452 502.207087 
L 975.502506 500.385567 
L 976.624873 499.46834 
L 987.147033 490.760826 
L 1133.0547 349.807047 
L 1135.291753 347.352554 
L 1136.41412 346.117755 
" clip-path="url(#p4967d8c6ad)" style="fill: none; stroke: #1f77b4; stroke-width: 2; stroke-linecap: square"/>
   </g>
   <g id="line2d_43">
    <path d="M 60.115828 674.332755 
L 63.380895 675.060452 
L 66.421488 675.715759 
L 98.051821 675.618407 
L 99.689456 675.257118 
L 103.454486 674.408285 
L 104.32177 674.209159 
L 110.923326 672.649321 
L 118.754385 670.69781 
L 118.754385 670.69781 
L 118.76969 670.693888 
L 118.76969 670.693888 
L 122.185228 669.808255 
L 268.092895 612.47377 
L 270.329949 611.298085 
L 271.452316 610.70485 
L 281.974476 605.033613 
L 427.882143 505.962854 
L 430.119196 504.147269 
L 431.241563 503.232986 
L 438.33288 497.404241 
L 438.33288 497.404241 
L 438.348185 497.391564 
L 438.348185 497.391564 
L 441.763724 494.551929 
L 587.67139 353.744896 
L 589.908444 351.289411 
L 591.030811 350.054079 
L 599.438357 340.728604 
L 599.438357 340.728604 
L 605.499137 333.927625 
L 608.764204 330.276389 
L 611.804797 326.896641 
L 643.435131 327.66344 
L 645.072766 329.562682 
L 648.837796 333.910294 
L 649.705079 334.90805 
L 656.306636 342.456996 
L 667.568538 355.148485 
L 813.476205 498.305871 
L 815.713258 500.193346 
L 816.835625 501.136826 
L 823.926942 507.043873 
L 823.926942 507.043873 
L 823.942247 507.056522 
L 823.942247 507.056522 
L 827.357785 509.868271 
L 973.265452 609.772936 
L 975.502506 610.997261 
L 976.624873 611.608028 
L 987.147033 617.220294 
L 1133.0547 673.872239 
L 1135.291753 674.433414 
L 1136.41412 674.711467 
" clip-path="url(#p4967d8c6ad)" style="fill: none; stroke: #ff7f0e; stroke-width: 2; stroke-linecap: square"/>
   </g>
   <g id="patch_37">
    <path d="M 54.686 748.3975 
L 54.686 277.999167 
" style="fill: none; stroke: #000000; stroke-width: 0.8; stroke-linejoin: miter; stroke-linecap: square"/>
   </g>
   <g id="patch_38">
    <path d="M 1144.402 748.3975 
L 1144.402 277.999167 
" style="fill: none; stroke: #000000; stroke-width: 0.8; stroke-linejoin: miter; stroke-linecap: square"/>
   </g>
   <g id="patch_39">
    <path d="M 54.686 748.3975 
L 1144.402 748.3975 
" style="fill: none; stroke: #000000; stroke-width: 0.8; stroke-linejoin: miter; stroke-linecap: square"/>
   </g>
   <g id="patch_40">
    <path d="M 54.686 277.999167 
L 1144.402 277.999167 
" style="fill: none; stroke: #000000; stroke-width: 0.8; stroke-linejoin: miter; stroke-linecap: square"/>
   </g>
   <g id="legend_5">
    <g id="patch_41">
     <path d="M 61.686 316.599167 
L 104.486 316.599167 
Q 106.486 316.599167 106.486 314.599167 
L 106.486 284.999167 
Q 106.486 282.999167 104.486 282.999167 
L 61.686 282.999167 
Q 59.686 282.999167 59.686 284.999167 
L 59.686 314.599167 
Q 59.686 316.599167 61.686 316.599167 
z
" style="fill: #ffffff; opacity: 0.8; stroke: #cccccc; stroke-linejoin: miter"/>
    </g>
    <g id="line2d_44">
     <path d="M 63.686 291.199167 
L 73.686 291.199167 
L 83.686 291.199167 
" style="fill: none; stroke: #1f77b4; stroke-width: 2; stroke-linecap: square"/>
    </g>
    <g id="text_54">
     <!-- $\beta_x$ -->
     <g transform="translate(91.686 294.699167)scale(0.1 -0.1)">
      <use xlink:href="#DejaVuSans-Oblique-3b2" transform="translate(0 0.390625)"/>
      <use xlink:href="#DejaVuSans-Oblique-78" transform="translate(63.818359 -16.015625)scale(0.7)"/>
     </g>
    </g>
    <g id="line2d_45">
     <path d="M 63.686 305.999167 
L 73.686 305.999167 
L 83.686 305.999167 
" style="fill: none; stroke: #ff7f0e; stroke-width: 2; stroke-linecap: square"/>
    </g>
    <g id="text_55">
     <!-- $\beta_y$ -->
     <g transform="translate(91.686 309.499167)scale(0.1 -0.1)">
      <use xlink:href="#DejaVuSans-Oblique-3b2" transform="translate(0 0.390625)"/>
      <use xlink:href="#DejaVuSans-Oblique-79" transform="translate(63.818359 -16.015625)scale(0.7)"/>
     </g>
    </g>
   </g>
  </g>
  <g id="axes_6">
   <g id="matplotlib.axis_7">
    <g id="ytick_31">
     <g id="line2d_46">
      <g>
       <use xlink:href="#m68e2347111" x="1144.402" y="736.92437" style="stroke: #000000; stroke-width: 0.8"/>
      </g>
     </g>
     <g id="text_56">
      <!-- 0.0 -->
      <g style="fill: #a52a2a" transform="translate(1151.402 740.723589)scale(0.1 -0.1)">
       <defs>
        <path id="DejaVuSans-2e" d="M 684 794 
L 1344 794 
L 1344 0 
L 684 0 
L 684 794 
z
" transform="scale(0.015625)"/>
       </defs>
       <use xlink:href="#DejaVuSans-30"/>
       <use xlink:href="#DejaVuSans-2e" x="63.623047"/>
       <use xlink:href="#DejaVuSans-30" x="95.410156"/>
      </g>
     </g>
    </g>
    <g id="ytick_32">
     <g id="line2d_47">
      <g>
       <use xlink:href="#m68e2347111" x="1144.402" y="679.55872" style="stroke: #000000; stroke-width: 0.8"/>
      </g>
     </g>
     <g id="text_57">
      <!-- 2.5 -->
      <g style="fill: #a52a2a" transform="translate(1151.402 683.357938)scale(0.1 -0.1)">
       <use xlink:href="#DejaVuSans-32"/>
       <use xlink:href="#DejaVuSans-2e" x="63.623047"/>
       <use xlink:href="#DejaVuSans-35" x="95.410156"/>
      </g>
     </g>
    </g>
    <g id="ytick_33">
     <g id="line2d_48">
      <g>
       <use xlink:href="#m68e2347111" x="1144.402" y="622.193069" style="stroke: #000000; stroke-width: 0.8"/>
      </g>
     </g>
     <g id="text_58">
      <!-- 5.0 -->
      <g style="fill: #a52a2a" transform="translate(1151.402 625.992288)scale(0.1 -0.1)">
       <use xlink:href="#DejaVuSans-35"/>
       <use xlink:href="#DejaVuSans-2e" x="63.623047"/>
       <use xlink:href="#DejaVuSans-30" x="95.410156"/>
      </g>
     </g>
    </g>
    <g id="ytick_34">
     <g id="line2d_49">
      <g>
       <use xlink:href="#m68e2347111" x="1144.402" y="564.827419" style="stroke: #000000; stroke-width: 0.8"/>
      </g>
     </g>
     <g id="text_59">
      <!-- 7.5 -->
      <g style="fill: #a52a2a" transform="translate(1151.402 568.626637)scale(0.1 -0.1)">
       <use xlink:href="#DejaVuSans-37"/>
       <use xlink:href="#DejaVuSans-2e" x="63.623047"/>
       <use xlink:href="#DejaVuSans-35" x="95.410156"/>
      </g>
     </g>
    </g>
    <g id="ytick_35">
     <g id="line2d_50">
      <g>
       <use xlink:href="#m68e2347111" x="1144.402" y="507.461768" style="stroke: #000000; stroke-width: 0.8"/>
      </g>
     </g>
     <g id="text_60">
      <!-- 10.0 -->
      <g style="fill: #a52a2a" transform="translate(1151.402 511.260987)scale(0.1 -0.1)">
       <use xlink:href="#DejaVuSans-31"/>
       <use xlink:href="#DejaVuSans-30" x="63.623047"/>
       <use xlink:href="#DejaVuSans-2e" x="127.246094"/>
       <use xlink:href="#DejaVuSans-30" x="159.033203"/>
      </g>
     </g>
    </g>
    <g id="ytick_36">
     <g id="line2d_51">
      <g>
       <use xlink:href="#m68e2347111" x="1144.402" y="450.096118" style="stroke: #000000; stroke-width: 0.8"/>
      </g>
     </g>
     <g id="text_61">
      <!-- 12.5 -->
      <g style="fill: #a52a2a" transform="translate(1151.402 453.895337)scale(0.1 -0.1)">
       <use xlink:href="#DejaVuSans-31"/>
       <use xlink:href="#DejaVuSans-32" x="63.623047"/>
       <use xlink:href="#DejaVuSans-2e" x="127.246094"/>
       <use xlink:href="#DejaVuSans-35" x="159.033203"/>
      </g>
     </g>
    </g>
    <g id="ytick_37">
     <g id="line2d_52">
      <g>
       <use xlink:href="#m68e2347111" x="1144.402" y="392.730467" style="stroke: #000000; stroke-width: 0.8"/>
      </g>
     </g>
     <g id="text_62">
      <!-- 15.0 -->
      <g style="fill: #a52a2a" transform="translate(1151.402 396.529686)scale(0.1 -0.1)">
       <use xlink:href="#DejaVuSans-31"/>
       <use xlink:href="#DejaVuSans-35" x="63.623047"/>
       <use xlink:href="#DejaVuSans-2e" x="127.246094"/>
       <use xlink:href="#DejaVuSans-30" x="159.033203"/>
      </g>
     </g>
    </g>
    <g id="ytick_38">
     <g id="line2d_53">
      <g>
       <use xlink:href="#m68e2347111" x="1144.402" y="335.364817" style="stroke: #000000; stroke-width: 0.8"/>
      </g>
     </g>
     <g id="text_63">
      <!-- 17.5 -->
      <g style="fill: #a52a2a" transform="translate(1151.402 339.164036)scale(0.1 -0.1)">
       <use xlink:href="#DejaVuSans-31"/>
       <use xlink:href="#DejaVuSans-37" x="63.623047"/>
       <use xlink:href="#DejaVuSans-2e" x="127.246094"/>
       <use xlink:href="#DejaVuSans-35" x="159.033203"/>
      </g>
     </g>
    </g>
    <g id="ytick_39">
     <g id="line2d_54">
      <g>
       <use xlink:href="#m68e2347111" x="1144.402" y="277.999167" style="stroke: #000000; stroke-width: 0.8"/>
      </g>
     </g>
     <g id="text_64">
      <!-- 20.0 -->
      <g style="fill: #a52a2a" transform="translate(1151.402 281.798385)scale(0.1 -0.1)">
       <use xlink:href="#DejaVuSans-32"/>
       <use xlink:href="#DejaVuSans-30" x="63.623047"/>
       <use xlink:href="#DejaVuSans-2e" x="127.246094"/>
       <use xlink:href="#DejaVuSans-30" x="159.033203"/>
      </g>
     </g>
    </g>
    <g id="text_65">
     <!-- $D_{x,y}$ $[m]$ -->
     <g style="fill: #a52a2a" transform="translate(1185.267625 533.498333)rotate(-90)scale(0.1 -0.1)">
      <defs>
       <path id="DejaVuSans-Oblique-44" d="M 1081 4666 
L 2438 4666 
Q 3519 4666 4070 4208 
Q 4622 3750 4622 2847 
Q 4622 2250 4412 1698 
Q 4203 1147 3834 769 
Q 3463 381 2891 190 
Q 2319 0 1538 0 
L 172 0 
L 1081 4666 
z
M 1613 4147 
L 909 519 
L 1734 519 
Q 2794 519 3375 1128 
Q 3956 1738 3956 2847 
Q 3956 3519 3581 3833 
Q 3206 4147 2406 4147 
L 1613 4147 
z
" transform="scale(0.015625)"/>
      </defs>
      <use xlink:href="#DejaVuSans-Oblique-44" transform="translate(0 0.015625)"/>
      <use xlink:href="#DejaVuSans-Oblique-78" transform="translate(77.001953 -16.390625)scale(0.7)"/>
      <use xlink:href="#DejaVuSans-2c" transform="translate(118.427734 -16.390625)scale(0.7)"/>
      <use xlink:href="#DejaVuSans-Oblique-79" transform="translate(154.316406 -16.390625)scale(0.7)"/>
      <use xlink:href="#DejaVuSans-20" transform="translate(198.476562 0.015625)"/>
      <use xlink:href="#DejaVuSans-5b" transform="translate(230.263672 0.015625)"/>
      <use xlink:href="#DejaVuSans-Oblique-6d" transform="translate(269.277344 0.015625)"/>
      <use xlink:href="#DejaVuSans-5d" transform="translate(366.689453 0.015625)"/>
     </g>
    </g>
   </g>
   <g id="line2d_55">
    <path d="M 60.115828 688.770614 
L 63.380895 688.559852 
L 66.421488 688.365333 
L 98.051821 688.402563 
L 99.689456 688.511158 
L 103.454486 688.760823 
L 104.32177 688.818335 
L 110.923326 689.256095 
L 118.754385 689.775386 
L 118.754385 689.775386 
L 118.76969 689.776401 
L 118.76969 689.776401 
L 122.185228 690.002891 
L 268.092895 698.842117 
L 270.329949 698.964819 
L 271.452316 699.026381 
L 281.974476 699.603521 
L 427.882143 706.770264 
L 430.119196 706.867322 
L 431.241563 706.916018 
L 438.33288 707.223685 
L 438.33288 707.223685 
L 438.348185 707.224349 
L 438.348185 707.224349 
L 441.763724 707.372538 
L 587.67139 712.866594 
L 589.908444 712.938005 
L 591.030811 712.973833 
L 599.438357 713.242219 
L 599.438357 713.242219 
L 605.499137 713.435691 
L 608.764204 713.538797 
L 611.804797 713.633773 
L 643.435131 713.637303 
L 645.072766 713.586518 
L 648.837796 713.46976 
L 649.705079 713.442865 
L 656.306636 713.238143 
L 667.568538 712.888899 
L 813.476205 707.527738 
L 815.713258 707.432717 
L 816.835625 707.385044 
L 823.926942 707.083835 
L 823.926942 707.083835 
L 823.942247 707.083185 
L 823.942247 707.083185 
L 827.357785 706.938107 
L 973.265452 699.904256 
L 975.502506 699.783591 
L 976.624873 699.723051 
L 987.147033 699.155495 
L 1133.0547 690.449152 
L 1135.291753 690.302847 
L 1136.41412 690.229443 
" clip-path="url(#p4967d8c6ad)" style="fill: none; stroke: #a52a2a; stroke-width: 2; stroke-linecap: square"/>
   </g>
   <g id="line2d_56">
    <path d="M 60.115828 736.92437 
L 63.380895 736.92437 
L 66.421488 736.92437 
L 98.051821 736.92437 
L 99.689456 736.92437 
L 103.454486 736.92437 
L 104.32177 736.92437 
L 110.923326 736.92437 
L 118.754385 736.92437 
L 118.754385 736.92437 
L 118.76969 736.92437 
L 118.76969 736.92437 
L 122.185228 736.92437 
L 268.092895 736.92437 
L 270.329949 736.92437 
L 271.452316 736.92437 
L 281.974476 736.92437 
L 427.882143 736.92437 
L 430.119196 736.92437 
L 431.241563 736.92437 
L 438.33288 736.92437 
L 438.33288 736.92437 
L 438.348185 736.92437 
L 438.348185 736.92437 
L 441.763724 736.92437 
L 587.67139 736.92437 
L 589.908444 736.92437 
L 591.030811 736.92437 
L 599.438357 736.92437 
L 599.438357 736.92437 
L 605.499137 736.92437 
L 608.764204 736.92437 
L 611.804797 736.92437 
L 643.435131 736.92437 
L 645.072766 736.92437 
L 648.837796 736.92437 
L 649.705079 736.92437 
L 656.306636 736.92437 
L 667.568538 736.92437 
L 813.476205 736.92437 
L 815.713258 736.92437 
L 816.835625 736.92437 
L 823.926942 736.92437 
L 823.926942 736.92437 
L 823.942247 736.92437 
L 823.942247 736.92437 
L 827.357785 736.92437 
L 973.265452 736.92437 
L 975.502506 736.92437 
L 976.624873 736.92437 
L 987.147033 736.92437 
L 1133.0547 736.92437 
L 1135.291753 736.92437 
L 1136.41412 736.92437 
" clip-path="url(#p4967d8c6ad)" style="fill: none; stroke-dasharray: 12.8,3.2,2,3.2; stroke-dashoffset: 0; stroke: #a0522d; stroke-width: 2"/>
   </g>
   <g id="patch_42">
    <path d="M 54.686 748.3975 
L 54.686 277.999167 
" style="fill: none; stroke: #000000; stroke-width: 0.8; stroke-linejoin: miter; stroke-linecap: square"/>
   </g>
   <g id="patch_43">
    <path d="M 1144.402 748.3975 
L 1144.402 277.999167 
" style="fill: none; stroke: #000000; stroke-width: 0.8; stroke-linejoin: miter; stroke-linecap: square"/>
   </g>
   <g id="patch_44">
    <path d="M 54.686 748.3975 
L 1144.402 748.3975 
" style="fill: none; stroke: #000000; stroke-width: 0.8; stroke-linejoin: miter; stroke-linecap: square"/>
   </g>
   <g id="patch_45">
    <path d="M 54.686 277.999167 
L 1144.402 277.999167 
" style="fill: none; stroke: #000000; stroke-width: 0.8; stroke-linejoin: miter; stroke-linecap: square"/>
   </g>
   <g id="legend_6">
    <g id="patch_46">
     <path d="M 1093.202 316.375729 
L 1137.402 316.375729 
Q 1139.402 316.375729 1139.402 314.375729 
L 1139.402 284.999167 
Q 1139.402 282.999167 1137.402 282.999167 
L 1093.202 282.999167 
Q 1091.202 282.999167 1091.202 284.999167 
L 1091.202 314.375729 
Q 1091.202 316.375729 1093.202 316.375729 
z
" style="fill: #ffffff; opacity: 0.8; stroke: #cccccc; stroke-linejoin: miter"/>
    </g>
    <g id="line2d_57">
     <path d="M 1095.202 291.097604 
L 1105.202 291.097604 
L 1115.202 291.097604 
" style="fill: none; stroke: #a52a2a; stroke-width: 2; stroke-linecap: square"/>
    </g>
    <g id="text_66">
     <!-- $D_x$ -->
     <g transform="translate(1123.202 294.597604)scale(0.1 -0.1)">
      <use xlink:href="#DejaVuSans-Oblique-44" transform="translate(0 0.09375)"/>
      <use xlink:href="#DejaVuSans-Oblique-78" transform="translate(77.001953 -16.3125)scale(0.7)"/>
     </g>
    </g>
    <g id="line2d_58">
     <path d="M 1095.202 305.775729 
L 1105.202 305.775729 
L 1115.202 305.775729 
" style="fill: none; stroke-dasharray: 12.8,3.2,2,3.2; stroke-dashoffset: 0; stroke: #a0522d; stroke-width: 2"/>
    </g>
    <g id="text_67">
     <!-- $D_y$ -->
     <g transform="translate(1123.202 309.275729)scale(0.1 -0.1)">
      <use xlink:href="#DejaVuSans-Oblique-44" transform="translate(0 0.09375)"/>
      <use xlink:href="#DejaVuSans-Oblique-79" transform="translate(77.001953 -16.3125)scale(0.7)"/>
     </g>
    </g>
   </g>
  </g>
 </g>
 <defs>
  <clipPath id="pf69a9eefc0">
   <rect x="54.686" y="26.88" width="1089.716" height="219.279167"/>
  </clipPath>
  <clipPath id="p4967d8c6ad">
   <rect x="54.686" y="277.999167" width="1089.716" height="470.398333"/>
  </clipPath>
 </defs>
</svg>
