<?xml version="1.0" encoding="utf-8" standalone="no"?>
<!DOCTYPE svg PUBLIC "-//W3C//DTD SVG 1.1//EN"
  "http://www.w3.org/Graphics/SVG/1.1/DTD/svg11.dtd">
<svg xmlns:xlink="http://www.w3.org/1999/xlink" width="1440pt" height="864pt" viewBox="0 0 1440 864" xmlns="http://www.w3.org/2000/svg" version="1.1">
 <metadata>
  <rdf:RDF xmlns:dc="http://purl.org/dc/elements/1.1/" xmlns:cc="http://creativecommons.org/ns#" xmlns:rdf="http://www.w3.org/1999/02/22-rdf-syntax-ns#">
   <cc:Work>
    <dc:type rdf:resource="http://purl.org/dc/dcmitype/StillImage"/>
    <dc:date>2022-03-09T18:16:29.464240</dc:date>
    <dc:format>image/svg+xml</dc:format>
    <dc:creator>
     <cc:Agent>
      <dc:title>Matplotlib v3.5.1, https://matplotlib.org/</dc:title>
     </cc:Agent>
    </dc:creator>
   </cc:Work>
  </rdf:RDF>
 </metadata>
 <defs>
  <style type="text/css">*{stroke-linejoin: round; stroke-linecap: butt}</style>
 </defs>
 <g id="figure_1">
  <g id="patch_1">
   <path d="M 0 864 
L 1440 864 
L 1440 0 
L 0 0 
z
" style="fill: #ffffff"/>
  </g>
  <g id="axes_1">
   <g id="patch_2">
    <path d="M 95.590313 828.779375 
L 1421.771543 828.779375 
L 1421.771543 38.075625 
L 95.590313 38.075625 
z
" style="fill: #ffffff"/>
   </g>
   <g id="patch_3">
    <path d="M 155.871278 828.779375 
L 167.927471 828.779375 
L 167.927471 664.438153 
L 155.871278 664.438153 
z
" clip-path="url(#pce0bd9c043)" style="fill: #1f77b4; opacity: 0.6"/>
   </g>
   <g id="patch_4">
    <path d="M 167.927471 828.779375 
L 179.983664 828.779375 
L 179.983664 451.775348 
L 167.927471 451.775348 
z
" clip-path="url(#pce0bd9c043)" style="fill: #1f77b4; opacity: 0.6"/>
   </g>
   <g id="patch_5">
    <path d="M 179.983664 828.779375 
L 192.039857 828.779375 
L 192.039857 274.516475 
L 179.983664 274.516475 
z
" clip-path="url(#pce0bd9c043)" style="fill: #1f77b4; opacity: 0.6"/>
   </g>
   <g id="patch_6">
    <path d="M 192.039857 828.779375 
L 204.09605 828.779375 
L 204.09605 180.7439 
L 192.039857 180.7439 
z
" clip-path="url(#pce0bd9c043)" style="fill: #1f77b4; opacity: 0.6"/>
   </g>
   <g id="patch_7">
    <path d="M 204.09605 828.779375 
L 216.152243 828.779375 
L 216.152243 75.728185 
L 204.09605 75.728185 
z
" clip-path="url(#pce0bd9c043)" style="fill: #1f77b4; opacity: 0.6"/>
   </g>
   <g id="patch_8">
    <path d="M 216.152243 828.779375 
L 228.208436 828.779375 
L 228.208436 129.073297 
L 216.152243 129.073297 
z
" clip-path="url(#pce0bd9c043)" style="fill: #1f77b4; opacity: 0.6"/>
   </g>
   <g id="patch_9">
    <path d="M 228.208436 828.779375 
L 240.264629 828.779375 
L 240.264629 97.736034 
L 228.208436 97.736034 
z
" clip-path="url(#pce0bd9c043)" style="fill: #1f77b4; opacity: 0.6"/>
   </g>
   <g id="patch_10">
    <path d="M 240.264629 828.779375 
L 252.320822 828.779375 
L 252.320822 126.68114 
L 240.264629 126.68114 
z
" clip-path="url(#pce0bd9c043)" style="fill: #1f77b4; opacity: 0.6"/>
   </g>
   <g id="patch_11">
    <path d="M 252.320822 828.779375 
L 264.377015 828.779375 
L 264.377015 141.512517 
L 252.320822 141.512517 
z
" clip-path="url(#pce0bd9c043)" style="fill: #1f77b4; opacity: 0.6"/>
   </g>
   <g id="patch_12">
    <path d="M 264.377015 828.779375 
L 276.433208 828.779375 
L 276.433208 171.892917 
L 264.377015 171.892917 
z
" clip-path="url(#pce0bd9c043)" style="fill: #1f77b4; opacity: 0.6"/>
   </g>
   <g id="patch_13">
    <path d="M 276.433208 828.779375 
L 288.489401 828.779375 
L 288.489401 224.998814 
L 276.433208 224.998814 
z
" clip-path="url(#pce0bd9c043)" style="fill: #1f77b4; opacity: 0.6"/>
   </g>
   <g id="patch_14">
    <path d="M 288.489401 828.779375 
L 300.545594 828.779375 
L 300.545594 272.124318 
L 288.489401 272.124318 
z
" clip-path="url(#pce0bd9c043)" style="fill: #1f77b4; opacity: 0.6"/>
   </g>
   <g id="patch_15">
    <path d="M 300.545594 828.779375 
L 312.601787 828.779375 
L 312.601787 322.12041 
L 300.545594 322.12041 
z
" clip-path="url(#pce0bd9c043)" style="fill: #1f77b4; opacity: 0.6"/>
   </g>
   <g id="patch_16">
    <path d="M 312.601787 828.779375 
L 324.65798 828.779375 
L 324.65798 345.324338 
L 312.601787 345.324338 
z
" clip-path="url(#pce0bd9c043)" style="fill: #1f77b4; opacity: 0.6"/>
   </g>
   <g id="patch_17">
    <path d="M 324.65798 828.779375 
L 336.714173 828.779375 
L 336.714173 384.794937 
L 324.65798 384.794937 
z
" clip-path="url(#pce0bd9c043)" style="fill: #1f77b4; opacity: 0.6"/>
   </g>
   <g id="patch_18">
    <path d="M 336.714173 828.779375 
L 348.770366 828.779375 
L 348.770366 429.528283 
L 336.714173 429.528283 
z
" clip-path="url(#pce0bd9c043)" style="fill: #1f77b4; opacity: 0.6"/>
   </g>
   <g id="patch_19">
    <path d="M 348.770366 828.779375 
L 360.826559 828.779375 
L 360.826559 492.920458 
L 348.770366 492.920458 
z
" clip-path="url(#pce0bd9c043)" style="fill: #1f77b4; opacity: 0.6"/>
   </g>
   <g id="patch_20">
    <path d="M 360.826559 828.779375 
L 372.882752 828.779375 
L 372.882752 510.861639 
L 360.826559 510.861639 
z
" clip-path="url(#pce0bd9c043)" style="fill: #1f77b4; opacity: 0.6"/>
   </g>
   <g id="patch_21">
    <path d="M 372.882752 828.779375 
L 384.938945 828.779375 
L 384.938945 547.222434 
L 372.882752 547.222434 
z
" clip-path="url(#pce0bd9c043)" style="fill: #1f77b4; opacity: 0.6"/>
   </g>
   <g id="patch_22">
    <path d="M 384.938945 828.779375 
L 396.995138 828.779375 
L 396.995138 584.06166 
L 384.938945 584.06166 
z
" clip-path="url(#pce0bd9c043)" style="fill: #1f77b4; opacity: 0.6"/>
   </g>
   <g id="patch_23">
    <path d="M 396.995138 828.779375 
L 409.051331 828.779375 
L 409.051331 605.112646 
L 396.995138 605.112646 
z
" clip-path="url(#pce0bd9c043)" style="fill: #1f77b4; opacity: 0.6"/>
   </g>
   <g id="patch_24">
    <path d="M 409.051331 828.779375 
L 421.107524 828.779375 
L 421.107524 630.708732 
L 409.051331 630.708732 
z
" clip-path="url(#pce0bd9c043)" style="fill: #1f77b4; opacity: 0.6"/>
   </g>
   <g id="patch_25">
    <path d="M 421.107524 828.779375 
L 433.163717 828.779375 
L 433.163717 650.324423 
L 421.107524 650.324423 
z
" clip-path="url(#pce0bd9c043)" style="fill: #1f77b4; opacity: 0.6"/>
   </g>
   <g id="patch_26">
    <path d="M 433.163717 828.779375 
L 445.21991 828.779375 
L 445.21991 685.249923 
L 433.163717 685.249923 
z
" clip-path="url(#pce0bd9c043)" style="fill: #1f77b4; opacity: 0.6"/>
   </g>
   <g id="patch_27">
    <path d="M 445.21991 828.779375 
L 457.276103 828.779375 
L 457.276103 694.579338 
L 445.21991 694.579338 
z
" clip-path="url(#pce0bd9c043)" style="fill: #1f77b4; opacity: 0.6"/>
   </g>
   <g id="patch_28">
    <path d="M 457.276103 828.779375 
L 469.332296 828.779375 
L 469.332296 712.759735 
L 457.276103 712.759735 
z
" clip-path="url(#pce0bd9c043)" style="fill: #1f77b4; opacity: 0.6"/>
   </g>
   <g id="patch_29">
    <path d="M 469.332296 828.779375 
L 481.388489 828.779375 
L 481.388489 723.524444 
L 469.332296 723.524444 
z
" clip-path="url(#pce0bd9c043)" style="fill: #1f77b4; opacity: 0.6"/>
   </g>
   <g id="patch_30">
    <path d="M 481.388489 828.779375 
L 493.444682 828.779375 
L 493.444682 738.35582 
L 481.388489 738.35582 
z
" clip-path="url(#pce0bd9c043)" style="fill: #1f77b4; opacity: 0.6"/>
   </g>
   <g id="patch_31">
    <path d="M 493.444682 828.779375 
L 505.500875 828.779375 
L 505.500875 746.24994 
L 493.444682 746.24994 
z
" clip-path="url(#pce0bd9c043)" style="fill: #1f77b4; opacity: 0.6"/>
   </g>
   <g id="patch_32">
    <path d="M 505.500875 828.779375 
L 517.557068 828.779375 
L 517.557068 760.602885 
L 505.500875 760.602885 
z
" clip-path="url(#pce0bd9c043)" style="fill: #1f77b4; opacity: 0.6"/>
   </g>
   <g id="patch_33">
    <path d="M 517.557068 828.779375 
L 529.613261 828.779375 
L 529.613261 774.716615 
L 517.557068 774.716615 
z
" clip-path="url(#pce0bd9c043)" style="fill: #1f77b4; opacity: 0.6"/>
   </g>
   <g id="patch_34">
    <path d="M 529.613261 828.779375 
L 541.669454 828.779375 
L 541.669454 775.434262 
L 529.613261 775.434262 
z
" clip-path="url(#pce0bd9c043)" style="fill: #1f77b4; opacity: 0.6"/>
   </g>
   <g id="patch_35">
    <path d="M 541.669454 828.779375 
L 553.725647 828.779375 
L 553.725647 776.869557 
L 541.669454 776.869557 
z
" clip-path="url(#pce0bd9c043)" style="fill: #1f77b4; opacity: 0.6"/>
   </g>
   <g id="patch_36">
    <path d="M 553.725647 828.779375 
L 565.78184 828.779375 
L 565.78184 785.959755 
L 553.725647 785.959755 
z
" clip-path="url(#pce0bd9c043)" style="fill: #1f77b4; opacity: 0.6"/>
   </g>
   <g id="patch_37">
    <path d="M 565.78184 828.779375 
L 577.838033 828.779375 
L 577.838033 791.700933 
L 565.78184 791.700933 
z
" clip-path="url(#pce0bd9c043)" style="fill: #1f77b4; opacity: 0.6"/>
   </g>
   <g id="patch_38">
    <path d="M 577.838033 828.779375 
L 589.894226 828.779375 
L 589.894226 796.246033 
L 577.838033 796.246033 
z
" clip-path="url(#pce0bd9c043)" style="fill: #1f77b4; opacity: 0.6"/>
   </g>
   <g id="patch_39">
    <path d="M 589.894226 828.779375 
L 601.950419 828.779375 
L 601.950419 801.269563 
L 589.894226 801.269563 
z
" clip-path="url(#pce0bd9c043)" style="fill: #1f77b4; opacity: 0.6"/>
   </g>
   <g id="patch_40">
    <path d="M 601.950419 828.779375 
L 614.006612 828.779375 
L 614.006612 801.987211 
L 601.950419 801.987211 
z
" clip-path="url(#pce0bd9c043)" style="fill: #1f77b4; opacity: 0.6"/>
   </g>
   <g id="patch_41">
    <path d="M 614.006612 828.779375 
L 626.062805 828.779375 
L 626.062805 807.728389 
L 614.006612 807.728389 
z
" clip-path="url(#pce0bd9c043)" style="fill: #1f77b4; opacity: 0.6"/>
   </g>
   <g id="patch_42">
    <path d="M 626.062805 828.779375 
L 638.118998 828.779375 
L 638.118998 811.795057 
L 626.062805 811.795057 
z
" clip-path="url(#pce0bd9c043)" style="fill: #1f77b4; opacity: 0.6"/>
   </g>
   <g id="patch_43">
    <path d="M 638.118998 828.779375 
L 650.175191 828.779375 
L 650.175191 814.187214 
L 638.118998 814.187214 
z
" clip-path="url(#pce0bd9c043)" style="fill: #1f77b4; opacity: 0.6"/>
   </g>
   <g id="patch_44">
    <path d="M 650.175191 828.779375 
L 662.231384 828.779375 
L 662.231384 817.297019 
L 650.175191 817.297019 
z
" clip-path="url(#pce0bd9c043)" style="fill: #1f77b4; opacity: 0.6"/>
   </g>
   <g id="patch_45">
    <path d="M 662.231384 828.779375 
L 674.287577 828.779375 
L 674.287577 819.449961 
L 662.231384 819.449961 
z
" clip-path="url(#pce0bd9c043)" style="fill: #1f77b4; opacity: 0.6"/>
   </g>
   <g id="patch_46">
    <path d="M 674.287577 828.779375 
L 686.34377 828.779375 
L 686.34377 816.579372 
L 674.287577 816.579372 
z
" clip-path="url(#pce0bd9c043)" style="fill: #1f77b4; opacity: 0.6"/>
   </g>
   <g id="patch_47">
    <path d="M 686.34377 828.779375 
L 698.399963 828.779375 
L 698.399963 820.167608 
L 686.34377 820.167608 
z
" clip-path="url(#pce0bd9c043)" style="fill: #1f77b4; opacity: 0.6"/>
   </g>
   <g id="patch_48">
    <path d="M 698.399963 828.779375 
L 710.456156 828.779375 
L 710.456156 818.971529 
L 698.399963 818.971529 
z
" clip-path="url(#pce0bd9c043)" style="fill: #1f77b4; opacity: 0.6"/>
   </g>
   <g id="patch_49">
    <path d="M 710.456156 828.779375 
L 722.512349 828.779375 
L 722.512349 821.602902 
L 710.456156 821.602902 
z
" clip-path="url(#pce0bd9c043)" style="fill: #1f77b4; opacity: 0.6"/>
   </g>
   <g id="patch_50">
    <path d="M 722.512349 828.779375 
L 734.568542 828.779375 
L 734.568542 824.712707 
L 722.512349 824.712707 
z
" clip-path="url(#pce0bd9c043)" style="fill: #1f77b4; opacity: 0.6"/>
   </g>
   <g id="patch_51">
    <path d="M 734.568542 828.779375 
L 746.624735 828.779375 
L 746.624735 825.191139 
L 734.568542 825.191139 
z
" clip-path="url(#pce0bd9c043)" style="fill: #1f77b4; opacity: 0.6"/>
   </g>
   <g id="patch_52">
    <path d="M 746.624735 828.779375 
L 758.680928 828.779375 
L 758.680928 824.473491 
L 746.624735 824.473491 
z
" clip-path="url(#pce0bd9c043)" style="fill: #1f77b4; opacity: 0.6"/>
   </g>
   <g id="patch_53">
    <path d="M 758.680928 828.779375 
L 770.737121 828.779375 
L 770.737121 824.712707 
L 758.680928 824.712707 
z
" clip-path="url(#pce0bd9c043)" style="fill: #1f77b4; opacity: 0.6"/>
   </g>
   <g id="patch_54">
    <path d="M 770.737121 828.779375 
L 782.793314 828.779375 
L 782.793314 827.104865 
L 770.737121 827.104865 
z
" clip-path="url(#pce0bd9c043)" style="fill: #1f77b4; opacity: 0.6"/>
   </g>
   <g id="patch_55">
    <path d="M 782.793314 828.779375 
L 794.849507 828.779375 
L 794.849507 826.626433 
L 782.793314 826.626433 
z
" clip-path="url(#pce0bd9c043)" style="fill: #1f77b4; opacity: 0.6"/>
   </g>
   <g id="patch_56">
    <path d="M 794.849507 828.779375 
L 806.9057 828.779375 
L 806.9057 826.387217 
L 794.849507 826.387217 
z
" clip-path="url(#pce0bd9c043)" style="fill: #1f77b4; opacity: 0.6"/>
   </g>
   <g id="patch_57">
    <path d="M 806.9057 828.779375 
L 818.961893 828.779375 
L 818.961893 826.865649 
L 806.9057 826.865649 
z
" clip-path="url(#pce0bd9c043)" style="fill: #1f77b4; opacity: 0.6"/>
   </g>
   <g id="patch_58">
    <path d="M 818.961893 828.779375 
L 831.018086 828.779375 
L 831.018086 827.104865 
L 818.961893 827.104865 
z
" clip-path="url(#pce0bd9c043)" style="fill: #1f77b4; opacity: 0.6"/>
   </g>
   <g id="patch_59">
    <path d="M 831.018086 828.779375 
L 843.074279 828.779375 
L 843.074279 827.34408 
L 831.018086 827.34408 
z
" clip-path="url(#pce0bd9c043)" style="fill: #1f77b4; opacity: 0.6"/>
   </g>
   <g id="patch_60">
    <path d="M 843.074279 828.779375 
L 855.130472 828.779375 
L 855.130472 828.300943 
L 843.074279 828.300943 
z
" clip-path="url(#pce0bd9c043)" style="fill: #1f77b4; opacity: 0.6"/>
   </g>
   <g id="patch_61">
    <path d="M 855.130472 828.779375 
L 867.186665 828.779375 
L 867.186665 828.300943 
L 855.130472 828.300943 
z
" clip-path="url(#pce0bd9c043)" style="fill: #1f77b4; opacity: 0.6"/>
   </g>
   <g id="patch_62">
    <path d="M 867.186665 828.779375 
L 879.242858 828.779375 
L 879.242858 827.104865 
L 867.186665 827.104865 
z
" clip-path="url(#pce0bd9c043)" style="fill: #1f77b4; opacity: 0.6"/>
   </g>
   <g id="patch_63">
    <path d="M 879.242858 828.779375 
L 891.299051 828.779375 
L 891.299051 827.583296 
L 879.242858 827.583296 
z
" clip-path="url(#pce0bd9c043)" style="fill: #1f77b4; opacity: 0.6"/>
   </g>
   <g id="patch_64">
    <path d="M 891.299051 828.779375 
L 903.355244 828.779375 
L 903.355244 828.061728 
L 891.299051 828.061728 
z
" clip-path="url(#pce0bd9c043)" style="fill: #1f77b4; opacity: 0.6"/>
   </g>
   <g id="patch_65">
    <path d="M 903.355244 828.779375 
L 915.411437 828.779375 
L 915.411437 828.540159 
L 903.355244 828.540159 
z
" clip-path="url(#pce0bd9c043)" style="fill: #1f77b4; opacity: 0.6"/>
   </g>
   <g id="patch_66">
    <path d="M 915.411437 828.779375 
L 927.46763 828.779375 
L 927.46763 828.540159 
L 915.411437 828.540159 
z
" clip-path="url(#pce0bd9c043)" style="fill: #1f77b4; opacity: 0.6"/>
   </g>
   <g id="patch_67">
    <path d="M 927.46763 828.779375 
L 939.523823 828.779375 
L 939.523823 828.300943 
L 927.46763 828.300943 
z
" clip-path="url(#pce0bd9c043)" style="fill: #1f77b4; opacity: 0.6"/>
   </g>
   <g id="patch_68">
    <path d="M 939.523823 828.779375 
L 951.580016 828.779375 
L 951.580016 828.061728 
L 939.523823 828.061728 
z
" clip-path="url(#pce0bd9c043)" style="fill: #1f77b4; opacity: 0.6"/>
   </g>
   <g id="patch_69">
    <path d="M 951.580016 828.779375 
L 963.636209 828.779375 
L 963.636209 828.540159 
L 951.580016 828.540159 
z
" clip-path="url(#pce0bd9c043)" style="fill: #1f77b4; opacity: 0.6"/>
   </g>
   <g id="patch_70">
    <path d="M 963.636209 828.779375 
L 975.692402 828.779375 
L 975.692402 828.300943 
L 963.636209 828.300943 
z
" clip-path="url(#pce0bd9c043)" style="fill: #1f77b4; opacity: 0.6"/>
   </g>
   <g id="patch_71">
    <path d="M 975.692402 828.779375 
L 987.748595 828.779375 
L 987.748595 828.779375 
L 975.692402 828.779375 
z
" clip-path="url(#pce0bd9c043)" style="fill: #1f77b4; opacity: 0.6"/>
   </g>
   <g id="patch_72">
    <path d="M 987.748595 828.779375 
L 999.804788 828.779375 
L 999.804788 828.540159 
L 987.748595 828.540159 
z
" clip-path="url(#pce0bd9c043)" style="fill: #1f77b4; opacity: 0.6"/>
   </g>
   <g id="patch_73">
    <path d="M 999.804788 828.779375 
L 1011.860981 828.779375 
L 1011.860981 828.779375 
L 999.804788 828.779375 
z
" clip-path="url(#pce0bd9c043)" style="fill: #1f77b4; opacity: 0.6"/>
   </g>
   <g id="patch_74">
    <path d="M 1011.860981 828.779375 
L 1023.917174 828.779375 
L 1023.917174 828.540159 
L 1011.860981 828.540159 
z
" clip-path="url(#pce0bd9c043)" style="fill: #1f77b4; opacity: 0.6"/>
   </g>
   <g id="patch_75">
    <path d="M 1023.917174 828.779375 
L 1035.973367 828.779375 
L 1035.973367 828.540159 
L 1023.917174 828.540159 
z
" clip-path="url(#pce0bd9c043)" style="fill: #1f77b4; opacity: 0.6"/>
   </g>
   <g id="patch_76">
    <path d="M 1035.973367 828.779375 
L 1048.02956 828.779375 
L 1048.02956 828.540159 
L 1035.973367 828.540159 
z
" clip-path="url(#pce0bd9c043)" style="fill: #1f77b4; opacity: 0.6"/>
   </g>
   <g id="patch_77">
    <path d="M 1048.02956 828.779375 
L 1060.085753 828.779375 
L 1060.085753 828.779375 
L 1048.02956 828.779375 
z
" clip-path="url(#pce0bd9c043)" style="fill: #1f77b4; opacity: 0.6"/>
   </g>
   <g id="patch_78">
    <path d="M 1060.085753 828.779375 
L 1072.141946 828.779375 
L 1072.141946 828.779375 
L 1060.085753 828.779375 
z
" clip-path="url(#pce0bd9c043)" style="fill: #1f77b4; opacity: 0.6"/>
   </g>
   <g id="patch_79">
    <path d="M 1072.141946 828.779375 
L 1084.198139 828.779375 
L 1084.198139 828.779375 
L 1072.141946 828.779375 
z
" clip-path="url(#pce0bd9c043)" style="fill: #1f77b4; opacity: 0.6"/>
   </g>
   <g id="patch_80">
    <path d="M 1084.198139 828.779375 
L 1096.254332 828.779375 
L 1096.254332 828.779375 
L 1084.198139 828.779375 
z
" clip-path="url(#pce0bd9c043)" style="fill: #1f77b4; opacity: 0.6"/>
   </g>
   <g id="patch_81">
    <path d="M 1096.254332 828.779375 
L 1108.310525 828.779375 
L 1108.310525 828.779375 
L 1096.254332 828.779375 
z
" clip-path="url(#pce0bd9c043)" style="fill: #1f77b4; opacity: 0.6"/>
   </g>
   <g id="patch_82">
    <path d="M 1108.310525 828.779375 
L 1120.366718 828.779375 
L 1120.366718 828.779375 
L 1108.310525 828.779375 
z
" clip-path="url(#pce0bd9c043)" style="fill: #1f77b4; opacity: 0.6"/>
   </g>
   <g id="patch_83">
    <path d="M 1120.366718 828.779375 
L 1132.422911 828.779375 
L 1132.422911 828.779375 
L 1120.366718 828.779375 
z
" clip-path="url(#pce0bd9c043)" style="fill: #1f77b4; opacity: 0.6"/>
   </g>
   <g id="patch_84">
    <path d="M 1132.422911 828.779375 
L 1144.479104 828.779375 
L 1144.479104 828.540159 
L 1132.422911 828.540159 
z
" clip-path="url(#pce0bd9c043)" style="fill: #1f77b4; opacity: 0.6"/>
   </g>
   <g id="patch_85">
    <path d="M 1144.479104 828.779375 
L 1156.535297 828.779375 
L 1156.535297 828.779375 
L 1144.479104 828.779375 
z
" clip-path="url(#pce0bd9c043)" style="fill: #1f77b4; opacity: 0.6"/>
   </g>
   <g id="patch_86">
    <path d="M 1156.535297 828.779375 
L 1168.59149 828.779375 
L 1168.59149 828.779375 
L 1156.535297 828.779375 
z
" clip-path="url(#pce0bd9c043)" style="fill: #1f77b4; opacity: 0.6"/>
   </g>
   <g id="patch_87">
    <path d="M 1168.59149 828.779375 
L 1180.647683 828.779375 
L 1180.647683 828.779375 
L 1168.59149 828.779375 
z
" clip-path="url(#pce0bd9c043)" style="fill: #1f77b4; opacity: 0.6"/>
   </g>
   <g id="patch_88">
    <path d="M 1180.647683 828.779375 
L 1192.703876 828.779375 
L 1192.703876 828.779375 
L 1180.647683 828.779375 
z
" clip-path="url(#pce0bd9c043)" style="fill: #1f77b4; opacity: 0.6"/>
   </g>
   <g id="patch_89">
    <path d="M 1192.703876 828.779375 
L 1204.760069 828.779375 
L 1204.760069 828.779375 
L 1192.703876 828.779375 
z
" clip-path="url(#pce0bd9c043)" style="fill: #1f77b4; opacity: 0.6"/>
   </g>
   <g id="patch_90">
    <path d="M 1204.760069 828.779375 
L 1216.816262 828.779375 
L 1216.816262 828.779375 
L 1204.760069 828.779375 
z
" clip-path="url(#pce0bd9c043)" style="fill: #1f77b4; opacity: 0.6"/>
   </g>
   <g id="patch_91">
    <path d="M 1216.816262 828.779375 
L 1228.872455 828.779375 
L 1228.872455 828.779375 
L 1216.816262 828.779375 
z
" clip-path="url(#pce0bd9c043)" style="fill: #1f77b4; opacity: 0.6"/>
   </g>
   <g id="patch_92">
    <path d="M 1228.872455 828.779375 
L 1240.928648 828.779375 
L 1240.928648 828.779375 
L 1228.872455 828.779375 
z
" clip-path="url(#pce0bd9c043)" style="fill: #1f77b4; opacity: 0.6"/>
   </g>
   <g id="patch_93">
    <path d="M 1240.928648 828.779375 
L 1252.984841 828.779375 
L 1252.984841 828.779375 
L 1240.928648 828.779375 
z
" clip-path="url(#pce0bd9c043)" style="fill: #1f77b4; opacity: 0.6"/>
   </g>
   <g id="patch_94">
    <path d="M 1252.984841 828.779375 
L 1265.041034 828.779375 
L 1265.041034 828.779375 
L 1252.984841 828.779375 
z
" clip-path="url(#pce0bd9c043)" style="fill: #1f77b4; opacity: 0.6"/>
   </g>
   <g id="patch_95">
    <path d="M 1265.041034 828.779375 
L 1277.097227 828.779375 
L 1277.097227 828.779375 
L 1265.041034 828.779375 
z
" clip-path="url(#pce0bd9c043)" style="fill: #1f77b4; opacity: 0.6"/>
   </g>
   <g id="patch_96">
    <path d="M 1277.097227 828.779375 
L 1289.15342 828.779375 
L 1289.15342 828.779375 
L 1277.097227 828.779375 
z
" clip-path="url(#pce0bd9c043)" style="fill: #1f77b4; opacity: 0.6"/>
   </g>
   <g id="patch_97">
    <path d="M 1289.15342 828.779375 
L 1301.209613 828.779375 
L 1301.209613 828.779375 
L 1289.15342 828.779375 
z
" clip-path="url(#pce0bd9c043)" style="fill: #1f77b4; opacity: 0.6"/>
   </g>
   <g id="patch_98">
    <path d="M 1301.209613 828.779375 
L 1313.265806 828.779375 
L 1313.265806 828.779375 
L 1301.209613 828.779375 
z
" clip-path="url(#pce0bd9c043)" style="fill: #1f77b4; opacity: 0.6"/>
   </g>
   <g id="patch_99">
    <path d="M 1313.265806 828.779375 
L 1325.321999 828.779375 
L 1325.321999 828.779375 
L 1313.265806 828.779375 
z
" clip-path="url(#pce0bd9c043)" style="fill: #1f77b4; opacity: 0.6"/>
   </g>
   <g id="patch_100">
    <path d="M 1325.321999 828.779375 
L 1337.378192 828.779375 
L 1337.378192 828.779375 
L 1325.321999 828.779375 
z
" clip-path="url(#pce0bd9c043)" style="fill: #1f77b4; opacity: 0.6"/>
   </g>
   <g id="patch_101">
    <path d="M 1337.378192 828.779375 
L 1349.434385 828.779375 
L 1349.434385 828.779375 
L 1337.378192 828.779375 
z
" clip-path="url(#pce0bd9c043)" style="fill: #1f77b4; opacity: 0.6"/>
   </g>
   <g id="patch_102">
    <path d="M 1349.434385 828.779375 
L 1361.490578 828.779375 
L 1361.490578 828.540159 
L 1349.434385 828.540159 
z
" clip-path="url(#pce0bd9c043)" style="fill: #1f77b4; opacity: 0.6"/>
   </g>
   <g id="matplotlib.axis_1">
    <g id="xtick_1">
     <g id="line2d_1">
      <defs>
       <path id="m0d2c9836ef" d="M 0 0 
L 0 3.5 
" style="stroke: #000000; stroke-width: 0.8"/>
      </defs>
      <g>
       <use xlink:href="#m0d2c9836ef" x="155.439198" y="828.779375" style="stroke: #000000; stroke-width: 0.8"/>
      </g>
     </g>
     <g id="text_1">
      <!-- 0 -->
      <g transform="translate(149.712948 849.456563)scale(0.18 -0.18)">
       <defs>
        <path id="DejaVuSans-30" d="M 2034 4250 
Q 1547 4250 1301 3770 
Q 1056 3291 1056 2328 
Q 1056 1369 1301 889 
Q 1547 409 2034 409 
Q 2525 409 2770 889 
Q 3016 1369 3016 2328 
Q 3016 3291 2770 3770 
Q 2525 4250 2034 4250 
z
M 2034 4750 
Q 2819 4750 3233 4129 
Q 3647 3509 3647 2328 
Q 3647 1150 3233 529 
Q 2819 -91 2034 -91 
Q 1250 -91 836 529 
Q 422 1150 422 2328 
Q 422 3509 836 4129 
Q 1250 4750 2034 4750 
z
" transform="scale(0.015625)"/>
       </defs>
       <use xlink:href="#DejaVuSans-30"/>
      </g>
     </g>
    </g>
    <g id="xtick_2">
     <g id="line2d_2">
      <g>
       <use xlink:href="#m0d2c9836ef" x="335.76868" y="828.779375" style="stroke: #000000; stroke-width: 0.8"/>
      </g>
     </g>
     <g id="text_2">
      <!-- 5 -->
      <g transform="translate(330.04243 849.456563)scale(0.18 -0.18)">
       <defs>
        <path id="DejaVuSans-35" d="M 691 4666 
L 3169 4666 
L 3169 4134 
L 1269 4134 
L 1269 2991 
Q 1406 3038 1543 3061 
Q 1681 3084 1819 3084 
Q 2600 3084 3056 2656 
Q 3513 2228 3513 1497 
Q 3513 744 3044 326 
Q 2575 -91 1722 -91 
Q 1428 -91 1123 -41 
Q 819 9 494 109 
L 494 744 
Q 775 591 1075 516 
Q 1375 441 1709 441 
Q 2250 441 2565 725 
Q 2881 1009 2881 1497 
Q 2881 1984 2565 2268 
Q 2250 2553 1709 2553 
Q 1456 2553 1204 2497 
Q 953 2441 691 2322 
L 691 4666 
z
" transform="scale(0.015625)"/>
       </defs>
       <use xlink:href="#DejaVuSans-35"/>
      </g>
     </g>
    </g>
    <g id="xtick_3">
     <g id="line2d_3">
      <g>
       <use xlink:href="#m0d2c9836ef" x="516.098161" y="828.779375" style="stroke: #000000; stroke-width: 0.8"/>
      </g>
     </g>
     <g id="text_3">
      <!-- 10 -->
      <g transform="translate(504.645661 849.456563)scale(0.18 -0.18)">
       <defs>
        <path id="DejaVuSans-31" d="M 794 531 
L 1825 531 
L 1825 4091 
L 703 3866 
L 703 4441 
L 1819 4666 
L 2450 4666 
L 2450 531 
L 3481 531 
L 3481 0 
L 794 0 
L 794 531 
z
" transform="scale(0.015625)"/>
       </defs>
       <use xlink:href="#DejaVuSans-31"/>
       <use xlink:href="#DejaVuSans-30" x="63.623047"/>
      </g>
     </g>
    </g>
    <g id="xtick_4">
     <g id="line2d_4">
      <g>
       <use xlink:href="#m0d2c9836ef" x="696.427643" y="828.779375" style="stroke: #000000; stroke-width: 0.8"/>
      </g>
     </g>
     <g id="text_4">
      <!-- 15 -->
      <g transform="translate(684.975143 849.456563)scale(0.18 -0.18)">
       <use xlink:href="#DejaVuSans-31"/>
       <use xlink:href="#DejaVuSans-35" x="63.623047"/>
      </g>
     </g>
    </g>
    <g id="xtick_5">
     <g id="line2d_5">
      <g>
       <use xlink:href="#m0d2c9836ef" x="876.757124" y="828.779375" style="stroke: #000000; stroke-width: 0.8"/>
      </g>
     </g>
     <g id="text_5">
      <!-- 20 -->
      <g transform="translate(865.304624 849.456563)scale(0.18 -0.18)">
       <defs>
        <path id="DejaVuSans-32" d="M 1228 531 
L 3431 531 
L 3431 0 
L 469 0 
L 469 531 
Q 828 903 1448 1529 
Q 2069 2156 2228 2338 
Q 2531 2678 2651 2914 
Q 2772 3150 2772 3378 
Q 2772 3750 2511 3984 
Q 2250 4219 1831 4219 
Q 1534 4219 1204 4116 
Q 875 4013 500 3803 
L 500 4441 
Q 881 4594 1212 4672 
Q 1544 4750 1819 4750 
Q 2544 4750 2975 4387 
Q 3406 4025 3406 3419 
Q 3406 3131 3298 2873 
Q 3191 2616 2906 2266 
Q 2828 2175 2409 1742 
Q 1991 1309 1228 531 
z
" transform="scale(0.015625)"/>
       </defs>
       <use xlink:href="#DejaVuSans-32"/>
       <use xlink:href="#DejaVuSans-30" x="63.623047"/>
      </g>
     </g>
    </g>
    <g id="xtick_6">
     <g id="line2d_6">
      <g>
       <use xlink:href="#m0d2c9836ef" x="1057.086606" y="828.779375" style="stroke: #000000; stroke-width: 0.8"/>
      </g>
     </g>
     <g id="text_6">
      <!-- 25 -->
      <g transform="translate(1045.634106 849.456563)scale(0.18 -0.18)">
       <use xlink:href="#DejaVuSans-32"/>
       <use xlink:href="#DejaVuSans-35" x="63.623047"/>
      </g>
     </g>
    </g>
    <g id="xtick_7">
     <g id="line2d_7">
      <g>
       <use xlink:href="#m0d2c9836ef" x="1237.416087" y="828.779375" style="stroke: #000000; stroke-width: 0.8"/>
      </g>
     </g>
     <g id="text_7">
      <!-- 30 -->
      <g transform="translate(1225.963587 849.456563)scale(0.18 -0.18)">
       <defs>
        <path id="DejaVuSans-33" d="M 2597 2516 
Q 3050 2419 3304 2112 
Q 3559 1806 3559 1356 
Q 3559 666 3084 287 
Q 2609 -91 1734 -91 
Q 1441 -91 1130 -33 
Q 819 25 488 141 
L 488 750 
Q 750 597 1062 519 
Q 1375 441 1716 441 
Q 2309 441 2620 675 
Q 2931 909 2931 1356 
Q 2931 1769 2642 2001 
Q 2353 2234 1838 2234 
L 1294 2234 
L 1294 2753 
L 1863 2753 
Q 2328 2753 2575 2939 
Q 2822 3125 2822 3475 
Q 2822 3834 2567 4026 
Q 2313 4219 1838 4219 
Q 1578 4219 1281 4162 
Q 984 4106 628 3988 
L 628 4550 
Q 988 4650 1302 4700 
Q 1616 4750 1894 4750 
Q 2613 4750 3031 4423 
Q 3450 4097 3450 3541 
Q 3450 3153 3228 2886 
Q 3006 2619 2597 2516 
z
" transform="scale(0.015625)"/>
       </defs>
       <use xlink:href="#DejaVuSans-33"/>
       <use xlink:href="#DejaVuSans-30" x="63.623047"/>
      </g>
     </g>
    </g>
    <g id="xtick_8">
     <g id="line2d_8">
      <g>
       <use xlink:href="#m0d2c9836ef" x="1417.745569" y="828.779375" style="stroke: #000000; stroke-width: 0.8"/>
      </g>
     </g>
     <g id="text_8">
      <!-- 35 -->
      <g transform="translate(1406.293069 849.456563)scale(0.18 -0.18)">
       <use xlink:href="#DejaVuSans-33"/>
       <use xlink:href="#DejaVuSans-35" x="63.623047"/>
      </g>
     </g>
    </g>
   </g>
   <g id="matplotlib.axis_2">
    <g id="ytick_1">
     <g id="line2d_9">
      <defs>
       <path id="m9be4b20070" d="M 0 0 
L -3.5 0 
" style="stroke: #000000; stroke-width: 0.8"/>
      </defs>
      <g>
       <use xlink:href="#m9be4b20070" x="95.590313" y="828.779375" style="stroke: #000000; stroke-width: 0.8"/>
      </g>
     </g>
     <g id="text_9">
      <!-- 0.000 -->
      <g transform="translate(37.059688 835.617969)scale(0.18 -0.18)">
       <defs>
        <path id="DejaVuSans-2e" d="M 684 794 
L 1344 794 
L 1344 0 
L 684 0 
L 684 794 
z
" transform="scale(0.015625)"/>
       </defs>
       <use xlink:href="#DejaVuSans-30"/>
       <use xlink:href="#DejaVuSans-2e" x="63.623047"/>
       <use xlink:href="#DejaVuSans-30" x="95.410156"/>
       <use xlink:href="#DejaVuSans-30" x="159.033203"/>
       <use xlink:href="#DejaVuSans-30" x="222.65625"/>
      </g>
     </g>
    </g>
    <g id="ytick_2">
     <g id="line2d_10">
      <g>
       <use xlink:href="#m9be4b20070" x="95.590313" y="728.822366" style="stroke: #000000; stroke-width: 0.8"/>
      </g>
     </g>
     <g id="text_10">
      <!-- 0.025 -->
      <g transform="translate(37.059688 735.66096)scale(0.18 -0.18)">
       <use xlink:href="#DejaVuSans-30"/>
       <use xlink:href="#DejaVuSans-2e" x="63.623047"/>
       <use xlink:href="#DejaVuSans-30" x="95.410156"/>
       <use xlink:href="#DejaVuSans-32" x="159.033203"/>
       <use xlink:href="#DejaVuSans-35" x="222.65625"/>
      </g>
     </g>
    </g>
    <g id="ytick_3">
     <g id="line2d_11">
      <g>
       <use xlink:href="#m9be4b20070" x="95.590313" y="628.865358" style="stroke: #000000; stroke-width: 0.8"/>
      </g>
     </g>
     <g id="text_11">
      <!-- 0.050 -->
      <g transform="translate(37.059688 635.703951)scale(0.18 -0.18)">
       <use xlink:href="#DejaVuSans-30"/>
       <use xlink:href="#DejaVuSans-2e" x="63.623047"/>
       <use xlink:href="#DejaVuSans-30" x="95.410156"/>
       <use xlink:href="#DejaVuSans-35" x="159.033203"/>
       <use xlink:href="#DejaVuSans-30" x="222.65625"/>
      </g>
     </g>
    </g>
    <g id="ytick_4">
     <g id="line2d_12">
      <g>
       <use xlink:href="#m9be4b20070" x="95.590313" y="528.908349" style="stroke: #000000; stroke-width: 0.8"/>
      </g>
     </g>
     <g id="text_12">
      <!-- 0.075 -->
      <g transform="translate(37.059688 535.746943)scale(0.18 -0.18)">
       <defs>
        <path id="DejaVuSans-37" d="M 525 4666 
L 3525 4666 
L 3525 4397 
L 1831 0 
L 1172 0 
L 2766 4134 
L 525 4134 
L 525 4666 
z
" transform="scale(0.015625)"/>
       </defs>
       <use xlink:href="#DejaVuSans-30"/>
       <use xlink:href="#DejaVuSans-2e" x="63.623047"/>
       <use xlink:href="#DejaVuSans-30" x="95.410156"/>
       <use xlink:href="#DejaVuSans-37" x="159.033203"/>
       <use xlink:href="#DejaVuSans-35" x="222.65625"/>
      </g>
     </g>
    </g>
    <g id="ytick_5">
     <g id="line2d_13">
      <g>
       <use xlink:href="#m9be4b20070" x="95.590313" y="428.95134" style="stroke: #000000; stroke-width: 0.8"/>
      </g>
     </g>
     <g id="text_13">
      <!-- 0.100 -->
      <g transform="translate(37.059688 435.789934)scale(0.18 -0.18)">
       <use xlink:href="#DejaVuSans-30"/>
       <use xlink:href="#DejaVuSans-2e" x="63.623047"/>
       <use xlink:href="#DejaVuSans-31" x="95.410156"/>
       <use xlink:href="#DejaVuSans-30" x="159.033203"/>
       <use xlink:href="#DejaVuSans-30" x="222.65625"/>
      </g>
     </g>
    </g>
    <g id="ytick_6">
     <g id="line2d_14">
      <g>
       <use xlink:href="#m9be4b20070" x="95.590313" y="328.994332" style="stroke: #000000; stroke-width: 0.8"/>
      </g>
     </g>
     <g id="text_14">
      <!-- 0.125 -->
      <g transform="translate(37.059688 335.832925)scale(0.18 -0.18)">
       <use xlink:href="#DejaVuSans-30"/>
       <use xlink:href="#DejaVuSans-2e" x="63.623047"/>
       <use xlink:href="#DejaVuSans-31" x="95.410156"/>
       <use xlink:href="#DejaVuSans-32" x="159.033203"/>
       <use xlink:href="#DejaVuSans-35" x="222.65625"/>
      </g>
     </g>
    </g>
    <g id="ytick_7">
     <g id="line2d_15">
      <g>
       <use xlink:href="#m9be4b20070" x="95.590313" y="229.037323" style="stroke: #000000; stroke-width: 0.8"/>
      </g>
     </g>
     <g id="text_15">
      <!-- 0.150 -->
      <g transform="translate(37.059688 235.875917)scale(0.18 -0.18)">
       <use xlink:href="#DejaVuSans-30"/>
       <use xlink:href="#DejaVuSans-2e" x="63.623047"/>
       <use xlink:href="#DejaVuSans-31" x="95.410156"/>
       <use xlink:href="#DejaVuSans-35" x="159.033203"/>
       <use xlink:href="#DejaVuSans-30" x="222.65625"/>
      </g>
     </g>
    </g>
    <g id="ytick_8">
     <g id="line2d_16">
      <g>
       <use xlink:href="#m9be4b20070" x="95.590313" y="129.080314" style="stroke: #000000; stroke-width: 0.8"/>
      </g>
     </g>
     <g id="text_16">
      <!-- 0.175 -->
      <g transform="translate(37.059688 135.918908)scale(0.18 -0.18)">
       <use xlink:href="#DejaVuSans-30"/>
       <use xlink:href="#DejaVuSans-2e" x="63.623047"/>
       <use xlink:href="#DejaVuSans-31" x="95.410156"/>
       <use xlink:href="#DejaVuSans-37" x="159.033203"/>
       <use xlink:href="#DejaVuSans-35" x="222.65625"/>
      </g>
     </g>
    </g>
    <g id="text_17">
     <!-- Normed Hist Counts -->
     <g transform="translate(28.276406 548.966563)rotate(-90)scale(0.23 -0.23)">
      <defs>
       <path id="DejaVuSans-4e" d="M 628 4666 
L 1478 4666 
L 3547 763 
L 3547 4666 
L 4159 4666 
L 4159 0 
L 3309 0 
L 1241 3903 
L 1241 0 
L 628 0 
L 628 4666 
z
" transform="scale(0.015625)"/>
       <path id="DejaVuSans-6f" d="M 1959 3097 
Q 1497 3097 1228 2736 
Q 959 2375 959 1747 
Q 959 1119 1226 758 
Q 1494 397 1959 397 
Q 2419 397 2687 759 
Q 2956 1122 2956 1747 
Q 2956 2369 2687 2733 
Q 2419 3097 1959 3097 
z
M 1959 3584 
Q 2709 3584 3137 3096 
Q 3566 2609 3566 1747 
Q 3566 888 3137 398 
Q 2709 -91 1959 -91 
Q 1206 -91 779 398 
Q 353 888 353 1747 
Q 353 2609 779 3096 
Q 1206 3584 1959 3584 
z
" transform="scale(0.015625)"/>
       <path id="DejaVuSans-72" d="M 2631 2963 
Q 2534 3019 2420 3045 
Q 2306 3072 2169 3072 
Q 1681 3072 1420 2755 
Q 1159 2438 1159 1844 
L 1159 0 
L 581 0 
L 581 3500 
L 1159 3500 
L 1159 2956 
Q 1341 3275 1631 3429 
Q 1922 3584 2338 3584 
Q 2397 3584 2469 3576 
Q 2541 3569 2628 3553 
L 2631 2963 
z
" transform="scale(0.015625)"/>
       <path id="DejaVuSans-6d" d="M 3328 2828 
Q 3544 3216 3844 3400 
Q 4144 3584 4550 3584 
Q 5097 3584 5394 3201 
Q 5691 2819 5691 2113 
L 5691 0 
L 5113 0 
L 5113 2094 
Q 5113 2597 4934 2840 
Q 4756 3084 4391 3084 
Q 3944 3084 3684 2787 
Q 3425 2491 3425 1978 
L 3425 0 
L 2847 0 
L 2847 2094 
Q 2847 2600 2669 2842 
Q 2491 3084 2119 3084 
Q 1678 3084 1418 2786 
Q 1159 2488 1159 1978 
L 1159 0 
L 581 0 
L 581 3500 
L 1159 3500 
L 1159 2956 
Q 1356 3278 1631 3431 
Q 1906 3584 2284 3584 
Q 2666 3584 2933 3390 
Q 3200 3197 3328 2828 
z
" transform="scale(0.015625)"/>
       <path id="DejaVuSans-65" d="M 3597 1894 
L 3597 1613 
L 953 1613 
Q 991 1019 1311 708 
Q 1631 397 2203 397 
Q 2534 397 2845 478 
Q 3156 559 3463 722 
L 3463 178 
Q 3153 47 2828 -22 
Q 2503 -91 2169 -91 
Q 1331 -91 842 396 
Q 353 884 353 1716 
Q 353 2575 817 3079 
Q 1281 3584 2069 3584 
Q 2775 3584 3186 3129 
Q 3597 2675 3597 1894 
z
M 3022 2063 
Q 3016 2534 2758 2815 
Q 2500 3097 2075 3097 
Q 1594 3097 1305 2825 
Q 1016 2553 972 2059 
L 3022 2063 
z
" transform="scale(0.015625)"/>
       <path id="DejaVuSans-64" d="M 2906 2969 
L 2906 4863 
L 3481 4863 
L 3481 0 
L 2906 0 
L 2906 525 
Q 2725 213 2448 61 
Q 2172 -91 1784 -91 
Q 1150 -91 751 415 
Q 353 922 353 1747 
Q 353 2572 751 3078 
Q 1150 3584 1784 3584 
Q 2172 3584 2448 3432 
Q 2725 3281 2906 2969 
z
M 947 1747 
Q 947 1113 1208 752 
Q 1469 391 1925 391 
Q 2381 391 2643 752 
Q 2906 1113 2906 1747 
Q 2906 2381 2643 2742 
Q 2381 3103 1925 3103 
Q 1469 3103 1208 2742 
Q 947 2381 947 1747 
z
" transform="scale(0.015625)"/>
       <path id="DejaVuSans-20" transform="scale(0.015625)"/>
       <path id="DejaVuSans-48" d="M 628 4666 
L 1259 4666 
L 1259 2753 
L 3553 2753 
L 3553 4666 
L 4184 4666 
L 4184 0 
L 3553 0 
L 3553 2222 
L 1259 2222 
L 1259 0 
L 628 0 
L 628 4666 
z
" transform="scale(0.015625)"/>
       <path id="DejaVuSans-69" d="M 603 3500 
L 1178 3500 
L 1178 0 
L 603 0 
L 603 3500 
z
M 603 4863 
L 1178 4863 
L 1178 4134 
L 603 4134 
L 603 4863 
z
" transform="scale(0.015625)"/>
       <path id="DejaVuSans-73" d="M 2834 3397 
L 2834 2853 
Q 2591 2978 2328 3040 
Q 2066 3103 1784 3103 
Q 1356 3103 1142 2972 
Q 928 2841 928 2578 
Q 928 2378 1081 2264 
Q 1234 2150 1697 2047 
L 1894 2003 
Q 2506 1872 2764 1633 
Q 3022 1394 3022 966 
Q 3022 478 2636 193 
Q 2250 -91 1575 -91 
Q 1294 -91 989 -36 
Q 684 19 347 128 
L 347 722 
Q 666 556 975 473 
Q 1284 391 1588 391 
Q 1994 391 2212 530 
Q 2431 669 2431 922 
Q 2431 1156 2273 1281 
Q 2116 1406 1581 1522 
L 1381 1569 
Q 847 1681 609 1914 
Q 372 2147 372 2553 
Q 372 3047 722 3315 
Q 1072 3584 1716 3584 
Q 2034 3584 2315 3537 
Q 2597 3491 2834 3397 
z
" transform="scale(0.015625)"/>
       <path id="DejaVuSans-74" d="M 1172 4494 
L 1172 3500 
L 2356 3500 
L 2356 3053 
L 1172 3053 
L 1172 1153 
Q 1172 725 1289 603 
Q 1406 481 1766 481 
L 2356 481 
L 2356 0 
L 1766 0 
Q 1100 0 847 248 
Q 594 497 594 1153 
L 594 3053 
L 172 3053 
L 172 3500 
L 594 3500 
L 594 4494 
L 1172 4494 
z
" transform="scale(0.015625)"/>
       <path id="DejaVuSans-43" d="M 4122 4306 
L 4122 3641 
Q 3803 3938 3442 4084 
Q 3081 4231 2675 4231 
Q 1875 4231 1450 3742 
Q 1025 3253 1025 2328 
Q 1025 1406 1450 917 
Q 1875 428 2675 428 
Q 3081 428 3442 575 
Q 3803 722 4122 1019 
L 4122 359 
Q 3791 134 3420 21 
Q 3050 -91 2638 -91 
Q 1578 -91 968 557 
Q 359 1206 359 2328 
Q 359 3453 968 4101 
Q 1578 4750 2638 4750 
Q 3056 4750 3426 4639 
Q 3797 4528 4122 4306 
z
" transform="scale(0.015625)"/>
       <path id="DejaVuSans-75" d="M 544 1381 
L 544 3500 
L 1119 3500 
L 1119 1403 
Q 1119 906 1312 657 
Q 1506 409 1894 409 
Q 2359 409 2629 706 
Q 2900 1003 2900 1516 
L 2900 3500 
L 3475 3500 
L 3475 0 
L 2900 0 
L 2900 538 
Q 2691 219 2414 64 
Q 2138 -91 1772 -91 
Q 1169 -91 856 284 
Q 544 659 544 1381 
z
M 1991 3584 
L 1991 3584 
z
" transform="scale(0.015625)"/>
       <path id="DejaVuSans-6e" d="M 3513 2113 
L 3513 0 
L 2938 0 
L 2938 2094 
Q 2938 2591 2744 2837 
Q 2550 3084 2163 3084 
Q 1697 3084 1428 2787 
Q 1159 2491 1159 1978 
L 1159 0 
L 581 0 
L 581 3500 
L 1159 3500 
L 1159 2956 
Q 1366 3272 1645 3428 
Q 1925 3584 2291 3584 
Q 2894 3584 3203 3211 
Q 3513 2838 3513 2113 
z
" transform="scale(0.015625)"/>
      </defs>
      <use xlink:href="#DejaVuSans-4e"/>
      <use xlink:href="#DejaVuSans-6f" x="74.804688"/>
      <use xlink:href="#DejaVuSans-72" x="135.986328"/>
      <use xlink:href="#DejaVuSans-6d" x="175.349609"/>
      <use xlink:href="#DejaVuSans-65" x="272.761719"/>
      <use xlink:href="#DejaVuSans-64" x="334.285156"/>
      <use xlink:href="#DejaVuSans-20" x="397.761719"/>
      <use xlink:href="#DejaVuSans-48" x="429.548828"/>
      <use xlink:href="#DejaVuSans-69" x="504.744141"/>
      <use xlink:href="#DejaVuSans-73" x="532.527344"/>
      <use xlink:href="#DejaVuSans-74" x="584.626953"/>
      <use xlink:href="#DejaVuSans-20" x="623.835938"/>
      <use xlink:href="#DejaVuSans-43" x="655.623047"/>
      <use xlink:href="#DejaVuSans-6f" x="725.447266"/>
      <use xlink:href="#DejaVuSans-75" x="786.628906"/>
      <use xlink:href="#DejaVuSans-6e" x="850.007812"/>
      <use xlink:href="#DejaVuSans-74" x="913.386719"/>
      <use xlink:href="#DejaVuSans-73" x="952.595703"/>
     </g>
    </g>
   </g>
   <g id="line2d_17">
    <path d="M 158.885326 94.153505 
L 160.61124 -1 
M 248.82827 -1 
L 249.306773 6.739883 
L 255.33487 101.561017 
L 261.362966 192.037001 
L 267.391063 276.890966 
L 273.419159 355.21453 
L 279.447256 426.439993 
L 285.475352 490.302924 
L 291.503449 546.798313 
L 297.531545 596.133442 
L 303.559642 638.68033 
L 309.587738 674.930164 
L 315.615835 705.451608 
L 321.643931 730.854292 
L 327.672028 751.758242 
L 333.700124 768.769527 
L 339.728221 782.461969 
L 345.756317 793.364458 
L 351.784414 801.953205 
L 357.81251 808.648122 
L 363.840607 813.812503 
L 369.868703 817.755174 
L 375.8968 820.734375 
L 381.924896 822.962707 
L 387.952993 824.612621 
L 393.981089 825.822028 
L 400.009186 826.699713 
L 406.037282 827.330357 
L 412.065379 827.77903 
L 424.121572 828.315604 
L 436.177765 828.572131 
L 454.262054 828.721585 
L 502.486826 828.778093 
L 1358.47653 828.779375 
L 1358.47653 828.779375 
" clip-path="url(#pce0bd9c043)" style="fill: none; stroke: #ff7f0e; stroke-width: 2; stroke-linecap: square"/>
   </g>
   <g id="line2d_18">
    <path d="M 158.885326 738.541902 
L 164.913422 601.09748 
L 170.941519 485.259423 
L 176.969615 388.971793 
L 182.997712 310.049031 
L 189.025808 246.432312 
L 195.053905 196.237954 
L 201.082001 157.763061 
L 207.110098 129.47811 
L 213.138194 110.015077 
L 219.166291 98.154231 
L 225.194387 92.810903 
L 231.222484 93.022803 
L 237.25058 97.938122 
L 243.278677 106.804529 
L 249.306773 118.959061 
L 255.33487 133.818897 
L 261.362966 150.872963 
L 267.391063 169.674323 
L 273.419159 189.833283 
L 279.447256 211.011173 
L 285.475352 232.914728 
L 297.531545 277.922996 
L 315.615835 345.635793 
L 321.643931 367.70081 
L 327.672028 389.343795 
L 333.700124 410.489975 
L 339.728221 431.079299 
L 345.756317 451.064557 
L 351.784414 470.409711 
L 357.81251 489.088408 
L 363.840607 507.082663 
L 369.868703 524.381683 
L 375.8968 540.98083 
L 381.924896 556.880707 
L 387.952993 572.086342 
L 393.981089 586.606477 
L 400.009186 600.452936 
L 406.037282 613.640079 
L 412.065379 626.184313 
L 418.093475 638.103673 
L 424.121572 649.417455 
L 430.149668 660.145895 
L 436.177765 670.309893 
L 442.205861 679.930779 
L 448.233958 689.030105 
L 454.262054 697.629472 
L 460.290151 705.750383 
L 466.318247 713.414121 
L 472.346344 720.641643 
L 478.37444 727.453493 
L 484.402537 733.869738 
L 490.430633 739.909907 
L 496.45873 745.59295 
L 502.486826 750.937202 
L 508.514923 755.960365 
L 514.543019 760.679484 
L 520.571116 765.110943 
L 526.599212 769.270458 
L 532.627309 773.173082 
L 538.655405 776.833205 
L 544.683502 780.264568 
L 550.711598 783.480269 
L 556.739695 786.492784 
L 562.767791 789.313976 
L 568.795888 791.955116 
L 574.823984 794.426901 
L 580.852081 796.739474 
L 586.880177 798.902441 
L 592.908274 800.924896 
L 598.93637 802.815437 
L 604.964467 804.58219 
L 617.02066 807.77459 
L 629.076853 810.558402 
L 641.133046 812.983637 
L 653.189239 815.094613 
L 665.245432 816.930516 
L 677.301625 818.52593 
L 689.357818 819.91132 
L 701.414011 821.113484 
L 719.4983 822.623854 
L 737.58259 823.841788 
L 755.666879 824.822611 
L 773.751169 825.611513 
L 797.863555 826.427473 
L 821.975941 827.035753 
L 852.116423 827.582115 
L 888.285002 828.018715 
L 936.509774 828.365494 
L 1002.818836 828.601244 
L 1111.324573 828.73512 
L 1358.47653 828.777601 
L 1358.47653 828.777601 
" clip-path="url(#pce0bd9c043)" style="fill: none; stroke: #2ca02c; stroke-width: 2; stroke-linecap: square"/>
   </g>
   <g id="line2d_19">
    <path d="M 158.885326 611.649565 
L 164.913422 593.475485 
L 170.941519 574.676214 
L 176.969615 555.339195 
L 189.025808 515.464672 
L 213.138194 434.437111 
L 219.166291 414.756129 
L 225.194387 395.620287 
L 231.222484 377.192365 
L 237.25058 359.634738 
L 243.278677 343.107029 
L 249.306773 327.763715 
L 255.33487 313.751742 
L 261.362966 301.208191 
L 267.391063 290.258049 
L 273.419159 281.012139 
L 279.447256 273.565255 
L 285.475352 267.994544 
L 291.503449 264.358174 
L 297.531545 262.694327 
L 303.559642 263.020527 
L 309.587738 265.333336 
L 315.615835 269.608412 
L 321.643931 275.800938 
L 327.672028 283.846402 
L 333.700124 293.661716 
L 339.728221 305.146646 
L 345.756317 318.185513 
L 351.784414 332.649133 
L 357.81251 348.396943 
L 363.840607 365.279269 
L 369.868703 383.139685 
L 375.8968 401.817404 
L 381.924896 421.149664 
L 393.981089 461.130689 
L 418.093475 542.082438 
L 424.121572 561.725536 
L 430.149668 580.896856 
L 436.177765 599.500373 
L 442.205861 617.452871 
L 448.233958 634.684101 
L 454.262054 651.136719 
L 460.290151 666.766004 
L 466.318247 681.539389 
L 472.346344 695.435836 
L 478.37444 708.445059 
L 484.402537 720.566654 
L 490.430633 731.809141 
L 496.45873 742.188949 
L 502.486826 751.72938 
L 508.514923 760.459564 
L 514.543019 768.41343 
L 520.571116 775.628716 
L 526.599212 782.146025 
L 532.627309 788.007952 
L 538.655405 793.258272 
L 544.683502 797.941225 
L 550.711598 802.10087 
L 556.739695 805.780533 
L 562.767791 809.02234 
L 568.795888 811.866834 
L 574.823984 814.352667 
L 580.852081 816.516369 
L 586.880177 818.392188 
L 592.908274 820.011986 
L 598.93637 821.405192 
L 604.964467 822.598801 
L 610.992563 823.61741 
L 617.02066 824.483293 
L 623.048756 825.216493 
L 635.104949 826.354591 
L 647.161142 827.152217 
L 659.217335 827.702732 
L 677.301625 828.214998 
L 695.385914 828.492753 
L 725.526397 828.693017 
L 785.807362 828.773354 
L 1255.998889 828.779375 
L 1358.47653 828.779375 
L 1358.47653 828.779375 
" clip-path="url(#pce0bd9c043)" style="fill: none; stroke: #d62728; stroke-width: 2; stroke-linecap: square"/>
   </g>
   <g id="patch_103">
    <path d="M 95.590313 828.779375 
L 95.590313 38.075625 
" style="fill: none; stroke: #000000; stroke-width: 0.8; stroke-linejoin: miter; stroke-linecap: square"/>
   </g>
   <g id="patch_104">
    <path d="M 1421.771543 828.779375 
L 1421.771543 38.075625 
" style="fill: none; stroke: #000000; stroke-width: 0.8; stroke-linejoin: miter; stroke-linecap: square"/>
   </g>
   <g id="patch_105">
    <path d="M 95.590313 828.779375 
L 1421.771543 828.779375 
" style="fill: none; stroke: #000000; stroke-width: 0.8; stroke-linejoin: miter; stroke-linecap: square"/>
   </g>
   <g id="patch_106">
    <path d="M 95.590313 38.075625 
L 1421.771543 38.075625 
" style="fill: none; stroke: #000000; stroke-width: 0.8; stroke-linejoin: miter; stroke-linecap: square"/>
   </g>
   <g id="text_18">
    <!-- All Fitted Distributions -->
    <g transform="translate(604.055303 32.075625)scale(0.28 -0.28)">
     <defs>
      <path id="DejaVuSans-41" d="M 2188 4044 
L 1331 1722 
L 3047 1722 
L 2188 4044 
z
M 1831 4666 
L 2547 4666 
L 4325 0 
L 3669 0 
L 3244 1197 
L 1141 1197 
L 716 0 
L 50 0 
L 1831 4666 
z
" transform="scale(0.015625)"/>
      <path id="DejaVuSans-6c" d="M 603 4863 
L 1178 4863 
L 1178 0 
L 603 0 
L 603 4863 
z
" transform="scale(0.015625)"/>
      <path id="DejaVuSans-46" d="M 628 4666 
L 3309 4666 
L 3309 4134 
L 1259 4134 
L 1259 2759 
L 3109 2759 
L 3109 2228 
L 1259 2228 
L 1259 0 
L 628 0 
L 628 4666 
z
" transform="scale(0.015625)"/>
      <path id="DejaVuSans-44" d="M 1259 4147 
L 1259 519 
L 2022 519 
Q 2988 519 3436 956 
Q 3884 1394 3884 2338 
Q 3884 3275 3436 3711 
Q 2988 4147 2022 4147 
L 1259 4147 
z
M 628 4666 
L 1925 4666 
Q 3281 4666 3915 4102 
Q 4550 3538 4550 2338 
Q 4550 1131 3912 565 
Q 3275 0 1925 0 
L 628 0 
L 628 4666 
z
" transform="scale(0.015625)"/>
      <path id="DejaVuSans-62" d="M 3116 1747 
Q 3116 2381 2855 2742 
Q 2594 3103 2138 3103 
Q 1681 3103 1420 2742 
Q 1159 2381 1159 1747 
Q 1159 1113 1420 752 
Q 1681 391 2138 391 
Q 2594 391 2855 752 
Q 3116 1113 3116 1747 
z
M 1159 2969 
Q 1341 3281 1617 3432 
Q 1894 3584 2278 3584 
Q 2916 3584 3314 3078 
Q 3713 2572 3713 1747 
Q 3713 922 3314 415 
Q 2916 -91 2278 -91 
Q 1894 -91 1617 61 
Q 1341 213 1159 525 
L 1159 0 
L 581 0 
L 581 4863 
L 1159 4863 
L 1159 2969 
z
" transform="scale(0.015625)"/>
     </defs>
     <use xlink:href="#DejaVuSans-41"/>
     <use xlink:href="#DejaVuSans-6c" x="68.408203"/>
     <use xlink:href="#DejaVuSans-6c" x="96.191406"/>
     <use xlink:href="#DejaVuSans-20" x="123.974609"/>
     <use xlink:href="#DejaVuSans-46" x="155.761719"/>
     <use xlink:href="#DejaVuSans-69" x="206.03125"/>
     <use xlink:href="#DejaVuSans-74" x="233.814453"/>
     <use xlink:href="#DejaVuSans-74" x="273.023438"/>
     <use xlink:href="#DejaVuSans-65" x="312.232422"/>
     <use xlink:href="#DejaVuSans-64" x="373.755859"/>
     <use xlink:href="#DejaVuSans-20" x="437.232422"/>
     <use xlink:href="#DejaVuSans-44" x="469.019531"/>
     <use xlink:href="#DejaVuSans-69" x="546.021484"/>
     <use xlink:href="#DejaVuSans-73" x="573.804688"/>
     <use xlink:href="#DejaVuSans-74" x="625.904297"/>
     <use xlink:href="#DejaVuSans-72" x="665.113281"/>
     <use xlink:href="#DejaVuSans-69" x="706.226562"/>
     <use xlink:href="#DejaVuSans-62" x="734.009766"/>
     <use xlink:href="#DejaVuSans-75" x="797.486328"/>
     <use xlink:href="#DejaVuSans-74" x="860.865234"/>
     <use xlink:href="#DejaVuSans-69" x="900.074219"/>
     <use xlink:href="#DejaVuSans-6f" x="927.857422"/>
     <use xlink:href="#DejaVuSans-6e" x="989.039062"/>
     <use xlink:href="#DejaVuSans-73" x="1052.417969"/>
    </g>
   </g>
   <g id="legend_1">
    <g id="patch_107">
     <path d="M 1053.206543 198.185625 
L 1404.971543 198.185625 
Q 1409.771543 198.185625 1409.771543 193.385625 
L 1409.771543 54.875625 
Q 1409.771543 50.075625 1404.971543 50.075625 
L 1053.206543 50.075625 
Q 1048.406543 50.075625 1048.406543 54.875625 
L 1048.406543 193.385625 
Q 1048.406543 198.185625 1053.206543 198.185625 
z
" style="fill: #ffffff; opacity: 0.8; stroke: #cccccc; stroke-linejoin: miter"/>
    </g>
    <g id="patch_108">
     <path d="M 1058.006543 77.911875 
L 1106.006543 77.911875 
L 1106.006543 61.111875 
L 1058.006543 61.111875 
z
" style="fill: #1f77b4; opacity: 0.6"/>
    </g>
    <g id="text_19">
     <!-- Generated Distribution -->
     <g transform="translate(1125.206543 77.911875)scale(0.24 -0.24)">
      <defs>
       <path id="DejaVuSans-47" d="M 3809 666 
L 3809 1919 
L 2778 1919 
L 2778 2438 
L 4434 2438 
L 4434 434 
Q 4069 175 3628 42 
Q 3188 -91 2688 -91 
Q 1594 -91 976 548 
Q 359 1188 359 2328 
Q 359 3472 976 4111 
Q 1594 4750 2688 4750 
Q 3144 4750 3555 4637 
Q 3966 4525 4313 4306 
L 4313 3634 
Q 3963 3931 3569 4081 
Q 3175 4231 2741 4231 
Q 1884 4231 1454 3753 
Q 1025 3275 1025 2328 
Q 1025 1384 1454 906 
Q 1884 428 2741 428 
Q 3075 428 3337 486 
Q 3600 544 3809 666 
z
" transform="scale(0.015625)"/>
       <path id="DejaVuSans-61" d="M 2194 1759 
Q 1497 1759 1228 1600 
Q 959 1441 959 1056 
Q 959 750 1161 570 
Q 1363 391 1709 391 
Q 2188 391 2477 730 
Q 2766 1069 2766 1631 
L 2766 1759 
L 2194 1759 
z
M 3341 1997 
L 3341 0 
L 2766 0 
L 2766 531 
Q 2569 213 2275 61 
Q 1981 -91 1556 -91 
Q 1019 -91 701 211 
Q 384 513 384 1019 
Q 384 1609 779 1909 
Q 1175 2209 1959 2209 
L 2766 2209 
L 2766 2266 
Q 2766 2663 2505 2880 
Q 2244 3097 1772 3097 
Q 1472 3097 1187 3025 
Q 903 2953 641 2809 
L 641 3341 
Q 956 3463 1253 3523 
Q 1550 3584 1831 3584 
Q 2591 3584 2966 3190 
Q 3341 2797 3341 1997 
z
" transform="scale(0.015625)"/>
      </defs>
      <use xlink:href="#DejaVuSans-47"/>
      <use xlink:href="#DejaVuSans-65" x="77.490234"/>
      <use xlink:href="#DejaVuSans-6e" x="139.013672"/>
      <use xlink:href="#DejaVuSans-65" x="202.392578"/>
      <use xlink:href="#DejaVuSans-72" x="263.916016"/>
      <use xlink:href="#DejaVuSans-61" x="305.029297"/>
      <use xlink:href="#DejaVuSans-74" x="366.308594"/>
      <use xlink:href="#DejaVuSans-65" x="405.517578"/>
      <use xlink:href="#DejaVuSans-64" x="467.041016"/>
      <use xlink:href="#DejaVuSans-20" x="530.517578"/>
      <use xlink:href="#DejaVuSans-44" x="562.304688"/>
      <use xlink:href="#DejaVuSans-69" x="639.306641"/>
      <use xlink:href="#DejaVuSans-73" x="667.089844"/>
      <use xlink:href="#DejaVuSans-74" x="719.189453"/>
      <use xlink:href="#DejaVuSans-72" x="758.398438"/>
      <use xlink:href="#DejaVuSans-69" x="799.511719"/>
      <use xlink:href="#DejaVuSans-62" x="827.294922"/>
      <use xlink:href="#DejaVuSans-75" x="890.771484"/>
      <use xlink:href="#DejaVuSans-74" x="954.150391"/>
      <use xlink:href="#DejaVuSans-69" x="993.359375"/>
      <use xlink:href="#DejaVuSans-6f" x="1021.142578"/>
      <use xlink:href="#DejaVuSans-6e" x="1082.324219"/>
     </g>
    </g>
    <g id="line2d_20">
     <path d="M 1058.006543 104.739375 
L 1082.006543 104.739375 
L 1106.006543 104.739375 
" style="fill: none; stroke: #ff7f0e; stroke-width: 2; stroke-linecap: square"/>
    </g>
    <g id="text_20">
     <!-- Chi fit -->
     <g transform="translate(1125.206543 113.139375)scale(0.24 -0.24)">
      <defs>
       <path id="DejaVuSans-68" d="M 3513 2113 
L 3513 0 
L 2938 0 
L 2938 2094 
Q 2938 2591 2744 2837 
Q 2550 3084 2163 3084 
Q 1697 3084 1428 2787 
Q 1159 2491 1159 1978 
L 1159 0 
L 581 0 
L 581 4863 
L 1159 4863 
L 1159 2956 
Q 1366 3272 1645 3428 
Q 1925 3584 2291 3584 
Q 2894 3584 3203 3211 
Q 3513 2838 3513 2113 
z
" transform="scale(0.015625)"/>
       <path id="DejaVuSans-66" d="M 2375 4863 
L 2375 4384 
L 1825 4384 
Q 1516 4384 1395 4259 
Q 1275 4134 1275 3809 
L 1275 3500 
L 2222 3500 
L 2222 3053 
L 1275 3053 
L 1275 0 
L 697 0 
L 697 3053 
L 147 3053 
L 147 3500 
L 697 3500 
L 697 3744 
Q 697 4328 969 4595 
Q 1241 4863 1831 4863 
L 2375 4863 
z
" transform="scale(0.015625)"/>
      </defs>
      <use xlink:href="#DejaVuSans-43"/>
      <use xlink:href="#DejaVuSans-68" x="69.824219"/>
      <use xlink:href="#DejaVuSans-69" x="133.203125"/>
      <use xlink:href="#DejaVuSans-20" x="160.986328"/>
      <use xlink:href="#DejaVuSans-66" x="192.773438"/>
      <use xlink:href="#DejaVuSans-69" x="227.978516"/>
      <use xlink:href="#DejaVuSans-74" x="255.761719"/>
     </g>
    </g>
    <g id="line2d_21">
     <path d="M 1058.006543 139.966875 
L 1082.006543 139.966875 
L 1106.006543 139.966875 
" style="fill: none; stroke: #2ca02c; stroke-width: 2; stroke-linecap: square"/>
    </g>
    <g id="text_21">
     <!-- ChiSquared fit -->
     <g transform="translate(1125.206543 148.366875)scale(0.24 -0.24)">
      <defs>
       <path id="DejaVuSans-53" d="M 3425 4513 
L 3425 3897 
Q 3066 4069 2747 4153 
Q 2428 4238 2131 4238 
Q 1616 4238 1336 4038 
Q 1056 3838 1056 3469 
Q 1056 3159 1242 3001 
Q 1428 2844 1947 2747 
L 2328 2669 
Q 3034 2534 3370 2195 
Q 3706 1856 3706 1288 
Q 3706 609 3251 259 
Q 2797 -91 1919 -91 
Q 1588 -91 1214 -16 
Q 841 59 441 206 
L 441 856 
Q 825 641 1194 531 
Q 1563 422 1919 422 
Q 2459 422 2753 634 
Q 3047 847 3047 1241 
Q 3047 1584 2836 1778 
Q 2625 1972 2144 2069 
L 1759 2144 
Q 1053 2284 737 2584 
Q 422 2884 422 3419 
Q 422 4038 858 4394 
Q 1294 4750 2059 4750 
Q 2388 4750 2728 4690 
Q 3069 4631 3425 4513 
z
" transform="scale(0.015625)"/>
       <path id="DejaVuSans-71" d="M 947 1747 
Q 947 1113 1208 752 
Q 1469 391 1925 391 
Q 2381 391 2643 752 
Q 2906 1113 2906 1747 
Q 2906 2381 2643 2742 
Q 2381 3103 1925 3103 
Q 1469 3103 1208 2742 
Q 947 2381 947 1747 
z
M 2906 525 
Q 2725 213 2448 61 
Q 2172 -91 1784 -91 
Q 1150 -91 751 415 
Q 353 922 353 1747 
Q 353 2572 751 3078 
Q 1150 3584 1784 3584 
Q 2172 3584 2448 3432 
Q 2725 3281 2906 2969 
L 2906 3500 
L 3481 3500 
L 3481 -1331 
L 2906 -1331 
L 2906 525 
z
" transform="scale(0.015625)"/>
      </defs>
      <use xlink:href="#DejaVuSans-43"/>
      <use xlink:href="#DejaVuSans-68" x="69.824219"/>
      <use xlink:href="#DejaVuSans-69" x="133.203125"/>
      <use xlink:href="#DejaVuSans-53" x="160.986328"/>
      <use xlink:href="#DejaVuSans-71" x="224.462891"/>
      <use xlink:href="#DejaVuSans-75" x="287.939453"/>
      <use xlink:href="#DejaVuSans-61" x="351.318359"/>
      <use xlink:href="#DejaVuSans-72" x="412.597656"/>
      <use xlink:href="#DejaVuSans-65" x="451.460938"/>
      <use xlink:href="#DejaVuSans-64" x="512.984375"/>
      <use xlink:href="#DejaVuSans-20" x="576.460938"/>
      <use xlink:href="#DejaVuSans-66" x="608.248047"/>
      <use xlink:href="#DejaVuSans-69" x="643.453125"/>
      <use xlink:href="#DejaVuSans-74" x="671.236328"/>
     </g>
    </g>
    <g id="line2d_22">
     <path d="M 1058.006543 175.194375 
L 1082.006543 175.194375 
L 1106.006543 175.194375 
" style="fill: none; stroke: #d62728; stroke-width: 2; stroke-linecap: square"/>
    </g>
    <g id="text_22">
     <!-- Normal fit -->
     <g transform="translate(1125.206543 183.594375)scale(0.24 -0.24)">
      <use xlink:href="#DejaVuSans-4e"/>
      <use xlink:href="#DejaVuSans-6f" x="74.804688"/>
      <use xlink:href="#DejaVuSans-72" x="135.986328"/>
      <use xlink:href="#DejaVuSans-6d" x="175.349609"/>
      <use xlink:href="#DejaVuSans-61" x="272.761719"/>
      <use xlink:href="#DejaVuSans-6c" x="334.041016"/>
      <use xlink:href="#DejaVuSans-20" x="361.824219"/>
      <use xlink:href="#DejaVuSans-66" x="393.611328"/>
      <use xlink:href="#DejaVuSans-69" x="428.816406"/>
      <use xlink:href="#DejaVuSans-74" x="456.599609"/>
     </g>
    </g>
   </g>
  </g>
 </g>
 <defs>
  <clipPath id="pce0bd9c043">
   <rect x="95.590313" y="38.075625" width="1326.18123" height="790.70375"/>
  </clipPath>
 </defs>
</svg>
