<?xml version="1.0" encoding="utf-8" standalone="no"?>
<!DOCTYPE svg PUBLIC "-//W3C//DTD SVG 1.1//EN"
  "http://www.w3.org/Graphics/SVG/1.1/DTD/svg11.dtd">
<svg xmlns:xlink="http://www.w3.org/1999/xlink" width="1440pt" height="864pt" viewBox="0 0 1440 864" xmlns="http://www.w3.org/2000/svg" version="1.1">
 <metadata>
  <rdf:RDF xmlns:dc="http://purl.org/dc/elements/1.1/" xmlns:cc="http://creativecommons.org/ns#" xmlns:rdf="http://www.w3.org/1999/02/22-rdf-syntax-ns#">
   <cc:Work>
    <dc:type rdf:resource="http://purl.org/dc/dcmitype/StillImage"/>
    <dc:date>2024-07-22T13:38:24.085160</dc:date>
    <dc:format>image/svg+xml</dc:format>
    <dc:creator>
     <cc:Agent>
      <dc:title>Matplotlib v3.9.1, https://matplotlib.org/</dc:title>
     </cc:Agent>
    </dc:creator>
   </cc:Work>
  </rdf:RDF>
 </metadata>
 <defs>
  <style type="text/css">*{stroke-linejoin: round; stroke-linecap: butt}</style>
 </defs>
 <g id="figure_1">
  <g id="patch_1">
   <path d="M 0 864 
L 1440 864 
L 1440 0 
L 0 0 
z
" style="fill: #ffffff"/>
  </g>
  <g id="axes_1">
   <g id="patch_2">
    <path d="M 72.685313 828.779375 
L 1429.2 828.779375 
L 1429.2 38.075625 
L 72.685313 38.075625 
z
" style="fill: #ffffff"/>
   </g>
   <g id="patch_3">
    <path d="M 134.345071 828.779375 
L 146.677023 828.779375 
L 146.677023 824.80549 
L 134.345071 824.80549 
z
" clip-path="url(#pbfaf2308e0)" style="fill: #1f77b4; opacity: 0.6"/>
   </g>
   <g id="patch_4">
    <path d="M 146.677023 828.779375 
L 159.008974 828.779375 
L 159.008974 821.825076 
L 146.677023 821.825076 
z
" clip-path="url(#pbfaf2308e0)" style="fill: #1f77b4; opacity: 0.6"/>
   </g>
   <g id="patch_5">
    <path d="M 159.008974 828.779375 
L 171.340926 828.779375 
L 171.340926 818.347927 
L 159.008974 818.347927 
z
" clip-path="url(#pbfaf2308e0)" style="fill: #1f77b4; opacity: 0.6"/>
   </g>
   <g id="patch_6">
    <path d="M 171.340926 828.779375 
L 183.672878 828.779375 
L 183.672878 812.3871 
L 171.340926 812.3871 
z
" clip-path="url(#pbfaf2308e0)" style="fill: #1f77b4; opacity: 0.6"/>
   </g>
   <g id="patch_7">
    <path d="M 183.672878 828.779375 
L 196.00483 828.779375 
L 196.00483 800.465445 
L 183.672878 800.465445 
z
" clip-path="url(#pbfaf2308e0)" style="fill: #1f77b4; opacity: 0.6"/>
   </g>
   <g id="patch_8">
    <path d="M 196.00483 828.779375 
L 208.336781 828.779375 
L 208.336781 793.014411 
L 196.00483 793.014411 
z
" clip-path="url(#pbfaf2308e0)" style="fill: #1f77b4; opacity: 0.6"/>
   </g>
   <g id="patch_9">
    <path d="M 208.336781 828.779375 
L 220.668733 828.779375 
L 220.668733 765.197216 
L 208.336781 765.197216 
z
" clip-path="url(#pbfaf2308e0)" style="fill: #1f77b4; opacity: 0.6"/>
   </g>
   <g id="patch_10">
    <path d="M 220.668733 828.779375 
L 233.000685 828.779375 
L 233.000685 746.817999 
L 220.668733 746.817999 
z
" clip-path="url(#pbfaf2308e0)" style="fill: #1f77b4; opacity: 0.6"/>
   </g>
   <g id="patch_11">
    <path d="M 233.000685 828.779375 
L 245.332636 828.779375 
L 245.332636 742.347378 
L 233.000685 742.347378 
z
" clip-path="url(#pbfaf2308e0)" style="fill: #1f77b4; opacity: 0.6"/>
   </g>
   <g id="patch_12">
    <path d="M 245.332636 828.779375 
L 257.664588 828.779375 
L 257.664588 704.595472 
L 245.332636 704.595472 
z
" clip-path="url(#pbfaf2308e0)" style="fill: #1f77b4; opacity: 0.6"/>
   </g>
   <g id="patch_13">
    <path d="M 257.664588 828.779375 
L 269.99654 828.779375 
L 269.99654 687.209725 
L 257.664588 687.209725 
z
" clip-path="url(#pbfaf2308e0)" style="fill: #1f77b4; opacity: 0.6"/>
   </g>
   <g id="patch_14">
    <path d="M 269.99654 828.779375 
L 282.328491 828.779375 
L 282.328491 642.006784 
L 269.99654 642.006784 
z
" clip-path="url(#pbfaf2308e0)" style="fill: #1f77b4; opacity: 0.6"/>
   </g>
   <g id="patch_15">
    <path d="M 282.328491 828.779375 
L 294.660443 828.779375 
L 294.660443 608.228762 
L 282.328491 608.228762 
z
" clip-path="url(#pbfaf2308e0)" style="fill: #1f77b4; opacity: 0.6"/>
   </g>
   <g id="patch_16">
    <path d="M 294.660443 828.779375 
L 306.992395 828.779375 
L 306.992395 574.450741 
L 294.660443 574.450741 
z
" clip-path="url(#pbfaf2308e0)" style="fill: #1f77b4; opacity: 0.6"/>
   </g>
   <g id="patch_17">
    <path d="M 306.992395 828.779375 
L 319.324347 828.779375 
L 319.324347 524.777179 
L 306.992395 524.777179 
z
" clip-path="url(#pbfaf2308e0)" style="fill: #1f77b4; opacity: 0.6"/>
   </g>
   <g id="patch_18">
    <path d="M 319.324347 828.779375 
L 331.656298 828.779375 
L 331.656298 474.606882 
L 319.324347 474.606882 
z
" clip-path="url(#pbfaf2308e0)" style="fill: #1f77b4; opacity: 0.6"/>
   </g>
   <g id="patch_19">
    <path d="M 331.656298 828.779375 
L 343.98825 828.779375 
L 343.98825 460.698285 
L 331.656298 460.698285 
z
" clip-path="url(#pbfaf2308e0)" style="fill: #1f77b4; opacity: 0.6"/>
   </g>
   <g id="patch_20">
    <path d="M 343.98825 828.779375 
L 356.320202 828.779375 
L 356.320202 398.109598 
L 343.98825 398.109598 
z
" clip-path="url(#pbfaf2308e0)" style="fill: #1f77b4; opacity: 0.6"/>
   </g>
   <g id="patch_21">
    <path d="M 356.320202 828.779375 
L 368.652153 828.779375 
L 368.652153 384.697736 
L 356.320202 384.697736 
z
" clip-path="url(#pbfaf2308e0)" style="fill: #1f77b4; opacity: 0.6"/>
   </g>
   <g id="patch_22">
    <path d="M 368.652153 828.779375 
L 380.984105 828.779375 
L 380.984105 318.6319 
L 368.652153 318.6319 
z
" clip-path="url(#pbfaf2308e0)" style="fill: #1f77b4; opacity: 0.6"/>
   </g>
   <g id="patch_23">
    <path d="M 380.984105 828.779375 
L 393.316057 828.779375 
L 393.316057 277.899579 
L 380.984105 277.899579 
z
" clip-path="url(#pbfaf2308e0)" style="fill: #1f77b4; opacity: 0.6"/>
   </g>
   <g id="patch_24">
    <path d="M 393.316057 828.779375 
L 405.648009 828.779375 
L 405.648009 260.513833 
L 393.316057 260.513833 
z
" clip-path="url(#pbfaf2308e0)" style="fill: #1f77b4; opacity: 0.6"/>
   </g>
   <g id="patch_25">
    <path d="M 405.648009 828.779375 
L 417.97996 828.779375 
L 417.97996 237.663995 
L 405.648009 237.663995 
z
" clip-path="url(#pbfaf2308e0)" style="fill: #1f77b4; opacity: 0.6"/>
   </g>
   <g id="patch_26">
    <path d="M 417.97996 828.779375 
L 430.311912 828.779375 
L 430.311912 183.519813 
L 417.97996 183.519813 
z
" clip-path="url(#pbfaf2308e0)" style="fill: #1f77b4; opacity: 0.6"/>
   </g>
   <g id="patch_27">
    <path d="M 430.311912 828.779375 
L 442.643864 828.779375 
L 442.643864 174.578572 
L 430.311912 174.578572 
z
" clip-path="url(#pbfaf2308e0)" style="fill: #1f77b4; opacity: 0.6"/>
   </g>
   <g id="patch_28">
    <path d="M 442.643864 828.779375 
L 454.975815 828.779375 
L 454.975815 128.38216 
L 442.643864 128.38216 
z
" clip-path="url(#pbfaf2308e0)" style="fill: #1f77b4; opacity: 0.6"/>
   </g>
   <g id="patch_29">
    <path d="M 454.975815 828.779375 
L 467.307767 828.779375 
L 467.307767 155.205883 
L 454.975815 155.205883 
z
" clip-path="url(#pbfaf2308e0)" style="fill: #1f77b4; opacity: 0.6"/>
   </g>
   <g id="patch_30">
    <path d="M 467.307767 828.779375 
L 479.639719 828.779375 
L 479.639719 127.885424 
L 467.307767 127.885424 
z
" clip-path="url(#pbfaf2308e0)" style="fill: #1f77b4; opacity: 0.6"/>
   </g>
   <g id="patch_31">
    <path d="M 479.639719 828.779375 
L 491.97167 828.779375 
L 491.97167 78.211863 
L 479.639719 78.211863 
z
" clip-path="url(#pbfaf2308e0)" style="fill: #1f77b4; opacity: 0.6"/>
   </g>
   <g id="patch_32">
    <path d="M 491.97167 828.779375 
L 504.303622 828.779375 
L 504.303622 133.846251 
L 491.97167 133.846251 
z
" clip-path="url(#pbfaf2308e0)" style="fill: #1f77b4; opacity: 0.6"/>
   </g>
   <g id="patch_33">
    <path d="M 504.303622 828.779375 
L 516.635574 828.779375 
L 516.635574 107.519264 
L 504.303622 107.519264 
z
" clip-path="url(#pbfaf2308e0)" style="fill: #1f77b4; opacity: 0.6"/>
   </g>
   <g id="patch_34">
    <path d="M 516.635574 828.779375 
L 528.967526 828.779375 
L 528.967526 113.480091 
L 516.635574 113.480091 
z
" clip-path="url(#pbfaf2308e0)" style="fill: #1f77b4; opacity: 0.6"/>
   </g>
   <g id="patch_35">
    <path d="M 528.967526 828.779375 
L 541.299477 828.779375 
L 541.299477 85.662897 
L 528.967526 85.662897 
z
" clip-path="url(#pbfaf2308e0)" style="fill: #1f77b4; opacity: 0.6"/>
   </g>
   <g id="patch_36">
    <path d="M 541.299477 828.779375 
L 553.631429 828.779375 
L 553.631429 75.728185 
L 541.299477 75.728185 
z
" clip-path="url(#pbfaf2308e0)" style="fill: #1f77b4; opacity: 0.6"/>
   </g>
   <g id="patch_37">
    <path d="M 553.631429 828.779375 
L 565.963381 828.779375 
L 565.963381 102.055172 
L 553.631429 102.055172 
z
" clip-path="url(#pbfaf2308e0)" style="fill: #1f77b4; opacity: 0.6"/>
   </g>
   <g id="patch_38">
    <path d="M 565.963381 828.779375 
L 578.295332 828.779375 
L 578.295332 137.323401 
L 565.963381 137.323401 
z
" clip-path="url(#pbfaf2308e0)" style="fill: #1f77b4; opacity: 0.6"/>
   </g>
   <g id="patch_39">
    <path d="M 578.295332 828.779375 
L 590.627284 828.779375 
L 590.627284 152.722205 
L 578.295332 152.722205 
z
" clip-path="url(#pbfaf2308e0)" style="fill: #1f77b4; opacity: 0.6"/>
   </g>
   <g id="patch_40">
    <path d="M 590.627284 828.779375 
L 602.959236 828.779375 
L 602.959236 150.238527 
L 590.627284 150.238527 
z
" clip-path="url(#pbfaf2308e0)" style="fill: #1f77b4; opacity: 0.6"/>
   </g>
   <g id="patch_41">
    <path d="M 602.959236 828.779375 
L 615.291187 828.779375 
L 615.291187 195.441467 
L 602.959236 195.441467 
z
" clip-path="url(#pbfaf2308e0)" style="fill: #1f77b4; opacity: 0.6"/>
   </g>
   <g id="patch_42">
    <path d="M 615.291188 828.779375 
L 627.623139 828.779375 
L 627.623139 200.905559 
L 615.291188 200.905559 
z
" clip-path="url(#pbfaf2308e0)" style="fill: #1f77b4; opacity: 0.6"/>
   </g>
   <g id="patch_43">
    <path d="M 627.623139 828.779375 
L 639.955091 828.779375 
L 639.955091 228.226018 
L 627.623139 228.226018 
z
" clip-path="url(#pbfaf2308e0)" style="fill: #1f77b4; opacity: 0.6"/>
   </g>
   <g id="patch_44">
    <path d="M 639.955091 828.779375 
L 652.287043 828.779375 
L 652.287043 244.121558 
L 639.955091 244.121558 
z
" clip-path="url(#pbfaf2308e0)" style="fill: #1f77b4; opacity: 0.6"/>
   </g>
   <g id="patch_45">
    <path d="M 652.287043 828.779375 
L 664.618994 828.779375 
L 664.618994 281.376729 
L 652.287043 281.376729 
z
" clip-path="url(#pbfaf2308e0)" style="fill: #1f77b4; opacity: 0.6"/>
   </g>
   <g id="patch_46">
    <path d="M 664.618994 828.779375 
L 676.950946 828.779375 
L 676.950946 356.383806 
L 664.618994 356.383806 
z
" clip-path="url(#pbfaf2308e0)" style="fill: #1f77b4; opacity: 0.6"/>
   </g>
   <g id="patch_47">
    <path d="M 676.950946 828.779375 
L 689.282898 828.779375 
L 689.282898 347.442565 
L 676.950946 347.442565 
z
" clip-path="url(#pbfaf2308e0)" style="fill: #1f77b4; opacity: 0.6"/>
   </g>
   <g id="patch_48">
    <path d="M 689.282898 828.779375 
L 701.614849 828.779375 
L 701.614849 372.279346 
L 689.282898 372.279346 
z
" clip-path="url(#pbfaf2308e0)" style="fill: #1f77b4; opacity: 0.6"/>
   </g>
   <g id="patch_49">
    <path d="M 701.614849 828.779375 
L 713.946801 828.779375 
L 713.946801 418.972494 
L 701.614849 418.972494 
z
" clip-path="url(#pbfaf2308e0)" style="fill: #1f77b4; opacity: 0.6"/>
   </g>
   <g id="patch_50">
    <path d="M 713.946801 828.779375 
L 726.278753 828.779375 
L 726.278753 426.423528 
L 713.946801 426.423528 
z
" clip-path="url(#pbfaf2308e0)" style="fill: #1f77b4; opacity: 0.6"/>
   </g>
   <g id="patch_51">
    <path d="M 726.278753 828.779375 
L 738.610705 828.779375 
L 738.610705 441.325596 
L 726.278753 441.325596 
z
" clip-path="url(#pbfaf2308e0)" style="fill: #1f77b4; opacity: 0.6"/>
   </g>
   <g id="patch_52">
    <path d="M 738.610705 828.779375 
L 750.942656 828.779375 
L 750.942656 509.875111 
L 738.610705 509.875111 
z
" clip-path="url(#pbfaf2308e0)" style="fill: #1f77b4; opacity: 0.6"/>
   </g>
   <g id="patch_53">
    <path d="M 750.942656 828.779375 
L 763.274608 828.779375 
L 763.274608 495.966514 
L 750.942656 495.966514 
z
" clip-path="url(#pbfaf2308e0)" style="fill: #1f77b4; opacity: 0.6"/>
   </g>
   <g id="patch_54">
    <path d="M 763.274608 828.779375 
L 775.60656 828.779375 
L 775.60656 540.672719 
L 763.274608 540.672719 
z
" clip-path="url(#pbfaf2308e0)" style="fill: #1f77b4; opacity: 0.6"/>
   </g>
   <g id="patch_55">
    <path d="M 775.60656 828.779375 
L 787.938511 828.779375 
L 787.938511 575.940948 
L 775.60656 575.940948 
z
" clip-path="url(#pbfaf2308e0)" style="fill: #1f77b4; opacity: 0.6"/>
   </g>
   <g id="patch_56">
    <path d="M 787.938511 828.779375 
L 800.270463 828.779375 
L 800.270463 604.254878 
L 787.938511 604.254878 
z
" clip-path="url(#pbfaf2308e0)" style="fill: #1f77b4; opacity: 0.6"/>
   </g>
   <g id="patch_57">
    <path d="M 800.270463 828.779375 
L 812.602415 828.779375 
L 812.602415 604.751613 
L 800.270463 604.751613 
z
" clip-path="url(#pbfaf2308e0)" style="fill: #1f77b4; opacity: 0.6"/>
   </g>
   <g id="patch_58">
    <path d="M 812.602415 828.779375 
L 824.934366 828.779375 
L 824.934366 619.156946 
L 812.602415 619.156946 
z
" clip-path="url(#pbfaf2308e0)" style="fill: #1f77b4; opacity: 0.6"/>
   </g>
   <g id="patch_59">
    <path d="M 824.934366 828.779375 
L 837.266318 828.779375 
L 837.266318 655.418646 
L 824.934366 655.418646 
z
" clip-path="url(#pbfaf2308e0)" style="fill: #1f77b4; opacity: 0.6"/>
   </g>
   <g id="patch_60">
    <path d="M 837.266318 828.779375 
L 849.59827 828.779375 
L 849.59827 672.307657 
L 837.266318 672.307657 
z
" clip-path="url(#pbfaf2308e0)" style="fill: #1f77b4; opacity: 0.6"/>
   </g>
   <g id="patch_61">
    <path d="M 849.59827 828.779375 
L 861.930222 828.779375 
L 861.930222 682.739105 
L 849.59827 682.739105 
z
" clip-path="url(#pbfaf2308e0)" style="fill: #1f77b4; opacity: 0.6"/>
   </g>
   <g id="patch_62">
    <path d="M 861.930222 828.779375 
L 874.262173 828.779375 
L 874.262173 700.621587 
L 861.930222 700.621587 
z
" clip-path="url(#pbfaf2308e0)" style="fill: #1f77b4; opacity: 0.6"/>
   </g>
   <g id="patch_63">
    <path d="M 874.262173 828.779375 
L 886.594125 828.779375 
L 886.594125 708.072621 
L 874.262173 708.072621 
z
" clip-path="url(#pbfaf2308e0)" style="fill: #1f77b4; opacity: 0.6"/>
   </g>
   <g id="patch_64">
    <path d="M 886.594125 828.779375 
L 898.926077 828.779375 
L 898.926077 726.451839 
L 886.594125 726.451839 
z
" clip-path="url(#pbfaf2308e0)" style="fill: #1f77b4; opacity: 0.6"/>
   </g>
   <g id="patch_65">
    <path d="M 898.926077 828.779375 
L 911.258028 828.779375 
L 911.258028 738.373493 
L 898.926077 738.373493 
z
" clip-path="url(#pbfaf2308e0)" style="fill: #1f77b4; opacity: 0.6"/>
   </g>
   <g id="patch_66">
    <path d="M 911.258028 828.779375 
L 923.58998 828.779375 
L 923.58998 749.798412 
L 911.258028 749.798412 
z
" clip-path="url(#pbfaf2308e0)" style="fill: #1f77b4; opacity: 0.6"/>
   </g>
   <g id="patch_67">
    <path d="M 923.58998 828.779375 
L 935.921932 828.779375 
L 935.921932 750.295148 
L 923.58998 750.295148 
z
" clip-path="url(#pbfaf2308e0)" style="fill: #1f77b4; opacity: 0.6"/>
   </g>
   <g id="patch_68">
    <path d="M 935.921932 828.779375 
L 948.253884 828.779375 
L 948.253884 774.635193 
L 935.921932 774.635193 
z
" clip-path="url(#pbfaf2308e0)" style="fill: #1f77b4; opacity: 0.6"/>
   </g>
   <g id="patch_69">
    <path d="M 948.253884 828.779375 
L 960.585835 828.779375 
L 960.585835 780.099285 
L 948.253884 780.099285 
z
" clip-path="url(#pbfaf2308e0)" style="fill: #1f77b4; opacity: 0.6"/>
   </g>
   <g id="patch_70">
    <path d="M 960.585835 828.779375 
L 972.917787 828.779375 
L 972.917787 782.582963 
L 960.585835 782.582963 
z
" clip-path="url(#pbfaf2308e0)" style="fill: #1f77b4; opacity: 0.6"/>
   </g>
   <g id="patch_71">
    <path d="M 972.917787 828.779375 
L 985.249739 828.779375 
L 985.249739 789.537262 
L 972.917787 789.537262 
z
" clip-path="url(#pbfaf2308e0)" style="fill: #1f77b4; opacity: 0.6"/>
   </g>
   <g id="patch_72">
    <path d="M 985.249739 828.779375 
L 997.58169 828.779375 
L 997.58169 792.517675 
L 985.249739 792.517675 
z
" clip-path="url(#pbfaf2308e0)" style="fill: #1f77b4; opacity: 0.6"/>
   </g>
   <g id="patch_73">
    <path d="M 997.58169 828.779375 
L 1009.913642 828.779375 
L 1009.913642 800.962181 
L 997.58169 800.962181 
z
" clip-path="url(#pbfaf2308e0)" style="fill: #1f77b4; opacity: 0.6"/>
   </g>
   <g id="patch_74">
    <path d="M 1009.913642 828.779375 
L 1022.245594 828.779375 
L 1022.245594 804.43933 
L 1009.913642 804.43933 
z
" clip-path="url(#pbfaf2308e0)" style="fill: #1f77b4; opacity: 0.6"/>
   </g>
   <g id="patch_75">
    <path d="M 1022.245594 828.779375 
L 1034.577545 828.779375 
L 1034.577545 812.3871 
L 1022.245594 812.3871 
z
" clip-path="url(#pbfaf2308e0)" style="fill: #1f77b4; opacity: 0.6"/>
   </g>
   <g id="patch_76">
    <path d="M 1034.577545 828.779375 
L 1046.909497 828.779375 
L 1046.909497 806.426272 
L 1034.577545 806.426272 
z
" clip-path="url(#pbfaf2308e0)" style="fill: #1f77b4; opacity: 0.6"/>
   </g>
   <g id="patch_77">
    <path d="M 1046.909497 828.779375 
L 1059.241449 828.779375 
L 1059.241449 811.890364 
L 1046.909497 811.890364 
z
" clip-path="url(#pbfaf2308e0)" style="fill: #1f77b4; opacity: 0.6"/>
   </g>
   <g id="patch_78">
    <path d="M 1059.241449 828.779375 
L 1071.573401 828.779375 
L 1071.573401 818.844663 
L 1059.241449 818.844663 
z
" clip-path="url(#pbfaf2308e0)" style="fill: #1f77b4; opacity: 0.6"/>
   </g>
   <g id="patch_79">
    <path d="M 1071.573401 828.779375 
L 1083.905352 828.779375 
L 1083.905352 820.33487 
L 1071.573401 820.33487 
z
" clip-path="url(#pbfaf2308e0)" style="fill: #1f77b4; opacity: 0.6"/>
   </g>
   <g id="patch_80">
    <path d="M 1083.905352 828.779375 
L 1096.237304 828.779375 
L 1096.237304 817.851191 
L 1083.905352 817.851191 
z
" clip-path="url(#pbfaf2308e0)" style="fill: #1f77b4; opacity: 0.6"/>
   </g>
   <g id="patch_81">
    <path d="M 1096.237304 828.779375 
L 1108.569256 828.779375 
L 1108.569256 823.812019 
L 1096.237304 823.812019 
z
" clip-path="url(#pbfaf2308e0)" style="fill: #1f77b4; opacity: 0.6"/>
   </g>
   <g id="patch_82">
    <path d="M 1108.569256 828.779375 
L 1120.901207 828.779375 
L 1120.901207 824.308754 
L 1108.569256 824.308754 
z
" clip-path="url(#pbfaf2308e0)" style="fill: #1f77b4; opacity: 0.6"/>
   </g>
   <g id="patch_83">
    <path d="M 1120.901207 828.779375 
L 1133.233159 828.779375 
L 1133.233159 824.308754 
L 1120.901207 824.308754 
z
" clip-path="url(#pbfaf2308e0)" style="fill: #1f77b4; opacity: 0.6"/>
   </g>
   <g id="patch_84">
    <path d="M 1133.233159 828.779375 
L 1145.565111 828.779375 
L 1145.565111 826.792433 
L 1133.233159 826.792433 
z
" clip-path="url(#pbfaf2308e0)" style="fill: #1f77b4; opacity: 0.6"/>
   </g>
   <g id="patch_85">
    <path d="M 1145.565111 828.779375 
L 1157.897062 828.779375 
L 1157.897062 823.812019 
L 1145.565111 823.812019 
z
" clip-path="url(#pbfaf2308e0)" style="fill: #1f77b4; opacity: 0.6"/>
   </g>
   <g id="patch_86">
    <path d="M 1157.897062 828.779375 
L 1170.229014 828.779375 
L 1170.229014 826.792433 
L 1157.897062 826.792433 
z
" clip-path="url(#pbfaf2308e0)" style="fill: #1f77b4; opacity: 0.6"/>
   </g>
   <g id="patch_87">
    <path d="M 1170.229014 828.779375 
L 1182.560966 828.779375 
L 1182.560966 825.302226 
L 1170.229014 825.302226 
z
" clip-path="url(#pbfaf2308e0)" style="fill: #1f77b4; opacity: 0.6"/>
   </g>
   <g id="patch_88">
    <path d="M 1182.560966 828.779375 
L 1194.892918 828.779375 
L 1194.892918 826.295697 
L 1182.560966 826.295697 
z
" clip-path="url(#pbfaf2308e0)" style="fill: #1f77b4; opacity: 0.6"/>
   </g>
   <g id="patch_89">
    <path d="M 1194.892918 828.779375 
L 1207.224869 828.779375 
L 1207.224869 827.289168 
L 1194.892918 827.289168 
z
" clip-path="url(#pbfaf2308e0)" style="fill: #1f77b4; opacity: 0.6"/>
   </g>
   <g id="patch_90">
    <path d="M 1207.224869 828.779375 
L 1219.556821 828.779375 
L 1219.556821 827.289168 
L 1207.224869 827.289168 
z
" clip-path="url(#pbfaf2308e0)" style="fill: #1f77b4; opacity: 0.6"/>
   </g>
   <g id="patch_91">
    <path d="M 1219.556821 828.779375 
L 1231.888773 828.779375 
L 1231.888773 827.289168 
L 1219.556821 827.289168 
z
" clip-path="url(#pbfaf2308e0)" style="fill: #1f77b4; opacity: 0.6"/>
   </g>
   <g id="patch_92">
    <path d="M 1231.888773 828.779375 
L 1244.220724 828.779375 
L 1244.220724 827.289168 
L 1231.888773 827.289168 
z
" clip-path="url(#pbfaf2308e0)" style="fill: #1f77b4; opacity: 0.6"/>
   </g>
   <g id="patch_93">
    <path d="M 1244.220724 828.779375 
L 1256.552676 828.779375 
L 1256.552676 828.779375 
L 1244.220724 828.779375 
z
" clip-path="url(#pbfaf2308e0)" style="fill: #1f77b4; opacity: 0.6"/>
   </g>
   <g id="patch_94">
    <path d="M 1256.552676 828.779375 
L 1268.884628 828.779375 
L 1268.884628 828.779375 
L 1256.552676 828.779375 
z
" clip-path="url(#pbfaf2308e0)" style="fill: #1f77b4; opacity: 0.6"/>
   </g>
   <g id="patch_95">
    <path d="M 1268.884628 828.779375 
L 1281.21658 828.779375 
L 1281.21658 827.785904 
L 1268.884628 827.785904 
z
" clip-path="url(#pbfaf2308e0)" style="fill: #1f77b4; opacity: 0.6"/>
   </g>
   <g id="patch_96">
    <path d="M 1281.21658 828.779375 
L 1293.548531 828.779375 
L 1293.548531 828.779375 
L 1281.21658 828.779375 
z
" clip-path="url(#pbfaf2308e0)" style="fill: #1f77b4; opacity: 0.6"/>
   </g>
   <g id="patch_97">
    <path d="M 1293.548531 828.779375 
L 1305.880483 828.779375 
L 1305.880483 828.282639 
L 1293.548531 828.282639 
z
" clip-path="url(#pbfaf2308e0)" style="fill: #1f77b4; opacity: 0.6"/>
   </g>
   <g id="patch_98">
    <path d="M 1305.880483 828.779375 
L 1318.212435 828.779375 
L 1318.212435 828.282639 
L 1305.880483 828.282639 
z
" clip-path="url(#pbfaf2308e0)" style="fill: #1f77b4; opacity: 0.6"/>
   </g>
   <g id="patch_99">
    <path d="M 1318.212435 828.779375 
L 1330.544386 828.779375 
L 1330.544386 828.779375 
L 1318.212435 828.779375 
z
" clip-path="url(#pbfaf2308e0)" style="fill: #1f77b4; opacity: 0.6"/>
   </g>
   <g id="patch_100">
    <path d="M 1330.544386 828.779375 
L 1342.876338 828.779375 
L 1342.876338 828.779375 
L 1330.544386 828.779375 
z
" clip-path="url(#pbfaf2308e0)" style="fill: #1f77b4; opacity: 0.6"/>
   </g>
   <g id="patch_101">
    <path d="M 1342.876338 828.779375 
L 1355.20829 828.779375 
L 1355.20829 828.282639 
L 1342.876338 828.282639 
z
" clip-path="url(#pbfaf2308e0)" style="fill: #1f77b4; opacity: 0.6"/>
   </g>
   <g id="patch_102">
    <path d="M 1355.20829 828.779375 
L 1367.540241 828.779375 
L 1367.540241 828.282639 
L 1355.20829 828.282639 
z
" clip-path="url(#pbfaf2308e0)" style="fill: #1f77b4; opacity: 0.6"/>
   </g>
   <g id="matplotlib.axis_1">
    <g id="xtick_1">
     <g id="line2d_1">
      <defs>
       <path id="m726e9c4c7f" d="M 0 0 
L 0 3.5 
" style="stroke: #000000; stroke-width: 0.8"/>
      </defs>
      <g>
       <use xlink:href="#m726e9c4c7f" x="101.430851" y="828.779375" style="stroke: #000000; stroke-width: 0.8"/>
      </g>
     </g>
     <g id="text_1">
      <!-- 0 -->
      <g transform="translate(95.704601 849.456563) scale(0.18 -0.18)">
       <defs>
        <path id="DejaVuSans-30" d="M 2034 4250 
Q 1547 4250 1301 3770 
Q 1056 3291 1056 2328 
Q 1056 1369 1301 889 
Q 1547 409 2034 409 
Q 2525 409 2770 889 
Q 3016 1369 3016 2328 
Q 3016 3291 2770 3770 
Q 2525 4250 2034 4250 
z
M 2034 4750 
Q 2819 4750 3233 4129 
Q 3647 3509 3647 2328 
Q 3647 1150 3233 529 
Q 2819 -91 2034 -91 
Q 1250 -91 836 529 
Q 422 1150 422 2328 
Q 422 3509 836 4129 
Q 1250 4750 2034 4750 
z
" transform="scale(0.015625)"/>
       </defs>
       <use xlink:href="#DejaVuSans-30"/>
      </g>
     </g>
    </g>
    <g id="xtick_2">
     <g id="line2d_2">
      <g>
       <use xlink:href="#m726e9c4c7f" x="342.378928" y="828.779375" style="stroke: #000000; stroke-width: 0.8"/>
      </g>
     </g>
     <g id="text_2">
      <!-- 1 -->
      <g transform="translate(336.652678 849.456563) scale(0.18 -0.18)">
       <defs>
        <path id="DejaVuSans-31" d="M 794 531 
L 1825 531 
L 1825 4091 
L 703 3866 
L 703 4441 
L 1819 4666 
L 2450 4666 
L 2450 531 
L 3481 531 
L 3481 0 
L 794 0 
L 794 531 
z
" transform="scale(0.015625)"/>
       </defs>
       <use xlink:href="#DejaVuSans-31"/>
      </g>
     </g>
    </g>
    <g id="xtick_3">
     <g id="line2d_3">
      <g>
       <use xlink:href="#m726e9c4c7f" x="583.327004" y="828.779375" style="stroke: #000000; stroke-width: 0.8"/>
      </g>
     </g>
     <g id="text_3">
      <!-- 2 -->
      <g transform="translate(577.600754 849.456563) scale(0.18 -0.18)">
       <defs>
        <path id="DejaVuSans-32" d="M 1228 531 
L 3431 531 
L 3431 0 
L 469 0 
L 469 531 
Q 828 903 1448 1529 
Q 2069 2156 2228 2338 
Q 2531 2678 2651 2914 
Q 2772 3150 2772 3378 
Q 2772 3750 2511 3984 
Q 2250 4219 1831 4219 
Q 1534 4219 1204 4116 
Q 875 4013 500 3803 
L 500 4441 
Q 881 4594 1212 4672 
Q 1544 4750 1819 4750 
Q 2544 4750 2975 4387 
Q 3406 4025 3406 3419 
Q 3406 3131 3298 2873 
Q 3191 2616 2906 2266 
Q 2828 2175 2409 1742 
Q 1991 1309 1228 531 
z
" transform="scale(0.015625)"/>
       </defs>
       <use xlink:href="#DejaVuSans-32"/>
      </g>
     </g>
    </g>
    <g id="xtick_4">
     <g id="line2d_4">
      <g>
       <use xlink:href="#m726e9c4c7f" x="824.275081" y="828.779375" style="stroke: #000000; stroke-width: 0.8"/>
      </g>
     </g>
     <g id="text_4">
      <!-- 3 -->
      <g transform="translate(818.548831 849.456563) scale(0.18 -0.18)">
       <defs>
        <path id="DejaVuSans-33" d="M 2597 2516 
Q 3050 2419 3304 2112 
Q 3559 1806 3559 1356 
Q 3559 666 3084 287 
Q 2609 -91 1734 -91 
Q 1441 -91 1130 -33 
Q 819 25 488 141 
L 488 750 
Q 750 597 1062 519 
Q 1375 441 1716 441 
Q 2309 441 2620 675 
Q 2931 909 2931 1356 
Q 2931 1769 2642 2001 
Q 2353 2234 1838 2234 
L 1294 2234 
L 1294 2753 
L 1863 2753 
Q 2328 2753 2575 2939 
Q 2822 3125 2822 3475 
Q 2822 3834 2567 4026 
Q 2313 4219 1838 4219 
Q 1578 4219 1281 4162 
Q 984 4106 628 3988 
L 628 4550 
Q 988 4650 1302 4700 
Q 1616 4750 1894 4750 
Q 2613 4750 3031 4423 
Q 3450 4097 3450 3541 
Q 3450 3153 3228 2886 
Q 3006 2619 2597 2516 
z
" transform="scale(0.015625)"/>
       </defs>
       <use xlink:href="#DejaVuSans-33"/>
      </g>
     </g>
    </g>
    <g id="xtick_5">
     <g id="line2d_5">
      <g>
       <use xlink:href="#m726e9c4c7f" x="1065.223157" y="828.779375" style="stroke: #000000; stroke-width: 0.8"/>
      </g>
     </g>
     <g id="text_5">
      <!-- 4 -->
      <g transform="translate(1059.496907 849.456563) scale(0.18 -0.18)">
       <defs>
        <path id="DejaVuSans-34" d="M 2419 4116 
L 825 1625 
L 2419 1625 
L 2419 4116 
z
M 2253 4666 
L 3047 4666 
L 3047 1625 
L 3713 1625 
L 3713 1100 
L 3047 1100 
L 3047 0 
L 2419 0 
L 2419 1100 
L 313 1100 
L 313 1709 
L 2253 4666 
z
" transform="scale(0.015625)"/>
       </defs>
       <use xlink:href="#DejaVuSans-34"/>
      </g>
     </g>
    </g>
    <g id="xtick_6">
     <g id="line2d_6">
      <g>
       <use xlink:href="#m726e9c4c7f" x="1306.171233" y="828.779375" style="stroke: #000000; stroke-width: 0.8"/>
      </g>
     </g>
     <g id="text_6">
      <!-- 5 -->
      <g transform="translate(1300.444983 849.456563) scale(0.18 -0.18)">
       <defs>
        <path id="DejaVuSans-35" d="M 691 4666 
L 3169 4666 
L 3169 4134 
L 1269 4134 
L 1269 2991 
Q 1406 3038 1543 3061 
Q 1681 3084 1819 3084 
Q 2600 3084 3056 2656 
Q 3513 2228 3513 1497 
Q 3513 744 3044 326 
Q 2575 -91 1722 -91 
Q 1428 -91 1123 -41 
Q 819 9 494 109 
L 494 744 
Q 775 591 1075 516 
Q 1375 441 1709 441 
Q 2250 441 2565 725 
Q 2881 1009 2881 1497 
Q 2881 1984 2565 2268 
Q 2250 2553 1709 2553 
Q 1456 2553 1204 2497 
Q 953 2441 691 2322 
L 691 4666 
z
" transform="scale(0.015625)"/>
       </defs>
       <use xlink:href="#DejaVuSans-35"/>
      </g>
     </g>
    </g>
   </g>
   <g id="matplotlib.axis_2">
    <g id="ytick_1">
     <g id="line2d_7">
      <defs>
       <path id="ma28dd7a5ca" d="M 0 0 
L -3.5 0 
" style="stroke: #000000; stroke-width: 0.8"/>
      </defs>
      <g>
       <use xlink:href="#ma28dd7a5ca" x="72.685313" y="828.779375" style="stroke: #000000; stroke-width: 0.8"/>
      </g>
     </g>
     <g id="text_7">
      <!-- 0.0 -->
      <g transform="translate(37.059688 835.617969) scale(0.18 -0.18)">
       <defs>
        <path id="DejaVuSans-2e" d="M 684 794 
L 1344 794 
L 1344 0 
L 684 0 
L 684 794 
z
" transform="scale(0.015625)"/>
       </defs>
       <use xlink:href="#DejaVuSans-30"/>
       <use xlink:href="#DejaVuSans-2e" x="63.623047"/>
       <use xlink:href="#DejaVuSans-30" x="95.410156"/>
      </g>
     </g>
    </g>
    <g id="ytick_2">
     <g id="line2d_8">
      <g>
       <use xlink:href="#ma28dd7a5ca" x="72.685313" y="701.662369" style="stroke: #000000; stroke-width: 0.8"/>
      </g>
     </g>
     <g id="text_8">
      <!-- 0.1 -->
      <g transform="translate(37.059688 708.500963) scale(0.18 -0.18)">
       <use xlink:href="#DejaVuSans-30"/>
       <use xlink:href="#DejaVuSans-2e" x="63.623047"/>
       <use xlink:href="#DejaVuSans-31" x="95.410156"/>
      </g>
     </g>
    </g>
    <g id="ytick_3">
     <g id="line2d_9">
      <g>
       <use xlink:href="#ma28dd7a5ca" x="72.685313" y="574.545364" style="stroke: #000000; stroke-width: 0.8"/>
      </g>
     </g>
     <g id="text_9">
      <!-- 0.2 -->
      <g transform="translate(37.059688 581.383957) scale(0.18 -0.18)">
       <use xlink:href="#DejaVuSans-30"/>
       <use xlink:href="#DejaVuSans-2e" x="63.623047"/>
       <use xlink:href="#DejaVuSans-32" x="95.410156"/>
      </g>
     </g>
    </g>
    <g id="ytick_4">
     <g id="line2d_10">
      <g>
       <use xlink:href="#ma28dd7a5ca" x="72.685313" y="447.428358" style="stroke: #000000; stroke-width: 0.8"/>
      </g>
     </g>
     <g id="text_10">
      <!-- 0.3 -->
      <g transform="translate(37.059688 454.266952) scale(0.18 -0.18)">
       <use xlink:href="#DejaVuSans-30"/>
       <use xlink:href="#DejaVuSans-2e" x="63.623047"/>
       <use xlink:href="#DejaVuSans-33" x="95.410156"/>
      </g>
     </g>
    </g>
    <g id="ytick_5">
     <g id="line2d_11">
      <g>
       <use xlink:href="#ma28dd7a5ca" x="72.685313" y="320.311352" style="stroke: #000000; stroke-width: 0.8"/>
      </g>
     </g>
     <g id="text_11">
      <!-- 0.4 -->
      <g transform="translate(37.059688 327.149946) scale(0.18 -0.18)">
       <use xlink:href="#DejaVuSans-30"/>
       <use xlink:href="#DejaVuSans-2e" x="63.623047"/>
       <use xlink:href="#DejaVuSans-34" x="95.410156"/>
      </g>
     </g>
    </g>
    <g id="ytick_6">
     <g id="line2d_12">
      <g>
       <use xlink:href="#ma28dd7a5ca" x="72.685313" y="193.194347" style="stroke: #000000; stroke-width: 0.8"/>
      </g>
     </g>
     <g id="text_12">
      <!-- 0.5 -->
      <g transform="translate(37.059688 200.03294) scale(0.18 -0.18)">
       <use xlink:href="#DejaVuSans-30"/>
       <use xlink:href="#DejaVuSans-2e" x="63.623047"/>
       <use xlink:href="#DejaVuSans-35" x="95.410156"/>
      </g>
     </g>
    </g>
    <g id="ytick_7">
     <g id="line2d_13">
      <g>
       <use xlink:href="#ma28dd7a5ca" x="72.685313" y="66.077341" style="stroke: #000000; stroke-width: 0.8"/>
      </g>
     </g>
     <g id="text_13">
      <!-- 0.6 -->
      <g transform="translate(37.059688 72.915935) scale(0.18 -0.18)">
       <defs>
        <path id="DejaVuSans-36" d="M 2113 2584 
Q 1688 2584 1439 2293 
Q 1191 2003 1191 1497 
Q 1191 994 1439 701 
Q 1688 409 2113 409 
Q 2538 409 2786 701 
Q 3034 994 3034 1497 
Q 3034 2003 2786 2293 
Q 2538 2584 2113 2584 
z
M 3366 4563 
L 3366 3988 
Q 3128 4100 2886 4159 
Q 2644 4219 2406 4219 
Q 1781 4219 1451 3797 
Q 1122 3375 1075 2522 
Q 1259 2794 1537 2939 
Q 1816 3084 2150 3084 
Q 2853 3084 3261 2657 
Q 3669 2231 3669 1497 
Q 3669 778 3244 343 
Q 2819 -91 2113 -91 
Q 1303 -91 875 529 
Q 447 1150 447 2328 
Q 447 3434 972 4092 
Q 1497 4750 2381 4750 
Q 2619 4750 2861 4703 
Q 3103 4656 3366 4563 
z
" transform="scale(0.015625)"/>
       </defs>
       <use xlink:href="#DejaVuSans-30"/>
       <use xlink:href="#DejaVuSans-2e" x="63.623047"/>
       <use xlink:href="#DejaVuSans-36" x="95.410156"/>
      </g>
     </g>
    </g>
    <g id="text_14">
     <!-- Normed Hist Counts -->
     <g transform="translate(28.276406 548.966563) rotate(-90) scale(0.23 -0.23)">
      <defs>
       <path id="DejaVuSans-4e" d="M 628 4666 
L 1478 4666 
L 3547 763 
L 3547 4666 
L 4159 4666 
L 4159 0 
L 3309 0 
L 1241 3903 
L 1241 0 
L 628 0 
L 628 4666 
z
" transform="scale(0.015625)"/>
       <path id="DejaVuSans-6f" d="M 1959 3097 
Q 1497 3097 1228 2736 
Q 959 2375 959 1747 
Q 959 1119 1226 758 
Q 1494 397 1959 397 
Q 2419 397 2687 759 
Q 2956 1122 2956 1747 
Q 2956 2369 2687 2733 
Q 2419 3097 1959 3097 
z
M 1959 3584 
Q 2709 3584 3137 3096 
Q 3566 2609 3566 1747 
Q 3566 888 3137 398 
Q 2709 -91 1959 -91 
Q 1206 -91 779 398 
Q 353 888 353 1747 
Q 353 2609 779 3096 
Q 1206 3584 1959 3584 
z
" transform="scale(0.015625)"/>
       <path id="DejaVuSans-72" d="M 2631 2963 
Q 2534 3019 2420 3045 
Q 2306 3072 2169 3072 
Q 1681 3072 1420 2755 
Q 1159 2438 1159 1844 
L 1159 0 
L 581 0 
L 581 3500 
L 1159 3500 
L 1159 2956 
Q 1341 3275 1631 3429 
Q 1922 3584 2338 3584 
Q 2397 3584 2469 3576 
Q 2541 3569 2628 3553 
L 2631 2963 
z
" transform="scale(0.015625)"/>
       <path id="DejaVuSans-6d" d="M 3328 2828 
Q 3544 3216 3844 3400 
Q 4144 3584 4550 3584 
Q 5097 3584 5394 3201 
Q 5691 2819 5691 2113 
L 5691 0 
L 5113 0 
L 5113 2094 
Q 5113 2597 4934 2840 
Q 4756 3084 4391 3084 
Q 3944 3084 3684 2787 
Q 3425 2491 3425 1978 
L 3425 0 
L 2847 0 
L 2847 2094 
Q 2847 2600 2669 2842 
Q 2491 3084 2119 3084 
Q 1678 3084 1418 2786 
Q 1159 2488 1159 1978 
L 1159 0 
L 581 0 
L 581 3500 
L 1159 3500 
L 1159 2956 
Q 1356 3278 1631 3431 
Q 1906 3584 2284 3584 
Q 2666 3584 2933 3390 
Q 3200 3197 3328 2828 
z
" transform="scale(0.015625)"/>
       <path id="DejaVuSans-65" d="M 3597 1894 
L 3597 1613 
L 953 1613 
Q 991 1019 1311 708 
Q 1631 397 2203 397 
Q 2534 397 2845 478 
Q 3156 559 3463 722 
L 3463 178 
Q 3153 47 2828 -22 
Q 2503 -91 2169 -91 
Q 1331 -91 842 396 
Q 353 884 353 1716 
Q 353 2575 817 3079 
Q 1281 3584 2069 3584 
Q 2775 3584 3186 3129 
Q 3597 2675 3597 1894 
z
M 3022 2063 
Q 3016 2534 2758 2815 
Q 2500 3097 2075 3097 
Q 1594 3097 1305 2825 
Q 1016 2553 972 2059 
L 3022 2063 
z
" transform="scale(0.015625)"/>
       <path id="DejaVuSans-64" d="M 2906 2969 
L 2906 4863 
L 3481 4863 
L 3481 0 
L 2906 0 
L 2906 525 
Q 2725 213 2448 61 
Q 2172 -91 1784 -91 
Q 1150 -91 751 415 
Q 353 922 353 1747 
Q 353 2572 751 3078 
Q 1150 3584 1784 3584 
Q 2172 3584 2448 3432 
Q 2725 3281 2906 2969 
z
M 947 1747 
Q 947 1113 1208 752 
Q 1469 391 1925 391 
Q 2381 391 2643 752 
Q 2906 1113 2906 1747 
Q 2906 2381 2643 2742 
Q 2381 3103 1925 3103 
Q 1469 3103 1208 2742 
Q 947 2381 947 1747 
z
" transform="scale(0.015625)"/>
       <path id="DejaVuSans-20" transform="scale(0.015625)"/>
       <path id="DejaVuSans-48" d="M 628 4666 
L 1259 4666 
L 1259 2753 
L 3553 2753 
L 3553 4666 
L 4184 4666 
L 4184 0 
L 3553 0 
L 3553 2222 
L 1259 2222 
L 1259 0 
L 628 0 
L 628 4666 
z
" transform="scale(0.015625)"/>
       <path id="DejaVuSans-69" d="M 603 3500 
L 1178 3500 
L 1178 0 
L 603 0 
L 603 3500 
z
M 603 4863 
L 1178 4863 
L 1178 4134 
L 603 4134 
L 603 4863 
z
" transform="scale(0.015625)"/>
       <path id="DejaVuSans-73" d="M 2834 3397 
L 2834 2853 
Q 2591 2978 2328 3040 
Q 2066 3103 1784 3103 
Q 1356 3103 1142 2972 
Q 928 2841 928 2578 
Q 928 2378 1081 2264 
Q 1234 2150 1697 2047 
L 1894 2003 
Q 2506 1872 2764 1633 
Q 3022 1394 3022 966 
Q 3022 478 2636 193 
Q 2250 -91 1575 -91 
Q 1294 -91 989 -36 
Q 684 19 347 128 
L 347 722 
Q 666 556 975 473 
Q 1284 391 1588 391 
Q 1994 391 2212 530 
Q 2431 669 2431 922 
Q 2431 1156 2273 1281 
Q 2116 1406 1581 1522 
L 1381 1569 
Q 847 1681 609 1914 
Q 372 2147 372 2553 
Q 372 3047 722 3315 
Q 1072 3584 1716 3584 
Q 2034 3584 2315 3537 
Q 2597 3491 2834 3397 
z
" transform="scale(0.015625)"/>
       <path id="DejaVuSans-74" d="M 1172 4494 
L 1172 3500 
L 2356 3500 
L 2356 3053 
L 1172 3053 
L 1172 1153 
Q 1172 725 1289 603 
Q 1406 481 1766 481 
L 2356 481 
L 2356 0 
L 1766 0 
Q 1100 0 847 248 
Q 594 497 594 1153 
L 594 3053 
L 172 3053 
L 172 3500 
L 594 3500 
L 594 4494 
L 1172 4494 
z
" transform="scale(0.015625)"/>
       <path id="DejaVuSans-43" d="M 4122 4306 
L 4122 3641 
Q 3803 3938 3442 4084 
Q 3081 4231 2675 4231 
Q 1875 4231 1450 3742 
Q 1025 3253 1025 2328 
Q 1025 1406 1450 917 
Q 1875 428 2675 428 
Q 3081 428 3442 575 
Q 3803 722 4122 1019 
L 4122 359 
Q 3791 134 3420 21 
Q 3050 -91 2638 -91 
Q 1578 -91 968 557 
Q 359 1206 359 2328 
Q 359 3453 968 4101 
Q 1578 4750 2638 4750 
Q 3056 4750 3426 4639 
Q 3797 4528 4122 4306 
z
" transform="scale(0.015625)"/>
       <path id="DejaVuSans-75" d="M 544 1381 
L 544 3500 
L 1119 3500 
L 1119 1403 
Q 1119 906 1312 657 
Q 1506 409 1894 409 
Q 2359 409 2629 706 
Q 2900 1003 2900 1516 
L 2900 3500 
L 3475 3500 
L 3475 0 
L 2900 0 
L 2900 538 
Q 2691 219 2414 64 
Q 2138 -91 1772 -91 
Q 1169 -91 856 284 
Q 544 659 544 1381 
z
M 1991 3584 
L 1991 3584 
z
" transform="scale(0.015625)"/>
       <path id="DejaVuSans-6e" d="M 3513 2113 
L 3513 0 
L 2938 0 
L 2938 2094 
Q 2938 2591 2744 2837 
Q 2550 3084 2163 3084 
Q 1697 3084 1428 2787 
Q 1159 2491 1159 1978 
L 1159 0 
L 581 0 
L 581 3500 
L 1159 3500 
L 1159 2956 
Q 1366 3272 1645 3428 
Q 1925 3584 2291 3584 
Q 2894 3584 3203 3211 
Q 3513 2838 3513 2113 
z
" transform="scale(0.015625)"/>
      </defs>
      <use xlink:href="#DejaVuSans-4e"/>
      <use xlink:href="#DejaVuSans-6f" x="74.804688"/>
      <use xlink:href="#DejaVuSans-72" x="135.986328"/>
      <use xlink:href="#DejaVuSans-6d" x="175.349609"/>
      <use xlink:href="#DejaVuSans-65" x="272.761719"/>
      <use xlink:href="#DejaVuSans-64" x="334.285156"/>
      <use xlink:href="#DejaVuSans-20" x="397.761719"/>
      <use xlink:href="#DejaVuSans-48" x="429.548828"/>
      <use xlink:href="#DejaVuSans-69" x="504.744141"/>
      <use xlink:href="#DejaVuSans-73" x="532.527344"/>
      <use xlink:href="#DejaVuSans-74" x="584.626953"/>
      <use xlink:href="#DejaVuSans-20" x="623.835938"/>
      <use xlink:href="#DejaVuSans-43" x="655.623047"/>
      <use xlink:href="#DejaVuSans-6f" x="725.447266"/>
      <use xlink:href="#DejaVuSans-75" x="786.628906"/>
      <use xlink:href="#DejaVuSans-6e" x="850.007812"/>
      <use xlink:href="#DejaVuSans-74" x="913.386719"/>
      <use xlink:href="#DejaVuSans-73" x="952.595703"/>
     </g>
    </g>
   </g>
   <g id="line2d_14">
    <path d="M 137.428059 827.209802 
L 143.594035 826.091798 
L 149.760011 824.554642 
L 155.925987 822.540598 
L 162.091962 819.995744 
L 168.257938 816.870199 
L 174.423914 813.118352 
L 180.58989 808.699081 
L 186.755866 803.575958 
L 192.921842 797.717425 
L 199.087817 791.096949 
L 205.253793 783.693152 
L 211.419769 775.489905 
L 217.585745 766.476402 
L 223.751721 756.647192 
L 229.917697 746.002184 
L 236.083673 734.546621 
L 242.249648 722.291022 
L 248.415624 709.25109 
L 254.5816 695.447593 
L 260.747576 680.906212 
L 266.913552 665.657363 
L 273.079528 649.735992 
L 279.245504 633.181345 
L 285.411479 616.036708 
L 291.577455 598.349138 
L 297.743431 580.169161 
L 303.909407 561.550463 
L 316.241359 523.225443 
L 328.57331 483.853925 
L 365.569165 364.614157 
L 377.901117 326.247057 
L 384.067093 307.612401 
L 390.233069 289.425387 
L 396.399045 271.744833 
L 402.565021 254.627253 
L 408.730996 238.126591 
L 414.896972 222.293988 
L 421.062948 207.177564 
L 427.228924 192.82222 
L 433.3949 179.269471 
L 439.560876 166.55729 
L 445.726852 154.719988 
L 451.892827 143.788109 
L 458.058803 133.788351 
L 464.224779 124.743511 
L 470.390755 116.672454 
L 476.556731 109.590104 
L 482.722707 103.507456 
L 488.888683 98.431607 
L 495.054658 94.365817 
L 501.220634 91.309576 
L 507.38661 89.258701 
L 513.552586 88.205443 
L 519.718562 88.138614 
L 525.884538 89.043726 
L 532.050513 90.903144 
L 538.216489 93.696254 
L 544.382465 97.399635 
L 550.548441 101.987249 
L 556.714417 107.430627 
L 562.880393 113.699075 
L 569.046369 120.759872 
L 575.212344 128.57848 
L 581.37832 137.11875 
L 587.544296 146.343138 
L 593.710272 156.212904 
L 599.876248 166.68833 
L 606.042224 177.728916 
L 612.2082 189.293584 
L 618.374175 201.340874 
L 624.540151 213.829131 
L 630.706127 226.716689 
L 636.872103 239.962045 
L 643.038079 253.524026 
L 655.370031 281.435766 
L 667.701982 310.134895 
L 686.19991 354.002785 
L 710.863813 412.583603 
L 723.195765 441.365583 
L 735.527717 469.529691 
L 747.859668 496.899152 
L 760.19162 523.323388 
L 766.357596 536.141073 
L 772.523572 548.67765 
L 778.689548 560.92143 
L 784.855523 572.862214 
L 791.021499 584.491254 
L 797.187475 595.801202 
L 803.353451 606.786056 
L 809.519427 617.441108 
L 815.685403 627.762886 
L 821.851379 637.749088 
L 828.017354 647.398529 
L 834.18333 656.711072 
L 840.349306 665.687564 
L 846.515282 674.329775 
L 852.681258 682.64033 
L 858.847234 690.622648 
L 865.01321 698.280874 
L 871.179185 705.619822 
L 877.345161 712.644907 
L 883.511137 719.362092 
L 889.677113 725.777823 
L 895.843089 731.898977 
L 902.009065 737.732804 
L 908.17504 743.286878 
L 914.341016 748.569044 
L 920.506992 753.587371 
L 926.672968 758.350107 
L 932.838944 762.865637 
L 939.00492 767.142441 
L 945.170896 771.189056 
L 951.336871 775.014044 
L 957.502847 778.625955 
L 963.668823 782.0333 
L 969.834799 785.244523 
L 976.000775 788.267976 
L 982.166751 791.111893 
L 988.332727 793.784374 
L 994.498702 796.293364 
L 1000.664678 798.646639 
L 1006.830654 800.851789 
L 1012.99663 802.916208 
L 1019.162606 804.847083 
L 1025.328582 806.651385 
L 1037.660533 809.907041 
L 1049.992485 812.734413 
L 1062.324437 815.181001 
L 1074.656388 817.290539 
L 1086.98834 819.103033 
L 1099.320292 820.654855 
L 1111.652244 821.978882 
L 1123.984195 823.104658 
L 1136.316147 824.058597 
L 1154.814075 825.217937 
L 1173.312002 826.110924 
L 1191.80993 826.793606 
L 1216.473833 827.454326 
L 1247.303712 827.99364 
L 1284.299567 828.369888 
L 1333.627374 828.614615 
L 1364.457254 828.688309 
L 1364.457254 828.688309 
" clip-path="url(#pbfaf2308e0)" style="fill: none; stroke: #ff7f0e; stroke-width: 1.5; stroke-linecap: square"/>
   </g>
   <g id="line2d_15">
    <path d="M 137.428059 822.802523 
L 143.594035 821.326403 
L 149.760011 819.566153 
L 155.925987 817.484282 
L 162.091962 815.041352 
L 168.257938 812.19633 
L 174.423914 808.906996 
L 180.58989 805.130408 
L 186.755866 800.823415 
L 192.921842 795.943214 
L 199.087817 790.447941 
L 205.253793 784.297281 
L 211.419769 777.453099 
L 217.585745 769.880065 
L 223.751721 761.546274 
L 229.917697 752.423848 
L 236.083673 742.489498 
L 242.249648 731.725056 
L 248.415624 720.117948 
L 254.5816 707.661611 
L 260.747576 694.355837 
L 266.913552 680.207054 
L 273.079528 665.228519 
L 279.245504 649.440431 
L 285.411479 632.869967 
L 291.577455 615.551226 
L 297.743431 597.52509 
L 303.909407 578.839009 
L 310.075383 559.546706 
L 316.241359 539.707803 
L 322.407335 519.387391 
L 334.739286 477.586697 
L 347.071238 434.754516 
L 371.735141 348.668026 
L 384.067093 306.801544 
L 390.233069 286.464378 
L 396.399045 266.635484 
L 402.565021 247.394708 
L 408.730996 228.81857 
L 414.896972 210.97975 
L 421.062948 193.946632 
L 427.228924 177.782887 
L 433.3949 162.54712 
L 439.560876 148.292565 
L 445.726852 135.066837 
L 451.892827 122.911738 
L 458.058803 111.863125 
L 464.224779 101.950819 
L 470.390755 93.198581 
L 476.556731 85.624126 
L 482.722707 79.239192 
L 488.888683 74.049649 
L 495.054658 70.05565 
L 501.220634 67.251822 
L 507.38661 65.627489 
L 513.552586 65.166922 
L 519.718562 65.849623 
L 525.884538 67.650624 
L 532.050513 70.540805 
L 538.216489 74.487231 
L 544.382465 79.453497 
L 550.548441 85.400076 
L 556.714417 92.284682 
L 562.880393 100.06262 
L 569.046369 108.687144 
L 575.212344 118.109802 
L 581.37832 128.280785 
L 587.544296 139.14925 
L 593.710272 150.663644 
L 599.876248 162.77201 
L 606.042224 175.422275 
L 612.2082 188.562529 
L 618.374175 202.141279 
L 624.540151 216.107685 
L 630.706127 230.411789 
L 643.038079 259.838815 
L 655.370031 290.047366 
L 704.697837 412.139107 
L 717.029789 441.609371 
L 729.361741 470.227035 
L 741.693692 497.833624 
L 747.859668 511.216747 
L 754.025644 524.301592 
L 760.19162 537.07674 
L 766.357596 549.532457 
L 772.523572 561.660614 
L 778.689548 573.454611 
L 784.855523 584.909299 
L 791.021499 596.020898 
L 797.187475 606.786917 
L 803.353451 617.20607 
L 809.519427 627.278197 
L 815.685403 637.004182 
L 821.851379 646.385876 
L 828.017354 655.426016 
L 834.18333 664.128151 
L 840.349306 672.496568 
L 846.515282 680.536218 
L 852.681258 688.252653 
L 858.847234 695.651954 
L 865.01321 702.740671 
L 871.179185 709.525762 
L 877.345161 716.014535 
L 883.511137 722.214596 
L 889.677113 728.133795 
L 895.843089 733.780182 
L 902.009065 739.161959 
L 908.17504 744.28744 
L 914.341016 749.165014 
L 920.506992 753.803106 
L 926.672968 758.210144 
L 932.838944 762.394535 
L 939.00492 766.364631 
L 945.170896 770.128706 
L 951.336871 773.694938 
L 957.502847 777.071382 
L 963.668823 780.265959 
L 969.834799 783.286436 
L 976.000775 786.140415 
L 982.166751 788.835321 
L 988.332727 791.37839 
L 994.498702 793.776664 
L 1000.664678 796.036982 
L 1006.830654 798.165977 
L 1012.99663 800.170069 
L 1025.328582 803.828156 
L 1037.660533 807.058308 
L 1049.992485 809.904141 
L 1062.324437 812.405869 
L 1074.656388 814.600395 
L 1086.98834 816.521432 
L 1099.320292 818.19965 
L 1111.652244 819.662841 
L 1123.984195 820.936096 
L 1136.316147 822.041984 
L 1154.814075 823.430676 
L 1173.312002 824.547227 
L 1191.80993 825.441495 
L 1216.473833 826.358886 
L 1241.137737 827.033553 
L 1271.967616 827.627342 
L 1308.963471 828.086914 
L 1358.291278 828.433813 
L 1364.457254 828.462969 
L 1364.457254 828.462969 
" clip-path="url(#pbfaf2308e0)" style="fill: none; stroke: #2ca02c; stroke-width: 1.5; stroke-linecap: square"/>
   </g>
   <g id="line2d_16">
    <path d="M 137.428059 102.594447 
L 149.760011 123.67184 
L 162.091962 144.137465 
L 174.423914 164.009079 
L 186.755866 183.303922 
L 199.087817 202.038737 
L 211.419769 220.229776 
L 223.751721 237.892824 
L 236.083673 255.043204 
L 248.415624 271.695798 
L 260.747576 287.865053 
L 273.079528 303.564998 
L 285.411479 318.809256 
L 297.743431 333.611051 
L 310.075383 347.983226 
L 322.407335 361.938252 
L 334.739286 375.488235 
L 347.071238 388.644933 
L 359.40319 401.419759 
L 371.735141 413.823799 
L 384.067093 425.867813 
L 396.399045 437.562252 
L 408.730996 448.917262 
L 421.062948 459.942694 
L 433.3949 470.648116 
L 445.726852 481.042814 
L 458.058803 491.135808 
L 470.390755 500.935855 
L 482.722707 510.451456 
L 495.054658 519.69087 
L 507.38661 528.66211 
L 519.718562 537.372962 
L 532.050513 545.830984 
L 544.382465 554.043512 
L 556.714417 562.017673 
L 569.046369 569.760386 
L 581.37832 577.278367 
L 593.710272 584.578141 
L 606.042224 591.66604 
L 618.374175 598.548214 
L 630.706127 605.230634 
L 643.038079 611.719097 
L 655.370031 618.019235 
L 667.701982 624.136512 
L 680.033934 630.076236 
L 692.365886 635.84356 
L 704.697837 641.443489 
L 723.195765 649.540105 
L 741.693692 657.286787 
L 760.19162 664.69866 
L 778.689548 671.790192 
L 797.187475 678.575231 
L 815.685403 685.067021 
L 834.18333 691.278238 
L 852.681258 697.221007 
L 871.179185 702.906931 
L 889.677113 708.34711 
L 908.17504 713.552167 
L 926.672968 718.532261 
L 945.170896 723.297118 
L 963.668823 727.856038 
L 982.166751 732.217922 
L 1000.664678 736.391287 
L 1019.162606 740.38428 
L 1043.826509 745.441118 
L 1068.490413 750.208667 
L 1093.154316 754.703479 
L 1117.818219 758.941155 
L 1142.482123 762.936405 
L 1167.146026 766.703098 
L 1191.80993 770.254309 
L 1216.473833 773.602365 
L 1241.137737 776.758888 
L 1271.967616 780.451831 
L 1302.797495 783.882611 
L 1333.627374 787.06984 
L 1364.457254 790.030806 
L 1364.457254 790.030806 
" clip-path="url(#pbfaf2308e0)" style="fill: none; stroke: #d62728; stroke-width: 1.5; stroke-linecap: square"/>
   </g>
   <g id="line2d_17">
    <path d="M 137.428059 775.418328 
L 143.594035 772.847297 
L 149.760011 770.152388 
L 155.925987 767.327634 
L 162.091962 764.366778 
L 168.257938 761.263263 
L 174.423914 758.010215 
L 180.58989 754.600429 
L 186.755866 751.026354 
L 192.921842 747.280073 
L 199.087817 743.353289 
L 205.253793 739.237307 
L 211.419769 734.923008 
L 217.585745 730.400839 
L 223.751721 725.660784 
L 229.917697 720.692344 
L 236.083673 715.484515 
L 242.249648 710.025765 
L 248.415624 704.304001 
L 254.5816 698.306553 
L 260.747576 692.020137 
L 266.913552 685.43083 
L 273.079528 678.524039 
L 279.245504 671.284466 
L 285.411479 663.696077 
L 291.577455 655.742065 
L 297.743431 647.404815 
L 303.909407 638.665862 
L 310.075383 629.50585 
L 316.241359 619.904492 
L 322.407335 609.840523 
L 328.57331 599.291654 
L 334.739286 588.234521 
L 340.905262 576.644636 
L 347.071238 564.496329 
L 353.237214 551.762695 
L 359.40319 538.415532 
L 365.569165 524.425278 
L 371.735141 509.760948 
L 377.901117 494.390065 
L 384.067093 478.278584 
L 390.233069 461.390823 
L 396.399045 443.68938 
L 402.565021 425.135049 
L 408.730996 405.686737 
L 414.896972 385.30137 
L 421.062948 363.9338 
L 427.228924 341.536701 
L 433.3949 318.06047 
L 439.560876 293.453111 
L 445.726852 267.660125 
L 451.892827 240.624387 
L 458.058803 212.286019 
L 464.224779 182.582256 
L 470.390755 151.447313 
L 476.556731 118.812232 
L 482.722707 84.604734 
L 488.888683 48.749056 
L 496.958851 -1 
M 586.769927 -1 
L 587.544296 3.990819 
L 593.710272 41.903899 
L 599.876248 78.074228 
L 606.042224 112.581914 
L 612.2082 145.503385 
L 618.374175 176.911553 
L 624.540151 206.875981 
L 630.706127 235.463033 
L 636.872103 262.736023 
L 643.038079 288.755355 
L 649.204055 313.578655 
L 655.370031 337.260902 
L 661.536006 359.854547 
L 667.701982 381.409628 
L 673.867958 401.973887 
L 680.033934 421.592868 
L 686.19991 440.310022 
L 692.365886 458.166805 
L 698.531862 475.202764 
L 704.697837 491.455631 
L 710.863813 506.961401 
L 717.029789 521.754418 
L 723.195765 535.867443 
L 729.361741 549.331735 
L 735.527717 562.177113 
L 741.693692 574.432027 
L 747.859668 586.12362 
L 754.025644 597.277784 
L 760.19162 607.919225 
L 766.357596 618.07151 
L 772.523572 627.757125 
L 778.689548 636.99752 
L 784.855523 645.813163 
L 791.021499 654.223576 
L 797.187475 662.247388 
L 803.353451 669.902369 
L 809.519427 677.205473 
L 815.685403 684.172875 
L 821.851379 690.820006 
L 828.017354 697.161589 
L 834.18333 703.211668 
L 840.349306 708.983642 
L 846.515282 714.490296 
L 852.681258 719.743826 
L 858.847234 724.755866 
L 865.01321 729.537518 
L 871.179185 734.099371 
L 877.345161 738.45153 
L 883.511137 742.603633 
L 889.677113 746.564876 
L 895.843089 750.344032 
L 902.009065 753.949472 
L 908.17504 757.38918 
L 914.341016 760.670776 
L 920.506992 763.801526 
L 926.672968 766.788364 
L 932.838944 769.637907 
L 939.00492 772.356465 
L 951.336871 777.424432 
L 963.668823 782.037189 
L 976.000775 786.235623 
L 988.332727 790.05695 
L 1000.664678 793.53504 
L 1012.99663 796.700725 
L 1025.328582 799.582064 
L 1037.660533 802.204599 
L 1049.992485 804.591574 
L 1062.324437 806.764149 
L 1074.656388 808.74158 
L 1086.98834 810.541397 
L 1099.320292 812.179552 
L 1117.818219 814.365073 
L 1136.316147 816.26285 
L 1154.814075 817.910768 
L 1173.312002 819.341721 
L 1191.80993 820.584276 
L 1216.473833 821.990345 
L 1241.137737 823.155168 
L 1265.80164 824.120138 
L 1296.631519 825.096969 
L 1333.627374 826.002783 
L 1364.457254 826.584909 
L 1364.457254 826.584909 
" clip-path="url(#pbfaf2308e0)" style="fill: none; stroke: #9467bd; stroke-width: 1.5; stroke-linecap: square"/>
   </g>
   <g id="line2d_18">
    <path d="M 137.428059 821.081325 
L 143.594035 819.463915 
L 149.760011 817.572885 
L 155.925987 815.375058 
L 162.091962 812.835451 
L 168.257938 809.917511 
L 174.423914 806.583404 
L 180.58989 802.794355 
L 186.755866 798.511036 
L 192.921842 793.694002 
L 199.087817 788.304163 
L 205.253793 782.303292 
L 211.419769 775.654565 
L 217.585745 768.323113 
L 223.751721 760.276588 
L 229.917697 751.485734 
L 236.083673 741.924942 
L 242.249648 731.572794 
L 248.415624 720.412576 
L 254.5816 708.432752 
L 260.747576 695.627395 
L 266.913552 681.996558 
L 273.079528 667.546588 
L 279.245504 652.290366 
L 285.411479 636.247479 
L 291.577455 619.444305 
L 297.743431 601.914025 
L 303.909407 583.696548 
L 310.075383 564.838357 
L 316.241359 545.392272 
L 322.407335 525.417136 
L 328.57331 504.977429 
L 340.905262 462.98761 
L 359.40319 398.399341 
L 377.901117 333.920813 
L 390.233069 292.173081 
L 396.399045 271.934369 
L 402.565021 252.232687 
L 408.730996 233.14996 
L 414.896972 214.764758 
L 421.062948 197.151738 
L 427.228924 180.381127 
L 433.3949 164.518265 
L 439.560876 149.623198 
L 445.726852 135.750333 
L 451.892827 122.948155 
L 458.058803 111.259002 
L 464.224779 100.718903 
L 470.390755 91.357473 
L 476.556731 83.197875 
L 482.722707 76.256829 
L 488.888683 70.544684 
L 495.054658 66.06553 
L 501.220634 62.81737 
L 507.38661 60.792325 
L 513.552586 59.97688 
L 519.718562 60.352173 
L 525.884538 61.894298 
L 532.050513 64.574651 
L 538.216489 68.36028 
L 544.382465 73.214268 
L 550.548441 79.096112 
L 556.714417 85.96212 
L 562.880393 93.765809 
L 569.046369 102.4583 
L 575.212344 111.988715 
L 581.37832 122.30456 
L 587.544296 133.352102 
L 593.710272 145.076735 
L 599.876248 157.423329 
L 606.042224 170.336559 
L 612.2082 183.761223 
L 618.374175 197.642535 
L 624.540151 211.926396 
L 630.706127 226.559648 
L 643.038079 256.667749 
L 655.370031 287.568534 
L 698.531862 396.900832 
L 710.863813 427.256699 
L 723.195765 456.786278 
L 735.527717 485.311223 
L 741.693692 499.150653 
L 747.859668 512.687481 
L 754.025644 525.908726 
L 760.19162 538.803278 
L 766.357596 551.36181 
L 772.523572 563.576697 
L 778.689548 575.441919 
L 784.855523 586.952978 
L 791.021499 598.106802 
L 797.187475 608.901652 
L 803.353451 619.337035 
L 809.519427 629.413609 
L 815.685403 639.133095 
L 821.851379 648.498187 
L 828.017354 657.512473 
L 834.18333 666.180344 
L 840.349306 674.50692 
L 846.515282 682.497971 
L 852.681258 690.15984 
L 858.847234 697.49938 
L 865.01321 704.523881 
L 871.179185 711.241009 
L 877.345161 717.658745 
L 883.511137 723.785333 
L 889.677113 729.629221 
L 895.843089 735.19902 
L 902.009065 740.503451 
L 908.17504 745.551311 
L 914.341016 750.351427 
L 920.506992 754.912627 
L 926.672968 759.243704 
L 932.838944 763.353389 
L 939.00492 767.250324 
L 945.170896 770.94304 
L 951.336871 774.439935 
L 957.502847 777.749253 
L 963.668823 780.879076 
L 969.834799 783.837302 
L 976.000775 786.631637 
L 982.166751 789.269585 
L 988.332727 791.758441 
L 994.498702 794.105282 
L 1000.664678 796.316964 
L 1006.830654 798.400118 
L 1019.162606 802.206227 
L 1031.494558 805.572104 
L 1043.826509 808.542609 
L 1056.158461 811.159039 
L 1068.490413 813.459233 
L 1080.822364 815.47772 
L 1093.154316 817.245873 
L 1105.486268 818.792102 
L 1117.818219 820.142034 
L 1130.150171 821.318716 
L 1148.648099 822.803479 
L 1167.146026 824.005058 
L 1185.643954 824.974399 
L 1204.141881 825.754046 
L 1228.805785 826.558662 
L 1253.469688 827.155387 
L 1284.299567 827.686548 
L 1321.295423 828.104535 
L 1364.457254 828.398049 
L 1364.457254 828.398049 
" clip-path="url(#pbfaf2308e0)" style="fill: none; stroke: #8c564b; stroke-width: 1.5; stroke-linecap: square"/>
   </g>
   <g id="line2d_19">
    <path d="M 137.428059 799.159443 
L 143.594035 796.205525 
L 149.760011 793.007886 
L 155.925987 789.552127 
L 162.091962 785.823599 
L 168.257938 781.807468 
L 174.423914 777.488783 
L 180.58989 772.852554 
L 186.755866 767.883839 
L 192.921842 762.567836 
L 199.087817 756.889984 
L 205.253793 750.836068 
L 211.419769 744.392336 
L 217.585745 737.545616 
L 223.751721 730.283445 
L 229.917697 722.594195 
L 236.083673 714.467217 
L 242.249648 705.892969 
L 248.415624 696.863167 
L 254.5816 687.370921 
L 260.747576 677.410881 
L 266.913552 666.979379 
L 273.079528 656.07457 
L 279.245504 644.696566 
L 285.411479 632.847566 
L 291.577455 620.531988 
L 297.743431 607.756577 
L 303.909407 594.530517 
L 310.075383 580.865523 
L 316.241359 566.775929 
L 322.407335 552.278752 
L 328.57331 537.39375 
L 334.739286 522.143453 
L 340.905262 506.553183 
L 353.237214 474.467954 
L 365.569165 441.395924 
L 377.901117 407.637359 
L 408.730996 322.549137 
L 421.062948 289.273495 
L 427.228924 273.010039 
L 433.3949 257.069255 
L 439.560876 241.506317 
L 445.726852 226.376307 
L 451.892827 211.733901 
L 458.058803 197.633036 
L 464.224779 184.126591 
L 470.390755 171.266052 
L 476.556731 159.101191 
L 482.722707 147.679744 
L 488.888683 137.047103 
L 495.054658 127.246012 
L 501.220634 118.316283 
L 507.38661 110.294529 
L 513.552586 103.213911 
L 519.718562 97.10391 
L 525.884538 91.990124 
L 532.050513 87.894088 
L 538.216489 84.833127 
L 544.382465 82.820225 
L 550.548441 81.863944 
L 556.714417 81.968355 
L 562.880393 83.133013 
L 569.046369 85.35296 
L 575.212344 88.618759 
L 581.37832 92.916563 
L 587.544296 98.228208 
L 593.710272 104.531347 
L 599.876248 111.799603 
L 606.042224 120.002754 
L 612.2082 129.10694 
L 618.374175 139.074899 
L 624.540151 149.866221 
L 630.706127 161.437615 
L 636.872103 173.743207 
L 643.038079 186.734834 
L 649.204055 200.362362 
L 655.370031 214.574003 
L 661.536006 229.316647 
L 667.701982 244.536182 
L 673.867958 260.17783 
L 680.033934 276.186465 
L 692.365886 309.084356 
L 704.697837 342.793779 
L 741.693692 444.685385 
L 754.025644 477.672976 
L 766.357596 509.646478 
L 772.523572 525.171984 
L 778.689548 540.352315 
L 784.855523 555.162697 
L 791.021499 569.581147 
L 797.187475 583.588451 
L 803.353451 597.168124 
L 809.519427 610.306355 
L 815.685403 622.991931 
L 821.851379 635.216158 
L 828.017354 646.972756 
L 834.18333 658.257755 
L 840.349306 669.069376 
L 846.515282 679.407902 
L 852.681258 689.275549 
L 858.847234 698.676326 
L 865.01321 707.615897 
L 871.179185 716.101438 
L 877.345161 724.141493 
L 883.511137 731.745831 
L 889.677113 738.925307 
L 895.843089 745.691721 
L 902.009065 752.057687 
L 908.17504 758.036501 
L 914.341016 763.642016 
L 920.506992 768.888522 
L 926.672968 773.790638 
L 932.838944 778.3632 
L 939.00492 782.621167 
L 945.170896 786.579527 
L 951.336871 790.253214 
L 957.502847 793.657032 
L 963.668823 796.805584 
L 969.834799 799.713214 
L 976.000775 802.393949 
L 982.166751 804.861452 
L 988.332727 807.128986 
L 994.498702 809.209374 
L 1000.664678 811.114975 
L 1006.830654 812.857661 
L 1012.99663 814.448798 
L 1019.162606 815.89924 
L 1025.328582 817.219316 
L 1037.660533 819.507063 
L 1049.992485 821.384215 
L 1062.324437 822.91477 
L 1074.656388 824.15491 
L 1086.98834 825.153474 
L 1099.320292 825.952531 
L 1117.818219 826.854057 
L 1136.316147 827.484734 
L 1160.98005 828.031712 
L 1191.80993 828.414817 
L 1228.805785 828.632457 
L 1290.465543 828.750542 
L 1364.457254 828.775988 
L 1364.457254 828.775988 
" clip-path="url(#pbfaf2308e0)" style="fill: none; stroke: #e377c2; stroke-width: 1.5; stroke-linecap: square"/>
   </g>
   <g id="patch_103">
    <path d="M 72.685313 828.779375 
L 72.685313 38.075625 
" style="fill: none; stroke: #000000; stroke-width: 0.8; stroke-linejoin: miter; stroke-linecap: square"/>
   </g>
   <g id="patch_104">
    <path d="M 1429.2 828.779375 
L 1429.2 38.075625 
" style="fill: none; stroke: #000000; stroke-width: 0.8; stroke-linejoin: miter; stroke-linecap: square"/>
   </g>
   <g id="patch_105">
    <path d="M 72.685313 828.779375 
L 1429.2 828.779375 
" style="fill: none; stroke: #000000; stroke-width: 0.8; stroke-linejoin: miter; stroke-linecap: square"/>
   </g>
   <g id="patch_106">
    <path d="M 72.685313 38.075625 
L 1429.2 38.075625 
" style="fill: none; stroke: #000000; stroke-width: 0.8; stroke-linejoin: miter; stroke-linecap: square"/>
   </g>
   <g id="text_15">
    <!-- All Fitted Distributions -->
    <g transform="translate(596.317031 32.075625) scale(0.28 -0.28)">
     <defs>
      <path id="DejaVuSans-41" d="M 2188 4044 
L 1331 1722 
L 3047 1722 
L 2188 4044 
z
M 1831 4666 
L 2547 4666 
L 4325 0 
L 3669 0 
L 3244 1197 
L 1141 1197 
L 716 0 
L 50 0 
L 1831 4666 
z
" transform="scale(0.015625)"/>
      <path id="DejaVuSans-6c" d="M 603 4863 
L 1178 4863 
L 1178 0 
L 603 0 
L 603 4863 
z
" transform="scale(0.015625)"/>
      <path id="DejaVuSans-46" d="M 628 4666 
L 3309 4666 
L 3309 4134 
L 1259 4134 
L 1259 2759 
L 3109 2759 
L 3109 2228 
L 1259 2228 
L 1259 0 
L 628 0 
L 628 4666 
z
" transform="scale(0.015625)"/>
      <path id="DejaVuSans-44" d="M 1259 4147 
L 1259 519 
L 2022 519 
Q 2988 519 3436 956 
Q 3884 1394 3884 2338 
Q 3884 3275 3436 3711 
Q 2988 4147 2022 4147 
L 1259 4147 
z
M 628 4666 
L 1925 4666 
Q 3281 4666 3915 4102 
Q 4550 3538 4550 2338 
Q 4550 1131 3912 565 
Q 3275 0 1925 0 
L 628 0 
L 628 4666 
z
" transform="scale(0.015625)"/>
      <path id="DejaVuSans-62" d="M 3116 1747 
Q 3116 2381 2855 2742 
Q 2594 3103 2138 3103 
Q 1681 3103 1420 2742 
Q 1159 2381 1159 1747 
Q 1159 1113 1420 752 
Q 1681 391 2138 391 
Q 2594 391 2855 752 
Q 3116 1113 3116 1747 
z
M 1159 2969 
Q 1341 3281 1617 3432 
Q 1894 3584 2278 3584 
Q 2916 3584 3314 3078 
Q 3713 2572 3713 1747 
Q 3713 922 3314 415 
Q 2916 -91 2278 -91 
Q 1894 -91 1617 61 
Q 1341 213 1159 525 
L 1159 0 
L 581 0 
L 581 4863 
L 1159 4863 
L 1159 2969 
z
" transform="scale(0.015625)"/>
     </defs>
     <use xlink:href="#DejaVuSans-41"/>
     <use xlink:href="#DejaVuSans-6c" x="68.408203"/>
     <use xlink:href="#DejaVuSans-6c" x="96.191406"/>
     <use xlink:href="#DejaVuSans-20" x="123.974609"/>
     <use xlink:href="#DejaVuSans-46" x="155.761719"/>
     <use xlink:href="#DejaVuSans-69" x="206.03125"/>
     <use xlink:href="#DejaVuSans-74" x="233.814453"/>
     <use xlink:href="#DejaVuSans-74" x="273.023438"/>
     <use xlink:href="#DejaVuSans-65" x="312.232422"/>
     <use xlink:href="#DejaVuSans-64" x="373.755859"/>
     <use xlink:href="#DejaVuSans-20" x="437.232422"/>
     <use xlink:href="#DejaVuSans-44" x="469.019531"/>
     <use xlink:href="#DejaVuSans-69" x="546.021484"/>
     <use xlink:href="#DejaVuSans-73" x="573.804688"/>
     <use xlink:href="#DejaVuSans-74" x="625.904297"/>
     <use xlink:href="#DejaVuSans-72" x="665.113281"/>
     <use xlink:href="#DejaVuSans-69" x="706.226562"/>
     <use xlink:href="#DejaVuSans-62" x="734.009766"/>
     <use xlink:href="#DejaVuSans-75" x="797.486328"/>
     <use xlink:href="#DejaVuSans-74" x="860.865234"/>
     <use xlink:href="#DejaVuSans-69" x="900.074219"/>
     <use xlink:href="#DejaVuSans-6f" x="927.857422"/>
     <use xlink:href="#DejaVuSans-6e" x="989.039062"/>
     <use xlink:href="#DejaVuSans-73" x="1052.417969"/>
    </g>
   </g>
   <g id="legend_1">
    <g id="patch_107">
     <path d="M 1014.37125 303.868125 
L 1412.4 303.868125 
Q 1417.2 303.868125 1417.2 299.068125 
L 1417.2 54.875625 
Q 1417.2 50.075625 1412.4 50.075625 
L 1014.37125 50.075625 
Q 1009.57125 50.075625 1009.57125 54.875625 
L 1009.57125 299.068125 
Q 1009.57125 303.868125 1014.37125 303.868125 
z
" style="fill: #ffffff; opacity: 0.8; stroke: #cccccc; stroke-linejoin: miter"/>
    </g>
    <g id="patch_108">
     <path d="M 1019.17125 77.911875 
L 1067.17125 77.911875 
L 1067.17125 61.111875 
L 1019.17125 61.111875 
z
" style="fill: #1f77b4; opacity: 0.6"/>
    </g>
    <g id="text_16">
     <!-- Generated Chi Distribution -->
     <g transform="translate(1086.37125 77.911875) scale(0.24 -0.24)">
      <defs>
       <path id="DejaVuSans-47" d="M 3809 666 
L 3809 1919 
L 2778 1919 
L 2778 2438 
L 4434 2438 
L 4434 434 
Q 4069 175 3628 42 
Q 3188 -91 2688 -91 
Q 1594 -91 976 548 
Q 359 1188 359 2328 
Q 359 3472 976 4111 
Q 1594 4750 2688 4750 
Q 3144 4750 3555 4637 
Q 3966 4525 4313 4306 
L 4313 3634 
Q 3963 3931 3569 4081 
Q 3175 4231 2741 4231 
Q 1884 4231 1454 3753 
Q 1025 3275 1025 2328 
Q 1025 1384 1454 906 
Q 1884 428 2741 428 
Q 3075 428 3337 486 
Q 3600 544 3809 666 
z
" transform="scale(0.015625)"/>
       <path id="DejaVuSans-61" d="M 2194 1759 
Q 1497 1759 1228 1600 
Q 959 1441 959 1056 
Q 959 750 1161 570 
Q 1363 391 1709 391 
Q 2188 391 2477 730 
Q 2766 1069 2766 1631 
L 2766 1759 
L 2194 1759 
z
M 3341 1997 
L 3341 0 
L 2766 0 
L 2766 531 
Q 2569 213 2275 61 
Q 1981 -91 1556 -91 
Q 1019 -91 701 211 
Q 384 513 384 1019 
Q 384 1609 779 1909 
Q 1175 2209 1959 2209 
L 2766 2209 
L 2766 2266 
Q 2766 2663 2505 2880 
Q 2244 3097 1772 3097 
Q 1472 3097 1187 3025 
Q 903 2953 641 2809 
L 641 3341 
Q 956 3463 1253 3523 
Q 1550 3584 1831 3584 
Q 2591 3584 2966 3190 
Q 3341 2797 3341 1997 
z
" transform="scale(0.015625)"/>
       <path id="DejaVuSans-68" d="M 3513 2113 
L 3513 0 
L 2938 0 
L 2938 2094 
Q 2938 2591 2744 2837 
Q 2550 3084 2163 3084 
Q 1697 3084 1428 2787 
Q 1159 2491 1159 1978 
L 1159 0 
L 581 0 
L 581 4863 
L 1159 4863 
L 1159 2956 
Q 1366 3272 1645 3428 
Q 1925 3584 2291 3584 
Q 2894 3584 3203 3211 
Q 3513 2838 3513 2113 
z
" transform="scale(0.015625)"/>
      </defs>
      <use xlink:href="#DejaVuSans-47"/>
      <use xlink:href="#DejaVuSans-65" x="77.490234"/>
      <use xlink:href="#DejaVuSans-6e" x="139.013672"/>
      <use xlink:href="#DejaVuSans-65" x="202.392578"/>
      <use xlink:href="#DejaVuSans-72" x="263.916016"/>
      <use xlink:href="#DejaVuSans-61" x="305.029297"/>
      <use xlink:href="#DejaVuSans-74" x="366.308594"/>
      <use xlink:href="#DejaVuSans-65" x="405.517578"/>
      <use xlink:href="#DejaVuSans-64" x="467.041016"/>
      <use xlink:href="#DejaVuSans-20" x="530.517578"/>
      <use xlink:href="#DejaVuSans-43" x="562.304688"/>
      <use xlink:href="#DejaVuSans-68" x="632.128906"/>
      <use xlink:href="#DejaVuSans-69" x="695.507812"/>
      <use xlink:href="#DejaVuSans-20" x="723.291016"/>
      <use xlink:href="#DejaVuSans-44" x="755.078125"/>
      <use xlink:href="#DejaVuSans-69" x="832.080078"/>
      <use xlink:href="#DejaVuSans-73" x="859.863281"/>
      <use xlink:href="#DejaVuSans-74" x="911.962891"/>
      <use xlink:href="#DejaVuSans-72" x="951.171875"/>
      <use xlink:href="#DejaVuSans-69" x="992.285156"/>
      <use xlink:href="#DejaVuSans-62" x="1020.068359"/>
      <use xlink:href="#DejaVuSans-75" x="1083.544922"/>
      <use xlink:href="#DejaVuSans-74" x="1146.923828"/>
      <use xlink:href="#DejaVuSans-69" x="1186.132812"/>
      <use xlink:href="#DejaVuSans-6f" x="1213.916016"/>
      <use xlink:href="#DejaVuSans-6e" x="1275.097656"/>
     </g>
    </g>
    <g id="line2d_20">
     <path d="M 1019.17125 104.739375 
L 1043.17125 104.739375 
L 1067.17125 104.739375 
" style="fill: none; stroke: #ff7f0e; stroke-width: 1.5; stroke-linecap: square"/>
    </g>
    <g id="text_17">
     <!-- Chi fit -->
     <g transform="translate(1086.37125 113.139375) scale(0.24 -0.24)">
      <defs>
       <path id="DejaVuSans-66" d="M 2375 4863 
L 2375 4384 
L 1825 4384 
Q 1516 4384 1395 4259 
Q 1275 4134 1275 3809 
L 1275 3500 
L 2222 3500 
L 2222 3053 
L 1275 3053 
L 1275 0 
L 697 0 
L 697 3053 
L 147 3053 
L 147 3500 
L 697 3500 
L 697 3744 
Q 697 4328 969 4595 
Q 1241 4863 1831 4863 
L 2375 4863 
z
" transform="scale(0.015625)"/>
      </defs>
      <use xlink:href="#DejaVuSans-43"/>
      <use xlink:href="#DejaVuSans-68" x="69.824219"/>
      <use xlink:href="#DejaVuSans-69" x="133.203125"/>
      <use xlink:href="#DejaVuSans-20" x="160.986328"/>
      <use xlink:href="#DejaVuSans-66" x="192.773438"/>
      <use xlink:href="#DejaVuSans-69" x="227.978516"/>
      <use xlink:href="#DejaVuSans-74" x="255.761719"/>
     </g>
    </g>
    <g id="line2d_21">
     <path d="M 1019.17125 139.966875 
L 1043.17125 139.966875 
L 1067.17125 139.966875 
" style="fill: none; stroke: #2ca02c; stroke-width: 1.5; stroke-linecap: square"/>
    </g>
    <g id="text_18">
     <!-- Chi-Square fit -->
     <g transform="translate(1086.37125 148.366875) scale(0.24 -0.24)">
      <defs>
       <path id="DejaVuSans-2d" d="M 313 2009 
L 1997 2009 
L 1997 1497 
L 313 1497 
L 313 2009 
z
" transform="scale(0.015625)"/>
       <path id="DejaVuSans-53" d="M 3425 4513 
L 3425 3897 
Q 3066 4069 2747 4153 
Q 2428 4238 2131 4238 
Q 1616 4238 1336 4038 
Q 1056 3838 1056 3469 
Q 1056 3159 1242 3001 
Q 1428 2844 1947 2747 
L 2328 2669 
Q 3034 2534 3370 2195 
Q 3706 1856 3706 1288 
Q 3706 609 3251 259 
Q 2797 -91 1919 -91 
Q 1588 -91 1214 -16 
Q 841 59 441 206 
L 441 856 
Q 825 641 1194 531 
Q 1563 422 1919 422 
Q 2459 422 2753 634 
Q 3047 847 3047 1241 
Q 3047 1584 2836 1778 
Q 2625 1972 2144 2069 
L 1759 2144 
Q 1053 2284 737 2584 
Q 422 2884 422 3419 
Q 422 4038 858 4394 
Q 1294 4750 2059 4750 
Q 2388 4750 2728 4690 
Q 3069 4631 3425 4513 
z
" transform="scale(0.015625)"/>
       <path id="DejaVuSans-71" d="M 947 1747 
Q 947 1113 1208 752 
Q 1469 391 1925 391 
Q 2381 391 2643 752 
Q 2906 1113 2906 1747 
Q 2906 2381 2643 2742 
Q 2381 3103 1925 3103 
Q 1469 3103 1208 2742 
Q 947 2381 947 1747 
z
M 2906 525 
Q 2725 213 2448 61 
Q 2172 -91 1784 -91 
Q 1150 -91 751 415 
Q 353 922 353 1747 
Q 353 2572 751 3078 
Q 1150 3584 1784 3584 
Q 2172 3584 2448 3432 
Q 2725 3281 2906 2969 
L 2906 3500 
L 3481 3500 
L 3481 -1331 
L 2906 -1331 
L 2906 525 
z
" transform="scale(0.015625)"/>
      </defs>
      <use xlink:href="#DejaVuSans-43"/>
      <use xlink:href="#DejaVuSans-68" x="69.824219"/>
      <use xlink:href="#DejaVuSans-69" x="133.203125"/>
      <use xlink:href="#DejaVuSans-2d" x="160.986328"/>
      <use xlink:href="#DejaVuSans-53" x="197.070312"/>
      <use xlink:href="#DejaVuSans-71" x="260.546875"/>
      <use xlink:href="#DejaVuSans-75" x="324.023438"/>
      <use xlink:href="#DejaVuSans-61" x="387.402344"/>
      <use xlink:href="#DejaVuSans-72" x="448.681641"/>
      <use xlink:href="#DejaVuSans-65" x="487.544922"/>
      <use xlink:href="#DejaVuSans-20" x="549.068359"/>
      <use xlink:href="#DejaVuSans-66" x="580.855469"/>
      <use xlink:href="#DejaVuSans-69" x="616.060547"/>
      <use xlink:href="#DejaVuSans-74" x="643.84375"/>
     </g>
    </g>
    <g id="line2d_22">
     <path d="M 1019.17125 175.194375 
L 1043.17125 175.194375 
L 1067.17125 175.194375 
" style="fill: none; stroke: #d62728; stroke-width: 1.5; stroke-linecap: square"/>
    </g>
    <g id="text_19">
     <!-- Exponential fit -->
     <g transform="translate(1086.37125 183.594375) scale(0.24 -0.24)">
      <defs>
       <path id="DejaVuSans-45" d="M 628 4666 
L 3578 4666 
L 3578 4134 
L 1259 4134 
L 1259 2753 
L 3481 2753 
L 3481 2222 
L 1259 2222 
L 1259 531 
L 3634 531 
L 3634 0 
L 628 0 
L 628 4666 
z
" transform="scale(0.015625)"/>
       <path id="DejaVuSans-78" d="M 3513 3500 
L 2247 1797 
L 3578 0 
L 2900 0 
L 1881 1375 
L 863 0 
L 184 0 
L 1544 1831 
L 300 3500 
L 978 3500 
L 1906 2253 
L 2834 3500 
L 3513 3500 
z
" transform="scale(0.015625)"/>
       <path id="DejaVuSans-70" d="M 1159 525 
L 1159 -1331 
L 581 -1331 
L 581 3500 
L 1159 3500 
L 1159 2969 
Q 1341 3281 1617 3432 
Q 1894 3584 2278 3584 
Q 2916 3584 3314 3078 
Q 3713 2572 3713 1747 
Q 3713 922 3314 415 
Q 2916 -91 2278 -91 
Q 1894 -91 1617 61 
Q 1341 213 1159 525 
z
M 3116 1747 
Q 3116 2381 2855 2742 
Q 2594 3103 2138 3103 
Q 1681 3103 1420 2742 
Q 1159 2381 1159 1747 
Q 1159 1113 1420 752 
Q 1681 391 2138 391 
Q 2594 391 2855 752 
Q 3116 1113 3116 1747 
z
" transform="scale(0.015625)"/>
      </defs>
      <use xlink:href="#DejaVuSans-45"/>
      <use xlink:href="#DejaVuSans-78" x="63.183594"/>
      <use xlink:href="#DejaVuSans-70" x="122.363281"/>
      <use xlink:href="#DejaVuSans-6f" x="185.839844"/>
      <use xlink:href="#DejaVuSans-6e" x="247.021484"/>
      <use xlink:href="#DejaVuSans-65" x="310.400391"/>
      <use xlink:href="#DejaVuSans-6e" x="371.923828"/>
      <use xlink:href="#DejaVuSans-74" x="435.302734"/>
      <use xlink:href="#DejaVuSans-69" x="474.511719"/>
      <use xlink:href="#DejaVuSans-61" x="502.294922"/>
      <use xlink:href="#DejaVuSans-6c" x="563.574219"/>
      <use xlink:href="#DejaVuSans-20" x="591.357422"/>
      <use xlink:href="#DejaVuSans-66" x="623.144531"/>
      <use xlink:href="#DejaVuSans-69" x="658.349609"/>
      <use xlink:href="#DejaVuSans-74" x="686.132812"/>
     </g>
    </g>
    <g id="line2d_23">
     <path d="M 1019.17125 210.421875 
L 1043.17125 210.421875 
L 1067.17125 210.421875 
" style="fill: none; stroke: #9467bd; stroke-width: 1.5; stroke-linecap: square"/>
    </g>
    <g id="text_20">
     <!-- Laplace fit -->
     <g transform="translate(1086.37125 218.821875) scale(0.24 -0.24)">
      <defs>
       <path id="DejaVuSans-4c" d="M 628 4666 
L 1259 4666 
L 1259 531 
L 3531 531 
L 3531 0 
L 628 0 
L 628 4666 
z
" transform="scale(0.015625)"/>
       <path id="DejaVuSans-63" d="M 3122 3366 
L 3122 2828 
Q 2878 2963 2633 3030 
Q 2388 3097 2138 3097 
Q 1578 3097 1268 2742 
Q 959 2388 959 1747 
Q 959 1106 1268 751 
Q 1578 397 2138 397 
Q 2388 397 2633 464 
Q 2878 531 3122 666 
L 3122 134 
Q 2881 22 2623 -34 
Q 2366 -91 2075 -91 
Q 1284 -91 818 406 
Q 353 903 353 1747 
Q 353 2603 823 3093 
Q 1294 3584 2113 3584 
Q 2378 3584 2631 3529 
Q 2884 3475 3122 3366 
z
" transform="scale(0.015625)"/>
      </defs>
      <use xlink:href="#DejaVuSans-4c"/>
      <use xlink:href="#DejaVuSans-61" x="55.712891"/>
      <use xlink:href="#DejaVuSans-70" x="116.992188"/>
      <use xlink:href="#DejaVuSans-6c" x="180.46875"/>
      <use xlink:href="#DejaVuSans-61" x="208.251953"/>
      <use xlink:href="#DejaVuSans-63" x="269.53125"/>
      <use xlink:href="#DejaVuSans-65" x="324.511719"/>
      <use xlink:href="#DejaVuSans-20" x="386.035156"/>
      <use xlink:href="#DejaVuSans-66" x="417.822266"/>
      <use xlink:href="#DejaVuSans-69" x="453.027344"/>
      <use xlink:href="#DejaVuSans-74" x="480.810547"/>
     </g>
    </g>
    <g id="line2d_24">
     <path d="M 1019.17125 245.649375 
L 1043.17125 245.649375 
L 1067.17125 245.649375 
" style="fill: none; stroke: #8c564b; stroke-width: 1.5; stroke-linecap: square"/>
    </g>
    <g id="text_21">
     <!-- LogNorm fit -->
     <g transform="translate(1086.37125 254.049375) scale(0.24 -0.24)">
      <defs>
       <path id="DejaVuSans-67" d="M 2906 1791 
Q 2906 2416 2648 2759 
Q 2391 3103 1925 3103 
Q 1463 3103 1205 2759 
Q 947 2416 947 1791 
Q 947 1169 1205 825 
Q 1463 481 1925 481 
Q 2391 481 2648 825 
Q 2906 1169 2906 1791 
z
M 3481 434 
Q 3481 -459 3084 -895 
Q 2688 -1331 1869 -1331 
Q 1566 -1331 1297 -1286 
Q 1028 -1241 775 -1147 
L 775 -588 
Q 1028 -725 1275 -790 
Q 1522 -856 1778 -856 
Q 2344 -856 2625 -561 
Q 2906 -266 2906 331 
L 2906 616 
Q 2728 306 2450 153 
Q 2172 0 1784 0 
Q 1141 0 747 490 
Q 353 981 353 1791 
Q 353 2603 747 3093 
Q 1141 3584 1784 3584 
Q 2172 3584 2450 3431 
Q 2728 3278 2906 2969 
L 2906 3500 
L 3481 3500 
L 3481 434 
z
" transform="scale(0.015625)"/>
      </defs>
      <use xlink:href="#DejaVuSans-4c"/>
      <use xlink:href="#DejaVuSans-6f" x="53.962891"/>
      <use xlink:href="#DejaVuSans-67" x="115.144531"/>
      <use xlink:href="#DejaVuSans-4e" x="178.621094"/>
      <use xlink:href="#DejaVuSans-6f" x="253.425781"/>
      <use xlink:href="#DejaVuSans-72" x="314.607422"/>
      <use xlink:href="#DejaVuSans-6d" x="353.970703"/>
      <use xlink:href="#DejaVuSans-20" x="451.382812"/>
      <use xlink:href="#DejaVuSans-66" x="483.169922"/>
      <use xlink:href="#DejaVuSans-69" x="518.375"/>
      <use xlink:href="#DejaVuSans-74" x="546.158203"/>
     </g>
    </g>
    <g id="line2d_25">
     <path d="M 1019.17125 280.876875 
L 1043.17125 280.876875 
L 1067.17125 280.876875 
" style="fill: none; stroke: #e377c2; stroke-width: 1.5; stroke-linecap: square"/>
    </g>
    <g id="text_22">
     <!-- Normal fit -->
     <g transform="translate(1086.37125 289.276875) scale(0.24 -0.24)">
      <use xlink:href="#DejaVuSans-4e"/>
      <use xlink:href="#DejaVuSans-6f" x="74.804688"/>
      <use xlink:href="#DejaVuSans-72" x="135.986328"/>
      <use xlink:href="#DejaVuSans-6d" x="175.349609"/>
      <use xlink:href="#DejaVuSans-61" x="272.761719"/>
      <use xlink:href="#DejaVuSans-6c" x="334.041016"/>
      <use xlink:href="#DejaVuSans-20" x="361.824219"/>
      <use xlink:href="#DejaVuSans-66" x="393.611328"/>
      <use xlink:href="#DejaVuSans-69" x="428.816406"/>
      <use xlink:href="#DejaVuSans-74" x="456.599609"/>
     </g>
    </g>
   </g>
  </g>
 </g>
 <defs>
  <clipPath id="pbfaf2308e0">
   <rect x="72.685313" y="38.075625" width="1356.514688" height="790.70375"/>
  </clipPath>
 </defs>
</svg>
