<?xml version="1.0" encoding="utf-8" standalone="no"?>
<!DOCTYPE svg PUBLIC "-//W3C//DTD SVG 1.1//EN"
  "http://www.w3.org/Graphics/SVG/1.1/DTD/svg11.dtd">
<svg xmlns:xlink="http://www.w3.org/1999/xlink" width="1440pt" height="864pt" viewBox="0 0 1440 864" xmlns="http://www.w3.org/2000/svg" version="1.1">
 <metadata>
  <rdf:RDF xmlns:dc="http://purl.org/dc/elements/1.1/" xmlns:cc="http://creativecommons.org/ns#" xmlns:rdf="http://www.w3.org/1999/02/22-rdf-syntax-ns#">
   <cc:Work>
    <dc:type rdf:resource="http://purl.org/dc/dcmitype/StillImage"/>
    <dc:date>2024-11-18T10:09:52.219327</dc:date>
    <dc:format>image/svg+xml</dc:format>
    <dc:creator>
     <cc:Agent>
      <dc:title>Matplotlib v3.9.2, https://matplotlib.org/</dc:title>
     </cc:Agent>
    </dc:creator>
   </cc:Work>
  </rdf:RDF>
 </metadata>
 <defs>
  <style type="text/css">*{stroke-linejoin: round; stroke-linecap: butt}</style>
 </defs>
 <g id="figure_1">
  <g id="patch_1">
   <path d="M 0 864 
L 1440 864 
L 1440 0 
L 0 0 
z
" style="fill: #ffffff"/>
  </g>
  <g id="axes_1">
   <g id="patch_2">
    <path d="M 95.590313 828.779375 
L 1429.2 828.779375 
L 1429.2 38.075625 
L 95.590313 38.075625 
z
" style="fill: #ffffff"/>
   </g>
   <g id="patch_3">
    <path d="M 156.208935 828.779375 
L 168.332659 828.779375 
L 168.332659 695.767616 
L 156.208935 695.767616 
z
" clip-path="url(#pa3b676769f)" style="fill: #1f77b4; opacity: 0.6"/>
   </g>
   <g id="patch_4">
    <path d="M 168.332659 828.779375 
L 180.456384 828.779375 
L 180.456384 515.690157 
L 168.332659 515.690157 
z
" clip-path="url(#pa3b676769f)" style="fill: #1f77b4; opacity: 0.6"/>
   </g>
   <g id="patch_5">
    <path d="M 180.456384 828.779375 
L 192.580108 828.779375 
L 192.580108 356.36838 
L 180.456384 356.36838 
z
" clip-path="url(#pa3b676769f)" style="fill: #1f77b4; opacity: 0.6"/>
   </g>
   <g id="patch_6">
    <path d="M 192.580108 828.779375 
L 204.703832 828.779375 
L 204.703832 252.589974 
L 192.580108 252.589974 
z
" clip-path="url(#pa3b676769f)" style="fill: #1f77b4; opacity: 0.6"/>
   </g>
   <g id="patch_7">
    <path d="M 204.703832 828.779375 
L 216.827557 828.779375 
L 216.827557 158.166242 
L 204.703832 158.166242 
z
" clip-path="url(#pa3b676769f)" style="fill: #1f77b4; opacity: 0.6"/>
   </g>
   <g id="patch_8">
    <path d="M 216.827557 828.779375 
L 228.951281 828.779375 
L 228.951281 119.285881 
L 216.827557 119.285881 
z
" clip-path="url(#pa3b676769f)" style="fill: #1f77b4; opacity: 0.6"/>
   </g>
   <g id="patch_9">
    <path d="M 228.951281 828.779375 
L 241.075006 828.779375 
L 241.075006 137.410561 
L 228.951281 137.410561 
z
" clip-path="url(#pa3b676769f)" style="fill: #1f77b4; opacity: 0.6"/>
   </g>
   <g id="patch_10">
    <path d="M 241.075006 828.779375 
L 253.19873 828.779375 
L 253.19873 75.728185 
L 241.075006 75.728185 
z
" clip-path="url(#pa3b676769f)" style="fill: #1f77b4; opacity: 0.6"/>
   </g>
   <g id="patch_11">
    <path d="M 253.19873 828.779375 
L 265.322455 828.779375 
L 265.322455 132.440891 
L 253.19873 132.440891 
z
" clip-path="url(#pa3b676769f)" style="fill: #1f77b4; opacity: 0.6"/>
   </g>
   <g id="patch_12">
    <path d="M 265.322455 828.779375 
L 277.446179 828.779375 
L 277.446179 103.499871 
L 265.322455 103.499871 
z
" clip-path="url(#pa3b676769f)" style="fill: #1f77b4; opacity: 0.6"/>
   </g>
   <g id="patch_13">
    <path d="M 277.446179 828.779375 
L 289.569903 828.779375 
L 289.569903 170.736584 
L 277.446179 170.736584 
z
" clip-path="url(#pa3b676769f)" style="fill: #1f77b4; opacity: 0.6"/>
   </g>
   <g id="patch_14">
    <path d="M 289.569903 828.779375 
L 301.693628 828.779375 
L 301.693628 187.984263 
L 289.569903 187.984263 
z
" clip-path="url(#pa3b676769f)" style="fill: #1f77b4; opacity: 0.6"/>
   </g>
   <g id="patch_15">
    <path d="M 301.693628 828.779375 
L 313.817352 828.779375 
L 313.817352 197.046602 
L 301.693628 197.046602 
z
" clip-path="url(#pa3b676769f)" style="fill: #1f77b4; opacity: 0.6"/>
   </g>
   <g id="patch_16">
    <path d="M 313.817352 828.779375 
L 325.941077 828.779375 
L 325.941077 237.38863 
L 313.817352 237.38863 
z
" clip-path="url(#pa3b676769f)" style="fill: #1f77b4; opacity: 0.6"/>
   </g>
   <g id="patch_17">
    <path d="M 325.941077 828.779375 
L 338.064801 828.779375 
L 338.064801 283.577329 
L 325.941077 283.577329 
z
" clip-path="url(#pa3b676769f)" style="fill: #1f77b4; opacity: 0.6"/>
   </g>
   <g id="patch_18">
    <path d="M 338.064801 828.779375 
L 350.188526 828.779375 
L 350.188526 321.288355 
L 338.064801 321.288355 
z
" clip-path="url(#pa3b676769f)" style="fill: #1f77b4; opacity: 0.6"/>
   </g>
   <g id="patch_19">
    <path d="M 350.188526 828.779375 
L 362.31225 828.779375 
L 362.31225 365.430719 
L 350.188526 365.430719 
z
" clip-path="url(#pa3b676769f)" style="fill: #1f77b4; opacity: 0.6"/>
   </g>
   <g id="patch_20">
    <path d="M 362.31225 828.779375 
L 374.435974 828.779375 
L 374.435974 388.232735 
L 362.31225 388.232735 
z
" clip-path="url(#pa3b676769f)" style="fill: #1f77b4; opacity: 0.6"/>
   </g>
   <g id="patch_21">
    <path d="M 374.435974 828.779375 
L 386.559699 828.779375 
L 386.559699 421.266425 
L 374.435974 421.266425 
z
" clip-path="url(#pa3b676769f)" style="fill: #1f77b4; opacity: 0.6"/>
   </g>
   <g id="patch_22">
    <path d="M 386.559699 828.779375 
L 398.683423 828.779375 
L 398.683423 459.269785 
L 386.559699 459.269785 
z
" clip-path="url(#pa3b676769f)" style="fill: #1f77b4; opacity: 0.6"/>
   </g>
   <g id="patch_23">
    <path d="M 398.683423 828.779375 
L 410.807148 828.779375 
L 410.807148 479.440799 
L 398.683423 479.440799 
z
" clip-path="url(#pa3b676769f)" style="fill: #1f77b4; opacity: 0.6"/>
   </g>
   <g id="patch_24">
    <path d="M 410.807148 828.779375 
L 422.930872 828.779375 
L 422.930872 514.22849 
L 410.807148 514.22849 
z
" clip-path="url(#pa3b676769f)" style="fill: #1f77b4; opacity: 0.6"/>
   </g>
   <g id="patch_25">
    <path d="M 422.930872 828.779375 
L 435.054597 828.779375 
L 435.054597 539.661507 
L 422.930872 539.661507 
z
" clip-path="url(#pa3b676769f)" style="fill: #1f77b4; opacity: 0.6"/>
   </g>
   <g id="patch_26">
    <path d="M 435.054597 828.779375 
L 447.178321 828.779375 
L 447.178321 572.695197 
L 435.054597 572.695197 
z
" clip-path="url(#pa3b676769f)" style="fill: #1f77b4; opacity: 0.6"/>
   </g>
   <g id="patch_27">
    <path d="M 447.178321 828.779375 
L 459.302045 828.779375 
L 459.302045 591.696877 
L 447.178321 591.696877 
z
" clip-path="url(#pa3b676769f)" style="fill: #1f77b4; opacity: 0.6"/>
   </g>
   <g id="patch_28">
    <path d="M 459.302045 828.779375 
L 471.42577 828.779375 
L 471.42577 618.591562 
L 459.302045 618.591562 
z
" clip-path="url(#pa3b676769f)" style="fill: #1f77b4; opacity: 0.6"/>
   </g>
   <g id="patch_29">
    <path d="M 471.42577 828.779375 
L 483.549494 828.779375 
L 483.549494 634.669907 
L 471.42577 634.669907 
z
" clip-path="url(#pa3b676769f)" style="fill: #1f77b4; opacity: 0.6"/>
   </g>
   <g id="patch_30">
    <path d="M 483.549494 828.779375 
L 495.673219 828.779375 
L 495.673219 658.348923 
L 483.549494 658.348923 
z
" clip-path="url(#pa3b676769f)" style="fill: #1f77b4; opacity: 0.6"/>
   </g>
   <g id="patch_31">
    <path d="M 495.673219 828.779375 
L 507.796943 828.779375 
L 507.796943 657.471923 
L 495.673219 657.471923 
z
" clip-path="url(#pa3b676769f)" style="fill: #1f77b4; opacity: 0.6"/>
   </g>
   <g id="patch_32">
    <path d="M 507.796943 828.779375 
L 519.920668 828.779375 
L 519.920668 675.596602 
L 507.796943 675.596602 
z
" clip-path="url(#pa3b676769f)" style="fill: #1f77b4; opacity: 0.6"/>
   </g>
   <g id="patch_33">
    <path d="M 519.920668 828.779375 
L 532.044392 828.779375 
L 532.044392 706.583957 
L 519.920668 706.583957 
z
" clip-path="url(#pa3b676769f)" style="fill: #1f77b4; opacity: 0.6"/>
   </g>
   <g id="patch_34">
    <path d="M 532.044392 828.779375 
L 544.168116 828.779375 
L 544.168116 707.753291 
L 532.044392 707.753291 
z
" clip-path="url(#pa3b676769f)" style="fill: #1f77b4; opacity: 0.6"/>
   </g>
   <g id="patch_35">
    <path d="M 544.168116 828.779375 
L 556.291841 828.779375 
L 556.291841 717.984965 
L 544.168116 717.984965 
z
" clip-path="url(#pa3b676769f)" style="fill: #1f77b4; opacity: 0.6"/>
   </g>
   <g id="patch_36">
    <path d="M 556.291841 828.779375 
L 568.415565 828.779375 
L 568.415565 722.369968 
L 556.291841 722.369968 
z
" clip-path="url(#pa3b676769f)" style="fill: #1f77b4; opacity: 0.6"/>
   </g>
   <g id="patch_37">
    <path d="M 568.415565 828.779375 
L 580.53929 828.779375 
L 580.53929 741.663981 
L 568.415565 741.663981 
z
" clip-path="url(#pa3b676769f)" style="fill: #1f77b4; opacity: 0.6"/>
   </g>
   <g id="patch_38">
    <path d="M 580.53929 828.779375 
L 592.663014 828.779375 
L 592.663014 748.972319 
L 580.53929 748.972319 
z
" clip-path="url(#pa3b676769f)" style="fill: #1f77b4; opacity: 0.6"/>
   </g>
   <g id="patch_39">
    <path d="M 592.663014 828.779375 
L 604.786739 828.779375 
L 604.786739 752.480322 
L 592.663014 752.480322 
z
" clip-path="url(#pa3b676769f)" style="fill: #1f77b4; opacity: 0.6"/>
   </g>
   <g id="patch_40">
    <path d="M 604.786739 828.779375 
L 616.910463 828.779375 
L 616.910463 768.266333 
L 604.786739 768.266333 
z
" clip-path="url(#pa3b676769f)" style="fill: #1f77b4; opacity: 0.6"/>
   </g>
   <g id="patch_41">
    <path d="M 616.910463 828.779375 
L 629.034188 828.779375 
L 629.034188 776.159338 
L 616.910463 776.159338 
z
" clip-path="url(#pa3b676769f)" style="fill: #1f77b4; opacity: 0.6"/>
   </g>
   <g id="patch_42">
    <path d="M 629.034188 828.779375 
L 641.157912 828.779375 
L 641.157912 778.205673 
L 629.034188 778.205673 
z
" clip-path="url(#pa3b676769f)" style="fill: #1f77b4; opacity: 0.6"/>
   </g>
   <g id="patch_43">
    <path d="M 641.157912 828.779375 
L 653.281636 828.779375 
L 653.281636 787.85268 
L 641.157912 787.85268 
z
" clip-path="url(#pa3b676769f)" style="fill: #1f77b4; opacity: 0.6"/>
   </g>
   <g id="patch_44">
    <path d="M 653.281636 828.779375 
L 665.405361 828.779375 
L 665.405361 783.76001 
L 653.281636 783.76001 
z
" clip-path="url(#pa3b676769f)" style="fill: #1f77b4; opacity: 0.6"/>
   </g>
   <g id="patch_45">
    <path d="M 665.405361 828.779375 
L 677.529085 828.779375 
L 677.529085 790.191348 
L 665.405361 790.191348 
z
" clip-path="url(#pa3b676769f)" style="fill: #1f77b4; opacity: 0.6"/>
   </g>
   <g id="patch_46">
    <path d="M 677.529085 828.779375 
L 689.65281 828.779375 
L 689.65281 792.82235 
L 677.529085 792.82235 
z
" clip-path="url(#pa3b676769f)" style="fill: #1f77b4; opacity: 0.6"/>
   </g>
   <g id="patch_47">
    <path d="M 689.65281 828.779375 
L 701.776534 828.779375 
L 701.776534 799.546021 
L 689.65281 799.546021 
z
" clip-path="url(#pa3b676769f)" style="fill: #1f77b4; opacity: 0.6"/>
   </g>
   <g id="patch_48">
    <path d="M 701.776534 828.779375 
L 713.900259 828.779375 
L 713.900259 807.73136 
L 701.776534 807.73136 
z
" clip-path="url(#pa3b676769f)" style="fill: #1f77b4; opacity: 0.6"/>
   </g>
   <g id="patch_49">
    <path d="M 713.900259 828.779375 
L 726.023983 828.779375 
L 726.023983 807.73136 
L 713.900259 807.73136 
z
" clip-path="url(#pa3b676769f)" style="fill: #1f77b4; opacity: 0.6"/>
   </g>
   <g id="patch_50">
    <path d="M 726.023983 828.779375 
L 738.147707 828.779375 
L 738.147707 812.116363 
L 726.023983 812.116363 
z
" clip-path="url(#pa3b676769f)" style="fill: #1f77b4; opacity: 0.6"/>
   </g>
   <g id="patch_51">
    <path d="M 738.147707 828.779375 
L 750.271432 828.779375 
L 750.271432 812.116363 
L 738.147707 812.116363 
z
" clip-path="url(#pa3b676769f)" style="fill: #1f77b4; opacity: 0.6"/>
   </g>
   <g id="patch_52">
    <path d="M 750.271432 828.779375 
L 762.395156 828.779375 
L 762.395156 811.82403 
L 750.271432 811.82403 
z
" clip-path="url(#pa3b676769f)" style="fill: #1f77b4; opacity: 0.6"/>
   </g>
   <g id="patch_53">
    <path d="M 762.395156 828.779375 
L 774.518881 828.779375 
L 774.518881 815.039699 
L 762.395156 815.039699 
z
" clip-path="url(#pa3b676769f)" style="fill: #1f77b4; opacity: 0.6"/>
   </g>
   <g id="patch_54">
    <path d="M 774.518881 828.779375 
L 786.642605 828.779375 
L 786.642605 815.624366 
L 774.518881 815.624366 
z
" clip-path="url(#pa3b676769f)" style="fill: #1f77b4; opacity: 0.6"/>
   </g>
   <g id="patch_55">
    <path d="M 786.642605 828.779375 
L 798.76633 828.779375 
L 798.76633 820.301702 
L 786.642605 820.301702 
z
" clip-path="url(#pa3b676769f)" style="fill: #1f77b4; opacity: 0.6"/>
   </g>
   <g id="patch_56">
    <path d="M 798.76633 828.779375 
L 810.890054 828.779375 
L 810.890054 820.594036 
L 798.76633 820.594036 
z
" clip-path="url(#pa3b676769f)" style="fill: #1f77b4; opacity: 0.6"/>
   </g>
   <g id="patch_57">
    <path d="M 810.890054 828.779375 
L 823.013778 828.779375 
L 823.013778 819.424702 
L 810.890054 819.424702 
z
" clip-path="url(#pa3b676769f)" style="fill: #1f77b4; opacity: 0.6"/>
   </g>
   <g id="patch_58">
    <path d="M 823.013778 828.779375 
L 835.137503 828.779375 
L 835.137503 820.009369 
L 823.013778 820.009369 
z
" clip-path="url(#pa3b676769f)" style="fill: #1f77b4; opacity: 0.6"/>
   </g>
   <g id="patch_59">
    <path d="M 835.137503 828.779375 
L 847.261227 828.779375 
L 847.261227 823.517371 
L 835.137503 823.517371 
z
" clip-path="url(#pa3b676769f)" style="fill: #1f77b4; opacity: 0.6"/>
   </g>
   <g id="patch_60">
    <path d="M 847.261227 828.779375 
L 859.384952 828.779375 
L 859.384952 822.055704 
L 847.261227 822.055704 
z
" clip-path="url(#pa3b676769f)" style="fill: #1f77b4; opacity: 0.6"/>
   </g>
   <g id="patch_61">
    <path d="M 859.384952 828.779375 
L 871.508676 828.779375 
L 871.508676 823.809705 
L 859.384952 823.809705 
z
" clip-path="url(#pa3b676769f)" style="fill: #1f77b4; opacity: 0.6"/>
   </g>
   <g id="patch_62">
    <path d="M 871.508676 828.779375 
L 883.632401 828.779375 
L 883.632401 821.178703 
L 871.508676 821.178703 
z
" clip-path="url(#pa3b676769f)" style="fill: #1f77b4; opacity: 0.6"/>
   </g>
   <g id="patch_63">
    <path d="M 883.632401 828.779375 
L 895.756125 828.779375 
L 895.756125 823.517371 
L 883.632401 823.517371 
z
" clip-path="url(#pa3b676769f)" style="fill: #1f77b4; opacity: 0.6"/>
   </g>
   <g id="patch_64">
    <path d="M 895.756125 828.779375 
L 907.879849 828.779375 
L 907.879849 823.517371 
L 895.756125 823.517371 
z
" clip-path="url(#pa3b676769f)" style="fill: #1f77b4; opacity: 0.6"/>
   </g>
   <g id="patch_65">
    <path d="M 907.879849 828.779375 
L 920.003574 828.779375 
L 920.003574 826.440707 
L 907.879849 826.440707 
z
" clip-path="url(#pa3b676769f)" style="fill: #1f77b4; opacity: 0.6"/>
   </g>
   <g id="patch_66">
    <path d="M 920.003574 828.779375 
L 932.127298 828.779375 
L 932.127298 825.271373 
L 920.003574 825.271373 
z
" clip-path="url(#pa3b676769f)" style="fill: #1f77b4; opacity: 0.6"/>
   </g>
   <g id="patch_67">
    <path d="M 932.127298 828.779375 
L 944.251023 828.779375 
L 944.251023 827.317707 
L 932.127298 827.317707 
z
" clip-path="url(#pa3b676769f)" style="fill: #1f77b4; opacity: 0.6"/>
   </g>
   <g id="patch_68">
    <path d="M 944.251023 828.779375 
L 956.374747 828.779375 
L 956.374747 827.317707 
L 944.251023 827.317707 
z
" clip-path="url(#pa3b676769f)" style="fill: #1f77b4; opacity: 0.6"/>
   </g>
   <g id="patch_69">
    <path d="M 956.374747 828.779375 
L 968.498472 828.779375 
L 968.498472 827.025374 
L 956.374747 827.025374 
z
" clip-path="url(#pa3b676769f)" style="fill: #1f77b4; opacity: 0.6"/>
   </g>
   <g id="patch_70">
    <path d="M 968.498472 828.779375 
L 980.622196 828.779375 
L 980.622196 826.148373 
L 968.498472 826.148373 
z
" clip-path="url(#pa3b676769f)" style="fill: #1f77b4; opacity: 0.6"/>
   </g>
   <g id="patch_71">
    <path d="M 980.622196 828.779375 
L 992.74592 828.779375 
L 992.74592 826.73304 
L 980.622196 826.73304 
z
" clip-path="url(#pa3b676769f)" style="fill: #1f77b4; opacity: 0.6"/>
   </g>
   <g id="patch_72">
    <path d="M 992.74592 828.779375 
L 1004.869645 828.779375 
L 1004.869645 826.440707 
L 992.74592 826.440707 
z
" clip-path="url(#pa3b676769f)" style="fill: #1f77b4; opacity: 0.6"/>
   </g>
   <g id="patch_73">
    <path d="M 1004.869645 828.779375 
L 1016.993369 828.779375 
L 1016.993369 827.610041 
L 1004.869645 827.610041 
z
" clip-path="url(#pa3b676769f)" style="fill: #1f77b4; opacity: 0.6"/>
   </g>
   <g id="patch_74">
    <path d="M 1016.993369 828.779375 
L 1029.117094 828.779375 
L 1029.117094 826.73304 
L 1016.993369 826.73304 
z
" clip-path="url(#pa3b676769f)" style="fill: #1f77b4; opacity: 0.6"/>
   </g>
   <g id="patch_75">
    <path d="M 1029.117094 828.779375 
L 1041.240818 828.779375 
L 1041.240818 827.610041 
L 1029.117094 827.610041 
z
" clip-path="url(#pa3b676769f)" style="fill: #1f77b4; opacity: 0.6"/>
   </g>
   <g id="patch_76">
    <path d="M 1041.240818 828.779375 
L 1053.364543 828.779375 
L 1053.364543 828.487041 
L 1041.240818 828.487041 
z
" clip-path="url(#pa3b676769f)" style="fill: #1f77b4; opacity: 0.6"/>
   </g>
   <g id="patch_77">
    <path d="M 1053.364543 828.779375 
L 1065.488267 828.779375 
L 1065.488267 827.317707 
L 1053.364543 827.317707 
z
" clip-path="url(#pa3b676769f)" style="fill: #1f77b4; opacity: 0.6"/>
   </g>
   <g id="patch_78">
    <path d="M 1065.488267 828.779375 
L 1077.611991 828.779375 
L 1077.611991 828.487041 
L 1065.488267 828.487041 
z
" clip-path="url(#pa3b676769f)" style="fill: #1f77b4; opacity: 0.6"/>
   </g>
   <g id="patch_79">
    <path d="M 1077.611991 828.779375 
L 1089.735716 828.779375 
L 1089.735716 828.487041 
L 1077.611991 828.487041 
z
" clip-path="url(#pa3b676769f)" style="fill: #1f77b4; opacity: 0.6"/>
   </g>
   <g id="patch_80">
    <path d="M 1089.735716 828.779375 
L 1101.85944 828.779375 
L 1101.85944 827.902374 
L 1089.735716 827.902374 
z
" clip-path="url(#pa3b676769f)" style="fill: #1f77b4; opacity: 0.6"/>
   </g>
   <g id="patch_81">
    <path d="M 1101.85944 828.779375 
L 1113.983165 828.779375 
L 1113.983165 827.902374 
L 1101.85944 827.902374 
z
" clip-path="url(#pa3b676769f)" style="fill: #1f77b4; opacity: 0.6"/>
   </g>
   <g id="patch_82">
    <path d="M 1113.983165 828.779375 
L 1126.106889 828.779375 
L 1126.106889 828.194708 
L 1113.983165 828.194708 
z
" clip-path="url(#pa3b676769f)" style="fill: #1f77b4; opacity: 0.6"/>
   </g>
   <g id="patch_83">
    <path d="M 1126.106889 828.779375 
L 1138.230614 828.779375 
L 1138.230614 828.194708 
L 1126.106889 828.194708 
z
" clip-path="url(#pa3b676769f)" style="fill: #1f77b4; opacity: 0.6"/>
   </g>
   <g id="patch_84">
    <path d="M 1138.230614 828.779375 
L 1150.354338 828.779375 
L 1150.354338 828.487041 
L 1138.230614 828.487041 
z
" clip-path="url(#pa3b676769f)" style="fill: #1f77b4; opacity: 0.6"/>
   </g>
   <g id="patch_85">
    <path d="M 1150.354338 828.779375 
L 1162.478063 828.779375 
L 1162.478063 828.779375 
L 1150.354338 828.779375 
z
" clip-path="url(#pa3b676769f)" style="fill: #1f77b4; opacity: 0.6"/>
   </g>
   <g id="patch_86">
    <path d="M 1162.478062 828.779375 
L 1174.601787 828.779375 
L 1174.601787 828.779375 
L 1162.478062 828.779375 
z
" clip-path="url(#pa3b676769f)" style="fill: #1f77b4; opacity: 0.6"/>
   </g>
   <g id="patch_87">
    <path d="M 1174.601787 828.779375 
L 1186.725511 828.779375 
L 1186.725511 828.779375 
L 1174.601787 828.779375 
z
" clip-path="url(#pa3b676769f)" style="fill: #1f77b4; opacity: 0.6"/>
   </g>
   <g id="patch_88">
    <path d="M 1186.725511 828.779375 
L 1198.849236 828.779375 
L 1198.849236 828.779375 
L 1186.725511 828.779375 
z
" clip-path="url(#pa3b676769f)" style="fill: #1f77b4; opacity: 0.6"/>
   </g>
   <g id="patch_89">
    <path d="M 1198.849236 828.779375 
L 1210.97296 828.779375 
L 1210.97296 828.487041 
L 1198.849236 828.487041 
z
" clip-path="url(#pa3b676769f)" style="fill: #1f77b4; opacity: 0.6"/>
   </g>
   <g id="patch_90">
    <path d="M 1210.97296 828.779375 
L 1223.096685 828.779375 
L 1223.096685 828.779375 
L 1210.97296 828.779375 
z
" clip-path="url(#pa3b676769f)" style="fill: #1f77b4; opacity: 0.6"/>
   </g>
   <g id="patch_91">
    <path d="M 1223.096685 828.779375 
L 1235.220409 828.779375 
L 1235.220409 828.779375 
L 1223.096685 828.779375 
z
" clip-path="url(#pa3b676769f)" style="fill: #1f77b4; opacity: 0.6"/>
   </g>
   <g id="patch_92">
    <path d="M 1235.220409 828.779375 
L 1247.344134 828.779375 
L 1247.344134 828.487041 
L 1235.220409 828.487041 
z
" clip-path="url(#pa3b676769f)" style="fill: #1f77b4; opacity: 0.6"/>
   </g>
   <g id="patch_93">
    <path d="M 1247.344134 828.779375 
L 1259.467858 828.779375 
L 1259.467858 828.779375 
L 1247.344134 828.779375 
z
" clip-path="url(#pa3b676769f)" style="fill: #1f77b4; opacity: 0.6"/>
   </g>
   <g id="patch_94">
    <path d="M 1259.467858 828.779375 
L 1271.591582 828.779375 
L 1271.591582 828.779375 
L 1259.467858 828.779375 
z
" clip-path="url(#pa3b676769f)" style="fill: #1f77b4; opacity: 0.6"/>
   </g>
   <g id="patch_95">
    <path d="M 1271.591582 828.779375 
L 1283.715307 828.779375 
L 1283.715307 828.779375 
L 1271.591582 828.779375 
z
" clip-path="url(#pa3b676769f)" style="fill: #1f77b4; opacity: 0.6"/>
   </g>
   <g id="patch_96">
    <path d="M 1283.715307 828.779375 
L 1295.839031 828.779375 
L 1295.839031 828.779375 
L 1283.715307 828.779375 
z
" clip-path="url(#pa3b676769f)" style="fill: #1f77b4; opacity: 0.6"/>
   </g>
   <g id="patch_97">
    <path d="M 1295.839031 828.779375 
L 1307.962756 828.779375 
L 1307.962756 828.779375 
L 1295.839031 828.779375 
z
" clip-path="url(#pa3b676769f)" style="fill: #1f77b4; opacity: 0.6"/>
   </g>
   <g id="patch_98">
    <path d="M 1307.962756 828.779375 
L 1320.08648 828.779375 
L 1320.08648 828.779375 
L 1307.962756 828.779375 
z
" clip-path="url(#pa3b676769f)" style="fill: #1f77b4; opacity: 0.6"/>
   </g>
   <g id="patch_99">
    <path d="M 1320.08648 828.779375 
L 1332.210205 828.779375 
L 1332.210205 828.779375 
L 1320.08648 828.779375 
z
" clip-path="url(#pa3b676769f)" style="fill: #1f77b4; opacity: 0.6"/>
   </g>
   <g id="patch_100">
    <path d="M 1332.210205 828.779375 
L 1344.333929 828.779375 
L 1344.333929 828.779375 
L 1332.210205 828.779375 
z
" clip-path="url(#pa3b676769f)" style="fill: #1f77b4; opacity: 0.6"/>
   </g>
   <g id="patch_101">
    <path d="M 1344.333929 828.779375 
L 1356.457653 828.779375 
L 1356.457653 828.779375 
L 1344.333929 828.779375 
z
" clip-path="url(#pa3b676769f)" style="fill: #1f77b4; opacity: 0.6"/>
   </g>
   <g id="patch_102">
    <path d="M 1356.457653 828.779375 
L 1368.581378 828.779375 
L 1368.581378 828.194708 
L 1356.457653 828.194708 
z
" clip-path="url(#pa3b676769f)" style="fill: #1f77b4; opacity: 0.6"/>
   </g>
   <g id="matplotlib.axis_1">
    <g id="xtick_1">
     <g id="line2d_1">
      <defs>
       <path id="m45439e089c" d="M 0 0 
L 0 3.5 
" style="stroke: #000000; stroke-width: 0.8"/>
      </defs>
      <g>
       <use xlink:href="#m45439e089c" x="156.128108" y="828.779375" style="stroke: #000000; stroke-width: 0.8"/>
      </g>
     </g>
     <g id="text_1">
      <!-- 0 -->
      <g transform="translate(150.401858 849.456563) scale(0.18 -0.18)">
       <defs>
        <path id="DejaVuSans-30" d="M 2034 4250 
Q 1547 4250 1301 3770 
Q 1056 3291 1056 2328 
Q 1056 1369 1301 889 
Q 1547 409 2034 409 
Q 2525 409 2770 889 
Q 3016 1369 3016 2328 
Q 3016 3291 2770 3770 
Q 2525 4250 2034 4250 
z
M 2034 4750 
Q 2819 4750 3233 4129 
Q 3647 3509 3647 2328 
Q 3647 1150 3233 529 
Q 2819 -91 2034 -91 
Q 1250 -91 836 529 
Q 422 1150 422 2328 
Q 422 3509 836 4129 
Q 1250 4750 2034 4750 
z
" transform="scale(0.015625)"/>
       </defs>
       <use xlink:href="#DejaVuSans-30"/>
      </g>
     </g>
    </g>
    <g id="xtick_2">
     <g id="line2d_2">
      <g>
       <use xlink:href="#m45439e089c" x="379.239527" y="828.779375" style="stroke: #000000; stroke-width: 0.8"/>
      </g>
     </g>
     <g id="text_2">
      <!-- 5 -->
      <g transform="translate(373.513277 849.456563) scale(0.18 -0.18)">
       <defs>
        <path id="DejaVuSans-35" d="M 691 4666 
L 3169 4666 
L 3169 4134 
L 1269 4134 
L 1269 2991 
Q 1406 3038 1543 3061 
Q 1681 3084 1819 3084 
Q 2600 3084 3056 2656 
Q 3513 2228 3513 1497 
Q 3513 744 3044 326 
Q 2575 -91 1722 -91 
Q 1428 -91 1123 -41 
Q 819 9 494 109 
L 494 744 
Q 775 591 1075 516 
Q 1375 441 1709 441 
Q 2250 441 2565 725 
Q 2881 1009 2881 1497 
Q 2881 1984 2565 2268 
Q 2250 2553 1709 2553 
Q 1456 2553 1204 2497 
Q 953 2441 691 2322 
L 691 4666 
z
" transform="scale(0.015625)"/>
       </defs>
       <use xlink:href="#DejaVuSans-35"/>
      </g>
     </g>
    </g>
    <g id="xtick_3">
     <g id="line2d_3">
      <g>
       <use xlink:href="#m45439e089c" x="602.350946" y="828.779375" style="stroke: #000000; stroke-width: 0.8"/>
      </g>
     </g>
     <g id="text_3">
      <!-- 10 -->
      <g transform="translate(590.898446 849.456563) scale(0.18 -0.18)">
       <defs>
        <path id="DejaVuSans-31" d="M 794 531 
L 1825 531 
L 1825 4091 
L 703 3866 
L 703 4441 
L 1819 4666 
L 2450 4666 
L 2450 531 
L 3481 531 
L 3481 0 
L 794 0 
L 794 531 
z
" transform="scale(0.015625)"/>
       </defs>
       <use xlink:href="#DejaVuSans-31"/>
       <use xlink:href="#DejaVuSans-30" x="63.623047"/>
      </g>
     </g>
    </g>
    <g id="xtick_4">
     <g id="line2d_4">
      <g>
       <use xlink:href="#m45439e089c" x="825.462365" y="828.779375" style="stroke: #000000; stroke-width: 0.8"/>
      </g>
     </g>
     <g id="text_4">
      <!-- 15 -->
      <g transform="translate(814.009865 849.456563) scale(0.18 -0.18)">
       <use xlink:href="#DejaVuSans-31"/>
       <use xlink:href="#DejaVuSans-35" x="63.623047"/>
      </g>
     </g>
    </g>
    <g id="xtick_5">
     <g id="line2d_5">
      <g>
       <use xlink:href="#m45439e089c" x="1048.573784" y="828.779375" style="stroke: #000000; stroke-width: 0.8"/>
      </g>
     </g>
     <g id="text_5">
      <!-- 20 -->
      <g transform="translate(1037.121284 849.456563) scale(0.18 -0.18)">
       <defs>
        <path id="DejaVuSans-32" d="M 1228 531 
L 3431 531 
L 3431 0 
L 469 0 
L 469 531 
Q 828 903 1448 1529 
Q 2069 2156 2228 2338 
Q 2531 2678 2651 2914 
Q 2772 3150 2772 3378 
Q 2772 3750 2511 3984 
Q 2250 4219 1831 4219 
Q 1534 4219 1204 4116 
Q 875 4013 500 3803 
L 500 4441 
Q 881 4594 1212 4672 
Q 1544 4750 1819 4750 
Q 2544 4750 2975 4387 
Q 3406 4025 3406 3419 
Q 3406 3131 3298 2873 
Q 3191 2616 2906 2266 
Q 2828 2175 2409 1742 
Q 1991 1309 1228 531 
z
" transform="scale(0.015625)"/>
       </defs>
       <use xlink:href="#DejaVuSans-32"/>
       <use xlink:href="#DejaVuSans-30" x="63.623047"/>
      </g>
     </g>
    </g>
    <g id="xtick_6">
     <g id="line2d_6">
      <g>
       <use xlink:href="#m45439e089c" x="1271.685203" y="828.779375" style="stroke: #000000; stroke-width: 0.8"/>
      </g>
     </g>
     <g id="text_6">
      <!-- 25 -->
      <g transform="translate(1260.232703 849.456563) scale(0.18 -0.18)">
       <use xlink:href="#DejaVuSans-32"/>
       <use xlink:href="#DejaVuSans-35" x="63.623047"/>
      </g>
     </g>
    </g>
   </g>
   <g id="matplotlib.axis_2">
    <g id="ytick_1">
     <g id="line2d_7">
      <defs>
       <path id="me9090c17d9" d="M 0 0 
L -3.5 0 
" style="stroke: #000000; stroke-width: 0.8"/>
      </defs>
      <g>
       <use xlink:href="#me9090c17d9" x="95.590313" y="828.779375" style="stroke: #000000; stroke-width: 0.8"/>
      </g>
     </g>
     <g id="text_7">
      <!-- 0.000 -->
      <g transform="translate(37.059688 835.617969) scale(0.18 -0.18)">
       <defs>
        <path id="DejaVuSans-2e" d="M 684 794 
L 1344 794 
L 1344 0 
L 684 0 
L 684 794 
z
" transform="scale(0.015625)"/>
       </defs>
       <use xlink:href="#DejaVuSans-30"/>
       <use xlink:href="#DejaVuSans-2e" x="63.623047"/>
       <use xlink:href="#DejaVuSans-30" x="95.410156"/>
       <use xlink:href="#DejaVuSans-30" x="159.033203"/>
       <use xlink:href="#DejaVuSans-30" x="222.65625"/>
      </g>
     </g>
    </g>
    <g id="ytick_2">
     <g id="line2d_8">
      <g>
       <use xlink:href="#me9090c17d9" x="95.590313" y="729.496827" style="stroke: #000000; stroke-width: 0.8"/>
      </g>
     </g>
     <g id="text_8">
      <!-- 0.025 -->
      <g transform="translate(37.059688 736.33542) scale(0.18 -0.18)">
       <use xlink:href="#DejaVuSans-30"/>
       <use xlink:href="#DejaVuSans-2e" x="63.623047"/>
       <use xlink:href="#DejaVuSans-30" x="95.410156"/>
       <use xlink:href="#DejaVuSans-32" x="159.033203"/>
       <use xlink:href="#DejaVuSans-35" x="222.65625"/>
      </g>
     </g>
    </g>
    <g id="ytick_3">
     <g id="line2d_9">
      <g>
       <use xlink:href="#me9090c17d9" x="95.590313" y="630.214278" style="stroke: #000000; stroke-width: 0.8"/>
      </g>
     </g>
     <g id="text_9">
      <!-- 0.050 -->
      <g transform="translate(37.059688 637.052872) scale(0.18 -0.18)">
       <use xlink:href="#DejaVuSans-30"/>
       <use xlink:href="#DejaVuSans-2e" x="63.623047"/>
       <use xlink:href="#DejaVuSans-30" x="95.410156"/>
       <use xlink:href="#DejaVuSans-35" x="159.033203"/>
       <use xlink:href="#DejaVuSans-30" x="222.65625"/>
      </g>
     </g>
    </g>
    <g id="ytick_4">
     <g id="line2d_10">
      <g>
       <use xlink:href="#me9090c17d9" x="95.590313" y="530.93173" style="stroke: #000000; stroke-width: 0.8"/>
      </g>
     </g>
     <g id="text_10">
      <!-- 0.075 -->
      <g transform="translate(37.059688 537.770324) scale(0.18 -0.18)">
       <defs>
        <path id="DejaVuSans-37" d="M 525 4666 
L 3525 4666 
L 3525 4397 
L 1831 0 
L 1172 0 
L 2766 4134 
L 525 4134 
L 525 4666 
z
" transform="scale(0.015625)"/>
       </defs>
       <use xlink:href="#DejaVuSans-30"/>
       <use xlink:href="#DejaVuSans-2e" x="63.623047"/>
       <use xlink:href="#DejaVuSans-30" x="95.410156"/>
       <use xlink:href="#DejaVuSans-37" x="159.033203"/>
       <use xlink:href="#DejaVuSans-35" x="222.65625"/>
      </g>
     </g>
    </g>
    <g id="ytick_5">
     <g id="line2d_11">
      <g>
       <use xlink:href="#me9090c17d9" x="95.590313" y="431.649182" style="stroke: #000000; stroke-width: 0.8"/>
      </g>
     </g>
     <g id="text_11">
      <!-- 0.100 -->
      <g transform="translate(37.059688 438.487775) scale(0.18 -0.18)">
       <use xlink:href="#DejaVuSans-30"/>
       <use xlink:href="#DejaVuSans-2e" x="63.623047"/>
       <use xlink:href="#DejaVuSans-31" x="95.410156"/>
       <use xlink:href="#DejaVuSans-30" x="159.033203"/>
       <use xlink:href="#DejaVuSans-30" x="222.65625"/>
      </g>
     </g>
    </g>
    <g id="ytick_6">
     <g id="line2d_12">
      <g>
       <use xlink:href="#me9090c17d9" x="95.590313" y="332.366633" style="stroke: #000000; stroke-width: 0.8"/>
      </g>
     </g>
     <g id="text_12">
      <!-- 0.125 -->
      <g transform="translate(37.059688 339.205227) scale(0.18 -0.18)">
       <use xlink:href="#DejaVuSans-30"/>
       <use xlink:href="#DejaVuSans-2e" x="63.623047"/>
       <use xlink:href="#DejaVuSans-31" x="95.410156"/>
       <use xlink:href="#DejaVuSans-32" x="159.033203"/>
       <use xlink:href="#DejaVuSans-35" x="222.65625"/>
      </g>
     </g>
    </g>
    <g id="ytick_7">
     <g id="line2d_13">
      <g>
       <use xlink:href="#me9090c17d9" x="95.590313" y="233.084085" style="stroke: #000000; stroke-width: 0.8"/>
      </g>
     </g>
     <g id="text_13">
      <!-- 0.150 -->
      <g transform="translate(37.059688 239.922679) scale(0.18 -0.18)">
       <use xlink:href="#DejaVuSans-30"/>
       <use xlink:href="#DejaVuSans-2e" x="63.623047"/>
       <use xlink:href="#DejaVuSans-31" x="95.410156"/>
       <use xlink:href="#DejaVuSans-35" x="159.033203"/>
       <use xlink:href="#DejaVuSans-30" x="222.65625"/>
      </g>
     </g>
    </g>
    <g id="ytick_8">
     <g id="line2d_14">
      <g>
       <use xlink:href="#me9090c17d9" x="95.590313" y="133.801537" style="stroke: #000000; stroke-width: 0.8"/>
      </g>
     </g>
     <g id="text_14">
      <!-- 0.175 -->
      <g transform="translate(37.059688 140.64013) scale(0.18 -0.18)">
       <use xlink:href="#DejaVuSans-30"/>
       <use xlink:href="#DejaVuSans-2e" x="63.623047"/>
       <use xlink:href="#DejaVuSans-31" x="95.410156"/>
       <use xlink:href="#DejaVuSans-37" x="159.033203"/>
       <use xlink:href="#DejaVuSans-35" x="222.65625"/>
      </g>
     </g>
    </g>
    <g id="text_15">
     <!-- Normed Hist Counts -->
     <g transform="translate(28.276406 548.966563) rotate(-90) scale(0.23 -0.23)">
      <defs>
       <path id="DejaVuSans-4e" d="M 628 4666 
L 1478 4666 
L 3547 763 
L 3547 4666 
L 4159 4666 
L 4159 0 
L 3309 0 
L 1241 3903 
L 1241 0 
L 628 0 
L 628 4666 
z
" transform="scale(0.015625)"/>
       <path id="DejaVuSans-6f" d="M 1959 3097 
Q 1497 3097 1228 2736 
Q 959 2375 959 1747 
Q 959 1119 1226 758 
Q 1494 397 1959 397 
Q 2419 397 2687 759 
Q 2956 1122 2956 1747 
Q 2956 2369 2687 2733 
Q 2419 3097 1959 3097 
z
M 1959 3584 
Q 2709 3584 3137 3096 
Q 3566 2609 3566 1747 
Q 3566 888 3137 398 
Q 2709 -91 1959 -91 
Q 1206 -91 779 398 
Q 353 888 353 1747 
Q 353 2609 779 3096 
Q 1206 3584 1959 3584 
z
" transform="scale(0.015625)"/>
       <path id="DejaVuSans-72" d="M 2631 2963 
Q 2534 3019 2420 3045 
Q 2306 3072 2169 3072 
Q 1681 3072 1420 2755 
Q 1159 2438 1159 1844 
L 1159 0 
L 581 0 
L 581 3500 
L 1159 3500 
L 1159 2956 
Q 1341 3275 1631 3429 
Q 1922 3584 2338 3584 
Q 2397 3584 2469 3576 
Q 2541 3569 2628 3553 
L 2631 2963 
z
" transform="scale(0.015625)"/>
       <path id="DejaVuSans-6d" d="M 3328 2828 
Q 3544 3216 3844 3400 
Q 4144 3584 4550 3584 
Q 5097 3584 5394 3201 
Q 5691 2819 5691 2113 
L 5691 0 
L 5113 0 
L 5113 2094 
Q 5113 2597 4934 2840 
Q 4756 3084 4391 3084 
Q 3944 3084 3684 2787 
Q 3425 2491 3425 1978 
L 3425 0 
L 2847 0 
L 2847 2094 
Q 2847 2600 2669 2842 
Q 2491 3084 2119 3084 
Q 1678 3084 1418 2786 
Q 1159 2488 1159 1978 
L 1159 0 
L 581 0 
L 581 3500 
L 1159 3500 
L 1159 2956 
Q 1356 3278 1631 3431 
Q 1906 3584 2284 3584 
Q 2666 3584 2933 3390 
Q 3200 3197 3328 2828 
z
" transform="scale(0.015625)"/>
       <path id="DejaVuSans-65" d="M 3597 1894 
L 3597 1613 
L 953 1613 
Q 991 1019 1311 708 
Q 1631 397 2203 397 
Q 2534 397 2845 478 
Q 3156 559 3463 722 
L 3463 178 
Q 3153 47 2828 -22 
Q 2503 -91 2169 -91 
Q 1331 -91 842 396 
Q 353 884 353 1716 
Q 353 2575 817 3079 
Q 1281 3584 2069 3584 
Q 2775 3584 3186 3129 
Q 3597 2675 3597 1894 
z
M 3022 2063 
Q 3016 2534 2758 2815 
Q 2500 3097 2075 3097 
Q 1594 3097 1305 2825 
Q 1016 2553 972 2059 
L 3022 2063 
z
" transform="scale(0.015625)"/>
       <path id="DejaVuSans-64" d="M 2906 2969 
L 2906 4863 
L 3481 4863 
L 3481 0 
L 2906 0 
L 2906 525 
Q 2725 213 2448 61 
Q 2172 -91 1784 -91 
Q 1150 -91 751 415 
Q 353 922 353 1747 
Q 353 2572 751 3078 
Q 1150 3584 1784 3584 
Q 2172 3584 2448 3432 
Q 2725 3281 2906 2969 
z
M 947 1747 
Q 947 1113 1208 752 
Q 1469 391 1925 391 
Q 2381 391 2643 752 
Q 2906 1113 2906 1747 
Q 2906 2381 2643 2742 
Q 2381 3103 1925 3103 
Q 1469 3103 1208 2742 
Q 947 2381 947 1747 
z
" transform="scale(0.015625)"/>
       <path id="DejaVuSans-20" transform="scale(0.015625)"/>
       <path id="DejaVuSans-48" d="M 628 4666 
L 1259 4666 
L 1259 2753 
L 3553 2753 
L 3553 4666 
L 4184 4666 
L 4184 0 
L 3553 0 
L 3553 2222 
L 1259 2222 
L 1259 0 
L 628 0 
L 628 4666 
z
" transform="scale(0.015625)"/>
       <path id="DejaVuSans-69" d="M 603 3500 
L 1178 3500 
L 1178 0 
L 603 0 
L 603 3500 
z
M 603 4863 
L 1178 4863 
L 1178 4134 
L 603 4134 
L 603 4863 
z
" transform="scale(0.015625)"/>
       <path id="DejaVuSans-73" d="M 2834 3397 
L 2834 2853 
Q 2591 2978 2328 3040 
Q 2066 3103 1784 3103 
Q 1356 3103 1142 2972 
Q 928 2841 928 2578 
Q 928 2378 1081 2264 
Q 1234 2150 1697 2047 
L 1894 2003 
Q 2506 1872 2764 1633 
Q 3022 1394 3022 966 
Q 3022 478 2636 193 
Q 2250 -91 1575 -91 
Q 1294 -91 989 -36 
Q 684 19 347 128 
L 347 722 
Q 666 556 975 473 
Q 1284 391 1588 391 
Q 1994 391 2212 530 
Q 2431 669 2431 922 
Q 2431 1156 2273 1281 
Q 2116 1406 1581 1522 
L 1381 1569 
Q 847 1681 609 1914 
Q 372 2147 372 2553 
Q 372 3047 722 3315 
Q 1072 3584 1716 3584 
Q 2034 3584 2315 3537 
Q 2597 3491 2834 3397 
z
" transform="scale(0.015625)"/>
       <path id="DejaVuSans-74" d="M 1172 4494 
L 1172 3500 
L 2356 3500 
L 2356 3053 
L 1172 3053 
L 1172 1153 
Q 1172 725 1289 603 
Q 1406 481 1766 481 
L 2356 481 
L 2356 0 
L 1766 0 
Q 1100 0 847 248 
Q 594 497 594 1153 
L 594 3053 
L 172 3053 
L 172 3500 
L 594 3500 
L 594 4494 
L 1172 4494 
z
" transform="scale(0.015625)"/>
       <path id="DejaVuSans-43" d="M 4122 4306 
L 4122 3641 
Q 3803 3938 3442 4084 
Q 3081 4231 2675 4231 
Q 1875 4231 1450 3742 
Q 1025 3253 1025 2328 
Q 1025 1406 1450 917 
Q 1875 428 2675 428 
Q 3081 428 3442 575 
Q 3803 722 4122 1019 
L 4122 359 
Q 3791 134 3420 21 
Q 3050 -91 2638 -91 
Q 1578 -91 968 557 
Q 359 1206 359 2328 
Q 359 3453 968 4101 
Q 1578 4750 2638 4750 
Q 3056 4750 3426 4639 
Q 3797 4528 4122 4306 
z
" transform="scale(0.015625)"/>
       <path id="DejaVuSans-75" d="M 544 1381 
L 544 3500 
L 1119 3500 
L 1119 1403 
Q 1119 906 1312 657 
Q 1506 409 1894 409 
Q 2359 409 2629 706 
Q 2900 1003 2900 1516 
L 2900 3500 
L 3475 3500 
L 3475 0 
L 2900 0 
L 2900 538 
Q 2691 219 2414 64 
Q 2138 -91 1772 -91 
Q 1169 -91 856 284 
Q 544 659 544 1381 
z
M 1991 3584 
L 1991 3584 
z
" transform="scale(0.015625)"/>
       <path id="DejaVuSans-6e" d="M 3513 2113 
L 3513 0 
L 2938 0 
L 2938 2094 
Q 2938 2591 2744 2837 
Q 2550 3084 2163 3084 
Q 1697 3084 1428 2787 
Q 1159 2491 1159 1978 
L 1159 0 
L 581 0 
L 581 3500 
L 1159 3500 
L 1159 2956 
Q 1366 3272 1645 3428 
Q 1925 3584 2291 3584 
Q 2894 3584 3203 3211 
Q 3513 2838 3513 2113 
z
" transform="scale(0.015625)"/>
      </defs>
      <use xlink:href="#DejaVuSans-4e"/>
      <use xlink:href="#DejaVuSans-6f" x="74.804688"/>
      <use xlink:href="#DejaVuSans-72" x="135.986328"/>
      <use xlink:href="#DejaVuSans-6d" x="175.349609"/>
      <use xlink:href="#DejaVuSans-65" x="272.761719"/>
      <use xlink:href="#DejaVuSans-64" x="334.285156"/>
      <use xlink:href="#DejaVuSans-20" x="397.761719"/>
      <use xlink:href="#DejaVuSans-48" x="429.548828"/>
      <use xlink:href="#DejaVuSans-69" x="504.744141"/>
      <use xlink:href="#DejaVuSans-73" x="532.527344"/>
      <use xlink:href="#DejaVuSans-74" x="584.626953"/>
      <use xlink:href="#DejaVuSans-20" x="623.835938"/>
      <use xlink:href="#DejaVuSans-43" x="655.623047"/>
      <use xlink:href="#DejaVuSans-6f" x="725.447266"/>
      <use xlink:href="#DejaVuSans-75" x="786.628906"/>
      <use xlink:href="#DejaVuSans-6e" x="850.007812"/>
      <use xlink:href="#DejaVuSans-74" x="913.386719"/>
      <use xlink:href="#DejaVuSans-73" x="952.595703"/>
     </g>
    </g>
   </g>
   <g id="line2d_15">
    <path d="M 257.159791 -1 
L 262.291523 58.133577 
L 268.353386 125.851257 
L 274.415248 190.946338 
L 280.47711 253.014604 
L 286.538972 311.736141 
L 292.600835 366.873172 
L 298.662697 418.266126 
L 304.724559 465.828265 
L 310.786421 509.53913 
L 316.848283 549.437162 
L 322.910146 585.611776 
L 328.972008 618.195196 
L 335.03387 647.354309 
L 341.095732 673.282769 
L 347.157594 696.193542 
L 353.219457 716.312051 
L 359.281319 733.870012 
L 365.343181 749.10006 
L 371.405043 762.231177 
L 377.466906 773.48493 
L 383.528768 783.072504 
L 389.59063 791.192472 
L 395.652492 798.029249 
L 401.714354 803.752144 
L 407.776217 808.514943 
L 413.838079 812.455923 
L 419.899941 815.698231 
L 425.961803 818.350541 
L 432.023665 820.507914 
L 438.085528 822.2528 
L 444.14739 823.65613 
L 450.209252 824.778437 
L 456.271114 825.670984 
L 462.332977 826.376858 
L 468.394839 826.932002 
L 480.518563 827.703894 
L 492.642288 828.166064 
L 510.827874 828.525289 
L 535.075323 828.706374 
L 583.570221 828.774672 
L 1068.519198 828.779375 
L 1365.550447 828.779375 
L 1365.550447 828.779375 
" clip-path="url(#pa3b676769f)" style="fill: none; stroke: #ff7f0e; stroke-width: 1.5; stroke-linecap: square"/>
   </g>
   <g id="line2d_16">
    <path d="M 159.239866 760.220879 
L 165.301728 645.842998 
L 171.36359 545.965904 
L 177.425452 459.557684 
L 183.487315 385.429695 
L 189.549177 322.422368 
L 195.611039 269.444973 
L 201.672901 225.485852 
L 207.734763 189.613305 
L 213.796626 160.972903 
L 219.858488 138.783349 
L 225.92035 122.331786 
L 231.982212 110.96898 
L 238.044075 104.104577 
L 244.105937 101.202554 
L 250.167799 101.776904 
L 256.229661 105.387577 
L 262.291523 111.636701 
L 268.353386 120.165049 
L 274.415248 130.648778 
L 280.47711 142.7964 
L 286.538972 156.345985 
L 292.600835 171.062585 
L 298.662697 186.735858 
L 304.724559 203.177879 
L 310.786421 220.221128 
L 322.910146 255.532327 
L 359.281319 363.510383 
L 371.405043 398.174683 
L 377.466906 415.032541 
L 383.528768 431.5312 
L 389.59063 447.645352 
L 395.652492 463.354538 
L 401.714354 478.642624 
L 407.776217 493.497323 
L 413.838079 507.909763 
L 419.899941 521.874093 
L 425.961803 535.387121 
L 432.023665 548.448 
L 438.085528 561.057928 
L 444.14739 573.219887 
L 450.209252 584.938404 
L 456.271114 596.219336 
L 462.332977 607.069677 
L 468.394839 617.497383 
L 474.456701 627.511217 
L 480.518563 637.120611 
L 486.580425 646.335535 
L 492.642288 655.166394 
L 498.70415 663.623921 
L 504.766012 671.719095 
L 510.827874 679.463058 
L 516.889737 686.86705 
L 522.951599 693.942348 
L 529.013461 700.70021 
L 535.075323 707.151834 
L 541.137185 713.30831 
L 547.199048 719.180596 
L 553.26091 724.779479 
L 559.322772 730.115553 
L 565.384634 735.199201 
L 571.446496 740.040574 
L 577.508359 744.649576 
L 583.570221 749.035856 
L 589.632083 753.208796 
L 595.693945 757.177507 
L 601.755808 760.95082 
L 607.81767 764.53729 
L 613.879532 767.945188 
L 619.941394 771.182505 
L 626.003256 774.256952 
L 632.065119 777.175962 
L 638.126981 779.946695 
L 644.188843 782.576039 
L 650.250705 785.070619 
L 656.312567 787.436796 
L 668.436292 791.80813 
L 680.560016 795.73596 
L 692.683741 799.262434 
L 704.807465 802.426148 
L 716.93119 805.262367 
L 729.054914 807.803247 
L 741.178638 810.07806 
L 753.302363 812.113405 
L 765.426087 813.933417 
L 777.549812 815.559961 
L 789.673536 817.012824 
L 807.859123 818.905098 
L 826.04471 820.499576 
L 844.230296 821.841748 
L 862.415883 822.970452 
L 886.663332 824.1998 
L 910.910781 825.172997 
L 935.158229 825.942342 
L 965.46754 826.680382 
L 1001.838714 827.319963 
L 1044.271749 827.826539 
L 1098.828509 828.230473 
L 1171.570856 828.517636 
L 1280.684376 828.694008 
L 1365.550447 828.743899 
L 1365.550447 828.743899 
" clip-path="url(#pa3b676769f)" style="fill: none; stroke: #2ca02c; stroke-width: 1.5; stroke-linecap: square"/>
   </g>
   <g id="line2d_17">
    <path d="M 159.239866 616.867728 
L 165.301728 602.452705 
L 171.36359 587.61405 
L 177.425452 572.394605 
L 189.549177 541.011959 
L 201.672901 508.754368 
L 225.92035 443.791343 
L 238.044075 412.32422 
L 244.105937 397.134998 
L 250.167799 382.42257 
L 256.229661 368.272139 
L 262.291523 354.76776 
L 268.353386 341.99152 
L 274.415248 330.022711 
L 280.47711 318.937016 
L 286.538972 308.805715 
L 292.600835 299.694922 
L 298.662697 291.664868 
L 304.724559 284.76924 
L 310.786421 279.054581 
L 316.848283 274.559769 
L 322.910146 271.315573 
L 328.972008 269.344309 
L 335.03387 268.659576 
L 341.095732 269.266107 
L 347.157594 271.15971 
L 353.219457 274.327318 
L 359.281319 278.747139 
L 365.343181 284.388906 
L 371.405043 291.21422 
L 377.466906 299.17699 
L 383.528768 308.223945 
L 389.59063 318.295232 
L 395.652492 329.325074 
L 401.714354 341.242482 
L 407.776217 353.972019 
L 413.838079 367.434587 
L 419.899941 381.548246 
L 425.961803 396.229036 
L 432.023665 411.391801 
L 438.085528 426.951001 
L 450.209252 458.919305 
L 480.518563 540.044977 
L 492.642288 571.461153 
L 498.70415 586.702175 
L 504.766012 601.565179 
L 510.827874 616.006991 
L 516.889737 629.989946 
L 522.951599 643.481885 
L 529.013461 656.45607 
L 535.075323 668.891063 
L 541.137185 680.770537 
L 547.199048 692.083061 
L 553.26091 702.82183 
L 559.322772 712.984378 
L 565.384634 722.572255 
L 571.446496 731.590693 
L 577.508359 740.048252 
L 583.570221 747.956463 
L 589.632083 755.329471 
L 595.693945 762.183673 
L 601.755808 768.537374 
L 607.81767 774.410442 
L 613.879532 779.823992 
L 619.941394 784.800074 
L 626.003256 789.36139 
L 632.065119 793.531029 
L 638.126981 797.332225 
L 644.188843 800.788139 
L 650.250705 803.921668 
L 656.312567 806.755268 
L 662.37443 809.310818 
L 668.436292 811.609488 
L 674.498154 813.671641 
L 680.560016 815.51675 
L 686.621879 817.163342 
L 692.683741 818.628945 
L 698.745603 819.930069 
L 704.807465 821.082184 
L 710.869327 822.099728 
L 722.993052 823.78374 
L 735.116776 825.077508 
L 747.240501 826.06141 
L 759.364225 826.802133 
L 771.48795 827.354199 
L 789.673536 827.922202 
L 807.859123 828.27442 
L 832.106572 828.537937 
L 868.477745 828.704887 
L 947.281954 828.774992 
L 1365.550447 828.779375 
L 1365.550447 828.779375 
" clip-path="url(#pa3b676769f)" style="fill: none; stroke: #d62728; stroke-width: 1.5; stroke-linecap: square"/>
   </g>
   <g id="patch_103">
    <path d="M 95.590313 828.779375 
L 95.590313 38.075625 
" style="fill: none; stroke: #000000; stroke-width: 0.8; stroke-linejoin: miter; stroke-linecap: square"/>
   </g>
   <g id="patch_104">
    <path d="M 1429.2 828.779375 
L 1429.2 38.075625 
" style="fill: none; stroke: #000000; stroke-width: 0.8; stroke-linejoin: miter; stroke-linecap: square"/>
   </g>
   <g id="patch_105">
    <path d="M 95.590313 828.779375 
L 1429.2 828.779375 
" style="fill: none; stroke: #000000; stroke-width: 0.8; stroke-linejoin: miter; stroke-linecap: square"/>
   </g>
   <g id="patch_106">
    <path d="M 95.590313 38.075625 
L 1429.2 38.075625 
" style="fill: none; stroke: #000000; stroke-width: 0.8; stroke-linejoin: miter; stroke-linecap: square"/>
   </g>
   <g id="text_16">
    <!-- All Fitted Distributions -->
    <g transform="translate(607.769531 32.075625) scale(0.28 -0.28)">
     <defs>
      <path id="DejaVuSans-41" d="M 2188 4044 
L 1331 1722 
L 3047 1722 
L 2188 4044 
z
M 1831 4666 
L 2547 4666 
L 4325 0 
L 3669 0 
L 3244 1197 
L 1141 1197 
L 716 0 
L 50 0 
L 1831 4666 
z
" transform="scale(0.015625)"/>
      <path id="DejaVuSans-6c" d="M 603 4863 
L 1178 4863 
L 1178 0 
L 603 0 
L 603 4863 
z
" transform="scale(0.015625)"/>
      <path id="DejaVuSans-46" d="M 628 4666 
L 3309 4666 
L 3309 4134 
L 1259 4134 
L 1259 2759 
L 3109 2759 
L 3109 2228 
L 1259 2228 
L 1259 0 
L 628 0 
L 628 4666 
z
" transform="scale(0.015625)"/>
      <path id="DejaVuSans-44" d="M 1259 4147 
L 1259 519 
L 2022 519 
Q 2988 519 3436 956 
Q 3884 1394 3884 2338 
Q 3884 3275 3436 3711 
Q 2988 4147 2022 4147 
L 1259 4147 
z
M 628 4666 
L 1925 4666 
Q 3281 4666 3915 4102 
Q 4550 3538 4550 2338 
Q 4550 1131 3912 565 
Q 3275 0 1925 0 
L 628 0 
L 628 4666 
z
" transform="scale(0.015625)"/>
      <path id="DejaVuSans-62" d="M 3116 1747 
Q 3116 2381 2855 2742 
Q 2594 3103 2138 3103 
Q 1681 3103 1420 2742 
Q 1159 2381 1159 1747 
Q 1159 1113 1420 752 
Q 1681 391 2138 391 
Q 2594 391 2855 752 
Q 3116 1113 3116 1747 
z
M 1159 2969 
Q 1341 3281 1617 3432 
Q 1894 3584 2278 3584 
Q 2916 3584 3314 3078 
Q 3713 2572 3713 1747 
Q 3713 922 3314 415 
Q 2916 -91 2278 -91 
Q 1894 -91 1617 61 
Q 1341 213 1159 525 
L 1159 0 
L 581 0 
L 581 4863 
L 1159 4863 
L 1159 2969 
z
" transform="scale(0.015625)"/>
     </defs>
     <use xlink:href="#DejaVuSans-41"/>
     <use xlink:href="#DejaVuSans-6c" x="68.408203"/>
     <use xlink:href="#DejaVuSans-6c" x="96.191406"/>
     <use xlink:href="#DejaVuSans-20" x="123.974609"/>
     <use xlink:href="#DejaVuSans-46" x="155.761719"/>
     <use xlink:href="#DejaVuSans-69" x="206.03125"/>
     <use xlink:href="#DejaVuSans-74" x="233.814453"/>
     <use xlink:href="#DejaVuSans-74" x="273.023438"/>
     <use xlink:href="#DejaVuSans-65" x="312.232422"/>
     <use xlink:href="#DejaVuSans-64" x="373.755859"/>
     <use xlink:href="#DejaVuSans-20" x="437.232422"/>
     <use xlink:href="#DejaVuSans-44" x="469.019531"/>
     <use xlink:href="#DejaVuSans-69" x="546.021484"/>
     <use xlink:href="#DejaVuSans-73" x="573.804688"/>
     <use xlink:href="#DejaVuSans-74" x="625.904297"/>
     <use xlink:href="#DejaVuSans-72" x="665.113281"/>
     <use xlink:href="#DejaVuSans-69" x="706.226562"/>
     <use xlink:href="#DejaVuSans-62" x="734.009766"/>
     <use xlink:href="#DejaVuSans-75" x="797.486328"/>
     <use xlink:href="#DejaVuSans-74" x="860.865234"/>
     <use xlink:href="#DejaVuSans-69" x="900.074219"/>
     <use xlink:href="#DejaVuSans-6f" x="927.857422"/>
     <use xlink:href="#DejaVuSans-6e" x="989.039062"/>
     <use xlink:href="#DejaVuSans-73" x="1052.417969"/>
    </g>
   </g>
   <g id="legend_1">
    <g id="patch_107">
     <path d="M 1060.635 198.185625 
L 1412.4 198.185625 
Q 1417.2 198.185625 1417.2 193.385625 
L 1417.2 54.875625 
Q 1417.2 50.075625 1412.4 50.075625 
L 1060.635 50.075625 
Q 1055.835 50.075625 1055.835 54.875625 
L 1055.835 193.385625 
Q 1055.835 198.185625 1060.635 198.185625 
z
" style="fill: #ffffff; opacity: 0.8; stroke: #cccccc; stroke-linejoin: miter"/>
    </g>
    <g id="patch_108">
     <path d="M 1065.435 77.911875 
L 1113.435 77.911875 
L 1113.435 61.111875 
L 1065.435 61.111875 
z
" style="fill: #1f77b4; opacity: 0.6"/>
    </g>
    <g id="text_17">
     <!-- Generated Distribution -->
     <g transform="translate(1132.635 77.911875) scale(0.24 -0.24)">
      <defs>
       <path id="DejaVuSans-47" d="M 3809 666 
L 3809 1919 
L 2778 1919 
L 2778 2438 
L 4434 2438 
L 4434 434 
Q 4069 175 3628 42 
Q 3188 -91 2688 -91 
Q 1594 -91 976 548 
Q 359 1188 359 2328 
Q 359 3472 976 4111 
Q 1594 4750 2688 4750 
Q 3144 4750 3555 4637 
Q 3966 4525 4313 4306 
L 4313 3634 
Q 3963 3931 3569 4081 
Q 3175 4231 2741 4231 
Q 1884 4231 1454 3753 
Q 1025 3275 1025 2328 
Q 1025 1384 1454 906 
Q 1884 428 2741 428 
Q 3075 428 3337 486 
Q 3600 544 3809 666 
z
" transform="scale(0.015625)"/>
       <path id="DejaVuSans-61" d="M 2194 1759 
Q 1497 1759 1228 1600 
Q 959 1441 959 1056 
Q 959 750 1161 570 
Q 1363 391 1709 391 
Q 2188 391 2477 730 
Q 2766 1069 2766 1631 
L 2766 1759 
L 2194 1759 
z
M 3341 1997 
L 3341 0 
L 2766 0 
L 2766 531 
Q 2569 213 2275 61 
Q 1981 -91 1556 -91 
Q 1019 -91 701 211 
Q 384 513 384 1019 
Q 384 1609 779 1909 
Q 1175 2209 1959 2209 
L 2766 2209 
L 2766 2266 
Q 2766 2663 2505 2880 
Q 2244 3097 1772 3097 
Q 1472 3097 1187 3025 
Q 903 2953 641 2809 
L 641 3341 
Q 956 3463 1253 3523 
Q 1550 3584 1831 3584 
Q 2591 3584 2966 3190 
Q 3341 2797 3341 1997 
z
" transform="scale(0.015625)"/>
      </defs>
      <use xlink:href="#DejaVuSans-47"/>
      <use xlink:href="#DejaVuSans-65" x="77.490234"/>
      <use xlink:href="#DejaVuSans-6e" x="139.013672"/>
      <use xlink:href="#DejaVuSans-65" x="202.392578"/>
      <use xlink:href="#DejaVuSans-72" x="263.916016"/>
      <use xlink:href="#DejaVuSans-61" x="305.029297"/>
      <use xlink:href="#DejaVuSans-74" x="366.308594"/>
      <use xlink:href="#DejaVuSans-65" x="405.517578"/>
      <use xlink:href="#DejaVuSans-64" x="467.041016"/>
      <use xlink:href="#DejaVuSans-20" x="530.517578"/>
      <use xlink:href="#DejaVuSans-44" x="562.304688"/>
      <use xlink:href="#DejaVuSans-69" x="639.306641"/>
      <use xlink:href="#DejaVuSans-73" x="667.089844"/>
      <use xlink:href="#DejaVuSans-74" x="719.189453"/>
      <use xlink:href="#DejaVuSans-72" x="758.398438"/>
      <use xlink:href="#DejaVuSans-69" x="799.511719"/>
      <use xlink:href="#DejaVuSans-62" x="827.294922"/>
      <use xlink:href="#DejaVuSans-75" x="890.771484"/>
      <use xlink:href="#DejaVuSans-74" x="954.150391"/>
      <use xlink:href="#DejaVuSans-69" x="993.359375"/>
      <use xlink:href="#DejaVuSans-6f" x="1021.142578"/>
      <use xlink:href="#DejaVuSans-6e" x="1082.324219"/>
     </g>
    </g>
    <g id="line2d_18">
     <path d="M 1065.435 104.739375 
L 1089.435 104.739375 
L 1113.435 104.739375 
" style="fill: none; stroke: #ff7f0e; stroke-width: 1.5; stroke-linecap: square"/>
    </g>
    <g id="text_18">
     <!-- Chi fit -->
     <g transform="translate(1132.635 113.139375) scale(0.24 -0.24)">
      <defs>
       <path id="DejaVuSans-68" d="M 3513 2113 
L 3513 0 
L 2938 0 
L 2938 2094 
Q 2938 2591 2744 2837 
Q 2550 3084 2163 3084 
Q 1697 3084 1428 2787 
Q 1159 2491 1159 1978 
L 1159 0 
L 581 0 
L 581 4863 
L 1159 4863 
L 1159 2956 
Q 1366 3272 1645 3428 
Q 1925 3584 2291 3584 
Q 2894 3584 3203 3211 
Q 3513 2838 3513 2113 
z
" transform="scale(0.015625)"/>
       <path id="DejaVuSans-66" d="M 2375 4863 
L 2375 4384 
L 1825 4384 
Q 1516 4384 1395 4259 
Q 1275 4134 1275 3809 
L 1275 3500 
L 2222 3500 
L 2222 3053 
L 1275 3053 
L 1275 0 
L 697 0 
L 697 3053 
L 147 3053 
L 147 3500 
L 697 3500 
L 697 3744 
Q 697 4328 969 4595 
Q 1241 4863 1831 4863 
L 2375 4863 
z
" transform="scale(0.015625)"/>
      </defs>
      <use xlink:href="#DejaVuSans-43"/>
      <use xlink:href="#DejaVuSans-68" x="69.824219"/>
      <use xlink:href="#DejaVuSans-69" x="133.203125"/>
      <use xlink:href="#DejaVuSans-20" x="160.986328"/>
      <use xlink:href="#DejaVuSans-66" x="192.773438"/>
      <use xlink:href="#DejaVuSans-69" x="227.978516"/>
      <use xlink:href="#DejaVuSans-74" x="255.761719"/>
     </g>
    </g>
    <g id="line2d_19">
     <path d="M 1065.435 139.966875 
L 1089.435 139.966875 
L 1113.435 139.966875 
" style="fill: none; stroke: #2ca02c; stroke-width: 1.5; stroke-linecap: square"/>
    </g>
    <g id="text_19">
     <!-- ChiSquared fit -->
     <g transform="translate(1132.635 148.366875) scale(0.24 -0.24)">
      <defs>
       <path id="DejaVuSans-53" d="M 3425 4513 
L 3425 3897 
Q 3066 4069 2747 4153 
Q 2428 4238 2131 4238 
Q 1616 4238 1336 4038 
Q 1056 3838 1056 3469 
Q 1056 3159 1242 3001 
Q 1428 2844 1947 2747 
L 2328 2669 
Q 3034 2534 3370 2195 
Q 3706 1856 3706 1288 
Q 3706 609 3251 259 
Q 2797 -91 1919 -91 
Q 1588 -91 1214 -16 
Q 841 59 441 206 
L 441 856 
Q 825 641 1194 531 
Q 1563 422 1919 422 
Q 2459 422 2753 634 
Q 3047 847 3047 1241 
Q 3047 1584 2836 1778 
Q 2625 1972 2144 2069 
L 1759 2144 
Q 1053 2284 737 2584 
Q 422 2884 422 3419 
Q 422 4038 858 4394 
Q 1294 4750 2059 4750 
Q 2388 4750 2728 4690 
Q 3069 4631 3425 4513 
z
" transform="scale(0.015625)"/>
       <path id="DejaVuSans-71" d="M 947 1747 
Q 947 1113 1208 752 
Q 1469 391 1925 391 
Q 2381 391 2643 752 
Q 2906 1113 2906 1747 
Q 2906 2381 2643 2742 
Q 2381 3103 1925 3103 
Q 1469 3103 1208 2742 
Q 947 2381 947 1747 
z
M 2906 525 
Q 2725 213 2448 61 
Q 2172 -91 1784 -91 
Q 1150 -91 751 415 
Q 353 922 353 1747 
Q 353 2572 751 3078 
Q 1150 3584 1784 3584 
Q 2172 3584 2448 3432 
Q 2725 3281 2906 2969 
L 2906 3500 
L 3481 3500 
L 3481 -1331 
L 2906 -1331 
L 2906 525 
z
" transform="scale(0.015625)"/>
      </defs>
      <use xlink:href="#DejaVuSans-43"/>
      <use xlink:href="#DejaVuSans-68" x="69.824219"/>
      <use xlink:href="#DejaVuSans-69" x="133.203125"/>
      <use xlink:href="#DejaVuSans-53" x="160.986328"/>
      <use xlink:href="#DejaVuSans-71" x="224.462891"/>
      <use xlink:href="#DejaVuSans-75" x="287.939453"/>
      <use xlink:href="#DejaVuSans-61" x="351.318359"/>
      <use xlink:href="#DejaVuSans-72" x="412.597656"/>
      <use xlink:href="#DejaVuSans-65" x="451.460938"/>
      <use xlink:href="#DejaVuSans-64" x="512.984375"/>
      <use xlink:href="#DejaVuSans-20" x="576.460938"/>
      <use xlink:href="#DejaVuSans-66" x="608.248047"/>
      <use xlink:href="#DejaVuSans-69" x="643.453125"/>
      <use xlink:href="#DejaVuSans-74" x="671.236328"/>
     </g>
    </g>
    <g id="line2d_20">
     <path d="M 1065.435 175.194375 
L 1089.435 175.194375 
L 1113.435 175.194375 
" style="fill: none; stroke: #d62728; stroke-width: 1.5; stroke-linecap: square"/>
    </g>
    <g id="text_20">
     <!-- Normal fit -->
     <g transform="translate(1132.635 183.594375) scale(0.24 -0.24)">
      <use xlink:href="#DejaVuSans-4e"/>
      <use xlink:href="#DejaVuSans-6f" x="74.804688"/>
      <use xlink:href="#DejaVuSans-72" x="135.986328"/>
      <use xlink:href="#DejaVuSans-6d" x="175.349609"/>
      <use xlink:href="#DejaVuSans-61" x="272.761719"/>
      <use xlink:href="#DejaVuSans-6c" x="334.041016"/>
      <use xlink:href="#DejaVuSans-20" x="361.824219"/>
      <use xlink:href="#DejaVuSans-66" x="393.611328"/>
      <use xlink:href="#DejaVuSans-69" x="428.816406"/>
      <use xlink:href="#DejaVuSans-74" x="456.599609"/>
     </g>
    </g>
   </g>
  </g>
 </g>
 <defs>
  <clipPath id="pa3b676769f">
   <rect x="95.590313" y="38.075625" width="1333.609688" height="790.70375"/>
  </clipPath>
 </defs>
</svg>
