<?xml version="1.0" encoding="utf-8" standalone="no"?>
<!DOCTYPE svg PUBLIC "-//W3C//DTD SVG 1.1//EN"
  "http://www.w3.org/Graphics/SVG/1.1/DTD/svg11.dtd">
<svg xmlns:xlink="http://www.w3.org/1999/xlink" width="1440pt" height="864pt" viewBox="0 0 1440 864" xmlns="http://www.w3.org/2000/svg" version="1.1">
 <metadata>
  <rdf:RDF xmlns:dc="http://purl.org/dc/elements/1.1/" xmlns:cc="http://creativecommons.org/ns#" xmlns:rdf="http://www.w3.org/1999/02/22-rdf-syntax-ns#">
   <cc:Work>
    <dc:type rdf:resource="http://purl.org/dc/dcmitype/StillImage"/>
    <dc:date>2022-02-22T17:06:09.137035</dc:date>
    <dc:format>image/svg+xml</dc:format>
    <dc:creator>
     <cc:Agent>
      <dc:title>Matplotlib v3.5.1, https://matplotlib.org/</dc:title>
     </cc:Agent>
    </dc:creator>
   </cc:Work>
  </rdf:RDF>
 </metadata>
 <defs>
  <style type="text/css">*{stroke-linejoin: round; stroke-linecap: butt}</style>
 </defs>
 <g id="figure_1">
  <g id="patch_1">
   <path d="M 0 864 
L 1440 864 
L 1440 0 
L 0 0 
z
" style="fill: #ffffff"/>
  </g>
  <g id="axes_1">
   <g id="patch_2">
    <path d="M 72.685313 828.779375 
L 1429.2 828.779375 
L 1429.2 38.075625 
L 72.685313 38.075625 
z
" style="fill: #ffffff"/>
   </g>
   <g id="patch_3">
    <path d="M 134.345071 828.779375 
L 146.677023 828.779375 
L 146.677023 827.346811 
L 134.345071 827.346811 
z
" clip-path="url(#pd5c2ea5f27)" style="fill: #1f77b4; opacity: 0.6"/>
   </g>
   <g id="patch_4">
    <path d="M 146.677023 828.779375 
L 159.008974 828.779375 
L 159.008974 826.86929 
L 146.677023 826.86929 
z
" clip-path="url(#pd5c2ea5f27)" style="fill: #1f77b4; opacity: 0.6"/>
   </g>
   <g id="patch_5">
    <path d="M 159.008974 828.779375 
L 171.340926 828.779375 
L 171.340926 820.661512 
L 159.008974 820.661512 
z
" clip-path="url(#pd5c2ea5f27)" style="fill: #1f77b4; opacity: 0.6"/>
   </g>
   <g id="patch_6">
    <path d="M 171.340926 828.779375 
L 183.672878 828.779375 
L 183.672878 817.318862 
L 171.340926 817.318862 
z
" clip-path="url(#pd5c2ea5f27)" style="fill: #1f77b4; opacity: 0.6"/>
   </g>
   <g id="patch_7">
    <path d="M 183.672878 828.779375 
L 196.00483 828.779375 
L 196.00483 814.931255 
L 183.672878 814.931255 
z
" clip-path="url(#pd5c2ea5f27)" style="fill: #1f77b4; opacity: 0.6"/>
   </g>
   <g id="patch_8">
    <path d="M 196.00483 828.779375 
L 208.336781 828.779375 
L 208.336781 792.965273 
L 196.00483 792.965273 
z
" clip-path="url(#pd5c2ea5f27)" style="fill: #1f77b4; opacity: 0.6"/>
   </g>
   <g id="patch_9">
    <path d="M 208.336781 828.779375 
L 220.668733 828.779375 
L 220.668733 781.027239 
L 208.336781 781.027239 
z
" clip-path="url(#pd5c2ea5f27)" style="fill: #1f77b4; opacity: 0.6"/>
   </g>
   <g id="patch_10">
    <path d="M 220.668733 828.779375 
L 233.000685 828.779375 
L 233.000685 766.224076 
L 220.668733 766.224076 
z
" clip-path="url(#pd5c2ea5f27)" style="fill: #1f77b4; opacity: 0.6"/>
   </g>
   <g id="patch_11">
    <path d="M 233.000685 828.779375 
L 245.332636 828.779375 
L 245.332636 738.527837 
L 233.000685 738.527837 
z
" clip-path="url(#pd5c2ea5f27)" style="fill: #1f77b4; opacity: 0.6"/>
   </g>
   <g id="patch_12">
    <path d="M 245.332636 828.779375 
L 257.664588 828.779375 
L 257.664588 728.97741 
L 245.332636 728.97741 
z
" clip-path="url(#pd5c2ea5f27)" style="fill: #1f77b4; opacity: 0.6"/>
   </g>
   <g id="patch_13">
    <path d="M 257.664588 828.779375 
L 269.99654 828.779375 
L 269.99654 685.522966 
L 257.664588 685.522966 
z
" clip-path="url(#pd5c2ea5f27)" style="fill: #1f77b4; opacity: 0.6"/>
   </g>
   <g id="patch_14">
    <path d="M 269.99654 828.779375 
L 282.328491 828.779375 
L 282.328491 664.034505 
L 269.99654 664.034505 
z
" clip-path="url(#pd5c2ea5f27)" style="fill: #1f77b4; opacity: 0.6"/>
   </g>
   <g id="patch_15">
    <path d="M 282.328491 828.779375 
L 294.660443 828.779375 
L 294.660443 643.501086 
L 282.328491 643.501086 
z
" clip-path="url(#pd5c2ea5f27)" style="fill: #1f77b4; opacity: 0.6"/>
   </g>
   <g id="patch_16">
    <path d="M 294.660443 828.779375 
L 306.992395 828.779375 
L 306.992395 598.136556 
L 294.660443 598.136556 
z
" clip-path="url(#pd5c2ea5f27)" style="fill: #1f77b4; opacity: 0.6"/>
   </g>
   <g id="patch_17">
    <path d="M 306.992395 828.779375 
L 319.324347 828.779375 
L 319.324347 567.097668 
L 306.992395 567.097668 
z
" clip-path="url(#pd5c2ea5f27)" style="fill: #1f77b4; opacity: 0.6"/>
   </g>
   <g id="patch_18">
    <path d="M 319.324347 828.779375 
L 331.656298 828.779375 
L 331.656298 542.266557 
L 319.324347 542.266557 
z
" clip-path="url(#pd5c2ea5f27)" style="fill: #1f77b4; opacity: 0.6"/>
   </g>
   <g id="patch_19">
    <path d="M 331.656298 828.779375 
L 343.98825 828.779375 
L 343.98825 495.946985 
L 331.656298 495.946985 
z
" clip-path="url(#pd5c2ea5f27)" style="fill: #1f77b4; opacity: 0.6"/>
   </g>
   <g id="patch_20">
    <path d="M 343.98825 828.779375 
L 356.320202 828.779375 
L 356.320202 446.762284 
L 343.98825 446.762284 
z
" clip-path="url(#pd5c2ea5f27)" style="fill: #1f77b4; opacity: 0.6"/>
   </g>
   <g id="patch_21">
    <path d="M 356.320202 828.779375 
L 368.652153 828.779375 
L 368.652153 383.251943 
L 356.320202 383.251943 
z
" clip-path="url(#pd5c2ea5f27)" style="fill: #1f77b4; opacity: 0.6"/>
   </g>
   <g id="patch_22">
    <path d="M 368.652153 828.779375 
L 380.984105 828.779375 
L 380.984105 334.544764 
L 368.652153 334.544764 
z
" clip-path="url(#pd5c2ea5f27)" style="fill: #1f77b4; opacity: 0.6"/>
   </g>
   <g id="patch_23">
    <path d="M 380.984105 828.779375 
L 393.316057 828.779375 
L 393.316057 336.93237 
L 380.984105 336.93237 
z
" clip-path="url(#pd5c2ea5f27)" style="fill: #1f77b4; opacity: 0.6"/>
   </g>
   <g id="patch_24">
    <path d="M 393.316057 828.779375 
L 405.648009 828.779375 
L 405.648009 289.180234 
L 393.316057 289.180234 
z
" clip-path="url(#pd5c2ea5f27)" style="fill: #1f77b4; opacity: 0.6"/>
   </g>
   <g id="patch_25">
    <path d="M 405.648009 828.779375 
L 417.97996 828.779375 
L 417.97996 243.815705 
L 405.648009 243.815705 
z
" clip-path="url(#pd5c2ea5f27)" style="fill: #1f77b4; opacity: 0.6"/>
   </g>
   <g id="patch_26">
    <path d="M 417.97996 828.779375 
L 430.311912 828.779375 
L 430.311912 239.040491 
L 417.97996 239.040491 
z
" clip-path="url(#pd5c2ea5f27)" style="fill: #1f77b4; opacity: 0.6"/>
   </g>
   <g id="patch_27">
    <path d="M 430.311912 828.779375 
L 442.643864 828.779375 
L 442.643864 180.305363 
L 430.311912 180.305363 
z
" clip-path="url(#pd5c2ea5f27)" style="fill: #1f77b4; opacity: 0.6"/>
   </g>
   <g id="patch_28">
    <path d="M 442.643864 828.779375 
L 454.975815 828.779375 
L 454.975815 153.086645 
L 442.643864 153.086645 
z
" clip-path="url(#pd5c2ea5f27)" style="fill: #1f77b4; opacity: 0.6"/>
   </g>
   <g id="patch_29">
    <path d="M 454.975815 828.779375 
L 467.307767 828.779375 
L 467.307767 163.114594 
L 454.975815 163.114594 
z
" clip-path="url(#pd5c2ea5f27)" style="fill: #1f77b4; opacity: 0.6"/>
   </g>
   <g id="patch_30">
    <path d="M 467.307767 828.779375 
L 479.639719 828.779375 
L 479.639719 129.210577 
L 467.307767 129.210577 
z
" clip-path="url(#pd5c2ea5f27)" style="fill: #1f77b4; opacity: 0.6"/>
   </g>
   <g id="patch_31">
    <path d="M 479.639719 828.779375 
L 491.97167 828.779375 
L 491.97167 137.805962 
L 479.639719 137.805962 
z
" clip-path="url(#pd5c2ea5f27)" style="fill: #1f77b4; opacity: 0.6"/>
   </g>
   <g id="patch_32">
    <path d="M 491.97167 828.779375 
L 504.303622 828.779375 
L 504.303622 107.722116 
L 491.97167 107.722116 
z
" clip-path="url(#pd5c2ea5f27)" style="fill: #1f77b4; opacity: 0.6"/>
   </g>
   <g id="patch_33">
    <path d="M 504.303622 828.779375 
L 516.635574 828.779375 
L 516.635574 100.559295 
L 504.303622 100.559295 
z
" clip-path="url(#pd5c2ea5f27)" style="fill: #1f77b4; opacity: 0.6"/>
   </g>
   <g id="patch_34">
    <path d="M 516.635574 828.779375 
L 528.967526 828.779375 
L 528.967526 109.632201 
L 516.635574 109.632201 
z
" clip-path="url(#pd5c2ea5f27)" style="fill: #1f77b4; opacity: 0.6"/>
   </g>
   <g id="patch_35">
    <path d="M 528.967526 828.779375 
L 541.299477 828.779375 
L 541.299477 75.728185 
L 528.967526 75.728185 
z
" clip-path="url(#pd5c2ea5f27)" style="fill: #1f77b4; opacity: 0.6"/>
   </g>
   <g id="patch_36">
    <path d="M 541.299477 828.779375 
L 553.631429 828.779375 
L 553.631429 108.199637 
L 541.299477 108.199637 
z
" clip-path="url(#pd5c2ea5f27)" style="fill: #1f77b4; opacity: 0.6"/>
   </g>
   <g id="patch_37">
    <path d="M 553.631429 828.779375 
L 565.963381 828.779375 
L 565.963381 120.615193 
L 553.631429 120.615193 
z
" clip-path="url(#pd5c2ea5f27)" style="fill: #1f77b4; opacity: 0.6"/>
   </g>
   <g id="patch_38">
    <path d="M 565.963381 828.779375 
L 578.295332 828.779375 
L 578.295332 127.778013 
L 565.963381 127.778013 
z
" clip-path="url(#pd5c2ea5f27)" style="fill: #1f77b4; opacity: 0.6"/>
   </g>
   <g id="patch_39">
    <path d="M 578.295332 828.779375 
L 590.627284 828.779375 
L 590.627284 118.227586 
L 578.295332 118.227586 
z
" clip-path="url(#pd5c2ea5f27)" style="fill: #1f77b4; opacity: 0.6"/>
   </g>
   <g id="patch_40">
    <path d="M 590.627284 828.779375 
L 602.959236 828.779375 
L 602.959236 170.754936 
L 590.627284 170.754936 
z
" clip-path="url(#pd5c2ea5f27)" style="fill: #1f77b4; opacity: 0.6"/>
   </g>
   <g id="patch_41">
    <path d="M 602.959236 828.779375 
L 615.291187 828.779375 
L 615.291187 166.457244 
L 602.959236 166.457244 
z
" clip-path="url(#pd5c2ea5f27)" style="fill: #1f77b4; opacity: 0.6"/>
   </g>
   <g id="patch_42">
    <path d="M 615.291188 828.779375 
L 627.623139 828.779375 
L 627.623139 232.832713 
L 615.291188 232.832713 
z
" clip-path="url(#pd5c2ea5f27)" style="fill: #1f77b4; opacity: 0.6"/>
   </g>
   <g id="patch_43">
    <path d="M 627.623139 828.779375 
L 639.955091 828.779375 
L 639.955091 232.832713 
L 627.623139 232.832713 
z
" clip-path="url(#pd5c2ea5f27)" style="fill: #1f77b4; opacity: 0.6"/>
   </g>
   <g id="patch_44">
    <path d="M 639.955091 828.779375 
L 652.287043 828.779375 
L 652.287043 270.07938 
L 639.955091 270.07938 
z
" clip-path="url(#pd5c2ea5f27)" style="fill: #1f77b4; opacity: 0.6"/>
   </g>
   <g id="patch_45">
    <path d="M 652.287043 828.779375 
L 664.618994 828.779375 
L 664.618994 291.567841 
L 652.287043 291.567841 
z
" clip-path="url(#pd5c2ea5f27)" style="fill: #1f77b4; opacity: 0.6"/>
   </g>
   <g id="patch_46">
    <path d="M 664.618994 828.779375 
L 676.950946 828.779375 
L 676.950946 338.364935 
L 664.618994 338.364935 
z
" clip-path="url(#pd5c2ea5f27)" style="fill: #1f77b4; opacity: 0.6"/>
   </g>
   <g id="patch_47">
    <path d="M 676.950946 828.779375 
L 689.282898 828.779375 
L 689.282898 382.2969 
L 676.950946 382.2969 
z
" clip-path="url(#pd5c2ea5f27)" style="fill: #1f77b4; opacity: 0.6"/>
   </g>
   <g id="patch_48">
    <path d="M 689.282898 828.779375 
L 701.614849 828.779375 
L 701.614849 369.403823 
L 689.282898 369.403823 
z
" clip-path="url(#pd5c2ea5f27)" style="fill: #1f77b4; opacity: 0.6"/>
   </g>
   <g id="patch_49">
    <path d="M 701.614849 828.779375 
L 713.946801 828.779375 
L 713.946801 423.841259 
L 701.614849 423.841259 
z
" clip-path="url(#pd5c2ea5f27)" style="fill: #1f77b4; opacity: 0.6"/>
   </g>
   <g id="patch_50">
    <path d="M 713.946801 828.779375 
L 726.278753 828.779375 
L 726.278753 431.959122 
L 713.946801 431.959122 
z
" clip-path="url(#pd5c2ea5f27)" style="fill: #1f77b4; opacity: 0.6"/>
   </g>
   <g id="patch_51">
    <path d="M 726.278753 828.779375 
L 738.610705 828.779375 
L 738.610705 472.070916 
L 726.278753 472.070916 
z
" clip-path="url(#pd5c2ea5f27)" style="fill: #1f77b4; opacity: 0.6"/>
   </g>
   <g id="patch_52">
    <path d="M 738.610705 828.779375 
L 750.942656 828.779375 
L 750.942656 487.3516 
L 738.610705 487.3516 
z
" clip-path="url(#pd5c2ea5f27)" style="fill: #1f77b4; opacity: 0.6"/>
   </g>
   <g id="patch_53">
    <path d="M 750.942656 828.779375 
L 763.274608 828.779375 
L 763.274608 519.823053 
L 750.942656 519.823053 
z
" clip-path="url(#pd5c2ea5f27)" style="fill: #1f77b4; opacity: 0.6"/>
   </g>
   <g id="patch_54">
    <path d="M 763.274608 828.779375 
L 775.60656 828.779375 
L 775.60656 549.429377 
L 763.274608 549.429377 
z
" clip-path="url(#pd5c2ea5f27)" style="fill: #1f77b4; opacity: 0.6"/>
   </g>
   <g id="patch_55">
    <path d="M 775.60656 828.779375 
L 787.938511 828.779375 
L 787.938511 574.260488 
L 775.60656 574.260488 
z
" clip-path="url(#pd5c2ea5f27)" style="fill: #1f77b4; opacity: 0.6"/>
   </g>
   <g id="patch_56">
    <path d="M 787.938511 828.779375 
L 800.270463 828.779375 
L 800.270463 604.821855 
L 787.938511 604.821855 
z
" clip-path="url(#pd5c2ea5f27)" style="fill: #1f77b4; opacity: 0.6"/>
   </g>
   <g id="patch_57">
    <path d="M 800.270463 828.779375 
L 812.602415 828.779375 
L 812.602415 613.894761 
L 800.270463 613.894761 
z
" clip-path="url(#pd5c2ea5f27)" style="fill: #1f77b4; opacity: 0.6"/>
   </g>
   <g id="patch_58">
    <path d="M 812.602415 828.779375 
L 824.934366 828.779375 
L 824.934366 643.023565 
L 812.602415 643.023565 
z
" clip-path="url(#pd5c2ea5f27)" style="fill: #1f77b4; opacity: 0.6"/>
   </g>
   <g id="patch_59">
    <path d="M 824.934366 828.779375 
L 837.266318 828.779375 
L 837.266318 674.062453 
L 824.934366 674.062453 
z
" clip-path="url(#pd5c2ea5f27)" style="fill: #1f77b4; opacity: 0.6"/>
   </g>
   <g id="patch_60">
    <path d="M 837.266318 828.779375 
L 849.59827 828.779375 
L 849.59827 677.405103 
L 837.266318 677.405103 
z
" clip-path="url(#pd5c2ea5f27)" style="fill: #1f77b4; opacity: 0.6"/>
   </g>
   <g id="patch_61">
    <path d="M 849.59827 828.779375 
L 861.930222 828.779375 
L 861.930222 695.073393 
L 849.59827 695.073393 
z
" clip-path="url(#pd5c2ea5f27)" style="fill: #1f77b4; opacity: 0.6"/>
   </g>
   <g id="patch_62">
    <path d="M 861.930222 828.779375 
L 874.262173 828.779375 
L 874.262173 715.606812 
L 861.930222 715.606812 
z
" clip-path="url(#pd5c2ea5f27)" style="fill: #1f77b4; opacity: 0.6"/>
   </g>
   <g id="patch_63">
    <path d="M 874.262173 828.779375 
L 886.594125 828.779375 
L 886.594125 737.572795 
L 874.262173 737.572795 
z
" clip-path="url(#pd5c2ea5f27)" style="fill: #1f77b4; opacity: 0.6"/>
   </g>
   <g id="patch_64">
    <path d="M 886.594125 828.779375 
L 898.926077 828.779375 
L 898.926077 752.853478 
L 886.594125 752.853478 
z
" clip-path="url(#pd5c2ea5f27)" style="fill: #1f77b4; opacity: 0.6"/>
   </g>
   <g id="patch_65">
    <path d="M 898.926077 828.779375 
L 911.258028 828.779375 
L 911.258028 754.763564 
L 898.926077 754.763564 
z
" clip-path="url(#pd5c2ea5f27)" style="fill: #1f77b4; opacity: 0.6"/>
   </g>
   <g id="patch_66">
    <path d="M 911.258028 828.779375 
L 923.58998 828.779375 
L 923.58998 763.83647 
L 911.258028 763.83647 
z
" clip-path="url(#pd5c2ea5f27)" style="fill: #1f77b4; opacity: 0.6"/>
   </g>
   <g id="patch_67">
    <path d="M 923.58998 828.779375 
L 935.921932 828.779375 
L 935.921932 762.881427 
L 923.58998 762.881427 
z
" clip-path="url(#pd5c2ea5f27)" style="fill: #1f77b4; opacity: 0.6"/>
   </g>
   <g id="patch_68">
    <path d="M 935.921932 828.779375 
L 948.253884 828.779375 
L 948.253884 777.684589 
L 935.921932 777.684589 
z
" clip-path="url(#pd5c2ea5f27)" style="fill: #1f77b4; opacity: 0.6"/>
   </g>
   <g id="patch_69">
    <path d="M 948.253884 828.779375 
L 960.585835 828.779375 
L 960.585835 781.982281 
L 948.253884 781.982281 
z
" clip-path="url(#pd5c2ea5f27)" style="fill: #1f77b4; opacity: 0.6"/>
   </g>
   <g id="patch_70">
    <path d="M 960.585835 828.779375 
L 972.917787 828.779375 
L 972.917787 795.830401 
L 960.585835 795.830401 
z
" clip-path="url(#pd5c2ea5f27)" style="fill: #1f77b4; opacity: 0.6"/>
   </g>
   <g id="patch_71">
    <path d="M 972.917787 828.779375 
L 985.249739 828.779375 
L 985.249739 790.100145 
L 972.917787 790.100145 
z
" clip-path="url(#pd5c2ea5f27)" style="fill: #1f77b4; opacity: 0.6"/>
   </g>
   <g id="patch_72">
    <path d="M 985.249739 828.779375 
L 997.58169 828.779375 
L 997.58169 801.560657 
L 985.249739 801.560657 
z
" clip-path="url(#pd5c2ea5f27)" style="fill: #1f77b4; opacity: 0.6"/>
   </g>
   <g id="patch_73">
    <path d="M 997.58169 828.779375 
L 1009.913642 828.779375 
L 1009.913642 805.85835 
L 997.58169 805.85835 
z
" clip-path="url(#pd5c2ea5f27)" style="fill: #1f77b4; opacity: 0.6"/>
   </g>
   <g id="patch_74">
    <path d="M 1009.913642 828.779375 
L 1022.245594 828.779375 
L 1022.245594 811.111085 
L 1009.913642 811.111085 
z
" clip-path="url(#pd5c2ea5f27)" style="fill: #1f77b4; opacity: 0.6"/>
   </g>
   <g id="patch_75">
    <path d="M 1022.245594 828.779375 
L 1034.577545 828.779375 
L 1034.577545 813.498691 
L 1022.245594 813.498691 
z
" clip-path="url(#pd5c2ea5f27)" style="fill: #1f77b4; opacity: 0.6"/>
   </g>
   <g id="patch_76">
    <path d="M 1034.577545 828.779375 
L 1046.909497 828.779375 
L 1046.909497 816.36382 
L 1034.577545 816.36382 
z
" clip-path="url(#pd5c2ea5f27)" style="fill: #1f77b4; opacity: 0.6"/>
   </g>
   <g id="patch_77">
    <path d="M 1046.909497 828.779375 
L 1059.241449 828.779375 
L 1059.241449 817.318862 
L 1046.909497 817.318862 
z
" clip-path="url(#pd5c2ea5f27)" style="fill: #1f77b4; opacity: 0.6"/>
   </g>
   <g id="patch_78">
    <path d="M 1059.241449 828.779375 
L 1071.573401 828.779375 
L 1071.573401 819.706469 
L 1059.241449 819.706469 
z
" clip-path="url(#pd5c2ea5f27)" style="fill: #1f77b4; opacity: 0.6"/>
   </g>
   <g id="patch_79">
    <path d="M 1071.573401 828.779375 
L 1083.905352 828.779375 
L 1083.905352 824.004161 
L 1071.573401 824.004161 
z
" clip-path="url(#pd5c2ea5f27)" style="fill: #1f77b4; opacity: 0.6"/>
   </g>
   <g id="patch_80">
    <path d="M 1083.905352 828.779375 
L 1096.237304 828.779375 
L 1096.237304 818.751426 
L 1083.905352 818.751426 
z
" clip-path="url(#pd5c2ea5f27)" style="fill: #1f77b4; opacity: 0.6"/>
   </g>
   <g id="patch_81">
    <path d="M 1096.237304 828.779375 
L 1108.569256 828.779375 
L 1108.569256 824.004161 
L 1096.237304 824.004161 
z
" clip-path="url(#pd5c2ea5f27)" style="fill: #1f77b4; opacity: 0.6"/>
   </g>
   <g id="patch_82">
    <path d="M 1108.569256 828.779375 
L 1120.901207 828.779375 
L 1120.901207 824.004161 
L 1108.569256 824.004161 
z
" clip-path="url(#pd5c2ea5f27)" style="fill: #1f77b4; opacity: 0.6"/>
   </g>
   <g id="patch_83">
    <path d="M 1120.901207 828.779375 
L 1133.233159 828.779375 
L 1133.233159 826.86929 
L 1120.901207 826.86929 
z
" clip-path="url(#pd5c2ea5f27)" style="fill: #1f77b4; opacity: 0.6"/>
   </g>
   <g id="patch_84">
    <path d="M 1133.233159 828.779375 
L 1145.565111 828.779375 
L 1145.565111 827.824332 
L 1133.233159 827.824332 
z
" clip-path="url(#pd5c2ea5f27)" style="fill: #1f77b4; opacity: 0.6"/>
   </g>
   <g id="patch_85">
    <path d="M 1145.565111 828.779375 
L 1157.897063 828.779375 
L 1157.897063 826.391768 
L 1145.565111 826.391768 
z
" clip-path="url(#pd5c2ea5f27)" style="fill: #1f77b4; opacity: 0.6"/>
   </g>
   <g id="patch_86">
    <path d="M 1157.897062 828.779375 
L 1170.229014 828.779375 
L 1170.229014 824.959204 
L 1157.897062 824.959204 
z
" clip-path="url(#pd5c2ea5f27)" style="fill: #1f77b4; opacity: 0.6"/>
   </g>
   <g id="patch_87">
    <path d="M 1170.229014 828.779375 
L 1182.560966 828.779375 
L 1182.560966 826.391768 
L 1170.229014 826.391768 
z
" clip-path="url(#pd5c2ea5f27)" style="fill: #1f77b4; opacity: 0.6"/>
   </g>
   <g id="patch_88">
    <path d="M 1182.560966 828.779375 
L 1194.892918 828.779375 
L 1194.892918 826.86929 
L 1182.560966 826.86929 
z
" clip-path="url(#pd5c2ea5f27)" style="fill: #1f77b4; opacity: 0.6"/>
   </g>
   <g id="patch_89">
    <path d="M 1194.892918 828.779375 
L 1207.224869 828.779375 
L 1207.224869 827.346811 
L 1194.892918 827.346811 
z
" clip-path="url(#pd5c2ea5f27)" style="fill: #1f77b4; opacity: 0.6"/>
   </g>
   <g id="patch_90">
    <path d="M 1207.224869 828.779375 
L 1219.556821 828.779375 
L 1219.556821 827.346811 
L 1207.224869 827.346811 
z
" clip-path="url(#pd5c2ea5f27)" style="fill: #1f77b4; opacity: 0.6"/>
   </g>
   <g id="patch_91">
    <path d="M 1219.556821 828.779375 
L 1231.888773 828.779375 
L 1231.888773 828.301854 
L 1219.556821 828.301854 
z
" clip-path="url(#pd5c2ea5f27)" style="fill: #1f77b4; opacity: 0.6"/>
   </g>
   <g id="patch_92">
    <path d="M 1231.888773 828.779375 
L 1244.220724 828.779375 
L 1244.220724 827.346811 
L 1231.888773 827.346811 
z
" clip-path="url(#pd5c2ea5f27)" style="fill: #1f77b4; opacity: 0.6"/>
   </g>
   <g id="patch_93">
    <path d="M 1244.220724 828.779375 
L 1256.552676 828.779375 
L 1256.552676 827.346811 
L 1244.220724 827.346811 
z
" clip-path="url(#pd5c2ea5f27)" style="fill: #1f77b4; opacity: 0.6"/>
   </g>
   <g id="patch_94">
    <path d="M 1256.552676 828.779375 
L 1268.884628 828.779375 
L 1268.884628 828.779375 
L 1256.552676 828.779375 
z
" clip-path="url(#pd5c2ea5f27)" style="fill: #1f77b4; opacity: 0.6"/>
   </g>
   <g id="patch_95">
    <path d="M 1268.884628 828.779375 
L 1281.21658 828.779375 
L 1281.21658 828.779375 
L 1268.884628 828.779375 
z
" clip-path="url(#pd5c2ea5f27)" style="fill: #1f77b4; opacity: 0.6"/>
   </g>
   <g id="patch_96">
    <path d="M 1281.21658 828.779375 
L 1293.548531 828.779375 
L 1293.548531 828.779375 
L 1281.21658 828.779375 
z
" clip-path="url(#pd5c2ea5f27)" style="fill: #1f77b4; opacity: 0.6"/>
   </g>
   <g id="patch_97">
    <path d="M 1293.548531 828.779375 
L 1305.880483 828.779375 
L 1305.880483 828.779375 
L 1293.548531 828.779375 
z
" clip-path="url(#pd5c2ea5f27)" style="fill: #1f77b4; opacity: 0.6"/>
   </g>
   <g id="patch_98">
    <path d="M 1305.880483 828.779375 
L 1318.212435 828.779375 
L 1318.212435 828.779375 
L 1305.880483 828.779375 
z
" clip-path="url(#pd5c2ea5f27)" style="fill: #1f77b4; opacity: 0.6"/>
   </g>
   <g id="patch_99">
    <path d="M 1318.212435 828.779375 
L 1330.544386 828.779375 
L 1330.544386 827.346811 
L 1318.212435 827.346811 
z
" clip-path="url(#pd5c2ea5f27)" style="fill: #1f77b4; opacity: 0.6"/>
   </g>
   <g id="patch_100">
    <path d="M 1330.544386 828.779375 
L 1342.876338 828.779375 
L 1342.876338 828.779375 
L 1330.544386 828.779375 
z
" clip-path="url(#pd5c2ea5f27)" style="fill: #1f77b4; opacity: 0.6"/>
   </g>
   <g id="patch_101">
    <path d="M 1342.876338 828.779375 
L 1355.20829 828.779375 
L 1355.20829 828.779375 
L 1342.876338 828.779375 
z
" clip-path="url(#pd5c2ea5f27)" style="fill: #1f77b4; opacity: 0.6"/>
   </g>
   <g id="patch_102">
    <path d="M 1355.20829 828.779375 
L 1367.540241 828.779375 
L 1367.540241 828.301854 
L 1355.20829 828.301854 
z
" clip-path="url(#pd5c2ea5f27)" style="fill: #1f77b4; opacity: 0.6"/>
   </g>
   <g id="matplotlib.axis_1">
    <g id="xtick_1">
     <g id="line2d_1">
      <defs>
       <path id="m558b73359a" d="M 0 0 
L 0 3.5 
" style="stroke: #000000; stroke-width: 0.8"/>
      </defs>
      <g>
       <use xlink:href="#m558b73359a" x="114.793468" y="828.779375" style="stroke: #000000; stroke-width: 0.8"/>
      </g>
     </g>
     <g id="text_1">
      <!-- 0 -->
      <g transform="translate(109.067218 849.456562)scale(0.18 -0.18)">
       <defs>
        <path id="DejaVuSans-30" d="M 2034 4250 
Q 1547 4250 1301 3770 
Q 1056 3291 1056 2328 
Q 1056 1369 1301 889 
Q 1547 409 2034 409 
Q 2525 409 2770 889 
Q 3016 1369 3016 2328 
Q 3016 3291 2770 3770 
Q 2525 4250 2034 4250 
z
M 2034 4750 
Q 2819 4750 3233 4129 
Q 3647 3509 3647 2328 
Q 3647 1150 3233 529 
Q 2819 -91 2034 -91 
Q 1250 -91 836 529 
Q 422 1150 422 2328 
Q 422 3509 836 4129 
Q 1250 4750 2034 4750 
z
" transform="scale(0.015625)"/>
       </defs>
       <use xlink:href="#DejaVuSans-30"/>
      </g>
     </g>
    </g>
    <g id="xtick_2">
     <g id="line2d_2">
      <g>
       <use xlink:href="#m558b73359a" x="348.911005" y="828.779375" style="stroke: #000000; stroke-width: 0.8"/>
      </g>
     </g>
     <g id="text_2">
      <!-- 1 -->
      <g transform="translate(343.184755 849.456562)scale(0.18 -0.18)">
       <defs>
        <path id="DejaVuSans-31" d="M 794 531 
L 1825 531 
L 1825 4091 
L 703 3866 
L 703 4441 
L 1819 4666 
L 2450 4666 
L 2450 531 
L 3481 531 
L 3481 0 
L 794 0 
L 794 531 
z
" transform="scale(0.015625)"/>
       </defs>
       <use xlink:href="#DejaVuSans-31"/>
      </g>
     </g>
    </g>
    <g id="xtick_3">
     <g id="line2d_3">
      <g>
       <use xlink:href="#m558b73359a" x="583.028543" y="828.779375" style="stroke: #000000; stroke-width: 0.8"/>
      </g>
     </g>
     <g id="text_3">
      <!-- 2 -->
      <g transform="translate(577.302293 849.456562)scale(0.18 -0.18)">
       <defs>
        <path id="DejaVuSans-32" d="M 1228 531 
L 3431 531 
L 3431 0 
L 469 0 
L 469 531 
Q 828 903 1448 1529 
Q 2069 2156 2228 2338 
Q 2531 2678 2651 2914 
Q 2772 3150 2772 3378 
Q 2772 3750 2511 3984 
Q 2250 4219 1831 4219 
Q 1534 4219 1204 4116 
Q 875 4013 500 3803 
L 500 4441 
Q 881 4594 1212 4672 
Q 1544 4750 1819 4750 
Q 2544 4750 2975 4387 
Q 3406 4025 3406 3419 
Q 3406 3131 3298 2873 
Q 3191 2616 2906 2266 
Q 2828 2175 2409 1742 
Q 1991 1309 1228 531 
z
" transform="scale(0.015625)"/>
       </defs>
       <use xlink:href="#DejaVuSans-32"/>
      </g>
     </g>
    </g>
    <g id="xtick_4">
     <g id="line2d_4">
      <g>
       <use xlink:href="#m558b73359a" x="817.14608" y="828.779375" style="stroke: #000000; stroke-width: 0.8"/>
      </g>
     </g>
     <g id="text_4">
      <!-- 3 -->
      <g transform="translate(811.41983 849.456562)scale(0.18 -0.18)">
       <defs>
        <path id="DejaVuSans-33" d="M 2597 2516 
Q 3050 2419 3304 2112 
Q 3559 1806 3559 1356 
Q 3559 666 3084 287 
Q 2609 -91 1734 -91 
Q 1441 -91 1130 -33 
Q 819 25 488 141 
L 488 750 
Q 750 597 1062 519 
Q 1375 441 1716 441 
Q 2309 441 2620 675 
Q 2931 909 2931 1356 
Q 2931 1769 2642 2001 
Q 2353 2234 1838 2234 
L 1294 2234 
L 1294 2753 
L 1863 2753 
Q 2328 2753 2575 2939 
Q 2822 3125 2822 3475 
Q 2822 3834 2567 4026 
Q 2313 4219 1838 4219 
Q 1578 4219 1281 4162 
Q 984 4106 628 3988 
L 628 4550 
Q 988 4650 1302 4700 
Q 1616 4750 1894 4750 
Q 2613 4750 3031 4423 
Q 3450 4097 3450 3541 
Q 3450 3153 3228 2886 
Q 3006 2619 2597 2516 
z
" transform="scale(0.015625)"/>
       </defs>
       <use xlink:href="#DejaVuSans-33"/>
      </g>
     </g>
    </g>
    <g id="xtick_5">
     <g id="line2d_5">
      <g>
       <use xlink:href="#m558b73359a" x="1051.263617" y="828.779375" style="stroke: #000000; stroke-width: 0.8"/>
      </g>
     </g>
     <g id="text_5">
      <!-- 4 -->
      <g transform="translate(1045.537367 849.456562)scale(0.18 -0.18)">
       <defs>
        <path id="DejaVuSans-34" d="M 2419 4116 
L 825 1625 
L 2419 1625 
L 2419 4116 
z
M 2253 4666 
L 3047 4666 
L 3047 1625 
L 3713 1625 
L 3713 1100 
L 3047 1100 
L 3047 0 
L 2419 0 
L 2419 1100 
L 313 1100 
L 313 1709 
L 2253 4666 
z
" transform="scale(0.015625)"/>
       </defs>
       <use xlink:href="#DejaVuSans-34"/>
      </g>
     </g>
    </g>
    <g id="xtick_6">
     <g id="line2d_6">
      <g>
       <use xlink:href="#m558b73359a" x="1285.381155" y="828.779375" style="stroke: #000000; stroke-width: 0.8"/>
      </g>
     </g>
     <g id="text_6">
      <!-- 5 -->
      <g transform="translate(1279.654905 849.456562)scale(0.18 -0.18)">
       <defs>
        <path id="DejaVuSans-35" d="M 691 4666 
L 3169 4666 
L 3169 4134 
L 1269 4134 
L 1269 2991 
Q 1406 3038 1543 3061 
Q 1681 3084 1819 3084 
Q 2600 3084 3056 2656 
Q 3513 2228 3513 1497 
Q 3513 744 3044 326 
Q 2575 -91 1722 -91 
Q 1428 -91 1123 -41 
Q 819 9 494 109 
L 494 744 
Q 775 591 1075 516 
Q 1375 441 1709 441 
Q 2250 441 2565 725 
Q 2881 1009 2881 1497 
Q 2881 1984 2565 2268 
Q 2250 2553 1709 2553 
Q 1456 2553 1204 2497 
Q 953 2441 691 2322 
L 691 4666 
z
" transform="scale(0.015625)"/>
       </defs>
       <use xlink:href="#DejaVuSans-35"/>
      </g>
     </g>
    </g>
   </g>
   <g id="matplotlib.axis_2">
    <g id="ytick_1">
     <g id="line2d_7">
      <defs>
       <path id="m0d205e85aa" d="M 0 0 
L -3.5 0 
" style="stroke: #000000; stroke-width: 0.8"/>
      </defs>
      <g>
       <use xlink:href="#m0d205e85aa" x="72.685313" y="828.779375" style="stroke: #000000; stroke-width: 0.8"/>
      </g>
     </g>
     <g id="text_7">
      <!-- 0.0 -->
      <g transform="translate(37.059688 835.617969)scale(0.18 -0.18)">
       <defs>
        <path id="DejaVuSans-2e" d="M 684 794 
L 1344 794 
L 1344 0 
L 684 0 
L 684 794 
z
" transform="scale(0.015625)"/>
       </defs>
       <use xlink:href="#DejaVuSans-30"/>
       <use xlink:href="#DejaVuSans-2e" x="63.623047"/>
       <use xlink:href="#DejaVuSans-30" x="95.410156"/>
      </g>
     </g>
    </g>
    <g id="ytick_2">
     <g id="line2d_8">
      <g>
       <use xlink:href="#m0d205e85aa" x="72.685313" y="703.014119" style="stroke: #000000; stroke-width: 0.8"/>
      </g>
     </g>
     <g id="text_8">
      <!-- 0.1 -->
      <g transform="translate(37.059688 709.852713)scale(0.18 -0.18)">
       <use xlink:href="#DejaVuSans-30"/>
       <use xlink:href="#DejaVuSans-2e" x="63.623047"/>
       <use xlink:href="#DejaVuSans-31" x="95.410156"/>
      </g>
     </g>
    </g>
    <g id="ytick_3">
     <g id="line2d_9">
      <g>
       <use xlink:href="#m0d205e85aa" x="72.685313" y="577.248863" style="stroke: #000000; stroke-width: 0.8"/>
      </g>
     </g>
     <g id="text_9">
      <!-- 0.2 -->
      <g transform="translate(37.059688 584.087457)scale(0.18 -0.18)">
       <use xlink:href="#DejaVuSans-30"/>
       <use xlink:href="#DejaVuSans-2e" x="63.623047"/>
       <use xlink:href="#DejaVuSans-32" x="95.410156"/>
      </g>
     </g>
    </g>
    <g id="ytick_4">
     <g id="line2d_10">
      <g>
       <use xlink:href="#m0d205e85aa" x="72.685313" y="451.483608" style="stroke: #000000; stroke-width: 0.8"/>
      </g>
     </g>
     <g id="text_10">
      <!-- 0.3 -->
      <g transform="translate(37.059688 458.322201)scale(0.18 -0.18)">
       <use xlink:href="#DejaVuSans-30"/>
       <use xlink:href="#DejaVuSans-2e" x="63.623047"/>
       <use xlink:href="#DejaVuSans-33" x="95.410156"/>
      </g>
     </g>
    </g>
    <g id="ytick_5">
     <g id="line2d_11">
      <g>
       <use xlink:href="#m0d205e85aa" x="72.685313" y="325.718352" style="stroke: #000000; stroke-width: 0.8"/>
      </g>
     </g>
     <g id="text_11">
      <!-- 0.4 -->
      <g transform="translate(37.059688 332.556946)scale(0.18 -0.18)">
       <use xlink:href="#DejaVuSans-30"/>
       <use xlink:href="#DejaVuSans-2e" x="63.623047"/>
       <use xlink:href="#DejaVuSans-34" x="95.410156"/>
      </g>
     </g>
    </g>
    <g id="ytick_6">
     <g id="line2d_12">
      <g>
       <use xlink:href="#m0d205e85aa" x="72.685313" y="199.953096" style="stroke: #000000; stroke-width: 0.8"/>
      </g>
     </g>
     <g id="text_12">
      <!-- 0.5 -->
      <g transform="translate(37.059688 206.79169)scale(0.18 -0.18)">
       <use xlink:href="#DejaVuSans-30"/>
       <use xlink:href="#DejaVuSans-2e" x="63.623047"/>
       <use xlink:href="#DejaVuSans-35" x="95.410156"/>
      </g>
     </g>
    </g>
    <g id="ytick_7">
     <g id="line2d_13">
      <g>
       <use xlink:href="#m0d205e85aa" x="72.685313" y="74.18784" style="stroke: #000000; stroke-width: 0.8"/>
      </g>
     </g>
     <g id="text_13">
      <!-- 0.6 -->
      <g transform="translate(37.059688 81.026434)scale(0.18 -0.18)">
       <defs>
        <path id="DejaVuSans-36" d="M 2113 2584 
Q 1688 2584 1439 2293 
Q 1191 2003 1191 1497 
Q 1191 994 1439 701 
Q 1688 409 2113 409 
Q 2538 409 2786 701 
Q 3034 994 3034 1497 
Q 3034 2003 2786 2293 
Q 2538 2584 2113 2584 
z
M 3366 4563 
L 3366 3988 
Q 3128 4100 2886 4159 
Q 2644 4219 2406 4219 
Q 1781 4219 1451 3797 
Q 1122 3375 1075 2522 
Q 1259 2794 1537 2939 
Q 1816 3084 2150 3084 
Q 2853 3084 3261 2657 
Q 3669 2231 3669 1497 
Q 3669 778 3244 343 
Q 2819 -91 2113 -91 
Q 1303 -91 875 529 
Q 447 1150 447 2328 
Q 447 3434 972 4092 
Q 1497 4750 2381 4750 
Q 2619 4750 2861 4703 
Q 3103 4656 3366 4563 
z
" transform="scale(0.015625)"/>
       </defs>
       <use xlink:href="#DejaVuSans-30"/>
       <use xlink:href="#DejaVuSans-2e" x="63.623047"/>
       <use xlink:href="#DejaVuSans-36" x="95.410156"/>
      </g>
     </g>
    </g>
    <g id="text_14">
     <!-- Normed Hist Counts -->
     <g transform="translate(28.276406 548.966563)rotate(-90)scale(0.23 -0.23)">
      <defs>
       <path id="DejaVuSans-4e" d="M 628 4666 
L 1478 4666 
L 3547 763 
L 3547 4666 
L 4159 4666 
L 4159 0 
L 3309 0 
L 1241 3903 
L 1241 0 
L 628 0 
L 628 4666 
z
" transform="scale(0.015625)"/>
       <path id="DejaVuSans-6f" d="M 1959 3097 
Q 1497 3097 1228 2736 
Q 959 2375 959 1747 
Q 959 1119 1226 758 
Q 1494 397 1959 397 
Q 2419 397 2687 759 
Q 2956 1122 2956 1747 
Q 2956 2369 2687 2733 
Q 2419 3097 1959 3097 
z
M 1959 3584 
Q 2709 3584 3137 3096 
Q 3566 2609 3566 1747 
Q 3566 888 3137 398 
Q 2709 -91 1959 -91 
Q 1206 -91 779 398 
Q 353 888 353 1747 
Q 353 2609 779 3096 
Q 1206 3584 1959 3584 
z
" transform="scale(0.015625)"/>
       <path id="DejaVuSans-72" d="M 2631 2963 
Q 2534 3019 2420 3045 
Q 2306 3072 2169 3072 
Q 1681 3072 1420 2755 
Q 1159 2438 1159 1844 
L 1159 0 
L 581 0 
L 581 3500 
L 1159 3500 
L 1159 2956 
Q 1341 3275 1631 3429 
Q 1922 3584 2338 3584 
Q 2397 3584 2469 3576 
Q 2541 3569 2628 3553 
L 2631 2963 
z
" transform="scale(0.015625)"/>
       <path id="DejaVuSans-6d" d="M 3328 2828 
Q 3544 3216 3844 3400 
Q 4144 3584 4550 3584 
Q 5097 3584 5394 3201 
Q 5691 2819 5691 2113 
L 5691 0 
L 5113 0 
L 5113 2094 
Q 5113 2597 4934 2840 
Q 4756 3084 4391 3084 
Q 3944 3084 3684 2787 
Q 3425 2491 3425 1978 
L 3425 0 
L 2847 0 
L 2847 2094 
Q 2847 2600 2669 2842 
Q 2491 3084 2119 3084 
Q 1678 3084 1418 2786 
Q 1159 2488 1159 1978 
L 1159 0 
L 581 0 
L 581 3500 
L 1159 3500 
L 1159 2956 
Q 1356 3278 1631 3431 
Q 1906 3584 2284 3584 
Q 2666 3584 2933 3390 
Q 3200 3197 3328 2828 
z
" transform="scale(0.015625)"/>
       <path id="DejaVuSans-65" d="M 3597 1894 
L 3597 1613 
L 953 1613 
Q 991 1019 1311 708 
Q 1631 397 2203 397 
Q 2534 397 2845 478 
Q 3156 559 3463 722 
L 3463 178 
Q 3153 47 2828 -22 
Q 2503 -91 2169 -91 
Q 1331 -91 842 396 
Q 353 884 353 1716 
Q 353 2575 817 3079 
Q 1281 3584 2069 3584 
Q 2775 3584 3186 3129 
Q 3597 2675 3597 1894 
z
M 3022 2063 
Q 3016 2534 2758 2815 
Q 2500 3097 2075 3097 
Q 1594 3097 1305 2825 
Q 1016 2553 972 2059 
L 3022 2063 
z
" transform="scale(0.015625)"/>
       <path id="DejaVuSans-64" d="M 2906 2969 
L 2906 4863 
L 3481 4863 
L 3481 0 
L 2906 0 
L 2906 525 
Q 2725 213 2448 61 
Q 2172 -91 1784 -91 
Q 1150 -91 751 415 
Q 353 922 353 1747 
Q 353 2572 751 3078 
Q 1150 3584 1784 3584 
Q 2172 3584 2448 3432 
Q 2725 3281 2906 2969 
z
M 947 1747 
Q 947 1113 1208 752 
Q 1469 391 1925 391 
Q 2381 391 2643 752 
Q 2906 1113 2906 1747 
Q 2906 2381 2643 2742 
Q 2381 3103 1925 3103 
Q 1469 3103 1208 2742 
Q 947 2381 947 1747 
z
" transform="scale(0.015625)"/>
       <path id="DejaVuSans-20" transform="scale(0.015625)"/>
       <path id="DejaVuSans-48" d="M 628 4666 
L 1259 4666 
L 1259 2753 
L 3553 2753 
L 3553 4666 
L 4184 4666 
L 4184 0 
L 3553 0 
L 3553 2222 
L 1259 2222 
L 1259 0 
L 628 0 
L 628 4666 
z
" transform="scale(0.015625)"/>
       <path id="DejaVuSans-69" d="M 603 3500 
L 1178 3500 
L 1178 0 
L 603 0 
L 603 3500 
z
M 603 4863 
L 1178 4863 
L 1178 4134 
L 603 4134 
L 603 4863 
z
" transform="scale(0.015625)"/>
       <path id="DejaVuSans-73" d="M 2834 3397 
L 2834 2853 
Q 2591 2978 2328 3040 
Q 2066 3103 1784 3103 
Q 1356 3103 1142 2972 
Q 928 2841 928 2578 
Q 928 2378 1081 2264 
Q 1234 2150 1697 2047 
L 1894 2003 
Q 2506 1872 2764 1633 
Q 3022 1394 3022 966 
Q 3022 478 2636 193 
Q 2250 -91 1575 -91 
Q 1294 -91 989 -36 
Q 684 19 347 128 
L 347 722 
Q 666 556 975 473 
Q 1284 391 1588 391 
Q 1994 391 2212 530 
Q 2431 669 2431 922 
Q 2431 1156 2273 1281 
Q 2116 1406 1581 1522 
L 1381 1569 
Q 847 1681 609 1914 
Q 372 2147 372 2553 
Q 372 3047 722 3315 
Q 1072 3584 1716 3584 
Q 2034 3584 2315 3537 
Q 2597 3491 2834 3397 
z
" transform="scale(0.015625)"/>
       <path id="DejaVuSans-74" d="M 1172 4494 
L 1172 3500 
L 2356 3500 
L 2356 3053 
L 1172 3053 
L 1172 1153 
Q 1172 725 1289 603 
Q 1406 481 1766 481 
L 2356 481 
L 2356 0 
L 1766 0 
Q 1100 0 847 248 
Q 594 497 594 1153 
L 594 3053 
L 172 3053 
L 172 3500 
L 594 3500 
L 594 4494 
L 1172 4494 
z
" transform="scale(0.015625)"/>
       <path id="DejaVuSans-43" d="M 4122 4306 
L 4122 3641 
Q 3803 3938 3442 4084 
Q 3081 4231 2675 4231 
Q 1875 4231 1450 3742 
Q 1025 3253 1025 2328 
Q 1025 1406 1450 917 
Q 1875 428 2675 428 
Q 3081 428 3442 575 
Q 3803 722 4122 1019 
L 4122 359 
Q 3791 134 3420 21 
Q 3050 -91 2638 -91 
Q 1578 -91 968 557 
Q 359 1206 359 2328 
Q 359 3453 968 4101 
Q 1578 4750 2638 4750 
Q 3056 4750 3426 4639 
Q 3797 4528 4122 4306 
z
" transform="scale(0.015625)"/>
       <path id="DejaVuSans-75" d="M 544 1381 
L 544 3500 
L 1119 3500 
L 1119 1403 
Q 1119 906 1312 657 
Q 1506 409 1894 409 
Q 2359 409 2629 706 
Q 2900 1003 2900 1516 
L 2900 3500 
L 3475 3500 
L 3475 0 
L 2900 0 
L 2900 538 
Q 2691 219 2414 64 
Q 2138 -91 1772 -91 
Q 1169 -91 856 284 
Q 544 659 544 1381 
z
M 1991 3584 
L 1991 3584 
z
" transform="scale(0.015625)"/>
       <path id="DejaVuSans-6e" d="M 3513 2113 
L 3513 0 
L 2938 0 
L 2938 2094 
Q 2938 2591 2744 2837 
Q 2550 3084 2163 3084 
Q 1697 3084 1428 2787 
Q 1159 2491 1159 1978 
L 1159 0 
L 581 0 
L 581 3500 
L 1159 3500 
L 1159 2956 
Q 1366 3272 1645 3428 
Q 1925 3584 2291 3584 
Q 2894 3584 3203 3211 
Q 3513 2838 3513 2113 
z
" transform="scale(0.015625)"/>
      </defs>
      <use xlink:href="#DejaVuSans-4e"/>
      <use xlink:href="#DejaVuSans-6f" x="74.804688"/>
      <use xlink:href="#DejaVuSans-72" x="135.986328"/>
      <use xlink:href="#DejaVuSans-6d" x="175.349609"/>
      <use xlink:href="#DejaVuSans-65" x="272.761719"/>
      <use xlink:href="#DejaVuSans-64" x="334.285156"/>
      <use xlink:href="#DejaVuSans-20" x="397.761719"/>
      <use xlink:href="#DejaVuSans-48" x="429.548828"/>
      <use xlink:href="#DejaVuSans-69" x="504.744141"/>
      <use xlink:href="#DejaVuSans-73" x="532.527344"/>
      <use xlink:href="#DejaVuSans-74" x="584.626953"/>
      <use xlink:href="#DejaVuSans-20" x="623.835938"/>
      <use xlink:href="#DejaVuSans-43" x="655.623047"/>
      <use xlink:href="#DejaVuSans-6f" x="725.447266"/>
      <use xlink:href="#DejaVuSans-75" x="786.628906"/>
      <use xlink:href="#DejaVuSans-6e" x="850.007812"/>
      <use xlink:href="#DejaVuSans-74" x="913.386719"/>
      <use xlink:href="#DejaVuSans-73" x="952.595703"/>
     </g>
    </g>
   </g>
   <g id="line2d_14">
    <path d="M 137.428059 827.936378 
L 143.594035 827.250301 
L 149.760011 826.260205 
L 155.925987 824.909216 
L 162.091962 823.141569 
L 168.257938 820.903219 
L 174.423914 818.142383 
L 180.58989 814.810048 
L 186.755866 810.860436 
L 192.921842 806.251426 
L 199.087817 800.944943 
L 205.253793 794.9073 
L 211.419769 788.109506 
L 217.585745 780.527524 
L 223.751721 772.142499 
L 229.917697 762.940932 
L 236.083673 752.914815 
L 242.249648 742.061727 
L 248.415624 730.38488 
L 254.5816 717.893125 
L 260.747576 704.600915 
L 266.913552 690.528231 
L 273.079528 675.70046 
L 279.245504 660.148241 
L 285.411479 643.90727 
L 291.577455 627.018073 
L 297.743431 609.525746 
L 303.909407 591.479663 
L 310.075383 572.933157 
L 316.241359 553.943177 
L 328.57331 514.876474 
L 340.905262 474.793177 
L 371.735141 373.767886 
L 384.067093 334.523522 
L 390.233069 315.43232 
L 396.399045 296.785219 
L 402.565021 278.64735 
L 408.730996 261.081467 
L 414.896972 244.147622 
L 421.062948 227.902868 
L 427.228924 212.400981 
L 433.3949 197.692219 
L 439.560876 183.823095 
L 445.726852 170.836188 
L 451.892827 158.769976 
L 458.058803 147.658706 
L 464.224779 137.532286 
L 470.390755 128.416207 
L 476.556731 120.331498 
L 482.722707 113.294706 
L 488.888683 107.317902 
L 495.054658 102.408722 
L 501.220634 98.57042 
L 507.38661 95.801957 
L 513.552586 94.098109 
L 519.718562 93.449595 
L 525.884538 93.843227 
L 532.050513 95.262079 
L 538.216489 97.685667 
L 544.382465 101.090152 
L 550.548441 105.448551 
L 556.714417 110.730956 
L 562.880393 116.904769 
L 569.046369 123.934942 
L 575.212344 131.784217 
L 581.37832 140.413376 
L 587.544296 149.781492 
L 593.710272 159.846178 
L 599.876248 170.563834 
L 606.042224 181.889892 
L 612.2082 193.779061 
L 618.374175 206.185557 
L 624.540151 219.063334 
L 630.706127 232.366304 
L 636.872103 246.048545 
L 643.038079 260.064504 
L 655.370031 288.918337 
L 667.701982 318.577662 
L 686.19991 363.853394 
L 704.697837 409.163832 
L 717.029789 438.938644 
L 729.361741 468.093109 
L 741.693692 496.425374 
L 754.025644 523.763804 
L 760.19162 537.014885 
L 766.357596 549.966641 
L 772.523572 562.605875 
L 778.689548 574.921118 
L 784.855523 586.902578 
L 791.021499 598.542084 
L 797.187475 609.833021 
L 803.353451 620.770262 
L 809.519427 631.350105 
L 815.685403 641.570193 
L 821.851379 651.429444 
L 828.017354 660.927975 
L 834.18333 670.067023 
L 840.349306 678.848868 
L 846.515282 687.276756 
L 852.681258 695.354824 
L 858.847234 703.088019 
L 865.01321 710.482029 
L 871.179185 717.543205 
L 877.345161 724.278493 
L 883.511137 730.695364 
L 889.677113 736.801745 
L 895.843089 742.605957 
L 902.009065 748.116657 
L 908.17504 753.342771 
L 914.341016 758.293448 
L 920.506992 762.978001 
L 926.672968 767.405862 
L 932.838944 771.586535 
L 939.00492 775.529552 
L 945.170896 779.244436 
L 951.336871 782.740662 
L 957.502847 786.027628 
L 963.668823 789.114619 
L 969.834799 792.010786 
L 976.000775 794.725117 
L 982.166751 797.266417 
L 988.332727 799.643292 
L 994.498702 801.864128 
L 1000.664678 803.93708 
L 1006.830654 805.870059 
L 1012.99663 807.670724 
L 1019.162606 809.346472 
L 1031.494558 812.351476 
L 1043.826509 814.938873 
L 1056.158461 817.158107 
L 1068.490413 819.054293 
L 1080.822364 820.668326 
L 1093.154316 822.037038 
L 1105.486268 823.193398 
L 1117.818219 824.166748 
L 1136.316147 825.339568 
L 1154.814075 826.233079 
L 1173.312002 826.908312 
L 1197.975906 827.552738 
L 1228.805785 828.068818 
L 1265.80164 828.42 
L 1315.129447 828.64088 
L 1364.457254 828.728635 
L 1364.457254 828.728635 
" clip-path="url(#pd5c2ea5f27)" style="fill: none; stroke: #ff7f0e; stroke-width: 2; stroke-linecap: square"/>
   </g>
   <g id="line2d_15">
    <path d="M 137.428059 824.278356 
L 143.594035 823.139448 
L 149.760011 821.771255 
L 155.925987 820.14074 
L 162.091962 818.212528 
L 168.257938 815.949125 
L 174.423914 813.311196 
L 180.58989 810.257906 
L 186.755866 806.747319 
L 192.921842 802.736853 
L 199.087817 798.183786 
L 205.253793 793.045801 
L 211.419769 787.281573 
L 217.585745 780.851374 
L 223.751721 773.717699 
L 229.917697 765.845897 
L 236.083673 757.204791 
L 242.249648 747.767291 
L 248.415624 737.510965 
L 254.5816 726.418588 
L 260.747576 714.478624 
L 266.913552 701.685664 
L 273.079528 688.040795 
L 279.245504 673.551886 
L 285.411479 658.23381 
L 291.577455 642.10857 
L 297.743431 625.205346 
L 303.909407 607.560448 
L 310.075383 589.217194 
L 316.241359 570.225685 
L 322.407335 550.642511 
L 328.57331 530.530372 
L 334.739286 509.957628 
L 347.071238 467.72891 
L 365.569165 402.903931 
L 377.901117 359.719328 
L 390.233069 317.405771 
L 396.399045 296.801725 
L 402.565021 276.684001 
L 408.730996 257.138054 
L 414.896972 238.246226 
L 421.062948 220.087156 
L 427.228924 202.735231 
L 433.3949 186.260087 
L 439.560876 170.726171 
L 445.726852 156.192363 
L 451.892827 142.711652 
L 458.058803 130.330877 
L 464.224779 119.090533 
L 470.390755 109.024633 
L 476.556731 100.160632 
L 482.722707 92.51941 
L 488.888683 86.115315 
L 495.054658 80.956245 
L 501.220634 77.0438 
L 507.38661 74.373459 
L 513.552586 72.934812 
L 519.718562 72.711827 
L 525.884538 73.683145 
L 532.050513 75.822408 
L 538.216489 79.098607 
L 544.382465 83.476456 
L 550.548441 88.916772 
L 556.714417 95.37687 
L 562.880393 102.810965 
L 569.046369 111.170578 
L 575.212344 120.404933 
L 581.37832 130.461357 
L 587.544296 141.285671 
L 593.710272 152.822566 
L 599.876248 165.015973 
L 606.042224 177.809408 
L 612.2082 191.146311 
L 618.374175 204.970356 
L 624.540151 219.225747 
L 630.706127 233.857491 
L 643.038079 264.035554 
L 655.370031 295.089615 
L 680.033934 358.303509 
L 698.531862 405.36164 
L 710.863813 436.031128 
L 723.195765 465.866298 
L 735.527717 494.676017 
L 741.693692 508.646547 
L 747.859668 522.305339 
L 754.025644 535.638367 
L 760.19162 548.633599 
L 766.357596 561.280913 
L 772.523572 573.572014 
L 778.689548 585.500335 
L 784.855523 597.060949 
L 791.021499 608.250466 
L 797.187475 619.066945 
L 803.353451 629.50979 
L 809.519427 639.579655 
L 815.685403 649.27835 
L 821.851379 658.608745 
L 828.017354 667.574679 
L 834.18333 676.18087 
L 840.349306 684.432829 
L 846.515282 692.336775 
L 852.681258 699.899553 
L 858.847234 707.128562 
L 865.01321 714.031677 
L 871.179185 720.617179 
L 877.345161 726.893695 
L 883.511137 732.870129 
L 889.677113 738.55561 
L 895.843089 743.959434 
L 902.009065 749.091017 
L 908.17504 753.959845 
L 914.341016 758.575434 
L 920.506992 762.947293 
L 926.672968 767.084882 
L 932.838944 770.997586 
L 939.00492 774.694685 
L 945.170896 778.185323 
L 951.336871 781.478493 
L 957.502847 784.583012 
L 963.668823 787.507503 
L 969.834799 790.260383 
L 976.000775 792.84985 
L 982.166751 795.283869 
L 988.332727 797.570166 
L 994.498702 799.716224 
L 1000.664678 801.729272 
L 1006.830654 803.616288 
L 1019.162606 807.038845 
L 1031.494558 810.034585 
L 1043.826509 812.650133 
L 1056.158461 814.928144 
L 1068.490413 816.907445 
L 1080.822364 818.623208 
L 1093.154316 820.107152 
L 1105.486268 821.387764 
L 1117.818219 822.490523 
L 1136.316147 823.860147 
L 1154.814075 824.9462 
L 1173.312002 825.803578 
L 1197.975906 826.668033 
L 1222.639809 827.290628 
L 1253.469688 827.825464 
L 1290.465543 828.226758 
L 1339.79335 828.517492 
L 1364.457254 828.600477 
L 1364.457254 828.600477 
" clip-path="url(#pd5c2ea5f27)" style="fill: none; stroke: #2ca02c; stroke-width: 2; stroke-linecap: square"/>
   </g>
   <g id="line2d_16">
    <path d="M 137.428059 132.012246 
L 149.760011 152.197597 
L 162.091962 171.798178 
L 174.423914 190.83093 
L 186.755866 209.312302 
L 199.087817 227.25827 
L 211.419769 244.684342 
L 223.751721 261.605581 
L 236.083673 278.036611 
L 248.415624 293.991634 
L 260.747576 309.484441 
L 273.079528 324.52842 
L 285.411479 339.136575 
L 297.743431 353.321532 
L 310.075383 367.09555 
L 322.407335 380.470535 
L 334.739286 393.458047 
L 347.071238 406.06931 
L 359.40319 418.315225 
L 371.735141 430.206375 
L 384.067093 441.753039 
L 396.399045 452.965196 
L 408.730996 463.852536 
L 421.062948 474.42447 
L 433.3949 484.690135 
L 445.726852 494.658404 
L 458.058803 504.337892 
L 470.390755 513.736965 
L 482.722707 522.863746 
L 495.054658 531.726125 
L 507.38661 540.331761 
L 519.718562 548.688091 
L 532.050513 556.802338 
L 544.382465 564.681516 
L 556.714417 572.332433 
L 569.046369 579.761704 
L 581.37832 586.975748 
L 593.710272 593.980802 
L 606.042224 600.782919 
L 618.374175 607.387978 
L 630.706127 613.801689 
L 643.038079 620.029595 
L 655.370031 626.077078 
L 667.701982 631.949365 
L 680.033934 637.651533 
L 698.531862 645.89655 
L 717.029789 653.785887 
L 735.527717 661.334889 
L 754.025644 668.558235 
L 772.523572 675.469976 
L 791.021499 682.083553 
L 809.519427 688.411828 
L 828.017354 694.467109 
L 846.515282 700.261173 
L 865.01321 705.805288 
L 883.511137 711.110237 
L 902.009065 716.186338 
L 920.506992 721.043461 
L 939.00492 725.691054 
L 957.502847 730.138156 
L 976.000775 734.393416 
L 994.498702 738.465108 
L 1012.99663 742.361153 
L 1037.660533 747.295699 
L 1062.324437 751.948479 
L 1086.98834 756.335582 
L 1111.652244 760.472177 
L 1136.316147 764.37257 
L 1160.98005 768.050247 
L 1185.643954 771.517926 
L 1210.307857 774.787599 
L 1234.971761 777.87057 
L 1265.80164 781.477919 
L 1296.631519 784.829654 
L 1327.461398 787.943889 
L 1358.291278 790.837452 
L 1364.457254 791.39108 
L 1364.457254 791.39108 
" clip-path="url(#pd5c2ea5f27)" style="fill: none; stroke: #d62728; stroke-width: 2; stroke-linecap: square"/>
   </g>
   <g id="line2d_17">
    <path d="M 137.428059 781.585637 
L 149.760011 776.76542 
L 155.925987 774.173719 
L 162.091962 771.452881 
L 168.257938 768.596472 
L 174.423914 765.597737 
L 180.58989 762.449583 
L 186.755866 759.144567 
L 192.921842 755.674871 
L 199.087817 752.032291 
L 205.253793 748.208211 
L 211.419769 744.193589 
L 217.585745 739.978931 
L 223.751721 735.554268 
L 229.917697 730.909138 
L 236.083673 726.032555 
L 242.249648 720.912986 
L 248.415624 715.538324 
L 254.5816 709.895858 
L 260.747576 703.972246 
L 266.913552 697.753477 
L 273.079528 691.224846 
L 279.245504 684.370912 
L 285.411479 677.175467 
L 291.577455 669.621494 
L 297.743431 661.69113 
L 303.909407 653.365619 
L 310.075383 644.625272 
L 316.241359 635.44942 
L 322.407335 625.816362 
L 328.57331 615.703318 
L 334.739286 605.086371 
L 340.905262 593.940412 
L 347.071238 582.239084 
L 353.237214 569.954713 
L 359.40319 557.058249 
L 365.569165 543.519192 
L 371.735141 529.305524 
L 377.901117 514.383631 
L 384.067093 498.718225 
L 390.233069 482.272258 
L 396.399045 465.006837 
L 402.565021 446.881132 
L 408.730996 427.852276 
L 414.896972 407.875269 
L 421.062948 386.902867 
L 427.228924 364.885473 
L 433.3949 341.771017 
L 439.560876 317.504837 
L 445.726852 292.029545 
L 451.892827 265.284894 
L 458.058803 237.207637 
L 464.224779 207.731374 
L 470.390755 176.786396 
L 476.556731 144.299522 
L 482.722707 110.193923 
L 488.888683 74.388944 
L 495.054658 36.799909 
L 500.960933 -1 
M 586.171737 -1 
L 587.544296 8.102617 
L 593.710272 47.053687 
L 599.876248 84.156056 
L 606.042224 119.497467 
L 612.2082 153.1615 
L 618.374175 185.227766 
L 624.540151 215.772098 
L 630.706127 244.866732 
L 636.872103 272.580471 
L 643.038079 298.978858 
L 649.204055 324.124321 
L 655.370031 348.076327 
L 661.536006 370.891519 
L 667.701982 392.623854 
L 673.867958 413.324725 
L 680.033934 433.043089 
L 686.19991 451.825578 
L 692.365886 469.716609 
L 698.531862 486.758494 
L 704.697837 502.991535 
L 710.863813 518.454121 
L 717.029789 533.18282 
L 723.195765 547.212463 
L 729.361741 560.576229 
L 735.527717 573.305723 
L 741.693692 585.431047 
L 747.859668 596.980878 
L 754.025644 607.98253 
L 760.19162 618.462019 
L 766.357596 628.444129 
L 772.523572 637.952468 
L 778.689548 647.00952 
L 784.855523 655.636705 
L 791.021499 663.854425 
L 797.187475 671.682115 
L 803.353451 679.138287 
L 809.519427 686.240572 
L 815.685403 693.005768 
L 821.851379 699.449873 
L 828.017354 705.588127 
L 834.18333 711.435046 
L 840.349306 717.004459 
L 846.515282 722.309535 
L 852.681258 727.36282 
L 858.847234 732.176266 
L 865.01321 736.761256 
L 871.179185 741.128632 
L 877.345161 745.288724 
L 883.511137 749.251368 
L 889.677113 753.025937 
L 895.843089 756.621357 
L 902.009065 760.04613 
L 908.17504 763.308357 
L 914.341016 766.415751 
L 920.506992 769.375662 
L 926.672968 772.195089 
L 932.838944 774.8807 
L 939.00492 777.438846 
L 951.336871 782.196655 
L 963.668823 786.513551 
L 976.000775 790.430393 
L 988.332727 793.984255 
L 1000.664678 797.208775 
L 1012.99663 800.134473 
L 1025.328582 802.789043 
L 1037.660533 805.197609 
L 1049.992485 807.382969 
L 1062.324437 809.365809 
L 1074.656388 811.164895 
L 1086.98834 812.797257 
L 1105.486268 814.966596 
L 1123.984195 816.841478 
L 1142.482123 818.461873 
L 1160.98005 819.862323 
L 1179.477978 821.072682 
L 1204.141881 822.43488 
L 1228.805785 823.556302 
L 1253.469688 824.479508 
L 1284.299567 825.40754 
L 1321.295423 826.260772 
L 1364.457254 826.987385 
L 1364.457254 826.987385 
" clip-path="url(#pd5c2ea5f27)" style="fill: none; stroke: #9467bd; stroke-width: 2; stroke-linecap: square"/>
   </g>
   <g id="line2d_18">
    <path d="M 137.428059 822.996328 
L 143.594035 821.733896 
L 149.760011 820.246151 
L 155.925987 818.503278 
L 162.091962 816.473364 
L 168.257938 814.122549 
L 174.423914 811.415212 
L 180.58989 808.314227 
L 186.755866 804.781257 
L 192.921842 800.777109 
L 199.087817 796.262133 
L 205.253793 791.19667 
L 211.419769 785.541536 
L 217.585745 779.258547 
L 223.751721 772.31107 
L 229.917697 764.664588 
L 236.083673 756.287286 
L 242.249648 747.150629 
L 248.415624 737.229939 
L 254.5816 726.504945 
L 260.747576 714.960314 
L 266.913552 702.586132 
L 273.079528 689.378347 
L 279.245504 675.339147 
L 285.411479 660.477277 
L 291.577455 644.808282 
L 297.743431 628.354671 
L 303.909407 611.146004 
L 310.075383 593.218889 
L 316.241359 574.616892 
L 322.407335 555.390363 
L 328.57331 535.596178 
L 334.739286 515.297393 
L 347.071238 473.46657 
L 359.40319 430.50827 
L 384.067093 343.954549 
L 396.399045 301.81632 
L 402.565021 281.354228 
L 408.730996 261.416785 
L 414.896972 242.090986 
L 421.062948 223.460612 
L 427.228924 205.605596 
L 433.3949 188.601428 
L 439.560876 172.518627 
L 445.726852 157.422256 
L 451.892827 143.371514 
L 458.058803 130.419384 
L 464.224779 118.612354 
L 470.390755 107.990198 
L 476.556731 98.585837 
L 482.722707 90.425252 
L 488.888683 83.52747 
L 495.054658 77.904613 
L 501.220634 73.562001 
L 507.38661 70.498311 
L 513.552586 68.705792 
L 519.718562 68.170516 
L 525.884538 68.872681 
L 532.050513 70.786946 
L 538.216489 73.882793 
L 544.382465 78.124921 
L 550.548441 83.473654 
L 556.714417 89.885374 
L 562.880393 97.312953 
L 569.046369 105.706199 
L 575.212344 115.012297 
L 581.37832 125.176254 
L 587.544296 136.141329 
L 593.710272 147.849459 
L 599.876248 160.241667 
L 606.042224 173.258455 
L 612.2082 186.840181 
L 618.374175 200.927407 
L 624.540151 215.461234 
L 630.706127 230.383604 
L 643.038079 261.167632 
L 655.370031 292.841955 
L 698.531862 405.129784 
L 710.863813 436.27459 
L 723.195765 466.5247 
L 729.361741 481.251817 
L 735.527717 495.685268 
L 741.693692 509.806742 
L 747.859668 523.600211 
L 754.025644 537.051849 
L 760.19162 550.149941 
L 766.357596 562.884782 
L 772.523572 575.248584 
L 778.689548 587.235365 
L 784.855523 598.840847 
L 791.021499 610.062348 
L 797.187475 620.898671 
L 803.353451 631.350001 
L 809.519427 641.417799 
L 815.685403 651.10469 
L 821.851379 660.41437 
L 828.017354 669.3515 
L 834.18333 677.921612 
L 840.349306 686.131016 
L 846.515282 693.986709 
L 852.681258 701.496293 
L 858.847234 708.66789 
L 865.01321 715.510068 
L 871.179185 722.03177 
L 877.345161 728.242242 
L 883.511137 734.150971 
L 889.677113 739.76763 
L 895.843089 745.102018 
L 902.009065 750.164013 
L 908.17504 754.963525 
L 914.341016 759.510451 
L 920.506992 763.814643 
L 926.672968 767.885868 
L 932.838944 771.733779 
L 939.00492 775.367891 
L 945.170896 778.797548 
L 951.336871 782.031912 
L 957.502847 785.079938 
L 963.668823 787.950362 
L 969.834799 790.651684 
L 976.000775 793.192162 
L 982.166751 795.579801 
L 988.332727 797.822346 
L 994.498702 799.927278 
L 1000.664678 801.90181 
L 1006.830654 803.752889 
L 1019.162606 807.11112 
L 1031.494558 810.052178 
L 1043.826509 812.622072 
L 1056.158461 814.862746 
L 1068.490413 816.812262 
L 1080.822364 818.504999 
L 1093.154316 819.971887 
L 1105.486268 821.24064 
L 1117.818219 822.336 
L 1136.316147 823.701391 
L 1154.814075 824.789604 
L 1173.312002 825.653728 
L 1197.975906 826.531763 
L 1222.639809 827.170689 
L 1253.469688 827.726864 
L 1290.465543 828.152076 
L 1339.79335 828.468817 
L 1364.457254 828.561978 
L 1364.457254 828.561978 
" clip-path="url(#pd5c2ea5f27)" style="fill: none; stroke: #8c564b; stroke-width: 2; stroke-linecap: square"/>
   </g>
   <g id="line2d_19">
    <path d="M 137.428059 805.400875 
L 143.594035 802.899993 
L 149.760011 800.174984 
L 155.925987 797.210939 
L 162.091962 793.992535 
L 168.257938 790.50409 
L 174.423914 786.729622 
L 180.58989 782.652928 
L 186.755866 778.257657 
L 192.921842 773.527405 
L 199.087817 768.445812 
L 205.253793 762.996669 
L 211.419769 757.164038 
L 217.585745 750.932373 
L 223.751721 744.286654 
L 229.917697 737.21253 
L 236.083673 729.696464 
L 242.249648 721.72589 
L 248.415624 713.289367 
L 254.5816 704.376744 
L 260.747576 694.979328 
L 266.913552 685.090045 
L 273.079528 674.703615 
L 279.245504 663.816708 
L 285.411479 652.428114 
L 291.577455 640.538896 
L 297.743431 628.152542 
L 303.909407 615.275104 
L 310.075383 601.915333 
L 316.241359 588.084794 
L 322.407335 573.79797 
L 328.57331 559.072352 
L 334.739286 543.928504 
L 340.905262 528.390118 
L 347.071238 512.484036 
L 359.40319 479.691929 
L 371.735141 445.829557 
L 384.067093 411.22244 
L 414.896972 323.970009 
L 427.228924 289.910708 
L 433.3949 273.293501 
L 439.560876 257.031371 
L 445.726852 241.18471 
L 451.892827 225.813713 
L 458.058803 210.978005 
L 464.224779 196.736264 
L 470.390755 183.145829 
L 476.556731 170.262328 
L 482.722707 158.139293 
L 488.888683 146.827796 
L 495.054658 136.376085 
L 501.220634 126.829251 
L 507.38661 118.228895 
L 513.552586 110.612832 
L 519.718562 104.014813 
L 525.884538 98.464274 
L 532.050513 93.986121 
L 538.216489 90.600538 
L 544.382465 88.322842 
L 550.548441 87.163363 
L 556.714417 87.127368 
L 562.880393 88.215022 
L 569.046369 90.421382 
L 575.212344 93.73644 
L 581.37832 98.145198 
L 587.544296 103.627775 
L 593.710272 110.159566 
L 599.876248 117.711417 
L 606.042224 126.249846 
L 612.2082 135.737292 
L 618.374175 146.132384 
L 624.540151 157.39025 
L 630.706127 169.462829 
L 636.872103 182.299222 
L 643.038079 195.846043 
L 649.204055 210.047787 
L 655.370031 224.847213 
L 661.536006 240.185717 
L 667.701982 256.003724 
L 673.867958 272.241063 
L 686.19991 305.732331 
L 698.531862 340.180305 
L 735.527717 444.731403 
L 747.859668 478.622908 
L 760.19162 511.453836 
L 766.357596 527.382471 
L 772.523572 542.945236 
L 778.689548 558.115087 
L 784.855523 572.868131 
L 791.021499 587.183604 
L 797.187475 601.043822 
L 803.353451 614.43411 
L 809.519427 627.342719 
L 815.685403 639.760724 
L 821.851379 651.681901 
L 828.017354 663.102604 
L 834.18333 674.021617 
L 840.349306 684.440012 
L 846.515282 694.360985 
L 852.681258 703.789699 
L 858.847234 712.733115 
L 865.01321 721.199831 
L 871.179185 729.199907 
L 877.345161 736.744706 
L 883.511137 743.846728 
L 889.677113 750.519453 
L 895.843089 756.777184 
L 902.009065 762.634902 
L 908.17504 768.108123 
L 914.341016 773.212764 
L 920.506992 777.965021 
L 926.672968 782.381247 
L 932.838944 786.477847 
L 939.00492 790.271177 
L 945.170896 793.777453 
L 951.336871 797.012672 
L 957.502847 799.992539 
L 963.668823 802.7324 
L 969.834799 805.247194 
L 976.000775 807.551397 
L 982.166751 809.658991 
L 988.332727 811.583425 
L 994.498702 813.337599 
L 1000.664678 814.933835 
L 1006.830654 816.383874 
L 1012.99663 817.698863 
L 1019.162606 818.889356 
L 1031.494558 820.93612 
L 1043.826509 822.596908 
L 1056.158461 823.935495 
L 1068.490413 825.007205 
L 1080.822364 825.859561 
L 1093.154316 826.532983 
L 1111.652244 827.280579 
L 1130.150171 827.792929 
L 1154.814075 828.226497 
L 1185.643954 828.52025 
L 1228.805785 828.695219 
L 1315.129447 828.772272 
L 1364.457254 828.777861 
L 1364.457254 828.777861 
" clip-path="url(#pd5c2ea5f27)" style="fill: none; stroke: #e377c2; stroke-width: 2; stroke-linecap: square"/>
   </g>
   <g id="patch_103">
    <path d="M 72.685313 828.779375 
L 72.685313 38.075625 
" style="fill: none; stroke: #000000; stroke-width: 0.8; stroke-linejoin: miter; stroke-linecap: square"/>
   </g>
   <g id="patch_104">
    <path d="M 1429.2 828.779375 
L 1429.2 38.075625 
" style="fill: none; stroke: #000000; stroke-width: 0.8; stroke-linejoin: miter; stroke-linecap: square"/>
   </g>
   <g id="patch_105">
    <path d="M 72.685313 828.779375 
L 1429.2 828.779375 
" style="fill: none; stroke: #000000; stroke-width: 0.8; stroke-linejoin: miter; stroke-linecap: square"/>
   </g>
   <g id="patch_106">
    <path d="M 72.685313 38.075625 
L 1429.2 38.075625 
" style="fill: none; stroke: #000000; stroke-width: 0.8; stroke-linejoin: miter; stroke-linecap: square"/>
   </g>
   <g id="text_15">
    <!-- All Fitted Distributions -->
    <g transform="translate(596.317031 32.075625)scale(0.28 -0.28)">
     <defs>
      <path id="DejaVuSans-41" d="M 2188 4044 
L 1331 1722 
L 3047 1722 
L 2188 4044 
z
M 1831 4666 
L 2547 4666 
L 4325 0 
L 3669 0 
L 3244 1197 
L 1141 1197 
L 716 0 
L 50 0 
L 1831 4666 
z
" transform="scale(0.015625)"/>
      <path id="DejaVuSans-6c" d="M 603 4863 
L 1178 4863 
L 1178 0 
L 603 0 
L 603 4863 
z
" transform="scale(0.015625)"/>
      <path id="DejaVuSans-46" d="M 628 4666 
L 3309 4666 
L 3309 4134 
L 1259 4134 
L 1259 2759 
L 3109 2759 
L 3109 2228 
L 1259 2228 
L 1259 0 
L 628 0 
L 628 4666 
z
" transform="scale(0.015625)"/>
      <path id="DejaVuSans-44" d="M 1259 4147 
L 1259 519 
L 2022 519 
Q 2988 519 3436 956 
Q 3884 1394 3884 2338 
Q 3884 3275 3436 3711 
Q 2988 4147 2022 4147 
L 1259 4147 
z
M 628 4666 
L 1925 4666 
Q 3281 4666 3915 4102 
Q 4550 3538 4550 2338 
Q 4550 1131 3912 565 
Q 3275 0 1925 0 
L 628 0 
L 628 4666 
z
" transform="scale(0.015625)"/>
      <path id="DejaVuSans-62" d="M 3116 1747 
Q 3116 2381 2855 2742 
Q 2594 3103 2138 3103 
Q 1681 3103 1420 2742 
Q 1159 2381 1159 1747 
Q 1159 1113 1420 752 
Q 1681 391 2138 391 
Q 2594 391 2855 752 
Q 3116 1113 3116 1747 
z
M 1159 2969 
Q 1341 3281 1617 3432 
Q 1894 3584 2278 3584 
Q 2916 3584 3314 3078 
Q 3713 2572 3713 1747 
Q 3713 922 3314 415 
Q 2916 -91 2278 -91 
Q 1894 -91 1617 61 
Q 1341 213 1159 525 
L 1159 0 
L 581 0 
L 581 4863 
L 1159 4863 
L 1159 2969 
z
" transform="scale(0.015625)"/>
     </defs>
     <use xlink:href="#DejaVuSans-41"/>
     <use xlink:href="#DejaVuSans-6c" x="68.408203"/>
     <use xlink:href="#DejaVuSans-6c" x="96.191406"/>
     <use xlink:href="#DejaVuSans-20" x="123.974609"/>
     <use xlink:href="#DejaVuSans-46" x="155.761719"/>
     <use xlink:href="#DejaVuSans-69" x="206.03125"/>
     <use xlink:href="#DejaVuSans-74" x="233.814453"/>
     <use xlink:href="#DejaVuSans-74" x="273.023438"/>
     <use xlink:href="#DejaVuSans-65" x="312.232422"/>
     <use xlink:href="#DejaVuSans-64" x="373.755859"/>
     <use xlink:href="#DejaVuSans-20" x="437.232422"/>
     <use xlink:href="#DejaVuSans-44" x="469.019531"/>
     <use xlink:href="#DejaVuSans-69" x="546.021484"/>
     <use xlink:href="#DejaVuSans-73" x="573.804688"/>
     <use xlink:href="#DejaVuSans-74" x="625.904297"/>
     <use xlink:href="#DejaVuSans-72" x="665.113281"/>
     <use xlink:href="#DejaVuSans-69" x="706.226562"/>
     <use xlink:href="#DejaVuSans-62" x="734.009766"/>
     <use xlink:href="#DejaVuSans-75" x="797.486328"/>
     <use xlink:href="#DejaVuSans-74" x="860.865234"/>
     <use xlink:href="#DejaVuSans-69" x="900.074219"/>
     <use xlink:href="#DejaVuSans-6f" x="927.857422"/>
     <use xlink:href="#DejaVuSans-6e" x="989.039062"/>
     <use xlink:href="#DejaVuSans-73" x="1052.417969"/>
    </g>
   </g>
   <g id="legend_1">
    <g id="patch_107">
     <path d="M 1014.37125 303.868125 
L 1412.4 303.868125 
Q 1417.2 303.868125 1417.2 299.068125 
L 1417.2 54.875625 
Q 1417.2 50.075625 1412.4 50.075625 
L 1014.37125 50.075625 
Q 1009.57125 50.075625 1009.57125 54.875625 
L 1009.57125 299.068125 
Q 1009.57125 303.868125 1014.37125 303.868125 
z
" style="fill: #ffffff; opacity: 0.8; stroke: #cccccc; stroke-linejoin: miter"/>
    </g>
    <g id="patch_108">
     <path d="M 1019.17125 77.911875 
L 1067.17125 77.911875 
L 1067.17125 61.111875 
L 1019.17125 61.111875 
z
" style="fill: #1f77b4; opacity: 0.6"/>
    </g>
    <g id="text_16">
     <!-- Generated Chi Distribution -->
     <g transform="translate(1086.37125 77.911875)scale(0.24 -0.24)">
      <defs>
       <path id="DejaVuSans-47" d="M 3809 666 
L 3809 1919 
L 2778 1919 
L 2778 2438 
L 4434 2438 
L 4434 434 
Q 4069 175 3628 42 
Q 3188 -91 2688 -91 
Q 1594 -91 976 548 
Q 359 1188 359 2328 
Q 359 3472 976 4111 
Q 1594 4750 2688 4750 
Q 3144 4750 3555 4637 
Q 3966 4525 4313 4306 
L 4313 3634 
Q 3963 3931 3569 4081 
Q 3175 4231 2741 4231 
Q 1884 4231 1454 3753 
Q 1025 3275 1025 2328 
Q 1025 1384 1454 906 
Q 1884 428 2741 428 
Q 3075 428 3337 486 
Q 3600 544 3809 666 
z
" transform="scale(0.015625)"/>
       <path id="DejaVuSans-61" d="M 2194 1759 
Q 1497 1759 1228 1600 
Q 959 1441 959 1056 
Q 959 750 1161 570 
Q 1363 391 1709 391 
Q 2188 391 2477 730 
Q 2766 1069 2766 1631 
L 2766 1759 
L 2194 1759 
z
M 3341 1997 
L 3341 0 
L 2766 0 
L 2766 531 
Q 2569 213 2275 61 
Q 1981 -91 1556 -91 
Q 1019 -91 701 211 
Q 384 513 384 1019 
Q 384 1609 779 1909 
Q 1175 2209 1959 2209 
L 2766 2209 
L 2766 2266 
Q 2766 2663 2505 2880 
Q 2244 3097 1772 3097 
Q 1472 3097 1187 3025 
Q 903 2953 641 2809 
L 641 3341 
Q 956 3463 1253 3523 
Q 1550 3584 1831 3584 
Q 2591 3584 2966 3190 
Q 3341 2797 3341 1997 
z
" transform="scale(0.015625)"/>
       <path id="DejaVuSans-68" d="M 3513 2113 
L 3513 0 
L 2938 0 
L 2938 2094 
Q 2938 2591 2744 2837 
Q 2550 3084 2163 3084 
Q 1697 3084 1428 2787 
Q 1159 2491 1159 1978 
L 1159 0 
L 581 0 
L 581 4863 
L 1159 4863 
L 1159 2956 
Q 1366 3272 1645 3428 
Q 1925 3584 2291 3584 
Q 2894 3584 3203 3211 
Q 3513 2838 3513 2113 
z
" transform="scale(0.015625)"/>
      </defs>
      <use xlink:href="#DejaVuSans-47"/>
      <use xlink:href="#DejaVuSans-65" x="77.490234"/>
      <use xlink:href="#DejaVuSans-6e" x="139.013672"/>
      <use xlink:href="#DejaVuSans-65" x="202.392578"/>
      <use xlink:href="#DejaVuSans-72" x="263.916016"/>
      <use xlink:href="#DejaVuSans-61" x="305.029297"/>
      <use xlink:href="#DejaVuSans-74" x="366.308594"/>
      <use xlink:href="#DejaVuSans-65" x="405.517578"/>
      <use xlink:href="#DejaVuSans-64" x="467.041016"/>
      <use xlink:href="#DejaVuSans-20" x="530.517578"/>
      <use xlink:href="#DejaVuSans-43" x="562.304688"/>
      <use xlink:href="#DejaVuSans-68" x="632.128906"/>
      <use xlink:href="#DejaVuSans-69" x="695.507812"/>
      <use xlink:href="#DejaVuSans-20" x="723.291016"/>
      <use xlink:href="#DejaVuSans-44" x="755.078125"/>
      <use xlink:href="#DejaVuSans-69" x="832.080078"/>
      <use xlink:href="#DejaVuSans-73" x="859.863281"/>
      <use xlink:href="#DejaVuSans-74" x="911.962891"/>
      <use xlink:href="#DejaVuSans-72" x="951.171875"/>
      <use xlink:href="#DejaVuSans-69" x="992.285156"/>
      <use xlink:href="#DejaVuSans-62" x="1020.068359"/>
      <use xlink:href="#DejaVuSans-75" x="1083.544922"/>
      <use xlink:href="#DejaVuSans-74" x="1146.923828"/>
      <use xlink:href="#DejaVuSans-69" x="1186.132812"/>
      <use xlink:href="#DejaVuSans-6f" x="1213.916016"/>
      <use xlink:href="#DejaVuSans-6e" x="1275.097656"/>
     </g>
    </g>
    <g id="line2d_20">
     <path d="M 1019.17125 104.739375 
L 1043.17125 104.739375 
L 1067.17125 104.739375 
" style="fill: none; stroke: #ff7f0e; stroke-width: 2; stroke-linecap: square"/>
    </g>
    <g id="text_17">
     <!-- Chi fit -->
     <g transform="translate(1086.37125 113.139375)scale(0.24 -0.24)">
      <defs>
       <path id="DejaVuSans-66" d="M 2375 4863 
L 2375 4384 
L 1825 4384 
Q 1516 4384 1395 4259 
Q 1275 4134 1275 3809 
L 1275 3500 
L 2222 3500 
L 2222 3053 
L 1275 3053 
L 1275 0 
L 697 0 
L 697 3053 
L 147 3053 
L 147 3500 
L 697 3500 
L 697 3744 
Q 697 4328 969 4595 
Q 1241 4863 1831 4863 
L 2375 4863 
z
" transform="scale(0.015625)"/>
      </defs>
      <use xlink:href="#DejaVuSans-43"/>
      <use xlink:href="#DejaVuSans-68" x="69.824219"/>
      <use xlink:href="#DejaVuSans-69" x="133.203125"/>
      <use xlink:href="#DejaVuSans-20" x="160.986328"/>
      <use xlink:href="#DejaVuSans-66" x="192.773438"/>
      <use xlink:href="#DejaVuSans-69" x="227.978516"/>
      <use xlink:href="#DejaVuSans-74" x="255.761719"/>
     </g>
    </g>
    <g id="line2d_21">
     <path d="M 1019.17125 139.966875 
L 1043.17125 139.966875 
L 1067.17125 139.966875 
" style="fill: none; stroke: #2ca02c; stroke-width: 2; stroke-linecap: square"/>
    </g>
    <g id="text_18">
     <!-- Chi-Square fit -->
     <g transform="translate(1086.37125 148.366875)scale(0.24 -0.24)">
      <defs>
       <path id="DejaVuSans-2d" d="M 313 2009 
L 1997 2009 
L 1997 1497 
L 313 1497 
L 313 2009 
z
" transform="scale(0.015625)"/>
       <path id="DejaVuSans-53" d="M 3425 4513 
L 3425 3897 
Q 3066 4069 2747 4153 
Q 2428 4238 2131 4238 
Q 1616 4238 1336 4038 
Q 1056 3838 1056 3469 
Q 1056 3159 1242 3001 
Q 1428 2844 1947 2747 
L 2328 2669 
Q 3034 2534 3370 2195 
Q 3706 1856 3706 1288 
Q 3706 609 3251 259 
Q 2797 -91 1919 -91 
Q 1588 -91 1214 -16 
Q 841 59 441 206 
L 441 856 
Q 825 641 1194 531 
Q 1563 422 1919 422 
Q 2459 422 2753 634 
Q 3047 847 3047 1241 
Q 3047 1584 2836 1778 
Q 2625 1972 2144 2069 
L 1759 2144 
Q 1053 2284 737 2584 
Q 422 2884 422 3419 
Q 422 4038 858 4394 
Q 1294 4750 2059 4750 
Q 2388 4750 2728 4690 
Q 3069 4631 3425 4513 
z
" transform="scale(0.015625)"/>
       <path id="DejaVuSans-71" d="M 947 1747 
Q 947 1113 1208 752 
Q 1469 391 1925 391 
Q 2381 391 2643 752 
Q 2906 1113 2906 1747 
Q 2906 2381 2643 2742 
Q 2381 3103 1925 3103 
Q 1469 3103 1208 2742 
Q 947 2381 947 1747 
z
M 2906 525 
Q 2725 213 2448 61 
Q 2172 -91 1784 -91 
Q 1150 -91 751 415 
Q 353 922 353 1747 
Q 353 2572 751 3078 
Q 1150 3584 1784 3584 
Q 2172 3584 2448 3432 
Q 2725 3281 2906 2969 
L 2906 3500 
L 3481 3500 
L 3481 -1331 
L 2906 -1331 
L 2906 525 
z
" transform="scale(0.015625)"/>
      </defs>
      <use xlink:href="#DejaVuSans-43"/>
      <use xlink:href="#DejaVuSans-68" x="69.824219"/>
      <use xlink:href="#DejaVuSans-69" x="133.203125"/>
      <use xlink:href="#DejaVuSans-2d" x="160.986328"/>
      <use xlink:href="#DejaVuSans-53" x="197.070312"/>
      <use xlink:href="#DejaVuSans-71" x="260.546875"/>
      <use xlink:href="#DejaVuSans-75" x="324.023438"/>
      <use xlink:href="#DejaVuSans-61" x="387.402344"/>
      <use xlink:href="#DejaVuSans-72" x="448.681641"/>
      <use xlink:href="#DejaVuSans-65" x="487.544922"/>
      <use xlink:href="#DejaVuSans-20" x="549.068359"/>
      <use xlink:href="#DejaVuSans-66" x="580.855469"/>
      <use xlink:href="#DejaVuSans-69" x="616.060547"/>
      <use xlink:href="#DejaVuSans-74" x="643.84375"/>
     </g>
    </g>
    <g id="line2d_22">
     <path d="M 1019.17125 175.194375 
L 1043.17125 175.194375 
L 1067.17125 175.194375 
" style="fill: none; stroke: #d62728; stroke-width: 2; stroke-linecap: square"/>
    </g>
    <g id="text_19">
     <!-- Exponential fit -->
     <g transform="translate(1086.37125 183.594375)scale(0.24 -0.24)">
      <defs>
       <path id="DejaVuSans-45" d="M 628 4666 
L 3578 4666 
L 3578 4134 
L 1259 4134 
L 1259 2753 
L 3481 2753 
L 3481 2222 
L 1259 2222 
L 1259 531 
L 3634 531 
L 3634 0 
L 628 0 
L 628 4666 
z
" transform="scale(0.015625)"/>
       <path id="DejaVuSans-78" d="M 3513 3500 
L 2247 1797 
L 3578 0 
L 2900 0 
L 1881 1375 
L 863 0 
L 184 0 
L 1544 1831 
L 300 3500 
L 978 3500 
L 1906 2253 
L 2834 3500 
L 3513 3500 
z
" transform="scale(0.015625)"/>
       <path id="DejaVuSans-70" d="M 1159 525 
L 1159 -1331 
L 581 -1331 
L 581 3500 
L 1159 3500 
L 1159 2969 
Q 1341 3281 1617 3432 
Q 1894 3584 2278 3584 
Q 2916 3584 3314 3078 
Q 3713 2572 3713 1747 
Q 3713 922 3314 415 
Q 2916 -91 2278 -91 
Q 1894 -91 1617 61 
Q 1341 213 1159 525 
z
M 3116 1747 
Q 3116 2381 2855 2742 
Q 2594 3103 2138 3103 
Q 1681 3103 1420 2742 
Q 1159 2381 1159 1747 
Q 1159 1113 1420 752 
Q 1681 391 2138 391 
Q 2594 391 2855 752 
Q 3116 1113 3116 1747 
z
" transform="scale(0.015625)"/>
      </defs>
      <use xlink:href="#DejaVuSans-45"/>
      <use xlink:href="#DejaVuSans-78" x="63.183594"/>
      <use xlink:href="#DejaVuSans-70" x="122.363281"/>
      <use xlink:href="#DejaVuSans-6f" x="185.839844"/>
      <use xlink:href="#DejaVuSans-6e" x="247.021484"/>
      <use xlink:href="#DejaVuSans-65" x="310.400391"/>
      <use xlink:href="#DejaVuSans-6e" x="371.923828"/>
      <use xlink:href="#DejaVuSans-74" x="435.302734"/>
      <use xlink:href="#DejaVuSans-69" x="474.511719"/>
      <use xlink:href="#DejaVuSans-61" x="502.294922"/>
      <use xlink:href="#DejaVuSans-6c" x="563.574219"/>
      <use xlink:href="#DejaVuSans-20" x="591.357422"/>
      <use xlink:href="#DejaVuSans-66" x="623.144531"/>
      <use xlink:href="#DejaVuSans-69" x="658.349609"/>
      <use xlink:href="#DejaVuSans-74" x="686.132812"/>
     </g>
    </g>
    <g id="line2d_23">
     <path d="M 1019.17125 210.421875 
L 1043.17125 210.421875 
L 1067.17125 210.421875 
" style="fill: none; stroke: #9467bd; stroke-width: 2; stroke-linecap: square"/>
    </g>
    <g id="text_20">
     <!-- Laplace fit -->
     <g transform="translate(1086.37125 218.821875)scale(0.24 -0.24)">
      <defs>
       <path id="DejaVuSans-4c" d="M 628 4666 
L 1259 4666 
L 1259 531 
L 3531 531 
L 3531 0 
L 628 0 
L 628 4666 
z
" transform="scale(0.015625)"/>
       <path id="DejaVuSans-63" d="M 3122 3366 
L 3122 2828 
Q 2878 2963 2633 3030 
Q 2388 3097 2138 3097 
Q 1578 3097 1268 2742 
Q 959 2388 959 1747 
Q 959 1106 1268 751 
Q 1578 397 2138 397 
Q 2388 397 2633 464 
Q 2878 531 3122 666 
L 3122 134 
Q 2881 22 2623 -34 
Q 2366 -91 2075 -91 
Q 1284 -91 818 406 
Q 353 903 353 1747 
Q 353 2603 823 3093 
Q 1294 3584 2113 3584 
Q 2378 3584 2631 3529 
Q 2884 3475 3122 3366 
z
" transform="scale(0.015625)"/>
      </defs>
      <use xlink:href="#DejaVuSans-4c"/>
      <use xlink:href="#DejaVuSans-61" x="55.712891"/>
      <use xlink:href="#DejaVuSans-70" x="116.992188"/>
      <use xlink:href="#DejaVuSans-6c" x="180.46875"/>
      <use xlink:href="#DejaVuSans-61" x="208.251953"/>
      <use xlink:href="#DejaVuSans-63" x="269.53125"/>
      <use xlink:href="#DejaVuSans-65" x="324.511719"/>
      <use xlink:href="#DejaVuSans-20" x="386.035156"/>
      <use xlink:href="#DejaVuSans-66" x="417.822266"/>
      <use xlink:href="#DejaVuSans-69" x="453.027344"/>
      <use xlink:href="#DejaVuSans-74" x="480.810547"/>
     </g>
    </g>
    <g id="line2d_24">
     <path d="M 1019.17125 245.649375 
L 1043.17125 245.649375 
L 1067.17125 245.649375 
" style="fill: none; stroke: #8c564b; stroke-width: 2; stroke-linecap: square"/>
    </g>
    <g id="text_21">
     <!-- LogNorm fit -->
     <g transform="translate(1086.37125 254.049375)scale(0.24 -0.24)">
      <defs>
       <path id="DejaVuSans-67" d="M 2906 1791 
Q 2906 2416 2648 2759 
Q 2391 3103 1925 3103 
Q 1463 3103 1205 2759 
Q 947 2416 947 1791 
Q 947 1169 1205 825 
Q 1463 481 1925 481 
Q 2391 481 2648 825 
Q 2906 1169 2906 1791 
z
M 3481 434 
Q 3481 -459 3084 -895 
Q 2688 -1331 1869 -1331 
Q 1566 -1331 1297 -1286 
Q 1028 -1241 775 -1147 
L 775 -588 
Q 1028 -725 1275 -790 
Q 1522 -856 1778 -856 
Q 2344 -856 2625 -561 
Q 2906 -266 2906 331 
L 2906 616 
Q 2728 306 2450 153 
Q 2172 0 1784 0 
Q 1141 0 747 490 
Q 353 981 353 1791 
Q 353 2603 747 3093 
Q 1141 3584 1784 3584 
Q 2172 3584 2450 3431 
Q 2728 3278 2906 2969 
L 2906 3500 
L 3481 3500 
L 3481 434 
z
" transform="scale(0.015625)"/>
      </defs>
      <use xlink:href="#DejaVuSans-4c"/>
      <use xlink:href="#DejaVuSans-6f" x="53.962891"/>
      <use xlink:href="#DejaVuSans-67" x="115.144531"/>
      <use xlink:href="#DejaVuSans-4e" x="178.621094"/>
      <use xlink:href="#DejaVuSans-6f" x="253.425781"/>
      <use xlink:href="#DejaVuSans-72" x="314.607422"/>
      <use xlink:href="#DejaVuSans-6d" x="353.970703"/>
      <use xlink:href="#DejaVuSans-20" x="451.382812"/>
      <use xlink:href="#DejaVuSans-66" x="483.169922"/>
      <use xlink:href="#DejaVuSans-69" x="518.375"/>
      <use xlink:href="#DejaVuSans-74" x="546.158203"/>
     </g>
    </g>
    <g id="line2d_25">
     <path d="M 1019.17125 280.876875 
L 1043.17125 280.876875 
L 1067.17125 280.876875 
" style="fill: none; stroke: #e377c2; stroke-width: 2; stroke-linecap: square"/>
    </g>
    <g id="text_22">
     <!-- Normal fit -->
     <g transform="translate(1086.37125 289.276875)scale(0.24 -0.24)">
      <use xlink:href="#DejaVuSans-4e"/>
      <use xlink:href="#DejaVuSans-6f" x="74.804688"/>
      <use xlink:href="#DejaVuSans-72" x="135.986328"/>
      <use xlink:href="#DejaVuSans-6d" x="175.349609"/>
      <use xlink:href="#DejaVuSans-61" x="272.761719"/>
      <use xlink:href="#DejaVuSans-6c" x="334.041016"/>
      <use xlink:href="#DejaVuSans-20" x="361.824219"/>
      <use xlink:href="#DejaVuSans-66" x="393.611328"/>
      <use xlink:href="#DejaVuSans-69" x="428.816406"/>
      <use xlink:href="#DejaVuSans-74" x="456.599609"/>
     </g>
    </g>
   </g>
  </g>
 </g>
 <defs>
  <clipPath id="pd5c2ea5f27">
   <rect x="72.685313" y="38.075625" width="1356.514688" height="790.70375"/>
  </clipPath>
 </defs>
</svg>
