<?xml version="1.0" encoding="utf-8" standalone="no"?>
<!DOCTYPE svg PUBLIC "-//W3C//DTD SVG 1.1//EN"
  "http://www.w3.org/Graphics/SVG/1.1/DTD/svg11.dtd">
<svg xmlns:xlink="http://www.w3.org/1999/xlink" width="1440pt" height="864pt" viewBox="0 0 1440 864" xmlns="http://www.w3.org/2000/svg" version="1.1">
 <metadata>
  <rdf:RDF xmlns:dc="http://purl.org/dc/elements/1.1/" xmlns:cc="http://creativecommons.org/ns#" xmlns:rdf="http://www.w3.org/1999/02/22-rdf-syntax-ns#">
   <cc:Work>
    <dc:type rdf:resource="http://purl.org/dc/dcmitype/StillImage"/>
    <dc:date>2023-06-10T21:03:02.628737</dc:date>
    <dc:format>image/svg+xml</dc:format>
    <dc:creator>
     <cc:Agent>
      <dc:title>Matplotlib v3.7.1, https://matplotlib.org/</dc:title>
     </cc:Agent>
    </dc:creator>
   </cc:Work>
  </rdf:RDF>
 </metadata>
 <defs>
  <style type="text/css">*{stroke-linejoin: round; stroke-linecap: butt}</style>
 </defs>
 <g id="figure_1">
  <g id="patch_1">
   <path d="M 0 864 
L 1440 864 
L 1440 0 
L 0 0 
z
" style="fill: #ffffff"/>
  </g>
  <g id="axes_1">
   <g id="patch_2">
    <path d="M 72.685313 828.779375 
L 1429.2 828.779375 
L 1429.2 38.075625 
L 72.685313 38.075625 
z
" style="fill: #ffffff"/>
   </g>
   <g id="patch_3">
    <path d="M 134.345071 828.779375 
L 146.677023 828.779375 
L 146.677023 828.299113 
L 134.345071 828.299113 
z
" clip-path="url(#p08ab435c99)" style="fill: #1f77b4; opacity: 0.6"/>
   </g>
   <g id="patch_4">
    <path d="M 146.677023 828.779375 
L 159.008974 828.779375 
L 159.008974 825.897802 
L 146.677023 825.897802 
z
" clip-path="url(#p08ab435c99)" style="fill: #1f77b4; opacity: 0.6"/>
   </g>
   <g id="patch_5">
    <path d="M 159.008974 828.779375 
L 171.340926 828.779375 
L 171.340926 821.095179 
L 159.008974 821.095179 
z
" clip-path="url(#p08ab435c99)" style="fill: #1f77b4; opacity: 0.6"/>
   </g>
   <g id="patch_6">
    <path d="M 171.340926 828.779375 
L 183.672878 828.779375 
L 183.672878 818.213606 
L 171.340926 818.213606 
z
" clip-path="url(#p08ab435c99)" style="fill: #1f77b4; opacity: 0.6"/>
   </g>
   <g id="patch_7">
    <path d="M 183.672878 828.779375 
L 196.00483 828.779375 
L 196.00483 812.450459 
L 183.672878 812.450459 
z
" clip-path="url(#p08ab435c99)" style="fill: #1f77b4; opacity: 0.6"/>
   </g>
   <g id="patch_8">
    <path d="M 196.00483 828.779375 
L 208.336781 828.779375 
L 208.336781 800.443903 
L 196.00483 800.443903 
z
" clip-path="url(#p08ab435c99)" style="fill: #1f77b4; opacity: 0.6"/>
   </g>
   <g id="patch_9">
    <path d="M 208.336781 828.779375 
L 220.668733 828.779375 
L 220.668733 776.911053 
L 208.336781 776.911053 
z
" clip-path="url(#p08ab435c99)" style="fill: #1f77b4; opacity: 0.6"/>
   </g>
   <g id="patch_10">
    <path d="M 220.668733 828.779375 
L 233.000685 828.779375 
L 233.000685 766.825546 
L 220.668733 766.825546 
z
" clip-path="url(#p08ab435c99)" style="fill: #1f77b4; opacity: 0.6"/>
   </g>
   <g id="patch_11">
    <path d="M 233.000685 828.779375 
L 245.332636 828.779375 
L 245.332636 738.490074 
L 233.000685 738.490074 
z
" clip-path="url(#p08ab435c99)" style="fill: #1f77b4; opacity: 0.6"/>
   </g>
   <g id="patch_12">
    <path d="M 245.332636 828.779375 
L 257.664588 828.779375 
L 257.664588 717.838798 
L 245.332636 717.838798 
z
" clip-path="url(#p08ab435c99)" style="fill: #1f77b4; opacity: 0.6"/>
   </g>
   <g id="patch_13">
    <path d="M 257.664588 828.779375 
L 269.99654 828.779375 
L 269.99654 682.299392 
L 257.664588 682.299392 
z
" clip-path="url(#p08ab435c99)" style="fill: #1f77b4; opacity: 0.6"/>
   </g>
   <g id="patch_14">
    <path d="M 269.99654 828.779375 
L 282.328491 828.779375 
L 282.328491 669.812574 
L 269.99654 669.812574 
z
" clip-path="url(#p08ab435c99)" style="fill: #1f77b4; opacity: 0.6"/>
   </g>
   <g id="patch_15">
    <path d="M 282.328491 828.779375 
L 294.660443 828.779375 
L 294.660443 626.10871 
L 282.328491 626.10871 
z
" clip-path="url(#p08ab435c99)" style="fill: #1f77b4; opacity: 0.6"/>
   </g>
   <g id="patch_16">
    <path d="M 294.660443 828.779375 
L 306.992395 828.779375 
L 306.992395 596.332451 
L 294.660443 596.332451 
z
" clip-path="url(#p08ab435c99)" style="fill: #1f77b4; opacity: 0.6"/>
   </g>
   <g id="patch_17">
    <path d="M 306.992395 828.779375 
L 319.324347 828.779375 
L 319.324347 565.595668 
L 306.992395 565.595668 
z
" clip-path="url(#p08ab435c99)" style="fill: #1f77b4; opacity: 0.6"/>
   </g>
   <g id="patch_18">
    <path d="M 319.324347 828.779375 
L 331.656298 828.779375 
L 331.656298 507.483937 
L 319.324347 507.483937 
z
" clip-path="url(#p08ab435c99)" style="fill: #1f77b4; opacity: 0.6"/>
   </g>
   <g id="patch_19">
    <path d="M 331.656298 828.779375 
L 343.98825 828.779375 
L 343.98825 494.036595 
L 331.656298 494.036595 
z
" clip-path="url(#p08ab435c99)" style="fill: #1f77b4; opacity: 0.6"/>
   </g>
   <g id="patch_20">
    <path d="M 343.98825 828.779375 
L 356.320202 828.779375 
L 356.320202 449.372206 
L 343.98825 449.372206 
z
" clip-path="url(#p08ab435c99)" style="fill: #1f77b4; opacity: 0.6"/>
   </g>
   <g id="patch_21">
    <path d="M 356.320202 828.779375 
L 368.652153 828.779375 
L 368.652153 399.424933 
L 356.320202 399.424933 
z
" clip-path="url(#p08ab435c99)" style="fill: #1f77b4; opacity: 0.6"/>
   </g>
   <g id="patch_22">
    <path d="M 368.652153 828.779375 
L 380.984105 828.779375 
L 380.984105 351.39871 
L 368.652153 351.39871 
z
" clip-path="url(#p08ab435c99)" style="fill: #1f77b4; opacity: 0.6"/>
   </g>
   <g id="patch_23">
    <path d="M 380.984105 828.779375 
L 393.316057 828.779375 
L 393.316057 309.615895 
L 380.984105 309.615895 
z
" clip-path="url(#p08ab435c99)" style="fill: #1f77b4; opacity: 0.6"/>
   </g>
   <g id="patch_24">
    <path d="M 393.316057 828.779375 
L 405.648009 828.779375 
L 405.648009 262.550195 
L 393.316057 262.550195 
z
" clip-path="url(#p08ab435c99)" style="fill: #1f77b4; opacity: 0.6"/>
   </g>
   <g id="patch_25">
    <path d="M 405.648009 828.779375 
L 417.97996 828.779375 
L 417.97996 256.306786 
L 405.648009 256.306786 
z
" clip-path="url(#p08ab435c99)" style="fill: #1f77b4; opacity: 0.6"/>
   </g>
   <g id="patch_26">
    <path d="M 417.97996 828.779375 
L 430.311912 828.779375 
L 430.311912 217.405545 
L 417.97996 217.405545 
z
" clip-path="url(#p08ab435c99)" style="fill: #1f77b4; opacity: 0.6"/>
   </g>
   <g id="patch_27">
    <path d="M 430.311912 828.779375 
L 442.643864 828.779375 
L 442.643864 170.820108 
L 430.311912 170.820108 
z
" clip-path="url(#p08ab435c99)" style="fill: #1f77b4; opacity: 0.6"/>
   </g>
   <g id="patch_28">
    <path d="M 442.643864 828.779375 
L 454.975815 828.779375 
L 454.975815 173.221419 
L 442.643864 173.221419 
z
" clip-path="url(#p08ab435c99)" style="fill: #1f77b4; opacity: 0.6"/>
   </g>
   <g id="patch_29">
    <path d="M 454.975815 828.779375 
L 467.307767 828.779375 
L 467.307767 118.471524 
L 454.975815 118.471524 
z
" clip-path="url(#p08ab435c99)" style="fill: #1f77b4; opacity: 0.6"/>
   </g>
   <g id="patch_30">
    <path d="M 467.307767 828.779375 
L 479.639719 828.779375 
L 479.639719 142.484636 
L 467.307767 142.484636 
z
" clip-path="url(#p08ab435c99)" style="fill: #1f77b4; opacity: 0.6"/>
   </g>
   <g id="patch_31">
    <path d="M 479.639719 828.779375 
L 491.97167 828.779375 
L 491.97167 90.616314 
L 479.639719 90.616314 
z
" clip-path="url(#p08ab435c99)" style="fill: #1f77b4; opacity: 0.6"/>
   </g>
   <g id="patch_32">
    <path d="M 491.97167 828.779375 
L 504.303622 828.779375 
L 504.303622 106.464968 
L 491.97167 106.464968 
z
" clip-path="url(#p08ab435c99)" style="fill: #1f77b4; opacity: 0.6"/>
   </g>
   <g id="patch_33">
    <path d="M 504.303622 828.779375 
L 516.635574 828.779375 
L 516.635574 101.662345 
L 504.303622 101.662345 
z
" clip-path="url(#p08ab435c99)" style="fill: #1f77b4; opacity: 0.6"/>
   </g>
   <g id="patch_34">
    <path d="M 516.635574 828.779375 
L 528.967526 828.779375 
L 528.967526 75.728185 
L 516.635574 75.728185 
z
" clip-path="url(#p08ab435c99)" style="fill: #1f77b4; opacity: 0.6"/>
   </g>
   <g id="patch_35">
    <path d="M 528.967526 828.779375 
L 541.299477 828.779375 
L 541.299477 99.261034 
L 528.967526 99.261034 
z
" clip-path="url(#p08ab435c99)" style="fill: #1f77b4; opacity: 0.6"/>
   </g>
   <g id="patch_36">
    <path d="M 541.299477 828.779375 
L 553.631429 828.779375 
L 553.631429 121.833359 
L 541.299477 121.833359 
z
" clip-path="url(#p08ab435c99)" style="fill: #1f77b4; opacity: 0.6"/>
   </g>
   <g id="patch_37">
    <path d="M 553.631429 828.779375 
L 565.963381 828.779375 
L 565.963381 125.195195 
L 553.631429 125.195195 
z
" clip-path="url(#p08ab435c99)" style="fill: #1f77b4; opacity: 0.6"/>
   </g>
   <g id="patch_38">
    <path d="M 565.963381 828.779375 
L 578.295332 828.779375 
L 578.295332 136.721489 
L 565.963381 136.721489 
z
" clip-path="url(#p08ab435c99)" style="fill: #1f77b4; opacity: 0.6"/>
   </g>
   <g id="patch_39">
    <path d="M 578.295332 828.779375 
L 590.627284 828.779375 
L 590.627284 137.682013 
L 578.295332 137.682013 
z
" clip-path="url(#p08ab435c99)" style="fill: #1f77b4; opacity: 0.6"/>
   </g>
   <g id="patch_40">
    <path d="M 590.627284 828.779375 
L 602.959236 828.779375 
L 602.959236 153.050405 
L 590.627284 153.050405 
z
" clip-path="url(#p08ab435c99)" style="fill: #1f77b4; opacity: 0.6"/>
   </g>
   <g id="patch_41">
    <path d="M 602.959236 828.779375 
L 615.291187 828.779375 
L 615.291187 189.550335 
L 602.959236 189.550335 
z
" clip-path="url(#p08ab435c99)" style="fill: #1f77b4; opacity: 0.6"/>
   </g>
   <g id="patch_42">
    <path d="M 615.291187 828.779375 
L 627.623139 828.779375 
L 627.623139 199.635842 
L 615.291187 199.635842 
z
" clip-path="url(#p08ab435c99)" style="fill: #1f77b4; opacity: 0.6"/>
   </g>
   <g id="patch_43">
    <path d="M 627.623139 828.779375 
L 639.955091 828.779375 
L 639.955091 237.096297 
L 627.623139 237.096297 
z
" clip-path="url(#p08ab435c99)" style="fill: #1f77b4; opacity: 0.6"/>
   </g>
   <g id="patch_44">
    <path d="M 639.955091 828.779375 
L 652.287043 828.779375 
L 652.287043 285.122521 
L 639.955091 285.122521 
z
" clip-path="url(#p08ab435c99)" style="fill: #1f77b4; opacity: 0.6"/>
   </g>
   <g id="patch_45">
    <path d="M 652.287043 828.779375 
L 664.618994 828.779375 
L 664.618994 274.556751 
L 652.287043 274.556751 
z
" clip-path="url(#p08ab435c99)" style="fill: #1f77b4; opacity: 0.6"/>
   </g>
   <g id="patch_46">
    <path d="M 664.618994 828.779375 
L 676.950946 828.779375 
L 676.950946 347.556612 
L 664.618994 347.556612 
z
" clip-path="url(#p08ab435c99)" style="fill: #1f77b4; opacity: 0.6"/>
   </g>
   <g id="patch_47">
    <path d="M 676.950946 828.779375 
L 689.282898 828.779375 
L 689.282898 356.201332 
L 676.950946 356.201332 
z
" clip-path="url(#p08ab435c99)" style="fill: #1f77b4; opacity: 0.6"/>
   </g>
   <g id="patch_48">
    <path d="M 689.282898 828.779375 
L 701.614849 828.779375 
L 701.614849 399.424933 
L 689.282898 399.424933 
z
" clip-path="url(#p08ab435c99)" style="fill: #1f77b4; opacity: 0.6"/>
   </g>
   <g id="patch_49">
    <path d="M 701.614849 828.779375 
L 713.946801 828.779375 
L 713.946801 431.122241 
L 701.614849 431.122241 
z
" clip-path="url(#p08ab435c99)" style="fill: #1f77b4; opacity: 0.6"/>
   </g>
   <g id="patch_50">
    <path d="M 713.946801 828.779375 
L 726.278753 828.779375 
L 726.278753 448.411682 
L 713.946801 448.411682 
z
" clip-path="url(#p08ab435c99)" style="fill: #1f77b4; opacity: 0.6"/>
   </g>
   <g id="patch_51">
    <path d="M 726.278753 828.779375 
L 738.610705 828.779375 
L 738.610705 462.339287 
L 726.278753 462.339287 
z
" clip-path="url(#p08ab435c99)" style="fill: #1f77b4; opacity: 0.6"/>
   </g>
   <g id="patch_52">
    <path d="M 738.610705 828.779375 
L 750.942656 828.779375 
L 750.942656 510.365511 
L 738.610705 510.365511 
z
" clip-path="url(#p08ab435c99)" style="fill: #1f77b4; opacity: 0.6"/>
   </g>
   <g id="patch_53">
    <path d="M 750.942656 828.779375 
L 763.274608 828.779375 
L 763.274608 524.773378 
L 750.942656 524.773378 
z
" clip-path="url(#p08ab435c99)" style="fill: #1f77b4; opacity: 0.6"/>
   </g>
   <g id="patch_54">
    <path d="M 763.274608 828.779375 
L 775.60656 828.779375 
L 775.60656 556.950948 
L 763.274608 556.950948 
z
" clip-path="url(#p08ab435c99)" style="fill: #1f77b4; opacity: 0.6"/>
   </g>
   <g id="patch_55">
    <path d="M 775.60656 828.779375 
L 787.938511 828.779375 
L 787.938511 593.450878 
L 775.60656 593.450878 
z
" clip-path="url(#p08ab435c99)" style="fill: #1f77b4; opacity: 0.6"/>
   </g>
   <g id="patch_56">
    <path d="M 787.938511 828.779375 
L 800.270463 828.779375 
L 800.270463 599.214025 
L 787.938511 599.214025 
z
" clip-path="url(#p08ab435c99)" style="fill: #1f77b4; opacity: 0.6"/>
   </g>
   <g id="patch_57">
    <path d="M 800.270463 828.779375 
L 812.602415 828.779375 
L 812.602415 629.950808 
L 800.270463 629.950808 
z
" clip-path="url(#p08ab435c99)" style="fill: #1f77b4; opacity: 0.6"/>
   </g>
   <g id="patch_58">
    <path d="M 812.602415 828.779375 
L 824.934366 828.779375 
L 824.934366 639.075791 
L 812.602415 639.075791 
z
" clip-path="url(#p08ab435c99)" style="fill: #1f77b4; opacity: 0.6"/>
   </g>
   <g id="patch_59">
    <path d="M 824.934366 828.779375 
L 837.266318 828.779375 
L 837.266318 668.852049 
L 824.934366 668.852049 
z
" clip-path="url(#p08ab435c99)" style="fill: #1f77b4; opacity: 0.6"/>
   </g>
   <g id="patch_60">
    <path d="M 837.266318 828.779375 
L 849.59827 828.779375 
L 849.59827 684.220441 
L 837.266318 684.220441 
z
" clip-path="url(#p08ab435c99)" style="fill: #1f77b4; opacity: 0.6"/>
   </g>
   <g id="patch_61">
    <path d="M 849.59827 828.779375 
L 861.930222 828.779375 
L 861.930222 701.990144 
L 849.59827 701.990144 
z
" clip-path="url(#p08ab435c99)" style="fill: #1f77b4; opacity: 0.6"/>
   </g>
   <g id="patch_62">
    <path d="M 861.930222 828.779375 
L 874.262173 828.779375 
L 874.262173 697.667784 
L 861.930222 697.667784 
z
" clip-path="url(#p08ab435c99)" style="fill: #1f77b4; opacity: 0.6"/>
   </g>
   <g id="patch_63">
    <path d="M 874.262173 828.779375 
L 886.594125 828.779375 
L 886.594125 714.476962 
L 874.262173 714.476962 
z
" clip-path="url(#p08ab435c99)" style="fill: #1f77b4; opacity: 0.6"/>
   </g>
   <g id="patch_64">
    <path d="M 886.594125 828.779375 
L 898.926077 828.779375 
L 898.926077 733.687452 
L 886.594125 733.687452 
z
" clip-path="url(#p08ab435c99)" style="fill: #1f77b4; opacity: 0.6"/>
   </g>
   <g id="patch_65">
    <path d="M 898.926077 828.779375 
L 911.258028 828.779375 
L 911.258028 753.858466 
L 898.926077 753.858466 
z
" clip-path="url(#p08ab435c99)" style="fill: #1f77b4; opacity: 0.6"/>
   </g>
   <g id="patch_66">
    <path d="M 911.258028 828.779375 
L 923.58998 828.779375 
L 923.58998 752.897941 
L 911.258028 752.897941 
z
" clip-path="url(#p08ab435c99)" style="fill: #1f77b4; opacity: 0.6"/>
   </g>
   <g id="patch_67">
    <path d="M 923.58998 828.779375 
L 935.921932 828.779375 
L 935.921932 773.549218 
L 923.58998 773.549218 
z
" clip-path="url(#p08ab435c99)" style="fill: #1f77b4; opacity: 0.6"/>
   </g>
   <g id="patch_68">
    <path d="M 935.921932 828.779375 
L 948.253884 828.779375 
L 948.253884 776.430791 
L 935.921932 776.430791 
z
" clip-path="url(#p08ab435c99)" style="fill: #1f77b4; opacity: 0.6"/>
   </g>
   <g id="patch_69">
    <path d="M 948.253884 828.779375 
L 960.585835 828.779375 
L 960.585835 787.476822 
L 948.253884 787.476822 
z
" clip-path="url(#p08ab435c99)" style="fill: #1f77b4; opacity: 0.6"/>
   </g>
   <g id="patch_70">
    <path d="M 960.585835 828.779375 
L 972.917787 828.779375 
L 972.917787 786.516298 
L 960.585835 786.516298 
z
" clip-path="url(#p08ab435c99)" style="fill: #1f77b4; opacity: 0.6"/>
   </g>
   <g id="patch_71">
    <path d="M 972.917787 828.779375 
L 985.249739 828.779375 
L 985.249739 786.516298 
L 972.917787 786.516298 
z
" clip-path="url(#p08ab435c99)" style="fill: #1f77b4; opacity: 0.6"/>
   </g>
   <g id="patch_72">
    <path d="M 985.249739 828.779375 
L 997.58169 828.779375 
L 997.58169 800.924165 
L 985.249739 800.924165 
z
" clip-path="url(#p08ab435c99)" style="fill: #1f77b4; opacity: 0.6"/>
   </g>
   <g id="patch_73">
    <path d="M 997.58169 828.779375 
L 1009.913642 828.779375 
L 1009.913642 802.364952 
L 997.58169 802.364952 
z
" clip-path="url(#p08ab435c99)" style="fill: #1f77b4; opacity: 0.6"/>
   </g>
   <g id="patch_74">
    <path d="M 1009.913642 828.779375 
L 1022.245594 828.779375 
L 1022.245594 813.410983 
L 1009.913642 813.410983 
z
" clip-path="url(#p08ab435c99)" style="fill: #1f77b4; opacity: 0.6"/>
   </g>
   <g id="patch_75">
    <path d="M 1022.245594 828.779375 
L 1034.577545 828.779375 
L 1034.577545 813.410983 
L 1022.245594 813.410983 
z
" clip-path="url(#p08ab435c99)" style="fill: #1f77b4; opacity: 0.6"/>
   </g>
   <g id="patch_76">
    <path d="M 1034.577545 828.779375 
L 1046.909497 828.779375 
L 1046.909497 812.930721 
L 1034.577545 812.930721 
z
" clip-path="url(#p08ab435c99)" style="fill: #1f77b4; opacity: 0.6"/>
   </g>
   <g id="patch_77">
    <path d="M 1046.909497 828.779375 
L 1059.241449 828.779375 
L 1059.241449 817.733344 
L 1046.909497 817.733344 
z
" clip-path="url(#p08ab435c99)" style="fill: #1f77b4; opacity: 0.6"/>
   </g>
   <g id="patch_78">
    <path d="M 1059.241449 828.779375 
L 1071.573401 828.779375 
L 1071.573401 818.213606 
L 1059.241449 818.213606 
z
" clip-path="url(#p08ab435c99)" style="fill: #1f77b4; opacity: 0.6"/>
   </g>
   <g id="patch_79">
    <path d="M 1071.573401 828.779375 
L 1083.905352 828.779375 
L 1083.905352 819.17413 
L 1071.573401 819.17413 
z
" clip-path="url(#p08ab435c99)" style="fill: #1f77b4; opacity: 0.6"/>
   </g>
   <g id="patch_80">
    <path d="M 1083.905352 828.779375 
L 1096.237304 828.779375 
L 1096.237304 820.614917 
L 1083.905352 820.614917 
z
" clip-path="url(#p08ab435c99)" style="fill: #1f77b4; opacity: 0.6"/>
   </g>
   <g id="patch_81">
    <path d="M 1096.237304 828.779375 
L 1108.569256 828.779375 
L 1108.569256 825.417539 
L 1096.237304 825.417539 
z
" clip-path="url(#p08ab435c99)" style="fill: #1f77b4; opacity: 0.6"/>
   </g>
   <g id="patch_82">
    <path d="M 1108.569256 828.779375 
L 1120.901207 828.779375 
L 1120.901207 823.49649 
L 1108.569256 823.49649 
z
" clip-path="url(#p08ab435c99)" style="fill: #1f77b4; opacity: 0.6"/>
   </g>
   <g id="patch_83">
    <path d="M 1120.901207 828.779375 
L 1133.233159 828.779375 
L 1133.233159 823.976753 
L 1120.901207 823.976753 
z
" clip-path="url(#p08ab435c99)" style="fill: #1f77b4; opacity: 0.6"/>
   </g>
   <g id="patch_84">
    <path d="M 1133.233159 828.779375 
L 1145.565111 828.779375 
L 1145.565111 823.49649 
L 1133.233159 823.49649 
z
" clip-path="url(#p08ab435c99)" style="fill: #1f77b4; opacity: 0.6"/>
   </g>
   <g id="patch_85">
    <path d="M 1145.565111 828.779375 
L 1157.897062 828.779375 
L 1157.897062 825.897802 
L 1145.565111 825.897802 
z
" clip-path="url(#p08ab435c99)" style="fill: #1f77b4; opacity: 0.6"/>
   </g>
   <g id="patch_86">
    <path d="M 1157.897062 828.779375 
L 1170.229014 828.779375 
L 1170.229014 825.417539 
L 1157.897062 825.417539 
z
" clip-path="url(#p08ab435c99)" style="fill: #1f77b4; opacity: 0.6"/>
   </g>
   <g id="patch_87">
    <path d="M 1170.229014 828.779375 
L 1182.560966 828.779375 
L 1182.560966 824.937277 
L 1170.229014 824.937277 
z
" clip-path="url(#p08ab435c99)" style="fill: #1f77b4; opacity: 0.6"/>
   </g>
   <g id="patch_88">
    <path d="M 1182.560966 828.779375 
L 1194.892918 828.779375 
L 1194.892918 826.378064 
L 1182.560966 826.378064 
z
" clip-path="url(#p08ab435c99)" style="fill: #1f77b4; opacity: 0.6"/>
   </g>
   <g id="patch_89">
    <path d="M 1194.892918 828.779375 
L 1207.224869 828.779375 
L 1207.224869 828.299113 
L 1194.892918 828.299113 
z
" clip-path="url(#p08ab435c99)" style="fill: #1f77b4; opacity: 0.6"/>
   </g>
   <g id="patch_90">
    <path d="M 1207.224869 828.779375 
L 1219.556821 828.779375 
L 1219.556821 828.779375 
L 1207.224869 828.779375 
z
" clip-path="url(#p08ab435c99)" style="fill: #1f77b4; opacity: 0.6"/>
   </g>
   <g id="patch_91">
    <path d="M 1219.556821 828.779375 
L 1231.888773 828.779375 
L 1231.888773 826.858326 
L 1219.556821 826.858326 
z
" clip-path="url(#p08ab435c99)" style="fill: #1f77b4; opacity: 0.6"/>
   </g>
   <g id="patch_92">
    <path d="M 1231.888773 828.779375 
L 1244.220724 828.779375 
L 1244.220724 827.818851 
L 1231.888773 827.818851 
z
" clip-path="url(#p08ab435c99)" style="fill: #1f77b4; opacity: 0.6"/>
   </g>
   <g id="patch_93">
    <path d="M 1244.220724 828.779375 
L 1256.552676 828.779375 
L 1256.552676 827.338588 
L 1244.220724 827.338588 
z
" clip-path="url(#p08ab435c99)" style="fill: #1f77b4; opacity: 0.6"/>
   </g>
   <g id="patch_94">
    <path d="M 1256.552676 828.779375 
L 1268.884628 828.779375 
L 1268.884628 828.299113 
L 1256.552676 828.299113 
z
" clip-path="url(#p08ab435c99)" style="fill: #1f77b4; opacity: 0.6"/>
   </g>
   <g id="patch_95">
    <path d="M 1268.884628 828.779375 
L 1281.21658 828.779375 
L 1281.21658 828.779375 
L 1268.884628 828.779375 
z
" clip-path="url(#p08ab435c99)" style="fill: #1f77b4; opacity: 0.6"/>
   </g>
   <g id="patch_96">
    <path d="M 1281.21658 828.779375 
L 1293.548531 828.779375 
L 1293.548531 828.779375 
L 1281.21658 828.779375 
z
" clip-path="url(#p08ab435c99)" style="fill: #1f77b4; opacity: 0.6"/>
   </g>
   <g id="patch_97">
    <path d="M 1293.548531 828.779375 
L 1305.880483 828.779375 
L 1305.880483 828.299113 
L 1293.548531 828.299113 
z
" clip-path="url(#p08ab435c99)" style="fill: #1f77b4; opacity: 0.6"/>
   </g>
   <g id="patch_98">
    <path d="M 1305.880483 828.779375 
L 1318.212435 828.779375 
L 1318.212435 828.779375 
L 1305.880483 828.779375 
z
" clip-path="url(#p08ab435c99)" style="fill: #1f77b4; opacity: 0.6"/>
   </g>
   <g id="patch_99">
    <path d="M 1318.212435 828.779375 
L 1330.544386 828.779375 
L 1330.544386 828.779375 
L 1318.212435 828.779375 
z
" clip-path="url(#p08ab435c99)" style="fill: #1f77b4; opacity: 0.6"/>
   </g>
   <g id="patch_100">
    <path d="M 1330.544386 828.779375 
L 1342.876338 828.779375 
L 1342.876338 828.779375 
L 1330.544386 828.779375 
z
" clip-path="url(#p08ab435c99)" style="fill: #1f77b4; opacity: 0.6"/>
   </g>
   <g id="patch_101">
    <path d="M 1342.876338 828.779375 
L 1355.20829 828.779375 
L 1355.20829 828.779375 
L 1342.876338 828.779375 
z
" clip-path="url(#p08ab435c99)" style="fill: #1f77b4; opacity: 0.6"/>
   </g>
   <g id="patch_102">
    <path d="M 1355.20829 828.779375 
L 1367.540241 828.779375 
L 1367.540241 828.299113 
L 1355.20829 828.299113 
z
" clip-path="url(#p08ab435c99)" style="fill: #1f77b4; opacity: 0.6"/>
   </g>
   <g id="matplotlib.axis_1">
    <g id="xtick_1">
     <g id="line2d_1">
      <defs>
       <path id="m64924986a9" d="M 0 0 
L 0 3.5 
" style="stroke: #000000; stroke-width: 0.8"/>
      </defs>
      <g>
       <use xlink:href="#m64924986a9" x="114.363568" y="828.779375" style="stroke: #000000; stroke-width: 0.8"/>
      </g>
     </g>
     <g id="text_1">
      <!-- 0 -->
      <g transform="translate(108.637318 849.456562) scale(0.18 -0.18)">
       <defs>
        <path id="DejaVuSans-30" d="M 2034 4250 
Q 1547 4250 1301 3770 
Q 1056 3291 1056 2328 
Q 1056 1369 1301 889 
Q 1547 409 2034 409 
Q 2525 409 2770 889 
Q 3016 1369 3016 2328 
Q 3016 3291 2770 3770 
Q 2525 4250 2034 4250 
z
M 2034 4750 
Q 2819 4750 3233 4129 
Q 3647 3509 3647 2328 
Q 3647 1150 3233 529 
Q 2819 -91 2034 -91 
Q 1250 -91 836 529 
Q 422 1150 422 2328 
Q 422 3509 836 4129 
Q 1250 4750 2034 4750 
z
" transform="scale(0.015625)"/>
       </defs>
       <use xlink:href="#DejaVuSans-30"/>
      </g>
     </g>
    </g>
    <g id="xtick_2">
     <g id="line2d_2">
      <g>
       <use xlink:href="#m64924986a9" x="347.615845" y="828.779375" style="stroke: #000000; stroke-width: 0.8"/>
      </g>
     </g>
     <g id="text_2">
      <!-- 1 -->
      <g transform="translate(341.889595 849.456562) scale(0.18 -0.18)">
       <defs>
        <path id="DejaVuSans-31" d="M 794 531 
L 1825 531 
L 1825 4091 
L 703 3866 
L 703 4441 
L 1819 4666 
L 2450 4666 
L 2450 531 
L 3481 531 
L 3481 0 
L 794 0 
L 794 531 
z
" transform="scale(0.015625)"/>
       </defs>
       <use xlink:href="#DejaVuSans-31"/>
      </g>
     </g>
    </g>
    <g id="xtick_3">
     <g id="line2d_3">
      <g>
       <use xlink:href="#m64924986a9" x="580.868121" y="828.779375" style="stroke: #000000; stroke-width: 0.8"/>
      </g>
     </g>
     <g id="text_3">
      <!-- 2 -->
      <g transform="translate(575.141871 849.456562) scale(0.18 -0.18)">
       <defs>
        <path id="DejaVuSans-32" d="M 1228 531 
L 3431 531 
L 3431 0 
L 469 0 
L 469 531 
Q 828 903 1448 1529 
Q 2069 2156 2228 2338 
Q 2531 2678 2651 2914 
Q 2772 3150 2772 3378 
Q 2772 3750 2511 3984 
Q 2250 4219 1831 4219 
Q 1534 4219 1204 4116 
Q 875 4013 500 3803 
L 500 4441 
Q 881 4594 1212 4672 
Q 1544 4750 1819 4750 
Q 2544 4750 2975 4387 
Q 3406 4025 3406 3419 
Q 3406 3131 3298 2873 
Q 3191 2616 2906 2266 
Q 2828 2175 2409 1742 
Q 1991 1309 1228 531 
z
" transform="scale(0.015625)"/>
       </defs>
       <use xlink:href="#DejaVuSans-32"/>
      </g>
     </g>
    </g>
    <g id="xtick_4">
     <g id="line2d_4">
      <g>
       <use xlink:href="#m64924986a9" x="814.120398" y="828.779375" style="stroke: #000000; stroke-width: 0.8"/>
      </g>
     </g>
     <g id="text_4">
      <!-- 3 -->
      <g transform="translate(808.394148 849.456562) scale(0.18 -0.18)">
       <defs>
        <path id="DejaVuSans-33" d="M 2597 2516 
Q 3050 2419 3304 2112 
Q 3559 1806 3559 1356 
Q 3559 666 3084 287 
Q 2609 -91 1734 -91 
Q 1441 -91 1130 -33 
Q 819 25 488 141 
L 488 750 
Q 750 597 1062 519 
Q 1375 441 1716 441 
Q 2309 441 2620 675 
Q 2931 909 2931 1356 
Q 2931 1769 2642 2001 
Q 2353 2234 1838 2234 
L 1294 2234 
L 1294 2753 
L 1863 2753 
Q 2328 2753 2575 2939 
Q 2822 3125 2822 3475 
Q 2822 3834 2567 4026 
Q 2313 4219 1838 4219 
Q 1578 4219 1281 4162 
Q 984 4106 628 3988 
L 628 4550 
Q 988 4650 1302 4700 
Q 1616 4750 1894 4750 
Q 2613 4750 3031 4423 
Q 3450 4097 3450 3541 
Q 3450 3153 3228 2886 
Q 3006 2619 2597 2516 
z
" transform="scale(0.015625)"/>
       </defs>
       <use xlink:href="#DejaVuSans-33"/>
      </g>
     </g>
    </g>
    <g id="xtick_5">
     <g id="line2d_5">
      <g>
       <use xlink:href="#m64924986a9" x="1047.372675" y="828.779375" style="stroke: #000000; stroke-width: 0.8"/>
      </g>
     </g>
     <g id="text_5">
      <!-- 4 -->
      <g transform="translate(1041.646425 849.456562) scale(0.18 -0.18)">
       <defs>
        <path id="DejaVuSans-34" d="M 2419 4116 
L 825 1625 
L 2419 1625 
L 2419 4116 
z
M 2253 4666 
L 3047 4666 
L 3047 1625 
L 3713 1625 
L 3713 1100 
L 3047 1100 
L 3047 0 
L 2419 0 
L 2419 1100 
L 313 1100 
L 313 1709 
L 2253 4666 
z
" transform="scale(0.015625)"/>
       </defs>
       <use xlink:href="#DejaVuSans-34"/>
      </g>
     </g>
    </g>
    <g id="xtick_6">
     <g id="line2d_6">
      <g>
       <use xlink:href="#m64924986a9" x="1280.624952" y="828.779375" style="stroke: #000000; stroke-width: 0.8"/>
      </g>
     </g>
     <g id="text_6">
      <!-- 5 -->
      <g transform="translate(1274.898702 849.456562) scale(0.18 -0.18)">
       <defs>
        <path id="DejaVuSans-35" d="M 691 4666 
L 3169 4666 
L 3169 4134 
L 1269 4134 
L 1269 2991 
Q 1406 3038 1543 3061 
Q 1681 3084 1819 3084 
Q 2600 3084 3056 2656 
Q 3513 2228 3513 1497 
Q 3513 744 3044 326 
Q 2575 -91 1722 -91 
Q 1428 -91 1123 -41 
Q 819 9 494 109 
L 494 744 
Q 775 591 1075 516 
Q 1375 441 1709 441 
Q 2250 441 2565 725 
Q 2881 1009 2881 1497 
Q 2881 1984 2565 2268 
Q 2250 2553 1709 2553 
Q 1456 2553 1204 2497 
Q 953 2441 691 2322 
L 691 4666 
z
" transform="scale(0.015625)"/>
       </defs>
       <use xlink:href="#DejaVuSans-35"/>
      </g>
     </g>
    </g>
   </g>
   <g id="matplotlib.axis_2">
    <g id="ytick_1">
     <g id="line2d_7">
      <defs>
       <path id="m433982f763" d="M 0 0 
L -3.5 0 
" style="stroke: #000000; stroke-width: 0.8"/>
      </defs>
      <g>
       <use xlink:href="#m433982f763" x="72.685313" y="828.779375" style="stroke: #000000; stroke-width: 0.8"/>
      </g>
     </g>
     <g id="text_7">
      <!-- 0.0 -->
      <g transform="translate(37.059688 835.617969) scale(0.18 -0.18)">
       <defs>
        <path id="DejaVuSans-2e" d="M 684 794 
L 1344 794 
L 1344 0 
L 684 0 
L 684 794 
z
" transform="scale(0.015625)"/>
       </defs>
       <use xlink:href="#DejaVuSans-30"/>
       <use xlink:href="#DejaVuSans-2e" x="63.623047"/>
       <use xlink:href="#DejaVuSans-30" x="95.410156"/>
      </g>
     </g>
    </g>
    <g id="ytick_2">
     <g id="line2d_8">
      <g>
       <use xlink:href="#m433982f763" x="72.685313" y="701.823042" style="stroke: #000000; stroke-width: 0.8"/>
      </g>
     </g>
     <g id="text_8">
      <!-- 0.1 -->
      <g transform="translate(37.059688 708.661636) scale(0.18 -0.18)">
       <use xlink:href="#DejaVuSans-30"/>
       <use xlink:href="#DejaVuSans-2e" x="63.623047"/>
       <use xlink:href="#DejaVuSans-31" x="95.410156"/>
      </g>
     </g>
    </g>
    <g id="ytick_3">
     <g id="line2d_9">
      <g>
       <use xlink:href="#m433982f763" x="72.685313" y="574.866709" style="stroke: #000000; stroke-width: 0.8"/>
      </g>
     </g>
     <g id="text_9">
      <!-- 0.2 -->
      <g transform="translate(37.059688 581.705303) scale(0.18 -0.18)">
       <use xlink:href="#DejaVuSans-30"/>
       <use xlink:href="#DejaVuSans-2e" x="63.623047"/>
       <use xlink:href="#DejaVuSans-32" x="95.410156"/>
      </g>
     </g>
    </g>
    <g id="ytick_4">
     <g id="line2d_10">
      <g>
       <use xlink:href="#m433982f763" x="72.685313" y="447.910377" style="stroke: #000000; stroke-width: 0.8"/>
      </g>
     </g>
     <g id="text_10">
      <!-- 0.3 -->
      <g transform="translate(37.059688 454.74897) scale(0.18 -0.18)">
       <use xlink:href="#DejaVuSans-30"/>
       <use xlink:href="#DejaVuSans-2e" x="63.623047"/>
       <use xlink:href="#DejaVuSans-33" x="95.410156"/>
      </g>
     </g>
    </g>
    <g id="ytick_5">
     <g id="line2d_11">
      <g>
       <use xlink:href="#m433982f763" x="72.685313" y="320.954044" style="stroke: #000000; stroke-width: 0.8"/>
      </g>
     </g>
     <g id="text_11">
      <!-- 0.4 -->
      <g transform="translate(37.059688 327.792638) scale(0.18 -0.18)">
       <use xlink:href="#DejaVuSans-30"/>
       <use xlink:href="#DejaVuSans-2e" x="63.623047"/>
       <use xlink:href="#DejaVuSans-34" x="95.410156"/>
      </g>
     </g>
    </g>
    <g id="ytick_6">
     <g id="line2d_12">
      <g>
       <use xlink:href="#m433982f763" x="72.685313" y="193.997711" style="stroke: #000000; stroke-width: 0.8"/>
      </g>
     </g>
     <g id="text_12">
      <!-- 0.5 -->
      <g transform="translate(37.059688 200.836305) scale(0.18 -0.18)">
       <use xlink:href="#DejaVuSans-30"/>
       <use xlink:href="#DejaVuSans-2e" x="63.623047"/>
       <use xlink:href="#DejaVuSans-35" x="95.410156"/>
      </g>
     </g>
    </g>
    <g id="ytick_7">
     <g id="line2d_13">
      <g>
       <use xlink:href="#m433982f763" x="72.685313" y="67.041378" style="stroke: #000000; stroke-width: 0.8"/>
      </g>
     </g>
     <g id="text_13">
      <!-- 0.6 -->
      <g transform="translate(37.059688 73.879972) scale(0.18 -0.18)">
       <defs>
        <path id="DejaVuSans-36" d="M 2113 2584 
Q 1688 2584 1439 2293 
Q 1191 2003 1191 1497 
Q 1191 994 1439 701 
Q 1688 409 2113 409 
Q 2538 409 2786 701 
Q 3034 994 3034 1497 
Q 3034 2003 2786 2293 
Q 2538 2584 2113 2584 
z
M 3366 4563 
L 3366 3988 
Q 3128 4100 2886 4159 
Q 2644 4219 2406 4219 
Q 1781 4219 1451 3797 
Q 1122 3375 1075 2522 
Q 1259 2794 1537 2939 
Q 1816 3084 2150 3084 
Q 2853 3084 3261 2657 
Q 3669 2231 3669 1497 
Q 3669 778 3244 343 
Q 2819 -91 2113 -91 
Q 1303 -91 875 529 
Q 447 1150 447 2328 
Q 447 3434 972 4092 
Q 1497 4750 2381 4750 
Q 2619 4750 2861 4703 
Q 3103 4656 3366 4563 
z
" transform="scale(0.015625)"/>
       </defs>
       <use xlink:href="#DejaVuSans-30"/>
       <use xlink:href="#DejaVuSans-2e" x="63.623047"/>
       <use xlink:href="#DejaVuSans-36" x="95.410156"/>
      </g>
     </g>
    </g>
    <g id="text_14">
     <!-- Normed Hist Counts -->
     <g transform="translate(28.276406 548.966563) rotate(-90) scale(0.23 -0.23)">
      <defs>
       <path id="DejaVuSans-4e" d="M 628 4666 
L 1478 4666 
L 3547 763 
L 3547 4666 
L 4159 4666 
L 4159 0 
L 3309 0 
L 1241 3903 
L 1241 0 
L 628 0 
L 628 4666 
z
" transform="scale(0.015625)"/>
       <path id="DejaVuSans-6f" d="M 1959 3097 
Q 1497 3097 1228 2736 
Q 959 2375 959 1747 
Q 959 1119 1226 758 
Q 1494 397 1959 397 
Q 2419 397 2687 759 
Q 2956 1122 2956 1747 
Q 2956 2369 2687 2733 
Q 2419 3097 1959 3097 
z
M 1959 3584 
Q 2709 3584 3137 3096 
Q 3566 2609 3566 1747 
Q 3566 888 3137 398 
Q 2709 -91 1959 -91 
Q 1206 -91 779 398 
Q 353 888 353 1747 
Q 353 2609 779 3096 
Q 1206 3584 1959 3584 
z
" transform="scale(0.015625)"/>
       <path id="DejaVuSans-72" d="M 2631 2963 
Q 2534 3019 2420 3045 
Q 2306 3072 2169 3072 
Q 1681 3072 1420 2755 
Q 1159 2438 1159 1844 
L 1159 0 
L 581 0 
L 581 3500 
L 1159 3500 
L 1159 2956 
Q 1341 3275 1631 3429 
Q 1922 3584 2338 3584 
Q 2397 3584 2469 3576 
Q 2541 3569 2628 3553 
L 2631 2963 
z
" transform="scale(0.015625)"/>
       <path id="DejaVuSans-6d" d="M 3328 2828 
Q 3544 3216 3844 3400 
Q 4144 3584 4550 3584 
Q 5097 3584 5394 3201 
Q 5691 2819 5691 2113 
L 5691 0 
L 5113 0 
L 5113 2094 
Q 5113 2597 4934 2840 
Q 4756 3084 4391 3084 
Q 3944 3084 3684 2787 
Q 3425 2491 3425 1978 
L 3425 0 
L 2847 0 
L 2847 2094 
Q 2847 2600 2669 2842 
Q 2491 3084 2119 3084 
Q 1678 3084 1418 2786 
Q 1159 2488 1159 1978 
L 1159 0 
L 581 0 
L 581 3500 
L 1159 3500 
L 1159 2956 
Q 1356 3278 1631 3431 
Q 1906 3584 2284 3584 
Q 2666 3584 2933 3390 
Q 3200 3197 3328 2828 
z
" transform="scale(0.015625)"/>
       <path id="DejaVuSans-65" d="M 3597 1894 
L 3597 1613 
L 953 1613 
Q 991 1019 1311 708 
Q 1631 397 2203 397 
Q 2534 397 2845 478 
Q 3156 559 3463 722 
L 3463 178 
Q 3153 47 2828 -22 
Q 2503 -91 2169 -91 
Q 1331 -91 842 396 
Q 353 884 353 1716 
Q 353 2575 817 3079 
Q 1281 3584 2069 3584 
Q 2775 3584 3186 3129 
Q 3597 2675 3597 1894 
z
M 3022 2063 
Q 3016 2534 2758 2815 
Q 2500 3097 2075 3097 
Q 1594 3097 1305 2825 
Q 1016 2553 972 2059 
L 3022 2063 
z
" transform="scale(0.015625)"/>
       <path id="DejaVuSans-64" d="M 2906 2969 
L 2906 4863 
L 3481 4863 
L 3481 0 
L 2906 0 
L 2906 525 
Q 2725 213 2448 61 
Q 2172 -91 1784 -91 
Q 1150 -91 751 415 
Q 353 922 353 1747 
Q 353 2572 751 3078 
Q 1150 3584 1784 3584 
Q 2172 3584 2448 3432 
Q 2725 3281 2906 2969 
z
M 947 1747 
Q 947 1113 1208 752 
Q 1469 391 1925 391 
Q 2381 391 2643 752 
Q 2906 1113 2906 1747 
Q 2906 2381 2643 2742 
Q 2381 3103 1925 3103 
Q 1469 3103 1208 2742 
Q 947 2381 947 1747 
z
" transform="scale(0.015625)"/>
       <path id="DejaVuSans-20" transform="scale(0.015625)"/>
       <path id="DejaVuSans-48" d="M 628 4666 
L 1259 4666 
L 1259 2753 
L 3553 2753 
L 3553 4666 
L 4184 4666 
L 4184 0 
L 3553 0 
L 3553 2222 
L 1259 2222 
L 1259 0 
L 628 0 
L 628 4666 
z
" transform="scale(0.015625)"/>
       <path id="DejaVuSans-69" d="M 603 3500 
L 1178 3500 
L 1178 0 
L 603 0 
L 603 3500 
z
M 603 4863 
L 1178 4863 
L 1178 4134 
L 603 4134 
L 603 4863 
z
" transform="scale(0.015625)"/>
       <path id="DejaVuSans-73" d="M 2834 3397 
L 2834 2853 
Q 2591 2978 2328 3040 
Q 2066 3103 1784 3103 
Q 1356 3103 1142 2972 
Q 928 2841 928 2578 
Q 928 2378 1081 2264 
Q 1234 2150 1697 2047 
L 1894 2003 
Q 2506 1872 2764 1633 
Q 3022 1394 3022 966 
Q 3022 478 2636 193 
Q 2250 -91 1575 -91 
Q 1294 -91 989 -36 
Q 684 19 347 128 
L 347 722 
Q 666 556 975 473 
Q 1284 391 1588 391 
Q 1994 391 2212 530 
Q 2431 669 2431 922 
Q 2431 1156 2273 1281 
Q 2116 1406 1581 1522 
L 1381 1569 
Q 847 1681 609 1914 
Q 372 2147 372 2553 
Q 372 3047 722 3315 
Q 1072 3584 1716 3584 
Q 2034 3584 2315 3537 
Q 2597 3491 2834 3397 
z
" transform="scale(0.015625)"/>
       <path id="DejaVuSans-74" d="M 1172 4494 
L 1172 3500 
L 2356 3500 
L 2356 3053 
L 1172 3053 
L 1172 1153 
Q 1172 725 1289 603 
Q 1406 481 1766 481 
L 2356 481 
L 2356 0 
L 1766 0 
Q 1100 0 847 248 
Q 594 497 594 1153 
L 594 3053 
L 172 3053 
L 172 3500 
L 594 3500 
L 594 4494 
L 1172 4494 
z
" transform="scale(0.015625)"/>
       <path id="DejaVuSans-43" d="M 4122 4306 
L 4122 3641 
Q 3803 3938 3442 4084 
Q 3081 4231 2675 4231 
Q 1875 4231 1450 3742 
Q 1025 3253 1025 2328 
Q 1025 1406 1450 917 
Q 1875 428 2675 428 
Q 3081 428 3442 575 
Q 3803 722 4122 1019 
L 4122 359 
Q 3791 134 3420 21 
Q 3050 -91 2638 -91 
Q 1578 -91 968 557 
Q 359 1206 359 2328 
Q 359 3453 968 4101 
Q 1578 4750 2638 4750 
Q 3056 4750 3426 4639 
Q 3797 4528 4122 4306 
z
" transform="scale(0.015625)"/>
       <path id="DejaVuSans-75" d="M 544 1381 
L 544 3500 
L 1119 3500 
L 1119 1403 
Q 1119 906 1312 657 
Q 1506 409 1894 409 
Q 2359 409 2629 706 
Q 2900 1003 2900 1516 
L 2900 3500 
L 3475 3500 
L 3475 0 
L 2900 0 
L 2900 538 
Q 2691 219 2414 64 
Q 2138 -91 1772 -91 
Q 1169 -91 856 284 
Q 544 659 544 1381 
z
M 1991 3584 
L 1991 3584 
z
" transform="scale(0.015625)"/>
       <path id="DejaVuSans-6e" d="M 3513 2113 
L 3513 0 
L 2938 0 
L 2938 2094 
Q 2938 2591 2744 2837 
Q 2550 3084 2163 3084 
Q 1697 3084 1428 2787 
Q 1159 2491 1159 1978 
L 1159 0 
L 581 0 
L 581 3500 
L 1159 3500 
L 1159 2956 
Q 1366 3272 1645 3428 
Q 1925 3584 2291 3584 
Q 2894 3584 3203 3211 
Q 3513 2838 3513 2113 
z
" transform="scale(0.015625)"/>
      </defs>
      <use xlink:href="#DejaVuSans-4e"/>
      <use xlink:href="#DejaVuSans-6f" x="74.804688"/>
      <use xlink:href="#DejaVuSans-72" x="135.986328"/>
      <use xlink:href="#DejaVuSans-6d" x="175.349609"/>
      <use xlink:href="#DejaVuSans-65" x="272.761719"/>
      <use xlink:href="#DejaVuSans-64" x="334.285156"/>
      <use xlink:href="#DejaVuSans-20" x="397.761719"/>
      <use xlink:href="#DejaVuSans-48" x="429.548828"/>
      <use xlink:href="#DejaVuSans-69" x="504.744141"/>
      <use xlink:href="#DejaVuSans-73" x="532.527344"/>
      <use xlink:href="#DejaVuSans-74" x="584.626953"/>
      <use xlink:href="#DejaVuSans-20" x="623.835938"/>
      <use xlink:href="#DejaVuSans-43" x="655.623047"/>
      <use xlink:href="#DejaVuSans-6f" x="725.447266"/>
      <use xlink:href="#DejaVuSans-75" x="786.628906"/>
      <use xlink:href="#DejaVuSans-6e" x="850.007812"/>
      <use xlink:href="#DejaVuSans-74" x="913.386719"/>
      <use xlink:href="#DejaVuSans-73" x="952.595703"/>
     </g>
    </g>
   </g>
   <g id="line2d_14">
    <path d="M 137.428059 828.321951 
L 143.594035 827.761565 
L 149.760011 826.876119 
L 155.925987 825.598212 
L 162.091962 823.864085 
L 168.257938 821.613873 
L 174.423914 818.791876 
L 180.58989 815.346833 
L 186.755866 811.232187 
L 192.921842 806.406335 
L 199.087817 800.832852 
L 205.253793 794.480682 
L 211.419769 787.32431 
L 217.585745 779.343888 
L 223.751721 770.525335 
L 229.917697 760.860396 
L 236.083673 750.346667 
L 242.249648 738.98758 
L 248.415624 726.792357 
L 254.5816 713.77592 
L 260.747576 699.958769 
L 266.913552 685.366829 
L 273.079528 670.031256 
L 279.245504 653.988216 
L 285.411479 637.278635 
L 291.577455 619.94792 
L 297.743431 602.045651 
L 303.909407 583.625257 
L 310.075383 564.743664 
L 322.407335 525.839866 
L 334.739286 485.845357 
L 365.569165 384.6873 
L 377.901117 345.232187 
L 384.067093 325.998615 
L 390.233069 307.183464 
L 396.399045 288.851174 
L 402.565021 271.063884 
L 408.730996 253.881123 
L 414.896972 237.35953 
L 421.062948 221.552593 
L 427.228924 206.51041 
L 433.3949 192.279487 
L 439.560876 178.902545 
L 445.726852 166.418371 
L 451.892827 154.861684 
L 458.058803 144.263035 
L 464.224779 134.64873 
L 470.390755 126.040784 
L 476.556731 118.456895 
L 482.722707 111.910454 
L 488.888683 106.410567 
L 495.054658 101.962112 
L 501.220634 98.565811 
L 507.38661 96.218333 
L 513.552586 94.912402 
L 519.718562 94.636943 
L 525.884538 95.377228 
L 532.050513 97.115049 
L 538.216489 99.8289 
L 544.382465 103.494171 
L 550.548441 108.083359 
L 556.714417 113.566278 
L 562.880393 119.910285 
L 569.046369 127.080509 
L 575.212344 135.040079 
L 581.37832 143.750363 
L 587.544296 153.1712 
L 593.710272 163.261139 
L 599.876248 173.977667 
L 606.042224 185.27744 
L 612.2082 197.11651 
L 618.374175 209.450539 
L 624.540151 222.235013 
L 630.706127 235.425443 
L 636.872103 248.977566 
L 643.038079 262.84752 
L 655.370031 291.368557 
L 667.701982 320.652167 
L 692.365886 380.248026 
L 710.863813 424.724495 
L 723.195765 453.802378 
L 735.527717 482.174723 
L 747.859668 509.661952 
L 754.025644 523.025366 
L 760.19162 536.1131 
L 766.357596 548.910657 
L 772.523572 561.405224 
L 778.689548 573.585638 
L 784.855523 585.442326 
L 791.021499 596.967259 
L 797.187475 608.15389 
L 803.353451 618.997093 
L 809.519427 629.493099 
L 815.685403 639.639428 
L 821.851379 649.434819 
L 828.017354 658.87916 
L 834.18333 667.973414 
L 840.349306 676.719551 
L 846.515282 685.120469 
L 852.681258 693.179928 
L 858.847234 700.902477 
L 865.01321 708.293381 
L 871.179185 715.358555 
L 877.345161 722.104495 
L 883.511137 728.538217 
L 889.677113 734.667187 
L 895.843089 740.499266 
L 902.009065 746.04265 
L 908.17504 751.305813 
L 914.341016 756.297458 
L 920.506992 761.026464 
L 926.672968 765.501838 
L 932.838944 769.732677 
L 939.00492 773.728118 
L 945.170896 777.497308 
L 951.336871 781.049365 
L 957.502847 784.393347 
L 963.668823 787.538219 
L 969.834799 790.492832 
L 976.000775 793.265895 
L 982.166751 795.865954 
L 988.332727 798.301376 
L 994.498702 800.580328 
L 1000.664678 802.710765 
L 1006.830654 804.70042 
L 1012.99663 806.55679 
L 1019.162606 808.28713 
L 1031.494558 811.397492 
L 1043.826509 814.0845 
L 1056.158461 816.397032 
L 1068.490413 818.379849 
L 1080.822364 820.073674 
L 1093.154316 821.515325 
L 1105.486268 822.737885 
L 1117.818219 823.770912 
L 1136.316147 825.021679 
L 1154.814075 825.980364 
L 1173.312002 826.709386 
L 1197.975906 827.410308 
L 1222.639809 827.885263 
L 1253.469688 828.263641 
L 1296.631519 828.548359 
L 1358.291278 828.710698 
L 1364.457254 828.718801 
L 1364.457254 828.718801 
" clip-path="url(#p08ab435c99)" style="fill: none; stroke: #ff7f0e; stroke-width: 1.5; stroke-linecap: square"/>
   </g>
   <g id="line2d_15">
    <path d="M 137.428059 824.735679 
L 143.594035 823.637477 
L 149.760011 822.304191 
L 155.925987 820.700242 
L 162.091962 818.787484 
L 168.257938 816.525469 
L 174.423914 813.871788 
L 180.58989 810.782475 
L 186.755866 807.212488 
L 192.921842 803.116243 
L 199.087817 798.448201 
L 205.253793 793.163504 
L 211.419769 787.218636 
L 217.585745 780.572112 
L 223.751721 773.185173 
L 229.917697 765.022476 
L 236.083673 756.05277 
L 242.249648 746.249536 
L 248.415624 735.591597 
L 254.5816 724.063659 
L 260.747576 711.656801 
L 266.913552 698.368886 
L 273.079528 684.204894 
L 279.245504 669.17716 
L 285.411479 653.305532 
L 291.577455 636.617429 
L 297.743431 619.147798 
L 303.909407 600.938986 
L 310.075383 582.040513 
L 316.241359 562.508756 
L 322.407335 542.406551 
L 328.57331 521.802717 
L 340.905262 479.392009 
L 353.237214 435.924608 
L 377.901117 348.663801 
L 390.233069 306.346488 
L 396.399045 285.836434 
L 402.565021 265.876018 
L 408.730996 246.549385 
L 414.896972 227.936913 
L 421.062948 210.114661 
L 427.228924 193.153866 
L 433.3949 177.120501 
L 439.560876 162.074898 
L 445.726852 148.071423 
L 451.892827 135.158228 
L 458.058803 123.377057 
L 464.224779 112.763115 
L 470.390755 103.345006 
L 476.556731 95.144719 
L 482.722707 88.177674 
L 488.888683 82.452828 
L 495.054658 77.972814 
L 501.220634 74.734142 
L 507.38661 72.72743 
L 513.552586 71.937673 
L 519.718562 72.344549 
L 525.884538 73.922743 
L 532.050513 76.642302 
L 538.216489 80.469007 
L 544.382465 85.364749 
L 550.548441 91.28793 
L 556.714417 98.193856 
L 562.880393 106.035136 
L 569.046369 114.762085 
L 575.212344 124.323108 
L 581.37832 134.665093 
L 587.544296 145.733775 
L 593.710272 157.474099 
L 599.876248 169.830567 
L 606.042224 182.747559 
L 612.2082 196.169642 
L 618.374175 210.041859 
L 624.540151 224.309997 
L 630.706127 238.920829 
L 643.038079 268.963919 
L 655.370031 299.772997 
L 698.531862 408.584632 
L 710.863813 438.73892 
L 723.195765 468.045578 
L 735.527717 496.327481 
L 741.693692 510.038236 
L 747.859668 523.441829 
L 754.025644 536.525444 
L 760.19162 549.278135 
L 766.357596 561.690746 
L 772.523572 573.755822 
L 778.689548 585.467524 
L 784.855523 596.821535 
L 791.021499 607.814969 
L 797.187475 618.446282 
L 803.353451 628.715178 
L 809.519427 638.622518 
L 815.685403 648.17023 
L 821.851379 657.361224 
L 828.017354 666.199303 
L 834.18333 674.689081 
L 840.349306 682.835903 
L 846.515282 690.645766 
L 852.681258 698.125248 
L 858.847234 705.28143 
L 865.01321 712.121839 
L 871.179185 718.654372 
L 877.345161 724.887246 
L 883.511137 730.828935 
L 889.677113 736.488119 
L 895.843089 741.873634 
L 902.009065 746.994425 
L 908.17504 751.859507 
L 914.341016 756.477921 
L 920.506992 760.858701 
L 926.672968 765.010841 
L 932.838944 768.943267 
L 939.00492 772.664804 
L 945.170896 776.184162 
L 951.336871 779.509906 
L 957.502847 782.65044 
L 963.668823 785.613995 
L 969.834799 788.408609 
L 976.000775 791.042119 
L 982.166751 793.522147 
L 988.332727 795.856098 
L 994.498702 798.051148 
L 1000.664678 800.114241 
L 1006.830654 802.052088 
L 1019.162606 805.577693 
L 1031.494558 808.676884 
L 1043.826509 811.394801 
L 1056.158461 813.772874 
L 1068.490413 815.848949 
L 1080.822364 817.657433 
L 1093.154316 819.229481 
L 1105.486268 820.593181 
L 1117.818219 821.773766 
L 1136.316147 823.250029 
L 1154.814075 824.430652 
L 1173.312002 825.370943 
L 1191.80993 826.11684 
L 1216.473833 826.873499 
L 1247.303712 827.534269 
L 1284.299567 828.040459 
L 1327.461398 828.383083 
L 1364.457254 828.549728 
L 1364.457254 828.549728 
" clip-path="url(#p08ab435c99)" style="fill: none; stroke: #2ca02c; stroke-width: 1.5; stroke-linecap: square"/>
   </g>
   <g id="line2d_16">
    <path d="M 137.428059 127.173986 
L 149.760011 147.523656 
L 162.091962 167.283096 
L 174.423914 186.469424 
L 186.755866 205.099263 
L 199.087817 223.188754 
L 211.419769 240.75357 
L 223.751721 257.808928 
L 236.083673 274.369605 
L 248.415624 290.449949 
L 260.747576 306.063892 
L 273.079528 321.224961 
L 285.411479 335.946291 
L 297.743431 350.240638 
L 310.075383 364.120385 
L 322.407335 377.597558 
L 334.739286 390.683833 
L 347.071238 403.390549 
L 359.40319 415.728712 
L 371.735141 427.709015 
L 384.067093 439.341835 
L 396.399045 450.637252 
L 408.730996 461.605052 
L 421.062948 472.254737 
L 433.3949 482.595534 
L 445.726852 492.636402 
L 458.058803 502.38604 
L 470.390755 511.852895 
L 482.722707 521.04517 
L 495.054658 529.970828 
L 507.38661 538.637602 
L 519.718562 547.053001 
L 532.050513 555.224316 
L 544.382465 563.158627 
L 556.714417 570.862807 
L 569.046369 578.343533 
L 581.37832 585.607284 
L 593.710272 592.660353 
L 606.042224 599.508853 
L 618.374175 606.158716 
L 630.706127 612.615703 
L 643.038079 618.885409 
L 655.370031 624.973265 
L 667.701982 630.884547 
L 680.033934 636.624375 
L 692.365886 642.197723 
L 710.863813 650.256118 
L 729.361741 657.966474 
L 747.859668 665.343823 
L 766.357596 672.402546 
L 784.855523 679.156405 
L 803.353451 685.618568 
L 821.851379 691.801633 
L 840.349306 697.717652 
L 858.847234 703.378162 
L 877.345161 708.794195 
L 895.843089 713.976313 
L 914.341016 718.934616 
L 932.838944 723.678772 
L 951.336871 728.21803 
L 969.834799 732.561238 
L 988.332727 736.716865 
L 1006.830654 740.693012 
L 1031.494558 745.7287 
L 1056.158461 750.476509 
L 1080.822364 754.952898 
L 1105.486268 759.173382 
L 1130.150171 763.152591 
L 1154.814075 766.904318 
L 1179.477978 770.441567 
L 1204.141881 773.776601 
L 1228.805785 776.920979 
L 1259.635664 780.599885 
L 1290.465543 784.017805 
L 1321.295423 787.193253 
L 1352.125302 790.143431 
L 1364.457254 791.264044 
L 1364.457254 791.264044 
" clip-path="url(#p08ab435c99)" style="fill: none; stroke: #d62728; stroke-width: 1.5; stroke-linecap: square"/>
   </g>
   <g id="line2d_17">
    <path d="M 137.428059 780.007546 
L 143.594035 777.592059 
L 149.760011 775.056942 
L 155.925987 772.39627 
L 162.091962 769.603825 
L 168.257938 766.673081 
L 174.423914 763.597188 
L 180.58989 760.368957 
L 186.755866 756.980844 
L 192.921842 753.42493 
L 199.087817 749.692905 
L 205.253793 745.776047 
L 211.419769 741.665202 
L 217.585745 737.350762 
L 223.751721 732.822643 
L 229.917697 728.070264 
L 236.083673 723.082517 
L 242.249648 717.847746 
L 248.415624 712.353716 
L 254.5816 706.587587 
L 260.747576 700.535883 
L 266.913552 694.184461 
L 273.079528 687.518477 
L 279.245504 680.522351 
L 285.411479 673.179733 
L 291.577455 665.473463 
L 297.743431 657.38553 
L 303.909407 648.897032 
L 310.075383 639.98813 
L 316.241359 630.638003 
L 322.407335 620.8248 
L 328.57331 610.525585 
L 334.739286 599.716288 
L 340.905262 588.371647 
L 347.071238 576.465149 
L 353.237214 563.968966 
L 359.40319 550.853893 
L 365.569165 537.08928 
L 371.735141 522.642957 
L 377.901117 507.481162 
L 384.067093 491.568459 
L 390.233069 474.867659 
L 396.399045 457.339731 
L 402.565021 438.94371 
L 408.730996 419.636603 
L 414.896972 399.373286 
L 421.062948 378.106404 
L 427.228924 355.786251 
L 433.3949 332.360665 
L 439.560876 307.774897 
L 445.726852 281.971487 
L 451.892827 254.890131 
L 458.058803 226.467536 
L 464.224779 196.637276 
L 470.390755 165.329634 
L 476.556731 132.471441 
L 482.722707 97.985905 
L 488.888683 61.792429 
L 495.054658 23.806424 
L 498.891281 -1 
M 584.599348 -1 
L 587.544296 18.174355 
L 593.710272 56.426132 
L 599.876248 92.87284 
L 606.042224 127.599657 
L 612.2082 160.687745 
L 618.374175 192.214434 
L 624.540151 222.253404 
L 630.706127 250.874861 
L 636.872103 278.145694 
L 643.038079 304.12964 
L 649.204055 328.887425 
L 655.370031 352.47691 
L 661.536006 374.953228 
L 667.701982 396.368906 
L 673.867958 416.773997 
L 680.033934 436.216188 
L 686.19991 454.740919 
L 692.365886 472.391482 
L 698.531862 489.209131 
L 704.697837 505.233168 
L 710.863813 520.501045 
L 717.029789 535.048443 
L 723.195765 548.909361 
L 729.361741 562.116195 
L 735.527717 574.699809 
L 741.693692 586.689612 
L 747.859668 598.113627 
L 754.025644 608.998552 
L 760.19162 619.369826 
L 766.357596 629.251689 
L 772.523572 638.667234 
L 778.689548 647.638468 
L 784.855523 656.186357 
L 791.021499 664.330878 
L 797.187475 672.091066 
L 803.353451 679.485057 
L 809.519427 686.530132 
L 815.685403 693.242755 
L 821.851379 699.638616 
L 828.017354 705.732661 
L 834.18333 711.539133 
L 840.349306 717.071602 
L 846.515282 722.342999 
L 852.681258 727.365643 
L 858.847234 732.151273 
L 865.01321 736.711073 
L 871.179185 741.0557 
L 877.345161 745.195307 
L 883.511137 749.13957 
L 889.677113 752.897706 
L 895.843089 756.478499 
L 902.009065 759.890317 
L 908.17504 763.141134 
L 914.341016 766.238548 
L 920.506992 769.189798 
L 926.672968 772.001781 
L 932.838944 774.681068 
L 939.00492 777.233922 
L 951.336871 781.983914 
L 963.668823 786.296187 
L 976.000775 790.211077 
L 988.332727 793.765204 
L 1000.664678 796.991813 
L 1012.99663 799.921086 
L 1025.328582 802.580421 
L 1037.660533 804.994694 
L 1049.992485 807.186489 
L 1062.324437 809.176306 
L 1074.656388 810.982759 
L 1086.98834 812.622744 
L 1105.486268 814.803762 
L 1123.984195 816.69036 
L 1142.482123 818.322282 
L 1160.98005 819.733907 
L 1179.477978 820.954974 
L 1204.141881 822.330591 
L 1228.805785 823.464359 
L 1253.469688 824.398798 
L 1284.299567 825.339325 
L 1321.295423 826.205397 
L 1358.291278 826.853425 
L 1364.457254 826.944309 
L 1364.457254 826.944309 
" clip-path="url(#p08ab435c99)" style="fill: none; stroke: #9467bd; stroke-width: 1.5; stroke-linecap: square"/>
   </g>
   <g id="line2d_18">
    <path d="M 137.428059 823.339484 
L 143.594035 822.097831 
L 149.760011 820.625446 
L 155.925987 818.890721 
L 162.091962 816.859776 
L 168.257938 814.496629 
L 174.423914 811.763422 
L 180.58989 808.620706 
L 186.755866 805.027786 
L 192.921842 800.943122 
L 199.087817 796.324785 
L 205.253793 791.130963 
L 211.419769 785.320508 
L 217.585745 778.853519 
L 223.751721 771.691951 
L 229.917697 763.800245 
L 236.083673 755.145958 
L 242.249648 745.700393 
L 248.415624 735.439209 
L 254.5816 724.34301 
L 260.747576 712.397882 
L 266.913552 699.595897 
L 273.079528 685.935539 
L 279.245504 671.422078 
L 285.411479 656.067852 
L 291.577455 639.892479 
L 297.743431 622.922967 
L 303.909407 605.193742 
L 310.075383 586.746579 
L 316.241359 567.63044 
L 322.407335 547.901215 
L 328.57331 527.621382 
L 334.739286 506.859575 
L 347.071238 464.192249 
L 365.569165 398.584594 
L 377.901117 354.825804 
L 390.233069 311.927993 
L 396.399045 291.037704 
L 402.565021 270.643015 
L 408.730996 250.833398 
L 414.896972 231.695131 
L 421.062948 213.310635 
L 427.228924 195.757863 
L 433.3949 179.109741 
L 439.560876 163.43368 
L 445.726852 148.79115 
L 451.892827 135.237315 
L 458.058803 122.820754 
L 464.224779 111.583231 
L 470.390755 101.559558 
L 476.556731 92.777504 
L 482.722707 85.25779 
L 488.888683 79.014133 
L 495.054658 74.053356 
L 501.220634 70.375555 
L 507.38661 67.974315 
L 513.552586 66.83697 
L 519.718562 66.944914 
L 525.884538 68.273931 
L 532.050513 70.794578 
L 538.216489 74.472572 
L 544.382465 79.269208 
L 550.548441 85.141791 
L 556.714417 92.044078 
L 562.880393 99.926718 
L 569.046369 108.737701 
L 575.212344 118.422799 
L 581.37832 128.925999 
L 587.544296 140.189926 
L 593.710272 152.15625 
L 599.876248 164.766082 
L 606.042224 177.960339 
L 612.2082 191.680101 
L 618.374175 205.866935 
L 624.540151 220.4632 
L 630.706127 235.412327 
L 643.038079 266.149732 
L 655.370031 297.656985 
L 692.365886 393.061442 
L 704.697837 424.097812 
L 717.029789 454.320763 
L 729.361741 483.531238 
L 735.527717 497.70503 
L 741.693692 511.568155 
L 747.859668 525.10606 
L 754.025644 538.306269 
L 760.19162 551.158289 
L 766.357596 563.653517 
L 772.523572 575.78514 
L 778.689548 587.548031 
L 784.855523 598.938648 
L 791.021499 609.95493 
L 797.187475 620.596195 
L 803.353451 630.863034 
L 809.519427 640.757215 
L 815.685403 650.281581 
L 821.851379 659.439955 
L 828.017354 668.237046 
L 834.18333 676.67836 
L 840.349306 684.770112 
L 846.515282 692.519146 
L 852.681258 699.932851 
L 858.847234 707.019092 
L 865.01321 713.786135 
L 871.179185 720.242584 
L 877.345161 726.397315 
L 883.511137 732.259421 
L 889.677113 737.838158 
L 895.843089 743.14289 
L 902.009065 748.183052 
L 908.17504 752.968099 
L 914.341016 757.507472 
L 920.506992 761.810564 
L 926.672968 765.886687 
L 932.838944 769.745043 
L 939.00492 773.3947 
L 945.170896 776.844571 
L 951.336871 780.103393 
L 957.502847 783.179713 
L 963.668823 786.081869 
L 969.834799 788.817983 
L 976.000775 791.395948 
L 982.166751 793.823423 
L 988.332727 796.107823 
L 994.498702 798.256318 
L 1000.664678 800.275828 
L 1012.99663 803.954326 
L 1025.328582 807.193671 
L 1037.660533 810.040249 
L 1049.992485 812.536579 
L 1062.324437 814.721448 
L 1074.656388 816.630087 
L 1086.98834 818.294366 
L 1099.320292 819.743005 
L 1111.652244 821.001793 
L 1123.984195 822.093809 
L 1142.482123 823.463542 
L 1160.98005 824.563916 
L 1179.477978 825.445021 
L 1204.141881 826.349413 
L 1228.805785 827.015683 
L 1259.635664 827.604119 
L 1296.631519 828.062508 
L 1345.959326 828.412645 
L 1364.457254 828.495004 
L 1364.457254 828.495004 
" clip-path="url(#p08ab435c99)" style="fill: none; stroke: #8c564b; stroke-width: 1.5; stroke-linecap: square"/>
   </g>
   <g id="line2d_19">
    <path d="M 137.428059 803.985042 
L 143.594035 801.378351 
L 149.760011 798.542793 
L 155.925987 795.463584 
L 162.091962 792.125566 
L 168.257938 788.513269 
L 174.423914 784.610972 
L 180.58989 780.402779 
L 186.755866 775.872702 
L 192.921842 771.00475 
L 199.087817 765.783028 
L 205.253793 760.19185 
L 211.419769 754.215848 
L 217.585745 747.840103 
L 223.751721 741.050273 
L 229.917697 733.832731 
L 236.083673 726.174713 
L 242.249648 718.064465 
L 248.415624 709.4914 
L 254.5816 700.446251 
L 260.747576 690.921238 
L 266.913552 680.910222 
L 273.079528 670.408868 
L 279.245504 659.414803 
L 285.411479 647.927767 
L 291.577455 635.949767 
L 297.743431 623.48521 
L 303.909407 610.541043 
L 310.075383 597.12687 
L 316.241359 583.255058 
L 322.407335 568.940838 
L 328.57331 554.202376 
L 334.739286 539.060835 
L 340.905262 523.540417 
L 347.071238 507.668379 
L 359.40319 474.99371 
L 371.735141 441.315291 
L 384.067093 406.957755 
L 414.896972 320.591538 
L 427.228924 286.974103 
L 433.3949 270.591989 
L 439.560876 254.572549 
L 445.726852 238.97468 
L 451.892827 223.857011 
L 458.058803 209.27754 
L 464.224779 195.293268 
L 470.390755 181.959831 
L 476.556731 169.331134 
L 482.722707 157.45899 
L 488.888683 146.392763 
L 495.054658 136.179034 
L 501.220634 126.861268 
L 507.38661 118.479511 
L 513.552586 111.0701 
L 519.718562 104.665404 
L 525.884538 99.293586 
L 532.050513 94.978397 
L 538.216489 91.739002 
L 544.382465 89.589838 
L 550.548441 88.540508 
L 556.714417 88.595704 
L 562.880393 89.755182 
L 569.046369 92.013752 
L 575.212344 95.361328 
L 581.37832 99.782995 
L 587.544296 105.259122 
L 593.710272 111.765508 
L 599.876248 119.273562 
L 606.042224 127.750507 
L 612.2082 137.159623 
L 618.374175 147.460509 
L 624.540151 158.609375 
L 630.706127 170.559348 
L 636.872103 183.260803 
L 643.038079 196.661701 
L 649.204055 210.70795 
L 655.370031 225.343759 
L 661.536006 240.512012 
L 667.701982 256.154631 
L 673.867958 272.212945 
L 686.19991 305.341161 
L 698.531862 339.428907 
L 741.693692 459.94228 
L 754.025644 493.105983 
L 760.19162 509.268687 
L 766.357596 525.106917 
L 772.523572 540.590667 
L 778.689548 555.692984 
L 784.855523 570.389974 
L 791.021499 584.660773 
L 797.187475 598.487511 
L 803.353451 611.855249 
L 809.519427 624.751898 
L 815.685403 637.168125 
L 821.851379 649.097244 
L 828.017354 660.535092 
L 834.18333 671.479897 
L 840.349306 681.932134 
L 846.515282 691.894381 
L 852.681258 701.37116 
L 858.847234 710.36878 
L 865.01321 718.895179 
L 871.179185 726.95976 
L 877.345161 734.573236 
L 883.511137 741.747467 
L 889.677113 748.495312 
L 895.843089 754.830475 
L 902.009065 760.76736 
L 908.17504 766.32094 
L 914.341016 771.506616 
L 920.506992 776.340104 
L 926.672968 780.83731 
L 932.838944 785.014231 
L 939.00492 788.88685 
L 945.170896 792.471048 
L 951.336871 795.782525 
L 957.502847 798.836722 
L 963.668823 801.648762 
L 969.834799 804.233389 
L 976.000775 806.604923 
L 982.166751 808.777217 
L 988.332727 810.763625 
L 994.498702 812.576974 
L 1000.664678 814.229544 
L 1006.830654 815.733053 
L 1012.99663 817.098652 
L 1019.162606 818.336912 
L 1031.494558 820.470849 
L 1043.826509 822.208077 
L 1056.158461 823.613017 
L 1068.490413 824.741768 
L 1080.822364 825.642699 
L 1093.154316 826.35711 
L 1111.652244 827.153879 
L 1130.150171 827.703123 
L 1154.814075 828.171137 
L 1185.643954 828.491183 
L 1228.805785 828.684249 
L 1308.963471 828.769375 
L 1364.457254 828.777561 
L 1364.457254 828.777561 
" clip-path="url(#p08ab435c99)" style="fill: none; stroke: #e377c2; stroke-width: 1.5; stroke-linecap: square"/>
   </g>
   <g id="patch_103">
    <path d="M 72.685313 828.779375 
L 72.685313 38.075625 
" style="fill: none; stroke: #000000; stroke-width: 0.8; stroke-linejoin: miter; stroke-linecap: square"/>
   </g>
   <g id="patch_104">
    <path d="M 1429.2 828.779375 
L 1429.2 38.075625 
" style="fill: none; stroke: #000000; stroke-width: 0.8; stroke-linejoin: miter; stroke-linecap: square"/>
   </g>
   <g id="patch_105">
    <path d="M 72.685313 828.779375 
L 1429.2 828.779375 
" style="fill: none; stroke: #000000; stroke-width: 0.8; stroke-linejoin: miter; stroke-linecap: square"/>
   </g>
   <g id="patch_106">
    <path d="M 72.685313 38.075625 
L 1429.2 38.075625 
" style="fill: none; stroke: #000000; stroke-width: 0.8; stroke-linejoin: miter; stroke-linecap: square"/>
   </g>
   <g id="text_15">
    <!-- All Fitted Distributions -->
    <g transform="translate(596.317031 32.075625) scale(0.28 -0.28)">
     <defs>
      <path id="DejaVuSans-41" d="M 2188 4044 
L 1331 1722 
L 3047 1722 
L 2188 4044 
z
M 1831 4666 
L 2547 4666 
L 4325 0 
L 3669 0 
L 3244 1197 
L 1141 1197 
L 716 0 
L 50 0 
L 1831 4666 
z
" transform="scale(0.015625)"/>
      <path id="DejaVuSans-6c" d="M 603 4863 
L 1178 4863 
L 1178 0 
L 603 0 
L 603 4863 
z
" transform="scale(0.015625)"/>
      <path id="DejaVuSans-46" d="M 628 4666 
L 3309 4666 
L 3309 4134 
L 1259 4134 
L 1259 2759 
L 3109 2759 
L 3109 2228 
L 1259 2228 
L 1259 0 
L 628 0 
L 628 4666 
z
" transform="scale(0.015625)"/>
      <path id="DejaVuSans-44" d="M 1259 4147 
L 1259 519 
L 2022 519 
Q 2988 519 3436 956 
Q 3884 1394 3884 2338 
Q 3884 3275 3436 3711 
Q 2988 4147 2022 4147 
L 1259 4147 
z
M 628 4666 
L 1925 4666 
Q 3281 4666 3915 4102 
Q 4550 3538 4550 2338 
Q 4550 1131 3912 565 
Q 3275 0 1925 0 
L 628 0 
L 628 4666 
z
" transform="scale(0.015625)"/>
      <path id="DejaVuSans-62" d="M 3116 1747 
Q 3116 2381 2855 2742 
Q 2594 3103 2138 3103 
Q 1681 3103 1420 2742 
Q 1159 2381 1159 1747 
Q 1159 1113 1420 752 
Q 1681 391 2138 391 
Q 2594 391 2855 752 
Q 3116 1113 3116 1747 
z
M 1159 2969 
Q 1341 3281 1617 3432 
Q 1894 3584 2278 3584 
Q 2916 3584 3314 3078 
Q 3713 2572 3713 1747 
Q 3713 922 3314 415 
Q 2916 -91 2278 -91 
Q 1894 -91 1617 61 
Q 1341 213 1159 525 
L 1159 0 
L 581 0 
L 581 4863 
L 1159 4863 
L 1159 2969 
z
" transform="scale(0.015625)"/>
     </defs>
     <use xlink:href="#DejaVuSans-41"/>
     <use xlink:href="#DejaVuSans-6c" x="68.408203"/>
     <use xlink:href="#DejaVuSans-6c" x="96.191406"/>
     <use xlink:href="#DejaVuSans-20" x="123.974609"/>
     <use xlink:href="#DejaVuSans-46" x="155.761719"/>
     <use xlink:href="#DejaVuSans-69" x="206.03125"/>
     <use xlink:href="#DejaVuSans-74" x="233.814453"/>
     <use xlink:href="#DejaVuSans-74" x="273.023438"/>
     <use xlink:href="#DejaVuSans-65" x="312.232422"/>
     <use xlink:href="#DejaVuSans-64" x="373.755859"/>
     <use xlink:href="#DejaVuSans-20" x="437.232422"/>
     <use xlink:href="#DejaVuSans-44" x="469.019531"/>
     <use xlink:href="#DejaVuSans-69" x="546.021484"/>
     <use xlink:href="#DejaVuSans-73" x="573.804688"/>
     <use xlink:href="#DejaVuSans-74" x="625.904297"/>
     <use xlink:href="#DejaVuSans-72" x="665.113281"/>
     <use xlink:href="#DejaVuSans-69" x="706.226562"/>
     <use xlink:href="#DejaVuSans-62" x="734.009766"/>
     <use xlink:href="#DejaVuSans-75" x="797.486328"/>
     <use xlink:href="#DejaVuSans-74" x="860.865234"/>
     <use xlink:href="#DejaVuSans-69" x="900.074219"/>
     <use xlink:href="#DejaVuSans-6f" x="927.857422"/>
     <use xlink:href="#DejaVuSans-6e" x="989.039062"/>
     <use xlink:href="#DejaVuSans-73" x="1052.417969"/>
    </g>
   </g>
   <g id="legend_1">
    <g id="patch_107">
     <path d="M 1014.37125 303.868125 
L 1412.4 303.868125 
Q 1417.2 303.868125 1417.2 299.068125 
L 1417.2 54.875625 
Q 1417.2 50.075625 1412.4 50.075625 
L 1014.37125 50.075625 
Q 1009.57125 50.075625 1009.57125 54.875625 
L 1009.57125 299.068125 
Q 1009.57125 303.868125 1014.37125 303.868125 
z
" style="fill: #ffffff; opacity: 0.8; stroke: #cccccc; stroke-linejoin: miter"/>
    </g>
    <g id="patch_108">
     <path d="M 1019.17125 77.911875 
L 1067.17125 77.911875 
L 1067.17125 61.111875 
L 1019.17125 61.111875 
z
" style="fill: #1f77b4; opacity: 0.6"/>
    </g>
    <g id="text_16">
     <!-- Generated Chi Distribution -->
     <g transform="translate(1086.37125 77.911875) scale(0.24 -0.24)">
      <defs>
       <path id="DejaVuSans-47" d="M 3809 666 
L 3809 1919 
L 2778 1919 
L 2778 2438 
L 4434 2438 
L 4434 434 
Q 4069 175 3628 42 
Q 3188 -91 2688 -91 
Q 1594 -91 976 548 
Q 359 1188 359 2328 
Q 359 3472 976 4111 
Q 1594 4750 2688 4750 
Q 3144 4750 3555 4637 
Q 3966 4525 4313 4306 
L 4313 3634 
Q 3963 3931 3569 4081 
Q 3175 4231 2741 4231 
Q 1884 4231 1454 3753 
Q 1025 3275 1025 2328 
Q 1025 1384 1454 906 
Q 1884 428 2741 428 
Q 3075 428 3337 486 
Q 3600 544 3809 666 
z
" transform="scale(0.015625)"/>
       <path id="DejaVuSans-61" d="M 2194 1759 
Q 1497 1759 1228 1600 
Q 959 1441 959 1056 
Q 959 750 1161 570 
Q 1363 391 1709 391 
Q 2188 391 2477 730 
Q 2766 1069 2766 1631 
L 2766 1759 
L 2194 1759 
z
M 3341 1997 
L 3341 0 
L 2766 0 
L 2766 531 
Q 2569 213 2275 61 
Q 1981 -91 1556 -91 
Q 1019 -91 701 211 
Q 384 513 384 1019 
Q 384 1609 779 1909 
Q 1175 2209 1959 2209 
L 2766 2209 
L 2766 2266 
Q 2766 2663 2505 2880 
Q 2244 3097 1772 3097 
Q 1472 3097 1187 3025 
Q 903 2953 641 2809 
L 641 3341 
Q 956 3463 1253 3523 
Q 1550 3584 1831 3584 
Q 2591 3584 2966 3190 
Q 3341 2797 3341 1997 
z
" transform="scale(0.015625)"/>
       <path id="DejaVuSans-68" d="M 3513 2113 
L 3513 0 
L 2938 0 
L 2938 2094 
Q 2938 2591 2744 2837 
Q 2550 3084 2163 3084 
Q 1697 3084 1428 2787 
Q 1159 2491 1159 1978 
L 1159 0 
L 581 0 
L 581 4863 
L 1159 4863 
L 1159 2956 
Q 1366 3272 1645 3428 
Q 1925 3584 2291 3584 
Q 2894 3584 3203 3211 
Q 3513 2838 3513 2113 
z
" transform="scale(0.015625)"/>
      </defs>
      <use xlink:href="#DejaVuSans-47"/>
      <use xlink:href="#DejaVuSans-65" x="77.490234"/>
      <use xlink:href="#DejaVuSans-6e" x="139.013672"/>
      <use xlink:href="#DejaVuSans-65" x="202.392578"/>
      <use xlink:href="#DejaVuSans-72" x="263.916016"/>
      <use xlink:href="#DejaVuSans-61" x="305.029297"/>
      <use xlink:href="#DejaVuSans-74" x="366.308594"/>
      <use xlink:href="#DejaVuSans-65" x="405.517578"/>
      <use xlink:href="#DejaVuSans-64" x="467.041016"/>
      <use xlink:href="#DejaVuSans-20" x="530.517578"/>
      <use xlink:href="#DejaVuSans-43" x="562.304688"/>
      <use xlink:href="#DejaVuSans-68" x="632.128906"/>
      <use xlink:href="#DejaVuSans-69" x="695.507812"/>
      <use xlink:href="#DejaVuSans-20" x="723.291016"/>
      <use xlink:href="#DejaVuSans-44" x="755.078125"/>
      <use xlink:href="#DejaVuSans-69" x="832.080078"/>
      <use xlink:href="#DejaVuSans-73" x="859.863281"/>
      <use xlink:href="#DejaVuSans-74" x="911.962891"/>
      <use xlink:href="#DejaVuSans-72" x="951.171875"/>
      <use xlink:href="#DejaVuSans-69" x="992.285156"/>
      <use xlink:href="#DejaVuSans-62" x="1020.068359"/>
      <use xlink:href="#DejaVuSans-75" x="1083.544922"/>
      <use xlink:href="#DejaVuSans-74" x="1146.923828"/>
      <use xlink:href="#DejaVuSans-69" x="1186.132812"/>
      <use xlink:href="#DejaVuSans-6f" x="1213.916016"/>
      <use xlink:href="#DejaVuSans-6e" x="1275.097656"/>
     </g>
    </g>
    <g id="line2d_20">
     <path d="M 1019.17125 104.739375 
L 1043.17125 104.739375 
L 1067.17125 104.739375 
" style="fill: none; stroke: #ff7f0e; stroke-width: 1.5; stroke-linecap: square"/>
    </g>
    <g id="text_17">
     <!-- Chi fit -->
     <g transform="translate(1086.37125 113.139375) scale(0.24 -0.24)">
      <defs>
       <path id="DejaVuSans-66" d="M 2375 4863 
L 2375 4384 
L 1825 4384 
Q 1516 4384 1395 4259 
Q 1275 4134 1275 3809 
L 1275 3500 
L 2222 3500 
L 2222 3053 
L 1275 3053 
L 1275 0 
L 697 0 
L 697 3053 
L 147 3053 
L 147 3500 
L 697 3500 
L 697 3744 
Q 697 4328 969 4595 
Q 1241 4863 1831 4863 
L 2375 4863 
z
" transform="scale(0.015625)"/>
      </defs>
      <use xlink:href="#DejaVuSans-43"/>
      <use xlink:href="#DejaVuSans-68" x="69.824219"/>
      <use xlink:href="#DejaVuSans-69" x="133.203125"/>
      <use xlink:href="#DejaVuSans-20" x="160.986328"/>
      <use xlink:href="#DejaVuSans-66" x="192.773438"/>
      <use xlink:href="#DejaVuSans-69" x="227.978516"/>
      <use xlink:href="#DejaVuSans-74" x="255.761719"/>
     </g>
    </g>
    <g id="line2d_21">
     <path d="M 1019.17125 139.966875 
L 1043.17125 139.966875 
L 1067.17125 139.966875 
" style="fill: none; stroke: #2ca02c; stroke-width: 1.5; stroke-linecap: square"/>
    </g>
    <g id="text_18">
     <!-- Chi-Square fit -->
     <g transform="translate(1086.37125 148.366875) scale(0.24 -0.24)">
      <defs>
       <path id="DejaVuSans-2d" d="M 313 2009 
L 1997 2009 
L 1997 1497 
L 313 1497 
L 313 2009 
z
" transform="scale(0.015625)"/>
       <path id="DejaVuSans-53" d="M 3425 4513 
L 3425 3897 
Q 3066 4069 2747 4153 
Q 2428 4238 2131 4238 
Q 1616 4238 1336 4038 
Q 1056 3838 1056 3469 
Q 1056 3159 1242 3001 
Q 1428 2844 1947 2747 
L 2328 2669 
Q 3034 2534 3370 2195 
Q 3706 1856 3706 1288 
Q 3706 609 3251 259 
Q 2797 -91 1919 -91 
Q 1588 -91 1214 -16 
Q 841 59 441 206 
L 441 856 
Q 825 641 1194 531 
Q 1563 422 1919 422 
Q 2459 422 2753 634 
Q 3047 847 3047 1241 
Q 3047 1584 2836 1778 
Q 2625 1972 2144 2069 
L 1759 2144 
Q 1053 2284 737 2584 
Q 422 2884 422 3419 
Q 422 4038 858 4394 
Q 1294 4750 2059 4750 
Q 2388 4750 2728 4690 
Q 3069 4631 3425 4513 
z
" transform="scale(0.015625)"/>
       <path id="DejaVuSans-71" d="M 947 1747 
Q 947 1113 1208 752 
Q 1469 391 1925 391 
Q 2381 391 2643 752 
Q 2906 1113 2906 1747 
Q 2906 2381 2643 2742 
Q 2381 3103 1925 3103 
Q 1469 3103 1208 2742 
Q 947 2381 947 1747 
z
M 2906 525 
Q 2725 213 2448 61 
Q 2172 -91 1784 -91 
Q 1150 -91 751 415 
Q 353 922 353 1747 
Q 353 2572 751 3078 
Q 1150 3584 1784 3584 
Q 2172 3584 2448 3432 
Q 2725 3281 2906 2969 
L 2906 3500 
L 3481 3500 
L 3481 -1331 
L 2906 -1331 
L 2906 525 
z
" transform="scale(0.015625)"/>
      </defs>
      <use xlink:href="#DejaVuSans-43"/>
      <use xlink:href="#DejaVuSans-68" x="69.824219"/>
      <use xlink:href="#DejaVuSans-69" x="133.203125"/>
      <use xlink:href="#DejaVuSans-2d" x="160.986328"/>
      <use xlink:href="#DejaVuSans-53" x="197.070312"/>
      <use xlink:href="#DejaVuSans-71" x="260.546875"/>
      <use xlink:href="#DejaVuSans-75" x="324.023438"/>
      <use xlink:href="#DejaVuSans-61" x="387.402344"/>
      <use xlink:href="#DejaVuSans-72" x="448.681641"/>
      <use xlink:href="#DejaVuSans-65" x="487.544922"/>
      <use xlink:href="#DejaVuSans-20" x="549.068359"/>
      <use xlink:href="#DejaVuSans-66" x="580.855469"/>
      <use xlink:href="#DejaVuSans-69" x="616.060547"/>
      <use xlink:href="#DejaVuSans-74" x="643.84375"/>
     </g>
    </g>
    <g id="line2d_22">
     <path d="M 1019.17125 175.194375 
L 1043.17125 175.194375 
L 1067.17125 175.194375 
" style="fill: none; stroke: #d62728; stroke-width: 1.5; stroke-linecap: square"/>
    </g>
    <g id="text_19">
     <!-- Exponential fit -->
     <g transform="translate(1086.37125 183.594375) scale(0.24 -0.24)">
      <defs>
       <path id="DejaVuSans-45" d="M 628 4666 
L 3578 4666 
L 3578 4134 
L 1259 4134 
L 1259 2753 
L 3481 2753 
L 3481 2222 
L 1259 2222 
L 1259 531 
L 3634 531 
L 3634 0 
L 628 0 
L 628 4666 
z
" transform="scale(0.015625)"/>
       <path id="DejaVuSans-78" d="M 3513 3500 
L 2247 1797 
L 3578 0 
L 2900 0 
L 1881 1375 
L 863 0 
L 184 0 
L 1544 1831 
L 300 3500 
L 978 3500 
L 1906 2253 
L 2834 3500 
L 3513 3500 
z
" transform="scale(0.015625)"/>
       <path id="DejaVuSans-70" d="M 1159 525 
L 1159 -1331 
L 581 -1331 
L 581 3500 
L 1159 3500 
L 1159 2969 
Q 1341 3281 1617 3432 
Q 1894 3584 2278 3584 
Q 2916 3584 3314 3078 
Q 3713 2572 3713 1747 
Q 3713 922 3314 415 
Q 2916 -91 2278 -91 
Q 1894 -91 1617 61 
Q 1341 213 1159 525 
z
M 3116 1747 
Q 3116 2381 2855 2742 
Q 2594 3103 2138 3103 
Q 1681 3103 1420 2742 
Q 1159 2381 1159 1747 
Q 1159 1113 1420 752 
Q 1681 391 2138 391 
Q 2594 391 2855 752 
Q 3116 1113 3116 1747 
z
" transform="scale(0.015625)"/>
      </defs>
      <use xlink:href="#DejaVuSans-45"/>
      <use xlink:href="#DejaVuSans-78" x="63.183594"/>
      <use xlink:href="#DejaVuSans-70" x="122.363281"/>
      <use xlink:href="#DejaVuSans-6f" x="185.839844"/>
      <use xlink:href="#DejaVuSans-6e" x="247.021484"/>
      <use xlink:href="#DejaVuSans-65" x="310.400391"/>
      <use xlink:href="#DejaVuSans-6e" x="371.923828"/>
      <use xlink:href="#DejaVuSans-74" x="435.302734"/>
      <use xlink:href="#DejaVuSans-69" x="474.511719"/>
      <use xlink:href="#DejaVuSans-61" x="502.294922"/>
      <use xlink:href="#DejaVuSans-6c" x="563.574219"/>
      <use xlink:href="#DejaVuSans-20" x="591.357422"/>
      <use xlink:href="#DejaVuSans-66" x="623.144531"/>
      <use xlink:href="#DejaVuSans-69" x="658.349609"/>
      <use xlink:href="#DejaVuSans-74" x="686.132812"/>
     </g>
    </g>
    <g id="line2d_23">
     <path d="M 1019.17125 210.421875 
L 1043.17125 210.421875 
L 1067.17125 210.421875 
" style="fill: none; stroke: #9467bd; stroke-width: 1.5; stroke-linecap: square"/>
    </g>
    <g id="text_20">
     <!-- Laplace fit -->
     <g transform="translate(1086.37125 218.821875) scale(0.24 -0.24)">
      <defs>
       <path id="DejaVuSans-4c" d="M 628 4666 
L 1259 4666 
L 1259 531 
L 3531 531 
L 3531 0 
L 628 0 
L 628 4666 
z
" transform="scale(0.015625)"/>
       <path id="DejaVuSans-63" d="M 3122 3366 
L 3122 2828 
Q 2878 2963 2633 3030 
Q 2388 3097 2138 3097 
Q 1578 3097 1268 2742 
Q 959 2388 959 1747 
Q 959 1106 1268 751 
Q 1578 397 2138 397 
Q 2388 397 2633 464 
Q 2878 531 3122 666 
L 3122 134 
Q 2881 22 2623 -34 
Q 2366 -91 2075 -91 
Q 1284 -91 818 406 
Q 353 903 353 1747 
Q 353 2603 823 3093 
Q 1294 3584 2113 3584 
Q 2378 3584 2631 3529 
Q 2884 3475 3122 3366 
z
" transform="scale(0.015625)"/>
      </defs>
      <use xlink:href="#DejaVuSans-4c"/>
      <use xlink:href="#DejaVuSans-61" x="55.712891"/>
      <use xlink:href="#DejaVuSans-70" x="116.992188"/>
      <use xlink:href="#DejaVuSans-6c" x="180.46875"/>
      <use xlink:href="#DejaVuSans-61" x="208.251953"/>
      <use xlink:href="#DejaVuSans-63" x="269.53125"/>
      <use xlink:href="#DejaVuSans-65" x="324.511719"/>
      <use xlink:href="#DejaVuSans-20" x="386.035156"/>
      <use xlink:href="#DejaVuSans-66" x="417.822266"/>
      <use xlink:href="#DejaVuSans-69" x="453.027344"/>
      <use xlink:href="#DejaVuSans-74" x="480.810547"/>
     </g>
    </g>
    <g id="line2d_24">
     <path d="M 1019.17125 245.649375 
L 1043.17125 245.649375 
L 1067.17125 245.649375 
" style="fill: none; stroke: #8c564b; stroke-width: 1.5; stroke-linecap: square"/>
    </g>
    <g id="text_21">
     <!-- LogNorm fit -->
     <g transform="translate(1086.37125 254.049375) scale(0.24 -0.24)">
      <defs>
       <path id="DejaVuSans-67" d="M 2906 1791 
Q 2906 2416 2648 2759 
Q 2391 3103 1925 3103 
Q 1463 3103 1205 2759 
Q 947 2416 947 1791 
Q 947 1169 1205 825 
Q 1463 481 1925 481 
Q 2391 481 2648 825 
Q 2906 1169 2906 1791 
z
M 3481 434 
Q 3481 -459 3084 -895 
Q 2688 -1331 1869 -1331 
Q 1566 -1331 1297 -1286 
Q 1028 -1241 775 -1147 
L 775 -588 
Q 1028 -725 1275 -790 
Q 1522 -856 1778 -856 
Q 2344 -856 2625 -561 
Q 2906 -266 2906 331 
L 2906 616 
Q 2728 306 2450 153 
Q 2172 0 1784 0 
Q 1141 0 747 490 
Q 353 981 353 1791 
Q 353 2603 747 3093 
Q 1141 3584 1784 3584 
Q 2172 3584 2450 3431 
Q 2728 3278 2906 2969 
L 2906 3500 
L 3481 3500 
L 3481 434 
z
" transform="scale(0.015625)"/>
      </defs>
      <use xlink:href="#DejaVuSans-4c"/>
      <use xlink:href="#DejaVuSans-6f" x="53.962891"/>
      <use xlink:href="#DejaVuSans-67" x="115.144531"/>
      <use xlink:href="#DejaVuSans-4e" x="178.621094"/>
      <use xlink:href="#DejaVuSans-6f" x="253.425781"/>
      <use xlink:href="#DejaVuSans-72" x="314.607422"/>
      <use xlink:href="#DejaVuSans-6d" x="353.970703"/>
      <use xlink:href="#DejaVuSans-20" x="451.382812"/>
      <use xlink:href="#DejaVuSans-66" x="483.169922"/>
      <use xlink:href="#DejaVuSans-69" x="518.375"/>
      <use xlink:href="#DejaVuSans-74" x="546.158203"/>
     </g>
    </g>
    <g id="line2d_25">
     <path d="M 1019.17125 280.876875 
L 1043.17125 280.876875 
L 1067.17125 280.876875 
" style="fill: none; stroke: #e377c2; stroke-width: 1.5; stroke-linecap: square"/>
    </g>
    <g id="text_22">
     <!-- Normal fit -->
     <g transform="translate(1086.37125 289.276875) scale(0.24 -0.24)">
      <use xlink:href="#DejaVuSans-4e"/>
      <use xlink:href="#DejaVuSans-6f" x="74.804688"/>
      <use xlink:href="#DejaVuSans-72" x="135.986328"/>
      <use xlink:href="#DejaVuSans-6d" x="175.349609"/>
      <use xlink:href="#DejaVuSans-61" x="272.761719"/>
      <use xlink:href="#DejaVuSans-6c" x="334.041016"/>
      <use xlink:href="#DejaVuSans-20" x="361.824219"/>
      <use xlink:href="#DejaVuSans-66" x="393.611328"/>
      <use xlink:href="#DejaVuSans-69" x="428.816406"/>
      <use xlink:href="#DejaVuSans-74" x="456.599609"/>
     </g>
    </g>
   </g>
  </g>
 </g>
 <defs>
  <clipPath id="p08ab435c99">
   <rect x="72.685313" y="38.075625" width="1356.514688" height="790.70375"/>
  </clipPath>
 </defs>
</svg>
