<?xml version="1.0" encoding="utf-8" standalone="no"?>
<!DOCTYPE svg PUBLIC "-//W3C//DTD SVG 1.1//EN"
  "http://www.w3.org/Graphics/SVG/1.1/DTD/svg11.dtd">
<svg xmlns:xlink="http://www.w3.org/1999/xlink" width="1296pt" height="720pt" viewBox="0 0 1296 720" xmlns="http://www.w3.org/2000/svg" version="1.1">
 <metadata>
  <rdf:RDF xmlns:dc="http://purl.org/dc/elements/1.1/" xmlns:cc="http://creativecommons.org/ns#" xmlns:rdf="http://www.w3.org/1999/02/22-rdf-syntax-ns#">
   <cc:Work>
    <dc:type rdf:resource="http://purl.org/dc/dcmitype/StillImage"/>
    <dc:date>2022-02-22T09:42:00.640984</dc:date>
    <dc:format>image/svg+xml</dc:format>
    <dc:creator>
     <cc:Agent>
      <dc:title>Matplotlib v3.5.1, https://matplotlib.org/</dc:title>
     </cc:Agent>
    </dc:creator>
   </cc:Work>
  </rdf:RDF>
 </metadata>
 <defs>
  <style type="text/css">*{stroke-linejoin: round; stroke-linecap: butt}</style>
 </defs>
 <g id="figure_1">
  <g id="patch_1">
   <path d="M 0 720 
L 1296 720 
L 1296 0 
L 0 0 
z
" style="fill: #ffffff"/>
  </g>
  <g id="axes_1">
   <g id="patch_2">
    <path d="M 162 640.8 
L 1166.4 640.8 
L 1166.4 86.4 
L 162 86.4 
z
" style="fill: #ffffff"/>
   </g>
   <g id="matplotlib.axis_1">
    <g id="xtick_1">
     <g id="line2d_1">
      <defs>
       <path id="m66d686fb76" d="M 0 0 
L 0 3.5 
" style="stroke: #000000; stroke-width: 0.8"/>
      </defs>
      <g>
       <use xlink:href="#m66d686fb76" x="162" y="640.8" style="stroke: #000000; stroke-width: 0.8"/>
      </g>
     </g>
     <g id="text_1">
      <!-- 0.28 -->
      <g transform="translate(150.867187 655.398438)scale(0.1 -0.1)">
       <defs>
        <path id="DejaVuSans-30" d="M 2034 4250 
Q 1547 4250 1301 3770 
Q 1056 3291 1056 2328 
Q 1056 1369 1301 889 
Q 1547 409 2034 409 
Q 2525 409 2770 889 
Q 3016 1369 3016 2328 
Q 3016 3291 2770 3770 
Q 2525 4250 2034 4250 
z
M 2034 4750 
Q 2819 4750 3233 4129 
Q 3647 3509 3647 2328 
Q 3647 1150 3233 529 
Q 2819 -91 2034 -91 
Q 1250 -91 836 529 
Q 422 1150 422 2328 
Q 422 3509 836 4129 
Q 1250 4750 2034 4750 
z
" transform="scale(0.015625)"/>
        <path id="DejaVuSans-2e" d="M 684 794 
L 1344 794 
L 1344 0 
L 684 0 
L 684 794 
z
" transform="scale(0.015625)"/>
        <path id="DejaVuSans-32" d="M 1228 531 
L 3431 531 
L 3431 0 
L 469 0 
L 469 531 
Q 828 903 1448 1529 
Q 2069 2156 2228 2338 
Q 2531 2678 2651 2914 
Q 2772 3150 2772 3378 
Q 2772 3750 2511 3984 
Q 2250 4219 1831 4219 
Q 1534 4219 1204 4116 
Q 875 4013 500 3803 
L 500 4441 
Q 881 4594 1212 4672 
Q 1544 4750 1819 4750 
Q 2544 4750 2975 4387 
Q 3406 4025 3406 3419 
Q 3406 3131 3298 2873 
Q 3191 2616 2906 2266 
Q 2828 2175 2409 1742 
Q 1991 1309 1228 531 
z
" transform="scale(0.015625)"/>
        <path id="DejaVuSans-38" d="M 2034 2216 
Q 1584 2216 1326 1975 
Q 1069 1734 1069 1313 
Q 1069 891 1326 650 
Q 1584 409 2034 409 
Q 2484 409 2743 651 
Q 3003 894 3003 1313 
Q 3003 1734 2745 1975 
Q 2488 2216 2034 2216 
z
M 1403 2484 
Q 997 2584 770 2862 
Q 544 3141 544 3541 
Q 544 4100 942 4425 
Q 1341 4750 2034 4750 
Q 2731 4750 3128 4425 
Q 3525 4100 3525 3541 
Q 3525 3141 3298 2862 
Q 3072 2584 2669 2484 
Q 3125 2378 3379 2068 
Q 3634 1759 3634 1313 
Q 3634 634 3220 271 
Q 2806 -91 2034 -91 
Q 1263 -91 848 271 
Q 434 634 434 1313 
Q 434 1759 690 2068 
Q 947 2378 1403 2484 
z
M 1172 3481 
Q 1172 3119 1398 2916 
Q 1625 2713 2034 2713 
Q 2441 2713 2670 2916 
Q 2900 3119 2900 3481 
Q 2900 3844 2670 4047 
Q 2441 4250 2034 4250 
Q 1625 4250 1398 4047 
Q 1172 3844 1172 3481 
z
" transform="scale(0.015625)"/>
       </defs>
       <use xlink:href="#DejaVuSans-30"/>
       <use xlink:href="#DejaVuSans-2e" x="63.623047"/>
       <use xlink:href="#DejaVuSans-32" x="95.410156"/>
       <use xlink:href="#DejaVuSans-38" x="159.033203"/>
      </g>
     </g>
    </g>
    <g id="xtick_2">
     <g id="line2d_2">
      <g>
       <use xlink:href="#m66d686fb76" x="362.88" y="640.8" style="stroke: #000000; stroke-width: 0.8"/>
      </g>
     </g>
     <g id="text_2">
      <!-- 0.30 -->
      <g transform="translate(351.747188 655.398438)scale(0.1 -0.1)">
       <defs>
        <path id="DejaVuSans-33" d="M 2597 2516 
Q 3050 2419 3304 2112 
Q 3559 1806 3559 1356 
Q 3559 666 3084 287 
Q 2609 -91 1734 -91 
Q 1441 -91 1130 -33 
Q 819 25 488 141 
L 488 750 
Q 750 597 1062 519 
Q 1375 441 1716 441 
Q 2309 441 2620 675 
Q 2931 909 2931 1356 
Q 2931 1769 2642 2001 
Q 2353 2234 1838 2234 
L 1294 2234 
L 1294 2753 
L 1863 2753 
Q 2328 2753 2575 2939 
Q 2822 3125 2822 3475 
Q 2822 3834 2567 4026 
Q 2313 4219 1838 4219 
Q 1578 4219 1281 4162 
Q 984 4106 628 3988 
L 628 4550 
Q 988 4650 1302 4700 
Q 1616 4750 1894 4750 
Q 2613 4750 3031 4423 
Q 3450 4097 3450 3541 
Q 3450 3153 3228 2886 
Q 3006 2619 2597 2516 
z
" transform="scale(0.015625)"/>
       </defs>
       <use xlink:href="#DejaVuSans-30"/>
       <use xlink:href="#DejaVuSans-2e" x="63.623047"/>
       <use xlink:href="#DejaVuSans-33" x="95.410156"/>
       <use xlink:href="#DejaVuSans-30" x="159.033203"/>
      </g>
     </g>
    </g>
    <g id="xtick_3">
     <g id="line2d_3">
      <g>
       <use xlink:href="#m66d686fb76" x="563.76" y="640.8" style="stroke: #000000; stroke-width: 0.8"/>
      </g>
     </g>
     <g id="text_3">
      <!-- 0.32 -->
      <g transform="translate(552.627187 655.398438)scale(0.1 -0.1)">
       <use xlink:href="#DejaVuSans-30"/>
       <use xlink:href="#DejaVuSans-2e" x="63.623047"/>
       <use xlink:href="#DejaVuSans-33" x="95.410156"/>
       <use xlink:href="#DejaVuSans-32" x="159.033203"/>
      </g>
     </g>
    </g>
    <g id="xtick_4">
     <g id="line2d_4">
      <g>
       <use xlink:href="#m66d686fb76" x="764.64" y="640.8" style="stroke: #000000; stroke-width: 0.8"/>
      </g>
     </g>
     <g id="text_4">
      <!-- 0.34 -->
      <g transform="translate(753.507187 655.398438)scale(0.1 -0.1)">
       <defs>
        <path id="DejaVuSans-34" d="M 2419 4116 
L 825 1625 
L 2419 1625 
L 2419 4116 
z
M 2253 4666 
L 3047 4666 
L 3047 1625 
L 3713 1625 
L 3713 1100 
L 3047 1100 
L 3047 0 
L 2419 0 
L 2419 1100 
L 313 1100 
L 313 1709 
L 2253 4666 
z
" transform="scale(0.015625)"/>
       </defs>
       <use xlink:href="#DejaVuSans-30"/>
       <use xlink:href="#DejaVuSans-2e" x="63.623047"/>
       <use xlink:href="#DejaVuSans-33" x="95.410156"/>
       <use xlink:href="#DejaVuSans-34" x="159.033203"/>
      </g>
     </g>
    </g>
    <g id="xtick_5">
     <g id="line2d_5">
      <g>
       <use xlink:href="#m66d686fb76" x="965.52" y="640.8" style="stroke: #000000; stroke-width: 0.8"/>
      </g>
     </g>
     <g id="text_5">
      <!-- 0.36 -->
      <g transform="translate(954.387187 655.398438)scale(0.1 -0.1)">
       <defs>
        <path id="DejaVuSans-36" d="M 2113 2584 
Q 1688 2584 1439 2293 
Q 1191 2003 1191 1497 
Q 1191 994 1439 701 
Q 1688 409 2113 409 
Q 2538 409 2786 701 
Q 3034 994 3034 1497 
Q 3034 2003 2786 2293 
Q 2538 2584 2113 2584 
z
M 3366 4563 
L 3366 3988 
Q 3128 4100 2886 4159 
Q 2644 4219 2406 4219 
Q 1781 4219 1451 3797 
Q 1122 3375 1075 2522 
Q 1259 2794 1537 2939 
Q 1816 3084 2150 3084 
Q 2853 3084 3261 2657 
Q 3669 2231 3669 1497 
Q 3669 778 3244 343 
Q 2819 -91 2113 -91 
Q 1303 -91 875 529 
Q 447 1150 447 2328 
Q 447 3434 972 4092 
Q 1497 4750 2381 4750 
Q 2619 4750 2861 4703 
Q 3103 4656 3366 4563 
z
" transform="scale(0.015625)"/>
       </defs>
       <use xlink:href="#DejaVuSans-30"/>
       <use xlink:href="#DejaVuSans-2e" x="63.623047"/>
       <use xlink:href="#DejaVuSans-33" x="95.410156"/>
       <use xlink:href="#DejaVuSans-36" x="159.033203"/>
      </g>
     </g>
    </g>
    <g id="xtick_6">
     <g id="line2d_6">
      <g>
       <use xlink:href="#m66d686fb76" x="1166.4" y="640.8" style="stroke: #000000; stroke-width: 0.8"/>
      </g>
     </g>
     <g id="text_6">
      <!-- 0.38 -->
      <g transform="translate(1155.267187 655.398438)scale(0.1 -0.1)">
       <use xlink:href="#DejaVuSans-30"/>
       <use xlink:href="#DejaVuSans-2e" x="63.623047"/>
       <use xlink:href="#DejaVuSans-33" x="95.410156"/>
       <use xlink:href="#DejaVuSans-38" x="159.033203"/>
      </g>
     </g>
    </g>
    <g id="text_7">
     <!-- Tunes -->
     <g transform="translate(649.883594 669.076563)scale(0.1 -0.1)">
      <defs>
       <path id="DejaVuSans-54" d="M -19 4666 
L 3928 4666 
L 3928 4134 
L 2272 4134 
L 2272 0 
L 1638 0 
L 1638 4134 
L -19 4134 
L -19 4666 
z
" transform="scale(0.015625)"/>
       <path id="DejaVuSans-75" d="M 544 1381 
L 544 3500 
L 1119 3500 
L 1119 1403 
Q 1119 906 1312 657 
Q 1506 409 1894 409 
Q 2359 409 2629 706 
Q 2900 1003 2900 1516 
L 2900 3500 
L 3475 3500 
L 3475 0 
L 2900 0 
L 2900 538 
Q 2691 219 2414 64 
Q 2138 -91 1772 -91 
Q 1169 -91 856 284 
Q 544 659 544 1381 
z
M 1991 3584 
L 1991 3584 
z
" transform="scale(0.015625)"/>
       <path id="DejaVuSans-6e" d="M 3513 2113 
L 3513 0 
L 2938 0 
L 2938 2094 
Q 2938 2591 2744 2837 
Q 2550 3084 2163 3084 
Q 1697 3084 1428 2787 
Q 1159 2491 1159 1978 
L 1159 0 
L 581 0 
L 581 3500 
L 1159 3500 
L 1159 2956 
Q 1366 3272 1645 3428 
Q 1925 3584 2291 3584 
Q 2894 3584 3203 3211 
Q 3513 2838 3513 2113 
z
" transform="scale(0.015625)"/>
       <path id="DejaVuSans-65" d="M 3597 1894 
L 3597 1613 
L 953 1613 
Q 991 1019 1311 708 
Q 1631 397 2203 397 
Q 2534 397 2845 478 
Q 3156 559 3463 722 
L 3463 178 
Q 3153 47 2828 -22 
Q 2503 -91 2169 -91 
Q 1331 -91 842 396 
Q 353 884 353 1716 
Q 353 2575 817 3079 
Q 1281 3584 2069 3584 
Q 2775 3584 3186 3129 
Q 3597 2675 3597 1894 
z
M 3022 2063 
Q 3016 2534 2758 2815 
Q 2500 3097 2075 3097 
Q 1594 3097 1305 2825 
Q 1016 2553 972 2059 
L 3022 2063 
z
" transform="scale(0.015625)"/>
       <path id="DejaVuSans-73" d="M 2834 3397 
L 2834 2853 
Q 2591 2978 2328 3040 
Q 2066 3103 1784 3103 
Q 1356 3103 1142 2972 
Q 928 2841 928 2578 
Q 928 2378 1081 2264 
Q 1234 2150 1697 2047 
L 1894 2003 
Q 2506 1872 2764 1633 
Q 3022 1394 3022 966 
Q 3022 478 2636 193 
Q 2250 -91 1575 -91 
Q 1294 -91 989 -36 
Q 684 19 347 128 
L 347 722 
Q 666 556 975 473 
Q 1284 391 1588 391 
Q 1994 391 2212 530 
Q 2431 669 2431 922 
Q 2431 1156 2273 1281 
Q 2116 1406 1581 1522 
L 1381 1569 
Q 847 1681 609 1914 
Q 372 2147 372 2553 
Q 372 3047 722 3315 
Q 1072 3584 1716 3584 
Q 2034 3584 2315 3537 
Q 2597 3491 2834 3397 
z
" transform="scale(0.015625)"/>
      </defs>
      <use xlink:href="#DejaVuSans-54"/>
      <use xlink:href="#DejaVuSans-75" x="45.958984"/>
      <use xlink:href="#DejaVuSans-6e" x="109.337891"/>
      <use xlink:href="#DejaVuSans-65" x="172.716797"/>
      <use xlink:href="#DejaVuSans-73" x="234.240234"/>
     </g>
    </g>
   </g>
   <g id="matplotlib.axis_2">
    <g id="ytick_1">
     <g id="line2d_7">
      <defs>
       <path id="ma1c6ab14a8" d="M 0 0 
L -3.5 0 
" style="stroke: #000000; stroke-width: 0.8"/>
      </defs>
      <g>
       <use xlink:href="#ma1c6ab14a8" x="162" y="598.283061" style="stroke: #000000; stroke-width: 0.8"/>
      </g>
     </g>
     <g id="text_8">
      <!-- $\mathdefault{10^{-5}}$ -->
      <g transform="translate(131.5 602.08228)scale(0.1 -0.1)">
       <defs>
        <path id="DejaVuSans-31" d="M 794 531 
L 1825 531 
L 1825 4091 
L 703 3866 
L 703 4441 
L 1819 4666 
L 2450 4666 
L 2450 531 
L 3481 531 
L 3481 0 
L 794 0 
L 794 531 
z
" transform="scale(0.015625)"/>
        <path id="DejaVuSans-2212" d="M 678 2272 
L 4684 2272 
L 4684 1741 
L 678 1741 
L 678 2272 
z
" transform="scale(0.015625)"/>
        <path id="DejaVuSans-35" d="M 691 4666 
L 3169 4666 
L 3169 4134 
L 1269 4134 
L 1269 2991 
Q 1406 3038 1543 3061 
Q 1681 3084 1819 3084 
Q 2600 3084 3056 2656 
Q 3513 2228 3513 1497 
Q 3513 744 3044 326 
Q 2575 -91 1722 -91 
Q 1428 -91 1123 -41 
Q 819 9 494 109 
L 494 744 
Q 775 591 1075 516 
Q 1375 441 1709 441 
Q 2250 441 2565 725 
Q 2881 1009 2881 1497 
Q 2881 1984 2565 2268 
Q 2250 2553 1709 2553 
Q 1456 2553 1204 2497 
Q 953 2441 691 2322 
L 691 4666 
z
" transform="scale(0.015625)"/>
       </defs>
       <use xlink:href="#DejaVuSans-31" transform="translate(0 0.684375)"/>
       <use xlink:href="#DejaVuSans-30" transform="translate(63.623047 0.684375)"/>
       <use xlink:href="#DejaVuSans-2212" transform="translate(128.203125 38.965625)scale(0.7)"/>
       <use xlink:href="#DejaVuSans-35" transform="translate(186.855469 38.965625)scale(0.7)"/>
      </g>
     </g>
    </g>
    <g id="ytick_2">
     <g id="line2d_8">
      <g>
       <use xlink:href="#ma1c6ab14a8" x="162" y="513.367146" style="stroke: #000000; stroke-width: 0.8"/>
      </g>
     </g>
     <g id="text_9">
      <!-- $\mathdefault{10^{-4}}$ -->
      <g transform="translate(131.5 517.166365)scale(0.1 -0.1)">
       <use xlink:href="#DejaVuSans-31" transform="translate(0 0.684375)"/>
       <use xlink:href="#DejaVuSans-30" transform="translate(63.623047 0.684375)"/>
       <use xlink:href="#DejaVuSans-2212" transform="translate(128.203125 38.965625)scale(0.7)"/>
       <use xlink:href="#DejaVuSans-34" transform="translate(186.855469 38.965625)scale(0.7)"/>
      </g>
     </g>
    </g>
    <g id="ytick_3">
     <g id="line2d_9">
      <g>
       <use xlink:href="#ma1c6ab14a8" x="162" y="428.451232" style="stroke: #000000; stroke-width: 0.8"/>
      </g>
     </g>
     <g id="text_10">
      <!-- $\mathdefault{10^{-3}}$ -->
      <g transform="translate(131.5 432.25045)scale(0.1 -0.1)">
       <use xlink:href="#DejaVuSans-31" transform="translate(0 0.765625)"/>
       <use xlink:href="#DejaVuSans-30" transform="translate(63.623047 0.765625)"/>
       <use xlink:href="#DejaVuSans-2212" transform="translate(128.203125 39.046875)scale(0.7)"/>
       <use xlink:href="#DejaVuSans-33" transform="translate(186.855469 39.046875)scale(0.7)"/>
      </g>
     </g>
    </g>
    <g id="ytick_4">
     <g id="line2d_10">
      <g>
       <use xlink:href="#ma1c6ab14a8" x="162" y="343.535317" style="stroke: #000000; stroke-width: 0.8"/>
      </g>
     </g>
     <g id="text_11">
      <!-- $\mathdefault{10^{-2}}$ -->
      <g transform="translate(131.5 347.334536)scale(0.1 -0.1)">
       <use xlink:href="#DejaVuSans-31" transform="translate(0 0.765625)"/>
       <use xlink:href="#DejaVuSans-30" transform="translate(63.623047 0.765625)"/>
       <use xlink:href="#DejaVuSans-2212" transform="translate(128.203125 39.046875)scale(0.7)"/>
       <use xlink:href="#DejaVuSans-32" transform="translate(186.855469 39.046875)scale(0.7)"/>
      </g>
     </g>
    </g>
    <g id="ytick_5">
     <g id="line2d_11">
      <g>
       <use xlink:href="#ma1c6ab14a8" x="162" y="258.619402" style="stroke: #000000; stroke-width: 0.8"/>
      </g>
     </g>
     <g id="text_12">
      <!-- $\mathdefault{10^{-1}}$ -->
      <g transform="translate(131.5 262.418621)scale(0.1 -0.1)">
       <use xlink:href="#DejaVuSans-31" transform="translate(0 0.684375)"/>
       <use xlink:href="#DejaVuSans-30" transform="translate(63.623047 0.684375)"/>
       <use xlink:href="#DejaVuSans-2212" transform="translate(128.203125 38.965625)scale(0.7)"/>
       <use xlink:href="#DejaVuSans-31" transform="translate(186.855469 38.965625)scale(0.7)"/>
      </g>
     </g>
    </g>
    <g id="ytick_6">
     <g id="line2d_12">
      <g>
       <use xlink:href="#ma1c6ab14a8" x="162" y="173.703488" style="stroke: #000000; stroke-width: 0.8"/>
      </g>
     </g>
     <g id="text_13">
      <!-- $\mathdefault{10^{0}}$ -->
      <g transform="translate(137.4 177.502707)scale(0.1 -0.1)">
       <use xlink:href="#DejaVuSans-31" transform="translate(0 0.765625)"/>
       <use xlink:href="#DejaVuSans-30" transform="translate(63.623047 0.765625)"/>
       <use xlink:href="#DejaVuSans-30" transform="translate(128.203125 39.046875)scale(0.7)"/>
      </g>
     </g>
    </g>
    <g id="ytick_7">
     <g id="line2d_13">
      <g>
       <use xlink:href="#ma1c6ab14a8" x="162" y="88.787573" style="stroke: #000000; stroke-width: 0.8"/>
      </g>
     </g>
     <g id="text_14">
      <!-- $\mathdefault{10^{1}}$ -->
      <g transform="translate(137.4 92.586792)scale(0.1 -0.1)">
       <use xlink:href="#DejaVuSans-31" transform="translate(0 0.684375)"/>
       <use xlink:href="#DejaVuSans-30" transform="translate(63.623047 0.684375)"/>
       <use xlink:href="#DejaVuSans-31" transform="translate(128.203125 38.965625)scale(0.7)"/>
      </g>
     </g>
    </g>
    <g id="ytick_8">
     <g id="line2d_14">
      <defs>
       <path id="m146fdd27fd" d="M 0 0 
L -2 0 
" style="stroke: #000000; stroke-width: 0.6"/>
      </defs>
      <g>
       <use xlink:href="#m146fdd27fd" x="162" y="632.074501" style="stroke: #000000; stroke-width: 0.6"/>
      </g>
     </g>
    </g>
    <g id="ytick_9">
     <g id="line2d_15">
      <g>
       <use xlink:href="#m146fdd27fd" x="162" y="623.845298" style="stroke: #000000; stroke-width: 0.6"/>
      </g>
     </g>
    </g>
    <g id="ytick_10">
     <g id="line2d_16">
      <g>
       <use xlink:href="#m146fdd27fd" x="162" y="617.12155" style="stroke: #000000; stroke-width: 0.6"/>
      </g>
     </g>
    </g>
    <g id="ytick_11">
     <g id="line2d_17">
      <g>
       <use xlink:href="#m146fdd27fd" x="162" y="611.436703" style="stroke: #000000; stroke-width: 0.6"/>
      </g>
     </g>
    </g>
    <g id="ytick_12">
     <g id="line2d_18">
      <g>
       <use xlink:href="#m146fdd27fd" x="162" y="606.512263" style="stroke: #000000; stroke-width: 0.6"/>
      </g>
     </g>
    </g>
    <g id="ytick_13">
     <g id="line2d_19">
      <g>
       <use xlink:href="#m146fdd27fd" x="162" y="602.1686" style="stroke: #000000; stroke-width: 0.6"/>
      </g>
     </g>
    </g>
    <g id="ytick_14">
     <g id="line2d_20">
      <g>
       <use xlink:href="#m146fdd27fd" x="162" y="572.720824" style="stroke: #000000; stroke-width: 0.6"/>
      </g>
     </g>
    </g>
    <g id="ytick_15">
     <g id="line2d_21">
      <g>
       <use xlink:href="#m146fdd27fd" x="162" y="557.767873" style="stroke: #000000; stroke-width: 0.6"/>
      </g>
     </g>
    </g>
    <g id="ytick_16">
     <g id="line2d_22">
      <g>
       <use xlink:href="#m146fdd27fd" x="162" y="547.158586" style="stroke: #000000; stroke-width: 0.6"/>
      </g>
     </g>
    </g>
    <g id="ytick_17">
     <g id="line2d_23">
      <g>
       <use xlink:href="#m146fdd27fd" x="162" y="538.929384" style="stroke: #000000; stroke-width: 0.6"/>
      </g>
     </g>
    </g>
    <g id="ytick_18">
     <g id="line2d_24">
      <g>
       <use xlink:href="#m146fdd27fd" x="162" y="532.205636" style="stroke: #000000; stroke-width: 0.6"/>
      </g>
     </g>
    </g>
    <g id="ytick_19">
     <g id="line2d_25">
      <g>
       <use xlink:href="#m146fdd27fd" x="162" y="526.520788" style="stroke: #000000; stroke-width: 0.6"/>
      </g>
     </g>
    </g>
    <g id="ytick_20">
     <g id="line2d_26">
      <g>
       <use xlink:href="#m146fdd27fd" x="162" y="521.596349" style="stroke: #000000; stroke-width: 0.6"/>
      </g>
     </g>
    </g>
    <g id="ytick_21">
     <g id="line2d_27">
      <g>
       <use xlink:href="#m146fdd27fd" x="162" y="517.252685" style="stroke: #000000; stroke-width: 0.6"/>
      </g>
     </g>
    </g>
    <g id="ytick_22">
     <g id="line2d_28">
      <g>
       <use xlink:href="#m146fdd27fd" x="162" y="487.804909" style="stroke: #000000; stroke-width: 0.6"/>
      </g>
     </g>
    </g>
    <g id="ytick_23">
     <g id="line2d_29">
      <g>
       <use xlink:href="#m146fdd27fd" x="162" y="472.851959" style="stroke: #000000; stroke-width: 0.6"/>
      </g>
     </g>
    </g>
    <g id="ytick_24">
     <g id="line2d_30">
      <g>
       <use xlink:href="#m146fdd27fd" x="162" y="462.242671" style="stroke: #000000; stroke-width: 0.6"/>
      </g>
     </g>
    </g>
    <g id="ytick_25">
     <g id="line2d_31">
      <g>
       <use xlink:href="#m146fdd27fd" x="162" y="454.013469" style="stroke: #000000; stroke-width: 0.6"/>
      </g>
     </g>
    </g>
    <g id="ytick_26">
     <g id="line2d_32">
      <g>
       <use xlink:href="#m146fdd27fd" x="162" y="447.289721" style="stroke: #000000; stroke-width: 0.6"/>
      </g>
     </g>
    </g>
    <g id="ytick_27">
     <g id="line2d_33">
      <g>
       <use xlink:href="#m146fdd27fd" x="162" y="441.604873" style="stroke: #000000; stroke-width: 0.6"/>
      </g>
     </g>
    </g>
    <g id="ytick_28">
     <g id="line2d_34">
      <g>
       <use xlink:href="#m146fdd27fd" x="162" y="436.680434" style="stroke: #000000; stroke-width: 0.6"/>
      </g>
     </g>
    </g>
    <g id="ytick_29">
     <g id="line2d_35">
      <g>
       <use xlink:href="#m146fdd27fd" x="162" y="432.336771" style="stroke: #000000; stroke-width: 0.6"/>
      </g>
     </g>
    </g>
    <g id="ytick_30">
     <g id="line2d_36">
      <g>
       <use xlink:href="#m146fdd27fd" x="162" y="402.888994" style="stroke: #000000; stroke-width: 0.6"/>
      </g>
     </g>
    </g>
    <g id="ytick_31">
     <g id="line2d_37">
      <g>
       <use xlink:href="#m146fdd27fd" x="162" y="387.936044" style="stroke: #000000; stroke-width: 0.6"/>
      </g>
     </g>
    </g>
    <g id="ytick_32">
     <g id="line2d_38">
      <g>
       <use xlink:href="#m146fdd27fd" x="162" y="377.326757" style="stroke: #000000; stroke-width: 0.6"/>
      </g>
     </g>
    </g>
    <g id="ytick_33">
     <g id="line2d_39">
      <g>
       <use xlink:href="#m146fdd27fd" x="162" y="369.097554" style="stroke: #000000; stroke-width: 0.6"/>
      </g>
     </g>
    </g>
    <g id="ytick_34">
     <g id="line2d_40">
      <g>
       <use xlink:href="#m146fdd27fd" x="162" y="362.373807" style="stroke: #000000; stroke-width: 0.6"/>
      </g>
     </g>
    </g>
    <g id="ytick_35">
     <g id="line2d_41">
      <g>
       <use xlink:href="#m146fdd27fd" x="162" y="356.688959" style="stroke: #000000; stroke-width: 0.6"/>
      </g>
     </g>
    </g>
    <g id="ytick_36">
     <g id="line2d_42">
      <g>
       <use xlink:href="#m146fdd27fd" x="162" y="351.764519" style="stroke: #000000; stroke-width: 0.6"/>
      </g>
     </g>
    </g>
    <g id="ytick_37">
     <g id="line2d_43">
      <g>
       <use xlink:href="#m146fdd27fd" x="162" y="347.420856" style="stroke: #000000; stroke-width: 0.6"/>
      </g>
     </g>
    </g>
    <g id="ytick_38">
     <g id="line2d_44">
      <g>
       <use xlink:href="#m146fdd27fd" x="162" y="317.97308" style="stroke: #000000; stroke-width: 0.6"/>
      </g>
     </g>
    </g>
    <g id="ytick_39">
     <g id="line2d_45">
      <g>
       <use xlink:href="#m146fdd27fd" x="162" y="303.020129" style="stroke: #000000; stroke-width: 0.6"/>
      </g>
     </g>
    </g>
    <g id="ytick_40">
     <g id="line2d_46">
      <g>
       <use xlink:href="#m146fdd27fd" x="162" y="292.410842" style="stroke: #000000; stroke-width: 0.6"/>
      </g>
     </g>
    </g>
    <g id="ytick_41">
     <g id="line2d_47">
      <g>
       <use xlink:href="#m146fdd27fd" x="162" y="284.18164" style="stroke: #000000; stroke-width: 0.6"/>
      </g>
     </g>
    </g>
    <g id="ytick_42">
     <g id="line2d_48">
      <g>
       <use xlink:href="#m146fdd27fd" x="162" y="277.457892" style="stroke: #000000; stroke-width: 0.6"/>
      </g>
     </g>
    </g>
    <g id="ytick_43">
     <g id="line2d_49">
      <g>
       <use xlink:href="#m146fdd27fd" x="162" y="271.773044" style="stroke: #000000; stroke-width: 0.6"/>
      </g>
     </g>
    </g>
    <g id="ytick_44">
     <g id="line2d_50">
      <g>
       <use xlink:href="#m146fdd27fd" x="162" y="266.848605" style="stroke: #000000; stroke-width: 0.6"/>
      </g>
     </g>
    </g>
    <g id="ytick_45">
     <g id="line2d_51">
      <g>
       <use xlink:href="#m146fdd27fd" x="162" y="262.504942" style="stroke: #000000; stroke-width: 0.6"/>
      </g>
     </g>
    </g>
    <g id="ytick_46">
     <g id="line2d_52">
      <g>
       <use xlink:href="#m146fdd27fd" x="162" y="233.057165" style="stroke: #000000; stroke-width: 0.6"/>
      </g>
     </g>
    </g>
    <g id="ytick_47">
     <g id="line2d_53">
      <g>
       <use xlink:href="#m146fdd27fd" x="162" y="218.104215" style="stroke: #000000; stroke-width: 0.6"/>
      </g>
     </g>
    </g>
    <g id="ytick_48">
     <g id="line2d_54">
      <g>
       <use xlink:href="#m146fdd27fd" x="162" y="207.494928" style="stroke: #000000; stroke-width: 0.6"/>
      </g>
     </g>
    </g>
    <g id="ytick_49">
     <g id="line2d_55">
      <g>
       <use xlink:href="#m146fdd27fd" x="162" y="199.265725" style="stroke: #000000; stroke-width: 0.6"/>
      </g>
     </g>
    </g>
    <g id="ytick_50">
     <g id="line2d_56">
      <g>
       <use xlink:href="#m146fdd27fd" x="162" y="192.541977" style="stroke: #000000; stroke-width: 0.6"/>
      </g>
     </g>
    </g>
    <g id="ytick_51">
     <g id="line2d_57">
      <g>
       <use xlink:href="#m146fdd27fd" x="162" y="186.857129" style="stroke: #000000; stroke-width: 0.6"/>
      </g>
     </g>
    </g>
    <g id="ytick_52">
     <g id="line2d_58">
      <g>
       <use xlink:href="#m146fdd27fd" x="162" y="181.93269" style="stroke: #000000; stroke-width: 0.6"/>
      </g>
     </g>
    </g>
    <g id="ytick_53">
     <g id="line2d_59">
      <g>
       <use xlink:href="#m146fdd27fd" x="162" y="177.589027" style="stroke: #000000; stroke-width: 0.6"/>
      </g>
     </g>
    </g>
    <g id="ytick_54">
     <g id="line2d_60">
      <g>
       <use xlink:href="#m146fdd27fd" x="162" y="148.14125" style="stroke: #000000; stroke-width: 0.6"/>
      </g>
     </g>
    </g>
    <g id="ytick_55">
     <g id="line2d_61">
      <g>
       <use xlink:href="#m146fdd27fd" x="162" y="133.1883" style="stroke: #000000; stroke-width: 0.6"/>
      </g>
     </g>
    </g>
    <g id="ytick_56">
     <g id="line2d_62">
      <g>
       <use xlink:href="#m146fdd27fd" x="162" y="122.579013" style="stroke: #000000; stroke-width: 0.6"/>
      </g>
     </g>
    </g>
    <g id="ytick_57">
     <g id="line2d_63">
      <g>
       <use xlink:href="#m146fdd27fd" x="162" y="114.349811" style="stroke: #000000; stroke-width: 0.6"/>
      </g>
     </g>
    </g>
    <g id="ytick_58">
     <g id="line2d_64">
      <g>
       <use xlink:href="#m146fdd27fd" x="162" y="107.626063" style="stroke: #000000; stroke-width: 0.6"/>
      </g>
     </g>
    </g>
    <g id="ytick_59">
     <g id="line2d_65">
      <g>
       <use xlink:href="#m146fdd27fd" x="162" y="101.941215" style="stroke: #000000; stroke-width: 0.6"/>
      </g>
     </g>
    </g>
    <g id="ytick_60">
     <g id="line2d_66">
      <g>
       <use xlink:href="#m146fdd27fd" x="162" y="97.016776" style="stroke: #000000; stroke-width: 0.6"/>
      </g>
     </g>
    </g>
    <g id="ytick_61">
     <g id="line2d_67">
      <g>
       <use xlink:href="#m146fdd27fd" x="162" y="92.673112" style="stroke: #000000; stroke-width: 0.6"/>
      </g>
     </g>
    </g>
    <g id="text_15">
     <!-- Spectrum [a.u] -->
     <g transform="translate(125.420312 401.141406)rotate(-90)scale(0.1 -0.1)">
      <defs>
       <path id="DejaVuSans-53" d="M 3425 4513 
L 3425 3897 
Q 3066 4069 2747 4153 
Q 2428 4238 2131 4238 
Q 1616 4238 1336 4038 
Q 1056 3838 1056 3469 
Q 1056 3159 1242 3001 
Q 1428 2844 1947 2747 
L 2328 2669 
Q 3034 2534 3370 2195 
Q 3706 1856 3706 1288 
Q 3706 609 3251 259 
Q 2797 -91 1919 -91 
Q 1588 -91 1214 -16 
Q 841 59 441 206 
L 441 856 
Q 825 641 1194 531 
Q 1563 422 1919 422 
Q 2459 422 2753 634 
Q 3047 847 3047 1241 
Q 3047 1584 2836 1778 
Q 2625 1972 2144 2069 
L 1759 2144 
Q 1053 2284 737 2584 
Q 422 2884 422 3419 
Q 422 4038 858 4394 
Q 1294 4750 2059 4750 
Q 2388 4750 2728 4690 
Q 3069 4631 3425 4513 
z
" transform="scale(0.015625)"/>
       <path id="DejaVuSans-70" d="M 1159 525 
L 1159 -1331 
L 581 -1331 
L 581 3500 
L 1159 3500 
L 1159 2969 
Q 1341 3281 1617 3432 
Q 1894 3584 2278 3584 
Q 2916 3584 3314 3078 
Q 3713 2572 3713 1747 
Q 3713 922 3314 415 
Q 2916 -91 2278 -91 
Q 1894 -91 1617 61 
Q 1341 213 1159 525 
z
M 3116 1747 
Q 3116 2381 2855 2742 
Q 2594 3103 2138 3103 
Q 1681 3103 1420 2742 
Q 1159 2381 1159 1747 
Q 1159 1113 1420 752 
Q 1681 391 2138 391 
Q 2594 391 2855 752 
Q 3116 1113 3116 1747 
z
" transform="scale(0.015625)"/>
       <path id="DejaVuSans-63" d="M 3122 3366 
L 3122 2828 
Q 2878 2963 2633 3030 
Q 2388 3097 2138 3097 
Q 1578 3097 1268 2742 
Q 959 2388 959 1747 
Q 959 1106 1268 751 
Q 1578 397 2138 397 
Q 2388 397 2633 464 
Q 2878 531 3122 666 
L 3122 134 
Q 2881 22 2623 -34 
Q 2366 -91 2075 -91 
Q 1284 -91 818 406 
Q 353 903 353 1747 
Q 353 2603 823 3093 
Q 1294 3584 2113 3584 
Q 2378 3584 2631 3529 
Q 2884 3475 3122 3366 
z
" transform="scale(0.015625)"/>
       <path id="DejaVuSans-74" d="M 1172 4494 
L 1172 3500 
L 2356 3500 
L 2356 3053 
L 1172 3053 
L 1172 1153 
Q 1172 725 1289 603 
Q 1406 481 1766 481 
L 2356 481 
L 2356 0 
L 1766 0 
Q 1100 0 847 248 
Q 594 497 594 1153 
L 594 3053 
L 172 3053 
L 172 3500 
L 594 3500 
L 594 4494 
L 1172 4494 
z
" transform="scale(0.015625)"/>
       <path id="DejaVuSans-72" d="M 2631 2963 
Q 2534 3019 2420 3045 
Q 2306 3072 2169 3072 
Q 1681 3072 1420 2755 
Q 1159 2438 1159 1844 
L 1159 0 
L 581 0 
L 581 3500 
L 1159 3500 
L 1159 2956 
Q 1341 3275 1631 3429 
Q 1922 3584 2338 3584 
Q 2397 3584 2469 3576 
Q 2541 3569 2628 3553 
L 2631 2963 
z
" transform="scale(0.015625)"/>
       <path id="DejaVuSans-6d" d="M 3328 2828 
Q 3544 3216 3844 3400 
Q 4144 3584 4550 3584 
Q 5097 3584 5394 3201 
Q 5691 2819 5691 2113 
L 5691 0 
L 5113 0 
L 5113 2094 
Q 5113 2597 4934 2840 
Q 4756 3084 4391 3084 
Q 3944 3084 3684 2787 
Q 3425 2491 3425 1978 
L 3425 0 
L 2847 0 
L 2847 2094 
Q 2847 2600 2669 2842 
Q 2491 3084 2119 3084 
Q 1678 3084 1418 2786 
Q 1159 2488 1159 1978 
L 1159 0 
L 581 0 
L 581 3500 
L 1159 3500 
L 1159 2956 
Q 1356 3278 1631 3431 
Q 1906 3584 2284 3584 
Q 2666 3584 2933 3390 
Q 3200 3197 3328 2828 
z
" transform="scale(0.015625)"/>
       <path id="DejaVuSans-20" transform="scale(0.015625)"/>
       <path id="DejaVuSans-5b" d="M 550 4863 
L 1875 4863 
L 1875 4416 
L 1125 4416 
L 1125 -397 
L 1875 -397 
L 1875 -844 
L 550 -844 
L 550 4863 
z
" transform="scale(0.015625)"/>
       <path id="DejaVuSans-61" d="M 2194 1759 
Q 1497 1759 1228 1600 
Q 959 1441 959 1056 
Q 959 750 1161 570 
Q 1363 391 1709 391 
Q 2188 391 2477 730 
Q 2766 1069 2766 1631 
L 2766 1759 
L 2194 1759 
z
M 3341 1997 
L 3341 0 
L 2766 0 
L 2766 531 
Q 2569 213 2275 61 
Q 1981 -91 1556 -91 
Q 1019 -91 701 211 
Q 384 513 384 1019 
Q 384 1609 779 1909 
Q 1175 2209 1959 2209 
L 2766 2209 
L 2766 2266 
Q 2766 2663 2505 2880 
Q 2244 3097 1772 3097 
Q 1472 3097 1187 3025 
Q 903 2953 641 2809 
L 641 3341 
Q 956 3463 1253 3523 
Q 1550 3584 1831 3584 
Q 2591 3584 2966 3190 
Q 3341 2797 3341 1997 
z
" transform="scale(0.015625)"/>
       <path id="DejaVuSans-5d" d="M 1947 4863 
L 1947 -844 
L 622 -844 
L 622 -397 
L 1369 -397 
L 1369 4416 
L 622 4416 
L 622 4863 
L 1947 4863 
z
" transform="scale(0.015625)"/>
      </defs>
      <use xlink:href="#DejaVuSans-53"/>
      <use xlink:href="#DejaVuSans-70" x="63.476562"/>
      <use xlink:href="#DejaVuSans-65" x="126.953125"/>
      <use xlink:href="#DejaVuSans-63" x="188.476562"/>
      <use xlink:href="#DejaVuSans-74" x="243.457031"/>
      <use xlink:href="#DejaVuSans-72" x="282.666016"/>
      <use xlink:href="#DejaVuSans-75" x="323.779297"/>
      <use xlink:href="#DejaVuSans-6d" x="387.158203"/>
      <use xlink:href="#DejaVuSans-20" x="484.570312"/>
      <use xlink:href="#DejaVuSans-5b" x="516.357422"/>
      <use xlink:href="#DejaVuSans-61" x="555.371094"/>
      <use xlink:href="#DejaVuSans-2e" x="616.650391"/>
      <use xlink:href="#DejaVuSans-75" x="648.4375"/>
      <use xlink:href="#DejaVuSans-5d" x="711.816406"/>
     </g>
    </g>
   </g>
   <g id="line2d_68">
    <path d="M 160.904125 491.556231 
L 205.04354 488.82224 
L 206.565589 489.220836 
L 208.087638 488.713685 
L 217.21993 488.241627 
L 224.830174 488.058626 
L 227.874272 488.125802 
L 230.918369 488.41461 
L 232.440418 488.740445 
L 233.962467 489.338094 
L 235.484516 490.573954 
L 237.006565 493.985741 
L 238.528613 501.480025 
L 240.050662 473.981373 
L 241.572711 480.44498 
L 243.09476 482.233351 
L 244.616809 483.022367 
L 246.138857 483.435273 
L 249.182955 483.796658 
L 253.749101 483.891667 
L 261.359345 483.710202 
L 262.881394 483.32841 
L 265.925492 483.281305 
L 275.057785 482.72987 
L 281.14598 482.324878 
L 282.668028 482.389951 
L 284.190077 482.010699 
L 290.278272 481.589126 
L 320.719248 479.171339 
L 322.241297 479.238844 
L 323.763346 478.267706 
L 325.285395 478.500216 
L 329.851541 478.187723 
L 338.983834 477.357806 
L 340.505883 477.119289 
L 342.027932 477.147546 
L 351.160224 476.251436 
L 361.814566 475.23855 
L 363.336615 111.6 
L 364.858663 474.888043 
L 377.035054 473.67949 
L 395.299639 471.732869 
L 401.387835 470.608439 
L 402.909883 468.985825 
L 404.431932 472.333947 
L 405.953981 471.267311 
L 407.47603 470.901762 
L 412.042176 470.248694 
L 422.696518 469.070533 
L 433.350859 468.053368 
L 440.961103 467.510226 
L 442.483152 467.457606 
L 444.005201 467.167025 
L 445.52725 467.293841 
L 448.571347 467.346412 
L 451.615445 467.588434 
L 453.137494 467.842931 
L 454.659542 468.242045 
L 456.181591 468.865946 
L 457.70364 469.865399 
L 459.225689 471.559154 
L 460.747738 474.785297 
L 462.269786 482.593567 
L 463.791835 520.928129 
L 465.313884 303.754581 
L 466.835933 438.681133 
L 468.357982 447.962266 
L 469.88003 451.507323 
L 471.402079 453.265768 
L 472.924128 454.217253 
L 474.446177 454.717585 
L 475.968225 454.917877 
L 477.490274 454.880559 
L 479.012323 454.607648 
L 480.534372 454.040301 
L 482.056421 453.002784 
L 483.578469 451.003491 
L 485.100518 446.360986 
L 486.622567 429.967626 
L 488.144616 405.431854 
L 489.666665 451.572707 
L 491.188713 457.025415 
L 492.710762 457.846682 
L 494.232811 457.833561 
L 497.276909 457.352793 
L 517.063543 453.672021 
L 518.585592 453.229551 
L 520.107641 448.300117 
L 521.629689 453.451529 
L 523.151738 452.960259 
L 527.717885 451.999366 
L 550.548616 447.427259 
L 564.247056 444.39403 
L 577.945495 441.097195 
L 590.121885 437.906988 
L 605.342373 433.412408 
L 614.474666 430.412219 
L 619.040812 428.772983 
L 620.562861 428.169299 
L 622.08491 427.375992 
L 623.606959 427.794662 
L 625.129007 426.777567 
L 637.305398 421.362207 
L 638.827447 420.512797 
L 640.349495 419.503351 
L 641.871544 418.070414 
L 643.393593 414.524022 
L 644.915642 414.237022 
L 646.437691 420.370281 
L 647.959739 418.700665 
L 649.481788 417.550767 
L 652.525886 415.65856 
L 664.702276 408.484677 
L 669.268422 405.533991 
L 673.834569 402.357811 
L 678.400715 398.922795 
L 682.966862 395.374923 
L 684.48891 396.058161 
L 686.010959 391.594092 
L 687.533008 390.44435 
L 690.577106 387.44111 
L 693.621203 384.053287 
L 696.665301 380.294822 
L 699.709398 376.0995 
L 702.753496 371.361184 
L 705.797594 365.922315 
L 707.319642 362.869419 
L 708.841691 359.541222 
L 710.36374 355.883164 
L 711.885789 351.822627 
L 713.407838 347.259952 
L 714.929886 342.053119 
L 716.451935 335.989733 
L 717.973984 328.731157 
L 719.496033 319.687166 
L 721.018082 307.681794 
L 722.54013 289.772678 
L 724.062179 253.596818 
L 725.584228 238.639517 
L 727.106277 284.835179 
L 728.628326 304.708183 
L 730.150374 317.54882 
L 731.672423 327.052772 
L 733.194472 334.600877 
L 734.716521 340.86209 
L 736.238569 346.211775 
L 737.760618 350.881779 
L 739.282667 355.025392 
L 740.804716 358.749262 
L 742.326765 362.130588 
L 745.370862 368.082893 
L 748.41496 373.204649 
L 751.459057 377.698854 
L 754.503155 381.702739 
L 757.547253 385.316044 
L 760.59135 388.59954 
L 763.635448 391.615932 
L 766.679545 394.403288 
L 771.245692 398.223429 
L 775.811838 401.684586 
L 780.377985 404.826235 
L 784.944131 407.755165 
L 789.510277 410.45493 
L 795.598472 413.774975 
L 801.686668 416.826049 
L 807.774863 419.658392 
L 813.863058 422.319092 
L 822.995351 426.254272 
L 824.5174 427.101381 
L 826.039448 428.86818 
L 827.561497 424.984089 
L 829.083546 427.355012 
L 830.605595 428.23149 
L 833.649692 429.553533 
L 842.781985 433.310316 
L 847.348132 435.481567 
L 848.87018 415.238301 
L 850.392229 419.383844 
L 851.914278 429.319202 
L 853.436327 431.954678 
L 854.958376 433.307686 
L 856.480424 434.227616 
L 859.524522 435.564706 
L 862.568619 436.615468 
L 867.134766 437.948448 
L 871.700912 439.086453 
L 874.74501 439.712444 
L 876.267059 439.948494 
L 877.789107 440.070118 
L 879.311156 439.88926 
L 880.833205 438.151274 
L 882.355254 450.819633 
L 883.877303 444.404516 
L 885.399351 443.891554 
L 886.9214 443.893985 
L 889.965498 444.261992 
L 902.141888 446.210772 
L 903.663937 445.580928 
L 905.185986 447.630011 
L 906.708035 447.587273 
L 911.274181 448.246355 
L 928.016718 450.876623 
L 938.671059 452.289364 
L 947.803352 453.255786 
L 953.891547 453.700657 
L 959.979742 453.937383 
L 964.545889 453.910221 
L 969.112035 453.634382 
L 972.156133 453.257421 
L 973.678182 452.879158 
L 975.20023 452.692382 
L 978.244328 451.838698 
L 981.288426 450.622785 
L 982.810474 449.836087 
L 984.332523 448.888282 
L 985.854572 447.807038 
L 987.376621 446.487412 
L 988.898669 444.91763 
L 990.420718 443.041489 
L 991.942767 440.788868 
L 993.464816 438.068262 
L 994.986865 434.756689 
L 996.508913 430.682675 
L 998.030962 425.594759 
L 999.553011 419.097244 
L 1001.07506 410.501143 
L 1002.597109 398.407144 
L 1004.119157 379.104052 
L 1005.641206 333.290357 
L 1007.163255 348.435834 
L 1008.685304 384.606163 
L 1010.207353 402.32209 
L 1011.729401 413.958003 
L 1013.25145 422.471924 
L 1014.773499 429.058424 
L 1016.295548 434.327834 
L 1017.817597 438.639197 
L 1019.339645 442.224611 
L 1020.861694 445.244321 
L 1022.383743 447.814369 
L 1023.905792 450.021714 
L 1025.427841 451.933191 
L 1026.949889 453.601178 
L 1028.471938 455.067633 
L 1031.516036 457.521886 
L 1034.560133 459.499572 
L 1037.604231 461.1439 
L 1043.692426 464.035466 
L 1045.214475 465.258177 
L 1046.736524 457.564801 
L 1048.258573 463.840728 
L 1049.780621 464.727898 
L 1052.824719 465.762492 
L 1057.390865 466.910126 
L 1063.47906 468.163611 
L 1072.611353 469.758791 
L 1081.743646 471.366843 
L 1083.265695 471.781753 
L 1084.787744 472.553963 
L 1086.309792 479.714831 
L 1087.831841 469.886489 
L 1089.35389 471.065609 
L 1090.875939 471.539094 
L 1093.920036 472.119557 
L 1100.008232 472.955565 
L 1112.184622 474.352092 
L 1131.971256 476.313992 
L 1156.324037 478.498289 
L 1162.412232 479.015028 
L 1163.934281 479.356693 
L 1165.45633 479.254792 
L 1166.978379 479.381601 
L 1166.978379 479.381601 
" clip-path="url(#p574bf1b6fd)" style="fill: none; stroke: #1f77b4; stroke-width: 1.5; stroke-linecap: square"/>
   </g>
   <g id="line2d_69">
    <path d="M 160.904125 415.517584 
L 163.948222 415.193943 
L 165.470271 414.750166 
L 166.99232 415.713302 
L 168.514369 415.21285 
L 173.080515 414.749159 
L 197.433296 412.822971 
L 198.955345 412.789899 
L 201.999442 412.476559 
L 244.616809 408.930941 
L 282.668028 405.441813 
L 303.976712 403.258785 
L 313.109004 402.139526 
L 316.153102 401.648398 
L 317.675151 401.328128 
L 319.1972 400.883304 
L 320.719248 400.085967 
L 322.241297 397.262154 
L 323.763346 408.851412 
L 325.285395 403.286269 
L 326.807444 402.280828 
L 328.329492 401.775671 
L 331.37359 401.146609 
L 337.461785 400.267636 
L 354.204322 398.228118 
L 361.814566 397.312988 
L 363.336615 397.785925 
L 364.858663 396.943273 
L 387.689395 394.04755 
L 396.821688 392.712509 
L 399.865786 392.036404 
L 401.387835 391.25803 
L 402.909883 384.829647 
L 404.431932 390.036769 
L 405.953981 391.707635 
L 408.998078 391.397603 
L 436.394957 387.334414 
L 462.269786 383.121 
L 479.012323 380.132474 
L 494.232811 377.187027 
L 503.365104 375.280679 
L 504.887153 374.903972 
L 506.409201 374.691577 
L 526.195836 369.94503 
L 527.717885 368.572649 
L 529.239933 369.461824 
L 533.80608 368.129813 
L 541.416324 365.926991 
L 545.98247 364.433006 
L 549.026568 363.280477 
L 552.070665 361.84556 
L 553.592714 360.89682 
L 555.114763 359.598705 
L 556.636812 357.478051 
L 558.15886 352.696551 
L 559.680909 330.937736 
L 561.202958 342.304647 
L 562.725007 360.441717 
L 564.247056 361.468461 
L 565.769104 361.054593 
L 577.945495 356.051523 
L 579.467544 355.338987 
L 580.989592 354.412768 
L 582.511641 350.41572 
L 584.03369 355.182172 
L 585.555739 353.91418 
L 588.599836 352.42485 
L 603.820324 345.66378 
L 609.908519 342.698077 
L 615.996715 339.498384 
L 622.08491 336.016395 
L 626.651056 333.182437 
L 631.217203 330.122861 
L 635.783349 326.795629 
L 640.349495 323.147778 
L 644.915642 319.123426 
L 647.959739 316.157447 
L 651.003837 312.94978 
L 654.047935 309.442186 
L 657.092032 305.57146 
L 660.13613 301.252867 
L 663.180227 296.367574 
L 666.224325 290.743897 
L 667.746374 287.577244 
L 669.268422 284.115409 
L 670.790471 280.297385 
L 672.31252 276.041043 
L 673.834569 271.232104 
L 675.356618 265.704804 
L 676.878666 259.205402 
L 678.400715 251.316264 
L 679.922764 241.274879 
L 681.444813 227.443833 
L 682.966862 205.077497 
L 684.48891 138.987082 
L 686.010959 190.098511 
L 687.533008 219.991316 
L 689.055057 236.272295 
L 690.577106 247.521093 
L 692.099154 256.123165 
L 693.621203 263.08875 
L 695.143252 268.941349 
L 696.665301 273.987549 
L 698.18735 278.42244 
L 699.709398 282.377878 
L 701.231447 285.947158 
L 702.753496 289.198725 
L 705.797594 294.94379 
L 708.841691 299.904767 
L 711.885789 304.26806 
L 714.929886 308.159168 
L 717.973984 311.663913 
L 721.018082 314.830483 
L 722.54013 316.272398 
L 724.062179 317.446688 
L 725.584228 319.914555 
L 727.106277 320.789265 
L 733.194472 325.553797 
L 737.760618 328.818611 
L 742.326765 331.816723 
L 746.892911 334.584523 
L 752.981106 337.970039 
L 759.069301 341.060557 
L 765.157497 344.025378 
L 768.201594 345.241135 
L 775.811838 348.381473 
L 784.944131 351.851945 
L 786.46618 352.698229 
L 787.988229 352.778742 
L 792.554375 354.38743 
L 800.164619 356.820408 
L 810.81896 359.960265 
L 822.995351 363.186488 
L 833.649692 365.770573 
L 845.826083 368.47621 
L 859.524522 371.258887 
L 873.222961 373.782664 
L 886.9214 376.082713 
L 899.097791 377.946417 
L 914.318279 380.068033 
L 932.582864 382.35709 
L 938.671059 383.190398 
L 940.193108 383.477106 
L 941.715157 383.909624 
L 943.237206 385.05091 
L 944.759254 376.569073 
L 946.281303 382.384044 
L 947.803352 383.052467 
L 950.84745 383.622941 
L 955.413596 384.136106 
L 963.02384 384.762926 
L 972.156133 385.310833 
L 981.288426 385.639152 
L 988.898669 385.704221 
L 994.986865 385.577424 
L 1001.07506 385.244303 
L 1005.641206 384.98975 
L 1007.163255 384.426271 
L 1010.207353 384.066329 
L 1013.25145 383.476911 
L 1016.295548 382.714232 
L 1019.339645 381.738717 
L 1022.383743 380.486542 
L 1025.427841 378.861728 
L 1026.949889 377.866056 
L 1028.471938 376.715393 
L 1029.993987 375.376006 
L 1031.516036 373.803269 
L 1033.038085 371.93674 
L 1034.560133 369.692197 
L 1036.082182 366.948106 
L 1037.604231 363.521117 
L 1039.12628 359.117999 
L 1040.648329 353.230382 
L 1042.170377 344.865043 
L 1043.692426 331.655349 
L 1045.214475 305.041807 
L 1046.736524 257.437817 
L 1048.258573 327.281047 
L 1049.780621 353.653474 
L 1051.30267 371.729425 
L 1052.824719 386.19257 
L 1054.346768 398.52611 
L 1055.868816 409.180601 
L 1057.390865 418.052398 
L 1058.912914 424.7402 
L 1060.434963 428.935035 
L 1061.957012 430.807233 
L 1063.47906 430.979836 
L 1065.001109 430.161204 
L 1068.045207 427.478049 
L 1069.567256 425.943642 
L 1072.611353 423.419025 
L 1075.655451 421.312777 
L 1078.699548 419.618224 
L 1081.743646 418.257767 
L 1084.787744 417.160658 
L 1087.831841 416.271001 
L 1092.397988 415.233815 
L 1096.964134 414.464447 
L 1103.052329 413.736691 
L 1109.140524 413.252047 
L 1116.750768 412.883406 
L 1125.883061 412.676516 
L 1138.059451 412.649615 
L 1147.191744 412.638592 
L 1148.713793 413.209825 
L 1150.235842 412.873092 
L 1165.45633 412.660536 
L 1166.978379 412.403856 
L 1166.978379 412.403856 
" clip-path="url(#p574bf1b6fd)" style="fill: none; stroke: #ff7f0e; stroke-width: 1.5; stroke-linecap: square"/>
   </g>
   <g id="LineCollection_1">
    <path d="M 363.336615 721 
L 363.336615 111.6 
" clip-path="url(#p574bf1b6fd)" style="fill: none; stroke-dasharray: 5.55,2.4; stroke-dashoffset: 0; stroke: #1f77b4; stroke-width: 1.5"/>
   </g>
   <g id="line2d_70">
    <defs>
     <path id="mbb97f7a1b9" d="M 0 3 
C 0.795609 3 1.55874 2.683901 2.12132 2.12132 
C 2.683901 1.55874 3 0.795609 3 0 
C 3 -0.795609 2.683901 -1.55874 2.12132 -2.12132 
C 1.55874 -2.683901 0.795609 -3 0 -3 
C -0.795609 -3 -1.55874 -2.683901 -2.12132 -2.12132 
C -2.683901 -1.55874 -3 -0.795609 -3 0 
C -3 0.795609 -2.683901 1.55874 -2.12132 2.12132 
C -1.55874 2.683901 -0.795609 3 0 3 
z
" style="stroke: #1f77b4"/>
    </defs>
    <g clip-path="url(#p574bf1b6fd)">
     <use xlink:href="#mbb97f7a1b9" x="363.336615" y="111.6" style="fill: #1f77b4; stroke: #1f77b4"/>
    </g>
   </g>
   <g id="line2d_71">
    <path clip-path="url(#p574bf1b6fd)" style="fill: none; stroke: #d62728; stroke-width: 1.5; stroke-linecap: square"/>
   </g>
   <g id="LineCollection_2">
    <path d="M 684.48891 721 
L 684.48891 138.987082 
" clip-path="url(#p574bf1b6fd)" style="fill: none; stroke-dasharray: 5.55,2.4; stroke-dashoffset: 0; stroke: #ff7f0e; stroke-width: 1.5"/>
   </g>
   <g id="line2d_72">
    <defs>
     <path id="m97e44b376c" d="M 0 3 
C 0.795609 3 1.55874 2.683901 2.12132 2.12132 
C 2.683901 1.55874 3 0.795609 3 0 
C 3 -0.795609 2.683901 -1.55874 2.12132 -2.12132 
C 1.55874 -2.683901 0.795609 -3 0 -3 
C -0.795609 -3 -1.55874 -2.683901 -2.12132 -2.12132 
C -2.683901 -1.55874 -3 -0.795609 -3 0 
C -3 0.795609 -2.683901 1.55874 -2.12132 2.12132 
C -1.55874 2.683901 -0.795609 3 0 3 
z
" style="stroke: #ff7f0e"/>
    </defs>
    <g clip-path="url(#p574bf1b6fd)">
     <use xlink:href="#m97e44b376c" x="684.48891" y="138.987082" style="fill: #ff7f0e; stroke: #ff7f0e"/>
    </g>
   </g>
   <g id="line2d_73">
    <path clip-path="url(#p574bf1b6fd)" style="fill: none; stroke: #d62728; stroke-width: 1.5; stroke-linecap: square"/>
   </g>
   <g id="patch_3">
    <path d="M 162 640.8 
L 162 86.4 
" style="fill: none; stroke: #000000; stroke-width: 0.8; stroke-linejoin: miter; stroke-linecap: square"/>
   </g>
   <g id="patch_4">
    <path d="M 1166.4 640.8 
L 1166.4 86.4 
" style="fill: none; stroke: #000000; stroke-width: 0.8; stroke-linejoin: miter; stroke-linecap: square"/>
   </g>
   <g id="patch_5">
    <path d="M 162 640.8 
L 1166.4 640.8 
" style="fill: none; stroke: #000000; stroke-width: 0.8; stroke-linejoin: miter; stroke-linecap: square"/>
   </g>
   <g id="patch_6">
    <path d="M 162 86.4 
L 1166.4 86.4 
" style="fill: none; stroke: #000000; stroke-width: 0.8; stroke-linejoin: miter; stroke-linecap: square"/>
   </g>
   <g id="text_16">
    <!-- Driven Motion Spectrum -->
    <g transform="translate(591.171563 80.4)scale(0.12 -0.12)">
     <defs>
      <path id="DejaVuSans-44" d="M 1259 4147 
L 1259 519 
L 2022 519 
Q 2988 519 3436 956 
Q 3884 1394 3884 2338 
Q 3884 3275 3436 3711 
Q 2988 4147 2022 4147 
L 1259 4147 
z
M 628 4666 
L 1925 4666 
Q 3281 4666 3915 4102 
Q 4550 3538 4550 2338 
Q 4550 1131 3912 565 
Q 3275 0 1925 0 
L 628 0 
L 628 4666 
z
" transform="scale(0.015625)"/>
      <path id="DejaVuSans-69" d="M 603 3500 
L 1178 3500 
L 1178 0 
L 603 0 
L 603 3500 
z
M 603 4863 
L 1178 4863 
L 1178 4134 
L 603 4134 
L 603 4863 
z
" transform="scale(0.015625)"/>
      <path id="DejaVuSans-76" d="M 191 3500 
L 800 3500 
L 1894 563 
L 2988 3500 
L 3597 3500 
L 2284 0 
L 1503 0 
L 191 3500 
z
" transform="scale(0.015625)"/>
      <path id="DejaVuSans-4d" d="M 628 4666 
L 1569 4666 
L 2759 1491 
L 3956 4666 
L 4897 4666 
L 4897 0 
L 4281 0 
L 4281 4097 
L 3078 897 
L 2444 897 
L 1241 4097 
L 1241 0 
L 628 0 
L 628 4666 
z
" transform="scale(0.015625)"/>
      <path id="DejaVuSans-6f" d="M 1959 3097 
Q 1497 3097 1228 2736 
Q 959 2375 959 1747 
Q 959 1119 1226 758 
Q 1494 397 1959 397 
Q 2419 397 2687 759 
Q 2956 1122 2956 1747 
Q 2956 2369 2687 2733 
Q 2419 3097 1959 3097 
z
M 1959 3584 
Q 2709 3584 3137 3096 
Q 3566 2609 3566 1747 
Q 3566 888 3137 398 
Q 2709 -91 1959 -91 
Q 1206 -91 779 398 
Q 353 888 353 1747 
Q 353 2609 779 3096 
Q 1206 3584 1959 3584 
z
" transform="scale(0.015625)"/>
     </defs>
     <use xlink:href="#DejaVuSans-44"/>
     <use xlink:href="#DejaVuSans-72" x="77.001953"/>
     <use xlink:href="#DejaVuSans-69" x="118.115234"/>
     <use xlink:href="#DejaVuSans-76" x="145.898438"/>
     <use xlink:href="#DejaVuSans-65" x="205.078125"/>
     <use xlink:href="#DejaVuSans-6e" x="266.601562"/>
     <use xlink:href="#DejaVuSans-20" x="329.980469"/>
     <use xlink:href="#DejaVuSans-4d" x="361.767578"/>
     <use xlink:href="#DejaVuSans-6f" x="448.046875"/>
     <use xlink:href="#DejaVuSans-74" x="509.228516"/>
     <use xlink:href="#DejaVuSans-69" x="548.4375"/>
     <use xlink:href="#DejaVuSans-6f" x="576.220703"/>
     <use xlink:href="#DejaVuSans-6e" x="637.402344"/>
     <use xlink:href="#DejaVuSans-20" x="700.78125"/>
     <use xlink:href="#DejaVuSans-53" x="732.568359"/>
     <use xlink:href="#DejaVuSans-70" x="796.044922"/>
     <use xlink:href="#DejaVuSans-65" x="859.521484"/>
     <use xlink:href="#DejaVuSans-63" x="921.044922"/>
     <use xlink:href="#DejaVuSans-74" x="976.025391"/>
     <use xlink:href="#DejaVuSans-72" x="1015.234375"/>
     <use xlink:href="#DejaVuSans-75" x="1056.347656"/>
     <use xlink:href="#DejaVuSans-6d" x="1119.726562"/>
    </g>
   </g>
   <g id="legend_1">
    <g id="patch_7">
     <path d="M 1077.523438 154.132812 
L 1159.4 154.132812 
Q 1161.4 154.132812 1161.4 152.132812 
L 1161.4 93.4 
Q 1161.4 91.4 1159.4 91.4 
L 1077.523438 91.4 
Q 1075.523438 91.4 1075.523438 93.4 
L 1075.523438 152.132812 
Q 1075.523438 154.132812 1077.523438 154.132812 
z
" style="fill: #ffffff; opacity: 0.8; stroke: #cccccc; stroke-linejoin: miter"/>
    </g>
    <g id="line2d_74">
     <path d="M 1079.523438 99.498438 
L 1089.523438 99.498438 
L 1099.523438 99.498438 
" style="fill: none; stroke: #1f77b4; stroke-width: 1.5; stroke-linecap: square"/>
    </g>
    <g id="text_17">
     <!-- horizontal -->
     <g transform="translate(1107.523438 102.998438)scale(0.1 -0.1)">
      <defs>
       <path id="DejaVuSans-68" d="M 3513 2113 
L 3513 0 
L 2938 0 
L 2938 2094 
Q 2938 2591 2744 2837 
Q 2550 3084 2163 3084 
Q 1697 3084 1428 2787 
Q 1159 2491 1159 1978 
L 1159 0 
L 581 0 
L 581 4863 
L 1159 4863 
L 1159 2956 
Q 1366 3272 1645 3428 
Q 1925 3584 2291 3584 
Q 2894 3584 3203 3211 
Q 3513 2838 3513 2113 
z
" transform="scale(0.015625)"/>
       <path id="DejaVuSans-7a" d="M 353 3500 
L 3084 3500 
L 3084 2975 
L 922 459 
L 3084 459 
L 3084 0 
L 275 0 
L 275 525 
L 2438 3041 
L 353 3041 
L 353 3500 
z
" transform="scale(0.015625)"/>
       <path id="DejaVuSans-6c" d="M 603 4863 
L 1178 4863 
L 1178 0 
L 603 0 
L 603 4863 
z
" transform="scale(0.015625)"/>
      </defs>
      <use xlink:href="#DejaVuSans-68"/>
      <use xlink:href="#DejaVuSans-6f" x="63.378906"/>
      <use xlink:href="#DejaVuSans-72" x="124.560547"/>
      <use xlink:href="#DejaVuSans-69" x="165.673828"/>
      <use xlink:href="#DejaVuSans-7a" x="193.457031"/>
      <use xlink:href="#DejaVuSans-6f" x="245.947266"/>
      <use xlink:href="#DejaVuSans-6e" x="307.128906"/>
      <use xlink:href="#DejaVuSans-74" x="370.507812"/>
      <use xlink:href="#DejaVuSans-61" x="409.716797"/>
      <use xlink:href="#DejaVuSans-6c" x="470.996094"/>
     </g>
    </g>
    <g id="line2d_75">
     <path d="M 1079.523438 114.176563 
L 1089.523438 114.176563 
L 1099.523438 114.176563 
" style="fill: none; stroke: #ff7f0e; stroke-width: 1.5; stroke-linecap: square"/>
    </g>
    <g id="text_18">
     <!-- vertical -->
     <g transform="translate(1107.523438 117.676563)scale(0.1 -0.1)">
      <use xlink:href="#DejaVuSans-76"/>
      <use xlink:href="#DejaVuSans-65" x="59.179688"/>
      <use xlink:href="#DejaVuSans-72" x="120.703125"/>
      <use xlink:href="#DejaVuSans-74" x="161.816406"/>
      <use xlink:href="#DejaVuSans-69" x="201.025391"/>
      <use xlink:href="#DejaVuSans-63" x="228.808594"/>
      <use xlink:href="#DejaVuSans-61" x="283.789062"/>
      <use xlink:href="#DejaVuSans-6c" x="345.068359"/>
     </g>
    </g>
    <g id="line2d_76">
     <path d="M 1089.523438 132.354688 
L 1089.523438 127.542188 
" style="fill: none; stroke-dasharray: 8.325,3.6; stroke-dashoffset: 0; stroke: #1f77b4; stroke-width: 1.5"/>
    </g>
    <g id="line2d_77">
     <path d="M 1079.523438 132.354688 
L 1099.523438 132.354688 
" style="fill: none; stroke: #d62728; stroke-width: 1.5; stroke-linecap: square"/>
    </g>
    <g id="line2d_78">
     <g>
      <use xlink:href="#mbb97f7a1b9" x="1089.523438" y="127.542188" style="fill: #1f77b4; stroke: #1f77b4"/>
     </g>
    </g>
    <g id="text_19">
     <!-- $Q_{xD}$ -->
     <g transform="translate(1107.523438 132.354688)scale(0.1 -0.1)">
      <defs>
       <path id="DejaVuSans-Oblique-51" d="M 2309 -84 
Q 2275 -88 2237 -89 
Q 2200 -91 2125 -91 
Q 1250 -91 756 411 
Q 263 913 263 1797 
Q 263 2319 452 2844 
Q 641 3369 978 3788 
Q 1369 4269 1858 4509 
Q 2347 4750 2938 4750 
Q 3794 4750 4287 4245 
Q 4781 3741 4781 2869 
Q 4781 1928 4265 1147 
Q 3750 366 2919 44 
L 3553 -825 
L 2847 -825 
L 2309 -84 
z
M 2919 4238 
Q 2400 4238 2003 3986 
Q 1606 3734 1313 3219 
Q 1125 2891 1026 2522 
Q 928 2153 928 1778 
Q 928 1128 1239 775 
Q 1550 422 2119 422 
Q 2631 422 3032 676 
Q 3434 931 3719 1434 
Q 3909 1772 4009 2142 
Q 4109 2513 4109 2881 
Q 4109 3528 3796 3883 
Q 3484 4238 2919 4238 
z
" transform="scale(0.015625)"/>
       <path id="DejaVuSans-Oblique-78" d="M 3841 3500 
L 2234 1784 
L 3219 0 
L 2559 0 
L 1819 1388 
L 531 0 
L -166 0 
L 1556 1844 
L 641 3500 
L 1300 3500 
L 1972 2234 
L 3144 3500 
L 3841 3500 
z
" transform="scale(0.015625)"/>
       <path id="DejaVuSans-Oblique-44" d="M 1081 4666 
L 2438 4666 
Q 3519 4666 4070 4208 
Q 4622 3750 4622 2847 
Q 4622 2250 4412 1698 
Q 4203 1147 3834 769 
Q 3463 381 2891 190 
Q 2319 0 1538 0 
L 172 0 
L 1081 4666 
z
M 1613 4147 
L 909 519 
L 1734 519 
Q 2794 519 3375 1128 
Q 3956 1738 3956 2847 
Q 3956 3519 3581 3833 
Q 3206 4147 2406 4147 
L 1613 4147 
z
" transform="scale(0.015625)"/>
      </defs>
      <use xlink:href="#DejaVuSans-Oblique-51" transform="translate(0 0.78125)"/>
      <use xlink:href="#DejaVuSans-Oblique-78" transform="translate(78.710938 -15.625)scale(0.7)"/>
      <use xlink:href="#DejaVuSans-Oblique-44" transform="translate(120.136719 -15.625)scale(0.7)"/>
     </g>
    </g>
    <g id="line2d_79">
     <path d="M 1089.523438 147.032812 
L 1089.523438 142.220312 
" style="fill: none; stroke-dasharray: 8.325,3.6; stroke-dashoffset: 0; stroke: #ff7f0e; stroke-width: 1.5"/>
    </g>
    <g id="line2d_80">
     <path d="M 1079.523438 147.032812 
L 1099.523438 147.032812 
" style="fill: none; stroke: #d62728; stroke-width: 1.5; stroke-linecap: square"/>
    </g>
    <g id="line2d_81">
     <g>
      <use xlink:href="#m97e44b376c" x="1089.523438" y="142.220312" style="fill: #ff7f0e; stroke: #ff7f0e"/>
     </g>
    </g>
    <g id="text_20">
     <!-- $Q_{yD}$ -->
     <g transform="translate(1107.523438 147.032812)scale(0.1 -0.1)">
      <defs>
       <path id="DejaVuSans-Oblique-79" d="M 1588 -325 
Q 1188 -997 936 -1164 
Q 684 -1331 294 -1331 
L -159 -1331 
L -63 -850 
L 269 -850 
Q 509 -850 678 -719 
Q 847 -588 1056 -206 
L 1234 128 
L 459 3500 
L 1069 3500 
L 1650 819 
L 3256 3500 
L 3859 3500 
L 1588 -325 
z
" transform="scale(0.015625)"/>
      </defs>
      <use xlink:href="#DejaVuSans-Oblique-51" transform="translate(0 0.78125)"/>
      <use xlink:href="#DejaVuSans-Oblique-79" transform="translate(78.710938 -15.625)scale(0.7)"/>
      <use xlink:href="#DejaVuSans-Oblique-44" transform="translate(120.136719 -15.625)scale(0.7)"/>
     </g>
    </g>
   </g>
  </g>
 </g>
 <defs>
  <clipPath id="p574bf1b6fd">
   <rect x="162" y="86.4" width="1004.4" height="554.4"/>
  </clipPath>
 </defs>
</svg>
