<?xml version="1.0" encoding="utf-8" standalone="no"?>
<!DOCTYPE svg PUBLIC "-//W3C//DTD SVG 1.1//EN"
  "http://www.w3.org/Graphics/SVG/1.1/DTD/svg11.dtd">
<svg xmlns:xlink="http://www.w3.org/1999/xlink" width="1440pt" height="864pt" viewBox="0 0 1440 864" xmlns="http://www.w3.org/2000/svg" version="1.1">
 <metadata>
  <rdf:RDF xmlns:dc="http://purl.org/dc/elements/1.1/" xmlns:cc="http://creativecommons.org/ns#" xmlns:rdf="http://www.w3.org/1999/02/22-rdf-syntax-ns#">
   <cc:Work>
    <dc:type rdf:resource="http://purl.org/dc/dcmitype/StillImage"/>
    <dc:date>2022-11-09T19:29:29.600609</dc:date>
    <dc:format>image/svg+xml</dc:format>
    <dc:creator>
     <cc:Agent>
      <dc:title>Matplotlib v3.6.2, https://matplotlib.org/</dc:title>
     </cc:Agent>
    </dc:creator>
   </cc:Work>
  </rdf:RDF>
 </metadata>
 <defs>
  <style type="text/css">*{stroke-linejoin: round; stroke-linecap: butt}</style>
 </defs>
 <g id="figure_1">
  <g id="patch_1">
   <path d="M 0 864 
L 1440 864 
L 1440 0 
L 0 0 
z
" style="fill: #ffffff"/>
  </g>
  <g id="axes_1">
   <g id="patch_2">
    <path d="M 72.685313 828.779375 
L 1429.2 828.779375 
L 1429.2 38.075625 
L 72.685313 38.075625 
z
" style="fill: #ffffff"/>
   </g>
   <g id="patch_3">
    <path d="M 134.345071 828.779375 
L 146.677023 828.779375 
L 146.677023 824.678347 
L 134.345071 824.678347 
z
" clip-path="url(#p1d086d737e)" style="fill: #1f77b4; opacity: 0.6"/>
   </g>
   <g id="patch_4">
    <path d="M 146.677023 828.779375 
L 159.008974 828.779375 
L 159.008974 820.064691 
L 146.677023 820.064691 
z
" clip-path="url(#p1d086d737e)" style="fill: #1f77b4; opacity: 0.6"/>
   </g>
   <g id="patch_5">
    <path d="M 159.008974 828.779375 
L 171.340926 828.779375 
L 171.340926 814.938407 
L 159.008974 814.938407 
z
" clip-path="url(#p1d086d737e)" style="fill: #1f77b4; opacity: 0.6"/>
   </g>
   <g id="patch_6">
    <path d="M 171.340926 828.779375 
L 183.672878 828.779375 
L 183.672878 809.812122 
L 171.340926 809.812122 
z
" clip-path="url(#p1d086d737e)" style="fill: #1f77b4; opacity: 0.6"/>
   </g>
   <g id="patch_7">
    <path d="M 183.672878 828.779375 
L 196.00483 828.779375 
L 196.00483 788.794356 
L 183.672878 788.794356 
z
" clip-path="url(#p1d086d737e)" style="fill: #1f77b4; opacity: 0.6"/>
   </g>
   <g id="patch_8">
    <path d="M 196.00483 828.779375 
L 208.336781 828.779375 
L 208.336781 783.668072 
L 196.00483 783.668072 
z
" clip-path="url(#p1d086d737e)" style="fill: #1f77b4; opacity: 0.6"/>
   </g>
   <g id="patch_9">
    <path d="M 208.336781 828.779375 
L 220.668733 828.779375 
L 220.668733 760.087163 
L 208.336781 760.087163 
z
" clip-path="url(#p1d086d737e)" style="fill: #1f77b4; opacity: 0.6"/>
   </g>
   <g id="patch_10">
    <path d="M 220.668733 828.779375 
L 233.000685 828.779375 
L 233.000685 742.145167 
L 220.668733 742.145167 
z
" clip-path="url(#p1d086d737e)" style="fill: #1f77b4; opacity: 0.6"/>
   </g>
   <g id="patch_11">
    <path d="M 233.000685 828.779375 
L 245.332636 828.779375 
L 245.332636 713.950603 
L 233.000685 713.950603 
z
" clip-path="url(#p1d086d737e)" style="fill: #1f77b4; opacity: 0.6"/>
   </g>
   <g id="patch_12">
    <path d="M 245.332636 828.779375 
L 257.664588 828.779375 
L 257.664588 701.134891 
L 245.332636 701.134891 
z
" clip-path="url(#p1d086d737e)" style="fill: #1f77b4; opacity: 0.6"/>
   </g>
   <g id="patch_13">
    <path d="M 257.664588 828.779375 
L 269.99654 828.779375 
L 269.99654 669.351928 
L 257.664588 669.351928 
z
" clip-path="url(#p1d086d737e)" style="fill: #1f77b4; opacity: 0.6"/>
   </g>
   <g id="patch_14">
    <path d="M 269.99654 828.779375 
L 282.328491 828.779375 
L 282.328491 618.089083 
L 269.99654 618.089083 
z
" clip-path="url(#p1d086d737e)" style="fill: #1f77b4; opacity: 0.6"/>
   </g>
   <g id="patch_15">
    <path d="M 282.328491 828.779375 
L 294.660443 828.779375 
L 294.660443 609.374399 
L 282.328491 609.374399 
z
" clip-path="url(#p1d086d737e)" style="fill: #1f77b4; opacity: 0.6"/>
   </g>
   <g id="patch_16">
    <path d="M 294.660443 828.779375 
L 306.992395 828.779375 
L 306.992395 583.742977 
L 294.660443 583.742977 
z
" clip-path="url(#p1d086d737e)" style="fill: #1f77b4; opacity: 0.6"/>
   </g>
   <g id="patch_17">
    <path d="M 306.992395 828.779375 
L 319.324347 828.779375 
L 319.324347 514.538136 
L 306.992395 514.538136 
z
" clip-path="url(#p1d086d737e)" style="fill: #1f77b4; opacity: 0.6"/>
   </g>
   <g id="patch_18">
    <path d="M 319.324347 828.779375 
L 331.656298 828.779375 
L 331.656298 492.495113 
L 319.324347 492.495113 
z
" clip-path="url(#p1d086d737e)" style="fill: #1f77b4; opacity: 0.6"/>
   </g>
   <g id="patch_19">
    <path d="M 331.656298 828.779375 
L 343.98825 828.779375 
L 343.98825 445.845924 
L 331.656298 445.845924 
z
" clip-path="url(#p1d086d737e)" style="fill: #1f77b4; opacity: 0.6"/>
   </g>
   <g id="patch_20">
    <path d="M 343.98825 828.779375 
L 356.320202 828.779375 
L 356.320202 421.239759 
L 343.98825 421.239759 
z
" clip-path="url(#p1d086d737e)" style="fill: #1f77b4; opacity: 0.6"/>
   </g>
   <g id="patch_21">
    <path d="M 356.320202 828.779375 
L 368.652153 828.779375 
L 368.652153 401.247249 
L 356.320202 401.247249 
z
" clip-path="url(#p1d086d737e)" style="fill: #1f77b4; opacity: 0.6"/>
   </g>
   <g id="patch_22">
    <path d="M 368.652153 828.779375 
L 380.984105 828.779375 
L 380.984105 337.168693 
L 368.652153 337.168693 
z
" clip-path="url(#p1d086d737e)" style="fill: #1f77b4; opacity: 0.6"/>
   </g>
   <g id="patch_23">
    <path d="M 380.984105 828.779375 
L 393.316057 828.779375 
L 393.316057 327.941381 
L 380.984105 327.941381 
z
" clip-path="url(#p1d086d737e)" style="fill: #1f77b4; opacity: 0.6"/>
   </g>
   <g id="patch_24">
    <path d="M 393.316057 828.779375 
L 405.648009 828.779375 
L 405.648009 259.249169 
L 393.316057 259.249169 
z
" clip-path="url(#p1d086d737e)" style="fill: #1f77b4; opacity: 0.6"/>
   </g>
   <g id="patch_25">
    <path d="M 405.648009 828.779375 
L 417.97996 828.779375 
L 417.97996 228.491462 
L 405.648009 228.491462 
z
" clip-path="url(#p1d086d737e)" style="fill: #1f77b4; opacity: 0.6"/>
   </g>
   <g id="patch_26">
    <path d="M 417.97996 828.779375 
L 430.311912 828.779375 
L 430.311912 191.582214 
L 417.97996 191.582214 
z
" clip-path="url(#p1d086d737e)" style="fill: #1f77b4; opacity: 0.6"/>
   </g>
   <g id="patch_27">
    <path d="M 430.311912 828.779375 
L 442.643864 828.779375 
L 442.643864 156.723479 
L 430.311912 156.723479 
z
" clip-path="url(#p1d086d737e)" style="fill: #1f77b4; opacity: 0.6"/>
   </g>
   <g id="patch_28">
    <path d="M 442.643864 828.779375 
L 454.975815 828.779375 
L 454.975815 134.167828 
L 442.643864 134.167828 
z
" clip-path="url(#p1d086d737e)" style="fill: #1f77b4; opacity: 0.6"/>
   </g>
   <g id="patch_29">
    <path d="M 454.975815 828.779375 
L 467.307767 828.779375 
L 467.307767 138.781484 
L 454.975815 138.781484 
z
" clip-path="url(#p1d086d737e)" style="fill: #1f77b4; opacity: 0.6"/>
   </g>
   <g id="patch_30">
    <path d="M 467.307767 828.779375 
L 479.639719 828.779375 
L 479.639719 129.041543 
L 467.307767 129.041543 
z
" clip-path="url(#p1d086d737e)" style="fill: #1f77b4; opacity: 0.6"/>
   </g>
   <g id="patch_31">
    <path d="M 479.639719 828.779375 
L 491.97167 828.779375 
L 491.97167 122.377373 
L 479.639719 122.377373 
z
" clip-path="url(#p1d086d737e)" style="fill: #1f77b4; opacity: 0.6"/>
   </g>
   <g id="patch_32">
    <path d="M 491.97167 828.779375 
L 504.303622 828.779375 
L 504.303622 77.778698 
L 491.97167 77.778698 
z
" clip-path="url(#p1d086d737e)" style="fill: #1f77b4; opacity: 0.6"/>
   </g>
   <g id="patch_33">
    <path d="M 504.303622 828.779375 
L 516.635574 828.779375 
L 516.635574 103.410121 
L 504.303622 103.410121 
z
" clip-path="url(#p1d086d737e)" style="fill: #1f77b4; opacity: 0.6"/>
   </g>
   <g id="patch_34">
    <path d="M 516.635574 828.779375 
L 528.967526 828.779375 
L 528.967526 75.728185 
L 516.635574 75.728185 
z
" clip-path="url(#p1d086d737e)" style="fill: #1f77b4; opacity: 0.6"/>
   </g>
   <g id="patch_35">
    <path d="M 528.967526 828.779375 
L 541.299477 828.779375 
L 541.299477 75.728185 
L 528.967526 75.728185 
z
" clip-path="url(#p1d086d737e)" style="fill: #1f77b4; opacity: 0.6"/>
   </g>
   <g id="patch_36">
    <path d="M 541.299477 828.779375 
L 553.631429 828.779375 
L 553.631429 112.637433 
L 541.299477 112.637433 
z
" clip-path="url(#p1d086d737e)" style="fill: #1f77b4; opacity: 0.6"/>
   </g>
   <g id="patch_37">
    <path d="M 553.631429 828.779375 
L 565.963381 828.779375 
L 565.963381 92.132295 
L 553.631429 92.132295 
z
" clip-path="url(#p1d086d737e)" style="fill: #1f77b4; opacity: 0.6"/>
   </g>
   <g id="patch_38">
    <path d="M 565.963381 828.779375 
L 578.295332 828.779375 
L 578.295332 91.619666 
L 565.963381 91.619666 
z
" clip-path="url(#p1d086d737e)" style="fill: #1f77b4; opacity: 0.6"/>
   </g>
   <g id="patch_39">
    <path d="M 578.295332 828.779375 
L 590.627284 828.779375 
L 590.627284 131.092057 
L 578.295332 131.092057 
z
" clip-path="url(#p1d086d737e)" style="fill: #1f77b4; opacity: 0.6"/>
   </g>
   <g id="patch_40">
    <path d="M 590.627284 828.779375 
L 602.959236 828.779375 
L 602.959236 146.47091 
L 590.627284 146.47091 
z
" clip-path="url(#p1d086d737e)" style="fill: #1f77b4; opacity: 0.6"/>
   </g>
   <g id="patch_41">
    <path d="M 602.959236 828.779375 
L 615.291188 828.779375 
L 615.291188 180.304388 
L 602.959236 180.304388 
z
" clip-path="url(#p1d086d737e)" style="fill: #1f77b4; opacity: 0.6"/>
   </g>
   <g id="patch_42">
    <path d="M 615.291188 828.779375 
L 627.623139 828.779375 
L 627.623139 163.387649 
L 615.291188 163.387649 
z
" clip-path="url(#p1d086d737e)" style="fill: #1f77b4; opacity: 0.6"/>
   </g>
   <g id="patch_43">
    <path d="M 627.623139 828.779375 
L 639.955091 828.779375 
L 639.955091 236.180889 
L 627.623139 236.180889 
z
" clip-path="url(#p1d086d737e)" style="fill: #1f77b4; opacity: 0.6"/>
   </g>
   <g id="patch_44">
    <path d="M 639.955091 828.779375 
L 652.287043 828.779375 
L 652.287043 254.122885 
L 639.955091 254.122885 
z
" clip-path="url(#p1d086d737e)" style="fill: #1f77b4; opacity: 0.6"/>
   </g>
   <g id="patch_45">
    <path d="M 652.287043 828.779375 
L 664.618994 828.779375 
L 664.618994 254.122885 
L 652.287043 254.122885 
z
" clip-path="url(#p1d086d737e)" style="fill: #1f77b4; opacity: 0.6"/>
   </g>
   <g id="patch_46">
    <path d="M 664.618994 828.779375 
L 676.950946 828.779375 
L 676.950946 273.090137 
L 664.618994 273.090137 
z
" clip-path="url(#p1d086d737e)" style="fill: #1f77b4; opacity: 0.6"/>
   </g>
   <g id="patch_47">
    <path d="M 676.950946 828.779375 
L 689.282898 828.779375 
L 689.282898 279.754307 
L 676.950946 279.754307 
z
" clip-path="url(#p1d086d737e)" style="fill: #1f77b4; opacity: 0.6"/>
   </g>
   <g id="patch_48">
    <path d="M 689.282898 828.779375 
L 701.614849 828.779375 
L 701.614849 340.244464 
L 689.282898 340.244464 
z
" clip-path="url(#p1d086d737e)" style="fill: #1f77b4; opacity: 0.6"/>
   </g>
   <g id="patch_49">
    <path d="M 701.614849 828.779375 
L 713.946801 828.779375 
L 713.946801 379.204226 
L 701.614849 379.204226 
z
" clip-path="url(#p1d086d737e)" style="fill: #1f77b4; opacity: 0.6"/>
   </g>
   <g id="patch_50">
    <path d="M 713.946801 828.779375 
L 726.278753 828.779375 
L 726.278753 423.802901 
L 713.946801 423.802901 
z
" clip-path="url(#p1d086d737e)" style="fill: #1f77b4; opacity: 0.6"/>
   </g>
   <g id="patch_51">
    <path d="M 726.278753 828.779375 
L 738.610705 828.779375 
L 738.610705 442.770153 
L 726.278753 442.770153 
z
" clip-path="url(#p1d086d737e)" style="fill: #1f77b4; opacity: 0.6"/>
   </g>
   <g id="patch_52">
    <path d="M 738.610705 828.779375 
L 750.942656 828.779375 
L 750.942656 466.351062 
L 738.610705 466.351062 
z
" clip-path="url(#p1d086d737e)" style="fill: #1f77b4; opacity: 0.6"/>
   </g>
   <g id="patch_53">
    <path d="M 750.942656 828.779375 
L 763.274608 828.779375 
L 763.274608 479.166773 
L 750.942656 479.166773 
z
" clip-path="url(#p1d086d737e)" style="fill: #1f77b4; opacity: 0.6"/>
   </g>
   <g id="patch_54">
    <path d="M 763.274608 828.779375 
L 775.60656 828.779375 
L 775.60656 518.639164 
L 763.274608 518.639164 
z
" clip-path="url(#p1d086d737e)" style="fill: #1f77b4; opacity: 0.6"/>
   </g>
   <g id="patch_55">
    <path d="M 775.60656 828.779375 
L 787.938511 828.779375 
L 787.938511 551.447384 
L 775.60656 551.447384 
z
" clip-path="url(#p1d086d737e)" style="fill: #1f77b4; opacity: 0.6"/>
   </g>
   <g id="patch_56">
    <path d="M 787.938511 828.779375 
L 800.270463 828.779375 
L 800.270463 559.64944 
L 787.938511 559.64944 
z
" clip-path="url(#p1d086d737e)" style="fill: #1f77b4; opacity: 0.6"/>
   </g>
   <g id="patch_57">
    <path d="M 800.270463 828.779375 
L 812.602415 828.779375 
L 812.602415 578.104064 
L 800.270463 578.104064 
z
" clip-path="url(#p1d086d737e)" style="fill: #1f77b4; opacity: 0.6"/>
   </g>
   <g id="patch_58">
    <path d="M 812.602415 828.779375 
L 824.934366 828.779375 
L 824.934366 619.626968 
L 812.602415 619.626968 
z
" clip-path="url(#p1d086d737e)" style="fill: #1f77b4; opacity: 0.6"/>
   </g>
   <g id="patch_59">
    <path d="M 824.934366 828.779375 
L 837.266318 828.779375 
L 837.266318 649.872047 
L 824.934366 649.872047 
z
" clip-path="url(#p1d086d737e)" style="fill: #1f77b4; opacity: 0.6"/>
   </g>
   <g id="patch_60">
    <path d="M 837.266318 828.779375 
L 849.59827 828.779375 
L 849.59827 659.099359 
L 837.266318 659.099359 
z
" clip-path="url(#p1d086d737e)" style="fill: #1f77b4; opacity: 0.6"/>
   </g>
   <g id="patch_61">
    <path d="M 849.59827 828.779375 
L 861.930222 828.779375 
L 861.930222 669.864556 
L 849.59827 669.864556 
z
" clip-path="url(#p1d086d737e)" style="fill: #1f77b4; opacity: 0.6"/>
   </g>
   <g id="patch_62">
    <path d="M 861.930222 828.779375 
L 874.262173 828.779375 
L 874.262173 678.57924 
L 861.930222 678.57924 
z
" clip-path="url(#p1d086d737e)" style="fill: #1f77b4; opacity: 0.6"/>
   </g>
   <g id="patch_63">
    <path d="M 874.262173 828.779375 
L 886.594125 828.779375 
L 886.594125 706.261176 
L 874.262173 706.261176 
z
" clip-path="url(#p1d086d737e)" style="fill: #1f77b4; opacity: 0.6"/>
   </g>
   <g id="patch_64">
    <path d="M 886.594125 828.779375 
L 898.926077 828.779375 
L 898.926077 720.614772 
L 886.594125 720.614772 
z
" clip-path="url(#p1d086d737e)" style="fill: #1f77b4; opacity: 0.6"/>
   </g>
   <g id="patch_65">
    <path d="M 898.926077 828.779375 
L 911.258028 828.779375 
L 911.258028 730.354713 
L 898.926077 730.354713 
z
" clip-path="url(#p1d086d737e)" style="fill: #1f77b4; opacity: 0.6"/>
   </g>
   <g id="patch_66">
    <path d="M 911.258028 828.779375 
L 923.58998 828.779375 
L 923.58998 735.993626 
L 911.258028 735.993626 
z
" clip-path="url(#p1d086d737e)" style="fill: #1f77b4; opacity: 0.6"/>
   </g>
   <g id="patch_67">
    <path d="M 923.58998 828.779375 
L 935.921932 828.779375 
L 935.921932 746.246195 
L 923.58998 746.246195 
z
" clip-path="url(#p1d086d737e)" style="fill: #1f77b4; opacity: 0.6"/>
   </g>
   <g id="patch_68">
    <path d="M 935.921932 828.779375 
L 948.253884 828.779375 
L 948.253884 757.524021 
L 935.921932 757.524021 
z
" clip-path="url(#p1d086d737e)" style="fill: #1f77b4; opacity: 0.6"/>
   </g>
   <g id="patch_69">
    <path d="M 948.253884 828.779375 
L 960.585835 828.779375 
L 960.585835 767.77659 
L 948.253884 767.77659 
z
" clip-path="url(#p1d086d737e)" style="fill: #1f77b4; opacity: 0.6"/>
   </g>
   <g id="patch_70">
    <path d="M 960.585835 828.779375 
L 972.917787 828.779375 
L 972.917787 773.928131 
L 960.585835 773.928131 
z
" clip-path="url(#p1d086d737e)" style="fill: #1f77b4; opacity: 0.6"/>
   </g>
   <g id="patch_71">
    <path d="M 972.917787 828.779375 
L 985.249739 828.779375 
L 985.249739 780.079672 
L 972.917787 780.079672 
z
" clip-path="url(#p1d086d737e)" style="fill: #1f77b4; opacity: 0.6"/>
   </g>
   <g id="patch_72">
    <path d="M 985.249739 828.779375 
L 997.58169 828.779375 
L 997.58169 790.332241 
L 985.249739 790.332241 
z
" clip-path="url(#p1d086d737e)" style="fill: #1f77b4; opacity: 0.6"/>
   </g>
   <g id="patch_73">
    <path d="M 997.58169 828.779375 
L 1009.913642 828.779375 
L 1009.913642 802.122696 
L 997.58169 802.122696 
z
" clip-path="url(#p1d086d737e)" style="fill: #1f77b4; opacity: 0.6"/>
   </g>
   <g id="patch_74">
    <path d="M 1009.913642 828.779375 
L 1022.245594 828.779375 
L 1022.245594 796.483783 
L 1009.913642 796.483783 
z
" clip-path="url(#p1d086d737e)" style="fill: #1f77b4; opacity: 0.6"/>
   </g>
   <g id="patch_75">
    <path d="M 1022.245594 828.779375 
L 1034.577545 828.779375 
L 1034.577545 807.761609 
L 1022.245594 807.761609 
z
" clip-path="url(#p1d086d737e)" style="fill: #1f77b4; opacity: 0.6"/>
   </g>
   <g id="patch_76">
    <path d="M 1034.577545 828.779375 
L 1046.909497 828.779375 
L 1046.909497 803.147953 
L 1034.577545 803.147953 
z
" clip-path="url(#p1d086d737e)" style="fill: #1f77b4; opacity: 0.6"/>
   </g>
   <g id="patch_77">
    <path d="M 1046.909497 828.779375 
L 1059.241449 828.779375 
L 1059.241449 814.938407 
L 1046.909497 814.938407 
z
" clip-path="url(#p1d086d737e)" style="fill: #1f77b4; opacity: 0.6"/>
   </g>
   <g id="patch_78">
    <path d="M 1059.241449 828.779375 
L 1071.573401 828.779375 
L 1071.573401 812.887893 
L 1059.241449 812.887893 
z
" clip-path="url(#p1d086d737e)" style="fill: #1f77b4; opacity: 0.6"/>
   </g>
   <g id="patch_79">
    <path d="M 1071.573401 828.779375 
L 1083.905352 828.779375 
L 1083.905352 817.501549 
L 1071.573401 817.501549 
z
" clip-path="url(#p1d086d737e)" style="fill: #1f77b4; opacity: 0.6"/>
   </g>
   <g id="patch_80">
    <path d="M 1083.905352 828.779375 
L 1096.237304 828.779375 
L 1096.237304 814.425778 
L 1083.905352 814.425778 
z
" clip-path="url(#p1d086d737e)" style="fill: #1f77b4; opacity: 0.6"/>
   </g>
   <g id="patch_81">
    <path d="M 1096.237304 828.779375 
L 1108.569256 828.779375 
L 1108.569256 816.476292 
L 1096.237304 816.476292 
z
" clip-path="url(#p1d086d737e)" style="fill: #1f77b4; opacity: 0.6"/>
   </g>
   <g id="patch_82">
    <path d="M 1108.569256 828.779375 
L 1120.901207 828.779375 
L 1120.901207 814.425778 
L 1108.569256 814.425778 
z
" clip-path="url(#p1d086d737e)" style="fill: #1f77b4; opacity: 0.6"/>
   </g>
   <g id="patch_83">
    <path d="M 1120.901207 828.779375 
L 1133.233159 828.779375 
L 1133.233159 823.653091 
L 1120.901207 823.653091 
z
" clip-path="url(#p1d086d737e)" style="fill: #1f77b4; opacity: 0.6"/>
   </g>
   <g id="patch_84">
    <path d="M 1133.233159 828.779375 
L 1145.565111 828.779375 
L 1145.565111 823.140462 
L 1133.233159 823.140462 
z
" clip-path="url(#p1d086d737e)" style="fill: #1f77b4; opacity: 0.6"/>
   </g>
   <g id="patch_85">
    <path d="M 1145.565111 828.779375 
L 1157.897062 828.779375 
L 1157.897062 825.190976 
L 1145.565111 825.190976 
z
" clip-path="url(#p1d086d737e)" style="fill: #1f77b4; opacity: 0.6"/>
   </g>
   <g id="patch_86">
    <path d="M 1157.897063 828.779375 
L 1170.229014 828.779375 
L 1170.229014 819.039434 
L 1157.897063 819.039434 
z
" clip-path="url(#p1d086d737e)" style="fill: #1f77b4; opacity: 0.6"/>
   </g>
   <g id="patch_87">
    <path d="M 1170.229014 828.779375 
L 1182.560966 828.779375 
L 1182.560966 827.24149 
L 1170.229014 827.24149 
z
" clip-path="url(#p1d086d737e)" style="fill: #1f77b4; opacity: 0.6"/>
   </g>
   <g id="patch_88">
    <path d="M 1182.560966 828.779375 
L 1194.892918 828.779375 
L 1194.892918 825.703604 
L 1182.560966 825.703604 
z
" clip-path="url(#p1d086d737e)" style="fill: #1f77b4; opacity: 0.6"/>
   </g>
   <g id="patch_89">
    <path d="M 1194.892918 828.779375 
L 1207.224869 828.779375 
L 1207.224869 826.728861 
L 1194.892918 826.728861 
z
" clip-path="url(#p1d086d737e)" style="fill: #1f77b4; opacity: 0.6"/>
   </g>
   <g id="patch_90">
    <path d="M 1207.224869 828.779375 
L 1219.556821 828.779375 
L 1219.556821 827.24149 
L 1207.224869 827.24149 
z
" clip-path="url(#p1d086d737e)" style="fill: #1f77b4; opacity: 0.6"/>
   </g>
   <g id="patch_91">
    <path d="M 1219.556821 828.779375 
L 1231.888773 828.779375 
L 1231.888773 827.24149 
L 1219.556821 827.24149 
z
" clip-path="url(#p1d086d737e)" style="fill: #1f77b4; opacity: 0.6"/>
   </g>
   <g id="patch_92">
    <path d="M 1231.888773 828.779375 
L 1244.220724 828.779375 
L 1244.220724 826.728861 
L 1231.888773 826.728861 
z
" clip-path="url(#p1d086d737e)" style="fill: #1f77b4; opacity: 0.6"/>
   </g>
   <g id="patch_93">
    <path d="M 1244.220724 828.779375 
L 1256.552676 828.779375 
L 1256.552676 826.728861 
L 1244.220724 826.728861 
z
" clip-path="url(#p1d086d737e)" style="fill: #1f77b4; opacity: 0.6"/>
   </g>
   <g id="patch_94">
    <path d="M 1256.552676 828.779375 
L 1268.884628 828.779375 
L 1268.884628 828.266747 
L 1256.552676 828.266747 
z
" clip-path="url(#p1d086d737e)" style="fill: #1f77b4; opacity: 0.6"/>
   </g>
   <g id="patch_95">
    <path d="M 1268.884628 828.779375 
L 1281.21658 828.779375 
L 1281.21658 827.754118 
L 1268.884628 827.754118 
z
" clip-path="url(#p1d086d737e)" style="fill: #1f77b4; opacity: 0.6"/>
   </g>
   <g id="patch_96">
    <path d="M 1281.21658 828.779375 
L 1293.548531 828.779375 
L 1293.548531 828.266747 
L 1281.21658 828.266747 
z
" clip-path="url(#p1d086d737e)" style="fill: #1f77b4; opacity: 0.6"/>
   </g>
   <g id="patch_97">
    <path d="M 1293.548531 828.779375 
L 1305.880483 828.779375 
L 1305.880483 828.779375 
L 1293.548531 828.779375 
z
" clip-path="url(#p1d086d737e)" style="fill: #1f77b4; opacity: 0.6"/>
   </g>
   <g id="patch_98">
    <path d="M 1305.880483 828.779375 
L 1318.212435 828.779375 
L 1318.212435 828.266747 
L 1305.880483 828.266747 
z
" clip-path="url(#p1d086d737e)" style="fill: #1f77b4; opacity: 0.6"/>
   </g>
   <g id="patch_99">
    <path d="M 1318.212435 828.779375 
L 1330.544386 828.779375 
L 1330.544386 827.754118 
L 1318.212435 827.754118 
z
" clip-path="url(#p1d086d737e)" style="fill: #1f77b4; opacity: 0.6"/>
   </g>
   <g id="patch_100">
    <path d="M 1330.544386 828.779375 
L 1342.876338 828.779375 
L 1342.876338 828.266747 
L 1330.544386 828.266747 
z
" clip-path="url(#p1d086d737e)" style="fill: #1f77b4; opacity: 0.6"/>
   </g>
   <g id="patch_101">
    <path d="M 1342.876338 828.779375 
L 1355.20829 828.779375 
L 1355.20829 828.266747 
L 1342.876338 828.266747 
z
" clip-path="url(#p1d086d737e)" style="fill: #1f77b4; opacity: 0.6"/>
   </g>
   <g id="patch_102">
    <path d="M 1355.20829 828.779375 
L 1367.540241 828.779375 
L 1367.540241 828.266747 
L 1355.20829 828.266747 
z
" clip-path="url(#p1d086d737e)" style="fill: #1f77b4; opacity: 0.6"/>
   </g>
   <g id="matplotlib.axis_1">
    <g id="xtick_1">
     <g id="line2d_1">
      <defs>
       <path id="m768f8c879d" d="M 0 0 
L 0 3.5 
" style="stroke: #000000; stroke-width: 0.8"/>
      </defs>
      <g>
       <use xlink:href="#m768f8c879d" x="98.709476" y="828.779375" style="stroke: #000000; stroke-width: 0.8"/>
      </g>
     </g>
     <g id="text_1">
      <!-- 0 -->
      <g transform="translate(92.983226 849.456563) scale(0.18 -0.18)">
       <defs>
        <path id="DejaVuSans-30" d="M 2034 4250 
Q 1547 4250 1301 3770 
Q 1056 3291 1056 2328 
Q 1056 1369 1301 889 
Q 1547 409 2034 409 
Q 2525 409 2770 889 
Q 3016 1369 3016 2328 
Q 3016 3291 2770 3770 
Q 2525 4250 2034 4250 
z
M 2034 4750 
Q 2819 4750 3233 4129 
Q 3647 3509 3647 2328 
Q 3647 1150 3233 529 
Q 2819 -91 2034 -91 
Q 1250 -91 836 529 
Q 422 1150 422 2328 
Q 422 3509 836 4129 
Q 1250 4750 2034 4750 
z
" transform="scale(0.015625)"/>
       </defs>
       <use xlink:href="#DejaVuSans-30"/>
      </g>
     </g>
    </g>
    <g id="xtick_2">
     <g id="line2d_2">
      <g>
       <use xlink:href="#m768f8c879d" x="343.356504" y="828.779375" style="stroke: #000000; stroke-width: 0.8"/>
      </g>
     </g>
     <g id="text_2">
      <!-- 1 -->
      <g transform="translate(337.630254 849.456563) scale(0.18 -0.18)">
       <defs>
        <path id="DejaVuSans-31" d="M 794 531 
L 1825 531 
L 1825 4091 
L 703 3866 
L 703 4441 
L 1819 4666 
L 2450 4666 
L 2450 531 
L 3481 531 
L 3481 0 
L 794 0 
L 794 531 
z
" transform="scale(0.015625)"/>
       </defs>
       <use xlink:href="#DejaVuSans-31"/>
      </g>
     </g>
    </g>
    <g id="xtick_3">
     <g id="line2d_3">
      <g>
       <use xlink:href="#m768f8c879d" x="588.003533" y="828.779375" style="stroke: #000000; stroke-width: 0.8"/>
      </g>
     </g>
     <g id="text_3">
      <!-- 2 -->
      <g transform="translate(582.277283 849.456563) scale(0.18 -0.18)">
       <defs>
        <path id="DejaVuSans-32" d="M 1228 531 
L 3431 531 
L 3431 0 
L 469 0 
L 469 531 
Q 828 903 1448 1529 
Q 2069 2156 2228 2338 
Q 2531 2678 2651 2914 
Q 2772 3150 2772 3378 
Q 2772 3750 2511 3984 
Q 2250 4219 1831 4219 
Q 1534 4219 1204 4116 
Q 875 4013 500 3803 
L 500 4441 
Q 881 4594 1212 4672 
Q 1544 4750 1819 4750 
Q 2544 4750 2975 4387 
Q 3406 4025 3406 3419 
Q 3406 3131 3298 2873 
Q 3191 2616 2906 2266 
Q 2828 2175 2409 1742 
Q 1991 1309 1228 531 
z
" transform="scale(0.015625)"/>
       </defs>
       <use xlink:href="#DejaVuSans-32"/>
      </g>
     </g>
    </g>
    <g id="xtick_4">
     <g id="line2d_4">
      <g>
       <use xlink:href="#m768f8c879d" x="832.650562" y="828.779375" style="stroke: #000000; stroke-width: 0.8"/>
      </g>
     </g>
     <g id="text_4">
      <!-- 3 -->
      <g transform="translate(826.924312 849.456563) scale(0.18 -0.18)">
       <defs>
        <path id="DejaVuSans-33" d="M 2597 2516 
Q 3050 2419 3304 2112 
Q 3559 1806 3559 1356 
Q 3559 666 3084 287 
Q 2609 -91 1734 -91 
Q 1441 -91 1130 -33 
Q 819 25 488 141 
L 488 750 
Q 750 597 1062 519 
Q 1375 441 1716 441 
Q 2309 441 2620 675 
Q 2931 909 2931 1356 
Q 2931 1769 2642 2001 
Q 2353 2234 1838 2234 
L 1294 2234 
L 1294 2753 
L 1863 2753 
Q 2328 2753 2575 2939 
Q 2822 3125 2822 3475 
Q 2822 3834 2567 4026 
Q 2313 4219 1838 4219 
Q 1578 4219 1281 4162 
Q 984 4106 628 3988 
L 628 4550 
Q 988 4650 1302 4700 
Q 1616 4750 1894 4750 
Q 2613 4750 3031 4423 
Q 3450 4097 3450 3541 
Q 3450 3153 3228 2886 
Q 3006 2619 2597 2516 
z
" transform="scale(0.015625)"/>
       </defs>
       <use xlink:href="#DejaVuSans-33"/>
      </g>
     </g>
    </g>
    <g id="xtick_5">
     <g id="line2d_5">
      <g>
       <use xlink:href="#m768f8c879d" x="1077.29759" y="828.779375" style="stroke: #000000; stroke-width: 0.8"/>
      </g>
     </g>
     <g id="text_5">
      <!-- 4 -->
      <g transform="translate(1071.57134 849.456563) scale(0.18 -0.18)">
       <defs>
        <path id="DejaVuSans-34" d="M 2419 4116 
L 825 1625 
L 2419 1625 
L 2419 4116 
z
M 2253 4666 
L 3047 4666 
L 3047 1625 
L 3713 1625 
L 3713 1100 
L 3047 1100 
L 3047 0 
L 2419 0 
L 2419 1100 
L 313 1100 
L 313 1709 
L 2253 4666 
z
" transform="scale(0.015625)"/>
       </defs>
       <use xlink:href="#DejaVuSans-34"/>
      </g>
     </g>
    </g>
    <g id="xtick_6">
     <g id="line2d_6">
      <g>
       <use xlink:href="#m768f8c879d" x="1321.944619" y="828.779375" style="stroke: #000000; stroke-width: 0.8"/>
      </g>
     </g>
     <g id="text_6">
      <!-- 5 -->
      <g transform="translate(1316.218369 849.456563) scale(0.18 -0.18)">
       <defs>
        <path id="DejaVuSans-35" d="M 691 4666 
L 3169 4666 
L 3169 4134 
L 1269 4134 
L 1269 2991 
Q 1406 3038 1543 3061 
Q 1681 3084 1819 3084 
Q 2600 3084 3056 2656 
Q 3513 2228 3513 1497 
Q 3513 744 3044 326 
Q 2575 -91 1722 -91 
Q 1428 -91 1123 -41 
Q 819 9 494 109 
L 494 744 
Q 775 591 1075 516 
Q 1375 441 1709 441 
Q 2250 441 2565 725 
Q 2881 1009 2881 1497 
Q 2881 1984 2565 2268 
Q 2250 2553 1709 2553 
Q 1456 2553 1204 2497 
Q 953 2441 691 2322 
L 691 4666 
z
" transform="scale(0.015625)"/>
       </defs>
       <use xlink:href="#DejaVuSans-35"/>
      </g>
     </g>
    </g>
   </g>
   <g id="matplotlib.axis_2">
    <g id="ytick_1">
     <g id="line2d_7">
      <defs>
       <path id="m8ea6edbcfc" d="M 0 0 
L -3.5 0 
" style="stroke: #000000; stroke-width: 0.8"/>
      </defs>
      <g>
       <use xlink:href="#m8ea6edbcfc" x="72.685313" y="828.779375" style="stroke: #000000; stroke-width: 0.8"/>
      </g>
     </g>
     <g id="text_7">
      <!-- 0.0 -->
      <g transform="translate(37.059688 835.617969) scale(0.18 -0.18)">
       <defs>
        <path id="DejaVuSans-2e" d="M 684 794 
L 1344 794 
L 1344 0 
L 684 0 
L 684 794 
z
" transform="scale(0.015625)"/>
       </defs>
       <use xlink:href="#DejaVuSans-30"/>
       <use xlink:href="#DejaVuSans-2e" x="63.623047"/>
       <use xlink:href="#DejaVuSans-30" x="95.410156"/>
      </g>
     </g>
    </g>
    <g id="ytick_2">
     <g id="line2d_8">
      <g>
       <use xlink:href="#m8ea6edbcfc" x="72.685313" y="699.578761" style="stroke: #000000; stroke-width: 0.8"/>
      </g>
     </g>
     <g id="text_8">
      <!-- 0.1 -->
      <g transform="translate(37.059688 706.417355) scale(0.18 -0.18)">
       <use xlink:href="#DejaVuSans-30"/>
       <use xlink:href="#DejaVuSans-2e" x="63.623047"/>
       <use xlink:href="#DejaVuSans-31" x="95.410156"/>
      </g>
     </g>
    </g>
    <g id="ytick_3">
     <g id="line2d_9">
      <g>
       <use xlink:href="#m8ea6edbcfc" x="72.685313" y="570.378147" style="stroke: #000000; stroke-width: 0.8"/>
      </g>
     </g>
     <g id="text_9">
      <!-- 0.2 -->
      <g transform="translate(37.059688 577.216741) scale(0.18 -0.18)">
       <use xlink:href="#DejaVuSans-30"/>
       <use xlink:href="#DejaVuSans-2e" x="63.623047"/>
       <use xlink:href="#DejaVuSans-32" x="95.410156"/>
      </g>
     </g>
    </g>
    <g id="ytick_4">
     <g id="line2d_10">
      <g>
       <use xlink:href="#m8ea6edbcfc" x="72.685313" y="441.177533" style="stroke: #000000; stroke-width: 0.8"/>
      </g>
     </g>
     <g id="text_10">
      <!-- 0.3 -->
      <g transform="translate(37.059688 448.016126) scale(0.18 -0.18)">
       <use xlink:href="#DejaVuSans-30"/>
       <use xlink:href="#DejaVuSans-2e" x="63.623047"/>
       <use xlink:href="#DejaVuSans-33" x="95.410156"/>
      </g>
     </g>
    </g>
    <g id="ytick_5">
     <g id="line2d_11">
      <g>
       <use xlink:href="#m8ea6edbcfc" x="72.685313" y="311.976919" style="stroke: #000000; stroke-width: 0.8"/>
      </g>
     </g>
     <g id="text_11">
      <!-- 0.4 -->
      <g transform="translate(37.059688 318.815512) scale(0.18 -0.18)">
       <use xlink:href="#DejaVuSans-30"/>
       <use xlink:href="#DejaVuSans-2e" x="63.623047"/>
       <use xlink:href="#DejaVuSans-34" x="95.410156"/>
      </g>
     </g>
    </g>
    <g id="ytick_6">
     <g id="line2d_12">
      <g>
       <use xlink:href="#m8ea6edbcfc" x="72.685313" y="182.776304" style="stroke: #000000; stroke-width: 0.8"/>
      </g>
     </g>
     <g id="text_12">
      <!-- 0.5 -->
      <g transform="translate(37.059688 189.614898) scale(0.18 -0.18)">
       <use xlink:href="#DejaVuSans-30"/>
       <use xlink:href="#DejaVuSans-2e" x="63.623047"/>
       <use xlink:href="#DejaVuSans-35" x="95.410156"/>
      </g>
     </g>
    </g>
    <g id="ytick_7">
     <g id="line2d_13">
      <g>
       <use xlink:href="#m8ea6edbcfc" x="72.685313" y="53.57569" style="stroke: #000000; stroke-width: 0.8"/>
      </g>
     </g>
     <g id="text_13">
      <!-- 0.6 -->
      <g transform="translate(37.059688 60.414284) scale(0.18 -0.18)">
       <defs>
        <path id="DejaVuSans-36" d="M 2113 2584 
Q 1688 2584 1439 2293 
Q 1191 2003 1191 1497 
Q 1191 994 1439 701 
Q 1688 409 2113 409 
Q 2538 409 2786 701 
Q 3034 994 3034 1497 
Q 3034 2003 2786 2293 
Q 2538 2584 2113 2584 
z
M 3366 4563 
L 3366 3988 
Q 3128 4100 2886 4159 
Q 2644 4219 2406 4219 
Q 1781 4219 1451 3797 
Q 1122 3375 1075 2522 
Q 1259 2794 1537 2939 
Q 1816 3084 2150 3084 
Q 2853 3084 3261 2657 
Q 3669 2231 3669 1497 
Q 3669 778 3244 343 
Q 2819 -91 2113 -91 
Q 1303 -91 875 529 
Q 447 1150 447 2328 
Q 447 3434 972 4092 
Q 1497 4750 2381 4750 
Q 2619 4750 2861 4703 
Q 3103 4656 3366 4563 
z
" transform="scale(0.015625)"/>
       </defs>
       <use xlink:href="#DejaVuSans-30"/>
       <use xlink:href="#DejaVuSans-2e" x="63.623047"/>
       <use xlink:href="#DejaVuSans-36" x="95.410156"/>
      </g>
     </g>
    </g>
    <g id="text_14">
     <!-- Normed Hist Counts -->
     <g transform="translate(28.276406 548.966563) rotate(-90) scale(0.23 -0.23)">
      <defs>
       <path id="DejaVuSans-4e" d="M 628 4666 
L 1478 4666 
L 3547 763 
L 3547 4666 
L 4159 4666 
L 4159 0 
L 3309 0 
L 1241 3903 
L 1241 0 
L 628 0 
L 628 4666 
z
" transform="scale(0.015625)"/>
       <path id="DejaVuSans-6f" d="M 1959 3097 
Q 1497 3097 1228 2736 
Q 959 2375 959 1747 
Q 959 1119 1226 758 
Q 1494 397 1959 397 
Q 2419 397 2687 759 
Q 2956 1122 2956 1747 
Q 2956 2369 2687 2733 
Q 2419 3097 1959 3097 
z
M 1959 3584 
Q 2709 3584 3137 3096 
Q 3566 2609 3566 1747 
Q 3566 888 3137 398 
Q 2709 -91 1959 -91 
Q 1206 -91 779 398 
Q 353 888 353 1747 
Q 353 2609 779 3096 
Q 1206 3584 1959 3584 
z
" transform="scale(0.015625)"/>
       <path id="DejaVuSans-72" d="M 2631 2963 
Q 2534 3019 2420 3045 
Q 2306 3072 2169 3072 
Q 1681 3072 1420 2755 
Q 1159 2438 1159 1844 
L 1159 0 
L 581 0 
L 581 3500 
L 1159 3500 
L 1159 2956 
Q 1341 3275 1631 3429 
Q 1922 3584 2338 3584 
Q 2397 3584 2469 3576 
Q 2541 3569 2628 3553 
L 2631 2963 
z
" transform="scale(0.015625)"/>
       <path id="DejaVuSans-6d" d="M 3328 2828 
Q 3544 3216 3844 3400 
Q 4144 3584 4550 3584 
Q 5097 3584 5394 3201 
Q 5691 2819 5691 2113 
L 5691 0 
L 5113 0 
L 5113 2094 
Q 5113 2597 4934 2840 
Q 4756 3084 4391 3084 
Q 3944 3084 3684 2787 
Q 3425 2491 3425 1978 
L 3425 0 
L 2847 0 
L 2847 2094 
Q 2847 2600 2669 2842 
Q 2491 3084 2119 3084 
Q 1678 3084 1418 2786 
Q 1159 2488 1159 1978 
L 1159 0 
L 581 0 
L 581 3500 
L 1159 3500 
L 1159 2956 
Q 1356 3278 1631 3431 
Q 1906 3584 2284 3584 
Q 2666 3584 2933 3390 
Q 3200 3197 3328 2828 
z
" transform="scale(0.015625)"/>
       <path id="DejaVuSans-65" d="M 3597 1894 
L 3597 1613 
L 953 1613 
Q 991 1019 1311 708 
Q 1631 397 2203 397 
Q 2534 397 2845 478 
Q 3156 559 3463 722 
L 3463 178 
Q 3153 47 2828 -22 
Q 2503 -91 2169 -91 
Q 1331 -91 842 396 
Q 353 884 353 1716 
Q 353 2575 817 3079 
Q 1281 3584 2069 3584 
Q 2775 3584 3186 3129 
Q 3597 2675 3597 1894 
z
M 3022 2063 
Q 3016 2534 2758 2815 
Q 2500 3097 2075 3097 
Q 1594 3097 1305 2825 
Q 1016 2553 972 2059 
L 3022 2063 
z
" transform="scale(0.015625)"/>
       <path id="DejaVuSans-64" d="M 2906 2969 
L 2906 4863 
L 3481 4863 
L 3481 0 
L 2906 0 
L 2906 525 
Q 2725 213 2448 61 
Q 2172 -91 1784 -91 
Q 1150 -91 751 415 
Q 353 922 353 1747 
Q 353 2572 751 3078 
Q 1150 3584 1784 3584 
Q 2172 3584 2448 3432 
Q 2725 3281 2906 2969 
z
M 947 1747 
Q 947 1113 1208 752 
Q 1469 391 1925 391 
Q 2381 391 2643 752 
Q 2906 1113 2906 1747 
Q 2906 2381 2643 2742 
Q 2381 3103 1925 3103 
Q 1469 3103 1208 2742 
Q 947 2381 947 1747 
z
" transform="scale(0.015625)"/>
       <path id="DejaVuSans-20" transform="scale(0.015625)"/>
       <path id="DejaVuSans-48" d="M 628 4666 
L 1259 4666 
L 1259 2753 
L 3553 2753 
L 3553 4666 
L 4184 4666 
L 4184 0 
L 3553 0 
L 3553 2222 
L 1259 2222 
L 1259 0 
L 628 0 
L 628 4666 
z
" transform="scale(0.015625)"/>
       <path id="DejaVuSans-69" d="M 603 3500 
L 1178 3500 
L 1178 0 
L 603 0 
L 603 3500 
z
M 603 4863 
L 1178 4863 
L 1178 4134 
L 603 4134 
L 603 4863 
z
" transform="scale(0.015625)"/>
       <path id="DejaVuSans-73" d="M 2834 3397 
L 2834 2853 
Q 2591 2978 2328 3040 
Q 2066 3103 1784 3103 
Q 1356 3103 1142 2972 
Q 928 2841 928 2578 
Q 928 2378 1081 2264 
Q 1234 2150 1697 2047 
L 1894 2003 
Q 2506 1872 2764 1633 
Q 3022 1394 3022 966 
Q 3022 478 2636 193 
Q 2250 -91 1575 -91 
Q 1294 -91 989 -36 
Q 684 19 347 128 
L 347 722 
Q 666 556 975 473 
Q 1284 391 1588 391 
Q 1994 391 2212 530 
Q 2431 669 2431 922 
Q 2431 1156 2273 1281 
Q 2116 1406 1581 1522 
L 1381 1569 
Q 847 1681 609 1914 
Q 372 2147 372 2553 
Q 372 3047 722 3315 
Q 1072 3584 1716 3584 
Q 2034 3584 2315 3537 
Q 2597 3491 2834 3397 
z
" transform="scale(0.015625)"/>
       <path id="DejaVuSans-74" d="M 1172 4494 
L 1172 3500 
L 2356 3500 
L 2356 3053 
L 1172 3053 
L 1172 1153 
Q 1172 725 1289 603 
Q 1406 481 1766 481 
L 2356 481 
L 2356 0 
L 1766 0 
Q 1100 0 847 248 
Q 594 497 594 1153 
L 594 3053 
L 172 3053 
L 172 3500 
L 594 3500 
L 594 4494 
L 1172 4494 
z
" transform="scale(0.015625)"/>
       <path id="DejaVuSans-43" d="M 4122 4306 
L 4122 3641 
Q 3803 3938 3442 4084 
Q 3081 4231 2675 4231 
Q 1875 4231 1450 3742 
Q 1025 3253 1025 2328 
Q 1025 1406 1450 917 
Q 1875 428 2675 428 
Q 3081 428 3442 575 
Q 3803 722 4122 1019 
L 4122 359 
Q 3791 134 3420 21 
Q 3050 -91 2638 -91 
Q 1578 -91 968 557 
Q 359 1206 359 2328 
Q 359 3453 968 4101 
Q 1578 4750 2638 4750 
Q 3056 4750 3426 4639 
Q 3797 4528 4122 4306 
z
" transform="scale(0.015625)"/>
       <path id="DejaVuSans-75" d="M 544 1381 
L 544 3500 
L 1119 3500 
L 1119 1403 
Q 1119 906 1312 657 
Q 1506 409 1894 409 
Q 2359 409 2629 706 
Q 2900 1003 2900 1516 
L 2900 3500 
L 3475 3500 
L 3475 0 
L 2900 0 
L 2900 538 
Q 2691 219 2414 64 
Q 2138 -91 1772 -91 
Q 1169 -91 856 284 
Q 544 659 544 1381 
z
M 1991 3584 
L 1991 3584 
z
" transform="scale(0.015625)"/>
       <path id="DejaVuSans-6e" d="M 3513 2113 
L 3513 0 
L 2938 0 
L 2938 2094 
Q 2938 2591 2744 2837 
Q 2550 3084 2163 3084 
Q 1697 3084 1428 2787 
Q 1159 2491 1159 1978 
L 1159 0 
L 581 0 
L 581 3500 
L 1159 3500 
L 1159 2956 
Q 1366 3272 1645 3428 
Q 1925 3584 2291 3584 
Q 2894 3584 3203 3211 
Q 3513 2838 3513 2113 
z
" transform="scale(0.015625)"/>
      </defs>
      <use xlink:href="#DejaVuSans-4e"/>
      <use xlink:href="#DejaVuSans-6f" x="74.804688"/>
      <use xlink:href="#DejaVuSans-72" x="135.986328"/>
      <use xlink:href="#DejaVuSans-6d" x="175.349609"/>
      <use xlink:href="#DejaVuSans-65" x="272.761719"/>
      <use xlink:href="#DejaVuSans-64" x="334.285156"/>
      <use xlink:href="#DejaVuSans-20" x="397.761719"/>
      <use xlink:href="#DejaVuSans-48" x="429.548828"/>
      <use xlink:href="#DejaVuSans-69" x="504.744141"/>
      <use xlink:href="#DejaVuSans-73" x="532.527344"/>
      <use xlink:href="#DejaVuSans-74" x="584.626953"/>
      <use xlink:href="#DejaVuSans-20" x="623.835938"/>
      <use xlink:href="#DejaVuSans-43" x="655.623047"/>
      <use xlink:href="#DejaVuSans-6f" x="725.447266"/>
      <use xlink:href="#DejaVuSans-75" x="786.628906"/>
      <use xlink:href="#DejaVuSans-6e" x="850.007812"/>
      <use xlink:href="#DejaVuSans-74" x="913.386719"/>
      <use xlink:href="#DejaVuSans-73" x="952.595703"/>
     </g>
    </g>
   </g>
   <g id="line2d_14">
    <path d="M 137.428059 825.911664 
L 143.594035 824.407553 
L 149.760011 822.464112 
L 155.925987 820.032254 
L 162.091962 817.066027 
L 168.257938 813.522886 
L 174.423914 809.363946 
L 180.58989 804.554216 
L 186.755866 799.062804 
L 192.921842 792.863103 
L 199.087817 785.932941 
L 205.253793 778.254713 
L 211.419769 769.815478 
L 217.585745 760.60703 
L 223.751721 750.62594 
L 229.917697 739.873565 
L 236.083673 728.356036 
L 242.249648 716.084205 
L 248.415624 703.073576 
L 254.5816 689.3442 
L 260.747576 674.920549 
L 266.913552 659.83136 
L 273.079528 644.109458 
L 279.245504 627.791555 
L 285.411479 610.918027 
L 291.577455 593.532673 
L 297.743431 575.682455 
L 303.909407 557.417223 
L 316.241359 519.853812 
L 328.57331 481.287729 
L 365.569165 364.363661 
L 377.901117 326.616687 
L 384.067093 308.245337 
L 390.233069 290.285746 
L 396.399045 272.793543 
L 402.565021 255.822353 
L 408.730996 239.423556 
L 414.896972 223.646069 
L 421.062948 208.536136 
L 427.228924 194.137149 
L 433.3949 180.489482 
L 439.560876 167.630342 
L 445.726852 155.593647 
L 451.892827 144.409925 
L 458.058803 134.106222 
L 464.224779 124.706048 
L 470.390755 116.229331 
L 476.556731 108.692392 
L 482.722707 102.10795 
L 488.888683 96.48513 
L 495.054658 91.829506 
L 501.220634 88.143148 
L 507.38661 85.424698 
L 513.552586 83.669448 
L 519.718562 82.869449 
L 525.884538 83.013619 
L 532.050513 84.087873 
L 538.216489 86.075264 
L 544.382465 88.956129 
L 550.548441 92.708247 
L 556.714417 97.307009 
L 562.880393 102.725586 
L 569.046369 108.935114 
L 575.212344 115.904867 
L 581.37832 123.602453 
L 587.544296 131.993995 
L 593.710272 141.044318 
L 599.876248 150.717143 
L 606.042224 160.975266 
L 612.2082 171.780747 
L 618.374175 183.095088 
L 624.540151 194.879408 
L 630.706127 207.094618 
L 636.872103 219.701582 
L 643.038079 232.661276 
L 649.204055 245.934943 
L 661.536006 273.271346 
L 673.867958 301.411293 
L 692.365886 344.504519 
L 717.029789 402.237946 
L 729.361741 430.696858 
L 741.693692 458.613234 
L 754.025644 485.813662 
L 766.357596 512.14882 
L 772.523572 524.951806 
L 778.689548 537.493277 
L 784.855523 549.761193 
L 791.021499 561.744909 
L 797.187475 573.435146 
L 803.353451 584.823948 
L 809.519427 595.904634 
L 815.685403 606.671759 
L 821.851379 617.121054 
L 828.017354 627.249381 
L 834.18333 637.054676 
L 840.349306 646.535893 
L 846.515282 655.692949 
L 852.681258 664.526662 
L 858.847234 673.0387 
L 865.01321 681.231518 
L 871.179185 689.108299 
L 877.345161 696.672903 
L 883.511137 703.929805 
L 889.677113 710.884042 
L 895.843089 717.541158 
L 902.009065 723.907151 
L 908.17504 729.988423 
L 914.341016 735.79173 
L 920.506992 741.324133 
L 926.672968 746.592956 
L 932.838944 751.605739 
L 939.00492 756.370196 
L 945.170896 760.894181 
L 951.336871 765.185646 
L 957.502847 769.252608 
L 963.668823 773.103116 
L 969.834799 776.745222 
L 976.000775 780.186953 
L 982.166751 783.436284 
L 988.332727 786.501115 
L 994.498702 789.38925 
L 1000.664678 792.108376 
L 1006.830654 794.666047 
L 1012.99663 797.069669 
L 1019.162606 799.326485 
L 1025.328582 801.443563 
L 1031.494558 803.427786 
L 1037.660533 805.285846 
L 1049.992485 808.649225 
L 1062.324437 811.583116 
L 1074.656388 814.133522 
L 1086.98834 816.342982 
L 1099.320292 818.250587 
L 1111.652244 819.892043 
L 1123.984195 821.299777 
L 1136.316147 822.503077 
L 1148.648099 823.528258 
L 1167.146026 824.782795 
L 1185.643954 825.75751 
L 1204.141881 826.509383 
L 1228.805785 827.244883 
L 1253.469688 827.753933 
L 1284.299567 828.169683 
L 1327.461398 828.493591 
L 1364.457254 828.634154 
L 1364.457254 828.634154 
" clip-path="url(#p1d086d737e)" style="fill: none; stroke: #ff7f0e; stroke-width: 1.5; stroke-linecap: square"/>
   </g>
   <g id="line2d_15">
    <path d="M 137.428059 820.728673 
L 143.594035 818.964685 
L 149.760011 816.899606 
L 155.925987 814.49862 
L 162.091962 811.725539 
L 168.257938 808.543119 
L 174.423914 804.913427 
L 180.58989 800.798248 
L 186.755866 796.159521 
L 192.921842 790.959809 
L 199.087817 785.162795 
L 205.253793 778.733783 
L 211.419769 771.640218 
L 217.585745 763.852195 
L 223.751721 755.342964 
L 229.917697 746.089418 
L 236.083673 736.072548 
L 242.249648 725.277874 
L 248.415624 713.695827 
L 254.5816 701.322086 
L 260.747576 688.157865 
L 266.913552 674.210135 
L 273.079528 659.491793 
L 279.245504 644.021754 
L 285.411479 627.824988 
L 291.577455 610.932481 
L 297.743431 593.381135 
L 303.909407 575.213594 
L 310.075383 556.478019 
L 316.241359 537.227787 
L 322.407335 517.521146 
L 334.739286 476.993527 
L 347.071238 435.442195 
L 371.735141 351.67865 
L 384.067093 310.728403 
L 390.233069 290.76329 
L 396.399045 271.241049 
L 402.565021 252.236333 
L 408.730996 233.821187 
L 414.896972 216.064584 
L 421.062948 199.031992 
L 427.228924 182.784984 
L 433.3949 167.380886 
L 439.560876 152.872471 
L 445.726852 139.307703 
L 451.892827 126.729518 
L 458.058803 115.17566 
L 464.224779 104.678556 
L 470.390755 95.265244 
L 476.556731 86.957337 
L 482.722707 79.771034 
L 488.888683 73.717171 
L 495.054658 68.801309 
L 501.220634 65.023858 
L 507.38661 62.380236 
L 513.552586 60.861051 
L 519.718562 60.452318 
L 525.884538 61.135693 
L 532.050513 62.888733 
L 538.216489 65.685165 
L 544.382465 69.495179 
L 550.548441 74.285724 
L 556.714417 80.020814 
L 562.880393 86.661842 
L 569.046369 94.167887 
L 575.212344 102.496034 
L 581.37832 111.601681 
L 587.544296 121.438842 
L 593.710272 131.960447 
L 599.876248 143.118631 
L 606.042224 154.865008 
L 612.2082 167.150941 
L 618.374175 179.927795 
L 624.540151 193.147171 
L 630.706127 206.761134 
L 636.872103 220.722419 
L 649.204055 249.502369 
L 661.536006 279.129152 
L 680.033934 324.427534 
L 704.697837 384.8646 
L 717.029789 414.519755 
L 729.361741 443.511223 
L 741.693692 471.661148 
L 754.025644 498.821462 
L 760.19162 511.992088 
L 766.357596 524.872625 
L 772.523572 537.452316 
L 778.689548 549.721962 
L 784.855523 561.673857 
L 791.021499 573.301715 
L 797.187475 584.600604 
L 803.353451 595.566871 
L 809.519427 606.198065 
L 815.685403 616.492871 
L 821.851379 626.45103 
L 828.017354 636.073266 
L 834.18333 645.361217 
L 840.349306 654.317362 
L 846.515282 662.944952 
L 852.681258 671.247942 
L 858.847234 679.230923 
L 865.01321 686.899064 
L 871.179185 694.258046 
L 877.345161 701.314003 
L 883.511137 708.073471 
L 889.677113 714.54333 
L 895.843089 720.730755 
L 902.009065 726.643167 
L 908.17504 732.288192 
L 914.341016 737.673614 
L 920.506992 742.807336 
L 926.672968 747.697349 
L 932.838944 752.351689 
L 939.00492 756.778414 
L 945.170896 760.985569 
L 951.336871 764.981163 
L 957.502847 768.773144 
L 963.668823 772.369377 
L 969.834799 775.777625 
L 976.000775 779.00553 
L 982.166751 782.060601 
L 988.332727 784.950196 
L 994.498702 787.681514 
L 1000.664678 790.261581 
L 1006.830654 792.697247 
L 1012.99663 794.995171 
L 1019.162606 797.161825 
L 1025.328582 799.20348 
L 1037.660533 802.935884 
L 1049.992485 806.23853 
L 1062.324437 809.154313 
L 1074.656388 811.722896 
L 1086.98834 813.980784 
L 1099.320292 815.96142 
L 1111.652244 817.695317 
L 1123.984195 819.210202 
L 1136.316147 820.531177 
L 1148.648099 821.680887 
L 1167.146026 823.128278 
L 1185.643954 824.295592 
L 1204.141881 825.233357 
L 1228.805785 826.198699 
L 1253.469688 826.911431 
L 1284.299567 827.541423 
L 1321.295423 828.031516 
L 1364.457254 828.369581 
L 1364.457254 828.369581 
" clip-path="url(#p1d086d737e)" style="fill: none; stroke: #2ca02c; stroke-width: 1.5; stroke-linecap: square"/>
   </g>
   <g id="line2d_16">
    <path d="M 137.428059 88.609341 
L 149.760011 109.82944 
L 162.091962 130.441174 
L 174.423914 150.461986 
L 186.755866 169.908817 
L 199.087817 188.798123 
L 211.419769 207.145886 
L 223.751721 224.967634 
L 236.083673 242.278446 
L 248.415624 259.092971 
L 260.747576 275.425436 
L 273.079528 291.289662 
L 285.411479 306.699074 
L 297.743431 321.666709 
L 310.075383 336.205234 
L 322.407335 350.326951 
L 334.739286 364.043809 
L 347.071238 377.367415 
L 359.40319 390.309045 
L 371.735141 402.879647 
L 384.067093 415.089861 
L 396.399045 426.950017 
L 408.730996 438.470151 
L 421.062948 449.660013 
L 433.3949 460.529069 
L 445.726852 471.086519 
L 458.058803 481.341294 
L 470.390755 491.302073 
L 482.722707 500.977284 
L 495.054658 510.375115 
L 507.38661 519.503517 
L 519.718562 528.370215 
L 532.050513 536.982711 
L 544.382465 545.348294 
L 556.714417 553.474042 
L 569.046369 561.366832 
L 581.37832 569.033341 
L 593.710272 576.480057 
L 606.042224 583.713282 
L 618.374175 590.739136 
L 630.706127 597.563564 
L 643.038079 604.192342 
L 655.370031 610.631077 
L 667.701982 616.885218 
L 680.033934 622.960059 
L 692.365886 628.860738 
L 704.697837 634.59225 
L 723.195765 642.882898 
L 741.693692 650.819585 
L 760.19162 658.417422 
L 778.689548 665.690876 
L 797.187475 672.653796 
L 815.685403 679.31944 
L 834.18333 685.700501 
L 852.681258 691.809127 
L 871.179185 697.656952 
L 889.677113 703.255108 
L 908.17504 708.614256 
L 926.672968 713.7446 
L 945.170896 718.655909 
L 963.668823 723.357534 
L 982.166751 727.858426 
L 1000.664678 732.167158 
L 1019.162606 736.291931 
L 1037.660533 740.240601 
L 1062.324437 745.244504 
L 1086.98834 749.965604 
L 1111.652244 754.419884 
L 1136.316147 758.622424 
L 1160.98005 762.58745 
L 1185.643954 766.328387 
L 1210.307857 769.8579 
L 1234.971761 773.187936 
L 1259.635664 776.329771 
L 1290.465543 780.008551 
L 1321.295423 783.429304 
L 1352.125302 786.610128 
L 1364.457254 787.819087 
L 1364.457254 787.819087 
" clip-path="url(#p1d086d737e)" style="fill: none; stroke: #d62728; stroke-width: 1.5; stroke-linecap: square"/>
   </g>
   <g id="line2d_17">
    <path d="M 137.428059 773.34849 
L 143.594035 770.737926 
L 149.760011 768.004416 
L 155.925987 765.14217 
L 162.091962 762.145123 
L 168.257938 759.006928 
L 174.423914 755.720936 
L 180.58989 752.280189 
L 186.755866 748.677396 
L 192.921842 744.904928 
L 199.087817 740.954791 
L 205.253793 736.81862 
L 211.419769 732.487652 
L 217.585745 727.952714 
L 223.751721 723.204199 
L 229.917697 718.232048 
L 236.083673 713.025731 
L 242.249648 707.574217 
L 248.415624 701.86596 
L 254.5816 695.888868 
L 260.747576 689.630279 
L 266.913552 683.076937 
L 273.079528 676.214961 
L 279.245504 669.029813 
L 285.411479 661.506276 
L 291.577455 653.628411 
L 297.743431 645.379531 
L 303.909407 636.742164 
L 310.075383 627.698013 
L 316.241359 618.22792 
L 322.407335 608.311825 
L 328.57331 597.928723 
L 334.739286 587.056621 
L 340.905262 575.672488 
L 347.071238 563.75221 
L 353.237214 551.270536 
L 359.40319 538.201028 
L 365.569165 524.516001 
L 371.735141 510.186466 
L 377.901117 495.182069 
L 384.067093 479.471028 
L 390.233069 463.020063 
L 396.399045 445.794325 
L 402.565021 427.757328 
L 408.730996 408.870863 
L 414.896972 389.094924 
L 421.062948 368.387621 
L 427.228924 346.705091 
L 433.3949 324.001404 
L 439.560876 300.228468 
L 445.726852 275.335926 
L 451.892827 249.271049 
L 458.058803 221.978626 
L 464.224779 193.400842 
L 470.390755 163.477165 
L 476.556731 132.144207 
L 482.722707 99.335598 
L 488.888683 64.98184 
L 495.054658 29.010164 
L 499.96739 -1 
M 594.257486 -1 
L 599.876248 33.145578 
L 606.042224 68.931253 
L 612.2082 103.107376 
L 618.374175 135.74634 
L 624.540151 166.917283 
L 630.706127 196.686232 
L 636.872103 225.116246 
L 643.038079 252.267547 
L 649.204055 278.197649 
L 655.370031 302.961478 
L 661.536006 326.611489 
L 667.701982 349.197781 
L 673.867958 370.768196 
L 680.033934 391.368427 
L 686.19991 411.042109 
L 692.365886 429.830916 
L 698.531862 447.774649 
L 704.697837 464.911316 
L 710.863813 481.277217 
L 717.029789 496.90702 
L 723.195765 511.833833 
L 729.361741 526.089273 
L 735.527717 539.703539 
L 741.693692 552.705468 
L 747.859668 565.122602 
L 754.025644 576.981243 
L 760.19162 588.306511 
L 766.357596 599.122396 
L 772.523572 609.45181 
L 778.689548 619.316631 
L 784.855523 628.737756 
L 791.021499 637.735142 
L 797.187475 646.327848 
L 803.353451 654.534074 
L 809.519427 662.371205 
L 815.685403 669.85584 
L 821.851379 677.003835 
L 828.017354 683.83033 
L 834.18333 690.349786 
L 840.349306 696.576012 
L 846.515282 702.522198 
L 852.681258 708.20094 
L 858.847234 713.624265 
L 865.01321 718.803662 
L 871.179185 723.750102 
L 877.345161 728.474064 
L 883.511137 732.985553 
L 889.677113 737.294127 
L 895.843089 741.408911 
L 902.009065 745.338622 
L 908.17504 749.091584 
L 914.341016 752.675748 
L 920.506992 756.098704 
L 926.672968 759.367704 
L 932.838944 762.489672 
L 939.00492 765.471222 
L 945.170896 768.318669 
L 951.336871 771.038045 
L 963.668823 776.115365 
L 976.000775 780.746225 
L 988.332727 784.969884 
L 1000.664678 788.822147 
L 1012.99663 792.335672 
L 1025.328582 795.540246 
L 1037.660533 798.463034 
L 1049.992485 801.128815 
L 1062.324437 803.560189 
L 1074.656388 805.777766 
L 1086.98834 807.800348 
L 1099.320292 809.645079 
L 1111.652244 811.327599 
L 1130.150171 813.578088 
L 1148.648099 815.538367 
L 1167.146026 817.245858 
L 1185.643954 818.733159 
L 1204.141881 820.028667 
L 1228.805785 821.499943 
L 1253.469688 822.72385 
L 1278.133592 823.741979 
L 1308.963471 824.777404 
L 1339.79335 825.6 
L 1364.457254 826.134555 
L 1364.457254 826.134555 
" clip-path="url(#p1d086d737e)" style="fill: none; stroke: #9467bd; stroke-width: 1.5; stroke-linecap: square"/>
   </g>
   <g id="line2d_18">
    <path d="M 137.428059 819.022182 
L 143.594035 817.150198 
L 149.760011 814.99021 
L 155.925987 812.510928 
L 162.091962 809.679701 
L 168.257938 806.462756 
L 174.423914 802.825464 
L 180.58989 798.732661 
L 186.755866 794.148993 
L 192.921842 789.039299 
L 199.087817 783.369028 
L 205.253793 777.104671 
L 211.419769 770.214219 
L 217.585745 762.667633 
L 223.751721 754.43731 
L 229.917697 745.498562 
L 236.083673 735.830074 
L 242.249648 725.414345 
L 248.415624 714.238115 
L 254.5816 702.292746 
L 260.747576 689.574576 
L 266.913552 676.085219 
L 273.079528 661.831818 
L 279.245504 646.827244 
L 285.411479 631.090229 
L 291.577455 614.645442 
L 297.743431 597.523493 
L 303.909407 579.760877 
L 310.075383 561.399847 
L 316.241359 542.488222 
L 322.407335 523.079132 
L 328.57331 503.230702 
L 340.905262 462.471009 
L 353.237214 420.758613 
L 377.901117 336.911354 
L 390.233069 296.05839 
L 396.399045 276.182146 
L 402.565021 256.777878 
L 408.730996 237.921966 
L 414.896972 219.688147 
L 421.062948 202.147013 
L 427.228924 185.365534 
L 433.3949 169.40663 
L 439.560876 154.328782 
L 445.726852 140.185698 
L 451.892827 127.026019 
L 458.058803 114.89308 
L 464.224779 103.824719 
L 470.390755 93.853144 
L 476.556731 85.004841 
L 482.722707 77.300537 
L 488.888683 70.755209 
L 495.054658 65.37814 
L 501.220634 61.173013 
L 507.38661 58.138053 
L 513.552586 56.266199 
L 519.718562 55.545315 
L 525.884538 55.958425 
L 532.050513 57.48398 
L 538.216489 60.096143 
L 544.382465 63.765101 
L 550.548441 68.45738 
L 556.714417 74.136183 
L 562.880393 80.761726 
L 569.046369 88.291592 
L 575.212344 96.681068 
L 581.37832 105.8835 
L 587.544296 115.850629 
L 593.710272 126.532926 
L 599.876248 137.879918 
L 606.042224 149.840502 
L 612.2082 162.363244 
L 618.374175 175.396665 
L 624.540151 188.889514 
L 630.706127 202.791013 
L 636.872103 217.051101 
L 649.204055 246.451626 
L 661.536006 276.71256 
L 680.033934 322.947417 
L 698.531862 369.244869 
L 710.863813 399.682464 
L 723.195765 429.502788 
L 735.527717 458.507324 
L 747.859668 486.530238 
L 754.025644 500.130395 
L 760.19162 513.437096 
L 766.357596 526.438153 
L 772.523572 539.123098 
L 778.689548 551.483111 
L 784.855523 563.51094 
L 791.021499 575.200827 
L 797.187475 586.54842 
L 803.353451 597.5507 
L 809.519427 608.205889 
L 815.685403 618.513374 
L 821.851379 628.473623 
L 828.017354 638.088105 
L 834.18333 647.35921 
L 840.349306 656.290169 
L 846.515282 664.884985 
L 852.681258 673.148353 
L 858.847234 681.085593 
L 865.01321 688.702582 
L 871.179185 696.005687 
L 877.345161 703.001708 
L 883.511137 709.697813 
L 889.677113 716.101488 
L 895.843089 722.220479 
L 902.009065 728.062749 
L 908.17504 733.636429 
L 914.341016 738.949773 
L 920.506992 744.011123 
L 926.672968 748.828869 
L 932.838944 753.411417 
L 939.00492 757.767155 
L 945.170896 761.904429 
L 951.336871 765.831518 
L 957.502847 769.556603 
L 963.668823 773.087759 
L 969.834799 776.432925 
L 976.000775 779.599896 
L 982.166751 782.596304 
L 988.332727 785.429611 
L 994.498702 788.107093 
L 1000.664678 790.635835 
L 1006.830654 793.022725 
L 1012.99663 795.274445 
L 1019.162606 797.397469 
L 1031.494558 801.282264 
L 1043.826509 804.724648 
L 1056.158461 807.76874 
L 1068.490413 810.455284 
L 1080.822364 812.821729 
L 1093.154316 814.90235 
L 1105.486268 816.72839 
L 1117.818219 818.328218 
L 1130.150171 819.727506 
L 1142.482123 820.949402 
L 1160.98005 822.494563 
L 1179.477978 823.748217 
L 1197.975906 824.762062 
L 1216.473833 825.579435 
L 1241.137737 826.425183 
L 1265.80164 827.054199 
L 1296.631519 827.615746 
L 1333.627374 828.059084 
L 1364.457254 828.299047 
L 1364.457254 828.299047 
" clip-path="url(#p1d086d737e)" style="fill: none; stroke: #8c564b; stroke-width: 1.5; stroke-linecap: square"/>
   </g>
   <g id="line2d_19">
    <path d="M 137.428059 796.694098 
L 143.594035 793.610131 
L 149.760011 790.281919 
L 155.925987 786.695784 
L 162.091962 782.837861 
L 168.257938 778.694157 
L 174.423914 774.250618 
L 180.58989 769.493207 
L 186.755866 764.407981 
L 192.921842 758.981177 
L 199.087817 753.19931 
L 205.253793 747.049267 
L 211.419769 740.518417 
L 217.585745 733.594716 
L 223.751721 726.266825 
L 229.917697 718.524228 
L 236.083673 710.357356 
L 242.249648 701.757707 
L 248.415624 692.717981 
L 254.5816 683.232201 
L 260.747576 673.295844 
L 266.913552 662.905966 
L 273.079528 652.061329 
L 279.245504 640.762518 
L 285.411479 629.01206 
L 291.577455 616.814532 
L 297.743431 604.176666 
L 303.909407 591.107438 
L 310.075383 577.61816 
L 316.241359 563.722543 
L 322.407335 549.436765 
L 328.57331 534.779512 
L 334.739286 519.772014 
L 340.905262 504.438056 
L 353.237214 472.898659 
L 365.569165 440.402235 
L 377.901117 407.228603 
L 414.896972 306.959355 
L 427.228924 274.530178 
L 433.3949 258.726848 
L 439.560876 243.26652 
L 445.726852 228.200917 
L 451.892827 213.581506 
L 458.058803 199.459204 
L 464.224779 185.884095 
L 470.390755 172.905126 
L 476.556731 160.569825 
L 482.722707 148.924002 
L 488.888683 138.011478 
L 495.054658 127.8738 
L 501.220634 118.549985 
L 507.38661 110.076269 
L 513.552586 102.485871 
L 519.718562 95.808775 
L 525.884538 90.071538 
L 532.050513 85.297107 
L 538.216489 81.504674 
L 544.382465 78.709538 
L 550.548441 76.923013 
L 556.714417 76.152341 
L 562.880393 76.400653 
L 569.046369 77.666939 
L 575.212344 79.946061 
L 581.37832 83.228785 
L 587.544296 87.501845 
L 593.710272 92.74803 
L 599.876248 98.946301 
L 606.042224 106.071931 
L 612.2082 114.096671 
L 618.374175 122.988933 
L 624.540151 132.714002 
L 630.706127 143.234255 
L 636.872103 154.509411 
L 643.038079 166.496781 
L 649.204055 179.151541 
L 655.370031 192.427007 
L 661.536006 206.274924 
L 667.701982 220.645753 
L 673.867958 235.48897 
L 680.033934 250.753352 
L 686.19991 266.387271 
L 698.531862 298.556903 
L 710.863813 331.587443 
L 754.025644 448.392779 
L 766.357596 480.680383 
L 778.689548 511.948605 
L 784.855523 527.12663 
L 791.021499 541.966286 
L 797.187475 556.445034 
L 803.353451 570.542886 
L 809.519427 584.242385 
L 815.685403 597.528559 
L 821.851379 610.388875 
L 828.017354 622.81317 
L 834.18333 634.793571 
L 840.349306 646.324409 
L 846.515282 657.40212 
L 852.681258 668.025136 
L 858.847234 678.193776 
L 865.01321 687.910124 
L 871.179185 697.177909 
L 877.345161 706.002379 
L 883.511137 714.390171 
L 889.677113 722.349187 
L 895.843089 729.888464 
L 902.009065 737.018049 
L 908.17504 743.748873 
L 914.341016 750.092634 
L 920.506992 756.061675 
L 926.672968 761.668877 
L 932.838944 766.927545 
L 939.00492 771.851314 
L 945.170896 776.454043 
L 951.336871 780.749733 
L 957.502847 784.752439 
L 963.668823 788.476193 
L 969.834799 791.934935 
L 976.000775 795.142446 
L 982.166751 798.112291 
L 988.332727 800.85777 
L 994.498702 803.391869 
L 1000.664678 805.727225 
L 1006.830654 807.876087 
L 1012.99663 809.850294 
L 1019.162606 811.661249 
L 1025.328582 813.319903 
L 1031.494558 814.836741 
L 1037.660533 816.221771 
L 1049.992485 818.63405 
L 1062.324437 820.627225 
L 1074.656388 822.264211 
L 1086.98834 823.600617 
L 1099.320292 824.685139 
L 1111.652244 825.560032 
L 1123.984195 826.261649 
L 1142.482123 827.055687 
L 1160.98005 827.6136 
L 1185.643954 828.100296 
L 1216.473833 828.444165 
L 1259.635664 828.661515 
L 1333.627374 828.762544 
L 1364.457254 828.772313 
L 1364.457254 828.772313 
" clip-path="url(#p1d086d737e)" style="fill: none; stroke: #e377c2; stroke-width: 1.5; stroke-linecap: square"/>
   </g>
   <g id="patch_103">
    <path d="M 72.685313 828.779375 
L 72.685313 38.075625 
" style="fill: none; stroke: #000000; stroke-width: 0.8; stroke-linejoin: miter; stroke-linecap: square"/>
   </g>
   <g id="patch_104">
    <path d="M 1429.2 828.779375 
L 1429.2 38.075625 
" style="fill: none; stroke: #000000; stroke-width: 0.8; stroke-linejoin: miter; stroke-linecap: square"/>
   </g>
   <g id="patch_105">
    <path d="M 72.685313 828.779375 
L 1429.2 828.779375 
" style="fill: none; stroke: #000000; stroke-width: 0.8; stroke-linejoin: miter; stroke-linecap: square"/>
   </g>
   <g id="patch_106">
    <path d="M 72.685313 38.075625 
L 1429.2 38.075625 
" style="fill: none; stroke: #000000; stroke-width: 0.8; stroke-linejoin: miter; stroke-linecap: square"/>
   </g>
   <g id="text_15">
    <!-- All Fitted Distributions -->
    <g transform="translate(596.317031 32.075625) scale(0.28 -0.28)">
     <defs>
      <path id="DejaVuSans-41" d="M 2188 4044 
L 1331 1722 
L 3047 1722 
L 2188 4044 
z
M 1831 4666 
L 2547 4666 
L 4325 0 
L 3669 0 
L 3244 1197 
L 1141 1197 
L 716 0 
L 50 0 
L 1831 4666 
z
" transform="scale(0.015625)"/>
      <path id="DejaVuSans-6c" d="M 603 4863 
L 1178 4863 
L 1178 0 
L 603 0 
L 603 4863 
z
" transform="scale(0.015625)"/>
      <path id="DejaVuSans-46" d="M 628 4666 
L 3309 4666 
L 3309 4134 
L 1259 4134 
L 1259 2759 
L 3109 2759 
L 3109 2228 
L 1259 2228 
L 1259 0 
L 628 0 
L 628 4666 
z
" transform="scale(0.015625)"/>
      <path id="DejaVuSans-44" d="M 1259 4147 
L 1259 519 
L 2022 519 
Q 2988 519 3436 956 
Q 3884 1394 3884 2338 
Q 3884 3275 3436 3711 
Q 2988 4147 2022 4147 
L 1259 4147 
z
M 628 4666 
L 1925 4666 
Q 3281 4666 3915 4102 
Q 4550 3538 4550 2338 
Q 4550 1131 3912 565 
Q 3275 0 1925 0 
L 628 0 
L 628 4666 
z
" transform="scale(0.015625)"/>
      <path id="DejaVuSans-62" d="M 3116 1747 
Q 3116 2381 2855 2742 
Q 2594 3103 2138 3103 
Q 1681 3103 1420 2742 
Q 1159 2381 1159 1747 
Q 1159 1113 1420 752 
Q 1681 391 2138 391 
Q 2594 391 2855 752 
Q 3116 1113 3116 1747 
z
M 1159 2969 
Q 1341 3281 1617 3432 
Q 1894 3584 2278 3584 
Q 2916 3584 3314 3078 
Q 3713 2572 3713 1747 
Q 3713 922 3314 415 
Q 2916 -91 2278 -91 
Q 1894 -91 1617 61 
Q 1341 213 1159 525 
L 1159 0 
L 581 0 
L 581 4863 
L 1159 4863 
L 1159 2969 
z
" transform="scale(0.015625)"/>
     </defs>
     <use xlink:href="#DejaVuSans-41"/>
     <use xlink:href="#DejaVuSans-6c" x="68.408203"/>
     <use xlink:href="#DejaVuSans-6c" x="96.191406"/>
     <use xlink:href="#DejaVuSans-20" x="123.974609"/>
     <use xlink:href="#DejaVuSans-46" x="155.761719"/>
     <use xlink:href="#DejaVuSans-69" x="206.03125"/>
     <use xlink:href="#DejaVuSans-74" x="233.814453"/>
     <use xlink:href="#DejaVuSans-74" x="273.023438"/>
     <use xlink:href="#DejaVuSans-65" x="312.232422"/>
     <use xlink:href="#DejaVuSans-64" x="373.755859"/>
     <use xlink:href="#DejaVuSans-20" x="437.232422"/>
     <use xlink:href="#DejaVuSans-44" x="469.019531"/>
     <use xlink:href="#DejaVuSans-69" x="546.021484"/>
     <use xlink:href="#DejaVuSans-73" x="573.804688"/>
     <use xlink:href="#DejaVuSans-74" x="625.904297"/>
     <use xlink:href="#DejaVuSans-72" x="665.113281"/>
     <use xlink:href="#DejaVuSans-69" x="706.226562"/>
     <use xlink:href="#DejaVuSans-62" x="734.009766"/>
     <use xlink:href="#DejaVuSans-75" x="797.486328"/>
     <use xlink:href="#DejaVuSans-74" x="860.865234"/>
     <use xlink:href="#DejaVuSans-69" x="900.074219"/>
     <use xlink:href="#DejaVuSans-6f" x="927.857422"/>
     <use xlink:href="#DejaVuSans-6e" x="989.039062"/>
     <use xlink:href="#DejaVuSans-73" x="1052.417969"/>
    </g>
   </g>
   <g id="legend_1">
    <g id="patch_107">
     <path d="M 1014.37125 303.868125 
L 1412.4 303.868125 
Q 1417.2 303.868125 1417.2 299.068125 
L 1417.2 54.875625 
Q 1417.2 50.075625 1412.4 50.075625 
L 1014.37125 50.075625 
Q 1009.57125 50.075625 1009.57125 54.875625 
L 1009.57125 299.068125 
Q 1009.57125 303.868125 1014.37125 303.868125 
z
" style="fill: #ffffff; opacity: 0.8; stroke: #cccccc; stroke-linejoin: miter"/>
    </g>
    <g id="patch_108">
     <path d="M 1019.17125 77.911875 
L 1067.17125 77.911875 
L 1067.17125 61.111875 
L 1019.17125 61.111875 
z
" style="fill: #1f77b4; opacity: 0.6"/>
    </g>
    <g id="text_16">
     <!-- Generated Chi Distribution -->
     <g transform="translate(1086.37125 77.911875) scale(0.24 -0.24)">
      <defs>
       <path id="DejaVuSans-47" d="M 3809 666 
L 3809 1919 
L 2778 1919 
L 2778 2438 
L 4434 2438 
L 4434 434 
Q 4069 175 3628 42 
Q 3188 -91 2688 -91 
Q 1594 -91 976 548 
Q 359 1188 359 2328 
Q 359 3472 976 4111 
Q 1594 4750 2688 4750 
Q 3144 4750 3555 4637 
Q 3966 4525 4313 4306 
L 4313 3634 
Q 3963 3931 3569 4081 
Q 3175 4231 2741 4231 
Q 1884 4231 1454 3753 
Q 1025 3275 1025 2328 
Q 1025 1384 1454 906 
Q 1884 428 2741 428 
Q 3075 428 3337 486 
Q 3600 544 3809 666 
z
" transform="scale(0.015625)"/>
       <path id="DejaVuSans-61" d="M 2194 1759 
Q 1497 1759 1228 1600 
Q 959 1441 959 1056 
Q 959 750 1161 570 
Q 1363 391 1709 391 
Q 2188 391 2477 730 
Q 2766 1069 2766 1631 
L 2766 1759 
L 2194 1759 
z
M 3341 1997 
L 3341 0 
L 2766 0 
L 2766 531 
Q 2569 213 2275 61 
Q 1981 -91 1556 -91 
Q 1019 -91 701 211 
Q 384 513 384 1019 
Q 384 1609 779 1909 
Q 1175 2209 1959 2209 
L 2766 2209 
L 2766 2266 
Q 2766 2663 2505 2880 
Q 2244 3097 1772 3097 
Q 1472 3097 1187 3025 
Q 903 2953 641 2809 
L 641 3341 
Q 956 3463 1253 3523 
Q 1550 3584 1831 3584 
Q 2591 3584 2966 3190 
Q 3341 2797 3341 1997 
z
" transform="scale(0.015625)"/>
       <path id="DejaVuSans-68" d="M 3513 2113 
L 3513 0 
L 2938 0 
L 2938 2094 
Q 2938 2591 2744 2837 
Q 2550 3084 2163 3084 
Q 1697 3084 1428 2787 
Q 1159 2491 1159 1978 
L 1159 0 
L 581 0 
L 581 4863 
L 1159 4863 
L 1159 2956 
Q 1366 3272 1645 3428 
Q 1925 3584 2291 3584 
Q 2894 3584 3203 3211 
Q 3513 2838 3513 2113 
z
" transform="scale(0.015625)"/>
      </defs>
      <use xlink:href="#DejaVuSans-47"/>
      <use xlink:href="#DejaVuSans-65" x="77.490234"/>
      <use xlink:href="#DejaVuSans-6e" x="139.013672"/>
      <use xlink:href="#DejaVuSans-65" x="202.392578"/>
      <use xlink:href="#DejaVuSans-72" x="263.916016"/>
      <use xlink:href="#DejaVuSans-61" x="305.029297"/>
      <use xlink:href="#DejaVuSans-74" x="366.308594"/>
      <use xlink:href="#DejaVuSans-65" x="405.517578"/>
      <use xlink:href="#DejaVuSans-64" x="467.041016"/>
      <use xlink:href="#DejaVuSans-20" x="530.517578"/>
      <use xlink:href="#DejaVuSans-43" x="562.304688"/>
      <use xlink:href="#DejaVuSans-68" x="632.128906"/>
      <use xlink:href="#DejaVuSans-69" x="695.507812"/>
      <use xlink:href="#DejaVuSans-20" x="723.291016"/>
      <use xlink:href="#DejaVuSans-44" x="755.078125"/>
      <use xlink:href="#DejaVuSans-69" x="832.080078"/>
      <use xlink:href="#DejaVuSans-73" x="859.863281"/>
      <use xlink:href="#DejaVuSans-74" x="911.962891"/>
      <use xlink:href="#DejaVuSans-72" x="951.171875"/>
      <use xlink:href="#DejaVuSans-69" x="992.285156"/>
      <use xlink:href="#DejaVuSans-62" x="1020.068359"/>
      <use xlink:href="#DejaVuSans-75" x="1083.544922"/>
      <use xlink:href="#DejaVuSans-74" x="1146.923828"/>
      <use xlink:href="#DejaVuSans-69" x="1186.132812"/>
      <use xlink:href="#DejaVuSans-6f" x="1213.916016"/>
      <use xlink:href="#DejaVuSans-6e" x="1275.097656"/>
     </g>
    </g>
    <g id="line2d_20">
     <path d="M 1019.17125 104.739375 
L 1043.17125 104.739375 
L 1067.17125 104.739375 
" style="fill: none; stroke: #ff7f0e; stroke-width: 1.5; stroke-linecap: square"/>
    </g>
    <g id="text_17">
     <!-- Chi fit -->
     <g transform="translate(1086.37125 113.139375) scale(0.24 -0.24)">
      <defs>
       <path id="DejaVuSans-66" d="M 2375 4863 
L 2375 4384 
L 1825 4384 
Q 1516 4384 1395 4259 
Q 1275 4134 1275 3809 
L 1275 3500 
L 2222 3500 
L 2222 3053 
L 1275 3053 
L 1275 0 
L 697 0 
L 697 3053 
L 147 3053 
L 147 3500 
L 697 3500 
L 697 3744 
Q 697 4328 969 4595 
Q 1241 4863 1831 4863 
L 2375 4863 
z
" transform="scale(0.015625)"/>
      </defs>
      <use xlink:href="#DejaVuSans-43"/>
      <use xlink:href="#DejaVuSans-68" x="69.824219"/>
      <use xlink:href="#DejaVuSans-69" x="133.203125"/>
      <use xlink:href="#DejaVuSans-20" x="160.986328"/>
      <use xlink:href="#DejaVuSans-66" x="192.773438"/>
      <use xlink:href="#DejaVuSans-69" x="227.978516"/>
      <use xlink:href="#DejaVuSans-74" x="255.761719"/>
     </g>
    </g>
    <g id="line2d_21">
     <path d="M 1019.17125 139.966875 
L 1043.17125 139.966875 
L 1067.17125 139.966875 
" style="fill: none; stroke: #2ca02c; stroke-width: 1.5; stroke-linecap: square"/>
    </g>
    <g id="text_18">
     <!-- Chi-Square fit -->
     <g transform="translate(1086.37125 148.366875) scale(0.24 -0.24)">
      <defs>
       <path id="DejaVuSans-2d" d="M 313 2009 
L 1997 2009 
L 1997 1497 
L 313 1497 
L 313 2009 
z
" transform="scale(0.015625)"/>
       <path id="DejaVuSans-53" d="M 3425 4513 
L 3425 3897 
Q 3066 4069 2747 4153 
Q 2428 4238 2131 4238 
Q 1616 4238 1336 4038 
Q 1056 3838 1056 3469 
Q 1056 3159 1242 3001 
Q 1428 2844 1947 2747 
L 2328 2669 
Q 3034 2534 3370 2195 
Q 3706 1856 3706 1288 
Q 3706 609 3251 259 
Q 2797 -91 1919 -91 
Q 1588 -91 1214 -16 
Q 841 59 441 206 
L 441 856 
Q 825 641 1194 531 
Q 1563 422 1919 422 
Q 2459 422 2753 634 
Q 3047 847 3047 1241 
Q 3047 1584 2836 1778 
Q 2625 1972 2144 2069 
L 1759 2144 
Q 1053 2284 737 2584 
Q 422 2884 422 3419 
Q 422 4038 858 4394 
Q 1294 4750 2059 4750 
Q 2388 4750 2728 4690 
Q 3069 4631 3425 4513 
z
" transform="scale(0.015625)"/>
       <path id="DejaVuSans-71" d="M 947 1747 
Q 947 1113 1208 752 
Q 1469 391 1925 391 
Q 2381 391 2643 752 
Q 2906 1113 2906 1747 
Q 2906 2381 2643 2742 
Q 2381 3103 1925 3103 
Q 1469 3103 1208 2742 
Q 947 2381 947 1747 
z
M 2906 525 
Q 2725 213 2448 61 
Q 2172 -91 1784 -91 
Q 1150 -91 751 415 
Q 353 922 353 1747 
Q 353 2572 751 3078 
Q 1150 3584 1784 3584 
Q 2172 3584 2448 3432 
Q 2725 3281 2906 2969 
L 2906 3500 
L 3481 3500 
L 3481 -1331 
L 2906 -1331 
L 2906 525 
z
" transform="scale(0.015625)"/>
      </defs>
      <use xlink:href="#DejaVuSans-43"/>
      <use xlink:href="#DejaVuSans-68" x="69.824219"/>
      <use xlink:href="#DejaVuSans-69" x="133.203125"/>
      <use xlink:href="#DejaVuSans-2d" x="160.986328"/>
      <use xlink:href="#DejaVuSans-53" x="197.070312"/>
      <use xlink:href="#DejaVuSans-71" x="260.546875"/>
      <use xlink:href="#DejaVuSans-75" x="324.023438"/>
      <use xlink:href="#DejaVuSans-61" x="387.402344"/>
      <use xlink:href="#DejaVuSans-72" x="448.681641"/>
      <use xlink:href="#DejaVuSans-65" x="487.544922"/>
      <use xlink:href="#DejaVuSans-20" x="549.068359"/>
      <use xlink:href="#DejaVuSans-66" x="580.855469"/>
      <use xlink:href="#DejaVuSans-69" x="616.060547"/>
      <use xlink:href="#DejaVuSans-74" x="643.84375"/>
     </g>
    </g>
    <g id="line2d_22">
     <path d="M 1019.17125 175.194375 
L 1043.17125 175.194375 
L 1067.17125 175.194375 
" style="fill: none; stroke: #d62728; stroke-width: 1.5; stroke-linecap: square"/>
    </g>
    <g id="text_19">
     <!-- Exponential fit -->
     <g transform="translate(1086.37125 183.594375) scale(0.24 -0.24)">
      <defs>
       <path id="DejaVuSans-45" d="M 628 4666 
L 3578 4666 
L 3578 4134 
L 1259 4134 
L 1259 2753 
L 3481 2753 
L 3481 2222 
L 1259 2222 
L 1259 531 
L 3634 531 
L 3634 0 
L 628 0 
L 628 4666 
z
" transform="scale(0.015625)"/>
       <path id="DejaVuSans-78" d="M 3513 3500 
L 2247 1797 
L 3578 0 
L 2900 0 
L 1881 1375 
L 863 0 
L 184 0 
L 1544 1831 
L 300 3500 
L 978 3500 
L 1906 2253 
L 2834 3500 
L 3513 3500 
z
" transform="scale(0.015625)"/>
       <path id="DejaVuSans-70" d="M 1159 525 
L 1159 -1331 
L 581 -1331 
L 581 3500 
L 1159 3500 
L 1159 2969 
Q 1341 3281 1617 3432 
Q 1894 3584 2278 3584 
Q 2916 3584 3314 3078 
Q 3713 2572 3713 1747 
Q 3713 922 3314 415 
Q 2916 -91 2278 -91 
Q 1894 -91 1617 61 
Q 1341 213 1159 525 
z
M 3116 1747 
Q 3116 2381 2855 2742 
Q 2594 3103 2138 3103 
Q 1681 3103 1420 2742 
Q 1159 2381 1159 1747 
Q 1159 1113 1420 752 
Q 1681 391 2138 391 
Q 2594 391 2855 752 
Q 3116 1113 3116 1747 
z
" transform="scale(0.015625)"/>
      </defs>
      <use xlink:href="#DejaVuSans-45"/>
      <use xlink:href="#DejaVuSans-78" x="63.183594"/>
      <use xlink:href="#DejaVuSans-70" x="122.363281"/>
      <use xlink:href="#DejaVuSans-6f" x="185.839844"/>
      <use xlink:href="#DejaVuSans-6e" x="247.021484"/>
      <use xlink:href="#DejaVuSans-65" x="310.400391"/>
      <use xlink:href="#DejaVuSans-6e" x="371.923828"/>
      <use xlink:href="#DejaVuSans-74" x="435.302734"/>
      <use xlink:href="#DejaVuSans-69" x="474.511719"/>
      <use xlink:href="#DejaVuSans-61" x="502.294922"/>
      <use xlink:href="#DejaVuSans-6c" x="563.574219"/>
      <use xlink:href="#DejaVuSans-20" x="591.357422"/>
      <use xlink:href="#DejaVuSans-66" x="623.144531"/>
      <use xlink:href="#DejaVuSans-69" x="658.349609"/>
      <use xlink:href="#DejaVuSans-74" x="686.132812"/>
     </g>
    </g>
    <g id="line2d_23">
     <path d="M 1019.17125 210.421875 
L 1043.17125 210.421875 
L 1067.17125 210.421875 
" style="fill: none; stroke: #9467bd; stroke-width: 1.5; stroke-linecap: square"/>
    </g>
    <g id="text_20">
     <!-- Laplace fit -->
     <g transform="translate(1086.37125 218.821875) scale(0.24 -0.24)">
      <defs>
       <path id="DejaVuSans-4c" d="M 628 4666 
L 1259 4666 
L 1259 531 
L 3531 531 
L 3531 0 
L 628 0 
L 628 4666 
z
" transform="scale(0.015625)"/>
       <path id="DejaVuSans-63" d="M 3122 3366 
L 3122 2828 
Q 2878 2963 2633 3030 
Q 2388 3097 2138 3097 
Q 1578 3097 1268 2742 
Q 959 2388 959 1747 
Q 959 1106 1268 751 
Q 1578 397 2138 397 
Q 2388 397 2633 464 
Q 2878 531 3122 666 
L 3122 134 
Q 2881 22 2623 -34 
Q 2366 -91 2075 -91 
Q 1284 -91 818 406 
Q 353 903 353 1747 
Q 353 2603 823 3093 
Q 1294 3584 2113 3584 
Q 2378 3584 2631 3529 
Q 2884 3475 3122 3366 
z
" transform="scale(0.015625)"/>
      </defs>
      <use xlink:href="#DejaVuSans-4c"/>
      <use xlink:href="#DejaVuSans-61" x="55.712891"/>
      <use xlink:href="#DejaVuSans-70" x="116.992188"/>
      <use xlink:href="#DejaVuSans-6c" x="180.46875"/>
      <use xlink:href="#DejaVuSans-61" x="208.251953"/>
      <use xlink:href="#DejaVuSans-63" x="269.53125"/>
      <use xlink:href="#DejaVuSans-65" x="324.511719"/>
      <use xlink:href="#DejaVuSans-20" x="386.035156"/>
      <use xlink:href="#DejaVuSans-66" x="417.822266"/>
      <use xlink:href="#DejaVuSans-69" x="453.027344"/>
      <use xlink:href="#DejaVuSans-74" x="480.810547"/>
     </g>
    </g>
    <g id="line2d_24">
     <path d="M 1019.17125 245.649375 
L 1043.17125 245.649375 
L 1067.17125 245.649375 
" style="fill: none; stroke: #8c564b; stroke-width: 1.5; stroke-linecap: square"/>
    </g>
    <g id="text_21">
     <!-- LogNorm fit -->
     <g transform="translate(1086.37125 254.049375) scale(0.24 -0.24)">
      <defs>
       <path id="DejaVuSans-67" d="M 2906 1791 
Q 2906 2416 2648 2759 
Q 2391 3103 1925 3103 
Q 1463 3103 1205 2759 
Q 947 2416 947 1791 
Q 947 1169 1205 825 
Q 1463 481 1925 481 
Q 2391 481 2648 825 
Q 2906 1169 2906 1791 
z
M 3481 434 
Q 3481 -459 3084 -895 
Q 2688 -1331 1869 -1331 
Q 1566 -1331 1297 -1286 
Q 1028 -1241 775 -1147 
L 775 -588 
Q 1028 -725 1275 -790 
Q 1522 -856 1778 -856 
Q 2344 -856 2625 -561 
Q 2906 -266 2906 331 
L 2906 616 
Q 2728 306 2450 153 
Q 2172 0 1784 0 
Q 1141 0 747 490 
Q 353 981 353 1791 
Q 353 2603 747 3093 
Q 1141 3584 1784 3584 
Q 2172 3584 2450 3431 
Q 2728 3278 2906 2969 
L 2906 3500 
L 3481 3500 
L 3481 434 
z
" transform="scale(0.015625)"/>
      </defs>
      <use xlink:href="#DejaVuSans-4c"/>
      <use xlink:href="#DejaVuSans-6f" x="53.962891"/>
      <use xlink:href="#DejaVuSans-67" x="115.144531"/>
      <use xlink:href="#DejaVuSans-4e" x="178.621094"/>
      <use xlink:href="#DejaVuSans-6f" x="253.425781"/>
      <use xlink:href="#DejaVuSans-72" x="314.607422"/>
      <use xlink:href="#DejaVuSans-6d" x="353.970703"/>
      <use xlink:href="#DejaVuSans-20" x="451.382812"/>
      <use xlink:href="#DejaVuSans-66" x="483.169922"/>
      <use xlink:href="#DejaVuSans-69" x="518.375"/>
      <use xlink:href="#DejaVuSans-74" x="546.158203"/>
     </g>
    </g>
    <g id="line2d_25">
     <path d="M 1019.17125 280.876875 
L 1043.17125 280.876875 
L 1067.17125 280.876875 
" style="fill: none; stroke: #e377c2; stroke-width: 1.5; stroke-linecap: square"/>
    </g>
    <g id="text_22">
     <!-- Normal fit -->
     <g transform="translate(1086.37125 289.276875) scale(0.24 -0.24)">
      <use xlink:href="#DejaVuSans-4e"/>
      <use xlink:href="#DejaVuSans-6f" x="74.804688"/>
      <use xlink:href="#DejaVuSans-72" x="135.986328"/>
      <use xlink:href="#DejaVuSans-6d" x="175.349609"/>
      <use xlink:href="#DejaVuSans-61" x="272.761719"/>
      <use xlink:href="#DejaVuSans-6c" x="334.041016"/>
      <use xlink:href="#DejaVuSans-20" x="361.824219"/>
      <use xlink:href="#DejaVuSans-66" x="393.611328"/>
      <use xlink:href="#DejaVuSans-69" x="428.816406"/>
      <use xlink:href="#DejaVuSans-74" x="456.599609"/>
     </g>
    </g>
   </g>
  </g>
 </g>
 <defs>
  <clipPath id="p1d086d737e">
   <rect x="72.685313" y="38.075625" width="1356.514688" height="790.70375"/>
  </clipPath>
 </defs>
</svg>
