<?xml version="1.0" encoding="utf-8" standalone="no"?>
<!DOCTYPE svg PUBLIC "-//W3C//DTD SVG 1.1//EN"
  "http://www.w3.org/Graphics/SVG/1.1/DTD/svg11.dtd">
<svg xmlns:xlink="http://www.w3.org/1999/xlink" width="1440pt" height="864pt" viewBox="0 0 1440 864" xmlns="http://www.w3.org/2000/svg" version="1.1">
 <metadata>
  <rdf:RDF xmlns:dc="http://purl.org/dc/elements/1.1/" xmlns:cc="http://creativecommons.org/ns#" xmlns:rdf="http://www.w3.org/1999/02/22-rdf-syntax-ns#">
   <cc:Work>
    <dc:type rdf:resource="http://purl.org/dc/dcmitype/StillImage"/>
    <dc:date>2024-07-22T13:40:44.808378</dc:date>
    <dc:format>image/svg+xml</dc:format>
    <dc:creator>
     <cc:Agent>
      <dc:title>Matplotlib v3.9.1, https://matplotlib.org/</dc:title>
     </cc:Agent>
    </dc:creator>
   </cc:Work>
  </rdf:RDF>
 </metadata>
 <defs>
  <style type="text/css">*{stroke-linejoin: round; stroke-linecap: butt}</style>
 </defs>
 <g id="figure_1">
  <g id="patch_1">
   <path d="M 0 864 
L 1440 864 
L 1440 0 
L 0 0 
z
" style="fill: #ffffff"/>
  </g>
  <g id="axes_1">
   <g id="patch_2">
    <path d="M 72.685313 828.779375 
L 1429.2 828.779375 
L 1429.2 38.075625 
L 72.685313 38.075625 
z
" style="fill: #ffffff"/>
   </g>
   <g id="patch_3">
    <path d="M 134.345071 828.779375 
L 146.677023 828.779375 
L 146.677023 827.727628 
L 134.345071 827.727628 
z
" clip-path="url(#p3d166f68bc)" style="fill: #1f77b4; opacity: 0.6"/>
   </g>
   <g id="patch_4">
    <path d="M 146.677023 828.779375 
L 159.008974 828.779375 
L 159.008974 827.201754 
L 146.677023 827.201754 
z
" clip-path="url(#p3d166f68bc)" style="fill: #1f77b4; opacity: 0.6"/>
   </g>
   <g id="patch_5">
    <path d="M 159.008974 828.779375 
L 171.340926 828.779375 
L 171.340926 824.046511 
L 159.008974 824.046511 
z
" clip-path="url(#p3d166f68bc)" style="fill: #1f77b4; opacity: 0.6"/>
   </g>
   <g id="patch_6">
    <path d="M 171.340926 828.779375 
L 183.672878 828.779375 
L 183.672878 815.632532 
L 171.340926 815.632532 
z
" clip-path="url(#p3d166f68bc)" style="fill: #1f77b4; opacity: 0.6"/>
   </g>
   <g id="patch_7">
    <path d="M 183.672878 828.779375 
L 196.00483 828.779375 
L 196.00483 805.640931 
L 183.672878 805.640931 
z
" clip-path="url(#p3d166f68bc)" style="fill: #1f77b4; opacity: 0.6"/>
   </g>
   <g id="patch_8">
    <path d="M 196.00483 828.779375 
L 208.336781 828.779375 
L 208.336781 803.011562 
L 196.00483 803.011562 
z
" clip-path="url(#p3d166f68bc)" style="fill: #1f77b4; opacity: 0.6"/>
   </g>
   <g id="patch_9">
    <path d="M 208.336781 828.779375 
L 220.668733 828.779375 
L 220.668733 787.23535 
L 208.336781 787.23535 
z
" clip-path="url(#p3d166f68bc)" style="fill: #1f77b4; opacity: 0.6"/>
   </g>
   <g id="patch_10">
    <path d="M 220.668733 828.779375 
L 233.000685 828.779375 
L 233.000685 777.243749 
L 220.668733 777.243749 
z
" clip-path="url(#p3d166f68bc)" style="fill: #1f77b4; opacity: 0.6"/>
   </g>
   <g id="patch_11">
    <path d="M 233.000685 828.779375 
L 245.332636 828.779375 
L 245.332636 760.415789 
L 233.000685 760.415789 
z
" clip-path="url(#p3d166f68bc)" style="fill: #1f77b4; opacity: 0.6"/>
   </g>
   <g id="patch_12">
    <path d="M 245.332636 828.779375 
L 257.664588 828.779375 
L 257.664588 741.484335 
L 245.332636 741.484335 
z
" clip-path="url(#p3d166f68bc)" style="fill: #1f77b4; opacity: 0.6"/>
   </g>
   <g id="patch_13">
    <path d="M 257.664588 828.779375 
L 269.99654 828.779375 
L 269.99654 714.1389 
L 257.664588 714.1389 
z
" clip-path="url(#p3d166f68bc)" style="fill: #1f77b4; opacity: 0.6"/>
   </g>
   <g id="patch_14">
    <path d="M 269.99654 828.779375 
L 282.328491 828.779375 
L 282.328491 700.992057 
L 269.99654 700.992057 
z
" clip-path="url(#p3d166f68bc)" style="fill: #1f77b4; opacity: 0.6"/>
   </g>
   <g id="patch_15">
    <path d="M 282.328491 828.779375 
L 294.660443 828.779375 
L 294.660443 644.197694 
L 282.328491 644.197694 
z
" clip-path="url(#p3d166f68bc)" style="fill: #1f77b4; opacity: 0.6"/>
   </g>
   <g id="patch_16">
    <path d="M 294.660443 828.779375 
L 306.992395 828.779375 
L 306.992395 622.110997 
L 294.660443 622.110997 
z
" clip-path="url(#p3d166f68bc)" style="fill: #1f77b4; opacity: 0.6"/>
   </g>
   <g id="patch_17">
    <path d="M 306.992395 828.779375 
L 319.324347 828.779375 
L 319.324347 590.032699 
L 306.992395 590.032699 
z
" clip-path="url(#p3d166f68bc)" style="fill: #1f77b4; opacity: 0.6"/>
   </g>
   <g id="patch_18">
    <path d="M 319.324347 828.779375 
L 331.656298 828.779375 
L 331.656298 560.057896 
L 319.324347 560.057896 
z
" clip-path="url(#p3d166f68bc)" style="fill: #1f77b4; opacity: 0.6"/>
   </g>
   <g id="patch_19">
    <path d="M 331.656298 828.779375 
L 343.98825 828.779375 
L 343.98825 500.10829 
L 331.656298 500.10829 
z
" clip-path="url(#p3d166f68bc)" style="fill: #1f77b4; opacity: 0.6"/>
   </g>
   <g id="patch_20">
    <path d="M 343.98825 828.779375 
L 356.320202 828.779375 
L 356.320202 483.28033 
L 343.98825 483.28033 
z
" clip-path="url(#p3d166f68bc)" style="fill: #1f77b4; opacity: 0.6"/>
   </g>
   <g id="patch_21">
    <path d="M 356.320202 828.779375 
L 368.652153 828.779375 
L 368.652153 455.934896 
L 356.320202 455.934896 
z
" clip-path="url(#p3d166f68bc)" style="fill: #1f77b4; opacity: 0.6"/>
   </g>
   <g id="patch_22">
    <path d="M 368.652153 828.779375 
L 380.984105 828.779375 
L 380.984105 399.666406 
L 368.652153 399.666406 
z
" clip-path="url(#p3d166f68bc)" style="fill: #1f77b4; opacity: 0.6"/>
   </g>
   <g id="patch_23">
    <path d="M 380.984105 828.779375 
L 393.316057 828.779375 
L 393.316057 369.691603 
L 380.984105 369.691603 
z
" clip-path="url(#p3d166f68bc)" style="fill: #1f77b4; opacity: 0.6"/>
   </g>
   <g id="patch_24">
    <path d="M 393.316057 828.779375 
L 405.648009 828.779375 
L 405.648009 326.044083 
L 393.316057 326.044083 
z
" clip-path="url(#p3d166f68bc)" style="fill: #1f77b4; opacity: 0.6"/>
   </g>
   <g id="patch_25">
    <path d="M 405.648009 828.779375 
L 417.97996 828.779375 
L 417.97996 296.595154 
L 405.648009 296.595154 
z
" clip-path="url(#p3d166f68bc)" style="fill: #1f77b4; opacity: 0.6"/>
   </g>
   <g id="patch_26">
    <path d="M 417.97996 828.779375 
L 430.311912 828.779375 
L 430.311912 268.197972 
L 417.97996 268.197972 
z
" clip-path="url(#p3d166f68bc)" style="fill: #1f77b4; opacity: 0.6"/>
   </g>
   <g id="patch_27">
    <path d="M 430.311912 828.779375 
L 442.643864 828.779375 
L 442.643864 239.274917 
L 430.311912 239.274917 
z
" clip-path="url(#p3d166f68bc)" style="fill: #1f77b4; opacity: 0.6"/>
   </g>
   <g id="patch_28">
    <path d="M 442.643864 828.779375 
L 454.975815 828.779375 
L 454.975815 203.515502 
L 442.643864 203.515502 
z
" clip-path="url(#p3d166f68bc)" style="fill: #1f77b4; opacity: 0.6"/>
   </g>
   <g id="patch_29">
    <path d="M 454.975815 828.779375 
L 467.307767 828.779375 
L 467.307767 180.377058 
L 454.975815 180.377058 
z
" clip-path="url(#p3d166f68bc)" style="fill: #1f77b4; opacity: 0.6"/>
   </g>
   <g id="patch_30">
    <path d="M 467.307767 828.779375 
L 479.639719 828.779375 
L 479.639719 160.91973 
L 467.307767 160.91973 
z
" clip-path="url(#p3d166f68bc)" style="fill: #1f77b4; opacity: 0.6"/>
   </g>
   <g id="patch_31">
    <path d="M 479.639719 828.779375 
L 491.97167 828.779375 
L 491.97167 133.048422 
L 479.639719 133.048422 
z
" clip-path="url(#p3d166f68bc)" style="fill: #1f77b4; opacity: 0.6"/>
   </g>
   <g id="patch_32">
    <path d="M 491.97167 828.779375 
L 504.303622 828.779375 
L 504.303622 151.979876 
L 491.97167 151.979876 
z
" clip-path="url(#p3d166f68bc)" style="fill: #1f77b4; opacity: 0.6"/>
   </g>
   <g id="patch_33">
    <path d="M 504.303622 828.779375 
L 516.635574 828.779375 
L 516.635574 107.806482 
L 504.303622 107.806482 
z
" clip-path="url(#p3d166f68bc)" style="fill: #1f77b4; opacity: 0.6"/>
   </g>
   <g id="patch_34">
    <path d="M 516.635574 828.779375 
L 528.967526 828.779375 
L 528.967526 107.280609 
L 516.635574 107.280609 
z
" clip-path="url(#p3d166f68bc)" style="fill: #1f77b4; opacity: 0.6"/>
   </g>
   <g id="patch_35">
    <path d="M 528.967526 828.779375 
L 541.299477 828.779375 
L 541.299477 134.100169 
L 528.967526 134.100169 
z
" clip-path="url(#p3d166f68bc)" style="fill: #1f77b4; opacity: 0.6"/>
   </g>
   <g id="patch_36">
    <path d="M 541.299477 828.779375 
L 553.631429 828.779375 
L 553.631429 105.177114 
L 541.299477 105.177114 
z
" clip-path="url(#p3d166f68bc)" style="fill: #1f77b4; opacity: 0.6"/>
   </g>
   <g id="patch_37">
    <path d="M 553.631429 828.779375 
L 565.963381 828.779375 
L 565.963381 91.504397 
L 553.631429 91.504397 
z
" clip-path="url(#p3d166f68bc)" style="fill: #1f77b4; opacity: 0.6"/>
   </g>
   <g id="patch_38">
    <path d="M 565.963381 828.779375 
L 578.295332 828.779375 
L 578.295332 91.504397 
L 565.963381 91.504397 
z
" clip-path="url(#p3d166f68bc)" style="fill: #1f77b4; opacity: 0.6"/>
   </g>
   <g id="patch_39">
    <path d="M 578.295332 828.779375 
L 590.627284 828.779375 
L 590.627284 121.4792 
L 578.295332 121.4792 
z
" clip-path="url(#p3d166f68bc)" style="fill: #1f77b4; opacity: 0.6"/>
   </g>
   <g id="patch_40">
    <path d="M 590.627284 828.779375 
L 602.959236 828.779375 
L 602.959236 75.728185 
L 590.627284 75.728185 
z
" clip-path="url(#p3d166f68bc)" style="fill: #1f77b4; opacity: 0.6"/>
   </g>
   <g id="patch_41">
    <path d="M 602.959236 828.779375 
L 615.291188 828.779375 
L 615.291188 135.67779 
L 602.959236 135.67779 
z
" clip-path="url(#p3d166f68bc)" style="fill: #1f77b4; opacity: 0.6"/>
   </g>
   <g id="patch_42">
    <path d="M 615.291188 828.779375 
L 627.623139 828.779375 
L 627.623139 142.514149 
L 615.291188 142.514149 
z
" clip-path="url(#p3d166f68bc)" style="fill: #1f77b4; opacity: 0.6"/>
   </g>
   <g id="patch_43">
    <path d="M 627.623139 828.779375 
L 639.955091 828.779375 
L 639.955091 178.799437 
L 627.623139 178.799437 
z
" clip-path="url(#p3d166f68bc)" style="fill: #1f77b4; opacity: 0.6"/>
   </g>
   <g id="patch_44">
    <path d="M 639.955091 828.779375 
L 652.287043 828.779375 
L 652.287043 198.256765 
L 639.955091 198.256765 
z
" clip-path="url(#p3d166f68bc)" style="fill: #1f77b4; opacity: 0.6"/>
   </g>
   <g id="patch_45">
    <path d="M 652.287043 828.779375 
L 664.618994 828.779375 
L 664.618994 214.558851 
L 652.287043 214.558851 
z
" clip-path="url(#p3d166f68bc)" style="fill: #1f77b4; opacity: 0.6"/>
   </g>
   <g id="patch_46">
    <path d="M 664.618994 828.779375 
L 676.950946 828.779375 
L 676.950946 217.714093 
L 664.618994 217.714093 
z
" clip-path="url(#p3d166f68bc)" style="fill: #1f77b4; opacity: 0.6"/>
   </g>
   <g id="patch_47">
    <path d="M 676.950946 828.779375 
L 689.282898 828.779375 
L 689.282898 252.42176 
L 676.950946 252.42176 
z
" clip-path="url(#p3d166f68bc)" style="fill: #1f77b4; opacity: 0.6"/>
   </g>
   <g id="patch_48">
    <path d="M 689.282898 828.779375 
L 701.614849 828.779375 
L 701.614849 277.137826 
L 689.282898 277.137826 
z
" clip-path="url(#p3d166f68bc)" style="fill: #1f77b4; opacity: 0.6"/>
   </g>
   <g id="patch_49">
    <path d="M 701.614849 828.779375 
L 713.946801 828.779375 
L 713.946801 290.284669 
L 701.614849 290.284669 
z
" clip-path="url(#p3d166f68bc)" style="fill: #1f77b4; opacity: 0.6"/>
   </g>
   <g id="patch_50">
    <path d="M 713.946801 828.779375 
L 726.278753 828.779375 
L 726.278753 308.69025 
L 713.946801 308.69025 
z
" clip-path="url(#p3d166f68bc)" style="fill: #1f77b4; opacity: 0.6"/>
   </g>
   <g id="patch_51">
    <path d="M 726.278753 828.779375 
L 738.610705 828.779375 
L 738.610705 337.613305 
L 726.278753 337.613305 
z
" clip-path="url(#p3d166f68bc)" style="fill: #1f77b4; opacity: 0.6"/>
   </g>
   <g id="patch_52">
    <path d="M 738.610705 828.779375 
L 750.942656 828.779375 
L 750.942656 404.39927 
L 738.610705 404.39927 
z
" clip-path="url(#p3d166f68bc)" style="fill: #1f77b4; opacity: 0.6"/>
   </g>
   <g id="patch_53">
    <path d="M 750.942656 828.779375 
L 763.274608 828.779375 
L 763.274608 405.976891 
L 750.942656 405.976891 
z
" clip-path="url(#p3d166f68bc)" style="fill: #1f77b4; opacity: 0.6"/>
   </g>
   <g id="patch_54">
    <path d="M 763.274608 828.779375 
L 775.60656 828.779375 
L 775.60656 464.348876 
L 763.274608 464.348876 
z
" clip-path="url(#p3d166f68bc)" style="fill: #1f77b4; opacity: 0.6"/>
   </g>
   <g id="patch_55">
    <path d="M 775.60656 828.779375 
L 787.938511 828.779375 
L 787.938511 474.86635 
L 775.60656 474.86635 
z
" clip-path="url(#p3d166f68bc)" style="fill: #1f77b4; opacity: 0.6"/>
   </g>
   <g id="patch_56">
    <path d="M 787.938511 828.779375 
L 800.270463 828.779375 
L 800.270463 501.685911 
L 787.938511 501.685911 
z
" clip-path="url(#p3d166f68bc)" style="fill: #1f77b4; opacity: 0.6"/>
   </g>
   <g id="patch_57">
    <path d="M 800.270463 828.779375 
L 812.602415 828.779375 
L 812.602415 530.608966 
L 800.270463 530.608966 
z
" clip-path="url(#p3d166f68bc)" style="fill: #1f77b4; opacity: 0.6"/>
   </g>
   <g id="patch_58">
    <path d="M 812.602415 828.779375 
L 824.934366 828.779375 
L 824.934366 556.37678 
L 812.602415 556.37678 
z
" clip-path="url(#p3d166f68bc)" style="fill: #1f77b4; opacity: 0.6"/>
   </g>
   <g id="patch_59">
    <path d="M 824.934366 828.779375 
L 837.266318 828.779375 
L 837.266318 576.359982 
L 824.934366 576.359982 
z
" clip-path="url(#p3d166f68bc)" style="fill: #1f77b4; opacity: 0.6"/>
   </g>
   <g id="patch_60">
    <path d="M 837.266318 828.779375 
L 849.59827 828.779375 
L 849.59827 596.343184 
L 837.266318 596.343184 
z
" clip-path="url(#p3d166f68bc)" style="fill: #1f77b4; opacity: 0.6"/>
   </g>
   <g id="patch_61">
    <path d="M 849.59827 828.779375 
L 861.930222 828.779375 
L 861.930222 606.860658 
L 849.59827 606.860658 
z
" clip-path="url(#p3d166f68bc)" style="fill: #1f77b4; opacity: 0.6"/>
   </g>
   <g id="patch_62">
    <path d="M 861.930222 828.779375 
L 874.262173 828.779375 
L 874.262173 628.421481 
L 861.930222 628.421481 
z
" clip-path="url(#p3d166f68bc)" style="fill: #1f77b4; opacity: 0.6"/>
   </g>
   <g id="patch_63">
    <path d="M 874.262173 828.779375 
L 886.594125 828.779375 
L 886.594125 631.576724 
L 874.262173 631.576724 
z
" clip-path="url(#p3d166f68bc)" style="fill: #1f77b4; opacity: 0.6"/>
   </g>
   <g id="patch_64">
    <path d="M 886.594125 828.779375 
L 898.926077 828.779375 
L 898.926077 656.292789 
L 886.594125 656.292789 
z
" clip-path="url(#p3d166f68bc)" style="fill: #1f77b4; opacity: 0.6"/>
   </g>
   <g id="patch_65">
    <path d="M 898.926077 828.779375 
L 911.258028 828.779375 
L 911.258028 659.448032 
L 898.926077 659.448032 
z
" clip-path="url(#p3d166f68bc)" style="fill: #1f77b4; opacity: 0.6"/>
   </g>
   <g id="patch_66">
    <path d="M 911.258028 828.779375 
L 923.58998 828.779375 
L 923.58998 698.362688 
L 911.258028 698.362688 
z
" clip-path="url(#p3d166f68bc)" style="fill: #1f77b4; opacity: 0.6"/>
   </g>
   <g id="patch_67">
    <path d="M 923.58998 828.779375 
L 935.921932 828.779375 
L 935.921932 705.199047 
L 923.58998 705.199047 
z
" clip-path="url(#p3d166f68bc)" style="fill: #1f77b4; opacity: 0.6"/>
   </g>
   <g id="patch_68">
    <path d="M 935.921932 828.779375 
L 948.253884 828.779375 
L 948.253884 707.828416 
L 935.921932 707.828416 
z
" clip-path="url(#p3d166f68bc)" style="fill: #1f77b4; opacity: 0.6"/>
   </g>
   <g id="patch_69">
    <path d="M 948.253884 828.779375 
L 960.585835 828.779375 
L 960.585835 739.38084 
L 948.253884 739.38084 
z
" clip-path="url(#p3d166f68bc)" style="fill: #1f77b4; opacity: 0.6"/>
   </g>
   <g id="patch_70">
    <path d="M 960.585835 828.779375 
L 972.917787 828.779375 
L 972.917787 737.277345 
L 960.585835 737.277345 
z
" clip-path="url(#p3d166f68bc)" style="fill: #1f77b4; opacity: 0.6"/>
   </g>
   <g id="patch_71">
    <path d="M 972.917787 828.779375 
L 985.249739 828.779375 
L 985.249739 746.743072 
L 972.917787 746.743072 
z
" clip-path="url(#p3d166f68bc)" style="fill: #1f77b4; opacity: 0.6"/>
   </g>
   <g id="patch_72">
    <path d="M 985.249739 828.779375 
L 997.58169 828.779375 
L 997.58169 763.045158 
L 985.249739 763.045158 
z
" clip-path="url(#p3d166f68bc)" style="fill: #1f77b4; opacity: 0.6"/>
   </g>
   <g id="patch_73">
    <path d="M 997.58169 828.779375 
L 1009.913642 828.779375 
L 1009.913642 783.554234 
L 997.58169 783.554234 
z
" clip-path="url(#p3d166f68bc)" style="fill: #1f77b4; opacity: 0.6"/>
   </g>
   <g id="patch_74">
    <path d="M 1009.913642 828.779375 
L 1022.245594 828.779375 
L 1022.245594 783.554234 
L 1009.913642 783.554234 
z
" clip-path="url(#p3d166f68bc)" style="fill: #1f77b4; opacity: 0.6"/>
   </g>
   <g id="patch_75">
    <path d="M 1022.245594 828.779375 
L 1034.577545 828.779375 
L 1034.577545 782.502486 
L 1022.245594 782.502486 
z
" clip-path="url(#p3d166f68bc)" style="fill: #1f77b4; opacity: 0.6"/>
   </g>
   <g id="patch_76">
    <path d="M 1034.577545 828.779375 
L 1046.909497 828.779375 
L 1046.909497 784.080107 
L 1034.577545 784.080107 
z
" clip-path="url(#p3d166f68bc)" style="fill: #1f77b4; opacity: 0.6"/>
   </g>
   <g id="patch_77">
    <path d="M 1046.909497 828.779375 
L 1059.241449 828.779375 
L 1059.241449 790.390592 
L 1046.909497 790.390592 
z
" clip-path="url(#p3d166f68bc)" style="fill: #1f77b4; opacity: 0.6"/>
   </g>
   <g id="patch_78">
    <path d="M 1059.241449 828.779375 
L 1071.573401 828.779375 
L 1071.573401 791.44234 
L 1059.241449 791.44234 
z
" clip-path="url(#p3d166f68bc)" style="fill: #1f77b4; opacity: 0.6"/>
   </g>
   <g id="patch_79">
    <path d="M 1071.573401 828.779375 
L 1083.905352 828.779375 
L 1083.905352 807.744426 
L 1071.573401 807.744426 
z
" clip-path="url(#p3d166f68bc)" style="fill: #1f77b4; opacity: 0.6"/>
   </g>
   <g id="patch_80">
    <path d="M 1083.905352 828.779375 
L 1096.237304 828.779375 
L 1096.237304 809.322047 
L 1083.905352 809.322047 
z
" clip-path="url(#p3d166f68bc)" style="fill: #1f77b4; opacity: 0.6"/>
   </g>
   <g id="patch_81">
    <path d="M 1096.237304 828.779375 
L 1108.569256 828.779375 
L 1108.569256 813.529037 
L 1096.237304 813.529037 
z
" clip-path="url(#p3d166f68bc)" style="fill: #1f77b4; opacity: 0.6"/>
   </g>
   <g id="patch_82">
    <path d="M 1108.569256 828.779375 
L 1120.901207 828.779375 
L 1120.901207 808.796173 
L 1108.569256 808.796173 
z
" clip-path="url(#p3d166f68bc)" style="fill: #1f77b4; opacity: 0.6"/>
   </g>
   <g id="patch_83">
    <path d="M 1120.901207 828.779375 
L 1133.233159 828.779375 
L 1133.233159 814.05491 
L 1120.901207 814.05491 
z
" clip-path="url(#p3d166f68bc)" style="fill: #1f77b4; opacity: 0.6"/>
   </g>
   <g id="patch_84">
    <path d="M 1133.233159 828.779375 
L 1145.565111 828.779375 
L 1145.565111 818.787774 
L 1133.233159 818.787774 
z
" clip-path="url(#p3d166f68bc)" style="fill: #1f77b4; opacity: 0.6"/>
   </g>
   <g id="patch_85">
    <path d="M 1145.565111 828.779375 
L 1157.897062 828.779375 
L 1157.897062 818.787774 
L 1145.565111 818.787774 
z
" clip-path="url(#p3d166f68bc)" style="fill: #1f77b4; opacity: 0.6"/>
   </g>
   <g id="patch_86">
    <path d="M 1157.897063 828.779375 
L 1170.229014 828.779375 
L 1170.229014 815.632532 
L 1157.897063 815.632532 
z
" clip-path="url(#p3d166f68bc)" style="fill: #1f77b4; opacity: 0.6"/>
   </g>
   <g id="patch_87">
    <path d="M 1170.229014 828.779375 
L 1182.560966 828.779375 
L 1182.560966 818.787774 
L 1170.229014 818.787774 
z
" clip-path="url(#p3d166f68bc)" style="fill: #1f77b4; opacity: 0.6"/>
   </g>
   <g id="patch_88">
    <path d="M 1182.560966 828.779375 
L 1194.892918 828.779375 
L 1194.892918 821.417143 
L 1182.560966 821.417143 
z
" clip-path="url(#p3d166f68bc)" style="fill: #1f77b4; opacity: 0.6"/>
   </g>
   <g id="patch_89">
    <path d="M 1194.892918 828.779375 
L 1207.224869 828.779375 
L 1207.224869 820.891269 
L 1194.892918 820.891269 
z
" clip-path="url(#p3d166f68bc)" style="fill: #1f77b4; opacity: 0.6"/>
   </g>
   <g id="patch_90">
    <path d="M 1207.224869 828.779375 
L 1219.556821 828.779375 
L 1219.556821 825.624133 
L 1207.224869 825.624133 
z
" clip-path="url(#p3d166f68bc)" style="fill: #1f77b4; opacity: 0.6"/>
   </g>
   <g id="patch_91">
    <path d="M 1219.556821 828.779375 
L 1231.888773 828.779375 
L 1231.888773 822.994764 
L 1219.556821 822.994764 
z
" clip-path="url(#p3d166f68bc)" style="fill: #1f77b4; opacity: 0.6"/>
   </g>
   <g id="patch_92">
    <path d="M 1231.888773 828.779375 
L 1244.220724 828.779375 
L 1244.220724 826.67588 
L 1231.888773 826.67588 
z
" clip-path="url(#p3d166f68bc)" style="fill: #1f77b4; opacity: 0.6"/>
   </g>
   <g id="patch_93">
    <path d="M 1244.220724 828.779375 
L 1256.552676 828.779375 
L 1256.552676 828.253501 
L 1244.220724 828.253501 
z
" clip-path="url(#p3d166f68bc)" style="fill: #1f77b4; opacity: 0.6"/>
   </g>
   <g id="patch_94">
    <path d="M 1256.552676 828.779375 
L 1268.884628 828.779375 
L 1268.884628 826.150006 
L 1256.552676 826.150006 
z
" clip-path="url(#p3d166f68bc)" style="fill: #1f77b4; opacity: 0.6"/>
   </g>
   <g id="patch_95">
    <path d="M 1268.884628 828.779375 
L 1281.21658 828.779375 
L 1281.21658 827.727628 
L 1268.884628 827.727628 
z
" clip-path="url(#p3d166f68bc)" style="fill: #1f77b4; opacity: 0.6"/>
   </g>
   <g id="patch_96">
    <path d="M 1281.21658 828.779375 
L 1293.548531 828.779375 
L 1293.548531 827.201754 
L 1281.21658 827.201754 
z
" clip-path="url(#p3d166f68bc)" style="fill: #1f77b4; opacity: 0.6"/>
   </g>
   <g id="patch_97">
    <path d="M 1293.548531 828.779375 
L 1305.880483 828.779375 
L 1305.880483 826.67588 
L 1293.548531 826.67588 
z
" clip-path="url(#p3d166f68bc)" style="fill: #1f77b4; opacity: 0.6"/>
   </g>
   <g id="patch_98">
    <path d="M 1305.880483 828.779375 
L 1318.212435 828.779375 
L 1318.212435 828.253501 
L 1305.880483 828.253501 
z
" clip-path="url(#p3d166f68bc)" style="fill: #1f77b4; opacity: 0.6"/>
   </g>
   <g id="patch_99">
    <path d="M 1318.212435 828.779375 
L 1330.544386 828.779375 
L 1330.544386 827.727628 
L 1318.212435 827.727628 
z
" clip-path="url(#p3d166f68bc)" style="fill: #1f77b4; opacity: 0.6"/>
   </g>
   <g id="patch_100">
    <path d="M 1330.544386 828.779375 
L 1342.876338 828.779375 
L 1342.876338 828.253501 
L 1330.544386 828.253501 
z
" clip-path="url(#p3d166f68bc)" style="fill: #1f77b4; opacity: 0.6"/>
   </g>
   <g id="patch_101">
    <path d="M 1342.876338 828.779375 
L 1355.20829 828.779375 
L 1355.20829 828.253501 
L 1342.876338 828.253501 
z
" clip-path="url(#p3d166f68bc)" style="fill: #1f77b4; opacity: 0.6"/>
   </g>
   <g id="patch_102">
    <path d="M 1355.20829 828.779375 
L 1367.540241 828.779375 
L 1367.540241 827.727628 
L 1355.20829 827.727628 
z
" clip-path="url(#p3d166f68bc)" style="fill: #1f77b4; opacity: 0.6"/>
   </g>
   <g id="matplotlib.axis_1">
    <g id="xtick_1">
     <g id="line2d_1">
      <defs>
       <path id="mbde815c461" d="M 0 0 
L 0 3.5 
" style="stroke: #000000; stroke-width: 0.8"/>
      </defs>
      <g>
       <use xlink:href="#mbde815c461" x="108.584323" y="828.779375" style="stroke: #000000; stroke-width: 0.8"/>
      </g>
     </g>
     <g id="text_1">
      <!-- 0 -->
      <g transform="translate(102.858073 849.456562) scale(0.18 -0.18)">
       <defs>
        <path id="DejaVuSans-30" d="M 2034 4250 
Q 1547 4250 1301 3770 
Q 1056 3291 1056 2328 
Q 1056 1369 1301 889 
Q 1547 409 2034 409 
Q 2525 409 2770 889 
Q 3016 1369 3016 2328 
Q 3016 3291 2770 3770 
Q 2525 4250 2034 4250 
z
M 2034 4750 
Q 2819 4750 3233 4129 
Q 3647 3509 3647 2328 
Q 3647 1150 3233 529 
Q 2819 -91 2034 -91 
Q 1250 -91 836 529 
Q 422 1150 422 2328 
Q 422 3509 836 4129 
Q 1250 4750 2034 4750 
z
" transform="scale(0.015625)"/>
       </defs>
       <use xlink:href="#DejaVuSans-30"/>
      </g>
     </g>
    </g>
    <g id="xtick_2">
     <g id="line2d_2">
      <g>
       <use xlink:href="#mbde815c461" x="363.921841" y="828.779375" style="stroke: #000000; stroke-width: 0.8"/>
      </g>
     </g>
     <g id="text_2">
      <!-- 1 -->
      <g transform="translate(358.195591 849.456562) scale(0.18 -0.18)">
       <defs>
        <path id="DejaVuSans-31" d="M 794 531 
L 1825 531 
L 1825 4091 
L 703 3866 
L 703 4441 
L 1819 4666 
L 2450 4666 
L 2450 531 
L 3481 531 
L 3481 0 
L 794 0 
L 794 531 
z
" transform="scale(0.015625)"/>
       </defs>
       <use xlink:href="#DejaVuSans-31"/>
      </g>
     </g>
    </g>
    <g id="xtick_3">
     <g id="line2d_3">
      <g>
       <use xlink:href="#mbde815c461" x="619.259359" y="828.779375" style="stroke: #000000; stroke-width: 0.8"/>
      </g>
     </g>
     <g id="text_3">
      <!-- 2 -->
      <g transform="translate(613.533109 849.456562) scale(0.18 -0.18)">
       <defs>
        <path id="DejaVuSans-32" d="M 1228 531 
L 3431 531 
L 3431 0 
L 469 0 
L 469 531 
Q 828 903 1448 1529 
Q 2069 2156 2228 2338 
Q 2531 2678 2651 2914 
Q 2772 3150 2772 3378 
Q 2772 3750 2511 3984 
Q 2250 4219 1831 4219 
Q 1534 4219 1204 4116 
Q 875 4013 500 3803 
L 500 4441 
Q 881 4594 1212 4672 
Q 1544 4750 1819 4750 
Q 2544 4750 2975 4387 
Q 3406 4025 3406 3419 
Q 3406 3131 3298 2873 
Q 3191 2616 2906 2266 
Q 2828 2175 2409 1742 
Q 1991 1309 1228 531 
z
" transform="scale(0.015625)"/>
       </defs>
       <use xlink:href="#DejaVuSans-32"/>
      </g>
     </g>
    </g>
    <g id="xtick_4">
     <g id="line2d_4">
      <g>
       <use xlink:href="#mbde815c461" x="874.596877" y="828.779375" style="stroke: #000000; stroke-width: 0.8"/>
      </g>
     </g>
     <g id="text_4">
      <!-- 3 -->
      <g transform="translate(868.870627 849.456562) scale(0.18 -0.18)">
       <defs>
        <path id="DejaVuSans-33" d="M 2597 2516 
Q 3050 2419 3304 2112 
Q 3559 1806 3559 1356 
Q 3559 666 3084 287 
Q 2609 -91 1734 -91 
Q 1441 -91 1130 -33 
Q 819 25 488 141 
L 488 750 
Q 750 597 1062 519 
Q 1375 441 1716 441 
Q 2309 441 2620 675 
Q 2931 909 2931 1356 
Q 2931 1769 2642 2001 
Q 2353 2234 1838 2234 
L 1294 2234 
L 1294 2753 
L 1863 2753 
Q 2328 2753 2575 2939 
Q 2822 3125 2822 3475 
Q 2822 3834 2567 4026 
Q 2313 4219 1838 4219 
Q 1578 4219 1281 4162 
Q 984 4106 628 3988 
L 628 4550 
Q 988 4650 1302 4700 
Q 1616 4750 1894 4750 
Q 2613 4750 3031 4423 
Q 3450 4097 3450 3541 
Q 3450 3153 3228 2886 
Q 3006 2619 2597 2516 
z
" transform="scale(0.015625)"/>
       </defs>
       <use xlink:href="#DejaVuSans-33"/>
      </g>
     </g>
    </g>
    <g id="xtick_5">
     <g id="line2d_5">
      <g>
       <use xlink:href="#mbde815c461" x="1129.934395" y="828.779375" style="stroke: #000000; stroke-width: 0.8"/>
      </g>
     </g>
     <g id="text_5">
      <!-- 4 -->
      <g transform="translate(1124.208145 849.456562) scale(0.18 -0.18)">
       <defs>
        <path id="DejaVuSans-34" d="M 2419 4116 
L 825 1625 
L 2419 1625 
L 2419 4116 
z
M 2253 4666 
L 3047 4666 
L 3047 1625 
L 3713 1625 
L 3713 1100 
L 3047 1100 
L 3047 0 
L 2419 0 
L 2419 1100 
L 313 1100 
L 313 1709 
L 2253 4666 
z
" transform="scale(0.015625)"/>
       </defs>
       <use xlink:href="#DejaVuSans-34"/>
      </g>
     </g>
    </g>
    <g id="xtick_6">
     <g id="line2d_6">
      <g>
       <use xlink:href="#mbde815c461" x="1385.271914" y="828.779375" style="stroke: #000000; stroke-width: 0.8"/>
      </g>
     </g>
     <g id="text_6">
      <!-- 5 -->
      <g transform="translate(1379.545664 849.456562) scale(0.18 -0.18)">
       <defs>
        <path id="DejaVuSans-35" d="M 691 4666 
L 3169 4666 
L 3169 4134 
L 1269 4134 
L 1269 2991 
Q 1406 3038 1543 3061 
Q 1681 3084 1819 3084 
Q 2600 3084 3056 2656 
Q 3513 2228 3513 1497 
Q 3513 744 3044 326 
Q 2575 -91 1722 -91 
Q 1428 -91 1123 -41 
Q 819 9 494 109 
L 494 744 
Q 775 591 1075 516 
Q 1375 441 1709 441 
Q 2250 441 2565 725 
Q 2881 1009 2881 1497 
Q 2881 1984 2565 2268 
Q 2250 2553 1709 2553 
Q 1456 2553 1204 2497 
Q 953 2441 691 2322 
L 691 4666 
z
" transform="scale(0.015625)"/>
       </defs>
       <use xlink:href="#DejaVuSans-35"/>
      </g>
     </g>
    </g>
   </g>
   <g id="matplotlib.axis_2">
    <g id="ytick_1">
     <g id="line2d_7">
      <defs>
       <path id="md2f2eacaed" d="M 0 0 
L -3.5 0 
" style="stroke: #000000; stroke-width: 0.8"/>
      </defs>
      <g>
       <use xlink:href="#md2f2eacaed" x="72.685313" y="828.779375" style="stroke: #000000; stroke-width: 0.8"/>
      </g>
     </g>
     <g id="text_7">
      <!-- 0.0 -->
      <g transform="translate(37.059688 835.617969) scale(0.18 -0.18)">
       <defs>
        <path id="DejaVuSans-2e" d="M 684 794 
L 1344 794 
L 1344 0 
L 684 0 
L 684 794 
z
" transform="scale(0.015625)"/>
       </defs>
       <use xlink:href="#DejaVuSans-30"/>
       <use xlink:href="#DejaVuSans-2e" x="63.623047"/>
       <use xlink:href="#DejaVuSans-30" x="95.410156"/>
      </g>
     </g>
    </g>
    <g id="ytick_2">
     <g id="line2d_8">
      <g>
       <use xlink:href="#md2f2eacaed" x="72.685313" y="701.789625" style="stroke: #000000; stroke-width: 0.8"/>
      </g>
     </g>
     <g id="text_8">
      <!-- 0.1 -->
      <g transform="translate(37.059688 708.628219) scale(0.18 -0.18)">
       <use xlink:href="#DejaVuSans-30"/>
       <use xlink:href="#DejaVuSans-2e" x="63.623047"/>
       <use xlink:href="#DejaVuSans-31" x="95.410156"/>
      </g>
     </g>
    </g>
    <g id="ytick_3">
     <g id="line2d_9">
      <g>
       <use xlink:href="#md2f2eacaed" x="72.685313" y="574.799875" style="stroke: #000000; stroke-width: 0.8"/>
      </g>
     </g>
     <g id="text_9">
      <!-- 0.2 -->
      <g transform="translate(37.059688 581.638469) scale(0.18 -0.18)">
       <use xlink:href="#DejaVuSans-30"/>
       <use xlink:href="#DejaVuSans-2e" x="63.623047"/>
       <use xlink:href="#DejaVuSans-32" x="95.410156"/>
      </g>
     </g>
    </g>
    <g id="ytick_4">
     <g id="line2d_10">
      <g>
       <use xlink:href="#md2f2eacaed" x="72.685313" y="447.810125" style="stroke: #000000; stroke-width: 0.8"/>
      </g>
     </g>
     <g id="text_10">
      <!-- 0.3 -->
      <g transform="translate(37.059688 454.648719) scale(0.18 -0.18)">
       <use xlink:href="#DejaVuSans-30"/>
       <use xlink:href="#DejaVuSans-2e" x="63.623047"/>
       <use xlink:href="#DejaVuSans-33" x="95.410156"/>
      </g>
     </g>
    </g>
    <g id="ytick_5">
     <g id="line2d_11">
      <g>
       <use xlink:href="#md2f2eacaed" x="72.685313" y="320.820375" style="stroke: #000000; stroke-width: 0.8"/>
      </g>
     </g>
     <g id="text_11">
      <!-- 0.4 -->
      <g transform="translate(37.059688 327.658969) scale(0.18 -0.18)">
       <use xlink:href="#DejaVuSans-30"/>
       <use xlink:href="#DejaVuSans-2e" x="63.623047"/>
       <use xlink:href="#DejaVuSans-34" x="95.410156"/>
      </g>
     </g>
    </g>
    <g id="ytick_6">
     <g id="line2d_12">
      <g>
       <use xlink:href="#md2f2eacaed" x="72.685313" y="193.830625" style="stroke: #000000; stroke-width: 0.8"/>
      </g>
     </g>
     <g id="text_12">
      <!-- 0.5 -->
      <g transform="translate(37.059688 200.669218) scale(0.18 -0.18)">
       <use xlink:href="#DejaVuSans-30"/>
       <use xlink:href="#DejaVuSans-2e" x="63.623047"/>
       <use xlink:href="#DejaVuSans-35" x="95.410156"/>
      </g>
     </g>
    </g>
    <g id="ytick_7">
     <g id="line2d_13">
      <g>
       <use xlink:href="#md2f2eacaed" x="72.685313" y="66.840875" style="stroke: #000000; stroke-width: 0.8"/>
      </g>
     </g>
     <g id="text_13">
      <!-- 0.6 -->
      <g transform="translate(37.059688 73.679468) scale(0.18 -0.18)">
       <defs>
        <path id="DejaVuSans-36" d="M 2113 2584 
Q 1688 2584 1439 2293 
Q 1191 2003 1191 1497 
Q 1191 994 1439 701 
Q 1688 409 2113 409 
Q 2538 409 2786 701 
Q 3034 994 3034 1497 
Q 3034 2003 2786 2293 
Q 2538 2584 2113 2584 
z
M 3366 4563 
L 3366 3988 
Q 3128 4100 2886 4159 
Q 2644 4219 2406 4219 
Q 1781 4219 1451 3797 
Q 1122 3375 1075 2522 
Q 1259 2794 1537 2939 
Q 1816 3084 2150 3084 
Q 2853 3084 3261 2657 
Q 3669 2231 3669 1497 
Q 3669 778 3244 343 
Q 2819 -91 2113 -91 
Q 1303 -91 875 529 
Q 447 1150 447 2328 
Q 447 3434 972 4092 
Q 1497 4750 2381 4750 
Q 2619 4750 2861 4703 
Q 3103 4656 3366 4563 
z
" transform="scale(0.015625)"/>
       </defs>
       <use xlink:href="#DejaVuSans-30"/>
       <use xlink:href="#DejaVuSans-2e" x="63.623047"/>
       <use xlink:href="#DejaVuSans-36" x="95.410156"/>
      </g>
     </g>
    </g>
    <g id="text_14">
     <!-- Normed Hist Counts -->
     <g transform="translate(28.276406 548.966563) rotate(-90) scale(0.23 -0.23)">
      <defs>
       <path id="DejaVuSans-4e" d="M 628 4666 
L 1478 4666 
L 3547 763 
L 3547 4666 
L 4159 4666 
L 4159 0 
L 3309 0 
L 1241 3903 
L 1241 0 
L 628 0 
L 628 4666 
z
" transform="scale(0.015625)"/>
       <path id="DejaVuSans-6f" d="M 1959 3097 
Q 1497 3097 1228 2736 
Q 959 2375 959 1747 
Q 959 1119 1226 758 
Q 1494 397 1959 397 
Q 2419 397 2687 759 
Q 2956 1122 2956 1747 
Q 2956 2369 2687 2733 
Q 2419 3097 1959 3097 
z
M 1959 3584 
Q 2709 3584 3137 3096 
Q 3566 2609 3566 1747 
Q 3566 888 3137 398 
Q 2709 -91 1959 -91 
Q 1206 -91 779 398 
Q 353 888 353 1747 
Q 353 2609 779 3096 
Q 1206 3584 1959 3584 
z
" transform="scale(0.015625)"/>
       <path id="DejaVuSans-72" d="M 2631 2963 
Q 2534 3019 2420 3045 
Q 2306 3072 2169 3072 
Q 1681 3072 1420 2755 
Q 1159 2438 1159 1844 
L 1159 0 
L 581 0 
L 581 3500 
L 1159 3500 
L 1159 2956 
Q 1341 3275 1631 3429 
Q 1922 3584 2338 3584 
Q 2397 3584 2469 3576 
Q 2541 3569 2628 3553 
L 2631 2963 
z
" transform="scale(0.015625)"/>
       <path id="DejaVuSans-6d" d="M 3328 2828 
Q 3544 3216 3844 3400 
Q 4144 3584 4550 3584 
Q 5097 3584 5394 3201 
Q 5691 2819 5691 2113 
L 5691 0 
L 5113 0 
L 5113 2094 
Q 5113 2597 4934 2840 
Q 4756 3084 4391 3084 
Q 3944 3084 3684 2787 
Q 3425 2491 3425 1978 
L 3425 0 
L 2847 0 
L 2847 2094 
Q 2847 2600 2669 2842 
Q 2491 3084 2119 3084 
Q 1678 3084 1418 2786 
Q 1159 2488 1159 1978 
L 1159 0 
L 581 0 
L 581 3500 
L 1159 3500 
L 1159 2956 
Q 1356 3278 1631 3431 
Q 1906 3584 2284 3584 
Q 2666 3584 2933 3390 
Q 3200 3197 3328 2828 
z
" transform="scale(0.015625)"/>
       <path id="DejaVuSans-65" d="M 3597 1894 
L 3597 1613 
L 953 1613 
Q 991 1019 1311 708 
Q 1631 397 2203 397 
Q 2534 397 2845 478 
Q 3156 559 3463 722 
L 3463 178 
Q 3153 47 2828 -22 
Q 2503 -91 2169 -91 
Q 1331 -91 842 396 
Q 353 884 353 1716 
Q 353 2575 817 3079 
Q 1281 3584 2069 3584 
Q 2775 3584 3186 3129 
Q 3597 2675 3597 1894 
z
M 3022 2063 
Q 3016 2534 2758 2815 
Q 2500 3097 2075 3097 
Q 1594 3097 1305 2825 
Q 1016 2553 972 2059 
L 3022 2063 
z
" transform="scale(0.015625)"/>
       <path id="DejaVuSans-64" d="M 2906 2969 
L 2906 4863 
L 3481 4863 
L 3481 0 
L 2906 0 
L 2906 525 
Q 2725 213 2448 61 
Q 2172 -91 1784 -91 
Q 1150 -91 751 415 
Q 353 922 353 1747 
Q 353 2572 751 3078 
Q 1150 3584 1784 3584 
Q 2172 3584 2448 3432 
Q 2725 3281 2906 2969 
z
M 947 1747 
Q 947 1113 1208 752 
Q 1469 391 1925 391 
Q 2381 391 2643 752 
Q 2906 1113 2906 1747 
Q 2906 2381 2643 2742 
Q 2381 3103 1925 3103 
Q 1469 3103 1208 2742 
Q 947 2381 947 1747 
z
" transform="scale(0.015625)"/>
       <path id="DejaVuSans-20" transform="scale(0.015625)"/>
       <path id="DejaVuSans-48" d="M 628 4666 
L 1259 4666 
L 1259 2753 
L 3553 2753 
L 3553 4666 
L 4184 4666 
L 4184 0 
L 3553 0 
L 3553 2222 
L 1259 2222 
L 1259 0 
L 628 0 
L 628 4666 
z
" transform="scale(0.015625)"/>
       <path id="DejaVuSans-69" d="M 603 3500 
L 1178 3500 
L 1178 0 
L 603 0 
L 603 3500 
z
M 603 4863 
L 1178 4863 
L 1178 4134 
L 603 4134 
L 603 4863 
z
" transform="scale(0.015625)"/>
       <path id="DejaVuSans-73" d="M 2834 3397 
L 2834 2853 
Q 2591 2978 2328 3040 
Q 2066 3103 1784 3103 
Q 1356 3103 1142 2972 
Q 928 2841 928 2578 
Q 928 2378 1081 2264 
Q 1234 2150 1697 2047 
L 1894 2003 
Q 2506 1872 2764 1633 
Q 3022 1394 3022 966 
Q 3022 478 2636 193 
Q 2250 -91 1575 -91 
Q 1294 -91 989 -36 
Q 684 19 347 128 
L 347 722 
Q 666 556 975 473 
Q 1284 391 1588 391 
Q 1994 391 2212 530 
Q 2431 669 2431 922 
Q 2431 1156 2273 1281 
Q 2116 1406 1581 1522 
L 1381 1569 
Q 847 1681 609 1914 
Q 372 2147 372 2553 
Q 372 3047 722 3315 
Q 1072 3584 1716 3584 
Q 2034 3584 2315 3537 
Q 2597 3491 2834 3397 
z
" transform="scale(0.015625)"/>
       <path id="DejaVuSans-74" d="M 1172 4494 
L 1172 3500 
L 2356 3500 
L 2356 3053 
L 1172 3053 
L 1172 1153 
Q 1172 725 1289 603 
Q 1406 481 1766 481 
L 2356 481 
L 2356 0 
L 1766 0 
Q 1100 0 847 248 
Q 594 497 594 1153 
L 594 3053 
L 172 3053 
L 172 3500 
L 594 3500 
L 594 4494 
L 1172 4494 
z
" transform="scale(0.015625)"/>
       <path id="DejaVuSans-43" d="M 4122 4306 
L 4122 3641 
Q 3803 3938 3442 4084 
Q 3081 4231 2675 4231 
Q 1875 4231 1450 3742 
Q 1025 3253 1025 2328 
Q 1025 1406 1450 917 
Q 1875 428 2675 428 
Q 3081 428 3442 575 
Q 3803 722 4122 1019 
L 4122 359 
Q 3791 134 3420 21 
Q 3050 -91 2638 -91 
Q 1578 -91 968 557 
Q 359 1206 359 2328 
Q 359 3453 968 4101 
Q 1578 4750 2638 4750 
Q 3056 4750 3426 4639 
Q 3797 4528 4122 4306 
z
" transform="scale(0.015625)"/>
       <path id="DejaVuSans-75" d="M 544 1381 
L 544 3500 
L 1119 3500 
L 1119 1403 
Q 1119 906 1312 657 
Q 1506 409 1894 409 
Q 2359 409 2629 706 
Q 2900 1003 2900 1516 
L 2900 3500 
L 3475 3500 
L 3475 0 
L 2900 0 
L 2900 538 
Q 2691 219 2414 64 
Q 2138 -91 1772 -91 
Q 1169 -91 856 284 
Q 544 659 544 1381 
z
M 1991 3584 
L 1991 3584 
z
" transform="scale(0.015625)"/>
       <path id="DejaVuSans-6e" d="M 3513 2113 
L 3513 0 
L 2938 0 
L 2938 2094 
Q 2938 2591 2744 2837 
Q 2550 3084 2163 3084 
Q 1697 3084 1428 2787 
Q 1159 2491 1159 1978 
L 1159 0 
L 581 0 
L 581 3500 
L 1159 3500 
L 1159 2956 
Q 1366 3272 1645 3428 
Q 1925 3584 2291 3584 
Q 2894 3584 3203 3211 
Q 3513 2838 3513 2113 
z
" transform="scale(0.015625)"/>
      </defs>
      <use xlink:href="#DejaVuSans-4e"/>
      <use xlink:href="#DejaVuSans-6f" x="74.804688"/>
      <use xlink:href="#DejaVuSans-72" x="135.986328"/>
      <use xlink:href="#DejaVuSans-6d" x="175.349609"/>
      <use xlink:href="#DejaVuSans-65" x="272.761719"/>
      <use xlink:href="#DejaVuSans-64" x="334.285156"/>
      <use xlink:href="#DejaVuSans-20" x="397.761719"/>
      <use xlink:href="#DejaVuSans-48" x="429.548828"/>
      <use xlink:href="#DejaVuSans-69" x="504.744141"/>
      <use xlink:href="#DejaVuSans-73" x="532.527344"/>
      <use xlink:href="#DejaVuSans-74" x="584.626953"/>
      <use xlink:href="#DejaVuSans-20" x="623.835938"/>
      <use xlink:href="#DejaVuSans-43" x="655.623047"/>
      <use xlink:href="#DejaVuSans-6f" x="725.447266"/>
      <use xlink:href="#DejaVuSans-75" x="786.628906"/>
      <use xlink:href="#DejaVuSans-6e" x="850.007812"/>
      <use xlink:href="#DejaVuSans-74" x="913.386719"/>
      <use xlink:href="#DejaVuSans-73" x="952.595703"/>
     </g>
    </g>
   </g>
   <g id="line2d_14">
    <path d="M 137.428059 828.327025 
L 143.594035 827.795404 
L 149.760011 826.971058 
L 155.925987 825.798801 
L 162.091962 824.22706 
L 168.257938 822.207827 
L 174.423914 819.696684 
L 180.58989 816.652873 
L 186.755866 813.039388 
L 192.921842 808.823064 
L 199.087817 803.974673 
L 205.253793 798.469004 
L 211.419769 792.284935 
L 217.585745 785.405496 
L 223.751721 777.817904 
L 229.917697 769.513591 
L 236.083673 760.488206 
L 242.249648 750.741603 
L 248.415624 740.277804 
L 254.5816 729.104949 
L 260.747576 717.235216 
L 266.913552 704.684734 
L 273.079528 691.473466 
L 279.245504 677.625083 
L 285.411479 663.166811 
L 291.577455 648.129268 
L 297.743431 632.546287 
L 303.909407 616.454715 
L 310.075383 599.894209 
L 316.241359 582.907016 
L 322.407335 565.537738 
L 334.739286 529.841681 
L 347.071238 493.200709 
L 390.233069 363.623784 
L 402.565021 327.998685 
L 408.730996 310.682205 
L 414.896972 293.76285 
L 421.062948 277.288474 
L 427.228924 261.305134 
L 433.3949 245.856904 
L 439.560876 230.985711 
L 445.726852 216.731173 
L 451.892827 203.130467 
L 458.058803 190.218201 
L 464.224779 178.026304 
L 470.390755 166.583931 
L 476.556731 155.917392 
L 482.722707 146.050079 
L 488.888683 137.002429 
L 495.054658 128.791888 
L 501.220634 121.432895 
L 507.38661 114.936884 
L 513.552586 109.312295 
L 519.718562 104.564603 
L 525.884538 100.696358 
L 532.050513 97.70724 
L 538.216489 95.594126 
L 544.382465 94.351163 
L 550.548441 93.969863 
L 556.714417 94.439195 
L 562.880393 95.745696 
L 569.046369 97.873586 
L 575.212344 100.804886 
L 581.37832 104.519556 
L 587.544296 108.995619 
L 593.710272 114.209308 
L 599.876248 120.135207 
L 606.042224 126.746395 
L 612.2082 134.014593 
L 618.374175 141.910318 
L 624.540151 150.403025 
L 630.706127 159.461262 
L 636.872103 169.052815 
L 643.038079 179.144852 
L 649.204055 189.704069 
L 655.370031 200.696827 
L 661.536006 212.089291 
L 667.701982 223.84756 
L 673.867958 235.937792 
L 680.033934 248.326331 
L 692.365886 273.865295 
L 704.697837 300.203089 
L 717.029789 327.088038 
L 766.357596 435.547945 
L 778.689548 461.901967 
L 791.021499 487.62083 
L 803.353451 512.573655 
L 815.685403 536.649359 
L 821.851379 548.328887 
L 828.017354 559.756215 
L 834.18333 570.922787 
L 840.349306 581.821155 
L 846.515282 592.444947 
L 852.681258 602.788831 
L 858.847234 612.848477 
L 865.01321 622.620512 
L 871.179185 632.102486 
L 877.345161 641.292821 
L 883.511137 650.190773 
L 889.677113 658.796381 
L 895.843089 667.110426 
L 902.009065 675.134386 
L 908.17504 682.870384 
L 914.341016 690.321149 
L 920.506992 697.489968 
L 926.672968 704.380641 
L 932.838944 710.997436 
L 939.00492 717.345052 
L 945.170896 723.428568 
L 951.336871 729.253412 
L 957.502847 734.825311 
L 963.668823 740.150264 
L 969.834799 745.234497 
L 976.000775 750.084432 
L 982.166751 754.706651 
L 988.332727 759.107868 
L 994.498702 763.294896 
L 1000.664678 767.274618 
L 1006.830654 771.053962 
L 1012.99663 774.639876 
L 1019.162606 778.039303 
L 1025.328582 781.259161 
L 1031.494558 784.306323 
L 1037.660533 787.187595 
L 1043.826509 789.909706 
L 1049.992485 792.479287 
L 1056.158461 794.902858 
L 1062.324437 797.18682 
L 1068.490413 799.337437 
L 1074.656388 801.360833 
L 1086.98834 805.049696 
L 1099.320292 808.299254 
L 1111.652244 811.152664 
L 1123.984195 813.650279 
L 1136.316147 815.829598 
L 1148.648099 817.725268 
L 1160.98005 819.36912 
L 1173.312002 820.790242 
L 1185.643954 822.015081 
L 1197.975906 823.067565 
L 1216.473833 824.369644 
L 1234.971761 825.395339 
L 1253.469688 826.197983 
L 1278.133592 826.996802 
L 1302.797495 827.561352 
L 1333.627374 828.03378 
L 1364.457254 828.330357 
L 1364.457254 828.330357 
" clip-path="url(#p3d166f68bc)" style="fill: none; stroke: #ff7f0e; stroke-width: 1.5; stroke-linecap: square"/>
   </g>
   <g id="line2d_15">
    <path d="M 137.428059 824.579705 
L 143.594035 823.532194 
L 149.760011 822.278872 
L 155.925987 820.791228 
L 162.091962 819.038904 
L 168.257938 816.989879 
L 174.423914 814.610706 
L 180.58989 811.866791 
L 186.755866 808.722713 
L 192.921842 805.14258 
L 199.087817 801.090424 
L 205.253793 796.530617 
L 211.419769 791.428314 
L 217.585745 785.749907 
L 223.751721 779.463493 
L 229.917697 772.539338 
L 236.083673 764.950335 
L 242.249648 756.672453 
L 248.415624 747.685158 
L 254.5816 737.971812 
L 260.747576 727.520034 
L 266.913552 716.322022 
L 273.079528 704.374831 
L 279.245504 691.680602 
L 285.411479 678.246732 
L 291.577455 664.085997 
L 297.743431 649.21661 
L 303.909407 633.662226 
L 310.075383 617.451882 
L 316.241359 600.61989 
L 322.407335 583.205662 
L 328.57331 565.25349 
L 334.739286 546.812273 
L 340.905262 527.935198 
L 353.237214 489.105455 
L 365.569165 449.260898 
L 396.399045 348.806595 
L 408.730996 309.787724 
L 414.896972 290.811792 
L 421.062948 272.282692 
L 427.228924 254.266167 
L 433.3949 236.825372 
L 439.560876 220.020503 
L 445.726852 203.90846 
L 451.892827 188.542542 
L 458.058803 173.972185 
L 464.224779 160.242732 
L 470.390755 147.395237 
L 476.556731 135.466318 
L 482.722707 124.48804 
L 488.888683 114.487834 
L 495.054658 105.488459 
L 501.220634 97.507992 
L 507.38661 90.559856 
L 513.552586 84.652876 
L 519.718562 79.79137 
L 525.884538 75.975261 
L 532.050513 73.200216 
L 538.216489 71.457814 
L 544.382465 70.735724 
L 550.548441 71.017908 
L 556.714417 72.284839 
L 562.880393 74.513726 
L 569.046369 77.678755 
L 575.212344 81.75134 
L 581.37832 86.700369 
L 587.544296 92.492465 
L 593.710272 99.092244 
L 599.876248 106.462568 
L 606.042224 114.564805 
L 612.2082 123.359073 
L 618.374175 132.804491 
L 624.540151 142.859413 
L 630.706127 153.48166 
L 636.872103 164.628734 
L 643.038079 176.258038 
L 649.204055 188.327063 
L 655.370031 200.793587 
L 661.536006 213.615837 
L 667.701982 226.752663 
L 680.033934 253.809403 
L 692.365886 281.652292 
L 710.863813 324.254483 
L 735.527717 381.252463 
L 747.859668 409.323009 
L 760.19162 436.850856 
L 772.523572 463.675058 
L 784.855523 489.659594 
L 797.187475 514.692423 
L 803.353451 526.823188 
L 809.519427 538.684229 
L 815.685403 550.267688 
L 821.851379 561.566929 
L 828.017354 572.576483 
L 834.18333 583.291993 
L 840.349306 593.710156 
L 846.515282 603.828664 
L 852.681258 613.646146 
L 858.847234 623.162109 
L 865.01321 632.376882 
L 871.179185 641.291558 
L 877.345161 649.907937 
L 883.511137 658.228472 
L 889.677113 666.256218 
L 895.843089 673.994772 
L 902.009065 681.448233 
L 908.17504 688.621143 
L 914.341016 695.518448 
L 920.506992 702.14545 
L 926.672968 708.507763 
L 932.838944 714.611275 
L 939.00492 720.462105 
L 945.170896 726.06657 
L 951.336871 731.431151 
L 957.502847 736.562455 
L 963.668823 741.467192 
L 969.834799 746.152139 
L 976.000775 750.624121 
L 982.166751 754.88998 
L 988.332727 758.956555 
L 994.498702 762.830664 
L 1000.664678 766.51908 
L 1006.830654 770.028516 
L 1012.99663 773.365611 
L 1019.162606 776.536912 
L 1025.328582 779.548866 
L 1031.494558 782.407805 
L 1037.660533 785.119938 
L 1043.826509 787.691341 
L 1049.992485 790.127952 
L 1056.158461 792.435562 
L 1068.490413 796.686192 
L 1080.822364 800.486475 
L 1093.154316 803.877093 
L 1105.486268 806.89611 
L 1117.818219 809.578979 
L 1130.150171 811.958572 
L 1142.482123 814.065238 
L 1154.814075 815.926894 
L 1167.146026 817.569119 
L 1179.477978 819.015271 
L 1191.80993 820.286609 
L 1210.307857 821.907527 
L 1228.805785 823.23555 
L 1247.303712 824.319813 
L 1265.80164 825.202075 
L 1290.465543 826.124372 
L 1315.129447 826.818105 
L 1345.959326 827.444722 
L 1364.457254 827.723422 
L 1364.457254 827.723422 
" clip-path="url(#p3d166f68bc)" style="fill: none; stroke: #2ca02c; stroke-width: 1.5; stroke-linecap: square"/>
   </g>
   <g id="line2d_16">
    <path d="M 137.428059 120.583009 
L 149.760011 139.529334 
L 162.091962 157.968789 
L 174.423914 175.914935 
L 186.755866 193.380969 
L 199.087817 210.379736 
L 211.419769 226.923736 
L 223.751721 243.025135 
L 236.083673 258.695775 
L 248.415624 273.94718 
L 260.747576 288.790565 
L 273.079528 303.236845 
L 285.411479 317.296646 
L 297.743431 330.980306 
L 310.075383 344.297887 
L 322.407335 357.259185 
L 334.739286 369.87373 
L 347.071238 382.150799 
L 359.40319 394.09942 
L 371.735141 405.728381 
L 384.067093 417.046233 
L 396.399045 428.061299 
L 408.730996 438.78168 
L 421.062948 449.21526 
L 433.3949 459.369711 
L 445.726852 469.2525 
L 458.058803 478.870896 
L 470.390755 488.231972 
L 482.722707 497.342611 
L 495.054658 506.209515 
L 507.38661 514.839202 
L 519.718562 523.23802 
L 532.050513 531.412146 
L 544.382465 539.367589 
L 556.714417 547.110201 
L 569.046369 554.645676 
L 581.37832 561.979555 
L 593.710272 569.117231 
L 606.042224 576.063953 
L 618.374175 582.82483 
L 630.706127 589.404834 
L 643.038079 595.808803 
L 655.370031 602.041448 
L 673.867958 611.079173 
L 692.365886 619.756656 
L 710.863813 628.088257 
L 729.361741 636.087762 
L 747.859668 643.768408 
L 766.357596 651.142906 
L 784.855523 658.223457 
L 803.353451 665.02178 
L 821.851379 671.549122 
L 840.349306 677.816287 
L 858.847234 683.833643 
L 877.345161 689.611149 
L 895.843089 695.158365 
L 914.341016 700.484469 
L 932.838944 705.598277 
L 951.336871 710.508249 
L 969.834799 715.222511 
L 988.332727 719.748863 
L 1006.830654 724.094796 
L 1031.494558 729.621109 
L 1056.158461 734.855687 
L 1080.822364 739.813931 
L 1105.486268 744.510429 
L 1130.150171 748.958997 
L 1154.814075 753.172726 
L 1179.477978 757.164011 
L 1204.141881 760.944596 
L 1228.805785 764.525603 
L 1253.469688 767.917568 
L 1284.299567 771.906837 
L 1315.129447 775.634624 
L 1345.959326 779.118068 
L 1364.457254 781.097557 
L 1364.457254 781.097557 
" clip-path="url(#p3d166f68bc)" style="fill: none; stroke: #d62728; stroke-width: 1.5; stroke-linecap: square"/>
   </g>
   <g id="line2d_17">
    <path d="M 137.428059 778.793409 
L 149.760011 774.180991 
L 162.091962 769.142964 
L 168.257938 766.452214 
L 174.423914 763.640058 
L 180.58989 760.70102 
L 186.755866 757.629375 
L 192.921842 754.41914 
L 199.087817 751.064061 
L 205.253793 747.557603 
L 211.419769 743.892937 
L 217.585745 740.062923 
L 223.751721 736.060102 
L 229.917697 731.876677 
L 236.083673 727.504499 
L 242.249648 722.935051 
L 248.415624 718.159434 
L 254.5816 713.168344 
L 260.747576 707.952059 
L 266.913552 702.50042 
L 273.079528 696.802807 
L 279.245504 690.848121 
L 285.411479 684.624765 
L 291.577455 678.120615 
L 297.743431 671.323003 
L 303.909407 664.218688 
L 310.075383 656.793831 
L 316.241359 649.03397 
L 322.407335 640.92399 
L 328.57331 632.448094 
L 334.739286 623.589772 
L 340.905262 614.331768 
L 347.071238 604.65605 
L 353.237214 594.543771 
L 359.40319 583.975234 
L 365.569165 572.929852 
L 371.735141 561.38611 
L 377.901117 549.321523 
L 384.067093 536.712591 
L 390.233069 523.534753 
L 396.399045 509.762341 
L 402.565021 495.368528 
L 408.730996 480.325277 
L 414.896972 464.603285 
L 421.062948 448.171929 
L 427.228924 430.999202 
L 433.3949 413.051654 
L 439.560876 394.294326 
L 445.726852 374.690681 
L 451.892827 354.202535 
L 458.058803 332.789978 
L 464.224779 310.411302 
L 470.390755 287.022918 
L 476.556731 262.579266 
L 482.722707 237.032735 
L 488.888683 210.333564 
L 495.054658 182.429745 
L 501.220634 153.266927 
L 507.38661 122.788304 
L 513.552586 90.934508 
L 519.718562 57.643492 
L 525.884538 22.85041 
L 529.928796 -1 
M 623.680795 -1 
L 624.540151 4.185294 
L 630.706127 39.784175 
L 636.872103 73.846203 
L 643.038079 106.437725 
L 649.204055 137.622225 
L 655.370031 167.460447 
L 661.536006 196.010511 
L 667.701982 223.328029 
L 673.867958 249.466211 
L 680.033934 274.475972 
L 686.19991 298.406026 
L 692.365886 321.302986 
L 698.531862 343.211452 
L 704.697837 364.174099 
L 710.863813 384.23176 
L 717.029789 403.423503 
L 723.195765 421.786711 
L 729.361741 439.357154 
L 735.527717 456.169057 
L 741.693692 472.255166 
L 747.859668 487.646815 
L 754.025644 502.373986 
L 760.19162 516.465363 
L 766.357596 529.948397 
L 772.523572 542.849348 
L 778.689548 555.193348 
L 784.855523 567.00444 
L 791.021499 578.30563 
L 797.187475 589.118933 
L 803.353451 599.465409 
L 809.519427 609.365214 
L 815.685403 618.837631 
L 821.851379 627.90111 
L 828.017354 636.573306 
L 834.18333 644.871111 
L 840.349306 652.810688 
L 846.515282 660.407503 
L 852.681258 667.676352 
L 858.847234 674.631395 
L 865.01321 681.28618 
L 871.179185 687.653667 
L 877.345161 693.746262 
L 883.511137 699.57583 
L 889.677113 705.153728 
L 895.843089 710.490821 
L 902.009065 715.597503 
L 908.17504 720.483723 
L 914.341016 725.158998 
L 920.506992 729.632435 
L 926.672968 733.912747 
L 932.838944 738.008272 
L 939.00492 741.926988 
L 945.170896 745.676527 
L 951.336871 749.264193 
L 957.502847 752.696975 
L 963.668823 755.981559 
L 969.834799 759.124342 
L 976.000775 762.131448 
L 982.166751 765.008732 
L 994.498702 770.396014 
L 1006.830654 775.328184 
L 1019.162606 779.843689 
L 1031.494558 783.977728 
L 1043.826509 787.762528 
L 1056.158461 791.227591 
L 1068.490413 794.399929 
L 1080.822364 797.304272 
L 1093.154316 799.963258 
L 1105.486268 802.397616 
L 1117.818219 804.626321 
L 1130.150171 806.666748 
L 1142.482123 808.534801 
L 1160.98005 811.045196 
L 1179.477978 813.244294 
L 1197.975906 815.170696 
L 1216.473833 816.858218 
L 1234.971761 818.336481 
L 1253.469688 819.631435 
L 1278.133592 821.111767 
L 1302.797495 822.35255 
L 1327.461398 823.392547 
L 1358.291278 824.459175 
L 1364.457254 824.645684 
L 1364.457254 824.645684 
" clip-path="url(#p3d166f68bc)" style="fill: none; stroke: #9467bd; stroke-width: 1.5; stroke-linecap: square"/>
   </g>
   <g id="line2d_18">
    <path d="M 137.428059 823.045051 
L 143.594035 821.853509 
L 149.760011 820.460345 
L 155.925987 818.840441 
L 162.091962 816.967057 
L 168.257938 814.811949 
L 174.423914 812.345521 
L 180.58989 809.537019 
L 186.755866 806.354756 
L 192.921842 802.766372 
L 199.087817 798.739131 
L 205.253793 794.240247 
L 211.419769 789.237237 
L 217.585745 783.698297 
L 223.751721 777.592701 
L 229.917697 770.891205 
L 236.083673 763.566471 
L 242.249648 755.593482 
L 248.415624 746.949955 
L 254.5816 737.616749 
L 260.747576 727.578248 
L 266.913552 716.822721 
L 273.079528 705.342658 
L 279.245504 693.135064 
L 285.411479 680.201714 
L 291.577455 666.549366 
L 297.743431 652.189918 
L 303.909407 637.140517 
L 310.075383 621.423617 
L 316.241359 605.066969 
L 322.407335 588.103566 
L 328.57331 570.571526 
L 334.739286 552.513917 
L 340.905262 533.978534 
L 347.071238 515.01762 
L 359.40319 476.048428 
L 371.735141 436.099866 
L 402.565021 335.558243 
L 414.896972 296.595351 
L 421.062948 277.673162 
L 427.228924 259.217502 
L 433.3949 241.296096 
L 439.560876 223.974101 
L 445.726852 207.313692 
L 451.892827 191.373679 
L 458.058803 176.209171 
L 464.224779 161.871265 
L 470.390755 148.406782 
L 476.556731 135.858047 
L 482.722707 124.262699 
L 488.888683 113.653561 
L 495.054658 104.058532 
L 501.220634 95.500537 
L 507.38661 87.997506 
L 513.552586 81.562394 
L 519.718562 76.203241 
L 525.884538 71.92326 
L 532.050513 68.720964 
L 538.216489 66.590313 
L 544.382465 65.520899 
L 550.548441 65.498146 
L 556.714417 66.503532 
L 562.880393 68.514831 
L 569.046369 71.506373 
L 575.212344 75.449305 
L 581.37832 80.311873 
L 587.544296 86.059704 
L 593.710272 92.656095 
L 599.876248 100.062296 
L 606.042224 108.237803 
L 612.2082 117.140637 
L 618.374175 126.727627 
L 624.540151 136.954677 
L 630.706127 147.777029 
L 636.872103 159.149518 
L 643.038079 171.02681 
L 649.204055 183.36363 
L 655.370031 196.114977 
L 661.536006 209.236328 
L 667.701982 222.683817 
L 680.033934 250.386069 
L 692.365886 278.890152 
L 710.863813 322.474279 
L 735.527717 380.685513 
L 747.859668 409.296079 
L 760.19162 437.309115 
L 772.523572 464.558886 
L 784.855523 490.906785 
L 791.021499 503.706353 
L 797.187475 516.240156 
L 803.353451 528.497917 
L 809.519427 540.470775 
L 815.685403 552.151227 
L 821.851379 563.533064 
L 828.017354 574.611308 
L 834.18333 585.382144 
L 840.349306 595.842859 
L 846.515282 605.991772 
L 852.681258 615.828167 
L 858.847234 625.352235 
L 865.01321 634.564999 
L 871.179185 643.46826 
L 877.345161 652.06453 
L 883.511137 660.356974 
L 889.677113 668.349348 
L 895.843089 676.045947 
L 902.009065 683.451548 
L 908.17504 690.571359 
L 914.341016 697.410968 
L 920.506992 703.976296 
L 926.672968 710.273551 
L 932.838944 716.309187 
L 939.00492 722.089863 
L 945.170896 727.622406 
L 951.336871 732.913773 
L 957.502847 737.97102 
L 963.668823 742.801272 
L 969.834799 747.411693 
L 976.000775 751.80946 
L 982.166751 756.00174 
L 988.332727 759.995666 
L 994.498702 763.79832 
L 1000.664678 767.416713 
L 1006.830654 770.857767 
L 1012.99663 774.128305 
L 1019.162606 777.235031 
L 1025.328582 780.184529 
L 1031.494558 782.983242 
L 1037.660533 785.637472 
L 1043.826509 788.153366 
L 1049.992485 790.536916 
L 1056.158461 792.793951 
L 1068.490413 796.95095 
L 1080.822364 800.667613 
L 1093.154316 803.984427 
L 1105.486268 806.939116 
L 1117.818219 809.566669 
L 1130.150171 811.899403 
L 1142.482123 813.967057 
L 1154.814075 815.796892 
L 1167.146026 817.413817 
L 1179.477978 818.84052 
L 1191.80993 820.0976 
L 1210.307857 821.705479 
L 1228.805785 823.028709 
L 1247.303712 824.114616 
L 1265.80164 825.003372 
L 1290.465543 825.939556 
L 1315.129447 826.650791 
L 1345.959326 827.301404 
L 1364.457254 827.594581 
L 1364.457254 827.594581 
" clip-path="url(#p3d166f68bc)" style="fill: none; stroke: #8c564b; stroke-width: 1.5; stroke-linecap: square"/>
   </g>
   <g id="line2d_19">
    <path d="M 137.428059 802.717778 
L 143.594035 800.241378 
L 149.760011 797.568635 
L 155.925987 794.688135 
L 162.091962 791.58822 
L 168.257938 788.257021 
L 174.423914 784.6825 
L 180.58989 780.852502 
L 186.755866 776.754804 
L 192.921842 772.377173 
L 199.087817 767.707429 
L 205.253793 762.733517 
L 211.419769 757.443572 
L 217.585745 751.826002 
L 223.751721 745.869567 
L 229.917697 739.563469 
L 236.083673 732.897435 
L 242.249648 725.861818 
L 248.415624 718.447686 
L 254.5816 710.646928 
L 260.747576 702.452349 
L 266.913552 693.857776 
L 273.079528 684.858156 
L 279.245504 675.449665 
L 285.411479 665.629804 
L 291.577455 655.397499 
L 297.743431 644.753201 
L 303.909407 633.698977 
L 310.075383 622.238597 
L 316.241359 610.377621 
L 322.407335 598.123473 
L 328.57331 585.485509 
L 334.739286 572.475079 
L 340.905262 559.105578 
L 347.071238 545.392487 
L 353.237214 531.353401 
L 359.40319 517.008049 
L 371.735141 487.488137 
L 384.067093 457.033071 
L 396.399045 425.876162 
L 421.062948 362.542597 
L 439.560876 315.361098 
L 451.892827 284.687954 
L 458.058803 269.718163 
L 464.224779 255.052778 
L 470.390755 240.736838 
L 476.556731 226.815208 
L 482.722707 213.332353 
L 488.888683 200.3321 
L 495.054658 187.857406 
L 501.220634 175.950122 
L 507.38661 164.65076 
L 513.552586 153.998264 
L 519.718562 144.029787 
L 525.884538 134.780479 
L 532.050513 126.283275 
L 538.216489 118.568705 
L 544.382465 111.664706 
L 550.548441 105.596459 
L 556.714417 100.386234 
L 562.880393 96.053253 
L 569.046369 92.613572 
L 575.212344 90.079982 
L 581.37832 88.46193 
L 587.544296 87.765463 
L 593.710272 87.993184 
L 599.876248 89.144241 
L 606.042224 91.214332 
L 612.2082 94.19573 
L 618.374175 98.07733 
L 624.540151 102.844721 
L 630.706127 108.480275 
L 636.872103 114.963251 
L 643.038079 122.269928 
L 649.204055 130.373747 
L 655.370031 139.24547 
L 661.536006 148.853359 
L 667.701982 159.163364 
L 673.867958 170.139321 
L 680.033934 181.743166 
L 686.19991 193.935156 
L 692.365886 206.674089 
L 698.531862 219.917541 
L 704.697837 233.622096 
L 710.863813 247.743583 
L 717.029789 262.237312 
L 729.361741 292.161518 
L 741.693692 323.035499 
L 760.19162 370.357919 
L 784.855523 433.60273 
L 797.187475 464.610132 
L 809.519427 494.85524 
L 821.851379 524.112733 
L 828.017354 538.309792 
L 834.18333 552.190597 
L 840.349306 565.736474 
L 846.515282 578.93087 
L 852.681258 591.759338 
L 858.847234 604.209495 
L 865.01321 616.270981 
L 871.179185 627.9354 
L 877.345161 639.196255 
L 883.511137 650.048878 
L 889.677113 660.490349 
L 895.843089 670.519409 
L 902.009065 680.136369 
L 908.17504 689.343018 
L 914.341016 698.142521 
L 920.506992 706.53932 
L 926.672968 714.539033 
L 932.838944 722.148347 
L 939.00492 729.374924 
L 945.170896 736.22729 
L 951.336871 742.714742 
L 957.502847 748.847248 
L 963.668823 754.63535 
L 969.834799 760.090076 
L 976.000775 765.222849 
L 982.166751 770.045406 
L 988.332727 774.569714 
L 994.498702 778.8079 
L 1000.664678 782.772177 
L 1006.830654 786.474781 
L 1012.99663 789.927908 
L 1019.162606 793.143662 
L 1025.328582 796.134003 
L 1031.494558 798.910702 
L 1037.660533 801.485301 
L 1043.826509 803.869075 
L 1049.992485 806.073007 
L 1056.158461 808.107754 
L 1062.324437 809.983631 
L 1068.490413 811.710588 
L 1074.656388 813.2982 
L 1080.822364 814.755652 
L 1093.154316 817.314837 
L 1105.486268 819.453656 
L 1117.818219 821.231222 
L 1130.150171 822.700383 
L 1142.482123 823.907962 
L 1154.814075 824.895091 
L 1167.146026 825.69761 
L 1185.643954 826.621788 
L 1204.141881 827.285685 
L 1228.805785 827.880435 
L 1253.469688 828.249064 
L 1290.465543 828.547915 
L 1345.959326 828.718025 
L 1364.457254 828.740841 
L 1364.457254 828.740841 
" clip-path="url(#p3d166f68bc)" style="fill: none; stroke: #e377c2; stroke-width: 1.5; stroke-linecap: square"/>
   </g>
   <g id="patch_103">
    <path d="M 72.685313 828.779375 
L 72.685313 38.075625 
" style="fill: none; stroke: #000000; stroke-width: 0.8; stroke-linejoin: miter; stroke-linecap: square"/>
   </g>
   <g id="patch_104">
    <path d="M 1429.2 828.779375 
L 1429.2 38.075625 
" style="fill: none; stroke: #000000; stroke-width: 0.8; stroke-linejoin: miter; stroke-linecap: square"/>
   </g>
   <g id="patch_105">
    <path d="M 72.685313 828.779375 
L 1429.2 828.779375 
" style="fill: none; stroke: #000000; stroke-width: 0.8; stroke-linejoin: miter; stroke-linecap: square"/>
   </g>
   <g id="patch_106">
    <path d="M 72.685313 38.075625 
L 1429.2 38.075625 
" style="fill: none; stroke: #000000; stroke-width: 0.8; stroke-linejoin: miter; stroke-linecap: square"/>
   </g>
   <g id="text_15">
    <!-- All Fitted Distributions -->
    <g transform="translate(596.317031 32.075625) scale(0.28 -0.28)">
     <defs>
      <path id="DejaVuSans-41" d="M 2188 4044 
L 1331 1722 
L 3047 1722 
L 2188 4044 
z
M 1831 4666 
L 2547 4666 
L 4325 0 
L 3669 0 
L 3244 1197 
L 1141 1197 
L 716 0 
L 50 0 
L 1831 4666 
z
" transform="scale(0.015625)"/>
      <path id="DejaVuSans-6c" d="M 603 4863 
L 1178 4863 
L 1178 0 
L 603 0 
L 603 4863 
z
" transform="scale(0.015625)"/>
      <path id="DejaVuSans-46" d="M 628 4666 
L 3309 4666 
L 3309 4134 
L 1259 4134 
L 1259 2759 
L 3109 2759 
L 3109 2228 
L 1259 2228 
L 1259 0 
L 628 0 
L 628 4666 
z
" transform="scale(0.015625)"/>
      <path id="DejaVuSans-44" d="M 1259 4147 
L 1259 519 
L 2022 519 
Q 2988 519 3436 956 
Q 3884 1394 3884 2338 
Q 3884 3275 3436 3711 
Q 2988 4147 2022 4147 
L 1259 4147 
z
M 628 4666 
L 1925 4666 
Q 3281 4666 3915 4102 
Q 4550 3538 4550 2338 
Q 4550 1131 3912 565 
Q 3275 0 1925 0 
L 628 0 
L 628 4666 
z
" transform="scale(0.015625)"/>
      <path id="DejaVuSans-62" d="M 3116 1747 
Q 3116 2381 2855 2742 
Q 2594 3103 2138 3103 
Q 1681 3103 1420 2742 
Q 1159 2381 1159 1747 
Q 1159 1113 1420 752 
Q 1681 391 2138 391 
Q 2594 391 2855 752 
Q 3116 1113 3116 1747 
z
M 1159 2969 
Q 1341 3281 1617 3432 
Q 1894 3584 2278 3584 
Q 2916 3584 3314 3078 
Q 3713 2572 3713 1747 
Q 3713 922 3314 415 
Q 2916 -91 2278 -91 
Q 1894 -91 1617 61 
Q 1341 213 1159 525 
L 1159 0 
L 581 0 
L 581 4863 
L 1159 4863 
L 1159 2969 
z
" transform="scale(0.015625)"/>
     </defs>
     <use xlink:href="#DejaVuSans-41"/>
     <use xlink:href="#DejaVuSans-6c" x="68.408203"/>
     <use xlink:href="#DejaVuSans-6c" x="96.191406"/>
     <use xlink:href="#DejaVuSans-20" x="123.974609"/>
     <use xlink:href="#DejaVuSans-46" x="155.761719"/>
     <use xlink:href="#DejaVuSans-69" x="206.03125"/>
     <use xlink:href="#DejaVuSans-74" x="233.814453"/>
     <use xlink:href="#DejaVuSans-74" x="273.023438"/>
     <use xlink:href="#DejaVuSans-65" x="312.232422"/>
     <use xlink:href="#DejaVuSans-64" x="373.755859"/>
     <use xlink:href="#DejaVuSans-20" x="437.232422"/>
     <use xlink:href="#DejaVuSans-44" x="469.019531"/>
     <use xlink:href="#DejaVuSans-69" x="546.021484"/>
     <use xlink:href="#DejaVuSans-73" x="573.804688"/>
     <use xlink:href="#DejaVuSans-74" x="625.904297"/>
     <use xlink:href="#DejaVuSans-72" x="665.113281"/>
     <use xlink:href="#DejaVuSans-69" x="706.226562"/>
     <use xlink:href="#DejaVuSans-62" x="734.009766"/>
     <use xlink:href="#DejaVuSans-75" x="797.486328"/>
     <use xlink:href="#DejaVuSans-74" x="860.865234"/>
     <use xlink:href="#DejaVuSans-69" x="900.074219"/>
     <use xlink:href="#DejaVuSans-6f" x="927.857422"/>
     <use xlink:href="#DejaVuSans-6e" x="989.039062"/>
     <use xlink:href="#DejaVuSans-73" x="1052.417969"/>
    </g>
   </g>
   <g id="legend_1">
    <g id="patch_107">
     <path d="M 1014.37125 303.868125 
L 1412.4 303.868125 
Q 1417.2 303.868125 1417.2 299.068125 
L 1417.2 54.875625 
Q 1417.2 50.075625 1412.4 50.075625 
L 1014.37125 50.075625 
Q 1009.57125 50.075625 1009.57125 54.875625 
L 1009.57125 299.068125 
Q 1009.57125 303.868125 1014.37125 303.868125 
z
" style="fill: #ffffff; opacity: 0.8; stroke: #cccccc; stroke-linejoin: miter"/>
    </g>
    <g id="patch_108">
     <path d="M 1019.17125 77.911875 
L 1067.17125 77.911875 
L 1067.17125 61.111875 
L 1019.17125 61.111875 
z
" style="fill: #1f77b4; opacity: 0.6"/>
    </g>
    <g id="text_16">
     <!-- Generated Chi Distribution -->
     <g transform="translate(1086.37125 77.911875) scale(0.24 -0.24)">
      <defs>
       <path id="DejaVuSans-47" d="M 3809 666 
L 3809 1919 
L 2778 1919 
L 2778 2438 
L 4434 2438 
L 4434 434 
Q 4069 175 3628 42 
Q 3188 -91 2688 -91 
Q 1594 -91 976 548 
Q 359 1188 359 2328 
Q 359 3472 976 4111 
Q 1594 4750 2688 4750 
Q 3144 4750 3555 4637 
Q 3966 4525 4313 4306 
L 4313 3634 
Q 3963 3931 3569 4081 
Q 3175 4231 2741 4231 
Q 1884 4231 1454 3753 
Q 1025 3275 1025 2328 
Q 1025 1384 1454 906 
Q 1884 428 2741 428 
Q 3075 428 3337 486 
Q 3600 544 3809 666 
z
" transform="scale(0.015625)"/>
       <path id="DejaVuSans-61" d="M 2194 1759 
Q 1497 1759 1228 1600 
Q 959 1441 959 1056 
Q 959 750 1161 570 
Q 1363 391 1709 391 
Q 2188 391 2477 730 
Q 2766 1069 2766 1631 
L 2766 1759 
L 2194 1759 
z
M 3341 1997 
L 3341 0 
L 2766 0 
L 2766 531 
Q 2569 213 2275 61 
Q 1981 -91 1556 -91 
Q 1019 -91 701 211 
Q 384 513 384 1019 
Q 384 1609 779 1909 
Q 1175 2209 1959 2209 
L 2766 2209 
L 2766 2266 
Q 2766 2663 2505 2880 
Q 2244 3097 1772 3097 
Q 1472 3097 1187 3025 
Q 903 2953 641 2809 
L 641 3341 
Q 956 3463 1253 3523 
Q 1550 3584 1831 3584 
Q 2591 3584 2966 3190 
Q 3341 2797 3341 1997 
z
" transform="scale(0.015625)"/>
       <path id="DejaVuSans-68" d="M 3513 2113 
L 3513 0 
L 2938 0 
L 2938 2094 
Q 2938 2591 2744 2837 
Q 2550 3084 2163 3084 
Q 1697 3084 1428 2787 
Q 1159 2491 1159 1978 
L 1159 0 
L 581 0 
L 581 4863 
L 1159 4863 
L 1159 2956 
Q 1366 3272 1645 3428 
Q 1925 3584 2291 3584 
Q 2894 3584 3203 3211 
Q 3513 2838 3513 2113 
z
" transform="scale(0.015625)"/>
      </defs>
      <use xlink:href="#DejaVuSans-47"/>
      <use xlink:href="#DejaVuSans-65" x="77.490234"/>
      <use xlink:href="#DejaVuSans-6e" x="139.013672"/>
      <use xlink:href="#DejaVuSans-65" x="202.392578"/>
      <use xlink:href="#DejaVuSans-72" x="263.916016"/>
      <use xlink:href="#DejaVuSans-61" x="305.029297"/>
      <use xlink:href="#DejaVuSans-74" x="366.308594"/>
      <use xlink:href="#DejaVuSans-65" x="405.517578"/>
      <use xlink:href="#DejaVuSans-64" x="467.041016"/>
      <use xlink:href="#DejaVuSans-20" x="530.517578"/>
      <use xlink:href="#DejaVuSans-43" x="562.304688"/>
      <use xlink:href="#DejaVuSans-68" x="632.128906"/>
      <use xlink:href="#DejaVuSans-69" x="695.507812"/>
      <use xlink:href="#DejaVuSans-20" x="723.291016"/>
      <use xlink:href="#DejaVuSans-44" x="755.078125"/>
      <use xlink:href="#DejaVuSans-69" x="832.080078"/>
      <use xlink:href="#DejaVuSans-73" x="859.863281"/>
      <use xlink:href="#DejaVuSans-74" x="911.962891"/>
      <use xlink:href="#DejaVuSans-72" x="951.171875"/>
      <use xlink:href="#DejaVuSans-69" x="992.285156"/>
      <use xlink:href="#DejaVuSans-62" x="1020.068359"/>
      <use xlink:href="#DejaVuSans-75" x="1083.544922"/>
      <use xlink:href="#DejaVuSans-74" x="1146.923828"/>
      <use xlink:href="#DejaVuSans-69" x="1186.132812"/>
      <use xlink:href="#DejaVuSans-6f" x="1213.916016"/>
      <use xlink:href="#DejaVuSans-6e" x="1275.097656"/>
     </g>
    </g>
    <g id="line2d_20">
     <path d="M 1019.17125 104.739375 
L 1043.17125 104.739375 
L 1067.17125 104.739375 
" style="fill: none; stroke: #ff7f0e; stroke-width: 1.5; stroke-linecap: square"/>
    </g>
    <g id="text_17">
     <!-- Chi fit -->
     <g transform="translate(1086.37125 113.139375) scale(0.24 -0.24)">
      <defs>
       <path id="DejaVuSans-66" d="M 2375 4863 
L 2375 4384 
L 1825 4384 
Q 1516 4384 1395 4259 
Q 1275 4134 1275 3809 
L 1275 3500 
L 2222 3500 
L 2222 3053 
L 1275 3053 
L 1275 0 
L 697 0 
L 697 3053 
L 147 3053 
L 147 3500 
L 697 3500 
L 697 3744 
Q 697 4328 969 4595 
Q 1241 4863 1831 4863 
L 2375 4863 
z
" transform="scale(0.015625)"/>
      </defs>
      <use xlink:href="#DejaVuSans-43"/>
      <use xlink:href="#DejaVuSans-68" x="69.824219"/>
      <use xlink:href="#DejaVuSans-69" x="133.203125"/>
      <use xlink:href="#DejaVuSans-20" x="160.986328"/>
      <use xlink:href="#DejaVuSans-66" x="192.773438"/>
      <use xlink:href="#DejaVuSans-69" x="227.978516"/>
      <use xlink:href="#DejaVuSans-74" x="255.761719"/>
     </g>
    </g>
    <g id="line2d_21">
     <path d="M 1019.17125 139.966875 
L 1043.17125 139.966875 
L 1067.17125 139.966875 
" style="fill: none; stroke: #2ca02c; stroke-width: 1.5; stroke-linecap: square"/>
    </g>
    <g id="text_18">
     <!-- Chi-Square fit -->
     <g transform="translate(1086.37125 148.366875) scale(0.24 -0.24)">
      <defs>
       <path id="DejaVuSans-2d" d="M 313 2009 
L 1997 2009 
L 1997 1497 
L 313 1497 
L 313 2009 
z
" transform="scale(0.015625)"/>
       <path id="DejaVuSans-53" d="M 3425 4513 
L 3425 3897 
Q 3066 4069 2747 4153 
Q 2428 4238 2131 4238 
Q 1616 4238 1336 4038 
Q 1056 3838 1056 3469 
Q 1056 3159 1242 3001 
Q 1428 2844 1947 2747 
L 2328 2669 
Q 3034 2534 3370 2195 
Q 3706 1856 3706 1288 
Q 3706 609 3251 259 
Q 2797 -91 1919 -91 
Q 1588 -91 1214 -16 
Q 841 59 441 206 
L 441 856 
Q 825 641 1194 531 
Q 1563 422 1919 422 
Q 2459 422 2753 634 
Q 3047 847 3047 1241 
Q 3047 1584 2836 1778 
Q 2625 1972 2144 2069 
L 1759 2144 
Q 1053 2284 737 2584 
Q 422 2884 422 3419 
Q 422 4038 858 4394 
Q 1294 4750 2059 4750 
Q 2388 4750 2728 4690 
Q 3069 4631 3425 4513 
z
" transform="scale(0.015625)"/>
       <path id="DejaVuSans-71" d="M 947 1747 
Q 947 1113 1208 752 
Q 1469 391 1925 391 
Q 2381 391 2643 752 
Q 2906 1113 2906 1747 
Q 2906 2381 2643 2742 
Q 2381 3103 1925 3103 
Q 1469 3103 1208 2742 
Q 947 2381 947 1747 
z
M 2906 525 
Q 2725 213 2448 61 
Q 2172 -91 1784 -91 
Q 1150 -91 751 415 
Q 353 922 353 1747 
Q 353 2572 751 3078 
Q 1150 3584 1784 3584 
Q 2172 3584 2448 3432 
Q 2725 3281 2906 2969 
L 2906 3500 
L 3481 3500 
L 3481 -1331 
L 2906 -1331 
L 2906 525 
z
" transform="scale(0.015625)"/>
      </defs>
      <use xlink:href="#DejaVuSans-43"/>
      <use xlink:href="#DejaVuSans-68" x="69.824219"/>
      <use xlink:href="#DejaVuSans-69" x="133.203125"/>
      <use xlink:href="#DejaVuSans-2d" x="160.986328"/>
      <use xlink:href="#DejaVuSans-53" x="197.070312"/>
      <use xlink:href="#DejaVuSans-71" x="260.546875"/>
      <use xlink:href="#DejaVuSans-75" x="324.023438"/>
      <use xlink:href="#DejaVuSans-61" x="387.402344"/>
      <use xlink:href="#DejaVuSans-72" x="448.681641"/>
      <use xlink:href="#DejaVuSans-65" x="487.544922"/>
      <use xlink:href="#DejaVuSans-20" x="549.068359"/>
      <use xlink:href="#DejaVuSans-66" x="580.855469"/>
      <use xlink:href="#DejaVuSans-69" x="616.060547"/>
      <use xlink:href="#DejaVuSans-74" x="643.84375"/>
     </g>
    </g>
    <g id="line2d_22">
     <path d="M 1019.17125 175.194375 
L 1043.17125 175.194375 
L 1067.17125 175.194375 
" style="fill: none; stroke: #d62728; stroke-width: 1.5; stroke-linecap: square"/>
    </g>
    <g id="text_19">
     <!-- Exponential fit -->
     <g transform="translate(1086.37125 183.594375) scale(0.24 -0.24)">
      <defs>
       <path id="DejaVuSans-45" d="M 628 4666 
L 3578 4666 
L 3578 4134 
L 1259 4134 
L 1259 2753 
L 3481 2753 
L 3481 2222 
L 1259 2222 
L 1259 531 
L 3634 531 
L 3634 0 
L 628 0 
L 628 4666 
z
" transform="scale(0.015625)"/>
       <path id="DejaVuSans-78" d="M 3513 3500 
L 2247 1797 
L 3578 0 
L 2900 0 
L 1881 1375 
L 863 0 
L 184 0 
L 1544 1831 
L 300 3500 
L 978 3500 
L 1906 2253 
L 2834 3500 
L 3513 3500 
z
" transform="scale(0.015625)"/>
       <path id="DejaVuSans-70" d="M 1159 525 
L 1159 -1331 
L 581 -1331 
L 581 3500 
L 1159 3500 
L 1159 2969 
Q 1341 3281 1617 3432 
Q 1894 3584 2278 3584 
Q 2916 3584 3314 3078 
Q 3713 2572 3713 1747 
Q 3713 922 3314 415 
Q 2916 -91 2278 -91 
Q 1894 -91 1617 61 
Q 1341 213 1159 525 
z
M 3116 1747 
Q 3116 2381 2855 2742 
Q 2594 3103 2138 3103 
Q 1681 3103 1420 2742 
Q 1159 2381 1159 1747 
Q 1159 1113 1420 752 
Q 1681 391 2138 391 
Q 2594 391 2855 752 
Q 3116 1113 3116 1747 
z
" transform="scale(0.015625)"/>
      </defs>
      <use xlink:href="#DejaVuSans-45"/>
      <use xlink:href="#DejaVuSans-78" x="63.183594"/>
      <use xlink:href="#DejaVuSans-70" x="122.363281"/>
      <use xlink:href="#DejaVuSans-6f" x="185.839844"/>
      <use xlink:href="#DejaVuSans-6e" x="247.021484"/>
      <use xlink:href="#DejaVuSans-65" x="310.400391"/>
      <use xlink:href="#DejaVuSans-6e" x="371.923828"/>
      <use xlink:href="#DejaVuSans-74" x="435.302734"/>
      <use xlink:href="#DejaVuSans-69" x="474.511719"/>
      <use xlink:href="#DejaVuSans-61" x="502.294922"/>
      <use xlink:href="#DejaVuSans-6c" x="563.574219"/>
      <use xlink:href="#DejaVuSans-20" x="591.357422"/>
      <use xlink:href="#DejaVuSans-66" x="623.144531"/>
      <use xlink:href="#DejaVuSans-69" x="658.349609"/>
      <use xlink:href="#DejaVuSans-74" x="686.132812"/>
     </g>
    </g>
    <g id="line2d_23">
     <path d="M 1019.17125 210.421875 
L 1043.17125 210.421875 
L 1067.17125 210.421875 
" style="fill: none; stroke: #9467bd; stroke-width: 1.5; stroke-linecap: square"/>
    </g>
    <g id="text_20">
     <!-- Laplace fit -->
     <g transform="translate(1086.37125 218.821875) scale(0.24 -0.24)">
      <defs>
       <path id="DejaVuSans-4c" d="M 628 4666 
L 1259 4666 
L 1259 531 
L 3531 531 
L 3531 0 
L 628 0 
L 628 4666 
z
" transform="scale(0.015625)"/>
       <path id="DejaVuSans-63" d="M 3122 3366 
L 3122 2828 
Q 2878 2963 2633 3030 
Q 2388 3097 2138 3097 
Q 1578 3097 1268 2742 
Q 959 2388 959 1747 
Q 959 1106 1268 751 
Q 1578 397 2138 397 
Q 2388 397 2633 464 
Q 2878 531 3122 666 
L 3122 134 
Q 2881 22 2623 -34 
Q 2366 -91 2075 -91 
Q 1284 -91 818 406 
Q 353 903 353 1747 
Q 353 2603 823 3093 
Q 1294 3584 2113 3584 
Q 2378 3584 2631 3529 
Q 2884 3475 3122 3366 
z
" transform="scale(0.015625)"/>
      </defs>
      <use xlink:href="#DejaVuSans-4c"/>
      <use xlink:href="#DejaVuSans-61" x="55.712891"/>
      <use xlink:href="#DejaVuSans-70" x="116.992188"/>
      <use xlink:href="#DejaVuSans-6c" x="180.46875"/>
      <use xlink:href="#DejaVuSans-61" x="208.251953"/>
      <use xlink:href="#DejaVuSans-63" x="269.53125"/>
      <use xlink:href="#DejaVuSans-65" x="324.511719"/>
      <use xlink:href="#DejaVuSans-20" x="386.035156"/>
      <use xlink:href="#DejaVuSans-66" x="417.822266"/>
      <use xlink:href="#DejaVuSans-69" x="453.027344"/>
      <use xlink:href="#DejaVuSans-74" x="480.810547"/>
     </g>
    </g>
    <g id="line2d_24">
     <path d="M 1019.17125 245.649375 
L 1043.17125 245.649375 
L 1067.17125 245.649375 
" style="fill: none; stroke: #8c564b; stroke-width: 1.5; stroke-linecap: square"/>
    </g>
    <g id="text_21">
     <!-- LogNorm fit -->
     <g transform="translate(1086.37125 254.049375) scale(0.24 -0.24)">
      <defs>
       <path id="DejaVuSans-67" d="M 2906 1791 
Q 2906 2416 2648 2759 
Q 2391 3103 1925 3103 
Q 1463 3103 1205 2759 
Q 947 2416 947 1791 
Q 947 1169 1205 825 
Q 1463 481 1925 481 
Q 2391 481 2648 825 
Q 2906 1169 2906 1791 
z
M 3481 434 
Q 3481 -459 3084 -895 
Q 2688 -1331 1869 -1331 
Q 1566 -1331 1297 -1286 
Q 1028 -1241 775 -1147 
L 775 -588 
Q 1028 -725 1275 -790 
Q 1522 -856 1778 -856 
Q 2344 -856 2625 -561 
Q 2906 -266 2906 331 
L 2906 616 
Q 2728 306 2450 153 
Q 2172 0 1784 0 
Q 1141 0 747 490 
Q 353 981 353 1791 
Q 353 2603 747 3093 
Q 1141 3584 1784 3584 
Q 2172 3584 2450 3431 
Q 2728 3278 2906 2969 
L 2906 3500 
L 3481 3500 
L 3481 434 
z
" transform="scale(0.015625)"/>
      </defs>
      <use xlink:href="#DejaVuSans-4c"/>
      <use xlink:href="#DejaVuSans-6f" x="53.962891"/>
      <use xlink:href="#DejaVuSans-67" x="115.144531"/>
      <use xlink:href="#DejaVuSans-4e" x="178.621094"/>
      <use xlink:href="#DejaVuSans-6f" x="253.425781"/>
      <use xlink:href="#DejaVuSans-72" x="314.607422"/>
      <use xlink:href="#DejaVuSans-6d" x="353.970703"/>
      <use xlink:href="#DejaVuSans-20" x="451.382812"/>
      <use xlink:href="#DejaVuSans-66" x="483.169922"/>
      <use xlink:href="#DejaVuSans-69" x="518.375"/>
      <use xlink:href="#DejaVuSans-74" x="546.158203"/>
     </g>
    </g>
    <g id="line2d_25">
     <path d="M 1019.17125 280.876875 
L 1043.17125 280.876875 
L 1067.17125 280.876875 
" style="fill: none; stroke: #e377c2; stroke-width: 1.5; stroke-linecap: square"/>
    </g>
    <g id="text_22">
     <!-- Normal fit -->
     <g transform="translate(1086.37125 289.276875) scale(0.24 -0.24)">
      <use xlink:href="#DejaVuSans-4e"/>
      <use xlink:href="#DejaVuSans-6f" x="74.804688"/>
      <use xlink:href="#DejaVuSans-72" x="135.986328"/>
      <use xlink:href="#DejaVuSans-6d" x="175.349609"/>
      <use xlink:href="#DejaVuSans-61" x="272.761719"/>
      <use xlink:href="#DejaVuSans-6c" x="334.041016"/>
      <use xlink:href="#DejaVuSans-20" x="361.824219"/>
      <use xlink:href="#DejaVuSans-66" x="393.611328"/>
      <use xlink:href="#DejaVuSans-69" x="428.816406"/>
      <use xlink:href="#DejaVuSans-74" x="456.599609"/>
     </g>
    </g>
   </g>
  </g>
 </g>
 <defs>
  <clipPath id="p3d166f68bc">
   <rect x="72.685313" y="38.075625" width="1356.514688" height="790.70375"/>
  </clipPath>
 </defs>
</svg>
