<?xml version="1.0" encoding="utf-8" standalone="no"?>
<!DOCTYPE svg PUBLIC "-//W3C//DTD SVG 1.1//EN"
  "http://www.w3.org/Graphics/SVG/1.1/DTD/svg11.dtd">
<svg xmlns:xlink="http://www.w3.org/1999/xlink" width="1296pt" height="792pt" viewBox="0 0 1296 792" xmlns="http://www.w3.org/2000/svg" version="1.1">
 <metadata>
  <rdf:RDF xmlns:dc="http://purl.org/dc/elements/1.1/" xmlns:cc="http://creativecommons.org/ns#" xmlns:rdf="http://www.w3.org/1999/02/22-rdf-syntax-ns#">
   <cc:Work>
    <dc:type rdf:resource="http://purl.org/dc/dcmitype/StillImage"/>
    <dc:date>2025-06-26T13:56:56.956795</dc:date>
    <dc:format>image/svg+xml</dc:format>
    <dc:creator>
     <cc:Agent>
      <dc:title>Matplotlib v3.10.0, https://matplotlib.org/</dc:title>
     </cc:Agent>
    </dc:creator>
   </cc:Work>
  </rdf:RDF>
 </metadata>
 <defs>
  <style type="text/css">*{stroke-linejoin: round; stroke-linecap: butt}</style>
 </defs>
 <g id="figure_1">
  <g id="patch_1">
   <path d="M 0 792 
L 1296 792 
L 1296 0 
L 0 0 
z
" style="fill: #ffffff"/>
  </g>
  <g id="axes_1">
   <g id="patch_2">
    <path d="M 104.312 240.706667 
L 1194.982 240.706667 
L 1194.982 38.4 
L 104.312 38.4 
z
" style="fill: #ffffff"/>
   </g>
   <g id="patch_3">
    <path d="M 126.021891 139.553333 
L 129.7211 139.553333 
L 129.7211 184.300819 
L 126.021891 184.300819 
z
" clip-path="url(#p2da87a399c)" style="fill: #ff0000; opacity: 0.5; stroke: #ff0000; stroke-width: 1.5; stroke-linejoin: miter"/>
   </g>
   <g id="patch_4">
    <path d="M 129.922766 139.553333 
L 131.474048 139.553333 
L 131.474048 135.619808 
L 129.922766 135.619808 
z
" clip-path="url(#p2da87a399c)" style="fill: #ff0000; opacity: 0.5; stroke: #ff0000; stroke-width: 1.5; stroke-linejoin: miter"/>
   </g>
   <g id="patch_5">
    <path d="M 188.704045 139.553333 
L 194.431852 139.553333 
L 194.431852 83.543026 
L 188.704045 83.543026 
z
" clip-path="url(#p2da87a399c)" style="fill: #ff0000; opacity: 0.5; stroke: #ff0000; stroke-width: 1.5; stroke-linejoin: miter"/>
   </g>
   <g id="patch_6">
    <path d="M 235.357049 139.553333 
L 238.220953 139.553333 
L 238.220953 165.998021 
L 235.357049 165.998021 
z
" clip-path="url(#p2da87a399c)" style="fill: #ff0000; opacity: 0.5; stroke: #ff0000; stroke-width: 1.5; stroke-linejoin: miter"/>
   </g>
   <g id="patch_7">
    <path d="M 238.657698 139.553333 
L 242.714895 139.553333 
L 242.714895 177.016641 
L 238.657698 177.016641 
z
" clip-path="url(#p2da87a399c)" style="fill: #ff0000; opacity: 0.5; stroke: #ff0000; stroke-width: 1.5; stroke-linejoin: miter"/>
   </g>
   <g id="patch_8">
    <path d="M 283.604293 139.553333 
L 289.332101 139.553333 
L 289.332101 77.15264 
L 283.604293 77.15264 
z
" clip-path="url(#p2da87a399c)" style="fill: #ff0000; opacity: 0.5; stroke: #ff0000; stroke-width: 1.5; stroke-linejoin: miter"/>
   </g>
   <g id="patch_9">
    <path d="M 330.221499 139.553333 
L 334.278696 139.553333 
L 334.278696 179.211037 
L 330.221499 179.211037 
z
" clip-path="url(#p2da87a399c)" style="fill: #ff0000; opacity: 0.5; stroke: #ff0000; stroke-width: 1.5; stroke-linejoin: miter"/>
   </g>
   <g id="patch_10">
    <path d="M 334.716634 139.553333 
L 338.773831 139.553333 
L 338.773831 179.211037 
L 334.716634 179.211037 
z
" clip-path="url(#p2da87a399c)" style="fill: #ff0000; opacity: 0.5; stroke: #ff0000; stroke-width: 1.5; stroke-linejoin: miter"/>
   </g>
   <g id="patch_11">
    <path d="M 374.246859 139.553333 
L 379.974666 139.553333 
L 379.974666 136.985718 
L 374.246859 136.985718 
z
" clip-path="url(#p2da87a399c)" style="fill: #ff0000; opacity: 0.5; stroke: #ff0000; stroke-width: 1.5; stroke-linejoin: miter"/>
   </g>
   <g id="patch_12">
    <path d="M 412.312912 139.553333 
L 418.04072 139.553333 
L 418.04072 156.693194 
L 412.312912 156.693194 
z
" clip-path="url(#p2da87a399c)" style="fill: #ff0000; opacity: 0.5; stroke: #ff0000; stroke-width: 1.5; stroke-linejoin: miter"/>
   </g>
   <g id="patch_13">
    <path d="M 445.291957 139.553333 
L 449.349154 139.553333 
L 449.349154 119.898481 
L 445.291957 119.898481 
z
" clip-path="url(#p2da87a399c)" style="fill: #ff0000; opacity: 0.5; stroke: #ff0000; stroke-width: 1.5; stroke-linejoin: miter"/>
   </g>
   <g id="patch_14">
    <path d="M 586.002706 139.553333 
L 593.603984 139.553333 
L 593.603984 232.274136 
L 586.002706 232.274136 
z
" clip-path="url(#p2da87a399c)" style="fill: #ff0000; opacity: 0.5; stroke: #ff0000; stroke-width: 1.5; stroke-linejoin: miter"/>
   </g>
   <g id="patch_15">
    <path d="M 597.082434 139.553333 
L 603.645546 139.553333 
L 603.645546 59.610281 
L 597.082434 59.610281 
z
" clip-path="url(#p2da87a399c)" style="fill: #ff0000; opacity: 0.5; stroke: #ff0000; stroke-width: 1.5; stroke-linejoin: miter"/>
   </g>
   <g id="patch_16">
    <path d="M 604.83884 139.553333 
L 611.401952 139.553333 
L 611.401952 59.610281 
L 604.83884 59.610281 
z
" clip-path="url(#p2da87a399c)" style="fill: #ff0000; opacity: 0.5; stroke: #ff0000; stroke-width: 1.5; stroke-linejoin: miter"/>
   </g>
   <g id="patch_17">
    <path d="M 614.641743 139.553333 
L 622.243021 139.553333 
L 622.243021 231.62157 
L 614.641743 231.62157 
z
" clip-path="url(#p2da87a399c)" style="fill: #ff0000; opacity: 0.5; stroke: #ff0000; stroke-width: 1.5; stroke-linejoin: miter"/>
   </g>
   <g id="patch_18">
    <path d="M 677.050979 139.553333 
L 684.652257 139.553333 
L 684.652257 47.485096 
L 677.050979 47.485096 
z
" clip-path="url(#p2da87a399c)" style="fill: #ff0000; opacity: 0.5; stroke: #ff0000; stroke-width: 1.5; stroke-linejoin: miter"/>
   </g>
   <g id="patch_19">
    <path d="M 687.892048 139.553333 
L 694.45516 139.553333 
L 694.45516 219.496385 
L 687.892048 219.496385 
z
" clip-path="url(#p2da87a399c)" style="fill: #ff0000; opacity: 0.5; stroke: #ff0000; stroke-width: 1.5; stroke-linejoin: miter"/>
   </g>
   <g id="patch_20">
    <path d="M 695.648454 139.553333 
L 702.211566 139.553333 
L 702.211566 219.496385 
L 695.648454 219.496385 
z
" clip-path="url(#p2da87a399c)" style="fill: #ff0000; opacity: 0.5; stroke: #ff0000; stroke-width: 1.5; stroke-linejoin: miter"/>
   </g>
   <g id="patch_21">
    <path d="M 705.690016 139.553333 
L 713.291294 139.553333 
L 713.291294 46.832531 
L 705.690016 46.832531 
z
" clip-path="url(#p2da87a399c)" style="fill: #ff0000; opacity: 0.5; stroke: #ff0000; stroke-width: 1.5; stroke-linejoin: miter"/>
   </g>
   <g id="patch_22">
    <path d="M 849.944846 139.553333 
L 854.002043 139.553333 
L 854.002043 159.208185 
L 849.944846 159.208185 
z
" clip-path="url(#p2da87a399c)" style="fill: #ff0000; opacity: 0.5; stroke: #ff0000; stroke-width: 1.5; stroke-linejoin: miter"/>
   </g>
   <g id="patch_23">
    <path d="M 881.25328 139.553333 
L 886.981088 139.553333 
L 886.981088 123.666211 
L 881.25328 123.666211 
z
" clip-path="url(#p2da87a399c)" style="fill: #ff0000; opacity: 0.5; stroke: #ff0000; stroke-width: 1.5; stroke-linejoin: miter"/>
   </g>
   <g id="patch_24">
    <path d="M 919.319334 139.553333 
L 925.047141 139.553333 
L 925.047141 142.120948 
L 919.319334 142.120948 
z
" clip-path="url(#p2da87a399c)" style="fill: #ff0000; opacity: 0.5; stroke: #ff0000; stroke-width: 1.5; stroke-linejoin: miter"/>
   </g>
   <g id="patch_25">
    <path d="M 959.908009 139.553333 
L 963.965206 139.553333 
L 963.965206 101.886851 
L 959.908009 101.886851 
z
" clip-path="url(#p2da87a399c)" style="fill: #ff0000; opacity: 0.5; stroke: #ff0000; stroke-width: 1.5; stroke-linejoin: miter"/>
   </g>
   <g id="patch_26">
    <path d="M 964.403145 139.553333 
L 968.460342 139.553333 
L 968.460342 101.886851 
L 964.403145 101.886851 
z
" clip-path="url(#p2da87a399c)" style="fill: #ff0000; opacity: 0.5; stroke: #ff0000; stroke-width: 1.5; stroke-linejoin: miter"/>
   </g>
   <g id="patch_27">
    <path d="M 1009.356874 139.553333 
L 1015.084682 139.553333 
L 1015.084682 197.857409 
L 1009.356874 197.857409 
z
" clip-path="url(#p2da87a399c)" style="fill: #ff0000; opacity: 0.5; stroke: #ff0000; stroke-width: 1.5; stroke-linejoin: miter"/>
   </g>
   <g id="patch_28">
    <path d="M 1056.01224 139.553333 
L 1058.876144 139.553333 
L 1058.876144 113.372104 
L 1056.01224 113.372104 
z
" clip-path="url(#p2da87a399c)" style="fill: #ff0000; opacity: 0.5; stroke: #ff0000; stroke-width: 1.5; stroke-linejoin: miter"/>
   </g>
   <g id="patch_29">
    <path d="M 1059.312889 139.553333 
L 1063.370086 139.553333 
L 1063.370086 102.463259 
L 1059.312889 102.463259 
z
" clip-path="url(#p2da87a399c)" style="fill: #ff0000; opacity: 0.5; stroke: #ff0000; stroke-width: 1.5; stroke-linejoin: miter"/>
   </g>
   <g id="patch_30">
    <path d="M 1104.261845 139.553333 
L 1109.989653 139.553333 
L 1109.989653 192.441853 
L 1104.261845 192.441853 
z
" clip-path="url(#p2da87a399c)" style="fill: #ff0000; opacity: 0.5; stroke: #ff0000; stroke-width: 1.5; stroke-linejoin: miter"/>
   </g>
   <g id="patch_31">
    <path d="M 1167.54778 139.553333 
L 1171.246989 139.553333 
L 1171.246989 94.813332 
L 1167.54778 94.813332 
z
" clip-path="url(#p2da87a399c)" style="fill: #ff0000; opacity: 0.5; stroke: #ff0000; stroke-width: 1.5; stroke-linejoin: miter"/>
   </g>
   <g id="patch_32">
    <path d="M 1171.448656 139.553333 
L 1172.999937 139.553333 
L 1172.999937 139.999195 
L 1171.448656 139.999195 
z
" clip-path="url(#p2da87a399c)" style="fill: #ff0000; opacity: 0.5; stroke: #ff0000; stroke-width: 1.5; stroke-linejoin: miter"/>
   </g>
   <g id="matplotlib.axis_1">
    <g id="xtick_1">
     <g id="line2d_1">
      <defs>
       <path id="md531abadd3" d="M 0 0 
L 0 3.5 
" style="stroke: #000000; stroke-width: 0.8"/>
      </defs>
      <g>
       <use xlink:href="#md531abadd3" x="268.545403" y="240.706667" style="stroke: #000000; stroke-width: 0.8"/>
      </g>
     </g>
     <g id="text_1">
      <!-- 23200 -->
      <g transform="translate(239.914153 261.383854) scale(0.18 -0.18)">
       <defs>
        <path id="DejaVuSans-32" d="M 1228 531 
L 3431 531 
L 3431 0 
L 469 0 
L 469 531 
Q 828 903 1448 1529 
Q 2069 2156 2228 2338 
Q 2531 2678 2651 2914 
Q 2772 3150 2772 3378 
Q 2772 3750 2511 3984 
Q 2250 4219 1831 4219 
Q 1534 4219 1204 4116 
Q 875 4013 500 3803 
L 500 4441 
Q 881 4594 1212 4672 
Q 1544 4750 1819 4750 
Q 2544 4750 2975 4387 
Q 3406 4025 3406 3419 
Q 3406 3131 3298 2873 
Q 3191 2616 2906 2266 
Q 2828 2175 2409 1742 
Q 1991 1309 1228 531 
z
" transform="scale(0.015625)"/>
        <path id="DejaVuSans-33" d="M 2597 2516 
Q 3050 2419 3304 2112 
Q 3559 1806 3559 1356 
Q 3559 666 3084 287 
Q 2609 -91 1734 -91 
Q 1441 -91 1130 -33 
Q 819 25 488 141 
L 488 750 
Q 750 597 1062 519 
Q 1375 441 1716 441 
Q 2309 441 2620 675 
Q 2931 909 2931 1356 
Q 2931 1769 2642 2001 
Q 2353 2234 1838 2234 
L 1294 2234 
L 1294 2753 
L 1863 2753 
Q 2328 2753 2575 2939 
Q 2822 3125 2822 3475 
Q 2822 3834 2567 4026 
Q 2313 4219 1838 4219 
Q 1578 4219 1281 4162 
Q 984 4106 628 3988 
L 628 4550 
Q 988 4650 1302 4700 
Q 1616 4750 1894 4750 
Q 2613 4750 3031 4423 
Q 3450 4097 3450 3541 
Q 3450 3153 3228 2886 
Q 3006 2619 2597 2516 
z
" transform="scale(0.015625)"/>
        <path id="DejaVuSans-30" d="M 2034 4250 
Q 1547 4250 1301 3770 
Q 1056 3291 1056 2328 
Q 1056 1369 1301 889 
Q 1547 409 2034 409 
Q 2525 409 2770 889 
Q 3016 1369 3016 2328 
Q 3016 3291 2770 3770 
Q 2525 4250 2034 4250 
z
M 2034 4750 
Q 2819 4750 3233 4129 
Q 3647 3509 3647 2328 
Q 3647 1150 3233 529 
Q 2819 -91 2034 -91 
Q 1250 -91 836 529 
Q 422 1150 422 2328 
Q 422 3509 836 4129 
Q 1250 4750 2034 4750 
z
" transform="scale(0.015625)"/>
       </defs>
       <use xlink:href="#DejaVuSans-32"/>
       <use xlink:href="#DejaVuSans-33" transform="translate(63.623047 0)"/>
       <use xlink:href="#DejaVuSans-32" transform="translate(127.246094 0)"/>
       <use xlink:href="#DejaVuSans-30" transform="translate(190.869141 0)"/>
       <use xlink:href="#DejaVuSans-30" transform="translate(254.492188 0)"/>
      </g>
     </g>
    </g>
    <g id="xtick_2">
     <g id="line2d_2">
      <g>
       <use xlink:href="#md531abadd3" x="507.204047" y="240.706667" style="stroke: #000000; stroke-width: 0.8"/>
      </g>
     </g>
     <g id="text_2">
      <!-- 23400 -->
      <g transform="translate(478.572797 261.383854) scale(0.18 -0.18)">
       <defs>
        <path id="DejaVuSans-34" d="M 2419 4116 
L 825 1625 
L 2419 1625 
L 2419 4116 
z
M 2253 4666 
L 3047 4666 
L 3047 1625 
L 3713 1625 
L 3713 1100 
L 3047 1100 
L 3047 0 
L 2419 0 
L 2419 1100 
L 313 1100 
L 313 1709 
L 2253 4666 
z
" transform="scale(0.015625)"/>
       </defs>
       <use xlink:href="#DejaVuSans-32"/>
       <use xlink:href="#DejaVuSans-33" transform="translate(63.623047 0)"/>
       <use xlink:href="#DejaVuSans-34" transform="translate(127.246094 0)"/>
       <use xlink:href="#DejaVuSans-30" transform="translate(190.869141 0)"/>
       <use xlink:href="#DejaVuSans-30" transform="translate(254.492188 0)"/>
      </g>
     </g>
    </g>
    <g id="xtick_3">
     <g id="line2d_3">
      <g>
       <use xlink:href="#md531abadd3" x="745.86269" y="240.706667" style="stroke: #000000; stroke-width: 0.8"/>
      </g>
     </g>
     <g id="text_3">
      <!-- 23600 -->
      <g transform="translate(717.23144 261.383854) scale(0.18 -0.18)">
       <defs>
        <path id="DejaVuSans-36" d="M 2113 2584 
Q 1688 2584 1439 2293 
Q 1191 2003 1191 1497 
Q 1191 994 1439 701 
Q 1688 409 2113 409 
Q 2538 409 2786 701 
Q 3034 994 3034 1497 
Q 3034 2003 2786 2293 
Q 2538 2584 2113 2584 
z
M 3366 4563 
L 3366 3988 
Q 3128 4100 2886 4159 
Q 2644 4219 2406 4219 
Q 1781 4219 1451 3797 
Q 1122 3375 1075 2522 
Q 1259 2794 1537 2939 
Q 1816 3084 2150 3084 
Q 2853 3084 3261 2657 
Q 3669 2231 3669 1497 
Q 3669 778 3244 343 
Q 2819 -91 2113 -91 
Q 1303 -91 875 529 
Q 447 1150 447 2328 
Q 447 3434 972 4092 
Q 1497 4750 2381 4750 
Q 2619 4750 2861 4703 
Q 3103 4656 3366 4563 
z
" transform="scale(0.015625)"/>
       </defs>
       <use xlink:href="#DejaVuSans-32"/>
       <use xlink:href="#DejaVuSans-33" transform="translate(63.623047 0)"/>
       <use xlink:href="#DejaVuSans-36" transform="translate(127.246094 0)"/>
       <use xlink:href="#DejaVuSans-30" transform="translate(190.869141 0)"/>
       <use xlink:href="#DejaVuSans-30" transform="translate(254.492188 0)"/>
      </g>
     </g>
    </g>
    <g id="xtick_4">
     <g id="line2d_4">
      <g>
       <use xlink:href="#md531abadd3" x="984.521333" y="240.706667" style="stroke: #000000; stroke-width: 0.8"/>
      </g>
     </g>
     <g id="text_4">
      <!-- 23800 -->
      <g transform="translate(955.890083 261.383854) scale(0.18 -0.18)">
       <defs>
        <path id="DejaVuSans-38" d="M 2034 2216 
Q 1584 2216 1326 1975 
Q 1069 1734 1069 1313 
Q 1069 891 1326 650 
Q 1584 409 2034 409 
Q 2484 409 2743 651 
Q 3003 894 3003 1313 
Q 3003 1734 2745 1975 
Q 2488 2216 2034 2216 
z
M 1403 2484 
Q 997 2584 770 2862 
Q 544 3141 544 3541 
Q 544 4100 942 4425 
Q 1341 4750 2034 4750 
Q 2731 4750 3128 4425 
Q 3525 4100 3525 3541 
Q 3525 3141 3298 2862 
Q 3072 2584 2669 2484 
Q 3125 2378 3379 2068 
Q 3634 1759 3634 1313 
Q 3634 634 3220 271 
Q 2806 -91 2034 -91 
Q 1263 -91 848 271 
Q 434 634 434 1313 
Q 434 1759 690 2068 
Q 947 2378 1403 2484 
z
M 1172 3481 
Q 1172 3119 1398 2916 
Q 1625 2713 2034 2713 
Q 2441 2713 2670 2916 
Q 2900 3119 2900 3481 
Q 2900 3844 2670 4047 
Q 2441 4250 2034 4250 
Q 1625 4250 1398 4047 
Q 1172 3844 1172 3481 
z
" transform="scale(0.015625)"/>
       </defs>
       <use xlink:href="#DejaVuSans-32"/>
       <use xlink:href="#DejaVuSans-33" transform="translate(63.623047 0)"/>
       <use xlink:href="#DejaVuSans-38" transform="translate(127.246094 0)"/>
       <use xlink:href="#DejaVuSans-30" transform="translate(190.869141 0)"/>
       <use xlink:href="#DejaVuSans-30" transform="translate(254.492188 0)"/>
      </g>
     </g>
    </g>
   </g>
   <g id="matplotlib.axis_2">
    <g id="ytick_1">
     <g id="line2d_5">
      <defs>
       <path id="md0688a415a" d="M 0 0 
L -3.5 0 
" style="stroke: #000000; stroke-width: 0.8"/>
      </defs>
      <g>
       <use xlink:href="#md0688a415a" x="104.312" y="222.465902" style="stroke: #000000; stroke-width: 0.8"/>
      </g>
     </g>
     <g id="text_5">
      <!-- −0.050 -->
      <g style="fill: #ff0000" transform="translate(30.697937 229.304495) scale(0.18 -0.18)">
       <defs>
        <path id="DejaVuSans-2212" d="M 678 2272 
L 4684 2272 
L 4684 1741 
L 678 1741 
L 678 2272 
z
" transform="scale(0.015625)"/>
        <path id="DejaVuSans-2e" d="M 684 794 
L 1344 794 
L 1344 0 
L 684 0 
L 684 794 
z
" transform="scale(0.015625)"/>
        <path id="DejaVuSans-35" d="M 691 4666 
L 3169 4666 
L 3169 4134 
L 1269 4134 
L 1269 2991 
Q 1406 3038 1543 3061 
Q 1681 3084 1819 3084 
Q 2600 3084 3056 2656 
Q 3513 2228 3513 1497 
Q 3513 744 3044 326 
Q 2575 -91 1722 -91 
Q 1428 -91 1123 -41 
Q 819 9 494 109 
L 494 744 
Q 775 591 1075 516 
Q 1375 441 1709 441 
Q 2250 441 2565 725 
Q 2881 1009 2881 1497 
Q 2881 1984 2565 2268 
Q 2250 2553 1709 2553 
Q 1456 2553 1204 2497 
Q 953 2441 691 2322 
L 691 4666 
z
" transform="scale(0.015625)"/>
       </defs>
       <use xlink:href="#DejaVuSans-2212"/>
       <use xlink:href="#DejaVuSans-30" transform="translate(83.789062 0)"/>
       <use xlink:href="#DejaVuSans-2e" transform="translate(147.412109 0)"/>
       <use xlink:href="#DejaVuSans-30" transform="translate(179.199219 0)"/>
       <use xlink:href="#DejaVuSans-35" transform="translate(242.822266 0)"/>
       <use xlink:href="#DejaVuSans-30" transform="translate(306.445312 0)"/>
      </g>
     </g>
    </g>
    <g id="ytick_2">
     <g id="line2d_6">
      <g>
       <use xlink:href="#md0688a415a" x="104.312" y="181.009617" style="stroke: #000000; stroke-width: 0.8"/>
      </g>
     </g>
     <g id="text_6">
      <!-- −0.025 -->
      <g style="fill: #ff0000" transform="translate(30.697937 187.848211) scale(0.18 -0.18)">
       <use xlink:href="#DejaVuSans-2212"/>
       <use xlink:href="#DejaVuSans-30" transform="translate(83.789062 0)"/>
       <use xlink:href="#DejaVuSans-2e" transform="translate(147.412109 0)"/>
       <use xlink:href="#DejaVuSans-30" transform="translate(179.199219 0)"/>
       <use xlink:href="#DejaVuSans-32" transform="translate(242.822266 0)"/>
       <use xlink:href="#DejaVuSans-35" transform="translate(306.445312 0)"/>
      </g>
     </g>
    </g>
    <g id="ytick_3">
     <g id="line2d_7">
      <g>
       <use xlink:href="#md0688a415a" x="104.312" y="139.553333" style="stroke: #000000; stroke-width: 0.8"/>
      </g>
     </g>
     <g id="text_7">
      <!-- 0.000 -->
      <g style="fill: #ff0000" transform="translate(45.781375 146.391927) scale(0.18 -0.18)">
       <use xlink:href="#DejaVuSans-30"/>
       <use xlink:href="#DejaVuSans-2e" transform="translate(63.623047 0)"/>
       <use xlink:href="#DejaVuSans-30" transform="translate(95.410156 0)"/>
       <use xlink:href="#DejaVuSans-30" transform="translate(159.033203 0)"/>
       <use xlink:href="#DejaVuSans-30" transform="translate(222.65625 0)"/>
      </g>
     </g>
    </g>
    <g id="ytick_4">
     <g id="line2d_8">
      <g>
       <use xlink:href="#md0688a415a" x="104.312" y="98.097049" style="stroke: #000000; stroke-width: 0.8"/>
      </g>
     </g>
     <g id="text_8">
      <!-- 0.025 -->
      <g style="fill: #ff0000" transform="translate(45.781375 104.935643) scale(0.18 -0.18)">
       <use xlink:href="#DejaVuSans-30"/>
       <use xlink:href="#DejaVuSans-2e" transform="translate(63.623047 0)"/>
       <use xlink:href="#DejaVuSans-30" transform="translate(95.410156 0)"/>
       <use xlink:href="#DejaVuSans-32" transform="translate(159.033203 0)"/>
       <use xlink:href="#DejaVuSans-35" transform="translate(222.65625 0)"/>
      </g>
     </g>
    </g>
    <g id="ytick_5">
     <g id="line2d_9">
      <g>
       <use xlink:href="#md0688a415a" x="104.312" y="56.640765" style="stroke: #000000; stroke-width: 0.8"/>
      </g>
     </g>
     <g id="text_9">
      <!-- 0.050 -->
      <g style="fill: #ff0000" transform="translate(45.781375 63.479359) scale(0.18 -0.18)">
       <use xlink:href="#DejaVuSans-30"/>
       <use xlink:href="#DejaVuSans-2e" transform="translate(63.623047 0)"/>
       <use xlink:href="#DejaVuSans-30" transform="translate(95.410156 0)"/>
       <use xlink:href="#DejaVuSans-35" transform="translate(159.033203 0)"/>
       <use xlink:href="#DejaVuSans-30" transform="translate(222.65625 0)"/>
      </g>
     </g>
    </g>
    <g id="text_10">
     <!-- $1/f=K_{1}L$ $[m^{-1}]$ -->
     <g style="fill: #ff0000" transform="translate(21.914656 224.883333) rotate(-90) scale(0.23 -0.23)">
      <defs>
       <path id="DejaVuSans-31" d="M 794 531 
L 1825 531 
L 1825 4091 
L 703 3866 
L 703 4441 
L 1819 4666 
L 2450 4666 
L 2450 531 
L 3481 531 
L 3481 0 
L 794 0 
L 794 531 
z
" transform="scale(0.015625)"/>
       <path id="DejaVuSans-2f" d="M 1625 4666 
L 2156 4666 
L 531 -594 
L 0 -594 
L 1625 4666 
z
" transform="scale(0.015625)"/>
       <path id="DejaVuSans-Oblique-66" d="M 3059 4863 
L 2969 4384 
L 2419 4384 
Q 2106 4384 1964 4261 
Q 1822 4138 1753 3809 
L 1691 3500 
L 2638 3500 
L 2553 3053 
L 1606 3053 
L 1013 0 
L 434 0 
L 1031 3053 
L 481 3053 
L 563 3500 
L 1113 3500 
L 1159 3744 
Q 1278 4363 1576 4613 
Q 1875 4863 2516 4863 
L 3059 4863 
z
" transform="scale(0.015625)"/>
       <path id="DejaVuSans-3d" d="M 678 2906 
L 4684 2906 
L 4684 2381 
L 678 2381 
L 678 2906 
z
M 678 1631 
L 4684 1631 
L 4684 1100 
L 678 1100 
L 678 1631 
z
" transform="scale(0.015625)"/>
       <path id="DejaVuSans-Oblique-4b" d="M 1081 4666 
L 1716 4666 
L 1331 2700 
L 3781 4666 
L 4622 4666 
L 1850 2438 
L 3878 0 
L 3109 0 
L 1247 2272 
L 806 0 
L 172 0 
L 1081 4666 
z
" transform="scale(0.015625)"/>
       <path id="DejaVuSans-Oblique-4c" d="M 1075 4666 
L 1709 4666 
L 909 525 
L 3181 525 
L 3078 0 
L 172 0 
L 1075 4666 
z
" transform="scale(0.015625)"/>
       <path id="DejaVuSans-20" transform="scale(0.015625)"/>
       <path id="DejaVuSans-5b" d="M 550 4863 
L 1875 4863 
L 1875 4416 
L 1125 4416 
L 1125 -397 
L 1875 -397 
L 1875 -844 
L 550 -844 
L 550 4863 
z
" transform="scale(0.015625)"/>
       <path id="DejaVuSans-Oblique-6d" d="M 5747 2113 
L 5338 0 
L 4763 0 
L 5166 2094 
Q 5191 2228 5203 2325 
Q 5216 2422 5216 2491 
Q 5216 2772 5059 2928 
Q 4903 3084 4622 3084 
Q 4203 3084 3875 2770 
Q 3547 2456 3450 1953 
L 3066 0 
L 2491 0 
L 2900 2094 
Q 2925 2209 2937 2307 
Q 2950 2406 2950 2484 
Q 2950 2769 2794 2926 
Q 2638 3084 2363 3084 
Q 1938 3084 1609 2770 
Q 1281 2456 1184 1953 
L 800 0 
L 225 0 
L 909 3500 
L 1484 3500 
L 1375 2956 
Q 1609 3263 1923 3423 
Q 2238 3584 2597 3584 
Q 2978 3584 3223 3384 
Q 3469 3184 3519 2828 
Q 3781 3197 4126 3390 
Q 4472 3584 4856 3584 
Q 5306 3584 5551 3325 
Q 5797 3066 5797 2591 
Q 5797 2488 5784 2364 
Q 5772 2241 5747 2113 
z
" transform="scale(0.015625)"/>
       <path id="DejaVuSans-5d" d="M 1947 4863 
L 1947 -844 
L 622 -844 
L 622 -397 
L 1369 -397 
L 1369 4416 
L 622 4416 
L 622 4863 
L 1947 4863 
z
" transform="scale(0.015625)"/>
      </defs>
      <use xlink:href="#DejaVuSans-31" transform="translate(0 0.684375)"/>
      <use xlink:href="#DejaVuSans-2f" transform="translate(63.623047 0.684375)"/>
      <use xlink:href="#DejaVuSans-Oblique-66" transform="translate(97.314453 0.684375)"/>
      <use xlink:href="#DejaVuSans-3d" transform="translate(152.001953 0.684375)"/>
      <use xlink:href="#DejaVuSans-Oblique-4b" transform="translate(255.273438 0.684375)"/>
      <use xlink:href="#DejaVuSans-31" transform="translate(320.849609 -15.721875) scale(0.7)"/>
      <use xlink:href="#DejaVuSans-Oblique-4c" transform="translate(368.120117 0.684375)"/>
      <use xlink:href="#DejaVuSans-20" transform="translate(423.833008 0.684375)"/>
      <use xlink:href="#DejaVuSans-5b" transform="translate(455.620117 0.684375)"/>
      <use xlink:href="#DejaVuSans-Oblique-6d" transform="translate(494.633789 0.684375)"/>
      <use xlink:href="#DejaVuSans-2212" transform="translate(596.695794 38.965625) scale(0.7)"/>
      <use xlink:href="#DejaVuSans-31" transform="translate(655.348138 38.965625) scale(0.7)"/>
      <use xlink:href="#DejaVuSans-5d" transform="translate(702.618646 0.684375)"/>
     </g>
    </g>
   </g>
   <g id="line2d_10">
    <path d="M 104.770224 139.553333 
L 1194.534992 139.553333 
L 1194.534992 139.553333 
" clip-path="url(#p2da87a399c)" style="fill: none; stroke: #000000; stroke-width: 1.5; stroke-linecap: square"/>
   </g>
   <g id="patch_33">
    <path d="M 104.312 240.706667 
L 104.312 38.4 
" style="fill: none; stroke: #000000; stroke-width: 0.8; stroke-linejoin: miter; stroke-linecap: square"/>
   </g>
   <g id="patch_34">
    <path d="M 1194.982 240.706667 
L 1194.982 38.4 
" style="fill: none; stroke: #000000; stroke-width: 0.8; stroke-linejoin: miter; stroke-linecap: square"/>
   </g>
   <g id="patch_35">
    <path d="M 104.312 240.706667 
L 1194.982 240.706667 
" style="fill: none; stroke: #000000; stroke-width: 0.8; stroke-linejoin: miter; stroke-linecap: square"/>
   </g>
   <g id="patch_36">
    <path d="M 104.312 38.4 
L 1194.982 38.4 
" style="fill: none; stroke: #000000; stroke-width: 0.8; stroke-linejoin: miter; stroke-linecap: square"/>
   </g>
   <g id="text_11">
    <!-- Interaction Region 1 -->
    <g transform="translate(507.95825 32.4) scale(0.28 -0.28)">
     <defs>
      <path id="DejaVuSans-49" d="M 628 4666 
L 1259 4666 
L 1259 0 
L 628 0 
L 628 4666 
z
" transform="scale(0.015625)"/>
      <path id="DejaVuSans-6e" d="M 3513 2113 
L 3513 0 
L 2938 0 
L 2938 2094 
Q 2938 2591 2744 2837 
Q 2550 3084 2163 3084 
Q 1697 3084 1428 2787 
Q 1159 2491 1159 1978 
L 1159 0 
L 581 0 
L 581 3500 
L 1159 3500 
L 1159 2956 
Q 1366 3272 1645 3428 
Q 1925 3584 2291 3584 
Q 2894 3584 3203 3211 
Q 3513 2838 3513 2113 
z
" transform="scale(0.015625)"/>
      <path id="DejaVuSans-74" d="M 1172 4494 
L 1172 3500 
L 2356 3500 
L 2356 3053 
L 1172 3053 
L 1172 1153 
Q 1172 725 1289 603 
Q 1406 481 1766 481 
L 2356 481 
L 2356 0 
L 1766 0 
Q 1100 0 847 248 
Q 594 497 594 1153 
L 594 3053 
L 172 3053 
L 172 3500 
L 594 3500 
L 594 4494 
L 1172 4494 
z
" transform="scale(0.015625)"/>
      <path id="DejaVuSans-65" d="M 3597 1894 
L 3597 1613 
L 953 1613 
Q 991 1019 1311 708 
Q 1631 397 2203 397 
Q 2534 397 2845 478 
Q 3156 559 3463 722 
L 3463 178 
Q 3153 47 2828 -22 
Q 2503 -91 2169 -91 
Q 1331 -91 842 396 
Q 353 884 353 1716 
Q 353 2575 817 3079 
Q 1281 3584 2069 3584 
Q 2775 3584 3186 3129 
Q 3597 2675 3597 1894 
z
M 3022 2063 
Q 3016 2534 2758 2815 
Q 2500 3097 2075 3097 
Q 1594 3097 1305 2825 
Q 1016 2553 972 2059 
L 3022 2063 
z
" transform="scale(0.015625)"/>
      <path id="DejaVuSans-72" d="M 2631 2963 
Q 2534 3019 2420 3045 
Q 2306 3072 2169 3072 
Q 1681 3072 1420 2755 
Q 1159 2438 1159 1844 
L 1159 0 
L 581 0 
L 581 3500 
L 1159 3500 
L 1159 2956 
Q 1341 3275 1631 3429 
Q 1922 3584 2338 3584 
Q 2397 3584 2469 3576 
Q 2541 3569 2628 3553 
L 2631 2963 
z
" transform="scale(0.015625)"/>
      <path id="DejaVuSans-61" d="M 2194 1759 
Q 1497 1759 1228 1600 
Q 959 1441 959 1056 
Q 959 750 1161 570 
Q 1363 391 1709 391 
Q 2188 391 2477 730 
Q 2766 1069 2766 1631 
L 2766 1759 
L 2194 1759 
z
M 3341 1997 
L 3341 0 
L 2766 0 
L 2766 531 
Q 2569 213 2275 61 
Q 1981 -91 1556 -91 
Q 1019 -91 701 211 
Q 384 513 384 1019 
Q 384 1609 779 1909 
Q 1175 2209 1959 2209 
L 2766 2209 
L 2766 2266 
Q 2766 2663 2505 2880 
Q 2244 3097 1772 3097 
Q 1472 3097 1187 3025 
Q 903 2953 641 2809 
L 641 3341 
Q 956 3463 1253 3523 
Q 1550 3584 1831 3584 
Q 2591 3584 2966 3190 
Q 3341 2797 3341 1997 
z
" transform="scale(0.015625)"/>
      <path id="DejaVuSans-63" d="M 3122 3366 
L 3122 2828 
Q 2878 2963 2633 3030 
Q 2388 3097 2138 3097 
Q 1578 3097 1268 2742 
Q 959 2388 959 1747 
Q 959 1106 1268 751 
Q 1578 397 2138 397 
Q 2388 397 2633 464 
Q 2878 531 3122 666 
L 3122 134 
Q 2881 22 2623 -34 
Q 2366 -91 2075 -91 
Q 1284 -91 818 406 
Q 353 903 353 1747 
Q 353 2603 823 3093 
Q 1294 3584 2113 3584 
Q 2378 3584 2631 3529 
Q 2884 3475 3122 3366 
z
" transform="scale(0.015625)"/>
      <path id="DejaVuSans-69" d="M 603 3500 
L 1178 3500 
L 1178 0 
L 603 0 
L 603 3500 
z
M 603 4863 
L 1178 4863 
L 1178 4134 
L 603 4134 
L 603 4863 
z
" transform="scale(0.015625)"/>
      <path id="DejaVuSans-6f" d="M 1959 3097 
Q 1497 3097 1228 2736 
Q 959 2375 959 1747 
Q 959 1119 1226 758 
Q 1494 397 1959 397 
Q 2419 397 2687 759 
Q 2956 1122 2956 1747 
Q 2956 2369 2687 2733 
Q 2419 3097 1959 3097 
z
M 1959 3584 
Q 2709 3584 3137 3096 
Q 3566 2609 3566 1747 
Q 3566 888 3137 398 
Q 2709 -91 1959 -91 
Q 1206 -91 779 398 
Q 353 888 353 1747 
Q 353 2609 779 3096 
Q 1206 3584 1959 3584 
z
" transform="scale(0.015625)"/>
      <path id="DejaVuSans-52" d="M 2841 2188 
Q 3044 2119 3236 1894 
Q 3428 1669 3622 1275 
L 4263 0 
L 3584 0 
L 2988 1197 
Q 2756 1666 2539 1819 
Q 2322 1972 1947 1972 
L 1259 1972 
L 1259 0 
L 628 0 
L 628 4666 
L 2053 4666 
Q 2853 4666 3247 4331 
Q 3641 3997 3641 3322 
Q 3641 2881 3436 2590 
Q 3231 2300 2841 2188 
z
M 1259 4147 
L 1259 2491 
L 2053 2491 
Q 2509 2491 2742 2702 
Q 2975 2913 2975 3322 
Q 2975 3731 2742 3939 
Q 2509 4147 2053 4147 
L 1259 4147 
z
" transform="scale(0.015625)"/>
      <path id="DejaVuSans-67" d="M 2906 1791 
Q 2906 2416 2648 2759 
Q 2391 3103 1925 3103 
Q 1463 3103 1205 2759 
Q 947 2416 947 1791 
Q 947 1169 1205 825 
Q 1463 481 1925 481 
Q 2391 481 2648 825 
Q 2906 1169 2906 1791 
z
M 3481 434 
Q 3481 -459 3084 -895 
Q 2688 -1331 1869 -1331 
Q 1566 -1331 1297 -1286 
Q 1028 -1241 775 -1147 
L 775 -588 
Q 1028 -725 1275 -790 
Q 1522 -856 1778 -856 
Q 2344 -856 2625 -561 
Q 2906 -266 2906 331 
L 2906 616 
Q 2728 306 2450 153 
Q 2172 0 1784 0 
Q 1141 0 747 490 
Q 353 981 353 1791 
Q 353 2603 747 3093 
Q 1141 3584 1784 3584 
Q 2172 3584 2450 3431 
Q 2728 3278 2906 2969 
L 2906 3500 
L 3481 3500 
L 3481 434 
z
" transform="scale(0.015625)"/>
     </defs>
     <use xlink:href="#DejaVuSans-49"/>
     <use xlink:href="#DejaVuSans-6e" transform="translate(29.492188 0)"/>
     <use xlink:href="#DejaVuSans-74" transform="translate(92.871094 0)"/>
     <use xlink:href="#DejaVuSans-65" transform="translate(132.080078 0)"/>
     <use xlink:href="#DejaVuSans-72" transform="translate(193.603516 0)"/>
     <use xlink:href="#DejaVuSans-61" transform="translate(234.716797 0)"/>
     <use xlink:href="#DejaVuSans-63" transform="translate(295.996094 0)"/>
     <use xlink:href="#DejaVuSans-74" transform="translate(350.976562 0)"/>
     <use xlink:href="#DejaVuSans-69" transform="translate(390.185547 0)"/>
     <use xlink:href="#DejaVuSans-6f" transform="translate(417.96875 0)"/>
     <use xlink:href="#DejaVuSans-6e" transform="translate(479.150391 0)"/>
     <use xlink:href="#DejaVuSans-20" transform="translate(542.529297 0)"/>
     <use xlink:href="#DejaVuSans-52" transform="translate(574.316406 0)"/>
     <use xlink:href="#DejaVuSans-65" transform="translate(639.298828 0)"/>
     <use xlink:href="#DejaVuSans-67" transform="translate(700.822266 0)"/>
     <use xlink:href="#DejaVuSans-69" transform="translate(764.298828 0)"/>
     <use xlink:href="#DejaVuSans-6f" transform="translate(792.082031 0)"/>
     <use xlink:href="#DejaVuSans-6e" transform="translate(853.263672 0)"/>
     <use xlink:href="#DejaVuSans-20" transform="translate(916.642578 0)"/>
     <use xlink:href="#DejaVuSans-31" transform="translate(948.429688 0)"/>
    </g>
   </g>
   <g id="legend_1">
    <g id="patch_37">
     <path d="M 121.112 92.8275 
L 237.512 92.8275 
Q 242.312 92.8275 242.312 88.0275 
L 242.312 55.2 
Q 242.312 50.4 237.512 50.4 
L 121.112 50.4 
Q 116.312 50.4 116.312 55.2 
L 116.312 88.0275 
Q 116.312 92.8275 121.112 92.8275 
z
" style="fill: #ffffff; opacity: 0.8; stroke: #cccccc; stroke-linejoin: miter"/>
    </g>
    <g id="patch_38">
     <path d="M 125.912 78.23625 
L 173.912 78.23625 
L 173.912 61.43625 
L 125.912 61.43625 
z
" style="fill: #ff0000; opacity: 0.5; stroke: #ff0000; stroke-width: 1.5; stroke-linejoin: miter"/>
    </g>
    <g id="text_12">
     <!-- MQ -->
     <g transform="translate(193.112 78.23625) scale(0.24 -0.24)">
      <defs>
       <path id="DejaVuSans-4d" d="M 628 4666 
L 1569 4666 
L 2759 1491 
L 3956 4666 
L 4897 4666 
L 4897 0 
L 4281 0 
L 4281 4097 
L 3078 897 
L 2444 897 
L 1241 4097 
L 1241 0 
L 628 0 
L 628 4666 
z
" transform="scale(0.015625)"/>
       <path id="DejaVuSans-51" d="M 2522 4238 
Q 1834 4238 1429 3725 
Q 1025 3213 1025 2328 
Q 1025 1447 1429 934 
Q 1834 422 2522 422 
Q 3209 422 3611 934 
Q 4013 1447 4013 2328 
Q 4013 3213 3611 3725 
Q 3209 4238 2522 4238 
z
M 3406 84 
L 4238 -825 
L 3475 -825 
L 2784 -78 
Q 2681 -84 2626 -87 
Q 2572 -91 2522 -91 
Q 1538 -91 948 567 
Q 359 1225 359 2328 
Q 359 3434 948 4092 
Q 1538 4750 2522 4750 
Q 3503 4750 4090 4092 
Q 4678 3434 4678 2328 
Q 4678 1516 4351 937 
Q 4025 359 3406 84 
z
" transform="scale(0.015625)"/>
      </defs>
      <use xlink:href="#DejaVuSans-4d"/>
      <use xlink:href="#DejaVuSans-51" transform="translate(86.279297 0)"/>
     </g>
    </g>
   </g>
  </g>
  <g id="axes_2">
   <g id="patch_39">
    <path d="M 87.706131 139.553333 
L 104.770224 139.553333 
L 104.770224 99.870195 
L 87.706131 99.870195 
z
" clip-path="url(#p2da87a399c)" style="fill: #4169e1; opacity: 0.5; stroke: #4169e1; stroke-width: 1.5; stroke-linejoin: miter"/>
   </g>
   <g id="patch_40">
    <path d="M 106.392513 139.553333 
L 123.456606 139.553333 
L 123.456606 99.870195 
L 106.392513 99.870195 
z
" clip-path="url(#p2da87a399c)" style="fill: #4169e1; opacity: 0.5; stroke: #4169e1; stroke-width: 1.5; stroke-linejoin: miter"/>
   </g>
   <g id="patch_41">
    <path d="M 150.688995 139.553333 
L 167.753088 139.553333 
L 167.753088 99.870195 
L 150.688995 99.870195 
z
" clip-path="url(#p2da87a399c)" style="fill: #4169e1; opacity: 0.5; stroke: #4169e1; stroke-width: 1.5; stroke-linejoin: miter"/>
   </g>
   <g id="patch_42">
    <path d="M 169.375377 139.553333 
L 186.43947 139.553333 
L 186.43947 99.870195 
L 169.375377 99.870195 
z
" clip-path="url(#p2da87a399c)" style="fill: #4169e1; opacity: 0.5; stroke: #4169e1; stroke-width: 1.5; stroke-linejoin: miter"/>
   </g>
   <g id="patch_43">
    <path d="M 197.303814 139.553333 
L 214.367907 139.553333 
L 214.367907 99.870195 
L 197.303814 99.870195 
z
" clip-path="url(#p2da87a399c)" style="fill: #4169e1; opacity: 0.5; stroke: #4169e1; stroke-width: 1.5; stroke-linejoin: miter"/>
   </g>
   <g id="patch_44">
    <path d="M 215.990195 139.553333 
L 233.054288 139.553333 
L 233.054288 99.870195 
L 215.990195 99.870195 
z
" clip-path="url(#p2da87a399c)" style="fill: #4169e1; opacity: 0.5; stroke: #4169e1; stroke-width: 1.5; stroke-linejoin: miter"/>
   </g>
   <g id="patch_45">
    <path d="M 245.589243 139.553333 
L 262.653336 139.553333 
L 262.653336 99.870195 
L 245.589243 99.870195 
z
" clip-path="url(#p2da87a399c)" style="fill: #4169e1; opacity: 0.5; stroke: #4169e1; stroke-width: 1.5; stroke-linejoin: miter"/>
   </g>
   <g id="patch_46">
    <path d="M 264.275625 139.553333 
L 281.339718 139.553333 
L 281.339718 99.870195 
L 264.275625 99.870195 
z
" clip-path="url(#p2da87a399c)" style="fill: #4169e1; opacity: 0.5; stroke: #4169e1; stroke-width: 1.5; stroke-linejoin: miter"/>
   </g>
   <g id="patch_47">
    <path d="M 292.204062 139.553333 
L 309.268155 139.553333 
L 309.268155 99.870195 
L 292.204062 99.870195 
z
" clip-path="url(#p2da87a399c)" style="fill: #4169e1; opacity: 0.5; stroke: #4169e1; stroke-width: 1.5; stroke-linejoin: miter"/>
   </g>
   <g id="patch_48">
    <path d="M 310.890444 139.553333 
L 327.954537 139.553333 
L 327.954537 99.870195 
L 310.890444 99.870195 
z
" clip-path="url(#p2da87a399c)" style="fill: #4169e1; opacity: 0.5; stroke: #4169e1; stroke-width: 1.5; stroke-linejoin: miter"/>
   </g>
   <g id="patch_49">
    <path d="M 455.587691 139.553333 
L 466.864312 139.553333 
L 466.864312 148.33849 
L 455.587691 148.33849 
z
" clip-path="url(#p2da87a399c)" style="fill: #4169e1; opacity: 0.5; stroke: #4169e1; stroke-width: 1.5; stroke-linejoin: miter"/>
   </g>
   <g id="patch_50">
    <path d="M 548.990331 139.553333 
L 553.047528 139.553333 
L 553.047528 138.089141 
L 548.990331 138.089141 
z
" clip-path="url(#p2da87a399c)" style="fill: #4169e1; opacity: 0.5; stroke: #4169e1; stroke-width: 1.5; stroke-linejoin: miter"/>
   </g>
   <g id="patch_51">
    <path d="M 554.080919 139.553333 
L 558.138116 139.553333 
L 558.138116 138.089141 
L 554.080919 138.089141 
z
" clip-path="url(#p2da87a399c)" style="fill: #4169e1; opacity: 0.5; stroke: #4169e1; stroke-width: 1.5; stroke-linejoin: miter"/>
   </g>
   <g id="patch_52">
    <path d="M 559.171508 139.553333 
L 563.228705 139.553333 
L 563.228705 138.089141 
L 559.171508 138.089141 
z
" clip-path="url(#p2da87a399c)" style="fill: #4169e1; opacity: 0.5; stroke: #4169e1; stroke-width: 1.5; stroke-linejoin: miter"/>
   </g>
   <g id="patch_53">
    <path d="M 564.262097 139.553333 
L 568.319294 139.553333 
L 568.319294 138.089141 
L 564.262097 138.089141 
z
" clip-path="url(#p2da87a399c)" style="fill: #4169e1; opacity: 0.5; stroke: #4169e1; stroke-width: 1.5; stroke-linejoin: miter"/>
   </g>
   <g id="patch_54">
    <path d="M 569.352686 139.553333 
L 573.409883 139.553333 
L 573.409883 138.089141 
L 569.352686 138.089141 
z
" clip-path="url(#p2da87a399c)" style="fill: #4169e1; opacity: 0.5; stroke: #4169e1; stroke-width: 1.5; stroke-linejoin: miter"/>
   </g>
   <g id="patch_55">
    <path d="M 574.443275 139.553333 
L 578.500472 139.553333 
L 578.500472 138.089141 
L 574.443275 138.089141 
z
" clip-path="url(#p2da87a399c)" style="fill: #4169e1; opacity: 0.5; stroke: #4169e1; stroke-width: 1.5; stroke-linejoin: miter"/>
   </g>
   <g id="patch_56">
    <path d="M 720.793528 139.553333 
L 724.850725 139.553333 
L 724.850725 141.017526 
L 720.793528 141.017526 
z
" clip-path="url(#p2da87a399c)" style="fill: #4169e1; opacity: 0.5; stroke: #4169e1; stroke-width: 1.5; stroke-linejoin: miter"/>
   </g>
   <g id="patch_57">
    <path d="M 725.884117 139.553333 
L 729.941314 139.553333 
L 729.941314 141.017526 
L 725.884117 141.017526 
z
" clip-path="url(#p2da87a399c)" style="fill: #4169e1; opacity: 0.5; stroke: #4169e1; stroke-width: 1.5; stroke-linejoin: miter"/>
   </g>
   <g id="patch_58">
    <path d="M 730.974706 139.553333 
L 735.031903 139.553333 
L 735.031903 141.017526 
L 730.974706 141.017526 
z
" clip-path="url(#p2da87a399c)" style="fill: #4169e1; opacity: 0.5; stroke: #4169e1; stroke-width: 1.5; stroke-linejoin: miter"/>
   </g>
   <g id="patch_59">
    <path d="M 736.065295 139.553333 
L 740.122492 139.553333 
L 740.122492 141.017526 
L 736.065295 141.017526 
z
" clip-path="url(#p2da87a399c)" style="fill: #4169e1; opacity: 0.5; stroke: #4169e1; stroke-width: 1.5; stroke-linejoin: miter"/>
   </g>
   <g id="patch_60">
    <path d="M 741.155884 139.553333 
L 745.213081 139.553333 
L 745.213081 141.017526 
L 741.155884 141.017526 
z
" clip-path="url(#p2da87a399c)" style="fill: #4169e1; opacity: 0.5; stroke: #4169e1; stroke-width: 1.5; stroke-linejoin: miter"/>
   </g>
   <g id="patch_61">
    <path d="M 746.246472 139.553333 
L 750.303669 139.553333 
L 750.303669 141.017526 
L 746.246472 141.017526 
z
" clip-path="url(#p2da87a399c)" style="fill: #4169e1; opacity: 0.5; stroke: #4169e1; stroke-width: 1.5; stroke-linejoin: miter"/>
   </g>
   <g id="patch_62">
    <path d="M 832.429688 139.553333 
L 843.706309 139.553333 
L 843.706309 130.768177 
L 832.429688 130.768177 
z
" clip-path="url(#p2da87a399c)" style="fill: #4169e1; opacity: 0.5; stroke: #4169e1; stroke-width: 1.5; stroke-linejoin: miter"/>
   </g>
   <g id="patch_63">
    <path d="M 971.340054 139.553333 
L 988.404147 139.553333 
L 988.404147 99.870195 
L 971.340054 99.870195 
z
" clip-path="url(#p2da87a399c)" style="fill: #4169e1; opacity: 0.5; stroke: #4169e1; stroke-width: 1.5; stroke-linejoin: miter"/>
   </g>
   <g id="patch_64">
    <path d="M 990.027616 139.553333 
L 1007.091709 139.553333 
L 1007.091709 99.870195 
L 990.027616 99.870195 
z
" clip-path="url(#p2da87a399c)" style="fill: #4169e1; opacity: 0.5; stroke: #4169e1; stroke-width: 1.5; stroke-linejoin: miter"/>
   </g>
   <g id="patch_65">
    <path d="M 1017.957234 139.553333 
L 1035.021327 139.553333 
L 1035.021327 99.870195 
L 1017.957234 99.870195 
z
" clip-path="url(#p2da87a399c)" style="fill: #4169e1; opacity: 0.5; stroke: #4169e1; stroke-width: 1.5; stroke-linejoin: miter"/>
   </g>
   <g id="patch_66">
    <path d="M 1036.644796 139.553333 
L 1053.708889 139.553333 
L 1053.708889 99.870195 
L 1036.644796 99.870195 
z
" clip-path="url(#p2da87a399c)" style="fill: #4169e1; opacity: 0.5; stroke: #4169e1; stroke-width: 1.5; stroke-linejoin: miter"/>
   </g>
   <g id="patch_67">
    <path d="M 1066.245024 139.553333 
L 1083.309117 139.553333 
L 1083.309117 99.870195 
L 1066.245024 99.870195 
z
" clip-path="url(#p2da87a399c)" style="fill: #4169e1; opacity: 0.5; stroke: #4169e1; stroke-width: 1.5; stroke-linejoin: miter"/>
   </g>
   <g id="patch_68">
    <path d="M 1084.932587 139.553333 
L 1101.99668 139.553333 
L 1101.99668 99.870195 
L 1084.932587 99.870195 
z
" clip-path="url(#p2da87a399c)" style="fill: #4169e1; opacity: 0.5; stroke: #4169e1; stroke-width: 1.5; stroke-linejoin: miter"/>
   </g>
   <g id="patch_69">
    <path d="M 1112.862205 139.553333 
L 1129.926298 139.553333 
L 1129.926298 99.870195 
L 1112.862205 99.870195 
z
" clip-path="url(#p2da87a399c)" style="fill: #4169e1; opacity: 0.5; stroke: #4169e1; stroke-width: 1.5; stroke-linejoin: miter"/>
   </g>
   <g id="patch_70">
    <path d="M 1131.549767 139.553333 
L 1148.61386 139.553333 
L 1148.61386 99.870195 
L 1131.549767 99.870195 
z
" clip-path="url(#p2da87a399c)" style="fill: #4169e1; opacity: 0.5; stroke: #4169e1; stroke-width: 1.5; stroke-linejoin: miter"/>
   </g>
   <g id="patch_71">
    <path d="M 1175.84743 139.553333 
L 1192.911523 139.553333 
L 1192.911523 99.870195 
L 1175.84743 99.870195 
z
" clip-path="url(#p2da87a399c)" style="fill: #4169e1; opacity: 0.5; stroke: #4169e1; stroke-width: 1.5; stroke-linejoin: miter"/>
   </g>
   <g id="matplotlib.axis_3">
    <g id="ytick_6">
     <g id="line2d_11">
      <defs>
       <path id="m7922aa1677" d="M 0 0 
L 3.5 0 
" style="stroke: #000000; stroke-width: 0.8"/>
      </defs>
      <g>
       <use xlink:href="#m7922aa1677" x="1194.982" y="217.36359" style="stroke: #000000; stroke-width: 0.8"/>
      </g>
     </g>
     <g id="text_13">
      <!-- −0.01 -->
      <g style="fill: #4169e1" transform="translate(1201.982 224.202183) scale(0.18 -0.18)">
       <use xlink:href="#DejaVuSans-2212"/>
       <use xlink:href="#DejaVuSans-30" transform="translate(83.789062 0)"/>
       <use xlink:href="#DejaVuSans-2e" transform="translate(147.412109 0)"/>
       <use xlink:href="#DejaVuSans-30" transform="translate(179.199219 0)"/>
       <use xlink:href="#DejaVuSans-31" transform="translate(242.822266 0)"/>
      </g>
     </g>
    </g>
    <g id="ytick_7">
     <g id="line2d_12">
      <g>
       <use xlink:href="#m7922aa1677" x="1194.982" y="139.553333" style="stroke: #000000; stroke-width: 0.8"/>
      </g>
     </g>
     <g id="text_14">
      <!-- 0.00 -->
      <g style="fill: #4169e1" transform="translate(1201.982 146.391927) scale(0.18 -0.18)">
       <use xlink:href="#DejaVuSans-30"/>
       <use xlink:href="#DejaVuSans-2e" transform="translate(63.623047 0)"/>
       <use xlink:href="#DejaVuSans-30" transform="translate(95.410156 0)"/>
       <use xlink:href="#DejaVuSans-30" transform="translate(159.033203 0)"/>
      </g>
     </g>
    </g>
    <g id="ytick_8">
     <g id="line2d_13">
      <g>
       <use xlink:href="#m7922aa1677" x="1194.982" y="61.743077" style="stroke: #000000; stroke-width: 0.8"/>
      </g>
     </g>
     <g id="text_15">
      <!-- 0.01 -->
      <g style="fill: #4169e1" transform="translate(1201.982 68.581671) scale(0.18 -0.18)">
       <use xlink:href="#DejaVuSans-30"/>
       <use xlink:href="#DejaVuSans-2e" transform="translate(63.623047 0)"/>
       <use xlink:href="#DejaVuSans-30" transform="translate(95.410156 0)"/>
       <use xlink:href="#DejaVuSans-31" transform="translate(159.033203 0)"/>
      </g>
     </g>
    </g>
    <g id="text_16">
     <!-- $\theta=K_{0}L$ $[rad]$ -->
     <g style="fill: #4169e1" transform="translate(1278.619969 211.888333) rotate(-90) scale(0.23 -0.23)">
      <defs>
       <path id="DejaVuSans-Oblique-3b8" d="M 2913 2219 
L 925 2219 
Q 791 1284 928 888 
Q 1100 400 1566 400 
Q 2034 400 2391 891 
Q 2703 1322 2913 2219 
z
M 3009 2750 
Q 3094 3638 2984 3950 
Q 2813 4444 2353 4444 
Q 1875 4444 1525 3956 
Q 1250 3563 1034 2750 
L 3009 2750 
z
M 2444 4913 
Q 3194 4913 3494 4250 
Q 3794 3591 3566 2422 
Q 3341 1256 2781 594 
Q 2225 -72 1475 -72 
Q 722 -72 425 594 
Q 128 1256 353 2422 
Q 581 3591 1134 4250 
Q 1691 4913 2444 4913 
z
" transform="scale(0.015625)"/>
       <path id="DejaVuSans-Oblique-72" d="M 2853 2969 
Q 2766 3016 2653 3041 
Q 2541 3066 2413 3066 
Q 1953 3066 1609 2717 
Q 1266 2369 1153 1784 
L 800 0 
L 225 0 
L 909 3500 
L 1484 3500 
L 1375 2956 
Q 1603 3259 1920 3421 
Q 2238 3584 2597 3584 
Q 2691 3584 2781 3573 
Q 2872 3563 2963 3538 
L 2853 2969 
z
" transform="scale(0.015625)"/>
       <path id="DejaVuSans-Oblique-61" d="M 3438 1997 
L 3047 0 
L 2472 0 
L 2578 531 
Q 2325 219 2001 64 
Q 1678 -91 1281 -91 
Q 834 -91 548 182 
Q 263 456 263 884 
Q 263 1497 752 1853 
Q 1241 2209 2100 2209 
L 2900 2209 
L 2931 2363 
Q 2938 2388 2941 2417 
Q 2944 2447 2944 2509 
Q 2944 2788 2717 2942 
Q 2491 3097 2081 3097 
Q 1800 3097 1504 3025 
Q 1209 2953 897 2809 
L 997 3341 
Q 1322 3463 1633 3523 
Q 1944 3584 2234 3584 
Q 2853 3584 3176 3315 
Q 3500 3047 3500 2534 
Q 3500 2431 3484 2292 
Q 3469 2153 3438 1997 
z
M 2816 1759 
L 2241 1759 
Q 1534 1759 1195 1570 
Q 856 1381 856 984 
Q 856 709 1029 553 
Q 1203 397 1509 397 
Q 1978 397 2328 733 
Q 2678 1069 2791 1631 
L 2816 1759 
z
" transform="scale(0.015625)"/>
       <path id="DejaVuSans-Oblique-64" d="M 2675 525 
Q 2444 222 2128 65 
Q 1813 -91 1428 -91 
Q 903 -91 598 267 
Q 294 625 294 1247 
Q 294 1766 478 2236 
Q 663 2706 1013 3078 
Q 1244 3325 1534 3454 
Q 1825 3584 2144 3584 
Q 2481 3584 2739 3421 
Q 2997 3259 3138 2956 
L 3513 4863 
L 4091 4863 
L 3144 0 
L 2566 0 
L 2675 525 
z
M 891 1350 
Q 891 897 1095 644 
Q 1300 391 1663 391 
Q 1931 391 2161 520 
Q 2391 650 2566 903 
Q 2750 1166 2856 1509 
Q 2963 1853 2963 2188 
Q 2963 2622 2758 2865 
Q 2553 3109 2194 3109 
Q 1922 3109 1687 2981 
Q 1453 2853 1288 2613 
Q 1106 2353 998 2009 
Q 891 1666 891 1350 
z
" transform="scale(0.015625)"/>
      </defs>
      <use xlink:href="#DejaVuSans-Oblique-3b8" transform="translate(0 0.234375)"/>
      <use xlink:href="#DejaVuSans-3d" transform="translate(80.664062 0.234375)"/>
      <use xlink:href="#DejaVuSans-Oblique-4b" transform="translate(183.935547 0.234375)"/>
      <use xlink:href="#DejaVuSans-30" transform="translate(249.511719 -16.171875) scale(0.7)"/>
      <use xlink:href="#DejaVuSans-Oblique-4c" transform="translate(296.782227 0.234375)"/>
      <use xlink:href="#DejaVuSans-20" transform="translate(352.495117 0.234375)"/>
      <use xlink:href="#DejaVuSans-5b" transform="translate(384.282227 0.234375)"/>
      <use xlink:href="#DejaVuSans-Oblique-72" transform="translate(423.295898 0.234375)"/>
      <use xlink:href="#DejaVuSans-Oblique-61" transform="translate(464.40918 0.234375)"/>
      <use xlink:href="#DejaVuSans-Oblique-64" transform="translate(525.688477 0.234375)"/>
      <use xlink:href="#DejaVuSans-5d" transform="translate(589.165039 0.234375)"/>
     </g>
    </g>
   </g>
   <g id="patch_72">
    <path d="M 104.312 240.706667 
L 104.312 38.4 
" style="fill: none; stroke: #000000; stroke-width: 0.8; stroke-linejoin: miter; stroke-linecap: square"/>
   </g>
   <g id="patch_73">
    <path d="M 1194.982 240.706667 
L 1194.982 38.4 
" style="fill: none; stroke: #000000; stroke-width: 0.8; stroke-linejoin: miter; stroke-linecap: square"/>
   </g>
   <g id="patch_74">
    <path d="M 104.312 240.706667 
L 1194.982 240.706667 
" style="fill: none; stroke: #000000; stroke-width: 0.8; stroke-linejoin: miter; stroke-linecap: square"/>
   </g>
   <g id="patch_75">
    <path d="M 104.312 38.4 
L 1194.982 38.4 
" style="fill: none; stroke: #000000; stroke-width: 0.8; stroke-linejoin: miter; stroke-linecap: square"/>
   </g>
   <g id="legend_2">
    <g id="patch_76">
     <path d="M 1064.20825 92.8275 
L 1178.182 92.8275 
Q 1182.982 92.8275 1182.982 88.0275 
L 1182.982 55.2 
Q 1182.982 50.4 1178.182 50.4 
L 1064.20825 50.4 
Q 1059.40825 50.4 1059.40825 55.2 
L 1059.40825 88.0275 
Q 1059.40825 92.8275 1064.20825 92.8275 
z
" style="fill: #ffffff; opacity: 0.8; stroke: #cccccc; stroke-linejoin: miter"/>
    </g>
    <g id="patch_77">
     <path d="M 1069.00825 78.23625 
L 1117.00825 78.23625 
L 1117.00825 61.43625 
L 1069.00825 61.43625 
z
" style="fill: #4169e1; opacity: 0.5; stroke: #4169e1; stroke-width: 1.5; stroke-linejoin: miter"/>
    </g>
    <g id="text_17">
     <!-- MB -->
     <g transform="translate(1136.20825 78.23625) scale(0.24 -0.24)">
      <defs>
       <path id="DejaVuSans-42" d="M 1259 2228 
L 1259 519 
L 2272 519 
Q 2781 519 3026 730 
Q 3272 941 3272 1375 
Q 3272 1813 3026 2020 
Q 2781 2228 2272 2228 
L 1259 2228 
z
M 1259 4147 
L 1259 2741 
L 2194 2741 
Q 2656 2741 2882 2914 
Q 3109 3088 3109 3444 
Q 3109 3797 2882 3972 
Q 2656 4147 2194 4147 
L 1259 4147 
z
M 628 4666 
L 2241 4666 
Q 2963 4666 3353 4366 
Q 3744 4066 3744 3513 
Q 3744 3084 3544 2831 
Q 3344 2578 2956 2516 
Q 3422 2416 3680 2098 
Q 3938 1781 3938 1306 
Q 3938 681 3513 340 
Q 3088 0 2303 0 
L 628 0 
L 628 4666 
z
" transform="scale(0.015625)"/>
      </defs>
      <use xlink:href="#DejaVuSans-4d"/>
      <use xlink:href="#DejaVuSans-42" transform="translate(86.279297 0)"/>
     </g>
    </g>
   </g>
  </g>
  <g id="axes_3">
   <g id="patch_78">
    <path d="M 104.312 729.16 
L 1194.982 729.16 
L 1194.982 282.626667 
L 104.312 282.626667 
z
" style="fill: #ffffff"/>
   </g>
   <g id="matplotlib.axis_4">
    <g id="xtick_5">
     <g id="line2d_14">
      <g>
       <use xlink:href="#md531abadd3" x="268.545403" y="729.16" style="stroke: #000000; stroke-width: 0.8"/>
      </g>
     </g>
     <g id="text_18">
      <!-- 23200 -->
      <g transform="translate(239.914153 749.837188) scale(0.18 -0.18)">
       <use xlink:href="#DejaVuSans-32"/>
       <use xlink:href="#DejaVuSans-33" transform="translate(63.623047 0)"/>
       <use xlink:href="#DejaVuSans-32" transform="translate(127.246094 0)"/>
       <use xlink:href="#DejaVuSans-30" transform="translate(190.869141 0)"/>
       <use xlink:href="#DejaVuSans-30" transform="translate(254.492188 0)"/>
      </g>
     </g>
    </g>
    <g id="xtick_6">
     <g id="line2d_15">
      <g>
       <use xlink:href="#md531abadd3" x="507.204047" y="729.16" style="stroke: #000000; stroke-width: 0.8"/>
      </g>
     </g>
     <g id="text_19">
      <!-- 23400 -->
      <g transform="translate(478.572797 749.837188) scale(0.18 -0.18)">
       <use xlink:href="#DejaVuSans-32"/>
       <use xlink:href="#DejaVuSans-33" transform="translate(63.623047 0)"/>
       <use xlink:href="#DejaVuSans-34" transform="translate(127.246094 0)"/>
       <use xlink:href="#DejaVuSans-30" transform="translate(190.869141 0)"/>
       <use xlink:href="#DejaVuSans-30" transform="translate(254.492188 0)"/>
      </g>
     </g>
    </g>
    <g id="xtick_7">
     <g id="line2d_16">
      <g>
       <use xlink:href="#md531abadd3" x="745.86269" y="729.16" style="stroke: #000000; stroke-width: 0.8"/>
      </g>
     </g>
     <g id="text_20">
      <!-- 23600 -->
      <g transform="translate(717.23144 749.837188) scale(0.18 -0.18)">
       <use xlink:href="#DejaVuSans-32"/>
       <use xlink:href="#DejaVuSans-33" transform="translate(63.623047 0)"/>
       <use xlink:href="#DejaVuSans-36" transform="translate(127.246094 0)"/>
       <use xlink:href="#DejaVuSans-30" transform="translate(190.869141 0)"/>
       <use xlink:href="#DejaVuSans-30" transform="translate(254.492188 0)"/>
      </g>
     </g>
    </g>
    <g id="xtick_8">
     <g id="line2d_17">
      <g>
       <use xlink:href="#md531abadd3" x="984.521333" y="729.16" style="stroke: #000000; stroke-width: 0.8"/>
      </g>
     </g>
     <g id="text_21">
      <!-- 23800 -->
      <g transform="translate(955.890083 749.837188) scale(0.18 -0.18)">
       <use xlink:href="#DejaVuSans-32"/>
       <use xlink:href="#DejaVuSans-33" transform="translate(63.623047 0)"/>
       <use xlink:href="#DejaVuSans-38" transform="translate(127.246094 0)"/>
       <use xlink:href="#DejaVuSans-30" transform="translate(190.869141 0)"/>
       <use xlink:href="#DejaVuSans-30" transform="translate(254.492188 0)"/>
      </g>
     </g>
    </g>
    <g id="text_22">
     <!-- $S$ $[m]$ -->
     <g transform="translate(618.482 775.057031) scale(0.23 -0.23)">
      <defs>
       <path id="DejaVuSans-Oblique-53" d="M 3859 4513 
L 3738 3897 
Q 3422 4066 3111 4152 
Q 2800 4238 2509 4238 
Q 1944 4238 1609 3991 
Q 1275 3744 1275 3334 
Q 1275 3109 1398 2989 
Q 1522 2869 2034 2731 
L 2413 2638 
Q 3053 2472 3303 2217 
Q 3553 1963 3553 1503 
Q 3553 797 2998 353 
Q 2444 -91 1538 -91 
Q 1166 -91 791 -17 
Q 416 56 38 206 
L 166 856 
Q 513 641 861 531 
Q 1209 422 1556 422 
Q 2147 422 2503 684 
Q 2859 947 2859 1369 
Q 2859 1650 2717 1795 
Q 2575 1941 2106 2059 
L 1728 2156 
Q 1081 2325 845 2545 
Q 609 2766 609 3163 
Q 609 3859 1145 4304 
Q 1681 4750 2541 4750 
Q 2875 4750 3203 4690 
Q 3531 4631 3859 4513 
z
" transform="scale(0.015625)"/>
      </defs>
      <use xlink:href="#DejaVuSans-Oblique-53" transform="translate(0 0.015625)"/>
      <use xlink:href="#DejaVuSans-20" transform="translate(63.476562 0.015625)"/>
      <use xlink:href="#DejaVuSans-5b" transform="translate(95.263672 0.015625)"/>
      <use xlink:href="#DejaVuSans-Oblique-6d" transform="translate(134.277344 0.015625)"/>
      <use xlink:href="#DejaVuSans-5d" transform="translate(231.689453 0.015625)"/>
     </g>
    </g>
   </g>
   <g id="matplotlib.axis_5">
    <g id="ytick_9">
     <g id="line2d_18">
      <g>
       <use xlink:href="#md0688a415a" x="104.312" y="708.878158" style="stroke: #000000; stroke-width: 0.8"/>
      </g>
     </g>
     <g id="text_23">
      <!-- 0 -->
      <g transform="translate(85.8595 715.716752) scale(0.18 -0.18)">
       <use xlink:href="#DejaVuSans-30"/>
      </g>
     </g>
    </g>
    <g id="ytick_10">
     <g id="line2d_19">
      <g>
       <use xlink:href="#md0688a415a" x="104.312" y="658.45325" style="stroke: #000000; stroke-width: 0.8"/>
      </g>
     </g>
     <g id="text_24">
      <!-- 1000 -->
      <g transform="translate(51.502 665.291844) scale(0.18 -0.18)">
       <use xlink:href="#DejaVuSans-31"/>
       <use xlink:href="#DejaVuSans-30" transform="translate(63.623047 0)"/>
       <use xlink:href="#DejaVuSans-30" transform="translate(127.246094 0)"/>
       <use xlink:href="#DejaVuSans-30" transform="translate(190.869141 0)"/>
      </g>
     </g>
    </g>
    <g id="ytick_11">
     <g id="line2d_20">
      <g>
       <use xlink:href="#md0688a415a" x="104.312" y="608.028343" style="stroke: #000000; stroke-width: 0.8"/>
      </g>
     </g>
     <g id="text_25">
      <!-- 2000 -->
      <g transform="translate(51.502 614.866937) scale(0.18 -0.18)">
       <use xlink:href="#DejaVuSans-32"/>
       <use xlink:href="#DejaVuSans-30" transform="translate(63.623047 0)"/>
       <use xlink:href="#DejaVuSans-30" transform="translate(127.246094 0)"/>
       <use xlink:href="#DejaVuSans-30" transform="translate(190.869141 0)"/>
      </g>
     </g>
    </g>
    <g id="ytick_12">
     <g id="line2d_21">
      <g>
       <use xlink:href="#md0688a415a" x="104.312" y="557.603435" style="stroke: #000000; stroke-width: 0.8"/>
      </g>
     </g>
     <g id="text_26">
      <!-- 3000 -->
      <g transform="translate(51.502 564.442029) scale(0.18 -0.18)">
       <use xlink:href="#DejaVuSans-33"/>
       <use xlink:href="#DejaVuSans-30" transform="translate(63.623047 0)"/>
       <use xlink:href="#DejaVuSans-30" transform="translate(127.246094 0)"/>
       <use xlink:href="#DejaVuSans-30" transform="translate(190.869141 0)"/>
      </g>
     </g>
    </g>
    <g id="ytick_13">
     <g id="line2d_22">
      <g>
       <use xlink:href="#md0688a415a" x="104.312" y="507.178528" style="stroke: #000000; stroke-width: 0.8"/>
      </g>
     </g>
     <g id="text_27">
      <!-- 4000 -->
      <g transform="translate(51.502 514.017122) scale(0.18 -0.18)">
       <use xlink:href="#DejaVuSans-34"/>
       <use xlink:href="#DejaVuSans-30" transform="translate(63.623047 0)"/>
       <use xlink:href="#DejaVuSans-30" transform="translate(127.246094 0)"/>
       <use xlink:href="#DejaVuSans-30" transform="translate(190.869141 0)"/>
      </g>
     </g>
    </g>
    <g id="ytick_14">
     <g id="line2d_23">
      <g>
       <use xlink:href="#md0688a415a" x="104.312" y="456.75362" style="stroke: #000000; stroke-width: 0.8"/>
      </g>
     </g>
     <g id="text_28">
      <!-- 5000 -->
      <g transform="translate(51.502 463.592214) scale(0.18 -0.18)">
       <use xlink:href="#DejaVuSans-35"/>
       <use xlink:href="#DejaVuSans-30" transform="translate(63.623047 0)"/>
       <use xlink:href="#DejaVuSans-30" transform="translate(127.246094 0)"/>
       <use xlink:href="#DejaVuSans-30" transform="translate(190.869141 0)"/>
      </g>
     </g>
    </g>
    <g id="ytick_15">
     <g id="line2d_24">
      <g>
       <use xlink:href="#md0688a415a" x="104.312" y="406.328713" style="stroke: #000000; stroke-width: 0.8"/>
      </g>
     </g>
     <g id="text_29">
      <!-- 6000 -->
      <g transform="translate(51.502 413.167307) scale(0.18 -0.18)">
       <use xlink:href="#DejaVuSans-36"/>
       <use xlink:href="#DejaVuSans-30" transform="translate(63.623047 0)"/>
       <use xlink:href="#DejaVuSans-30" transform="translate(127.246094 0)"/>
       <use xlink:href="#DejaVuSans-30" transform="translate(190.869141 0)"/>
      </g>
     </g>
    </g>
    <g id="ytick_16">
     <g id="line2d_25">
      <g>
       <use xlink:href="#md0688a415a" x="104.312" y="355.903806" style="stroke: #000000; stroke-width: 0.8"/>
      </g>
     </g>
     <g id="text_30">
      <!-- 7000 -->
      <g transform="translate(51.502 362.742399) scale(0.18 -0.18)">
       <defs>
        <path id="DejaVuSans-37" d="M 525 4666 
L 3525 4666 
L 3525 4397 
L 1831 0 
L 1172 0 
L 2766 4134 
L 525 4134 
L 525 4666 
z
" transform="scale(0.015625)"/>
       </defs>
       <use xlink:href="#DejaVuSans-37"/>
       <use xlink:href="#DejaVuSans-30" transform="translate(63.623047 0)"/>
       <use xlink:href="#DejaVuSans-30" transform="translate(127.246094 0)"/>
       <use xlink:href="#DejaVuSans-30" transform="translate(190.869141 0)"/>
      </g>
     </g>
    </g>
    <g id="ytick_17">
     <g id="line2d_26">
      <g>
       <use xlink:href="#md0688a415a" x="104.312" y="305.478898" style="stroke: #000000; stroke-width: 0.8"/>
      </g>
     </g>
     <g id="text_31">
      <!-- 8000 -->
      <g transform="translate(51.502 312.317492) scale(0.18 -0.18)">
       <use xlink:href="#DejaVuSans-38"/>
       <use xlink:href="#DejaVuSans-30" transform="translate(63.623047 0)"/>
       <use xlink:href="#DejaVuSans-30" transform="translate(127.246094 0)"/>
       <use xlink:href="#DejaVuSans-30" transform="translate(190.869141 0)"/>
      </g>
     </g>
    </g>
    <g id="text_32">
     <!-- $\beta_{x,y}$ $[m]$ -->
     <g transform="translate(40.372 551.088333) rotate(-90) scale(0.23 -0.23)">
      <defs>
       <path id="DejaVuSans-Oblique-3b2" d="M 872 216 
L 572 -1331 
L -6 -1331 
L 928 3478 
Q 1206 4903 2538 4903 
Q 3888 4903 3659 3700 
Q 3503 2844 2894 2531 
Q 3713 2250 3553 1416 
Q 3272 -69 1759 -66 
Q 1097 -63 872 216 
z
M 1019 966 
Q 1259 422 1875 425 
Q 2775 425 2966 1406 
Q 3138 2288 1675 2219 
L 1778 2750 
Q 2909 2731 3106 3750 
Q 3241 4438 2509 4434 
Q 1691 4434 1503 3459 
L 1019 966 
z
" transform="scale(0.015625)"/>
       <path id="DejaVuSans-Oblique-78" d="M 3841 3500 
L 2234 1784 
L 3219 0 
L 2559 0 
L 1819 1388 
L 531 0 
L -166 0 
L 1556 1844 
L 641 3500 
L 1300 3500 
L 1972 2234 
L 3144 3500 
L 3841 3500 
z
" transform="scale(0.015625)"/>
       <path id="DejaVuSans-2c" d="M 750 794 
L 1409 794 
L 1409 256 
L 897 -744 
L 494 -744 
L 750 256 
L 750 794 
z
" transform="scale(0.015625)"/>
       <path id="DejaVuSans-Oblique-79" d="M 1588 -325 
Q 1188 -997 936 -1164 
Q 684 -1331 294 -1331 
L -159 -1331 
L -63 -850 
L 269 -850 
Q 509 -850 678 -719 
Q 847 -588 1056 -206 
L 1234 128 
L 459 3500 
L 1069 3500 
L 1650 819 
L 3256 3500 
L 3859 3500 
L 1588 -325 
z
" transform="scale(0.015625)"/>
      </defs>
      <use xlink:href="#DejaVuSans-Oblique-3b2" transform="translate(0 0.390625)"/>
      <use xlink:href="#DejaVuSans-Oblique-78" transform="translate(63.818359 -16.015625) scale(0.7)"/>
      <use xlink:href="#DejaVuSans-2c" transform="translate(105.244141 -16.015625) scale(0.7)"/>
      <use xlink:href="#DejaVuSans-Oblique-79" transform="translate(141.132812 -16.015625) scale(0.7)"/>
      <use xlink:href="#DejaVuSans-20" transform="translate(185.292969 0.390625)"/>
      <use xlink:href="#DejaVuSans-5b" transform="translate(217.080078 0.390625)"/>
      <use xlink:href="#DejaVuSans-Oblique-6d" transform="translate(256.09375 0.390625)"/>
      <use xlink:href="#DejaVuSans-5d" transform="translate(353.505859 0.390625)"/>
     </g>
    </g>
   </g>
   <g id="line2d_27">
    <path d="M 104.770224 707.035558 
L 106.392513 707.07953 
L 126.021891 707.160233 
L 131.685857 706.711562 
L 133.509806 706.500108 
L 150.688995 703.768603 
L 169.375377 699.278763 
L 188.704045 692.970172 
L 194.658578 693.563307 
L 197.303814 694.918564 
L 214.760205 702.245496 
L 215.990195 702.655857 
L 233.446587 706.97663 
L 235.357049 707.278991 
L 238.657698 707.656548 
L 245.589243 707.943171 
L 264.275625 707.542242 
L 283.604293 705.677657 
L 289.558826 705.495129 
L 292.204062 705.672001 
L 310.890444 706.570086 
L 330.221499 706.851296 
L 334.716634 706.613902 
L 340.078101 705.672047 
L 343.437221 704.813686 
L 372.941396 692.425393 
L 380.863669 687.808524 
L 380.863669 687.808524 
L 411.007449 666.107225 
L 412.312912 664.993173 
L 418.04072 657.554063 
L 418.929723 655.95811 
L 418.929723 655.95811 
L 441.247289 607.869178 
L 441.247289 607.869178 
L 445.291957 597.501928 
L 449.349154 591.309045 
L 466.864312 584.449664 
L 482.287626 578.240984 
L 482.287626 578.240984 
L 553.047528 547.73359 
L 569.352686 540.23289 
L 586.002706 532.391535 
L 593.603984 457.137492 
L 594.824723 430.052447 
L 597.082434 376.313923 
L 603.645546 302.923636 
L 604.83884 308.273725 
L 611.401952 429.352453 
L 612.023658 447.156131 
L 612.023658 447.156131 
L 614.641743 515.702224 
L 622.243021 620.217518 
L 624.732231 635.590153 
L 626.880159 647.679424 
L 646.06712 707.350283 
L 649.647 708.86303 
L 649.647 708.86303 
L 653.22688 707.350283 
L 672.379236 647.86528 
L 675.537883 629.736298 
L 675.537883 629.736298 
L 677.050979 620.217518 
L 684.652257 603.619405 
L 687.892048 611.966688 
L 694.45516 602.79116 
L 695.648454 596.050013 
L 702.211566 515.30116 
L 704.469277 464.965794 
L 705.690016 435.329266 
L 713.291294 344.666553 
L 719.1617 367.886021 
L 719.1617 367.886021 
L 725.884117 393.535787 
L 730.974706 412.291693 
L 736.065295 430.472284 
L 741.155884 448.07756 
L 746.246472 465.107521 
L 750.303669 478.268407 
L 818.469351 644.738016 
L 818.469351 644.738016 
L 819.99438 647.282581 
L 819.99438 647.282581 
L 829.273428 661.652168 
L 832.429688 666.10429 
L 843.706309 680.204094 
L 848.427574 685.268944 
L 849.944846 686.791563 
L 854.002043 689.815856 
L 855.164311 690.420031 
L 855.164311 690.420031 
L 870.235604 697.3501 
L 881.25328 701.353757 
L 887.870091 703.69044 
L 887.870091 703.69044 
L 894.531054 705.785453 
L 894.531054 705.785453 
L 909.320134 708.3691 
L 909.320134 708.3691 
L 911.590374 708.513258 
L 919.319334 708.500271 
L 925.936145 707.863585 
L 925.936145 707.863585 
L 933.353059 706.455264 
L 933.353059 706.455264 
L 942.786638 703.609227 
L 942.786638 703.609227 
L 955.260132 698.032854 
L 959.908009 695.42694 
L 963.965206 694.054657 
L 964.403145 694.025078 
L 968.685874 694.986867 
L 971.340054 696.220452 
L 988.797035 702.857854 
L 990.027616 703.229043 
L 1008.467871 707.265855 
L 1008.467871 707.265855 
L 1009.356874 707.3882 
L 1016.390145 707.868144 
L 1017.957234 707.902365 
L 1036.644796 707.583457 
L 1059.312889 705.558028 
L 1064.674355 705.68583 
L 1066.245024 705.788847 
L 1084.932587 706.669678 
L 1104.261845 706.911326 
L 1111.295115 706.350593 
L 1112.862205 706.122237 
L 1131.549767 702.382149 
L 1149.425594 697.048789 
L 1167.54778 689.889659 
L 1171.448656 689.931705 
L 1175.84743 691.704206 
L 1194.534992 698.200991 
L 1194.534992 698.200991 
" clip-path="url(#p728cdf5410)" style="fill: none; stroke: #1f77b4; stroke-width: 1.5; stroke-linecap: square"/>
   </g>
   <g id="line2d_28">
    <path d="M 104.770224 698.547006 
L 106.392513 698.065693 
L 126.021891 691.302978 
L 129.922766 691.426265 
L 133.509806 692.67553 
L 150.688995 697.775558 
L 169.375377 702.142535 
L 188.704045 705.365364 
L 194.658578 705.533429 
L 197.303814 705.353402 
L 215.990195 703.739901 
L 235.357049 701.43578 
L 238.657698 701.359399 
L 242.940428 702.233047 
L 245.589243 703.050687 
L 263.045635 706.996392 
L 264.275625 707.179926 
L 282.71529 708.44041 
L 282.71529 708.44041 
L 283.604293 708.430542 
L 290.637563 707.959158 
L 292.204062 707.755881 
L 309.660454 703.533055 
L 310.890444 703.100019 
L 328.765681 694.793543 
L 328.765681 694.793543 
L 330.221499 693.951134 
L 334.278696 692.782456 
L 334.716634 692.794183 
L 338.999364 694.309783 
L 343.437221 696.964069 
L 372.941396 707.69407 
L 374.246859 707.891049 
L 380.863669 708.522864 
L 380.863669 708.522864 
L 411.007449 703.869842 
L 418.929723 701.06503 
L 418.929723 701.06503 
L 441.247289 691.876337 
L 441.247289 691.876337 
L 445.291957 689.816883 
L 449.793655 686.351817 
L 453.959442 682.007799 
L 455.587691 680.20516 
L 466.864312 666.105406 
L 472.395226 658.15791 
L 472.395226 658.15791 
L 476.201831 652.29355 
L 476.201831 652.29355 
L 480.963071 644.50567 
L 480.963071 644.50567 
L 482.287626 642.249635 
L 482.287626 642.249635 
L 548.990331 478.268814 
L 554.080919 461.697265 
L 559.171508 444.550416 
L 564.262097 426.828269 
L 569.352686 408.530826 
L 574.443275 389.658093 
L 580.469406 366.573359 
L 586.002706 344.666553 
L 593.603984 435.329266 
L 594.824723 464.965795 
L 597.082434 515.30116 
L 603.645546 596.050013 
L 604.83884 602.79116 
L 611.401952 611.966688 
L 614.641743 603.619405 
L 622.243021 620.217518 
L 624.732231 635.590153 
L 626.880159 647.679424 
L 646.06712 707.350283 
L 649.647 708.86303 
L 649.647 708.86303 
L 653.22688 707.350283 
L 672.379236 647.86528 
L 675.537883 629.736298 
L 675.537883 629.736298 
L 677.050979 620.217518 
L 684.652257 515.702224 
L 685.257256 500.785182 
L 685.257256 500.785182 
L 687.892048 429.352453 
L 694.45516 308.273725 
L 695.648454 302.923637 
L 702.211566 376.313923 
L 704.469277 430.052448 
L 705.690016 457.137492 
L 713.291294 532.391535 
L 730.974706 540.713539 
L 750.303669 549.572832 
L 819.99438 579.457434 
L 819.99438 579.457434 
L 832.429688 584.451123 
L 849.944846 591.311044 
L 854.002043 597.503998 
L 855.164311 600.535009 
L 855.164311 600.535009 
L 870.235604 636.047962 
L 881.25328 657.555848 
L 886.981088 665.162512 
L 887.870091 665.972322 
L 887.870091 665.972322 
L 894.531054 671.796965 
L 910.397081 683.944267 
L 911.590374 684.759529 
L 919.319334 689.706842 
L 925.936145 693.644836 
L 925.936145 693.644836 
L 933.353059 697.62564 
L 933.353059 697.62564 
L 942.786638 701.797755 
L 942.786638 701.797755 
L 955.260132 705.78253 
L 959.908009 706.821254 
L 964.403145 707.449054 
L 971.340054 707.767971 
L 990.027616 707.544094 
L 1009.356874 706.0663 
L 1016.390145 705.976146 
L 1017.957234 706.058199 
L 1036.644796 706.70971 
L 1056.01224 706.748228 
L 1059.312889 706.581353 
L 1064.674355 705.773942 
L 1066.245024 705.440447 
L 1083.702006 700.40699 
L 1084.932587 699.960308 
L 1103.372842 691.817805 
L 1103.372842 691.817805 
L 1104.261845 691.356613 
L 1110.216378 691.182622 
L 1112.862205 692.304038 
L 1131.549767 699.137871 
L 1149.425594 703.893148 
L 1167.54778 706.93562 
L 1173.211747 707.238252 
L 1175.84743 707.285436 
L 1194.534992 707.159428 
L 1194.534992 707.159428 
" clip-path="url(#p728cdf5410)" style="fill: none; stroke: #ff7f0e; stroke-width: 1.5; stroke-linecap: square"/>
   </g>
   <g id="patch_79">
    <path d="M 104.312 729.16 
L 104.312 282.626667 
" style="fill: none; stroke: #000000; stroke-width: 0.8; stroke-linejoin: miter; stroke-linecap: square"/>
   </g>
   <g id="patch_80">
    <path d="M 1194.982 729.16 
L 1194.982 282.626667 
" style="fill: none; stroke: #000000; stroke-width: 0.8; stroke-linejoin: miter; stroke-linecap: square"/>
   </g>
   <g id="patch_81">
    <path d="M 104.312 729.16 
L 1194.982 729.16 
" style="fill: none; stroke: #000000; stroke-width: 0.8; stroke-linejoin: miter; stroke-linecap: square"/>
   </g>
   <g id="patch_82">
    <path d="M 104.312 282.626667 
L 1194.982 282.626667 
" style="fill: none; stroke: #000000; stroke-width: 0.8; stroke-linejoin: miter; stroke-linecap: square"/>
   </g>
   <g id="legend_3">
    <g id="patch_83">
     <path d="M 121.112 375.266667 
L 223.832 375.266667 
Q 228.632 375.266667 228.632 370.466667 
L 228.632 299.426667 
Q 228.632 294.626667 223.832 294.626667 
L 121.112 294.626667 
Q 116.312 294.626667 116.312 299.426667 
L 116.312 370.466667 
Q 116.312 375.266667 121.112 375.266667 
z
" style="fill: #ffffff; opacity: 0.8; stroke: #cccccc; stroke-linejoin: miter"/>
    </g>
    <g id="line2d_29">
     <path d="M 125.912 314.306667 
L 149.912 314.306667 
L 173.912 314.306667 
" style="fill: none; stroke: #1f77b4; stroke-width: 1.5; stroke-linecap: square"/>
    </g>
    <g id="text_33">
     <!-- $\beta_x$ -->
     <g transform="translate(193.112 322.706667) scale(0.24 -0.24)">
      <use xlink:href="#DejaVuSans-Oblique-3b2" transform="translate(0 0.390625)"/>
      <use xlink:href="#DejaVuSans-Oblique-78" transform="translate(63.818359 -16.015625) scale(0.7)"/>
     </g>
    </g>
    <g id="line2d_30">
     <path d="M 125.912 349.826667 
L 149.912 349.826667 
L 173.912 349.826667 
" style="fill: none; stroke: #ff7f0e; stroke-width: 1.5; stroke-linecap: square"/>
    </g>
    <g id="text_34">
     <!-- $\beta_y$ -->
     <g transform="translate(193.112 358.226667) scale(0.24 -0.24)">
      <use xlink:href="#DejaVuSans-Oblique-3b2" transform="translate(0 0.390625)"/>
      <use xlink:href="#DejaVuSans-Oblique-79" transform="translate(63.818359 -16.015625) scale(0.7)"/>
     </g>
    </g>
   </g>
  </g>
  <g id="axes_4">
   <g id="matplotlib.axis_6">
    <g id="ytick_18">
     <g id="line2d_31">
      <g>
       <use xlink:href="#m7922aa1677" x="1194.982" y="729.16" style="stroke: #000000; stroke-width: 0.8"/>
      </g>
     </g>
     <g id="text_35">
      <!-- −0.5 -->
      <g style="fill: #a52a2a" transform="translate(1201.982 735.998594) scale(0.18 -0.18)">
       <use xlink:href="#DejaVuSans-2212"/>
       <use xlink:href="#DejaVuSans-30" transform="translate(83.789062 0)"/>
       <use xlink:href="#DejaVuSans-2e" transform="translate(147.412109 0)"/>
       <use xlink:href="#DejaVuSans-35" transform="translate(179.199219 0)"/>
      </g>
     </g>
    </g>
    <g id="ytick_19">
     <g id="line2d_32">
      <g>
       <use xlink:href="#m7922aa1677" x="1194.982" y="654.737778" style="stroke: #000000; stroke-width: 0.8"/>
      </g>
     </g>
     <g id="text_36">
      <!-- 0.0 -->
      <g style="fill: #a52a2a" transform="translate(1201.982 661.576372) scale(0.18 -0.18)">
       <use xlink:href="#DejaVuSans-30"/>
       <use xlink:href="#DejaVuSans-2e" transform="translate(63.623047 0)"/>
       <use xlink:href="#DejaVuSans-30" transform="translate(95.410156 0)"/>
      </g>
     </g>
    </g>
    <g id="ytick_20">
     <g id="line2d_33">
      <g>
       <use xlink:href="#m7922aa1677" x="1194.982" y="580.315556" style="stroke: #000000; stroke-width: 0.8"/>
      </g>
     </g>
     <g id="text_37">
      <!-- 0.5 -->
      <g style="fill: #a52a2a" transform="translate(1201.982 587.154149) scale(0.18 -0.18)">
       <use xlink:href="#DejaVuSans-30"/>
       <use xlink:href="#DejaVuSans-2e" transform="translate(63.623047 0)"/>
       <use xlink:href="#DejaVuSans-35" transform="translate(95.410156 0)"/>
      </g>
     </g>
    </g>
    <g id="ytick_21">
     <g id="line2d_34">
      <g>
       <use xlink:href="#m7922aa1677" x="1194.982" y="505.893333" style="stroke: #000000; stroke-width: 0.8"/>
      </g>
     </g>
     <g id="text_38">
      <!-- 1.0 -->
      <g style="fill: #a52a2a" transform="translate(1201.982 512.731927) scale(0.18 -0.18)">
       <use xlink:href="#DejaVuSans-31"/>
       <use xlink:href="#DejaVuSans-2e" transform="translate(63.623047 0)"/>
       <use xlink:href="#DejaVuSans-30" transform="translate(95.410156 0)"/>
      </g>
     </g>
    </g>
    <g id="ytick_22">
     <g id="line2d_35">
      <g>
       <use xlink:href="#m7922aa1677" x="1194.982" y="431.471111" style="stroke: #000000; stroke-width: 0.8"/>
      </g>
     </g>
     <g id="text_39">
      <!-- 1.5 -->
      <g style="fill: #a52a2a" transform="translate(1201.982 438.309705) scale(0.18 -0.18)">
       <use xlink:href="#DejaVuSans-31"/>
       <use xlink:href="#DejaVuSans-2e" transform="translate(63.623047 0)"/>
       <use xlink:href="#DejaVuSans-35" transform="translate(95.410156 0)"/>
      </g>
     </g>
    </g>
    <g id="ytick_23">
     <g id="line2d_36">
      <g>
       <use xlink:href="#m7922aa1677" x="1194.982" y="357.048889" style="stroke: #000000; stroke-width: 0.8"/>
      </g>
     </g>
     <g id="text_40">
      <!-- 2.0 -->
      <g style="fill: #a52a2a" transform="translate(1201.982 363.887483) scale(0.18 -0.18)">
       <use xlink:href="#DejaVuSans-32"/>
       <use xlink:href="#DejaVuSans-2e" transform="translate(63.623047 0)"/>
       <use xlink:href="#DejaVuSans-30" transform="translate(95.410156 0)"/>
      </g>
     </g>
    </g>
    <g id="ytick_24">
     <g id="line2d_37">
      <g>
       <use xlink:href="#m7922aa1677" x="1194.982" y="282.626667" style="stroke: #000000; stroke-width: 0.8"/>
      </g>
     </g>
     <g id="text_41">
      <!-- 2.5 -->
      <g style="fill: #a52a2a" transform="translate(1201.982 289.46526) scale(0.18 -0.18)">
       <use xlink:href="#DejaVuSans-32"/>
       <use xlink:href="#DejaVuSans-2e" transform="translate(63.623047 0)"/>
       <use xlink:href="#DejaVuSans-35" transform="translate(95.410156 0)"/>
      </g>
     </g>
    </g>
    <g id="text_42">
     <!-- $D_{x,y}$ $[m]$ -->
     <g style="fill: #a52a2a" transform="translate(1267.171062 552.583333) rotate(-90) scale(0.23 -0.23)">
      <defs>
       <path id="DejaVuSans-Oblique-44" d="M 1081 4666 
L 2438 4666 
Q 3519 4666 4070 4208 
Q 4622 3750 4622 2847 
Q 4622 2250 4412 1698 
Q 4203 1147 3834 769 
Q 3463 381 2891 190 
Q 2319 0 1538 0 
L 172 0 
L 1081 4666 
z
M 1613 4147 
L 909 519 
L 1734 519 
Q 2794 519 3375 1128 
Q 3956 1738 3956 2847 
Q 3956 3519 3581 3833 
Q 3206 4147 2406 4147 
L 1613 4147 
z
" transform="scale(0.015625)"/>
      </defs>
      <use xlink:href="#DejaVuSans-Oblique-44" transform="translate(0 0.015625)"/>
      <use xlink:href="#DejaVuSans-Oblique-78" transform="translate(77.001953 -16.390625) scale(0.7)"/>
      <use xlink:href="#DejaVuSans-2c" transform="translate(118.427734 -16.390625) scale(0.7)"/>
      <use xlink:href="#DejaVuSans-Oblique-79" transform="translate(154.316406 -16.390625) scale(0.7)"/>
      <use xlink:href="#DejaVuSans-20" transform="translate(198.476562 0.015625)"/>
      <use xlink:href="#DejaVuSans-5b" transform="translate(230.263672 0.015625)"/>
      <use xlink:href="#DejaVuSans-Oblique-6d" transform="translate(269.277344 0.015625)"/>
      <use xlink:href="#DejaVuSans-5d" transform="translate(366.689453 0.015625)"/>
     </g>
    </g>
   </g>
   <g id="line2d_38">
    <path d="M 104.770224 446.801218 
L 106.392513 450.55708 
L 123.848904 485.296916 
L 126.021891 488.946021 
L 129.7211 488.262149 
L 129.922766 487.848407 
L 132.227612 483.630886 
L 150.688995 451.935032 
L 168.145386 416.290369 
L 169.375377 413.396594 
L 186.831768 366.653582 
L 188.704045 361.058426 
L 194.431852 367.887058 
L 197.303814 383.22477 
L 215.990195 476.563504 
L 234.431054 557.021154 
L 234.431054 557.021154 
L 235.357049 560.788822 
L 238.657698 571.971526 
L 242.940428 580.938356 
L 245.589243 584.666969 
L 263.045635 603.563202 
L 264.275625 604.512264 
L 281.600754 612.287323 
L 283.604293 612.558858 
L 289.332101 617.064286 
L 292.204062 621.124947 
L 309.660454 640.129708 
L 310.890444 641.086383 
L 328.215573 648.968191 
L 330.221499 649.252354 
L 334.716634 649.62617 
L 340.841808 649.427922 
L 380.863669 646.810367 
L 380.863669 646.810367 
L 412.312912 645.038649 
L 418.929723 644.345057 
L 418.929723 644.345057 
L 445.291957 640.589817 
L 450.866426 640.299873 
L 455.587691 640.299873 
L 466.864312 641.093921 
L 554.080919 653.304849 
L 563.228705 654.16371 
L 569.352686 654.523062 
L 578.500472 654.737778 
L 725.884117 654.809648 
L 735.031903 655.239079 
L 741.155884 655.742172 
L 750.303669 656.815749 
L 832.429688 668.381634 
L 843.706309 669.175683 
L 849.944846 669.175683 
L 855.164311 669.635382 
L 855.164311 669.635382 
L 881.25328 673.401954 
L 887.870091 673.788275 
L 887.870091 673.788275 
L 925.936145 673.589161 
L 925.936145 673.589161 
L 959.908009 674.158964 
L 964.403145 673.32825 
L 968.685874 671.063481 
L 971.340054 669.245979 
L 988.797035 651.614299 
L 990.027616 649.988797 
L 1007.484597 621.252114 
L 1009.356874 617.587996 
L 1015.311408 602.144401 
L 1017.957234 593.545009 
L 1035.414215 531.130375 
L 1036.644796 526.348122 
L 1055.086244 448.379904 
L 1055.086244 448.379904 
L 1056.01224 444.192486 
L 1058.876144 435.299787 
L 1059.312889 434.571077 
L 1063.370086 436.205783 
L 1066.245024 443.304634 
L 1083.702006 480.734894 
L 1084.932587 482.991001 
L 1102.389568 509.320751 
L 1104.261845 511.56274 
L 1109.989653 507.497943 
L 1112.862205 499.929206 
L 1130.319186 448.25751 
L 1131.549767 444.232628 
L 1149.425594 379.825153 
L 1167.54778 309.030936 
L 1171.246989 309.137352 
L 1175.84743 327.092612 
L 1193.304411 389.267965 
L 1194.534992 393.268499 
L 1194.534992 393.268499 
" clip-path="url(#p728cdf5410)" style="fill: none; stroke: #a52a2a; stroke-width: 1.5; stroke-linecap: square"/>
   </g>
   <g id="line2d_39">
    <path d="M 104.770224 654.737778 
L 1194.534992 654.737778 
L 1194.534992 654.737778 
" clip-path="url(#p728cdf5410)" style="fill: none; stroke-dasharray: 9.6,2.4,1.5,2.4; stroke-dashoffset: 0; stroke: #a0522d; stroke-width: 1.5"/>
   </g>
   <g id="line2d_40">
    <path d="M 649.647 729.16 
L 649.647 282.626667 
" clip-path="url(#p728cdf5410)" style="fill: none; stroke-dasharray: 5.55,2.4; stroke-dashoffset: 0; stroke: #808080; stroke-width: 1.5"/>
   </g>
   <g id="patch_84">
    <path d="M 104.312 729.16 
L 104.312 282.626667 
" style="fill: none; stroke: #000000; stroke-width: 0.8; stroke-linejoin: miter; stroke-linecap: square"/>
   </g>
   <g id="patch_85">
    <path d="M 1194.982 729.16 
L 1194.982 282.626667 
" style="fill: none; stroke: #000000; stroke-width: 0.8; stroke-linejoin: miter; stroke-linecap: square"/>
   </g>
   <g id="patch_86">
    <path d="M 104.312 729.16 
L 1194.982 729.16 
" style="fill: none; stroke: #000000; stroke-width: 0.8; stroke-linejoin: miter; stroke-linecap: square"/>
   </g>
   <g id="patch_87">
    <path d="M 104.312 282.626667 
L 1194.982 282.626667 
" style="fill: none; stroke: #000000; stroke-width: 0.8; stroke-linejoin: miter; stroke-linecap: square"/>
   </g>
   <g id="legend_4">
    <g id="patch_88">
     <path d="M 1072.102 374.730417 
L 1178.182 374.730417 
Q 1182.982 374.730417 1182.982 369.930417 
L 1182.982 299.426667 
Q 1182.982 294.626667 1178.182 294.626667 
L 1072.102 294.626667 
Q 1067.302 294.626667 1067.302 299.426667 
L 1067.302 369.930417 
Q 1067.302 374.730417 1072.102 374.730417 
z
" style="fill: #ffffff; opacity: 0.8; stroke: #cccccc; stroke-linejoin: miter"/>
    </g>
    <g id="line2d_41">
     <path d="M 1076.902 314.062917 
L 1100.902 314.062917 
L 1124.902 314.062917 
" style="fill: none; stroke: #a52a2a; stroke-width: 1.5; stroke-linecap: square"/>
    </g>
    <g id="text_43">
     <!-- $D_x$ -->
     <g transform="translate(1144.102 322.462917) scale(0.24 -0.24)">
      <use xlink:href="#DejaVuSans-Oblique-44" transform="translate(0 0.09375)"/>
      <use xlink:href="#DejaVuSans-Oblique-78" transform="translate(77.001953 -16.3125) scale(0.7)"/>
     </g>
    </g>
    <g id="line2d_42">
     <path d="M 1076.902 349.290417 
L 1100.902 349.290417 
L 1124.902 349.290417 
" style="fill: none; stroke-dasharray: 9.6,2.4,1.5,2.4; stroke-dashoffset: 0; stroke: #a0522d; stroke-width: 1.5"/>
    </g>
    <g id="text_44">
     <!-- $D_y$ -->
     <g transform="translate(1144.102 357.690417) scale(0.24 -0.24)">
      <use xlink:href="#DejaVuSans-Oblique-44" transform="translate(0 0.09375)"/>
      <use xlink:href="#DejaVuSans-Oblique-79" transform="translate(77.001953 -16.3125) scale(0.7)"/>
     </g>
    </g>
   </g>
  </g>
 </g>
 <defs>
  <clipPath id="p2da87a399c">
   <rect x="104.312" y="38.4" width="1090.67" height="202.306667"/>
  </clipPath>
  <clipPath id="p728cdf5410">
   <rect x="104.312" y="282.626667" width="1090.67" height="446.533333"/>
  </clipPath>
 </defs>
</svg>
