<?xml version="1.0" encoding="utf-8" standalone="no"?>
<!DOCTYPE svg PUBLIC "-//W3C//DTD SVG 1.1//EN"
  "http://www.w3.org/Graphics/SVG/1.1/DTD/svg11.dtd">
<svg xmlns:xlink="http://www.w3.org/1999/xlink" width="1440pt" height="864pt" viewBox="0 0 1440 864" xmlns="http://www.w3.org/2000/svg" version="1.1">
 <metadata>
  <rdf:RDF xmlns:dc="http://purl.org/dc/elements/1.1/" xmlns:cc="http://creativecommons.org/ns#" xmlns:rdf="http://www.w3.org/1999/02/22-rdf-syntax-ns#">
   <cc:Work>
    <dc:type rdf:resource="http://purl.org/dc/dcmitype/StillImage"/>
    <dc:date>2022-02-24T13:36:57.250955</dc:date>
    <dc:format>image/svg+xml</dc:format>
    <dc:creator>
     <cc:Agent>
      <dc:title>Matplotlib v3.5.1, https://matplotlib.org/</dc:title>
     </cc:Agent>
    </dc:creator>
   </cc:Work>
  </rdf:RDF>
 </metadata>
 <defs>
  <style type="text/css">*{stroke-linejoin: round; stroke-linecap: butt}</style>
 </defs>
 <g id="figure_1">
  <g id="patch_1">
   <path d="M 0 864 
L 1440 864 
L 1440 0 
L 0 0 
z
" style="fill: #ffffff"/>
  </g>
  <g id="axes_1">
   <g id="patch_2">
    <path d="M 72.685313 828.779375 
L 1429.2 828.779375 
L 1429.2 38.075625 
L 72.685313 38.075625 
z
" style="fill: #ffffff"/>
   </g>
   <g id="patch_3">
    <path d="M 134.345071 828.779375 
L 146.677023 828.779375 
L 146.677023 827.804551 
L 134.345071 827.804551 
z
" clip-path="url(#p66ef8ef5f1)" style="fill: #1f77b4; opacity: 0.6"/>
   </g>
   <g id="patch_4">
    <path d="M 146.677023 828.779375 
L 159.008974 828.779375 
L 159.008974 821.95561 
L 146.677023 821.95561 
z
" clip-path="url(#p66ef8ef5f1)" style="fill: #1f77b4; opacity: 0.6"/>
   </g>
   <g id="patch_5">
    <path d="M 159.008974 828.779375 
L 171.340926 828.779375 
L 171.340926 822.443022 
L 159.008974 822.443022 
z
" clip-path="url(#p66ef8ef5f1)" style="fill: #1f77b4; opacity: 0.6"/>
   </g>
   <g id="patch_6">
    <path d="M 171.340926 828.779375 
L 183.672878 828.779375 
L 183.672878 815.131845 
L 171.340926 815.131845 
z
" clip-path="url(#p66ef8ef5f1)" style="fill: #1f77b4; opacity: 0.6"/>
   </g>
   <g id="patch_7">
    <path d="M 183.672878 828.779375 
L 196.00483 828.779375 
L 196.00483 804.896198 
L 183.672878 804.896198 
z
" clip-path="url(#p66ef8ef5f1)" style="fill: #1f77b4; opacity: 0.6"/>
   </g>
   <g id="patch_8">
    <path d="M 196.00483 828.779375 
L 208.336781 828.779375 
L 208.336781 796.122786 
L 196.00483 796.122786 
z
" clip-path="url(#p66ef8ef5f1)" style="fill: #1f77b4; opacity: 0.6"/>
   </g>
   <g id="patch_9">
    <path d="M 208.336781 828.779375 
L 220.668733 828.779375 
L 220.668733 792.710904 
L 208.336781 792.710904 
z
" clip-path="url(#p66ef8ef5f1)" style="fill: #1f77b4; opacity: 0.6"/>
   </g>
   <g id="patch_10">
    <path d="M 220.668733 828.779375 
L 233.000685 828.779375 
L 233.000685 762.978786 
L 220.668733 762.978786 
z
" clip-path="url(#p66ef8ef5f1)" style="fill: #1f77b4; opacity: 0.6"/>
   </g>
   <g id="patch_11">
    <path d="M 233.000685 828.779375 
L 245.332636 828.779375 
L 245.332636 742.507491 
L 233.000685 742.507491 
z
" clip-path="url(#p66ef8ef5f1)" style="fill: #1f77b4; opacity: 0.6"/>
   </g>
   <g id="patch_12">
    <path d="M 245.332636 828.779375 
L 257.664588 828.779375 
L 257.664588 727.397726 
L 245.332636 727.397726 
z
" clip-path="url(#p66ef8ef5f1)" style="fill: #1f77b4; opacity: 0.6"/>
   </g>
   <g id="patch_13">
    <path d="M 257.664588 828.779375 
L 269.99654 828.779375 
L 269.99654 703.027137 
L 257.664588 703.027137 
z
" clip-path="url(#p66ef8ef5f1)" style="fill: #1f77b4; opacity: 0.6"/>
   </g>
   <g id="patch_14">
    <path d="M 269.99654 828.779375 
L 282.328491 828.779375 
L 282.328491 652.823725 
L 269.99654 652.823725 
z
" clip-path="url(#p66ef8ef5f1)" style="fill: #1f77b4; opacity: 0.6"/>
   </g>
   <g id="patch_15">
    <path d="M 282.328491 828.779375 
L 294.660443 828.779375 
L 294.660443 634.302077 
L 282.328491 634.302077 
z
" clip-path="url(#p66ef8ef5f1)" style="fill: #1f77b4; opacity: 0.6"/>
   </g>
   <g id="patch_16">
    <path d="M 294.660443 828.779375 
L 306.992395 828.779375 
L 306.992395 621.141959 
L 294.660443 621.141959 
z
" clip-path="url(#p66ef8ef5f1)" style="fill: #1f77b4; opacity: 0.6"/>
   </g>
   <g id="patch_17">
    <path d="M 306.992395 828.779375 
L 319.324347 828.779375 
L 319.324347 573.863017 
L 306.992395 573.863017 
z
" clip-path="url(#p66ef8ef5f1)" style="fill: #1f77b4; opacity: 0.6"/>
   </g>
   <g id="patch_18">
    <path d="M 319.324347 828.779375 
L 331.656298 828.779375 
L 331.656298 536.332311 
L 319.324347 536.332311 
z
" clip-path="url(#p66ef8ef5f1)" style="fill: #1f77b4; opacity: 0.6"/>
   </g>
   <g id="patch_19">
    <path d="M 331.656298 828.779375 
L 343.98825 828.779375 
L 343.98825 499.776428 
L 331.656298 499.776428 
z
" clip-path="url(#p66ef8ef5f1)" style="fill: #1f77b4; opacity: 0.6"/>
   </g>
   <g id="patch_20">
    <path d="M 343.98825 828.779375 
L 356.320202 828.779375 
L 356.320202 442.261838 
L 343.98825 442.261838 
z
" clip-path="url(#p66ef8ef5f1)" style="fill: #1f77b4; opacity: 0.6"/>
   </g>
   <g id="patch_21">
    <path d="M 356.320202 828.779375 
L 368.652153 828.779375 
L 368.652153 413.017132 
L 356.320202 413.017132 
z
" clip-path="url(#p66ef8ef5f1)" style="fill: #1f77b4; opacity: 0.6"/>
   </g>
   <g id="patch_22">
    <path d="M 368.652153 828.779375 
L 380.984105 828.779375 
L 380.984105 364.763366 
L 368.652153 364.763366 
z
" clip-path="url(#p66ef8ef5f1)" style="fill: #1f77b4; opacity: 0.6"/>
   </g>
   <g id="patch_23">
    <path d="M 380.984105 828.779375 
L 393.316057 828.779375 
L 393.316057 325.770424 
L 380.984105 325.770424 
z
" clip-path="url(#p66ef8ef5f1)" style="fill: #1f77b4; opacity: 0.6"/>
   </g>
   <g id="patch_24">
    <path d="M 393.316057 828.779375 
L 405.648009 828.779375 
L 405.648009 318.94666 
L 393.316057 318.94666 
z
" clip-path="url(#p66ef8ef5f1)" style="fill: #1f77b4; opacity: 0.6"/>
   </g>
   <g id="patch_25">
    <path d="M 405.648009 828.779375 
L 417.97996 828.779375 
L 417.97996 267.281012 
L 405.648009 267.281012 
z
" clip-path="url(#p66ef8ef5f1)" style="fill: #1f77b4; opacity: 0.6"/>
   </g>
   <g id="patch_26">
    <path d="M 417.97996 828.779375 
L 430.311912 828.779375 
L 430.311912 228.28807 
L 417.97996 228.28807 
z
" clip-path="url(#p66ef8ef5f1)" style="fill: #1f77b4; opacity: 0.6"/>
   </g>
   <g id="patch_27">
    <path d="M 430.311912 828.779375 
L 442.643864 828.779375 
L 442.643864 192.70701 
L 430.311912 192.70701 
z
" clip-path="url(#p66ef8ef5f1)" style="fill: #1f77b4; opacity: 0.6"/>
   </g>
   <g id="patch_28">
    <path d="M 442.643864 828.779375 
L 454.975815 828.779375 
L 454.975815 188.320304 
L 442.643864 188.320304 
z
" clip-path="url(#p66ef8ef5f1)" style="fill: #1f77b4; opacity: 0.6"/>
   </g>
   <g id="patch_29">
    <path d="M 454.975815 828.779375 
L 467.307767 828.779375 
L 467.307767 180.521716 
L 454.975815 180.521716 
z
" clip-path="url(#p66ef8ef5f1)" style="fill: #1f77b4; opacity: 0.6"/>
   </g>
   <g id="patch_30">
    <path d="M 467.307767 828.779375 
L 479.639719 828.779375 
L 479.639719 110.33442 
L 467.307767 110.33442 
z
" clip-path="url(#p66ef8ef5f1)" style="fill: #1f77b4; opacity: 0.6"/>
   </g>
   <g id="patch_31">
    <path d="M 479.639719 828.779375 
L 491.97167 828.779375 
L 491.97167 144.453245 
L 479.639719 144.453245 
z
" clip-path="url(#p66ef8ef5f1)" style="fill: #1f77b4; opacity: 0.6"/>
   </g>
   <g id="patch_32">
    <path d="M 491.97167 828.779375 
L 504.303622 828.779375 
L 504.303622 89.375714 
L 491.97167 89.375714 
z
" clip-path="url(#p66ef8ef5f1)" style="fill: #1f77b4; opacity: 0.6"/>
   </g>
   <g id="patch_33">
    <path d="M 504.303622 828.779375 
L 516.635574 828.779375 
L 516.635574 96.199479 
L 504.303622 96.199479 
z
" clip-path="url(#p66ef8ef5f1)" style="fill: #1f77b4; opacity: 0.6"/>
   </g>
   <g id="patch_34">
    <path d="M 516.635574 828.779375 
L 528.967526 828.779375 
L 528.967526 75.728185 
L 516.635574 75.728185 
z
" clip-path="url(#p66ef8ef5f1)" style="fill: #1f77b4; opacity: 0.6"/>
   </g>
   <g id="patch_35">
    <path d="M 528.967526 828.779375 
L 541.299477 828.779375 
L 541.299477 102.04842 
L 528.967526 102.04842 
z
" clip-path="url(#p66ef8ef5f1)" style="fill: #1f77b4; opacity: 0.6"/>
   </g>
   <g id="patch_36">
    <path d="M 541.299477 828.779375 
L 553.631429 828.779375 
L 553.631429 128.368656 
L 541.299477 128.368656 
z
" clip-path="url(#p66ef8ef5f1)" style="fill: #1f77b4; opacity: 0.6"/>
   </g>
   <g id="patch_37">
    <path d="M 553.631429 828.779375 
L 565.963381 828.779375 
L 565.963381 121.057479 
L 553.631429 121.057479 
z
" clip-path="url(#p66ef8ef5f1)" style="fill: #1f77b4; opacity: 0.6"/>
   </g>
   <g id="patch_38">
    <path d="M 565.963381 828.779375 
L 578.295332 828.779375 
L 578.295332 115.69595 
L 565.963381 115.69595 
z
" clip-path="url(#p66ef8ef5f1)" style="fill: #1f77b4; opacity: 0.6"/>
   </g>
   <g id="patch_39">
    <path d="M 578.295332 828.779375 
L 590.627284 828.779375 
L 590.627284 146.402892 
L 578.295332 146.402892 
z
" clip-path="url(#p66ef8ef5f1)" style="fill: #1f77b4; opacity: 0.6"/>
   </g>
   <g id="patch_40">
    <path d="M 590.627284 828.779375 
L 602.959236 828.779375 
L 602.959236 134.705009 
L 590.627284 134.705009 
z
" clip-path="url(#p66ef8ef5f1)" style="fill: #1f77b4; opacity: 0.6"/>
   </g>
   <g id="patch_41">
    <path d="M 602.959236 828.779375 
L 615.291187 828.779375 
L 615.291187 181.983951 
L 602.959236 181.983951 
z
" clip-path="url(#p66ef8ef5f1)" style="fill: #1f77b4; opacity: 0.6"/>
   </g>
   <g id="patch_42">
    <path d="M 615.291187 828.779375 
L 627.623139 828.779375 
L 627.623139 190.757363 
L 615.291187 190.757363 
z
" clip-path="url(#p66ef8ef5f1)" style="fill: #1f77b4; opacity: 0.6"/>
   </g>
   <g id="patch_43">
    <path d="M 627.623139 828.779375 
L 639.955091 828.779375 
L 639.955091 239.011129 
L 627.623139 239.011129 
z
" clip-path="url(#p66ef8ef5f1)" style="fill: #1f77b4; opacity: 0.6"/>
   </g>
   <g id="patch_44">
    <path d="M 639.955091 828.779375 
L 652.287043 828.779375 
L 652.287043 262.894306 
L 639.955091 262.894306 
z
" clip-path="url(#p66ef8ef5f1)" style="fill: #1f77b4; opacity: 0.6"/>
   </g>
   <g id="patch_45">
    <path d="M 652.287043 828.779375 
L 664.618994 828.779375 
L 664.618994 273.617365 
L 652.287043 273.617365 
z
" clip-path="url(#p66ef8ef5f1)" style="fill: #1f77b4; opacity: 0.6"/>
   </g>
   <g id="patch_46">
    <path d="M 664.618994 828.779375 
L 676.950946 828.779375 
L 676.950946 308.711012 
L 664.618994 308.711012 
z
" clip-path="url(#p66ef8ef5f1)" style="fill: #1f77b4; opacity: 0.6"/>
   </g>
   <g id="patch_47">
    <path d="M 676.950946 828.779375 
L 689.282898 828.779375 
L 689.282898 346.241719 
L 676.950946 346.241719 
z
" clip-path="url(#p66ef8ef5f1)" style="fill: #1f77b4; opacity: 0.6"/>
   </g>
   <g id="patch_48">
    <path d="M 689.282898 828.779375 
L 701.614849 828.779375 
L 701.614849 366.713013 
L 689.282898 366.713013 
z
" clip-path="url(#p66ef8ef5f1)" style="fill: #1f77b4; opacity: 0.6"/>
   </g>
   <g id="patch_49">
    <path d="M 701.614849 828.779375 
L 713.946801 828.779375 
L 713.946801 403.268896 
L 701.614849 403.268896 
z
" clip-path="url(#p66ef8ef5f1)" style="fill: #1f77b4; opacity: 0.6"/>
   </g>
   <g id="patch_50">
    <path d="M 713.946801 828.779375 
L 726.278753 828.779375 
L 726.278753 415.454191 
L 713.946801 415.454191 
z
" clip-path="url(#p66ef8ef5f1)" style="fill: #1f77b4; opacity: 0.6"/>
   </g>
   <g id="patch_51">
    <path d="M 726.278753 828.779375 
L 738.610705 828.779375 
L 738.610705 461.758309 
L 726.278753 461.758309 
z
" clip-path="url(#p66ef8ef5f1)" style="fill: #1f77b4; opacity: 0.6"/>
   </g>
   <g id="patch_52">
    <path d="M 738.610705 828.779375 
L 750.942656 828.779375 
L 750.942656 463.707956 
L 738.610705 463.707956 
z
" clip-path="url(#p66ef8ef5f1)" style="fill: #1f77b4; opacity: 0.6"/>
   </g>
   <g id="patch_53">
    <path d="M 750.942656 828.779375 
L 763.274608 828.779375 
L 763.274608 507.087604 
L 750.942656 507.087604 
z
" clip-path="url(#p66ef8ef5f1)" style="fill: #1f77b4; opacity: 0.6"/>
   </g>
   <g id="patch_54">
    <path d="M 763.274608 828.779375 
L 775.60656 828.779375 
L 775.60656 542.668664 
L 763.274608 542.668664 
z
" clip-path="url(#p66ef8ef5f1)" style="fill: #1f77b4; opacity: 0.6"/>
   </g>
   <g id="patch_55">
    <path d="M 775.60656 828.779375 
L 787.938511 828.779375 
L 787.938511 546.567958 
L 775.60656 546.567958 
z
" clip-path="url(#p66ef8ef5f1)" style="fill: #1f77b4; opacity: 0.6"/>
   </g>
   <g id="patch_56">
    <path d="M 787.938511 828.779375 
L 800.270463 828.779375 
L 800.270463 593.8469 
L 787.938511 593.8469 
z
" clip-path="url(#p66ef8ef5f1)" style="fill: #1f77b4; opacity: 0.6"/>
   </g>
   <g id="patch_57">
    <path d="M 800.270463 828.779375 
L 812.602415 828.779375 
L 812.602415 596.771371 
L 800.270463 596.771371 
z
" clip-path="url(#p66ef8ef5f1)" style="fill: #1f77b4; opacity: 0.6"/>
   </g>
   <g id="patch_58">
    <path d="M 812.602415 828.779375 
L 824.934366 828.779375 
L 824.934366 611.393724 
L 812.602415 611.393724 
z
" clip-path="url(#p66ef8ef5f1)" style="fill: #1f77b4; opacity: 0.6"/>
   </g>
   <g id="patch_59">
    <path d="M 824.934366 828.779375 
L 837.266318 828.779375 
L 837.266318 644.537725 
L 824.934366 644.537725 
z
" clip-path="url(#p66ef8ef5f1)" style="fill: #1f77b4; opacity: 0.6"/>
   </g>
   <g id="patch_60">
    <path d="M 837.266318 828.779375 
L 849.59827 828.779375 
L 849.59827 662.084548 
L 837.266318 662.084548 
z
" clip-path="url(#p66ef8ef5f1)" style="fill: #1f77b4; opacity: 0.6"/>
   </g>
   <g id="patch_61">
    <path d="M 849.59827 828.779375 
L 861.930222 828.779375 
L 861.930222 667.446078 
L 849.59827 667.446078 
z
" clip-path="url(#p66ef8ef5f1)" style="fill: #1f77b4; opacity: 0.6"/>
   </g>
   <g id="patch_62">
    <path d="M 861.930222 828.779375 
L 874.262173 828.779375 
L 874.262173 696.690784 
L 861.930222 696.690784 
z
" clip-path="url(#p66ef8ef5f1)" style="fill: #1f77b4; opacity: 0.6"/>
   </g>
   <g id="patch_63">
    <path d="M 874.262173 828.779375 
L 886.594125 828.779375 
L 886.594125 701.564902 
L 874.262173 701.564902 
z
" clip-path="url(#p66ef8ef5f1)" style="fill: #1f77b4; opacity: 0.6"/>
   </g>
   <g id="patch_64">
    <path d="M 886.594125 828.779375 
L 898.926077 828.779375 
L 898.926077 716.674667 
L 886.594125 716.674667 
z
" clip-path="url(#p66ef8ef5f1)" style="fill: #1f77b4; opacity: 0.6"/>
   </g>
   <g id="patch_65">
    <path d="M 898.926077 828.779375 
L 911.258028 828.779375 
L 911.258028 748.356432 
L 898.926077 748.356432 
z
" clip-path="url(#p66ef8ef5f1)" style="fill: #1f77b4; opacity: 0.6"/>
   </g>
   <g id="patch_66">
    <path d="M 911.258028 828.779375 
L 923.58998 828.779375 
L 923.58998 738.608197 
L 911.258028 738.608197 
z
" clip-path="url(#p66ef8ef5f1)" style="fill: #1f77b4; opacity: 0.6"/>
   </g>
   <g id="patch_67">
    <path d="M 923.58998 828.779375 
L 935.921932 828.779375 
L 935.921932 751.280903 
L 923.58998 751.280903 
z
" clip-path="url(#p66ef8ef5f1)" style="fill: #1f77b4; opacity: 0.6"/>
   </g>
   <g id="patch_68">
    <path d="M 935.921932 828.779375 
L 948.253884 828.779375 
L 948.253884 762.491374 
L 935.921932 762.491374 
z
" clip-path="url(#p66ef8ef5f1)" style="fill: #1f77b4; opacity: 0.6"/>
   </g>
   <g id="patch_69">
    <path d="M 948.253884 828.779375 
L 960.585835 828.779375 
L 960.585835 774.676668 
L 948.253884 774.676668 
z
" clip-path="url(#p66ef8ef5f1)" style="fill: #1f77b4; opacity: 0.6"/>
   </g>
   <g id="patch_70">
    <path d="M 960.585835 828.779375 
L 972.917787 828.779375 
L 972.917787 778.088551 
L 960.585835 778.088551 
z
" clip-path="url(#p66ef8ef5f1)" style="fill: #1f77b4; opacity: 0.6"/>
   </g>
   <g id="patch_71">
    <path d="M 972.917787 828.779375 
L 985.249739 828.779375 
L 985.249739 776.626315 
L 972.917787 776.626315 
z
" clip-path="url(#p66ef8ef5f1)" style="fill: #1f77b4; opacity: 0.6"/>
   </g>
   <g id="patch_72">
    <path d="M 985.249739 828.779375 
L 997.58169 828.779375 
L 997.58169 787.836786 
L 985.249739 787.836786 
z
" clip-path="url(#p66ef8ef5f1)" style="fill: #1f77b4; opacity: 0.6"/>
   </g>
   <g id="patch_73">
    <path d="M 997.58169 828.779375 
L 1009.913642 828.779375 
L 1009.913642 794.173139 
L 997.58169 794.173139 
z
" clip-path="url(#p66ef8ef5f1)" style="fill: #1f77b4; opacity: 0.6"/>
   </g>
   <g id="patch_74">
    <path d="M 1009.913642 828.779375 
L 1022.245594 828.779375 
L 1022.245594 800.509492 
L 1009.913642 800.509492 
z
" clip-path="url(#p66ef8ef5f1)" style="fill: #1f77b4; opacity: 0.6"/>
   </g>
   <g id="patch_75">
    <path d="M 1022.245594 828.779375 
L 1034.577545 828.779375 
L 1034.577545 806.845845 
L 1022.245594 806.845845 
z
" clip-path="url(#p66ef8ef5f1)" style="fill: #1f77b4; opacity: 0.6"/>
   </g>
   <g id="patch_76">
    <path d="M 1034.577545 828.779375 
L 1046.909497 828.779375 
L 1046.909497 805.871022 
L 1034.577545 805.871022 
z
" clip-path="url(#p66ef8ef5f1)" style="fill: #1f77b4; opacity: 0.6"/>
   </g>
   <g id="patch_77">
    <path d="M 1046.909497 828.779375 
L 1059.241449 828.779375 
L 1059.241449 814.644434 
L 1046.909497 814.644434 
z
" clip-path="url(#p66ef8ef5f1)" style="fill: #1f77b4; opacity: 0.6"/>
   </g>
   <g id="patch_78">
    <path d="M 1059.241449 828.779375 
L 1071.573401 828.779375 
L 1071.573401 822.443022 
L 1059.241449 822.443022 
z
" clip-path="url(#p66ef8ef5f1)" style="fill: #1f77b4; opacity: 0.6"/>
   </g>
   <g id="patch_79">
    <path d="M 1071.573401 828.779375 
L 1083.905352 828.779375 
L 1083.905352 820.493375 
L 1071.573401 820.493375 
z
" clip-path="url(#p66ef8ef5f1)" style="fill: #1f77b4; opacity: 0.6"/>
   </g>
   <g id="patch_80">
    <path d="M 1083.905352 828.779375 
L 1096.237304 828.779375 
L 1096.237304 816.594081 
L 1083.905352 816.594081 
z
" clip-path="url(#p66ef8ef5f1)" style="fill: #1f77b4; opacity: 0.6"/>
   </g>
   <g id="patch_81">
    <path d="M 1096.237304 828.779375 
L 1108.569256 828.779375 
L 1108.569256 821.95561 
L 1096.237304 821.95561 
z
" clip-path="url(#p66ef8ef5f1)" style="fill: #1f77b4; opacity: 0.6"/>
   </g>
   <g id="patch_82">
    <path d="M 1108.569256 828.779375 
L 1120.901207 828.779375 
L 1120.901207 820.493375 
L 1108.569256 820.493375 
z
" clip-path="url(#p66ef8ef5f1)" style="fill: #1f77b4; opacity: 0.6"/>
   </g>
   <g id="patch_83">
    <path d="M 1120.901207 828.779375 
L 1133.233159 828.779375 
L 1133.233159 824.392669 
L 1120.901207 824.392669 
z
" clip-path="url(#p66ef8ef5f1)" style="fill: #1f77b4; opacity: 0.6"/>
   </g>
   <g id="patch_84">
    <path d="M 1133.233159 828.779375 
L 1145.565111 828.779375 
L 1145.565111 823.417845 
L 1133.233159 823.417845 
z
" clip-path="url(#p66ef8ef5f1)" style="fill: #1f77b4; opacity: 0.6"/>
   </g>
   <g id="patch_85">
    <path d="M 1145.565111 828.779375 
L 1157.897062 828.779375 
L 1157.897062 823.417845 
L 1145.565111 823.417845 
z
" clip-path="url(#p66ef8ef5f1)" style="fill: #1f77b4; opacity: 0.6"/>
   </g>
   <g id="patch_86">
    <path d="M 1157.897062 828.779375 
L 1170.229014 828.779375 
L 1170.229014 826.829728 
L 1157.897062 826.829728 
z
" clip-path="url(#p66ef8ef5f1)" style="fill: #1f77b4; opacity: 0.6"/>
   </g>
   <g id="patch_87">
    <path d="M 1170.229014 828.779375 
L 1182.560966 828.779375 
L 1182.560966 823.417845 
L 1170.229014 823.417845 
z
" clip-path="url(#p66ef8ef5f1)" style="fill: #1f77b4; opacity: 0.6"/>
   </g>
   <g id="patch_88">
    <path d="M 1182.560966 828.779375 
L 1194.892918 828.779375 
L 1194.892918 827.804551 
L 1182.560966 827.804551 
z
" clip-path="url(#p66ef8ef5f1)" style="fill: #1f77b4; opacity: 0.6"/>
   </g>
   <g id="patch_89">
    <path d="M 1194.892918 828.779375 
L 1207.224869 828.779375 
L 1207.224869 827.804551 
L 1194.892918 827.804551 
z
" clip-path="url(#p66ef8ef5f1)" style="fill: #1f77b4; opacity: 0.6"/>
   </g>
   <g id="patch_90">
    <path d="M 1207.224869 828.779375 
L 1219.556821 828.779375 
L 1219.556821 825.854904 
L 1207.224869 825.854904 
z
" clip-path="url(#p66ef8ef5f1)" style="fill: #1f77b4; opacity: 0.6"/>
   </g>
   <g id="patch_91">
    <path d="M 1219.556821 828.779375 
L 1231.888773 828.779375 
L 1231.888773 827.804551 
L 1219.556821 827.804551 
z
" clip-path="url(#p66ef8ef5f1)" style="fill: #1f77b4; opacity: 0.6"/>
   </g>
   <g id="patch_92">
    <path d="M 1231.888773 828.779375 
L 1244.220724 828.779375 
L 1244.220724 827.31714 
L 1231.888773 827.31714 
z
" clip-path="url(#p66ef8ef5f1)" style="fill: #1f77b4; opacity: 0.6"/>
   </g>
   <g id="patch_93">
    <path d="M 1244.220724 828.779375 
L 1256.552676 828.779375 
L 1256.552676 827.804551 
L 1244.220724 827.804551 
z
" clip-path="url(#p66ef8ef5f1)" style="fill: #1f77b4; opacity: 0.6"/>
   </g>
   <g id="patch_94">
    <path d="M 1256.552676 828.779375 
L 1268.884628 828.779375 
L 1268.884628 828.291963 
L 1256.552676 828.291963 
z
" clip-path="url(#p66ef8ef5f1)" style="fill: #1f77b4; opacity: 0.6"/>
   </g>
   <g id="patch_95">
    <path d="M 1268.884628 828.779375 
L 1281.21658 828.779375 
L 1281.21658 828.291963 
L 1268.884628 828.291963 
z
" clip-path="url(#p66ef8ef5f1)" style="fill: #1f77b4; opacity: 0.6"/>
   </g>
   <g id="patch_96">
    <path d="M 1281.21658 828.779375 
L 1293.548531 828.779375 
L 1293.548531 828.779375 
L 1281.21658 828.779375 
z
" clip-path="url(#p66ef8ef5f1)" style="fill: #1f77b4; opacity: 0.6"/>
   </g>
   <g id="patch_97">
    <path d="M 1293.548531 828.779375 
L 1305.880483 828.779375 
L 1305.880483 828.291963 
L 1293.548531 828.291963 
z
" clip-path="url(#p66ef8ef5f1)" style="fill: #1f77b4; opacity: 0.6"/>
   </g>
   <g id="patch_98">
    <path d="M 1305.880483 828.779375 
L 1318.212435 828.779375 
L 1318.212435 828.779375 
L 1305.880483 828.779375 
z
" clip-path="url(#p66ef8ef5f1)" style="fill: #1f77b4; opacity: 0.6"/>
   </g>
   <g id="patch_99">
    <path d="M 1318.212435 828.779375 
L 1330.544386 828.779375 
L 1330.544386 828.291963 
L 1318.212435 828.291963 
z
" clip-path="url(#p66ef8ef5f1)" style="fill: #1f77b4; opacity: 0.6"/>
   </g>
   <g id="patch_100">
    <path d="M 1330.544386 828.779375 
L 1342.876338 828.779375 
L 1342.876338 828.779375 
L 1330.544386 828.779375 
z
" clip-path="url(#p66ef8ef5f1)" style="fill: #1f77b4; opacity: 0.6"/>
   </g>
   <g id="patch_101">
    <path d="M 1342.876338 828.779375 
L 1355.20829 828.779375 
L 1355.20829 828.779375 
L 1342.876338 828.779375 
z
" clip-path="url(#p66ef8ef5f1)" style="fill: #1f77b4; opacity: 0.6"/>
   </g>
   <g id="patch_102">
    <path d="M 1355.20829 828.779375 
L 1367.540241 828.779375 
L 1367.540241 828.291963 
L 1355.20829 828.291963 
z
" clip-path="url(#p66ef8ef5f1)" style="fill: #1f77b4; opacity: 0.6"/>
   </g>
   <g id="matplotlib.axis_1">
    <g id="xtick_1">
     <g id="line2d_1">
      <defs>
       <path id="ma68a574908" d="M 0 0 
L 0 3.5 
" style="stroke: #000000; stroke-width: 0.8"/>
      </defs>
      <g>
       <use xlink:href="#ma68a574908" x="111.536706" y="828.779375" style="stroke: #000000; stroke-width: 0.8"/>
      </g>
     </g>
     <g id="text_1">
      <!-- 0 -->
      <g transform="translate(105.810456 849.456562)scale(0.18 -0.18)">
       <defs>
        <path id="DejaVuSans-30" d="M 2034 4250 
Q 1547 4250 1301 3770 
Q 1056 3291 1056 2328 
Q 1056 1369 1301 889 
Q 1547 409 2034 409 
Q 2525 409 2770 889 
Q 3016 1369 3016 2328 
Q 3016 3291 2770 3770 
Q 2525 4250 2034 4250 
z
M 2034 4750 
Q 2819 4750 3233 4129 
Q 3647 3509 3647 2328 
Q 3647 1150 3233 529 
Q 2819 -91 2034 -91 
Q 1250 -91 836 529 
Q 422 1150 422 2328 
Q 422 3509 836 4129 
Q 1250 4750 2034 4750 
z
" transform="scale(0.015625)"/>
       </defs>
       <use xlink:href="#DejaVuSans-30"/>
      </g>
     </g>
    </g>
    <g id="xtick_2">
     <g id="line2d_2">
      <g>
       <use xlink:href="#ma68a574908" x="351.659002" y="828.779375" style="stroke: #000000; stroke-width: 0.8"/>
      </g>
     </g>
     <g id="text_2">
      <!-- 1 -->
      <g transform="translate(345.932752 849.456562)scale(0.18 -0.18)">
       <defs>
        <path id="DejaVuSans-31" d="M 794 531 
L 1825 531 
L 1825 4091 
L 703 3866 
L 703 4441 
L 1819 4666 
L 2450 4666 
L 2450 531 
L 3481 531 
L 3481 0 
L 794 0 
L 794 531 
z
" transform="scale(0.015625)"/>
       </defs>
       <use xlink:href="#DejaVuSans-31"/>
      </g>
     </g>
    </g>
    <g id="xtick_3">
     <g id="line2d_3">
      <g>
       <use xlink:href="#ma68a574908" x="591.781299" y="828.779375" style="stroke: #000000; stroke-width: 0.8"/>
      </g>
     </g>
     <g id="text_3">
      <!-- 2 -->
      <g transform="translate(586.055049 849.456562)scale(0.18 -0.18)">
       <defs>
        <path id="DejaVuSans-32" d="M 1228 531 
L 3431 531 
L 3431 0 
L 469 0 
L 469 531 
Q 828 903 1448 1529 
Q 2069 2156 2228 2338 
Q 2531 2678 2651 2914 
Q 2772 3150 2772 3378 
Q 2772 3750 2511 3984 
Q 2250 4219 1831 4219 
Q 1534 4219 1204 4116 
Q 875 4013 500 3803 
L 500 4441 
Q 881 4594 1212 4672 
Q 1544 4750 1819 4750 
Q 2544 4750 2975 4387 
Q 3406 4025 3406 3419 
Q 3406 3131 3298 2873 
Q 3191 2616 2906 2266 
Q 2828 2175 2409 1742 
Q 1991 1309 1228 531 
z
" transform="scale(0.015625)"/>
       </defs>
       <use xlink:href="#DejaVuSans-32"/>
      </g>
     </g>
    </g>
    <g id="xtick_4">
     <g id="line2d_4">
      <g>
       <use xlink:href="#ma68a574908" x="831.903596" y="828.779375" style="stroke: #000000; stroke-width: 0.8"/>
      </g>
     </g>
     <g id="text_4">
      <!-- 3 -->
      <g transform="translate(826.177346 849.456562)scale(0.18 -0.18)">
       <defs>
        <path id="DejaVuSans-33" d="M 2597 2516 
Q 3050 2419 3304 2112 
Q 3559 1806 3559 1356 
Q 3559 666 3084 287 
Q 2609 -91 1734 -91 
Q 1441 -91 1130 -33 
Q 819 25 488 141 
L 488 750 
Q 750 597 1062 519 
Q 1375 441 1716 441 
Q 2309 441 2620 675 
Q 2931 909 2931 1356 
Q 2931 1769 2642 2001 
Q 2353 2234 1838 2234 
L 1294 2234 
L 1294 2753 
L 1863 2753 
Q 2328 2753 2575 2939 
Q 2822 3125 2822 3475 
Q 2822 3834 2567 4026 
Q 2313 4219 1838 4219 
Q 1578 4219 1281 4162 
Q 984 4106 628 3988 
L 628 4550 
Q 988 4650 1302 4700 
Q 1616 4750 1894 4750 
Q 2613 4750 3031 4423 
Q 3450 4097 3450 3541 
Q 3450 3153 3228 2886 
Q 3006 2619 2597 2516 
z
" transform="scale(0.015625)"/>
       </defs>
       <use xlink:href="#DejaVuSans-33"/>
      </g>
     </g>
    </g>
    <g id="xtick_5">
     <g id="line2d_5">
      <g>
       <use xlink:href="#ma68a574908" x="1072.025893" y="828.779375" style="stroke: #000000; stroke-width: 0.8"/>
      </g>
     </g>
     <g id="text_5">
      <!-- 4 -->
      <g transform="translate(1066.299643 849.456562)scale(0.18 -0.18)">
       <defs>
        <path id="DejaVuSans-34" d="M 2419 4116 
L 825 1625 
L 2419 1625 
L 2419 4116 
z
M 2253 4666 
L 3047 4666 
L 3047 1625 
L 3713 1625 
L 3713 1100 
L 3047 1100 
L 3047 0 
L 2419 0 
L 2419 1100 
L 313 1100 
L 313 1709 
L 2253 4666 
z
" transform="scale(0.015625)"/>
       </defs>
       <use xlink:href="#DejaVuSans-34"/>
      </g>
     </g>
    </g>
    <g id="xtick_6">
     <g id="line2d_6">
      <g>
       <use xlink:href="#ma68a574908" x="1312.14819" y="828.779375" style="stroke: #000000; stroke-width: 0.8"/>
      </g>
     </g>
     <g id="text_6">
      <!-- 5 -->
      <g transform="translate(1306.42194 849.456562)scale(0.18 -0.18)">
       <defs>
        <path id="DejaVuSans-35" d="M 691 4666 
L 3169 4666 
L 3169 4134 
L 1269 4134 
L 1269 2991 
Q 1406 3038 1543 3061 
Q 1681 3084 1819 3084 
Q 2600 3084 3056 2656 
Q 3513 2228 3513 1497 
Q 3513 744 3044 326 
Q 2575 -91 1722 -91 
Q 1428 -91 1123 -41 
Q 819 9 494 109 
L 494 744 
Q 775 591 1075 516 
Q 1375 441 1709 441 
Q 2250 441 2565 725 
Q 2881 1009 2881 1497 
Q 2881 1984 2565 2268 
Q 2250 2553 1709 2553 
Q 1456 2553 1204 2497 
Q 953 2441 691 2322 
L 691 4666 
z
" transform="scale(0.015625)"/>
       </defs>
       <use xlink:href="#DejaVuSans-35"/>
      </g>
     </g>
    </g>
   </g>
   <g id="matplotlib.axis_2">
    <g id="ytick_1">
     <g id="line2d_7">
      <defs>
       <path id="md4e69a12fe" d="M 0 0 
L -3.5 0 
" style="stroke: #000000; stroke-width: 0.8"/>
      </defs>
      <g>
       <use xlink:href="#md4e69a12fe" x="72.685313" y="828.779375" style="stroke: #000000; stroke-width: 0.8"/>
      </g>
     </g>
     <g id="text_7">
      <!-- 0.0 -->
      <g transform="translate(37.059688 835.617969)scale(0.18 -0.18)">
       <defs>
        <path id="DejaVuSans-2e" d="M 684 794 
L 1344 794 
L 1344 0 
L 684 0 
L 684 794 
z
" transform="scale(0.015625)"/>
       </defs>
       <use xlink:href="#DejaVuSans-30"/>
       <use xlink:href="#DejaVuSans-2e" x="63.623047"/>
       <use xlink:href="#DejaVuSans-30" x="95.410156"/>
      </g>
     </g>
    </g>
    <g id="ytick_2">
     <g id="line2d_8">
      <g>
       <use xlink:href="#md4e69a12fe" x="72.685313" y="703.619435" style="stroke: #000000; stroke-width: 0.8"/>
      </g>
     </g>
     <g id="text_8">
      <!-- 0.1 -->
      <g transform="translate(37.059688 710.458029)scale(0.18 -0.18)">
       <use xlink:href="#DejaVuSans-30"/>
       <use xlink:href="#DejaVuSans-2e" x="63.623047"/>
       <use xlink:href="#DejaVuSans-31" x="95.410156"/>
      </g>
     </g>
    </g>
    <g id="ytick_3">
     <g id="line2d_9">
      <g>
       <use xlink:href="#md4e69a12fe" x="72.685313" y="578.459495" style="stroke: #000000; stroke-width: 0.8"/>
      </g>
     </g>
     <g id="text_9">
      <!-- 0.2 -->
      <g transform="translate(37.059688 585.298089)scale(0.18 -0.18)">
       <use xlink:href="#DejaVuSans-30"/>
       <use xlink:href="#DejaVuSans-2e" x="63.623047"/>
       <use xlink:href="#DejaVuSans-32" x="95.410156"/>
      </g>
     </g>
    </g>
    <g id="ytick_4">
     <g id="line2d_10">
      <g>
       <use xlink:href="#md4e69a12fe" x="72.685313" y="453.299555" style="stroke: #000000; stroke-width: 0.8"/>
      </g>
     </g>
     <g id="text_10">
      <!-- 0.3 -->
      <g transform="translate(37.059688 460.138149)scale(0.18 -0.18)">
       <use xlink:href="#DejaVuSans-30"/>
       <use xlink:href="#DejaVuSans-2e" x="63.623047"/>
       <use xlink:href="#DejaVuSans-33" x="95.410156"/>
      </g>
     </g>
    </g>
    <g id="ytick_5">
     <g id="line2d_11">
      <g>
       <use xlink:href="#md4e69a12fe" x="72.685313" y="328.139615" style="stroke: #000000; stroke-width: 0.8"/>
      </g>
     </g>
     <g id="text_11">
      <!-- 0.4 -->
      <g transform="translate(37.059688 334.978209)scale(0.18 -0.18)">
       <use xlink:href="#DejaVuSans-30"/>
       <use xlink:href="#DejaVuSans-2e" x="63.623047"/>
       <use xlink:href="#DejaVuSans-34" x="95.410156"/>
      </g>
     </g>
    </g>
    <g id="ytick_6">
     <g id="line2d_12">
      <g>
       <use xlink:href="#md4e69a12fe" x="72.685313" y="202.979675" style="stroke: #000000; stroke-width: 0.8"/>
      </g>
     </g>
     <g id="text_12">
      <!-- 0.5 -->
      <g transform="translate(37.059688 209.818269)scale(0.18 -0.18)">
       <use xlink:href="#DejaVuSans-30"/>
       <use xlink:href="#DejaVuSans-2e" x="63.623047"/>
       <use xlink:href="#DejaVuSans-35" x="95.410156"/>
      </g>
     </g>
    </g>
    <g id="ytick_7">
     <g id="line2d_13">
      <g>
       <use xlink:href="#md4e69a12fe" x="72.685313" y="77.819735" style="stroke: #000000; stroke-width: 0.8"/>
      </g>
     </g>
     <g id="text_13">
      <!-- 0.6 -->
      <g transform="translate(37.059688 84.658329)scale(0.18 -0.18)">
       <defs>
        <path id="DejaVuSans-36" d="M 2113 2584 
Q 1688 2584 1439 2293 
Q 1191 2003 1191 1497 
Q 1191 994 1439 701 
Q 1688 409 2113 409 
Q 2538 409 2786 701 
Q 3034 994 3034 1497 
Q 3034 2003 2786 2293 
Q 2538 2584 2113 2584 
z
M 3366 4563 
L 3366 3988 
Q 3128 4100 2886 4159 
Q 2644 4219 2406 4219 
Q 1781 4219 1451 3797 
Q 1122 3375 1075 2522 
Q 1259 2794 1537 2939 
Q 1816 3084 2150 3084 
Q 2853 3084 3261 2657 
Q 3669 2231 3669 1497 
Q 3669 778 3244 343 
Q 2819 -91 2113 -91 
Q 1303 -91 875 529 
Q 447 1150 447 2328 
Q 447 3434 972 4092 
Q 1497 4750 2381 4750 
Q 2619 4750 2861 4703 
Q 3103 4656 3366 4563 
z
" transform="scale(0.015625)"/>
       </defs>
       <use xlink:href="#DejaVuSans-30"/>
       <use xlink:href="#DejaVuSans-2e" x="63.623047"/>
       <use xlink:href="#DejaVuSans-36" x="95.410156"/>
      </g>
     </g>
    </g>
    <g id="text_14">
     <!-- Normed Hist Counts -->
     <g transform="translate(28.276406 548.966563)rotate(-90)scale(0.23 -0.23)">
      <defs>
       <path id="DejaVuSans-4e" d="M 628 4666 
L 1478 4666 
L 3547 763 
L 3547 4666 
L 4159 4666 
L 4159 0 
L 3309 0 
L 1241 3903 
L 1241 0 
L 628 0 
L 628 4666 
z
" transform="scale(0.015625)"/>
       <path id="DejaVuSans-6f" d="M 1959 3097 
Q 1497 3097 1228 2736 
Q 959 2375 959 1747 
Q 959 1119 1226 758 
Q 1494 397 1959 397 
Q 2419 397 2687 759 
Q 2956 1122 2956 1747 
Q 2956 2369 2687 2733 
Q 2419 3097 1959 3097 
z
M 1959 3584 
Q 2709 3584 3137 3096 
Q 3566 2609 3566 1747 
Q 3566 888 3137 398 
Q 2709 -91 1959 -91 
Q 1206 -91 779 398 
Q 353 888 353 1747 
Q 353 2609 779 3096 
Q 1206 3584 1959 3584 
z
" transform="scale(0.015625)"/>
       <path id="DejaVuSans-72" d="M 2631 2963 
Q 2534 3019 2420 3045 
Q 2306 3072 2169 3072 
Q 1681 3072 1420 2755 
Q 1159 2438 1159 1844 
L 1159 0 
L 581 0 
L 581 3500 
L 1159 3500 
L 1159 2956 
Q 1341 3275 1631 3429 
Q 1922 3584 2338 3584 
Q 2397 3584 2469 3576 
Q 2541 3569 2628 3553 
L 2631 2963 
z
" transform="scale(0.015625)"/>
       <path id="DejaVuSans-6d" d="M 3328 2828 
Q 3544 3216 3844 3400 
Q 4144 3584 4550 3584 
Q 5097 3584 5394 3201 
Q 5691 2819 5691 2113 
L 5691 0 
L 5113 0 
L 5113 2094 
Q 5113 2597 4934 2840 
Q 4756 3084 4391 3084 
Q 3944 3084 3684 2787 
Q 3425 2491 3425 1978 
L 3425 0 
L 2847 0 
L 2847 2094 
Q 2847 2600 2669 2842 
Q 2491 3084 2119 3084 
Q 1678 3084 1418 2786 
Q 1159 2488 1159 1978 
L 1159 0 
L 581 0 
L 581 3500 
L 1159 3500 
L 1159 2956 
Q 1356 3278 1631 3431 
Q 1906 3584 2284 3584 
Q 2666 3584 2933 3390 
Q 3200 3197 3328 2828 
z
" transform="scale(0.015625)"/>
       <path id="DejaVuSans-65" d="M 3597 1894 
L 3597 1613 
L 953 1613 
Q 991 1019 1311 708 
Q 1631 397 2203 397 
Q 2534 397 2845 478 
Q 3156 559 3463 722 
L 3463 178 
Q 3153 47 2828 -22 
Q 2503 -91 2169 -91 
Q 1331 -91 842 396 
Q 353 884 353 1716 
Q 353 2575 817 3079 
Q 1281 3584 2069 3584 
Q 2775 3584 3186 3129 
Q 3597 2675 3597 1894 
z
M 3022 2063 
Q 3016 2534 2758 2815 
Q 2500 3097 2075 3097 
Q 1594 3097 1305 2825 
Q 1016 2553 972 2059 
L 3022 2063 
z
" transform="scale(0.015625)"/>
       <path id="DejaVuSans-64" d="M 2906 2969 
L 2906 4863 
L 3481 4863 
L 3481 0 
L 2906 0 
L 2906 525 
Q 2725 213 2448 61 
Q 2172 -91 1784 -91 
Q 1150 -91 751 415 
Q 353 922 353 1747 
Q 353 2572 751 3078 
Q 1150 3584 1784 3584 
Q 2172 3584 2448 3432 
Q 2725 3281 2906 2969 
z
M 947 1747 
Q 947 1113 1208 752 
Q 1469 391 1925 391 
Q 2381 391 2643 752 
Q 2906 1113 2906 1747 
Q 2906 2381 2643 2742 
Q 2381 3103 1925 3103 
Q 1469 3103 1208 2742 
Q 947 2381 947 1747 
z
" transform="scale(0.015625)"/>
       <path id="DejaVuSans-20" transform="scale(0.015625)"/>
       <path id="DejaVuSans-48" d="M 628 4666 
L 1259 4666 
L 1259 2753 
L 3553 2753 
L 3553 4666 
L 4184 4666 
L 4184 0 
L 3553 0 
L 3553 2222 
L 1259 2222 
L 1259 0 
L 628 0 
L 628 4666 
z
" transform="scale(0.015625)"/>
       <path id="DejaVuSans-69" d="M 603 3500 
L 1178 3500 
L 1178 0 
L 603 0 
L 603 3500 
z
M 603 4863 
L 1178 4863 
L 1178 4134 
L 603 4134 
L 603 4863 
z
" transform="scale(0.015625)"/>
       <path id="DejaVuSans-73" d="M 2834 3397 
L 2834 2853 
Q 2591 2978 2328 3040 
Q 2066 3103 1784 3103 
Q 1356 3103 1142 2972 
Q 928 2841 928 2578 
Q 928 2378 1081 2264 
Q 1234 2150 1697 2047 
L 1894 2003 
Q 2506 1872 2764 1633 
Q 3022 1394 3022 966 
Q 3022 478 2636 193 
Q 2250 -91 1575 -91 
Q 1294 -91 989 -36 
Q 684 19 347 128 
L 347 722 
Q 666 556 975 473 
Q 1284 391 1588 391 
Q 1994 391 2212 530 
Q 2431 669 2431 922 
Q 2431 1156 2273 1281 
Q 2116 1406 1581 1522 
L 1381 1569 
Q 847 1681 609 1914 
Q 372 2147 372 2553 
Q 372 3047 722 3315 
Q 1072 3584 1716 3584 
Q 2034 3584 2315 3537 
Q 2597 3491 2834 3397 
z
" transform="scale(0.015625)"/>
       <path id="DejaVuSans-74" d="M 1172 4494 
L 1172 3500 
L 2356 3500 
L 2356 3053 
L 1172 3053 
L 1172 1153 
Q 1172 725 1289 603 
Q 1406 481 1766 481 
L 2356 481 
L 2356 0 
L 1766 0 
Q 1100 0 847 248 
Q 594 497 594 1153 
L 594 3053 
L 172 3053 
L 172 3500 
L 594 3500 
L 594 4494 
L 1172 4494 
z
" transform="scale(0.015625)"/>
       <path id="DejaVuSans-43" d="M 4122 4306 
L 4122 3641 
Q 3803 3938 3442 4084 
Q 3081 4231 2675 4231 
Q 1875 4231 1450 3742 
Q 1025 3253 1025 2328 
Q 1025 1406 1450 917 
Q 1875 428 2675 428 
Q 3081 428 3442 575 
Q 3803 722 4122 1019 
L 4122 359 
Q 3791 134 3420 21 
Q 3050 -91 2638 -91 
Q 1578 -91 968 557 
Q 359 1206 359 2328 
Q 359 3453 968 4101 
Q 1578 4750 2638 4750 
Q 3056 4750 3426 4639 
Q 3797 4528 4122 4306 
z
" transform="scale(0.015625)"/>
       <path id="DejaVuSans-75" d="M 544 1381 
L 544 3500 
L 1119 3500 
L 1119 1403 
Q 1119 906 1312 657 
Q 1506 409 1894 409 
Q 2359 409 2629 706 
Q 2900 1003 2900 1516 
L 2900 3500 
L 3475 3500 
L 3475 0 
L 2900 0 
L 2900 538 
Q 2691 219 2414 64 
Q 2138 -91 1772 -91 
Q 1169 -91 856 284 
Q 544 659 544 1381 
z
M 1991 3584 
L 1991 3584 
z
" transform="scale(0.015625)"/>
       <path id="DejaVuSans-6e" d="M 3513 2113 
L 3513 0 
L 2938 0 
L 2938 2094 
Q 2938 2591 2744 2837 
Q 2550 3084 2163 3084 
Q 1697 3084 1428 2787 
Q 1159 2491 1159 1978 
L 1159 0 
L 581 0 
L 581 3500 
L 1159 3500 
L 1159 2956 
Q 1366 3272 1645 3428 
Q 1925 3584 2291 3584 
Q 2894 3584 3203 3211 
Q 3513 2838 3513 2113 
z
" transform="scale(0.015625)"/>
      </defs>
      <use xlink:href="#DejaVuSans-4e"/>
      <use xlink:href="#DejaVuSans-6f" x="74.804688"/>
      <use xlink:href="#DejaVuSans-72" x="135.986328"/>
      <use xlink:href="#DejaVuSans-6d" x="175.349609"/>
      <use xlink:href="#DejaVuSans-65" x="272.761719"/>
      <use xlink:href="#DejaVuSans-64" x="334.285156"/>
      <use xlink:href="#DejaVuSans-20" x="397.761719"/>
      <use xlink:href="#DejaVuSans-48" x="429.548828"/>
      <use xlink:href="#DejaVuSans-69" x="504.744141"/>
      <use xlink:href="#DejaVuSans-73" x="532.527344"/>
      <use xlink:href="#DejaVuSans-74" x="584.626953"/>
      <use xlink:href="#DejaVuSans-20" x="623.835938"/>
      <use xlink:href="#DejaVuSans-43" x="655.623047"/>
      <use xlink:href="#DejaVuSans-6f" x="725.447266"/>
      <use xlink:href="#DejaVuSans-75" x="786.628906"/>
      <use xlink:href="#DejaVuSans-6e" x="850.007812"/>
      <use xlink:href="#DejaVuSans-74" x="913.386719"/>
      <use xlink:href="#DejaVuSans-73" x="952.595703"/>
     </g>
    </g>
   </g>
   <g id="line2d_14">
    <path d="M 137.428059 827.735428 
L 143.594035 826.947552 
L 149.760011 825.837522 
L 155.925987 824.351725 
L 162.091962 822.438382 
L 168.257938 820.047982 
L 174.423914 817.133694 
L 180.58989 813.651741 
L 186.755866 809.56174 
L 192.921842 804.827016 
L 199.087817 799.414883 
L 205.253793 793.29689 
L 211.419769 786.449038 
L 217.585745 778.851957 
L 223.751721 770.491059 
L 229.917697 761.356648 
L 236.083673 751.443996 
L 242.249648 740.753389 
L 248.415624 729.290135 
L 254.5816 717.064536 
L 260.747576 704.091834 
L 266.913552 690.392113 
L 273.079528 675.990179 
L 279.245504 660.915409 
L 285.411479 645.201562 
L 291.577455 628.886574 
L 297.743431 612.012324 
L 303.909407 594.62437 
L 310.075383 576.771676 
L 316.241359 558.506311 
L 328.57331 520.959452 
L 340.905262 482.450118 
L 371.735141 385.250049 
L 384.067093 347.348602 
L 390.233069 328.862195 
L 396.399045 310.767227 
L 402.565021 293.123071 
L 408.730996 275.987108 
L 414.896972 259.41445 
L 421.062948 243.45768 
L 427.228924 228.166617 
L 433.3949 213.588097 
L 439.560876 199.76578 
L 445.726852 186.739974 
L 451.892827 174.547491 
L 458.058803 163.221518 
L 464.224779 152.791512 
L 470.390755 143.28313 
L 476.556731 134.718167 
L 482.722707 127.114525 
L 488.888683 120.48621 
L 495.054658 114.843338 
L 501.220634 110.192174 
L 507.38661 106.535189 
L 513.552586 103.87113 
L 519.718562 102.195115 
L 525.884538 101.498746 
L 532.050513 101.770235 
L 538.216489 102.994541 
L 544.382465 105.153532 
L 550.548441 108.226144 
L 556.714417 112.188562 
L 562.880393 117.014407 
L 569.046369 122.674927 
L 575.212344 129.139197 
L 581.37832 136.374324 
L 587.544296 144.345654 
L 593.710272 153.016981 
L 599.876248 162.350757 
L 606.042224 172.3083 
L 612.2082 182.850004 
L 618.374175 193.935536 
L 624.540151 205.524044 
L 630.706127 217.574345 
L 636.872103 230.045115 
L 643.038079 242.89507 
L 649.204055 256.08314 
L 661.536006 283.311382 
L 673.867958 311.411566 
L 692.365886 354.533391 
L 717.029789 412.381252 
L 729.361741 440.896887 
L 741.693692 468.85337 
L 754.025644 496.067613 
L 766.357596 522.382706 
L 772.523572 535.161147 
L 778.689548 547.667684 
L 784.855523 559.88989 
L 791.021499 571.816848 
L 797.187475 583.439115 
L 803.353451 594.748676 
L 809.519427 605.738886 
L 815.685403 616.404424 
L 821.851379 626.741235 
L 828.017354 636.746465 
L 834.18333 646.418406 
L 840.349306 655.756431 
L 846.515282 664.760928 
L 852.681258 673.433239 
L 858.847234 681.775592 
L 865.01321 689.791038 
L 871.179185 697.483388 
L 877.345161 704.857145 
L 883.511137 711.917446 
L 889.677113 718.669999 
L 895.843089 725.121024 
L 902.009065 731.277194 
L 908.17504 737.145582 
L 914.341016 742.733604 
L 920.506992 748.048967 
L 926.672968 753.099626 
L 932.838944 757.893731 
L 939.00492 762.439583 
L 945.170896 766.745599 
L 951.336871 770.820264 
L 957.502847 774.672101 
L 963.668823 778.309637 
L 969.834799 781.741366 
L 976.000775 784.975727 
L 982.166751 788.021076 
L 988.332727 790.885658 
L 994.498702 793.577592 
L 1000.664678 796.104846 
L 1006.830654 798.475225 
L 1012.99663 800.696353 
L 1019.162606 802.775659 
L 1025.328582 804.720372 
L 1031.494558 806.537503 
L 1043.826509 809.815968 
L 1056.158461 812.662652 
L 1068.490413 815.125421 
L 1080.822364 817.248368 
L 1093.154316 819.071847 
L 1105.486268 820.632557 
L 1117.818219 821.963674 
L 1130.150171 823.095021 
L 1142.482123 824.053258 
L 1160.98005 825.217131 
L 1179.477978 826.112903 
L 1197.975906 826.797125 
L 1222.639809 827.458618 
L 1253.469688 827.997742 
L 1290.465543 828.373086 
L 1339.79335 828.616526 
L 1364.457254 828.678094 
L 1364.457254 828.678094 
" clip-path="url(#p66ef8ef5f1)" style="fill: none; stroke: #ff7f0e; stroke-width: 2; stroke-linecap: square"/>
   </g>
   <g id="line2d_15">
    <path d="M 137.428059 824.256456 
L 143.594035 823.105406 
L 149.760011 821.723131 
L 155.925987 820.076836 
L 162.091962 818.131552 
L 168.257938 815.850383 
L 174.423914 813.194799 
L 180.58989 810.124991 
L 186.755866 806.600281 
L 192.921842 802.579579 
L 199.087817 798.021884 
L 205.253793 792.886817 
L 211.419769 787.135187 
L 217.585745 780.729569 
L 223.751721 773.634896 
L 229.917697 765.819044 
L 236.083673 757.253407 
L 242.249648 747.913453 
L 248.415624 737.779239 
L 254.5816 726.835893 
L 260.747576 715.074043 
L 266.913552 702.490186 
L 273.079528 689.086993 
L 279.245504 674.873546 
L 285.411479 659.865501 
L 291.577455 644.085167 
L 297.743431 627.561514 
L 303.909407 610.3301 
L 310.075383 592.432915 
L 316.241359 573.918154 
L 322.407335 554.839916 
L 328.57331 535.257836 
L 340.905262 494.845715 
L 353.237214 453.251817 
L 384.067093 348.286476 
L 396.399045 307.667897 
L 402.565021 287.985642 
L 408.730996 268.828166 
L 414.896972 250.272143 
L 421.062948 232.390901 
L 427.228924 215.253935 
L 433.3949 198.92647 
L 439.560876 183.469073 
L 445.726852 168.937318 
L 451.892827 155.381503 
L 458.058803 142.846416 
L 464.224779 131.371162 
L 470.390755 120.989033 
L 476.556731 111.727445 
L 482.722707 103.607907 
L 488.888683 96.646052 
L 495.054658 90.851707 
L 501.220634 86.229007 
L 507.38661 82.77655 
L 513.552586 80.487585 
L 519.718562 79.350235 
L 525.884538 79.347748 
L 532.050513 80.458772 
L 538.216489 82.657654 
L 544.382465 85.914753 
L 550.548441 90.196769 
L 556.714417 95.467079 
L 562.880393 101.686087 
L 569.046369 108.811567 
L 575.212344 116.799016 
L 581.37832 125.601995 
L 587.544296 135.172476 
L 593.710272 145.46117 
L 599.876248 156.417851 
L 606.042224 167.99167 
L 612.2082 180.131449 
L 618.374175 192.785967 
L 624.540151 205.904222 
L 630.706127 219.435686 
L 636.872103 233.330533 
L 649.204055 262.015842 
L 661.536006 291.583217 
L 680.033934 336.82106 
L 704.697837 397.156131 
L 717.029789 426.726437 
L 729.361741 455.60019 
L 741.693692 483.594652 
L 747.859668 497.213792 
L 754.025644 510.558945 
L 760.19162 523.615985 
L 766.357596 536.372572 
L 772.523572 548.818076 
L 778.689548 560.943515 
L 784.855523 572.741472 
L 791.021499 584.20602 
L 797.187475 595.332646 
L 803.353451 606.118166 
L 809.519427 616.560646 
L 815.685403 626.659321 
L 821.851379 636.414513 
L 828.017354 645.827551 
L 834.18333 654.900696 
L 840.349306 663.637058 
L 846.515282 672.040525 
L 852.681258 680.115691 
L 858.847234 687.867783 
L 865.01321 695.302593 
L 871.179185 702.426416 
L 877.345161 709.245985 
L 883.511137 715.768415 
L 889.677113 722.001144 
L 895.843089 727.951883 
L 902.009065 733.628563 
L 908.17504 739.039292 
L 914.341016 744.19231 
L 920.506992 749.09595 
L 926.672968 753.758598 
L 932.838944 758.18866 
L 939.00492 762.394531 
L 945.170896 766.384567 
L 951.336871 770.167056 
L 957.502847 773.750198 
L 963.668823 777.142081 
L 969.834799 780.350662 
L 976.000775 783.383755 
L 982.166751 786.249011 
L 988.332727 788.953907 
L 994.498702 791.505737 
L 1000.664678 793.911603 
L 1006.830654 796.178405 
L 1012.99663 798.312837 
L 1019.162606 800.321382 
L 1031.494558 803.985676 
L 1043.826509 807.218845 
L 1056.158461 810.06498 
L 1068.490413 812.564746 
L 1080.822364 814.75546 
L 1093.154316 816.671214 
L 1105.486268 818.343018 
L 1117.818219 819.798965 
L 1130.150171 821.064405 
L 1142.482123 822.162133 
L 1160.98005 823.538344 
L 1179.477978 824.642561 
L 1197.975906 825.525006 
L 1222.639809 826.427846 
L 1247.303712 827.089631 
L 1278.133592 827.669827 
L 1315.129447 828.116612 
L 1364.457254 828.451569 
L 1364.457254 828.451569 
" clip-path="url(#p66ef8ef5f1)" style="fill: none; stroke: #2ca02c; stroke-width: 2; stroke-linecap: square"/>
   </g>
   <g id="line2d_16">
    <path d="M 137.428059 131.263351 
L 149.760011 151.084436 
L 162.091962 170.342271 
L 174.423914 189.052862 
L 186.755866 207.231761 
L 199.087817 224.894076 
L 211.419769 242.054487 
L 223.751721 258.727256 
L 236.083673 274.92624 
L 248.415624 290.664903 
L 260.747576 305.956326 
L 273.079528 320.813217 
L 285.411479 335.247925 
L 297.743431 349.272447 
L 310.075383 362.898438 
L 322.407335 376.137224 
L 334.739286 388.999808 
L 347.071238 401.496879 
L 359.40319 413.638826 
L 371.735141 425.435739 
L 384.067093 436.897423 
L 396.399045 448.033404 
L 408.730996 458.852938 
L 421.062948 469.365016 
L 433.3949 479.578376 
L 445.726852 489.501507 
L 458.058803 499.142655 
L 470.390755 508.509833 
L 482.722707 517.610828 
L 495.054658 526.453203 
L 507.38661 535.044306 
L 519.718562 543.39128 
L 532.050513 551.50106 
L 544.382465 559.380387 
L 556.714417 567.03581 
L 569.046369 574.473691 
L 581.37832 581.700212 
L 593.710272 588.72138 
L 606.042224 595.543029 
L 618.374175 602.17083 
L 630.706127 608.610291 
L 643.038079 614.866763 
L 655.370031 620.945448 
L 667.701982 626.851397 
L 680.033934 632.589518 
L 698.531862 640.892419 
L 717.029789 648.843934 
L 735.527717 656.458936 
L 754.025644 663.751665 
L 772.523572 670.735761 
L 791.021499 677.424284 
L 809.519427 683.829744 
L 828.017354 689.96412 
L 846.515282 695.838885 
L 865.01321 701.465025 
L 883.511137 706.853063 
L 902.009065 712.013075 
L 920.506992 716.954712 
L 939.00492 721.687215 
L 957.502847 726.219435 
L 976.000775 730.559848 
L 994.498702 734.716571 
L 1012.99663 738.697379 
L 1037.660533 743.744298 
L 1062.324437 748.50846 
L 1086.98834 753.005705 
L 1111.652244 757.250988 
L 1136.316147 761.258426 
L 1160.98005 765.041344 
L 1185.643954 768.61232 
L 1210.307857 771.98323 
L 1234.971761 775.165282 
L 1265.80164 778.893327 
L 1296.631519 782.362143 
L 1327.461398 785.589756 
L 1358.291278 788.592938 
L 1364.457254 789.168035 
L 1364.457254 789.168035 
" clip-path="url(#p66ef8ef5f1)" style="fill: none; stroke: #d62728; stroke-width: 2; stroke-linecap: square"/>
   </g>
   <g id="line2d_17">
    <path d="M 137.428059 779.935504 
L 149.760011 775.103267 
L 155.925987 772.510725 
L 162.091962 769.792965 
L 168.257938 766.943937 
L 174.423914 763.957302 
L 180.58989 760.826413 
L 186.755866 757.544304 
L 192.921842 754.103669 
L 199.087817 750.496853 
L 205.253793 746.715828 
L 211.419769 742.752181 
L 217.585745 738.597091 
L 223.751721 734.241311 
L 229.917697 729.675148 
L 236.083673 724.888441 
L 242.249648 719.870537 
L 248.415624 714.610269 
L 254.5816 709.095932 
L 260.747576 703.315255 
L 266.913552 697.255372 
L 273.079528 690.902798 
L 279.245504 684.243396 
L 285.411479 677.262348 
L 291.577455 669.944116 
L 297.743431 662.272416 
L 303.909407 654.230175 
L 310.075383 645.799496 
L 316.241359 636.961618 
L 322.407335 627.696872 
L 328.57331 617.984642 
L 334.739286 607.803313 
L 340.905262 597.130229 
L 347.071238 585.941638 
L 353.237214 574.212641 
L 359.40319 561.917137 
L 365.569165 549.027763 
L 371.735141 535.515836 
L 377.901117 521.351286 
L 384.067093 506.502593 
L 390.233069 490.936712 
L 396.399045 474.619002 
L 402.565021 457.513152 
L 408.730996 439.581094 
L 414.896972 420.782923 
L 421.062948 401.076805 
L 427.228924 380.418886 
L 433.3949 358.763196 
L 439.560876 336.061542 
L 445.726852 312.263404 
L 451.892827 287.315822 
L 458.058803 261.163279 
L 464.224779 233.747576 
L 470.390755 205.007701 
L 476.556731 174.879698 
L 482.722707 143.296521 
L 488.888683 110.187884 
L 495.054658 75.48011 
L 501.220634 39.095959 
L 507.688012 -1 
M 592.931195 -1 
L 593.710272 4.033192 
L 599.876248 42.032837 
L 606.042224 78.281673 
L 612.2082 112.860367 
L 618.374175 145.845871 
L 624.540151 177.311588 
L 630.706127 207.327543 
L 636.872103 235.960533 
L 643.038079 263.274276 
L 649.204055 289.329556 
L 655.370031 314.184356 
L 661.536006 337.893988 
L 667.701982 360.511213 
L 673.867958 382.086364 
L 680.033934 402.667455 
L 686.19991 422.300285 
L 692.365886 441.028545 
L 698.531862 458.893913 
L 704.697837 475.936145 
L 710.863813 492.193168 
L 717.029789 507.701159 
L 723.195765 522.494629 
L 729.361741 536.6065 
L 735.527717 550.068175 
L 741.693692 562.909613 
L 747.859668 575.159389 
L 754.025644 586.844765 
L 760.19162 597.991745 
L 766.357596 608.625136 
L 772.523572 618.768599 
L 778.689548 628.444709 
L 784.855523 637.674999 
L 791.021499 646.480009 
L 797.187475 654.879334 
L 803.353451 662.891665 
L 809.519427 670.534834 
L 815.685403 677.825848 
L 821.851379 684.780934 
L 828.017354 691.415569 
L 834.18333 697.744517 
L 840.349306 703.781863 
L 846.515282 709.541042 
L 852.681258 715.034871 
L 858.847234 720.275575 
L 865.01321 725.274817 
L 871.179185 730.043722 
L 877.345161 734.592903 
L 883.511137 738.932484 
L 889.677113 743.072121 
L 895.843089 747.021027 
L 902.009065 750.78799 
L 908.17504 754.381392 
L 914.341016 757.809231 
L 920.506992 761.079134 
L 926.672968 764.198379 
L 932.838944 767.173906 
L 939.00492 770.012338 
L 945.170896 772.719991 
L 957.502847 777.766785 
L 969.834799 782.359237 
L 982.166751 786.53825 
L 994.498702 790.341043 
L 1006.830654 793.801487 
L 1019.162606 796.950401 
L 1031.494558 799.815832 
L 1043.826509 802.4233 
L 1056.158461 804.796028 
L 1068.490413 806.955149 
L 1080.822364 808.919894 
L 1093.154316 810.707761 
L 1105.486268 812.334673 
L 1123.984195 814.50459 
L 1142.482123 816.388181 
L 1160.98005 818.023228 
L 1179.477978 819.442526 
L 1197.975906 820.674545 
L 1222.639809 822.068147 
L 1247.303712 823.222123 
L 1271.967616 824.177676 
L 1302.797495 825.144489 
L 1339.79335 826.040463 
L 1364.457254 826.511411 
L 1364.457254 826.511411 
" clip-path="url(#p66ef8ef5f1)" style="fill: none; stroke: #9467bd; stroke-width: 2; stroke-linecap: square"/>
   </g>
   <g id="line2d_18">
    <path d="M 137.428059 822.839373 
L 143.594035 821.55529 
L 149.760011 820.045317 
L 155.925987 818.280253 
L 162.091962 816.228963 
L 168.257938 813.858534 
L 174.423914 811.134476 
L 180.58989 808.020979 
L 186.755866 804.481209 
L 192.921842 800.477661 
L 199.087817 795.972543 
L 205.253793 790.928212 
L 211.419769 785.307637 
L 217.585745 779.074894 
L 223.751721 772.195685 
L 229.917697 764.637865 
L 236.083673 756.371982 
L 242.249648 747.37181 
L 248.415624 737.61487 
L 254.5816 727.082933 
L 260.747576 715.762486 
L 266.913552 703.64517 
L 273.079528 690.728157 
L 279.245504 677.014485 
L 285.411479 662.513324 
L 291.577455 647.240176 
L 297.743431 631.217005 
L 303.909407 614.472292 
L 310.075383 597.041015 
L 316.241359 578.964541 
L 322.407335 560.290459 
L 328.57331 541.072317 
L 334.739286 521.369307 
L 347.071238 480.771212 
L 359.40319 439.066014 
L 384.067093 354.889434 
L 396.399045 313.772624 
L 402.565021 293.756851 
L 408.730996 274.214569 
L 414.896972 255.22695 
L 421.062948 236.872327 
L 427.228924 219.225623 
L 433.3949 202.357825 
L 439.560876 186.335501 
L 445.726852 171.220374 
L 451.892827 157.068944 
L 458.058803 143.932176 
L 464.224779 131.855235 
L 470.390755 120.877287 
L 476.556731 111.031357 
L 482.722707 102.344246 
L 488.888683 94.836498 
L 495.054658 88.522428 
L 501.220634 83.410199 
L 507.38661 79.501945 
L 513.552586 76.793942 
L 519.718562 75.276819 
L 525.884538 74.9358 
L 532.050513 75.750991 
L 538.216489 77.697682 
L 544.382465 80.746678 
L 550.548441 84.864654 
L 556.714417 90.014515 
L 562.880393 96.155778 
L 569.046369 103.24495 
L 575.212344 111.235914 
L 581.37832 120.080319 
L 587.544296 129.727954 
L 593.710272 140.127127 
L 599.876248 151.225027 
L 606.042224 162.968073 
L 612.2082 175.302254 
L 618.374175 188.173446 
L 624.540151 201.527716 
L 630.706127 215.311604 
L 636.872103 229.472383 
L 649.204055 258.718808 
L 661.536006 288.868486 
L 680.033934 334.977347 
L 698.531862 381.151986 
L 710.863813 411.489086 
L 723.195765 441.183423 
L 735.527717 470.030157 
L 747.859668 497.859409 
L 754.025644 511.348592 
L 760.19162 524.534755 
L 766.357596 537.405739 
L 772.523572 549.951203 
L 778.689548 562.162536 
L 784.855523 574.032777 
L 791.021499 585.556523 
L 797.187475 596.729839 
L 803.353451 607.550172 
L 809.519427 618.016256 
L 815.685403 628.128023 
L 821.851379 637.886514 
L 828.017354 647.293793 
L 834.18333 656.352857 
L 840.349306 665.067558 
L 846.515282 673.442515 
L 852.681258 681.483043 
L 858.847234 689.195073 
L 865.01321 696.58508 
L 871.179185 703.66002 
L 877.345161 710.427258 
L 883.511137 716.894509 
L 889.677113 723.069783 
L 895.843089 728.961328 
L 902.009065 734.577577 
L 908.17504 739.927107 
L 914.341016 745.018589 
L 920.506992 749.860752 
L 926.672968 754.462343 
L 932.838944 758.832097 
L 939.00492 762.978701 
L 945.170896 766.910771 
L 951.336871 770.636825 
L 957.502847 774.165259 
L 963.668823 777.504331 
L 969.834799 780.662142 
L 976.000775 783.646621 
L 982.166751 786.465511 
L 988.332727 789.126359 
L 994.498702 791.636509 
L 1000.664678 794.003091 
L 1006.830654 796.233018 
L 1012.99663 798.332979 
L 1019.162606 800.309442 
L 1031.494558 803.916595 
L 1043.826509 807.10166 
L 1056.158461 809.908215 
L 1068.490413 812.376307 
L 1080.822364 814.542575 
L 1093.154316 816.440392 
L 1105.486268 818.100038 
L 1117.818219 819.548882 
L 1130.150171 820.811576 
L 1142.482123 821.910252 
L 1160.98005 823.293463 
L 1179.477978 824.409726 
L 1197.975906 825.307656 
L 1222.639809 826.234219 
L 1247.303712 826.921046 
L 1278.133592 827.531818 
L 1315.129447 828.011616 
L 1358.291278 828.347591 
L 1364.457254 828.381971 
L 1364.457254 828.381971 
" clip-path="url(#p66ef8ef5f1)" style="fill: none; stroke: #8c564b; stroke-width: 2; stroke-linecap: square"/>
   </g>
   <g id="line2d_19">
    <path d="M 137.428059 803.614642 
L 143.594035 801.045788 
L 149.760011 798.25812 
L 155.925987 795.237962 
L 162.091962 791.971313 
L 168.257938 788.4439 
L 174.423914 784.641235 
L 180.58989 780.548681 
L 186.755866 776.151526 
L 192.921842 771.435062 
L 199.087817 766.384673 
L 205.253793 760.98593 
L 211.419769 755.224693 
L 217.585745 749.08722 
L 223.751721 742.560284 
L 229.917697 735.631288 
L 236.083673 728.288398 
L 242.249648 720.520671 
L 248.415624 712.318189 
L 254.5816 703.6722 
L 260.747576 694.575252 
L 266.913552 685.021342 
L 273.079528 675.006046 
L 279.245504 664.526668 
L 285.411479 653.582367 
L 291.577455 642.174296 
L 297.743431 630.305722 
L 303.909407 617.982148 
L 310.075383 605.211421 
L 316.241359 592.003834 
L 322.407335 578.37221 
L 328.57331 564.331981 
L 334.739286 549.901243 
L 340.905262 535.100806 
L 347.071238 519.954212 
L 359.40319 488.730448 
L 371.735141 456.47285 
L 384.067093 423.466502 
L 421.062948 323.370682 
L 433.3949 290.937642 
L 439.560876 275.130612 
L 445.726852 259.668614 
L 451.892827 244.605825 
L 458.058803 229.996174 
L 464.224779 215.893017 
L 470.390755 202.348827 
L 476.556731 189.414859 
L 482.722707 177.14084 
L 488.888683 165.574644 
L 495.054658 154.761988 
L 501.220634 144.746128 
L 507.38661 135.567569 
L 513.552586 127.263801 
L 519.718562 119.869035 
L 525.884538 113.413972 
L 532.050513 107.925592 
L 538.216489 103.426964 
L 544.382465 99.937086 
L 550.548441 97.470751 
L 556.714417 96.03844 
L 562.880393 95.646252 
L 569.046369 96.295859 
L 575.212344 97.984492 
L 581.37832 100.704965 
L 587.544296 104.44572 
L 593.710272 109.190917 
L 599.876248 114.920537 
L 606.042224 121.610528 
L 612.2082 129.232973 
L 618.374175 137.75628 
L 624.540151 147.145407 
L 630.706127 157.362095 
L 636.872103 168.365132 
L 643.038079 180.110625 
L 649.204055 192.552298 
L 655.370031 205.641788 
L 661.536006 219.328962 
L 667.701982 233.562233 
L 673.867958 248.28888 
L 680.033934 263.455376 
L 686.19991 279.007701 
L 698.531862 311.053206 
L 710.863813 343.995255 
L 754.025644 460.506197 
L 766.357596 492.650631 
L 778.689548 523.728886 
L 784.855523 538.792259 
L 791.021499 553.5034 
L 797.187475 567.839445 
L 803.353451 581.780257 
L 809.519427 595.308404 
L 815.685403 608.409104 
L 821.851379 621.070167 
L 828.017354 633.281915 
L 834.18333 645.037088 
L 840.349306 656.330747 
L 846.515282 667.160159 
L 852.681258 677.524675 
L 858.847234 687.425608 
L 865.01321 696.866094 
L 871.179185 705.850959 
L 877.345161 714.386579 
L 883.511137 722.480738 
L 889.677113 730.142492 
L 895.843089 737.382023 
L 902.009065 744.210508 
L 908.17504 750.63998 
L 914.341016 756.683204 
L 920.506992 762.353546 
L 926.672968 767.664857 
L 932.838944 772.631357 
L 939.00492 777.267531 
L 945.170896 781.588026 
L 951.336871 785.607559 
L 957.502847 789.340832 
L 963.668823 792.80245 
L 969.834799 796.006855 
L 976.000775 798.968256 
L 982.166751 801.70058 
L 988.332727 804.217415 
L 994.498702 806.531971 
L 1000.664678 808.657045 
L 1006.830654 810.604985 
L 1012.99663 812.387673 
L 1019.162606 814.016503 
L 1025.328582 815.502364 
L 1031.494558 816.855638 
L 1037.660533 818.08619 
L 1049.992485 820.216011 
L 1062.324437 821.960508 
L 1074.656388 823.38041 
L 1086.98834 824.528882 
L 1099.320292 825.452024 
L 1111.652244 826.189442 
L 1130.150171 827.019657 
L 1148.648099 827.598943 
L 1173.312002 828.099866 
L 1204.141881 828.449388 
L 1247.303712 828.666294 
L 1321.295423 828.76404 
L 1364.457254 828.775025 
L 1364.457254 828.775025 
" clip-path="url(#p66ef8ef5f1)" style="fill: none; stroke: #e377c2; stroke-width: 2; stroke-linecap: square"/>
   </g>
   <g id="patch_103">
    <path d="M 72.685313 828.779375 
L 72.685313 38.075625 
" style="fill: none; stroke: #000000; stroke-width: 0.8; stroke-linejoin: miter; stroke-linecap: square"/>
   </g>
   <g id="patch_104">
    <path d="M 1429.2 828.779375 
L 1429.2 38.075625 
" style="fill: none; stroke: #000000; stroke-width: 0.8; stroke-linejoin: miter; stroke-linecap: square"/>
   </g>
   <g id="patch_105">
    <path d="M 72.685313 828.779375 
L 1429.2 828.779375 
" style="fill: none; stroke: #000000; stroke-width: 0.8; stroke-linejoin: miter; stroke-linecap: square"/>
   </g>
   <g id="patch_106">
    <path d="M 72.685313 38.075625 
L 1429.2 38.075625 
" style="fill: none; stroke: #000000; stroke-width: 0.8; stroke-linejoin: miter; stroke-linecap: square"/>
   </g>
   <g id="text_15">
    <!-- All Fitted Distributions -->
    <g transform="translate(596.317031 32.075625)scale(0.28 -0.28)">
     <defs>
      <path id="DejaVuSans-41" d="M 2188 4044 
L 1331 1722 
L 3047 1722 
L 2188 4044 
z
M 1831 4666 
L 2547 4666 
L 4325 0 
L 3669 0 
L 3244 1197 
L 1141 1197 
L 716 0 
L 50 0 
L 1831 4666 
z
" transform="scale(0.015625)"/>
      <path id="DejaVuSans-6c" d="M 603 4863 
L 1178 4863 
L 1178 0 
L 603 0 
L 603 4863 
z
" transform="scale(0.015625)"/>
      <path id="DejaVuSans-46" d="M 628 4666 
L 3309 4666 
L 3309 4134 
L 1259 4134 
L 1259 2759 
L 3109 2759 
L 3109 2228 
L 1259 2228 
L 1259 0 
L 628 0 
L 628 4666 
z
" transform="scale(0.015625)"/>
      <path id="DejaVuSans-44" d="M 1259 4147 
L 1259 519 
L 2022 519 
Q 2988 519 3436 956 
Q 3884 1394 3884 2338 
Q 3884 3275 3436 3711 
Q 2988 4147 2022 4147 
L 1259 4147 
z
M 628 4666 
L 1925 4666 
Q 3281 4666 3915 4102 
Q 4550 3538 4550 2338 
Q 4550 1131 3912 565 
Q 3275 0 1925 0 
L 628 0 
L 628 4666 
z
" transform="scale(0.015625)"/>
      <path id="DejaVuSans-62" d="M 3116 1747 
Q 3116 2381 2855 2742 
Q 2594 3103 2138 3103 
Q 1681 3103 1420 2742 
Q 1159 2381 1159 1747 
Q 1159 1113 1420 752 
Q 1681 391 2138 391 
Q 2594 391 2855 752 
Q 3116 1113 3116 1747 
z
M 1159 2969 
Q 1341 3281 1617 3432 
Q 1894 3584 2278 3584 
Q 2916 3584 3314 3078 
Q 3713 2572 3713 1747 
Q 3713 922 3314 415 
Q 2916 -91 2278 -91 
Q 1894 -91 1617 61 
Q 1341 213 1159 525 
L 1159 0 
L 581 0 
L 581 4863 
L 1159 4863 
L 1159 2969 
z
" transform="scale(0.015625)"/>
     </defs>
     <use xlink:href="#DejaVuSans-41"/>
     <use xlink:href="#DejaVuSans-6c" x="68.408203"/>
     <use xlink:href="#DejaVuSans-6c" x="96.191406"/>
     <use xlink:href="#DejaVuSans-20" x="123.974609"/>
     <use xlink:href="#DejaVuSans-46" x="155.761719"/>
     <use xlink:href="#DejaVuSans-69" x="206.03125"/>
     <use xlink:href="#DejaVuSans-74" x="233.814453"/>
     <use xlink:href="#DejaVuSans-74" x="273.023438"/>
     <use xlink:href="#DejaVuSans-65" x="312.232422"/>
     <use xlink:href="#DejaVuSans-64" x="373.755859"/>
     <use xlink:href="#DejaVuSans-20" x="437.232422"/>
     <use xlink:href="#DejaVuSans-44" x="469.019531"/>
     <use xlink:href="#DejaVuSans-69" x="546.021484"/>
     <use xlink:href="#DejaVuSans-73" x="573.804688"/>
     <use xlink:href="#DejaVuSans-74" x="625.904297"/>
     <use xlink:href="#DejaVuSans-72" x="665.113281"/>
     <use xlink:href="#DejaVuSans-69" x="706.226562"/>
     <use xlink:href="#DejaVuSans-62" x="734.009766"/>
     <use xlink:href="#DejaVuSans-75" x="797.486328"/>
     <use xlink:href="#DejaVuSans-74" x="860.865234"/>
     <use xlink:href="#DejaVuSans-69" x="900.074219"/>
     <use xlink:href="#DejaVuSans-6f" x="927.857422"/>
     <use xlink:href="#DejaVuSans-6e" x="989.039062"/>
     <use xlink:href="#DejaVuSans-73" x="1052.417969"/>
    </g>
   </g>
   <g id="legend_1">
    <g id="patch_107">
     <path d="M 1014.37125 303.868125 
L 1412.4 303.868125 
Q 1417.2 303.868125 1417.2 299.068125 
L 1417.2 54.875625 
Q 1417.2 50.075625 1412.4 50.075625 
L 1014.37125 50.075625 
Q 1009.57125 50.075625 1009.57125 54.875625 
L 1009.57125 299.068125 
Q 1009.57125 303.868125 1014.37125 303.868125 
z
" style="fill: #ffffff; opacity: 0.8; stroke: #cccccc; stroke-linejoin: miter"/>
    </g>
    <g id="patch_108">
     <path d="M 1019.17125 77.911875 
L 1067.17125 77.911875 
L 1067.17125 61.111875 
L 1019.17125 61.111875 
z
" style="fill: #1f77b4; opacity: 0.6"/>
    </g>
    <g id="text_16">
     <!-- Generated Chi Distribution -->
     <g transform="translate(1086.37125 77.911875)scale(0.24 -0.24)">
      <defs>
       <path id="DejaVuSans-47" d="M 3809 666 
L 3809 1919 
L 2778 1919 
L 2778 2438 
L 4434 2438 
L 4434 434 
Q 4069 175 3628 42 
Q 3188 -91 2688 -91 
Q 1594 -91 976 548 
Q 359 1188 359 2328 
Q 359 3472 976 4111 
Q 1594 4750 2688 4750 
Q 3144 4750 3555 4637 
Q 3966 4525 4313 4306 
L 4313 3634 
Q 3963 3931 3569 4081 
Q 3175 4231 2741 4231 
Q 1884 4231 1454 3753 
Q 1025 3275 1025 2328 
Q 1025 1384 1454 906 
Q 1884 428 2741 428 
Q 3075 428 3337 486 
Q 3600 544 3809 666 
z
" transform="scale(0.015625)"/>
       <path id="DejaVuSans-61" d="M 2194 1759 
Q 1497 1759 1228 1600 
Q 959 1441 959 1056 
Q 959 750 1161 570 
Q 1363 391 1709 391 
Q 2188 391 2477 730 
Q 2766 1069 2766 1631 
L 2766 1759 
L 2194 1759 
z
M 3341 1997 
L 3341 0 
L 2766 0 
L 2766 531 
Q 2569 213 2275 61 
Q 1981 -91 1556 -91 
Q 1019 -91 701 211 
Q 384 513 384 1019 
Q 384 1609 779 1909 
Q 1175 2209 1959 2209 
L 2766 2209 
L 2766 2266 
Q 2766 2663 2505 2880 
Q 2244 3097 1772 3097 
Q 1472 3097 1187 3025 
Q 903 2953 641 2809 
L 641 3341 
Q 956 3463 1253 3523 
Q 1550 3584 1831 3584 
Q 2591 3584 2966 3190 
Q 3341 2797 3341 1997 
z
" transform="scale(0.015625)"/>
       <path id="DejaVuSans-68" d="M 3513 2113 
L 3513 0 
L 2938 0 
L 2938 2094 
Q 2938 2591 2744 2837 
Q 2550 3084 2163 3084 
Q 1697 3084 1428 2787 
Q 1159 2491 1159 1978 
L 1159 0 
L 581 0 
L 581 4863 
L 1159 4863 
L 1159 2956 
Q 1366 3272 1645 3428 
Q 1925 3584 2291 3584 
Q 2894 3584 3203 3211 
Q 3513 2838 3513 2113 
z
" transform="scale(0.015625)"/>
      </defs>
      <use xlink:href="#DejaVuSans-47"/>
      <use xlink:href="#DejaVuSans-65" x="77.490234"/>
      <use xlink:href="#DejaVuSans-6e" x="139.013672"/>
      <use xlink:href="#DejaVuSans-65" x="202.392578"/>
      <use xlink:href="#DejaVuSans-72" x="263.916016"/>
      <use xlink:href="#DejaVuSans-61" x="305.029297"/>
      <use xlink:href="#DejaVuSans-74" x="366.308594"/>
      <use xlink:href="#DejaVuSans-65" x="405.517578"/>
      <use xlink:href="#DejaVuSans-64" x="467.041016"/>
      <use xlink:href="#DejaVuSans-20" x="530.517578"/>
      <use xlink:href="#DejaVuSans-43" x="562.304688"/>
      <use xlink:href="#DejaVuSans-68" x="632.128906"/>
      <use xlink:href="#DejaVuSans-69" x="695.507812"/>
      <use xlink:href="#DejaVuSans-20" x="723.291016"/>
      <use xlink:href="#DejaVuSans-44" x="755.078125"/>
      <use xlink:href="#DejaVuSans-69" x="832.080078"/>
      <use xlink:href="#DejaVuSans-73" x="859.863281"/>
      <use xlink:href="#DejaVuSans-74" x="911.962891"/>
      <use xlink:href="#DejaVuSans-72" x="951.171875"/>
      <use xlink:href="#DejaVuSans-69" x="992.285156"/>
      <use xlink:href="#DejaVuSans-62" x="1020.068359"/>
      <use xlink:href="#DejaVuSans-75" x="1083.544922"/>
      <use xlink:href="#DejaVuSans-74" x="1146.923828"/>
      <use xlink:href="#DejaVuSans-69" x="1186.132812"/>
      <use xlink:href="#DejaVuSans-6f" x="1213.916016"/>
      <use xlink:href="#DejaVuSans-6e" x="1275.097656"/>
     </g>
    </g>
    <g id="line2d_20">
     <path d="M 1019.17125 104.739375 
L 1043.17125 104.739375 
L 1067.17125 104.739375 
" style="fill: none; stroke: #ff7f0e; stroke-width: 2; stroke-linecap: square"/>
    </g>
    <g id="text_17">
     <!-- Chi fit -->
     <g transform="translate(1086.37125 113.139375)scale(0.24 -0.24)">
      <defs>
       <path id="DejaVuSans-66" d="M 2375 4863 
L 2375 4384 
L 1825 4384 
Q 1516 4384 1395 4259 
Q 1275 4134 1275 3809 
L 1275 3500 
L 2222 3500 
L 2222 3053 
L 1275 3053 
L 1275 0 
L 697 0 
L 697 3053 
L 147 3053 
L 147 3500 
L 697 3500 
L 697 3744 
Q 697 4328 969 4595 
Q 1241 4863 1831 4863 
L 2375 4863 
z
" transform="scale(0.015625)"/>
      </defs>
      <use xlink:href="#DejaVuSans-43"/>
      <use xlink:href="#DejaVuSans-68" x="69.824219"/>
      <use xlink:href="#DejaVuSans-69" x="133.203125"/>
      <use xlink:href="#DejaVuSans-20" x="160.986328"/>
      <use xlink:href="#DejaVuSans-66" x="192.773438"/>
      <use xlink:href="#DejaVuSans-69" x="227.978516"/>
      <use xlink:href="#DejaVuSans-74" x="255.761719"/>
     </g>
    </g>
    <g id="line2d_21">
     <path d="M 1019.17125 139.966875 
L 1043.17125 139.966875 
L 1067.17125 139.966875 
" style="fill: none; stroke: #2ca02c; stroke-width: 2; stroke-linecap: square"/>
    </g>
    <g id="text_18">
     <!-- Chi-Square fit -->
     <g transform="translate(1086.37125 148.366875)scale(0.24 -0.24)">
      <defs>
       <path id="DejaVuSans-2d" d="M 313 2009 
L 1997 2009 
L 1997 1497 
L 313 1497 
L 313 2009 
z
" transform="scale(0.015625)"/>
       <path id="DejaVuSans-53" d="M 3425 4513 
L 3425 3897 
Q 3066 4069 2747 4153 
Q 2428 4238 2131 4238 
Q 1616 4238 1336 4038 
Q 1056 3838 1056 3469 
Q 1056 3159 1242 3001 
Q 1428 2844 1947 2747 
L 2328 2669 
Q 3034 2534 3370 2195 
Q 3706 1856 3706 1288 
Q 3706 609 3251 259 
Q 2797 -91 1919 -91 
Q 1588 -91 1214 -16 
Q 841 59 441 206 
L 441 856 
Q 825 641 1194 531 
Q 1563 422 1919 422 
Q 2459 422 2753 634 
Q 3047 847 3047 1241 
Q 3047 1584 2836 1778 
Q 2625 1972 2144 2069 
L 1759 2144 
Q 1053 2284 737 2584 
Q 422 2884 422 3419 
Q 422 4038 858 4394 
Q 1294 4750 2059 4750 
Q 2388 4750 2728 4690 
Q 3069 4631 3425 4513 
z
" transform="scale(0.015625)"/>
       <path id="DejaVuSans-71" d="M 947 1747 
Q 947 1113 1208 752 
Q 1469 391 1925 391 
Q 2381 391 2643 752 
Q 2906 1113 2906 1747 
Q 2906 2381 2643 2742 
Q 2381 3103 1925 3103 
Q 1469 3103 1208 2742 
Q 947 2381 947 1747 
z
M 2906 525 
Q 2725 213 2448 61 
Q 2172 -91 1784 -91 
Q 1150 -91 751 415 
Q 353 922 353 1747 
Q 353 2572 751 3078 
Q 1150 3584 1784 3584 
Q 2172 3584 2448 3432 
Q 2725 3281 2906 2969 
L 2906 3500 
L 3481 3500 
L 3481 -1331 
L 2906 -1331 
L 2906 525 
z
" transform="scale(0.015625)"/>
      </defs>
      <use xlink:href="#DejaVuSans-43"/>
      <use xlink:href="#DejaVuSans-68" x="69.824219"/>
      <use xlink:href="#DejaVuSans-69" x="133.203125"/>
      <use xlink:href="#DejaVuSans-2d" x="160.986328"/>
      <use xlink:href="#DejaVuSans-53" x="197.070312"/>
      <use xlink:href="#DejaVuSans-71" x="260.546875"/>
      <use xlink:href="#DejaVuSans-75" x="324.023438"/>
      <use xlink:href="#DejaVuSans-61" x="387.402344"/>
      <use xlink:href="#DejaVuSans-72" x="448.681641"/>
      <use xlink:href="#DejaVuSans-65" x="487.544922"/>
      <use xlink:href="#DejaVuSans-20" x="549.068359"/>
      <use xlink:href="#DejaVuSans-66" x="580.855469"/>
      <use xlink:href="#DejaVuSans-69" x="616.060547"/>
      <use xlink:href="#DejaVuSans-74" x="643.84375"/>
     </g>
    </g>
    <g id="line2d_22">
     <path d="M 1019.17125 175.194375 
L 1043.17125 175.194375 
L 1067.17125 175.194375 
" style="fill: none; stroke: #d62728; stroke-width: 2; stroke-linecap: square"/>
    </g>
    <g id="text_19">
     <!-- Exponential fit -->
     <g transform="translate(1086.37125 183.594375)scale(0.24 -0.24)">
      <defs>
       <path id="DejaVuSans-45" d="M 628 4666 
L 3578 4666 
L 3578 4134 
L 1259 4134 
L 1259 2753 
L 3481 2753 
L 3481 2222 
L 1259 2222 
L 1259 531 
L 3634 531 
L 3634 0 
L 628 0 
L 628 4666 
z
" transform="scale(0.015625)"/>
       <path id="DejaVuSans-78" d="M 3513 3500 
L 2247 1797 
L 3578 0 
L 2900 0 
L 1881 1375 
L 863 0 
L 184 0 
L 1544 1831 
L 300 3500 
L 978 3500 
L 1906 2253 
L 2834 3500 
L 3513 3500 
z
" transform="scale(0.015625)"/>
       <path id="DejaVuSans-70" d="M 1159 525 
L 1159 -1331 
L 581 -1331 
L 581 3500 
L 1159 3500 
L 1159 2969 
Q 1341 3281 1617 3432 
Q 1894 3584 2278 3584 
Q 2916 3584 3314 3078 
Q 3713 2572 3713 1747 
Q 3713 922 3314 415 
Q 2916 -91 2278 -91 
Q 1894 -91 1617 61 
Q 1341 213 1159 525 
z
M 3116 1747 
Q 3116 2381 2855 2742 
Q 2594 3103 2138 3103 
Q 1681 3103 1420 2742 
Q 1159 2381 1159 1747 
Q 1159 1113 1420 752 
Q 1681 391 2138 391 
Q 2594 391 2855 752 
Q 3116 1113 3116 1747 
z
" transform="scale(0.015625)"/>
      </defs>
      <use xlink:href="#DejaVuSans-45"/>
      <use xlink:href="#DejaVuSans-78" x="63.183594"/>
      <use xlink:href="#DejaVuSans-70" x="122.363281"/>
      <use xlink:href="#DejaVuSans-6f" x="185.839844"/>
      <use xlink:href="#DejaVuSans-6e" x="247.021484"/>
      <use xlink:href="#DejaVuSans-65" x="310.400391"/>
      <use xlink:href="#DejaVuSans-6e" x="371.923828"/>
      <use xlink:href="#DejaVuSans-74" x="435.302734"/>
      <use xlink:href="#DejaVuSans-69" x="474.511719"/>
      <use xlink:href="#DejaVuSans-61" x="502.294922"/>
      <use xlink:href="#DejaVuSans-6c" x="563.574219"/>
      <use xlink:href="#DejaVuSans-20" x="591.357422"/>
      <use xlink:href="#DejaVuSans-66" x="623.144531"/>
      <use xlink:href="#DejaVuSans-69" x="658.349609"/>
      <use xlink:href="#DejaVuSans-74" x="686.132812"/>
     </g>
    </g>
    <g id="line2d_23">
     <path d="M 1019.17125 210.421875 
L 1043.17125 210.421875 
L 1067.17125 210.421875 
" style="fill: none; stroke: #9467bd; stroke-width: 2; stroke-linecap: square"/>
    </g>
    <g id="text_20">
     <!-- Laplace fit -->
     <g transform="translate(1086.37125 218.821875)scale(0.24 -0.24)">
      <defs>
       <path id="DejaVuSans-4c" d="M 628 4666 
L 1259 4666 
L 1259 531 
L 3531 531 
L 3531 0 
L 628 0 
L 628 4666 
z
" transform="scale(0.015625)"/>
       <path id="DejaVuSans-63" d="M 3122 3366 
L 3122 2828 
Q 2878 2963 2633 3030 
Q 2388 3097 2138 3097 
Q 1578 3097 1268 2742 
Q 959 2388 959 1747 
Q 959 1106 1268 751 
Q 1578 397 2138 397 
Q 2388 397 2633 464 
Q 2878 531 3122 666 
L 3122 134 
Q 2881 22 2623 -34 
Q 2366 -91 2075 -91 
Q 1284 -91 818 406 
Q 353 903 353 1747 
Q 353 2603 823 3093 
Q 1294 3584 2113 3584 
Q 2378 3584 2631 3529 
Q 2884 3475 3122 3366 
z
" transform="scale(0.015625)"/>
      </defs>
      <use xlink:href="#DejaVuSans-4c"/>
      <use xlink:href="#DejaVuSans-61" x="55.712891"/>
      <use xlink:href="#DejaVuSans-70" x="116.992188"/>
      <use xlink:href="#DejaVuSans-6c" x="180.46875"/>
      <use xlink:href="#DejaVuSans-61" x="208.251953"/>
      <use xlink:href="#DejaVuSans-63" x="269.53125"/>
      <use xlink:href="#DejaVuSans-65" x="324.511719"/>
      <use xlink:href="#DejaVuSans-20" x="386.035156"/>
      <use xlink:href="#DejaVuSans-66" x="417.822266"/>
      <use xlink:href="#DejaVuSans-69" x="453.027344"/>
      <use xlink:href="#DejaVuSans-74" x="480.810547"/>
     </g>
    </g>
    <g id="line2d_24">
     <path d="M 1019.17125 245.649375 
L 1043.17125 245.649375 
L 1067.17125 245.649375 
" style="fill: none; stroke: #8c564b; stroke-width: 2; stroke-linecap: square"/>
    </g>
    <g id="text_21">
     <!-- LogNorm fit -->
     <g transform="translate(1086.37125 254.049375)scale(0.24 -0.24)">
      <defs>
       <path id="DejaVuSans-67" d="M 2906 1791 
Q 2906 2416 2648 2759 
Q 2391 3103 1925 3103 
Q 1463 3103 1205 2759 
Q 947 2416 947 1791 
Q 947 1169 1205 825 
Q 1463 481 1925 481 
Q 2391 481 2648 825 
Q 2906 1169 2906 1791 
z
M 3481 434 
Q 3481 -459 3084 -895 
Q 2688 -1331 1869 -1331 
Q 1566 -1331 1297 -1286 
Q 1028 -1241 775 -1147 
L 775 -588 
Q 1028 -725 1275 -790 
Q 1522 -856 1778 -856 
Q 2344 -856 2625 -561 
Q 2906 -266 2906 331 
L 2906 616 
Q 2728 306 2450 153 
Q 2172 0 1784 0 
Q 1141 0 747 490 
Q 353 981 353 1791 
Q 353 2603 747 3093 
Q 1141 3584 1784 3584 
Q 2172 3584 2450 3431 
Q 2728 3278 2906 2969 
L 2906 3500 
L 3481 3500 
L 3481 434 
z
" transform="scale(0.015625)"/>
      </defs>
      <use xlink:href="#DejaVuSans-4c"/>
      <use xlink:href="#DejaVuSans-6f" x="53.962891"/>
      <use xlink:href="#DejaVuSans-67" x="115.144531"/>
      <use xlink:href="#DejaVuSans-4e" x="178.621094"/>
      <use xlink:href="#DejaVuSans-6f" x="253.425781"/>
      <use xlink:href="#DejaVuSans-72" x="314.607422"/>
      <use xlink:href="#DejaVuSans-6d" x="353.970703"/>
      <use xlink:href="#DejaVuSans-20" x="451.382812"/>
      <use xlink:href="#DejaVuSans-66" x="483.169922"/>
      <use xlink:href="#DejaVuSans-69" x="518.375"/>
      <use xlink:href="#DejaVuSans-74" x="546.158203"/>
     </g>
    </g>
    <g id="line2d_25">
     <path d="M 1019.17125 280.876875 
L 1043.17125 280.876875 
L 1067.17125 280.876875 
" style="fill: none; stroke: #e377c2; stroke-width: 2; stroke-linecap: square"/>
    </g>
    <g id="text_22">
     <!-- Normal fit -->
     <g transform="translate(1086.37125 289.276875)scale(0.24 -0.24)">
      <use xlink:href="#DejaVuSans-4e"/>
      <use xlink:href="#DejaVuSans-6f" x="74.804688"/>
      <use xlink:href="#DejaVuSans-72" x="135.986328"/>
      <use xlink:href="#DejaVuSans-6d" x="175.349609"/>
      <use xlink:href="#DejaVuSans-61" x="272.761719"/>
      <use xlink:href="#DejaVuSans-6c" x="334.041016"/>
      <use xlink:href="#DejaVuSans-20" x="361.824219"/>
      <use xlink:href="#DejaVuSans-66" x="393.611328"/>
      <use xlink:href="#DejaVuSans-69" x="428.816406"/>
      <use xlink:href="#DejaVuSans-74" x="456.599609"/>
     </g>
    </g>
   </g>
  </g>
 </g>
 <defs>
  <clipPath id="p66ef8ef5f1">
   <rect x="72.685313" y="38.075625" width="1356.514688" height="790.70375"/>
  </clipPath>
 </defs>
</svg>
