<?xml version="1.0" encoding="utf-8" standalone="no"?>
<!DOCTYPE svg PUBLIC "-//W3C//DTD SVG 1.1//EN"
  "http://www.w3.org/Graphics/SVG/1.1/DTD/svg11.dtd">
<svg xmlns:xlink="http://www.w3.org/1999/xlink" width="1440pt" height="864pt" viewBox="0 0 1440 864" xmlns="http://www.w3.org/2000/svg" version="1.1">
 <metadata>
  <rdf:RDF xmlns:dc="http://purl.org/dc/elements/1.1/" xmlns:cc="http://creativecommons.org/ns#" xmlns:rdf="http://www.w3.org/1999/02/22-rdf-syntax-ns#">
   <cc:Work>
    <dc:type rdf:resource="http://purl.org/dc/dcmitype/StillImage"/>
    <dc:date>2022-03-15T09:49:18.691300</dc:date>
    <dc:format>image/svg+xml</dc:format>
    <dc:creator>
     <cc:Agent>
      <dc:title>Matplotlib v3.5.1, https://matplotlib.org/</dc:title>
     </cc:Agent>
    </dc:creator>
   </cc:Work>
  </rdf:RDF>
 </metadata>
 <defs>
  <style type="text/css">*{stroke-linejoin: round; stroke-linecap: butt}</style>
 </defs>
 <g id="figure_1">
  <g id="patch_1">
   <path d="M 0 864 
L 1440 864 
L 1440 0 
L 0 0 
z
" style="fill: #ffffff"/>
  </g>
  <g id="axes_1">
   <g id="patch_2">
    <path d="M 72.685313 828.779375 
L 1429.2 828.779375 
L 1429.2 38.075625 
L 72.685313 38.075625 
z
" style="fill: #ffffff"/>
   </g>
   <g id="patch_3">
    <path d="M 134.345071 828.779375 
L 146.677023 828.779375 
L 146.677023 825.6931 
L 134.345071 825.6931 
z
" clip-path="url(#p7e93f2fb45)" style="fill: #1f77b4; opacity: 0.6"/>
   </g>
   <g id="patch_4">
    <path d="M 146.677023 828.779375 
L 159.008974 828.779375 
L 159.008974 820.549307 
L 146.677023 820.549307 
z
" clip-path="url(#p7e93f2fb45)" style="fill: #1f77b4; opacity: 0.6"/>
   </g>
   <g id="patch_5">
    <path d="M 159.008974 828.779375 
L 171.340926 828.779375 
L 171.340926 819.520549 
L 159.008974 819.520549 
z
" clip-path="url(#p7e93f2fb45)" style="fill: #1f77b4; opacity: 0.6"/>
   </g>
   <g id="patch_6">
    <path d="M 171.340926 828.779375 
L 183.672878 828.779375 
L 183.672878 812.31924 
L 171.340926 812.31924 
z
" clip-path="url(#p7e93f2fb45)" style="fill: #1f77b4; opacity: 0.6"/>
   </g>
   <g id="patch_7">
    <path d="M 183.672878 828.779375 
L 196.00483 828.779375 
L 196.00483 801.002897 
L 183.672878 801.002897 
z
" clip-path="url(#p7e93f2fb45)" style="fill: #1f77b4; opacity: 0.6"/>
   </g>
   <g id="patch_8">
    <path d="M 196.00483 828.779375 
L 208.336781 828.779375 
L 208.336781 782.485244 
L 196.00483 782.485244 
z
" clip-path="url(#p7e93f2fb45)" style="fill: #1f77b4; opacity: 0.6"/>
   </g>
   <g id="patch_9">
    <path d="M 208.336781 828.779375 
L 220.668733 828.779375 
L 220.668733 764.481971 
L 208.336781 764.481971 
z
" clip-path="url(#p7e93f2fb45)" style="fill: #1f77b4; opacity: 0.6"/>
   </g>
   <g id="patch_10">
    <path d="M 220.668733 828.779375 
L 233.000685 828.779375 
L 233.000685 753.680008 
L 220.668733 753.680008 
z
" clip-path="url(#p7e93f2fb45)" style="fill: #1f77b4; opacity: 0.6"/>
   </g>
   <g id="patch_11">
    <path d="M 233.000685 828.779375 
L 245.332636 828.779375 
L 245.332636 716.130324 
L 233.000685 716.130324 
z
" clip-path="url(#p7e93f2fb45)" style="fill: #1f77b4; opacity: 0.6"/>
   </g>
   <g id="patch_12">
    <path d="M 245.332636 828.779375 
L 257.664588 828.779375 
L 257.664588 696.069534 
L 245.332636 696.069534 
z
" clip-path="url(#p7e93f2fb45)" style="fill: #1f77b4; opacity: 0.6"/>
   </g>
   <g id="patch_13">
    <path d="M 257.664588 828.779375 
L 269.99654 828.779375 
L 269.99654 673.951227 
L 257.664588 673.951227 
z
" clip-path="url(#p7e93f2fb45)" style="fill: #1f77b4; opacity: 0.6"/>
   </g>
   <g id="patch_14">
    <path d="M 269.99654 828.779375 
L 282.328491 828.779375 
L 282.328491 619.427029 
L 269.99654 619.427029 
z
" clip-path="url(#p7e93f2fb45)" style="fill: #1f77b4; opacity: 0.6"/>
   </g>
   <g id="patch_15">
    <path d="M 282.328491 828.779375 
L 294.660443 828.779375 
L 294.660443 582.391725 
L 282.328491 582.391725 
z
" clip-path="url(#p7e93f2fb45)" style="fill: #1f77b4; opacity: 0.6"/>
   </g>
   <g id="patch_16">
    <path d="M 294.660443 828.779375 
L 306.992395 828.779375 
L 306.992395 575.190415 
L 294.660443 575.190415 
z
" clip-path="url(#p7e93f2fb45)" style="fill: #1f77b4; opacity: 0.6"/>
   </g>
   <g id="patch_17">
    <path d="M 306.992395 828.779375 
L 319.324347 828.779375 
L 319.324347 539.183869 
L 306.992395 539.183869 
z
" clip-path="url(#p7e93f2fb45)" style="fill: #1f77b4; opacity: 0.6"/>
   </g>
   <g id="patch_18">
    <path d="M 319.324347 828.779375 
L 331.656298 828.779375 
L 331.656298 475.400845 
L 319.324347 475.400845 
z
" clip-path="url(#p7e93f2fb45)" style="fill: #1f77b4; opacity: 0.6"/>
   </g>
   <g id="patch_19">
    <path d="M 331.656298 828.779375 
L 343.98825 828.779375 
L 343.98825 469.742674 
L 331.656298 469.742674 
z
" clip-path="url(#p7e93f2fb45)" style="fill: #1f77b4; opacity: 0.6"/>
   </g>
   <g id="patch_20">
    <path d="M 343.98825 828.779375 
L 356.320202 828.779375 
L 356.320202 432.707369 
L 343.98825 432.707369 
z
" clip-path="url(#p7e93f2fb45)" style="fill: #1f77b4; opacity: 0.6"/>
   </g>
   <g id="patch_21">
    <path d="M 356.320202 828.779375 
L 368.652153 828.779375 
L 368.652153 375.096895 
L 356.320202 375.096895 
z
" clip-path="url(#p7e93f2fb45)" style="fill: #1f77b4; opacity: 0.6"/>
   </g>
   <g id="patch_22">
    <path d="M 368.652153 828.779375 
L 380.984105 828.779375 
L 380.984105 336.518453 
L 368.652153 336.518453 
z
" clip-path="url(#p7e93f2fb45)" style="fill: #1f77b4; opacity: 0.6"/>
   </g>
   <g id="patch_23">
    <path d="M 380.984105 828.779375 
L 393.316057 828.779375 
L 393.316057 301.026287 
L 380.984105 301.026287 
z
" clip-path="url(#p7e93f2fb45)" style="fill: #1f77b4; opacity: 0.6"/>
   </g>
   <g id="patch_24">
    <path d="M 393.316057 828.779375 
L 405.648009 828.779375 
L 405.648009 276.336084 
L 393.316057 276.336084 
z
" clip-path="url(#p7e93f2fb45)" style="fill: #1f77b4; opacity: 0.6"/>
   </g>
   <g id="patch_25">
    <path d="M 405.648009 828.779375 
L 417.97996 828.779375 
L 417.97996 201.751095 
L 405.648009 201.751095 
z
" clip-path="url(#p7e93f2fb45)" style="fill: #1f77b4; opacity: 0.6"/>
   </g>
   <g id="patch_26">
    <path d="M 417.97996 828.779375 
L 430.311912 828.779375 
L 430.311912 178.089651 
L 417.97996 178.089651 
z
" clip-path="url(#p7e93f2fb45)" style="fill: #1f77b4; opacity: 0.6"/>
   </g>
   <g id="patch_27">
    <path d="M 430.311912 828.779375 
L 442.643864 828.779375 
L 442.643864 171.402721 
L 430.311912 171.402721 
z
" clip-path="url(#p7e93f2fb45)" style="fill: #1f77b4; opacity: 0.6"/>
   </g>
   <g id="patch_28">
    <path d="M 442.643864 828.779375 
L 454.975815 828.779375 
L 454.975815 110.191593 
L 442.643864 110.191593 
z
" clip-path="url(#p7e93f2fb45)" style="fill: #1f77b4; opacity: 0.6"/>
   </g>
   <g id="patch_29">
    <path d="M 454.975815 828.779375 
L 467.307767 828.779375 
L 467.307767 135.396175 
L 454.975815 135.396175 
z
" clip-path="url(#p7e93f2fb45)" style="fill: #1f77b4; opacity: 0.6"/>
   </g>
   <g id="patch_30">
    <path d="M 467.307767 828.779375 
L 479.639719 828.779375 
L 479.639719 124.594211 
L 467.307767 124.594211 
z
" clip-path="url(#p7e93f2fb45)" style="fill: #1f77b4; opacity: 0.6"/>
   </g>
   <g id="patch_31">
    <path d="M 479.639719 828.779375 
L 491.97167 828.779375 
L 491.97167 83.443873 
L 479.639719 83.443873 
z
" clip-path="url(#p7e93f2fb45)" style="fill: #1f77b4; opacity: 0.6"/>
   </g>
   <g id="patch_32">
    <path d="M 491.97167 828.779375 
L 504.303622 828.779375 
L 504.303622 75.728185 
L 491.97167 75.728185 
z
" clip-path="url(#p7e93f2fb45)" style="fill: #1f77b4; opacity: 0.6"/>
   </g>
   <g id="patch_33">
    <path d="M 504.303622 828.779375 
L 516.635574 828.779375 
L 516.635574 101.961525 
L 504.303622 101.961525 
z
" clip-path="url(#p7e93f2fb45)" style="fill: #1f77b4; opacity: 0.6"/>
   </g>
   <g id="patch_34">
    <path d="M 516.635574 828.779375 
L 528.967526 828.779375 
L 528.967526 110.191593 
L 516.635574 110.191593 
z
" clip-path="url(#p7e93f2fb45)" style="fill: #1f77b4; opacity: 0.6"/>
   </g>
   <g id="patch_35">
    <path d="M 528.967526 828.779375 
L 541.299477 828.779375 
L 541.299477 94.245837 
L 528.967526 94.245837 
z
" clip-path="url(#p7e93f2fb45)" style="fill: #1f77b4; opacity: 0.6"/>
   </g>
   <g id="patch_36">
    <path d="M 541.299477 828.779375 
L 553.631429 828.779375 
L 553.631429 88.587665 
L 541.299477 88.587665 
z
" clip-path="url(#p7e93f2fb45)" style="fill: #1f77b4; opacity: 0.6"/>
   </g>
   <g id="patch_37">
    <path d="M 553.631429 828.779375 
L 565.963381 828.779375 
L 565.963381 95.274595 
L 553.631429 95.274595 
z
" clip-path="url(#p7e93f2fb45)" style="fill: #1f77b4; opacity: 0.6"/>
   </g>
   <g id="patch_38">
    <path d="M 565.963381 828.779375 
L 578.295332 828.779375 
L 578.295332 96.303354 
L 565.963381 96.303354 
z
" clip-path="url(#p7e93f2fb45)" style="fill: #1f77b4; opacity: 0.6"/>
   </g>
   <g id="patch_39">
    <path d="M 578.295332 828.779375 
L 590.627284 828.779375 
L 590.627284 129.223624 
L 578.295332 129.223624 
z
" clip-path="url(#p7e93f2fb45)" style="fill: #1f77b4; opacity: 0.6"/>
   </g>
   <g id="patch_40">
    <path d="M 590.627284 828.779375 
L 602.959236 828.779375 
L 602.959236 112.763489 
L 590.627284 112.763489 
z
" clip-path="url(#p7e93f2fb45)" style="fill: #1f77b4; opacity: 0.6"/>
   </g>
   <g id="patch_41">
    <path d="M 602.959236 828.779375 
L 615.291187 828.779375 
L 615.291187 147.741277 
L 602.959236 147.741277 
z
" clip-path="url(#p7e93f2fb45)" style="fill: #1f77b4; opacity: 0.6"/>
   </g>
   <g id="patch_42">
    <path d="M 615.291187 828.779375 
L 627.623139 828.779375 
L 627.623139 206.894888 
L 615.291187 206.894888 
z
" clip-path="url(#p7e93f2fb45)" style="fill: #1f77b4; opacity: 0.6"/>
   </g>
   <g id="patch_43">
    <path d="M 627.623139 828.779375 
L 639.955091 828.779375 
L 639.955091 224.383782 
L 627.623139 224.383782 
z
" clip-path="url(#p7e93f2fb45)" style="fill: #1f77b4; opacity: 0.6"/>
   </g>
   <g id="patch_44">
    <path d="M 639.955091 828.779375 
L 652.287043 828.779375 
L 652.287043 232.613849 
L 639.955091 232.613849 
z
" clip-path="url(#p7e93f2fb45)" style="fill: #1f77b4; opacity: 0.6"/>
   </g>
   <g id="patch_45">
    <path d="M 652.287043 828.779375 
L 664.618994 828.779375 
L 664.618994 283.023014 
L 652.287043 283.023014 
z
" clip-path="url(#p7e93f2fb45)" style="fill: #1f77b4; opacity: 0.6"/>
   </g>
   <g id="patch_46">
    <path d="M 664.618994 828.779375 
L 676.950946 828.779375 
L 676.950946 284.051772 
L 664.618994 284.051772 
z
" clip-path="url(#p7e93f2fb45)" style="fill: #1f77b4; opacity: 0.6"/>
   </g>
   <g id="patch_47">
    <path d="M 676.950946 828.779375 
L 689.282898 828.779375 
L 689.282898 305.6557 
L 676.950946 305.6557 
z
" clip-path="url(#p7e93f2fb45)" style="fill: #1f77b4; opacity: 0.6"/>
   </g>
   <g id="patch_48">
    <path d="M 689.282898 828.779375 
L 701.614849 828.779375 
L 701.614849 348.863555 
L 689.282898 348.863555 
z
" clip-path="url(#p7e93f2fb45)" style="fill: #1f77b4; opacity: 0.6"/>
   </g>
   <g id="patch_49">
    <path d="M 701.614849 828.779375 
L 713.946801 828.779375 
L 713.946801 393.614548 
L 701.614849 393.614548 
z
" clip-path="url(#p7e93f2fb45)" style="fill: #1f77b4; opacity: 0.6"/>
   </g>
   <g id="patch_50">
    <path d="M 713.946801 828.779375 
L 726.278753 828.779375 
L 726.278753 421.905405 
L 713.946801 421.905405 
z
" clip-path="url(#p7e93f2fb45)" style="fill: #1f77b4; opacity: 0.6"/>
   </g>
   <g id="patch_51">
    <path d="M 726.278753 828.779375 
L 738.610705 828.779375 
L 738.610705 450.196263 
L 726.278753 450.196263 
z
" clip-path="url(#p7e93f2fb45)" style="fill: #1f77b4; opacity: 0.6"/>
   </g>
   <g id="patch_52">
    <path d="M 738.610705 828.779375 
L 750.942656 828.779375 
L 750.942656 452.768159 
L 738.610705 452.768159 
z
" clip-path="url(#p7e93f2fb45)" style="fill: #1f77b4; opacity: 0.6"/>
   </g>
   <g id="patch_53">
    <path d="M 750.942656 828.779375 
L 763.274608 828.779375 
L 763.274608 471.285811 
L 750.942656 471.285811 
z
" clip-path="url(#p7e93f2fb45)" style="fill: #1f77b4; opacity: 0.6"/>
   </g>
   <g id="patch_54">
    <path d="M 763.274608 828.779375 
L 775.60656 828.779375 
L 775.60656 505.74922 
L 763.274608 505.74922 
z
" clip-path="url(#p7e93f2fb45)" style="fill: #1f77b4; opacity: 0.6"/>
   </g>
   <g id="patch_55">
    <path d="M 775.60656 828.779375 
L 787.938511 828.779375 
L 787.938511 543.813282 
L 775.60656 543.813282 
z
" clip-path="url(#p7e93f2fb45)" style="fill: #1f77b4; opacity: 0.6"/>
   </g>
   <g id="patch_56">
    <path d="M 787.938511 828.779375 
L 800.270463 828.779375 
L 800.270463 593.193688 
L 787.938511 593.193688 
z
" clip-path="url(#p7e93f2fb45)" style="fill: #1f77b4; opacity: 0.6"/>
   </g>
   <g id="patch_57">
    <path d="M 800.270463 828.779375 
L 812.602415 828.779375 
L 812.602415 588.564275 
L 800.270463 588.564275 
z
" clip-path="url(#p7e93f2fb45)" style="fill: #1f77b4; opacity: 0.6"/>
   </g>
   <g id="patch_58">
    <path d="M 812.602415 828.779375 
L 824.934366 828.779375 
L 824.934366 596.279964 
L 812.602415 596.279964 
z
" clip-path="url(#p7e93f2fb45)" style="fill: #1f77b4; opacity: 0.6"/>
   </g>
   <g id="patch_59">
    <path d="M 824.934366 828.779375 
L 837.266318 828.779375 
L 837.266318 638.45906 
L 824.934366 638.45906 
z
" clip-path="url(#p7e93f2fb45)" style="fill: #1f77b4; opacity: 0.6"/>
   </g>
   <g id="patch_60">
    <path d="M 837.266318 828.779375 
L 849.59827 828.779375 
L 849.59827 659.548609 
L 837.266318 659.548609 
z
" clip-path="url(#p7e93f2fb45)" style="fill: #1f77b4; opacity: 0.6"/>
   </g>
   <g id="patch_61">
    <path d="M 849.59827 828.779375 
L 861.930222 828.779375 
L 861.930222 665.20678 
L 849.59827 665.20678 
z
" clip-path="url(#p7e93f2fb45)" style="fill: #1f77b4; opacity: 0.6"/>
   </g>
   <g id="patch_62">
    <path d="M 861.930222 828.779375 
L 874.262173 828.779375 
L 874.262173 677.037503 
L 861.930222 677.037503 
z
" clip-path="url(#p7e93f2fb45)" style="fill: #1f77b4; opacity: 0.6"/>
   </g>
   <g id="patch_63">
    <path d="M 874.262173 828.779375 
L 886.594125 828.779375 
L 886.594125 696.583913 
L 874.262173 696.583913 
z
" clip-path="url(#p7e93f2fb45)" style="fill: #1f77b4; opacity: 0.6"/>
   </g>
   <g id="patch_64">
    <path d="M 886.594125 828.779375 
L 898.926077 828.779375 
L 898.926077 709.957773 
L 886.594125 709.957773 
z
" clip-path="url(#p7e93f2fb45)" style="fill: #1f77b4; opacity: 0.6"/>
   </g>
   <g id="patch_65">
    <path d="M 898.926077 828.779375 
L 911.258028 828.779375 
L 911.258028 726.417909 
L 898.926077 726.417909 
z
" clip-path="url(#p7e93f2fb45)" style="fill: #1f77b4; opacity: 0.6"/>
   </g>
   <g id="patch_66">
    <path d="M 911.258028 828.779375 
L 923.58998 828.779375 
L 923.58998 728.475425 
L 911.258028 728.475425 
z
" clip-path="url(#p7e93f2fb45)" style="fill: #1f77b4; opacity: 0.6"/>
   </g>
   <g id="patch_67">
    <path d="M 923.58998 828.779375 
L 935.921932 828.779375 
L 935.921932 757.795041 
L 923.58998 757.795041 
z
" clip-path="url(#p7e93f2fb45)" style="fill: #1f77b4; opacity: 0.6"/>
   </g>
   <g id="patch_68">
    <path d="M 935.921932 828.779375 
L 948.253884 828.779375 
L 948.253884 757.795041 
L 935.921932 757.795041 
z
" clip-path="url(#p7e93f2fb45)" style="fill: #1f77b4; opacity: 0.6"/>
   </g>
   <g id="patch_69">
    <path d="M 948.253884 828.779375 
L 960.585835 828.779375 
L 960.585835 764.481971 
L 948.253884 764.481971 
z
" clip-path="url(#p7e93f2fb45)" style="fill: #1f77b4; opacity: 0.6"/>
   </g>
   <g id="patch_70">
    <path d="M 960.585835 828.779375 
L 972.917787 828.779375 
L 972.917787 770.654522 
L 960.585835 770.654522 
z
" clip-path="url(#p7e93f2fb45)" style="fill: #1f77b4; opacity: 0.6"/>
   </g>
   <g id="patch_71">
    <path d="M 972.917787 828.779375 
L 985.249739 828.779375 
L 985.249739 779.913348 
L 972.917787 779.913348 
z
" clip-path="url(#p7e93f2fb45)" style="fill: #1f77b4; opacity: 0.6"/>
   </g>
   <g id="patch_72">
    <path d="M 985.249739 828.779375 
L 997.58169 828.779375 
L 997.58169 787.114657 
L 985.249739 787.114657 
z
" clip-path="url(#p7e93f2fb45)" style="fill: #1f77b4; opacity: 0.6"/>
   </g>
   <g id="patch_73">
    <path d="M 997.58169 828.779375 
L 1009.913642 828.779375 
L 1009.913642 789.686554 
L 997.58169 789.686554 
z
" clip-path="url(#p7e93f2fb45)" style="fill: #1f77b4; opacity: 0.6"/>
   </g>
   <g id="patch_74">
    <path d="M 1009.913642 828.779375 
L 1022.245594 828.779375 
L 1022.245594 795.344725 
L 1009.913642 795.344725 
z
" clip-path="url(#p7e93f2fb45)" style="fill: #1f77b4; opacity: 0.6"/>
   </g>
   <g id="patch_75">
    <path d="M 1022.245594 828.779375 
L 1034.577545 828.779375 
L 1034.577545 804.089172 
L 1022.245594 804.089172 
z
" clip-path="url(#p7e93f2fb45)" style="fill: #1f77b4; opacity: 0.6"/>
   </g>
   <g id="patch_76">
    <path d="M 1034.577545 828.779375 
L 1046.909497 828.779375 
L 1046.909497 812.31924 
L 1034.577545 812.31924 
z
" clip-path="url(#p7e93f2fb45)" style="fill: #1f77b4; opacity: 0.6"/>
   </g>
   <g id="patch_77">
    <path d="M 1046.909497 828.779375 
L 1059.241449 828.779375 
L 1059.241449 808.718585 
L 1046.909497 808.718585 
z
" clip-path="url(#p7e93f2fb45)" style="fill: #1f77b4; opacity: 0.6"/>
   </g>
   <g id="patch_78">
    <path d="M 1059.241449 828.779375 
L 1071.573401 828.779375 
L 1071.573401 810.776102 
L 1059.241449 810.776102 
z
" clip-path="url(#p7e93f2fb45)" style="fill: #1f77b4; opacity: 0.6"/>
   </g>
   <g id="patch_79">
    <path d="M 1071.573401 828.779375 
L 1083.905352 828.779375 
L 1083.905352 815.405515 
L 1071.573401 815.405515 
z
" clip-path="url(#p7e93f2fb45)" style="fill: #1f77b4; opacity: 0.6"/>
   </g>
   <g id="patch_80">
    <path d="M 1083.905352 828.779375 
L 1096.237304 828.779375 
L 1096.237304 818.49179 
L 1083.905352 818.49179 
z
" clip-path="url(#p7e93f2fb45)" style="fill: #1f77b4; opacity: 0.6"/>
   </g>
   <g id="patch_81">
    <path d="M 1096.237304 828.779375 
L 1108.569256 828.779375 
L 1108.569256 817.977411 
L 1096.237304 817.977411 
z
" clip-path="url(#p7e93f2fb45)" style="fill: #1f77b4; opacity: 0.6"/>
   </g>
   <g id="patch_82">
    <path d="M 1108.569256 828.779375 
L 1120.901207 828.779375 
L 1120.901207 821.578066 
L 1108.569256 821.578066 
z
" clip-path="url(#p7e93f2fb45)" style="fill: #1f77b4; opacity: 0.6"/>
   </g>
   <g id="patch_83">
    <path d="M 1120.901207 828.779375 
L 1133.233159 828.779375 
L 1133.233159 818.49179 
L 1120.901207 818.49179 
z
" clip-path="url(#p7e93f2fb45)" style="fill: #1f77b4; opacity: 0.6"/>
   </g>
   <g id="patch_84">
    <path d="M 1133.233159 828.779375 
L 1145.565111 828.779375 
L 1145.565111 820.549307 
L 1133.233159 820.549307 
z
" clip-path="url(#p7e93f2fb45)" style="fill: #1f77b4; opacity: 0.6"/>
   </g>
   <g id="patch_85">
    <path d="M 1145.565111 828.779375 
L 1157.897062 828.779375 
L 1157.897062 824.149962 
L 1145.565111 824.149962 
z
" clip-path="url(#p7e93f2fb45)" style="fill: #1f77b4; opacity: 0.6"/>
   </g>
   <g id="patch_86">
    <path d="M 1157.897062 828.779375 
L 1170.229014 828.779375 
L 1170.229014 826.721858 
L 1157.897062 826.721858 
z
" clip-path="url(#p7e93f2fb45)" style="fill: #1f77b4; opacity: 0.6"/>
   </g>
   <g id="patch_87">
    <path d="M 1170.229014 828.779375 
L 1182.560966 828.779375 
L 1182.560966 826.207479 
L 1170.229014 826.207479 
z
" clip-path="url(#p7e93f2fb45)" style="fill: #1f77b4; opacity: 0.6"/>
   </g>
   <g id="patch_88">
    <path d="M 1182.560966 828.779375 
L 1194.892918 828.779375 
L 1194.892918 827.236237 
L 1182.560966 827.236237 
z
" clip-path="url(#p7e93f2fb45)" style="fill: #1f77b4; opacity: 0.6"/>
   </g>
   <g id="patch_89">
    <path d="M 1194.892918 828.779375 
L 1207.224869 828.779375 
L 1207.224869 826.721858 
L 1194.892918 826.721858 
z
" clip-path="url(#p7e93f2fb45)" style="fill: #1f77b4; opacity: 0.6"/>
   </g>
   <g id="patch_90">
    <path d="M 1207.224869 828.779375 
L 1219.556821 828.779375 
L 1219.556821 827.750617 
L 1207.224869 827.750617 
z
" clip-path="url(#p7e93f2fb45)" style="fill: #1f77b4; opacity: 0.6"/>
   </g>
   <g id="patch_91">
    <path d="M 1219.556821 828.779375 
L 1231.888773 828.779375 
L 1231.888773 825.6931 
L 1219.556821 825.6931 
z
" clip-path="url(#p7e93f2fb45)" style="fill: #1f77b4; opacity: 0.6"/>
   </g>
   <g id="patch_92">
    <path d="M 1231.888773 828.779375 
L 1244.220724 828.779375 
L 1244.220724 827.750617 
L 1231.888773 827.750617 
z
" clip-path="url(#p7e93f2fb45)" style="fill: #1f77b4; opacity: 0.6"/>
   </g>
   <g id="patch_93">
    <path d="M 1244.220724 828.779375 
L 1256.552676 828.779375 
L 1256.552676 828.264996 
L 1244.220724 828.264996 
z
" clip-path="url(#p7e93f2fb45)" style="fill: #1f77b4; opacity: 0.6"/>
   </g>
   <g id="patch_94">
    <path d="M 1256.552676 828.779375 
L 1268.884628 828.779375 
L 1268.884628 828.779375 
L 1256.552676 828.779375 
z
" clip-path="url(#p7e93f2fb45)" style="fill: #1f77b4; opacity: 0.6"/>
   </g>
   <g id="patch_95">
    <path d="M 1268.884628 828.779375 
L 1281.21658 828.779375 
L 1281.21658 827.750617 
L 1268.884628 827.750617 
z
" clip-path="url(#p7e93f2fb45)" style="fill: #1f77b4; opacity: 0.6"/>
   </g>
   <g id="patch_96">
    <path d="M 1281.21658 828.779375 
L 1293.548531 828.779375 
L 1293.548531 828.779375 
L 1281.21658 828.779375 
z
" clip-path="url(#p7e93f2fb45)" style="fill: #1f77b4; opacity: 0.6"/>
   </g>
   <g id="patch_97">
    <path d="M 1293.548531 828.779375 
L 1305.880483 828.779375 
L 1305.880483 828.779375 
L 1293.548531 828.779375 
z
" clip-path="url(#p7e93f2fb45)" style="fill: #1f77b4; opacity: 0.6"/>
   </g>
   <g id="patch_98">
    <path d="M 1305.880483 828.779375 
L 1318.212435 828.779375 
L 1318.212435 828.779375 
L 1305.880483 828.779375 
z
" clip-path="url(#p7e93f2fb45)" style="fill: #1f77b4; opacity: 0.6"/>
   </g>
   <g id="patch_99">
    <path d="M 1318.212435 828.779375 
L 1330.544386 828.779375 
L 1330.544386 828.779375 
L 1318.212435 828.779375 
z
" clip-path="url(#p7e93f2fb45)" style="fill: #1f77b4; opacity: 0.6"/>
   </g>
   <g id="patch_100">
    <path d="M 1330.544386 828.779375 
L 1342.876338 828.779375 
L 1342.876338 828.779375 
L 1330.544386 828.779375 
z
" clip-path="url(#p7e93f2fb45)" style="fill: #1f77b4; opacity: 0.6"/>
   </g>
   <g id="patch_101">
    <path d="M 1342.876338 828.779375 
L 1355.20829 828.779375 
L 1355.20829 828.779375 
L 1342.876338 828.779375 
z
" clip-path="url(#p7e93f2fb45)" style="fill: #1f77b4; opacity: 0.6"/>
   </g>
   <g id="patch_102">
    <path d="M 1355.20829 828.779375 
L 1367.540241 828.779375 
L 1367.540241 827.750617 
L 1355.20829 827.750617 
z
" clip-path="url(#p7e93f2fb45)" style="fill: #1f77b4; opacity: 0.6"/>
   </g>
   <g id="matplotlib.axis_1">
    <g id="xtick_1">
     <g id="line2d_1">
      <defs>
       <path id="m8579a6c59e" d="M 0 0 
L 0 3.5 
" style="stroke: #000000; stroke-width: 0.8"/>
      </defs>
      <g>
       <use xlink:href="#m8579a6c59e" x="99.145642" y="828.779375" style="stroke: #000000; stroke-width: 0.8"/>
      </g>
     </g>
     <g id="text_1">
      <!-- 0 -->
      <g transform="translate(93.419392 849.456562)scale(0.18 -0.18)">
       <defs>
        <path id="DejaVuSans-30" d="M 2034 4250 
Q 1547 4250 1301 3770 
Q 1056 3291 1056 2328 
Q 1056 1369 1301 889 
Q 1547 409 2034 409 
Q 2525 409 2770 889 
Q 3016 1369 3016 2328 
Q 3016 3291 2770 3770 
Q 2525 4250 2034 4250 
z
M 2034 4750 
Q 2819 4750 3233 4129 
Q 3647 3509 3647 2328 
Q 3647 1150 3233 529 
Q 2819 -91 2034 -91 
Q 1250 -91 836 529 
Q 422 1150 422 2328 
Q 422 3509 836 4129 
Q 1250 4750 2034 4750 
z
" transform="scale(0.015625)"/>
       </defs>
       <use xlink:href="#DejaVuSans-30"/>
      </g>
     </g>
    </g>
    <g id="xtick_2">
     <g id="line2d_2">
      <g>
       <use xlink:href="#m8579a6c59e" x="344.09301" y="828.779375" style="stroke: #000000; stroke-width: 0.8"/>
      </g>
     </g>
     <g id="text_2">
      <!-- 1 -->
      <g transform="translate(338.36676 849.456562)scale(0.18 -0.18)">
       <defs>
        <path id="DejaVuSans-31" d="M 794 531 
L 1825 531 
L 1825 4091 
L 703 3866 
L 703 4441 
L 1819 4666 
L 2450 4666 
L 2450 531 
L 3481 531 
L 3481 0 
L 794 0 
L 794 531 
z
" transform="scale(0.015625)"/>
       </defs>
       <use xlink:href="#DejaVuSans-31"/>
      </g>
     </g>
    </g>
    <g id="xtick_3">
     <g id="line2d_3">
      <g>
       <use xlink:href="#m8579a6c59e" x="589.040378" y="828.779375" style="stroke: #000000; stroke-width: 0.8"/>
      </g>
     </g>
     <g id="text_3">
      <!-- 2 -->
      <g transform="translate(583.314128 849.456562)scale(0.18 -0.18)">
       <defs>
        <path id="DejaVuSans-32" d="M 1228 531 
L 3431 531 
L 3431 0 
L 469 0 
L 469 531 
Q 828 903 1448 1529 
Q 2069 2156 2228 2338 
Q 2531 2678 2651 2914 
Q 2772 3150 2772 3378 
Q 2772 3750 2511 3984 
Q 2250 4219 1831 4219 
Q 1534 4219 1204 4116 
Q 875 4013 500 3803 
L 500 4441 
Q 881 4594 1212 4672 
Q 1544 4750 1819 4750 
Q 2544 4750 2975 4387 
Q 3406 4025 3406 3419 
Q 3406 3131 3298 2873 
Q 3191 2616 2906 2266 
Q 2828 2175 2409 1742 
Q 1991 1309 1228 531 
z
" transform="scale(0.015625)"/>
       </defs>
       <use xlink:href="#DejaVuSans-32"/>
      </g>
     </g>
    </g>
    <g id="xtick_4">
     <g id="line2d_4">
      <g>
       <use xlink:href="#m8579a6c59e" x="833.987746" y="828.779375" style="stroke: #000000; stroke-width: 0.8"/>
      </g>
     </g>
     <g id="text_4">
      <!-- 3 -->
      <g transform="translate(828.261496 849.456562)scale(0.18 -0.18)">
       <defs>
        <path id="DejaVuSans-33" d="M 2597 2516 
Q 3050 2419 3304 2112 
Q 3559 1806 3559 1356 
Q 3559 666 3084 287 
Q 2609 -91 1734 -91 
Q 1441 -91 1130 -33 
Q 819 25 488 141 
L 488 750 
Q 750 597 1062 519 
Q 1375 441 1716 441 
Q 2309 441 2620 675 
Q 2931 909 2931 1356 
Q 2931 1769 2642 2001 
Q 2353 2234 1838 2234 
L 1294 2234 
L 1294 2753 
L 1863 2753 
Q 2328 2753 2575 2939 
Q 2822 3125 2822 3475 
Q 2822 3834 2567 4026 
Q 2313 4219 1838 4219 
Q 1578 4219 1281 4162 
Q 984 4106 628 3988 
L 628 4550 
Q 988 4650 1302 4700 
Q 1616 4750 1894 4750 
Q 2613 4750 3031 4423 
Q 3450 4097 3450 3541 
Q 3450 3153 3228 2886 
Q 3006 2619 2597 2516 
z
" transform="scale(0.015625)"/>
       </defs>
       <use xlink:href="#DejaVuSans-33"/>
      </g>
     </g>
    </g>
    <g id="xtick_5">
     <g id="line2d_5">
      <g>
       <use xlink:href="#m8579a6c59e" x="1078.935114" y="828.779375" style="stroke: #000000; stroke-width: 0.8"/>
      </g>
     </g>
     <g id="text_5">
      <!-- 4 -->
      <g transform="translate(1073.208864 849.456562)scale(0.18 -0.18)">
       <defs>
        <path id="DejaVuSans-34" d="M 2419 4116 
L 825 1625 
L 2419 1625 
L 2419 4116 
z
M 2253 4666 
L 3047 4666 
L 3047 1625 
L 3713 1625 
L 3713 1100 
L 3047 1100 
L 3047 0 
L 2419 0 
L 2419 1100 
L 313 1100 
L 313 1709 
L 2253 4666 
z
" transform="scale(0.015625)"/>
       </defs>
       <use xlink:href="#DejaVuSans-34"/>
      </g>
     </g>
    </g>
    <g id="xtick_6">
     <g id="line2d_6">
      <g>
       <use xlink:href="#m8579a6c59e" x="1323.882481" y="828.779375" style="stroke: #000000; stroke-width: 0.8"/>
      </g>
     </g>
     <g id="text_6">
      <!-- 5 -->
      <g transform="translate(1318.156231 849.456562)scale(0.18 -0.18)">
       <defs>
        <path id="DejaVuSans-35" d="M 691 4666 
L 3169 4666 
L 3169 4134 
L 1269 4134 
L 1269 2991 
Q 1406 3038 1543 3061 
Q 1681 3084 1819 3084 
Q 2600 3084 3056 2656 
Q 3513 2228 3513 1497 
Q 3513 744 3044 326 
Q 2575 -91 1722 -91 
Q 1428 -91 1123 -41 
Q 819 9 494 109 
L 494 744 
Q 775 591 1075 516 
Q 1375 441 1709 441 
Q 2250 441 2565 725 
Q 2881 1009 2881 1497 
Q 2881 1984 2565 2268 
Q 2250 2553 1709 2553 
Q 1456 2553 1204 2497 
Q 953 2441 691 2322 
L 691 4666 
z
" transform="scale(0.015625)"/>
       </defs>
       <use xlink:href="#DejaVuSans-35"/>
      </g>
     </g>
    </g>
   </g>
   <g id="matplotlib.axis_2">
    <g id="ytick_1">
     <g id="line2d_7">
      <defs>
       <path id="m4c93a322a8" d="M 0 0 
L -3.5 0 
" style="stroke: #000000; stroke-width: 0.8"/>
      </defs>
      <g>
       <use xlink:href="#m4c93a322a8" x="72.685313" y="828.779375" style="stroke: #000000; stroke-width: 0.8"/>
      </g>
     </g>
     <g id="text_7">
      <!-- 0.0 -->
      <g transform="translate(37.059688 835.617969)scale(0.18 -0.18)">
       <defs>
        <path id="DejaVuSans-2e" d="M 684 794 
L 1344 794 
L 1344 0 
L 684 0 
L 684 794 
z
" transform="scale(0.015625)"/>
       </defs>
       <use xlink:href="#DejaVuSans-30"/>
       <use xlink:href="#DejaVuSans-2e" x="63.623047"/>
       <use xlink:href="#DejaVuSans-30" x="95.410156"/>
      </g>
     </g>
    </g>
    <g id="ytick_2">
     <g id="line2d_8">
      <g>
       <use xlink:href="#m4c93a322a8" x="72.685313" y="699.296461" style="stroke: #000000; stroke-width: 0.8"/>
      </g>
     </g>
     <g id="text_8">
      <!-- 0.1 -->
      <g transform="translate(37.059688 706.135055)scale(0.18 -0.18)">
       <use xlink:href="#DejaVuSans-30"/>
       <use xlink:href="#DejaVuSans-2e" x="63.623047"/>
       <use xlink:href="#DejaVuSans-31" x="95.410156"/>
      </g>
     </g>
    </g>
    <g id="ytick_3">
     <g id="line2d_9">
      <g>
       <use xlink:href="#m4c93a322a8" x="72.685313" y="569.813547" style="stroke: #000000; stroke-width: 0.8"/>
      </g>
     </g>
     <g id="text_9">
      <!-- 0.2 -->
      <g transform="translate(37.059688 576.65214)scale(0.18 -0.18)">
       <use xlink:href="#DejaVuSans-30"/>
       <use xlink:href="#DejaVuSans-2e" x="63.623047"/>
       <use xlink:href="#DejaVuSans-32" x="95.410156"/>
      </g>
     </g>
    </g>
    <g id="ytick_4">
     <g id="line2d_10">
      <g>
       <use xlink:href="#m4c93a322a8" x="72.685313" y="440.330633" style="stroke: #000000; stroke-width: 0.8"/>
      </g>
     </g>
     <g id="text_10">
      <!-- 0.3 -->
      <g transform="translate(37.059688 447.169226)scale(0.18 -0.18)">
       <use xlink:href="#DejaVuSans-30"/>
       <use xlink:href="#DejaVuSans-2e" x="63.623047"/>
       <use xlink:href="#DejaVuSans-33" x="95.410156"/>
      </g>
     </g>
    </g>
    <g id="ytick_5">
     <g id="line2d_11">
      <g>
       <use xlink:href="#m4c93a322a8" x="72.685313" y="310.847718" style="stroke: #000000; stroke-width: 0.8"/>
      </g>
     </g>
     <g id="text_11">
      <!-- 0.4 -->
      <g transform="translate(37.059688 317.686312)scale(0.18 -0.18)">
       <use xlink:href="#DejaVuSans-30"/>
       <use xlink:href="#DejaVuSans-2e" x="63.623047"/>
       <use xlink:href="#DejaVuSans-34" x="95.410156"/>
      </g>
     </g>
    </g>
    <g id="ytick_6">
     <g id="line2d_12">
      <g>
       <use xlink:href="#m4c93a322a8" x="72.685313" y="181.364804" style="stroke: #000000; stroke-width: 0.8"/>
      </g>
     </g>
     <g id="text_12">
      <!-- 0.5 -->
      <g transform="translate(37.059688 188.203398)scale(0.18 -0.18)">
       <use xlink:href="#DejaVuSans-30"/>
       <use xlink:href="#DejaVuSans-2e" x="63.623047"/>
       <use xlink:href="#DejaVuSans-35" x="95.410156"/>
      </g>
     </g>
    </g>
    <g id="ytick_7">
     <g id="line2d_13">
      <g>
       <use xlink:href="#m4c93a322a8" x="72.685313" y="51.88189" style="stroke: #000000; stroke-width: 0.8"/>
      </g>
     </g>
     <g id="text_13">
      <!-- 0.6 -->
      <g transform="translate(37.059688 58.720484)scale(0.18 -0.18)">
       <defs>
        <path id="DejaVuSans-36" d="M 2113 2584 
Q 1688 2584 1439 2293 
Q 1191 2003 1191 1497 
Q 1191 994 1439 701 
Q 1688 409 2113 409 
Q 2538 409 2786 701 
Q 3034 994 3034 1497 
Q 3034 2003 2786 2293 
Q 2538 2584 2113 2584 
z
M 3366 4563 
L 3366 3988 
Q 3128 4100 2886 4159 
Q 2644 4219 2406 4219 
Q 1781 4219 1451 3797 
Q 1122 3375 1075 2522 
Q 1259 2794 1537 2939 
Q 1816 3084 2150 3084 
Q 2853 3084 3261 2657 
Q 3669 2231 3669 1497 
Q 3669 778 3244 343 
Q 2819 -91 2113 -91 
Q 1303 -91 875 529 
Q 447 1150 447 2328 
Q 447 3434 972 4092 
Q 1497 4750 2381 4750 
Q 2619 4750 2861 4703 
Q 3103 4656 3366 4563 
z
" transform="scale(0.015625)"/>
       </defs>
       <use xlink:href="#DejaVuSans-30"/>
       <use xlink:href="#DejaVuSans-2e" x="63.623047"/>
       <use xlink:href="#DejaVuSans-36" x="95.410156"/>
      </g>
     </g>
    </g>
    <g id="text_14">
     <!-- Normed Hist Counts -->
     <g transform="translate(28.276406 548.966563)rotate(-90)scale(0.23 -0.23)">
      <defs>
       <path id="DejaVuSans-4e" d="M 628 4666 
L 1478 4666 
L 3547 763 
L 3547 4666 
L 4159 4666 
L 4159 0 
L 3309 0 
L 1241 3903 
L 1241 0 
L 628 0 
L 628 4666 
z
" transform="scale(0.015625)"/>
       <path id="DejaVuSans-6f" d="M 1959 3097 
Q 1497 3097 1228 2736 
Q 959 2375 959 1747 
Q 959 1119 1226 758 
Q 1494 397 1959 397 
Q 2419 397 2687 759 
Q 2956 1122 2956 1747 
Q 2956 2369 2687 2733 
Q 2419 3097 1959 3097 
z
M 1959 3584 
Q 2709 3584 3137 3096 
Q 3566 2609 3566 1747 
Q 3566 888 3137 398 
Q 2709 -91 1959 -91 
Q 1206 -91 779 398 
Q 353 888 353 1747 
Q 353 2609 779 3096 
Q 1206 3584 1959 3584 
z
" transform="scale(0.015625)"/>
       <path id="DejaVuSans-72" d="M 2631 2963 
Q 2534 3019 2420 3045 
Q 2306 3072 2169 3072 
Q 1681 3072 1420 2755 
Q 1159 2438 1159 1844 
L 1159 0 
L 581 0 
L 581 3500 
L 1159 3500 
L 1159 2956 
Q 1341 3275 1631 3429 
Q 1922 3584 2338 3584 
Q 2397 3584 2469 3576 
Q 2541 3569 2628 3553 
L 2631 2963 
z
" transform="scale(0.015625)"/>
       <path id="DejaVuSans-6d" d="M 3328 2828 
Q 3544 3216 3844 3400 
Q 4144 3584 4550 3584 
Q 5097 3584 5394 3201 
Q 5691 2819 5691 2113 
L 5691 0 
L 5113 0 
L 5113 2094 
Q 5113 2597 4934 2840 
Q 4756 3084 4391 3084 
Q 3944 3084 3684 2787 
Q 3425 2491 3425 1978 
L 3425 0 
L 2847 0 
L 2847 2094 
Q 2847 2600 2669 2842 
Q 2491 3084 2119 3084 
Q 1678 3084 1418 2786 
Q 1159 2488 1159 1978 
L 1159 0 
L 581 0 
L 581 3500 
L 1159 3500 
L 1159 2956 
Q 1356 3278 1631 3431 
Q 1906 3584 2284 3584 
Q 2666 3584 2933 3390 
Q 3200 3197 3328 2828 
z
" transform="scale(0.015625)"/>
       <path id="DejaVuSans-65" d="M 3597 1894 
L 3597 1613 
L 953 1613 
Q 991 1019 1311 708 
Q 1631 397 2203 397 
Q 2534 397 2845 478 
Q 3156 559 3463 722 
L 3463 178 
Q 3153 47 2828 -22 
Q 2503 -91 2169 -91 
Q 1331 -91 842 396 
Q 353 884 353 1716 
Q 353 2575 817 3079 
Q 1281 3584 2069 3584 
Q 2775 3584 3186 3129 
Q 3597 2675 3597 1894 
z
M 3022 2063 
Q 3016 2534 2758 2815 
Q 2500 3097 2075 3097 
Q 1594 3097 1305 2825 
Q 1016 2553 972 2059 
L 3022 2063 
z
" transform="scale(0.015625)"/>
       <path id="DejaVuSans-64" d="M 2906 2969 
L 2906 4863 
L 3481 4863 
L 3481 0 
L 2906 0 
L 2906 525 
Q 2725 213 2448 61 
Q 2172 -91 1784 -91 
Q 1150 -91 751 415 
Q 353 922 353 1747 
Q 353 2572 751 3078 
Q 1150 3584 1784 3584 
Q 2172 3584 2448 3432 
Q 2725 3281 2906 2969 
z
M 947 1747 
Q 947 1113 1208 752 
Q 1469 391 1925 391 
Q 2381 391 2643 752 
Q 2906 1113 2906 1747 
Q 2906 2381 2643 2742 
Q 2381 3103 1925 3103 
Q 1469 3103 1208 2742 
Q 947 2381 947 1747 
z
" transform="scale(0.015625)"/>
       <path id="DejaVuSans-20" transform="scale(0.015625)"/>
       <path id="DejaVuSans-48" d="M 628 4666 
L 1259 4666 
L 1259 2753 
L 3553 2753 
L 3553 4666 
L 4184 4666 
L 4184 0 
L 3553 0 
L 3553 2222 
L 1259 2222 
L 1259 0 
L 628 0 
L 628 4666 
z
" transform="scale(0.015625)"/>
       <path id="DejaVuSans-69" d="M 603 3500 
L 1178 3500 
L 1178 0 
L 603 0 
L 603 3500 
z
M 603 4863 
L 1178 4863 
L 1178 4134 
L 603 4134 
L 603 4863 
z
" transform="scale(0.015625)"/>
       <path id="DejaVuSans-73" d="M 2834 3397 
L 2834 2853 
Q 2591 2978 2328 3040 
Q 2066 3103 1784 3103 
Q 1356 3103 1142 2972 
Q 928 2841 928 2578 
Q 928 2378 1081 2264 
Q 1234 2150 1697 2047 
L 1894 2003 
Q 2506 1872 2764 1633 
Q 3022 1394 3022 966 
Q 3022 478 2636 193 
Q 2250 -91 1575 -91 
Q 1294 -91 989 -36 
Q 684 19 347 128 
L 347 722 
Q 666 556 975 473 
Q 1284 391 1588 391 
Q 1994 391 2212 530 
Q 2431 669 2431 922 
Q 2431 1156 2273 1281 
Q 2116 1406 1581 1522 
L 1381 1569 
Q 847 1681 609 1914 
Q 372 2147 372 2553 
Q 372 3047 722 3315 
Q 1072 3584 1716 3584 
Q 2034 3584 2315 3537 
Q 2597 3491 2834 3397 
z
" transform="scale(0.015625)"/>
       <path id="DejaVuSans-74" d="M 1172 4494 
L 1172 3500 
L 2356 3500 
L 2356 3053 
L 1172 3053 
L 1172 1153 
Q 1172 725 1289 603 
Q 1406 481 1766 481 
L 2356 481 
L 2356 0 
L 1766 0 
Q 1100 0 847 248 
Q 594 497 594 1153 
L 594 3053 
L 172 3053 
L 172 3500 
L 594 3500 
L 594 4494 
L 1172 4494 
z
" transform="scale(0.015625)"/>
       <path id="DejaVuSans-43" d="M 4122 4306 
L 4122 3641 
Q 3803 3938 3442 4084 
Q 3081 4231 2675 4231 
Q 1875 4231 1450 3742 
Q 1025 3253 1025 2328 
Q 1025 1406 1450 917 
Q 1875 428 2675 428 
Q 3081 428 3442 575 
Q 3803 722 4122 1019 
L 4122 359 
Q 3791 134 3420 21 
Q 3050 -91 2638 -91 
Q 1578 -91 968 557 
Q 359 1206 359 2328 
Q 359 3453 968 4101 
Q 1578 4750 2638 4750 
Q 3056 4750 3426 4639 
Q 3797 4528 4122 4306 
z
" transform="scale(0.015625)"/>
       <path id="DejaVuSans-75" d="M 544 1381 
L 544 3500 
L 1119 3500 
L 1119 1403 
Q 1119 906 1312 657 
Q 1506 409 1894 409 
Q 2359 409 2629 706 
Q 2900 1003 2900 1516 
L 2900 3500 
L 3475 3500 
L 3475 0 
L 2900 0 
L 2900 538 
Q 2691 219 2414 64 
Q 2138 -91 1772 -91 
Q 1169 -91 856 284 
Q 544 659 544 1381 
z
M 1991 3584 
L 1991 3584 
z
" transform="scale(0.015625)"/>
       <path id="DejaVuSans-6e" d="M 3513 2113 
L 3513 0 
L 2938 0 
L 2938 2094 
Q 2938 2591 2744 2837 
Q 2550 3084 2163 3084 
Q 1697 3084 1428 2787 
Q 1159 2491 1159 1978 
L 1159 0 
L 581 0 
L 581 3500 
L 1159 3500 
L 1159 2956 
Q 1366 3272 1645 3428 
Q 1925 3584 2291 3584 
Q 2894 3584 3203 3211 
Q 3513 2838 3513 2113 
z
" transform="scale(0.015625)"/>
      </defs>
      <use xlink:href="#DejaVuSans-4e"/>
      <use xlink:href="#DejaVuSans-6f" x="74.804688"/>
      <use xlink:href="#DejaVuSans-72" x="135.986328"/>
      <use xlink:href="#DejaVuSans-6d" x="175.349609"/>
      <use xlink:href="#DejaVuSans-65" x="272.761719"/>
      <use xlink:href="#DejaVuSans-64" x="334.285156"/>
      <use xlink:href="#DejaVuSans-20" x="397.761719"/>
      <use xlink:href="#DejaVuSans-48" x="429.548828"/>
      <use xlink:href="#DejaVuSans-69" x="504.744141"/>
      <use xlink:href="#DejaVuSans-73" x="532.527344"/>
      <use xlink:href="#DejaVuSans-74" x="584.626953"/>
      <use xlink:href="#DejaVuSans-20" x="623.835938"/>
      <use xlink:href="#DejaVuSans-43" x="655.623047"/>
      <use xlink:href="#DejaVuSans-6f" x="725.447266"/>
      <use xlink:href="#DejaVuSans-75" x="786.628906"/>
      <use xlink:href="#DejaVuSans-6e" x="850.007812"/>
      <use xlink:href="#DejaVuSans-74" x="913.386719"/>
      <use xlink:href="#DejaVuSans-73" x="952.595703"/>
     </g>
    </g>
   </g>
   <g id="line2d_14">
    <path d="M 137.428059 826.907667 
L 143.594035 825.640854 
L 149.760011 823.926866 
L 155.925987 821.710515 
L 162.091962 818.94096 
L 168.257938 815.571798 
L 174.423914 811.561174 
L 180.58989 806.871903 
L 186.755866 801.471579 
L 192.921842 795.332675 
L 199.087817 788.432633 
L 205.253793 780.753924 
L 211.419769 772.284093 
L 217.585745 763.015774 
L 223.751721 752.946688 
L 229.917697 742.079607 
L 236.083673 730.422298 
L 242.249648 717.987436 
L 248.415624 704.792496 
L 254.5816 690.859617 
L 260.747576 676.215444 
L 266.913552 660.890944 
L 273.079528 644.921198 
L 279.245504 628.345184 
L 285.411479 611.205526 
L 291.577455 593.548231 
L 297.743431 575.422418 
L 303.909407 556.880018 
L 316.241359 518.765442 
L 328.57331 479.664516 
L 365.569165 361.351683 
L 377.901117 323.242172 
L 384.067093 304.711473 
L 390.233069 286.607621 
L 396.399045 268.986444 
L 402.565021 251.901649 
L 408.730996 235.404588 
L 414.896972 219.544043 
L 421.062948 204.366027 
L 427.228924 189.913614 
L 433.3949 176.226775 
L 439.560876 163.342242 
L 445.726852 151.293394 
L 451.892827 140.110161 
L 458.058803 129.818944 
L 464.224779 120.442565 
L 470.390755 112.000232 
L 476.556731 104.507522 
L 482.722707 97.976388 
L 488.888683 92.415182 
L 495.054658 87.828695 
L 501.220634 84.21822 
L 507.38661 81.581625 
L 513.552586 79.913445 
L 519.718562 79.204987 
L 525.884538 79.444448 
L 532.050513 80.617049 
L 538.216489 82.705174 
L 544.382465 85.688526 
L 550.548441 89.544283 
L 556.714417 94.24727 
L 562.880393 99.770133 
L 569.046369 106.083517 
L 575.212344 113.156251 
L 581.37832 120.955532 
L 587.544296 129.447115 
L 593.710272 138.595498 
L 599.876248 148.36411 
L 606.042224 158.715499 
L 612.2082 169.611509 
L 618.374175 181.013465 
L 624.540151 192.882342 
L 630.706127 205.178939 
L 636.872103 217.864041 
L 643.038079 230.898573 
L 649.204055 244.243752 
L 661.536006 271.71323 
L 673.867958 299.973238 
L 692.365886 343.223438 
L 717.029789 401.127561 
L 729.361741 429.657615 
L 741.693692 457.637149 
L 754.025644 484.893866 
L 766.357596 511.279513 
L 772.523572 524.105885 
L 778.689548 536.669661 
L 784.855523 548.95891 
L 791.021499 560.963092 
L 797.187475 572.673026 
L 803.353451 584.080844 
L 809.519427 595.179951 
L 815.685403 605.964976 
L 821.851379 616.43172 
L 828.017354 626.577107 
L 834.18333 636.399129 
L 840.349306 645.896787 
L 846.515282 655.07004 
L 852.681258 663.919744 
L 858.847234 672.447596 
L 865.01321 680.656075 
L 871.179185 688.548387 
L 877.345161 696.128404 
L 883.511137 703.400613 
L 889.677113 710.370058 
L 895.843089 717.042285 
L 902.009065 723.423294 
L 908.17504 729.519482 
L 914.341016 735.3376 
L 920.506992 740.884703 
L 926.672968 746.168104 
L 932.838944 751.195333 
L 939.00492 755.974093 
L 945.170896 760.512224 
L 951.336871 764.817664 
L 957.502847 768.898418 
L 963.668823 772.76252 
L 969.834799 776.418009 
L 976.000775 779.872897 
L 982.166751 783.135148 
L 988.332727 786.212647 
L 994.498702 789.113187 
L 1000.664678 791.844443 
L 1006.830654 794.413961 
L 1012.99663 796.829137 
L 1019.162606 799.097204 
L 1025.328582 801.225223 
L 1031.494558 803.220073 
L 1037.660533 805.088438 
L 1049.992485 808.47145 
L 1062.324437 811.423656 
L 1074.656388 813.991054 
L 1086.98834 816.216197 
L 1099.320292 818.1382 
L 1111.652244 819.792807 
L 1123.984195 821.21249 
L 1136.316147 822.426596 
L 1148.648099 823.4615 
L 1167.146026 824.728739 
L 1185.643954 825.714106 
L 1204.141881 826.47482 
L 1228.805785 827.219697 
L 1253.469688 827.735842 
L 1284.299567 828.157956 
L 1327.461398 828.487428 
L 1364.457254 828.630719 
L 1364.457254 828.630719 
" clip-path="url(#p7e93f2fb45)" style="fill: none; stroke: #ff7f0e; stroke-width: 2; stroke-linecap: square"/>
   </g>
   <g id="line2d_15">
    <path d="M 137.428059 821.823627 
L 143.594035 820.193516 
L 149.760011 818.266683 
L 155.925987 816.006514 
L 162.091962 813.374778 
L 168.257938 810.331972 
L 174.423914 806.83772 
L 180.58989 802.851221 
L 186.755866 798.331729 
L 192.921842 793.239076 
L 199.087817 787.534215 
L 205.253793 781.179785 
L 211.419769 774.140673 
L 217.585745 766.384586 
L 223.751721 757.882605 
L 229.917697 748.609717 
L 236.083673 738.545317 
L 242.249648 727.673673 
L 248.415624 715.984338 
L 254.5816 703.472514 
L 260.747576 690.139351 
L 266.913552 675.992178 
L 273.079528 661.044669 
L 279.245504 645.316934 
L 285.411479 628.835532 
L 291.577455 611.633417 
L 297.743431 593.749804 
L 303.909407 575.229966 
L 310.075383 556.124961 
L 316.241359 536.491297 
L 322.407335 516.390538 
L 334.739286 475.056511 
L 347.071238 432.698265 
L 371.735141 347.43045 
L 384.067093 305.833016 
L 390.233069 285.579826 
L 396.399045 265.795999 
L 402.565021 246.55791 
L 408.730996 227.939007 
L 414.896972 210.009341 
L 421.062948 192.835129 
L 427.228924 176.478366 
L 433.3949 160.996485 
L 439.560876 146.442061 
L 445.726852 132.862566 
L 451.892827 120.300173 
L 458.058803 108.791606 
L 464.224779 98.368043 
L 470.390755 89.055064 
L 476.556731 80.872643 
L 482.722707 73.835184 
L 488.888683 67.951596 
L 495.054658 63.225412 
L 501.220634 59.654938 
L 507.38661 57.23343 
L 513.552586 55.949314 
L 519.718562 55.786416 
L 525.884538 56.724221 
L 532.050513 58.738153 
L 538.216489 61.799866 
L 544.382465 65.877549 
L 550.548441 70.936238 
L 556.714417 76.938137 
L 562.880393 83.84294 
L 569.046369 91.608152 
L 575.212344 100.18941 
L 581.37832 109.540797 
L 587.544296 119.615153 
L 593.710272 130.364372 
L 599.876248 141.739689 
L 606.042224 153.691961 
L 612.2082 166.171928 
L 618.374175 179.130463 
L 624.540151 192.518803 
L 630.706127 206.288771 
L 636.872103 220.392973 
L 649.204055 249.419521 
L 661.536006 279.241579 
L 680.033934 324.742079 
L 698.531862 370.270977 
L 710.863813 400.204674 
L 723.195765 429.54365 
L 735.527717 458.100079 
L 747.859668 485.716307 
L 754.025644 499.130551 
L 760.19162 512.263686 
L 766.357596 525.103902 
L 772.523572 537.640986 
L 778.689548 549.866253 
L 784.855523 561.772485 
L 791.021499 573.353851 
L 797.187475 584.605844 
L 803.353451 595.525201 
L 809.519427 606.109832 
L 815.685403 616.358749 
L 821.851379 626.271987 
L 828.017354 635.850534 
L 834.18333 645.096263 
L 840.349306 654.011855 
L 846.515282 662.600735 
L 852.681258 670.867006 
L 858.847234 678.815382 
L 865.01321 686.451127 
L 871.179185 693.779995 
L 877.345161 700.808175 
L 883.511137 707.542232 
L 889.677113 713.98906 
L 895.843089 720.155831 
L 902.009065 726.049948 
L 908.17504 731.679002 
L 914.341016 737.050732 
L 920.506992 742.172986 
L 926.672968 747.053687 
L 932.838944 751.700799 
L 939.00492 756.122296 
L 945.170896 760.326137 
L 951.336871 764.320239 
L 957.502847 768.112454 
L 963.668823 771.710548 
L 969.834799 775.122184 
L 976.000775 778.354903 
L 982.166751 781.416111 
L 988.332727 784.313065 
L 994.498702 787.052864 
L 1000.664678 789.642435 
L 1006.830654 792.088532 
L 1012.99663 794.397719 
L 1019.162606 796.576377 
L 1025.328582 798.630689 
L 1037.660533 802.390027 
L 1049.992485 805.721249 
L 1062.324437 808.666675 
L 1074.656388 811.265462 
L 1086.98834 813.55367 
L 1099.320292 815.564364 
L 1111.652244 817.327736 
L 1123.984195 818.871252 
L 1136.316147 820.219804 
L 1148.648099 821.395873 
L 1167.146026 822.880272 
L 1185.643954 824.081351 
L 1204.141881 825.049544 
L 1222.639809 825.82718 
L 1247.303712 826.627761 
L 1271.967616 827.219157 
L 1302.797495 827.742477 
L 1339.79335 828.150421 
L 1364.457254 828.3312 
L 1364.457254 828.3312 
" clip-path="url(#p7e93f2fb45)" style="fill: none; stroke: #2ca02c; stroke-width: 2; stroke-linecap: square"/>
   </g>
   <g id="line2d_16">
    <path d="M 137.428059 86.532682 
L 149.760011 107.799481 
L 162.091962 128.456946 
L 174.423914 148.522534 
L 186.755866 168.013204 
L 199.087817 186.945429 
L 211.419769 205.335209 
L 223.751721 223.198087 
L 236.083673 240.549159 
L 248.415624 257.403089 
L 260.747576 273.774121 
L 273.079528 289.676092 
L 285.411479 305.122441 
L 297.743431 320.126222 
L 310.075383 334.700115 
L 322.407335 348.856439 
L 334.739286 362.607156 
L 347.071238 375.963889 
L 359.40319 388.937926 
L 371.735141 401.540232 
L 384.067093 413.781457 
L 396.399045 425.671948 
L 408.730996 437.221753 
L 421.062948 448.440634 
L 433.3949 459.338072 
L 445.726852 469.923278 
L 458.058803 480.205197 
L 470.390755 490.19252 
L 482.722707 499.893686 
L 495.054658 509.316895 
L 507.38661 518.470111 
L 519.718562 527.36107 
L 532.050513 535.997286 
L 544.382465 544.386057 
L 556.714417 552.534474 
L 569.046369 560.449423 
L 581.37832 568.137594 
L 593.710272 575.605484 
L 606.042224 582.859404 
L 618.374175 589.905485 
L 630.706127 596.749683 
L 643.038079 603.397781 
L 655.370031 609.855398 
L 667.701982 616.127992 
L 680.033934 622.220864 
L 692.365886 628.139164 
L 704.697837 633.887893 
L 723.195765 642.203631 
L 741.693692 650.164549 
L 760.19162 657.785786 
L 778.689548 665.081835 
L 797.187475 672.066573 
L 815.685403 678.753282 
L 834.18333 685.154679 
L 852.681258 691.282937 
L 871.179185 697.149712 
L 889.677113 702.76616 
L 908.17504 708.142962 
L 926.672968 713.290343 
L 945.170896 718.218094 
L 963.668823 722.935584 
L 982.166751 727.451786 
L 1000.664678 731.775288 
L 1019.162606 735.914312 
L 1037.660533 739.87673 
L 1062.324437 744.898212 
L 1086.98834 749.636065 
L 1111.652244 754.10631 
L 1136.316147 758.324064 
L 1160.98005 762.303585 
L 1185.643954 766.058332 
L 1210.307857 769.601 
L 1234.971761 772.943568 
L 1259.635664 776.097338 
L 1290.465543 779.79024 
L 1321.295423 783.224278 
L 1352.125302 786.417597 
L 1364.457254 787.631344 
L 1364.457254 787.631344 
" clip-path="url(#p7e93f2fb45)" style="fill: none; stroke: #d62728; stroke-width: 2; stroke-linecap: square"/>
   </g>
   <g id="line2d_17">
    <path d="M 137.428059 773.203309 
L 143.594035 770.585705 
L 149.760011 767.844813 
L 155.925987 764.974826 
L 162.091962 761.969664 
L 168.257938 758.822961 
L 174.423914 755.52805 
L 180.58989 752.07795 
L 186.755866 748.465352 
L 192.921842 744.682602 
L 199.087817 740.721687 
L 205.253793 736.574215 
L 211.419769 732.231399 
L 217.585745 727.684038 
L 223.751721 722.922499 
L 229.917697 717.936694 
L 236.083673 712.716061 
L 242.249648 707.249538 
L 248.415624 701.525544 
L 254.5816 695.531954 
L 260.747576 689.256068 
L 266.913552 682.684592 
L 273.079528 675.803602 
L 279.245504 668.598521 
L 285.411479 661.054084 
L 291.577455 653.154309 
L 297.743431 644.882458 
L 303.909407 636.221007 
L 310.075383 627.151606 
L 316.241359 617.65504 
L 322.407335 607.711192 
L 328.57331 597.298993 
L 334.739286 586.396385 
L 340.905262 574.98027 
L 347.071238 563.026461 
L 353.237214 550.509635 
L 359.40319 537.403272 
L 365.569165 523.679606 
L 371.735141 509.309562 
L 377.901117 494.262697 
L 384.067093 478.507132 
L 390.233069 462.009488 
L 396.399045 444.734813 
L 402.565021 426.64651 
L 408.730996 407.706257 
L 414.896972 387.873928 
L 421.062948 367.107507 
L 427.228924 345.362997 
L 433.3949 322.594332 
L 439.560876 298.753275 
L 445.726852 273.789315 
L 451.892827 247.649567 
L 458.058803 220.278649 
L 464.224779 191.618575 
L 470.390755 161.608626 
L 476.556731 130.185224 
L 482.722707 97.281796 
L 488.888683 62.828633 
L 495.054658 26.752743 
L 499.584706 -1 
M 594.815595 -1 
L 599.876248 29.882447 
L 606.042224 65.81756 
L 612.2082 100.136278 
L 618.374175 132.911309 
L 624.540151 164.212089 
L 630.706127 194.104932 
L 636.872103 222.653167 
L 643.038079 249.917277 
L 649.204055 275.955022 
L 655.370031 300.821566 
L 661.536006 324.56959 
L 667.701982 347.249406 
L 673.867958 368.909063 
L 680.033934 389.594449 
L 686.19991 409.349388 
L 692.365886 428.215731 
L 698.531862 446.233449 
L 704.697837 463.440714 
L 710.863813 479.87398 
L 717.029789 495.568063 
L 723.195765 510.556212 
L 729.361741 524.87018 
L 735.527717 538.540293 
L 741.693692 551.595511 
L 747.859668 564.063494 
L 754.025644 575.970656 
L 760.19162 587.342223 
L 766.357596 598.202286 
L 772.523572 608.573854 
L 778.689548 618.478899 
L 784.855523 627.938406 
L 791.021499 636.972416 
L 797.187475 645.600068 
L 803.353451 653.839641 
L 809.519427 661.708589 
L 815.685403 669.223586 
L 821.851379 676.400551 
L 828.017354 683.254689 
L 834.18333 689.800522 
L 840.349306 696.051918 
L 846.515282 702.02212 
L 852.681258 707.723777 
L 858.847234 713.168968 
L 865.01321 718.36923 
L 871.179185 723.335579 
L 877.345161 728.078537 
L 883.511137 732.608152 
L 889.677113 736.934022 
L 895.843089 741.065309 
L 902.009065 745.010768 
L 908.17504 748.778756 
L 914.341016 752.377257 
L 920.506992 755.813894 
L 926.672968 759.095948 
L 932.838944 762.230372 
L 939.00492 765.223807 
L 945.170896 768.082594 
L 951.336871 770.812791 
L 963.668823 775.910288 
L 976.000775 780.559518 
L 988.332727 784.799902 
L 1000.664678 788.667393 
L 1012.99663 792.194782 
L 1025.328582 795.411978 
L 1037.660533 798.346258 
L 1049.992485 801.022502 
L 1062.324437 803.463401 
L 1074.656388 805.689651 
L 1086.98834 807.720127 
L 1099.320292 809.572047 
L 1111.652244 811.261111 
L 1130.150171 813.520335 
L 1148.648099 815.4882 
L 1167.146026 817.202282 
L 1185.643954 818.695309 
L 1204.141881 819.995789 
L 1228.805785 821.472696 
L 1253.469688 822.701269 
L 1278.133592 823.723266 
L 1308.963471 824.762607 
L 1339.79335 825.5883 
L 1364.457254 826.12486 
L 1364.457254 826.12486 
" clip-path="url(#p7e93f2fb45)" style="fill: none; stroke: #9467bd; stroke-width: 2; stroke-linecap: square"/>
   </g>
   <g id="line2d_18">
    <path d="M 137.428059 819.94927 
L 143.594035 818.180873 
L 149.760011 816.12835 
L 155.925987 813.759325 
L 162.091962 811.03988 
L 168.257938 807.934796 
L 174.423914 804.407839 
L 180.58989 800.422089 
L 186.755866 795.940316 
L 192.921842 790.925382 
L 199.087817 785.340689 
L 205.253793 779.150647 
L 211.419769 772.321167 
L 217.585745 764.820162 
L 223.751721 756.618065 
L 229.917697 747.688333 
L 236.083673 738.00795 
L 242.249648 727.55791 
L 248.415624 716.323664 
L 254.5816 704.295547 
L 260.747576 691.469147 
L 266.913552 677.845635 
L 273.079528 663.432032 
L 279.245504 648.24142 
L 285.411479 632.29308 
L 291.577455 615.612566 
L 297.743431 598.231708 
L 303.909407 580.188539 
L 310.075383 561.52715 
L 316.241359 542.297479 
L 322.407335 522.555025 
L 328.57331 502.3605 
L 340.905262 460.881656 
L 353.237214 418.434098 
L 377.901117 333.167034 
L 390.233069 291.676734 
L 396.399045 271.509279 
L 402.565021 251.835132 
L 408.730996 232.732641 
L 414.896972 214.27725 
L 421.062948 196.540976 
L 427.228924 179.591929 
L 433.3949 163.493873 
L 439.560876 148.305845 
L 445.726852 134.081813 
L 451.892827 120.870396 
L 458.058803 108.714632 
L 464.224779 97.651804 
L 470.390755 87.71332 
L 476.556731 78.924639 
L 482.722707 71.305258 
L 488.888683 64.86874 
L 495.054658 59.622794 
L 501.220634 55.569397 
L 507.38661 52.704953 
L 513.552586 51.020495 
L 519.718562 50.501919 
L 525.884538 51.130242 
L 532.050513 52.88189 
L 538.216489 55.729011 
L 544.382465 59.639796 
L 550.548441 64.578824 
L 556.714417 70.507407 
L 562.880393 77.383952 
L 569.046369 85.164314 
L 575.212344 93.802161 
L 581.37832 103.249324 
L 587.544296 113.456148 
L 593.710272 124.371833 
L 599.876248 135.944761 
L 606.042224 148.122814 
L 612.2082 160.853674 
L 618.374175 174.085109 
L 624.540151 187.76524 
L 630.706127 201.842793 
L 636.872103 216.267324 
L 649.204055 245.960961 
L 661.536006 276.46679 
L 686.19991 338.52534 
L 704.697837 384.779888 
L 717.029789 414.988714 
L 729.361741 444.44486 
L 741.693692 472.971034 
L 747.859668 486.83881 
L 754.025644 500.422085 
L 760.19162 513.70746 
L 766.357596 526.683309 
L 772.523572 539.339708 
L 778.689548 551.668359 
L 784.855523 563.66251 
L 791.021499 575.316873 
L 797.187475 586.627545 
L 803.353451 597.591921 
L 809.519427 608.208613 
L 815.685403 618.477367 
L 821.851379 628.39898 
L 828.017354 637.97522 
L 834.18333 647.208747 
L 840.349306 656.103037 
L 846.515282 664.662305 
L 852.681258 672.891433 
L 858.847234 680.795904 
L 865.01321 688.381731 
L 871.179185 695.655395 
L 877.345161 702.623786 
L 883.511137 709.294144 
L 889.677113 715.674004 
L 895.843089 721.771148 
L 902.009065 727.593555 
L 908.17504 733.149356 
L 914.341016 738.446796 
L 920.506992 743.494191 
L 926.672968 748.299896 
L 932.838944 752.872271 
L 939.00492 757.219653 
L 945.170896 761.350327 
L 951.336871 765.272502 
L 957.502847 768.994291 
L 963.668823 772.523689 
L 969.834799 775.868558 
L 976.000775 779.03661 
L 982.166751 782.035395 
L 988.332727 784.872288 
L 994.498702 787.554482 
L 1000.664678 790.088979 
L 1006.830654 792.48258 
L 1012.99663 794.741886 
L 1019.162606 796.873291 
L 1031.494558 800.776921 
L 1043.826509 804.240408 
L 1056.158461 807.307318 
L 1068.490413 810.01789 
L 1080.822364 812.409125 
L 1093.154316 814.514898 
L 1105.486268 816.366109 
L 1117.818219 817.990834 
L 1130.150171 819.414498 
L 1142.482123 820.660051 
L 1160.98005 822.239009 
L 1179.477978 823.524107 
L 1197.975906 824.566819 
L 1216.473833 825.410381 
L 1241.137737 826.286898 
L 1265.80164 826.942135 
L 1296.631519 827.530612 
L 1333.627374 827.998839 
L 1364.457254 828.254425 
L 1364.457254 828.254425 
" clip-path="url(#p7e93f2fb45)" style="fill: none; stroke: #8c564b; stroke-width: 2; stroke-linecap: square"/>
   </g>
   <g id="line2d_19">
    <path d="M 137.428059 796.951884 
L 143.594035 793.88157 
L 149.760011 790.567012 
L 155.925987 786.994438 
L 162.091962 783.149877 
L 168.257938 779.019221 
L 174.423914 774.588294 
L 180.58989 769.842922 
L 186.755866 764.769017 
L 192.921842 759.352663 
L 199.087817 753.58021 
L 205.253793 747.438373 
L 211.419769 740.914338 
L 217.585745 733.995872 
L 223.751721 726.67144 
L 229.917697 718.930324 
L 236.083673 710.762745 
L 242.249648 702.159994 
L 248.415624 693.114555 
L 254.5816 683.620237 
L 260.747576 673.672304 
L 266.913552 663.267601 
L 273.079528 652.404683 
L 279.245504 641.083934 
L 285.411479 629.307688 
L 291.577455 617.080341 
L 297.743431 604.408454 
L 303.909407 591.300849 
L 310.075383 577.768695 
L 316.241359 563.825587 
L 322.407335 549.487599 
L 328.57331 534.773343 
L 334.739286 519.703994 
L 340.905262 504.30331 
L 353.237214 472.615874 
L 365.569165 439.952321 
L 377.901117 406.593347 
L 414.896972 305.675525 
L 427.228924 273.007489 
L 433.3949 257.082231 
L 439.560876 241.498916 
L 445.726852 226.309747 
L 451.892827 211.566687 
L 458.058803 197.321167 
L 464.224779 183.623793 
L 470.390755 170.524043 
L 476.556731 158.069977 
L 482.722707 146.307941 
L 488.888683 135.282284 
L 495.054658 125.035078 
L 501.220634 115.605848 
L 507.38661 107.031326 
L 513.552586 99.345207 
L 519.718562 92.577928 
L 525.884538 86.756472 
L 532.050513 81.904183 
L 538.216489 78.040618 
L 544.382465 75.181405 
L 550.548441 73.338147 
L 556.714417 72.51834 
L 562.880393 72.72532 
L 569.046369 73.958246 
L 575.212344 76.212099 
L 581.37832 79.477722 
L 587.544296 83.741877 
L 593.710272 88.987338 
L 599.876248 95.193007 
L 606.042224 102.334052 
L 612.2082 110.382074 
L 618.374175 119.305299 
L 624.540151 129.06878 
L 630.706127 139.63463 
L 636.872103 150.962266 
L 643.038079 163.008665 
L 649.204055 175.72864 
L 655.370031 189.075119 
L 661.536006 202.999435 
L 667.701982 217.451619 
L 673.867958 232.380699 
L 680.033934 247.734992 
L 686.19991 263.462404 
L 698.531862 295.827869 
L 710.863813 329.062882 
L 754.025644 446.600077 
L 766.357596 479.088272 
L 778.689548 510.54849 
L 784.855523 525.81866 
L 791.021499 540.747608 
L 797.187475 555.312619 
L 803.353451 569.493554 
L 809.519427 583.272828 
L 815.685403 596.635372 
L 821.851379 609.56858 
L 828.017354 622.062235 
L 834.18333 634.10844 
L 840.349306 645.701516 
L 846.515282 656.837914 
L 852.681258 667.516098 
L 858.847234 677.736436 
L 865.01321 687.501077 
L 871.179185 696.813828 
L 877.345161 705.680028 
L 883.511137 714.106417 
L 889.677113 722.101008 
L 895.843089 729.672956 
L 902.009065 736.832433 
L 908.17504 743.590501 
L 914.341016 749.958992 
L 920.506992 755.950385 
L 926.672968 761.577698 
L 932.838944 766.854375 
L 939.00492 771.794185 
L 945.170896 776.411125 
L 951.336871 780.719327 
L 957.502847 784.732974 
L 963.668823 788.466225 
L 969.834799 791.933141 
L 976.000775 795.147617 
L 982.166751 798.123331 
L 988.332727 800.873687 
L 994.498702 803.411772 
L 1000.664678 805.750315 
L 1006.830654 807.901655 
L 1012.99663 809.877712 
L 1019.162606 811.689966 
L 1025.328582 813.349439 
L 1031.494558 814.866678 
L 1037.660533 816.251755 
L 1043.826509 817.514253 
L 1056.158461 819.707421 
L 1068.490413 821.513196 
L 1080.822364 822.991067 
L 1093.154316 824.193339 
L 1105.486268 825.165579 
L 1117.818219 825.947134 
L 1136.316147 826.834214 
L 1154.814075 827.459686 
L 1179.477978 828.007463 
L 1210.307857 828.396406 
L 1247.303712 828.621464 
L 1308.963471 828.747018 
L 1364.457254 828.772458 
L 1364.457254 828.772458 
" clip-path="url(#p7e93f2fb45)" style="fill: none; stroke: #e377c2; stroke-width: 2; stroke-linecap: square"/>
   </g>
   <g id="patch_103">
    <path d="M 72.685313 828.779375 
L 72.685313 38.075625 
" style="fill: none; stroke: #000000; stroke-width: 0.8; stroke-linejoin: miter; stroke-linecap: square"/>
   </g>
   <g id="patch_104">
    <path d="M 1429.2 828.779375 
L 1429.2 38.075625 
" style="fill: none; stroke: #000000; stroke-width: 0.8; stroke-linejoin: miter; stroke-linecap: square"/>
   </g>
   <g id="patch_105">
    <path d="M 72.685313 828.779375 
L 1429.2 828.779375 
" style="fill: none; stroke: #000000; stroke-width: 0.8; stroke-linejoin: miter; stroke-linecap: square"/>
   </g>
   <g id="patch_106">
    <path d="M 72.685313 38.075625 
L 1429.2 38.075625 
" style="fill: none; stroke: #000000; stroke-width: 0.8; stroke-linejoin: miter; stroke-linecap: square"/>
   </g>
   <g id="text_15">
    <!-- All Fitted Distributions -->
    <g transform="translate(596.317031 32.075625)scale(0.28 -0.28)">
     <defs>
      <path id="DejaVuSans-41" d="M 2188 4044 
L 1331 1722 
L 3047 1722 
L 2188 4044 
z
M 1831 4666 
L 2547 4666 
L 4325 0 
L 3669 0 
L 3244 1197 
L 1141 1197 
L 716 0 
L 50 0 
L 1831 4666 
z
" transform="scale(0.015625)"/>
      <path id="DejaVuSans-6c" d="M 603 4863 
L 1178 4863 
L 1178 0 
L 603 0 
L 603 4863 
z
" transform="scale(0.015625)"/>
      <path id="DejaVuSans-46" d="M 628 4666 
L 3309 4666 
L 3309 4134 
L 1259 4134 
L 1259 2759 
L 3109 2759 
L 3109 2228 
L 1259 2228 
L 1259 0 
L 628 0 
L 628 4666 
z
" transform="scale(0.015625)"/>
      <path id="DejaVuSans-44" d="M 1259 4147 
L 1259 519 
L 2022 519 
Q 2988 519 3436 956 
Q 3884 1394 3884 2338 
Q 3884 3275 3436 3711 
Q 2988 4147 2022 4147 
L 1259 4147 
z
M 628 4666 
L 1925 4666 
Q 3281 4666 3915 4102 
Q 4550 3538 4550 2338 
Q 4550 1131 3912 565 
Q 3275 0 1925 0 
L 628 0 
L 628 4666 
z
" transform="scale(0.015625)"/>
      <path id="DejaVuSans-62" d="M 3116 1747 
Q 3116 2381 2855 2742 
Q 2594 3103 2138 3103 
Q 1681 3103 1420 2742 
Q 1159 2381 1159 1747 
Q 1159 1113 1420 752 
Q 1681 391 2138 391 
Q 2594 391 2855 752 
Q 3116 1113 3116 1747 
z
M 1159 2969 
Q 1341 3281 1617 3432 
Q 1894 3584 2278 3584 
Q 2916 3584 3314 3078 
Q 3713 2572 3713 1747 
Q 3713 922 3314 415 
Q 2916 -91 2278 -91 
Q 1894 -91 1617 61 
Q 1341 213 1159 525 
L 1159 0 
L 581 0 
L 581 4863 
L 1159 4863 
L 1159 2969 
z
" transform="scale(0.015625)"/>
     </defs>
     <use xlink:href="#DejaVuSans-41"/>
     <use xlink:href="#DejaVuSans-6c" x="68.408203"/>
     <use xlink:href="#DejaVuSans-6c" x="96.191406"/>
     <use xlink:href="#DejaVuSans-20" x="123.974609"/>
     <use xlink:href="#DejaVuSans-46" x="155.761719"/>
     <use xlink:href="#DejaVuSans-69" x="206.03125"/>
     <use xlink:href="#DejaVuSans-74" x="233.814453"/>
     <use xlink:href="#DejaVuSans-74" x="273.023438"/>
     <use xlink:href="#DejaVuSans-65" x="312.232422"/>
     <use xlink:href="#DejaVuSans-64" x="373.755859"/>
     <use xlink:href="#DejaVuSans-20" x="437.232422"/>
     <use xlink:href="#DejaVuSans-44" x="469.019531"/>
     <use xlink:href="#DejaVuSans-69" x="546.021484"/>
     <use xlink:href="#DejaVuSans-73" x="573.804688"/>
     <use xlink:href="#DejaVuSans-74" x="625.904297"/>
     <use xlink:href="#DejaVuSans-72" x="665.113281"/>
     <use xlink:href="#DejaVuSans-69" x="706.226562"/>
     <use xlink:href="#DejaVuSans-62" x="734.009766"/>
     <use xlink:href="#DejaVuSans-75" x="797.486328"/>
     <use xlink:href="#DejaVuSans-74" x="860.865234"/>
     <use xlink:href="#DejaVuSans-69" x="900.074219"/>
     <use xlink:href="#DejaVuSans-6f" x="927.857422"/>
     <use xlink:href="#DejaVuSans-6e" x="989.039062"/>
     <use xlink:href="#DejaVuSans-73" x="1052.417969"/>
    </g>
   </g>
   <g id="legend_1">
    <g id="patch_107">
     <path d="M 1014.37125 303.868125 
L 1412.4 303.868125 
Q 1417.2 303.868125 1417.2 299.068125 
L 1417.2 54.875625 
Q 1417.2 50.075625 1412.4 50.075625 
L 1014.37125 50.075625 
Q 1009.57125 50.075625 1009.57125 54.875625 
L 1009.57125 299.068125 
Q 1009.57125 303.868125 1014.37125 303.868125 
z
" style="fill: #ffffff; opacity: 0.8; stroke: #cccccc; stroke-linejoin: miter"/>
    </g>
    <g id="patch_108">
     <path d="M 1019.17125 77.911875 
L 1067.17125 77.911875 
L 1067.17125 61.111875 
L 1019.17125 61.111875 
z
" style="fill: #1f77b4; opacity: 0.6"/>
    </g>
    <g id="text_16">
     <!-- Generated Chi Distribution -->
     <g transform="translate(1086.37125 77.911875)scale(0.24 -0.24)">
      <defs>
       <path id="DejaVuSans-47" d="M 3809 666 
L 3809 1919 
L 2778 1919 
L 2778 2438 
L 4434 2438 
L 4434 434 
Q 4069 175 3628 42 
Q 3188 -91 2688 -91 
Q 1594 -91 976 548 
Q 359 1188 359 2328 
Q 359 3472 976 4111 
Q 1594 4750 2688 4750 
Q 3144 4750 3555 4637 
Q 3966 4525 4313 4306 
L 4313 3634 
Q 3963 3931 3569 4081 
Q 3175 4231 2741 4231 
Q 1884 4231 1454 3753 
Q 1025 3275 1025 2328 
Q 1025 1384 1454 906 
Q 1884 428 2741 428 
Q 3075 428 3337 486 
Q 3600 544 3809 666 
z
" transform="scale(0.015625)"/>
       <path id="DejaVuSans-61" d="M 2194 1759 
Q 1497 1759 1228 1600 
Q 959 1441 959 1056 
Q 959 750 1161 570 
Q 1363 391 1709 391 
Q 2188 391 2477 730 
Q 2766 1069 2766 1631 
L 2766 1759 
L 2194 1759 
z
M 3341 1997 
L 3341 0 
L 2766 0 
L 2766 531 
Q 2569 213 2275 61 
Q 1981 -91 1556 -91 
Q 1019 -91 701 211 
Q 384 513 384 1019 
Q 384 1609 779 1909 
Q 1175 2209 1959 2209 
L 2766 2209 
L 2766 2266 
Q 2766 2663 2505 2880 
Q 2244 3097 1772 3097 
Q 1472 3097 1187 3025 
Q 903 2953 641 2809 
L 641 3341 
Q 956 3463 1253 3523 
Q 1550 3584 1831 3584 
Q 2591 3584 2966 3190 
Q 3341 2797 3341 1997 
z
" transform="scale(0.015625)"/>
       <path id="DejaVuSans-68" d="M 3513 2113 
L 3513 0 
L 2938 0 
L 2938 2094 
Q 2938 2591 2744 2837 
Q 2550 3084 2163 3084 
Q 1697 3084 1428 2787 
Q 1159 2491 1159 1978 
L 1159 0 
L 581 0 
L 581 4863 
L 1159 4863 
L 1159 2956 
Q 1366 3272 1645 3428 
Q 1925 3584 2291 3584 
Q 2894 3584 3203 3211 
Q 3513 2838 3513 2113 
z
" transform="scale(0.015625)"/>
      </defs>
      <use xlink:href="#DejaVuSans-47"/>
      <use xlink:href="#DejaVuSans-65" x="77.490234"/>
      <use xlink:href="#DejaVuSans-6e" x="139.013672"/>
      <use xlink:href="#DejaVuSans-65" x="202.392578"/>
      <use xlink:href="#DejaVuSans-72" x="263.916016"/>
      <use xlink:href="#DejaVuSans-61" x="305.029297"/>
      <use xlink:href="#DejaVuSans-74" x="366.308594"/>
      <use xlink:href="#DejaVuSans-65" x="405.517578"/>
      <use xlink:href="#DejaVuSans-64" x="467.041016"/>
      <use xlink:href="#DejaVuSans-20" x="530.517578"/>
      <use xlink:href="#DejaVuSans-43" x="562.304688"/>
      <use xlink:href="#DejaVuSans-68" x="632.128906"/>
      <use xlink:href="#DejaVuSans-69" x="695.507812"/>
      <use xlink:href="#DejaVuSans-20" x="723.291016"/>
      <use xlink:href="#DejaVuSans-44" x="755.078125"/>
      <use xlink:href="#DejaVuSans-69" x="832.080078"/>
      <use xlink:href="#DejaVuSans-73" x="859.863281"/>
      <use xlink:href="#DejaVuSans-74" x="911.962891"/>
      <use xlink:href="#DejaVuSans-72" x="951.171875"/>
      <use xlink:href="#DejaVuSans-69" x="992.285156"/>
      <use xlink:href="#DejaVuSans-62" x="1020.068359"/>
      <use xlink:href="#DejaVuSans-75" x="1083.544922"/>
      <use xlink:href="#DejaVuSans-74" x="1146.923828"/>
      <use xlink:href="#DejaVuSans-69" x="1186.132812"/>
      <use xlink:href="#DejaVuSans-6f" x="1213.916016"/>
      <use xlink:href="#DejaVuSans-6e" x="1275.097656"/>
     </g>
    </g>
    <g id="line2d_20">
     <path d="M 1019.17125 104.739375 
L 1043.17125 104.739375 
L 1067.17125 104.739375 
" style="fill: none; stroke: #ff7f0e; stroke-width: 2; stroke-linecap: square"/>
    </g>
    <g id="text_17">
     <!-- Chi fit -->
     <g transform="translate(1086.37125 113.139375)scale(0.24 -0.24)">
      <defs>
       <path id="DejaVuSans-66" d="M 2375 4863 
L 2375 4384 
L 1825 4384 
Q 1516 4384 1395 4259 
Q 1275 4134 1275 3809 
L 1275 3500 
L 2222 3500 
L 2222 3053 
L 1275 3053 
L 1275 0 
L 697 0 
L 697 3053 
L 147 3053 
L 147 3500 
L 697 3500 
L 697 3744 
Q 697 4328 969 4595 
Q 1241 4863 1831 4863 
L 2375 4863 
z
" transform="scale(0.015625)"/>
      </defs>
      <use xlink:href="#DejaVuSans-43"/>
      <use xlink:href="#DejaVuSans-68" x="69.824219"/>
      <use xlink:href="#DejaVuSans-69" x="133.203125"/>
      <use xlink:href="#DejaVuSans-20" x="160.986328"/>
      <use xlink:href="#DejaVuSans-66" x="192.773438"/>
      <use xlink:href="#DejaVuSans-69" x="227.978516"/>
      <use xlink:href="#DejaVuSans-74" x="255.761719"/>
     </g>
    </g>
    <g id="line2d_21">
     <path d="M 1019.17125 139.966875 
L 1043.17125 139.966875 
L 1067.17125 139.966875 
" style="fill: none; stroke: #2ca02c; stroke-width: 2; stroke-linecap: square"/>
    </g>
    <g id="text_18">
     <!-- Chi-Square fit -->
     <g transform="translate(1086.37125 148.366875)scale(0.24 -0.24)">
      <defs>
       <path id="DejaVuSans-2d" d="M 313 2009 
L 1997 2009 
L 1997 1497 
L 313 1497 
L 313 2009 
z
" transform="scale(0.015625)"/>
       <path id="DejaVuSans-53" d="M 3425 4513 
L 3425 3897 
Q 3066 4069 2747 4153 
Q 2428 4238 2131 4238 
Q 1616 4238 1336 4038 
Q 1056 3838 1056 3469 
Q 1056 3159 1242 3001 
Q 1428 2844 1947 2747 
L 2328 2669 
Q 3034 2534 3370 2195 
Q 3706 1856 3706 1288 
Q 3706 609 3251 259 
Q 2797 -91 1919 -91 
Q 1588 -91 1214 -16 
Q 841 59 441 206 
L 441 856 
Q 825 641 1194 531 
Q 1563 422 1919 422 
Q 2459 422 2753 634 
Q 3047 847 3047 1241 
Q 3047 1584 2836 1778 
Q 2625 1972 2144 2069 
L 1759 2144 
Q 1053 2284 737 2584 
Q 422 2884 422 3419 
Q 422 4038 858 4394 
Q 1294 4750 2059 4750 
Q 2388 4750 2728 4690 
Q 3069 4631 3425 4513 
z
" transform="scale(0.015625)"/>
       <path id="DejaVuSans-71" d="M 947 1747 
Q 947 1113 1208 752 
Q 1469 391 1925 391 
Q 2381 391 2643 752 
Q 2906 1113 2906 1747 
Q 2906 2381 2643 2742 
Q 2381 3103 1925 3103 
Q 1469 3103 1208 2742 
Q 947 2381 947 1747 
z
M 2906 525 
Q 2725 213 2448 61 
Q 2172 -91 1784 -91 
Q 1150 -91 751 415 
Q 353 922 353 1747 
Q 353 2572 751 3078 
Q 1150 3584 1784 3584 
Q 2172 3584 2448 3432 
Q 2725 3281 2906 2969 
L 2906 3500 
L 3481 3500 
L 3481 -1331 
L 2906 -1331 
L 2906 525 
z
" transform="scale(0.015625)"/>
      </defs>
      <use xlink:href="#DejaVuSans-43"/>
      <use xlink:href="#DejaVuSans-68" x="69.824219"/>
      <use xlink:href="#DejaVuSans-69" x="133.203125"/>
      <use xlink:href="#DejaVuSans-2d" x="160.986328"/>
      <use xlink:href="#DejaVuSans-53" x="197.070312"/>
      <use xlink:href="#DejaVuSans-71" x="260.546875"/>
      <use xlink:href="#DejaVuSans-75" x="324.023438"/>
      <use xlink:href="#DejaVuSans-61" x="387.402344"/>
      <use xlink:href="#DejaVuSans-72" x="448.681641"/>
      <use xlink:href="#DejaVuSans-65" x="487.544922"/>
      <use xlink:href="#DejaVuSans-20" x="549.068359"/>
      <use xlink:href="#DejaVuSans-66" x="580.855469"/>
      <use xlink:href="#DejaVuSans-69" x="616.060547"/>
      <use xlink:href="#DejaVuSans-74" x="643.84375"/>
     </g>
    </g>
    <g id="line2d_22">
     <path d="M 1019.17125 175.194375 
L 1043.17125 175.194375 
L 1067.17125 175.194375 
" style="fill: none; stroke: #d62728; stroke-width: 2; stroke-linecap: square"/>
    </g>
    <g id="text_19">
     <!-- Exponential fit -->
     <g transform="translate(1086.37125 183.594375)scale(0.24 -0.24)">
      <defs>
       <path id="DejaVuSans-45" d="M 628 4666 
L 3578 4666 
L 3578 4134 
L 1259 4134 
L 1259 2753 
L 3481 2753 
L 3481 2222 
L 1259 2222 
L 1259 531 
L 3634 531 
L 3634 0 
L 628 0 
L 628 4666 
z
" transform="scale(0.015625)"/>
       <path id="DejaVuSans-78" d="M 3513 3500 
L 2247 1797 
L 3578 0 
L 2900 0 
L 1881 1375 
L 863 0 
L 184 0 
L 1544 1831 
L 300 3500 
L 978 3500 
L 1906 2253 
L 2834 3500 
L 3513 3500 
z
" transform="scale(0.015625)"/>
       <path id="DejaVuSans-70" d="M 1159 525 
L 1159 -1331 
L 581 -1331 
L 581 3500 
L 1159 3500 
L 1159 2969 
Q 1341 3281 1617 3432 
Q 1894 3584 2278 3584 
Q 2916 3584 3314 3078 
Q 3713 2572 3713 1747 
Q 3713 922 3314 415 
Q 2916 -91 2278 -91 
Q 1894 -91 1617 61 
Q 1341 213 1159 525 
z
M 3116 1747 
Q 3116 2381 2855 2742 
Q 2594 3103 2138 3103 
Q 1681 3103 1420 2742 
Q 1159 2381 1159 1747 
Q 1159 1113 1420 752 
Q 1681 391 2138 391 
Q 2594 391 2855 752 
Q 3116 1113 3116 1747 
z
" transform="scale(0.015625)"/>
      </defs>
      <use xlink:href="#DejaVuSans-45"/>
      <use xlink:href="#DejaVuSans-78" x="63.183594"/>
      <use xlink:href="#DejaVuSans-70" x="122.363281"/>
      <use xlink:href="#DejaVuSans-6f" x="185.839844"/>
      <use xlink:href="#DejaVuSans-6e" x="247.021484"/>
      <use xlink:href="#DejaVuSans-65" x="310.400391"/>
      <use xlink:href="#DejaVuSans-6e" x="371.923828"/>
      <use xlink:href="#DejaVuSans-74" x="435.302734"/>
      <use xlink:href="#DejaVuSans-69" x="474.511719"/>
      <use xlink:href="#DejaVuSans-61" x="502.294922"/>
      <use xlink:href="#DejaVuSans-6c" x="563.574219"/>
      <use xlink:href="#DejaVuSans-20" x="591.357422"/>
      <use xlink:href="#DejaVuSans-66" x="623.144531"/>
      <use xlink:href="#DejaVuSans-69" x="658.349609"/>
      <use xlink:href="#DejaVuSans-74" x="686.132812"/>
     </g>
    </g>
    <g id="line2d_23">
     <path d="M 1019.17125 210.421875 
L 1043.17125 210.421875 
L 1067.17125 210.421875 
" style="fill: none; stroke: #9467bd; stroke-width: 2; stroke-linecap: square"/>
    </g>
    <g id="text_20">
     <!-- Laplace fit -->
     <g transform="translate(1086.37125 218.821875)scale(0.24 -0.24)">
      <defs>
       <path id="DejaVuSans-4c" d="M 628 4666 
L 1259 4666 
L 1259 531 
L 3531 531 
L 3531 0 
L 628 0 
L 628 4666 
z
" transform="scale(0.015625)"/>
       <path id="DejaVuSans-63" d="M 3122 3366 
L 3122 2828 
Q 2878 2963 2633 3030 
Q 2388 3097 2138 3097 
Q 1578 3097 1268 2742 
Q 959 2388 959 1747 
Q 959 1106 1268 751 
Q 1578 397 2138 397 
Q 2388 397 2633 464 
Q 2878 531 3122 666 
L 3122 134 
Q 2881 22 2623 -34 
Q 2366 -91 2075 -91 
Q 1284 -91 818 406 
Q 353 903 353 1747 
Q 353 2603 823 3093 
Q 1294 3584 2113 3584 
Q 2378 3584 2631 3529 
Q 2884 3475 3122 3366 
z
" transform="scale(0.015625)"/>
      </defs>
      <use xlink:href="#DejaVuSans-4c"/>
      <use xlink:href="#DejaVuSans-61" x="55.712891"/>
      <use xlink:href="#DejaVuSans-70" x="116.992188"/>
      <use xlink:href="#DejaVuSans-6c" x="180.46875"/>
      <use xlink:href="#DejaVuSans-61" x="208.251953"/>
      <use xlink:href="#DejaVuSans-63" x="269.53125"/>
      <use xlink:href="#DejaVuSans-65" x="324.511719"/>
      <use xlink:href="#DejaVuSans-20" x="386.035156"/>
      <use xlink:href="#DejaVuSans-66" x="417.822266"/>
      <use xlink:href="#DejaVuSans-69" x="453.027344"/>
      <use xlink:href="#DejaVuSans-74" x="480.810547"/>
     </g>
    </g>
    <g id="line2d_24">
     <path d="M 1019.17125 245.649375 
L 1043.17125 245.649375 
L 1067.17125 245.649375 
" style="fill: none; stroke: #8c564b; stroke-width: 2; stroke-linecap: square"/>
    </g>
    <g id="text_21">
     <!-- LogNorm fit -->
     <g transform="translate(1086.37125 254.049375)scale(0.24 -0.24)">
      <defs>
       <path id="DejaVuSans-67" d="M 2906 1791 
Q 2906 2416 2648 2759 
Q 2391 3103 1925 3103 
Q 1463 3103 1205 2759 
Q 947 2416 947 1791 
Q 947 1169 1205 825 
Q 1463 481 1925 481 
Q 2391 481 2648 825 
Q 2906 1169 2906 1791 
z
M 3481 434 
Q 3481 -459 3084 -895 
Q 2688 -1331 1869 -1331 
Q 1566 -1331 1297 -1286 
Q 1028 -1241 775 -1147 
L 775 -588 
Q 1028 -725 1275 -790 
Q 1522 -856 1778 -856 
Q 2344 -856 2625 -561 
Q 2906 -266 2906 331 
L 2906 616 
Q 2728 306 2450 153 
Q 2172 0 1784 0 
Q 1141 0 747 490 
Q 353 981 353 1791 
Q 353 2603 747 3093 
Q 1141 3584 1784 3584 
Q 2172 3584 2450 3431 
Q 2728 3278 2906 2969 
L 2906 3500 
L 3481 3500 
L 3481 434 
z
" transform="scale(0.015625)"/>
      </defs>
      <use xlink:href="#DejaVuSans-4c"/>
      <use xlink:href="#DejaVuSans-6f" x="53.962891"/>
      <use xlink:href="#DejaVuSans-67" x="115.144531"/>
      <use xlink:href="#DejaVuSans-4e" x="178.621094"/>
      <use xlink:href="#DejaVuSans-6f" x="253.425781"/>
      <use xlink:href="#DejaVuSans-72" x="314.607422"/>
      <use xlink:href="#DejaVuSans-6d" x="353.970703"/>
      <use xlink:href="#DejaVuSans-20" x="451.382812"/>
      <use xlink:href="#DejaVuSans-66" x="483.169922"/>
      <use xlink:href="#DejaVuSans-69" x="518.375"/>
      <use xlink:href="#DejaVuSans-74" x="546.158203"/>
     </g>
    </g>
    <g id="line2d_25">
     <path d="M 1019.17125 280.876875 
L 1043.17125 280.876875 
L 1067.17125 280.876875 
" style="fill: none; stroke: #e377c2; stroke-width: 2; stroke-linecap: square"/>
    </g>
    <g id="text_22">
     <!-- Normal fit -->
     <g transform="translate(1086.37125 289.276875)scale(0.24 -0.24)">
      <use xlink:href="#DejaVuSans-4e"/>
      <use xlink:href="#DejaVuSans-6f" x="74.804688"/>
      <use xlink:href="#DejaVuSans-72" x="135.986328"/>
      <use xlink:href="#DejaVuSans-6d" x="175.349609"/>
      <use xlink:href="#DejaVuSans-61" x="272.761719"/>
      <use xlink:href="#DejaVuSans-6c" x="334.041016"/>
      <use xlink:href="#DejaVuSans-20" x="361.824219"/>
      <use xlink:href="#DejaVuSans-66" x="393.611328"/>
      <use xlink:href="#DejaVuSans-69" x="428.816406"/>
      <use xlink:href="#DejaVuSans-74" x="456.599609"/>
     </g>
    </g>
   </g>
  </g>
 </g>
 <defs>
  <clipPath id="p7e93f2fb45">
   <rect x="72.685313" y="38.075625" width="1356.514687" height="790.70375"/>
  </clipPath>
 </defs>
</svg>
