<?xml version="1.0" encoding="utf-8" standalone="no"?>
<!DOCTYPE svg PUBLIC "-//W3C//DTD SVG 1.1//EN"
  "http://www.w3.org/Graphics/SVG/1.1/DTD/svg11.dtd">
<svg xmlns:xlink="http://www.w3.org/1999/xlink" width="1440pt" height="864pt" viewBox="0 0 1440 864" xmlns="http://www.w3.org/2000/svg" version="1.1">
 <metadata>
  <rdf:RDF xmlns:dc="http://purl.org/dc/elements/1.1/" xmlns:cc="http://creativecommons.org/ns#" xmlns:rdf="http://www.w3.org/1999/02/22-rdf-syntax-ns#">
   <cc:Work>
    <dc:type rdf:resource="http://purl.org/dc/dcmitype/StillImage"/>
    <dc:date>2025-02-11T16:15:45.090541</dc:date>
    <dc:format>image/svg+xml</dc:format>
    <dc:creator>
     <cc:Agent>
      <dc:title>Matplotlib v3.10.0, https://matplotlib.org/</dc:title>
     </cc:Agent>
    </dc:creator>
   </cc:Work>
  </rdf:RDF>
 </metadata>
 <defs>
  <style type="text/css">*{stroke-linejoin: round; stroke-linecap: butt}</style>
 </defs>
 <g id="figure_1">
  <g id="patch_1">
   <path d="M 0 864 
L 1440 864 
L 1440 0 
L 0 0 
z
" style="fill: #ffffff"/>
  </g>
  <g id="axes_1">
   <g id="patch_2">
    <path d="M 72.685313 828.779375 
L 1429.2 828.779375 
L 1429.2 38.075625 
L 72.685313 38.075625 
z
" style="fill: #ffffff"/>
   </g>
   <g id="patch_3">
    <path d="M 134.345071 828.779375 
L 146.677023 828.779375 
L 146.677023 825.851114 
L 134.345071 825.851114 
z
" clip-path="url(#p9e6feaa23c)" style="fill: #1f77b4; opacity: 0.6"/>
   </g>
   <g id="patch_4">
    <path d="M 146.677023 828.779375 
L 159.008974 828.779375 
L 159.008974 821.458722 
L 146.677023 821.458722 
z
" clip-path="url(#p9e6feaa23c)" style="fill: #1f77b4; opacity: 0.6"/>
   </g>
   <g id="patch_5">
    <path d="M 159.008974 828.779375 
L 171.340926 828.779375 
L 171.340926 817.554373 
L 159.008974 817.554373 
z
" clip-path="url(#p9e6feaa23c)" style="fill: #1f77b4; opacity: 0.6"/>
   </g>
   <g id="patch_6">
    <path d="M 171.340926 828.779375 
L 183.672878 828.779375 
L 183.672878 813.650025 
L 171.340926 813.650025 
z
" clip-path="url(#p9e6feaa23c)" style="fill: #1f77b4; opacity: 0.6"/>
   </g>
   <g id="patch_7">
    <path d="M 183.672878 828.779375 
L 196.00483 828.779375 
L 196.00483 806.329372 
L 183.672878 806.329372 
z
" clip-path="url(#p9e6feaa23c)" style="fill: #1f77b4; opacity: 0.6"/>
   </g>
   <g id="patch_8">
    <path d="M 196.00483 828.779375 
L 208.336781 828.779375 
L 208.336781 789.247848 
L 196.00483 789.247848 
z
" clip-path="url(#p9e6feaa23c)" style="fill: #1f77b4; opacity: 0.6"/>
   </g>
   <g id="patch_9">
    <path d="M 208.336781 828.779375 
L 220.668733 828.779375 
L 220.668733 775.094585 
L 208.336781 775.094585 
z
" clip-path="url(#p9e6feaa23c)" style="fill: #1f77b4; opacity: 0.6"/>
   </g>
   <g id="patch_10">
    <path d="M 220.668733 828.779375 
L 233.000685 828.779375 
L 233.000685 760.941322 
L 220.668733 760.941322 
z
" clip-path="url(#p9e6feaa23c)" style="fill: #1f77b4; opacity: 0.6"/>
   </g>
   <g id="patch_11">
    <path d="M 233.000685 828.779375 
L 245.332636 828.779375 
L 245.332636 739.95545 
L 233.000685 739.95545 
z
" clip-path="url(#p9e6feaa23c)" style="fill: #1f77b4; opacity: 0.6"/>
   </g>
   <g id="patch_12">
    <path d="M 245.332636 828.779375 
L 257.664588 828.779375 
L 257.664588 709.208706 
L 245.332636 709.208706 
z
" clip-path="url(#p9e6feaa23c)" style="fill: #1f77b4; opacity: 0.6"/>
   </g>
   <g id="patch_13">
    <path d="M 257.664588 828.779375 
L 269.99654 828.779375 
L 269.99654 692.127182 
L 257.664588 692.127182 
z
" clip-path="url(#p9e6feaa23c)" style="fill: #1f77b4; opacity: 0.6"/>
   </g>
   <g id="patch_14">
    <path d="M 269.99654 828.779375 
L 282.328491 828.779375 
L 282.328491 654.547829 
L 269.99654 654.547829 
z
" clip-path="url(#p9e6feaa23c)" style="fill: #1f77b4; opacity: 0.6"/>
   </g>
   <g id="patch_15">
    <path d="M 282.328491 828.779375 
L 294.660443 828.779375 
L 294.660443 614.040215 
L 282.328491 614.040215 
z
" clip-path="url(#p9e6feaa23c)" style="fill: #1f77b4; opacity: 0.6"/>
   </g>
   <g id="patch_16">
    <path d="M 294.660443 828.779375 
L 306.992395 828.779375 
L 306.992395 607.695649 
L 294.660443 607.695649 
z
" clip-path="url(#p9e6feaa23c)" style="fill: #1f77b4; opacity: 0.6"/>
   </g>
   <g id="patch_17">
    <path d="M 306.992395 828.779375 
L 319.324347 828.779375 
L 319.324347 548.64238 
L 306.992395 548.64238 
z
" clip-path="url(#p9e6feaa23c)" style="fill: #1f77b4; opacity: 0.6"/>
   </g>
   <g id="patch_18">
    <path d="M 319.324347 828.779375 
L 331.656298 828.779375 
L 331.656298 508.134766 
L 319.324347 508.134766 
z
" clip-path="url(#p9e6feaa23c)" style="fill: #1f77b4; opacity: 0.6"/>
   </g>
   <g id="patch_19">
    <path d="M 331.656298 828.779375 
L 343.98825 828.779375 
L 343.98825 485.684763 
L 331.656298 485.684763 
z
" clip-path="url(#p9e6feaa23c)" style="fill: #1f77b4; opacity: 0.6"/>
   </g>
   <g id="patch_20">
    <path d="M 343.98825 828.779375 
L 356.320202 828.779375 
L 356.320202 437.856495 
L 343.98825 437.856495 
z
" clip-path="url(#p9e6feaa23c)" style="fill: #1f77b4; opacity: 0.6"/>
   </g>
   <g id="patch_21">
    <path d="M 356.320202 828.779375 
L 368.652153 828.779375 
L 368.652153 414.430405 
L 356.320202 414.430405 
z
" clip-path="url(#p9e6feaa23c)" style="fill: #1f77b4; opacity: 0.6"/>
   </g>
   <g id="patch_22">
    <path d="M 368.652153 828.779375 
L 380.984105 828.779375 
L 380.984105 370.994529 
L 368.652153 370.994529 
z
" clip-path="url(#p9e6feaa23c)" style="fill: #1f77b4; opacity: 0.6"/>
   </g>
   <g id="patch_23">
    <path d="M 380.984105 828.779375 
L 393.316057 828.779375 
L 393.316057 344.152134 
L 380.984105 344.152134 
z
" clip-path="url(#p9e6feaa23c)" style="fill: #1f77b4; opacity: 0.6"/>
   </g>
   <g id="patch_24">
    <path d="M 393.316057 828.779375 
L 405.648009 828.779375 
L 405.648009 288.027127 
L 393.316057 288.027127 
z
" clip-path="url(#p9e6feaa23c)" style="fill: #1f77b4; opacity: 0.6"/>
   </g>
   <g id="patch_25">
    <path d="M 405.648009 828.779375 
L 417.97996 828.779375 
L 417.97996 260.696688 
L 405.648009 260.696688 
z
" clip-path="url(#p9e6feaa23c)" style="fill: #1f77b4; opacity: 0.6"/>
   </g>
   <g id="patch_26">
    <path d="M 417.97996 828.779375 
L 430.311912 828.779375 
L 430.311912 242.639077 
L 417.97996 242.639077 
z
" clip-path="url(#p9e6feaa23c)" style="fill: #1f77b4; opacity: 0.6"/>
   </g>
   <g id="patch_27">
    <path d="M 430.311912 828.779375 
L 442.643864 828.779375 
L 442.643864 183.097765 
L 430.311912 183.097765 
z
" clip-path="url(#p9e6feaa23c)" style="fill: #1f77b4; opacity: 0.6"/>
   </g>
   <g id="patch_28">
    <path d="M 442.643864 828.779375 
L 454.975815 828.779375 
L 454.975815 166.504284 
L 442.643864 166.504284 
z
" clip-path="url(#p9e6feaa23c)" style="fill: #1f77b4; opacity: 0.6"/>
   </g>
   <g id="patch_29">
    <path d="M 454.975815 828.779375 
L 467.307767 828.779375 
L 467.307767 171.872763 
L 454.975815 171.872763 
z
" clip-path="url(#p9e6feaa23c)" style="fill: #1f77b4; opacity: 0.6"/>
   </g>
   <g id="patch_30">
    <path d="M 467.307767 828.779375 
L 479.639719 828.779375 
L 479.639719 145.030368 
L 467.307767 145.030368 
z
" clip-path="url(#p9e6feaa23c)" style="fill: #1f77b4; opacity: 0.6"/>
   </g>
   <g id="patch_31">
    <path d="M 479.639719 828.779375 
L 491.97167 828.779375 
L 491.97167 108.427102 
L 479.639719 108.427102 
z
" clip-path="url(#p9e6feaa23c)" style="fill: #1f77b4; opacity: 0.6"/>
   </g>
   <g id="patch_32">
    <path d="M 491.97167 828.779375 
L 504.303622 828.779375 
L 504.303622 94.273839 
L 491.97167 94.273839 
z
" clip-path="url(#p9e6feaa23c)" style="fill: #1f77b4; opacity: 0.6"/>
   </g>
   <g id="patch_33">
    <path d="M 504.303622 828.779375 
L 516.635574 828.779375 
L 516.635574 107.451015 
L 504.303622 107.451015 
z
" clip-path="url(#p9e6feaa23c)" style="fill: #1f77b4; opacity: 0.6"/>
   </g>
   <g id="patch_34">
    <path d="M 516.635574 828.779375 
L 528.967526 828.779375 
L 528.967526 75.728185 
L 516.635574 75.728185 
z
" clip-path="url(#p9e6feaa23c)" style="fill: #1f77b4; opacity: 0.6"/>
   </g>
   <g id="patch_35">
    <path d="M 528.967526 828.779375 
L 541.299477 828.779375 
L 541.299477 138.685802 
L 528.967526 138.685802 
z
" clip-path="url(#p9e6feaa23c)" style="fill: #1f77b4; opacity: 0.6"/>
   </g>
   <g id="patch_36">
    <path d="M 541.299477 828.779375 
L 553.631429 828.779375 
L 553.631429 122.580365 
L 541.299477 122.580365 
z
" clip-path="url(#p9e6feaa23c)" style="fill: #1f77b4; opacity: 0.6"/>
   </g>
   <g id="patch_37">
    <path d="M 553.631429 828.779375 
L 565.963381 828.779375 
L 565.963381 119.652104 
L 553.631429 119.652104 
z
" clip-path="url(#p9e6feaa23c)" style="fill: #1f77b4; opacity: 0.6"/>
   </g>
   <g id="patch_38">
    <path d="M 565.963381 828.779375 
L 578.295332 828.779375 
L 578.295332 129.901018 
L 565.963381 129.901018 
z
" clip-path="url(#p9e6feaa23c)" style="fill: #1f77b4; opacity: 0.6"/>
   </g>
   <g id="patch_39">
    <path d="M 578.295332 828.779375 
L 590.627284 828.779375 
L 590.627284 117.699929 
L 578.295332 117.699929 
z
" clip-path="url(#p9e6feaa23c)" style="fill: #1f77b4; opacity: 0.6"/>
   </g>
   <g id="patch_40">
    <path d="M 590.627284 828.779375 
L 602.959236 828.779375 
L 602.959236 156.25537 
L 590.627284 156.25537 
z
" clip-path="url(#p9e6feaa23c)" style="fill: #1f77b4; opacity: 0.6"/>
   </g>
   <g id="patch_41">
    <path d="M 602.959236 828.779375 
L 615.291188 828.779375 
L 615.291188 190.906461 
L 602.959236 190.906461 
z
" clip-path="url(#p9e6feaa23c)" style="fill: #1f77b4; opacity: 0.6"/>
   </g>
   <g id="patch_42">
    <path d="M 615.291188 828.779375 
L 627.623139 828.779375 
L 627.623139 241.174946 
L 615.291188 241.174946 
z
" clip-path="url(#p9e6feaa23c)" style="fill: #1f77b4; opacity: 0.6"/>
   </g>
   <g id="patch_43">
    <path d="M 627.623139 828.779375 
L 639.955091 828.779375 
L 639.955091 243.127121 
L 627.623139 243.127121 
z
" clip-path="url(#p9e6feaa23c)" style="fill: #1f77b4; opacity: 0.6"/>
   </g>
   <g id="patch_44">
    <path d="M 639.955091 828.779375 
L 652.287043 828.779375 
L 652.287043 256.79234 
L 639.955091 256.79234 
z
" clip-path="url(#p9e6feaa23c)" style="fill: #1f77b4; opacity: 0.6"/>
   </g>
   <g id="patch_45">
    <path d="M 652.287043 828.779375 
L 664.618994 828.779375 
L 664.618994 295.34778 
L 652.287043 295.34778 
z
" clip-path="url(#p9e6feaa23c)" style="fill: #1f77b4; opacity: 0.6"/>
   </g>
   <g id="patch_46">
    <path d="M 664.618994 828.779375 
L 676.950946 828.779375 
L 676.950946 308.524956 
L 664.618994 308.524956 
z
" clip-path="url(#p9e6feaa23c)" style="fill: #1f77b4; opacity: 0.6"/>
   </g>
   <g id="patch_47">
    <path d="M 676.950946 828.779375 
L 689.282898 828.779375 
L 689.282898 332.439089 
L 676.950946 332.439089 
z
" clip-path="url(#p9e6feaa23c)" style="fill: #1f77b4; opacity: 0.6"/>
   </g>
   <g id="patch_48">
    <path d="M 689.282898 828.779375 
L 701.614849 828.779375 
L 701.614849 366.114094 
L 689.282898 366.114094 
z
" clip-path="url(#p9e6feaa23c)" style="fill: #1f77b4; opacity: 0.6"/>
   </g>
   <g id="patch_49">
    <path d="M 701.614849 828.779375 
L 713.946801 828.779375 
L 713.946801 394.42062 
L 701.614849 394.42062 
z
" clip-path="url(#p9e6feaa23c)" style="fill: #1f77b4; opacity: 0.6"/>
   </g>
   <g id="patch_50">
    <path d="M 713.946801 828.779375 
L 726.278753 828.779375 
L 726.278753 430.535842 
L 713.946801 430.535842 
z
" clip-path="url(#p9e6feaa23c)" style="fill: #1f77b4; opacity: 0.6"/>
   </g>
   <g id="patch_51">
    <path d="M 726.278753 828.779375 
L 738.610705 828.779375 
L 738.610705 453.961932 
L 726.278753 453.961932 
z
" clip-path="url(#p9e6feaa23c)" style="fill: #1f77b4; opacity: 0.6"/>
   </g>
   <g id="patch_52">
    <path d="M 738.610705 828.779375 
L 750.942656 828.779375 
L 750.942656 510.08694 
L 738.610705 510.08694 
z
" clip-path="url(#p9e6feaa23c)" style="fill: #1f77b4; opacity: 0.6"/>
   </g>
   <g id="patch_53">
    <path d="M 750.942656 828.779375 
L 763.274608 828.779375 
L 763.274608 514.479332 
L 750.942656 514.479332 
z
" clip-path="url(#p9e6feaa23c)" style="fill: #1f77b4; opacity: 0.6"/>
   </g>
   <g id="patch_54">
    <path d="M 763.274608 828.779375 
L 775.60656 828.779375 
L 775.60656 550.594554 
L 763.274608 550.594554 
z
" clip-path="url(#p9e6feaa23c)" style="fill: #1f77b4; opacity: 0.6"/>
   </g>
   <g id="patch_55">
    <path d="M 775.60656 828.779375 
L 787.938511 828.779375 
L 787.938511 555.963033 
L 775.60656 555.963033 
z
" clip-path="url(#p9e6feaa23c)" style="fill: #1f77b4; opacity: 0.6"/>
   </g>
   <g id="patch_56">
    <path d="M 787.938511 828.779375 
L 800.270463 828.779375 
L 800.270463 565.723904 
L 787.938511 565.723904 
z
" clip-path="url(#p9e6feaa23c)" style="fill: #1f77b4; opacity: 0.6"/>
   </g>
   <g id="patch_57">
    <path d="M 800.270463 828.779375 
L 812.602415 828.779375 
L 812.602415 586.221733 
L 800.270463 586.221733 
z
" clip-path="url(#p9e6feaa23c)" style="fill: #1f77b4; opacity: 0.6"/>
   </g>
   <g id="patch_58">
    <path d="M 812.602415 828.779375 
L 824.934366 828.779375 
L 824.934366 601.351083 
L 812.602415 601.351083 
z
" clip-path="url(#p9e6feaa23c)" style="fill: #1f77b4; opacity: 0.6"/>
   </g>
   <g id="patch_59">
    <path d="M 824.934366 828.779375 
L 837.266318 828.779375 
L 837.266318 648.691307 
L 824.934366 648.691307 
z
" clip-path="url(#p9e6feaa23c)" style="fill: #1f77b4; opacity: 0.6"/>
   </g>
   <g id="patch_60">
    <path d="M 837.266318 828.779375 
L 849.59827 828.779375 
L 849.59827 633.561957 
L 837.266318 633.561957 
z
" clip-path="url(#p9e6feaa23c)" style="fill: #1f77b4; opacity: 0.6"/>
   </g>
   <g id="patch_61">
    <path d="M 849.59827 828.779375 
L 861.930222 828.779375 
L 861.930222 682.366311 
L 849.59827 682.366311 
z
" clip-path="url(#p9e6feaa23c)" style="fill: #1f77b4; opacity: 0.6"/>
   </g>
   <g id="patch_62">
    <path d="M 861.930222 828.779375 
L 874.262173 828.779375 
L 874.262173 699.447835 
L 861.930222 699.447835 
z
" clip-path="url(#p9e6feaa23c)" style="fill: #1f77b4; opacity: 0.6"/>
   </g>
   <g id="patch_63">
    <path d="M 874.262173 828.779375 
L 886.594125 828.779375 
L 886.594125 724.338056 
L 874.262173 724.338056 
z
" clip-path="url(#p9e6feaa23c)" style="fill: #1f77b4; opacity: 0.6"/>
   </g>
   <g id="patch_64">
    <path d="M 886.594125 828.779375 
L 898.926077 828.779375 
L 898.926077 719.457621 
L 886.594125 719.457621 
z
" clip-path="url(#p9e6feaa23c)" style="fill: #1f77b4; opacity: 0.6"/>
   </g>
   <g id="patch_65">
    <path d="M 898.926077 828.779375 
L 911.258028 828.779375 
L 911.258028 730.194579 
L 898.926077 730.194579 
z
" clip-path="url(#p9e6feaa23c)" style="fill: #1f77b4; opacity: 0.6"/>
   </g>
   <g id="patch_66">
    <path d="M 911.258028 828.779375 
L 923.58998 828.779375 
L 923.58998 757.525017 
L 911.258028 757.525017 
z
" clip-path="url(#p9e6feaa23c)" style="fill: #1f77b4; opacity: 0.6"/>
   </g>
   <g id="patch_67">
    <path d="M 923.58998 828.779375 
L 935.921932 828.779375 
L 935.921932 764.845671 
L 923.58998 764.845671 
z
" clip-path="url(#p9e6feaa23c)" style="fill: #1f77b4; opacity: 0.6"/>
   </g>
   <g id="patch_68">
    <path d="M 935.921932 828.779375 
L 948.253884 828.779375 
L 948.253884 758.013061 
L 935.921932 758.013061 
z
" clip-path="url(#p9e6feaa23c)" style="fill: #1f77b4; opacity: 0.6"/>
   </g>
   <g id="patch_69">
    <path d="M 948.253884 828.779375 
L 960.585835 828.779375 
L 960.585835 764.845671 
L 948.253884 764.845671 
z
" clip-path="url(#p9e6feaa23c)" style="fill: #1f77b4; opacity: 0.6"/>
   </g>
   <g id="patch_70">
    <path d="M 960.585835 828.779375 
L 972.917787 828.779375 
L 972.917787 778.998933 
L 960.585835 778.998933 
z
" clip-path="url(#p9e6feaa23c)" style="fill: #1f77b4; opacity: 0.6"/>
   </g>
   <g id="patch_71">
    <path d="M 972.917787 828.779375 
L 985.249739 828.779375 
L 985.249739 786.80763 
L 972.917787 786.80763 
z
" clip-path="url(#p9e6feaa23c)" style="fill: #1f77b4; opacity: 0.6"/>
   </g>
   <g id="patch_72">
    <path d="M 985.249739 828.779375 
L 997.58169 828.779375 
L 997.58169 788.271761 
L 985.249739 788.271761 
z
" clip-path="url(#p9e6feaa23c)" style="fill: #1f77b4; opacity: 0.6"/>
   </g>
   <g id="patch_73">
    <path d="M 997.58169 828.779375 
L 1009.913642 828.779375 
L 1009.913642 797.056545 
L 997.58169 797.056545 
z
" clip-path="url(#p9e6feaa23c)" style="fill: #1f77b4; opacity: 0.6"/>
   </g>
   <g id="patch_74">
    <path d="M 1009.913642 828.779375 
L 1022.245594 828.779375 
L 1022.245594 804.865241 
L 1009.913642 804.865241 
z
" clip-path="url(#p9e6feaa23c)" style="fill: #1f77b4; opacity: 0.6"/>
   </g>
   <g id="patch_75">
    <path d="M 1022.245594 828.779375 
L 1034.577545 828.779375 
L 1034.577545 808.76959 
L 1022.245594 808.76959 
z
" clip-path="url(#p9e6feaa23c)" style="fill: #1f77b4; opacity: 0.6"/>
   </g>
   <g id="patch_76">
    <path d="M 1034.577545 828.779375 
L 1046.909497 828.779375 
L 1046.909497 812.673938 
L 1034.577545 812.673938 
z
" clip-path="url(#p9e6feaa23c)" style="fill: #1f77b4; opacity: 0.6"/>
   </g>
   <g id="patch_77">
    <path d="M 1046.909497 828.779375 
L 1059.241449 828.779375 
L 1059.241449 813.161982 
L 1046.909497 813.161982 
z
" clip-path="url(#p9e6feaa23c)" style="fill: #1f77b4; opacity: 0.6"/>
   </g>
   <g id="patch_78">
    <path d="M 1059.241449 828.779375 
L 1071.573401 828.779375 
L 1071.573401 817.554373 
L 1059.241449 817.554373 
z
" clip-path="url(#p9e6feaa23c)" style="fill: #1f77b4; opacity: 0.6"/>
   </g>
   <g id="patch_79">
    <path d="M 1071.573401 828.779375 
L 1083.905352 828.779375 
L 1083.905352 815.114156 
L 1071.573401 815.114156 
z
" clip-path="url(#p9e6feaa23c)" style="fill: #1f77b4; opacity: 0.6"/>
   </g>
   <g id="patch_80">
    <path d="M 1083.905352 828.779375 
L 1096.237304 828.779375 
L 1096.237304 819.018504 
L 1083.905352 819.018504 
z
" clip-path="url(#p9e6feaa23c)" style="fill: #1f77b4; opacity: 0.6"/>
   </g>
   <g id="patch_81">
    <path d="M 1096.237304 828.779375 
L 1108.569256 828.779375 
L 1108.569256 820.482635 
L 1096.237304 820.482635 
z
" clip-path="url(#p9e6feaa23c)" style="fill: #1f77b4; opacity: 0.6"/>
   </g>
   <g id="patch_82">
    <path d="M 1108.569256 828.779375 
L 1120.901207 828.779375 
L 1120.901207 820.970678 
L 1108.569256 820.970678 
z
" clip-path="url(#p9e6feaa23c)" style="fill: #1f77b4; opacity: 0.6"/>
   </g>
   <g id="patch_83">
    <path d="M 1120.901207 828.779375 
L 1133.233159 828.779375 
L 1133.233159 822.922852 
L 1120.901207 822.922852 
z
" clip-path="url(#p9e6feaa23c)" style="fill: #1f77b4; opacity: 0.6"/>
   </g>
   <g id="patch_84">
    <path d="M 1133.233159 828.779375 
L 1145.565111 828.779375 
L 1145.565111 823.410896 
L 1133.233159 823.410896 
z
" clip-path="url(#p9e6feaa23c)" style="fill: #1f77b4; opacity: 0.6"/>
   </g>
   <g id="patch_85">
    <path d="M 1145.565111 828.779375 
L 1157.897062 828.779375 
L 1157.897062 823.89894 
L 1145.565111 823.89894 
z
" clip-path="url(#p9e6feaa23c)" style="fill: #1f77b4; opacity: 0.6"/>
   </g>
   <g id="patch_86">
    <path d="M 1157.897062 828.779375 
L 1170.229014 828.779375 
L 1170.229014 823.89894 
L 1157.897062 823.89894 
z
" clip-path="url(#p9e6feaa23c)" style="fill: #1f77b4; opacity: 0.6"/>
   </g>
   <g id="patch_87">
    <path d="M 1170.229014 828.779375 
L 1182.560966 828.779375 
L 1182.560966 826.827201 
L 1170.229014 826.827201 
z
" clip-path="url(#p9e6feaa23c)" style="fill: #1f77b4; opacity: 0.6"/>
   </g>
   <g id="patch_88">
    <path d="M 1182.560966 828.779375 
L 1194.892918 828.779375 
L 1194.892918 827.803288 
L 1182.560966 827.803288 
z
" clip-path="url(#p9e6feaa23c)" style="fill: #1f77b4; opacity: 0.6"/>
   </g>
   <g id="patch_89">
    <path d="M 1194.892918 828.779375 
L 1207.224869 828.779375 
L 1207.224869 827.803288 
L 1194.892918 827.803288 
z
" clip-path="url(#p9e6feaa23c)" style="fill: #1f77b4; opacity: 0.6"/>
   </g>
   <g id="patch_90">
    <path d="M 1207.224869 828.779375 
L 1219.556821 828.779375 
L 1219.556821 827.803288 
L 1207.224869 827.803288 
z
" clip-path="url(#p9e6feaa23c)" style="fill: #1f77b4; opacity: 0.6"/>
   </g>
   <g id="patch_91">
    <path d="M 1219.556821 828.779375 
L 1231.888773 828.779375 
L 1231.888773 828.291331 
L 1219.556821 828.291331 
z
" clip-path="url(#p9e6feaa23c)" style="fill: #1f77b4; opacity: 0.6"/>
   </g>
   <g id="patch_92">
    <path d="M 1231.888773 828.779375 
L 1244.220724 828.779375 
L 1244.220724 827.803288 
L 1231.888773 827.803288 
z
" clip-path="url(#p9e6feaa23c)" style="fill: #1f77b4; opacity: 0.6"/>
   </g>
   <g id="patch_93">
    <path d="M 1244.220724 828.779375 
L 1256.552676 828.779375 
L 1256.552676 828.779375 
L 1244.220724 828.779375 
z
" clip-path="url(#p9e6feaa23c)" style="fill: #1f77b4; opacity: 0.6"/>
   </g>
   <g id="patch_94">
    <path d="M 1256.552676 828.779375 
L 1268.884628 828.779375 
L 1268.884628 827.803288 
L 1256.552676 827.803288 
z
" clip-path="url(#p9e6feaa23c)" style="fill: #1f77b4; opacity: 0.6"/>
   </g>
   <g id="patch_95">
    <path d="M 1268.884628 828.779375 
L 1281.21658 828.779375 
L 1281.21658 827.803288 
L 1268.884628 827.803288 
z
" clip-path="url(#p9e6feaa23c)" style="fill: #1f77b4; opacity: 0.6"/>
   </g>
   <g id="patch_96">
    <path d="M 1281.21658 828.779375 
L 1293.548531 828.779375 
L 1293.548531 828.291331 
L 1281.21658 828.291331 
z
" clip-path="url(#p9e6feaa23c)" style="fill: #1f77b4; opacity: 0.6"/>
   </g>
   <g id="patch_97">
    <path d="M 1293.548531 828.779375 
L 1305.880483 828.779375 
L 1305.880483 828.291331 
L 1293.548531 828.291331 
z
" clip-path="url(#p9e6feaa23c)" style="fill: #1f77b4; opacity: 0.6"/>
   </g>
   <g id="patch_98">
    <path d="M 1305.880483 828.779375 
L 1318.212435 828.779375 
L 1318.212435 828.779375 
L 1305.880483 828.779375 
z
" clip-path="url(#p9e6feaa23c)" style="fill: #1f77b4; opacity: 0.6"/>
   </g>
   <g id="patch_99">
    <path d="M 1318.212435 828.779375 
L 1330.544386 828.779375 
L 1330.544386 828.779375 
L 1318.212435 828.779375 
z
" clip-path="url(#p9e6feaa23c)" style="fill: #1f77b4; opacity: 0.6"/>
   </g>
   <g id="patch_100">
    <path d="M 1330.544386 828.779375 
L 1342.876338 828.779375 
L 1342.876338 828.779375 
L 1330.544386 828.779375 
z
" clip-path="url(#p9e6feaa23c)" style="fill: #1f77b4; opacity: 0.6"/>
   </g>
   <g id="patch_101">
    <path d="M 1342.876338 828.779375 
L 1355.20829 828.779375 
L 1355.20829 828.779375 
L 1342.876338 828.779375 
z
" clip-path="url(#p9e6feaa23c)" style="fill: #1f77b4; opacity: 0.6"/>
   </g>
   <g id="patch_102">
    <path d="M 1355.20829 828.779375 
L 1367.540241 828.779375 
L 1367.540241 828.291331 
L 1355.20829 828.291331 
z
" clip-path="url(#p9e6feaa23c)" style="fill: #1f77b4; opacity: 0.6"/>
   </g>
   <g id="matplotlib.axis_1">
    <g id="xtick_1">
     <g id="line2d_1">
      <defs>
       <path id="m028e012355" d="M 0 0 
L 0 3.5 
" style="stroke: #000000; stroke-width: 0.8"/>
      </defs>
      <g>
       <use xlink:href="#m028e012355" x="106.110425" y="828.779375" style="stroke: #000000; stroke-width: 0.8"/>
      </g>
     </g>
     <g id="text_1">
      <!-- 0 -->
      <g transform="translate(100.384175 849.456563) scale(0.18 -0.18)">
       <defs>
        <path id="DejaVuSans-30" d="M 2034 4250 
Q 1547 4250 1301 3770 
Q 1056 3291 1056 2328 
Q 1056 1369 1301 889 
Q 1547 409 2034 409 
Q 2525 409 2770 889 
Q 3016 1369 3016 2328 
Q 3016 3291 2770 3770 
Q 2525 4250 2034 4250 
z
M 2034 4750 
Q 2819 4750 3233 4129 
Q 3647 3509 3647 2328 
Q 3647 1150 3233 529 
Q 2819 -91 2034 -91 
Q 1250 -91 836 529 
Q 422 1150 422 2328 
Q 422 3509 836 4129 
Q 1250 4750 2034 4750 
z
" transform="scale(0.015625)"/>
       </defs>
       <use xlink:href="#DejaVuSans-30"/>
      </g>
     </g>
    </g>
    <g id="xtick_2">
     <g id="line2d_2">
      <g>
       <use xlink:href="#m028e012355" x="346.526554" y="828.779375" style="stroke: #000000; stroke-width: 0.8"/>
      </g>
     </g>
     <g id="text_2">
      <!-- 1 -->
      <g transform="translate(340.800304 849.456563) scale(0.18 -0.18)">
       <defs>
        <path id="DejaVuSans-31" d="M 794 531 
L 1825 531 
L 1825 4091 
L 703 3866 
L 703 4441 
L 1819 4666 
L 2450 4666 
L 2450 531 
L 3481 531 
L 3481 0 
L 794 0 
L 794 531 
z
" transform="scale(0.015625)"/>
       </defs>
       <use xlink:href="#DejaVuSans-31"/>
      </g>
     </g>
    </g>
    <g id="xtick_3">
     <g id="line2d_3">
      <g>
       <use xlink:href="#m028e012355" x="586.942684" y="828.779375" style="stroke: #000000; stroke-width: 0.8"/>
      </g>
     </g>
     <g id="text_3">
      <!-- 2 -->
      <g transform="translate(581.216434 849.456563) scale(0.18 -0.18)">
       <defs>
        <path id="DejaVuSans-32" d="M 1228 531 
L 3431 531 
L 3431 0 
L 469 0 
L 469 531 
Q 828 903 1448 1529 
Q 2069 2156 2228 2338 
Q 2531 2678 2651 2914 
Q 2772 3150 2772 3378 
Q 2772 3750 2511 3984 
Q 2250 4219 1831 4219 
Q 1534 4219 1204 4116 
Q 875 4013 500 3803 
L 500 4441 
Q 881 4594 1212 4672 
Q 1544 4750 1819 4750 
Q 2544 4750 2975 4387 
Q 3406 4025 3406 3419 
Q 3406 3131 3298 2873 
Q 3191 2616 2906 2266 
Q 2828 2175 2409 1742 
Q 1991 1309 1228 531 
z
" transform="scale(0.015625)"/>
       </defs>
       <use xlink:href="#DejaVuSans-32"/>
      </g>
     </g>
    </g>
    <g id="xtick_4">
     <g id="line2d_4">
      <g>
       <use xlink:href="#m028e012355" x="827.358813" y="828.779375" style="stroke: #000000; stroke-width: 0.8"/>
      </g>
     </g>
     <g id="text_4">
      <!-- 3 -->
      <g transform="translate(821.632563 849.456563) scale(0.18 -0.18)">
       <defs>
        <path id="DejaVuSans-33" d="M 2597 2516 
Q 3050 2419 3304 2112 
Q 3559 1806 3559 1356 
Q 3559 666 3084 287 
Q 2609 -91 1734 -91 
Q 1441 -91 1130 -33 
Q 819 25 488 141 
L 488 750 
Q 750 597 1062 519 
Q 1375 441 1716 441 
Q 2309 441 2620 675 
Q 2931 909 2931 1356 
Q 2931 1769 2642 2001 
Q 2353 2234 1838 2234 
L 1294 2234 
L 1294 2753 
L 1863 2753 
Q 2328 2753 2575 2939 
Q 2822 3125 2822 3475 
Q 2822 3834 2567 4026 
Q 2313 4219 1838 4219 
Q 1578 4219 1281 4162 
Q 984 4106 628 3988 
L 628 4550 
Q 988 4650 1302 4700 
Q 1616 4750 1894 4750 
Q 2613 4750 3031 4423 
Q 3450 4097 3450 3541 
Q 3450 3153 3228 2886 
Q 3006 2619 2597 2516 
z
" transform="scale(0.015625)"/>
       </defs>
       <use xlink:href="#DejaVuSans-33"/>
      </g>
     </g>
    </g>
    <g id="xtick_5">
     <g id="line2d_5">
      <g>
       <use xlink:href="#m028e012355" x="1067.774942" y="828.779375" style="stroke: #000000; stroke-width: 0.8"/>
      </g>
     </g>
     <g id="text_5">
      <!-- 4 -->
      <g transform="translate(1062.048692 849.456563) scale(0.18 -0.18)">
       <defs>
        <path id="DejaVuSans-34" d="M 2419 4116 
L 825 1625 
L 2419 1625 
L 2419 4116 
z
M 2253 4666 
L 3047 4666 
L 3047 1625 
L 3713 1625 
L 3713 1100 
L 3047 1100 
L 3047 0 
L 2419 0 
L 2419 1100 
L 313 1100 
L 313 1709 
L 2253 4666 
z
" transform="scale(0.015625)"/>
       </defs>
       <use xlink:href="#DejaVuSans-34"/>
      </g>
     </g>
    </g>
    <g id="xtick_6">
     <g id="line2d_6">
      <g>
       <use xlink:href="#m028e012355" x="1308.191071" y="828.779375" style="stroke: #000000; stroke-width: 0.8"/>
      </g>
     </g>
     <g id="text_6">
      <!-- 5 -->
      <g transform="translate(1302.464821 849.456563) scale(0.18 -0.18)">
       <defs>
        <path id="DejaVuSans-35" d="M 691 4666 
L 3169 4666 
L 3169 4134 
L 1269 4134 
L 1269 2991 
Q 1406 3038 1543 3061 
Q 1681 3084 1819 3084 
Q 2600 3084 3056 2656 
Q 3513 2228 3513 1497 
Q 3513 744 3044 326 
Q 2575 -91 1722 -91 
Q 1428 -91 1123 -41 
Q 819 9 494 109 
L 494 744 
Q 775 591 1075 516 
Q 1375 441 1709 441 
Q 2250 441 2565 725 
Q 2881 1009 2881 1497 
Q 2881 1984 2565 2268 
Q 2250 2553 1709 2553 
Q 1456 2553 1204 2497 
Q 953 2441 691 2322 
L 691 4666 
z
" transform="scale(0.015625)"/>
       </defs>
       <use xlink:href="#DejaVuSans-35"/>
      </g>
     </g>
    </g>
   </g>
   <g id="matplotlib.axis_2">
    <g id="ytick_1">
     <g id="line2d_7">
      <defs>
       <path id="m4f940a8cb0" d="M 0 0 
L -3.5 0 
" style="stroke: #000000; stroke-width: 0.8"/>
      </defs>
      <g>
       <use xlink:href="#m4f940a8cb0" x="72.685313" y="828.779375" style="stroke: #000000; stroke-width: 0.8"/>
      </g>
     </g>
     <g id="text_7">
      <!-- 0.0 -->
      <g transform="translate(37.059688 835.617969) scale(0.18 -0.18)">
       <defs>
        <path id="DejaVuSans-2e" d="M 684 794 
L 1344 794 
L 1344 0 
L 684 0 
L 684 794 
z
" transform="scale(0.015625)"/>
       </defs>
       <use xlink:href="#DejaVuSans-30"/>
       <use xlink:href="#DejaVuSans-2e" transform="translate(63.623047 0)"/>
       <use xlink:href="#DejaVuSans-30" transform="translate(95.410156 0)"/>
      </g>
     </g>
    </g>
    <g id="ytick_2">
     <g id="line2d_8">
      <g>
       <use xlink:href="#m4f940a8cb0" x="72.685313" y="703.610372" style="stroke: #000000; stroke-width: 0.8"/>
      </g>
     </g>
     <g id="text_8">
      <!-- 0.1 -->
      <g transform="translate(37.059688 710.448966) scale(0.18 -0.18)">
       <use xlink:href="#DejaVuSans-30"/>
       <use xlink:href="#DejaVuSans-2e" transform="translate(63.623047 0)"/>
       <use xlink:href="#DejaVuSans-31" transform="translate(95.410156 0)"/>
      </g>
     </g>
    </g>
    <g id="ytick_3">
     <g id="line2d_9">
      <g>
       <use xlink:href="#m4f940a8cb0" x="72.685313" y="578.441369" style="stroke: #000000; stroke-width: 0.8"/>
      </g>
     </g>
     <g id="text_9">
      <!-- 0.2 -->
      <g transform="translate(37.059688 585.279963) scale(0.18 -0.18)">
       <use xlink:href="#DejaVuSans-30"/>
       <use xlink:href="#DejaVuSans-2e" transform="translate(63.623047 0)"/>
       <use xlink:href="#DejaVuSans-32" transform="translate(95.410156 0)"/>
      </g>
     </g>
    </g>
    <g id="ytick_4">
     <g id="line2d_10">
      <g>
       <use xlink:href="#m4f940a8cb0" x="72.685313" y="453.272366" style="stroke: #000000; stroke-width: 0.8"/>
      </g>
     </g>
     <g id="text_10">
      <!-- 0.3 -->
      <g transform="translate(37.059688 460.11096) scale(0.18 -0.18)">
       <use xlink:href="#DejaVuSans-30"/>
       <use xlink:href="#DejaVuSans-2e" transform="translate(63.623047 0)"/>
       <use xlink:href="#DejaVuSans-33" transform="translate(95.410156 0)"/>
      </g>
     </g>
    </g>
    <g id="ytick_5">
     <g id="line2d_11">
      <g>
       <use xlink:href="#m4f940a8cb0" x="72.685313" y="328.103364" style="stroke: #000000; stroke-width: 0.8"/>
      </g>
     </g>
     <g id="text_11">
      <!-- 0.4 -->
      <g transform="translate(37.059688 334.941957) scale(0.18 -0.18)">
       <use xlink:href="#DejaVuSans-30"/>
       <use xlink:href="#DejaVuSans-2e" transform="translate(63.623047 0)"/>
       <use xlink:href="#DejaVuSans-34" transform="translate(95.410156 0)"/>
      </g>
     </g>
    </g>
    <g id="ytick_6">
     <g id="line2d_12">
      <g>
       <use xlink:href="#m4f940a8cb0" x="72.685313" y="202.934361" style="stroke: #000000; stroke-width: 0.8"/>
      </g>
     </g>
     <g id="text_12">
      <!-- 0.5 -->
      <g transform="translate(37.059688 209.772954) scale(0.18 -0.18)">
       <use xlink:href="#DejaVuSans-30"/>
       <use xlink:href="#DejaVuSans-2e" transform="translate(63.623047 0)"/>
       <use xlink:href="#DejaVuSans-35" transform="translate(95.410156 0)"/>
      </g>
     </g>
    </g>
    <g id="ytick_7">
     <g id="line2d_13">
      <g>
       <use xlink:href="#m4f940a8cb0" x="72.685313" y="77.765358" style="stroke: #000000; stroke-width: 0.8"/>
      </g>
     </g>
     <g id="text_13">
      <!-- 0.6 -->
      <g transform="translate(37.059688 84.603952) scale(0.18 -0.18)">
       <defs>
        <path id="DejaVuSans-36" d="M 2113 2584 
Q 1688 2584 1439 2293 
Q 1191 2003 1191 1497 
Q 1191 994 1439 701 
Q 1688 409 2113 409 
Q 2538 409 2786 701 
Q 3034 994 3034 1497 
Q 3034 2003 2786 2293 
Q 2538 2584 2113 2584 
z
M 3366 4563 
L 3366 3988 
Q 3128 4100 2886 4159 
Q 2644 4219 2406 4219 
Q 1781 4219 1451 3797 
Q 1122 3375 1075 2522 
Q 1259 2794 1537 2939 
Q 1816 3084 2150 3084 
Q 2853 3084 3261 2657 
Q 3669 2231 3669 1497 
Q 3669 778 3244 343 
Q 2819 -91 2113 -91 
Q 1303 -91 875 529 
Q 447 1150 447 2328 
Q 447 3434 972 4092 
Q 1497 4750 2381 4750 
Q 2619 4750 2861 4703 
Q 3103 4656 3366 4563 
z
" transform="scale(0.015625)"/>
       </defs>
       <use xlink:href="#DejaVuSans-30"/>
       <use xlink:href="#DejaVuSans-2e" transform="translate(63.623047 0)"/>
       <use xlink:href="#DejaVuSans-36" transform="translate(95.410156 0)"/>
      </g>
     </g>
    </g>
    <g id="text_14">
     <!-- Normed Hist Counts -->
     <g transform="translate(28.276406 548.966563) rotate(-90) scale(0.23 -0.23)">
      <defs>
       <path id="DejaVuSans-4e" d="M 628 4666 
L 1478 4666 
L 3547 763 
L 3547 4666 
L 4159 4666 
L 4159 0 
L 3309 0 
L 1241 3903 
L 1241 0 
L 628 0 
L 628 4666 
z
" transform="scale(0.015625)"/>
       <path id="DejaVuSans-6f" d="M 1959 3097 
Q 1497 3097 1228 2736 
Q 959 2375 959 1747 
Q 959 1119 1226 758 
Q 1494 397 1959 397 
Q 2419 397 2687 759 
Q 2956 1122 2956 1747 
Q 2956 2369 2687 2733 
Q 2419 3097 1959 3097 
z
M 1959 3584 
Q 2709 3584 3137 3096 
Q 3566 2609 3566 1747 
Q 3566 888 3137 398 
Q 2709 -91 1959 -91 
Q 1206 -91 779 398 
Q 353 888 353 1747 
Q 353 2609 779 3096 
Q 1206 3584 1959 3584 
z
" transform="scale(0.015625)"/>
       <path id="DejaVuSans-72" d="M 2631 2963 
Q 2534 3019 2420 3045 
Q 2306 3072 2169 3072 
Q 1681 3072 1420 2755 
Q 1159 2438 1159 1844 
L 1159 0 
L 581 0 
L 581 3500 
L 1159 3500 
L 1159 2956 
Q 1341 3275 1631 3429 
Q 1922 3584 2338 3584 
Q 2397 3584 2469 3576 
Q 2541 3569 2628 3553 
L 2631 2963 
z
" transform="scale(0.015625)"/>
       <path id="DejaVuSans-6d" d="M 3328 2828 
Q 3544 3216 3844 3400 
Q 4144 3584 4550 3584 
Q 5097 3584 5394 3201 
Q 5691 2819 5691 2113 
L 5691 0 
L 5113 0 
L 5113 2094 
Q 5113 2597 4934 2840 
Q 4756 3084 4391 3084 
Q 3944 3084 3684 2787 
Q 3425 2491 3425 1978 
L 3425 0 
L 2847 0 
L 2847 2094 
Q 2847 2600 2669 2842 
Q 2491 3084 2119 3084 
Q 1678 3084 1418 2786 
Q 1159 2488 1159 1978 
L 1159 0 
L 581 0 
L 581 3500 
L 1159 3500 
L 1159 2956 
Q 1356 3278 1631 3431 
Q 1906 3584 2284 3584 
Q 2666 3584 2933 3390 
Q 3200 3197 3328 2828 
z
" transform="scale(0.015625)"/>
       <path id="DejaVuSans-65" d="M 3597 1894 
L 3597 1613 
L 953 1613 
Q 991 1019 1311 708 
Q 1631 397 2203 397 
Q 2534 397 2845 478 
Q 3156 559 3463 722 
L 3463 178 
Q 3153 47 2828 -22 
Q 2503 -91 2169 -91 
Q 1331 -91 842 396 
Q 353 884 353 1716 
Q 353 2575 817 3079 
Q 1281 3584 2069 3584 
Q 2775 3584 3186 3129 
Q 3597 2675 3597 1894 
z
M 3022 2063 
Q 3016 2534 2758 2815 
Q 2500 3097 2075 3097 
Q 1594 3097 1305 2825 
Q 1016 2553 972 2059 
L 3022 2063 
z
" transform="scale(0.015625)"/>
       <path id="DejaVuSans-64" d="M 2906 2969 
L 2906 4863 
L 3481 4863 
L 3481 0 
L 2906 0 
L 2906 525 
Q 2725 213 2448 61 
Q 2172 -91 1784 -91 
Q 1150 -91 751 415 
Q 353 922 353 1747 
Q 353 2572 751 3078 
Q 1150 3584 1784 3584 
Q 2172 3584 2448 3432 
Q 2725 3281 2906 2969 
z
M 947 1747 
Q 947 1113 1208 752 
Q 1469 391 1925 391 
Q 2381 391 2643 752 
Q 2906 1113 2906 1747 
Q 2906 2381 2643 2742 
Q 2381 3103 1925 3103 
Q 1469 3103 1208 2742 
Q 947 2381 947 1747 
z
" transform="scale(0.015625)"/>
       <path id="DejaVuSans-20" transform="scale(0.015625)"/>
       <path id="DejaVuSans-48" d="M 628 4666 
L 1259 4666 
L 1259 2753 
L 3553 2753 
L 3553 4666 
L 4184 4666 
L 4184 0 
L 3553 0 
L 3553 2222 
L 1259 2222 
L 1259 0 
L 628 0 
L 628 4666 
z
" transform="scale(0.015625)"/>
       <path id="DejaVuSans-69" d="M 603 3500 
L 1178 3500 
L 1178 0 
L 603 0 
L 603 3500 
z
M 603 4863 
L 1178 4863 
L 1178 4134 
L 603 4134 
L 603 4863 
z
" transform="scale(0.015625)"/>
       <path id="DejaVuSans-73" d="M 2834 3397 
L 2834 2853 
Q 2591 2978 2328 3040 
Q 2066 3103 1784 3103 
Q 1356 3103 1142 2972 
Q 928 2841 928 2578 
Q 928 2378 1081 2264 
Q 1234 2150 1697 2047 
L 1894 2003 
Q 2506 1872 2764 1633 
Q 3022 1394 3022 966 
Q 3022 478 2636 193 
Q 2250 -91 1575 -91 
Q 1294 -91 989 -36 
Q 684 19 347 128 
L 347 722 
Q 666 556 975 473 
Q 1284 391 1588 391 
Q 1994 391 2212 530 
Q 2431 669 2431 922 
Q 2431 1156 2273 1281 
Q 2116 1406 1581 1522 
L 1381 1569 
Q 847 1681 609 1914 
Q 372 2147 372 2553 
Q 372 3047 722 3315 
Q 1072 3584 1716 3584 
Q 2034 3584 2315 3537 
Q 2597 3491 2834 3397 
z
" transform="scale(0.015625)"/>
       <path id="DejaVuSans-74" d="M 1172 4494 
L 1172 3500 
L 2356 3500 
L 2356 3053 
L 1172 3053 
L 1172 1153 
Q 1172 725 1289 603 
Q 1406 481 1766 481 
L 2356 481 
L 2356 0 
L 1766 0 
Q 1100 0 847 248 
Q 594 497 594 1153 
L 594 3053 
L 172 3053 
L 172 3500 
L 594 3500 
L 594 4494 
L 1172 4494 
z
" transform="scale(0.015625)"/>
       <path id="DejaVuSans-43" d="M 4122 4306 
L 4122 3641 
Q 3803 3938 3442 4084 
Q 3081 4231 2675 4231 
Q 1875 4231 1450 3742 
Q 1025 3253 1025 2328 
Q 1025 1406 1450 917 
Q 1875 428 2675 428 
Q 3081 428 3442 575 
Q 3803 722 4122 1019 
L 4122 359 
Q 3791 134 3420 21 
Q 3050 -91 2638 -91 
Q 1578 -91 968 557 
Q 359 1206 359 2328 
Q 359 3453 968 4101 
Q 1578 4750 2638 4750 
Q 3056 4750 3426 4639 
Q 3797 4528 4122 4306 
z
" transform="scale(0.015625)"/>
       <path id="DejaVuSans-75" d="M 544 1381 
L 544 3500 
L 1119 3500 
L 1119 1403 
Q 1119 906 1312 657 
Q 1506 409 1894 409 
Q 2359 409 2629 706 
Q 2900 1003 2900 1516 
L 2900 3500 
L 3475 3500 
L 3475 0 
L 2900 0 
L 2900 538 
Q 2691 219 2414 64 
Q 2138 -91 1772 -91 
Q 1169 -91 856 284 
Q 544 659 544 1381 
z
M 1991 3584 
L 1991 3584 
z
" transform="scale(0.015625)"/>
       <path id="DejaVuSans-6e" d="M 3513 2113 
L 3513 0 
L 2938 0 
L 2938 2094 
Q 2938 2591 2744 2837 
Q 2550 3084 2163 3084 
Q 1697 3084 1428 2787 
Q 1159 2491 1159 1978 
L 1159 0 
L 581 0 
L 581 3500 
L 1159 3500 
L 1159 2956 
Q 1366 3272 1645 3428 
Q 1925 3584 2291 3584 
Q 2894 3584 3203 3211 
Q 3513 2838 3513 2113 
z
" transform="scale(0.015625)"/>
      </defs>
      <use xlink:href="#DejaVuSans-4e"/>
      <use xlink:href="#DejaVuSans-6f" transform="translate(74.804688 0)"/>
      <use xlink:href="#DejaVuSans-72" transform="translate(135.986328 0)"/>
      <use xlink:href="#DejaVuSans-6d" transform="translate(175.349609 0)"/>
      <use xlink:href="#DejaVuSans-65" transform="translate(272.761719 0)"/>
      <use xlink:href="#DejaVuSans-64" transform="translate(334.285156 0)"/>
      <use xlink:href="#DejaVuSans-20" transform="translate(397.761719 0)"/>
      <use xlink:href="#DejaVuSans-48" transform="translate(429.548828 0)"/>
      <use xlink:href="#DejaVuSans-69" transform="translate(504.744141 0)"/>
      <use xlink:href="#DejaVuSans-73" transform="translate(532.527344 0)"/>
      <use xlink:href="#DejaVuSans-74" transform="translate(584.626953 0)"/>
      <use xlink:href="#DejaVuSans-20" transform="translate(623.835938 0)"/>
      <use xlink:href="#DejaVuSans-43" transform="translate(655.623047 0)"/>
      <use xlink:href="#DejaVuSans-6f" transform="translate(725.447266 0)"/>
      <use xlink:href="#DejaVuSans-75" transform="translate(786.628906 0)"/>
      <use xlink:href="#DejaVuSans-6e" transform="translate(850.007812 0)"/>
      <use xlink:href="#DejaVuSans-74" transform="translate(913.386719 0)"/>
      <use xlink:href="#DejaVuSans-73" transform="translate(952.595703 0)"/>
     </g>
    </g>
   </g>
   <g id="line2d_14">
    <path d="M 137.428059 827.021936 
L 143.594035 825.955699 
L 149.760011 824.527166 
L 155.925987 822.685825 
L 162.091962 820.383246 
L 168.257938 817.573483 
L 174.423914 814.213451 
L 180.58989 810.263261 
L 186.755866 805.686534 
L 192.921842 800.450682 
L 199.087817 794.527154 
L 205.253793 787.891656 
L 211.419769 780.524334 
L 217.585745 772.409929 
L 223.751721 763.537891 
L 229.917697 753.902472 
L 236.083673 743.502769 
L 242.249648 732.34275 
L 248.415624 720.431235 
L 254.5816 707.781851 
L 260.747576 694.412952 
L 266.913552 680.347509 
L 273.079528 665.612975 
L 279.245504 650.241112 
L 285.411479 634.267799 
L 291.577455 617.732816 
L 297.743431 600.679596 
L 303.909407 583.154967 
L 310.075383 565.208868 
L 322.407335 528.265757 
L 334.739286 490.300275 
L 371.735141 375.14341 
L 384.067093 338.009284 
L 390.233069 319.955195 
L 396.399045 302.321911 
L 402.565021 285.166339 
L 408.730996 268.543289 
L 414.896972 252.505217 
L 421.062948 237.101984 
L 427.228924 222.380642 
L 433.3949 208.385229 
L 439.560876 195.156601 
L 445.726852 182.73227 
L 451.892827 171.146278 
L 458.058803 160.429085 
L 464.224779 150.607482 
L 470.390755 141.704531 
L 476.556731 133.739519 
L 482.722707 126.727943 
L 488.888683 120.681512 
L 495.054658 115.608169 
L 501.220634 111.512137 
L 507.38661 108.393979 
L 513.552586 106.250683 
L 519.718562 105.07576 
L 525.884538 104.859356 
L 532.050513 105.588384 
L 538.216489 107.246667 
L 544.382465 109.81509 
L 550.548441 113.271771 
L 556.714417 117.592232 
L 562.880393 122.749584 
L 569.046369 128.71472 
L 575.212344 135.456503 
L 581.37832 142.941971 
L 587.544296 151.136538 
L 593.710272 160.004195 
L 599.876248 169.507712 
L 606.042224 179.608842 
L 612.2082 190.268519 
L 618.374175 201.447051 
L 624.540151 213.104315 
L 630.706127 225.199942 
L 636.872103 237.693492 
L 643.038079 250.544633 
L 649.204055 263.713299 
L 661.536006 290.845221 
L 673.867958 318.779829 
L 692.365886 361.543633 
L 717.029789 418.758231 
L 729.361741 446.910667 
L 741.693692 474.484114 
L 754.025644 501.303149 
L 766.357596 527.217819 
L 772.523572 539.79606 
L 778.689548 552.103354 
L 784.855523 564.127924 
L 791.021499 575.859452 
L 797.187475 587.289045 
L 803.353451 598.409183 
L 809.519427 609.213676 
L 815.685403 619.697603 
L 821.851379 629.857263 
L 828.017354 639.690114 
L 834.18333 649.194713 
L 840.349306 658.370657 
L 846.515282 667.21852 
L 852.681258 675.73979 
L 858.847234 683.936805 
L 865.01321 691.812693 
L 871.179185 699.37131 
L 877.345161 706.617176 
L 883.511137 713.555415 
L 889.677113 720.191701 
L 895.843089 726.532194 
L 902.009065 732.583488 
L 908.17504 738.352556 
L 914.341016 743.8467 
L 920.506992 749.073501 
L 926.672968 754.040769 
L 932.838944 758.756502 
L 939.00492 763.228841 
L 945.170896 767.466032 
L 951.336871 771.476386 
L 957.502847 775.268248 
L 963.668823 778.849959 
L 969.834799 782.229832 
L 976.000775 785.416119 
L 982.166751 788.41699 
L 988.332727 791.240509 
L 994.498702 793.89461 
L 1000.664678 796.387085 
L 1006.830654 798.725562 
L 1012.99663 800.917493 
L 1019.162606 802.970143 
L 1025.328582 804.890576 
L 1031.494558 806.68565 
L 1043.826509 809.926068 
L 1056.158461 812.741863 
L 1068.490413 815.179867 
L 1080.822364 817.28324 
L 1093.154316 819.091503 
L 1105.486268 820.640618 
L 1117.818219 821.963118 
L 1130.150171 823.088266 
L 1142.482123 824.042241 
L 1160.98005 825.202483 
L 1179.477978 826.096976 
L 1197.975906 826.781436 
L 1222.639809 827.444581 
L 1253.469688 827.986627 
L 1290.465543 828.365436 
L 1339.79335 828.612377 
L 1364.457254 828.675155 
L 1364.457254 828.675155 
" clip-path="url(#p9e6feaa23c)" style="fill: none; stroke: #ff7f0e; stroke-width: 1.5; stroke-linecap: square"/>
   </g>
   <g id="line2d_15">
    <path d="M 137.428059 822.87846 
L 143.594035 821.490632 
L 149.760011 819.84606 
L 155.925987 817.911676 
L 162.091962 815.652625 
L 168.257938 813.032527 
L 174.423914 810.013796 
L 180.58989 806.55801 
L 186.755866 802.626321 
L 192.921842 798.179905 
L 199.087817 793.18045 
L 205.253793 787.590665 
L 211.419769 781.37481 
L 217.585745 774.499236 
L 223.751721 766.932925 
L 229.917697 758.648026 
L 236.083673 749.620365 
L 242.249648 739.829939 
L 248.415624 729.261372 
L 254.5816 717.904324 
L 260.747576 705.753856 
L 266.913552 692.810737 
L 273.079528 679.081685 
L 279.245504 664.579552 
L 285.411479 649.323428 
L 291.577455 633.338681 
L 297.743431 616.656922 
L 303.909407 599.315899 
L 310.075383 581.359315 
L 316.241359 562.836589 
L 322.407335 543.802541 
L 328.57331 524.31702 
L 340.905262 484.253504 
L 353.237214 443.208072 
L 377.901117 360.644021 
L 390.233069 320.416413 
L 396.399045 300.848706 
L 402.565021 281.749478 
L 408.730996 263.19425 
L 414.896972 245.255686 
L 421.062948 228.0031 
L 427.228924 211.50202 
L 433.3949 195.813785 
L 439.560876 180.995191 
L 445.726852 167.098186 
L 451.892827 154.169613 
L 458.058803 142.251004 
L 464.224779 131.378422 
L 470.390755 121.582353 
L 476.556731 112.887649 
L 482.722707 105.313515 
L 488.888683 98.87354 
L 495.054658 93.575772 
L 501.220634 89.422832 
L 507.38661 86.412067 
L 513.552586 84.535731 
L 519.718562 83.781203 
L 525.884538 84.131227 
L 532.050513 85.564178 
L 538.216489 88.054342 
L 544.382465 91.572225 
L 550.548441 96.084859 
L 556.714417 101.556128 
L 562.880393 107.947098 
L 569.046369 115.216345 
L 575.212344 123.320295 
L 581.37832 132.213546 
L 587.544296 141.849196 
L 593.710272 152.179164 
L 599.876248 163.154492 
L 606.042224 174.725646 
L 612.2082 186.8428 
L 618.374175 199.456104 
L 624.540151 212.515943 
L 630.706127 225.97317 
L 636.872103 239.77933 
L 649.204055 268.249307 
L 661.536006 297.559397 
L 680.033934 342.353905 
L 698.531862 387.222489 
L 710.863813 416.726911 
L 723.195765 445.636743 
L 735.527717 473.758141 
L 747.859668 500.928744 
L 754.025644 514.11509 
L 760.19162 527.016505 
L 766.357596 539.620953 
L 772.523572 551.918065 
L 778.689548 563.899078 
L 784.855523 575.556755 
L 791.021499 586.885315 
L 797.187475 597.880352 
L 803.353451 608.538764 
L 809.519427 618.858666 
L 815.685403 628.839317 
L 821.851379 638.481043 
L 828.017354 647.785153 
L 834.18333 656.753868 
L 840.349306 665.390244 
L 846.515282 673.698101 
L 852.681258 681.681948 
L 858.847234 689.346919 
L 865.01321 696.698705 
L 871.179185 703.743489 
L 877.345161 710.487889 
L 883.511137 716.938896 
L 889.677113 723.103824 
L 895.843089 728.990255 
L 902.009065 734.60599 
L 908.17504 739.959007 
L 914.341016 745.057415 
L 920.506992 749.909415 
L 926.672968 754.523265 
L 932.838944 758.907245 
L 939.00492 763.069623 
L 945.170896 767.018633 
L 951.336871 770.762445 
L 957.502847 774.309142 
L 963.668823 777.666698 
L 969.834799 780.842964 
L 976.000775 783.845646 
L 982.166751 786.682295 
L 988.332727 789.360291 
L 994.498702 791.886834 
L 1000.664678 794.268937 
L 1006.830654 796.513414 
L 1012.99663 798.626878 
L 1019.162606 800.615734 
L 1031.494558 804.244195 
L 1043.826509 807.445806 
L 1056.158461 810.264167 
L 1068.490413 812.7395 
L 1080.822364 814.908731 
L 1093.154316 816.805601 
L 1105.486268 818.460809 
L 1117.818219 819.902173 
L 1130.150171 821.154804 
L 1142.482123 822.241281 
L 1160.98005 823.603131 
L 1179.477978 824.695535 
L 1197.975906 825.568267 
L 1222.639809 826.460793 
L 1247.303712 827.114651 
L 1278.133592 827.687482 
L 1315.129447 828.128145 
L 1364.457254 828.458012 
L 1364.457254 828.458012 
" clip-path="url(#p9e6feaa23c)" style="fill: none; stroke: #2ca02c; stroke-width: 1.5; stroke-linecap: square"/>
   </g>
   <g id="line2d_16">
    <path d="M 137.428059 125.698071 
L 149.760011 145.809676 
L 162.091962 165.34599 
L 174.423914 184.323468 
L 186.755866 202.758097 
L 199.087817 220.665404 
L 211.419769 238.060473 
L 223.751721 254.957958 
L 236.083673 271.37209 
L 248.415624 287.316697 
L 260.747576 302.80521 
L 273.079528 317.850674 
L 285.411479 332.465764 
L 297.743431 346.66279 
L 310.075383 360.45371 
L 322.407335 373.850142 
L 334.739286 386.86337 
L 347.071238 399.504355 
L 359.40319 411.783745 
L 371.735141 423.711884 
L 384.067093 435.298819 
L 396.399045 446.554311 
L 408.730996 457.487839 
L 421.062948 468.108615 
L 433.3949 478.425584 
L 445.726852 488.447436 
L 458.058803 498.182614 
L 470.390755 507.639318 
L 482.722707 516.825513 
L 495.054658 525.748938 
L 507.38661 534.417108 
L 519.718562 542.837326 
L 532.050513 551.016684 
L 544.382465 558.962071 
L 556.714417 566.680182 
L 569.046369 574.177516 
L 581.37832 581.460389 
L 593.710272 588.534936 
L 606.042224 595.407116 
L 618.374175 602.082718 
L 630.706127 608.567364 
L 643.038079 614.866518 
L 655.370031 620.985484 
L 667.701982 626.929418 
L 680.033934 632.703326 
L 698.531862 641.05599 
L 717.029789 649.052838 
L 735.527717 656.709027 
L 754.025644 664.03907 
L 772.523572 671.05686 
L 791.021499 677.775697 
L 809.519427 684.208319 
L 828.017354 690.366916 
L 846.515282 696.263163 
L 865.01321 701.908235 
L 883.511137 707.312832 
L 902.009065 712.487198 
L 920.506992 717.44114 
L 939.00492 722.184049 
L 957.502847 726.724915 
L 976.000775 731.072343 
L 994.498702 735.234575 
L 1012.99663 739.2195 
L 1037.660533 744.26993 
L 1062.324437 749.035557 
L 1086.98834 753.532443 
L 1111.652244 757.775742 
L 1136.316147 761.779755 
L 1160.98005 765.557974 
L 1185.643954 769.123134 
L 1210.307857 772.487248 
L 1234.971761 775.661654 
L 1265.80164 779.379125 
L 1296.631519 782.836427 
L 1327.461398 786.051767 
L 1358.291278 789.042081 
L 1364.457254 789.614546 
L 1364.457254 789.614546 
" clip-path="url(#p9e6feaa23c)" style="fill: none; stroke: #d62728; stroke-width: 1.5; stroke-linecap: square"/>
   </g>
   <g id="line2d_17">
    <path d="M 137.428059 778.234512 
L 149.760011 773.268552 
L 155.925987 770.605501 
L 162.091962 767.814693 
L 168.257938 764.890001 
L 174.423914 761.825001 
L 180.58989 758.612962 
L 186.755866 755.24683 
L 192.921842 751.719213 
L 199.087817 748.022363 
L 205.253793 744.148162 
L 211.419769 740.088102 
L 217.585745 735.833267 
L 223.751721 731.374312 
L 229.917697 726.701446 
L 236.083673 721.804405 
L 242.249648 716.672436 
L 248.415624 711.294268 
L 254.5816 705.65809 
L 260.747576 699.751525 
L 266.913552 693.561601 
L 273.079528 687.074724 
L 279.245504 680.276649 
L 285.411479 673.152446 
L 291.577455 665.686469 
L 297.743431 657.862323 
L 303.909407 649.662826 
L 310.075383 641.069969 
L 316.241359 632.064882 
L 322.407335 622.627789 
L 328.57331 612.737966 
L 334.739286 602.373692 
L 340.905262 591.512208 
L 347.071238 580.129659 
L 353.237214 568.201049 
L 359.40319 555.700182 
L 365.569165 542.599603 
L 371.735141 528.870543 
L 377.901117 514.482852 
L 384.067093 499.404932 
L 390.233069 483.60367 
L 396.399045 467.044366 
L 402.565021 449.690653 
L 408.730996 431.504421 
L 414.896972 412.445731 
L 421.062948 392.472728 
L 427.228924 371.541549 
L 433.3949 349.606226 
L 439.560876 326.618589 
L 445.726852 302.528153 
L 451.892827 277.282013 
L 458.058803 250.824727 
L 464.224779 223.09819 
L 470.390755 194.041513 
L 476.556731 163.590884 
L 482.722707 131.67943 
L 488.888683 98.23707 
L 495.054658 63.190362 
L 501.220634 26.462339 
L 505.620014 -1 
M 590.069094 -1 
L 593.710272 21.859791 
L 599.876248 58.798507 
L 606.042224 94.046263 
L 612.2082 127.680468 
L 618.374175 159.774984 
L 624.540151 190.400295 
L 630.706127 219.623658 
L 636.872103 247.50925 
L 643.038079 274.11831 
L 649.204055 299.509276 
L 655.370031 323.737909 
L 661.536006 346.857416 
L 667.701982 368.918572 
L 673.867958 389.969824 
L 680.033934 410.057404 
L 686.19991 429.225426 
L 692.365886 447.515984 
L 698.531862 464.969248 
L 704.697837 481.623546 
L 710.863813 497.515452 
L 717.029789 512.679868 
L 723.195765 527.150096 
L 729.361741 540.957913 
L 735.527717 554.133644 
L 741.693692 566.706224 
L 747.859668 578.703263 
L 754.025644 590.151108 
L 760.19162 601.0749 
L 766.357596 611.498629 
L 772.523572 621.445186 
L 778.689548 630.936416 
L 784.855523 639.993161 
L 791.021499 648.635311 
L 797.187475 656.881846 
L 803.353451 664.750875 
L 809.519427 672.259681 
L 815.685403 679.424752 
L 821.851379 686.261825 
L 828.017354 692.785915 
L 834.18333 699.011348 
L 840.349306 704.951796 
L 846.515282 710.620306 
L 852.681258 716.029326 
L 858.847234 721.190736 
L 865.01321 726.115868 
L 871.179185 730.815541 
L 877.345161 735.300075 
L 883.511137 739.579319 
L 889.677113 743.662669 
L 895.843089 747.559095 
L 902.009065 751.277151 
L 908.17504 754.825005 
L 914.341016 758.210447 
L 920.506992 761.440912 
L 926.672968 764.523495 
L 932.838944 767.464965 
L 939.00492 770.271782 
L 945.170896 772.95011 
L 957.502847 777.944558 
L 969.834799 782.492206 
L 982.166751 786.633024 
L 994.498702 790.403408 
L 1006.830654 793.836495 
L 1019.162606 796.962462 
L 1031.494558 799.808781 
L 1043.826509 802.40047 
L 1056.158461 804.760309 
L 1068.490413 806.909038 
L 1080.822364 808.865543 
L 1093.154316 810.647021 
L 1105.486268 812.269129 
L 1123.984195 814.434308 
L 1142.482123 816.315542 
L 1160.98005 817.950069 
L 1179.477978 819.37024 
L 1197.975906 820.604169 
L 1222.639809 822.00144 
L 1247.303712 823.159895 
L 1271.967616 824.120352 
L 1302.797495 825.093478 
L 1339.79335 825.996836 
L 1364.457254 826.472415 
L 1364.457254 826.472415 
" clip-path="url(#p9e6feaa23c)" style="fill: none; stroke: #9467bd; stroke-width: 1.5; stroke-linecap: square"/>
   </g>
   <g id="line2d_18">
    <path d="M 137.428059 821.395872 
L 143.594035 819.890593 
L 149.760011 818.136901 
L 155.925987 816.105121 
L 162.091962 813.763913 
L 168.257938 811.080457 
L 174.423914 808.020686 
L 180.58989 804.549559 
L 186.755866 800.631375 
L 192.921842 796.230139 
L 199.087817 791.309944 
L 205.253793 785.835409 
L 211.419769 779.772126 
L 217.585745 773.087139 
L 223.751721 765.749432 
L 229.917697 757.730429 
L 236.083673 749.00449 
L 242.249648 739.549401 
L 248.415624 729.346843 
L 254.5816 718.382838 
L 260.747576 706.648165 
L 266.913552 694.138732 
L 273.079528 680.855897 
L 279.245504 666.80674 
L 285.411479 652.004274 
L 291.577455 636.467592 
L 297.743431 620.221944 
L 303.909407 603.298743 
L 310.075383 585.735505 
L 316.241359 567.575715 
L 322.407335 548.868617 
L 328.57331 529.668946 
L 340.905262 490.036168 
L 353.237214 449.210682 
L 384.067093 345.9239 
L 396.399045 305.827793 
L 402.565021 286.370004 
L 408.730996 267.412372 
L 414.896972 249.032077 
L 421.062948 231.303372 
L 427.228924 214.297058 
L 433.3949 198.080001 
L 439.560876 182.714693 
L 445.726852 168.258866 
L 451.892827 154.765148 
L 458.058803 142.280783 
L 464.224779 130.8474 
L 470.390755 120.500836 
L 476.556731 111.271017 
L 482.722707 103.181891 
L 488.888683 96.251413 
L 495.054658 90.491579 
L 501.220634 85.908512 
L 507.38661 82.502587 
L 513.552586 80.268603 
L 519.718562 79.195987 
L 525.884538 79.269036 
L 532.050513 80.467187 
L 538.216489 82.765316 
L 544.382465 86.134054 
L 550.548441 90.540124 
L 556.714417 95.946691 
L 562.880393 102.313723 
L 569.046369 109.598354 
L 575.212344 117.755253 
L 581.37832 126.736993 
L 587.544296 136.494411 
L 593.710272 146.976967 
L 599.876248 158.133088 
L 606.042224 169.910504 
L 612.2082 182.256569 
L 618.374175 195.118565 
L 624.540151 208.443989 
L 630.706127 222.180824 
L 636.872103 236.277788 
L 649.204055 265.352008 
L 661.536006 295.279317 
L 680.033934 340.983513 
L 698.531862 386.69654 
L 710.863813 416.708026 
L 723.195765 446.070594 
L 735.527717 474.585224 
L 747.859668 502.086866 
L 754.025644 515.415182 
L 760.19162 528.442995 
L 766.357596 541.158501 
L 772.523572 553.551667 
L 778.689548 565.614143 
L 784.855523 577.339189 
L 791.021499 588.721581 
L 797.187475 599.757533 
L 803.353451 610.4446 
L 809.519427 620.781599 
L 815.685403 630.768516 
L 821.851379 640.406421 
L 828.017354 649.697382 
L 834.18333 658.644385 
L 840.349306 667.251248 
L 846.515282 675.522544 
L 852.681258 683.463526 
L 858.847234 691.080052 
L 865.01321 698.378515 
L 871.179185 705.365779 
L 877.345161 712.049109 
L 883.511137 718.436119 
L 889.677113 724.534709 
L 895.843089 730.353014 
L 902.009065 735.899356 
L 908.17504 741.182194 
L 914.341016 746.210084 
L 920.506992 750.991639 
L 926.672968 755.535492 
L 932.838944 759.850261 
L 939.00492 763.944524 
L 945.170896 767.826784 
L 951.336871 771.505452 
L 957.502847 774.98882 
L 963.668823 778.285043 
L 969.834799 781.402122 
L 976.000775 784.34789 
L 982.166751 787.129998 
L 988.332727 789.755903 
L 994.498702 792.232862 
L 1000.664678 794.567923 
L 1006.830654 796.767918 
L 1012.99663 798.839463 
L 1025.328582 802.622545 
L 1037.660533 805.965619 
L 1049.992485 808.913562 
L 1062.324437 811.507718 
L 1074.656388 813.786003 
L 1086.98834 815.783029 
L 1099.320292 817.530262 
L 1111.652244 819.056198 
L 1123.984195 820.386546 
L 1136.316147 821.544423 
L 1154.814075 823.002568 
L 1173.312002 824.179556 
L 1191.80993 825.126414 
L 1210.307857 825.885702 
L 1234.971761 826.666415 
L 1265.80164 827.361234 
L 1296.631519 827.833186 
L 1339.79335 828.247314 
L 1364.457254 828.398163 
L 1364.457254 828.398163 
" clip-path="url(#p9e6feaa23c)" style="fill: none; stroke: #8c564b; stroke-width: 1.5; stroke-linecap: square"/>
   </g>
   <g id="line2d_19">
    <path d="M 137.428059 801.609266 
L 143.594035 798.886262 
L 149.760011 795.936579 
L 155.925987 792.746549 
L 162.091962 789.302229 
L 168.257938 785.589455 
L 174.423914 781.593907 
L 180.58989 777.301174 
L 186.755866 772.696834 
L 192.921842 767.766537 
L 199.087817 762.496095 
L 205.253793 756.871578 
L 211.419769 750.879422 
L 217.585745 744.506535 
L 223.751721 737.740415 
L 229.917697 730.569271 
L 236.083673 722.98215 
L 242.249648 714.969065 
L 248.415624 706.521129 
L 254.5816 697.630691 
L 260.747576 688.29147 
L 266.913552 678.498693 
L 273.079528 668.249227 
L 279.245504 657.541719 
L 285.411479 646.376715 
L 291.577455 634.756791 
L 297.743431 622.686668 
L 303.909407 610.17332 
L 310.075383 597.226076 
L 316.241359 583.856707 
L 322.407335 570.079502 
L 328.57331 555.911335 
L 334.739286 541.371707 
L 340.905262 526.482781 
L 347.071238 511.269395 
L 359.40319 479.981923 
L 371.735141 447.760825 
L 384.067093 414.898052 
L 414.896972 332.17389 
L 427.228924 299.858938 
L 433.3949 284.071566 
L 439.560876 268.601337 
L 445.726852 253.501358 
L 451.892827 238.824625 
L 458.058803 224.623715 
L 464.224779 210.950476 
L 470.390755 197.855718 
L 476.556731 185.388897 
L 482.722707 173.59781 
L 488.888683 162.528285 
L 495.054658 152.22389 
L 501.220634 142.725646 
L 507.38661 134.071754 
L 513.552586 126.297344 
L 519.718562 119.434231 
L 525.884538 113.510703 
L 532.050513 108.551326 
L 538.216489 104.576773 
L 544.382465 101.60368 
L 550.548441 99.644533 
L 556.714417 98.707577 
L 562.880393 98.796762 
L 569.046369 99.911712 
L 575.212344 102.047727 
L 581.37832 105.195821 
L 587.544296 109.342781 
L 593.710272 114.471259 
L 599.876248 120.559894 
L 606.042224 127.583462 
L 612.2082 135.513048 
L 618.374175 144.316243 
L 624.540151 153.957368 
L 630.706127 164.397711 
L 636.872103 175.59579 
L 643.038079 187.507624 
L 649.204055 200.087019 
L 655.370031 213.285871 
L 661.536006 227.054464 
L 667.701982 241.341787 
L 673.867958 256.095841 
L 680.033934 271.263955 
L 686.19991 286.793093 
L 698.531862 318.722289 
L 710.863813 351.463179 
L 747.859668 450.589684 
L 760.19162 482.740696 
L 772.523572 513.934595 
L 778.689548 529.093511 
L 784.855523 543.92346 
L 791.021499 558.400068 
L 797.187475 572.501638 
L 803.353451 586.209125 
L 809.519427 599.506111 
L 815.685403 612.378748 
L 821.851379 624.815695 
L 828.017354 636.808039 
L 834.18333 648.349205 
L 840.349306 659.434853 
L 846.515282 670.062768 
L 852.681258 680.232742 
L 858.847234 689.946449 
L 865.01321 699.207315 
L 871.179185 708.020384 
L 877.345161 716.392186 
L 883.511137 724.330596 
L 889.677113 731.844702 
L 895.843089 738.944668 
L 902.009065 745.641603 
L 908.17504 751.947429 
L 914.341016 757.874759 
L 920.506992 763.436776 
L 926.672968 768.647115 
L 932.838944 773.519758 
L 939.00492 778.068928 
L 945.170896 782.308994 
L 951.336871 786.254382 
L 957.502847 789.919492 
L 963.668823 793.318622 
L 969.834799 796.465902 
L 976.000775 799.375231 
L 982.166751 802.060223 
L 988.332727 804.534161 
L 994.498702 806.809954 
L 1000.664678 808.900106 
L 1006.830654 810.816683 
L 1012.99663 812.571291 
L 1019.162606 814.175061 
L 1025.328582 815.638634 
L 1031.494558 816.972152 
L 1043.826509 819.287079 
L 1056.158461 821.19095 
L 1068.490413 822.746991 
L 1080.822364 824.01086 
L 1093.154316 825.031076 
L 1105.486268 825.849546 
L 1123.984195 826.775949 
L 1142.482123 827.426656 
L 1167.146026 827.993713 
L 1191.80993 828.333215 
L 1228.805785 828.596333 
L 1284.299567 828.735631 
L 1364.457254 828.77485 
L 1364.457254 828.77485 
" clip-path="url(#p9e6feaa23c)" style="fill: none; stroke: #e377c2; stroke-width: 1.5; stroke-linecap: square"/>
   </g>
   <g id="patch_103">
    <path d="M 72.685313 828.779375 
L 72.685313 38.075625 
" style="fill: none; stroke: #000000; stroke-width: 0.8; stroke-linejoin: miter; stroke-linecap: square"/>
   </g>
   <g id="patch_104">
    <path d="M 1429.2 828.779375 
L 1429.2 38.075625 
" style="fill: none; stroke: #000000; stroke-width: 0.8; stroke-linejoin: miter; stroke-linecap: square"/>
   </g>
   <g id="patch_105">
    <path d="M 72.685313 828.779375 
L 1429.2 828.779375 
" style="fill: none; stroke: #000000; stroke-width: 0.8; stroke-linejoin: miter; stroke-linecap: square"/>
   </g>
   <g id="patch_106">
    <path d="M 72.685313 38.075625 
L 1429.2 38.075625 
" style="fill: none; stroke: #000000; stroke-width: 0.8; stroke-linejoin: miter; stroke-linecap: square"/>
   </g>
   <g id="text_15">
    <!-- All Fitted Distributions -->
    <g transform="translate(596.317031 32.075625) scale(0.28 -0.28)">
     <defs>
      <path id="DejaVuSans-41" d="M 2188 4044 
L 1331 1722 
L 3047 1722 
L 2188 4044 
z
M 1831 4666 
L 2547 4666 
L 4325 0 
L 3669 0 
L 3244 1197 
L 1141 1197 
L 716 0 
L 50 0 
L 1831 4666 
z
" transform="scale(0.015625)"/>
      <path id="DejaVuSans-6c" d="M 603 4863 
L 1178 4863 
L 1178 0 
L 603 0 
L 603 4863 
z
" transform="scale(0.015625)"/>
      <path id="DejaVuSans-46" d="M 628 4666 
L 3309 4666 
L 3309 4134 
L 1259 4134 
L 1259 2759 
L 3109 2759 
L 3109 2228 
L 1259 2228 
L 1259 0 
L 628 0 
L 628 4666 
z
" transform="scale(0.015625)"/>
      <path id="DejaVuSans-44" d="M 1259 4147 
L 1259 519 
L 2022 519 
Q 2988 519 3436 956 
Q 3884 1394 3884 2338 
Q 3884 3275 3436 3711 
Q 2988 4147 2022 4147 
L 1259 4147 
z
M 628 4666 
L 1925 4666 
Q 3281 4666 3915 4102 
Q 4550 3538 4550 2338 
Q 4550 1131 3912 565 
Q 3275 0 1925 0 
L 628 0 
L 628 4666 
z
" transform="scale(0.015625)"/>
      <path id="DejaVuSans-62" d="M 3116 1747 
Q 3116 2381 2855 2742 
Q 2594 3103 2138 3103 
Q 1681 3103 1420 2742 
Q 1159 2381 1159 1747 
Q 1159 1113 1420 752 
Q 1681 391 2138 391 
Q 2594 391 2855 752 
Q 3116 1113 3116 1747 
z
M 1159 2969 
Q 1341 3281 1617 3432 
Q 1894 3584 2278 3584 
Q 2916 3584 3314 3078 
Q 3713 2572 3713 1747 
Q 3713 922 3314 415 
Q 2916 -91 2278 -91 
Q 1894 -91 1617 61 
Q 1341 213 1159 525 
L 1159 0 
L 581 0 
L 581 4863 
L 1159 4863 
L 1159 2969 
z
" transform="scale(0.015625)"/>
     </defs>
     <use xlink:href="#DejaVuSans-41"/>
     <use xlink:href="#DejaVuSans-6c" transform="translate(68.408203 0)"/>
     <use xlink:href="#DejaVuSans-6c" transform="translate(96.191406 0)"/>
     <use xlink:href="#DejaVuSans-20" transform="translate(123.974609 0)"/>
     <use xlink:href="#DejaVuSans-46" transform="translate(155.761719 0)"/>
     <use xlink:href="#DejaVuSans-69" transform="translate(206.03125 0)"/>
     <use xlink:href="#DejaVuSans-74" transform="translate(233.814453 0)"/>
     <use xlink:href="#DejaVuSans-74" transform="translate(273.023438 0)"/>
     <use xlink:href="#DejaVuSans-65" transform="translate(312.232422 0)"/>
     <use xlink:href="#DejaVuSans-64" transform="translate(373.755859 0)"/>
     <use xlink:href="#DejaVuSans-20" transform="translate(437.232422 0)"/>
     <use xlink:href="#DejaVuSans-44" transform="translate(469.019531 0)"/>
     <use xlink:href="#DejaVuSans-69" transform="translate(546.021484 0)"/>
     <use xlink:href="#DejaVuSans-73" transform="translate(573.804688 0)"/>
     <use xlink:href="#DejaVuSans-74" transform="translate(625.904297 0)"/>
     <use xlink:href="#DejaVuSans-72" transform="translate(665.113281 0)"/>
     <use xlink:href="#DejaVuSans-69" transform="translate(706.226562 0)"/>
     <use xlink:href="#DejaVuSans-62" transform="translate(734.009766 0)"/>
     <use xlink:href="#DejaVuSans-75" transform="translate(797.486328 0)"/>
     <use xlink:href="#DejaVuSans-74" transform="translate(860.865234 0)"/>
     <use xlink:href="#DejaVuSans-69" transform="translate(900.074219 0)"/>
     <use xlink:href="#DejaVuSans-6f" transform="translate(927.857422 0)"/>
     <use xlink:href="#DejaVuSans-6e" transform="translate(989.039062 0)"/>
     <use xlink:href="#DejaVuSans-73" transform="translate(1052.417969 0)"/>
    </g>
   </g>
   <g id="legend_1">
    <g id="patch_107">
     <path d="M 1014.37125 303.868125 
L 1412.4 303.868125 
Q 1417.2 303.868125 1417.2 299.068125 
L 1417.2 54.875625 
Q 1417.2 50.075625 1412.4 50.075625 
L 1014.37125 50.075625 
Q 1009.57125 50.075625 1009.57125 54.875625 
L 1009.57125 299.068125 
Q 1009.57125 303.868125 1014.37125 303.868125 
z
" style="fill: #ffffff; opacity: 0.8; stroke: #cccccc; stroke-linejoin: miter"/>
    </g>
    <g id="patch_108">
     <path d="M 1019.17125 77.911875 
L 1067.17125 77.911875 
L 1067.17125 61.111875 
L 1019.17125 61.111875 
z
" style="fill: #1f77b4; opacity: 0.6"/>
    </g>
    <g id="text_16">
     <!-- Generated Chi Distribution -->
     <g transform="translate(1086.37125 77.911875) scale(0.24 -0.24)">
      <defs>
       <path id="DejaVuSans-47" d="M 3809 666 
L 3809 1919 
L 2778 1919 
L 2778 2438 
L 4434 2438 
L 4434 434 
Q 4069 175 3628 42 
Q 3188 -91 2688 -91 
Q 1594 -91 976 548 
Q 359 1188 359 2328 
Q 359 3472 976 4111 
Q 1594 4750 2688 4750 
Q 3144 4750 3555 4637 
Q 3966 4525 4313 4306 
L 4313 3634 
Q 3963 3931 3569 4081 
Q 3175 4231 2741 4231 
Q 1884 4231 1454 3753 
Q 1025 3275 1025 2328 
Q 1025 1384 1454 906 
Q 1884 428 2741 428 
Q 3075 428 3337 486 
Q 3600 544 3809 666 
z
" transform="scale(0.015625)"/>
       <path id="DejaVuSans-61" d="M 2194 1759 
Q 1497 1759 1228 1600 
Q 959 1441 959 1056 
Q 959 750 1161 570 
Q 1363 391 1709 391 
Q 2188 391 2477 730 
Q 2766 1069 2766 1631 
L 2766 1759 
L 2194 1759 
z
M 3341 1997 
L 3341 0 
L 2766 0 
L 2766 531 
Q 2569 213 2275 61 
Q 1981 -91 1556 -91 
Q 1019 -91 701 211 
Q 384 513 384 1019 
Q 384 1609 779 1909 
Q 1175 2209 1959 2209 
L 2766 2209 
L 2766 2266 
Q 2766 2663 2505 2880 
Q 2244 3097 1772 3097 
Q 1472 3097 1187 3025 
Q 903 2953 641 2809 
L 641 3341 
Q 956 3463 1253 3523 
Q 1550 3584 1831 3584 
Q 2591 3584 2966 3190 
Q 3341 2797 3341 1997 
z
" transform="scale(0.015625)"/>
       <path id="DejaVuSans-68" d="M 3513 2113 
L 3513 0 
L 2938 0 
L 2938 2094 
Q 2938 2591 2744 2837 
Q 2550 3084 2163 3084 
Q 1697 3084 1428 2787 
Q 1159 2491 1159 1978 
L 1159 0 
L 581 0 
L 581 4863 
L 1159 4863 
L 1159 2956 
Q 1366 3272 1645 3428 
Q 1925 3584 2291 3584 
Q 2894 3584 3203 3211 
Q 3513 2838 3513 2113 
z
" transform="scale(0.015625)"/>
      </defs>
      <use xlink:href="#DejaVuSans-47"/>
      <use xlink:href="#DejaVuSans-65" transform="translate(77.490234 0)"/>
      <use xlink:href="#DejaVuSans-6e" transform="translate(139.013672 0)"/>
      <use xlink:href="#DejaVuSans-65" transform="translate(202.392578 0)"/>
      <use xlink:href="#DejaVuSans-72" transform="translate(263.916016 0)"/>
      <use xlink:href="#DejaVuSans-61" transform="translate(305.029297 0)"/>
      <use xlink:href="#DejaVuSans-74" transform="translate(366.308594 0)"/>
      <use xlink:href="#DejaVuSans-65" transform="translate(405.517578 0)"/>
      <use xlink:href="#DejaVuSans-64" transform="translate(467.041016 0)"/>
      <use xlink:href="#DejaVuSans-20" transform="translate(530.517578 0)"/>
      <use xlink:href="#DejaVuSans-43" transform="translate(562.304688 0)"/>
      <use xlink:href="#DejaVuSans-68" transform="translate(632.128906 0)"/>
      <use xlink:href="#DejaVuSans-69" transform="translate(695.507812 0)"/>
      <use xlink:href="#DejaVuSans-20" transform="translate(723.291016 0)"/>
      <use xlink:href="#DejaVuSans-44" transform="translate(755.078125 0)"/>
      <use xlink:href="#DejaVuSans-69" transform="translate(832.080078 0)"/>
      <use xlink:href="#DejaVuSans-73" transform="translate(859.863281 0)"/>
      <use xlink:href="#DejaVuSans-74" transform="translate(911.962891 0)"/>
      <use xlink:href="#DejaVuSans-72" transform="translate(951.171875 0)"/>
      <use xlink:href="#DejaVuSans-69" transform="translate(992.285156 0)"/>
      <use xlink:href="#DejaVuSans-62" transform="translate(1020.068359 0)"/>
      <use xlink:href="#DejaVuSans-75" transform="translate(1083.544922 0)"/>
      <use xlink:href="#DejaVuSans-74" transform="translate(1146.923828 0)"/>
      <use xlink:href="#DejaVuSans-69" transform="translate(1186.132812 0)"/>
      <use xlink:href="#DejaVuSans-6f" transform="translate(1213.916016 0)"/>
      <use xlink:href="#DejaVuSans-6e" transform="translate(1275.097656 0)"/>
     </g>
    </g>
    <g id="line2d_20">
     <path d="M 1019.17125 104.739375 
L 1043.17125 104.739375 
L 1067.17125 104.739375 
" style="fill: none; stroke: #ff7f0e; stroke-width: 1.5; stroke-linecap: square"/>
    </g>
    <g id="text_17">
     <!-- Chi fit -->
     <g transform="translate(1086.37125 113.139375) scale(0.24 -0.24)">
      <defs>
       <path id="DejaVuSans-66" d="M 2375 4863 
L 2375 4384 
L 1825 4384 
Q 1516 4384 1395 4259 
Q 1275 4134 1275 3809 
L 1275 3500 
L 2222 3500 
L 2222 3053 
L 1275 3053 
L 1275 0 
L 697 0 
L 697 3053 
L 147 3053 
L 147 3500 
L 697 3500 
L 697 3744 
Q 697 4328 969 4595 
Q 1241 4863 1831 4863 
L 2375 4863 
z
" transform="scale(0.015625)"/>
      </defs>
      <use xlink:href="#DejaVuSans-43"/>
      <use xlink:href="#DejaVuSans-68" transform="translate(69.824219 0)"/>
      <use xlink:href="#DejaVuSans-69" transform="translate(133.203125 0)"/>
      <use xlink:href="#DejaVuSans-20" transform="translate(160.986328 0)"/>
      <use xlink:href="#DejaVuSans-66" transform="translate(192.773438 0)"/>
      <use xlink:href="#DejaVuSans-69" transform="translate(227.978516 0)"/>
      <use xlink:href="#DejaVuSans-74" transform="translate(255.761719 0)"/>
     </g>
    </g>
    <g id="line2d_21">
     <path d="M 1019.17125 139.966875 
L 1043.17125 139.966875 
L 1067.17125 139.966875 
" style="fill: none; stroke: #2ca02c; stroke-width: 1.5; stroke-linecap: square"/>
    </g>
    <g id="text_18">
     <!-- Chi-Square fit -->
     <g transform="translate(1086.37125 148.366875) scale(0.24 -0.24)">
      <defs>
       <path id="DejaVuSans-2d" d="M 313 2009 
L 1997 2009 
L 1997 1497 
L 313 1497 
L 313 2009 
z
" transform="scale(0.015625)"/>
       <path id="DejaVuSans-53" d="M 3425 4513 
L 3425 3897 
Q 3066 4069 2747 4153 
Q 2428 4238 2131 4238 
Q 1616 4238 1336 4038 
Q 1056 3838 1056 3469 
Q 1056 3159 1242 3001 
Q 1428 2844 1947 2747 
L 2328 2669 
Q 3034 2534 3370 2195 
Q 3706 1856 3706 1288 
Q 3706 609 3251 259 
Q 2797 -91 1919 -91 
Q 1588 -91 1214 -16 
Q 841 59 441 206 
L 441 856 
Q 825 641 1194 531 
Q 1563 422 1919 422 
Q 2459 422 2753 634 
Q 3047 847 3047 1241 
Q 3047 1584 2836 1778 
Q 2625 1972 2144 2069 
L 1759 2144 
Q 1053 2284 737 2584 
Q 422 2884 422 3419 
Q 422 4038 858 4394 
Q 1294 4750 2059 4750 
Q 2388 4750 2728 4690 
Q 3069 4631 3425 4513 
z
" transform="scale(0.015625)"/>
       <path id="DejaVuSans-71" d="M 947 1747 
Q 947 1113 1208 752 
Q 1469 391 1925 391 
Q 2381 391 2643 752 
Q 2906 1113 2906 1747 
Q 2906 2381 2643 2742 
Q 2381 3103 1925 3103 
Q 1469 3103 1208 2742 
Q 947 2381 947 1747 
z
M 2906 525 
Q 2725 213 2448 61 
Q 2172 -91 1784 -91 
Q 1150 -91 751 415 
Q 353 922 353 1747 
Q 353 2572 751 3078 
Q 1150 3584 1784 3584 
Q 2172 3584 2448 3432 
Q 2725 3281 2906 2969 
L 2906 3500 
L 3481 3500 
L 3481 -1331 
L 2906 -1331 
L 2906 525 
z
" transform="scale(0.015625)"/>
      </defs>
      <use xlink:href="#DejaVuSans-43"/>
      <use xlink:href="#DejaVuSans-68" transform="translate(69.824219 0)"/>
      <use xlink:href="#DejaVuSans-69" transform="translate(133.203125 0)"/>
      <use xlink:href="#DejaVuSans-2d" transform="translate(160.986328 0)"/>
      <use xlink:href="#DejaVuSans-53" transform="translate(197.070312 0)"/>
      <use xlink:href="#DejaVuSans-71" transform="translate(260.546875 0)"/>
      <use xlink:href="#DejaVuSans-75" transform="translate(324.023438 0)"/>
      <use xlink:href="#DejaVuSans-61" transform="translate(387.402344 0)"/>
      <use xlink:href="#DejaVuSans-72" transform="translate(448.681641 0)"/>
      <use xlink:href="#DejaVuSans-65" transform="translate(487.544922 0)"/>
      <use xlink:href="#DejaVuSans-20" transform="translate(549.068359 0)"/>
      <use xlink:href="#DejaVuSans-66" transform="translate(580.855469 0)"/>
      <use xlink:href="#DejaVuSans-69" transform="translate(616.060547 0)"/>
      <use xlink:href="#DejaVuSans-74" transform="translate(643.84375 0)"/>
     </g>
    </g>
    <g id="line2d_22">
     <path d="M 1019.17125 175.194375 
L 1043.17125 175.194375 
L 1067.17125 175.194375 
" style="fill: none; stroke: #d62728; stroke-width: 1.5; stroke-linecap: square"/>
    </g>
    <g id="text_19">
     <!-- Exponential fit -->
     <g transform="translate(1086.37125 183.594375) scale(0.24 -0.24)">
      <defs>
       <path id="DejaVuSans-45" d="M 628 4666 
L 3578 4666 
L 3578 4134 
L 1259 4134 
L 1259 2753 
L 3481 2753 
L 3481 2222 
L 1259 2222 
L 1259 531 
L 3634 531 
L 3634 0 
L 628 0 
L 628 4666 
z
" transform="scale(0.015625)"/>
       <path id="DejaVuSans-78" d="M 3513 3500 
L 2247 1797 
L 3578 0 
L 2900 0 
L 1881 1375 
L 863 0 
L 184 0 
L 1544 1831 
L 300 3500 
L 978 3500 
L 1906 2253 
L 2834 3500 
L 3513 3500 
z
" transform="scale(0.015625)"/>
       <path id="DejaVuSans-70" d="M 1159 525 
L 1159 -1331 
L 581 -1331 
L 581 3500 
L 1159 3500 
L 1159 2969 
Q 1341 3281 1617 3432 
Q 1894 3584 2278 3584 
Q 2916 3584 3314 3078 
Q 3713 2572 3713 1747 
Q 3713 922 3314 415 
Q 2916 -91 2278 -91 
Q 1894 -91 1617 61 
Q 1341 213 1159 525 
z
M 3116 1747 
Q 3116 2381 2855 2742 
Q 2594 3103 2138 3103 
Q 1681 3103 1420 2742 
Q 1159 2381 1159 1747 
Q 1159 1113 1420 752 
Q 1681 391 2138 391 
Q 2594 391 2855 752 
Q 3116 1113 3116 1747 
z
" transform="scale(0.015625)"/>
      </defs>
      <use xlink:href="#DejaVuSans-45"/>
      <use xlink:href="#DejaVuSans-78" transform="translate(63.183594 0)"/>
      <use xlink:href="#DejaVuSans-70" transform="translate(122.363281 0)"/>
      <use xlink:href="#DejaVuSans-6f" transform="translate(185.839844 0)"/>
      <use xlink:href="#DejaVuSans-6e" transform="translate(247.021484 0)"/>
      <use xlink:href="#DejaVuSans-65" transform="translate(310.400391 0)"/>
      <use xlink:href="#DejaVuSans-6e" transform="translate(371.923828 0)"/>
      <use xlink:href="#DejaVuSans-74" transform="translate(435.302734 0)"/>
      <use xlink:href="#DejaVuSans-69" transform="translate(474.511719 0)"/>
      <use xlink:href="#DejaVuSans-61" transform="translate(502.294922 0)"/>
      <use xlink:href="#DejaVuSans-6c" transform="translate(563.574219 0)"/>
      <use xlink:href="#DejaVuSans-20" transform="translate(591.357422 0)"/>
      <use xlink:href="#DejaVuSans-66" transform="translate(623.144531 0)"/>
      <use xlink:href="#DejaVuSans-69" transform="translate(658.349609 0)"/>
      <use xlink:href="#DejaVuSans-74" transform="translate(686.132812 0)"/>
     </g>
    </g>
    <g id="line2d_23">
     <path d="M 1019.17125 210.421875 
L 1043.17125 210.421875 
L 1067.17125 210.421875 
" style="fill: none; stroke: #9467bd; stroke-width: 1.5; stroke-linecap: square"/>
    </g>
    <g id="text_20">
     <!-- Laplace fit -->
     <g transform="translate(1086.37125 218.821875) scale(0.24 -0.24)">
      <defs>
       <path id="DejaVuSans-4c" d="M 628 4666 
L 1259 4666 
L 1259 531 
L 3531 531 
L 3531 0 
L 628 0 
L 628 4666 
z
" transform="scale(0.015625)"/>
       <path id="DejaVuSans-63" d="M 3122 3366 
L 3122 2828 
Q 2878 2963 2633 3030 
Q 2388 3097 2138 3097 
Q 1578 3097 1268 2742 
Q 959 2388 959 1747 
Q 959 1106 1268 751 
Q 1578 397 2138 397 
Q 2388 397 2633 464 
Q 2878 531 3122 666 
L 3122 134 
Q 2881 22 2623 -34 
Q 2366 -91 2075 -91 
Q 1284 -91 818 406 
Q 353 903 353 1747 
Q 353 2603 823 3093 
Q 1294 3584 2113 3584 
Q 2378 3584 2631 3529 
Q 2884 3475 3122 3366 
z
" transform="scale(0.015625)"/>
      </defs>
      <use xlink:href="#DejaVuSans-4c"/>
      <use xlink:href="#DejaVuSans-61" transform="translate(55.712891 0)"/>
      <use xlink:href="#DejaVuSans-70" transform="translate(116.992188 0)"/>
      <use xlink:href="#DejaVuSans-6c" transform="translate(180.46875 0)"/>
      <use xlink:href="#DejaVuSans-61" transform="translate(208.251953 0)"/>
      <use xlink:href="#DejaVuSans-63" transform="translate(269.53125 0)"/>
      <use xlink:href="#DejaVuSans-65" transform="translate(324.511719 0)"/>
      <use xlink:href="#DejaVuSans-20" transform="translate(386.035156 0)"/>
      <use xlink:href="#DejaVuSans-66" transform="translate(417.822266 0)"/>
      <use xlink:href="#DejaVuSans-69" transform="translate(453.027344 0)"/>
      <use xlink:href="#DejaVuSans-74" transform="translate(480.810547 0)"/>
     </g>
    </g>
    <g id="line2d_24">
     <path d="M 1019.17125 245.649375 
L 1043.17125 245.649375 
L 1067.17125 245.649375 
" style="fill: none; stroke: #8c564b; stroke-width: 1.5; stroke-linecap: square"/>
    </g>
    <g id="text_21">
     <!-- LogNorm fit -->
     <g transform="translate(1086.37125 254.049375) scale(0.24 -0.24)">
      <defs>
       <path id="DejaVuSans-67" d="M 2906 1791 
Q 2906 2416 2648 2759 
Q 2391 3103 1925 3103 
Q 1463 3103 1205 2759 
Q 947 2416 947 1791 
Q 947 1169 1205 825 
Q 1463 481 1925 481 
Q 2391 481 2648 825 
Q 2906 1169 2906 1791 
z
M 3481 434 
Q 3481 -459 3084 -895 
Q 2688 -1331 1869 -1331 
Q 1566 -1331 1297 -1286 
Q 1028 -1241 775 -1147 
L 775 -588 
Q 1028 -725 1275 -790 
Q 1522 -856 1778 -856 
Q 2344 -856 2625 -561 
Q 2906 -266 2906 331 
L 2906 616 
Q 2728 306 2450 153 
Q 2172 0 1784 0 
Q 1141 0 747 490 
Q 353 981 353 1791 
Q 353 2603 747 3093 
Q 1141 3584 1784 3584 
Q 2172 3584 2450 3431 
Q 2728 3278 2906 2969 
L 2906 3500 
L 3481 3500 
L 3481 434 
z
" transform="scale(0.015625)"/>
      </defs>
      <use xlink:href="#DejaVuSans-4c"/>
      <use xlink:href="#DejaVuSans-6f" transform="translate(53.962891 0)"/>
      <use xlink:href="#DejaVuSans-67" transform="translate(115.144531 0)"/>
      <use xlink:href="#DejaVuSans-4e" transform="translate(178.621094 0)"/>
      <use xlink:href="#DejaVuSans-6f" transform="translate(253.425781 0)"/>
      <use xlink:href="#DejaVuSans-72" transform="translate(314.607422 0)"/>
      <use xlink:href="#DejaVuSans-6d" transform="translate(353.970703 0)"/>
      <use xlink:href="#DejaVuSans-20" transform="translate(451.382812 0)"/>
      <use xlink:href="#DejaVuSans-66" transform="translate(483.169922 0)"/>
      <use xlink:href="#DejaVuSans-69" transform="translate(518.375 0)"/>
      <use xlink:href="#DejaVuSans-74" transform="translate(546.158203 0)"/>
     </g>
    </g>
    <g id="line2d_25">
     <path d="M 1019.17125 280.876875 
L 1043.17125 280.876875 
L 1067.17125 280.876875 
" style="fill: none; stroke: #e377c2; stroke-width: 1.5; stroke-linecap: square"/>
    </g>
    <g id="text_22">
     <!-- Normal fit -->
     <g transform="translate(1086.37125 289.276875) scale(0.24 -0.24)">
      <use xlink:href="#DejaVuSans-4e"/>
      <use xlink:href="#DejaVuSans-6f" transform="translate(74.804688 0)"/>
      <use xlink:href="#DejaVuSans-72" transform="translate(135.986328 0)"/>
      <use xlink:href="#DejaVuSans-6d" transform="translate(175.349609 0)"/>
      <use xlink:href="#DejaVuSans-61" transform="translate(272.761719 0)"/>
      <use xlink:href="#DejaVuSans-6c" transform="translate(334.041016 0)"/>
      <use xlink:href="#DejaVuSans-20" transform="translate(361.824219 0)"/>
      <use xlink:href="#DejaVuSans-66" transform="translate(393.611328 0)"/>
      <use xlink:href="#DejaVuSans-69" transform="translate(428.816406 0)"/>
      <use xlink:href="#DejaVuSans-74" transform="translate(456.599609 0)"/>
     </g>
    </g>
   </g>
  </g>
 </g>
 <defs>
  <clipPath id="p9e6feaa23c">
   <rect x="72.685313" y="38.075625" width="1356.514688" height="790.70375"/>
  </clipPath>
 </defs>
</svg>
