<?xml version="1.0" encoding="utf-8" standalone="no"?>
<!DOCTYPE svg PUBLIC "-//W3C//DTD SVG 1.1//EN"
  "http://www.w3.org/Graphics/SVG/1.1/DTD/svg11.dtd">
<svg xmlns:xlink="http://www.w3.org/1999/xlink" width="1440pt" height="864pt" viewBox="0 0 1440 864" xmlns="http://www.w3.org/2000/svg" version="1.1">
 <metadata>
  <rdf:RDF xmlns:dc="http://purl.org/dc/elements/1.1/" xmlns:cc="http://creativecommons.org/ns#" xmlns:rdf="http://www.w3.org/1999/02/22-rdf-syntax-ns#">
   <cc:Work>
    <dc:type rdf:resource="http://purl.org/dc/dcmitype/StillImage"/>
    <dc:date>2025-06-26T13:57:23.262676</dc:date>
    <dc:format>image/svg+xml</dc:format>
    <dc:creator>
     <cc:Agent>
      <dc:title>Matplotlib v3.10.0, https://matplotlib.org/</dc:title>
     </cc:Agent>
    </dc:creator>
   </cc:Work>
  </rdf:RDF>
 </metadata>
 <defs>
  <style type="text/css">*{stroke-linejoin: round; stroke-linecap: butt}</style>
 </defs>
 <g id="figure_1">
  <g id="patch_1">
   <path d="M 0 864 
L 1440 864 
L 1440 0 
L 0 0 
z
" style="fill: #ffffff"/>
  </g>
  <g id="axes_1">
   <g id="patch_2">
    <path d="M 72.685313 828.779375 
L 1429.2 828.779375 
L 1429.2 38.075625 
L 72.685313 38.075625 
z
" style="fill: #ffffff"/>
   </g>
   <g id="patch_3">
    <path d="M 134.345071 828.779375 
L 146.677023 828.779375 
L 146.677023 827.371803 
L 134.345071 827.371803 
z
" clip-path="url(#p607cb1f547)" style="fill: #1f77b4; opacity: 0.6"/>
   </g>
   <g id="patch_4">
    <path d="M 146.677023 828.779375 
L 159.008974 828.779375 
L 159.008974 827.840993 
L 146.677023 827.840993 
z
" clip-path="url(#p607cb1f547)" style="fill: #1f77b4; opacity: 0.6"/>
   </g>
   <g id="patch_5">
    <path d="M 159.008974 828.779375 
L 171.340926 828.779375 
L 171.340926 825.96423 
L 159.008974 825.96423 
z
" clip-path="url(#p607cb1f547)" style="fill: #1f77b4; opacity: 0.6"/>
   </g>
   <g id="patch_6">
    <path d="M 171.340926 828.779375 
L 183.672878 828.779375 
L 183.672878 818.926369 
L 171.340926 818.926369 
z
" clip-path="url(#p607cb1f547)" style="fill: #1f77b4; opacity: 0.6"/>
   </g>
   <g id="patch_7">
    <path d="M 183.672878 828.779375 
L 196.00483 828.779375 
L 196.00483 819.39556 
L 183.672878 819.39556 
z
" clip-path="url(#p607cb1f547)" style="fill: #1f77b4; opacity: 0.6"/>
   </g>
   <g id="patch_8">
    <path d="M 196.00483 828.779375 
L 208.336781 828.779375 
L 208.336781 802.035501 
L 196.00483 802.035501 
z
" clip-path="url(#p607cb1f547)" style="fill: #1f77b4; opacity: 0.6"/>
   </g>
   <g id="patch_9">
    <path d="M 208.336781 828.779375 
L 220.668733 828.779375 
L 220.668733 785.613824 
L 208.336781 785.613824 
z
" clip-path="url(#p607cb1f547)" style="fill: #1f77b4; opacity: 0.6"/>
   </g>
   <g id="patch_10">
    <path d="M 220.668733 828.779375 
L 233.000685 828.779375 
L 233.000685 777.637581 
L 220.668733 777.637581 
z
" clip-path="url(#p607cb1f547)" style="fill: #1f77b4; opacity: 0.6"/>
   </g>
   <g id="patch_11">
    <path d="M 233.000685 828.779375 
L 245.332636 828.779375 
L 245.332636 746.67099 
L 233.000685 746.67099 
z
" clip-path="url(#p607cb1f547)" style="fill: #1f77b4; opacity: 0.6"/>
   </g>
   <g id="patch_12">
    <path d="M 245.332636 828.779375 
L 257.664588 828.779375 
L 257.664588 741.0407 
L 245.332636 741.0407 
z
" clip-path="url(#p607cb1f547)" style="fill: #1f77b4; opacity: 0.6"/>
   </g>
   <g id="patch_13">
    <path d="M 257.664588 828.779375 
L 269.99654 828.779375 
L 269.99654 710.074109 
L 257.664588 710.074109 
z
" clip-path="url(#p607cb1f547)" style="fill: #1f77b4; opacity: 0.6"/>
   </g>
   <g id="patch_14">
    <path d="M 269.99654 828.779375 
L 282.328491 828.779375 
L 282.328491 676.292374 
L 269.99654 676.292374 
z
" clip-path="url(#p607cb1f547)" style="fill: #1f77b4; opacity: 0.6"/>
   </g>
   <g id="patch_15">
    <path d="M 282.328491 828.779375 
L 294.660443 828.779375 
L 294.660443 647.202546 
L 282.328491 647.202546 
z
" clip-path="url(#p607cb1f547)" style="fill: #1f77b4; opacity: 0.6"/>
   </g>
   <g id="patch_16">
    <path d="M 294.660443 828.779375 
L 306.992395 828.779375 
L 306.992395 615.297573 
L 294.660443 615.297573 
z
" clip-path="url(#p607cb1f547)" style="fill: #1f77b4; opacity: 0.6"/>
   </g>
   <g id="patch_17">
    <path d="M 306.992395 828.779375 
L 319.324347 828.779375 
L 319.324347 587.146127 
L 306.992395 587.146127 
z
" clip-path="url(#p607cb1f547)" style="fill: #1f77b4; opacity: 0.6"/>
   </g>
   <g id="patch_18">
    <path d="M 319.324347 828.779375 
L 331.656298 828.779375 
L 331.656298 549.610865 
L 319.324347 549.610865 
z
" clip-path="url(#p607cb1f547)" style="fill: #1f77b4; opacity: 0.6"/>
   </g>
   <g id="patch_19">
    <path d="M 331.656298 828.779375 
L 343.98825 828.779375 
L 343.98825 508.791268 
L 331.656298 508.791268 
z
" clip-path="url(#p607cb1f547)" style="fill: #1f77b4; opacity: 0.6"/>
   </g>
   <g id="patch_20">
    <path d="M 343.98825 828.779375 
L 356.320202 828.779375 
L 356.320202 470.786815 
L 343.98825 470.786815 
z
" clip-path="url(#p607cb1f547)" style="fill: #1f77b4; opacity: 0.6"/>
   </g>
   <g id="patch_21">
    <path d="M 356.320202 828.779375 
L 368.652153 828.779375 
L 368.652153 424.80612 
L 356.320202 424.80612 
z
" clip-path="url(#p607cb1f547)" style="fill: #1f77b4; opacity: 0.6"/>
   </g>
   <g id="patch_22">
    <path d="M 368.652153 828.779375 
L 380.984105 828.779375 
L 380.984105 385.394095 
L 368.652153 385.394095 
z
" clip-path="url(#p607cb1f547)" style="fill: #1f77b4; opacity: 0.6"/>
   </g>
   <g id="patch_23">
    <path d="M 380.984105 828.779375 
L 393.316057 828.779375 
L 393.316057 350.673977 
L 380.984105 350.673977 
z
" clip-path="url(#p607cb1f547)" style="fill: #1f77b4; opacity: 0.6"/>
   </g>
   <g id="patch_24">
    <path d="M 393.316057 828.779375 
L 405.648009 828.779375 
L 405.648009 346.920451 
L 393.316057 346.920451 
z
" clip-path="url(#p607cb1f547)" style="fill: #1f77b4; opacity: 0.6"/>
   </g>
   <g id="patch_25">
    <path d="M 405.648009 828.779375 
L 417.97996 828.779375 
L 417.97996 288.740795 
L 405.648009 288.740795 
z
" clip-path="url(#p607cb1f547)" style="fill: #1f77b4; opacity: 0.6"/>
   </g>
   <g id="patch_26">
    <path d="M 417.97996 828.779375 
L 430.311912 828.779375 
L 430.311912 261.05854 
L 417.97996 261.05854 
z
" clip-path="url(#p607cb1f547)" style="fill: #1f77b4; opacity: 0.6"/>
   </g>
   <g id="patch_27">
    <path d="M 430.311912 828.779375 
L 442.643864 828.779375 
L 442.643864 226.807613 
L 430.311912 226.807613 
z
" clip-path="url(#p607cb1f547)" style="fill: #1f77b4; opacity: 0.6"/>
   </g>
   <g id="patch_28">
    <path d="M 442.643864 828.779375 
L 454.975815 828.779375 
L 454.975815 193.964259 
L 442.643864 193.964259 
z
" clip-path="url(#p607cb1f547)" style="fill: #1f77b4; opacity: 0.6"/>
   </g>
   <g id="patch_29">
    <path d="M 454.975815 828.779375 
L 467.307767 828.779375 
L 467.307767 151.267899 
L 454.975815 151.267899 
z
" clip-path="url(#p607cb1f547)" style="fill: #1f77b4; opacity: 0.6"/>
   </g>
   <g id="patch_30">
    <path d="M 467.307767 828.779375 
L 479.639719 828.779375 
L 479.639719 169.566339 
L 467.307767 169.566339 
z
" clip-path="url(#p607cb1f547)" style="fill: #1f77b4; opacity: 0.6"/>
   </g>
   <g id="patch_31">
    <path d="M 479.639719 828.779375 
L 491.97167 828.779375 
L 491.97167 141.884084 
L 479.639719 141.884084 
z
" clip-path="url(#p607cb1f547)" style="fill: #1f77b4; opacity: 0.6"/>
   </g>
   <g id="patch_32">
    <path d="M 491.97167 828.779375 
L 504.303622 828.779375 
L 504.303622 124.993216 
L 491.97167 124.993216 
z
" clip-path="url(#p607cb1f547)" style="fill: #1f77b4; opacity: 0.6"/>
   </g>
   <g id="patch_33">
    <path d="M 504.303622 828.779375 
L 516.635574 828.779375 
L 516.635574 102.472059 
L 504.303622 102.472059 
z
" clip-path="url(#p607cb1f547)" style="fill: #1f77b4; opacity: 0.6"/>
   </g>
   <g id="patch_34">
    <path d="M 516.635574 828.779375 
L 528.967526 828.779375 
L 528.967526 126.400788 
L 516.635574 126.400788 
z
" clip-path="url(#p607cb1f547)" style="fill: #1f77b4; opacity: 0.6"/>
   </g>
   <g id="patch_35">
    <path d="M 528.967526 828.779375 
L 541.299477 828.779375 
L 541.299477 119.362926 
L 528.967526 119.362926 
z
" clip-path="url(#p607cb1f547)" style="fill: #1f77b4; opacity: 0.6"/>
   </g>
   <g id="patch_36">
    <path d="M 541.299477 828.779375 
L 553.631429 828.779375 
L 553.631429 75.728185 
L 541.299477 75.728185 
z
" clip-path="url(#p607cb1f547)" style="fill: #1f77b4; opacity: 0.6"/>
   </g>
   <g id="patch_37">
    <path d="M 553.631429 828.779375 
L 565.963381 828.779375 
L 565.963381 155.959807 
L 553.631429 155.959807 
z
" clip-path="url(#p607cb1f547)" style="fill: #1f77b4; opacity: 0.6"/>
   </g>
   <g id="patch_38">
    <path d="M 565.963381 828.779375 
L 578.295332 828.779375 
L 578.295332 141.884084 
L 565.963381 141.884084 
z
" clip-path="url(#p607cb1f547)" style="fill: #1f77b4; opacity: 0.6"/>
   </g>
   <g id="patch_39">
    <path d="M 578.295332 828.779375 
L 590.627284 828.779375 
L 590.627284 132.969459 
L 578.295332 132.969459 
z
" clip-path="url(#p607cb1f547)" style="fill: #1f77b4; opacity: 0.6"/>
   </g>
   <g id="patch_40">
    <path d="M 590.627284 828.779375 
L 602.959236 828.779375 
L 602.959236 182.703681 
L 590.627284 182.703681 
z
" clip-path="url(#p607cb1f547)" style="fill: #1f77b4; opacity: 0.6"/>
   </g>
   <g id="patch_41">
    <path d="M 602.959236 828.779375 
L 615.291188 828.779375 
L 615.291188 217.423798 
L 602.959236 217.423798 
z
" clip-path="url(#p607cb1f547)" style="fill: #1f77b4; opacity: 0.6"/>
   </g>
   <g id="patch_42">
    <path d="M 615.291188 828.779375 
L 627.623139 828.779375 
L 627.623139 184.580444 
L 615.291188 184.580444 
z
" clip-path="url(#p607cb1f547)" style="fill: #1f77b4; opacity: 0.6"/>
   </g>
   <g id="patch_43">
    <path d="M 627.623139 828.779375 
L 639.955091 828.779375 
L 639.955091 235.722238 
L 627.623139 235.722238 
z
" clip-path="url(#p607cb1f547)" style="fill: #1f77b4; opacity: 0.6"/>
   </g>
   <g id="patch_44">
    <path d="M 639.955091 828.779375 
L 652.287043 828.779375 
L 652.287043 253.082297 
L 639.955091 253.082297 
z
" clip-path="url(#p607cb1f547)" style="fill: #1f77b4; opacity: 0.6"/>
   </g>
   <g id="patch_45">
    <path d="M 652.287043 828.779375 
L 664.618994 828.779375 
L 664.618994 266.688829 
L 652.287043 266.688829 
z
" clip-path="url(#p607cb1f547)" style="fill: #1f77b4; opacity: 0.6"/>
   </g>
   <g id="patch_46">
    <path d="M 664.618994 828.779375 
L 676.950946 828.779375 
L 676.950946 316.423051 
L 664.618994 316.423051 
z
" clip-path="url(#p607cb1f547)" style="fill: #1f77b4; opacity: 0.6"/>
   </g>
   <g id="patch_47">
    <path d="M 676.950946 828.779375 
L 689.282898 828.779375 
L 689.282898 357.711839 
L 676.950946 357.711839 
z
" clip-path="url(#p607cb1f547)" style="fill: #1f77b4; opacity: 0.6"/>
   </g>
   <g id="patch_48">
    <path d="M 689.282898 828.779375 
L 701.614849 828.779375 
L 701.614849 396.654673 
L 689.282898 396.654673 
z
" clip-path="url(#p607cb1f547)" style="fill: #1f77b4; opacity: 0.6"/>
   </g>
   <g id="patch_49">
    <path d="M 701.614849 828.779375 
L 713.946801 828.779375 
L 713.946801 406.507679 
L 701.614849 406.507679 
z
" clip-path="url(#p607cb1f547)" style="fill: #1f77b4; opacity: 0.6"/>
   </g>
   <g id="patch_50">
    <path d="M 713.946801 828.779375 
L 726.278753 828.779375 
L 726.278753 433.251553 
L 713.946801 433.251553 
z
" clip-path="url(#p607cb1f547)" style="fill: #1f77b4; opacity: 0.6"/>
   </g>
   <g id="patch_51">
    <path d="M 726.278753 828.779375 
L 738.610705 828.779375 
L 738.610705 480.170631 
L 726.278753 480.170631 
z
" clip-path="url(#p607cb1f547)" style="fill: #1f77b4; opacity: 0.6"/>
   </g>
   <g id="patch_52">
    <path d="M 738.610705 828.779375 
L 750.942656 828.779375 
L 750.942656 516.29832 
L 738.610705 516.29832 
z
" clip-path="url(#p607cb1f547)" style="fill: #1f77b4; opacity: 0.6"/>
   </g>
   <g id="patch_53">
    <path d="M 750.942656 828.779375 
L 763.274608 828.779375 
L 763.274608 506.914505 
L 750.942656 506.914505 
z
" clip-path="url(#p607cb1f547)" style="fill: #1f77b4; opacity: 0.6"/>
   </g>
   <g id="patch_54">
    <path d="M 763.274608 828.779375 
L 775.60656 828.779375 
L 775.60656 541.165431 
L 763.274608 541.165431 
z
" clip-path="url(#p607cb1f547)" style="fill: #1f77b4; opacity: 0.6"/>
   </g>
   <g id="patch_55">
    <path d="M 775.60656 828.779375 
L 787.938511 828.779375 
L 787.938511 574.477976 
L 775.60656 574.477976 
z
" clip-path="url(#p607cb1f547)" style="fill: #1f77b4; opacity: 0.6"/>
   </g>
   <g id="patch_56">
    <path d="M 787.938511 828.779375 
L 800.270463 828.779375 
L 800.270463 579.639075 
L 787.938511 579.639075 
z
" clip-path="url(#p607cb1f547)" style="fill: #1f77b4; opacity: 0.6"/>
   </g>
   <g id="patch_57">
    <path d="M 800.270463 828.779375 
L 812.602415 828.779375 
L 812.602415 618.112718 
L 800.270463 618.112718 
z
" clip-path="url(#p607cb1f547)" style="fill: #1f77b4; opacity: 0.6"/>
   </g>
   <g id="patch_58">
    <path d="M 812.602415 828.779375 
L 824.934366 828.779375 
L 824.934366 633.596013 
L 812.602415 633.596013 
z
" clip-path="url(#p607cb1f547)" style="fill: #1f77b4; opacity: 0.6"/>
   </g>
   <g id="patch_59">
    <path d="M 824.934366 828.779375 
L 837.266318 828.779375 
L 837.266318 652.363644 
L 824.934366 652.363644 
z
" clip-path="url(#p607cb1f547)" style="fill: #1f77b4; opacity: 0.6"/>
   </g>
   <g id="patch_60">
    <path d="M 837.266318 828.779375 
L 849.59827 828.779375 
L 849.59827 661.74746 
L 837.266318 661.74746 
z
" clip-path="url(#p607cb1f547)" style="fill: #1f77b4; opacity: 0.6"/>
   </g>
   <g id="patch_61">
    <path d="M 849.59827 828.779375 
L 861.930222 828.779375 
L 861.930222 693.652432 
L 849.59827 693.652432 
z
" clip-path="url(#p607cb1f547)" style="fill: #1f77b4; opacity: 0.6"/>
   </g>
   <g id="patch_62">
    <path d="M 861.930222 828.779375 
L 874.262173 828.779375 
L 874.262173 713.827636 
L 861.930222 713.827636 
z
" clip-path="url(#p607cb1f547)" style="fill: #1f77b4; opacity: 0.6"/>
   </g>
   <g id="patch_63">
    <path d="M 874.262173 828.779375 
L 886.594125 828.779375 
L 886.594125 726.026596 
L 874.262173 726.026596 
z
" clip-path="url(#p607cb1f547)" style="fill: #1f77b4; opacity: 0.6"/>
   </g>
   <g id="patch_64">
    <path d="M 886.594125 828.779375 
L 898.926077 828.779375 
L 898.926077 730.718503 
L 886.594125 730.718503 
z
" clip-path="url(#p607cb1f547)" style="fill: #1f77b4; opacity: 0.6"/>
   </g>
   <g id="patch_65">
    <path d="M 898.926077 828.779375 
L 911.258028 828.779375 
L 911.258028 741.0407 
L 898.926077 741.0407 
z
" clip-path="url(#p607cb1f547)" style="fill: #1f77b4; opacity: 0.6"/>
   </g>
   <g id="patch_66">
    <path d="M 911.258028 828.779375 
L 923.58998 828.779375 
L 923.58998 753.708851 
L 911.258028 753.708851 
z
" clip-path="url(#p607cb1f547)" style="fill: #1f77b4; opacity: 0.6"/>
   </g>
   <g id="patch_67">
    <path d="M 923.58998 828.779375 
L 935.921932 828.779375 
L 935.921932 765.907811 
L 923.58998 765.907811 
z
" clip-path="url(#p607cb1f547)" style="fill: #1f77b4; opacity: 0.6"/>
   </g>
   <g id="patch_68">
    <path d="M 935.921932 828.779375 
L 948.253884 828.779375 
L 948.253884 772.476482 
L 935.921932 772.476482 
z
" clip-path="url(#p607cb1f547)" style="fill: #1f77b4; opacity: 0.6"/>
   </g>
   <g id="patch_69">
    <path d="M 948.253884 828.779375 
L 960.585835 828.779375 
L 960.585835 785.144633 
L 948.253884 785.144633 
z
" clip-path="url(#p607cb1f547)" style="fill: #1f77b4; opacity: 0.6"/>
   </g>
   <g id="patch_70">
    <path d="M 960.585835 828.779375 
L 972.917787 828.779375 
L 972.917787 787.021396 
L 960.585835 787.021396 
z
" clip-path="url(#p607cb1f547)" style="fill: #1f77b4; opacity: 0.6"/>
   </g>
   <g id="patch_71">
    <path d="M 972.917787 828.779375 
L 985.249739 828.779375 
L 985.249739 790.305732 
L 972.917787 790.305732 
z
" clip-path="url(#p607cb1f547)" style="fill: #1f77b4; opacity: 0.6"/>
   </g>
   <g id="patch_72">
    <path d="M 985.249739 828.779375 
L 997.58169 828.779375 
L 997.58169 795.936021 
L 985.249739 795.936021 
z
" clip-path="url(#p607cb1f547)" style="fill: #1f77b4; opacity: 0.6"/>
   </g>
   <g id="patch_73">
    <path d="M 997.58169 828.779375 
L 1009.913642 828.779375 
L 1009.913642 796.405212 
L 997.58169 796.405212 
z
" clip-path="url(#p607cb1f547)" style="fill: #1f77b4; opacity: 0.6"/>
   </g>
   <g id="patch_74">
    <path d="M 1009.913642 828.779375 
L 1022.245594 828.779375 
L 1022.245594 807.66579 
L 1009.913642 807.66579 
z
" clip-path="url(#p607cb1f547)" style="fill: #1f77b4; opacity: 0.6"/>
   </g>
   <g id="patch_75">
    <path d="M 1022.245594 828.779375 
L 1034.577545 828.779375 
L 1034.577545 810.011744 
L 1022.245594 810.011744 
z
" clip-path="url(#p607cb1f547)" style="fill: #1f77b4; opacity: 0.6"/>
   </g>
   <g id="patch_76">
    <path d="M 1034.577545 828.779375 
L 1046.909497 828.779375 
L 1046.909497 813.296079 
L 1034.577545 813.296079 
z
" clip-path="url(#p607cb1f547)" style="fill: #1f77b4; opacity: 0.6"/>
   </g>
   <g id="patch_77">
    <path d="M 1046.909497 828.779375 
L 1059.241449 828.779375 
L 1059.241449 811.419316 
L 1046.909497 811.419316 
z
" clip-path="url(#p607cb1f547)" style="fill: #1f77b4; opacity: 0.6"/>
   </g>
   <g id="patch_78">
    <path d="M 1059.241449 828.779375 
L 1071.573401 828.779375 
L 1071.573401 815.642033 
L 1059.241449 815.642033 
z
" clip-path="url(#p607cb1f547)" style="fill: #1f77b4; opacity: 0.6"/>
   </g>
   <g id="patch_79">
    <path d="M 1071.573401 828.779375 
L 1083.905352 828.779375 
L 1083.905352 821.272323 
L 1071.573401 821.272323 
z
" clip-path="url(#p607cb1f547)" style="fill: #1f77b4; opacity: 0.6"/>
   </g>
   <g id="patch_80">
    <path d="M 1083.905352 828.779375 
L 1096.237304 828.779375 
L 1096.237304 822.679895 
L 1083.905352 822.679895 
z
" clip-path="url(#p607cb1f547)" style="fill: #1f77b4; opacity: 0.6"/>
   </g>
   <g id="patch_81">
    <path d="M 1096.237304 828.779375 
L 1108.569256 828.779375 
L 1108.569256 822.679895 
L 1096.237304 822.679895 
z
" clip-path="url(#p607cb1f547)" style="fill: #1f77b4; opacity: 0.6"/>
   </g>
   <g id="patch_82">
    <path d="M 1108.569256 828.779375 
L 1120.901207 828.779375 
L 1120.901207 822.210704 
L 1108.569256 822.210704 
z
" clip-path="url(#p607cb1f547)" style="fill: #1f77b4; opacity: 0.6"/>
   </g>
   <g id="patch_83">
    <path d="M 1120.901207 828.779375 
L 1133.233159 828.779375 
L 1133.233159 823.149086 
L 1120.901207 823.149086 
z
" clip-path="url(#p607cb1f547)" style="fill: #1f77b4; opacity: 0.6"/>
   </g>
   <g id="patch_84">
    <path d="M 1133.233159 828.779375 
L 1145.565111 828.779375 
L 1145.565111 823.149086 
L 1133.233159 823.149086 
z
" clip-path="url(#p607cb1f547)" style="fill: #1f77b4; opacity: 0.6"/>
   </g>
   <g id="patch_85">
    <path d="M 1145.565111 828.779375 
L 1157.897062 828.779375 
L 1157.897062 825.49504 
L 1145.565111 825.49504 
z
" clip-path="url(#p607cb1f547)" style="fill: #1f77b4; opacity: 0.6"/>
   </g>
   <g id="patch_86">
    <path d="M 1157.897062 828.779375 
L 1170.229014 828.779375 
L 1170.229014 825.49504 
L 1157.897062 825.49504 
z
" clip-path="url(#p607cb1f547)" style="fill: #1f77b4; opacity: 0.6"/>
   </g>
   <g id="patch_87">
    <path d="M 1170.229014 828.779375 
L 1182.560966 828.779375 
L 1182.560966 827.840993 
L 1170.229014 827.840993 
z
" clip-path="url(#p607cb1f547)" style="fill: #1f77b4; opacity: 0.6"/>
   </g>
   <g id="patch_88">
    <path d="M 1182.560966 828.779375 
L 1194.892918 828.779375 
L 1194.892918 826.902612 
L 1182.560966 826.902612 
z
" clip-path="url(#p607cb1f547)" style="fill: #1f77b4; opacity: 0.6"/>
   </g>
   <g id="patch_89">
    <path d="M 1194.892918 828.779375 
L 1207.224869 828.779375 
L 1207.224869 825.96423 
L 1194.892918 825.96423 
z
" clip-path="url(#p607cb1f547)" style="fill: #1f77b4; opacity: 0.6"/>
   </g>
   <g id="patch_90">
    <path d="M 1207.224869 828.779375 
L 1219.556821 828.779375 
L 1219.556821 826.902612 
L 1207.224869 826.902612 
z
" clip-path="url(#p607cb1f547)" style="fill: #1f77b4; opacity: 0.6"/>
   </g>
   <g id="patch_91">
    <path d="M 1219.556821 828.779375 
L 1231.888773 828.779375 
L 1231.888773 828.310184 
L 1219.556821 828.310184 
z
" clip-path="url(#p607cb1f547)" style="fill: #1f77b4; opacity: 0.6"/>
   </g>
   <g id="patch_92">
    <path d="M 1231.888773 828.779375 
L 1244.220724 828.779375 
L 1244.220724 827.840993 
L 1231.888773 827.840993 
z
" clip-path="url(#p607cb1f547)" style="fill: #1f77b4; opacity: 0.6"/>
   </g>
   <g id="patch_93">
    <path d="M 1244.220724 828.779375 
L 1256.552676 828.779375 
L 1256.552676 828.779375 
L 1244.220724 828.779375 
z
" clip-path="url(#p607cb1f547)" style="fill: #1f77b4; opacity: 0.6"/>
   </g>
   <g id="patch_94">
    <path d="M 1256.552676 828.779375 
L 1268.884628 828.779375 
L 1268.884628 828.779375 
L 1256.552676 828.779375 
z
" clip-path="url(#p607cb1f547)" style="fill: #1f77b4; opacity: 0.6"/>
   </g>
   <g id="patch_95">
    <path d="M 1268.884628 828.779375 
L 1281.21658 828.779375 
L 1281.21658 828.310184 
L 1268.884628 828.310184 
z
" clip-path="url(#p607cb1f547)" style="fill: #1f77b4; opacity: 0.6"/>
   </g>
   <g id="patch_96">
    <path d="M 1281.21658 828.779375 
L 1293.548531 828.779375 
L 1293.548531 828.310184 
L 1281.21658 828.310184 
z
" clip-path="url(#p607cb1f547)" style="fill: #1f77b4; opacity: 0.6"/>
   </g>
   <g id="patch_97">
    <path d="M 1293.548531 828.779375 
L 1305.880483 828.779375 
L 1305.880483 827.371803 
L 1293.548531 827.371803 
z
" clip-path="url(#p607cb1f547)" style="fill: #1f77b4; opacity: 0.6"/>
   </g>
   <g id="patch_98">
    <path d="M 1305.880483 828.779375 
L 1318.212435 828.779375 
L 1318.212435 828.310184 
L 1305.880483 828.310184 
z
" clip-path="url(#p607cb1f547)" style="fill: #1f77b4; opacity: 0.6"/>
   </g>
   <g id="patch_99">
    <path d="M 1318.212435 828.779375 
L 1330.544386 828.779375 
L 1330.544386 828.779375 
L 1318.212435 828.779375 
z
" clip-path="url(#p607cb1f547)" style="fill: #1f77b4; opacity: 0.6"/>
   </g>
   <g id="patch_100">
    <path d="M 1330.544386 828.779375 
L 1342.876338 828.779375 
L 1342.876338 828.779375 
L 1330.544386 828.779375 
z
" clip-path="url(#p607cb1f547)" style="fill: #1f77b4; opacity: 0.6"/>
   </g>
   <g id="patch_101">
    <path d="M 1342.876338 828.779375 
L 1355.20829 828.779375 
L 1355.20829 828.779375 
L 1342.876338 828.779375 
z
" clip-path="url(#p607cb1f547)" style="fill: #1f77b4; opacity: 0.6"/>
   </g>
   <g id="patch_102">
    <path d="M 1355.20829 828.779375 
L 1367.540241 828.779375 
L 1367.540241 828.310184 
L 1355.20829 828.310184 
z
" clip-path="url(#p607cb1f547)" style="fill: #1f77b4; opacity: 0.6"/>
   </g>
   <g id="matplotlib.axis_1">
    <g id="xtick_1">
     <g id="line2d_1">
      <defs>
       <path id="m4007de605e" d="M 0 0 
L 0 3.5 
" style="stroke: #000000; stroke-width: 0.8"/>
      </defs>
      <g>
       <use xlink:href="#m4007de605e" x="120.928482" y="828.779375" style="stroke: #000000; stroke-width: 0.8"/>
      </g>
     </g>
     <g id="text_1">
      <!-- 0 -->
      <g transform="translate(115.202232 849.456562) scale(0.18 -0.18)">
       <defs>
        <path id="DejaVuSans-30" d="M 2034 4250 
Q 1547 4250 1301 3770 
Q 1056 3291 1056 2328 
Q 1056 1369 1301 889 
Q 1547 409 2034 409 
Q 2525 409 2770 889 
Q 3016 1369 3016 2328 
Q 3016 3291 2770 3770 
Q 2525 4250 2034 4250 
z
M 2034 4750 
Q 2819 4750 3233 4129 
Q 3647 3509 3647 2328 
Q 3647 1150 3233 529 
Q 2819 -91 2034 -91 
Q 1250 -91 836 529 
Q 422 1150 422 2328 
Q 422 3509 836 4129 
Q 1250 4750 2034 4750 
z
" transform="scale(0.015625)"/>
       </defs>
       <use xlink:href="#DejaVuSans-30"/>
      </g>
     </g>
    </g>
    <g id="xtick_2">
     <g id="line2d_2">
      <g>
       <use xlink:href="#m4007de605e" x="355.179881" y="828.779375" style="stroke: #000000; stroke-width: 0.8"/>
      </g>
     </g>
     <g id="text_2">
      <!-- 1 -->
      <g transform="translate(349.453631 849.456562) scale(0.18 -0.18)">
       <defs>
        <path id="DejaVuSans-31" d="M 794 531 
L 1825 531 
L 1825 4091 
L 703 3866 
L 703 4441 
L 1819 4666 
L 2450 4666 
L 2450 531 
L 3481 531 
L 3481 0 
L 794 0 
L 794 531 
z
" transform="scale(0.015625)"/>
       </defs>
       <use xlink:href="#DejaVuSans-31"/>
      </g>
     </g>
    </g>
    <g id="xtick_3">
     <g id="line2d_3">
      <g>
       <use xlink:href="#m4007de605e" x="589.431281" y="828.779375" style="stroke: #000000; stroke-width: 0.8"/>
      </g>
     </g>
     <g id="text_3">
      <!-- 2 -->
      <g transform="translate(583.705031 849.456562) scale(0.18 -0.18)">
       <defs>
        <path id="DejaVuSans-32" d="M 1228 531 
L 3431 531 
L 3431 0 
L 469 0 
L 469 531 
Q 828 903 1448 1529 
Q 2069 2156 2228 2338 
Q 2531 2678 2651 2914 
Q 2772 3150 2772 3378 
Q 2772 3750 2511 3984 
Q 2250 4219 1831 4219 
Q 1534 4219 1204 4116 
Q 875 4013 500 3803 
L 500 4441 
Q 881 4594 1212 4672 
Q 1544 4750 1819 4750 
Q 2544 4750 2975 4387 
Q 3406 4025 3406 3419 
Q 3406 3131 3298 2873 
Q 3191 2616 2906 2266 
Q 2828 2175 2409 1742 
Q 1991 1309 1228 531 
z
" transform="scale(0.015625)"/>
       </defs>
       <use xlink:href="#DejaVuSans-32"/>
      </g>
     </g>
    </g>
    <g id="xtick_4">
     <g id="line2d_4">
      <g>
       <use xlink:href="#m4007de605e" x="823.68268" y="828.779375" style="stroke: #000000; stroke-width: 0.8"/>
      </g>
     </g>
     <g id="text_4">
      <!-- 3 -->
      <g transform="translate(817.95643 849.456562) scale(0.18 -0.18)">
       <defs>
        <path id="DejaVuSans-33" d="M 2597 2516 
Q 3050 2419 3304 2112 
Q 3559 1806 3559 1356 
Q 3559 666 3084 287 
Q 2609 -91 1734 -91 
Q 1441 -91 1130 -33 
Q 819 25 488 141 
L 488 750 
Q 750 597 1062 519 
Q 1375 441 1716 441 
Q 2309 441 2620 675 
Q 2931 909 2931 1356 
Q 2931 1769 2642 2001 
Q 2353 2234 1838 2234 
L 1294 2234 
L 1294 2753 
L 1863 2753 
Q 2328 2753 2575 2939 
Q 2822 3125 2822 3475 
Q 2822 3834 2567 4026 
Q 2313 4219 1838 4219 
Q 1578 4219 1281 4162 
Q 984 4106 628 3988 
L 628 4550 
Q 988 4650 1302 4700 
Q 1616 4750 1894 4750 
Q 2613 4750 3031 4423 
Q 3450 4097 3450 3541 
Q 3450 3153 3228 2886 
Q 3006 2619 2597 2516 
z
" transform="scale(0.015625)"/>
       </defs>
       <use xlink:href="#DejaVuSans-33"/>
      </g>
     </g>
    </g>
    <g id="xtick_5">
     <g id="line2d_5">
      <g>
       <use xlink:href="#m4007de605e" x="1057.93408" y="828.779375" style="stroke: #000000; stroke-width: 0.8"/>
      </g>
     </g>
     <g id="text_5">
      <!-- 4 -->
      <g transform="translate(1052.20783 849.456562) scale(0.18 -0.18)">
       <defs>
        <path id="DejaVuSans-34" d="M 2419 4116 
L 825 1625 
L 2419 1625 
L 2419 4116 
z
M 2253 4666 
L 3047 4666 
L 3047 1625 
L 3713 1625 
L 3713 1100 
L 3047 1100 
L 3047 0 
L 2419 0 
L 2419 1100 
L 313 1100 
L 313 1709 
L 2253 4666 
z
" transform="scale(0.015625)"/>
       </defs>
       <use xlink:href="#DejaVuSans-34"/>
      </g>
     </g>
    </g>
    <g id="xtick_6">
     <g id="line2d_6">
      <g>
       <use xlink:href="#m4007de605e" x="1292.185479" y="828.779375" style="stroke: #000000; stroke-width: 0.8"/>
      </g>
     </g>
     <g id="text_6">
      <!-- 5 -->
      <g transform="translate(1286.459229 849.456562) scale(0.18 -0.18)">
       <defs>
        <path id="DejaVuSans-35" d="M 691 4666 
L 3169 4666 
L 3169 4134 
L 1269 4134 
L 1269 2991 
Q 1406 3038 1543 3061 
Q 1681 3084 1819 3084 
Q 2600 3084 3056 2656 
Q 3513 2228 3513 1497 
Q 3513 744 3044 326 
Q 2575 -91 1722 -91 
Q 1428 -91 1123 -41 
Q 819 9 494 109 
L 494 744 
Q 775 591 1075 516 
Q 1375 441 1709 441 
Q 2250 441 2565 725 
Q 2881 1009 2881 1497 
Q 2881 1984 2565 2268 
Q 2250 2553 1709 2553 
Q 1456 2553 1204 2497 
Q 953 2441 691 2322 
L 691 4666 
z
" transform="scale(0.015625)"/>
       </defs>
       <use xlink:href="#DejaVuSans-35"/>
      </g>
     </g>
    </g>
   </g>
   <g id="matplotlib.axis_2">
    <g id="ytick_1">
     <g id="line2d_7">
      <defs>
       <path id="m60d8c89664" d="M 0 0 
L -3.5 0 
" style="stroke: #000000; stroke-width: 0.8"/>
      </defs>
      <g>
       <use xlink:href="#m60d8c89664" x="72.685313" y="828.779375" style="stroke: #000000; stroke-width: 0.8"/>
      </g>
     </g>
     <g id="text_7">
      <!-- 0.0 -->
      <g transform="translate(37.059688 835.617969) scale(0.18 -0.18)">
       <defs>
        <path id="DejaVuSans-2e" d="M 684 794 
L 1344 794 
L 1344 0 
L 684 0 
L 684 794 
z
" transform="scale(0.015625)"/>
       </defs>
       <use xlink:href="#DejaVuSans-30"/>
       <use xlink:href="#DejaVuSans-2e" transform="translate(63.623047 0)"/>
       <use xlink:href="#DejaVuSans-30" transform="translate(95.410156 0)"/>
      </g>
     </g>
    </g>
    <g id="ytick_2">
     <g id="line2d_8">
      <g>
       <use xlink:href="#m60d8c89664" x="72.685313" y="705.278769" style="stroke: #000000; stroke-width: 0.8"/>
      </g>
     </g>
     <g id="text_8">
      <!-- 0.1 -->
      <g transform="translate(37.059688 712.117363) scale(0.18 -0.18)">
       <use xlink:href="#DejaVuSans-30"/>
       <use xlink:href="#DejaVuSans-2e" transform="translate(63.623047 0)"/>
       <use xlink:href="#DejaVuSans-31" transform="translate(95.410156 0)"/>
      </g>
     </g>
    </g>
    <g id="ytick_3">
     <g id="line2d_9">
      <g>
       <use xlink:href="#m60d8c89664" x="72.685313" y="581.778163" style="stroke: #000000; stroke-width: 0.8"/>
      </g>
     </g>
     <g id="text_9">
      <!-- 0.2 -->
      <g transform="translate(37.059688 588.616757) scale(0.18 -0.18)">
       <use xlink:href="#DejaVuSans-30"/>
       <use xlink:href="#DejaVuSans-2e" transform="translate(63.623047 0)"/>
       <use xlink:href="#DejaVuSans-32" transform="translate(95.410156 0)"/>
      </g>
     </g>
    </g>
    <g id="ytick_4">
     <g id="line2d_10">
      <g>
       <use xlink:href="#m60d8c89664" x="72.685313" y="458.277557" style="stroke: #000000; stroke-width: 0.8"/>
      </g>
     </g>
     <g id="text_10">
      <!-- 0.3 -->
      <g transform="translate(37.059688 465.116151) scale(0.18 -0.18)">
       <use xlink:href="#DejaVuSans-30"/>
       <use xlink:href="#DejaVuSans-2e" transform="translate(63.623047 0)"/>
       <use xlink:href="#DejaVuSans-33" transform="translate(95.410156 0)"/>
      </g>
     </g>
    </g>
    <g id="ytick_5">
     <g id="line2d_11">
      <g>
       <use xlink:href="#m60d8c89664" x="72.685313" y="334.776952" style="stroke: #000000; stroke-width: 0.8"/>
      </g>
     </g>
     <g id="text_11">
      <!-- 0.4 -->
      <g transform="translate(37.059688 341.615545) scale(0.18 -0.18)">
       <use xlink:href="#DejaVuSans-30"/>
       <use xlink:href="#DejaVuSans-2e" transform="translate(63.623047 0)"/>
       <use xlink:href="#DejaVuSans-34" transform="translate(95.410156 0)"/>
      </g>
     </g>
    </g>
    <g id="ytick_6">
     <g id="line2d_12">
      <g>
       <use xlink:href="#m60d8c89664" x="72.685313" y="211.276346" style="stroke: #000000; stroke-width: 0.8"/>
      </g>
     </g>
     <g id="text_12">
      <!-- 0.5 -->
      <g transform="translate(37.059688 218.11494) scale(0.18 -0.18)">
       <use xlink:href="#DejaVuSans-30"/>
       <use xlink:href="#DejaVuSans-2e" transform="translate(63.623047 0)"/>
       <use xlink:href="#DejaVuSans-35" transform="translate(95.410156 0)"/>
      </g>
     </g>
    </g>
    <g id="ytick_7">
     <g id="line2d_13">
      <g>
       <use xlink:href="#m60d8c89664" x="72.685313" y="87.77574" style="stroke: #000000; stroke-width: 0.8"/>
      </g>
     </g>
     <g id="text_13">
      <!-- 0.6 -->
      <g transform="translate(37.059688 94.614334) scale(0.18 -0.18)">
       <defs>
        <path id="DejaVuSans-36" d="M 2113 2584 
Q 1688 2584 1439 2293 
Q 1191 2003 1191 1497 
Q 1191 994 1439 701 
Q 1688 409 2113 409 
Q 2538 409 2786 701 
Q 3034 994 3034 1497 
Q 3034 2003 2786 2293 
Q 2538 2584 2113 2584 
z
M 3366 4563 
L 3366 3988 
Q 3128 4100 2886 4159 
Q 2644 4219 2406 4219 
Q 1781 4219 1451 3797 
Q 1122 3375 1075 2522 
Q 1259 2794 1537 2939 
Q 1816 3084 2150 3084 
Q 2853 3084 3261 2657 
Q 3669 2231 3669 1497 
Q 3669 778 3244 343 
Q 2819 -91 2113 -91 
Q 1303 -91 875 529 
Q 447 1150 447 2328 
Q 447 3434 972 4092 
Q 1497 4750 2381 4750 
Q 2619 4750 2861 4703 
Q 3103 4656 3366 4563 
z
" transform="scale(0.015625)"/>
       </defs>
       <use xlink:href="#DejaVuSans-30"/>
       <use xlink:href="#DejaVuSans-2e" transform="translate(63.623047 0)"/>
       <use xlink:href="#DejaVuSans-36" transform="translate(95.410156 0)"/>
      </g>
     </g>
    </g>
    <g id="text_14">
     <!-- Normed Hist Counts -->
     <g transform="translate(28.276406 548.966563) rotate(-90) scale(0.23 -0.23)">
      <defs>
       <path id="DejaVuSans-4e" d="M 628 4666 
L 1478 4666 
L 3547 763 
L 3547 4666 
L 4159 4666 
L 4159 0 
L 3309 0 
L 1241 3903 
L 1241 0 
L 628 0 
L 628 4666 
z
" transform="scale(0.015625)"/>
       <path id="DejaVuSans-6f" d="M 1959 3097 
Q 1497 3097 1228 2736 
Q 959 2375 959 1747 
Q 959 1119 1226 758 
Q 1494 397 1959 397 
Q 2419 397 2687 759 
Q 2956 1122 2956 1747 
Q 2956 2369 2687 2733 
Q 2419 3097 1959 3097 
z
M 1959 3584 
Q 2709 3584 3137 3096 
Q 3566 2609 3566 1747 
Q 3566 888 3137 398 
Q 2709 -91 1959 -91 
Q 1206 -91 779 398 
Q 353 888 353 1747 
Q 353 2609 779 3096 
Q 1206 3584 1959 3584 
z
" transform="scale(0.015625)"/>
       <path id="DejaVuSans-72" d="M 2631 2963 
Q 2534 3019 2420 3045 
Q 2306 3072 2169 3072 
Q 1681 3072 1420 2755 
Q 1159 2438 1159 1844 
L 1159 0 
L 581 0 
L 581 3500 
L 1159 3500 
L 1159 2956 
Q 1341 3275 1631 3429 
Q 1922 3584 2338 3584 
Q 2397 3584 2469 3576 
Q 2541 3569 2628 3553 
L 2631 2963 
z
" transform="scale(0.015625)"/>
       <path id="DejaVuSans-6d" d="M 3328 2828 
Q 3544 3216 3844 3400 
Q 4144 3584 4550 3584 
Q 5097 3584 5394 3201 
Q 5691 2819 5691 2113 
L 5691 0 
L 5113 0 
L 5113 2094 
Q 5113 2597 4934 2840 
Q 4756 3084 4391 3084 
Q 3944 3084 3684 2787 
Q 3425 2491 3425 1978 
L 3425 0 
L 2847 0 
L 2847 2094 
Q 2847 2600 2669 2842 
Q 2491 3084 2119 3084 
Q 1678 3084 1418 2786 
Q 1159 2488 1159 1978 
L 1159 0 
L 581 0 
L 581 3500 
L 1159 3500 
L 1159 2956 
Q 1356 3278 1631 3431 
Q 1906 3584 2284 3584 
Q 2666 3584 2933 3390 
Q 3200 3197 3328 2828 
z
" transform="scale(0.015625)"/>
       <path id="DejaVuSans-65" d="M 3597 1894 
L 3597 1613 
L 953 1613 
Q 991 1019 1311 708 
Q 1631 397 2203 397 
Q 2534 397 2845 478 
Q 3156 559 3463 722 
L 3463 178 
Q 3153 47 2828 -22 
Q 2503 -91 2169 -91 
Q 1331 -91 842 396 
Q 353 884 353 1716 
Q 353 2575 817 3079 
Q 1281 3584 2069 3584 
Q 2775 3584 3186 3129 
Q 3597 2675 3597 1894 
z
M 3022 2063 
Q 3016 2534 2758 2815 
Q 2500 3097 2075 3097 
Q 1594 3097 1305 2825 
Q 1016 2553 972 2059 
L 3022 2063 
z
" transform="scale(0.015625)"/>
       <path id="DejaVuSans-64" d="M 2906 2969 
L 2906 4863 
L 3481 4863 
L 3481 0 
L 2906 0 
L 2906 525 
Q 2725 213 2448 61 
Q 2172 -91 1784 -91 
Q 1150 -91 751 415 
Q 353 922 353 1747 
Q 353 2572 751 3078 
Q 1150 3584 1784 3584 
Q 2172 3584 2448 3432 
Q 2725 3281 2906 2969 
z
M 947 1747 
Q 947 1113 1208 752 
Q 1469 391 1925 391 
Q 2381 391 2643 752 
Q 2906 1113 2906 1747 
Q 2906 2381 2643 2742 
Q 2381 3103 1925 3103 
Q 1469 3103 1208 2742 
Q 947 2381 947 1747 
z
" transform="scale(0.015625)"/>
       <path id="DejaVuSans-20" transform="scale(0.015625)"/>
       <path id="DejaVuSans-48" d="M 628 4666 
L 1259 4666 
L 1259 2753 
L 3553 2753 
L 3553 4666 
L 4184 4666 
L 4184 0 
L 3553 0 
L 3553 2222 
L 1259 2222 
L 1259 0 
L 628 0 
L 628 4666 
z
" transform="scale(0.015625)"/>
       <path id="DejaVuSans-69" d="M 603 3500 
L 1178 3500 
L 1178 0 
L 603 0 
L 603 3500 
z
M 603 4863 
L 1178 4863 
L 1178 4134 
L 603 4134 
L 603 4863 
z
" transform="scale(0.015625)"/>
       <path id="DejaVuSans-73" d="M 2834 3397 
L 2834 2853 
Q 2591 2978 2328 3040 
Q 2066 3103 1784 3103 
Q 1356 3103 1142 2972 
Q 928 2841 928 2578 
Q 928 2378 1081 2264 
Q 1234 2150 1697 2047 
L 1894 2003 
Q 2506 1872 2764 1633 
Q 3022 1394 3022 966 
Q 3022 478 2636 193 
Q 2250 -91 1575 -91 
Q 1294 -91 989 -36 
Q 684 19 347 128 
L 347 722 
Q 666 556 975 473 
Q 1284 391 1588 391 
Q 1994 391 2212 530 
Q 2431 669 2431 922 
Q 2431 1156 2273 1281 
Q 2116 1406 1581 1522 
L 1381 1569 
Q 847 1681 609 1914 
Q 372 2147 372 2553 
Q 372 3047 722 3315 
Q 1072 3584 1716 3584 
Q 2034 3584 2315 3537 
Q 2597 3491 2834 3397 
z
" transform="scale(0.015625)"/>
       <path id="DejaVuSans-74" d="M 1172 4494 
L 1172 3500 
L 2356 3500 
L 2356 3053 
L 1172 3053 
L 1172 1153 
Q 1172 725 1289 603 
Q 1406 481 1766 481 
L 2356 481 
L 2356 0 
L 1766 0 
Q 1100 0 847 248 
Q 594 497 594 1153 
L 594 3053 
L 172 3053 
L 172 3500 
L 594 3500 
L 594 4494 
L 1172 4494 
z
" transform="scale(0.015625)"/>
       <path id="DejaVuSans-43" d="M 4122 4306 
L 4122 3641 
Q 3803 3938 3442 4084 
Q 3081 4231 2675 4231 
Q 1875 4231 1450 3742 
Q 1025 3253 1025 2328 
Q 1025 1406 1450 917 
Q 1875 428 2675 428 
Q 3081 428 3442 575 
Q 3803 722 4122 1019 
L 4122 359 
Q 3791 134 3420 21 
Q 3050 -91 2638 -91 
Q 1578 -91 968 557 
Q 359 1206 359 2328 
Q 359 3453 968 4101 
Q 1578 4750 2638 4750 
Q 3056 4750 3426 4639 
Q 3797 4528 4122 4306 
z
" transform="scale(0.015625)"/>
       <path id="DejaVuSans-75" d="M 544 1381 
L 544 3500 
L 1119 3500 
L 1119 1403 
Q 1119 906 1312 657 
Q 1506 409 1894 409 
Q 2359 409 2629 706 
Q 2900 1003 2900 1516 
L 2900 3500 
L 3475 3500 
L 3475 0 
L 2900 0 
L 2900 538 
Q 2691 219 2414 64 
Q 2138 -91 1772 -91 
Q 1169 -91 856 284 
Q 544 659 544 1381 
z
M 1991 3584 
L 1991 3584 
z
" transform="scale(0.015625)"/>
       <path id="DejaVuSans-6e" d="M 3513 2113 
L 3513 0 
L 2938 0 
L 2938 2094 
Q 2938 2591 2744 2837 
Q 2550 3084 2163 3084 
Q 1697 3084 1428 2787 
Q 1159 2491 1159 1978 
L 1159 0 
L 581 0 
L 581 3500 
L 1159 3500 
L 1159 2956 
Q 1366 3272 1645 3428 
Q 1925 3584 2291 3584 
Q 2894 3584 3203 3211 
Q 3513 2838 3513 2113 
z
" transform="scale(0.015625)"/>
      </defs>
      <use xlink:href="#DejaVuSans-4e"/>
      <use xlink:href="#DejaVuSans-6f" transform="translate(74.804688 0)"/>
      <use xlink:href="#DejaVuSans-72" transform="translate(135.986328 0)"/>
      <use xlink:href="#DejaVuSans-6d" transform="translate(175.349609 0)"/>
      <use xlink:href="#DejaVuSans-65" transform="translate(272.761719 0)"/>
      <use xlink:href="#DejaVuSans-64" transform="translate(334.285156 0)"/>
      <use xlink:href="#DejaVuSans-20" transform="translate(397.761719 0)"/>
      <use xlink:href="#DejaVuSans-48" transform="translate(429.548828 0)"/>
      <use xlink:href="#DejaVuSans-69" transform="translate(504.744141 0)"/>
      <use xlink:href="#DejaVuSans-73" transform="translate(532.527344 0)"/>
      <use xlink:href="#DejaVuSans-74" transform="translate(584.626953 0)"/>
      <use xlink:href="#DejaVuSans-20" transform="translate(623.835938 0)"/>
      <use xlink:href="#DejaVuSans-43" transform="translate(655.623047 0)"/>
      <use xlink:href="#DejaVuSans-6f" transform="translate(725.447266 0)"/>
      <use xlink:href="#DejaVuSans-75" transform="translate(786.628906 0)"/>
      <use xlink:href="#DejaVuSans-6e" transform="translate(850.007812 0)"/>
      <use xlink:href="#DejaVuSans-74" transform="translate(913.386719 0)"/>
      <use xlink:href="#DejaVuSans-73" transform="translate(952.595703 0)"/>
     </g>
    </g>
   </g>
   <g id="line2d_14">
    <path d="M 137.428059 828.451133 
L 143.594035 828.034179 
L 149.760011 827.361114 
L 155.925987 826.371834 
L 162.091962 825.007923 
L 168.257938 823.213138 
L 174.423914 820.93387 
L 180.58989 818.119564 
L 186.755866 814.723106 
L 192.921842 810.701178 
L 199.087817 806.014587 
L 205.253793 800.628549 
L 211.419769 794.512948 
L 217.585745 787.642555 
L 223.751721 779.997212 
L 229.917697 771.561977 
L 236.083673 762.32723 
L 242.249648 752.288747 
L 248.415624 741.44773 
L 254.5816 729.810801 
L 260.747576 717.389958 
L 266.913552 704.202496 
L 273.079528 690.270891 
L 279.245504 675.62265 
L 285.411479 660.290128 
L 291.577455 644.310317 
L 297.743431 627.7246 
L 303.909407 610.57848 
L 310.075383 592.921291 
L 316.241359 574.805877 
L 328.57331 537.427271 
L 340.905262 498.922453 
L 377.901117 381.870861 
L 390.233069 344.134473 
L 396.399045 325.804789 
L 402.565021 307.918411 
L 408.730996 290.536084 
L 414.896972 273.716196 
L 421.062948 257.514496 
L 427.228924 241.983826 
L 433.3949 227.173885 
L 439.560876 213.131012 
L 445.726852 199.897991 
L 451.892827 187.513889 
L 458.058803 176.013918 
L 464.224779 165.429315 
L 470.390755 155.787263 
L 476.556731 147.110824 
L 482.722707 139.41891 
L 488.888683 132.726265 
L 495.054658 127.04349 
L 501.220634 122.377073 
L 507.38661 118.729455 
L 513.552586 116.09911 
L 519.718562 114.480652 
L 525.884538 113.864953 
L 532.050513 114.239287 
L 538.216489 115.587482 
L 544.382465 117.890092 
L 550.548441 121.124582 
L 556.714417 125.26552 
L 562.880393 130.284782 
L 569.046369 136.151766 
L 575.212344 142.833607 
L 581.37832 150.295403 
L 587.544296 158.50044 
L 593.710272 167.410422 
L 599.876248 176.985693 
L 606.042224 187.18547 
L 612.2082 197.968065 
L 618.374175 209.291101 
L 624.540151 221.111731 
L 630.706127 233.386846 
L 636.872103 246.073273 
L 643.038079 259.127971 
L 649.204055 272.508211 
L 661.536006 300.077017 
L 673.867958 328.450514 
L 692.365886 371.837537 
L 717.029789 429.739955 
L 729.361741 458.149225 
L 741.693692 485.910861 
L 754.025644 512.844626 
L 760.19162 525.952353 
L 766.357596 538.79812 
L 772.523572 551.367149 
L 778.689548 563.646318 
L 784.855523 575.624121 
L 791.021499 587.290621 
L 797.187475 598.637402 
L 803.353451 609.657513 
L 809.519427 620.345409 
L 815.685403 630.696891 
L 821.851379 640.709039 
L 828.017354 650.380147 
L 834.18333 659.709654 
L 840.349306 668.698077 
L 846.515282 677.346935 
L 852.681258 685.658683 
L 858.847234 693.636643 
L 865.01321 701.28493 
L 871.179185 708.608387 
L 877.345161 715.612513 
L 883.511137 722.303402 
L 889.677113 728.687678 
L 895.843089 734.772428 
L 902.009065 740.565148 
L 908.17504 746.073683 
L 914.341016 751.306169 
L 920.506992 756.270987 
L 926.672968 760.976708 
L 932.838944 765.432049 
L 939.00492 769.645825 
L 945.170896 773.626915 
L 951.336871 777.384217 
L 957.502847 780.926615 
L 963.668823 784.262949 
L 969.834799 787.40198 
L 976.000775 790.352367 
L 982.166751 793.122642 
L 988.332727 795.721186 
L 994.498702 798.156213 
L 1000.664678 800.435749 
L 1006.830654 802.567619 
L 1012.99663 804.559438 
L 1019.162606 806.418594 
L 1025.328582 808.152242 
L 1037.660533 811.270438 
L 1049.992485 813.966402 
L 1062.324437 816.288512 
L 1074.656388 818.281136 
L 1086.98834 819.984696 
L 1099.320292 821.435782 
L 1111.652244 822.667314 
L 1123.984195 823.708741 
L 1142.482123 824.970895 
L 1160.98005 825.939441 
L 1179.477978 826.676822 
L 1204.141881 827.386731 
L 1228.805785 827.868523 
L 1259.635664 828.253007 
L 1302.797495 828.542974 
L 1364.457254 828.708827 
L 1364.457254 828.708827 
" clip-path="url(#p607cb1f547)" style="fill: none; stroke: #ff7f0e; stroke-width: 1.5; stroke-linecap: square"/>
   </g>
   <g id="line2d_15">
    <path d="M 137.428059 825.333256 
L 143.594035 824.403705 
L 149.760011 823.274614 
L 155.925987 821.915128 
L 162.091962 820.291932 
L 168.257938 818.369428 
L 174.423914 816.109978 
L 180.58989 813.474206 
L 186.755866 810.421365 
L 192.921842 806.909765 
L 199.087817 802.897242 
L 205.253793 798.341688 
L 211.419769 793.201612 
L 217.585745 787.436735 
L 223.751721 781.008601 
L 229.917697 773.881202 
L 236.083673 766.021602 
L 242.249648 757.400543 
L 248.415624 747.993035 
L 254.5816 737.77891 
L 260.747576 726.743324 
L 266.913552 714.877215 
L 273.079528 702.177692 
L 279.245504 688.648358 
L 285.411479 674.299555 
L 291.577455 659.148528 
L 297.743431 643.219505 
L 303.909407 626.543695 
L 310.075383 609.159197 
L 316.241359 591.110823 
L 322.407335 572.449845 
L 328.57331 553.233656 
L 334.739286 533.525369 
L 347.071238 492.910617 
L 359.40319 451.205355 
L 384.067093 367.178956 
L 396.399045 326.248368 
L 402.565021 306.358039 
L 408.730996 286.963308 
L 414.896972 268.14522 
L 421.062948 249.981569 
L 427.228924 232.546356 
L 433.3949 215.90929 
L 439.560876 200.135348 
L 445.726852 185.284381 
L 451.892827 171.410785 
L 458.058803 158.563228 
L 464.224779 146.784429 
L 470.390755 136.111009 
L 476.556731 126.573382 
L 482.722707 118.19572 
L 488.888683 110.995955 
L 495.054658 104.985846 
L 501.220634 100.171084 
L 507.38661 96.551449 
L 513.552586 94.120998 
L 519.718562 92.868303 
L 525.884538 92.776712 
L 532.050513 93.82464 
L 538.216489 95.985889 
L 544.382465 99.229982 
L 550.548441 103.522517 
L 556.714417 108.825531 
L 562.880393 115.097874 
L 569.046369 122.295585 
L 575.212344 130.372268 
L 581.37832 139.279469 
L 587.544296 148.967044 
L 593.710272 159.383519 
L 599.876248 170.476443 
L 606.042224 182.192721 
L 612.2082 194.478939 
L 618.374175 207.281668 
L 624.540151 220.547751 
L 630.706127 234.224573 
L 636.872103 248.260306 
L 649.204055 277.206499 
L 661.536006 306.995654 
L 686.19991 367.669777 
L 704.697837 412.890634 
L 717.029789 442.397395 
L 729.361741 471.133939 
L 741.693692 498.918493 
L 747.859668 512.406214 
L 754.025644 525.602927 
L 760.19162 538.495085 
L 766.357596 551.070998 
L 772.523572 563.320761 
L 778.689548 575.236168 
L 784.855523 586.810633 
L 791.021499 598.039101 
L 797.187475 608.917963 
L 803.353451 619.444962 
L 809.519427 629.619113 
L 815.685403 639.440607 
L 821.851379 648.910727 
L 828.017354 658.031762 
L 834.18333 666.806921 
L 840.349306 675.240252 
L 846.515282 683.33656 
L 852.681258 691.101335 
L 858.847234 698.540671 
L 865.01321 705.6612 
L 871.179185 712.470021 
L 877.345161 718.974638 
L 883.511137 725.182897 
L 889.677113 731.102931 
L 895.843089 736.743102 
L 902.009065 742.111955 
L 908.17504 747.218167 
L 914.341016 752.070505 
L 920.506992 756.677787 
L 926.672968 761.048844 
L 932.838944 765.192485 
L 939.00492 769.117467 
L 945.170896 772.832468 
L 951.336871 776.346061 
L 957.502847 779.666693 
L 963.668823 782.802663 
L 969.834799 785.762108 
L 976.000775 788.552983 
L 982.166751 791.183054 
L 988.332727 793.659882 
L 994.498702 795.990819 
L 1000.664678 798.182994 
L 1006.830654 800.243315 
L 1012.99663 802.17846 
L 1025.328582 805.698772 
L 1037.660533 808.792701 
L 1049.992485 811.505298 
L 1062.324437 813.877954 
L 1074.656388 815.948505 
L 1086.98834 817.75138 
L 1099.320292 819.317763 
L 1111.652244 820.675789 
L 1123.984195 821.850734 
L 1142.482123 823.318703 
L 1160.98005 824.491359 
L 1179.477978 825.424129 
L 1197.975906 826.163037 
L 1222.639809 826.911303 
L 1253.469688 827.563136 
L 1290.465543 828.060815 
L 1333.627374 828.396198 
L 1364.457254 828.537084 
L 1364.457254 828.537084 
" clip-path="url(#p607cb1f547)" style="fill: none; stroke: #2ca02c; stroke-width: 1.5; stroke-linecap: square"/>
   </g>
   <g id="line2d_16">
    <path d="M 137.428059 155.694671 
L 149.760011 174.867994 
L 162.091962 193.49515 
L 174.423914 211.591698 
L 186.755866 229.172752 
L 199.087817 246.252996 
L 211.419769 262.846697 
L 223.751721 278.967714 
L 236.083673 294.629512 
L 248.415624 309.845171 
L 260.747576 324.627401 
L 273.079528 338.988548 
L 285.411479 352.940607 
L 297.743431 366.495232 
L 310.075383 379.663742 
L 322.407335 392.457138 
L 334.739286 404.886104 
L 347.071238 416.961022 
L 359.40319 428.691977 
L 371.735141 440.088766 
L 384.067093 451.16091 
L 396.399045 461.917655 
L 408.730996 472.367987 
L 421.062948 482.520632 
L 433.3949 492.384072 
L 445.726852 501.966545 
L 458.058803 511.276053 
L 470.390755 520.320374 
L 482.722707 529.10706 
L 495.054658 537.64345 
L 507.38661 545.936676 
L 519.718562 553.993662 
L 532.050513 561.821139 
L 544.382465 569.425645 
L 556.714417 576.81353 
L 569.046369 583.990967 
L 581.37832 590.963948 
L 593.710272 597.738299 
L 606.042224 604.319677 
L 618.374175 610.71358 
L 630.706127 616.925348 
L 643.038079 622.960169 
L 655.370031 628.823083 
L 667.701982 634.518988 
L 686.19991 642.760072 
L 704.697837 650.651546 
L 723.195765 658.208241 
L 741.693692 665.444359 
L 760.19162 672.3735 
L 778.689548 679.008687 
L 797.187475 685.36239 
L 815.685403 691.446551 
L 834.18333 697.272604 
L 852.681258 702.8515 
L 871.179185 708.193722 
L 889.677113 713.309313 
L 908.17504 718.207885 
L 926.672968 722.898645 
L 945.170896 727.39041 
L 963.668823 731.691622 
L 982.166751 735.810363 
L 1000.664678 739.754376 
L 1025.328582 744.754026 
L 1049.992485 749.472895 
L 1074.656388 753.926751 
L 1099.320292 758.130479 
L 1123.984195 762.098126 
L 1148.648099 765.842949 
L 1173.312002 769.377463 
L 1197.975906 772.713478 
L 1222.639809 775.862142 
L 1253.469688 779.550483 
L 1284.299567 782.981745 
L 1315.129447 786.173848 
L 1345.959326 789.143461 
L 1364.457254 790.82493 
L 1364.457254 790.82493 
" clip-path="url(#p607cb1f547)" style="fill: none; stroke: #d62728; stroke-width: 1.5; stroke-linecap: square"/>
   </g>
   <g id="line2d_17">
    <path d="M 137.428059 783.767852 
L 149.760011 779.212521 
L 155.925987 776.764785 
L 162.091962 774.196174 
L 168.257938 771.500718 
L 174.423914 768.672154 
L 180.58989 765.703909 
L 186.755866 762.589083 
L 192.921842 759.32044 
L 199.087817 755.890384 
L 205.253793 752.290942 
L 211.419769 748.513751 
L 217.585745 744.550032 
L 223.751721 740.390576 
L 229.917697 736.025715 
L 236.083673 731.445306 
L 242.249648 726.638704 
L 248.415624 721.594741 
L 254.5816 716.301695 
L 260.747576 710.747264 
L 266.913552 704.918542 
L 273.079528 698.801982 
L 279.245504 692.383372 
L 285.411479 685.647794 
L 291.577455 678.579597 
L 297.743431 671.162354 
L 303.909407 663.378829 
L 310.075383 655.210934 
L 316.241359 646.639688 
L 322.407335 637.645173 
L 328.57331 628.206485 
L 334.739286 618.301691 
L 340.905262 607.907774 
L 347.071238 597.000579 
L 353.237214 585.554759 
L 359.40319 573.543716 
L 365.569165 560.939538 
L 371.735141 547.712933 
L 377.901117 533.833166 
L 384.067093 519.26798 
L 390.233069 503.983529 
L 396.399045 487.944294 
L 402.565021 471.113 
L 408.730996 453.450535 
L 414.896972 434.915854 
L 421.062948 415.465883 
L 427.228924 395.055423 
L 433.3949 373.637044 
L 439.560876 351.160971 
L 445.726852 327.574973 
L 451.892827 302.82424 
L 458.058803 276.851253 
L 464.224779 249.595654 
L 470.390755 220.994106 
L 476.556731 190.980141 
L 482.722707 159.484011 
L 488.888683 126.432523 
L 495.054658 91.748869 
L 501.220634 55.35245 
L 507.38661 17.158684 
L 510.180182 -1 
M 589.434859 -1 
L 593.710272 26.471998 
L 599.876248 64.227492 
L 606.042224 100.206265 
L 612.2082 134.491925 
L 618.374175 167.164148 
L 624.540151 198.298861 
L 630.706127 227.968417 
L 636.872103 256.241764 
L 643.038079 283.184605 
L 649.204055 308.859553 
L 655.370031 333.326273 
L 661.536006 356.641623 
L 667.701982 378.859783 
L 673.867958 400.032388 
L 680.033934 420.208638 
L 686.19991 439.435421 
L 692.365886 457.757419 
L 698.531862 475.217207 
L 704.697837 491.855362 
L 710.863813 507.710548 
L 717.029789 522.819611 
L 723.195765 537.217661 
L 729.361741 550.938159 
L 735.527717 564.012989 
L 741.693692 576.472535 
L 747.859668 588.345752 
L 754.025644 599.660231 
L 760.19162 610.442267 
L 766.357596 620.716914 
L 772.523572 630.508051 
L 778.689548 639.83843 
L 784.855523 648.729734 
L 791.021499 657.202625 
L 797.187475 665.276794 
L 803.353451 672.971003 
L 809.519427 680.303133 
L 815.685403 687.290223 
L 821.851379 693.94851 
L 828.017354 700.293467 
L 834.18333 706.33984 
L 840.349306 712.101678 
L 846.515282 717.592371 
L 852.681258 722.824681 
L 858.847234 727.810765 
L 865.01321 732.56221 
L 871.179185 737.090059 
L 877.345161 741.404834 
L 883.511137 745.516561 
L 889.677113 749.434796 
L 895.843089 753.168644 
L 902.009065 756.726782 
L 908.17504 760.117479 
L 914.341016 763.348614 
L 920.506992 766.427697 
L 926.672968 769.361882 
L 932.838944 772.157989 
L 939.00492 774.822514 
L 951.336871 779.781299 
L 963.668823 784.284357 
L 976.000775 788.373573 
L 988.332727 792.086978 
L 1000.664678 795.45911 
L 1012.99663 798.521335 
L 1025.328582 801.302132 
L 1037.660533 803.827367 
L 1049.992485 806.120526 
L 1062.324437 808.202936 
L 1074.656388 810.093968 
L 1086.98834 811.811209 
L 1105.486268 814.095745 
L 1123.984195 816.072698 
L 1142.482123 817.783482 
L 1160.98005 819.263932 
L 1179.477978 820.545058 
L 1204.141881 821.989023 
L 1228.805785 823.179775 
L 1253.469688 824.161718 
L 1284.299567 825.150662 
L 1315.129447 825.927809 
L 1352.125302 826.643969 
L 1364.457254 826.840218 
L 1364.457254 826.840218 
" clip-path="url(#p607cb1f547)" style="fill: none; stroke: #9467bd; stroke-width: 1.5; stroke-linecap: square"/>
   </g>
   <g id="line2d_18">
    <path d="M 137.428059 824.1246 
L 143.594035 823.064541 
L 149.760011 821.806525 
L 155.925987 820.322893 
L 162.091962 818.583835 
L 168.257938 816.557499 
L 174.423914 814.210145 
L 180.58989 811.506362 
L 186.755866 808.409321 
L 192.921842 804.881099 
L 199.087817 800.883036 
L 205.253793 796.376151 
L 211.419769 791.321598 
L 217.585745 785.681159 
L 223.751721 779.417772 
L 229.917697 772.496078 
L 236.083673 764.88299 
L 242.249648 756.548265 
L 248.415624 747.465075 
L 254.5816 737.61056 
L 260.747576 726.966365 
L 266.913552 715.519139 
L 273.079528 703.260993 
L 279.245504 690.189903 
L 285.411479 676.31006 
L 291.577455 661.632145 
L 297.743431 646.173533 
L 303.909407 629.958423 
L 310.075383 613.017878 
L 316.241359 595.389789 
L 322.407335 577.118747 
L 328.57331 558.255838 
L 334.739286 538.858352 
L 340.905262 518.989417 
L 353.237214 478.116173 
L 365.569165 436.239493 
L 390.233069 352.162159 
L 402.565021 311.374692 
L 408.730996 291.60403 
L 414.896972 272.363454 
L 421.062948 253.735788 
L 427.228924 235.800527 
L 433.3949 218.633241 
L 439.560876 202.305036 
L 445.726852 186.882062 
L 451.892827 172.425092 
L 458.058803 158.989142 
L 464.224779 146.623179 
L 470.390755 135.369871 
L 476.556731 125.265413 
L 482.722707 116.33942 
L 488.888683 108.614868 
L 495.054658 102.108114 
L 501.220634 96.828956 
L 507.38661 92.780758 
L 513.552586 89.960625 
L 519.718562 88.359614 
L 525.884538 87.963 
L 532.050513 88.750571 
L 538.216489 90.696956 
L 544.382465 93.771978 
L 550.548441 97.941038 
L 556.714417 103.165501 
L 562.880393 109.403111 
L 569.046369 116.608401 
L 575.212344 124.733113 
L 581.37832 133.726617 
L 587.544296 143.536322 
L 593.710272 154.108081 
L 599.876248 165.386588 
L 606.042224 177.315759 
L 612.2082 189.839091 
L 618.374175 202.900011 
L 624.540151 216.442204 
L 630.706127 230.409912 
L 636.872103 244.748218 
L 649.204055 274.322675 
L 661.536006 304.752225 
L 710.863813 427.804768 
L 723.195765 457.407463 
L 735.527717 486.080585 
L 741.693692 500.014951 
L 747.859668 513.657081 
L 754.025644 526.991579 
L 760.19162 540.005109 
L 766.357596 552.686304 
L 772.523572 565.025682 
L 778.689548 577.015552 
L 784.855523 588.649918 
L 791.021499 599.92438 
L 797.187475 610.83604 
L 803.353451 621.383395 
L 809.519427 631.566246 
L 815.685403 641.385594 
L 821.851379 650.843548 
L 828.017354 659.943228 
L 834.18333 668.688672 
L 840.349306 677.084752 
L 846.515282 685.137083 
L 852.681258 692.851941 
L 858.847234 700.236187 
L 865.01321 707.297191 
L 871.179185 714.042756 
L 877.345161 720.48106 
L 883.511137 726.620583 
L 889.677113 732.470054 
L 895.843089 738.038395 
L 902.009065 743.334668 
L 908.17504 748.368028 
L 914.341016 753.147681 
L 920.506992 757.682843 
L 926.672968 761.982702 
L 932.838944 766.05639 
L 939.00492 769.912949 
L 945.170896 773.561304 
L 951.336871 777.010245 
L 957.502847 780.268401 
L 963.668823 783.344225 
L 969.834799 786.245974 
L 976.000775 788.981705 
L 982.166751 791.559253 
L 988.332727 793.986231 
L 994.498702 796.270016 
L 1000.664678 798.41775 
L 1006.830654 800.436331 
L 1019.162606 804.112406 
L 1031.494558 807.34853 
L 1043.826509 810.191093 
L 1056.158461 812.682661 
L 1068.490413 814.862103 
L 1080.822364 816.764753 
L 1093.154316 818.422593 
L 1105.486268 819.864459 
L 1117.818219 821.116251 
L 1130.150171 822.201155 
L 1148.648099 823.560208 
L 1167.146026 824.650131 
L 1185.643954 825.521231 
L 1210.307857 826.413244 
L 1234.971761 827.068435 
L 1265.80164 827.644987 
L 1302.797495 828.091934 
L 1352.125302 828.431022 
L 1364.457254 828.48604 
L 1364.457254 828.48604 
" clip-path="url(#p607cb1f547)" style="fill: none; stroke: #8c564b; stroke-width: 1.5; stroke-linecap: square"/>
   </g>
   <g id="line2d_19">
    <path d="M 137.428059 807.048578 
L 143.594035 804.734356 
L 149.760011 802.213127 
L 155.925987 799.471052 
L 162.091962 796.493888 
L 168.257938 793.26703 
L 174.423914 789.775569 
L 180.58989 786.004351 
L 186.755866 781.93805 
L 192.921842 777.561246 
L 199.087817 772.858509 
L 205.253793 767.814499 
L 211.419769 762.414063 
L 217.585745 756.642352 
L 223.751721 750.484934 
L 229.917697 743.927925 
L 236.083673 736.958115 
L 242.249648 729.563113 
L 248.415624 721.731487 
L 254.5816 713.452909 
L 260.747576 704.718313 
L 266.913552 695.52004 
L 273.079528 685.851999 
L 279.245504 675.709815 
L 285.411479 665.090983 
L 291.577455 653.995017 
L 297.743431 642.42359 
L 303.909407 630.380673 
L 310.075383 617.87266 
L 316.241359 604.908486 
L 322.407335 591.499736 
L 328.57331 577.660732 
L 334.739286 563.408612 
L 340.905262 548.76339 
L 347.071238 533.747997 
L 353.237214 518.388299 
L 365.569165 486.75413 
L 377.901117 454.126012 
L 390.233069 420.813684 
L 421.062948 336.92986 
L 433.3949 304.207351 
L 439.560876 288.242888 
L 445.726852 272.618366 
L 451.892827 257.390612 
L 458.058803 242.616261 
L 464.224779 228.351411 
L 470.390755 214.651276 
L 476.556731 201.569828 
L 482.722707 189.159447 
L 488.888683 177.470576 
L 495.054658 166.551377 
L 501.220634 156.447402 
L 507.38661 147.201279 
L 513.552586 138.85241 
L 519.718562 131.436695 
L 525.884538 124.98627 
L 532.050513 119.529279 
L 538.216489 115.08967 
L 544.382465 111.687017 
L 550.548441 109.336376 
L 556.714417 108.048179 
L 562.880393 107.82815 
L 569.046369 108.677269 
L 575.212344 110.591759 
L 581.37832 113.563119 
L 587.544296 117.578184 
L 593.710272 122.619223 
L 599.876248 128.664068 
L 606.042224 135.68628 
L 612.2082 143.655337 
L 618.374175 152.536858 
L 624.540151 162.292851 
L 630.706127 172.881979 
L 636.872103 184.259855 
L 643.038079 196.379353 
L 649.204055 209.190927 
L 655.370031 222.642953 
L 661.536006 236.682071 
L 667.701982 251.253536 
L 673.867958 266.30157 
L 680.033934 281.769718 
L 686.19991 297.601189 
L 698.531862 330.127327 
L 710.863813 363.431733 
L 741.693692 447.317724 
L 754.025644 480.113321 
L 766.357596 511.975136 
L 772.523572 527.468301 
L 778.689548 542.628659 
L 784.855523 557.429133 
L 791.021499 571.845585 
L 797.187475 585.856805 
L 803.353451 599.444478 
L 809.519427 612.593131 
L 815.685403 625.290064 
L 821.851379 637.525264 
L 828.017354 649.291303 
L 834.18333 660.58323 
L 840.349306 671.398441 
L 846.515282 681.736552 
L 852.681258 691.599255 
L 858.847234 700.990172 
L 865.01321 709.914709 
L 871.179185 718.379896 
L 877.345161 726.39424 
L 883.511137 733.967569 
L 889.677113 741.110876 
L 895.843089 747.836178 
L 902.009065 754.156364 
L 908.17504 760.085056 
L 914.341016 765.636478 
L 920.506992 770.825321 
L 926.672968 775.666627 
L 932.838944 780.175672 
L 939.00492 784.367861 
L 945.170896 788.258629 
L 951.336871 791.863351 
L 957.502847 795.197261 
L 963.668823 798.275375 
L 969.834799 801.112432 
L 976.000775 803.722829 
L 982.166751 806.120578 
L 988.332727 808.319257 
L 994.498702 810.331979 
L 1000.664678 812.171364 
L 1006.830654 813.849512 
L 1012.99663 815.377992 
L 1019.162606 816.767824 
L 1025.328582 818.029481 
L 1037.660533 820.207393 
L 1049.992485 821.984509 
L 1062.324437 823.425071 
L 1074.656388 824.585189 
L 1086.98834 825.513384 
L 1099.320292 826.251214 
L 1117.818219 827.076603 
L 1136.316147 827.647733 
L 1160.98005 828.136552 
L 1191.80993 828.472776 
L 1234.971761 828.677192 
L 1315.129447 828.768425 
L 1364.457254 828.77693 
L 1364.457254 828.77693 
" clip-path="url(#p607cb1f547)" style="fill: none; stroke: #e377c2; stroke-width: 1.5; stroke-linecap: square"/>
   </g>
   <g id="patch_103">
    <path d="M 72.685313 828.779375 
L 72.685313 38.075625 
" style="fill: none; stroke: #000000; stroke-width: 0.8; stroke-linejoin: miter; stroke-linecap: square"/>
   </g>
   <g id="patch_104">
    <path d="M 1429.2 828.779375 
L 1429.2 38.075625 
" style="fill: none; stroke: #000000; stroke-width: 0.8; stroke-linejoin: miter; stroke-linecap: square"/>
   </g>
   <g id="patch_105">
    <path d="M 72.685313 828.779375 
L 1429.2 828.779375 
" style="fill: none; stroke: #000000; stroke-width: 0.8; stroke-linejoin: miter; stroke-linecap: square"/>
   </g>
   <g id="patch_106">
    <path d="M 72.685313 38.075625 
L 1429.2 38.075625 
" style="fill: none; stroke: #000000; stroke-width: 0.8; stroke-linejoin: miter; stroke-linecap: square"/>
   </g>
   <g id="text_15">
    <!-- All Fitted Distributions -->
    <g transform="translate(596.317031 32.075625) scale(0.28 -0.28)">
     <defs>
      <path id="DejaVuSans-41" d="M 2188 4044 
L 1331 1722 
L 3047 1722 
L 2188 4044 
z
M 1831 4666 
L 2547 4666 
L 4325 0 
L 3669 0 
L 3244 1197 
L 1141 1197 
L 716 0 
L 50 0 
L 1831 4666 
z
" transform="scale(0.015625)"/>
      <path id="DejaVuSans-6c" d="M 603 4863 
L 1178 4863 
L 1178 0 
L 603 0 
L 603 4863 
z
" transform="scale(0.015625)"/>
      <path id="DejaVuSans-46" d="M 628 4666 
L 3309 4666 
L 3309 4134 
L 1259 4134 
L 1259 2759 
L 3109 2759 
L 3109 2228 
L 1259 2228 
L 1259 0 
L 628 0 
L 628 4666 
z
" transform="scale(0.015625)"/>
      <path id="DejaVuSans-44" d="M 1259 4147 
L 1259 519 
L 2022 519 
Q 2988 519 3436 956 
Q 3884 1394 3884 2338 
Q 3884 3275 3436 3711 
Q 2988 4147 2022 4147 
L 1259 4147 
z
M 628 4666 
L 1925 4666 
Q 3281 4666 3915 4102 
Q 4550 3538 4550 2338 
Q 4550 1131 3912 565 
Q 3275 0 1925 0 
L 628 0 
L 628 4666 
z
" transform="scale(0.015625)"/>
      <path id="DejaVuSans-62" d="M 3116 1747 
Q 3116 2381 2855 2742 
Q 2594 3103 2138 3103 
Q 1681 3103 1420 2742 
Q 1159 2381 1159 1747 
Q 1159 1113 1420 752 
Q 1681 391 2138 391 
Q 2594 391 2855 752 
Q 3116 1113 3116 1747 
z
M 1159 2969 
Q 1341 3281 1617 3432 
Q 1894 3584 2278 3584 
Q 2916 3584 3314 3078 
Q 3713 2572 3713 1747 
Q 3713 922 3314 415 
Q 2916 -91 2278 -91 
Q 1894 -91 1617 61 
Q 1341 213 1159 525 
L 1159 0 
L 581 0 
L 581 4863 
L 1159 4863 
L 1159 2969 
z
" transform="scale(0.015625)"/>
     </defs>
     <use xlink:href="#DejaVuSans-41"/>
     <use xlink:href="#DejaVuSans-6c" transform="translate(68.408203 0)"/>
     <use xlink:href="#DejaVuSans-6c" transform="translate(96.191406 0)"/>
     <use xlink:href="#DejaVuSans-20" transform="translate(123.974609 0)"/>
     <use xlink:href="#DejaVuSans-46" transform="translate(155.761719 0)"/>
     <use xlink:href="#DejaVuSans-69" transform="translate(206.03125 0)"/>
     <use xlink:href="#DejaVuSans-74" transform="translate(233.814453 0)"/>
     <use xlink:href="#DejaVuSans-74" transform="translate(273.023438 0)"/>
     <use xlink:href="#DejaVuSans-65" transform="translate(312.232422 0)"/>
     <use xlink:href="#DejaVuSans-64" transform="translate(373.755859 0)"/>
     <use xlink:href="#DejaVuSans-20" transform="translate(437.232422 0)"/>
     <use xlink:href="#DejaVuSans-44" transform="translate(469.019531 0)"/>
     <use xlink:href="#DejaVuSans-69" transform="translate(546.021484 0)"/>
     <use xlink:href="#DejaVuSans-73" transform="translate(573.804688 0)"/>
     <use xlink:href="#DejaVuSans-74" transform="translate(625.904297 0)"/>
     <use xlink:href="#DejaVuSans-72" transform="translate(665.113281 0)"/>
     <use xlink:href="#DejaVuSans-69" transform="translate(706.226562 0)"/>
     <use xlink:href="#DejaVuSans-62" transform="translate(734.009766 0)"/>
     <use xlink:href="#DejaVuSans-75" transform="translate(797.486328 0)"/>
     <use xlink:href="#DejaVuSans-74" transform="translate(860.865234 0)"/>
     <use xlink:href="#DejaVuSans-69" transform="translate(900.074219 0)"/>
     <use xlink:href="#DejaVuSans-6f" transform="translate(927.857422 0)"/>
     <use xlink:href="#DejaVuSans-6e" transform="translate(989.039062 0)"/>
     <use xlink:href="#DejaVuSans-73" transform="translate(1052.417969 0)"/>
    </g>
   </g>
   <g id="legend_1">
    <g id="patch_107">
     <path d="M 1014.37125 303.868125 
L 1412.4 303.868125 
Q 1417.2 303.868125 1417.2 299.068125 
L 1417.2 54.875625 
Q 1417.2 50.075625 1412.4 50.075625 
L 1014.37125 50.075625 
Q 1009.57125 50.075625 1009.57125 54.875625 
L 1009.57125 299.068125 
Q 1009.57125 303.868125 1014.37125 303.868125 
z
" style="fill: #ffffff; opacity: 0.8; stroke: #cccccc; stroke-linejoin: miter"/>
    </g>
    <g id="patch_108">
     <path d="M 1019.17125 77.911875 
L 1067.17125 77.911875 
L 1067.17125 61.111875 
L 1019.17125 61.111875 
z
" style="fill: #1f77b4; opacity: 0.6"/>
    </g>
    <g id="text_16">
     <!-- Generated Chi Distribution -->
     <g transform="translate(1086.37125 77.911875) scale(0.24 -0.24)">
      <defs>
       <path id="DejaVuSans-47" d="M 3809 666 
L 3809 1919 
L 2778 1919 
L 2778 2438 
L 4434 2438 
L 4434 434 
Q 4069 175 3628 42 
Q 3188 -91 2688 -91 
Q 1594 -91 976 548 
Q 359 1188 359 2328 
Q 359 3472 976 4111 
Q 1594 4750 2688 4750 
Q 3144 4750 3555 4637 
Q 3966 4525 4313 4306 
L 4313 3634 
Q 3963 3931 3569 4081 
Q 3175 4231 2741 4231 
Q 1884 4231 1454 3753 
Q 1025 3275 1025 2328 
Q 1025 1384 1454 906 
Q 1884 428 2741 428 
Q 3075 428 3337 486 
Q 3600 544 3809 666 
z
" transform="scale(0.015625)"/>
       <path id="DejaVuSans-61" d="M 2194 1759 
Q 1497 1759 1228 1600 
Q 959 1441 959 1056 
Q 959 750 1161 570 
Q 1363 391 1709 391 
Q 2188 391 2477 730 
Q 2766 1069 2766 1631 
L 2766 1759 
L 2194 1759 
z
M 3341 1997 
L 3341 0 
L 2766 0 
L 2766 531 
Q 2569 213 2275 61 
Q 1981 -91 1556 -91 
Q 1019 -91 701 211 
Q 384 513 384 1019 
Q 384 1609 779 1909 
Q 1175 2209 1959 2209 
L 2766 2209 
L 2766 2266 
Q 2766 2663 2505 2880 
Q 2244 3097 1772 3097 
Q 1472 3097 1187 3025 
Q 903 2953 641 2809 
L 641 3341 
Q 956 3463 1253 3523 
Q 1550 3584 1831 3584 
Q 2591 3584 2966 3190 
Q 3341 2797 3341 1997 
z
" transform="scale(0.015625)"/>
       <path id="DejaVuSans-68" d="M 3513 2113 
L 3513 0 
L 2938 0 
L 2938 2094 
Q 2938 2591 2744 2837 
Q 2550 3084 2163 3084 
Q 1697 3084 1428 2787 
Q 1159 2491 1159 1978 
L 1159 0 
L 581 0 
L 581 4863 
L 1159 4863 
L 1159 2956 
Q 1366 3272 1645 3428 
Q 1925 3584 2291 3584 
Q 2894 3584 3203 3211 
Q 3513 2838 3513 2113 
z
" transform="scale(0.015625)"/>
      </defs>
      <use xlink:href="#DejaVuSans-47"/>
      <use xlink:href="#DejaVuSans-65" transform="translate(77.490234 0)"/>
      <use xlink:href="#DejaVuSans-6e" transform="translate(139.013672 0)"/>
      <use xlink:href="#DejaVuSans-65" transform="translate(202.392578 0)"/>
      <use xlink:href="#DejaVuSans-72" transform="translate(263.916016 0)"/>
      <use xlink:href="#DejaVuSans-61" transform="translate(305.029297 0)"/>
      <use xlink:href="#DejaVuSans-74" transform="translate(366.308594 0)"/>
      <use xlink:href="#DejaVuSans-65" transform="translate(405.517578 0)"/>
      <use xlink:href="#DejaVuSans-64" transform="translate(467.041016 0)"/>
      <use xlink:href="#DejaVuSans-20" transform="translate(530.517578 0)"/>
      <use xlink:href="#DejaVuSans-43" transform="translate(562.304688 0)"/>
      <use xlink:href="#DejaVuSans-68" transform="translate(632.128906 0)"/>
      <use xlink:href="#DejaVuSans-69" transform="translate(695.507812 0)"/>
      <use xlink:href="#DejaVuSans-20" transform="translate(723.291016 0)"/>
      <use xlink:href="#DejaVuSans-44" transform="translate(755.078125 0)"/>
      <use xlink:href="#DejaVuSans-69" transform="translate(832.080078 0)"/>
      <use xlink:href="#DejaVuSans-73" transform="translate(859.863281 0)"/>
      <use xlink:href="#DejaVuSans-74" transform="translate(911.962891 0)"/>
      <use xlink:href="#DejaVuSans-72" transform="translate(951.171875 0)"/>
      <use xlink:href="#DejaVuSans-69" transform="translate(992.285156 0)"/>
      <use xlink:href="#DejaVuSans-62" transform="translate(1020.068359 0)"/>
      <use xlink:href="#DejaVuSans-75" transform="translate(1083.544922 0)"/>
      <use xlink:href="#DejaVuSans-74" transform="translate(1146.923828 0)"/>
      <use xlink:href="#DejaVuSans-69" transform="translate(1186.132812 0)"/>
      <use xlink:href="#DejaVuSans-6f" transform="translate(1213.916016 0)"/>
      <use xlink:href="#DejaVuSans-6e" transform="translate(1275.097656 0)"/>
     </g>
    </g>
    <g id="line2d_20">
     <path d="M 1019.17125 104.739375 
L 1043.17125 104.739375 
L 1067.17125 104.739375 
" style="fill: none; stroke: #ff7f0e; stroke-width: 1.5; stroke-linecap: square"/>
    </g>
    <g id="text_17">
     <!-- Chi fit -->
     <g transform="translate(1086.37125 113.139375) scale(0.24 -0.24)">
      <defs>
       <path id="DejaVuSans-66" d="M 2375 4863 
L 2375 4384 
L 1825 4384 
Q 1516 4384 1395 4259 
Q 1275 4134 1275 3809 
L 1275 3500 
L 2222 3500 
L 2222 3053 
L 1275 3053 
L 1275 0 
L 697 0 
L 697 3053 
L 147 3053 
L 147 3500 
L 697 3500 
L 697 3744 
Q 697 4328 969 4595 
Q 1241 4863 1831 4863 
L 2375 4863 
z
" transform="scale(0.015625)"/>
      </defs>
      <use xlink:href="#DejaVuSans-43"/>
      <use xlink:href="#DejaVuSans-68" transform="translate(69.824219 0)"/>
      <use xlink:href="#DejaVuSans-69" transform="translate(133.203125 0)"/>
      <use xlink:href="#DejaVuSans-20" transform="translate(160.986328 0)"/>
      <use xlink:href="#DejaVuSans-66" transform="translate(192.773438 0)"/>
      <use xlink:href="#DejaVuSans-69" transform="translate(227.978516 0)"/>
      <use xlink:href="#DejaVuSans-74" transform="translate(255.761719 0)"/>
     </g>
    </g>
    <g id="line2d_21">
     <path d="M 1019.17125 139.966875 
L 1043.17125 139.966875 
L 1067.17125 139.966875 
" style="fill: none; stroke: #2ca02c; stroke-width: 1.5; stroke-linecap: square"/>
    </g>
    <g id="text_18">
     <!-- Chi-Square fit -->
     <g transform="translate(1086.37125 148.366875) scale(0.24 -0.24)">
      <defs>
       <path id="DejaVuSans-2d" d="M 313 2009 
L 1997 2009 
L 1997 1497 
L 313 1497 
L 313 2009 
z
" transform="scale(0.015625)"/>
       <path id="DejaVuSans-53" d="M 3425 4513 
L 3425 3897 
Q 3066 4069 2747 4153 
Q 2428 4238 2131 4238 
Q 1616 4238 1336 4038 
Q 1056 3838 1056 3469 
Q 1056 3159 1242 3001 
Q 1428 2844 1947 2747 
L 2328 2669 
Q 3034 2534 3370 2195 
Q 3706 1856 3706 1288 
Q 3706 609 3251 259 
Q 2797 -91 1919 -91 
Q 1588 -91 1214 -16 
Q 841 59 441 206 
L 441 856 
Q 825 641 1194 531 
Q 1563 422 1919 422 
Q 2459 422 2753 634 
Q 3047 847 3047 1241 
Q 3047 1584 2836 1778 
Q 2625 1972 2144 2069 
L 1759 2144 
Q 1053 2284 737 2584 
Q 422 2884 422 3419 
Q 422 4038 858 4394 
Q 1294 4750 2059 4750 
Q 2388 4750 2728 4690 
Q 3069 4631 3425 4513 
z
" transform="scale(0.015625)"/>
       <path id="DejaVuSans-71" d="M 947 1747 
Q 947 1113 1208 752 
Q 1469 391 1925 391 
Q 2381 391 2643 752 
Q 2906 1113 2906 1747 
Q 2906 2381 2643 2742 
Q 2381 3103 1925 3103 
Q 1469 3103 1208 2742 
Q 947 2381 947 1747 
z
M 2906 525 
Q 2725 213 2448 61 
Q 2172 -91 1784 -91 
Q 1150 -91 751 415 
Q 353 922 353 1747 
Q 353 2572 751 3078 
Q 1150 3584 1784 3584 
Q 2172 3584 2448 3432 
Q 2725 3281 2906 2969 
L 2906 3500 
L 3481 3500 
L 3481 -1331 
L 2906 -1331 
L 2906 525 
z
" transform="scale(0.015625)"/>
      </defs>
      <use xlink:href="#DejaVuSans-43"/>
      <use xlink:href="#DejaVuSans-68" transform="translate(69.824219 0)"/>
      <use xlink:href="#DejaVuSans-69" transform="translate(133.203125 0)"/>
      <use xlink:href="#DejaVuSans-2d" transform="translate(160.986328 0)"/>
      <use xlink:href="#DejaVuSans-53" transform="translate(197.070312 0)"/>
      <use xlink:href="#DejaVuSans-71" transform="translate(260.546875 0)"/>
      <use xlink:href="#DejaVuSans-75" transform="translate(324.023438 0)"/>
      <use xlink:href="#DejaVuSans-61" transform="translate(387.402344 0)"/>
      <use xlink:href="#DejaVuSans-72" transform="translate(448.681641 0)"/>
      <use xlink:href="#DejaVuSans-65" transform="translate(487.544922 0)"/>
      <use xlink:href="#DejaVuSans-20" transform="translate(549.068359 0)"/>
      <use xlink:href="#DejaVuSans-66" transform="translate(580.855469 0)"/>
      <use xlink:href="#DejaVuSans-69" transform="translate(616.060547 0)"/>
      <use xlink:href="#DejaVuSans-74" transform="translate(643.84375 0)"/>
     </g>
    </g>
    <g id="line2d_22">
     <path d="M 1019.17125 175.194375 
L 1043.17125 175.194375 
L 1067.17125 175.194375 
" style="fill: none; stroke: #d62728; stroke-width: 1.5; stroke-linecap: square"/>
    </g>
    <g id="text_19">
     <!-- Exponential fit -->
     <g transform="translate(1086.37125 183.594375) scale(0.24 -0.24)">
      <defs>
       <path id="DejaVuSans-45" d="M 628 4666 
L 3578 4666 
L 3578 4134 
L 1259 4134 
L 1259 2753 
L 3481 2753 
L 3481 2222 
L 1259 2222 
L 1259 531 
L 3634 531 
L 3634 0 
L 628 0 
L 628 4666 
z
" transform="scale(0.015625)"/>
       <path id="DejaVuSans-78" d="M 3513 3500 
L 2247 1797 
L 3578 0 
L 2900 0 
L 1881 1375 
L 863 0 
L 184 0 
L 1544 1831 
L 300 3500 
L 978 3500 
L 1906 2253 
L 2834 3500 
L 3513 3500 
z
" transform="scale(0.015625)"/>
       <path id="DejaVuSans-70" d="M 1159 525 
L 1159 -1331 
L 581 -1331 
L 581 3500 
L 1159 3500 
L 1159 2969 
Q 1341 3281 1617 3432 
Q 1894 3584 2278 3584 
Q 2916 3584 3314 3078 
Q 3713 2572 3713 1747 
Q 3713 922 3314 415 
Q 2916 -91 2278 -91 
Q 1894 -91 1617 61 
Q 1341 213 1159 525 
z
M 3116 1747 
Q 3116 2381 2855 2742 
Q 2594 3103 2138 3103 
Q 1681 3103 1420 2742 
Q 1159 2381 1159 1747 
Q 1159 1113 1420 752 
Q 1681 391 2138 391 
Q 2594 391 2855 752 
Q 3116 1113 3116 1747 
z
" transform="scale(0.015625)"/>
      </defs>
      <use xlink:href="#DejaVuSans-45"/>
      <use xlink:href="#DejaVuSans-78" transform="translate(63.183594 0)"/>
      <use xlink:href="#DejaVuSans-70" transform="translate(122.363281 0)"/>
      <use xlink:href="#DejaVuSans-6f" transform="translate(185.839844 0)"/>
      <use xlink:href="#DejaVuSans-6e" transform="translate(247.021484 0)"/>
      <use xlink:href="#DejaVuSans-65" transform="translate(310.400391 0)"/>
      <use xlink:href="#DejaVuSans-6e" transform="translate(371.923828 0)"/>
      <use xlink:href="#DejaVuSans-74" transform="translate(435.302734 0)"/>
      <use xlink:href="#DejaVuSans-69" transform="translate(474.511719 0)"/>
      <use xlink:href="#DejaVuSans-61" transform="translate(502.294922 0)"/>
      <use xlink:href="#DejaVuSans-6c" transform="translate(563.574219 0)"/>
      <use xlink:href="#DejaVuSans-20" transform="translate(591.357422 0)"/>
      <use xlink:href="#DejaVuSans-66" transform="translate(623.144531 0)"/>
      <use xlink:href="#DejaVuSans-69" transform="translate(658.349609 0)"/>
      <use xlink:href="#DejaVuSans-74" transform="translate(686.132812 0)"/>
     </g>
    </g>
    <g id="line2d_23">
     <path d="M 1019.17125 210.421875 
L 1043.17125 210.421875 
L 1067.17125 210.421875 
" style="fill: none; stroke: #9467bd; stroke-width: 1.5; stroke-linecap: square"/>
    </g>
    <g id="text_20">
     <!-- Laplace fit -->
     <g transform="translate(1086.37125 218.821875) scale(0.24 -0.24)">
      <defs>
       <path id="DejaVuSans-4c" d="M 628 4666 
L 1259 4666 
L 1259 531 
L 3531 531 
L 3531 0 
L 628 0 
L 628 4666 
z
" transform="scale(0.015625)"/>
       <path id="DejaVuSans-63" d="M 3122 3366 
L 3122 2828 
Q 2878 2963 2633 3030 
Q 2388 3097 2138 3097 
Q 1578 3097 1268 2742 
Q 959 2388 959 1747 
Q 959 1106 1268 751 
Q 1578 397 2138 397 
Q 2388 397 2633 464 
Q 2878 531 3122 666 
L 3122 134 
Q 2881 22 2623 -34 
Q 2366 -91 2075 -91 
Q 1284 -91 818 406 
Q 353 903 353 1747 
Q 353 2603 823 3093 
Q 1294 3584 2113 3584 
Q 2378 3584 2631 3529 
Q 2884 3475 3122 3366 
z
" transform="scale(0.015625)"/>
      </defs>
      <use xlink:href="#DejaVuSans-4c"/>
      <use xlink:href="#DejaVuSans-61" transform="translate(55.712891 0)"/>
      <use xlink:href="#DejaVuSans-70" transform="translate(116.992188 0)"/>
      <use xlink:href="#DejaVuSans-6c" transform="translate(180.46875 0)"/>
      <use xlink:href="#DejaVuSans-61" transform="translate(208.251953 0)"/>
      <use xlink:href="#DejaVuSans-63" transform="translate(269.53125 0)"/>
      <use xlink:href="#DejaVuSans-65" transform="translate(324.511719 0)"/>
      <use xlink:href="#DejaVuSans-20" transform="translate(386.035156 0)"/>
      <use xlink:href="#DejaVuSans-66" transform="translate(417.822266 0)"/>
      <use xlink:href="#DejaVuSans-69" transform="translate(453.027344 0)"/>
      <use xlink:href="#DejaVuSans-74" transform="translate(480.810547 0)"/>
     </g>
    </g>
    <g id="line2d_24">
     <path d="M 1019.17125 245.649375 
L 1043.17125 245.649375 
L 1067.17125 245.649375 
" style="fill: none; stroke: #8c564b; stroke-width: 1.5; stroke-linecap: square"/>
    </g>
    <g id="text_21">
     <!-- LogNorm fit -->
     <g transform="translate(1086.37125 254.049375) scale(0.24 -0.24)">
      <defs>
       <path id="DejaVuSans-67" d="M 2906 1791 
Q 2906 2416 2648 2759 
Q 2391 3103 1925 3103 
Q 1463 3103 1205 2759 
Q 947 2416 947 1791 
Q 947 1169 1205 825 
Q 1463 481 1925 481 
Q 2391 481 2648 825 
Q 2906 1169 2906 1791 
z
M 3481 434 
Q 3481 -459 3084 -895 
Q 2688 -1331 1869 -1331 
Q 1566 -1331 1297 -1286 
Q 1028 -1241 775 -1147 
L 775 -588 
Q 1028 -725 1275 -790 
Q 1522 -856 1778 -856 
Q 2344 -856 2625 -561 
Q 2906 -266 2906 331 
L 2906 616 
Q 2728 306 2450 153 
Q 2172 0 1784 0 
Q 1141 0 747 490 
Q 353 981 353 1791 
Q 353 2603 747 3093 
Q 1141 3584 1784 3584 
Q 2172 3584 2450 3431 
Q 2728 3278 2906 2969 
L 2906 3500 
L 3481 3500 
L 3481 434 
z
" transform="scale(0.015625)"/>
      </defs>
      <use xlink:href="#DejaVuSans-4c"/>
      <use xlink:href="#DejaVuSans-6f" transform="translate(53.962891 0)"/>
      <use xlink:href="#DejaVuSans-67" transform="translate(115.144531 0)"/>
      <use xlink:href="#DejaVuSans-4e" transform="translate(178.621094 0)"/>
      <use xlink:href="#DejaVuSans-6f" transform="translate(253.425781 0)"/>
      <use xlink:href="#DejaVuSans-72" transform="translate(314.607422 0)"/>
      <use xlink:href="#DejaVuSans-6d" transform="translate(353.970703 0)"/>
      <use xlink:href="#DejaVuSans-20" transform="translate(451.382812 0)"/>
      <use xlink:href="#DejaVuSans-66" transform="translate(483.169922 0)"/>
      <use xlink:href="#DejaVuSans-69" transform="translate(518.375 0)"/>
      <use xlink:href="#DejaVuSans-74" transform="translate(546.158203 0)"/>
     </g>
    </g>
    <g id="line2d_25">
     <path d="M 1019.17125 280.876875 
L 1043.17125 280.876875 
L 1067.17125 280.876875 
" style="fill: none; stroke: #e377c2; stroke-width: 1.5; stroke-linecap: square"/>
    </g>
    <g id="text_22">
     <!-- Normal fit -->
     <g transform="translate(1086.37125 289.276875) scale(0.24 -0.24)">
      <use xlink:href="#DejaVuSans-4e"/>
      <use xlink:href="#DejaVuSans-6f" transform="translate(74.804688 0)"/>
      <use xlink:href="#DejaVuSans-72" transform="translate(135.986328 0)"/>
      <use xlink:href="#DejaVuSans-6d" transform="translate(175.349609 0)"/>
      <use xlink:href="#DejaVuSans-61" transform="translate(272.761719 0)"/>
      <use xlink:href="#DejaVuSans-6c" transform="translate(334.041016 0)"/>
      <use xlink:href="#DejaVuSans-20" transform="translate(361.824219 0)"/>
      <use xlink:href="#DejaVuSans-66" transform="translate(393.611328 0)"/>
      <use xlink:href="#DejaVuSans-69" transform="translate(428.816406 0)"/>
      <use xlink:href="#DejaVuSans-74" transform="translate(456.599609 0)"/>
     </g>
    </g>
   </g>
  </g>
 </g>
 <defs>
  <clipPath id="p607cb1f547">
   <rect x="72.685313" y="38.075625" width="1356.514688" height="790.70375"/>
  </clipPath>
 </defs>
</svg>
