<?xml version="1.0" encoding="utf-8" standalone="no"?>
<!DOCTYPE svg PUBLIC "-//W3C//DTD SVG 1.1//EN"
  "http://www.w3.org/Graphics/SVG/1.1/DTD/svg11.dtd">
<svg xmlns:xlink="http://www.w3.org/1999/xlink" width="1296pt" height="792pt" viewBox="0 0 1296 792" xmlns="http://www.w3.org/2000/svg" version="1.1">
 <metadata>
  <rdf:RDF xmlns:dc="http://purl.org/dc/elements/1.1/" xmlns:cc="http://creativecommons.org/ns#" xmlns:rdf="http://www.w3.org/1999/02/22-rdf-syntax-ns#">
   <cc:Work>
    <dc:type rdf:resource="http://purl.org/dc/dcmitype/StillImage"/>
    <dc:date>2025-01-18T16:20:12.359664</dc:date>
    <dc:format>image/svg+xml</dc:format>
    <dc:creator>
     <cc:Agent>
      <dc:title>Matplotlib v3.9.2, https://matplotlib.org/</dc:title>
     </cc:Agent>
    </dc:creator>
   </cc:Work>
  </rdf:RDF>
 </metadata>
 <defs>
  <style type="text/css">*{stroke-linejoin: round; stroke-linecap: butt}</style>
 </defs>
 <g id="figure_1">
  <g id="patch_1">
   <path d="M 0 792 
L 1296 792 
L 1296 0 
L 0 0 
z
" style="fill: #ffffff"/>
  </g>
  <g id="axes_1">
   <g id="patch_2">
    <path d="M 104.312 240.706667 
L 1172.032 240.706667 
L 1172.032 38.4 
L 104.312 38.4 
z
" style="fill: #ffffff"/>
   </g>
   <g id="patch_3">
    <path d="M 303.190552 139.553333 
L 343.198648 139.553333 
L 343.198648 233.819483 
L 303.190552 233.819483 
z
" clip-path="url(#p26a6c81ef9)" style="fill: #ff0000; opacity: 0.5; stroke: #ff0000; stroke-width: 1.5; stroke-linejoin: miter"/>
   </g>
   <g id="patch_4">
    <path d="M 361.506906 139.553333 
L 396.050788 139.553333 
L 396.050788 58.277897 
L 361.506906 58.277897 
z
" clip-path="url(#p26a6c81ef9)" style="fill: #ff0000; opacity: 0.5; stroke: #ff0000; stroke-width: 1.5; stroke-linejoin: miter"/>
   </g>
   <g id="patch_5">
    <path d="M 402.331494 139.553333 
L 436.875376 139.553333 
L 436.875376 58.277897 
L 402.331494 58.277897 
z
" clip-path="url(#p26a6c81ef9)" style="fill: #ff0000; opacity: 0.5; stroke: #ff0000; stroke-width: 1.5; stroke-linejoin: miter"/>
   </g>
   <g id="patch_6">
    <path d="M 453.927493 139.553333 
L 493.935589 139.553333 
L 493.935589 233.156041 
L 453.927493 233.156041 
z
" clip-path="url(#p26a6c81ef9)" style="fill: #ff0000; opacity: 0.5; stroke: #ff0000; stroke-width: 1.5; stroke-linejoin: miter"/>
   </g>
   <g id="patch_7">
    <path d="M 782.408411 139.553333 
L 822.416507 139.553333 
L 822.416507 45.950626 
L 782.408411 45.950626 
z
" clip-path="url(#p26a6c81ef9)" style="fill: #ff0000; opacity: 0.5; stroke: #ff0000; stroke-width: 1.5; stroke-linejoin: miter"/>
   </g>
   <g id="patch_8">
    <path d="M 839.468624 139.553333 
L 874.012506 139.553333 
L 874.012506 220.82877 
L 839.468624 220.82877 
z
" clip-path="url(#p26a6c81ef9)" style="fill: #ff0000; opacity: 0.5; stroke: #ff0000; stroke-width: 1.5; stroke-linejoin: miter"/>
   </g>
   <g id="patch_9">
    <path d="M 880.293212 139.553333 
L 914.837094 139.553333 
L 914.837094 220.82877 
L 880.293212 220.82877 
z
" clip-path="url(#p26a6c81ef9)" style="fill: #ff0000; opacity: 0.5; stroke: #ff0000; stroke-width: 1.5; stroke-linejoin: miter"/>
   </g>
   <g id="patch_10">
    <path d="M 933.145352 139.553333 
L 973.153448 139.553333 
L 973.153448 45.287184 
L 933.145352 45.287184 
z
" clip-path="url(#p26a6c81ef9)" style="fill: #ff0000; opacity: 0.5; stroke: #ff0000; stroke-width: 1.5; stroke-linejoin: miter"/>
   </g>
   <g id="matplotlib.axis_1">
    <g id="xtick_1">
     <g id="line2d_1">
      <defs>
       <path id="m2c59f74bbb" d="M 0 0 
L 0 3.5 
" style="stroke: #000000; stroke-width: 0.8"/>
      </defs>
      <g>
       <use xlink:href="#m2c59f74bbb" x="135.715529" y="240.706667" style="stroke: #000000; stroke-width: 0.8"/>
      </g>
     </g>
     <g id="text_1">
      <!-- −80 -->
      <g transform="translate(116.721311 261.383854) scale(0.18 -0.18)">
       <defs>
        <path id="DejaVuSans-2212" d="M 678 2272 
L 4684 2272 
L 4684 1741 
L 678 1741 
L 678 2272 
z
" transform="scale(0.015625)"/>
        <path id="DejaVuSans-38" d="M 2034 2216 
Q 1584 2216 1326 1975 
Q 1069 1734 1069 1313 
Q 1069 891 1326 650 
Q 1584 409 2034 409 
Q 2484 409 2743 651 
Q 3003 894 3003 1313 
Q 3003 1734 2745 1975 
Q 2488 2216 2034 2216 
z
M 1403 2484 
Q 997 2584 770 2862 
Q 544 3141 544 3541 
Q 544 4100 942 4425 
Q 1341 4750 2034 4750 
Q 2731 4750 3128 4425 
Q 3525 4100 3525 3541 
Q 3525 3141 3298 2862 
Q 3072 2584 2669 2484 
Q 3125 2378 3379 2068 
Q 3634 1759 3634 1313 
Q 3634 634 3220 271 
Q 2806 -91 2034 -91 
Q 1263 -91 848 271 
Q 434 634 434 1313 
Q 434 1759 690 2068 
Q 947 2378 1403 2484 
z
M 1172 3481 
Q 1172 3119 1398 2916 
Q 1625 2713 2034 2713 
Q 2441 2713 2670 2916 
Q 2900 3119 2900 3481 
Q 2900 3844 2670 4047 
Q 2441 4250 2034 4250 
Q 1625 4250 1398 4047 
Q 1172 3844 1172 3481 
z
" transform="scale(0.015625)"/>
        <path id="DejaVuSans-30" d="M 2034 4250 
Q 1547 4250 1301 3770 
Q 1056 3291 1056 2328 
Q 1056 1369 1301 889 
Q 1547 409 2034 409 
Q 2525 409 2770 889 
Q 3016 1369 3016 2328 
Q 3016 3291 2770 3770 
Q 2525 4250 2034 4250 
z
M 2034 4750 
Q 2819 4750 3233 4129 
Q 3647 3509 3647 2328 
Q 3647 1150 3233 529 
Q 2819 -91 2034 -91 
Q 1250 -91 836 529 
Q 422 1150 422 2328 
Q 422 3509 836 4129 
Q 1250 4750 2034 4750 
z
" transform="scale(0.015625)"/>
       </defs>
       <use xlink:href="#DejaVuSans-2212"/>
       <use xlink:href="#DejaVuSans-38" x="83.789062"/>
       <use xlink:href="#DejaVuSans-30" x="147.412109"/>
      </g>
     </g>
    </g>
    <g id="xtick_2">
     <g id="line2d_2">
      <g>
       <use xlink:href="#m2c59f74bbb" x="261.329647" y="240.706667" style="stroke: #000000; stroke-width: 0.8"/>
      </g>
     </g>
     <g id="text_2">
      <!-- −60 -->
      <g transform="translate(242.335428 261.383854) scale(0.18 -0.18)">
       <defs>
        <path id="DejaVuSans-36" d="M 2113 2584 
Q 1688 2584 1439 2293 
Q 1191 2003 1191 1497 
Q 1191 994 1439 701 
Q 1688 409 2113 409 
Q 2538 409 2786 701 
Q 3034 994 3034 1497 
Q 3034 2003 2786 2293 
Q 2538 2584 2113 2584 
z
M 3366 4563 
L 3366 3988 
Q 3128 4100 2886 4159 
Q 2644 4219 2406 4219 
Q 1781 4219 1451 3797 
Q 1122 3375 1075 2522 
Q 1259 2794 1537 2939 
Q 1816 3084 2150 3084 
Q 2853 3084 3261 2657 
Q 3669 2231 3669 1497 
Q 3669 778 3244 343 
Q 2819 -91 2113 -91 
Q 1303 -91 875 529 
Q 447 1150 447 2328 
Q 447 3434 972 4092 
Q 1497 4750 2381 4750 
Q 2619 4750 2861 4703 
Q 3103 4656 3366 4563 
z
" transform="scale(0.015625)"/>
       </defs>
       <use xlink:href="#DejaVuSans-2212"/>
       <use xlink:href="#DejaVuSans-36" x="83.789062"/>
       <use xlink:href="#DejaVuSans-30" x="147.412109"/>
      </g>
     </g>
    </g>
    <g id="xtick_3">
     <g id="line2d_3">
      <g>
       <use xlink:href="#m2c59f74bbb" x="386.943765" y="240.706667" style="stroke: #000000; stroke-width: 0.8"/>
      </g>
     </g>
     <g id="text_3">
      <!-- −40 -->
      <g transform="translate(367.949546 261.383854) scale(0.18 -0.18)">
       <defs>
        <path id="DejaVuSans-34" d="M 2419 4116 
L 825 1625 
L 2419 1625 
L 2419 4116 
z
M 2253 4666 
L 3047 4666 
L 3047 1625 
L 3713 1625 
L 3713 1100 
L 3047 1100 
L 3047 0 
L 2419 0 
L 2419 1100 
L 313 1100 
L 313 1709 
L 2253 4666 
z
" transform="scale(0.015625)"/>
       </defs>
       <use xlink:href="#DejaVuSans-2212"/>
       <use xlink:href="#DejaVuSans-34" x="83.789062"/>
       <use xlink:href="#DejaVuSans-30" x="147.412109"/>
      </g>
     </g>
    </g>
    <g id="xtick_4">
     <g id="line2d_4">
      <g>
       <use xlink:href="#m2c59f74bbb" x="512.557882" y="240.706667" style="stroke: #000000; stroke-width: 0.8"/>
      </g>
     </g>
     <g id="text_4">
      <!-- −20 -->
      <g transform="translate(493.563664 261.383854) scale(0.18 -0.18)">
       <defs>
        <path id="DejaVuSans-32" d="M 1228 531 
L 3431 531 
L 3431 0 
L 469 0 
L 469 531 
Q 828 903 1448 1529 
Q 2069 2156 2228 2338 
Q 2531 2678 2651 2914 
Q 2772 3150 2772 3378 
Q 2772 3750 2511 3984 
Q 2250 4219 1831 4219 
Q 1534 4219 1204 4116 
Q 875 4013 500 3803 
L 500 4441 
Q 881 4594 1212 4672 
Q 1544 4750 1819 4750 
Q 2544 4750 2975 4387 
Q 3406 4025 3406 3419 
Q 3406 3131 3298 2873 
Q 3191 2616 2906 2266 
Q 2828 2175 2409 1742 
Q 1991 1309 1228 531 
z
" transform="scale(0.015625)"/>
       </defs>
       <use xlink:href="#DejaVuSans-2212"/>
       <use xlink:href="#DejaVuSans-32" x="83.789062"/>
       <use xlink:href="#DejaVuSans-30" x="147.412109"/>
      </g>
     </g>
    </g>
    <g id="xtick_5">
     <g id="line2d_5">
      <g>
       <use xlink:href="#m2c59f74bbb" x="638.172" y="240.706667" style="stroke: #000000; stroke-width: 0.8"/>
      </g>
     </g>
     <g id="text_5">
      <!-- 0 -->
      <g transform="translate(632.44575 261.383854) scale(0.18 -0.18)">
       <use xlink:href="#DejaVuSans-30"/>
      </g>
     </g>
    </g>
    <g id="xtick_6">
     <g id="line2d_6">
      <g>
       <use xlink:href="#m2c59f74bbb" x="763.786118" y="240.706667" style="stroke: #000000; stroke-width: 0.8"/>
      </g>
     </g>
     <g id="text_6">
      <!-- 20 -->
      <g transform="translate(752.333618 261.383854) scale(0.18 -0.18)">
       <use xlink:href="#DejaVuSans-32"/>
       <use xlink:href="#DejaVuSans-30" x="63.623047"/>
      </g>
     </g>
    </g>
    <g id="xtick_7">
     <g id="line2d_7">
      <g>
       <use xlink:href="#m2c59f74bbb" x="889.400235" y="240.706667" style="stroke: #000000; stroke-width: 0.8"/>
      </g>
     </g>
     <g id="text_7">
      <!-- 40 -->
      <g transform="translate(877.947735 261.383854) scale(0.18 -0.18)">
       <use xlink:href="#DejaVuSans-34"/>
       <use xlink:href="#DejaVuSans-30" x="63.623047"/>
      </g>
     </g>
    </g>
    <g id="xtick_8">
     <g id="line2d_8">
      <g>
       <use xlink:href="#m2c59f74bbb" x="1015.014353" y="240.706667" style="stroke: #000000; stroke-width: 0.8"/>
      </g>
     </g>
     <g id="text_8">
      <!-- 60 -->
      <g transform="translate(1003.561853 261.383854) scale(0.18 -0.18)">
       <use xlink:href="#DejaVuSans-36"/>
       <use xlink:href="#DejaVuSans-30" x="63.623047"/>
      </g>
     </g>
    </g>
    <g id="xtick_9">
     <g id="line2d_9">
      <g>
       <use xlink:href="#m2c59f74bbb" x="1140.628471" y="240.706667" style="stroke: #000000; stroke-width: 0.8"/>
      </g>
     </g>
     <g id="text_9">
      <!-- 80 -->
      <g transform="translate(1129.175971 261.383854) scale(0.18 -0.18)">
       <use xlink:href="#DejaVuSans-38"/>
       <use xlink:href="#DejaVuSans-30" x="63.623047"/>
      </g>
     </g>
    </g>
   </g>
   <g id="matplotlib.axis_2">
    <g id="ytick_1">
     <g id="line2d_10">
      <defs>
       <path id="me25ac5c249" d="M 0 0 
L -3.5 0 
" style="stroke: #000000; stroke-width: 0.8"/>
      </defs>
      <g>
       <use xlink:href="#me25ac5c249" x="104.312" y="223.847778" style="stroke: #000000; stroke-width: 0.8"/>
      </g>
     </g>
     <g id="text_10">
      <!-- −0.050 -->
      <g style="fill: #ff0000" transform="translate(30.697937 230.686372) scale(0.18 -0.18)">
       <defs>
        <path id="DejaVuSans-2e" d="M 684 794 
L 1344 794 
L 1344 0 
L 684 0 
L 684 794 
z
" transform="scale(0.015625)"/>
        <path id="DejaVuSans-35" d="M 691 4666 
L 3169 4666 
L 3169 4134 
L 1269 4134 
L 1269 2991 
Q 1406 3038 1543 3061 
Q 1681 3084 1819 3084 
Q 2600 3084 3056 2656 
Q 3513 2228 3513 1497 
Q 3513 744 3044 326 
Q 2575 -91 1722 -91 
Q 1428 -91 1123 -41 
Q 819 9 494 109 
L 494 744 
Q 775 591 1075 516 
Q 1375 441 1709 441 
Q 2250 441 2565 725 
Q 2881 1009 2881 1497 
Q 2881 1984 2565 2268 
Q 2250 2553 1709 2553 
Q 1456 2553 1204 2497 
Q 953 2441 691 2322 
L 691 4666 
z
" transform="scale(0.015625)"/>
       </defs>
       <use xlink:href="#DejaVuSans-2212"/>
       <use xlink:href="#DejaVuSans-30" x="83.789062"/>
       <use xlink:href="#DejaVuSans-2e" x="147.412109"/>
       <use xlink:href="#DejaVuSans-30" x="179.199219"/>
       <use xlink:href="#DejaVuSans-35" x="242.822266"/>
       <use xlink:href="#DejaVuSans-30" x="306.445312"/>
      </g>
     </g>
    </g>
    <g id="ytick_2">
     <g id="line2d_11">
      <g>
       <use xlink:href="#me25ac5c249" x="104.312" y="181.700556" style="stroke: #000000; stroke-width: 0.8"/>
      </g>
     </g>
     <g id="text_11">
      <!-- −0.025 -->
      <g style="fill: #ff0000" transform="translate(30.697937 188.539149) scale(0.18 -0.18)">
       <use xlink:href="#DejaVuSans-2212"/>
       <use xlink:href="#DejaVuSans-30" x="83.789062"/>
       <use xlink:href="#DejaVuSans-2e" x="147.412109"/>
       <use xlink:href="#DejaVuSans-30" x="179.199219"/>
       <use xlink:href="#DejaVuSans-32" x="242.822266"/>
       <use xlink:href="#DejaVuSans-35" x="306.445312"/>
      </g>
     </g>
    </g>
    <g id="ytick_3">
     <g id="line2d_12">
      <g>
       <use xlink:href="#me25ac5c249" x="104.312" y="139.553333" style="stroke: #000000; stroke-width: 0.8"/>
      </g>
     </g>
     <g id="text_12">
      <!-- 0.000 -->
      <g style="fill: #ff0000" transform="translate(45.781375 146.391927) scale(0.18 -0.18)">
       <use xlink:href="#DejaVuSans-30"/>
       <use xlink:href="#DejaVuSans-2e" x="63.623047"/>
       <use xlink:href="#DejaVuSans-30" x="95.410156"/>
       <use xlink:href="#DejaVuSans-30" x="159.033203"/>
       <use xlink:href="#DejaVuSans-30" x="222.65625"/>
      </g>
     </g>
    </g>
    <g id="ytick_4">
     <g id="line2d_13">
      <g>
       <use xlink:href="#me25ac5c249" x="104.312" y="97.406111" style="stroke: #000000; stroke-width: 0.8"/>
      </g>
     </g>
     <g id="text_13">
      <!-- 0.025 -->
      <g style="fill: #ff0000" transform="translate(45.781375 104.244705) scale(0.18 -0.18)">
       <use xlink:href="#DejaVuSans-30"/>
       <use xlink:href="#DejaVuSans-2e" x="63.623047"/>
       <use xlink:href="#DejaVuSans-30" x="95.410156"/>
       <use xlink:href="#DejaVuSans-32" x="159.033203"/>
       <use xlink:href="#DejaVuSans-35" x="222.65625"/>
      </g>
     </g>
    </g>
    <g id="ytick_5">
     <g id="line2d_14">
      <g>
       <use xlink:href="#me25ac5c249" x="104.312" y="55.258889" style="stroke: #000000; stroke-width: 0.8"/>
      </g>
     </g>
     <g id="text_14">
      <!-- 0.050 -->
      <g style="fill: #ff0000" transform="translate(45.781375 62.097483) scale(0.18 -0.18)">
       <use xlink:href="#DejaVuSans-30"/>
       <use xlink:href="#DejaVuSans-2e" x="63.623047"/>
       <use xlink:href="#DejaVuSans-30" x="95.410156"/>
       <use xlink:href="#DejaVuSans-35" x="159.033203"/>
       <use xlink:href="#DejaVuSans-30" x="222.65625"/>
      </g>
     </g>
    </g>
    <g id="text_15">
     <!-- $1/f=K_{1}L$ $[m^{-1}]$ -->
     <g style="fill: #ff0000" transform="translate(21.914656 224.883333) rotate(-90) scale(0.23 -0.23)">
      <defs>
       <path id="DejaVuSans-31" d="M 794 531 
L 1825 531 
L 1825 4091 
L 703 3866 
L 703 4441 
L 1819 4666 
L 2450 4666 
L 2450 531 
L 3481 531 
L 3481 0 
L 794 0 
L 794 531 
z
" transform="scale(0.015625)"/>
       <path id="DejaVuSans-2f" d="M 1625 4666 
L 2156 4666 
L 531 -594 
L 0 -594 
L 1625 4666 
z
" transform="scale(0.015625)"/>
       <path id="DejaVuSans-Oblique-66" d="M 3059 4863 
L 2969 4384 
L 2419 4384 
Q 2106 4384 1964 4261 
Q 1822 4138 1753 3809 
L 1691 3500 
L 2638 3500 
L 2553 3053 
L 1606 3053 
L 1013 0 
L 434 0 
L 1031 3053 
L 481 3053 
L 563 3500 
L 1113 3500 
L 1159 3744 
Q 1278 4363 1576 4613 
Q 1875 4863 2516 4863 
L 3059 4863 
z
" transform="scale(0.015625)"/>
       <path id="DejaVuSans-3d" d="M 678 2906 
L 4684 2906 
L 4684 2381 
L 678 2381 
L 678 2906 
z
M 678 1631 
L 4684 1631 
L 4684 1100 
L 678 1100 
L 678 1631 
z
" transform="scale(0.015625)"/>
       <path id="DejaVuSans-Oblique-4b" d="M 1081 4666 
L 1716 4666 
L 1331 2700 
L 3781 4666 
L 4622 4666 
L 1850 2438 
L 3878 0 
L 3109 0 
L 1247 2272 
L 806 0 
L 172 0 
L 1081 4666 
z
" transform="scale(0.015625)"/>
       <path id="DejaVuSans-Oblique-4c" d="M 1075 4666 
L 1709 4666 
L 909 525 
L 3181 525 
L 3078 0 
L 172 0 
L 1075 4666 
z
" transform="scale(0.015625)"/>
       <path id="DejaVuSans-20" transform="scale(0.015625)"/>
       <path id="DejaVuSans-5b" d="M 550 4863 
L 1875 4863 
L 1875 4416 
L 1125 4416 
L 1125 -397 
L 1875 -397 
L 1875 -844 
L 550 -844 
L 550 4863 
z
" transform="scale(0.015625)"/>
       <path id="DejaVuSans-Oblique-6d" d="M 5747 2113 
L 5338 0 
L 4763 0 
L 5166 2094 
Q 5191 2228 5203 2325 
Q 5216 2422 5216 2491 
Q 5216 2772 5059 2928 
Q 4903 3084 4622 3084 
Q 4203 3084 3875 2770 
Q 3547 2456 3450 1953 
L 3066 0 
L 2491 0 
L 2900 2094 
Q 2925 2209 2937 2307 
Q 2950 2406 2950 2484 
Q 2950 2769 2794 2926 
Q 2638 3084 2363 3084 
Q 1938 3084 1609 2770 
Q 1281 2456 1184 1953 
L 800 0 
L 225 0 
L 909 3500 
L 1484 3500 
L 1375 2956 
Q 1609 3263 1923 3423 
Q 2238 3584 2597 3584 
Q 2978 3584 3223 3384 
Q 3469 3184 3519 2828 
Q 3781 3197 4126 3390 
Q 4472 3584 4856 3584 
Q 5306 3584 5551 3325 
Q 5797 3066 5797 2591 
Q 5797 2488 5784 2364 
Q 5772 2241 5747 2113 
z
" transform="scale(0.015625)"/>
       <path id="DejaVuSans-5d" d="M 1947 4863 
L 1947 -844 
L 622 -844 
L 622 -397 
L 1369 -397 
L 1369 4416 
L 622 4416 
L 622 4863 
L 1947 4863 
z
" transform="scale(0.015625)"/>
      </defs>
      <use xlink:href="#DejaVuSans-31" transform="translate(0 0.684375)"/>
      <use xlink:href="#DejaVuSans-2f" transform="translate(63.623047 0.684375)"/>
      <use xlink:href="#DejaVuSans-Oblique-66" transform="translate(97.314453 0.684375)"/>
      <use xlink:href="#DejaVuSans-3d" transform="translate(152.001953 0.684375)"/>
      <use xlink:href="#DejaVuSans-Oblique-4b" transform="translate(255.273438 0.684375)"/>
      <use xlink:href="#DejaVuSans-31" transform="translate(320.849609 -15.721875) scale(0.7)"/>
      <use xlink:href="#DejaVuSans-Oblique-4c" transform="translate(368.120117 0.684375)"/>
      <use xlink:href="#DejaVuSans-20" transform="translate(423.833008 0.684375)"/>
      <use xlink:href="#DejaVuSans-5b" transform="translate(455.620117 0.684375)"/>
      <use xlink:href="#DejaVuSans-Oblique-6d" transform="translate(494.633789 0.684375)"/>
      <use xlink:href="#DejaVuSans-2212" transform="translate(596.695794 38.965625) scale(0.7)"/>
      <use xlink:href="#DejaVuSans-31" transform="translate(655.348138 38.965625) scale(0.7)"/>
      <use xlink:href="#DejaVuSans-5d" transform="translate(702.618646 0.684375)"/>
     </g>
    </g>
   </g>
   <g id="line2d_15">
    <path d="M 108.381897 139.553333 
L 129.736297 139.553333 
L 135.175389 139.553333 
L 156.529789 139.553333 
L 161.96888 139.553333 
L 183.32328 139.553333 
L 188.762371 139.553333 
L 210.116771 139.553333 
L 215.555863 139.553333 
L 236.910263 139.553333 
L 242.349354 139.553333 
L 263.703754 139.553333 
L 271.538934 139.553333 
L 271.538934 139.553333 
L 274.066919 139.553333 
L 293.4743 139.553333 
L 297.148513 139.553333 
L 297.148513 139.553333 
L 297.148513 139.553333 
L 297.148513 139.553333 
L 300.182094 139.553333 
L 300.182094 139.553333 
L 300.182094 139.553333 
L 300.182094 139.553333 
L 300.182094 139.553333 
L 303.190552 139.553333 
L 343.198648 139.553333 
L 344.740562 139.553333 
L 346.141159 139.553333 
L 349.62381 139.553333 
L 357.160657 139.553333 
L 361.506906 139.553333 
L 396.050788 139.553333 
L 399.385843 139.553333 
L 399.385843 139.553333 
L 399.385843 139.553333 
L 402.331494 139.553333 
L 436.875376 139.553333 
L 440.147624 139.553333 
L 440.147624 139.553333 
L 450.743175 139.553333 
L 450.743175 139.553333 
L 450.743175 139.553333 
L 453.927493 139.553333 
L 493.935589 139.553333 
L 501.466156 139.553333 
L 501.466156 139.553333 
L 502.640648 139.553333 
L 502.640648 139.553333 
L 502.640648 139.553333 
L 507.037142 139.553333 
L 518.342412 139.553333 
L 619.329882 139.553333 
L 638.172 139.553333 
L 638.172 139.553333 
L 638.172 139.553333 
L 638.172 139.553333 
L 638.172 139.553333 
L 657.014118 139.553333 
L 757.819447 139.553333 
L 769.124718 139.553333 
L 773.609142 139.553333 
L 773.609142 139.553333 
L 773.609142 139.553333 
L 774.444476 139.553333 
L 774.444476 139.553333 
L 782.408411 139.553333 
L 822.416507 139.553333 
L 825.600825 139.553333 
L 825.600825 139.553333 
L 825.600825 139.553333 
L 836.196376 139.553333 
L 836.196376 139.553333 
L 839.468624 139.553333 
L 874.012506 139.553333 
L 876.958157 139.553333 
L 876.958157 139.553333 
L 876.958157 139.553333 
L 880.293212 139.553333 
L 914.837094 139.553333 
L 919.183343 139.553333 
L 926.72019 139.553333 
L 930.202841 139.553333 
L 931.603438 139.553333 
L 933.145352 139.553333 
L 973.153448 139.553333 
L 976.161906 139.553333 
L 976.161906 139.553333 
L 976.161906 139.553333 
L 976.161906 139.553333 
L 976.161906 139.553333 
L 979.195487 139.553333 
L 979.195487 139.553333 
L 979.195487 139.553333 
L 979.195487 139.553333 
L 982.8697 139.553333 
L 1002.277081 139.553333 
L 1004.051381 139.553333 
L 1004.051381 139.553333 
L 1012.640246 139.553333 
L 1033.994646 139.553333 
L 1039.433737 139.553333 
L 1060.788137 139.553333 
L 1066.227229 139.553333 
L 1087.581629 139.553333 
L 1093.02072 139.553333 
L 1114.37512 139.553333 
L 1119.814211 139.553333 
L 1141.168611 139.553333 
L 1146.607703 139.553333 
L 1167.962103 139.553333 
" clip-path="url(#p26a6c81ef9)" style="fill: none; stroke: #000000; stroke-width: 1.5; stroke-linecap: square"/>
   </g>
   <g id="patch_11">
    <path d="M 104.312 240.706667 
L 104.312 38.4 
" style="fill: none; stroke: #000000; stroke-width: 0.8; stroke-linejoin: miter; stroke-linecap: square"/>
   </g>
   <g id="patch_12">
    <path d="M 1172.032 240.706667 
L 1172.032 38.4 
" style="fill: none; stroke: #000000; stroke-width: 0.8; stroke-linejoin: miter; stroke-linecap: square"/>
   </g>
   <g id="patch_13">
    <path d="M 104.312 240.706667 
L 1172.032 240.706667 
" style="fill: none; stroke: #000000; stroke-width: 0.8; stroke-linejoin: miter; stroke-linecap: square"/>
   </g>
   <g id="patch_14">
    <path d="M 104.312 38.4 
L 1172.032 38.4 
" style="fill: none; stroke: #000000; stroke-width: 0.8; stroke-linejoin: miter; stroke-linecap: square"/>
   </g>
   <g id="text_16">
    <!-- IP1 Surroundings -->
    <g transform="translate(519.39075 32.4) scale(0.28 -0.28)">
     <defs>
      <path id="DejaVuSans-49" d="M 628 4666 
L 1259 4666 
L 1259 0 
L 628 0 
L 628 4666 
z
" transform="scale(0.015625)"/>
      <path id="DejaVuSans-50" d="M 1259 4147 
L 1259 2394 
L 2053 2394 
Q 2494 2394 2734 2622 
Q 2975 2850 2975 3272 
Q 2975 3691 2734 3919 
Q 2494 4147 2053 4147 
L 1259 4147 
z
M 628 4666 
L 2053 4666 
Q 2838 4666 3239 4311 
Q 3641 3956 3641 3272 
Q 3641 2581 3239 2228 
Q 2838 1875 2053 1875 
L 1259 1875 
L 1259 0 
L 628 0 
L 628 4666 
z
" transform="scale(0.015625)"/>
      <path id="DejaVuSans-53" d="M 3425 4513 
L 3425 3897 
Q 3066 4069 2747 4153 
Q 2428 4238 2131 4238 
Q 1616 4238 1336 4038 
Q 1056 3838 1056 3469 
Q 1056 3159 1242 3001 
Q 1428 2844 1947 2747 
L 2328 2669 
Q 3034 2534 3370 2195 
Q 3706 1856 3706 1288 
Q 3706 609 3251 259 
Q 2797 -91 1919 -91 
Q 1588 -91 1214 -16 
Q 841 59 441 206 
L 441 856 
Q 825 641 1194 531 
Q 1563 422 1919 422 
Q 2459 422 2753 634 
Q 3047 847 3047 1241 
Q 3047 1584 2836 1778 
Q 2625 1972 2144 2069 
L 1759 2144 
Q 1053 2284 737 2584 
Q 422 2884 422 3419 
Q 422 4038 858 4394 
Q 1294 4750 2059 4750 
Q 2388 4750 2728 4690 
Q 3069 4631 3425 4513 
z
" transform="scale(0.015625)"/>
      <path id="DejaVuSans-75" d="M 544 1381 
L 544 3500 
L 1119 3500 
L 1119 1403 
Q 1119 906 1312 657 
Q 1506 409 1894 409 
Q 2359 409 2629 706 
Q 2900 1003 2900 1516 
L 2900 3500 
L 3475 3500 
L 3475 0 
L 2900 0 
L 2900 538 
Q 2691 219 2414 64 
Q 2138 -91 1772 -91 
Q 1169 -91 856 284 
Q 544 659 544 1381 
z
M 1991 3584 
L 1991 3584 
z
" transform="scale(0.015625)"/>
      <path id="DejaVuSans-72" d="M 2631 2963 
Q 2534 3019 2420 3045 
Q 2306 3072 2169 3072 
Q 1681 3072 1420 2755 
Q 1159 2438 1159 1844 
L 1159 0 
L 581 0 
L 581 3500 
L 1159 3500 
L 1159 2956 
Q 1341 3275 1631 3429 
Q 1922 3584 2338 3584 
Q 2397 3584 2469 3576 
Q 2541 3569 2628 3553 
L 2631 2963 
z
" transform="scale(0.015625)"/>
      <path id="DejaVuSans-6f" d="M 1959 3097 
Q 1497 3097 1228 2736 
Q 959 2375 959 1747 
Q 959 1119 1226 758 
Q 1494 397 1959 397 
Q 2419 397 2687 759 
Q 2956 1122 2956 1747 
Q 2956 2369 2687 2733 
Q 2419 3097 1959 3097 
z
M 1959 3584 
Q 2709 3584 3137 3096 
Q 3566 2609 3566 1747 
Q 3566 888 3137 398 
Q 2709 -91 1959 -91 
Q 1206 -91 779 398 
Q 353 888 353 1747 
Q 353 2609 779 3096 
Q 1206 3584 1959 3584 
z
" transform="scale(0.015625)"/>
      <path id="DejaVuSans-6e" d="M 3513 2113 
L 3513 0 
L 2938 0 
L 2938 2094 
Q 2938 2591 2744 2837 
Q 2550 3084 2163 3084 
Q 1697 3084 1428 2787 
Q 1159 2491 1159 1978 
L 1159 0 
L 581 0 
L 581 3500 
L 1159 3500 
L 1159 2956 
Q 1366 3272 1645 3428 
Q 1925 3584 2291 3584 
Q 2894 3584 3203 3211 
Q 3513 2838 3513 2113 
z
" transform="scale(0.015625)"/>
      <path id="DejaVuSans-64" d="M 2906 2969 
L 2906 4863 
L 3481 4863 
L 3481 0 
L 2906 0 
L 2906 525 
Q 2725 213 2448 61 
Q 2172 -91 1784 -91 
Q 1150 -91 751 415 
Q 353 922 353 1747 
Q 353 2572 751 3078 
Q 1150 3584 1784 3584 
Q 2172 3584 2448 3432 
Q 2725 3281 2906 2969 
z
M 947 1747 
Q 947 1113 1208 752 
Q 1469 391 1925 391 
Q 2381 391 2643 752 
Q 2906 1113 2906 1747 
Q 2906 2381 2643 2742 
Q 2381 3103 1925 3103 
Q 1469 3103 1208 2742 
Q 947 2381 947 1747 
z
" transform="scale(0.015625)"/>
      <path id="DejaVuSans-69" d="M 603 3500 
L 1178 3500 
L 1178 0 
L 603 0 
L 603 3500 
z
M 603 4863 
L 1178 4863 
L 1178 4134 
L 603 4134 
L 603 4863 
z
" transform="scale(0.015625)"/>
      <path id="DejaVuSans-67" d="M 2906 1791 
Q 2906 2416 2648 2759 
Q 2391 3103 1925 3103 
Q 1463 3103 1205 2759 
Q 947 2416 947 1791 
Q 947 1169 1205 825 
Q 1463 481 1925 481 
Q 2391 481 2648 825 
Q 2906 1169 2906 1791 
z
M 3481 434 
Q 3481 -459 3084 -895 
Q 2688 -1331 1869 -1331 
Q 1566 -1331 1297 -1286 
Q 1028 -1241 775 -1147 
L 775 -588 
Q 1028 -725 1275 -790 
Q 1522 -856 1778 -856 
Q 2344 -856 2625 -561 
Q 2906 -266 2906 331 
L 2906 616 
Q 2728 306 2450 153 
Q 2172 0 1784 0 
Q 1141 0 747 490 
Q 353 981 353 1791 
Q 353 2603 747 3093 
Q 1141 3584 1784 3584 
Q 2172 3584 2450 3431 
Q 2728 3278 2906 2969 
L 2906 3500 
L 3481 3500 
L 3481 434 
z
" transform="scale(0.015625)"/>
      <path id="DejaVuSans-73" d="M 2834 3397 
L 2834 2853 
Q 2591 2978 2328 3040 
Q 2066 3103 1784 3103 
Q 1356 3103 1142 2972 
Q 928 2841 928 2578 
Q 928 2378 1081 2264 
Q 1234 2150 1697 2047 
L 1894 2003 
Q 2506 1872 2764 1633 
Q 3022 1394 3022 966 
Q 3022 478 2636 193 
Q 2250 -91 1575 -91 
Q 1294 -91 989 -36 
Q 684 19 347 128 
L 347 722 
Q 666 556 975 473 
Q 1284 391 1588 391 
Q 1994 391 2212 530 
Q 2431 669 2431 922 
Q 2431 1156 2273 1281 
Q 2116 1406 1581 1522 
L 1381 1569 
Q 847 1681 609 1914 
Q 372 2147 372 2553 
Q 372 3047 722 3315 
Q 1072 3584 1716 3584 
Q 2034 3584 2315 3537 
Q 2597 3491 2834 3397 
z
" transform="scale(0.015625)"/>
     </defs>
     <use xlink:href="#DejaVuSans-49"/>
     <use xlink:href="#DejaVuSans-50" x="29.492188"/>
     <use xlink:href="#DejaVuSans-31" x="89.794922"/>
     <use xlink:href="#DejaVuSans-20" x="153.417969"/>
     <use xlink:href="#DejaVuSans-53" x="185.205078"/>
     <use xlink:href="#DejaVuSans-75" x="248.681641"/>
     <use xlink:href="#DejaVuSans-72" x="312.060547"/>
     <use xlink:href="#DejaVuSans-72" x="351.423828"/>
     <use xlink:href="#DejaVuSans-6f" x="390.287109"/>
     <use xlink:href="#DejaVuSans-75" x="451.46875"/>
     <use xlink:href="#DejaVuSans-6e" x="514.847656"/>
     <use xlink:href="#DejaVuSans-64" x="578.226562"/>
     <use xlink:href="#DejaVuSans-69" x="641.703125"/>
     <use xlink:href="#DejaVuSans-6e" x="669.486328"/>
     <use xlink:href="#DejaVuSans-67" x="732.865234"/>
     <use xlink:href="#DejaVuSans-73" x="796.341797"/>
    </g>
   </g>
   <g id="legend_1">
    <g id="patch_15">
     <path d="M 121.112 92.8275 
L 237.512 92.8275 
Q 242.312 92.8275 242.312 88.0275 
L 242.312 55.2 
Q 242.312 50.4 237.512 50.4 
L 121.112 50.4 
Q 116.312 50.4 116.312 55.2 
L 116.312 88.0275 
Q 116.312 92.8275 121.112 92.8275 
z
" style="fill: #ffffff; opacity: 0.8; stroke: #cccccc; stroke-linejoin: miter"/>
    </g>
    <g id="patch_16">
     <path d="M 125.912 78.23625 
L 173.912 78.23625 
L 173.912 61.43625 
L 125.912 61.43625 
z
" style="fill: #ff0000; opacity: 0.5; stroke: #ff0000; stroke-width: 1.5; stroke-linejoin: miter"/>
    </g>
    <g id="text_17">
     <!-- MQ -->
     <g transform="translate(193.112 78.23625) scale(0.24 -0.24)">
      <defs>
       <path id="DejaVuSans-4d" d="M 628 4666 
L 1569 4666 
L 2759 1491 
L 3956 4666 
L 4897 4666 
L 4897 0 
L 4281 0 
L 4281 4097 
L 3078 897 
L 2444 897 
L 1241 4097 
L 1241 0 
L 628 0 
L 628 4666 
z
" transform="scale(0.015625)"/>
       <path id="DejaVuSans-51" d="M 2522 4238 
Q 1834 4238 1429 3725 
Q 1025 3213 1025 2328 
Q 1025 1447 1429 934 
Q 1834 422 2522 422 
Q 3209 422 3611 934 
Q 4013 1447 4013 2328 
Q 4013 3213 3611 3725 
Q 3209 4238 2522 4238 
z
M 3406 84 
L 4238 -825 
L 3475 -825 
L 2784 -78 
Q 2681 -84 2626 -87 
Q 2572 -91 2522 -91 
Q 1538 -91 948 567 
Q 359 1225 359 2328 
Q 359 3434 948 4092 
Q 1538 4750 2522 4750 
Q 3503 4750 4090 4092 
Q 4678 3434 4678 2328 
Q 4678 1516 4351 937 
Q 4025 359 3406 84 
z
" transform="scale(0.015625)"/>
      </defs>
      <use xlink:href="#DejaVuSans-4d"/>
      <use xlink:href="#DejaVuSans-51" x="86.279297"/>
     </g>
    </g>
   </g>
  </g>
  <g id="axes_2">
   <g id="patch_17">
    <path d="M 108.381897 139.553333 
L 129.736297 139.553333 
L 129.736297 91.967068 
L 108.381897 91.967068 
z
" clip-path="url(#p26a6c81ef9)" style="fill: #4169e1; opacity: 0.5; stroke: #4169e1; stroke-width: 1.5; stroke-linejoin: miter"/>
   </g>
   <g id="patch_18">
    <path d="M 135.175389 139.553333 
L 156.529789 139.553333 
L 156.529789 91.967068 
L 135.175389 91.967068 
z
" clip-path="url(#p26a6c81ef9)" style="fill: #4169e1; opacity: 0.5; stroke: #4169e1; stroke-width: 1.5; stroke-linejoin: miter"/>
   </g>
   <g id="patch_19">
    <path d="M 161.96888 139.553333 
L 183.32328 139.553333 
L 183.32328 91.967068 
L 161.96888 91.967068 
z
" clip-path="url(#p26a6c81ef9)" style="fill: #4169e1; opacity: 0.5; stroke: #4169e1; stroke-width: 1.5; stroke-linejoin: miter"/>
   </g>
   <g id="patch_20">
    <path d="M 188.762371 139.553333 
L 210.116771 139.553333 
L 210.116771 91.967068 
L 188.762371 91.967068 
z
" clip-path="url(#p26a6c81ef9)" style="fill: #4169e1; opacity: 0.5; stroke: #4169e1; stroke-width: 1.5; stroke-linejoin: miter"/>
   </g>
   <g id="patch_21">
    <path d="M 215.555863 139.553333 
L 236.910263 139.553333 
L 236.910263 91.967068 
L 215.555863 91.967068 
z
" clip-path="url(#p26a6c81ef9)" style="fill: #4169e1; opacity: 0.5; stroke: #4169e1; stroke-width: 1.5; stroke-linejoin: miter"/>
   </g>
   <g id="patch_22">
    <path d="M 242.349354 139.553333 
L 263.703754 139.553333 
L 263.703754 91.967068 
L 242.349354 91.967068 
z
" clip-path="url(#p26a6c81ef9)" style="fill: #4169e1; opacity: 0.5; stroke: #4169e1; stroke-width: 1.5; stroke-linejoin: miter"/>
   </g>
   <g id="patch_23">
    <path d="M 1012.640246 139.553333 
L 1033.994646 139.553333 
L 1033.994646 187.139599 
L 1012.640246 187.139599 
z
" clip-path="url(#p26a6c81ef9)" style="fill: #4169e1; opacity: 0.5; stroke: #4169e1; stroke-width: 1.5; stroke-linejoin: miter"/>
   </g>
   <g id="patch_24">
    <path d="M 1039.433737 139.553333 
L 1060.788137 139.553333 
L 1060.788137 187.139599 
L 1039.433737 187.139599 
z
" clip-path="url(#p26a6c81ef9)" style="fill: #4169e1; opacity: 0.5; stroke: #4169e1; stroke-width: 1.5; stroke-linejoin: miter"/>
   </g>
   <g id="patch_25">
    <path d="M 1066.227229 139.553333 
L 1087.581629 139.553333 
L 1087.581629 187.139599 
L 1066.227229 187.139599 
z
" clip-path="url(#p26a6c81ef9)" style="fill: #4169e1; opacity: 0.5; stroke: #4169e1; stroke-width: 1.5; stroke-linejoin: miter"/>
   </g>
   <g id="patch_26">
    <path d="M 1093.02072 139.553333 
L 1114.37512 139.553333 
L 1114.37512 187.139599 
L 1093.02072 187.139599 
z
" clip-path="url(#p26a6c81ef9)" style="fill: #4169e1; opacity: 0.5; stroke: #4169e1; stroke-width: 1.5; stroke-linejoin: miter"/>
   </g>
   <g id="patch_27">
    <path d="M 1119.814211 139.553333 
L 1141.168611 139.553333 
L 1141.168611 187.139599 
L 1119.814211 187.139599 
z
" clip-path="url(#p26a6c81ef9)" style="fill: #4169e1; opacity: 0.5; stroke: #4169e1; stroke-width: 1.5; stroke-linejoin: miter"/>
   </g>
   <g id="patch_28">
    <path d="M 1146.607703 139.553333 
L 1167.962103 139.553333 
L 1167.962103 187.139599 
L 1146.607703 187.139599 
z
" clip-path="url(#p26a6c81ef9)" style="fill: #4169e1; opacity: 0.5; stroke: #4169e1; stroke-width: 1.5; stroke-linejoin: miter"/>
   </g>
   <g id="matplotlib.axis_3">
    <g id="ytick_6">
     <g id="line2d_16">
      <defs>
       <path id="m7ad14c46d2" d="M 0 0 
L 3.5 0 
" style="stroke: #000000; stroke-width: 0.8"/>
      </defs>
      <g>
       <use xlink:href="#m7ad14c46d2" x="1172.032" y="240.706667" style="stroke: #000000; stroke-width: 0.8"/>
      </g>
     </g>
     <g id="text_18">
      <!-- −0.0004 -->
      <g style="fill: #4169e1" transform="translate(1179.032 247.54526) scale(0.18 -0.18)">
       <use xlink:href="#DejaVuSans-2212"/>
       <use xlink:href="#DejaVuSans-30" x="83.789062"/>
       <use xlink:href="#DejaVuSans-2e" x="147.412109"/>
       <use xlink:href="#DejaVuSans-30" x="179.199219"/>
       <use xlink:href="#DejaVuSans-30" x="242.822266"/>
       <use xlink:href="#DejaVuSans-30" x="306.445312"/>
       <use xlink:href="#DejaVuSans-34" x="370.068359"/>
      </g>
     </g>
    </g>
    <g id="ytick_7">
     <g id="line2d_17">
      <g>
       <use xlink:href="#m7ad14c46d2" x="1172.032" y="190.13" style="stroke: #000000; stroke-width: 0.8"/>
      </g>
     </g>
     <g id="text_19">
      <!-- −0.0002 -->
      <g style="fill: #4169e1" transform="translate(1179.032 196.968594) scale(0.18 -0.18)">
       <use xlink:href="#DejaVuSans-2212"/>
       <use xlink:href="#DejaVuSans-30" x="83.789062"/>
       <use xlink:href="#DejaVuSans-2e" x="147.412109"/>
       <use xlink:href="#DejaVuSans-30" x="179.199219"/>
       <use xlink:href="#DejaVuSans-30" x="242.822266"/>
       <use xlink:href="#DejaVuSans-30" x="306.445312"/>
       <use xlink:href="#DejaVuSans-32" x="370.068359"/>
      </g>
     </g>
    </g>
    <g id="ytick_8">
     <g id="line2d_18">
      <g>
       <use xlink:href="#m7ad14c46d2" x="1172.032" y="139.553333" style="stroke: #000000; stroke-width: 0.8"/>
      </g>
     </g>
     <g id="text_20">
      <!-- 0.0000 -->
      <g style="fill: #4169e1" transform="translate(1179.032 146.391927) scale(0.18 -0.18)">
       <use xlink:href="#DejaVuSans-30"/>
       <use xlink:href="#DejaVuSans-2e" x="63.623047"/>
       <use xlink:href="#DejaVuSans-30" x="95.410156"/>
       <use xlink:href="#DejaVuSans-30" x="159.033203"/>
       <use xlink:href="#DejaVuSans-30" x="222.65625"/>
       <use xlink:href="#DejaVuSans-30" x="286.279297"/>
      </g>
     </g>
    </g>
    <g id="ytick_9">
     <g id="line2d_19">
      <g>
       <use xlink:href="#m7ad14c46d2" x="1172.032" y="88.976667" style="stroke: #000000; stroke-width: 0.8"/>
      </g>
     </g>
     <g id="text_21">
      <!-- 0.0002 -->
      <g style="fill: #4169e1" transform="translate(1179.032 95.81526) scale(0.18 -0.18)">
       <use xlink:href="#DejaVuSans-30"/>
       <use xlink:href="#DejaVuSans-2e" x="63.623047"/>
       <use xlink:href="#DejaVuSans-30" x="95.410156"/>
       <use xlink:href="#DejaVuSans-30" x="159.033203"/>
       <use xlink:href="#DejaVuSans-30" x="222.65625"/>
       <use xlink:href="#DejaVuSans-32" x="286.279297"/>
      </g>
     </g>
    </g>
    <g id="ytick_10">
     <g id="line2d_20">
      <g>
       <use xlink:href="#m7ad14c46d2" x="1172.032" y="38.4" style="stroke: #000000; stroke-width: 0.8"/>
      </g>
     </g>
     <g id="text_22">
      <!-- 0.0004 -->
      <g style="fill: #4169e1" transform="translate(1179.032 45.238594) scale(0.18 -0.18)">
       <use xlink:href="#DejaVuSans-30"/>
       <use xlink:href="#DejaVuSans-2e" x="63.623047"/>
       <use xlink:href="#DejaVuSans-30" x="95.410156"/>
       <use xlink:href="#DejaVuSans-30" x="159.033203"/>
       <use xlink:href="#DejaVuSans-30" x="222.65625"/>
       <use xlink:href="#DejaVuSans-34" x="286.279297"/>
      </g>
     </g>
    </g>
    <g id="text_23">
     <!-- $\theta=K_{0}L$ $[rad]$ -->
     <g style="fill: #4169e1" transform="translate(1278.574969 211.888333) rotate(-90) scale(0.23 -0.23)">
      <defs>
       <path id="DejaVuSans-Oblique-3b8" d="M 2913 2219 
L 925 2219 
Q 791 1284 928 888 
Q 1100 400 1566 400 
Q 2034 400 2391 891 
Q 2703 1322 2913 2219 
z
M 3009 2750 
Q 3094 3638 2984 3950 
Q 2813 4444 2353 4444 
Q 1875 4444 1525 3956 
Q 1250 3563 1034 2750 
L 3009 2750 
z
M 2444 4913 
Q 3194 4913 3494 4250 
Q 3794 3591 3566 2422 
Q 3341 1256 2781 594 
Q 2225 -72 1475 -72 
Q 722 -72 425 594 
Q 128 1256 353 2422 
Q 581 3591 1134 4250 
Q 1691 4913 2444 4913 
z
" transform="scale(0.015625)"/>
       <path id="DejaVuSans-Oblique-72" d="M 2853 2969 
Q 2766 3016 2653 3041 
Q 2541 3066 2413 3066 
Q 1953 3066 1609 2717 
Q 1266 2369 1153 1784 
L 800 0 
L 225 0 
L 909 3500 
L 1484 3500 
L 1375 2956 
Q 1603 3259 1920 3421 
Q 2238 3584 2597 3584 
Q 2691 3584 2781 3573 
Q 2872 3563 2963 3538 
L 2853 2969 
z
" transform="scale(0.015625)"/>
       <path id="DejaVuSans-Oblique-61" d="M 3438 1997 
L 3047 0 
L 2472 0 
L 2578 531 
Q 2325 219 2001 64 
Q 1678 -91 1281 -91 
Q 834 -91 548 182 
Q 263 456 263 884 
Q 263 1497 752 1853 
Q 1241 2209 2100 2209 
L 2900 2209 
L 2931 2363 
Q 2938 2388 2941 2417 
Q 2944 2447 2944 2509 
Q 2944 2788 2717 2942 
Q 2491 3097 2081 3097 
Q 1800 3097 1504 3025 
Q 1209 2953 897 2809 
L 997 3341 
Q 1322 3463 1633 3523 
Q 1944 3584 2234 3584 
Q 2853 3584 3176 3315 
Q 3500 3047 3500 2534 
Q 3500 2431 3484 2292 
Q 3469 2153 3438 1997 
z
M 2816 1759 
L 2241 1759 
Q 1534 1759 1195 1570 
Q 856 1381 856 984 
Q 856 709 1029 553 
Q 1203 397 1509 397 
Q 1978 397 2328 733 
Q 2678 1069 2791 1631 
L 2816 1759 
z
" transform="scale(0.015625)"/>
       <path id="DejaVuSans-Oblique-64" d="M 2675 525 
Q 2444 222 2128 65 
Q 1813 -91 1428 -91 
Q 903 -91 598 267 
Q 294 625 294 1247 
Q 294 1766 478 2236 
Q 663 2706 1013 3078 
Q 1244 3325 1534 3454 
Q 1825 3584 2144 3584 
Q 2481 3584 2739 3421 
Q 2997 3259 3138 2956 
L 3513 4863 
L 4091 4863 
L 3144 0 
L 2566 0 
L 2675 525 
z
M 891 1350 
Q 891 897 1095 644 
Q 1300 391 1663 391 
Q 1931 391 2161 520 
Q 2391 650 2566 903 
Q 2750 1166 2856 1509 
Q 2963 1853 2963 2188 
Q 2963 2622 2758 2865 
Q 2553 3109 2194 3109 
Q 1922 3109 1687 2981 
Q 1453 2853 1288 2613 
Q 1106 2353 998 2009 
Q 891 1666 891 1350 
z
" transform="scale(0.015625)"/>
      </defs>
      <use xlink:href="#DejaVuSans-Oblique-3b8" transform="translate(0 0.234375)"/>
      <use xlink:href="#DejaVuSans-3d" transform="translate(80.664062 0.234375)"/>
      <use xlink:href="#DejaVuSans-Oblique-4b" transform="translate(183.935547 0.234375)"/>
      <use xlink:href="#DejaVuSans-30" transform="translate(249.511719 -16.171875) scale(0.7)"/>
      <use xlink:href="#DejaVuSans-Oblique-4c" transform="translate(296.782227 0.234375)"/>
      <use xlink:href="#DejaVuSans-20" transform="translate(352.495117 0.234375)"/>
      <use xlink:href="#DejaVuSans-5b" transform="translate(384.282227 0.234375)"/>
      <use xlink:href="#DejaVuSans-Oblique-72" transform="translate(423.295898 0.234375)"/>
      <use xlink:href="#DejaVuSans-Oblique-61" transform="translate(464.40918 0.234375)"/>
      <use xlink:href="#DejaVuSans-Oblique-64" transform="translate(525.688477 0.234375)"/>
      <use xlink:href="#DejaVuSans-5d" transform="translate(589.165039 0.234375)"/>
     </g>
    </g>
   </g>
   <g id="patch_29">
    <path d="M 104.312 240.706667 
L 104.312 38.4 
" style="fill: none; stroke: #000000; stroke-width: 0.8; stroke-linejoin: miter; stroke-linecap: square"/>
   </g>
   <g id="patch_30">
    <path d="M 1172.032 240.706667 
L 1172.032 38.4 
" style="fill: none; stroke: #000000; stroke-width: 0.8; stroke-linejoin: miter; stroke-linecap: square"/>
   </g>
   <g id="patch_31">
    <path d="M 104.312 240.706667 
L 1172.032 240.706667 
" style="fill: none; stroke: #000000; stroke-width: 0.8; stroke-linejoin: miter; stroke-linecap: square"/>
   </g>
   <g id="patch_32">
    <path d="M 104.312 38.4 
L 1172.032 38.4 
" style="fill: none; stroke: #000000; stroke-width: 0.8; stroke-linejoin: miter; stroke-linecap: square"/>
   </g>
   <g id="legend_2">
    <g id="patch_33">
     <path d="M 1041.25825 92.8275 
L 1155.232 92.8275 
Q 1160.032 92.8275 1160.032 88.0275 
L 1160.032 55.2 
Q 1160.032 50.4 1155.232 50.4 
L 1041.25825 50.4 
Q 1036.45825 50.4 1036.45825 55.2 
L 1036.45825 88.0275 
Q 1036.45825 92.8275 1041.25825 92.8275 
z
" style="fill: #ffffff; opacity: 0.8; stroke: #cccccc; stroke-linejoin: miter"/>
    </g>
    <g id="patch_34">
     <path d="M 1046.05825 78.23625 
L 1094.05825 78.23625 
L 1094.05825 61.43625 
L 1046.05825 61.43625 
z
" style="fill: #4169e1; opacity: 0.5; stroke: #4169e1; stroke-width: 1.5; stroke-linejoin: miter"/>
    </g>
    <g id="text_24">
     <!-- MB -->
     <g transform="translate(1113.25825 78.23625) scale(0.24 -0.24)">
      <defs>
       <path id="DejaVuSans-42" d="M 1259 2228 
L 1259 519 
L 2272 519 
Q 2781 519 3026 730 
Q 3272 941 3272 1375 
Q 3272 1813 3026 2020 
Q 2781 2228 2272 2228 
L 1259 2228 
z
M 1259 4147 
L 1259 2741 
L 2194 2741 
Q 2656 2741 2882 2914 
Q 3109 3088 3109 3444 
Q 3109 3797 2882 3972 
Q 2656 4147 2194 4147 
L 1259 4147 
z
M 628 4666 
L 2241 4666 
Q 2963 4666 3353 4366 
Q 3744 4066 3744 3513 
Q 3744 3084 3544 2831 
Q 3344 2578 2956 2516 
Q 3422 2416 3680 2098 
Q 3938 1781 3938 1306 
Q 3938 681 3513 340 
Q 3088 0 2303 0 
L 628 0 
L 628 4666 
z
" transform="scale(0.015625)"/>
      </defs>
      <use xlink:href="#DejaVuSans-4d"/>
      <use xlink:href="#DejaVuSans-42" x="86.279297"/>
     </g>
    </g>
   </g>
  </g>
  <g id="axes_3">
   <g id="patch_35">
    <path d="M 104.312 729.16 
L 1172.032 729.16 
L 1172.032 282.626667 
L 104.312 282.626667 
z
" style="fill: #ffffff"/>
   </g>
   <g id="matplotlib.axis_4">
    <g id="xtick_10">
     <g id="line2d_21">
      <g>
       <use xlink:href="#m2c59f74bbb" x="135.715529" y="729.16" style="stroke: #000000; stroke-width: 0.8"/>
      </g>
     </g>
     <g id="text_25">
      <!-- −80 -->
      <g transform="translate(116.721311 749.837188) scale(0.18 -0.18)">
       <use xlink:href="#DejaVuSans-2212"/>
       <use xlink:href="#DejaVuSans-38" x="83.789062"/>
       <use xlink:href="#DejaVuSans-30" x="147.412109"/>
      </g>
     </g>
    </g>
    <g id="xtick_11">
     <g id="line2d_22">
      <g>
       <use xlink:href="#m2c59f74bbb" x="261.329647" y="729.16" style="stroke: #000000; stroke-width: 0.8"/>
      </g>
     </g>
     <g id="text_26">
      <!-- −60 -->
      <g transform="translate(242.335428 749.837188) scale(0.18 -0.18)">
       <use xlink:href="#DejaVuSans-2212"/>
       <use xlink:href="#DejaVuSans-36" x="83.789062"/>
       <use xlink:href="#DejaVuSans-30" x="147.412109"/>
      </g>
     </g>
    </g>
    <g id="xtick_12">
     <g id="line2d_23">
      <g>
       <use xlink:href="#m2c59f74bbb" x="386.943765" y="729.16" style="stroke: #000000; stroke-width: 0.8"/>
      </g>
     </g>
     <g id="text_27">
      <!-- −40 -->
      <g transform="translate(367.949546 749.837188) scale(0.18 -0.18)">
       <use xlink:href="#DejaVuSans-2212"/>
       <use xlink:href="#DejaVuSans-34" x="83.789062"/>
       <use xlink:href="#DejaVuSans-30" x="147.412109"/>
      </g>
     </g>
    </g>
    <g id="xtick_13">
     <g id="line2d_24">
      <g>
       <use xlink:href="#m2c59f74bbb" x="512.557882" y="729.16" style="stroke: #000000; stroke-width: 0.8"/>
      </g>
     </g>
     <g id="text_28">
      <!-- −20 -->
      <g transform="translate(493.563664 749.837188) scale(0.18 -0.18)">
       <use xlink:href="#DejaVuSans-2212"/>
       <use xlink:href="#DejaVuSans-32" x="83.789062"/>
       <use xlink:href="#DejaVuSans-30" x="147.412109"/>
      </g>
     </g>
    </g>
    <g id="xtick_14">
     <g id="line2d_25">
      <g>
       <use xlink:href="#m2c59f74bbb" x="638.172" y="729.16" style="stroke: #000000; stroke-width: 0.8"/>
      </g>
     </g>
     <g id="text_29">
      <!-- 0 -->
      <g transform="translate(632.44575 749.837188) scale(0.18 -0.18)">
       <use xlink:href="#DejaVuSans-30"/>
      </g>
     </g>
    </g>
    <g id="xtick_15">
     <g id="line2d_26">
      <g>
       <use xlink:href="#m2c59f74bbb" x="763.786118" y="729.16" style="stroke: #000000; stroke-width: 0.8"/>
      </g>
     </g>
     <g id="text_30">
      <!-- 20 -->
      <g transform="translate(752.333618 749.837188) scale(0.18 -0.18)">
       <use xlink:href="#DejaVuSans-32"/>
       <use xlink:href="#DejaVuSans-30" x="63.623047"/>
      </g>
     </g>
    </g>
    <g id="xtick_16">
     <g id="line2d_27">
      <g>
       <use xlink:href="#m2c59f74bbb" x="889.400235" y="729.16" style="stroke: #000000; stroke-width: 0.8"/>
      </g>
     </g>
     <g id="text_31">
      <!-- 40 -->
      <g transform="translate(877.947735 749.837188) scale(0.18 -0.18)">
       <use xlink:href="#DejaVuSans-34"/>
       <use xlink:href="#DejaVuSans-30" x="63.623047"/>
      </g>
     </g>
    </g>
    <g id="xtick_17">
     <g id="line2d_28">
      <g>
       <use xlink:href="#m2c59f74bbb" x="1015.014353" y="729.16" style="stroke: #000000; stroke-width: 0.8"/>
      </g>
     </g>
     <g id="text_32">
      <!-- 60 -->
      <g transform="translate(1003.561853 749.837188) scale(0.18 -0.18)">
       <use xlink:href="#DejaVuSans-36"/>
       <use xlink:href="#DejaVuSans-30" x="63.623047"/>
      </g>
     </g>
    </g>
    <g id="xtick_18">
     <g id="line2d_29">
      <g>
       <use xlink:href="#m2c59f74bbb" x="1140.628471" y="729.16" style="stroke: #000000; stroke-width: 0.8"/>
      </g>
     </g>
     <g id="text_33">
      <!-- 80 -->
      <g transform="translate(1129.175971 749.837188) scale(0.18 -0.18)">
       <use xlink:href="#DejaVuSans-38"/>
       <use xlink:href="#DejaVuSans-30" x="63.623047"/>
      </g>
     </g>
    </g>
    <g id="text_34">
     <!-- $S$ $[m]$ -->
     <g transform="translate(607.007 775.057031) scale(0.23 -0.23)">
      <defs>
       <path id="DejaVuSans-Oblique-53" d="M 3859 4513 
L 3738 3897 
Q 3422 4066 3111 4152 
Q 2800 4238 2509 4238 
Q 1944 4238 1609 3991 
Q 1275 3744 1275 3334 
Q 1275 3109 1398 2989 
Q 1522 2869 2034 2731 
L 2413 2638 
Q 3053 2472 3303 2217 
Q 3553 1963 3553 1503 
Q 3553 797 2998 353 
Q 2444 -91 1538 -91 
Q 1166 -91 791 -17 
Q 416 56 38 206 
L 166 856 
Q 513 641 861 531 
Q 1209 422 1556 422 
Q 2147 422 2503 684 
Q 2859 947 2859 1369 
Q 2859 1650 2717 1795 
Q 2575 1941 2106 2059 
L 1728 2156 
Q 1081 2325 845 2545 
Q 609 2766 609 3163 
Q 609 3859 1145 4304 
Q 1681 4750 2541 4750 
Q 2875 4750 3203 4690 
Q 3531 4631 3859 4513 
z
" transform="scale(0.015625)"/>
      </defs>
      <use xlink:href="#DejaVuSans-Oblique-53" transform="translate(0 0.015625)"/>
      <use xlink:href="#DejaVuSans-20" transform="translate(63.476562 0.015625)"/>
      <use xlink:href="#DejaVuSans-5b" transform="translate(95.263672 0.015625)"/>
      <use xlink:href="#DejaVuSans-Oblique-6d" transform="translate(134.277344 0.015625)"/>
      <use xlink:href="#DejaVuSans-5d" transform="translate(231.689453 0.015625)"/>
     </g>
    </g>
   </g>
   <g id="matplotlib.axis_5">
    <g id="ytick_11">
     <g id="line2d_30">
      <g>
       <use xlink:href="#me25ac5c249" x="104.312" y="708.878158" style="stroke: #000000; stroke-width: 0.8"/>
      </g>
     </g>
     <g id="text_35">
      <!-- 0 -->
      <g transform="translate(85.8595 715.716752) scale(0.18 -0.18)">
       <use xlink:href="#DejaVuSans-30"/>
      </g>
     </g>
    </g>
    <g id="ytick_12">
     <g id="line2d_31">
      <g>
       <use xlink:href="#me25ac5c249" x="104.312" y="658.45325" style="stroke: #000000; stroke-width: 0.8"/>
      </g>
     </g>
     <g id="text_36">
      <!-- 1000 -->
      <g transform="translate(51.502 665.291844) scale(0.18 -0.18)">
       <use xlink:href="#DejaVuSans-31"/>
       <use xlink:href="#DejaVuSans-30" x="63.623047"/>
       <use xlink:href="#DejaVuSans-30" x="127.246094"/>
       <use xlink:href="#DejaVuSans-30" x="190.869141"/>
      </g>
     </g>
    </g>
    <g id="ytick_13">
     <g id="line2d_32">
      <g>
       <use xlink:href="#me25ac5c249" x="104.312" y="608.028343" style="stroke: #000000; stroke-width: 0.8"/>
      </g>
     </g>
     <g id="text_37">
      <!-- 2000 -->
      <g transform="translate(51.502 614.866937) scale(0.18 -0.18)">
       <use xlink:href="#DejaVuSans-32"/>
       <use xlink:href="#DejaVuSans-30" x="63.623047"/>
       <use xlink:href="#DejaVuSans-30" x="127.246094"/>
       <use xlink:href="#DejaVuSans-30" x="190.869141"/>
      </g>
     </g>
    </g>
    <g id="ytick_14">
     <g id="line2d_33">
      <g>
       <use xlink:href="#me25ac5c249" x="104.312" y="557.603435" style="stroke: #000000; stroke-width: 0.8"/>
      </g>
     </g>
     <g id="text_38">
      <!-- 3000 -->
      <g transform="translate(51.502 564.442029) scale(0.18 -0.18)">
       <defs>
        <path id="DejaVuSans-33" d="M 2597 2516 
Q 3050 2419 3304 2112 
Q 3559 1806 3559 1356 
Q 3559 666 3084 287 
Q 2609 -91 1734 -91 
Q 1441 -91 1130 -33 
Q 819 25 488 141 
L 488 750 
Q 750 597 1062 519 
Q 1375 441 1716 441 
Q 2309 441 2620 675 
Q 2931 909 2931 1356 
Q 2931 1769 2642 2001 
Q 2353 2234 1838 2234 
L 1294 2234 
L 1294 2753 
L 1863 2753 
Q 2328 2753 2575 2939 
Q 2822 3125 2822 3475 
Q 2822 3834 2567 4026 
Q 2313 4219 1838 4219 
Q 1578 4219 1281 4162 
Q 984 4106 628 3988 
L 628 4550 
Q 988 4650 1302 4700 
Q 1616 4750 1894 4750 
Q 2613 4750 3031 4423 
Q 3450 4097 3450 3541 
Q 3450 3153 3228 2886 
Q 3006 2619 2597 2516 
z
" transform="scale(0.015625)"/>
       </defs>
       <use xlink:href="#DejaVuSans-33"/>
       <use xlink:href="#DejaVuSans-30" x="63.623047"/>
       <use xlink:href="#DejaVuSans-30" x="127.246094"/>
       <use xlink:href="#DejaVuSans-30" x="190.869141"/>
      </g>
     </g>
    </g>
    <g id="ytick_15">
     <g id="line2d_34">
      <g>
       <use xlink:href="#me25ac5c249" x="104.312" y="507.178528" style="stroke: #000000; stroke-width: 0.8"/>
      </g>
     </g>
     <g id="text_39">
      <!-- 4000 -->
      <g transform="translate(51.502 514.017122) scale(0.18 -0.18)">
       <use xlink:href="#DejaVuSans-34"/>
       <use xlink:href="#DejaVuSans-30" x="63.623047"/>
       <use xlink:href="#DejaVuSans-30" x="127.246094"/>
       <use xlink:href="#DejaVuSans-30" x="190.869141"/>
      </g>
     </g>
    </g>
    <g id="ytick_16">
     <g id="line2d_35">
      <g>
       <use xlink:href="#me25ac5c249" x="104.312" y="456.75362" style="stroke: #000000; stroke-width: 0.8"/>
      </g>
     </g>
     <g id="text_40">
      <!-- 5000 -->
      <g transform="translate(51.502 463.592214) scale(0.18 -0.18)">
       <use xlink:href="#DejaVuSans-35"/>
       <use xlink:href="#DejaVuSans-30" x="63.623047"/>
       <use xlink:href="#DejaVuSans-30" x="127.246094"/>
       <use xlink:href="#DejaVuSans-30" x="190.869141"/>
      </g>
     </g>
    </g>
    <g id="ytick_17">
     <g id="line2d_36">
      <g>
       <use xlink:href="#me25ac5c249" x="104.312" y="406.328713" style="stroke: #000000; stroke-width: 0.8"/>
      </g>
     </g>
     <g id="text_41">
      <!-- 6000 -->
      <g transform="translate(51.502 413.167307) scale(0.18 -0.18)">
       <use xlink:href="#DejaVuSans-36"/>
       <use xlink:href="#DejaVuSans-30" x="63.623047"/>
       <use xlink:href="#DejaVuSans-30" x="127.246094"/>
       <use xlink:href="#DejaVuSans-30" x="190.869141"/>
      </g>
     </g>
    </g>
    <g id="ytick_18">
     <g id="line2d_37">
      <g>
       <use xlink:href="#me25ac5c249" x="104.312" y="355.903806" style="stroke: #000000; stroke-width: 0.8"/>
      </g>
     </g>
     <g id="text_42">
      <!-- 7000 -->
      <g transform="translate(51.502 362.742399) scale(0.18 -0.18)">
       <defs>
        <path id="DejaVuSans-37" d="M 525 4666 
L 3525 4666 
L 3525 4397 
L 1831 0 
L 1172 0 
L 2766 4134 
L 525 4134 
L 525 4666 
z
" transform="scale(0.015625)"/>
       </defs>
       <use xlink:href="#DejaVuSans-37"/>
       <use xlink:href="#DejaVuSans-30" x="63.623047"/>
       <use xlink:href="#DejaVuSans-30" x="127.246094"/>
       <use xlink:href="#DejaVuSans-30" x="190.869141"/>
      </g>
     </g>
    </g>
    <g id="ytick_19">
     <g id="line2d_38">
      <g>
       <use xlink:href="#me25ac5c249" x="104.312" y="305.478898" style="stroke: #000000; stroke-width: 0.8"/>
      </g>
     </g>
     <g id="text_43">
      <!-- 8000 -->
      <g transform="translate(51.502 312.317492) scale(0.18 -0.18)">
       <use xlink:href="#DejaVuSans-38"/>
       <use xlink:href="#DejaVuSans-30" x="63.623047"/>
       <use xlink:href="#DejaVuSans-30" x="127.246094"/>
       <use xlink:href="#DejaVuSans-30" x="190.869141"/>
      </g>
     </g>
    </g>
    <g id="text_44">
     <!-- $\beta_{x,y}$ $[m]$ -->
     <g transform="translate(40.372 551.088333) rotate(-90) scale(0.23 -0.23)">
      <defs>
       <path id="DejaVuSans-Oblique-3b2" d="M 872 216 
L 572 -1331 
L -6 -1331 
L 928 3478 
Q 1206 4903 2538 4903 
Q 3888 4903 3659 3700 
Q 3503 2844 2894 2531 
Q 3713 2250 3553 1416 
Q 3272 -69 1759 -66 
Q 1097 -63 872 216 
z
M 1019 966 
Q 1259 422 1875 425 
Q 2775 425 2966 1406 
Q 3138 2288 1675 2219 
L 1778 2750 
Q 2909 2731 3106 3750 
Q 3241 4438 2509 4434 
Q 1691 4434 1503 3459 
L 1019 966 
z
" transform="scale(0.015625)"/>
       <path id="DejaVuSans-Oblique-78" d="M 3841 3500 
L 2234 1784 
L 3219 0 
L 2559 0 
L 1819 1388 
L 531 0 
L -166 0 
L 1556 1844 
L 641 3500 
L 1300 3500 
L 1972 2234 
L 3144 3500 
L 3841 3500 
z
" transform="scale(0.015625)"/>
       <path id="DejaVuSans-2c" d="M 750 794 
L 1409 794 
L 1409 256 
L 897 -744 
L 494 -744 
L 750 256 
L 750 794 
z
" transform="scale(0.015625)"/>
       <path id="DejaVuSans-Oblique-79" d="M 1588 -325 
Q 1188 -997 936 -1164 
Q 684 -1331 294 -1331 
L -159 -1331 
L -63 -850 
L 269 -850 
Q 509 -850 678 -719 
Q 847 -588 1056 -206 
L 1234 128 
L 459 3500 
L 1069 3500 
L 1650 819 
L 3256 3500 
L 3859 3500 
L 1588 -325 
z
" transform="scale(0.015625)"/>
      </defs>
      <use xlink:href="#DejaVuSans-Oblique-3b2" transform="translate(0 0.390625)"/>
      <use xlink:href="#DejaVuSans-Oblique-78" transform="translate(63.818359 -16.015625) scale(0.7)"/>
      <use xlink:href="#DejaVuSans-2c" transform="translate(105.244141 -16.015625) scale(0.7)"/>
      <use xlink:href="#DejaVuSans-Oblique-79" transform="translate(141.132812 -16.015625) scale(0.7)"/>
      <use xlink:href="#DejaVuSans-20" transform="translate(185.292969 0.390625)"/>
      <use xlink:href="#DejaVuSans-5b" transform="translate(217.080078 0.390625)"/>
      <use xlink:href="#DejaVuSans-Oblique-6d" transform="translate(256.09375 0.390625)"/>
      <use xlink:href="#DejaVuSans-5d" transform="translate(353.505859 0.390625)"/>
     </g>
    </g>
   </g>
   <g id="line2d_39">
    <path d="M 108.381897 549.572578 
L 129.736297 547.73359 
L 135.175389 547.263444 
L 156.529789 545.410754 
L 161.96888 544.937118 
L 183.32328 543.070726 
L 188.762371 542.5936 
L 210.116771 540.713506 
L 215.555863 540.23289 
L 236.910263 538.339094 
L 242.349354 537.854988 
L 263.703754 535.94749 
L 271.538934 535.244868 
L 271.538934 535.244868 
L 274.066919 535.017856 
L 293.4743 533.269988 
L 297.148513 532.938066 
L 297.148513 532.938066 
L 297.148513 532.938066 
L 297.148513 532.938066 
L 300.182094 532.663773 
L 300.182094 532.663773 
L 300.182094 532.663773 
L 300.182094 532.663773 
L 300.182094 532.663773 
L 303.190552 532.391535 
L 343.198648 457.137492 
L 344.740562 450.763788 
L 346.141159 444.905169 
L 349.62381 430.052447 
L 357.160657 396.517744 
L 361.506906 376.313923 
L 396.050788 302.923636 
L 399.385843 305.768954 
L 399.385843 305.768954 
L 399.385843 305.768954 
L 402.331494 308.273725 
L 436.875376 429.352453 
L 440.147624 447.156131 
L 440.147624 447.156131 
L 450.743175 500.785182 
L 450.743175 500.785182 
L 450.743175 500.785182 
L 453.927493 515.702224 
L 493.935589 620.217518 
L 501.466156 629.232225 
L 501.466156 629.232225 
L 502.640648 630.594625 
L 502.640648 630.594625 
L 502.640648 630.594625 
L 507.037142 635.590153 
L 518.342412 647.679424 
L 619.329882 707.350283 
L 638.172 708.86303 
L 638.172 708.86303 
L 638.172 708.86303 
L 638.172 708.86303 
L 638.172 708.86303 
L 657.014118 707.350283 
L 757.819447 647.86528 
L 769.124718 635.793557 
L 773.609142 630.703399 
L 773.609142 630.703399 
L 773.609142 630.703399 
L 774.444476 629.736298 
L 774.444476 629.736298 
L 782.408411 620.217518 
L 822.416507 603.619405 
L 825.600825 605.204389 
L 825.600825 605.204389 
L 825.600825 605.204389 
L 836.196376 610.391633 
L 836.196376 610.391633 
L 839.468624 611.966688 
L 874.012506 602.79116 
L 876.958157 599.655422 
L 876.958157 599.655422 
L 876.958157 599.655422 
L 880.293212 596.050013 
L 914.837094 515.30116 
L 919.183343 497.56495 
L 926.72019 464.965794 
L 930.202841 449.112659 
L 931.603438 442.596374 
L 933.145352 435.329266 
L 973.153448 344.666553 
L 976.161906 346.960998 
L 976.161906 346.960998 
L 976.161906 346.960998 
L 976.161906 346.960998 
L 976.161906 346.960998 
L 979.195487 349.267258 
L 979.195487 349.267258 
L 979.195487 349.267258 
L 979.195487 349.267258 
L 982.8697 352.050679 
L 1002.277081 366.573359 
L 1004.051381 367.886021 
L 1004.051381 367.886021 
L 1012.640246 374.204566 
L 1033.994646 389.658081 
L 1039.433737 393.535787 
L 1060.788137 408.530776 
L 1066.227229 412.291693 
L 1087.581629 426.828156 
L 1093.02072 430.472284 
L 1114.37512 444.550222 
L 1119.814211 448.07756 
L 1141.168611 461.696972 
L 1146.607703 465.107521 
L 1167.962103 478.268407 
" clip-path="url(#p808990e177)" style="fill: none; stroke: #1f77b4; stroke-width: 1.5; stroke-linecap: square"/>
   </g>
   <g id="line2d_40">
    <path d="M 108.381897 478.268814 
L 129.736297 465.107837 
L 135.175389 461.697265 
L 156.529789 448.077774 
L 161.96888 444.550416 
L 183.32328 430.472412 
L 188.762371 426.828269 
L 210.116771 412.291754 
L 215.555863 408.530826 
L 236.910263 393.535805 
L 242.349354 389.658093 
L 263.703754 374.204566 
L 271.538934 368.442848 
L 271.538934 368.442848 
L 274.066919 366.573359 
L 293.4743 352.05068 
L 297.148513 349.267258 
L 297.148513 349.267258 
L 297.148513 349.267258 
L 297.148513 349.267258 
L 300.182094 346.960998 
L 300.182094 346.960998 
L 300.182094 346.960998 
L 300.182094 346.960998 
L 300.182094 346.960998 
L 303.190552 344.666553 
L 343.198648 435.329266 
L 344.740562 442.596374 
L 346.141159 449.112659 
L 349.62381 464.965795 
L 357.160657 497.56495 
L 361.506906 515.30116 
L 396.050788 596.050013 
L 399.385843 599.655422 
L 399.385843 599.655422 
L 399.385843 599.655422 
L 402.331494 602.79116 
L 436.875376 611.966688 
L 440.147624 610.391633 
L 440.147624 610.391633 
L 450.743175 605.204389 
L 450.743175 605.204389 
L 450.743175 605.204389 
L 453.927493 603.619405 
L 493.935589 620.217518 
L 501.466156 629.232226 
L 501.466156 629.232226 
L 502.640648 630.594625 
L 502.640648 630.594625 
L 502.640648 630.594625 
L 507.037142 635.590153 
L 518.342412 647.679424 
L 619.329882 707.350283 
L 638.172 708.86303 
L 638.172 708.86303 
L 638.172 708.86303 
L 638.172 708.86303 
L 638.172 708.86303 
L 657.014118 707.350283 
L 757.819447 647.86528 
L 769.124718 635.793558 
L 773.609142 630.703399 
L 773.609142 630.703399 
L 773.609142 630.703399 
L 774.444476 629.736298 
L 774.444476 629.736298 
L 782.408411 620.217518 
L 822.416507 515.702224 
L 825.600825 500.785182 
L 825.600825 500.785182 
L 825.600825 500.785182 
L 836.196376 447.156131 
L 836.196376 447.156131 
L 839.468624 429.352453 
L 874.012506 308.273725 
L 876.958157 305.768954 
L 876.958157 305.768954 
L 876.958157 305.768954 
L 880.293212 302.923637 
L 914.837094 376.313923 
L 919.183343 396.517744 
L 926.72019 430.052448 
L 930.202841 444.905169 
L 931.603438 450.763788 
L 933.145352 457.137492 
L 973.153448 532.391535 
L 976.161906 532.663773 
L 976.161906 532.663773 
L 976.161906 532.663773 
L 976.161906 532.663773 
L 976.161906 532.663773 
L 979.195487 532.938066 
L 979.195487 532.938066 
L 979.195487 532.938066 
L 979.195487 532.938066 
L 982.8697 533.269989 
L 1002.277081 535.017857 
L 1004.051381 535.177204 
L 1004.051381 535.177204 
L 1012.640246 535.94749 
L 1033.994646 537.854994 
L 1039.433737 538.339103 
L 1060.788137 540.232917 
L 1066.227229 540.713539 
L 1087.581629 542.593663 
L 1093.02072 543.070798 
L 1114.37512 544.937231 
L 1119.814211 545.410879 
L 1141.168611 547.263621 
L 1146.607703 547.733781 
L 1167.962103 549.572832 
" clip-path="url(#p808990e177)" style="fill: none; stroke: #ff7f0e; stroke-width: 1.5; stroke-linecap: square"/>
   </g>
   <g id="patch_36">
    <path d="M 104.312 729.16 
L 104.312 282.626667 
" style="fill: none; stroke: #000000; stroke-width: 0.8; stroke-linejoin: miter; stroke-linecap: square"/>
   </g>
   <g id="patch_37">
    <path d="M 1172.032 729.16 
L 1172.032 282.626667 
" style="fill: none; stroke: #000000; stroke-width: 0.8; stroke-linejoin: miter; stroke-linecap: square"/>
   </g>
   <g id="patch_38">
    <path d="M 104.312 729.16 
L 1172.032 729.16 
" style="fill: none; stroke: #000000; stroke-width: 0.8; stroke-linejoin: miter; stroke-linecap: square"/>
   </g>
   <g id="patch_39">
    <path d="M 104.312 282.626667 
L 1172.032 282.626667 
" style="fill: none; stroke: #000000; stroke-width: 0.8; stroke-linejoin: miter; stroke-linecap: square"/>
   </g>
   <g id="legend_3">
    <g id="patch_40">
     <path d="M 121.112 375.266667 
L 223.832 375.266667 
Q 228.632 375.266667 228.632 370.466667 
L 228.632 299.426667 
Q 228.632 294.626667 223.832 294.626667 
L 121.112 294.626667 
Q 116.312 294.626667 116.312 299.426667 
L 116.312 370.466667 
Q 116.312 375.266667 121.112 375.266667 
z
" style="fill: #ffffff; opacity: 0.8; stroke: #cccccc; stroke-linejoin: miter"/>
    </g>
    <g id="line2d_41">
     <path d="M 125.912 314.306667 
L 149.912 314.306667 
L 173.912 314.306667 
" style="fill: none; stroke: #1f77b4; stroke-width: 1.5; stroke-linecap: square"/>
    </g>
    <g id="text_45">
     <!-- $\beta_x$ -->
     <g transform="translate(193.112 322.706667) scale(0.24 -0.24)">
      <use xlink:href="#DejaVuSans-Oblique-3b2" transform="translate(0 0.390625)"/>
      <use xlink:href="#DejaVuSans-Oblique-78" transform="translate(63.818359 -16.015625) scale(0.7)"/>
     </g>
    </g>
    <g id="line2d_42">
     <path d="M 125.912 349.826667 
L 149.912 349.826667 
L 173.912 349.826667 
" style="fill: none; stroke: #ff7f0e; stroke-width: 1.5; stroke-linecap: square"/>
    </g>
    <g id="text_46">
     <!-- $\beta_y$ -->
     <g transform="translate(193.112 358.226667) scale(0.24 -0.24)">
      <use xlink:href="#DejaVuSans-Oblique-3b2" transform="translate(0 0.390625)"/>
      <use xlink:href="#DejaVuSans-Oblique-79" transform="translate(63.818359 -16.015625) scale(0.7)"/>
     </g>
    </g>
   </g>
  </g>
  <g id="axes_4">
   <g id="matplotlib.axis_6">
    <g id="ytick_20">
     <g id="line2d_43">
      <g>
       <use xlink:href="#m7ad14c46d2" x="1172.032" y="729.16" style="stroke: #000000; stroke-width: 0.8"/>
      </g>
     </g>
     <g id="text_47">
      <!-- −0.03 -->
      <g style="fill: #a52a2a" transform="translate(1179.032 735.998594) scale(0.18 -0.18)">
       <use xlink:href="#DejaVuSans-2212"/>
       <use xlink:href="#DejaVuSans-30" x="83.789062"/>
       <use xlink:href="#DejaVuSans-2e" x="147.412109"/>
       <use xlink:href="#DejaVuSans-30" x="179.199219"/>
       <use xlink:href="#DejaVuSans-33" x="242.822266"/>
      </g>
     </g>
    </g>
    <g id="ytick_21">
     <g id="line2d_44">
      <g>
       <use xlink:href="#m7ad14c46d2" x="1172.032" y="654.737778" style="stroke: #000000; stroke-width: 0.8"/>
      </g>
     </g>
     <g id="text_48">
      <!-- −0.02 -->
      <g style="fill: #a52a2a" transform="translate(1179.032 661.576372) scale(0.18 -0.18)">
       <use xlink:href="#DejaVuSans-2212"/>
       <use xlink:href="#DejaVuSans-30" x="83.789062"/>
       <use xlink:href="#DejaVuSans-2e" x="147.412109"/>
       <use xlink:href="#DejaVuSans-30" x="179.199219"/>
       <use xlink:href="#DejaVuSans-32" x="242.822266"/>
      </g>
     </g>
    </g>
    <g id="ytick_22">
     <g id="line2d_45">
      <g>
       <use xlink:href="#m7ad14c46d2" x="1172.032" y="580.315556" style="stroke: #000000; stroke-width: 0.8"/>
      </g>
     </g>
     <g id="text_49">
      <!-- −0.01 -->
      <g style="fill: #a52a2a" transform="translate(1179.032 587.154149) scale(0.18 -0.18)">
       <use xlink:href="#DejaVuSans-2212"/>
       <use xlink:href="#DejaVuSans-30" x="83.789062"/>
       <use xlink:href="#DejaVuSans-2e" x="147.412109"/>
       <use xlink:href="#DejaVuSans-30" x="179.199219"/>
       <use xlink:href="#DejaVuSans-31" x="242.822266"/>
      </g>
     </g>
    </g>
    <g id="ytick_23">
     <g id="line2d_46">
      <g>
       <use xlink:href="#m7ad14c46d2" x="1172.032" y="505.893333" style="stroke: #000000; stroke-width: 0.8"/>
      </g>
     </g>
     <g id="text_50">
      <!-- 0.00 -->
      <g style="fill: #a52a2a" transform="translate(1179.032 512.731927) scale(0.18 -0.18)">
       <use xlink:href="#DejaVuSans-30"/>
       <use xlink:href="#DejaVuSans-2e" x="63.623047"/>
       <use xlink:href="#DejaVuSans-30" x="95.410156"/>
       <use xlink:href="#DejaVuSans-30" x="159.033203"/>
      </g>
     </g>
    </g>
    <g id="ytick_24">
     <g id="line2d_47">
      <g>
       <use xlink:href="#m7ad14c46d2" x="1172.032" y="431.471111" style="stroke: #000000; stroke-width: 0.8"/>
      </g>
     </g>
     <g id="text_51">
      <!-- 0.01 -->
      <g style="fill: #a52a2a" transform="translate(1179.032 438.309705) scale(0.18 -0.18)">
       <use xlink:href="#DejaVuSans-30"/>
       <use xlink:href="#DejaVuSans-2e" x="63.623047"/>
       <use xlink:href="#DejaVuSans-30" x="95.410156"/>
       <use xlink:href="#DejaVuSans-31" x="159.033203"/>
      </g>
     </g>
    </g>
    <g id="ytick_25">
     <g id="line2d_48">
      <g>
       <use xlink:href="#m7ad14c46d2" x="1172.032" y="357.048889" style="stroke: #000000; stroke-width: 0.8"/>
      </g>
     </g>
     <g id="text_52">
      <!-- 0.02 -->
      <g style="fill: #a52a2a" transform="translate(1179.032 363.887483) scale(0.18 -0.18)">
       <use xlink:href="#DejaVuSans-30"/>
       <use xlink:href="#DejaVuSans-2e" x="63.623047"/>
       <use xlink:href="#DejaVuSans-30" x="95.410156"/>
       <use xlink:href="#DejaVuSans-32" x="159.033203"/>
      </g>
     </g>
    </g>
    <g id="ytick_26">
     <g id="line2d_49">
      <g>
       <use xlink:href="#m7ad14c46d2" x="1172.032" y="282.626667" style="stroke: #000000; stroke-width: 0.8"/>
      </g>
     </g>
     <g id="text_53">
      <!-- 0.03 -->
      <g style="fill: #a52a2a" transform="translate(1179.032 289.46526) scale(0.18 -0.18)">
       <use xlink:href="#DejaVuSans-30"/>
       <use xlink:href="#DejaVuSans-2e" x="63.623047"/>
       <use xlink:href="#DejaVuSans-30" x="95.410156"/>
       <use xlink:href="#DejaVuSans-33" x="159.033203"/>
      </g>
     </g>
    </g>
    <g id="text_54">
     <!-- $D_{x,y}$ $[m]$ -->
     <g style="fill: #a52a2a" transform="translate(1255.673563 552.583333) rotate(-90) scale(0.23 -0.23)">
      <defs>
       <path id="DejaVuSans-Oblique-44" d="M 1081 4666 
L 2438 4666 
Q 3519 4666 4070 4208 
Q 4622 3750 4622 2847 
Q 4622 2250 4412 1698 
Q 4203 1147 3834 769 
Q 3463 381 2891 190 
Q 2319 0 1538 0 
L 172 0 
L 1081 4666 
z
M 1613 4147 
L 909 519 
L 1734 519 
Q 2794 519 3375 1128 
Q 3956 1738 3956 2847 
Q 3956 3519 3581 3833 
Q 3206 4147 2406 4147 
L 1613 4147 
z
" transform="scale(0.015625)"/>
      </defs>
      <use xlink:href="#DejaVuSans-Oblique-44" transform="translate(0 0.015625)"/>
      <use xlink:href="#DejaVuSans-Oblique-78" transform="translate(77.001953 -16.390625) scale(0.7)"/>
      <use xlink:href="#DejaVuSans-2c" transform="translate(118.427734 -16.390625) scale(0.7)"/>
      <use xlink:href="#DejaVuSans-Oblique-79" transform="translate(154.316406 -16.390625) scale(0.7)"/>
      <use xlink:href="#DejaVuSans-20" transform="translate(198.476562 0.015625)"/>
      <use xlink:href="#DejaVuSans-5b" transform="translate(230.263672 0.015625)"/>
      <use xlink:href="#DejaVuSans-Oblique-6d" transform="translate(269.277344 0.015625)"/>
      <use xlink:href="#DejaVuSans-5d" transform="translate(366.689453 0.015625)"/>
     </g>
    </g>
   </g>
   <g id="line2d_50">
    <path d="M 108.381897 401.994797 
L 129.736297 428.182997 
L 135.175389 434.246896 
L 156.529789 455.673605 
L 161.96888 460.524725 
L 183.32328 477.189943 
L 188.762371 480.828282 
L 210.116771 492.73201 
L 215.555863 495.157569 
L 236.910263 502.299806 
L 242.349354 503.512586 
L 263.703754 505.893331 
L 271.538934 505.893331 
L 271.538934 505.893331 
L 274.066919 505.893331 
L 293.4743 505.893331 
L 297.148513 505.893331 
L 297.148513 505.893331 
L 297.148513 505.893331 
L 297.148513 505.893331 
L 300.182094 505.893331 
L 300.182094 505.893331 
L 300.182094 505.893331 
L 300.182094 505.893331 
L 300.182094 505.893331 
L 303.190552 505.893331 
L 343.198648 505.89333 
L 344.740562 505.89333 
L 346.141159 505.89333 
L 349.62381 505.89333 
L 357.160657 505.89333 
L 361.506906 505.89333 
L 396.050788 505.89333 
L 399.385843 505.89333 
L 399.385843 505.89333 
L 399.385843 505.89333 
L 402.331494 505.89333 
L 436.875376 505.89333 
L 440.147624 505.89333 
L 440.147624 505.89333 
L 450.743175 505.893331 
L 450.743175 505.893331 
L 450.743175 505.893331 
L 453.927493 505.893331 
L 493.935589 505.893331 
L 501.466156 505.893332 
L 501.466156 505.893332 
L 502.640648 505.893332 
L 502.640648 505.893332 
L 502.640648 505.893332 
L 507.037142 505.893332 
L 518.342412 505.893332 
L 619.329882 505.893333 
L 638.172 505.893333 
L 638.172 505.893333 
L 638.172 505.893333 
L 638.172 505.893333 
L 638.172 505.893333 
L 657.014118 505.893333 
L 757.819447 505.893334 
L 769.124718 505.893334 
L 773.609142 505.893334 
L 773.609142 505.893334 
L 773.609142 505.893334 
L 774.444476 505.893334 
L 774.444476 505.893334 
L 782.408411 505.893334 
L 822.416507 505.893335 
L 825.600825 505.893335 
L 825.600825 505.893335 
L 825.600825 505.893335 
L 836.196376 505.893335 
L 836.196376 505.893335 
L 839.468624 505.893335 
L 874.012506 505.893335 
L 876.958157 505.893335 
L 876.958157 505.893335 
L 876.958157 505.893335 
L 880.293212 505.893335 
L 914.837094 505.893335 
L 919.183343 505.893336 
L 926.72019 505.893336 
L 930.202841 505.893336 
L 931.603438 505.893336 
L 933.145352 505.893336 
L 973.153448 505.893336 
L 976.161906 505.893336 
L 976.161906 505.893336 
L 976.161906 505.893336 
L 976.161906 505.893336 
L 976.161906 505.893336 
L 979.195487 505.893336 
L 979.195487 505.893336 
L 979.195487 505.893336 
L 979.195487 505.893336 
L 982.8697 505.893336 
L 1002.277081 505.893336 
L 1004.051381 505.893336 
L 1004.051381 505.893336 
L 1012.640246 505.893336 
L 1033.994646 508.274082 
L 1039.433737 509.486861 
L 1060.788137 516.629098 
L 1066.227229 519.054657 
L 1087.581629 530.958385 
L 1093.02072 534.596724 
L 1114.37512 551.261943 
L 1119.814211 556.113062 
L 1141.168611 577.539771 
L 1146.607703 583.60367 
L 1167.962103 609.791871 
" clip-path="url(#p808990e177)" style="fill: none; stroke: #a52a2a; stroke-width: 1.5; stroke-linecap: square"/>
   </g>
   <g id="line2d_51">
    <path d="M 108.381897 505.893333 
L 129.736297 505.893333 
L 135.175389 505.893333 
L 156.529789 505.893333 
L 161.96888 505.893333 
L 183.32328 505.893333 
L 188.762371 505.893333 
L 210.116771 505.893333 
L 215.555863 505.893333 
L 236.910263 505.893333 
L 242.349354 505.893333 
L 263.703754 505.893333 
L 271.538934 505.893333 
L 271.538934 505.893333 
L 274.066919 505.893333 
L 293.4743 505.893333 
L 297.148513 505.893333 
L 297.148513 505.893333 
L 297.148513 505.893333 
L 297.148513 505.893333 
L 300.182094 505.893333 
L 300.182094 505.893333 
L 300.182094 505.893333 
L 300.182094 505.893333 
L 300.182094 505.893333 
L 303.190552 505.893333 
L 343.198648 505.893333 
L 344.740562 505.893333 
L 346.141159 505.893333 
L 349.62381 505.893333 
L 357.160657 505.893333 
L 361.506906 505.893333 
L 396.050788 505.893333 
L 399.385843 505.893333 
L 399.385843 505.893333 
L 399.385843 505.893333 
L 402.331494 505.893333 
L 436.875376 505.893333 
L 440.147624 505.893333 
L 440.147624 505.893333 
L 450.743175 505.893333 
L 450.743175 505.893333 
L 450.743175 505.893333 
L 453.927493 505.893333 
L 493.935589 505.893333 
L 501.466156 505.893333 
L 501.466156 505.893333 
L 502.640648 505.893333 
L 502.640648 505.893333 
L 502.640648 505.893333 
L 507.037142 505.893333 
L 518.342412 505.893333 
L 619.329882 505.893333 
L 638.172 505.893333 
L 638.172 505.893333 
L 638.172 505.893333 
L 638.172 505.893333 
L 638.172 505.893333 
L 657.014118 505.893333 
L 757.819447 505.893333 
L 769.124718 505.893333 
L 773.609142 505.893333 
L 773.609142 505.893333 
L 773.609142 505.893333 
L 774.444476 505.893333 
L 774.444476 505.893333 
L 782.408411 505.893333 
L 822.416507 505.893333 
L 825.600825 505.893333 
L 825.600825 505.893333 
L 825.600825 505.893333 
L 836.196376 505.893333 
L 836.196376 505.893333 
L 839.468624 505.893333 
L 874.012506 505.893333 
L 876.958157 505.893333 
L 876.958157 505.893333 
L 876.958157 505.893333 
L 880.293212 505.893333 
L 914.837094 505.893333 
L 919.183343 505.893333 
L 926.72019 505.893333 
L 930.202841 505.893333 
L 931.603438 505.893333 
L 933.145352 505.893333 
L 973.153448 505.893333 
L 976.161906 505.893333 
L 976.161906 505.893333 
L 976.161906 505.893333 
L 976.161906 505.893333 
L 976.161906 505.893333 
L 979.195487 505.893333 
L 979.195487 505.893333 
L 979.195487 505.893333 
L 979.195487 505.893333 
L 982.8697 505.893333 
L 1002.277081 505.893333 
L 1004.051381 505.893333 
L 1004.051381 505.893333 
L 1012.640246 505.893333 
L 1033.994646 505.893333 
L 1039.433737 505.893333 
L 1060.788137 505.893333 
L 1066.227229 505.893333 
L 1087.581629 505.893333 
L 1093.02072 505.893333 
L 1114.37512 505.893333 
L 1119.814211 505.893333 
L 1141.168611 505.893333 
L 1146.607703 505.893333 
L 1167.962103 505.893333 
" clip-path="url(#p808990e177)" style="fill: none; stroke-dasharray: 9.6,2.4,1.5,2.4; stroke-dashoffset: 0; stroke: #a0522d; stroke-width: 1.5"/>
   </g>
   <g id="line2d_52">
    <path d="M 638.172 729.16 
L 638.172 282.626667 
" clip-path="url(#p808990e177)" style="fill: none; stroke-dasharray: 5.55,2.4; stroke-dashoffset: 0; stroke: #808080; stroke-width: 1.5"/>
   </g>
   <g id="patch_41">
    <path d="M 104.312 729.16 
L 104.312 282.626667 
" style="fill: none; stroke: #000000; stroke-width: 0.8; stroke-linejoin: miter; stroke-linecap: square"/>
   </g>
   <g id="patch_42">
    <path d="M 1172.032 729.16 
L 1172.032 282.626667 
" style="fill: none; stroke: #000000; stroke-width: 0.8; stroke-linejoin: miter; stroke-linecap: square"/>
   </g>
   <g id="patch_43">
    <path d="M 104.312 729.16 
L 1172.032 729.16 
" style="fill: none; stroke: #000000; stroke-width: 0.8; stroke-linejoin: miter; stroke-linecap: square"/>
   </g>
   <g id="patch_44">
    <path d="M 104.312 282.626667 
L 1172.032 282.626667 
" style="fill: none; stroke: #000000; stroke-width: 0.8; stroke-linejoin: miter; stroke-linecap: square"/>
   </g>
   <g id="legend_4">
    <g id="patch_45">
     <path d="M 1049.152 374.730417 
L 1155.232 374.730417 
Q 1160.032 374.730417 1160.032 369.930417 
L 1160.032 299.426667 
Q 1160.032 294.626667 1155.232 294.626667 
L 1049.152 294.626667 
Q 1044.352 294.626667 1044.352 299.426667 
L 1044.352 369.930417 
Q 1044.352 374.730417 1049.152 374.730417 
z
" style="fill: #ffffff; opacity: 0.8; stroke: #cccccc; stroke-linejoin: miter"/>
    </g>
    <g id="line2d_53">
     <path d="M 1053.952 314.062917 
L 1077.952 314.062917 
L 1101.952 314.062917 
" style="fill: none; stroke: #a52a2a; stroke-width: 1.5; stroke-linecap: square"/>
    </g>
    <g id="text_55">
     <!-- $D_x$ -->
     <g transform="translate(1121.152 322.462917) scale(0.24 -0.24)">
      <use xlink:href="#DejaVuSans-Oblique-44" transform="translate(0 0.09375)"/>
      <use xlink:href="#DejaVuSans-Oblique-78" transform="translate(77.001953 -16.3125) scale(0.7)"/>
     </g>
    </g>
    <g id="line2d_54">
     <path d="M 1053.952 349.290417 
L 1077.952 349.290417 
L 1101.952 349.290417 
" style="fill: none; stroke-dasharray: 9.6,2.4,1.5,2.4; stroke-dashoffset: 0; stroke: #a0522d; stroke-width: 1.5"/>
    </g>
    <g id="text_56">
     <!-- $D_y$ -->
     <g transform="translate(1121.152 357.690417) scale(0.24 -0.24)">
      <use xlink:href="#DejaVuSans-Oblique-44" transform="translate(0 0.09375)"/>
      <use xlink:href="#DejaVuSans-Oblique-79" transform="translate(77.001953 -16.3125) scale(0.7)"/>
     </g>
    </g>
   </g>
  </g>
 </g>
 <defs>
  <clipPath id="p26a6c81ef9">
   <rect x="104.312" y="38.4" width="1067.72" height="202.306667"/>
  </clipPath>
  <clipPath id="p808990e177">
   <rect x="104.312" y="282.626667" width="1067.72" height="446.533333"/>
  </clipPath>
 </defs>
</svg>
