<?xml version="1.0" encoding="utf-8" standalone="no"?>
<!DOCTYPE svg PUBLIC "-//W3C//DTD SVG 1.1//EN"
  "http://www.w3.org/Graphics/SVG/1.1/DTD/svg11.dtd">
<svg xmlns:xlink="http://www.w3.org/1999/xlink" width="1440pt" height="864pt" viewBox="0 0 1440 864" xmlns="http://www.w3.org/2000/svg" version="1.1">
 <metadata>
  <rdf:RDF xmlns:dc="http://purl.org/dc/elements/1.1/" xmlns:cc="http://creativecommons.org/ns#" xmlns:rdf="http://www.w3.org/1999/02/22-rdf-syntax-ns#">
   <cc:Work>
    <dc:type rdf:resource="http://purl.org/dc/dcmitype/StillImage"/>
    <dc:date>2025-06-26T13:53:56.722417</dc:date>
    <dc:format>image/svg+xml</dc:format>
    <dc:creator>
     <cc:Agent>
      <dc:title>Matplotlib v3.10.0, https://matplotlib.org/</dc:title>
     </cc:Agent>
    </dc:creator>
   </cc:Work>
  </rdf:RDF>
 </metadata>
 <defs>
  <style type="text/css">*{stroke-linejoin: round; stroke-linecap: butt}</style>
 </defs>
 <g id="figure_1">
  <g id="patch_1">
   <path d="M 0 864 
L 1440 864 
L 1440 0 
L 0 0 
z
" style="fill: #ffffff"/>
  </g>
  <g id="axes_1">
   <g id="patch_2">
    <path d="M 72.685313 828.779375 
L 1429.2 828.779375 
L 1429.2 38.075625 
L 72.685313 38.075625 
z
" style="fill: #ffffff"/>
   </g>
   <g id="patch_3">
    <path d="M 134.345071 828.779375 
L 146.677023 828.779375 
L 146.677023 828.264644 
L 134.345071 828.264644 
z
" clip-path="url(#p708b4ca180)" style="fill: #1f77b4; opacity: 0.6"/>
   </g>
   <g id="patch_4">
    <path d="M 146.677023 828.779375 
L 159.008974 828.779375 
L 159.008974 825.69099 
L 146.677023 825.69099 
z
" clip-path="url(#p708b4ca180)" style="fill: #1f77b4; opacity: 0.6"/>
   </g>
   <g id="patch_5">
    <path d="M 159.008974 828.779375 
L 171.340926 828.779375 
L 171.340926 821.058413 
L 159.008974 821.058413 
z
" clip-path="url(#p708b4ca180)" style="fill: #1f77b4; opacity: 0.6"/>
   </g>
   <g id="patch_6">
    <path d="M 171.340926 828.779375 
L 183.672878 828.779375 
L 183.672878 819.51422 
L 171.340926 819.51422 
z
" clip-path="url(#p708b4ca180)" style="fill: #1f77b4; opacity: 0.6"/>
   </g>
   <g id="patch_7">
    <path d="M 183.672878 828.779375 
L 196.00483 828.779375 
L 196.00483 808.704873 
L 183.672878 808.704873 
z
" clip-path="url(#p708b4ca180)" style="fill: #1f77b4; opacity: 0.6"/>
   </g>
   <g id="patch_8">
    <path d="M 196.00483 828.779375 
L 208.336781 828.779375 
L 208.336781 799.954449 
L 196.00483 799.954449 
z
" clip-path="url(#p708b4ca180)" style="fill: #1f77b4; opacity: 0.6"/>
   </g>
   <g id="patch_9">
    <path d="M 208.336781 828.779375 
L 220.668733 828.779375 
L 220.668733 788.630371 
L 208.336781 788.630371 
z
" clip-path="url(#p708b4ca180)" style="fill: #1f77b4; opacity: 0.6"/>
   </g>
   <g id="patch_10">
    <path d="M 220.668733 828.779375 
L 233.000685 828.779375 
L 233.000685 768.041138 
L 220.668733 768.041138 
z
" clip-path="url(#p708b4ca180)" style="fill: #1f77b4; opacity: 0.6"/>
   </g>
   <g id="patch_11">
    <path d="M 233.000685 828.779375 
L 245.332636 828.779375 
L 245.332636 755.172868 
L 233.000685 755.172868 
z
" clip-path="url(#p708b4ca180)" style="fill: #1f77b4; opacity: 0.6"/>
   </g>
   <g id="patch_12">
    <path d="M 245.332636 828.779375 
L 257.664588 828.779375 
L 257.664588 730.465788 
L 245.332636 730.465788 
z
" clip-path="url(#p708b4ca180)" style="fill: #1f77b4; opacity: 0.6"/>
   </g>
   <g id="patch_13">
    <path d="M 257.664588 828.779375 
L 269.99654 828.779375 
L 269.99654 706.788171 
L 257.664588 706.788171 
z
" clip-path="url(#p708b4ca180)" style="fill: #1f77b4; opacity: 0.6"/>
   </g>
   <g id="patch_14">
    <path d="M 269.99654 828.779375 
L 282.328491 828.779375 
L 282.328491 672.815936 
L 269.99654 672.815936 
z
" clip-path="url(#p708b4ca180)" style="fill: #1f77b4; opacity: 0.6"/>
   </g>
   <g id="patch_15">
    <path d="M 282.328491 828.779375 
L 294.660443 828.779375 
L 294.660443 643.99101 
L 282.328491 643.99101 
z
" clip-path="url(#p708b4ca180)" style="fill: #1f77b4; opacity: 0.6"/>
   </g>
   <g id="patch_16">
    <path d="M 294.660443 828.779375 
L 306.992395 828.779375 
L 306.992395 574.50235 
L 294.660443 574.50235 
z
" clip-path="url(#p708b4ca180)" style="fill: #1f77b4; opacity: 0.6"/>
   </g>
   <g id="patch_17">
    <path d="M 306.992395 828.779375 
L 319.324347 828.779375 
L 319.324347 568.32558 
L 306.992395 568.32558 
z
" clip-path="url(#p708b4ca180)" style="fill: #1f77b4; opacity: 0.6"/>
   </g>
   <g id="patch_18">
    <path d="M 319.324347 828.779375 
L 331.656298 828.779375 
L 331.656298 528.176576 
L 319.324347 528.176576 
z
" clip-path="url(#p708b4ca180)" style="fill: #1f77b4; opacity: 0.6"/>
   </g>
   <g id="patch_19">
    <path d="M 331.656298 828.779375 
L 343.98825 828.779375 
L 343.98825 516.337767 
L 331.656298 516.337767 
z
" clip-path="url(#p708b4ca180)" style="fill: #1f77b4; opacity: 0.6"/>
   </g>
   <g id="patch_20">
    <path d="M 343.98825 828.779375 
L 356.320202 828.779375 
L 356.320202 439.642875 
L 343.98825 439.642875 
z
" clip-path="url(#p708b4ca180)" style="fill: #1f77b4; opacity: 0.6"/>
   </g>
   <g id="patch_21">
    <path d="M 356.320202 828.779375 
L 368.652153 828.779375 
L 368.652153 431.921912 
L 356.320202 431.921912 
z
" clip-path="url(#p708b4ca180)" style="fill: #1f77b4; opacity: 0.6"/>
   </g>
   <g id="patch_22">
    <path d="M 368.652153 828.779375 
L 380.984105 828.779375 
L 380.984105 383.022484 
L 368.652153 383.022484 
z
" clip-path="url(#p708b4ca180)" style="fill: #1f77b4; opacity: 0.6"/>
   </g>
   <g id="patch_23">
    <path d="M 380.984105 828.779375 
L 393.316057 828.779375 
L 393.316057 361.40379 
L 380.984105 361.40379 
z
" clip-path="url(#p708b4ca180)" style="fill: #1f77b4; opacity: 0.6"/>
   </g>
   <g id="patch_24">
    <path d="M 393.316057 828.779375 
L 405.648009 828.779375 
L 405.648009 327.946287 
L 393.316057 327.946287 
z
" clip-path="url(#p708b4ca180)" style="fill: #1f77b4; opacity: 0.6"/>
   </g>
   <g id="patch_25">
    <path d="M 405.648009 828.779375 
L 417.97996 828.779375 
L 417.97996 262.060742 
L 405.648009 262.060742 
z
" clip-path="url(#p708b4ca180)" style="fill: #1f77b4; opacity: 0.6"/>
   </g>
   <g id="patch_26">
    <path d="M 417.97996 828.779375 
L 430.311912 828.779375 
L 430.311912 234.780008 
L 417.97996 234.780008 
z
" clip-path="url(#p708b4ca180)" style="fill: #1f77b4; opacity: 0.6"/>
   </g>
   <g id="patch_27">
    <path d="M 430.311912 828.779375 
L 442.643864 828.779375 
L 442.643864 239.412585 
L 430.311912 239.412585 
z
" clip-path="url(#p708b4ca180)" style="fill: #1f77b4; opacity: 0.6"/>
   </g>
   <g id="patch_28">
    <path d="M 442.643864 828.779375 
L 454.975815 828.779375 
L 454.975815 165.291347 
L 442.643864 165.291347 
z
" clip-path="url(#p708b4ca180)" style="fill: #1f77b4; opacity: 0.6"/>
   </g>
   <g id="patch_29">
    <path d="M 454.975815 828.779375 
L 467.307767 828.779375 
L 467.307767 169.409194 
L 454.975815 169.409194 
z
" clip-path="url(#p708b4ca180)" style="fill: #1f77b4; opacity: 0.6"/>
   </g>
   <g id="patch_30">
    <path d="M 467.307767 828.779375 
L 479.639719 828.779375 
L 479.639719 98.891071 
L 467.307767 98.891071 
z
" clip-path="url(#p708b4ca180)" style="fill: #1f77b4; opacity: 0.6"/>
   </g>
   <g id="patch_31">
    <path d="M 479.639719 828.779375 
L 491.97167 828.779375 
L 491.97167 143.157922 
L 479.639719 143.157922 
z
" clip-path="url(#p708b4ca180)" style="fill: #1f77b4; opacity: 0.6"/>
   </g>
   <g id="patch_32">
    <path d="M 491.97167 828.779375 
L 504.303622 828.779375 
L 504.303622 101.464726 
L 491.97167 101.464726 
z
" clip-path="url(#p708b4ca180)" style="fill: #1f77b4; opacity: 0.6"/>
   </g>
   <g id="patch_33">
    <path d="M 504.303622 828.779375 
L 516.635574 828.779375 
L 516.635574 89.625917 
L 504.303622 89.625917 
z
" clip-path="url(#p708b4ca180)" style="fill: #1f77b4; opacity: 0.6"/>
   </g>
   <g id="patch_34">
    <path d="M 516.635574 828.779375 
L 528.967526 828.779375 
L 528.967526 77.272377 
L 516.635574 77.272377 
z
" clip-path="url(#p708b4ca180)" style="fill: #1f77b4; opacity: 0.6"/>
   </g>
   <g id="patch_35">
    <path d="M 528.967526 828.779375 
L 541.299477 828.779375 
L 541.299477 116.90665 
L 528.967526 116.90665 
z
" clip-path="url(#p708b4ca180)" style="fill: #1f77b4; opacity: 0.6"/>
   </g>
   <g id="patch_36">
    <path d="M 541.299477 828.779375 
L 553.631429 828.779375 
L 553.631429 106.612034 
L 541.299477 106.612034 
z
" clip-path="url(#p708b4ca180)" style="fill: #1f77b4; opacity: 0.6"/>
   </g>
   <g id="patch_37">
    <path d="M 553.631429 828.779375 
L 565.963381 828.779375 
L 565.963381 75.728185 
L 553.631429 75.728185 
z
" clip-path="url(#p708b4ca180)" style="fill: #1f77b4; opacity: 0.6"/>
   </g>
   <g id="patch_38">
    <path d="M 565.963381 828.779375 
L 578.295332 828.779375 
L 578.295332 92.714302 
L 565.963381 92.714302 
z
" clip-path="url(#p708b4ca180)" style="fill: #1f77b4; opacity: 0.6"/>
   </g>
   <g id="patch_39">
    <path d="M 578.295332 828.779375 
L 590.627284 828.779375 
L 590.627284 137.495883 
L 578.295332 137.495883 
z
" clip-path="url(#p708b4ca180)" style="fill: #1f77b4; opacity: 0.6"/>
   </g>
   <g id="patch_40">
    <path d="M 590.627284 828.779375 
L 602.959236 828.779375 
L 602.959236 131.833844 
L 590.627284 131.833844 
z
" clip-path="url(#p708b4ca180)" style="fill: #1f77b4; opacity: 0.6"/>
   </g>
   <g id="patch_41">
    <path d="M 602.959236 828.779375 
L 615.291188 828.779375 
L 615.291188 127.201267 
L 602.959236 127.201267 
z
" clip-path="url(#p708b4ca180)" style="fill: #1f77b4; opacity: 0.6"/>
   </g>
   <g id="patch_42">
    <path d="M 615.291188 828.779375 
L 627.623139 828.779375 
L 627.623139 153.452538 
L 615.291188 153.452538 
z
" clip-path="url(#p708b4ca180)" style="fill: #1f77b4; opacity: 0.6"/>
   </g>
   <g id="patch_43">
    <path d="M 627.623139 828.779375 
L 639.955091 828.779375 
L 639.955091 161.173501 
L 627.623139 161.173501 
z
" clip-path="url(#p708b4ca180)" style="fill: #1f77b4; opacity: 0.6"/>
   </g>
   <g id="patch_44">
    <path d="M 639.955091 828.779375 
L 652.287043 828.779375 
L 652.287043 247.133548 
L 639.955091 247.133548 
z
" clip-path="url(#p708b4ca180)" style="fill: #1f77b4; opacity: 0.6"/>
   </g>
   <g id="patch_45">
    <path d="M 652.287043 828.779375 
L 664.618994 828.779375 
L 664.618994 203.896159 
L 652.287043 203.896159 
z
" clip-path="url(#p708b4ca180)" style="fill: #1f77b4; opacity: 0.6"/>
   </g>
   <g id="patch_46">
    <path d="M 664.618994 828.779375 
L 676.950946 828.779375 
L 676.950946 294.488783 
L 664.618994 294.488783 
z
" clip-path="url(#p708b4ca180)" style="fill: #1f77b4; opacity: 0.6"/>
   </g>
   <g id="patch_47">
    <path d="M 676.950946 828.779375 
L 689.282898 828.779375 
L 689.282898 282.649974 
L 676.950946 282.649974 
z
" clip-path="url(#p708b4ca180)" style="fill: #1f77b4; opacity: 0.6"/>
   </g>
   <g id="patch_48">
    <path d="M 689.282898 828.779375 
L 701.614849 828.779375 
L 701.614849 318.681132 
L 689.282898 318.681132 
z
" clip-path="url(#p708b4ca180)" style="fill: #1f77b4; opacity: 0.6"/>
   </g>
   <g id="patch_49">
    <path d="M 701.614849 828.779375 
L 713.946801 828.779375 
L 713.946801 328.461017 
L 701.614849 328.461017 
z
" clip-path="url(#p708b4ca180)" style="fill: #1f77b4; opacity: 0.6"/>
   </g>
   <g id="patch_50">
    <path d="M 713.946801 828.779375 
L 726.278753 828.779375 
L 726.278753 373.75733 
L 713.946801 373.75733 
z
" clip-path="url(#p708b4ca180)" style="fill: #1f77b4; opacity: 0.6"/>
   </g>
   <g id="patch_51">
    <path d="M 726.278753 828.779375 
L 738.610705 828.779375 
L 738.610705 405.670641 
L 726.278753 405.670641 
z
" clip-path="url(#p708b4ca180)" style="fill: #1f77b4; opacity: 0.6"/>
   </g>
   <g id="patch_52">
    <path d="M 738.610705 828.779375 
L 750.942656 828.779375 
L 750.942656 408.244295 
L 738.610705 408.244295 
z
" clip-path="url(#p708b4ca180)" style="fill: #1f77b4; opacity: 0.6"/>
   </g>
   <g id="patch_53">
    <path d="M 750.942656 828.779375 
L 763.274608 828.779375 
L 763.274608 447.363837 
L 750.942656 447.363837 
z
" clip-path="url(#p708b4ca180)" style="fill: #1f77b4; opacity: 0.6"/>
   </g>
   <g id="patch_54">
    <path d="M 763.274608 828.779375 
L 775.60656 828.779375 
L 775.60656 464.349954 
L 763.274608 464.349954 
z
" clip-path="url(#p708b4ca180)" style="fill: #1f77b4; opacity: 0.6"/>
   </g>
   <g id="patch_55">
    <path d="M 775.60656 828.779375 
L 787.938511 828.779375 
L 787.938511 504.498958 
L 775.60656 504.498958 
z
" clip-path="url(#p708b4ca180)" style="fill: #1f77b4; opacity: 0.6"/>
   </g>
   <g id="patch_56">
    <path d="M 787.938511 828.779375 
L 800.270463 828.779375 
L 800.270463 531.264961 
L 787.938511 531.264961 
z
" clip-path="url(#p708b4ca180)" style="fill: #1f77b4; opacity: 0.6"/>
   </g>
   <g id="patch_57">
    <path d="M 800.270463 828.779375 
L 812.602415 828.779375 
L 812.602415 562.14881 
L 800.270463 562.14881 
z
" clip-path="url(#p708b4ca180)" style="fill: #1f77b4; opacity: 0.6"/>
   </g>
   <g id="patch_58">
    <path d="M 812.602415 828.779375 
L 824.934366 828.779375 
L 824.934366 568.32558 
L 812.602415 568.32558 
z
" clip-path="url(#p708b4ca180)" style="fill: #1f77b4; opacity: 0.6"/>
   </g>
   <g id="patch_59">
    <path d="M 824.934366 828.779375 
L 837.266318 828.779375 
L 837.266318 596.635775 
L 824.934366 596.635775 
z
" clip-path="url(#p708b4ca180)" style="fill: #1f77b4; opacity: 0.6"/>
   </g>
   <g id="patch_60">
    <path d="M 837.266318 828.779375 
L 849.59827 828.779375 
L 849.59827 623.401778 
L 837.266318 623.401778 
z
" clip-path="url(#p708b4ca180)" style="fill: #1f77b4; opacity: 0.6"/>
   </g>
   <g id="patch_61">
    <path d="M 849.59827 828.779375 
L 861.930222 828.779375 
L 861.930222 638.328971 
L 849.59827 638.328971 
z
" clip-path="url(#p708b4ca180)" style="fill: #1f77b4; opacity: 0.6"/>
   </g>
   <g id="patch_62">
    <path d="M 861.930222 828.779375 
L 874.262173 828.779375 
L 874.262173 667.153897 
L 861.930222 667.153897 
z
" clip-path="url(#p708b4ca180)" style="fill: #1f77b4; opacity: 0.6"/>
   </g>
   <g id="patch_63">
    <path d="M 874.262173 828.779375 
L 886.594125 828.779375 
L 886.594125 660.462397 
L 874.262173 660.462397 
z
" clip-path="url(#p708b4ca180)" style="fill: #1f77b4; opacity: 0.6"/>
   </g>
   <g id="patch_64">
    <path d="M 886.594125 828.779375 
L 898.926077 828.779375 
L 898.926077 691.860977 
L 886.594125 691.860977 
z
" clip-path="url(#p708b4ca180)" style="fill: #1f77b4; opacity: 0.6"/>
   </g>
   <g id="patch_65">
    <path d="M 898.926077 828.779375 
L 911.258028 828.779375 
L 911.258028 721.200634 
L 898.926077 721.200634 
z
" clip-path="url(#p708b4ca180)" style="fill: #1f77b4; opacity: 0.6"/>
   </g>
   <g id="patch_66">
    <path d="M 911.258028 828.779375 
L 923.58998 828.779375 
L 923.58998 714.509133 
L 911.258028 714.509133 
z
" clip-path="url(#p708b4ca180)" style="fill: #1f77b4; opacity: 0.6"/>
   </g>
   <g id="patch_67">
    <path d="M 923.58998 828.779375 
L 935.921932 828.779375 
L 935.921932 741.789866 
L 923.58998 741.789866 
z
" clip-path="url(#p708b4ca180)" style="fill: #1f77b4; opacity: 0.6"/>
   </g>
   <g id="patch_68">
    <path d="M 935.921932 828.779375 
L 948.253884 828.779375 
L 948.253884 741.275136 
L 935.921932 741.275136 
z
" clip-path="url(#p708b4ca180)" style="fill: #1f77b4; opacity: 0.6"/>
   </g>
   <g id="patch_69">
    <path d="M 948.253884 828.779375 
L 960.585835 828.779375 
L 960.585835 762.379099 
L 948.253884 762.379099 
z
" clip-path="url(#p708b4ca180)" style="fill: #1f77b4; opacity: 0.6"/>
   </g>
   <g id="patch_70">
    <path d="M 960.585835 828.779375 
L 972.917787 828.779375 
L 972.917787 764.438022 
L 960.585835 764.438022 
z
" clip-path="url(#p708b4ca180)" style="fill: #1f77b4; opacity: 0.6"/>
   </g>
   <g id="patch_71">
    <path d="M 972.917787 828.779375 
L 985.249739 828.779375 
L 985.249739 762.89383 
L 972.917787 762.89383 
z
" clip-path="url(#p708b4ca180)" style="fill: #1f77b4; opacity: 0.6"/>
   </g>
   <g id="patch_72">
    <path d="M 985.249739 828.779375 
L 997.58169 828.779375 
L 997.58169 768.041138 
L 985.249739 768.041138 
z
" clip-path="url(#p708b4ca180)" style="fill: #1f77b4; opacity: 0.6"/>
   </g>
   <g id="patch_73">
    <path d="M 997.58169 828.779375 
L 1009.913642 828.779375 
L 1009.913642 781.42414 
L 997.58169 781.42414 
z
" clip-path="url(#p708b4ca180)" style="fill: #1f77b4; opacity: 0.6"/>
   </g>
   <g id="patch_74">
    <path d="M 1009.913642 828.779375 
L 1022.245594 828.779375 
L 1022.245594 794.807141 
L 1009.913642 794.807141 
z
" clip-path="url(#p708b4ca180)" style="fill: #1f77b4; opacity: 0.6"/>
   </g>
   <g id="patch_75">
    <path d="M 1022.245594 828.779375 
L 1034.577545 828.779375 
L 1034.577545 797.895526 
L 1022.245594 797.895526 
z
" clip-path="url(#p708b4ca180)" style="fill: #1f77b4; opacity: 0.6"/>
   </g>
   <g id="patch_76">
    <path d="M 1034.577545 828.779375 
L 1046.909497 828.779375 
L 1046.909497 802.013372 
L 1034.577545 802.013372 
z
" clip-path="url(#p708b4ca180)" style="fill: #1f77b4; opacity: 0.6"/>
   </g>
   <g id="patch_77">
    <path d="M 1046.909497 828.779375 
L 1059.241449 828.779375 
L 1059.241449 805.101757 
L 1046.909497 805.101757 
z
" clip-path="url(#p708b4ca180)" style="fill: #1f77b4; opacity: 0.6"/>
   </g>
   <g id="patch_78">
    <path d="M 1059.241449 828.779375 
L 1071.573401 828.779375 
L 1071.573401 808.190142 
L 1059.241449 808.190142 
z
" clip-path="url(#p708b4ca180)" style="fill: #1f77b4; opacity: 0.6"/>
   </g>
   <g id="patch_79">
    <path d="M 1071.573401 828.779375 
L 1083.905352 828.779375 
L 1083.905352 811.793258 
L 1071.573401 811.793258 
z
" clip-path="url(#p708b4ca180)" style="fill: #1f77b4; opacity: 0.6"/>
   </g>
   <g id="patch_80">
    <path d="M 1083.905352 828.779375 
L 1096.237304 828.779375 
L 1096.237304 809.734335 
L 1083.905352 809.734335 
z
" clip-path="url(#p708b4ca180)" style="fill: #1f77b4; opacity: 0.6"/>
   </g>
   <g id="patch_81">
    <path d="M 1096.237304 828.779375 
L 1108.569256 828.779375 
L 1108.569256 814.881643 
L 1096.237304 814.881643 
z
" clip-path="url(#p708b4ca180)" style="fill: #1f77b4; opacity: 0.6"/>
   </g>
   <g id="patch_82">
    <path d="M 1108.569256 828.779375 
L 1120.901207 828.779375 
L 1120.901207 815.911104 
L 1108.569256 815.911104 
z
" clip-path="url(#p708b4ca180)" style="fill: #1f77b4; opacity: 0.6"/>
   </g>
   <g id="patch_83">
    <path d="M 1120.901207 828.779375 
L 1133.233159 828.779375 
L 1133.233159 821.058413 
L 1120.901207 821.058413 
z
" clip-path="url(#p708b4ca180)" style="fill: #1f77b4; opacity: 0.6"/>
   </g>
   <g id="patch_84">
    <path d="M 1133.233159 828.779375 
L 1145.565111 828.779375 
L 1145.565111 820.543682 
L 1133.233159 820.543682 
z
" clip-path="url(#p708b4ca180)" style="fill: #1f77b4; opacity: 0.6"/>
   </g>
   <g id="patch_85">
    <path d="M 1145.565111 828.779375 
L 1157.897062 828.779375 
L 1157.897062 823.632067 
L 1145.565111 823.632067 
z
" clip-path="url(#p708b4ca180)" style="fill: #1f77b4; opacity: 0.6"/>
   </g>
   <g id="patch_86">
    <path d="M 1157.897063 828.779375 
L 1170.229014 828.779375 
L 1170.229014 823.117336 
L 1157.897063 823.117336 
z
" clip-path="url(#p708b4ca180)" style="fill: #1f77b4; opacity: 0.6"/>
   </g>
   <g id="patch_87">
    <path d="M 1170.229014 828.779375 
L 1182.560966 828.779375 
L 1182.560966 823.117336 
L 1170.229014 823.117336 
z
" clip-path="url(#p708b4ca180)" style="fill: #1f77b4; opacity: 0.6"/>
   </g>
   <g id="patch_88">
    <path d="M 1182.560966 828.779375 
L 1194.892918 828.779375 
L 1194.892918 822.087874 
L 1182.560966 822.087874 
z
" clip-path="url(#p708b4ca180)" style="fill: #1f77b4; opacity: 0.6"/>
   </g>
   <g id="patch_89">
    <path d="M 1194.892918 828.779375 
L 1207.224869 828.779375 
L 1207.224869 825.69099 
L 1194.892918 825.69099 
z
" clip-path="url(#p708b4ca180)" style="fill: #1f77b4; opacity: 0.6"/>
   </g>
   <g id="patch_90">
    <path d="M 1207.224869 828.779375 
L 1219.556821 828.779375 
L 1219.556821 824.661528 
L 1207.224869 824.661528 
z
" clip-path="url(#p708b4ca180)" style="fill: #1f77b4; opacity: 0.6"/>
   </g>
   <g id="patch_91">
    <path d="M 1219.556821 828.779375 
L 1231.888773 828.779375 
L 1231.888773 826.720452 
L 1219.556821 826.720452 
z
" clip-path="url(#p708b4ca180)" style="fill: #1f77b4; opacity: 0.6"/>
   </g>
   <g id="patch_92">
    <path d="M 1231.888773 828.779375 
L 1244.220724 828.779375 
L 1244.220724 828.264644 
L 1231.888773 828.264644 
z
" clip-path="url(#p708b4ca180)" style="fill: #1f77b4; opacity: 0.6"/>
   </g>
   <g id="patch_93">
    <path d="M 1244.220724 828.779375 
L 1256.552676 828.779375 
L 1256.552676 826.205721 
L 1244.220724 826.205721 
z
" clip-path="url(#p708b4ca180)" style="fill: #1f77b4; opacity: 0.6"/>
   </g>
   <g id="patch_94">
    <path d="M 1256.552676 828.779375 
L 1268.884628 828.779375 
L 1268.884628 827.235183 
L 1256.552676 827.235183 
z
" clip-path="url(#p708b4ca180)" style="fill: #1f77b4; opacity: 0.6"/>
   </g>
   <g id="patch_95">
    <path d="M 1268.884628 828.779375 
L 1281.21658 828.779375 
L 1281.21658 827.749913 
L 1268.884628 827.749913 
z
" clip-path="url(#p708b4ca180)" style="fill: #1f77b4; opacity: 0.6"/>
   </g>
   <g id="patch_96">
    <path d="M 1281.21658 828.779375 
L 1293.548531 828.779375 
L 1293.548531 827.749913 
L 1281.21658 827.749913 
z
" clip-path="url(#p708b4ca180)" style="fill: #1f77b4; opacity: 0.6"/>
   </g>
   <g id="patch_97">
    <path d="M 1293.548531 828.779375 
L 1305.880483 828.779375 
L 1305.880483 828.779375 
L 1293.548531 828.779375 
z
" clip-path="url(#p708b4ca180)" style="fill: #1f77b4; opacity: 0.6"/>
   </g>
   <g id="patch_98">
    <path d="M 1305.880483 828.779375 
L 1318.212435 828.779375 
L 1318.212435 828.779375 
L 1305.880483 828.779375 
z
" clip-path="url(#p708b4ca180)" style="fill: #1f77b4; opacity: 0.6"/>
   </g>
   <g id="patch_99">
    <path d="M 1318.212435 828.779375 
L 1330.544386 828.779375 
L 1330.544386 828.264644 
L 1318.212435 828.264644 
z
" clip-path="url(#p708b4ca180)" style="fill: #1f77b4; opacity: 0.6"/>
   </g>
   <g id="patch_100">
    <path d="M 1330.544386 828.779375 
L 1342.876338 828.779375 
L 1342.876338 828.779375 
L 1330.544386 828.779375 
z
" clip-path="url(#p708b4ca180)" style="fill: #1f77b4; opacity: 0.6"/>
   </g>
   <g id="patch_101">
    <path d="M 1342.876338 828.779375 
L 1355.20829 828.779375 
L 1355.20829 828.779375 
L 1342.876338 828.779375 
z
" clip-path="url(#p708b4ca180)" style="fill: #1f77b4; opacity: 0.6"/>
   </g>
   <g id="patch_102">
    <path d="M 1355.20829 828.779375 
L 1367.540241 828.779375 
L 1367.540241 828.264644 
L 1355.20829 828.264644 
z
" clip-path="url(#p708b4ca180)" style="fill: #1f77b4; opacity: 0.6"/>
   </g>
   <g id="matplotlib.axis_1">
    <g id="xtick_1">
     <g id="line2d_1">
      <defs>
       <path id="m015e409f36" d="M 0 0 
L 0 3.5 
" style="stroke: #000000; stroke-width: 0.8"/>
      </defs>
      <g>
       <use xlink:href="#m015e409f36" x="107.732673" y="828.779375" style="stroke: #000000; stroke-width: 0.8"/>
      </g>
     </g>
     <g id="text_1">
      <!-- 0 -->
      <g transform="translate(102.006423 849.456563) scale(0.18 -0.18)">
       <defs>
        <path id="DejaVuSans-30" d="M 2034 4250 
Q 1547 4250 1301 3770 
Q 1056 3291 1056 2328 
Q 1056 1369 1301 889 
Q 1547 409 2034 409 
Q 2525 409 2770 889 
Q 3016 1369 3016 2328 
Q 3016 3291 2770 3770 
Q 2525 4250 2034 4250 
z
M 2034 4750 
Q 2819 4750 3233 4129 
Q 3647 3509 3647 2328 
Q 3647 1150 3233 529 
Q 2819 -91 2034 -91 
Q 1250 -91 836 529 
Q 422 1150 422 2328 
Q 422 3509 836 4129 
Q 1250 4750 2034 4750 
z
" transform="scale(0.015625)"/>
       </defs>
       <use xlink:href="#DejaVuSans-30"/>
      </g>
     </g>
    </g>
    <g id="xtick_2">
     <g id="line2d_2">
      <g>
       <use xlink:href="#m015e409f36" x="356.24151" y="828.779375" style="stroke: #000000; stroke-width: 0.8"/>
      </g>
     </g>
     <g id="text_2">
      <!-- 1 -->
      <g transform="translate(350.51526 849.456563) scale(0.18 -0.18)">
       <defs>
        <path id="DejaVuSans-31" d="M 794 531 
L 1825 531 
L 1825 4091 
L 703 3866 
L 703 4441 
L 1819 4666 
L 2450 4666 
L 2450 531 
L 3481 531 
L 3481 0 
L 794 0 
L 794 531 
z
" transform="scale(0.015625)"/>
       </defs>
       <use xlink:href="#DejaVuSans-31"/>
      </g>
     </g>
    </g>
    <g id="xtick_3">
     <g id="line2d_3">
      <g>
       <use xlink:href="#m015e409f36" x="604.750346" y="828.779375" style="stroke: #000000; stroke-width: 0.8"/>
      </g>
     </g>
     <g id="text_3">
      <!-- 2 -->
      <g transform="translate(599.024096 849.456563) scale(0.18 -0.18)">
       <defs>
        <path id="DejaVuSans-32" d="M 1228 531 
L 3431 531 
L 3431 0 
L 469 0 
L 469 531 
Q 828 903 1448 1529 
Q 2069 2156 2228 2338 
Q 2531 2678 2651 2914 
Q 2772 3150 2772 3378 
Q 2772 3750 2511 3984 
Q 2250 4219 1831 4219 
Q 1534 4219 1204 4116 
Q 875 4013 500 3803 
L 500 4441 
Q 881 4594 1212 4672 
Q 1544 4750 1819 4750 
Q 2544 4750 2975 4387 
Q 3406 4025 3406 3419 
Q 3406 3131 3298 2873 
Q 3191 2616 2906 2266 
Q 2828 2175 2409 1742 
Q 1991 1309 1228 531 
z
" transform="scale(0.015625)"/>
       </defs>
       <use xlink:href="#DejaVuSans-32"/>
      </g>
     </g>
    </g>
    <g id="xtick_4">
     <g id="line2d_4">
      <g>
       <use xlink:href="#m015e409f36" x="853.259183" y="828.779375" style="stroke: #000000; stroke-width: 0.8"/>
      </g>
     </g>
     <g id="text_4">
      <!-- 3 -->
      <g transform="translate(847.532933 849.456563) scale(0.18 -0.18)">
       <defs>
        <path id="DejaVuSans-33" d="M 2597 2516 
Q 3050 2419 3304 2112 
Q 3559 1806 3559 1356 
Q 3559 666 3084 287 
Q 2609 -91 1734 -91 
Q 1441 -91 1130 -33 
Q 819 25 488 141 
L 488 750 
Q 750 597 1062 519 
Q 1375 441 1716 441 
Q 2309 441 2620 675 
Q 2931 909 2931 1356 
Q 2931 1769 2642 2001 
Q 2353 2234 1838 2234 
L 1294 2234 
L 1294 2753 
L 1863 2753 
Q 2328 2753 2575 2939 
Q 2822 3125 2822 3475 
Q 2822 3834 2567 4026 
Q 2313 4219 1838 4219 
Q 1578 4219 1281 4162 
Q 984 4106 628 3988 
L 628 4550 
Q 988 4650 1302 4700 
Q 1616 4750 1894 4750 
Q 2613 4750 3031 4423 
Q 3450 4097 3450 3541 
Q 3450 3153 3228 2886 
Q 3006 2619 2597 2516 
z
" transform="scale(0.015625)"/>
       </defs>
       <use xlink:href="#DejaVuSans-33"/>
      </g>
     </g>
    </g>
    <g id="xtick_5">
     <g id="line2d_5">
      <g>
       <use xlink:href="#m015e409f36" x="1101.76802" y="828.779375" style="stroke: #000000; stroke-width: 0.8"/>
      </g>
     </g>
     <g id="text_5">
      <!-- 4 -->
      <g transform="translate(1096.04177 849.456563) scale(0.18 -0.18)">
       <defs>
        <path id="DejaVuSans-34" d="M 2419 4116 
L 825 1625 
L 2419 1625 
L 2419 4116 
z
M 2253 4666 
L 3047 4666 
L 3047 1625 
L 3713 1625 
L 3713 1100 
L 3047 1100 
L 3047 0 
L 2419 0 
L 2419 1100 
L 313 1100 
L 313 1709 
L 2253 4666 
z
" transform="scale(0.015625)"/>
       </defs>
       <use xlink:href="#DejaVuSans-34"/>
      </g>
     </g>
    </g>
    <g id="xtick_6">
     <g id="line2d_6">
      <g>
       <use xlink:href="#m015e409f36" x="1350.276856" y="828.779375" style="stroke: #000000; stroke-width: 0.8"/>
      </g>
     </g>
     <g id="text_6">
      <!-- 5 -->
      <g transform="translate(1344.550606 849.456563) scale(0.18 -0.18)">
       <defs>
        <path id="DejaVuSans-35" d="M 691 4666 
L 3169 4666 
L 3169 4134 
L 1269 4134 
L 1269 2991 
Q 1406 3038 1543 3061 
Q 1681 3084 1819 3084 
Q 2600 3084 3056 2656 
Q 3513 2228 3513 1497 
Q 3513 744 3044 326 
Q 2575 -91 1722 -91 
Q 1428 -91 1123 -41 
Q 819 9 494 109 
L 494 744 
Q 775 591 1075 516 
Q 1375 441 1709 441 
Q 2250 441 2565 725 
Q 2881 1009 2881 1497 
Q 2881 1984 2565 2268 
Q 2250 2553 1709 2553 
Q 1456 2553 1204 2497 
Q 953 2441 691 2322 
L 691 4666 
z
" transform="scale(0.015625)"/>
       </defs>
       <use xlink:href="#DejaVuSans-35"/>
      </g>
     </g>
    </g>
   </g>
   <g id="matplotlib.axis_2">
    <g id="ytick_1">
     <g id="line2d_7">
      <defs>
       <path id="mb50e58c3d6" d="M 0 0 
L -3.5 0 
" style="stroke: #000000; stroke-width: 0.8"/>
      </defs>
      <g>
       <use xlink:href="#mb50e58c3d6" x="72.685313" y="828.779375" style="stroke: #000000; stroke-width: 0.8"/>
      </g>
     </g>
     <g id="text_7">
      <!-- 0.0 -->
      <g transform="translate(37.059688 835.617969) scale(0.18 -0.18)">
       <defs>
        <path id="DejaVuSans-2e" d="M 684 794 
L 1344 794 
L 1344 0 
L 684 0 
L 684 794 
z
" transform="scale(0.015625)"/>
       </defs>
       <use xlink:href="#DejaVuSans-30"/>
       <use xlink:href="#DejaVuSans-2e" transform="translate(63.623047 0)"/>
       <use xlink:href="#DejaVuSans-30" transform="translate(95.410156 0)"/>
      </g>
     </g>
    </g>
    <g id="ytick_2">
     <g id="line2d_8">
      <g>
       <use xlink:href="#mb50e58c3d6" x="72.685313" y="701.06489" style="stroke: #000000; stroke-width: 0.8"/>
      </g>
     </g>
     <g id="text_8">
      <!-- 0.1 -->
      <g transform="translate(37.059688 707.903484) scale(0.18 -0.18)">
       <use xlink:href="#DejaVuSans-30"/>
       <use xlink:href="#DejaVuSans-2e" transform="translate(63.623047 0)"/>
       <use xlink:href="#DejaVuSans-31" transform="translate(95.410156 0)"/>
      </g>
     </g>
    </g>
    <g id="ytick_3">
     <g id="line2d_9">
      <g>
       <use xlink:href="#mb50e58c3d6" x="72.685313" y="573.350405" style="stroke: #000000; stroke-width: 0.8"/>
      </g>
     </g>
     <g id="text_9">
      <!-- 0.2 -->
      <g transform="translate(37.059688 580.188999) scale(0.18 -0.18)">
       <use xlink:href="#DejaVuSans-30"/>
       <use xlink:href="#DejaVuSans-2e" transform="translate(63.623047 0)"/>
       <use xlink:href="#DejaVuSans-32" transform="translate(95.410156 0)"/>
      </g>
     </g>
    </g>
    <g id="ytick_4">
     <g id="line2d_10">
      <g>
       <use xlink:href="#mb50e58c3d6" x="72.685313" y="445.63592" style="stroke: #000000; stroke-width: 0.8"/>
      </g>
     </g>
     <g id="text_10">
      <!-- 0.3 -->
      <g transform="translate(37.059688 452.474514) scale(0.18 -0.18)">
       <use xlink:href="#DejaVuSans-30"/>
       <use xlink:href="#DejaVuSans-2e" transform="translate(63.623047 0)"/>
       <use xlink:href="#DejaVuSans-33" transform="translate(95.410156 0)"/>
      </g>
     </g>
    </g>
    <g id="ytick_5">
     <g id="line2d_11">
      <g>
       <use xlink:href="#mb50e58c3d6" x="72.685313" y="317.921435" style="stroke: #000000; stroke-width: 0.8"/>
      </g>
     </g>
     <g id="text_11">
      <!-- 0.4 -->
      <g transform="translate(37.059688 324.760029) scale(0.18 -0.18)">
       <use xlink:href="#DejaVuSans-30"/>
       <use xlink:href="#DejaVuSans-2e" transform="translate(63.623047 0)"/>
       <use xlink:href="#DejaVuSans-34" transform="translate(95.410156 0)"/>
      </g>
     </g>
    </g>
    <g id="ytick_6">
     <g id="line2d_12">
      <g>
       <use xlink:href="#mb50e58c3d6" x="72.685313" y="190.20695" style="stroke: #000000; stroke-width: 0.8"/>
      </g>
     </g>
     <g id="text_12">
      <!-- 0.5 -->
      <g transform="translate(37.059688 197.045544) scale(0.18 -0.18)">
       <use xlink:href="#DejaVuSans-30"/>
       <use xlink:href="#DejaVuSans-2e" transform="translate(63.623047 0)"/>
       <use xlink:href="#DejaVuSans-35" transform="translate(95.410156 0)"/>
      </g>
     </g>
    </g>
    <g id="ytick_7">
     <g id="line2d_13">
      <g>
       <use xlink:href="#mb50e58c3d6" x="72.685313" y="62.492465" style="stroke: #000000; stroke-width: 0.8"/>
      </g>
     </g>
     <g id="text_13">
      <!-- 0.6 -->
      <g transform="translate(37.059688 69.331059) scale(0.18 -0.18)">
       <defs>
        <path id="DejaVuSans-36" d="M 2113 2584 
Q 1688 2584 1439 2293 
Q 1191 2003 1191 1497 
Q 1191 994 1439 701 
Q 1688 409 2113 409 
Q 2538 409 2786 701 
Q 3034 994 3034 1497 
Q 3034 2003 2786 2293 
Q 2538 2584 2113 2584 
z
M 3366 4563 
L 3366 3988 
Q 3128 4100 2886 4159 
Q 2644 4219 2406 4219 
Q 1781 4219 1451 3797 
Q 1122 3375 1075 2522 
Q 1259 2794 1537 2939 
Q 1816 3084 2150 3084 
Q 2853 3084 3261 2657 
Q 3669 2231 3669 1497 
Q 3669 778 3244 343 
Q 2819 -91 2113 -91 
Q 1303 -91 875 529 
Q 447 1150 447 2328 
Q 447 3434 972 4092 
Q 1497 4750 2381 4750 
Q 2619 4750 2861 4703 
Q 3103 4656 3366 4563 
z
" transform="scale(0.015625)"/>
       </defs>
       <use xlink:href="#DejaVuSans-30"/>
       <use xlink:href="#DejaVuSans-2e" transform="translate(63.623047 0)"/>
       <use xlink:href="#DejaVuSans-36" transform="translate(95.410156 0)"/>
      </g>
     </g>
    </g>
    <g id="text_14">
     <!-- Normed Hist Counts -->
     <g transform="translate(28.276406 548.966563) rotate(-90) scale(0.23 -0.23)">
      <defs>
       <path id="DejaVuSans-4e" d="M 628 4666 
L 1478 4666 
L 3547 763 
L 3547 4666 
L 4159 4666 
L 4159 0 
L 3309 0 
L 1241 3903 
L 1241 0 
L 628 0 
L 628 4666 
z
" transform="scale(0.015625)"/>
       <path id="DejaVuSans-6f" d="M 1959 3097 
Q 1497 3097 1228 2736 
Q 959 2375 959 1747 
Q 959 1119 1226 758 
Q 1494 397 1959 397 
Q 2419 397 2687 759 
Q 2956 1122 2956 1747 
Q 2956 2369 2687 2733 
Q 2419 3097 1959 3097 
z
M 1959 3584 
Q 2709 3584 3137 3096 
Q 3566 2609 3566 1747 
Q 3566 888 3137 398 
Q 2709 -91 1959 -91 
Q 1206 -91 779 398 
Q 353 888 353 1747 
Q 353 2609 779 3096 
Q 1206 3584 1959 3584 
z
" transform="scale(0.015625)"/>
       <path id="DejaVuSans-72" d="M 2631 2963 
Q 2534 3019 2420 3045 
Q 2306 3072 2169 3072 
Q 1681 3072 1420 2755 
Q 1159 2438 1159 1844 
L 1159 0 
L 581 0 
L 581 3500 
L 1159 3500 
L 1159 2956 
Q 1341 3275 1631 3429 
Q 1922 3584 2338 3584 
Q 2397 3584 2469 3576 
Q 2541 3569 2628 3553 
L 2631 2963 
z
" transform="scale(0.015625)"/>
       <path id="DejaVuSans-6d" d="M 3328 2828 
Q 3544 3216 3844 3400 
Q 4144 3584 4550 3584 
Q 5097 3584 5394 3201 
Q 5691 2819 5691 2113 
L 5691 0 
L 5113 0 
L 5113 2094 
Q 5113 2597 4934 2840 
Q 4756 3084 4391 3084 
Q 3944 3084 3684 2787 
Q 3425 2491 3425 1978 
L 3425 0 
L 2847 0 
L 2847 2094 
Q 2847 2600 2669 2842 
Q 2491 3084 2119 3084 
Q 1678 3084 1418 2786 
Q 1159 2488 1159 1978 
L 1159 0 
L 581 0 
L 581 3500 
L 1159 3500 
L 1159 2956 
Q 1356 3278 1631 3431 
Q 1906 3584 2284 3584 
Q 2666 3584 2933 3390 
Q 3200 3197 3328 2828 
z
" transform="scale(0.015625)"/>
       <path id="DejaVuSans-65" d="M 3597 1894 
L 3597 1613 
L 953 1613 
Q 991 1019 1311 708 
Q 1631 397 2203 397 
Q 2534 397 2845 478 
Q 3156 559 3463 722 
L 3463 178 
Q 3153 47 2828 -22 
Q 2503 -91 2169 -91 
Q 1331 -91 842 396 
Q 353 884 353 1716 
Q 353 2575 817 3079 
Q 1281 3584 2069 3584 
Q 2775 3584 3186 3129 
Q 3597 2675 3597 1894 
z
M 3022 2063 
Q 3016 2534 2758 2815 
Q 2500 3097 2075 3097 
Q 1594 3097 1305 2825 
Q 1016 2553 972 2059 
L 3022 2063 
z
" transform="scale(0.015625)"/>
       <path id="DejaVuSans-64" d="M 2906 2969 
L 2906 4863 
L 3481 4863 
L 3481 0 
L 2906 0 
L 2906 525 
Q 2725 213 2448 61 
Q 2172 -91 1784 -91 
Q 1150 -91 751 415 
Q 353 922 353 1747 
Q 353 2572 751 3078 
Q 1150 3584 1784 3584 
Q 2172 3584 2448 3432 
Q 2725 3281 2906 2969 
z
M 947 1747 
Q 947 1113 1208 752 
Q 1469 391 1925 391 
Q 2381 391 2643 752 
Q 2906 1113 2906 1747 
Q 2906 2381 2643 2742 
Q 2381 3103 1925 3103 
Q 1469 3103 1208 2742 
Q 947 2381 947 1747 
z
" transform="scale(0.015625)"/>
       <path id="DejaVuSans-20" transform="scale(0.015625)"/>
       <path id="DejaVuSans-48" d="M 628 4666 
L 1259 4666 
L 1259 2753 
L 3553 2753 
L 3553 4666 
L 4184 4666 
L 4184 0 
L 3553 0 
L 3553 2222 
L 1259 2222 
L 1259 0 
L 628 0 
L 628 4666 
z
" transform="scale(0.015625)"/>
       <path id="DejaVuSans-69" d="M 603 3500 
L 1178 3500 
L 1178 0 
L 603 0 
L 603 3500 
z
M 603 4863 
L 1178 4863 
L 1178 4134 
L 603 4134 
L 603 4863 
z
" transform="scale(0.015625)"/>
       <path id="DejaVuSans-73" d="M 2834 3397 
L 2834 2853 
Q 2591 2978 2328 3040 
Q 2066 3103 1784 3103 
Q 1356 3103 1142 2972 
Q 928 2841 928 2578 
Q 928 2378 1081 2264 
Q 1234 2150 1697 2047 
L 1894 2003 
Q 2506 1872 2764 1633 
Q 3022 1394 3022 966 
Q 3022 478 2636 193 
Q 2250 -91 1575 -91 
Q 1294 -91 989 -36 
Q 684 19 347 128 
L 347 722 
Q 666 556 975 473 
Q 1284 391 1588 391 
Q 1994 391 2212 530 
Q 2431 669 2431 922 
Q 2431 1156 2273 1281 
Q 2116 1406 1581 1522 
L 1381 1569 
Q 847 1681 609 1914 
Q 372 2147 372 2553 
Q 372 3047 722 3315 
Q 1072 3584 1716 3584 
Q 2034 3584 2315 3537 
Q 2597 3491 2834 3397 
z
" transform="scale(0.015625)"/>
       <path id="DejaVuSans-74" d="M 1172 4494 
L 1172 3500 
L 2356 3500 
L 2356 3053 
L 1172 3053 
L 1172 1153 
Q 1172 725 1289 603 
Q 1406 481 1766 481 
L 2356 481 
L 2356 0 
L 1766 0 
Q 1100 0 847 248 
Q 594 497 594 1153 
L 594 3053 
L 172 3053 
L 172 3500 
L 594 3500 
L 594 4494 
L 1172 4494 
z
" transform="scale(0.015625)"/>
       <path id="DejaVuSans-43" d="M 4122 4306 
L 4122 3641 
Q 3803 3938 3442 4084 
Q 3081 4231 2675 4231 
Q 1875 4231 1450 3742 
Q 1025 3253 1025 2328 
Q 1025 1406 1450 917 
Q 1875 428 2675 428 
Q 3081 428 3442 575 
Q 3803 722 4122 1019 
L 4122 359 
Q 3791 134 3420 21 
Q 3050 -91 2638 -91 
Q 1578 -91 968 557 
Q 359 1206 359 2328 
Q 359 3453 968 4101 
Q 1578 4750 2638 4750 
Q 3056 4750 3426 4639 
Q 3797 4528 4122 4306 
z
" transform="scale(0.015625)"/>
       <path id="DejaVuSans-75" d="M 544 1381 
L 544 3500 
L 1119 3500 
L 1119 1403 
Q 1119 906 1312 657 
Q 1506 409 1894 409 
Q 2359 409 2629 706 
Q 2900 1003 2900 1516 
L 2900 3500 
L 3475 3500 
L 3475 0 
L 2900 0 
L 2900 538 
Q 2691 219 2414 64 
Q 2138 -91 1772 -91 
Q 1169 -91 856 284 
Q 544 659 544 1381 
z
M 1991 3584 
L 1991 3584 
z
" transform="scale(0.015625)"/>
       <path id="DejaVuSans-6e" d="M 3513 2113 
L 3513 0 
L 2938 0 
L 2938 2094 
Q 2938 2591 2744 2837 
Q 2550 3084 2163 3084 
Q 1697 3084 1428 2787 
Q 1159 2491 1159 1978 
L 1159 0 
L 581 0 
L 581 3500 
L 1159 3500 
L 1159 2956 
Q 1366 3272 1645 3428 
Q 1925 3584 2291 3584 
Q 2894 3584 3203 3211 
Q 3513 2838 3513 2113 
z
" transform="scale(0.015625)"/>
      </defs>
      <use xlink:href="#DejaVuSans-4e"/>
      <use xlink:href="#DejaVuSans-6f" transform="translate(74.804688 0)"/>
      <use xlink:href="#DejaVuSans-72" transform="translate(135.986328 0)"/>
      <use xlink:href="#DejaVuSans-6d" transform="translate(175.349609 0)"/>
      <use xlink:href="#DejaVuSans-65" transform="translate(272.761719 0)"/>
      <use xlink:href="#DejaVuSans-64" transform="translate(334.285156 0)"/>
      <use xlink:href="#DejaVuSans-20" transform="translate(397.761719 0)"/>
      <use xlink:href="#DejaVuSans-48" transform="translate(429.548828 0)"/>
      <use xlink:href="#DejaVuSans-69" transform="translate(504.744141 0)"/>
      <use xlink:href="#DejaVuSans-73" transform="translate(532.527344 0)"/>
      <use xlink:href="#DejaVuSans-74" transform="translate(584.626953 0)"/>
      <use xlink:href="#DejaVuSans-20" transform="translate(623.835938 0)"/>
      <use xlink:href="#DejaVuSans-43" transform="translate(655.623047 0)"/>
      <use xlink:href="#DejaVuSans-6f" transform="translate(725.447266 0)"/>
      <use xlink:href="#DejaVuSans-75" transform="translate(786.628906 0)"/>
      <use xlink:href="#DejaVuSans-6e" transform="translate(850.007812 0)"/>
      <use xlink:href="#DejaVuSans-74" transform="translate(913.386719 0)"/>
      <use xlink:href="#DejaVuSans-73" transform="translate(952.595703 0)"/>
     </g>
    </g>
   </g>
   <g id="line2d_14">
    <path d="M 137.428059 828.313875 
L 143.594035 827.755462 
L 149.760011 826.883665 
L 155.925987 825.637953 
L 162.091962 823.961704 
L 168.257938 821.802203 
L 174.423914 819.11072 
L 180.58989 815.842621 
L 186.755866 811.957493 
L 192.921842 807.419271 
L 199.087817 802.196363 
L 205.253793 796.26175 
L 211.419769 789.593084 
L 217.585745 782.172754 
L 223.751721 773.987942 
L 229.917697 765.030644 
L 236.083673 755.297679 
L 242.249648 744.790663 
L 248.415624 733.515965 
L 254.5816 721.484638 
L 260.747576 708.71232 
L 266.913552 695.219117 
L 273.079528 681.029462 
L 279.245504 666.171949 
L 285.411479 650.679146 
L 291.577455 634.587392 
L 297.743431 617.936573 
L 303.909407 600.769877 
L 310.075383 583.133543 
L 316.241359 565.076586 
L 328.57331 527.909054 
L 340.905262 489.704 
L 384.067093 354.602178 
L 396.399045 317.582685 
L 402.565021 299.628456 
L 408.730996 282.117906 
L 414.896972 265.103711 
L 421.062948 248.636414 
L 427.228924 232.764208 
L 433.3949 217.532745 
L 439.560876 202.98496 
L 445.726852 189.16091 
L 451.892827 176.097634 
L 458.058803 163.829033 
L 464.224779 152.385769 
L 470.390755 141.795181 
L 476.556731 132.081223 
L 482.722707 123.26442 
L 488.888683 115.361842 
L 495.054658 108.387099 
L 501.220634 102.350352 
L 507.38661 97.258339 
L 513.552586 93.114427 
L 519.718562 89.918667 
L 525.884538 87.667873 
L 532.050513 86.355716 
L 538.216489 85.972821 
L 544.382465 86.50689 
L 550.548441 87.942826 
L 556.714417 90.26287 
L 562.880393 93.446748 
L 569.046369 97.471828 
L 575.212344 102.313274 
L 581.37832 107.944219 
L 587.544296 114.335933 
L 593.710272 121.457996 
L 599.876248 129.278475 
L 606.042224 137.764101 
L 612.2082 146.880448 
L 618.374175 156.592108 
L 624.540151 166.862864 
L 630.706127 177.655866 
L 636.872103 188.933796 
L 643.038079 200.659033 
L 649.204055 212.793815 
L 655.370031 225.300386 
L 661.536006 238.141152 
L 673.867958 264.676498 
L 686.19991 292.107376 
L 698.531862 320.152023 
L 747.859668 433.380886 
L 760.19162 460.847466 
L 772.523572 487.612121 
L 784.855523 513.531775 
L 791.021499 526.136247 
L 797.187475 538.486093 
L 803.353451 550.569731 
L 809.519427 562.376909 
L 815.685403 573.898675 
L 821.851379 585.127334 
L 828.017354 596.05641 
L 834.18333 606.680598 
L 840.349306 616.995721 
L 846.515282 626.998677 
L 852.681258 636.687391 
L 858.847234 646.06076 
L 865.01321 655.118602 
L 871.179185 663.861601 
L 877.345161 672.291254 
L 883.511137 680.409812 
L 889.677113 688.22023 
L 895.843089 695.726115 
L 902.009065 702.931665 
L 908.17504 709.841623 
L 914.341016 716.461227 
L 920.506992 722.796154 
L 926.672968 728.852476 
L 932.838944 734.636614 
L 939.00492 740.155288 
L 945.170896 745.415479 
L 951.336871 750.424386 
L 957.502847 755.189383 
L 963.668823 759.717988 
L 969.834799 764.017821 
L 976.000775 768.096578 
L 982.166751 771.961992 
L 988.332727 775.62181 
L 994.498702 779.083763 
L 1000.664678 782.355542 
L 1006.830654 785.444775 
L 1012.99663 788.359006 
L 1019.162606 791.105677 
L 1025.328582 793.692107 
L 1031.494558 796.125483 
L 1037.660533 798.412842 
L 1043.826509 800.561058 
L 1049.992485 802.576836 
L 1056.158461 804.4667 
L 1068.490413 807.89384 
L 1080.822364 810.89082 
L 1093.154316 813.502765 
L 1105.486268 815.771511 
L 1117.818219 817.73561 
L 1130.150171 819.430374 
L 1142.482123 820.887961 
L 1154.814075 822.137505 
L 1167.146026 823.205258 
L 1185.643954 824.516818 
L 1204.141881 825.540645 
L 1222.639809 826.334242 
L 1247.303712 827.115042 
L 1271.967616 827.659192 
L 1302.797495 828.107152 
L 1339.79335 828.423403 
L 1364.457254 828.549579 
L 1364.457254 828.549579 
" clip-path="url(#p708b4ca180)" style="fill: none; stroke: #ff7f0e; stroke-width: 1.5; stroke-linecap: square"/>
   </g>
   <g id="line2d_15">
    <path d="M 137.428059 824.372096 
L 143.594035 823.256961 
L 149.760011 821.919505 
L 155.925987 820.32849 
L 162.091962 818.450631 
L 168.257938 816.250818 
L 174.423914 813.692387 
L 180.58989 810.737446 
L 186.755866 807.347244 
L 192.921842 803.482589 
L 199.087817 799.104303 
L 205.253793 794.173706 
L 211.419769 788.653126 
L 217.585745 782.506431 
L 223.751721 775.699556 
L 229.917697 768.201048 
L 236.083673 759.982579 
L 242.249648 751.019463 
L 248.415624 741.291124 
L 254.5816 730.781549 
L 260.747576 719.479681 
L 266.913552 707.37977 
L 273.079528 694.481673 
L 279.245504 680.791082 
L 285.411479 666.319696 
L 291.577455 651.085321 
L 297.743431 635.111905 
L 303.909407 618.429501 
L 310.075383 601.074161 
L 316.241359 583.087761 
L 322.407335 564.517768 
L 328.57331 545.416934 
L 334.739286 525.842948 
L 347.071238 485.528438 
L 359.40319 444.117797 
L 390.233069 339.752514 
L 402.565021 299.323838 
L 408.730996 279.704807 
L 414.896972 260.582708 
L 421.062948 242.029499 
L 427.228924 224.114107 
L 433.3949 206.901999 
L 439.560876 190.454799 
L 445.726852 174.82994 
L 451.892827 160.08037 
L 458.058803 146.254291 
L 464.224779 133.394951 
L 470.390755 121.540484 
L 476.556731 110.72379 
L 482.722707 100.972459 
L 488.888683 92.308745 
L 495.054658 84.749574 
L 501.220634 78.306597 
L 507.38661 72.986274 
L 513.552586 68.79 
L 519.718562 65.714255 
L 525.884538 63.750791 
L 532.050513 62.886835 
L 538.216489 63.105324 
L 544.382465 64.385152 
L 550.548441 66.701439 
L 556.714417 70.025811 
L 562.880393 74.326686 
L 569.046369 79.569578 
L 575.212344 85.717394 
L 581.37832 92.73074 
L 587.544296 100.568224 
L 593.710272 109.186755 
L 599.876248 118.541843 
L 606.042224 128.587883 
L 612.2082 139.278436 
L 618.374175 150.566499 
L 624.540151 162.404767 
L 630.706127 174.745872 
L 636.872103 187.542617 
L 643.038079 200.748197 
L 649.204055 214.316398 
L 661.536006 242.359864 
L 673.867958 271.321838 
L 692.365886 315.768431 
L 717.029789 375.356893 
L 729.361741 404.712986 
L 741.693692 433.487679 
L 754.025644 461.500689 
L 766.357596 488.600466 
L 772.523572 501.768124 
L 778.689548 514.663085 
L 784.855523 527.273927 
L 791.021499 539.590756 
L 797.187475 551.605136 
L 803.353451 563.310029 
L 809.519427 574.699728 
L 815.685403 585.76979 
L 821.851379 596.516962 
L 828.017354 606.939121 
L 834.18333 617.035193 
L 840.349306 626.805095 
L 846.515282 636.249657 
L 852.681258 645.37056 
L 858.847234 654.170268 
L 865.01321 662.651963 
L 871.179185 670.819482 
L 877.345161 678.677257 
L 883.511137 686.230253 
L 889.677113 693.483914 
L 895.843089 700.44411 
L 902.009065 707.11708 
L 908.17504 713.509387 
L 914.341016 719.627869 
L 920.506992 725.479596 
L 926.672968 731.071828 
L 932.838944 736.411975 
L 939.00492 741.507561 
L 945.170896 746.366191 
L 951.336871 750.995517 
L 957.502847 755.403211 
L 963.668823 759.596938 
L 969.834799 763.58433 
L 976.000775 767.372963 
L 982.166751 770.970342 
L 988.332727 774.383876 
L 994.498702 777.620864 
L 1000.664678 780.688483 
L 1006.830654 783.593771 
L 1012.99663 786.34362 
L 1019.162606 788.944764 
L 1025.328582 791.403769 
L 1031.494558 793.72703 
L 1037.660533 795.920763 
L 1043.826509 797.991003 
L 1056.158461 801.784202 
L 1068.490413 805.151137 
L 1080.822364 808.133279 
L 1093.154316 810.76907 
L 1105.486268 813.093984 
L 1117.818219 815.140612 
L 1130.150171 816.938774 
L 1142.482123 818.515649 
L 1154.814075 819.895922 
L 1167.146026 821.10193 
L 1185.643954 822.627717 
L 1204.141881 823.865878 
L 1222.639809 824.866909 
L 1241.137737 825.673325 
L 1265.80164 826.506437 
L 1290.465543 827.124391 
L 1321.295423 827.673743 
L 1358.291278 828.104444 
L 1364.457254 828.158348 
L 1364.457254 828.158348 
" clip-path="url(#p708b4ca180)" style="fill: none; stroke: #2ca02c; stroke-width: 1.5; stroke-linecap: square"/>
   </g>
   <g id="line2d_16">
    <path d="M 137.428059 113.996585 
L 149.760011 133.710622 
L 162.091962 152.880937 
L 174.423914 171.522526 
L 186.755866 189.649971 
L 199.087817 207.277453 
L 211.419769 224.418761 
L 223.751721 241.087304 
L 236.083673 257.296121 
L 248.415624 273.057891 
L 260.747576 288.384945 
L 273.079528 303.289271 
L 285.411479 317.782529 
L 297.743431 331.876056 
L 310.075383 345.580878 
L 322.407335 358.907714 
L 334.739286 371.86699 
L 347.071238 384.468843 
L 359.40319 396.723131 
L 371.735141 408.639441 
L 384.067093 420.227093 
L 396.399045 431.495152 
L 408.730996 442.452433 
L 421.062948 453.107507 
L 433.3949 463.46871 
L 445.726852 473.544145 
L 458.058803 483.341696 
L 470.390755 492.869026 
L 482.722707 502.133587 
L 495.054658 511.142628 
L 507.38661 519.903195 
L 519.718562 528.422142 
L 532.050513 536.706132 
L 544.382465 544.761646 
L 556.714417 552.594985 
L 569.046369 560.212277 
L 581.37832 567.619481 
L 593.710272 574.822391 
L 606.042224 581.826641 
L 618.374175 588.63771 
L 630.706127 595.260928 
L 643.038079 601.701473 
L 655.370031 607.964386 
L 667.701982 614.054565 
L 680.033934 619.976774 
L 698.531862 628.555242 
L 717.029789 636.781272 
L 735.527717 644.669342 
L 754.025644 652.233339 
L 772.523572 659.486575 
L 791.021499 666.441819 
L 809.519427 673.111312 
L 828.017354 679.506796 
L 846.515282 685.639526 
L 865.01321 691.520299 
L 883.511137 697.159466 
L 902.009065 702.566952 
L 920.506992 707.752277 
L 939.00492 712.724567 
L 957.502847 717.492575 
L 976.000775 722.064694 
L 994.498702 726.448972 
L 1012.99663 730.653125 
L 1037.660533 735.991216 
L 1062.324437 741.038914 
L 1086.98834 745.812016 
L 1111.652244 750.325459 
L 1136.316147 754.593371 
L 1160.98005 758.629107 
L 1185.643954 762.445298 
L 1210.307857 766.053888 
L 1234.971761 769.466169 
L 1259.635664 772.692821 
L 1290.465543 776.480427 
L 1321.295423 780.012251 
L 1352.125302 783.305565 
L 1364.457254 784.559754 
L 1364.457254 784.559754 
" clip-path="url(#p708b4ca180)" style="fill: none; stroke: #d62728; stroke-width: 1.5; stroke-linecap: square"/>
   </g>
   <g id="line2d_17">
    <path d="M 137.428059 778.413248 
L 149.760011 773.608045 
L 162.091962 768.344398 
L 168.257938 765.527149 
L 174.423914 762.578571 
L 180.58989 759.492541 
L 186.755866 756.262653 
L 192.921842 752.882199 
L 199.087817 749.344161 
L 205.253793 745.641194 
L 211.419769 741.765608 
L 217.585745 737.709357 
L 223.751721 733.464019 
L 229.917697 729.020779 
L 236.083673 724.370413 
L 242.249648 719.503264 
L 248.415624 714.409227 
L 254.5816 709.077726 
L 260.747576 703.49769 
L 266.913552 697.657534 
L 273.079528 691.545133 
L 279.245504 685.147794 
L 285.411479 678.452236 
L 291.577455 671.444556 
L 297.743431 664.110205 
L 303.909407 656.433955 
L 310.075383 648.399867 
L 316.241359 639.99126 
L 322.407335 631.190676 
L 328.57331 621.979842 
L 334.739286 612.339634 
L 340.905262 602.250036 
L 347.071238 591.6901 
L 353.237214 580.6379 
L 359.40319 569.070488 
L 365.569165 556.963847 
L 371.735141 544.29284 
L 377.901117 531.03116 
L 384.067093 517.15127 
L 390.233069 502.624353 
L 396.399045 487.420246 
L 402.565021 471.507381 
L 408.730996 454.85272 
L 414.896972 437.421681 
L 421.062948 419.178073 
L 427.228924 400.084018 
L 433.3949 380.099871 
L 439.560876 359.184138 
L 445.726852 337.293394 
L 451.892827 314.382186 
L 458.058803 290.402945 
L 464.224779 265.305883 
L 470.390755 239.038892 
L 476.556731 211.547433 
L 482.722707 182.774427 
L 488.888683 152.660133 
L 495.054658 121.142024 
L 501.220634 88.154662 
L 507.38661 53.629554 
L 513.552586 17.495017 
L 516.567998 -1 
M 610.237284 -1 
L 612.2082 11.182662 
L 618.374175 47.598351 
L 624.540151 82.392089 
L 630.706127 115.636116 
L 636.872103 147.399456 
L 643.038079 177.748061 
L 649.204055 206.744941 
L 655.370031 234.450302 
L 661.536006 260.921669 
L 667.701982 286.214004 
L 673.867958 310.37982 
L 680.033934 333.469293 
L 686.19991 355.530362 
L 692.365886 376.608833 
L 698.531862 396.748471 
L 704.697837 415.991091 
L 710.863813 434.376647 
L 717.029789 451.943311 
L 723.195765 468.727558 
L 729.361741 484.764236 
L 735.527717 500.086641 
L 741.693692 514.726588 
L 747.859668 528.714473 
L 754.025644 542.079338 
L 760.19162 554.848934 
L 766.357596 567.049772 
L 772.523572 578.707187 
L 778.689548 589.845381 
L 784.855523 600.487481 
L 791.021499 610.655583 
L 797.187475 620.370798 
L 803.353451 629.653299 
L 809.519427 638.522358 
L 815.685403 646.996389 
L 821.851379 655.092988 
L 828.017354 662.828965 
L 834.18333 670.220383 
L 840.349306 677.282587 
L 846.515282 684.030241 
L 852.681258 690.477355 
L 858.847234 696.637316 
L 865.01321 702.522912 
L 871.179185 708.146364 
L 877.345161 713.519348 
L 883.511137 718.65302 
L 889.677113 723.558039 
L 895.843089 728.244588 
L 902.009065 732.722399 
L 908.17504 737.000769 
L 914.341016 741.08858 
L 920.506992 744.994321 
L 926.672968 748.7261 
L 932.838944 752.291666 
L 939.00492 755.698422 
L 945.170896 758.953442 
L 951.336871 762.063483 
L 957.502847 765.035003 
L 963.668823 767.874172 
L 976.000775 773.178774 
L 988.332727 778.021365 
L 1000.664678 782.442186 
L 1012.99663 786.477971 
L 1025.328582 790.162255 
L 1037.660533 793.525653 
L 1049.992485 796.596112 
L 1062.324437 799.399147 
L 1074.656388 801.958048 
L 1086.98834 804.294079 
L 1099.320292 806.426651 
L 1111.652244 808.373484 
L 1123.984195 810.150756 
L 1142.482123 812.530687 
L 1160.98005 814.606566 
L 1179.477978 816.417237 
L 1197.975906 817.996583 
L 1216.473833 819.374157 
L 1241.137737 820.941126 
L 1265.80164 822.247028 
L 1290.465543 823.335358 
L 1321.295423 824.444444 
L 1352.125302 825.32758 
L 1364.457254 825.628218 
L 1364.457254 825.628218 
" clip-path="url(#p708b4ca180)" style="fill: none; stroke: #9467bd; stroke-width: 1.5; stroke-linecap: square"/>
   </g>
   <g id="line2d_18">
    <path d="M 137.428059 822.799763 
L 143.594035 821.534588 
L 149.760011 820.051554 
L 155.925987 818.323085 
L 162.091962 816.319811 
L 168.257938 814.010705 
L 174.423914 811.36327 
L 180.58989 808.343757 
L 186.755866 804.917437 
L 192.921842 801.048904 
L 199.087817 796.702426 
L 205.253793 791.842319 
L 211.419769 786.433368 
L 217.585745 780.441263 
L 223.751721 773.833057 
L 229.917697 766.577642 
L 236.083673 758.64623 
L 242.249648 750.012832 
L 248.415624 740.65473 
L 254.5816 730.552936 
L 260.747576 719.692619 
L 266.913552 708.06351 
L 273.079528 695.660265 
L 279.245504 682.482778 
L 285.411479 668.536451 
L 291.577455 653.832402 
L 297.743431 638.387615 
L 303.909407 622.225026 
L 310.075383 605.373541 
L 316.241359 587.867991 
L 322.407335 569.749011 
L 328.57331 551.062865 
L 334.739286 531.861196 
L 340.905262 512.200717 
L 353.237214 471.753297 
L 365.569165 430.260573 
L 390.233069 346.545071 
L 402.565021 305.593784 
L 408.730996 285.625984 
L 414.896972 266.101709 
L 421.062948 247.097353 
L 427.228924 228.686792 
L 433.3949 210.94088 
L 439.560876 193.92697 
L 445.726852 177.708489 
L 451.892827 162.344545 
L 458.058803 147.889586 
L 464.224779 134.393111 
L 470.390755 121.899421 
L 476.556731 110.447427 
L 482.722707 100.07051 
L 488.888683 90.796426 
L 495.054658 82.64726 
L 501.220634 75.63943 
L 507.38661 69.783734 
L 513.552586 65.085439 
L 519.718562 61.544414 
L 525.884538 59.15529 
L 532.050513 57.907665 
L 538.216489 57.786329 
L 544.382465 58.771522 
L 550.548441 60.83921 
L 556.714417 63.961383 
L 562.880393 68.106366 
L 569.046369 73.239142 
L 575.212344 79.321685 
L 581.37832 86.313297 
L 587.544296 94.170944 
L 593.710272 102.849598 
L 599.876248 112.302564 
L 606.042224 122.481813 
L 612.2082 133.338296 
L 618.374175 144.822253 
L 624.540151 156.883511 
L 630.706127 169.471758 
L 636.872103 182.536816 
L 643.038079 196.028887 
L 649.204055 209.898782 
L 655.370031 224.098143 
L 667.701982 253.297104 
L 680.033934 283.26239 
L 729.361741 404.422474 
L 741.693692 433.708185 
L 754.025644 462.171686 
L 766.357596 489.658022 
L 772.523572 502.994545 
L 778.689548 516.04211 
L 784.855523 528.789456 
L 791.021499 541.226945 
L 797.187475 553.346492 
L 803.353451 565.141491 
L 809.519427 576.606738 
L 815.685403 587.738354 
L 821.851379 598.533706 
L 828.017354 608.991328 
L 834.18333 619.110844 
L 840.349306 628.89289 
L 846.515282 638.339039 
L 852.681258 647.451724 
L 858.847234 656.234164 
L 865.01321 664.6903 
L 871.179185 672.824718 
L 877.345161 680.642586 
L 883.511137 688.149594 
L 889.677113 695.351888 
L 895.843089 702.256017 
L 902.009065 708.868874 
L 908.17504 715.197648 
L 914.341016 721.249773 
L 920.506992 727.032881 
L 926.672968 732.554763 
L 932.838944 737.823325 
L 939.00492 742.846557 
L 945.170896 747.632489 
L 951.336871 752.18917 
L 957.502847 756.524633 
L 963.668823 760.64687 
L 969.834799 764.563808 
L 976.000775 768.283291 
L 982.166751 771.813055 
L 988.332727 775.160715 
L 994.498702 778.333748 
L 1000.664678 781.339483 
L 1006.830654 784.185085 
L 1012.99663 786.877549 
L 1019.162606 789.423689 
L 1025.328582 791.830134 
L 1031.494558 794.103321 
L 1037.660533 796.249492 
L 1049.992485 800.184756 
L 1062.324437 803.681859 
L 1074.656388 806.783513 
L 1086.98834 809.529248 
L 1099.320292 811.955478 
L 1111.652244 814.095608 
L 1123.984195 815.980165 
L 1136.316147 817.636941 
L 1148.648099 819.091152 
L 1160.98005 820.365601 
L 1179.477978 821.984625 
L 1197.975906 823.305757 
L 1216.473833 824.380511 
L 1234.971761 825.252288 
L 1259.635664 826.160889 
L 1284.299567 826.842526 
L 1315.129447 827.457145 
L 1352.125302 827.948557 
L 1364.457254 828.068833 
L 1364.457254 828.068833 
" clip-path="url(#p708b4ca180)" style="fill: none; stroke: #8c564b; stroke-width: 1.5; stroke-linecap: square"/>
   </g>
   <g id="line2d_19">
    <path d="M 137.428059 802.687448 
L 143.594035 800.118677 
L 149.760011 797.338907 
L 155.925987 794.33543 
L 162.091962 791.095253 
L 168.257938 787.605138 
L 174.423914 783.851658 
L 180.58989 779.821249 
L 186.755866 775.500278 
L 192.921842 770.875109 
L 199.087817 765.93218 
L 205.253793 760.658082 
L 211.419769 755.039653 
L 217.585745 749.064062 
L 223.751721 742.718918 
L 229.917697 735.992366 
L 236.083673 728.873197 
L 242.249648 721.350965 
L 248.415624 713.416096 
L 254.5816 705.060014 
L 260.747576 696.275254 
L 266.913552 687.055591 
L 273.079528 677.396157 
L 279.245504 667.293567 
L 285.411479 656.746032 
L 291.577455 645.753483 
L 297.743431 634.317677 
L 303.909407 622.442308 
L 310.075383 610.133107 
L 316.241359 597.397934 
L 322.407335 584.246861 
L 328.57331 570.692249 
L 334.739286 556.748808 
L 340.905262 542.433645 
L 347.071238 527.766306 
L 353.237214 512.76879 
L 365.569165 481.88353 
L 377.901117 450.002798 
L 390.233069 417.38942 
L 433.3949 302.056418 
L 445.726852 270.254798 
L 451.892827 254.788795 
L 458.058803 239.67957 
L 464.224779 224.97726 
L 470.390755 210.73164 
L 476.556731 196.991852 
L 482.722707 183.806117 
L 488.888683 171.22146 
L 495.054658 159.283435 
L 501.220634 148.035843 
L 507.38661 137.520474 
L 513.552586 127.776842 
L 519.718562 118.841943 
L 525.884538 110.750018 
L 532.050513 103.532337 
L 538.216489 97.216996 
L 544.382465 91.828733 
L 550.548441 87.388773 
L 556.714417 83.914682 
L 562.880393 81.420255 
L 569.046369 79.915422 
L 575.212344 79.406187 
L 581.37832 79.894581 
L 587.544296 81.378655 
L 593.710272 83.85249 
L 599.876248 87.306235 
L 606.042224 91.726177 
L 612.2082 97.094827 
L 618.374175 103.391035 
L 624.540151 110.590135 
L 630.706127 118.664099 
L 636.872103 127.581722 
L 643.038079 137.308822 
L 649.204055 147.808459 
L 655.370031 159.041169 
L 661.536006 170.965207 
L 667.701982 183.536811 
L 673.867958 196.710461 
L 680.033934 210.439161 
L 686.19991 224.674709 
L 692.365886 239.367983 
L 698.531862 254.469216 
L 704.697837 269.928277 
L 717.029789 301.719153 
L 729.361741 334.34242 
L 772.523572 449.665317 
L 784.855523 481.555128 
L 797.187475 512.45202 
L 803.353451 527.456184 
L 809.519427 542.130657 
L 815.685403 556.453387 
L 821.851379 570.40478 
L 828.017354 583.967677 
L 834.18333 597.127317 
L 840.349306 609.871293 
L 846.515282 622.189484 
L 852.681258 634.073985 
L 858.847234 645.519022 
L 865.01321 656.520859 
L 871.179185 667.077699 
L 877.345161 677.189575 
L 883.511137 686.85824 
L 889.677113 696.087049 
L 895.843089 704.880838 
L 902.009065 713.245808 
L 908.17504 721.189395 
L 914.341016 728.720156 
L 920.506992 735.847643 
L 926.672968 742.582289 
L 932.838944 748.935284 
L 939.00492 754.918472 
L 945.170896 760.544236 
L 951.336871 765.825396 
L 957.502847 770.77511 
L 963.668823 775.406781 
L 969.834799 779.733969 
L 976.000775 783.77031 
L 982.166751 787.529439 
L 988.332727 791.024919 
L 994.498702 794.270184 
L 1000.664678 797.278473 
L 1006.830654 800.062788 
L 1012.99663 802.63584 
L 1019.162606 805.010018 
L 1025.328582 807.19735 
L 1031.494558 809.209476 
L 1037.660533 811.057625 
L 1043.826509 812.752595 
L 1049.992485 814.304741 
L 1056.158461 815.723965 
L 1062.324437 817.019706 
L 1074.656388 819.27619 
L 1086.98834 821.140493 
L 1099.320292 822.671685 
L 1111.652244 823.921899 
L 1123.984195 824.936724 
L 1136.316147 825.755681 
L 1154.814075 826.689789 
L 1173.312002 827.352528 
L 1197.975906 827.937262 
L 1222.639809 828.292846 
L 1259.635664 828.574086 
L 1315.129447 828.727945 
L 1364.457254 828.76565 
L 1364.457254 828.76565 
" clip-path="url(#p708b4ca180)" style="fill: none; stroke: #e377c2; stroke-width: 1.5; stroke-linecap: square"/>
   </g>
   <g id="patch_103">
    <path d="M 72.685313 828.779375 
L 72.685313 38.075625 
" style="fill: none; stroke: #000000; stroke-width: 0.8; stroke-linejoin: miter; stroke-linecap: square"/>
   </g>
   <g id="patch_104">
    <path d="M 1429.2 828.779375 
L 1429.2 38.075625 
" style="fill: none; stroke: #000000; stroke-width: 0.8; stroke-linejoin: miter; stroke-linecap: square"/>
   </g>
   <g id="patch_105">
    <path d="M 72.685313 828.779375 
L 1429.2 828.779375 
" style="fill: none; stroke: #000000; stroke-width: 0.8; stroke-linejoin: miter; stroke-linecap: square"/>
   </g>
   <g id="patch_106">
    <path d="M 72.685313 38.075625 
L 1429.2 38.075625 
" style="fill: none; stroke: #000000; stroke-width: 0.8; stroke-linejoin: miter; stroke-linecap: square"/>
   </g>
   <g id="text_15">
    <!-- All Fitted Distributions -->
    <g transform="translate(596.317031 32.075625) scale(0.28 -0.28)">
     <defs>
      <path id="DejaVuSans-41" d="M 2188 4044 
L 1331 1722 
L 3047 1722 
L 2188 4044 
z
M 1831 4666 
L 2547 4666 
L 4325 0 
L 3669 0 
L 3244 1197 
L 1141 1197 
L 716 0 
L 50 0 
L 1831 4666 
z
" transform="scale(0.015625)"/>
      <path id="DejaVuSans-6c" d="M 603 4863 
L 1178 4863 
L 1178 0 
L 603 0 
L 603 4863 
z
" transform="scale(0.015625)"/>
      <path id="DejaVuSans-46" d="M 628 4666 
L 3309 4666 
L 3309 4134 
L 1259 4134 
L 1259 2759 
L 3109 2759 
L 3109 2228 
L 1259 2228 
L 1259 0 
L 628 0 
L 628 4666 
z
" transform="scale(0.015625)"/>
      <path id="DejaVuSans-44" d="M 1259 4147 
L 1259 519 
L 2022 519 
Q 2988 519 3436 956 
Q 3884 1394 3884 2338 
Q 3884 3275 3436 3711 
Q 2988 4147 2022 4147 
L 1259 4147 
z
M 628 4666 
L 1925 4666 
Q 3281 4666 3915 4102 
Q 4550 3538 4550 2338 
Q 4550 1131 3912 565 
Q 3275 0 1925 0 
L 628 0 
L 628 4666 
z
" transform="scale(0.015625)"/>
      <path id="DejaVuSans-62" d="M 3116 1747 
Q 3116 2381 2855 2742 
Q 2594 3103 2138 3103 
Q 1681 3103 1420 2742 
Q 1159 2381 1159 1747 
Q 1159 1113 1420 752 
Q 1681 391 2138 391 
Q 2594 391 2855 752 
Q 3116 1113 3116 1747 
z
M 1159 2969 
Q 1341 3281 1617 3432 
Q 1894 3584 2278 3584 
Q 2916 3584 3314 3078 
Q 3713 2572 3713 1747 
Q 3713 922 3314 415 
Q 2916 -91 2278 -91 
Q 1894 -91 1617 61 
Q 1341 213 1159 525 
L 1159 0 
L 581 0 
L 581 4863 
L 1159 4863 
L 1159 2969 
z
" transform="scale(0.015625)"/>
     </defs>
     <use xlink:href="#DejaVuSans-41"/>
     <use xlink:href="#DejaVuSans-6c" transform="translate(68.408203 0)"/>
     <use xlink:href="#DejaVuSans-6c" transform="translate(96.191406 0)"/>
     <use xlink:href="#DejaVuSans-20" transform="translate(123.974609 0)"/>
     <use xlink:href="#DejaVuSans-46" transform="translate(155.761719 0)"/>
     <use xlink:href="#DejaVuSans-69" transform="translate(206.03125 0)"/>
     <use xlink:href="#DejaVuSans-74" transform="translate(233.814453 0)"/>
     <use xlink:href="#DejaVuSans-74" transform="translate(273.023438 0)"/>
     <use xlink:href="#DejaVuSans-65" transform="translate(312.232422 0)"/>
     <use xlink:href="#DejaVuSans-64" transform="translate(373.755859 0)"/>
     <use xlink:href="#DejaVuSans-20" transform="translate(437.232422 0)"/>
     <use xlink:href="#DejaVuSans-44" transform="translate(469.019531 0)"/>
     <use xlink:href="#DejaVuSans-69" transform="translate(546.021484 0)"/>
     <use xlink:href="#DejaVuSans-73" transform="translate(573.804688 0)"/>
     <use xlink:href="#DejaVuSans-74" transform="translate(625.904297 0)"/>
     <use xlink:href="#DejaVuSans-72" transform="translate(665.113281 0)"/>
     <use xlink:href="#DejaVuSans-69" transform="translate(706.226562 0)"/>
     <use xlink:href="#DejaVuSans-62" transform="translate(734.009766 0)"/>
     <use xlink:href="#DejaVuSans-75" transform="translate(797.486328 0)"/>
     <use xlink:href="#DejaVuSans-74" transform="translate(860.865234 0)"/>
     <use xlink:href="#DejaVuSans-69" transform="translate(900.074219 0)"/>
     <use xlink:href="#DejaVuSans-6f" transform="translate(927.857422 0)"/>
     <use xlink:href="#DejaVuSans-6e" transform="translate(989.039062 0)"/>
     <use xlink:href="#DejaVuSans-73" transform="translate(1052.417969 0)"/>
    </g>
   </g>
   <g id="legend_1">
    <g id="patch_107">
     <path d="M 1014.37125 303.868125 
L 1412.4 303.868125 
Q 1417.2 303.868125 1417.2 299.068125 
L 1417.2 54.875625 
Q 1417.2 50.075625 1412.4 50.075625 
L 1014.37125 50.075625 
Q 1009.57125 50.075625 1009.57125 54.875625 
L 1009.57125 299.068125 
Q 1009.57125 303.868125 1014.37125 303.868125 
z
" style="fill: #ffffff; opacity: 0.8; stroke: #cccccc; stroke-linejoin: miter"/>
    </g>
    <g id="patch_108">
     <path d="M 1019.17125 77.911875 
L 1067.17125 77.911875 
L 1067.17125 61.111875 
L 1019.17125 61.111875 
z
" style="fill: #1f77b4; opacity: 0.6"/>
    </g>
    <g id="text_16">
     <!-- Generated Chi Distribution -->
     <g transform="translate(1086.37125 77.911875) scale(0.24 -0.24)">
      <defs>
       <path id="DejaVuSans-47" d="M 3809 666 
L 3809 1919 
L 2778 1919 
L 2778 2438 
L 4434 2438 
L 4434 434 
Q 4069 175 3628 42 
Q 3188 -91 2688 -91 
Q 1594 -91 976 548 
Q 359 1188 359 2328 
Q 359 3472 976 4111 
Q 1594 4750 2688 4750 
Q 3144 4750 3555 4637 
Q 3966 4525 4313 4306 
L 4313 3634 
Q 3963 3931 3569 4081 
Q 3175 4231 2741 4231 
Q 1884 4231 1454 3753 
Q 1025 3275 1025 2328 
Q 1025 1384 1454 906 
Q 1884 428 2741 428 
Q 3075 428 3337 486 
Q 3600 544 3809 666 
z
" transform="scale(0.015625)"/>
       <path id="DejaVuSans-61" d="M 2194 1759 
Q 1497 1759 1228 1600 
Q 959 1441 959 1056 
Q 959 750 1161 570 
Q 1363 391 1709 391 
Q 2188 391 2477 730 
Q 2766 1069 2766 1631 
L 2766 1759 
L 2194 1759 
z
M 3341 1997 
L 3341 0 
L 2766 0 
L 2766 531 
Q 2569 213 2275 61 
Q 1981 -91 1556 -91 
Q 1019 -91 701 211 
Q 384 513 384 1019 
Q 384 1609 779 1909 
Q 1175 2209 1959 2209 
L 2766 2209 
L 2766 2266 
Q 2766 2663 2505 2880 
Q 2244 3097 1772 3097 
Q 1472 3097 1187 3025 
Q 903 2953 641 2809 
L 641 3341 
Q 956 3463 1253 3523 
Q 1550 3584 1831 3584 
Q 2591 3584 2966 3190 
Q 3341 2797 3341 1997 
z
" transform="scale(0.015625)"/>
       <path id="DejaVuSans-68" d="M 3513 2113 
L 3513 0 
L 2938 0 
L 2938 2094 
Q 2938 2591 2744 2837 
Q 2550 3084 2163 3084 
Q 1697 3084 1428 2787 
Q 1159 2491 1159 1978 
L 1159 0 
L 581 0 
L 581 4863 
L 1159 4863 
L 1159 2956 
Q 1366 3272 1645 3428 
Q 1925 3584 2291 3584 
Q 2894 3584 3203 3211 
Q 3513 2838 3513 2113 
z
" transform="scale(0.015625)"/>
      </defs>
      <use xlink:href="#DejaVuSans-47"/>
      <use xlink:href="#DejaVuSans-65" transform="translate(77.490234 0)"/>
      <use xlink:href="#DejaVuSans-6e" transform="translate(139.013672 0)"/>
      <use xlink:href="#DejaVuSans-65" transform="translate(202.392578 0)"/>
      <use xlink:href="#DejaVuSans-72" transform="translate(263.916016 0)"/>
      <use xlink:href="#DejaVuSans-61" transform="translate(305.029297 0)"/>
      <use xlink:href="#DejaVuSans-74" transform="translate(366.308594 0)"/>
      <use xlink:href="#DejaVuSans-65" transform="translate(405.517578 0)"/>
      <use xlink:href="#DejaVuSans-64" transform="translate(467.041016 0)"/>
      <use xlink:href="#DejaVuSans-20" transform="translate(530.517578 0)"/>
      <use xlink:href="#DejaVuSans-43" transform="translate(562.304688 0)"/>
      <use xlink:href="#DejaVuSans-68" transform="translate(632.128906 0)"/>
      <use xlink:href="#DejaVuSans-69" transform="translate(695.507812 0)"/>
      <use xlink:href="#DejaVuSans-20" transform="translate(723.291016 0)"/>
      <use xlink:href="#DejaVuSans-44" transform="translate(755.078125 0)"/>
      <use xlink:href="#DejaVuSans-69" transform="translate(832.080078 0)"/>
      <use xlink:href="#DejaVuSans-73" transform="translate(859.863281 0)"/>
      <use xlink:href="#DejaVuSans-74" transform="translate(911.962891 0)"/>
      <use xlink:href="#DejaVuSans-72" transform="translate(951.171875 0)"/>
      <use xlink:href="#DejaVuSans-69" transform="translate(992.285156 0)"/>
      <use xlink:href="#DejaVuSans-62" transform="translate(1020.068359 0)"/>
      <use xlink:href="#DejaVuSans-75" transform="translate(1083.544922 0)"/>
      <use xlink:href="#DejaVuSans-74" transform="translate(1146.923828 0)"/>
      <use xlink:href="#DejaVuSans-69" transform="translate(1186.132812 0)"/>
      <use xlink:href="#DejaVuSans-6f" transform="translate(1213.916016 0)"/>
      <use xlink:href="#DejaVuSans-6e" transform="translate(1275.097656 0)"/>
     </g>
    </g>
    <g id="line2d_20">
     <path d="M 1019.17125 104.739375 
L 1043.17125 104.739375 
L 1067.17125 104.739375 
" style="fill: none; stroke: #ff7f0e; stroke-width: 1.5; stroke-linecap: square"/>
    </g>
    <g id="text_17">
     <!-- Chi fit -->
     <g transform="translate(1086.37125 113.139375) scale(0.24 -0.24)">
      <defs>
       <path id="DejaVuSans-66" d="M 2375 4863 
L 2375 4384 
L 1825 4384 
Q 1516 4384 1395 4259 
Q 1275 4134 1275 3809 
L 1275 3500 
L 2222 3500 
L 2222 3053 
L 1275 3053 
L 1275 0 
L 697 0 
L 697 3053 
L 147 3053 
L 147 3500 
L 697 3500 
L 697 3744 
Q 697 4328 969 4595 
Q 1241 4863 1831 4863 
L 2375 4863 
z
" transform="scale(0.015625)"/>
      </defs>
      <use xlink:href="#DejaVuSans-43"/>
      <use xlink:href="#DejaVuSans-68" transform="translate(69.824219 0)"/>
      <use xlink:href="#DejaVuSans-69" transform="translate(133.203125 0)"/>
      <use xlink:href="#DejaVuSans-20" transform="translate(160.986328 0)"/>
      <use xlink:href="#DejaVuSans-66" transform="translate(192.773438 0)"/>
      <use xlink:href="#DejaVuSans-69" transform="translate(227.978516 0)"/>
      <use xlink:href="#DejaVuSans-74" transform="translate(255.761719 0)"/>
     </g>
    </g>
    <g id="line2d_21">
     <path d="M 1019.17125 139.966875 
L 1043.17125 139.966875 
L 1067.17125 139.966875 
" style="fill: none; stroke: #2ca02c; stroke-width: 1.5; stroke-linecap: square"/>
    </g>
    <g id="text_18">
     <!-- Chi-Square fit -->
     <g transform="translate(1086.37125 148.366875) scale(0.24 -0.24)">
      <defs>
       <path id="DejaVuSans-2d" d="M 313 2009 
L 1997 2009 
L 1997 1497 
L 313 1497 
L 313 2009 
z
" transform="scale(0.015625)"/>
       <path id="DejaVuSans-53" d="M 3425 4513 
L 3425 3897 
Q 3066 4069 2747 4153 
Q 2428 4238 2131 4238 
Q 1616 4238 1336 4038 
Q 1056 3838 1056 3469 
Q 1056 3159 1242 3001 
Q 1428 2844 1947 2747 
L 2328 2669 
Q 3034 2534 3370 2195 
Q 3706 1856 3706 1288 
Q 3706 609 3251 259 
Q 2797 -91 1919 -91 
Q 1588 -91 1214 -16 
Q 841 59 441 206 
L 441 856 
Q 825 641 1194 531 
Q 1563 422 1919 422 
Q 2459 422 2753 634 
Q 3047 847 3047 1241 
Q 3047 1584 2836 1778 
Q 2625 1972 2144 2069 
L 1759 2144 
Q 1053 2284 737 2584 
Q 422 2884 422 3419 
Q 422 4038 858 4394 
Q 1294 4750 2059 4750 
Q 2388 4750 2728 4690 
Q 3069 4631 3425 4513 
z
" transform="scale(0.015625)"/>
       <path id="DejaVuSans-71" d="M 947 1747 
Q 947 1113 1208 752 
Q 1469 391 1925 391 
Q 2381 391 2643 752 
Q 2906 1113 2906 1747 
Q 2906 2381 2643 2742 
Q 2381 3103 1925 3103 
Q 1469 3103 1208 2742 
Q 947 2381 947 1747 
z
M 2906 525 
Q 2725 213 2448 61 
Q 2172 -91 1784 -91 
Q 1150 -91 751 415 
Q 353 922 353 1747 
Q 353 2572 751 3078 
Q 1150 3584 1784 3584 
Q 2172 3584 2448 3432 
Q 2725 3281 2906 2969 
L 2906 3500 
L 3481 3500 
L 3481 -1331 
L 2906 -1331 
L 2906 525 
z
" transform="scale(0.015625)"/>
      </defs>
      <use xlink:href="#DejaVuSans-43"/>
      <use xlink:href="#DejaVuSans-68" transform="translate(69.824219 0)"/>
      <use xlink:href="#DejaVuSans-69" transform="translate(133.203125 0)"/>
      <use xlink:href="#DejaVuSans-2d" transform="translate(160.986328 0)"/>
      <use xlink:href="#DejaVuSans-53" transform="translate(197.070312 0)"/>
      <use xlink:href="#DejaVuSans-71" transform="translate(260.546875 0)"/>
      <use xlink:href="#DejaVuSans-75" transform="translate(324.023438 0)"/>
      <use xlink:href="#DejaVuSans-61" transform="translate(387.402344 0)"/>
      <use xlink:href="#DejaVuSans-72" transform="translate(448.681641 0)"/>
      <use xlink:href="#DejaVuSans-65" transform="translate(487.544922 0)"/>
      <use xlink:href="#DejaVuSans-20" transform="translate(549.068359 0)"/>
      <use xlink:href="#DejaVuSans-66" transform="translate(580.855469 0)"/>
      <use xlink:href="#DejaVuSans-69" transform="translate(616.060547 0)"/>
      <use xlink:href="#DejaVuSans-74" transform="translate(643.84375 0)"/>
     </g>
    </g>
    <g id="line2d_22">
     <path d="M 1019.17125 175.194375 
L 1043.17125 175.194375 
L 1067.17125 175.194375 
" style="fill: none; stroke: #d62728; stroke-width: 1.5; stroke-linecap: square"/>
    </g>
    <g id="text_19">
     <!-- Exponential fit -->
     <g transform="translate(1086.37125 183.594375) scale(0.24 -0.24)">
      <defs>
       <path id="DejaVuSans-45" d="M 628 4666 
L 3578 4666 
L 3578 4134 
L 1259 4134 
L 1259 2753 
L 3481 2753 
L 3481 2222 
L 1259 2222 
L 1259 531 
L 3634 531 
L 3634 0 
L 628 0 
L 628 4666 
z
" transform="scale(0.015625)"/>
       <path id="DejaVuSans-78" d="M 3513 3500 
L 2247 1797 
L 3578 0 
L 2900 0 
L 1881 1375 
L 863 0 
L 184 0 
L 1544 1831 
L 300 3500 
L 978 3500 
L 1906 2253 
L 2834 3500 
L 3513 3500 
z
" transform="scale(0.015625)"/>
       <path id="DejaVuSans-70" d="M 1159 525 
L 1159 -1331 
L 581 -1331 
L 581 3500 
L 1159 3500 
L 1159 2969 
Q 1341 3281 1617 3432 
Q 1894 3584 2278 3584 
Q 2916 3584 3314 3078 
Q 3713 2572 3713 1747 
Q 3713 922 3314 415 
Q 2916 -91 2278 -91 
Q 1894 -91 1617 61 
Q 1341 213 1159 525 
z
M 3116 1747 
Q 3116 2381 2855 2742 
Q 2594 3103 2138 3103 
Q 1681 3103 1420 2742 
Q 1159 2381 1159 1747 
Q 1159 1113 1420 752 
Q 1681 391 2138 391 
Q 2594 391 2855 752 
Q 3116 1113 3116 1747 
z
" transform="scale(0.015625)"/>
      </defs>
      <use xlink:href="#DejaVuSans-45"/>
      <use xlink:href="#DejaVuSans-78" transform="translate(63.183594 0)"/>
      <use xlink:href="#DejaVuSans-70" transform="translate(122.363281 0)"/>
      <use xlink:href="#DejaVuSans-6f" transform="translate(185.839844 0)"/>
      <use xlink:href="#DejaVuSans-6e" transform="translate(247.021484 0)"/>
      <use xlink:href="#DejaVuSans-65" transform="translate(310.400391 0)"/>
      <use xlink:href="#DejaVuSans-6e" transform="translate(371.923828 0)"/>
      <use xlink:href="#DejaVuSans-74" transform="translate(435.302734 0)"/>
      <use xlink:href="#DejaVuSans-69" transform="translate(474.511719 0)"/>
      <use xlink:href="#DejaVuSans-61" transform="translate(502.294922 0)"/>
      <use xlink:href="#DejaVuSans-6c" transform="translate(563.574219 0)"/>
      <use xlink:href="#DejaVuSans-20" transform="translate(591.357422 0)"/>
      <use xlink:href="#DejaVuSans-66" transform="translate(623.144531 0)"/>
      <use xlink:href="#DejaVuSans-69" transform="translate(658.349609 0)"/>
      <use xlink:href="#DejaVuSans-74" transform="translate(686.132812 0)"/>
     </g>
    </g>
    <g id="line2d_23">
     <path d="M 1019.17125 210.421875 
L 1043.17125 210.421875 
L 1067.17125 210.421875 
" style="fill: none; stroke: #9467bd; stroke-width: 1.5; stroke-linecap: square"/>
    </g>
    <g id="text_20">
     <!-- Laplace fit -->
     <g transform="translate(1086.37125 218.821875) scale(0.24 -0.24)">
      <defs>
       <path id="DejaVuSans-4c" d="M 628 4666 
L 1259 4666 
L 1259 531 
L 3531 531 
L 3531 0 
L 628 0 
L 628 4666 
z
" transform="scale(0.015625)"/>
       <path id="DejaVuSans-63" d="M 3122 3366 
L 3122 2828 
Q 2878 2963 2633 3030 
Q 2388 3097 2138 3097 
Q 1578 3097 1268 2742 
Q 959 2388 959 1747 
Q 959 1106 1268 751 
Q 1578 397 2138 397 
Q 2388 397 2633 464 
Q 2878 531 3122 666 
L 3122 134 
Q 2881 22 2623 -34 
Q 2366 -91 2075 -91 
Q 1284 -91 818 406 
Q 353 903 353 1747 
Q 353 2603 823 3093 
Q 1294 3584 2113 3584 
Q 2378 3584 2631 3529 
Q 2884 3475 3122 3366 
z
" transform="scale(0.015625)"/>
      </defs>
      <use xlink:href="#DejaVuSans-4c"/>
      <use xlink:href="#DejaVuSans-61" transform="translate(55.712891 0)"/>
      <use xlink:href="#DejaVuSans-70" transform="translate(116.992188 0)"/>
      <use xlink:href="#DejaVuSans-6c" transform="translate(180.46875 0)"/>
      <use xlink:href="#DejaVuSans-61" transform="translate(208.251953 0)"/>
      <use xlink:href="#DejaVuSans-63" transform="translate(269.53125 0)"/>
      <use xlink:href="#DejaVuSans-65" transform="translate(324.511719 0)"/>
      <use xlink:href="#DejaVuSans-20" transform="translate(386.035156 0)"/>
      <use xlink:href="#DejaVuSans-66" transform="translate(417.822266 0)"/>
      <use xlink:href="#DejaVuSans-69" transform="translate(453.027344 0)"/>
      <use xlink:href="#DejaVuSans-74" transform="translate(480.810547 0)"/>
     </g>
    </g>
    <g id="line2d_24">
     <path d="M 1019.17125 245.649375 
L 1043.17125 245.649375 
L 1067.17125 245.649375 
" style="fill: none; stroke: #8c564b; stroke-width: 1.5; stroke-linecap: square"/>
    </g>
    <g id="text_21">
     <!-- LogNorm fit -->
     <g transform="translate(1086.37125 254.049375) scale(0.24 -0.24)">
      <defs>
       <path id="DejaVuSans-67" d="M 2906 1791 
Q 2906 2416 2648 2759 
Q 2391 3103 1925 3103 
Q 1463 3103 1205 2759 
Q 947 2416 947 1791 
Q 947 1169 1205 825 
Q 1463 481 1925 481 
Q 2391 481 2648 825 
Q 2906 1169 2906 1791 
z
M 3481 434 
Q 3481 -459 3084 -895 
Q 2688 -1331 1869 -1331 
Q 1566 -1331 1297 -1286 
Q 1028 -1241 775 -1147 
L 775 -588 
Q 1028 -725 1275 -790 
Q 1522 -856 1778 -856 
Q 2344 -856 2625 -561 
Q 2906 -266 2906 331 
L 2906 616 
Q 2728 306 2450 153 
Q 2172 0 1784 0 
Q 1141 0 747 490 
Q 353 981 353 1791 
Q 353 2603 747 3093 
Q 1141 3584 1784 3584 
Q 2172 3584 2450 3431 
Q 2728 3278 2906 2969 
L 2906 3500 
L 3481 3500 
L 3481 434 
z
" transform="scale(0.015625)"/>
      </defs>
      <use xlink:href="#DejaVuSans-4c"/>
      <use xlink:href="#DejaVuSans-6f" transform="translate(53.962891 0)"/>
      <use xlink:href="#DejaVuSans-67" transform="translate(115.144531 0)"/>
      <use xlink:href="#DejaVuSans-4e" transform="translate(178.621094 0)"/>
      <use xlink:href="#DejaVuSans-6f" transform="translate(253.425781 0)"/>
      <use xlink:href="#DejaVuSans-72" transform="translate(314.607422 0)"/>
      <use xlink:href="#DejaVuSans-6d" transform="translate(353.970703 0)"/>
      <use xlink:href="#DejaVuSans-20" transform="translate(451.382812 0)"/>
      <use xlink:href="#DejaVuSans-66" transform="translate(483.169922 0)"/>
      <use xlink:href="#DejaVuSans-69" transform="translate(518.375 0)"/>
      <use xlink:href="#DejaVuSans-74" transform="translate(546.158203 0)"/>
     </g>
    </g>
    <g id="line2d_25">
     <path d="M 1019.17125 280.876875 
L 1043.17125 280.876875 
L 1067.17125 280.876875 
" style="fill: none; stroke: #e377c2; stroke-width: 1.5; stroke-linecap: square"/>
    </g>
    <g id="text_22">
     <!-- Normal fit -->
     <g transform="translate(1086.37125 289.276875) scale(0.24 -0.24)">
      <use xlink:href="#DejaVuSans-4e"/>
      <use xlink:href="#DejaVuSans-6f" transform="translate(74.804688 0)"/>
      <use xlink:href="#DejaVuSans-72" transform="translate(135.986328 0)"/>
      <use xlink:href="#DejaVuSans-6d" transform="translate(175.349609 0)"/>
      <use xlink:href="#DejaVuSans-61" transform="translate(272.761719 0)"/>
      <use xlink:href="#DejaVuSans-6c" transform="translate(334.041016 0)"/>
      <use xlink:href="#DejaVuSans-20" transform="translate(361.824219 0)"/>
      <use xlink:href="#DejaVuSans-66" transform="translate(393.611328 0)"/>
      <use xlink:href="#DejaVuSans-69" transform="translate(428.816406 0)"/>
      <use xlink:href="#DejaVuSans-74" transform="translate(456.599609 0)"/>
     </g>
    </g>
   </g>
  </g>
 </g>
 <defs>
  <clipPath id="p708b4ca180">
   <rect x="72.685313" y="38.075625" width="1356.514688" height="790.70375"/>
  </clipPath>
 </defs>
</svg>
