<?xml version="1.0" encoding="utf-8" standalone="no"?>
<!DOCTYPE svg PUBLIC "-//W3C//DTD SVG 1.1//EN"
  "http://www.w3.org/Graphics/SVG/1.1/DTD/svg11.dtd">
<svg xmlns:xlink="http://www.w3.org/1999/xlink" width="1440pt" height="864pt" viewBox="0 0 1440 864" xmlns="http://www.w3.org/2000/svg" version="1.1">
 <metadata>
  <rdf:RDF xmlns:dc="http://purl.org/dc/elements/1.1/" xmlns:cc="http://creativecommons.org/ns#" xmlns:rdf="http://www.w3.org/1999/02/22-rdf-syntax-ns#">
   <cc:Work>
    <dc:type rdf:resource="http://purl.org/dc/dcmitype/StillImage"/>
    <dc:date>2022-10-01T17:42:08.143018</dc:date>
    <dc:format>image/svg+xml</dc:format>
    <dc:creator>
     <cc:Agent>
      <dc:title>Matplotlib v3.6.0, https://matplotlib.org/</dc:title>
     </cc:Agent>
    </dc:creator>
   </cc:Work>
  </rdf:RDF>
 </metadata>
 <defs>
  <style type="text/css">*{stroke-linejoin: round; stroke-linecap: butt}</style>
 </defs>
 <g id="figure_1">
  <g id="patch_1">
   <path d="M 0 864 
L 1440 864 
L 1440 0 
L 0 0 
z
" style="fill: #ffffff"/>
  </g>
  <g id="axes_1">
   <g id="patch_2">
    <path d="M 72.685313 828.779375 
L 1429.2 828.779375 
L 1429.2 38.075625 
L 72.685313 38.075625 
z
" style="fill: #ffffff"/>
   </g>
   <g id="patch_3">
    <path d="M 134.345071 828.779375 
L 146.677023 828.779375 
L 146.677023 827.302804 
L 134.345071 827.302804 
z
" clip-path="url(#pf93a60cc17)" style="fill: #1f77b4; opacity: 0.6"/>
   </g>
   <g id="patch_4">
    <path d="M 146.677023 828.779375 
L 159.008974 828.779375 
L 159.008974 822.873091 
L 146.677023 822.873091 
z
" clip-path="url(#pf93a60cc17)" style="fill: #1f77b4; opacity: 0.6"/>
   </g>
   <g id="patch_5">
    <path d="M 159.008974 828.779375 
L 171.340926 828.779375 
L 171.340926 822.873091 
L 159.008974 822.873091 
z
" clip-path="url(#pf93a60cc17)" style="fill: #1f77b4; opacity: 0.6"/>
   </g>
   <g id="patch_6">
    <path d="M 171.340926 828.779375 
L 183.672878 828.779375 
L 183.672878 813.521475 
L 171.340926 813.521475 
z
" clip-path="url(#pf93a60cc17)" style="fill: #1f77b4; opacity: 0.6"/>
   </g>
   <g id="patch_7">
    <path d="M 183.672878 828.779375 
L 196.00483 828.779375 
L 196.00483 807.123001 
L 183.672878 807.123001 
z
" clip-path="url(#pf93a60cc17)" style="fill: #1f77b4; opacity: 0.6"/>
   </g>
   <g id="patch_8">
    <path d="M 196.00483 828.779375 
L 208.336781 828.779375 
L 208.336781 783.497866 
L 196.00483 783.497866 
z
" clip-path="url(#pf93a60cc17)" style="fill: #1f77b4; opacity: 0.6"/>
   </g>
   <g id="patch_9">
    <path d="M 208.336781 828.779375 
L 220.668733 828.779375 
L 220.668733 775.62282 
L 208.336781 775.62282 
z
" clip-path="url(#pf93a60cc17)" style="fill: #1f77b4; opacity: 0.6"/>
   </g>
   <g id="patch_10">
    <path d="M 220.668733 828.779375 
L 233.000685 828.779375 
L 233.000685 761.349301 
L 220.668733 761.349301 
z
" clip-path="url(#pf93a60cc17)" style="fill: #1f77b4; opacity: 0.6"/>
   </g>
   <g id="patch_11">
    <path d="M 233.000685 828.779375 
L 245.332636 828.779375 
L 245.332636 754.950827 
L 233.000685 754.950827 
z
" clip-path="url(#pf93a60cc17)" style="fill: #1f77b4; opacity: 0.6"/>
   </g>
   <g id="patch_12">
    <path d="M 245.332636 828.779375 
L 257.664588 828.779375 
L 257.664588 717.052172 
L 245.332636 717.052172 
z
" clip-path="url(#pf93a60cc17)" style="fill: #1f77b4; opacity: 0.6"/>
   </g>
   <g id="patch_13">
    <path d="M 257.664588 828.779375 
L 269.99654 828.779375 
L 269.99654 685.059801 
L 257.664588 685.059801 
z
" clip-path="url(#pf93a60cc17)" style="fill: #1f77b4; opacity: 0.6"/>
   </g>
   <g id="patch_14">
    <path d="M 269.99654 828.779375 
L 282.328491 828.779375 
L 282.328491 652.08305 
L 269.99654 652.08305 
z
" clip-path="url(#pf93a60cc17)" style="fill: #1f77b4; opacity: 0.6"/>
   </g>
   <g id="patch_15">
    <path d="M 282.328491 828.779375 
L 294.660443 828.779375 
L 294.660443 625.504773 
L 282.328491 625.504773 
z
" clip-path="url(#pf93a60cc17)" style="fill: #1f77b4; opacity: 0.6"/>
   </g>
   <g id="patch_16">
    <path d="M 294.660443 828.779375 
L 306.992395 828.779375 
L 306.992395 612.215634 
L 294.660443 612.215634 
z
" clip-path="url(#pf93a60cc17)" style="fill: #1f77b4; opacity: 0.6"/>
   </g>
   <g id="patch_17">
    <path d="M 306.992395 828.779375 
L 319.324347 828.779375 
L 319.324347 556.598128 
L 306.992395 556.598128 
z
" clip-path="url(#pf93a60cc17)" style="fill: #1f77b4; opacity: 0.6"/>
   </g>
   <g id="patch_18">
    <path d="M 319.324347 828.779375 
L 331.656298 828.779375 
L 331.656298 526.574518 
L 319.324347 526.574518 
z
" clip-path="url(#pf93a60cc17)" style="fill: #1f77b4; opacity: 0.6"/>
   </g>
   <g id="patch_19">
    <path d="M 331.656298 828.779375 
L 343.98825 828.779375 
L 343.98825 476.863296 
L 331.656298 476.863296 
z
" clip-path="url(#pf93a60cc17)" style="fill: #1f77b4; opacity: 0.6"/>
   </g>
   <g id="patch_20">
    <path d="M 343.98825 828.779375 
L 356.320202 828.779375 
L 356.320202 431.581786 
L 343.98825 431.581786 
z
" clip-path="url(#pf93a60cc17)" style="fill: #1f77b4; opacity: 0.6"/>
   </g>
   <g id="patch_21">
    <path d="M 356.320202 828.779375 
L 368.652153 828.779375 
L 368.652153 416.816077 
L 356.320202 416.816077 
z
" clip-path="url(#pf93a60cc17)" style="fill: #1f77b4; opacity: 0.6"/>
   </g>
   <g id="patch_22">
    <path d="M 368.652153 828.779375 
L 380.984105 828.779375 
L 380.984105 378.425232 
L 368.652153 378.425232 
z
" clip-path="url(#pf93a60cc17)" style="fill: #1f77b4; opacity: 0.6"/>
   </g>
   <g id="patch_23">
    <path d="M 380.984105 828.779375 
L 393.316057 828.779375 
L 393.316057 299.67478 
L 380.984105 299.67478 
z
" clip-path="url(#pf93a60cc17)" style="fill: #1f77b4; opacity: 0.6"/>
   </g>
   <g id="patch_24">
    <path d="M 393.316057 828.779375 
L 405.648009 828.779375 
L 405.648009 316.901442 
L 393.316057 316.901442 
z
" clip-path="url(#pf93a60cc17)" style="fill: #1f77b4; opacity: 0.6"/>
   </g>
   <g id="patch_25">
    <path d="M 405.648009 828.779375 
L 417.97996 828.779375 
L 417.97996 238.643181 
L 405.648009 238.643181 
z
" clip-path="url(#pf93a60cc17)" style="fill: #1f77b4; opacity: 0.6"/>
   </g>
   <g id="patch_26">
    <path d="M 417.97996 828.779375 
L 430.311912 828.779375 
L 430.311912 199.267955 
L 417.97996 199.267955 
z
" clip-path="url(#pf93a60cc17)" style="fill: #1f77b4; opacity: 0.6"/>
   </g>
   <g id="patch_27">
    <path d="M 430.311912 828.779375 
L 442.643864 828.779375 
L 442.643864 185.978816 
L 430.311912 185.978816 
z
" clip-path="url(#pf93a60cc17)" style="fill: #1f77b4; opacity: 0.6"/>
   </g>
   <g id="patch_28">
    <path d="M 442.643864 828.779375 
L 454.975815 828.779375 
L 454.975815 202.221097 
L 442.643864 202.221097 
z
" clip-path="url(#pf93a60cc17)" style="fill: #1f77b4; opacity: 0.6"/>
   </g>
   <g id="patch_29">
    <path d="M 454.975815 828.779375 
L 467.307767 828.779375 
L 467.307767 140.205117 
L 454.975815 140.205117 
z
" clip-path="url(#pf93a60cc17)" style="fill: #1f77b4; opacity: 0.6"/>
   </g>
   <g id="patch_30">
    <path d="M 467.307767 828.779375 
L 479.639719 828.779375 
L 479.639719 158.416158 
L 467.307767 158.416158 
z
" clip-path="url(#pf93a60cc17)" style="fill: #1f77b4; opacity: 0.6"/>
   </g>
   <g id="patch_31">
    <path d="M 479.639719 828.779375 
L 491.97167 828.779375 
L 491.97167 127.408168 
L 479.639719 127.408168 
z
" clip-path="url(#pf93a60cc17)" style="fill: #1f77b4; opacity: 0.6"/>
   </g>
   <g id="patch_32">
    <path d="M 491.97167 828.779375 
L 504.303622 828.779375 
L 504.303622 133.806642 
L 491.97167 133.806642 
z
" clip-path="url(#pf93a60cc17)" style="fill: #1f77b4; opacity: 0.6"/>
   </g>
   <g id="patch_33">
    <path d="M 504.303622 828.779375 
L 516.635574 828.779375 
L 516.635574 116.579981 
L 504.303622 116.579981 
z
" clip-path="url(#pf93a60cc17)" style="fill: #1f77b4; opacity: 0.6"/>
   </g>
   <g id="patch_34">
    <path d="M 516.635574 828.779375 
L 528.967526 828.779375 
L 528.967526 91.970465 
L 516.635574 91.970465 
z
" clip-path="url(#pf93a60cc17)" style="fill: #1f77b4; opacity: 0.6"/>
   </g>
   <g id="patch_35">
    <path d="M 528.967526 828.779375 
L 541.299477 828.779375 
L 541.299477 75.728185 
L 528.967526 75.728185 
z
" clip-path="url(#pf93a60cc17)" style="fill: #1f77b4; opacity: 0.6"/>
   </g>
   <g id="patch_36">
    <path d="M 541.299477 828.779375 
L 553.631429 828.779375 
L 553.631429 87.048562 
L 541.299477 87.048562 
z
" clip-path="url(#pf93a60cc17)" style="fill: #1f77b4; opacity: 0.6"/>
   </g>
   <g id="patch_37">
    <path d="M 553.631429 828.779375 
L 565.963381 828.779375 
L 565.963381 112.642459 
L 553.631429 112.642459 
z
" clip-path="url(#pf93a60cc17)" style="fill: #1f77b4; opacity: 0.6"/>
   </g>
   <g id="patch_38">
    <path d="M 565.963381 828.779375 
L 578.295332 828.779375 
L 578.295332 134.298833 
L 565.963381 134.298833 
z
" clip-path="url(#pf93a60cc17)" style="fill: #1f77b4; opacity: 0.6"/>
   </g>
   <g id="patch_39">
    <path d="M 578.295332 828.779375 
L 590.627284 828.779375 
L 590.627284 201.236716 
L 578.295332 201.236716 
z
" clip-path="url(#pf93a60cc17)" style="fill: #1f77b4; opacity: 0.6"/>
   </g>
   <g id="patch_40">
    <path d="M 590.627284 828.779375 
L 602.959236 828.779375 
L 602.959236 180.072532 
L 590.627284 180.072532 
z
" clip-path="url(#pf93a60cc17)" style="fill: #1f77b4; opacity: 0.6"/>
   </g>
   <g id="patch_41">
    <path d="M 602.959236 828.779375 
L 615.291187 828.779375 
L 615.291187 191.39291 
L 602.959236 191.39291 
z
" clip-path="url(#pf93a60cc17)" style="fill: #1f77b4; opacity: 0.6"/>
   </g>
   <g id="patch_42">
    <path d="M 615.291187 828.779375 
L 627.623139 828.779375 
L 627.623139 205.174239 
L 615.291187 205.174239 
z
" clip-path="url(#pf93a60cc17)" style="fill: #1f77b4; opacity: 0.6"/>
   </g>
   <g id="patch_43">
    <path d="M 627.623139 828.779375 
L 639.955091 828.779375 
L 639.955091 223.385281 
L 627.623139 223.385281 
z
" clip-path="url(#pf93a60cc17)" style="fill: #1f77b4; opacity: 0.6"/>
   </g>
   <g id="patch_44">
    <path d="M 639.955091 828.779375 
L 652.287043 828.779375 
L 652.287043 250.947939 
L 639.955091 250.947939 
z
" clip-path="url(#pf93a60cc17)" style="fill: #1f77b4; opacity: 0.6"/>
   </g>
   <g id="patch_45">
    <path d="M 652.287043 828.779375 
L 664.618994 828.779375 
L 664.618994 259.315174 
L 652.287043 259.315174 
z
" clip-path="url(#pf93a60cc17)" style="fill: #1f77b4; opacity: 0.6"/>
   </g>
   <g id="patch_46">
    <path d="M 664.618994 828.779375 
L 676.950946 828.779375 
L 676.950946 296.721638 
L 664.618994 296.721638 
z
" clip-path="url(#pf93a60cc17)" style="fill: #1f77b4; opacity: 0.6"/>
   </g>
   <g id="patch_47">
    <path d="M 676.950946 828.779375 
L 689.282898 828.779375 
L 689.282898 346.432861 
L 676.950946 346.432861 
z
" clip-path="url(#pf93a60cc17)" style="fill: #1f77b4; opacity: 0.6"/>
   </g>
   <g id="patch_48">
    <path d="M 689.282898 828.779375 
L 701.614849 828.779375 
L 701.614849 350.862574 
L 689.282898 350.862574 
z
" clip-path="url(#pf93a60cc17)" style="fill: #1f77b4; opacity: 0.6"/>
   </g>
   <g id="patch_49">
    <path d="M 701.614849 828.779375 
L 713.946801 828.779375 
L 713.946801 401.558177 
L 701.614849 401.558177 
z
" clip-path="url(#pf93a60cc17)" style="fill: #1f77b4; opacity: 0.6"/>
   </g>
   <g id="patch_50">
    <path d="M 713.946801 828.779375 
L 726.278753 828.779375 
L 726.278753 404.511319 
L 713.946801 404.511319 
z
" clip-path="url(#pf93a60cc17)" style="fill: #1f77b4; opacity: 0.6"/>
   </g>
   <g id="patch_51">
    <path d="M 726.278753 828.779375 
L 738.610705 828.779375 
L 738.610705 448.808448 
L 726.278753 448.808448 
z
" clip-path="url(#pf93a60cc17)" style="fill: #1f77b4; opacity: 0.6"/>
   </g>
   <g id="patch_52">
    <path d="M 738.610705 828.779375 
L 750.942656 828.779375 
L 750.942656 461.605396 
L 738.610705 461.605396 
z
" clip-path="url(#pf93a60cc17)" style="fill: #1f77b4; opacity: 0.6"/>
   </g>
   <g id="patch_53">
    <path d="M 750.942656 828.779375 
L 763.274608 828.779375 
L 763.274608 494.089957 
L 750.942656 494.089957 
z
" clip-path="url(#pf93a60cc17)" style="fill: #1f77b4; opacity: 0.6"/>
   </g>
   <g id="patch_54">
    <path d="M 763.274608 828.779375 
L 775.60656 828.779375 
L 775.60656 531.004231 
L 763.274608 531.004231 
z
" clip-path="url(#pf93a60cc17)" style="fill: #1f77b4; opacity: 0.6"/>
   </g>
   <g id="patch_55">
    <path d="M 775.60656 828.779375 
L 787.938511 828.779375 
L 787.938511 570.871647 
L 775.60656 570.871647 
z
" clip-path="url(#pf93a60cc17)" style="fill: #1f77b4; opacity: 0.6"/>
   </g>
   <g id="patch_56">
    <path d="M 787.938511 828.779375 
L 800.270463 828.779375 
L 800.270463 574.80917 
L 787.938511 574.80917 
z
" clip-path="url(#pf93a60cc17)" style="fill: #1f77b4; opacity: 0.6"/>
   </g>
   <g id="patch_57">
    <path d="M 800.270463 828.779375 
L 812.602415 828.779375 
L 812.602415 584.160786 
L 800.270463 584.160786 
z
" clip-path="url(#pf93a60cc17)" style="fill: #1f77b4; opacity: 0.6"/>
   </g>
   <g id="patch_58">
    <path d="M 812.602415 828.779375 
L 824.934366 828.779375 
L 824.934366 630.918866 
L 812.602415 630.918866 
z
" clip-path="url(#pf93a60cc17)" style="fill: #1f77b4; opacity: 0.6"/>
   </g>
   <g id="patch_59">
    <path d="M 824.934366 828.779375 
L 837.266318 828.779375 
L 837.266318 637.31734 
L 824.934366 637.31734 
z
" clip-path="url(#pf93a60cc17)" style="fill: #1f77b4; opacity: 0.6"/>
   </g>
   <g id="patch_60">
    <path d="M 837.266318 828.779375 
L 849.59827 828.779375 
L 849.59827 652.08305 
L 837.266318 652.08305 
z
" clip-path="url(#pf93a60cc17)" style="fill: #1f77b4; opacity: 0.6"/>
   </g>
   <g id="patch_61">
    <path d="M 849.59827 828.779375 
L 861.930222 828.779375 
L 861.930222 650.114289 
L 849.59827 650.114289 
z
" clip-path="url(#pf93a60cc17)" style="fill: #1f77b4; opacity: 0.6"/>
   </g>
   <g id="patch_62">
    <path d="M 861.930222 828.779375 
L 874.262173 828.779375 
L 874.262173 690.473895 
L 861.930222 690.473895 
z
" clip-path="url(#pf93a60cc17)" style="fill: #1f77b4; opacity: 0.6"/>
   </g>
   <g id="patch_63">
    <path d="M 874.262173 828.779375 
L 886.594125 828.779375 
L 886.594125 703.763034 
L 874.262173 703.763034 
z
" clip-path="url(#pf93a60cc17)" style="fill: #1f77b4; opacity: 0.6"/>
   </g>
   <g id="patch_64">
    <path d="M 886.594125 828.779375 
L 898.926077 828.779375 
L 898.926077 728.37255 
L 886.594125 728.37255 
z
" clip-path="url(#pf93a60cc17)" style="fill: #1f77b4; opacity: 0.6"/>
   </g>
   <g id="patch_65">
    <path d="M 898.926077 828.779375 
L 911.258028 828.779375 
L 911.258028 726.403788 
L 898.926077 726.403788 
z
" clip-path="url(#pf93a60cc17)" style="fill: #1f77b4; opacity: 0.6"/>
   </g>
   <g id="patch_66">
    <path d="M 911.258028 828.779375 
L 923.58998 828.779375 
L 923.58998 737.724166 
L 911.258028 737.724166 
z
" clip-path="url(#pf93a60cc17)" style="fill: #1f77b4; opacity: 0.6"/>
   </g>
   <g id="patch_67">
    <path d="M 923.58998 828.779375 
L 935.921932 828.779375 
L 935.921932 751.505495 
L 923.58998 751.505495 
z
" clip-path="url(#pf93a60cc17)" style="fill: #1f77b4; opacity: 0.6"/>
   </g>
   <g id="patch_68">
    <path d="M 935.921932 828.779375 
L 948.253884 828.779375 
L 948.253884 763.318062 
L 935.921932 763.318062 
z
" clip-path="url(#pf93a60cc17)" style="fill: #1f77b4; opacity: 0.6"/>
   </g>
   <g id="patch_69">
    <path d="M 948.253884 828.779375 
L 960.585835 828.779375 
L 960.585835 768.239966 
L 948.253884 768.239966 
z
" clip-path="url(#pf93a60cc17)" style="fill: #1f77b4; opacity: 0.6"/>
   </g>
   <g id="patch_70">
    <path d="M 960.585835 828.779375 
L 972.917787 828.779375 
L 972.917787 777.591582 
L 960.585835 777.591582 
z
" clip-path="url(#pf93a60cc17)" style="fill: #1f77b4; opacity: 0.6"/>
   </g>
   <g id="patch_71">
    <path d="M 972.917787 828.779375 
L 985.249739 828.779375 
L 985.249739 780.544724 
L 972.917787 780.544724 
z
" clip-path="url(#pf93a60cc17)" style="fill: #1f77b4; opacity: 0.6"/>
   </g>
   <g id="patch_72">
    <path d="M 985.249739 828.779375 
L 997.58169 828.779375 
L 997.58169 796.294814 
L 985.249739 796.294814 
z
" clip-path="url(#pf93a60cc17)" style="fill: #1f77b4; opacity: 0.6"/>
   </g>
   <g id="patch_73">
    <path d="M 997.58169 828.779375 
L 1009.913642 828.779375 
L 1009.913642 794.326053 
L 997.58169 794.326053 
z
" clip-path="url(#pf93a60cc17)" style="fill: #1f77b4; opacity: 0.6"/>
   </g>
   <g id="patch_74">
    <path d="M 1009.913642 828.779375 
L 1022.245594 828.779375 
L 1022.245594 788.911959 
L 1009.913642 788.911959 
z
" clip-path="url(#pf93a60cc17)" style="fill: #1f77b4; opacity: 0.6"/>
   </g>
   <g id="patch_75">
    <path d="M 1022.245594 828.779375 
L 1034.577545 828.779375 
L 1034.577545 804.662049 
L 1022.245594 804.662049 
z
" clip-path="url(#pf93a60cc17)" style="fill: #1f77b4; opacity: 0.6"/>
   </g>
   <g id="patch_76">
    <path d="M 1034.577545 828.779375 
L 1046.909497 828.779375 
L 1046.909497 807.123001 
L 1034.577545 807.123001 
z
" clip-path="url(#pf93a60cc17)" style="fill: #1f77b4; opacity: 0.6"/>
   </g>
   <g id="patch_77">
    <path d="M 1046.909497 828.779375 
L 1059.241449 828.779375 
L 1059.241449 813.521475 
L 1046.909497 813.521475 
z
" clip-path="url(#pf93a60cc17)" style="fill: #1f77b4; opacity: 0.6"/>
   </g>
   <g id="patch_78">
    <path d="M 1059.241449 828.779375 
L 1071.573401 828.779375 
L 1071.573401 812.537094 
L 1059.241449 812.537094 
z
" clip-path="url(#pf93a60cc17)" style="fill: #1f77b4; opacity: 0.6"/>
   </g>
   <g id="patch_79">
    <path d="M 1071.573401 828.779375 
L 1083.905352 828.779375 
L 1083.905352 814.505856 
L 1071.573401 814.505856 
z
" clip-path="url(#pf93a60cc17)" style="fill: #1f77b4; opacity: 0.6"/>
   </g>
   <g id="patch_80">
    <path d="M 1083.905352 828.779375 
L 1096.237304 828.779375 
L 1096.237304 818.443378 
L 1083.905352 818.443378 
z
" clip-path="url(#pf93a60cc17)" style="fill: #1f77b4; opacity: 0.6"/>
   </g>
   <g id="patch_81">
    <path d="M 1096.237304 828.779375 
L 1108.569256 828.779375 
L 1108.569256 820.41214 
L 1096.237304 820.41214 
z
" clip-path="url(#pf93a60cc17)" style="fill: #1f77b4; opacity: 0.6"/>
   </g>
   <g id="patch_82">
    <path d="M 1108.569256 828.779375 
L 1120.901207 828.779375 
L 1120.901207 818.935569 
L 1108.569256 818.935569 
z
" clip-path="url(#pf93a60cc17)" style="fill: #1f77b4; opacity: 0.6"/>
   </g>
   <g id="patch_83">
    <path d="M 1120.901207 828.779375 
L 1133.233159 828.779375 
L 1133.233159 821.39652 
L 1120.901207 821.39652 
z
" clip-path="url(#pf93a60cc17)" style="fill: #1f77b4; opacity: 0.6"/>
   </g>
   <g id="patch_84">
    <path d="M 1133.233159 828.779375 
L 1145.565111 828.779375 
L 1145.565111 823.365281 
L 1133.233159 823.365281 
z
" clip-path="url(#pf93a60cc17)" style="fill: #1f77b4; opacity: 0.6"/>
   </g>
   <g id="patch_85">
    <path d="M 1145.565111 828.779375 
L 1157.897063 828.779375 
L 1157.897063 823.857472 
L 1145.565111 823.857472 
z
" clip-path="url(#pf93a60cc17)" style="fill: #1f77b4; opacity: 0.6"/>
   </g>
   <g id="patch_86">
    <path d="M 1157.897062 828.779375 
L 1170.229014 828.779375 
L 1170.229014 825.826233 
L 1157.897062 825.826233 
z
" clip-path="url(#pf93a60cc17)" style="fill: #1f77b4; opacity: 0.6"/>
   </g>
   <g id="patch_87">
    <path d="M 1170.229014 828.779375 
L 1182.560966 828.779375 
L 1182.560966 824.841852 
L 1170.229014 824.841852 
z
" clip-path="url(#pf93a60cc17)" style="fill: #1f77b4; opacity: 0.6"/>
   </g>
   <g id="patch_88">
    <path d="M 1182.560966 828.779375 
L 1194.892918 828.779375 
L 1194.892918 825.826233 
L 1182.560966 825.826233 
z
" clip-path="url(#pf93a60cc17)" style="fill: #1f77b4; opacity: 0.6"/>
   </g>
   <g id="patch_89">
    <path d="M 1194.892918 828.779375 
L 1207.224869 828.779375 
L 1207.224869 826.810614 
L 1194.892918 826.810614 
z
" clip-path="url(#pf93a60cc17)" style="fill: #1f77b4; opacity: 0.6"/>
   </g>
   <g id="patch_90">
    <path d="M 1207.224869 828.779375 
L 1219.556821 828.779375 
L 1219.556821 825.826233 
L 1207.224869 825.826233 
z
" clip-path="url(#pf93a60cc17)" style="fill: #1f77b4; opacity: 0.6"/>
   </g>
   <g id="patch_91">
    <path d="M 1219.556821 828.779375 
L 1231.888773 828.779375 
L 1231.888773 827.794994 
L 1219.556821 827.794994 
z
" clip-path="url(#pf93a60cc17)" style="fill: #1f77b4; opacity: 0.6"/>
   </g>
   <g id="patch_92">
    <path d="M 1231.888773 828.779375 
L 1244.220724 828.779375 
L 1244.220724 828.287185 
L 1231.888773 828.287185 
z
" clip-path="url(#pf93a60cc17)" style="fill: #1f77b4; opacity: 0.6"/>
   </g>
   <g id="patch_93">
    <path d="M 1244.220724 828.779375 
L 1256.552676 828.779375 
L 1256.552676 827.302804 
L 1244.220724 827.302804 
z
" clip-path="url(#pf93a60cc17)" style="fill: #1f77b4; opacity: 0.6"/>
   </g>
   <g id="patch_94">
    <path d="M 1256.552676 828.779375 
L 1268.884628 828.779375 
L 1268.884628 827.794994 
L 1256.552676 827.794994 
z
" clip-path="url(#pf93a60cc17)" style="fill: #1f77b4; opacity: 0.6"/>
   </g>
   <g id="patch_95">
    <path d="M 1268.884628 828.779375 
L 1281.21658 828.779375 
L 1281.21658 827.302804 
L 1268.884628 827.302804 
z
" clip-path="url(#pf93a60cc17)" style="fill: #1f77b4; opacity: 0.6"/>
   </g>
   <g id="patch_96">
    <path d="M 1281.21658 828.779375 
L 1293.548531 828.779375 
L 1293.548531 828.287185 
L 1281.21658 828.287185 
z
" clip-path="url(#pf93a60cc17)" style="fill: #1f77b4; opacity: 0.6"/>
   </g>
   <g id="patch_97">
    <path d="M 1293.548531 828.779375 
L 1305.880483 828.779375 
L 1305.880483 828.287185 
L 1293.548531 828.287185 
z
" clip-path="url(#pf93a60cc17)" style="fill: #1f77b4; opacity: 0.6"/>
   </g>
   <g id="patch_98">
    <path d="M 1305.880483 828.779375 
L 1318.212435 828.779375 
L 1318.212435 827.794994 
L 1305.880483 827.794994 
z
" clip-path="url(#pf93a60cc17)" style="fill: #1f77b4; opacity: 0.6"/>
   </g>
   <g id="patch_99">
    <path d="M 1318.212435 828.779375 
L 1330.544386 828.779375 
L 1330.544386 828.779375 
L 1318.212435 828.779375 
z
" clip-path="url(#pf93a60cc17)" style="fill: #1f77b4; opacity: 0.6"/>
   </g>
   <g id="patch_100">
    <path d="M 1330.544386 828.779375 
L 1342.876338 828.779375 
L 1342.876338 828.287185 
L 1330.544386 828.287185 
z
" clip-path="url(#pf93a60cc17)" style="fill: #1f77b4; opacity: 0.6"/>
   </g>
   <g id="patch_101">
    <path d="M 1342.876338 828.779375 
L 1355.20829 828.779375 
L 1355.20829 828.779375 
L 1342.876338 828.779375 
z
" clip-path="url(#pf93a60cc17)" style="fill: #1f77b4; opacity: 0.6"/>
   </g>
   <g id="patch_102">
    <path d="M 1355.20829 828.779375 
L 1367.540241 828.779375 
L 1367.540241 828.287185 
L 1355.20829 828.287185 
z
" clip-path="url(#pf93a60cc17)" style="fill: #1f77b4; opacity: 0.6"/>
   </g>
   <g id="matplotlib.axis_1">
    <g id="xtick_1">
     <g id="line2d_1">
      <defs>
       <path id="mffd2079cfe" d="M 0 0 
L 0 3.5 
" style="stroke: #000000; stroke-width: 0.8"/>
      </defs>
      <g>
       <use xlink:href="#mffd2079cfe" x="105.960069" y="828.779375" style="stroke: #000000; stroke-width: 0.8"/>
      </g>
     </g>
     <g id="text_1">
      <!-- 0 -->
      <g transform="translate(100.233819 849.456563) scale(0.18 -0.18)">
       <defs>
        <path id="DejaVuSans-30" d="M 2034 4250 
Q 1547 4250 1301 3770 
Q 1056 3291 1056 2328 
Q 1056 1369 1301 889 
Q 1547 409 2034 409 
Q 2525 409 2770 889 
Q 3016 1369 3016 2328 
Q 3016 3291 2770 3770 
Q 2525 4250 2034 4250 
z
M 2034 4750 
Q 2819 4750 3233 4129 
Q 3647 3509 3647 2328 
Q 3647 1150 3233 529 
Q 2819 -91 2034 -91 
Q 1250 -91 836 529 
Q 422 1150 422 2328 
Q 422 3509 836 4129 
Q 1250 4750 2034 4750 
z
" transform="scale(0.015625)"/>
       </defs>
       <use xlink:href="#DejaVuSans-30"/>
      </g>
     </g>
    </g>
    <g id="xtick_2">
     <g id="line2d_2">
      <g>
       <use xlink:href="#mffd2079cfe" x="348.45013" y="828.779375" style="stroke: #000000; stroke-width: 0.8"/>
      </g>
     </g>
     <g id="text_2">
      <!-- 1 -->
      <g transform="translate(342.72388 849.456563) scale(0.18 -0.18)">
       <defs>
        <path id="DejaVuSans-31" d="M 794 531 
L 1825 531 
L 1825 4091 
L 703 3866 
L 703 4441 
L 1819 4666 
L 2450 4666 
L 2450 531 
L 3481 531 
L 3481 0 
L 794 0 
L 794 531 
z
" transform="scale(0.015625)"/>
       </defs>
       <use xlink:href="#DejaVuSans-31"/>
      </g>
     </g>
    </g>
    <g id="xtick_3">
     <g id="line2d_3">
      <g>
       <use xlink:href="#mffd2079cfe" x="590.94019" y="828.779375" style="stroke: #000000; stroke-width: 0.8"/>
      </g>
     </g>
     <g id="text_3">
      <!-- 2 -->
      <g transform="translate(585.21394 849.456563) scale(0.18 -0.18)">
       <defs>
        <path id="DejaVuSans-32" d="M 1228 531 
L 3431 531 
L 3431 0 
L 469 0 
L 469 531 
Q 828 903 1448 1529 
Q 2069 2156 2228 2338 
Q 2531 2678 2651 2914 
Q 2772 3150 2772 3378 
Q 2772 3750 2511 3984 
Q 2250 4219 1831 4219 
Q 1534 4219 1204 4116 
Q 875 4013 500 3803 
L 500 4441 
Q 881 4594 1212 4672 
Q 1544 4750 1819 4750 
Q 2544 4750 2975 4387 
Q 3406 4025 3406 3419 
Q 3406 3131 3298 2873 
Q 3191 2616 2906 2266 
Q 2828 2175 2409 1742 
Q 1991 1309 1228 531 
z
" transform="scale(0.015625)"/>
       </defs>
       <use xlink:href="#DejaVuSans-32"/>
      </g>
     </g>
    </g>
    <g id="xtick_4">
     <g id="line2d_4">
      <g>
       <use xlink:href="#mffd2079cfe" x="833.430251" y="828.779375" style="stroke: #000000; stroke-width: 0.8"/>
      </g>
     </g>
     <g id="text_4">
      <!-- 3 -->
      <g transform="translate(827.704001 849.456563) scale(0.18 -0.18)">
       <defs>
        <path id="DejaVuSans-33" d="M 2597 2516 
Q 3050 2419 3304 2112 
Q 3559 1806 3559 1356 
Q 3559 666 3084 287 
Q 2609 -91 1734 -91 
Q 1441 -91 1130 -33 
Q 819 25 488 141 
L 488 750 
Q 750 597 1062 519 
Q 1375 441 1716 441 
Q 2309 441 2620 675 
Q 2931 909 2931 1356 
Q 2931 1769 2642 2001 
Q 2353 2234 1838 2234 
L 1294 2234 
L 1294 2753 
L 1863 2753 
Q 2328 2753 2575 2939 
Q 2822 3125 2822 3475 
Q 2822 3834 2567 4026 
Q 2313 4219 1838 4219 
Q 1578 4219 1281 4162 
Q 984 4106 628 3988 
L 628 4550 
Q 988 4650 1302 4700 
Q 1616 4750 1894 4750 
Q 2613 4750 3031 4423 
Q 3450 4097 3450 3541 
Q 3450 3153 3228 2886 
Q 3006 2619 2597 2516 
z
" transform="scale(0.015625)"/>
       </defs>
       <use xlink:href="#DejaVuSans-33"/>
      </g>
     </g>
    </g>
    <g id="xtick_5">
     <g id="line2d_5">
      <g>
       <use xlink:href="#mffd2079cfe" x="1075.920312" y="828.779375" style="stroke: #000000; stroke-width: 0.8"/>
      </g>
     </g>
     <g id="text_5">
      <!-- 4 -->
      <g transform="translate(1070.194062 849.456563) scale(0.18 -0.18)">
       <defs>
        <path id="DejaVuSans-34" d="M 2419 4116 
L 825 1625 
L 2419 1625 
L 2419 4116 
z
M 2253 4666 
L 3047 4666 
L 3047 1625 
L 3713 1625 
L 3713 1100 
L 3047 1100 
L 3047 0 
L 2419 0 
L 2419 1100 
L 313 1100 
L 313 1709 
L 2253 4666 
z
" transform="scale(0.015625)"/>
       </defs>
       <use xlink:href="#DejaVuSans-34"/>
      </g>
     </g>
    </g>
    <g id="xtick_6">
     <g id="line2d_6">
      <g>
       <use xlink:href="#mffd2079cfe" x="1318.410372" y="828.779375" style="stroke: #000000; stroke-width: 0.8"/>
      </g>
     </g>
     <g id="text_6">
      <!-- 5 -->
      <g transform="translate(1312.684122 849.456563) scale(0.18 -0.18)">
       <defs>
        <path id="DejaVuSans-35" d="M 691 4666 
L 3169 4666 
L 3169 4134 
L 1269 4134 
L 1269 2991 
Q 1406 3038 1543 3061 
Q 1681 3084 1819 3084 
Q 2600 3084 3056 2656 
Q 3513 2228 3513 1497 
Q 3513 744 3044 326 
Q 2575 -91 1722 -91 
Q 1428 -91 1123 -41 
Q 819 9 494 109 
L 494 744 
Q 775 591 1075 516 
Q 1375 441 1709 441 
Q 2250 441 2565 725 
Q 2881 1009 2881 1497 
Q 2881 1984 2565 2268 
Q 2250 2553 1709 2553 
Q 1456 2553 1204 2497 
Q 953 2441 691 2322 
L 691 4666 
z
" transform="scale(0.015625)"/>
       </defs>
       <use xlink:href="#DejaVuSans-35"/>
      </g>
     </g>
    </g>
   </g>
   <g id="matplotlib.axis_2">
    <g id="ytick_1">
     <g id="line2d_7">
      <defs>
       <path id="m3188d5eec7" d="M 0 0 
L -3.5 0 
" style="stroke: #000000; stroke-width: 0.8"/>
      </defs>
      <g>
       <use xlink:href="#m3188d5eec7" x="72.685313" y="828.779375" style="stroke: #000000; stroke-width: 0.8"/>
      </g>
     </g>
     <g id="text_7">
      <!-- 0.0 -->
      <g transform="translate(37.059688 835.617969) scale(0.18 -0.18)">
       <defs>
        <path id="DejaVuSans-2e" d="M 684 794 
L 1344 794 
L 1344 0 
L 684 0 
L 684 794 
z
" transform="scale(0.015625)"/>
       </defs>
       <use xlink:href="#DejaVuSans-30"/>
       <use xlink:href="#DejaVuSans-2e" x="63.623047"/>
       <use xlink:href="#DejaVuSans-30" x="95.410156"/>
      </g>
     </g>
    </g>
    <g id="ytick_2">
     <g id="line2d_8">
      <g>
       <use xlink:href="#m3188d5eec7" x="72.685313" y="703.626467" style="stroke: #000000; stroke-width: 0.8"/>
      </g>
     </g>
     <g id="text_8">
      <!-- 0.1 -->
      <g transform="translate(37.059688 710.465061) scale(0.18 -0.18)">
       <use xlink:href="#DejaVuSans-30"/>
       <use xlink:href="#DejaVuSans-2e" x="63.623047"/>
       <use xlink:href="#DejaVuSans-31" x="95.410156"/>
      </g>
     </g>
    </g>
    <g id="ytick_3">
     <g id="line2d_9">
      <g>
       <use xlink:href="#m3188d5eec7" x="72.685313" y="578.473559" style="stroke: #000000; stroke-width: 0.8"/>
      </g>
     </g>
     <g id="text_9">
      <!-- 0.2 -->
      <g transform="translate(37.059688 585.312152) scale(0.18 -0.18)">
       <use xlink:href="#DejaVuSans-30"/>
       <use xlink:href="#DejaVuSans-2e" x="63.623047"/>
       <use xlink:href="#DejaVuSans-32" x="95.410156"/>
      </g>
     </g>
    </g>
    <g id="ytick_4">
     <g id="line2d_10">
      <g>
       <use xlink:href="#m3188d5eec7" x="72.685313" y="453.32065" style="stroke: #000000; stroke-width: 0.8"/>
      </g>
     </g>
     <g id="text_10">
      <!-- 0.3 -->
      <g transform="translate(37.059688 460.159244) scale(0.18 -0.18)">
       <use xlink:href="#DejaVuSans-30"/>
       <use xlink:href="#DejaVuSans-2e" x="63.623047"/>
       <use xlink:href="#DejaVuSans-33" x="95.410156"/>
      </g>
     </g>
    </g>
    <g id="ytick_5">
     <g id="line2d_11">
      <g>
       <use xlink:href="#m3188d5eec7" x="72.685313" y="328.167742" style="stroke: #000000; stroke-width: 0.8"/>
      </g>
     </g>
     <g id="text_11">
      <!-- 0.4 -->
      <g transform="translate(37.059688 335.006336) scale(0.18 -0.18)">
       <use xlink:href="#DejaVuSans-30"/>
       <use xlink:href="#DejaVuSans-2e" x="63.623047"/>
       <use xlink:href="#DejaVuSans-34" x="95.410156"/>
      </g>
     </g>
    </g>
    <g id="ytick_6">
     <g id="line2d_12">
      <g>
       <use xlink:href="#m3188d5eec7" x="72.685313" y="203.014834" style="stroke: #000000; stroke-width: 0.8"/>
      </g>
     </g>
     <g id="text_12">
      <!-- 0.5 -->
      <g transform="translate(37.059688 209.853428) scale(0.18 -0.18)">
       <use xlink:href="#DejaVuSans-30"/>
       <use xlink:href="#DejaVuSans-2e" x="63.623047"/>
       <use xlink:href="#DejaVuSans-35" x="95.410156"/>
      </g>
     </g>
    </g>
    <g id="ytick_7">
     <g id="line2d_13">
      <g>
       <use xlink:href="#m3188d5eec7" x="72.685313" y="77.861926" style="stroke: #000000; stroke-width: 0.8"/>
      </g>
     </g>
     <g id="text_13">
      <!-- 0.6 -->
      <g transform="translate(37.059688 84.700519) scale(0.18 -0.18)">
       <defs>
        <path id="DejaVuSans-36" d="M 2113 2584 
Q 1688 2584 1439 2293 
Q 1191 2003 1191 1497 
Q 1191 994 1439 701 
Q 1688 409 2113 409 
Q 2538 409 2786 701 
Q 3034 994 3034 1497 
Q 3034 2003 2786 2293 
Q 2538 2584 2113 2584 
z
M 3366 4563 
L 3366 3988 
Q 3128 4100 2886 4159 
Q 2644 4219 2406 4219 
Q 1781 4219 1451 3797 
Q 1122 3375 1075 2522 
Q 1259 2794 1537 2939 
Q 1816 3084 2150 3084 
Q 2853 3084 3261 2657 
Q 3669 2231 3669 1497 
Q 3669 778 3244 343 
Q 2819 -91 2113 -91 
Q 1303 -91 875 529 
Q 447 1150 447 2328 
Q 447 3434 972 4092 
Q 1497 4750 2381 4750 
Q 2619 4750 2861 4703 
Q 3103 4656 3366 4563 
z
" transform="scale(0.015625)"/>
       </defs>
       <use xlink:href="#DejaVuSans-30"/>
       <use xlink:href="#DejaVuSans-2e" x="63.623047"/>
       <use xlink:href="#DejaVuSans-36" x="95.410156"/>
      </g>
     </g>
    </g>
    <g id="text_14">
     <!-- Normed Hist Counts -->
     <g transform="translate(28.276406 548.966563) rotate(-90) scale(0.23 -0.23)">
      <defs>
       <path id="DejaVuSans-4e" d="M 628 4666 
L 1478 4666 
L 3547 763 
L 3547 4666 
L 4159 4666 
L 4159 0 
L 3309 0 
L 1241 3903 
L 1241 0 
L 628 0 
L 628 4666 
z
" transform="scale(0.015625)"/>
       <path id="DejaVuSans-6f" d="M 1959 3097 
Q 1497 3097 1228 2736 
Q 959 2375 959 1747 
Q 959 1119 1226 758 
Q 1494 397 1959 397 
Q 2419 397 2687 759 
Q 2956 1122 2956 1747 
Q 2956 2369 2687 2733 
Q 2419 3097 1959 3097 
z
M 1959 3584 
Q 2709 3584 3137 3096 
Q 3566 2609 3566 1747 
Q 3566 888 3137 398 
Q 2709 -91 1959 -91 
Q 1206 -91 779 398 
Q 353 888 353 1747 
Q 353 2609 779 3096 
Q 1206 3584 1959 3584 
z
" transform="scale(0.015625)"/>
       <path id="DejaVuSans-72" d="M 2631 2963 
Q 2534 3019 2420 3045 
Q 2306 3072 2169 3072 
Q 1681 3072 1420 2755 
Q 1159 2438 1159 1844 
L 1159 0 
L 581 0 
L 581 3500 
L 1159 3500 
L 1159 2956 
Q 1341 3275 1631 3429 
Q 1922 3584 2338 3584 
Q 2397 3584 2469 3576 
Q 2541 3569 2628 3553 
L 2631 2963 
z
" transform="scale(0.015625)"/>
       <path id="DejaVuSans-6d" d="M 3328 2828 
Q 3544 3216 3844 3400 
Q 4144 3584 4550 3584 
Q 5097 3584 5394 3201 
Q 5691 2819 5691 2113 
L 5691 0 
L 5113 0 
L 5113 2094 
Q 5113 2597 4934 2840 
Q 4756 3084 4391 3084 
Q 3944 3084 3684 2787 
Q 3425 2491 3425 1978 
L 3425 0 
L 2847 0 
L 2847 2094 
Q 2847 2600 2669 2842 
Q 2491 3084 2119 3084 
Q 1678 3084 1418 2786 
Q 1159 2488 1159 1978 
L 1159 0 
L 581 0 
L 581 3500 
L 1159 3500 
L 1159 2956 
Q 1356 3278 1631 3431 
Q 1906 3584 2284 3584 
Q 2666 3584 2933 3390 
Q 3200 3197 3328 2828 
z
" transform="scale(0.015625)"/>
       <path id="DejaVuSans-65" d="M 3597 1894 
L 3597 1613 
L 953 1613 
Q 991 1019 1311 708 
Q 1631 397 2203 397 
Q 2534 397 2845 478 
Q 3156 559 3463 722 
L 3463 178 
Q 3153 47 2828 -22 
Q 2503 -91 2169 -91 
Q 1331 -91 842 396 
Q 353 884 353 1716 
Q 353 2575 817 3079 
Q 1281 3584 2069 3584 
Q 2775 3584 3186 3129 
Q 3597 2675 3597 1894 
z
M 3022 2063 
Q 3016 2534 2758 2815 
Q 2500 3097 2075 3097 
Q 1594 3097 1305 2825 
Q 1016 2553 972 2059 
L 3022 2063 
z
" transform="scale(0.015625)"/>
       <path id="DejaVuSans-64" d="M 2906 2969 
L 2906 4863 
L 3481 4863 
L 3481 0 
L 2906 0 
L 2906 525 
Q 2725 213 2448 61 
Q 2172 -91 1784 -91 
Q 1150 -91 751 415 
Q 353 922 353 1747 
Q 353 2572 751 3078 
Q 1150 3584 1784 3584 
Q 2172 3584 2448 3432 
Q 2725 3281 2906 2969 
z
M 947 1747 
Q 947 1113 1208 752 
Q 1469 391 1925 391 
Q 2381 391 2643 752 
Q 2906 1113 2906 1747 
Q 2906 2381 2643 2742 
Q 2381 3103 1925 3103 
Q 1469 3103 1208 2742 
Q 947 2381 947 1747 
z
" transform="scale(0.015625)"/>
       <path id="DejaVuSans-20" transform="scale(0.015625)"/>
       <path id="DejaVuSans-48" d="M 628 4666 
L 1259 4666 
L 1259 2753 
L 3553 2753 
L 3553 4666 
L 4184 4666 
L 4184 0 
L 3553 0 
L 3553 2222 
L 1259 2222 
L 1259 0 
L 628 0 
L 628 4666 
z
" transform="scale(0.015625)"/>
       <path id="DejaVuSans-69" d="M 603 3500 
L 1178 3500 
L 1178 0 
L 603 0 
L 603 3500 
z
M 603 4863 
L 1178 4863 
L 1178 4134 
L 603 4134 
L 603 4863 
z
" transform="scale(0.015625)"/>
       <path id="DejaVuSans-73" d="M 2834 3397 
L 2834 2853 
Q 2591 2978 2328 3040 
Q 2066 3103 1784 3103 
Q 1356 3103 1142 2972 
Q 928 2841 928 2578 
Q 928 2378 1081 2264 
Q 1234 2150 1697 2047 
L 1894 2003 
Q 2506 1872 2764 1633 
Q 3022 1394 3022 966 
Q 3022 478 2636 193 
Q 2250 -91 1575 -91 
Q 1294 -91 989 -36 
Q 684 19 347 128 
L 347 722 
Q 666 556 975 473 
Q 1284 391 1588 391 
Q 1994 391 2212 530 
Q 2431 669 2431 922 
Q 2431 1156 2273 1281 
Q 2116 1406 1581 1522 
L 1381 1569 
Q 847 1681 609 1914 
Q 372 2147 372 2553 
Q 372 3047 722 3315 
Q 1072 3584 1716 3584 
Q 2034 3584 2315 3537 
Q 2597 3491 2834 3397 
z
" transform="scale(0.015625)"/>
       <path id="DejaVuSans-74" d="M 1172 4494 
L 1172 3500 
L 2356 3500 
L 2356 3053 
L 1172 3053 
L 1172 1153 
Q 1172 725 1289 603 
Q 1406 481 1766 481 
L 2356 481 
L 2356 0 
L 1766 0 
Q 1100 0 847 248 
Q 594 497 594 1153 
L 594 3053 
L 172 3053 
L 172 3500 
L 594 3500 
L 594 4494 
L 1172 4494 
z
" transform="scale(0.015625)"/>
       <path id="DejaVuSans-43" d="M 4122 4306 
L 4122 3641 
Q 3803 3938 3442 4084 
Q 3081 4231 2675 4231 
Q 1875 4231 1450 3742 
Q 1025 3253 1025 2328 
Q 1025 1406 1450 917 
Q 1875 428 2675 428 
Q 3081 428 3442 575 
Q 3803 722 4122 1019 
L 4122 359 
Q 3791 134 3420 21 
Q 3050 -91 2638 -91 
Q 1578 -91 968 557 
Q 359 1206 359 2328 
Q 359 3453 968 4101 
Q 1578 4750 2638 4750 
Q 3056 4750 3426 4639 
Q 3797 4528 4122 4306 
z
" transform="scale(0.015625)"/>
       <path id="DejaVuSans-75" d="M 544 1381 
L 544 3500 
L 1119 3500 
L 1119 1403 
Q 1119 906 1312 657 
Q 1506 409 1894 409 
Q 2359 409 2629 706 
Q 2900 1003 2900 1516 
L 2900 3500 
L 3475 3500 
L 3475 0 
L 2900 0 
L 2900 538 
Q 2691 219 2414 64 
Q 2138 -91 1772 -91 
Q 1169 -91 856 284 
Q 544 659 544 1381 
z
M 1991 3584 
L 1991 3584 
z
" transform="scale(0.015625)"/>
       <path id="DejaVuSans-6e" d="M 3513 2113 
L 3513 0 
L 2938 0 
L 2938 2094 
Q 2938 2591 2744 2837 
Q 2550 3084 2163 3084 
Q 1697 3084 1428 2787 
Q 1159 2491 1159 1978 
L 1159 0 
L 581 0 
L 581 3500 
L 1159 3500 
L 1159 2956 
Q 1366 3272 1645 3428 
Q 1925 3584 2291 3584 
Q 2894 3584 3203 3211 
Q 3513 2838 3513 2113 
z
" transform="scale(0.015625)"/>
      </defs>
      <use xlink:href="#DejaVuSans-4e"/>
      <use xlink:href="#DejaVuSans-6f" x="74.804688"/>
      <use xlink:href="#DejaVuSans-72" x="135.986328"/>
      <use xlink:href="#DejaVuSans-6d" x="175.349609"/>
      <use xlink:href="#DejaVuSans-65" x="272.761719"/>
      <use xlink:href="#DejaVuSans-64" x="334.285156"/>
      <use xlink:href="#DejaVuSans-20" x="397.761719"/>
      <use xlink:href="#DejaVuSans-48" x="429.548828"/>
      <use xlink:href="#DejaVuSans-69" x="504.744141"/>
      <use xlink:href="#DejaVuSans-73" x="532.527344"/>
      <use xlink:href="#DejaVuSans-74" x="584.626953"/>
      <use xlink:href="#DejaVuSans-20" x="623.835938"/>
      <use xlink:href="#DejaVuSans-43" x="655.623047"/>
      <use xlink:href="#DejaVuSans-6f" x="725.447266"/>
      <use xlink:href="#DejaVuSans-75" x="786.628906"/>
      <use xlink:href="#DejaVuSans-6e" x="850.007812"/>
      <use xlink:href="#DejaVuSans-74" x="913.386719"/>
      <use xlink:href="#DejaVuSans-73" x="952.595703"/>
     </g>
    </g>
   </g>
   <g id="line2d_14">
    <path d="M 137.428059 827.723914 
L 143.594035 826.850399 
L 149.760011 825.607381 
L 155.925987 823.938211 
L 162.091962 821.789854 
L 168.257938 819.113057 
L 174.423914 815.862532 
L 180.58989 811.997141 
L 186.755866 807.48007 
L 192.921842 802.278994 
L 199.087817 796.366212 
L 205.253793 789.718776 
L 211.419769 782.318581 
L 217.585745 774.152439 
L 223.751721 765.212123 
L 229.917697 755.494381 
L 236.083673 745.000928 
L 242.249648 733.738405 
L 248.415624 721.718308 
L 254.5816 708.956901 
L 260.747576 695.475084 
L 266.913552 681.298256 
L 273.079528 666.456136 
L 279.245504 650.98257 
L 285.411479 634.915311 
L 291.577455 618.295783 
L 297.743431 601.168824 
L 303.909407 583.582411 
L 310.075383 565.58737 
L 322.407335 528.587146 
L 334.739286 490.620051 
L 371.735141 375.752728 
L 384.067093 338.78439 
L 390.233069 320.819447 
L 396.399045 303.277149 
L 402.565021 286.212595 
L 408.730996 269.678767 
L 414.896972 253.726288 
L 421.062948 238.40321 
L 427.228924 223.754817 
L 433.3949 209.82344 
L 439.560876 196.648305 
L 445.726852 184.265391 
L 451.892827 172.707317 
L 458.058803 162.003244 
L 464.224779 152.178801 
L 470.390755 143.256032 
L 476.556731 135.25336 
L 482.722707 128.185581 
L 488.888683 122.063866 
L 495.054658 116.895789 
L 501.220634 112.685371 
L 507.38661 109.433146 
L 513.552586 107.136235 
L 519.718562 105.788446 
L 525.884538 105.380381 
L 532.050513 105.899557 
L 538.216489 107.330547 
L 544.382465 109.655119 
L 550.548441 112.852398 
L 556.714417 116.89903 
L 562.880393 121.769352 
L 569.046369 127.435568 
L 575.212344 133.86794 
L 581.37832 141.034967 
L 587.544296 148.903574 
L 593.710272 157.439309 
L 599.876248 166.606523 
L 606.042224 176.368567 
L 612.2082 186.687976 
L 618.374175 197.52665 
L 624.540151 208.846038 
L 630.706127 220.607309 
L 636.872103 232.771525 
L 643.038079 245.2998 
L 649.204055 258.153458 
L 661.536006 284.684147 
L 673.867958 312.063799 
L 686.19991 340.004587 
L 729.361741 438.455411 
L 741.693692 465.83447 
L 754.025644 492.531248 
L 766.357596 518.394163 
L 772.523572 530.972121 
L 778.689548 543.295607 
L 784.855523 555.352326 
L 791.021499 567.13139 
L 797.187475 578.623283 
L 803.353451 589.819825 
L 809.519427 600.714121 
L 815.685403 611.300519 
L 821.851379 621.57456 
L 828.017354 631.532922 
L 834.18333 641.173368 
L 840.349306 650.49469 
L 846.515282 659.496652 
L 852.681258 668.17993 
L 858.847234 676.546057 
L 865.01321 684.597362 
L 871.179185 692.336911 
L 877.345161 699.768454 
L 883.511137 706.896362 
L 889.677113 713.725575 
L 895.843089 720.261546 
L 902.009065 726.510187 
L 908.17504 732.477818 
L 914.341016 738.171118 
L 920.506992 743.597074 
L 926.672968 748.762939 
L 932.838944 753.676185 
L 939.00492 758.344461 
L 945.170896 762.775555 
L 951.336871 766.977357 
L 957.502847 770.957822 
L 963.668823 774.724939 
L 969.834799 778.286699 
L 976.000775 781.651069 
L 982.166751 784.825962 
L 988.332727 787.81922 
L 994.498702 790.638584 
L 1000.664678 793.291682 
L 1006.830654 795.786006 
L 1012.99663 798.128899 
L 1019.162606 800.327543 
L 1025.328582 802.388942 
L 1031.494558 804.319917 
L 1037.660533 806.127094 
L 1049.992485 809.395545 
L 1062.324437 812.243192 
L 1074.656388 814.715513 
L 1086.98834 816.854525 
L 1099.320292 818.698797 
L 1111.652244 820.283519 
L 1123.984195 821.640615 
L 1136.316147 822.798881 
L 1148.648099 823.784157 
L 1167.146026 824.987464 
L 1185.643954 825.920025 
L 1204.141881 826.637495 
L 1228.805785 827.337132 
L 1253.469688 827.819511 
L 1284.299567 828.211725 
L 1327.461398 828.515411 
L 1364.457254 828.646214 
L 1364.457254 828.646214 
" clip-path="url(#pf93a60cc17)" style="fill: none; stroke: #ff7f0e; stroke-width: 2; stroke-linecap: square"/>
   </g>
   <g id="line2d_15">
    <path d="M 137.428059 823.712699 
L 143.594035 822.4362 
L 149.760011 820.908188 
L 155.925987 819.094336 
L 162.091962 816.958326 
L 168.257938 814.462149 
L 174.423914 811.566446 
L 180.58989 808.230916 
L 186.755866 804.414762 
L 192.921842 800.077191 
L 199.087817 795.177937 
L 205.253793 789.677822 
L 211.419769 783.539328 
L 217.585745 776.727181 
L 223.751721 769.208927 
L 229.917697 760.955506 
L 236.083673 751.941792 
L 242.249648 742.14711 
L 248.415624 731.555706 
L 254.5816 720.15717 
L 260.747576 707.946804 
L 266.913552 694.92592 
L 273.079528 681.102079 
L 279.245504 666.489247 
L 285.411479 651.107883 
L 291.577455 634.984948 
L 297.743431 618.153835 
L 303.909407 600.654229 
L 310.075383 582.531886 
L 316.241359 563.838349 
L 322.407335 544.630591 
L 328.57331 524.97061 
L 340.905262 484.564216 
L 353.237214 443.196694 
L 377.901117 360.09971 
L 390.233069 319.676989 
L 396.399045 300.031075 
L 402.565021 280.866448 
L 408.730996 262.258262 
L 414.896972 244.278586 
L 421.062948 226.995936 
L 427.228924 210.47485 
L 433.3949 194.775513 
L 439.560876 179.953425 
L 445.726852 166.059122 
L 451.892827 153.137946 
L 458.058803 141.229863 
L 464.224779 130.369337 
L 470.390755 120.585244 
L 476.556731 111.900844 
L 482.722707 104.333786 
L 488.888683 97.896168 
L 495.054658 92.594628 
L 501.220634 88.430482 
L 507.38661 85.399885 
L 513.552586 83.494032 
L 519.718562 82.699386 
L 525.884538 82.997925 
L 532.050513 84.367415 
L 538.216489 86.781697 
L 544.382465 90.21099 
L 550.548441 94.622203 
L 556.714417 99.979256 
L 562.880393 106.243404 
L 569.046369 113.373561 
L 575.212344 121.326626 
L 581.37832 130.057803 
L 587.544296 139.520915 
L 593.710272 149.66871 
L 599.876248 160.453156 
L 606.042224 171.825727 
L 612.2082 183.737673 
L 618.374175 196.140278 
L 624.540151 208.985098 
L 630.706127 222.22419 
L 636.872103 235.810321 
L 649.204055 263.839441 
L 661.536006 292.715615 
L 680.033934 336.892159 
L 704.697837 395.853168 
L 717.029789 424.784955 
L 729.361741 453.06683 
L 741.693692 480.523976 
L 754.025644 507.011265 
L 760.19162 519.853655 
L 766.357596 532.411908 
L 772.523572 544.67557 
L 778.689548 556.635724 
L 784.855523 568.284924 
L 791.021499 579.617125 
L 797.187475 590.627608 
L 803.353451 601.31291 
L 809.519427 611.670749 
L 815.685403 621.699947 
L 821.851379 631.400363 
L 828.017354 640.772813 
L 834.18333 649.819001 
L 840.349306 658.541451 
L 846.515282 666.943433 
L 852.681258 675.028899 
L 858.847234 682.802419 
L 865.01321 690.269117 
L 871.179185 697.434609 
L 877.345161 704.30495 
L 883.511137 710.886577 
L 889.677113 717.186255 
L 895.843089 723.211031 
L 902.009065 728.968185 
L 908.17504 734.465189 
L 914.341016 739.70966 
L 920.506992 744.709331 
L 926.672968 749.472008 
L 932.838944 754.00554 
L 939.00492 758.317787 
L 945.170896 762.416596 
L 951.336871 766.309772 
L 957.502847 770.005057 
L 963.668823 773.510107 
L 969.834799 776.832476 
L 976.000775 779.979598 
L 982.166751 782.958772 
L 988.332727 785.777149 
L 994.498702 788.441723 
L 1000.664678 790.959319 
L 1006.830654 793.336585 
L 1012.99663 795.579989 
L 1019.162606 797.695807 
L 1031.494558 801.568836 
L 1043.826509 805.002007 
L 1056.158461 808.038489 
L 1068.490413 810.718295 
L 1080.822364 813.078331 
L 1093.154316 815.152486 
L 1105.486268 816.971741 
L 1117.818219 818.564309 
L 1130.150171 819.955787 
L 1142.482123 821.169309 
L 1160.98005 822.700936 
L 1179.477978 823.940107 
L 1197.975906 824.938843 
L 1216.473833 825.740829 
L 1241.137737 826.566204 
L 1265.80164 827.17563 
L 1296.631519 827.714566 
L 1333.627374 828.134307 
L 1364.457254 828.357824 
L 1364.457254 828.357824 
" clip-path="url(#pf93a60cc17)" style="fill: none; stroke: #2ca02c; stroke-width: 2; stroke-linecap: square"/>
   </g>
   <g id="line2d_16">
    <path d="M 137.428059 124.403121 
L 149.760011 144.419767 
L 162.091962 163.867588 
L 174.423914 182.76275 
L 186.755866 201.120958 
L 199.087817 218.957471 
L 211.419769 236.287113 
L 223.751721 253.12429 
L 236.083673 269.482996 
L 248.415624 285.376827 
L 260.747576 300.818994 
L 273.079528 315.822333 
L 285.411479 330.399314 
L 297.743431 344.562053 
L 310.075383 358.322322 
L 322.407335 371.691557 
L 334.739286 384.680872 
L 347.071238 397.301062 
L 359.40319 409.562617 
L 371.735141 421.475729 
L 384.067093 433.0503 
L 396.399045 444.295949 
L 408.730996 455.222025 
L 421.062948 465.837609 
L 433.3949 476.151523 
L 445.726852 486.172342 
L 458.058803 495.908394 
L 470.390755 505.36777 
L 482.722707 514.558335 
L 495.054658 523.487726 
L 507.38661 532.163366 
L 519.718562 540.592465 
L 532.050513 548.78203 
L 544.382465 556.738868 
L 556.714417 564.469592 
L 569.046369 571.980628 
L 581.37832 579.278218 
L 593.710272 586.368429 
L 606.042224 593.257154 
L 618.374175 599.950117 
L 630.706127 606.452884 
L 643.038079 612.770857 
L 655.370031 618.909289 
L 667.701982 624.873282 
L 680.033934 630.667793 
L 698.531862 639.052279 
L 717.029789 647.081916 
L 735.527717 654.771723 
L 754.025644 662.136081 
L 772.523572 669.188765 
L 791.021499 675.942964 
L 809.519427 682.411313 
L 828.017354 688.605907 
L 846.515282 694.538334 
L 865.01321 700.219688 
L 883.511137 705.660596 
L 902.009065 710.871234 
L 920.506992 715.861346 
L 939.00492 720.640267 
L 957.502847 725.216935 
L 976.000775 729.599908 
L 994.498702 733.797385 
L 1012.99663 737.817216 
L 1037.660533 742.913602 
L 1062.324437 747.72445 
L 1086.98834 752.265758 
L 1111.652244 756.552627 
L 1136.316147 760.599314 
L 1160.98005 764.419275 
L 1185.643954 768.025213 
L 1210.307857 771.429119 
L 1234.971761 774.642313 
L 1265.80164 778.406836 
L 1296.631519 781.909586 
L 1327.461398 785.168765 
L 1358.291278 788.201312 
L 1364.457254 788.782032 
L 1364.457254 788.782032 
" clip-path="url(#pf93a60cc17)" style="fill: none; stroke: #d62728; stroke-width: 2; stroke-linecap: square"/>
   </g>
   <g id="line2d_17">
    <path d="M 137.428059 777.312702 
L 149.760011 772.302548 
L 155.925987 769.617439 
L 162.091962 766.804669 
L 168.257938 763.85817 
L 174.423914 760.771585 
L 180.58989 757.538251 
L 186.755866 754.151194 
L 192.921842 750.603104 
L 199.087817 746.886325 
L 205.253793 742.992838 
L 211.419769 738.914239 
L 217.585745 734.64173 
L 223.751721 730.166091 
L 229.917697 725.477663 
L 236.083673 720.566331 
L 242.249648 715.421497 
L 248.415624 710.032059 
L 254.5816 704.386388 
L 260.747576 698.472301 
L 266.913552 692.277038 
L 273.079528 685.78723 
L 279.245504 678.988873 
L 285.411479 671.867298 
L 291.577455 664.407138 
L 297.743431 656.592295 
L 303.909407 648.405907 
L 310.075383 639.830308 
L 316.241359 630.846996 
L 322.407335 621.436584 
L 328.57331 611.578768 
L 334.739286 601.252276 
L 340.905262 590.434825 
L 347.071238 579.103075 
L 353.237214 567.232573 
L 359.40319 554.797705 
L 365.569165 541.771638 
L 371.735141 528.126266 
L 377.901117 513.832145 
L 384.067093 498.858429 
L 390.233069 483.17281 
L 396.399045 466.741441 
L 402.565021 449.528865 
L 408.730996 431.497943 
L 414.896972 412.609766 
L 421.062948 392.823578 
L 427.228924 372.096683 
L 433.3949 350.384358 
L 439.560876 327.639752 
L 445.726852 303.813786 
L 451.892827 278.855049 
L 458.058803 252.709684 
L 464.224779 225.321275 
L 470.390755 196.630724 
L 476.556731 166.576121 
L 482.722707 135.092615 
L 488.888683 102.112271 
L 495.054658 67.563924 
L 501.220634 31.373025 
L 506.485819 -1 
M 591.5774 -1 
L 593.710272 12.425586 
L 599.876248 49.476429 
L 606.042224 84.845691 
L 612.2082 118.609692 
L 618.374175 150.841288 
L 624.540151 181.610028 
L 630.706127 210.982306 
L 636.872103 239.0215 
L 643.038079 265.788113 
L 649.204055 291.339904 
L 655.370031 315.732006 
L 661.536006 339.017055 
L 667.701982 361.245293 
L 673.867958 382.464686 
L 680.033934 402.721021 
L 686.19991 422.058006 
L 692.365886 440.517368 
L 698.531862 458.138937 
L 704.697837 474.960737 
L 710.863813 491.019068 
L 717.029789 506.348578 
L 723.195765 520.982347 
L 729.361741 534.951952 
L 735.527717 548.287535 
L 741.693692 561.017872 
L 747.859668 573.170433 
L 754.025644 584.771441 
L 760.19162 595.845928 
L 766.357596 606.417792 
L 772.523572 616.509843 
L 778.689548 626.143858 
L 784.855523 635.340627 
L 791.021499 644.119993 
L 797.187475 652.5009 
L 803.353451 660.501434 
L 809.519427 668.138858 
L 815.685403 675.429651 
L 821.851379 682.389546 
L 828.017354 689.03356 
L 834.18333 695.376031 
L 840.349306 701.430644 
L 846.515282 707.210464 
L 852.681258 712.727963 
L 858.847234 717.995045 
L 865.01321 723.023077 
L 871.179185 727.822907 
L 877.345161 732.404894 
L 883.511137 736.778924 
L 889.677113 740.954435 
L 895.843089 744.940437 
L 902.009065 748.745532 
L 908.17504 752.377929 
L 914.341016 755.845467 
L 920.506992 759.155629 
L 926.672968 762.315556 
L 932.838944 765.332067 
L 939.00492 768.211672 
L 945.170896 770.960584 
L 957.502847 776.089785 
L 969.834799 780.763966 
L 982.166751 785.023493 
L 994.498702 788.90515 
L 1006.830654 792.442459 
L 1019.162606 795.665968 
L 1031.494558 798.603513 
L 1043.826509 801.280464 
L 1056.158461 803.719938 
L 1068.490413 805.943003 
L 1080.822364 807.968855 
L 1093.154316 809.814991 
L 1105.486268 811.497353 
L 1123.984195 813.745246 
L 1142.482123 815.700753 
L 1160.98005 817.401905 
L 1179.477978 818.881786 
L 1197.975906 820.169177 
L 1222.639809 821.629067 
L 1247.303712 822.841427 
L 1271.967616 823.848228 
L 1302.797495 824.870178 
L 1333.627374 825.680336 
L 1364.457254 826.322593 
L 1364.457254 826.322593 
" clip-path="url(#pf93a60cc17)" style="fill: none; stroke: #9467bd; stroke-width: 2; stroke-linecap: square"/>
   </g>
   <g id="line2d_18">
    <path d="M 137.428059 822.155877 
L 143.594035 820.743799 
L 149.760011 819.088359 
L 155.925987 817.15918 
L 162.091962 814.92407 
L 168.257938 812.349212 
L 174.423914 809.399411 
L 180.58989 806.038375 
L 186.755866 802.229054 
L 192.921842 797.934018 
L 199.087817 793.115874 
L 205.253793 787.737722 
L 211.419769 781.763636 
L 217.585745 775.159175 
L 223.751721 767.891897 
L 229.917697 759.931894 
L 236.083673 751.252314 
L 242.249648 741.82988 
L 248.415624 731.645384 
L 254.5816 720.684156 
L 260.747576 708.936493 
L 266.913552 696.398044 
L 273.079528 683.070142 
L 279.245504 668.960081 
L 285.411479 654.081318 
L 291.577455 638.453614 
L 297.743431 622.103103 
L 303.909407 605.06228 
L 310.075383 587.369916 
L 316.241359 569.070904 
L 322.407335 550.216019 
L 328.57331 530.861621 
L 340.905262 490.905353 
L 353.237214 449.749076 
L 384.067093 345.685899 
L 396.399045 305.325588 
L 402.565021 285.748935 
L 408.730996 266.681791 
L 414.896972 248.201474 
L 421.062948 230.38218 
L 427.228924 213.294463 
L 433.3949 197.004761 
L 439.560876 181.574974 
L 445.726852 167.062087 
L 451.892827 153.517854 
L 458.058803 140.98853 
L 464.224779 129.514662 
L 470.390755 119.130941 
L 476.556731 109.866095 
L 482.722707 101.742851 
L 488.888683 94.777942 
L 495.054658 88.982158 
L 501.220634 84.360457 
L 507.38661 80.912102 
L 513.552586 78.630856 
L 519.718562 77.505197 
L 525.884538 77.518575 
L 532.050513 78.649693 
L 538.216489 80.872812 
L 544.382465 84.158075 
L 550.548441 88.471851 
L 556.714417 93.777081 
L 562.880393 100.033644 
L 569.046369 107.198717 
L 575.212344 115.22714 
L 581.37832 124.071778 
L 587.544296 133.683878 
L 593.710272 144.013417 
L 599.876248 155.009437 
L 606.042224 166.620374 
L 612.2082 178.794364 
L 618.374175 191.479539 
L 624.540151 204.624301 
L 630.706127 218.177584 
L 636.872103 232.089085 
L 649.204055 260.790674 
L 661.536006 290.349811 
L 680.033934 335.52729 
L 698.531862 380.765804 
L 710.863813 410.500267 
L 723.195765 439.623053 
L 735.527717 467.938868 
L 747.859668 495.285256 
L 754.025644 508.552784 
L 760.19162 521.531168 
L 766.357596 534.208624 
L 772.523572 546.575072 
L 778.689548 558.622063 
L 784.855523 570.342701 
L 791.021499 581.731554 
L 797.187475 592.784581 
L 803.353451 603.499039 
L 809.519427 613.873409 
L 815.685403 623.907303 
L 821.851379 633.601391 
L 828.017354 642.957311 
L 834.18333 651.977597 
L 840.349306 660.665597 
L 846.515282 669.025399 
L 852.681258 677.061762 
L 858.847234 684.78004 
L 865.01321 692.186119 
L 871.179185 699.286353 
L 877.345161 706.087505 
L 883.511137 712.596684 
L 889.677113 718.821297 
L 895.843089 724.768993 
L 902.009065 730.447621 
L 908.17504 735.86518 
L 914.341016 741.029779 
L 920.506992 745.949603 
L 926.672968 750.63287 
L 932.838944 755.087808 
L 939.00492 759.322615 
L 945.170896 763.345444 
L 951.336871 767.164367 
L 957.502847 770.787363 
L 963.668823 774.222292 
L 969.834799 777.476881 
L 976.000775 780.558711 
L 982.166751 783.475198 
L 988.332727 786.233587 
L 994.498702 788.84094 
L 1000.664678 791.304132 
L 1006.830654 793.629837 
L 1012.99663 795.824532 
L 1019.162606 797.894488 
L 1031.494558 801.684225 
L 1043.826509 805.045051 
L 1056.158461 808.019635 
L 1068.490413 810.647361 
L 1080.822364 812.964419 
L 1093.154316 815.003923 
L 1105.486268 816.796051 
L 1117.818219 818.368212 
L 1130.150171 819.745204 
L 1142.482123 820.949399 
L 1160.98005 822.475129 
L 1179.477978 823.716141 
L 1197.975906 824.722486 
L 1216.473833 825.536169 
L 1241.137737 826.38112 
L 1265.80164 827.012343 
L 1296.631519 827.578875 
L 1333.627374 828.02932 
L 1364.457254 828.275047 
L 1364.457254 828.275047 
" clip-path="url(#pf93a60cc17)" style="fill: none; stroke: #8c564b; stroke-width: 2; stroke-linecap: square"/>
   </g>
   <g id="line2d_19">
    <path d="M 137.428059 801.121133 
L 143.594035 798.385128 
L 149.760011 795.424519 
L 155.925987 792.225991 
L 162.091962 788.775971 
L 168.257938 785.060684 
L 174.423914 781.066213 
L 180.58989 776.778567 
L 186.755866 772.183754 
L 192.921842 767.267862 
L 199.087817 762.017145 
L 205.253793 756.418117 
L 211.419769 750.457654 
L 217.585745 744.123096 
L 223.751721 737.402357 
L 229.917697 730.284048 
L 236.083673 722.757589 
L 242.249648 714.813337 
L 248.415624 706.442712 
L 254.5816 697.638326 
L 260.747576 688.394111 
L 266.913552 678.705453 
L 273.079528 668.569313 
L 279.245504 657.984361 
L 285.411479 646.951094 
L 291.577455 635.471957 
L 297.743431 623.55145 
L 303.909407 611.19624 
L 310.075383 598.415248 
L 316.241359 585.219739 
L 322.407335 571.623397 
L 328.57331 557.64238 
L 334.739286 543.295374 
L 340.905262 528.603616 
L 347.071238 513.590919 
L 359.40319 482.710766 
L 371.735141 450.896259 
L 384.067093 418.427762 
L 421.062948 320.418197 
L 433.3949 288.790836 
L 439.560876 273.397259 
L 445.726852 258.352363 
L 451.892827 243.707637 
L 458.058803 229.514255 
L 464.224779 215.822775 
L 470.390755 202.682848 
L 476.556731 190.142916 
L 482.722707 178.249919 
L 488.888683 167.049004 
L 495.054658 156.583236 
L 501.220634 146.893328 
L 507.38661 138.017375 
L 513.552586 129.990605 
L 519.718562 122.845148 
L 525.884538 116.609816 
L 532.050513 111.309919 
L 538.216489 106.967085 
L 544.382465 103.599118 
L 550.548441 101.219876 
L 556.714417 99.839173 
L 562.880393 99.462714 
L 569.046369 100.092058 
L 575.212344 101.7246 
L 581.37832 104.353598 
L 587.544296 107.968212 
L 593.710272 112.553582 
L 599.876248 118.090931 
L 606.042224 124.557689 
L 612.2082 131.927649 
L 618.374175 140.171144 
L 624.540151 149.255245 
L 630.706127 159.143981 
L 636.872103 169.798573 
L 643.038079 181.177692 
L 649.204055 193.237722 
L 655.370031 205.93304 
L 661.536006 219.216299 
L 667.701982 233.038725 
L 673.867958 247.350412 
L 680.033934 262.100617 
L 686.19991 277.238062 
L 698.531862 308.46861 
L 710.863813 340.632008 
L 729.361741 389.754131 
L 747.859668 438.805395 
L 760.19162 470.899499 
L 772.523572 502.159731 
L 778.689548 517.395528 
L 784.855523 532.329889 
L 791.021499 546.937079 
L 797.187475 561.193935 
L 803.353451 575.079862 
L 809.519427 588.576815 
L 815.685403 601.669261 
L 821.851379 614.344133 
L 828.017354 626.590762 
L 834.18333 638.400801 
L 840.349306 649.76814 
L 846.515282 660.688804 
L 852.681258 671.16085 
L 858.847234 681.18425 
L 865.01321 690.760778 
L 871.179185 699.893878 
L 877.345161 708.588545 
L 883.511137 716.85119 
L 889.677113 724.689512 
L 895.843089 732.112372 
L 902.009065 739.12966 
L 908.17504 745.75217 
L 914.341016 751.991479 
L 920.506992 757.859826 
L 926.672968 763.37 
L 932.838944 768.535225 
L 939.00492 773.369061 
L 945.170896 777.885305 
L 951.336871 782.097897 
L 957.502847 786.020836 
L 963.668823 789.668101 
L 969.834799 793.05358 
L 976.000775 796.191001 
L 982.166751 799.093877 
L 988.332727 801.775455 
L 994.498702 804.248664 
L 1000.664678 806.526081 
L 1006.830654 808.619895 
L 1012.99663 810.541881 
L 1019.162606 812.303372 
L 1025.328582 813.915248 
L 1031.494558 815.387919 
L 1037.660533 816.731317 
L 1049.992485 819.067613 
L 1062.324437 820.993948 
L 1074.656388 822.57254 
L 1086.98834 823.858285 
L 1099.320292 824.89916 
L 1111.652244 825.736713 
L 1130.150171 826.688361 
L 1148.648099 827.360097 
L 1167.146026 827.827925 
L 1191.80993 828.231827 
L 1222.639809 828.513311 
L 1271.967616 828.701332 
L 1364.457254 828.773205 
L 1364.457254 828.773205 
" clip-path="url(#pf93a60cc17)" style="fill: none; stroke: #e377c2; stroke-width: 2; stroke-linecap: square"/>
   </g>
   <g id="patch_103">
    <path d="M 72.685313 828.779375 
L 72.685313 38.075625 
" style="fill: none; stroke: #000000; stroke-width: 0.8; stroke-linejoin: miter; stroke-linecap: square"/>
   </g>
   <g id="patch_104">
    <path d="M 1429.2 828.779375 
L 1429.2 38.075625 
" style="fill: none; stroke: #000000; stroke-width: 0.8; stroke-linejoin: miter; stroke-linecap: square"/>
   </g>
   <g id="patch_105">
    <path d="M 72.685313 828.779375 
L 1429.2 828.779375 
" style="fill: none; stroke: #000000; stroke-width: 0.8; stroke-linejoin: miter; stroke-linecap: square"/>
   </g>
   <g id="patch_106">
    <path d="M 72.685313 38.075625 
L 1429.2 38.075625 
" style="fill: none; stroke: #000000; stroke-width: 0.8; stroke-linejoin: miter; stroke-linecap: square"/>
   </g>
   <g id="text_15">
    <!-- All Fitted Distributions -->
    <g transform="translate(596.317031 32.075625) scale(0.28 -0.28)">
     <defs>
      <path id="DejaVuSans-41" d="M 2188 4044 
L 1331 1722 
L 3047 1722 
L 2188 4044 
z
M 1831 4666 
L 2547 4666 
L 4325 0 
L 3669 0 
L 3244 1197 
L 1141 1197 
L 716 0 
L 50 0 
L 1831 4666 
z
" transform="scale(0.015625)"/>
      <path id="DejaVuSans-6c" d="M 603 4863 
L 1178 4863 
L 1178 0 
L 603 0 
L 603 4863 
z
" transform="scale(0.015625)"/>
      <path id="DejaVuSans-46" d="M 628 4666 
L 3309 4666 
L 3309 4134 
L 1259 4134 
L 1259 2759 
L 3109 2759 
L 3109 2228 
L 1259 2228 
L 1259 0 
L 628 0 
L 628 4666 
z
" transform="scale(0.015625)"/>
      <path id="DejaVuSans-44" d="M 1259 4147 
L 1259 519 
L 2022 519 
Q 2988 519 3436 956 
Q 3884 1394 3884 2338 
Q 3884 3275 3436 3711 
Q 2988 4147 2022 4147 
L 1259 4147 
z
M 628 4666 
L 1925 4666 
Q 3281 4666 3915 4102 
Q 4550 3538 4550 2338 
Q 4550 1131 3912 565 
Q 3275 0 1925 0 
L 628 0 
L 628 4666 
z
" transform="scale(0.015625)"/>
      <path id="DejaVuSans-62" d="M 3116 1747 
Q 3116 2381 2855 2742 
Q 2594 3103 2138 3103 
Q 1681 3103 1420 2742 
Q 1159 2381 1159 1747 
Q 1159 1113 1420 752 
Q 1681 391 2138 391 
Q 2594 391 2855 752 
Q 3116 1113 3116 1747 
z
M 1159 2969 
Q 1341 3281 1617 3432 
Q 1894 3584 2278 3584 
Q 2916 3584 3314 3078 
Q 3713 2572 3713 1747 
Q 3713 922 3314 415 
Q 2916 -91 2278 -91 
Q 1894 -91 1617 61 
Q 1341 213 1159 525 
L 1159 0 
L 581 0 
L 581 4863 
L 1159 4863 
L 1159 2969 
z
" transform="scale(0.015625)"/>
     </defs>
     <use xlink:href="#DejaVuSans-41"/>
     <use xlink:href="#DejaVuSans-6c" x="68.408203"/>
     <use xlink:href="#DejaVuSans-6c" x="96.191406"/>
     <use xlink:href="#DejaVuSans-20" x="123.974609"/>
     <use xlink:href="#DejaVuSans-46" x="155.761719"/>
     <use xlink:href="#DejaVuSans-69" x="206.03125"/>
     <use xlink:href="#DejaVuSans-74" x="233.814453"/>
     <use xlink:href="#DejaVuSans-74" x="273.023438"/>
     <use xlink:href="#DejaVuSans-65" x="312.232422"/>
     <use xlink:href="#DejaVuSans-64" x="373.755859"/>
     <use xlink:href="#DejaVuSans-20" x="437.232422"/>
     <use xlink:href="#DejaVuSans-44" x="469.019531"/>
     <use xlink:href="#DejaVuSans-69" x="546.021484"/>
     <use xlink:href="#DejaVuSans-73" x="573.804688"/>
     <use xlink:href="#DejaVuSans-74" x="625.904297"/>
     <use xlink:href="#DejaVuSans-72" x="665.113281"/>
     <use xlink:href="#DejaVuSans-69" x="706.226562"/>
     <use xlink:href="#DejaVuSans-62" x="734.009766"/>
     <use xlink:href="#DejaVuSans-75" x="797.486328"/>
     <use xlink:href="#DejaVuSans-74" x="860.865234"/>
     <use xlink:href="#DejaVuSans-69" x="900.074219"/>
     <use xlink:href="#DejaVuSans-6f" x="927.857422"/>
     <use xlink:href="#DejaVuSans-6e" x="989.039062"/>
     <use xlink:href="#DejaVuSans-73" x="1052.417969"/>
    </g>
   </g>
   <g id="legend_1">
    <g id="patch_107">
     <path d="M 1014.37125 303.868125 
L 1412.4 303.868125 
Q 1417.2 303.868125 1417.2 299.068125 
L 1417.2 54.875625 
Q 1417.2 50.075625 1412.4 50.075625 
L 1014.37125 50.075625 
Q 1009.57125 50.075625 1009.57125 54.875625 
L 1009.57125 299.068125 
Q 1009.57125 303.868125 1014.37125 303.868125 
z
" style="fill: #ffffff; opacity: 0.8; stroke: #cccccc; stroke-linejoin: miter"/>
    </g>
    <g id="patch_108">
     <path d="M 1019.17125 77.911875 
L 1067.17125 77.911875 
L 1067.17125 61.111875 
L 1019.17125 61.111875 
z
" style="fill: #1f77b4; opacity: 0.6"/>
    </g>
    <g id="text_16">
     <!-- Generated Chi Distribution -->
     <g transform="translate(1086.37125 77.911875) scale(0.24 -0.24)">
      <defs>
       <path id="DejaVuSans-47" d="M 3809 666 
L 3809 1919 
L 2778 1919 
L 2778 2438 
L 4434 2438 
L 4434 434 
Q 4069 175 3628 42 
Q 3188 -91 2688 -91 
Q 1594 -91 976 548 
Q 359 1188 359 2328 
Q 359 3472 976 4111 
Q 1594 4750 2688 4750 
Q 3144 4750 3555 4637 
Q 3966 4525 4313 4306 
L 4313 3634 
Q 3963 3931 3569 4081 
Q 3175 4231 2741 4231 
Q 1884 4231 1454 3753 
Q 1025 3275 1025 2328 
Q 1025 1384 1454 906 
Q 1884 428 2741 428 
Q 3075 428 3337 486 
Q 3600 544 3809 666 
z
" transform="scale(0.015625)"/>
       <path id="DejaVuSans-61" d="M 2194 1759 
Q 1497 1759 1228 1600 
Q 959 1441 959 1056 
Q 959 750 1161 570 
Q 1363 391 1709 391 
Q 2188 391 2477 730 
Q 2766 1069 2766 1631 
L 2766 1759 
L 2194 1759 
z
M 3341 1997 
L 3341 0 
L 2766 0 
L 2766 531 
Q 2569 213 2275 61 
Q 1981 -91 1556 -91 
Q 1019 -91 701 211 
Q 384 513 384 1019 
Q 384 1609 779 1909 
Q 1175 2209 1959 2209 
L 2766 2209 
L 2766 2266 
Q 2766 2663 2505 2880 
Q 2244 3097 1772 3097 
Q 1472 3097 1187 3025 
Q 903 2953 641 2809 
L 641 3341 
Q 956 3463 1253 3523 
Q 1550 3584 1831 3584 
Q 2591 3584 2966 3190 
Q 3341 2797 3341 1997 
z
" transform="scale(0.015625)"/>
       <path id="DejaVuSans-68" d="M 3513 2113 
L 3513 0 
L 2938 0 
L 2938 2094 
Q 2938 2591 2744 2837 
Q 2550 3084 2163 3084 
Q 1697 3084 1428 2787 
Q 1159 2491 1159 1978 
L 1159 0 
L 581 0 
L 581 4863 
L 1159 4863 
L 1159 2956 
Q 1366 3272 1645 3428 
Q 1925 3584 2291 3584 
Q 2894 3584 3203 3211 
Q 3513 2838 3513 2113 
z
" transform="scale(0.015625)"/>
      </defs>
      <use xlink:href="#DejaVuSans-47"/>
      <use xlink:href="#DejaVuSans-65" x="77.490234"/>
      <use xlink:href="#DejaVuSans-6e" x="139.013672"/>
      <use xlink:href="#DejaVuSans-65" x="202.392578"/>
      <use xlink:href="#DejaVuSans-72" x="263.916016"/>
      <use xlink:href="#DejaVuSans-61" x="305.029297"/>
      <use xlink:href="#DejaVuSans-74" x="366.308594"/>
      <use xlink:href="#DejaVuSans-65" x="405.517578"/>
      <use xlink:href="#DejaVuSans-64" x="467.041016"/>
      <use xlink:href="#DejaVuSans-20" x="530.517578"/>
      <use xlink:href="#DejaVuSans-43" x="562.304688"/>
      <use xlink:href="#DejaVuSans-68" x="632.128906"/>
      <use xlink:href="#DejaVuSans-69" x="695.507812"/>
      <use xlink:href="#DejaVuSans-20" x="723.291016"/>
      <use xlink:href="#DejaVuSans-44" x="755.078125"/>
      <use xlink:href="#DejaVuSans-69" x="832.080078"/>
      <use xlink:href="#DejaVuSans-73" x="859.863281"/>
      <use xlink:href="#DejaVuSans-74" x="911.962891"/>
      <use xlink:href="#DejaVuSans-72" x="951.171875"/>
      <use xlink:href="#DejaVuSans-69" x="992.285156"/>
      <use xlink:href="#DejaVuSans-62" x="1020.068359"/>
      <use xlink:href="#DejaVuSans-75" x="1083.544922"/>
      <use xlink:href="#DejaVuSans-74" x="1146.923828"/>
      <use xlink:href="#DejaVuSans-69" x="1186.132812"/>
      <use xlink:href="#DejaVuSans-6f" x="1213.916016"/>
      <use xlink:href="#DejaVuSans-6e" x="1275.097656"/>
     </g>
    </g>
    <g id="line2d_20">
     <path d="M 1019.17125 104.739375 
L 1043.17125 104.739375 
L 1067.17125 104.739375 
" style="fill: none; stroke: #ff7f0e; stroke-width: 2; stroke-linecap: square"/>
    </g>
    <g id="text_17">
     <!-- Chi fit -->
     <g transform="translate(1086.37125 113.139375) scale(0.24 -0.24)">
      <defs>
       <path id="DejaVuSans-66" d="M 2375 4863 
L 2375 4384 
L 1825 4384 
Q 1516 4384 1395 4259 
Q 1275 4134 1275 3809 
L 1275 3500 
L 2222 3500 
L 2222 3053 
L 1275 3053 
L 1275 0 
L 697 0 
L 697 3053 
L 147 3053 
L 147 3500 
L 697 3500 
L 697 3744 
Q 697 4328 969 4595 
Q 1241 4863 1831 4863 
L 2375 4863 
z
" transform="scale(0.015625)"/>
      </defs>
      <use xlink:href="#DejaVuSans-43"/>
      <use xlink:href="#DejaVuSans-68" x="69.824219"/>
      <use xlink:href="#DejaVuSans-69" x="133.203125"/>
      <use xlink:href="#DejaVuSans-20" x="160.986328"/>
      <use xlink:href="#DejaVuSans-66" x="192.773438"/>
      <use xlink:href="#DejaVuSans-69" x="227.978516"/>
      <use xlink:href="#DejaVuSans-74" x="255.761719"/>
     </g>
    </g>
    <g id="line2d_21">
     <path d="M 1019.17125 139.966875 
L 1043.17125 139.966875 
L 1067.17125 139.966875 
" style="fill: none; stroke: #2ca02c; stroke-width: 2; stroke-linecap: square"/>
    </g>
    <g id="text_18">
     <!-- Chi-Square fit -->
     <g transform="translate(1086.37125 148.366875) scale(0.24 -0.24)">
      <defs>
       <path id="DejaVuSans-2d" d="M 313 2009 
L 1997 2009 
L 1997 1497 
L 313 1497 
L 313 2009 
z
" transform="scale(0.015625)"/>
       <path id="DejaVuSans-53" d="M 3425 4513 
L 3425 3897 
Q 3066 4069 2747 4153 
Q 2428 4238 2131 4238 
Q 1616 4238 1336 4038 
Q 1056 3838 1056 3469 
Q 1056 3159 1242 3001 
Q 1428 2844 1947 2747 
L 2328 2669 
Q 3034 2534 3370 2195 
Q 3706 1856 3706 1288 
Q 3706 609 3251 259 
Q 2797 -91 1919 -91 
Q 1588 -91 1214 -16 
Q 841 59 441 206 
L 441 856 
Q 825 641 1194 531 
Q 1563 422 1919 422 
Q 2459 422 2753 634 
Q 3047 847 3047 1241 
Q 3047 1584 2836 1778 
Q 2625 1972 2144 2069 
L 1759 2144 
Q 1053 2284 737 2584 
Q 422 2884 422 3419 
Q 422 4038 858 4394 
Q 1294 4750 2059 4750 
Q 2388 4750 2728 4690 
Q 3069 4631 3425 4513 
z
" transform="scale(0.015625)"/>
       <path id="DejaVuSans-71" d="M 947 1747 
Q 947 1113 1208 752 
Q 1469 391 1925 391 
Q 2381 391 2643 752 
Q 2906 1113 2906 1747 
Q 2906 2381 2643 2742 
Q 2381 3103 1925 3103 
Q 1469 3103 1208 2742 
Q 947 2381 947 1747 
z
M 2906 525 
Q 2725 213 2448 61 
Q 2172 -91 1784 -91 
Q 1150 -91 751 415 
Q 353 922 353 1747 
Q 353 2572 751 3078 
Q 1150 3584 1784 3584 
Q 2172 3584 2448 3432 
Q 2725 3281 2906 2969 
L 2906 3500 
L 3481 3500 
L 3481 -1331 
L 2906 -1331 
L 2906 525 
z
" transform="scale(0.015625)"/>
      </defs>
      <use xlink:href="#DejaVuSans-43"/>
      <use xlink:href="#DejaVuSans-68" x="69.824219"/>
      <use xlink:href="#DejaVuSans-69" x="133.203125"/>
      <use xlink:href="#DejaVuSans-2d" x="160.986328"/>
      <use xlink:href="#DejaVuSans-53" x="197.070312"/>
      <use xlink:href="#DejaVuSans-71" x="260.546875"/>
      <use xlink:href="#DejaVuSans-75" x="324.023438"/>
      <use xlink:href="#DejaVuSans-61" x="387.402344"/>
      <use xlink:href="#DejaVuSans-72" x="448.681641"/>
      <use xlink:href="#DejaVuSans-65" x="487.544922"/>
      <use xlink:href="#DejaVuSans-20" x="549.068359"/>
      <use xlink:href="#DejaVuSans-66" x="580.855469"/>
      <use xlink:href="#DejaVuSans-69" x="616.060547"/>
      <use xlink:href="#DejaVuSans-74" x="643.84375"/>
     </g>
    </g>
    <g id="line2d_22">
     <path d="M 1019.17125 175.194375 
L 1043.17125 175.194375 
L 1067.17125 175.194375 
" style="fill: none; stroke: #d62728; stroke-width: 2; stroke-linecap: square"/>
    </g>
    <g id="text_19">
     <!-- Exponential fit -->
     <g transform="translate(1086.37125 183.594375) scale(0.24 -0.24)">
      <defs>
       <path id="DejaVuSans-45" d="M 628 4666 
L 3578 4666 
L 3578 4134 
L 1259 4134 
L 1259 2753 
L 3481 2753 
L 3481 2222 
L 1259 2222 
L 1259 531 
L 3634 531 
L 3634 0 
L 628 0 
L 628 4666 
z
" transform="scale(0.015625)"/>
       <path id="DejaVuSans-78" d="M 3513 3500 
L 2247 1797 
L 3578 0 
L 2900 0 
L 1881 1375 
L 863 0 
L 184 0 
L 1544 1831 
L 300 3500 
L 978 3500 
L 1906 2253 
L 2834 3500 
L 3513 3500 
z
" transform="scale(0.015625)"/>
       <path id="DejaVuSans-70" d="M 1159 525 
L 1159 -1331 
L 581 -1331 
L 581 3500 
L 1159 3500 
L 1159 2969 
Q 1341 3281 1617 3432 
Q 1894 3584 2278 3584 
Q 2916 3584 3314 3078 
Q 3713 2572 3713 1747 
Q 3713 922 3314 415 
Q 2916 -91 2278 -91 
Q 1894 -91 1617 61 
Q 1341 213 1159 525 
z
M 3116 1747 
Q 3116 2381 2855 2742 
Q 2594 3103 2138 3103 
Q 1681 3103 1420 2742 
Q 1159 2381 1159 1747 
Q 1159 1113 1420 752 
Q 1681 391 2138 391 
Q 2594 391 2855 752 
Q 3116 1113 3116 1747 
z
" transform="scale(0.015625)"/>
      </defs>
      <use xlink:href="#DejaVuSans-45"/>
      <use xlink:href="#DejaVuSans-78" x="63.183594"/>
      <use xlink:href="#DejaVuSans-70" x="122.363281"/>
      <use xlink:href="#DejaVuSans-6f" x="185.839844"/>
      <use xlink:href="#DejaVuSans-6e" x="247.021484"/>
      <use xlink:href="#DejaVuSans-65" x="310.400391"/>
      <use xlink:href="#DejaVuSans-6e" x="371.923828"/>
      <use xlink:href="#DejaVuSans-74" x="435.302734"/>
      <use xlink:href="#DejaVuSans-69" x="474.511719"/>
      <use xlink:href="#DejaVuSans-61" x="502.294922"/>
      <use xlink:href="#DejaVuSans-6c" x="563.574219"/>
      <use xlink:href="#DejaVuSans-20" x="591.357422"/>
      <use xlink:href="#DejaVuSans-66" x="623.144531"/>
      <use xlink:href="#DejaVuSans-69" x="658.349609"/>
      <use xlink:href="#DejaVuSans-74" x="686.132812"/>
     </g>
    </g>
    <g id="line2d_23">
     <path d="M 1019.17125 210.421875 
L 1043.17125 210.421875 
L 1067.17125 210.421875 
" style="fill: none; stroke: #9467bd; stroke-width: 2; stroke-linecap: square"/>
    </g>
    <g id="text_20">
     <!-- Laplace fit -->
     <g transform="translate(1086.37125 218.821875) scale(0.24 -0.24)">
      <defs>
       <path id="DejaVuSans-4c" d="M 628 4666 
L 1259 4666 
L 1259 531 
L 3531 531 
L 3531 0 
L 628 0 
L 628 4666 
z
" transform="scale(0.015625)"/>
       <path id="DejaVuSans-63" d="M 3122 3366 
L 3122 2828 
Q 2878 2963 2633 3030 
Q 2388 3097 2138 3097 
Q 1578 3097 1268 2742 
Q 959 2388 959 1747 
Q 959 1106 1268 751 
Q 1578 397 2138 397 
Q 2388 397 2633 464 
Q 2878 531 3122 666 
L 3122 134 
Q 2881 22 2623 -34 
Q 2366 -91 2075 -91 
Q 1284 -91 818 406 
Q 353 903 353 1747 
Q 353 2603 823 3093 
Q 1294 3584 2113 3584 
Q 2378 3584 2631 3529 
Q 2884 3475 3122 3366 
z
" transform="scale(0.015625)"/>
      </defs>
      <use xlink:href="#DejaVuSans-4c"/>
      <use xlink:href="#DejaVuSans-61" x="55.712891"/>
      <use xlink:href="#DejaVuSans-70" x="116.992188"/>
      <use xlink:href="#DejaVuSans-6c" x="180.46875"/>
      <use xlink:href="#DejaVuSans-61" x="208.251953"/>
      <use xlink:href="#DejaVuSans-63" x="269.53125"/>
      <use xlink:href="#DejaVuSans-65" x="324.511719"/>
      <use xlink:href="#DejaVuSans-20" x="386.035156"/>
      <use xlink:href="#DejaVuSans-66" x="417.822266"/>
      <use xlink:href="#DejaVuSans-69" x="453.027344"/>
      <use xlink:href="#DejaVuSans-74" x="480.810547"/>
     </g>
    </g>
    <g id="line2d_24">
     <path d="M 1019.17125 245.649375 
L 1043.17125 245.649375 
L 1067.17125 245.649375 
" style="fill: none; stroke: #8c564b; stroke-width: 2; stroke-linecap: square"/>
    </g>
    <g id="text_21">
     <!-- LogNorm fit -->
     <g transform="translate(1086.37125 254.049375) scale(0.24 -0.24)">
      <defs>
       <path id="DejaVuSans-67" d="M 2906 1791 
Q 2906 2416 2648 2759 
Q 2391 3103 1925 3103 
Q 1463 3103 1205 2759 
Q 947 2416 947 1791 
Q 947 1169 1205 825 
Q 1463 481 1925 481 
Q 2391 481 2648 825 
Q 2906 1169 2906 1791 
z
M 3481 434 
Q 3481 -459 3084 -895 
Q 2688 -1331 1869 -1331 
Q 1566 -1331 1297 -1286 
Q 1028 -1241 775 -1147 
L 775 -588 
Q 1028 -725 1275 -790 
Q 1522 -856 1778 -856 
Q 2344 -856 2625 -561 
Q 2906 -266 2906 331 
L 2906 616 
Q 2728 306 2450 153 
Q 2172 0 1784 0 
Q 1141 0 747 490 
Q 353 981 353 1791 
Q 353 2603 747 3093 
Q 1141 3584 1784 3584 
Q 2172 3584 2450 3431 
Q 2728 3278 2906 2969 
L 2906 3500 
L 3481 3500 
L 3481 434 
z
" transform="scale(0.015625)"/>
      </defs>
      <use xlink:href="#DejaVuSans-4c"/>
      <use xlink:href="#DejaVuSans-6f" x="53.962891"/>
      <use xlink:href="#DejaVuSans-67" x="115.144531"/>
      <use xlink:href="#DejaVuSans-4e" x="178.621094"/>
      <use xlink:href="#DejaVuSans-6f" x="253.425781"/>
      <use xlink:href="#DejaVuSans-72" x="314.607422"/>
      <use xlink:href="#DejaVuSans-6d" x="353.970703"/>
      <use xlink:href="#DejaVuSans-20" x="451.382812"/>
      <use xlink:href="#DejaVuSans-66" x="483.169922"/>
      <use xlink:href="#DejaVuSans-69" x="518.375"/>
      <use xlink:href="#DejaVuSans-74" x="546.158203"/>
     </g>
    </g>
    <g id="line2d_25">
     <path d="M 1019.17125 280.876875 
L 1043.17125 280.876875 
L 1067.17125 280.876875 
" style="fill: none; stroke: #e377c2; stroke-width: 2; stroke-linecap: square"/>
    </g>
    <g id="text_22">
     <!-- Normal fit -->
     <g transform="translate(1086.37125 289.276875) scale(0.24 -0.24)">
      <use xlink:href="#DejaVuSans-4e"/>
      <use xlink:href="#DejaVuSans-6f" x="74.804688"/>
      <use xlink:href="#DejaVuSans-72" x="135.986328"/>
      <use xlink:href="#DejaVuSans-6d" x="175.349609"/>
      <use xlink:href="#DejaVuSans-61" x="272.761719"/>
      <use xlink:href="#DejaVuSans-6c" x="334.041016"/>
      <use xlink:href="#DejaVuSans-20" x="361.824219"/>
      <use xlink:href="#DejaVuSans-66" x="393.611328"/>
      <use xlink:href="#DejaVuSans-69" x="428.816406"/>
      <use xlink:href="#DejaVuSans-74" x="456.599609"/>
     </g>
    </g>
   </g>
  </g>
 </g>
 <defs>
  <clipPath id="pf93a60cc17">
   <rect x="72.685313" y="38.075625" width="1356.514688" height="790.70375"/>
  </clipPath>
 </defs>
</svg>
