<?xml version="1.0" encoding="utf-8" standalone="no"?>
<!DOCTYPE svg PUBLIC "-//W3C//DTD SVG 1.1//EN"
  "http://www.w3.org/Graphics/SVG/1.1/DTD/svg11.dtd">
<svg xmlns:xlink="http://www.w3.org/1999/xlink" width="1296pt" height="792pt" viewBox="0 0 1296 792" xmlns="http://www.w3.org/2000/svg" version="1.1">
 <metadata>
  <rdf:RDF xmlns:dc="http://purl.org/dc/elements/1.1/" xmlns:cc="http://creativecommons.org/ns#" xmlns:rdf="http://www.w3.org/1999/02/22-rdf-syntax-ns#">
   <cc:Work>
    <dc:type rdf:resource="http://purl.org/dc/dcmitype/StillImage"/>
    <dc:date>2022-10-04T16:08:54.504771</dc:date>
    <dc:format>image/svg+xml</dc:format>
    <dc:creator>
     <cc:Agent>
      <dc:title>Matplotlib v3.6.0, https://matplotlib.org/</dc:title>
     </cc:Agent>
    </dc:creator>
   </cc:Work>
  </rdf:RDF>
 </metadata>
 <defs>
  <style type="text/css">*{stroke-linejoin: round; stroke-linecap: butt}</style>
 </defs>
 <g id="figure_1">
  <g id="patch_1">
   <path d="M 0 792 
L 1296 792 
L 1296 0 
L 0 0 
z
" style="fill: #ffffff"/>
  </g>
  <g id="axes_1">
   <g id="patch_2">
    <path d="M 113.024062 240.850833 
L 1196.77875 240.850833 
L 1196.77875 38.075625 
L 113.024062 38.075625 
z
" style="fill: #ffffff"/>
   </g>
   <g id="patch_3">
    <path d="M 134.596303 139.463229 
L 138.272058 139.463229 
L 138.272058 184.31435 
L 134.596303 184.31435 
z
" clip-path="url(#pbc5175203b)" style="fill: #ff0000; opacity: 0.5; stroke: #ff0000; stroke-width: 1.5; stroke-linejoin: miter"/>
   </g>
   <g id="patch_4">
    <path d="M 138.472446 139.463229 
L 140.013891 139.463229 
L 140.013891 135.174851 
L 138.472446 135.174851 
z
" clip-path="url(#pbc5175203b)" style="fill: #ff0000; opacity: 0.5; stroke: #ff0000; stroke-width: 1.5; stroke-linejoin: miter"/>
   </g>
   <g id="patch_5">
    <path d="M 196.881026 139.463229 
L 202.572517 139.463229 
L 202.572517 83.807985 
L 196.881026 83.807985 
z
" clip-path="url(#pbc5175203b)" style="fill: #ff0000; opacity: 0.5; stroke: #ff0000; stroke-width: 1.5; stroke-linejoin: miter"/>
   </g>
   <g id="patch_6">
    <path d="M 243.23823 139.463229 
L 246.083976 139.463229 
L 246.083976 166.007096 
L 243.23823 166.007096 
z
" clip-path="url(#pbc5175203b)" style="fill: #ff0000; opacity: 0.5; stroke: #ff0000; stroke-width: 1.5; stroke-linejoin: miter"/>
   </g>
   <g id="patch_7">
    <path d="M 246.517952 139.463229 
L 250.549424 139.463229 
L 250.549424 177.067041 
L 246.517952 177.067041 
z
" clip-path="url(#pbc5175203b)" style="fill: #ff0000; opacity: 0.5; stroke: #ff0000; stroke-width: 1.5; stroke-linejoin: miter"/>
   </g>
   <g id="patch_8">
    <path d="M 291.179566 139.463229 
L 296.871057 139.463229 
L 296.871057 76.096566 
L 291.179566 76.096566 
z
" clip-path="url(#pbc5175203b)" style="fill: #ff0000; opacity: 0.5; stroke: #ff0000; stroke-width: 1.5; stroke-linejoin: miter"/>
   </g>
   <g id="patch_9">
    <path d="M 337.501199 139.463229 
L 341.532671 139.463229 
L 341.532671 183.735498 
L 337.501199 183.735498 
z
" clip-path="url(#pbc5175203b)" style="fill: #ff0000; opacity: 0.5; stroke: #ff0000; stroke-width: 1.5; stroke-linejoin: miter"/>
   </g>
   <g id="patch_10">
    <path d="M 341.967833 139.463229 
L 345.999306 139.463229 
L 345.999306 183.735498 
L 341.967833 183.735498 
z
" clip-path="url(#pbc5175203b)" style="fill: #ff0000; opacity: 0.5; stroke: #ff0000; stroke-width: 1.5; stroke-linejoin: miter"/>
   </g>
   <g id="patch_11">
    <path d="M 381.247419 139.463229 
L 386.93891 139.463229 
L 386.93891 135.474209 
L 381.247419 135.474209 
z
" clip-path="url(#pbc5175203b)" style="fill: #ff0000; opacity: 0.5; stroke: #ff0000; stroke-width: 1.5; stroke-linejoin: miter"/>
   </g>
   <g id="patch_12">
    <path d="M 419.072118 139.463229 
L 424.763608 139.463229 
L 424.763608 149.336623 
L 419.072118 149.336623 
z
" clip-path="url(#pbc5175203b)" style="fill: #ff0000; opacity: 0.5; stroke: #ff0000; stroke-width: 1.5; stroke-linejoin: miter"/>
   </g>
   <g id="patch_13">
    <path d="M 451.842061 139.463229 
L 455.873534 139.463229 
L 455.873534 127.338705 
L 451.842061 127.338705 
z
" clip-path="url(#pbc5175203b)" style="fill: #ff0000; opacity: 0.5; stroke: #ff0000; stroke-width: 1.5; stroke-linejoin: miter"/>
   </g>
   <g id="patch_14">
    <path d="M 591.660644 139.463229 
L 599.213727 139.463229 
L 599.213727 232.100945 
L 591.660644 232.100945 
z
" clip-path="url(#pbc5175203b)" style="fill: #ff0000; opacity: 0.5; stroke: #ff0000; stroke-width: 1.5; stroke-linejoin: miter"/>
   </g>
   <g id="patch_15">
    <path d="M 602.670122 139.463229 
L 609.191622 139.463229 
L 609.191622 58.951287 
L 602.670122 58.951287 
z
" clip-path="url(#pbc5175203b)" style="fill: #ff0000; opacity: 0.5; stroke: #ff0000; stroke-width: 1.5; stroke-linejoin: miter"/>
   </g>
   <g id="patch_16">
    <path d="M 610.377349 139.463229 
L 616.898849 139.463229 
L 616.898849 58.951287 
L 610.377349 58.951287 
z
" clip-path="url(#pbc5175203b)" style="fill: #ff0000; opacity: 0.5; stroke: #ff0000; stroke-width: 1.5; stroke-linejoin: miter"/>
   </g>
   <g id="patch_17">
    <path d="M 620.118098 139.463229 
L 627.67118 139.463229 
L 627.67118 231.332836 
L 620.118098 231.332836 
z
" clip-path="url(#pbc5175203b)" style="fill: #ff0000; opacity: 0.5; stroke: #ff0000; stroke-width: 1.5; stroke-linejoin: miter"/>
   </g>
   <g id="patch_18">
    <path d="M 682.131632 139.463229 
L 689.684715 139.463229 
L 689.684715 47.593623 
L 682.131632 47.593623 
z
" clip-path="url(#pbc5175203b)" style="fill: #ff0000; opacity: 0.5; stroke: #ff0000; stroke-width: 1.5; stroke-linejoin: miter"/>
   </g>
   <g id="patch_19">
    <path d="M 692.903964 139.463229 
L 699.425464 139.463229 
L 699.425464 219.975172 
L 692.903964 219.975172 
z
" clip-path="url(#pbc5175203b)" style="fill: #ff0000; opacity: 0.5; stroke: #ff0000; stroke-width: 1.5; stroke-linejoin: miter"/>
   </g>
   <g id="patch_20">
    <path d="M 700.611191 139.463229 
L 707.132691 139.463229 
L 707.132691 219.975172 
L 700.611191 219.975172 
z
" clip-path="url(#pbc5175203b)" style="fill: #ff0000; opacity: 0.5; stroke: #ff0000; stroke-width: 1.5; stroke-linejoin: miter"/>
   </g>
   <g id="patch_21">
    <path d="M 710.589086 139.463229 
L 718.142168 139.463229 
L 718.142168 46.825514 
L 710.589086 46.825514 
z
" clip-path="url(#pbc5175203b)" style="fill: #ff0000; opacity: 0.5; stroke: #ff0000; stroke-width: 1.5; stroke-linejoin: miter"/>
   </g>
   <g id="patch_22">
    <path d="M 853.929279 139.463229 
L 857.960751 139.463229 
L 857.960751 151.587754 
L 853.929279 151.587754 
z
" clip-path="url(#pbc5175203b)" style="fill: #ff0000; opacity: 0.5; stroke: #ff0000; stroke-width: 1.5; stroke-linejoin: miter"/>
   </g>
   <g id="patch_23">
    <path d="M 885.039204 139.463229 
L 890.730695 139.463229 
L 890.730695 130.658922 
L 885.039204 130.658922 
z
" clip-path="url(#pbc5175203b)" style="fill: #ff0000; opacity: 0.5; stroke: #ff0000; stroke-width: 1.5; stroke-linejoin: miter"/>
   </g>
   <g id="patch_24">
    <path d="M 922.863903 139.463229 
L 928.555393 139.463229 
L 928.555393 143.45225 
L 922.863903 143.45225 
z
" clip-path="url(#pbc5175203b)" style="fill: #ff0000; opacity: 0.5; stroke: #ff0000; stroke-width: 1.5; stroke-linejoin: miter"/>
   </g>
   <g id="patch_25">
    <path d="M 963.195229 139.463229 
L 967.226701 139.463229 
L 967.226701 96.801237 
L 963.195229 96.801237 
z
" clip-path="url(#pbc5175203b)" style="fill: #ff0000; opacity: 0.5; stroke: #ff0000; stroke-width: 1.5; stroke-linejoin: miter"/>
   </g>
   <g id="patch_26">
    <path d="M 967.661863 139.463229 
L 971.693336 139.463229 
L 971.693336 96.801237 
L 967.661863 96.801237 
z
" clip-path="url(#pbc5175203b)" style="fill: #ff0000; opacity: 0.5; stroke: #ff0000; stroke-width: 1.5; stroke-linejoin: miter"/>
   </g>
   <g id="patch_27">
    <path d="M 1012.330567 139.463229 
L 1018.022058 139.463229 
L 1018.022058 197.52063 
L 1012.330567 197.52063 
z
" clip-path="url(#pbc5175203b)" style="fill: #ff0000; opacity: 0.5; stroke: #ff0000; stroke-width: 1.5; stroke-linejoin: miter"/>
   </g>
   <g id="patch_28">
    <path d="M 1058.690117 139.463229 
L 1061.535863 139.463229 
L 1061.535863 113.42886 
L 1058.690117 113.42886 
z
" clip-path="url(#pbc5175203b)" style="fill: #ff0000; opacity: 0.5; stroke: #ff0000; stroke-width: 1.5; stroke-linejoin: miter"/>
   </g>
   <g id="patch_29">
    <path d="M 1061.969839 139.463229 
L 1066.001312 139.463229 
L 1066.001312 102.581206 
L 1061.969839 102.581206 
z
" clip-path="url(#pbc5175203b)" style="fill: #ff0000; opacity: 0.5; stroke: #ff0000; stroke-width: 1.5; stroke-linejoin: miter"/>
   </g>
   <g id="patch_30">
    <path d="M 1106.6338 139.463229 
L 1112.32529 139.463229 
L 1112.32529 192.391492 
L 1106.6338 192.391492 
z
" clip-path="url(#pbc5175203b)" style="fill: #ff0000; opacity: 0.5; stroke: #ff0000; stroke-width: 1.5; stroke-linejoin: miter"/>
   </g>
   <g id="patch_31">
    <path d="M 1169.518475 139.463229 
L 1173.194229 139.463229 
L 1173.194229 94.619611 
L 1169.518475 94.619611 
z
" clip-path="url(#pbc5175203b)" style="fill: #ff0000; opacity: 0.5; stroke: #ff0000; stroke-width: 1.5; stroke-linejoin: miter"/>
   </g>
   <g id="patch_32">
    <path d="M 1173.394617 139.463229 
L 1174.936063 139.463229 
L 1174.936063 140.060514 
L 1173.394617 140.060514 
z
" clip-path="url(#pbc5175203b)" style="fill: #ff0000; opacity: 0.5; stroke: #ff0000; stroke-width: 1.5; stroke-linejoin: miter"/>
   </g>
   <g id="matplotlib.axis_1">
    <g id="xtick_1">
     <g id="line2d_1">
      <defs>
       <path id="m512252242d" d="M 0 0 
L 0 3.5 
" style="stroke: #000000; stroke-width: 0.8"/>
      </defs>
      <g>
       <use xlink:href="#m512252242d" x="187.532316" y="240.850833" style="stroke: #000000; stroke-width: 0.8"/>
      </g>
     </g>
     <g id="text_1">
      <!-- 19600 -->
      <g transform="translate(158.901066 261.528021) scale(0.18 -0.18)">
       <defs>
        <path id="DejaVuSans-31" d="M 794 531 
L 1825 531 
L 1825 4091 
L 703 3866 
L 703 4441 
L 1819 4666 
L 2450 4666 
L 2450 531 
L 3481 531 
L 3481 0 
L 794 0 
L 794 531 
z
" transform="scale(0.015625)"/>
        <path id="DejaVuSans-39" d="M 703 97 
L 703 672 
Q 941 559 1184 500 
Q 1428 441 1663 441 
Q 2288 441 2617 861 
Q 2947 1281 2994 2138 
Q 2813 1869 2534 1725 
Q 2256 1581 1919 1581 
Q 1219 1581 811 2004 
Q 403 2428 403 3163 
Q 403 3881 828 4315 
Q 1253 4750 1959 4750 
Q 2769 4750 3195 4129 
Q 3622 3509 3622 2328 
Q 3622 1225 3098 567 
Q 2575 -91 1691 -91 
Q 1453 -91 1209 -44 
Q 966 3 703 97 
z
M 1959 2075 
Q 2384 2075 2632 2365 
Q 2881 2656 2881 3163 
Q 2881 3666 2632 3958 
Q 2384 4250 1959 4250 
Q 1534 4250 1286 3958 
Q 1038 3666 1038 3163 
Q 1038 2656 1286 2365 
Q 1534 2075 1959 2075 
z
" transform="scale(0.015625)"/>
        <path id="DejaVuSans-36" d="M 2113 2584 
Q 1688 2584 1439 2293 
Q 1191 2003 1191 1497 
Q 1191 994 1439 701 
Q 1688 409 2113 409 
Q 2538 409 2786 701 
Q 3034 994 3034 1497 
Q 3034 2003 2786 2293 
Q 2538 2584 2113 2584 
z
M 3366 4563 
L 3366 3988 
Q 3128 4100 2886 4159 
Q 2644 4219 2406 4219 
Q 1781 4219 1451 3797 
Q 1122 3375 1075 2522 
Q 1259 2794 1537 2939 
Q 1816 3084 2150 3084 
Q 2853 3084 3261 2657 
Q 3669 2231 3669 1497 
Q 3669 778 3244 343 
Q 2819 -91 2113 -91 
Q 1303 -91 875 529 
Q 447 1150 447 2328 
Q 447 3434 972 4092 
Q 1497 4750 2381 4750 
Q 2619 4750 2861 4703 
Q 3103 4656 3366 4563 
z
" transform="scale(0.015625)"/>
        <path id="DejaVuSans-30" d="M 2034 4250 
Q 1547 4250 1301 3770 
Q 1056 3291 1056 2328 
Q 1056 1369 1301 889 
Q 1547 409 2034 409 
Q 2525 409 2770 889 
Q 3016 1369 3016 2328 
Q 3016 3291 2770 3770 
Q 2525 4250 2034 4250 
z
M 2034 4750 
Q 2819 4750 3233 4129 
Q 3647 3509 3647 2328 
Q 3647 1150 3233 529 
Q 2819 -91 2034 -91 
Q 1250 -91 836 529 
Q 422 1150 422 2328 
Q 422 3509 836 4129 
Q 1250 4750 2034 4750 
z
" transform="scale(0.015625)"/>
       </defs>
       <use xlink:href="#DejaVuSans-31"/>
       <use xlink:href="#DejaVuSans-39" x="63.623047"/>
       <use xlink:href="#DejaVuSans-36" x="127.246094"/>
       <use xlink:href="#DejaVuSans-30" x="190.869141"/>
       <use xlink:href="#DejaVuSans-30" x="254.492188"/>
      </g>
     </g>
    </g>
    <g id="xtick_2">
     <g id="line2d_2">
      <g>
       <use xlink:href="#m512252242d" x="424.677762" y="240.850833" style="stroke: #000000; stroke-width: 0.8"/>
      </g>
     </g>
     <g id="text_2">
      <!-- 19800 -->
      <g transform="translate(396.046512 261.528021) scale(0.18 -0.18)">
       <defs>
        <path id="DejaVuSans-38" d="M 2034 2216 
Q 1584 2216 1326 1975 
Q 1069 1734 1069 1313 
Q 1069 891 1326 650 
Q 1584 409 2034 409 
Q 2484 409 2743 651 
Q 3003 894 3003 1313 
Q 3003 1734 2745 1975 
Q 2488 2216 2034 2216 
z
M 1403 2484 
Q 997 2584 770 2862 
Q 544 3141 544 3541 
Q 544 4100 942 4425 
Q 1341 4750 2034 4750 
Q 2731 4750 3128 4425 
Q 3525 4100 3525 3541 
Q 3525 3141 3298 2862 
Q 3072 2584 2669 2484 
Q 3125 2378 3379 2068 
Q 3634 1759 3634 1313 
Q 3634 634 3220 271 
Q 2806 -91 2034 -91 
Q 1263 -91 848 271 
Q 434 634 434 1313 
Q 434 1759 690 2068 
Q 947 2378 1403 2484 
z
M 1172 3481 
Q 1172 3119 1398 2916 
Q 1625 2713 2034 2713 
Q 2441 2713 2670 2916 
Q 2900 3119 2900 3481 
Q 2900 3844 2670 4047 
Q 2441 4250 2034 4250 
Q 1625 4250 1398 4047 
Q 1172 3844 1172 3481 
z
" transform="scale(0.015625)"/>
       </defs>
       <use xlink:href="#DejaVuSans-31"/>
       <use xlink:href="#DejaVuSans-39" x="63.623047"/>
       <use xlink:href="#DejaVuSans-38" x="127.246094"/>
       <use xlink:href="#DejaVuSans-30" x="190.869141"/>
       <use xlink:href="#DejaVuSans-30" x="254.492188"/>
      </g>
     </g>
    </g>
    <g id="xtick_3">
     <g id="line2d_3">
      <g>
       <use xlink:href="#m512252242d" x="661.823208" y="240.850833" style="stroke: #000000; stroke-width: 0.8"/>
      </g>
     </g>
     <g id="text_3">
      <!-- 20000 -->
      <g transform="translate(633.191958 261.528021) scale(0.18 -0.18)">
       <defs>
        <path id="DejaVuSans-32" d="M 1228 531 
L 3431 531 
L 3431 0 
L 469 0 
L 469 531 
Q 828 903 1448 1529 
Q 2069 2156 2228 2338 
Q 2531 2678 2651 2914 
Q 2772 3150 2772 3378 
Q 2772 3750 2511 3984 
Q 2250 4219 1831 4219 
Q 1534 4219 1204 4116 
Q 875 4013 500 3803 
L 500 4441 
Q 881 4594 1212 4672 
Q 1544 4750 1819 4750 
Q 2544 4750 2975 4387 
Q 3406 4025 3406 3419 
Q 3406 3131 3298 2873 
Q 3191 2616 2906 2266 
Q 2828 2175 2409 1742 
Q 1991 1309 1228 531 
z
" transform="scale(0.015625)"/>
       </defs>
       <use xlink:href="#DejaVuSans-32"/>
       <use xlink:href="#DejaVuSans-30" x="63.623047"/>
       <use xlink:href="#DejaVuSans-30" x="127.246094"/>
       <use xlink:href="#DejaVuSans-30" x="190.869141"/>
       <use xlink:href="#DejaVuSans-30" x="254.492188"/>
      </g>
     </g>
    </g>
    <g id="xtick_4">
     <g id="line2d_4">
      <g>
       <use xlink:href="#m512252242d" x="898.968653" y="240.850833" style="stroke: #000000; stroke-width: 0.8"/>
      </g>
     </g>
     <g id="text_4">
      <!-- 20200 -->
      <g transform="translate(870.337403 261.528021) scale(0.18 -0.18)">
       <use xlink:href="#DejaVuSans-32"/>
       <use xlink:href="#DejaVuSans-30" x="63.623047"/>
       <use xlink:href="#DejaVuSans-32" x="127.246094"/>
       <use xlink:href="#DejaVuSans-30" x="190.869141"/>
       <use xlink:href="#DejaVuSans-30" x="254.492188"/>
      </g>
     </g>
    </g>
    <g id="xtick_5">
     <g id="line2d_5">
      <g>
       <use xlink:href="#m512252242d" x="1136.114099" y="240.850833" style="stroke: #000000; stroke-width: 0.8"/>
      </g>
     </g>
     <g id="text_5">
      <!-- 20400 -->
      <g transform="translate(1107.482849 261.528021) scale(0.18 -0.18)">
       <defs>
        <path id="DejaVuSans-34" d="M 2419 4116 
L 825 1625 
L 2419 1625 
L 2419 4116 
z
M 2253 4666 
L 3047 4666 
L 3047 1625 
L 3713 1625 
L 3713 1100 
L 3047 1100 
L 3047 0 
L 2419 0 
L 2419 1100 
L 313 1100 
L 313 1709 
L 2253 4666 
z
" transform="scale(0.015625)"/>
       </defs>
       <use xlink:href="#DejaVuSans-32"/>
       <use xlink:href="#DejaVuSans-30" x="63.623047"/>
       <use xlink:href="#DejaVuSans-34" x="127.246094"/>
       <use xlink:href="#DejaVuSans-30" x="190.869141"/>
       <use xlink:href="#DejaVuSans-30" x="254.492188"/>
      </g>
     </g>
    </g>
   </g>
   <g id="matplotlib.axis_2">
    <g id="ytick_1">
     <g id="line2d_6">
      <defs>
       <path id="mb023863db5" d="M 0 0 
L -3.5 0 
" style="stroke: #000000; stroke-width: 0.8"/>
      </defs>
      <g>
       <use xlink:href="#mb023863db5" x="113.024062" y="222.567823" style="stroke: #000000; stroke-width: 0.8"/>
      </g>
     </g>
     <g id="text_6">
      <!-- −0.050 -->
      <g style="fill: #ff0000" transform="translate(39.41 229.406416) scale(0.18 -0.18)">
       <defs>
        <path id="DejaVuSans-2212" d="M 678 2272 
L 4684 2272 
L 4684 1741 
L 678 1741 
L 678 2272 
z
" transform="scale(0.015625)"/>
        <path id="DejaVuSans-2e" d="M 684 794 
L 1344 794 
L 1344 0 
L 684 0 
L 684 794 
z
" transform="scale(0.015625)"/>
        <path id="DejaVuSans-35" d="M 691 4666 
L 3169 4666 
L 3169 4134 
L 1269 4134 
L 1269 2991 
Q 1406 3038 1543 3061 
Q 1681 3084 1819 3084 
Q 2600 3084 3056 2656 
Q 3513 2228 3513 1497 
Q 3513 744 3044 326 
Q 2575 -91 1722 -91 
Q 1428 -91 1123 -41 
Q 819 9 494 109 
L 494 744 
Q 775 591 1075 516 
Q 1375 441 1709 441 
Q 2250 441 2565 725 
Q 2881 1009 2881 1497 
Q 2881 1984 2565 2268 
Q 2250 2553 1709 2553 
Q 1456 2553 1204 2497 
Q 953 2441 691 2322 
L 691 4666 
z
" transform="scale(0.015625)"/>
       </defs>
       <use xlink:href="#DejaVuSans-2212"/>
       <use xlink:href="#DejaVuSans-30" x="83.789062"/>
       <use xlink:href="#DejaVuSans-2e" x="147.412109"/>
       <use xlink:href="#DejaVuSans-30" x="179.199219"/>
       <use xlink:href="#DejaVuSans-35" x="242.822266"/>
       <use xlink:href="#DejaVuSans-30" x="306.445312"/>
      </g>
     </g>
    </g>
    <g id="ytick_2">
     <g id="line2d_7">
      <g>
       <use xlink:href="#mb023863db5" x="113.024062" y="181.015526" style="stroke: #000000; stroke-width: 0.8"/>
      </g>
     </g>
     <g id="text_7">
      <!-- −0.025 -->
      <g style="fill: #ff0000" transform="translate(39.41 187.85412) scale(0.18 -0.18)">
       <use xlink:href="#DejaVuSans-2212"/>
       <use xlink:href="#DejaVuSans-30" x="83.789062"/>
       <use xlink:href="#DejaVuSans-2e" x="147.412109"/>
       <use xlink:href="#DejaVuSans-30" x="179.199219"/>
       <use xlink:href="#DejaVuSans-32" x="242.822266"/>
       <use xlink:href="#DejaVuSans-35" x="306.445312"/>
      </g>
     </g>
    </g>
    <g id="ytick_3">
     <g id="line2d_8">
      <g>
       <use xlink:href="#mb023863db5" x="113.024062" y="139.463229" style="stroke: #000000; stroke-width: 0.8"/>
      </g>
     </g>
     <g id="text_8">
      <!-- 0.000 -->
      <g style="fill: #ff0000" transform="translate(54.493437 146.301823) scale(0.18 -0.18)">
       <use xlink:href="#DejaVuSans-30"/>
       <use xlink:href="#DejaVuSans-2e" x="63.623047"/>
       <use xlink:href="#DejaVuSans-30" x="95.410156"/>
       <use xlink:href="#DejaVuSans-30" x="159.033203"/>
       <use xlink:href="#DejaVuSans-30" x="222.65625"/>
      </g>
     </g>
    </g>
    <g id="ytick_4">
     <g id="line2d_9">
      <g>
       <use xlink:href="#mb023863db5" x="113.024062" y="97.910932" style="stroke: #000000; stroke-width: 0.8"/>
      </g>
     </g>
     <g id="text_9">
      <!-- 0.025 -->
      <g style="fill: #ff0000" transform="translate(54.493437 104.749526) scale(0.18 -0.18)">
       <use xlink:href="#DejaVuSans-30"/>
       <use xlink:href="#DejaVuSans-2e" x="63.623047"/>
       <use xlink:href="#DejaVuSans-30" x="95.410156"/>
       <use xlink:href="#DejaVuSans-32" x="159.033203"/>
       <use xlink:href="#DejaVuSans-35" x="222.65625"/>
      </g>
     </g>
    </g>
    <g id="ytick_5">
     <g id="line2d_10">
      <g>
       <use xlink:href="#mb023863db5" x="113.024062" y="56.358636" style="stroke: #000000; stroke-width: 0.8"/>
      </g>
     </g>
     <g id="text_10">
      <!-- 0.050 -->
      <g style="fill: #ff0000" transform="translate(54.493437 63.197229) scale(0.18 -0.18)">
       <use xlink:href="#DejaVuSans-30"/>
       <use xlink:href="#DejaVuSans-2e" x="63.623047"/>
       <use xlink:href="#DejaVuSans-30" x="95.410156"/>
       <use xlink:href="#DejaVuSans-35" x="159.033203"/>
       <use xlink:href="#DejaVuSans-30" x="222.65625"/>
      </g>
     </g>
    </g>
    <g id="text_11">
     <!-- $1/f=K_{1}L$ $[m^{-1}]$ -->
     <g style="fill: #ff0000" transform="translate(30.626719 224.793229) rotate(-90) scale(0.23 -0.23)">
      <defs>
       <path id="DejaVuSans-2f" d="M 1625 4666 
L 2156 4666 
L 531 -594 
L 0 -594 
L 1625 4666 
z
" transform="scale(0.015625)"/>
       <path id="DejaVuSans-Oblique-66" d="M 3059 4863 
L 2969 4384 
L 2419 4384 
Q 2106 4384 1964 4261 
Q 1822 4138 1753 3809 
L 1691 3500 
L 2638 3500 
L 2553 3053 
L 1606 3053 
L 1013 0 
L 434 0 
L 1031 3053 
L 481 3053 
L 563 3500 
L 1113 3500 
L 1159 3744 
Q 1278 4363 1576 4613 
Q 1875 4863 2516 4863 
L 3059 4863 
z
" transform="scale(0.015625)"/>
       <path id="DejaVuSans-3d" d="M 678 2906 
L 4684 2906 
L 4684 2381 
L 678 2381 
L 678 2906 
z
M 678 1631 
L 4684 1631 
L 4684 1100 
L 678 1100 
L 678 1631 
z
" transform="scale(0.015625)"/>
       <path id="DejaVuSans-Oblique-4b" d="M 1081 4666 
L 1716 4666 
L 1331 2700 
L 3781 4666 
L 4622 4666 
L 1850 2438 
L 3878 0 
L 3109 0 
L 1247 2272 
L 806 0 
L 172 0 
L 1081 4666 
z
" transform="scale(0.015625)"/>
       <path id="DejaVuSans-Oblique-4c" d="M 1075 4666 
L 1709 4666 
L 909 525 
L 3181 525 
L 3078 0 
L 172 0 
L 1075 4666 
z
" transform="scale(0.015625)"/>
       <path id="DejaVuSans-20" transform="scale(0.015625)"/>
       <path id="DejaVuSans-5b" d="M 550 4863 
L 1875 4863 
L 1875 4416 
L 1125 4416 
L 1125 -397 
L 1875 -397 
L 1875 -844 
L 550 -844 
L 550 4863 
z
" transform="scale(0.015625)"/>
       <path id="DejaVuSans-Oblique-6d" d="M 5747 2113 
L 5338 0 
L 4763 0 
L 5166 2094 
Q 5191 2228 5203 2325 
Q 5216 2422 5216 2491 
Q 5216 2772 5059 2928 
Q 4903 3084 4622 3084 
Q 4203 3084 3875 2770 
Q 3547 2456 3450 1953 
L 3066 0 
L 2491 0 
L 2900 2094 
Q 2925 2209 2937 2307 
Q 2950 2406 2950 2484 
Q 2950 2769 2794 2926 
Q 2638 3084 2363 3084 
Q 1938 3084 1609 2770 
Q 1281 2456 1184 1953 
L 800 0 
L 225 0 
L 909 3500 
L 1484 3500 
L 1375 2956 
Q 1609 3263 1923 3423 
Q 2238 3584 2597 3584 
Q 2978 3584 3223 3384 
Q 3469 3184 3519 2828 
Q 3781 3197 4126 3390 
Q 4472 3584 4856 3584 
Q 5306 3584 5551 3325 
Q 5797 3066 5797 2591 
Q 5797 2488 5784 2364 
Q 5772 2241 5747 2113 
z
" transform="scale(0.015625)"/>
       <path id="DejaVuSans-5d" d="M 1947 4863 
L 1947 -844 
L 622 -844 
L 622 -397 
L 1369 -397 
L 1369 4416 
L 622 4416 
L 622 4863 
L 1947 4863 
z
" transform="scale(0.015625)"/>
      </defs>
      <use xlink:href="#DejaVuSans-31" transform="translate(0 0.684375)"/>
      <use xlink:href="#DejaVuSans-2f" transform="translate(63.623047 0.684375)"/>
      <use xlink:href="#DejaVuSans-Oblique-66" transform="translate(97.314453 0.684375)"/>
      <use xlink:href="#DejaVuSans-3d" transform="translate(152.001953 0.684375)"/>
      <use xlink:href="#DejaVuSans-Oblique-4b" transform="translate(255.273438 0.684375)"/>
      <use xlink:href="#DejaVuSans-31" transform="translate(320.849609 -15.721875) scale(0.7)"/>
      <use xlink:href="#DejaVuSans-Oblique-4c" transform="translate(368.120117 0.684375)"/>
      <use xlink:href="#DejaVuSans-20" transform="translate(423.833008 0.684375)"/>
      <use xlink:href="#DejaVuSans-5b" transform="translate(455.620117 0.684375)"/>
      <use xlink:href="#DejaVuSans-Oblique-6d" transform="translate(494.633789 0.684375)"/>
      <use xlink:href="#DejaVuSans-2212" transform="translate(596.695794 38.965625) scale(0.7)"/>
      <use xlink:href="#DejaVuSans-31" transform="translate(655.348138 38.965625) scale(0.7)"/>
      <use xlink:href="#DejaVuSans-5d" transform="translate(702.618646 0.684375)"/>
     </g>
    </g>
   </g>
   <g id="line2d_11">
    <path d="M 113.479381 139.463229 
L 1196.334576 139.463229 
L 1196.334576 139.463229 
" clip-path="url(#pbc5175203b)" style="fill: none; stroke: #000000; stroke-width: 1.5; stroke-linecap: square"/>
   </g>
   <g id="patch_33">
    <path d="M 113.024062 240.850833 
L 113.024062 38.075625 
" style="fill: none; stroke: #000000; stroke-width: 0.8; stroke-linejoin: miter; stroke-linecap: square"/>
   </g>
   <g id="patch_34">
    <path d="M 1196.77875 240.850833 
L 1196.77875 38.075625 
" style="fill: none; stroke: #000000; stroke-width: 0.8; stroke-linejoin: miter; stroke-linecap: square"/>
   </g>
   <g id="patch_35">
    <path d="M 113.024063 240.850833 
L 1196.77875 240.850833 
" style="fill: none; stroke: #000000; stroke-width: 0.8; stroke-linejoin: miter; stroke-linecap: square"/>
   </g>
   <g id="patch_36">
    <path d="M 113.024063 38.075625 
L 1196.77875 38.075625 
" style="fill: none; stroke: #000000; stroke-width: 0.8; stroke-linejoin: miter; stroke-linecap: square"/>
   </g>
   <g id="text_12">
    <!-- Interaction Region 1, Flat LHCB1 Setup -->
    <g transform="translate(382.037031 32.075625) scale(0.28 -0.28)">
     <defs>
      <path id="DejaVuSans-49" d="M 628 4666 
L 1259 4666 
L 1259 0 
L 628 0 
L 628 4666 
z
" transform="scale(0.015625)"/>
      <path id="DejaVuSans-6e" d="M 3513 2113 
L 3513 0 
L 2938 0 
L 2938 2094 
Q 2938 2591 2744 2837 
Q 2550 3084 2163 3084 
Q 1697 3084 1428 2787 
Q 1159 2491 1159 1978 
L 1159 0 
L 581 0 
L 581 3500 
L 1159 3500 
L 1159 2956 
Q 1366 3272 1645 3428 
Q 1925 3584 2291 3584 
Q 2894 3584 3203 3211 
Q 3513 2838 3513 2113 
z
" transform="scale(0.015625)"/>
      <path id="DejaVuSans-74" d="M 1172 4494 
L 1172 3500 
L 2356 3500 
L 2356 3053 
L 1172 3053 
L 1172 1153 
Q 1172 725 1289 603 
Q 1406 481 1766 481 
L 2356 481 
L 2356 0 
L 1766 0 
Q 1100 0 847 248 
Q 594 497 594 1153 
L 594 3053 
L 172 3053 
L 172 3500 
L 594 3500 
L 594 4494 
L 1172 4494 
z
" transform="scale(0.015625)"/>
      <path id="DejaVuSans-65" d="M 3597 1894 
L 3597 1613 
L 953 1613 
Q 991 1019 1311 708 
Q 1631 397 2203 397 
Q 2534 397 2845 478 
Q 3156 559 3463 722 
L 3463 178 
Q 3153 47 2828 -22 
Q 2503 -91 2169 -91 
Q 1331 -91 842 396 
Q 353 884 353 1716 
Q 353 2575 817 3079 
Q 1281 3584 2069 3584 
Q 2775 3584 3186 3129 
Q 3597 2675 3597 1894 
z
M 3022 2063 
Q 3016 2534 2758 2815 
Q 2500 3097 2075 3097 
Q 1594 3097 1305 2825 
Q 1016 2553 972 2059 
L 3022 2063 
z
" transform="scale(0.015625)"/>
      <path id="DejaVuSans-72" d="M 2631 2963 
Q 2534 3019 2420 3045 
Q 2306 3072 2169 3072 
Q 1681 3072 1420 2755 
Q 1159 2438 1159 1844 
L 1159 0 
L 581 0 
L 581 3500 
L 1159 3500 
L 1159 2956 
Q 1341 3275 1631 3429 
Q 1922 3584 2338 3584 
Q 2397 3584 2469 3576 
Q 2541 3569 2628 3553 
L 2631 2963 
z
" transform="scale(0.015625)"/>
      <path id="DejaVuSans-61" d="M 2194 1759 
Q 1497 1759 1228 1600 
Q 959 1441 959 1056 
Q 959 750 1161 570 
Q 1363 391 1709 391 
Q 2188 391 2477 730 
Q 2766 1069 2766 1631 
L 2766 1759 
L 2194 1759 
z
M 3341 1997 
L 3341 0 
L 2766 0 
L 2766 531 
Q 2569 213 2275 61 
Q 1981 -91 1556 -91 
Q 1019 -91 701 211 
Q 384 513 384 1019 
Q 384 1609 779 1909 
Q 1175 2209 1959 2209 
L 2766 2209 
L 2766 2266 
Q 2766 2663 2505 2880 
Q 2244 3097 1772 3097 
Q 1472 3097 1187 3025 
Q 903 2953 641 2809 
L 641 3341 
Q 956 3463 1253 3523 
Q 1550 3584 1831 3584 
Q 2591 3584 2966 3190 
Q 3341 2797 3341 1997 
z
" transform="scale(0.015625)"/>
      <path id="DejaVuSans-63" d="M 3122 3366 
L 3122 2828 
Q 2878 2963 2633 3030 
Q 2388 3097 2138 3097 
Q 1578 3097 1268 2742 
Q 959 2388 959 1747 
Q 959 1106 1268 751 
Q 1578 397 2138 397 
Q 2388 397 2633 464 
Q 2878 531 3122 666 
L 3122 134 
Q 2881 22 2623 -34 
Q 2366 -91 2075 -91 
Q 1284 -91 818 406 
Q 353 903 353 1747 
Q 353 2603 823 3093 
Q 1294 3584 2113 3584 
Q 2378 3584 2631 3529 
Q 2884 3475 3122 3366 
z
" transform="scale(0.015625)"/>
      <path id="DejaVuSans-69" d="M 603 3500 
L 1178 3500 
L 1178 0 
L 603 0 
L 603 3500 
z
M 603 4863 
L 1178 4863 
L 1178 4134 
L 603 4134 
L 603 4863 
z
" transform="scale(0.015625)"/>
      <path id="DejaVuSans-6f" d="M 1959 3097 
Q 1497 3097 1228 2736 
Q 959 2375 959 1747 
Q 959 1119 1226 758 
Q 1494 397 1959 397 
Q 2419 397 2687 759 
Q 2956 1122 2956 1747 
Q 2956 2369 2687 2733 
Q 2419 3097 1959 3097 
z
M 1959 3584 
Q 2709 3584 3137 3096 
Q 3566 2609 3566 1747 
Q 3566 888 3137 398 
Q 2709 -91 1959 -91 
Q 1206 -91 779 398 
Q 353 888 353 1747 
Q 353 2609 779 3096 
Q 1206 3584 1959 3584 
z
" transform="scale(0.015625)"/>
      <path id="DejaVuSans-52" d="M 2841 2188 
Q 3044 2119 3236 1894 
Q 3428 1669 3622 1275 
L 4263 0 
L 3584 0 
L 2988 1197 
Q 2756 1666 2539 1819 
Q 2322 1972 1947 1972 
L 1259 1972 
L 1259 0 
L 628 0 
L 628 4666 
L 2053 4666 
Q 2853 4666 3247 4331 
Q 3641 3997 3641 3322 
Q 3641 2881 3436 2590 
Q 3231 2300 2841 2188 
z
M 1259 4147 
L 1259 2491 
L 2053 2491 
Q 2509 2491 2742 2702 
Q 2975 2913 2975 3322 
Q 2975 3731 2742 3939 
Q 2509 4147 2053 4147 
L 1259 4147 
z
" transform="scale(0.015625)"/>
      <path id="DejaVuSans-67" d="M 2906 1791 
Q 2906 2416 2648 2759 
Q 2391 3103 1925 3103 
Q 1463 3103 1205 2759 
Q 947 2416 947 1791 
Q 947 1169 1205 825 
Q 1463 481 1925 481 
Q 2391 481 2648 825 
Q 2906 1169 2906 1791 
z
M 3481 434 
Q 3481 -459 3084 -895 
Q 2688 -1331 1869 -1331 
Q 1566 -1331 1297 -1286 
Q 1028 -1241 775 -1147 
L 775 -588 
Q 1028 -725 1275 -790 
Q 1522 -856 1778 -856 
Q 2344 -856 2625 -561 
Q 2906 -266 2906 331 
L 2906 616 
Q 2728 306 2450 153 
Q 2172 0 1784 0 
Q 1141 0 747 490 
Q 353 981 353 1791 
Q 353 2603 747 3093 
Q 1141 3584 1784 3584 
Q 2172 3584 2450 3431 
Q 2728 3278 2906 2969 
L 2906 3500 
L 3481 3500 
L 3481 434 
z
" transform="scale(0.015625)"/>
      <path id="DejaVuSans-2c" d="M 750 794 
L 1409 794 
L 1409 256 
L 897 -744 
L 494 -744 
L 750 256 
L 750 794 
z
" transform="scale(0.015625)"/>
      <path id="DejaVuSans-46" d="M 628 4666 
L 3309 4666 
L 3309 4134 
L 1259 4134 
L 1259 2759 
L 3109 2759 
L 3109 2228 
L 1259 2228 
L 1259 0 
L 628 0 
L 628 4666 
z
" transform="scale(0.015625)"/>
      <path id="DejaVuSans-6c" d="M 603 4863 
L 1178 4863 
L 1178 0 
L 603 0 
L 603 4863 
z
" transform="scale(0.015625)"/>
      <path id="DejaVuSans-4c" d="M 628 4666 
L 1259 4666 
L 1259 531 
L 3531 531 
L 3531 0 
L 628 0 
L 628 4666 
z
" transform="scale(0.015625)"/>
      <path id="DejaVuSans-48" d="M 628 4666 
L 1259 4666 
L 1259 2753 
L 3553 2753 
L 3553 4666 
L 4184 4666 
L 4184 0 
L 3553 0 
L 3553 2222 
L 1259 2222 
L 1259 0 
L 628 0 
L 628 4666 
z
" transform="scale(0.015625)"/>
      <path id="DejaVuSans-43" d="M 4122 4306 
L 4122 3641 
Q 3803 3938 3442 4084 
Q 3081 4231 2675 4231 
Q 1875 4231 1450 3742 
Q 1025 3253 1025 2328 
Q 1025 1406 1450 917 
Q 1875 428 2675 428 
Q 3081 428 3442 575 
Q 3803 722 4122 1019 
L 4122 359 
Q 3791 134 3420 21 
Q 3050 -91 2638 -91 
Q 1578 -91 968 557 
Q 359 1206 359 2328 
Q 359 3453 968 4101 
Q 1578 4750 2638 4750 
Q 3056 4750 3426 4639 
Q 3797 4528 4122 4306 
z
" transform="scale(0.015625)"/>
      <path id="DejaVuSans-42" d="M 1259 2228 
L 1259 519 
L 2272 519 
Q 2781 519 3026 730 
Q 3272 941 3272 1375 
Q 3272 1813 3026 2020 
Q 2781 2228 2272 2228 
L 1259 2228 
z
M 1259 4147 
L 1259 2741 
L 2194 2741 
Q 2656 2741 2882 2914 
Q 3109 3088 3109 3444 
Q 3109 3797 2882 3972 
Q 2656 4147 2194 4147 
L 1259 4147 
z
M 628 4666 
L 2241 4666 
Q 2963 4666 3353 4366 
Q 3744 4066 3744 3513 
Q 3744 3084 3544 2831 
Q 3344 2578 2956 2516 
Q 3422 2416 3680 2098 
Q 3938 1781 3938 1306 
Q 3938 681 3513 340 
Q 3088 0 2303 0 
L 628 0 
L 628 4666 
z
" transform="scale(0.015625)"/>
      <path id="DejaVuSans-53" d="M 3425 4513 
L 3425 3897 
Q 3066 4069 2747 4153 
Q 2428 4238 2131 4238 
Q 1616 4238 1336 4038 
Q 1056 3838 1056 3469 
Q 1056 3159 1242 3001 
Q 1428 2844 1947 2747 
L 2328 2669 
Q 3034 2534 3370 2195 
Q 3706 1856 3706 1288 
Q 3706 609 3251 259 
Q 2797 -91 1919 -91 
Q 1588 -91 1214 -16 
Q 841 59 441 206 
L 441 856 
Q 825 641 1194 531 
Q 1563 422 1919 422 
Q 2459 422 2753 634 
Q 3047 847 3047 1241 
Q 3047 1584 2836 1778 
Q 2625 1972 2144 2069 
L 1759 2144 
Q 1053 2284 737 2584 
Q 422 2884 422 3419 
Q 422 4038 858 4394 
Q 1294 4750 2059 4750 
Q 2388 4750 2728 4690 
Q 3069 4631 3425 4513 
z
" transform="scale(0.015625)"/>
      <path id="DejaVuSans-75" d="M 544 1381 
L 544 3500 
L 1119 3500 
L 1119 1403 
Q 1119 906 1312 657 
Q 1506 409 1894 409 
Q 2359 409 2629 706 
Q 2900 1003 2900 1516 
L 2900 3500 
L 3475 3500 
L 3475 0 
L 2900 0 
L 2900 538 
Q 2691 219 2414 64 
Q 2138 -91 1772 -91 
Q 1169 -91 856 284 
Q 544 659 544 1381 
z
M 1991 3584 
L 1991 3584 
z
" transform="scale(0.015625)"/>
      <path id="DejaVuSans-70" d="M 1159 525 
L 1159 -1331 
L 581 -1331 
L 581 3500 
L 1159 3500 
L 1159 2969 
Q 1341 3281 1617 3432 
Q 1894 3584 2278 3584 
Q 2916 3584 3314 3078 
Q 3713 2572 3713 1747 
Q 3713 922 3314 415 
Q 2916 -91 2278 -91 
Q 1894 -91 1617 61 
Q 1341 213 1159 525 
z
M 3116 1747 
Q 3116 2381 2855 2742 
Q 2594 3103 2138 3103 
Q 1681 3103 1420 2742 
Q 1159 2381 1159 1747 
Q 1159 1113 1420 752 
Q 1681 391 2138 391 
Q 2594 391 2855 752 
Q 3116 1113 3116 1747 
z
" transform="scale(0.015625)"/>
     </defs>
     <use xlink:href="#DejaVuSans-49"/>
     <use xlink:href="#DejaVuSans-6e" x="29.492188"/>
     <use xlink:href="#DejaVuSans-74" x="92.871094"/>
     <use xlink:href="#DejaVuSans-65" x="132.080078"/>
     <use xlink:href="#DejaVuSans-72" x="193.603516"/>
     <use xlink:href="#DejaVuSans-61" x="234.716797"/>
     <use xlink:href="#DejaVuSans-63" x="295.996094"/>
     <use xlink:href="#DejaVuSans-74" x="350.976562"/>
     <use xlink:href="#DejaVuSans-69" x="390.185547"/>
     <use xlink:href="#DejaVuSans-6f" x="417.96875"/>
     <use xlink:href="#DejaVuSans-6e" x="479.150391"/>
     <use xlink:href="#DejaVuSans-20" x="542.529297"/>
     <use xlink:href="#DejaVuSans-52" x="574.316406"/>
     <use xlink:href="#DejaVuSans-65" x="639.298828"/>
     <use xlink:href="#DejaVuSans-67" x="700.822266"/>
     <use xlink:href="#DejaVuSans-69" x="764.298828"/>
     <use xlink:href="#DejaVuSans-6f" x="792.082031"/>
     <use xlink:href="#DejaVuSans-6e" x="853.263672"/>
     <use xlink:href="#DejaVuSans-20" x="916.642578"/>
     <use xlink:href="#DejaVuSans-31" x="948.429688"/>
     <use xlink:href="#DejaVuSans-2c" x="1012.052734"/>
     <use xlink:href="#DejaVuSans-20" x="1043.839844"/>
     <use xlink:href="#DejaVuSans-46" x="1075.626953"/>
     <use xlink:href="#DejaVuSans-6c" x="1133.146484"/>
     <use xlink:href="#DejaVuSans-61" x="1160.929688"/>
     <use xlink:href="#DejaVuSans-74" x="1222.208984"/>
     <use xlink:href="#DejaVuSans-20" x="1261.417969"/>
     <use xlink:href="#DejaVuSans-4c" x="1293.205078"/>
     <use xlink:href="#DejaVuSans-48" x="1348.917969"/>
     <use xlink:href="#DejaVuSans-43" x="1424.113281"/>
     <use xlink:href="#DejaVuSans-42" x="1493.9375"/>
     <use xlink:href="#DejaVuSans-31" x="1562.541016"/>
     <use xlink:href="#DejaVuSans-20" x="1626.164062"/>
     <use xlink:href="#DejaVuSans-53" x="1657.951172"/>
     <use xlink:href="#DejaVuSans-65" x="1721.427734"/>
     <use xlink:href="#DejaVuSans-74" x="1782.951172"/>
     <use xlink:href="#DejaVuSans-75" x="1822.160156"/>
     <use xlink:href="#DejaVuSans-70" x="1885.539062"/>
    </g>
   </g>
   <g id="legend_1">
    <g id="patch_37">
     <path d="M 129.824063 92.503125 
L 246.224063 92.503125 
Q 251.024063 92.503125 251.024063 87.703125 
L 251.024063 54.875625 
Q 251.024063 50.075625 246.224063 50.075625 
L 129.824063 50.075625 
Q 125.024063 50.075625 125.024063 54.875625 
L 125.024063 87.703125 
Q 125.024063 92.503125 129.824063 92.503125 
z
" style="fill: #ffffff; opacity: 0.8; stroke: #cccccc; stroke-linejoin: miter"/>
    </g>
    <g id="patch_38">
     <path d="M 134.624063 77.911875 
L 182.624063 77.911875 
L 182.624063 61.111875 
L 134.624063 61.111875 
z
" style="fill: #ff0000; opacity: 0.5; stroke: #ff0000; stroke-width: 1.5; stroke-linejoin: miter"/>
    </g>
    <g id="text_13">
     <!-- MQ -->
     <g transform="translate(201.824063 77.911875) scale(0.24 -0.24)">
      <defs>
       <path id="DejaVuSans-4d" d="M 628 4666 
L 1569 4666 
L 2759 1491 
L 3956 4666 
L 4897 4666 
L 4897 0 
L 4281 0 
L 4281 4097 
L 3078 897 
L 2444 897 
L 1241 4097 
L 1241 0 
L 628 0 
L 628 4666 
z
" transform="scale(0.015625)"/>
       <path id="DejaVuSans-51" d="M 2522 4238 
Q 1834 4238 1429 3725 
Q 1025 3213 1025 2328 
Q 1025 1447 1429 934 
Q 1834 422 2522 422 
Q 3209 422 3611 934 
Q 4013 1447 4013 2328 
Q 4013 3213 3611 3725 
Q 3209 4238 2522 4238 
z
M 3406 84 
L 4238 -825 
L 3475 -825 
L 2784 -78 
Q 2681 -84 2626 -87 
Q 2572 -91 2522 -91 
Q 1538 -91 948 567 
Q 359 1225 359 2328 
Q 359 3434 948 4092 
Q 1538 4750 2522 4750 
Q 3503 4750 4090 4092 
Q 4678 3434 4678 2328 
Q 4678 1516 4351 937 
Q 4025 359 3406 84 
z
" transform="scale(0.015625)"/>
      </defs>
      <use xlink:href="#DejaVuSans-4d"/>
      <use xlink:href="#DejaVuSans-51" x="86.279297"/>
     </g>
    </g>
   </g>
  </g>
  <g id="axes_2">
   <g id="patch_39">
    <path d="M 96.523482 139.463229 
L 113.479381 139.463229 
L 113.479381 99.688185 
L 96.523482 99.688185 
z
" clip-path="url(#pbc5175203b)" style="fill: #4169e1; opacity: 0.5; stroke: #4169e1; stroke-width: 1.5; stroke-linejoin: miter"/>
   </g>
   <g id="patch_40">
    <path d="M 115.091384 139.463229 
L 132.047283 139.463229 
L 132.047283 99.688185 
L 115.091384 99.688185 
z
" clip-path="url(#pbc5175203b)" style="fill: #4169e1; opacity: 0.5; stroke: #4169e1; stroke-width: 1.5; stroke-linejoin: miter"/>
   </g>
   <g id="patch_41">
    <path d="M 159.107008 139.463229 
L 176.062907 139.463229 
L 176.062907 99.688185 
L 159.107008 99.688185 
z
" clip-path="url(#pbc5175203b)" style="fill: #4169e1; opacity: 0.5; stroke: #4169e1; stroke-width: 1.5; stroke-linejoin: miter"/>
   </g>
   <g id="patch_42">
    <path d="M 177.67491 139.463229 
L 194.630809 139.463229 
L 194.630809 99.688185 
L 177.67491 99.688185 
z
" clip-path="url(#pbc5175203b)" style="fill: #4169e1; opacity: 0.5; stroke: #4169e1; stroke-width: 1.5; stroke-linejoin: miter"/>
   </g>
   <g id="patch_43">
    <path d="M 205.426269 139.463229 
L 222.382168 139.463229 
L 222.382168 99.688185 
L 205.426269 99.688185 
z
" clip-path="url(#pbc5175203b)" style="fill: #4169e1; opacity: 0.5; stroke: #4169e1; stroke-width: 1.5; stroke-linejoin: miter"/>
   </g>
   <g id="patch_44">
    <path d="M 223.994171 139.463229 
L 240.95007 139.463229 
L 240.95007 99.688185 
L 223.994171 99.688185 
z
" clip-path="url(#pbc5175203b)" style="fill: #4169e1; opacity: 0.5; stroke: #4169e1; stroke-width: 1.5; stroke-linejoin: miter"/>
   </g>
   <g id="patch_45">
    <path d="M 253.405548 139.463229 
L 270.361447 139.463229 
L 270.361447 99.688185 
L 253.405548 99.688185 
z
" clip-path="url(#pbc5175203b)" style="fill: #4169e1; opacity: 0.5; stroke: #4169e1; stroke-width: 1.5; stroke-linejoin: miter"/>
   </g>
   <g id="patch_46">
    <path d="M 271.97345 139.463229 
L 288.929349 139.463229 
L 288.929349 99.688185 
L 271.97345 99.688185 
z
" clip-path="url(#pbc5175203b)" style="fill: #4169e1; opacity: 0.5; stroke: #4169e1; stroke-width: 1.5; stroke-linejoin: miter"/>
   </g>
   <g id="patch_47">
    <path d="M 299.724809 139.463229 
L 316.680708 139.463229 
L 316.680708 99.688185 
L 299.724809 99.688185 
z
" clip-path="url(#pbc5175203b)" style="fill: #4169e1; opacity: 0.5; stroke: #4169e1; stroke-width: 1.5; stroke-linejoin: miter"/>
   </g>
   <g id="patch_48">
    <path d="M 318.292711 139.463229 
L 335.24861 139.463229 
L 335.24861 99.688185 
L 318.292711 99.688185 
z
" clip-path="url(#pbc5175203b)" style="fill: #4169e1; opacity: 0.5; stroke: #4169e1; stroke-width: 1.5; stroke-linejoin: miter"/>
   </g>
   <g id="patch_49">
    <path d="M 462.072516 139.463229 
L 473.277638 139.463229 
L 473.277638 148.268732 
L 462.072516 148.268732 
z
" clip-path="url(#pbc5175203b)" style="fill: #4169e1; opacity: 0.5; stroke: #4169e1; stroke-width: 1.5; stroke-linejoin: miter"/>
   </g>
   <g id="patch_50">
    <path d="M 554.882943 139.463229 
L 558.914416 139.463229 
L 558.914416 137.995645 
L 554.882943 137.995645 
z
" clip-path="url(#pbc5175203b)" style="fill: #4169e1; opacity: 0.5; stroke: #4169e1; stroke-width: 1.5; stroke-linejoin: miter"/>
   </g>
   <g id="patch_51">
    <path d="M 559.941255 139.463229 
L 563.972728 139.463229 
L 563.972728 137.995645 
L 559.941255 137.995645 
z
" clip-path="url(#pbc5175203b)" style="fill: #4169e1; opacity: 0.5; stroke: #4169e1; stroke-width: 1.5; stroke-linejoin: miter"/>
   </g>
   <g id="patch_52">
    <path d="M 564.999568 139.463229 
L 569.03104 139.463229 
L 569.03104 137.995645 
L 564.999568 137.995645 
z
" clip-path="url(#pbc5175203b)" style="fill: #4169e1; opacity: 0.5; stroke: #4169e1; stroke-width: 1.5; stroke-linejoin: miter"/>
   </g>
   <g id="patch_53">
    <path d="M 570.05788 139.463229 
L 574.089353 139.463229 
L 574.089353 137.995645 
L 570.05788 137.995645 
z
" clip-path="url(#pbc5175203b)" style="fill: #4169e1; opacity: 0.5; stroke: #4169e1; stroke-width: 1.5; stroke-linejoin: miter"/>
   </g>
   <g id="patch_54">
    <path d="M 575.116192 139.463229 
L 579.147665 139.463229 
L 579.147665 137.995645 
L 575.116192 137.995645 
z
" clip-path="url(#pbc5175203b)" style="fill: #4169e1; opacity: 0.5; stroke: #4169e1; stroke-width: 1.5; stroke-linejoin: miter"/>
   </g>
   <g id="patch_55">
    <path d="M 580.174505 139.463229 
L 584.205977 139.463229 
L 584.205977 137.995645 
L 580.174505 137.995645 
z
" clip-path="url(#pbc5175203b)" style="fill: #4169e1; opacity: 0.5; stroke: #4169e1; stroke-width: 1.5; stroke-linejoin: miter"/>
   </g>
   <g id="patch_56">
    <path d="M 725.596835 139.463229 
L 729.628308 139.463229 
L 729.628308 140.930813 
L 725.596835 140.930813 
z
" clip-path="url(#pbc5175203b)" style="fill: #4169e1; opacity: 0.5; stroke: #4169e1; stroke-width: 1.5; stroke-linejoin: miter"/>
   </g>
   <g id="patch_57">
    <path d="M 730.655147 139.463229 
L 734.68662 139.463229 
L 734.68662 140.930813 
L 730.655147 140.930813 
z
" clip-path="url(#pbc5175203b)" style="fill: #4169e1; opacity: 0.5; stroke: #4169e1; stroke-width: 1.5; stroke-linejoin: miter"/>
   </g>
   <g id="patch_58">
    <path d="M 735.71346 139.463229 
L 739.744932 139.463229 
L 739.744932 140.930813 
L 735.71346 140.930813 
z
" clip-path="url(#pbc5175203b)" style="fill: #4169e1; opacity: 0.5; stroke: #4169e1; stroke-width: 1.5; stroke-linejoin: miter"/>
   </g>
   <g id="patch_59">
    <path d="M 740.771772 139.463229 
L 744.803245 139.463229 
L 744.803245 140.930813 
L 740.771772 140.930813 
z
" clip-path="url(#pbc5175203b)" style="fill: #4169e1; opacity: 0.5; stroke: #4169e1; stroke-width: 1.5; stroke-linejoin: miter"/>
   </g>
   <g id="patch_60">
    <path d="M 745.830085 139.463229 
L 749.861557 139.463229 
L 749.861557 140.930813 
L 745.830085 140.930813 
z
" clip-path="url(#pbc5175203b)" style="fill: #4169e1; opacity: 0.5; stroke: #4169e1; stroke-width: 1.5; stroke-linejoin: miter"/>
   </g>
   <g id="patch_61">
    <path d="M 750.888397 139.463229 
L 754.919869 139.463229 
L 754.919869 140.930813 
L 750.888397 140.930813 
z
" clip-path="url(#pbc5175203b)" style="fill: #4169e1; opacity: 0.5; stroke: #4169e1; stroke-width: 1.5; stroke-linejoin: miter"/>
   </g>
   <g id="patch_62">
    <path d="M 836.525175 139.463229 
L 847.730297 139.463229 
L 847.730297 130.657726 
L 836.525175 130.657726 
z
" clip-path="url(#pbc5175203b)" style="fill: #4169e1; opacity: 0.5; stroke: #4169e1; stroke-width: 1.5; stroke-linejoin: miter"/>
   </g>
   <g id="patch_63">
    <path d="M 974.554789 139.463229 
L 991.510688 139.463229 
L 991.510688 99.688185 
L 974.554789 99.688185 
z
" clip-path="url(#pbc5175203b)" style="fill: #4169e1; opacity: 0.5; stroke: #4169e1; stroke-width: 1.5; stroke-linejoin: miter"/>
   </g>
   <g id="patch_64">
    <path d="M 993.123864 139.463229 
L 1010.079763 139.463229 
L 1010.079763 99.688185 
L 993.123864 99.688185 
z
" clip-path="url(#pbc5175203b)" style="fill: #4169e1; opacity: 0.5; stroke: #4169e1; stroke-width: 1.5; stroke-linejoin: miter"/>
   </g>
   <g id="patch_65">
    <path d="M 1020.876396 139.463229 
L 1037.832296 139.463229 
L 1037.832296 99.688185 
L 1020.876396 99.688185 
z
" clip-path="url(#pbc5175203b)" style="fill: #4169e1; opacity: 0.5; stroke: #4169e1; stroke-width: 1.5; stroke-linejoin: miter"/>
   </g>
   <g id="patch_66">
    <path d="M 1039.445471 139.463229 
L 1056.401371 139.463229 
L 1056.401371 99.688185 
L 1039.445471 99.688185 
z
" clip-path="url(#pbc5175203b)" style="fill: #4169e1; opacity: 0.5; stroke: #4169e1; stroke-width: 1.5; stroke-linejoin: miter"/>
   </g>
   <g id="patch_67">
    <path d="M 1068.858022 139.463229 
L 1085.813921 139.463229 
L 1085.813921 99.688185 
L 1068.858022 99.688185 
z
" clip-path="url(#pbc5175203b)" style="fill: #4169e1; opacity: 0.5; stroke: #4169e1; stroke-width: 1.5; stroke-linejoin: miter"/>
   </g>
   <g id="patch_68">
    <path d="M 1087.427097 139.463229 
L 1104.382996 139.463229 
L 1104.382996 99.688185 
L 1087.427097 99.688185 
z
" clip-path="url(#pbc5175203b)" style="fill: #4169e1; opacity: 0.5; stroke: #4169e1; stroke-width: 1.5; stroke-linejoin: miter"/>
   </g>
   <g id="patch_69">
    <path d="M 1115.179629 139.463229 
L 1132.135528 139.463229 
L 1132.135528 99.688185 
L 1115.179629 99.688185 
z
" clip-path="url(#pbc5175203b)" style="fill: #4169e1; opacity: 0.5; stroke: #4169e1; stroke-width: 1.5; stroke-linejoin: miter"/>
   </g>
   <g id="patch_70">
    <path d="M 1133.748704 139.463229 
L 1150.704603 139.463229 
L 1150.704603 99.688185 
L 1133.748704 99.688185 
z
" clip-path="url(#pbc5175203b)" style="fill: #4169e1; opacity: 0.5; stroke: #4169e1; stroke-width: 1.5; stroke-linejoin: miter"/>
   </g>
   <g id="patch_71">
    <path d="M 1177.765501 139.463229 
L 1194.721401 139.463229 
L 1194.721401 99.688185 
L 1177.765501 99.688185 
z
" clip-path="url(#pbc5175203b)" style="fill: #4169e1; opacity: 0.5; stroke: #4169e1; stroke-width: 1.5; stroke-linejoin: miter"/>
   </g>
   <g id="matplotlib.axis_3">
    <g id="ytick_6">
     <g id="line2d_12">
      <defs>
       <path id="md3c58e1b3d" d="M 0 0 
L 3.5 0 
" style="stroke: #000000; stroke-width: 0.8"/>
      </defs>
      <g>
       <use xlink:href="#md3c58e1b3d" x="1196.77875" y="217.453694" style="stroke: #000000; stroke-width: 0.8"/>
      </g>
     </g>
     <g id="text_14">
      <!-- −0.01 -->
      <g style="fill: #4169e1" transform="translate(1203.77875 224.292288) scale(0.18 -0.18)">
       <use xlink:href="#DejaVuSans-2212"/>
       <use xlink:href="#DejaVuSans-30" x="83.789062"/>
       <use xlink:href="#DejaVuSans-2e" x="147.412109"/>
       <use xlink:href="#DejaVuSans-30" x="179.199219"/>
       <use xlink:href="#DejaVuSans-31" x="242.822266"/>
      </g>
     </g>
    </g>
    <g id="ytick_7">
     <g id="line2d_13">
      <g>
       <use xlink:href="#md3c58e1b3d" x="1196.77875" y="139.463229" style="stroke: #000000; stroke-width: 0.8"/>
      </g>
     </g>
     <g id="text_15">
      <!-- 0.00 -->
      <g style="fill: #4169e1" transform="translate(1203.77875 146.301823) scale(0.18 -0.18)">
       <use xlink:href="#DejaVuSans-30"/>
       <use xlink:href="#DejaVuSans-2e" x="63.623047"/>
       <use xlink:href="#DejaVuSans-30" x="95.410156"/>
       <use xlink:href="#DejaVuSans-30" x="159.033203"/>
      </g>
     </g>
    </g>
    <g id="ytick_8">
     <g id="line2d_14">
      <g>
       <use xlink:href="#md3c58e1b3d" x="1196.77875" y="61.472764" style="stroke: #000000; stroke-width: 0.8"/>
      </g>
     </g>
     <g id="text_16">
      <!-- 0.01 -->
      <g style="fill: #4169e1" transform="translate(1203.77875 68.311358) scale(0.18 -0.18)">
       <use xlink:href="#DejaVuSans-30"/>
       <use xlink:href="#DejaVuSans-2e" x="63.623047"/>
       <use xlink:href="#DejaVuSans-30" x="95.410156"/>
       <use xlink:href="#DejaVuSans-31" x="159.033203"/>
      </g>
     </g>
    </g>
    <g id="text_17">
     <!-- $\theta=K_{0}L$ $[rad]$ -->
     <g style="fill: #4169e1" transform="translate(1280.416719 211.798229) rotate(-90) scale(0.23 -0.23)">
      <defs>
       <path id="DejaVuSans-Oblique-3b8" d="M 2913 2219 
L 925 2219 
Q 791 1284 928 888 
Q 1100 400 1566 400 
Q 2034 400 2391 891 
Q 2703 1322 2913 2219 
z
M 3009 2750 
Q 3094 3638 2984 3950 
Q 2813 4444 2353 4444 
Q 1875 4444 1525 3956 
Q 1250 3563 1034 2750 
L 3009 2750 
z
M 2444 4913 
Q 3194 4913 3494 4250 
Q 3794 3591 3566 2422 
Q 3341 1256 2781 594 
Q 2225 -72 1475 -72 
Q 722 -72 425 594 
Q 128 1256 353 2422 
Q 581 3591 1134 4250 
Q 1691 4913 2444 4913 
z
" transform="scale(0.015625)"/>
       <path id="DejaVuSans-Oblique-72" d="M 2853 2969 
Q 2766 3016 2653 3041 
Q 2541 3066 2413 3066 
Q 1953 3066 1609 2717 
Q 1266 2369 1153 1784 
L 800 0 
L 225 0 
L 909 3500 
L 1484 3500 
L 1375 2956 
Q 1603 3259 1920 3421 
Q 2238 3584 2597 3584 
Q 2691 3584 2781 3573 
Q 2872 3563 2963 3538 
L 2853 2969 
z
" transform="scale(0.015625)"/>
       <path id="DejaVuSans-Oblique-61" d="M 3438 1997 
L 3047 0 
L 2472 0 
L 2578 531 
Q 2325 219 2001 64 
Q 1678 -91 1281 -91 
Q 834 -91 548 182 
Q 263 456 263 884 
Q 263 1497 752 1853 
Q 1241 2209 2100 2209 
L 2900 2209 
L 2931 2363 
Q 2938 2388 2941 2417 
Q 2944 2447 2944 2509 
Q 2944 2788 2717 2942 
Q 2491 3097 2081 3097 
Q 1800 3097 1504 3025 
Q 1209 2953 897 2809 
L 997 3341 
Q 1322 3463 1633 3523 
Q 1944 3584 2234 3584 
Q 2853 3584 3176 3315 
Q 3500 3047 3500 2534 
Q 3500 2431 3484 2292 
Q 3469 2153 3438 1997 
z
M 2816 1759 
L 2241 1759 
Q 1534 1759 1195 1570 
Q 856 1381 856 984 
Q 856 709 1029 553 
Q 1203 397 1509 397 
Q 1978 397 2328 733 
Q 2678 1069 2791 1631 
L 2816 1759 
z
" transform="scale(0.015625)"/>
       <path id="DejaVuSans-Oblique-64" d="M 2675 525 
Q 2444 222 2128 65 
Q 1813 -91 1428 -91 
Q 903 -91 598 267 
Q 294 625 294 1247 
Q 294 1766 478 2236 
Q 663 2706 1013 3078 
Q 1244 3325 1534 3454 
Q 1825 3584 2144 3584 
Q 2481 3584 2739 3421 
Q 2997 3259 3138 2956 
L 3513 4863 
L 4091 4863 
L 3144 0 
L 2566 0 
L 2675 525 
z
M 891 1350 
Q 891 897 1095 644 
Q 1300 391 1663 391 
Q 1931 391 2161 520 
Q 2391 650 2566 903 
Q 2750 1166 2856 1509 
Q 2963 1853 2963 2188 
Q 2963 2622 2758 2865 
Q 2553 3109 2194 3109 
Q 1922 3109 1687 2981 
Q 1453 2853 1288 2613 
Q 1106 2353 998 2009 
Q 891 1666 891 1350 
z
" transform="scale(0.015625)"/>
      </defs>
      <use xlink:href="#DejaVuSans-Oblique-3b8" transform="translate(0 0.234375)"/>
      <use xlink:href="#DejaVuSans-3d" transform="translate(80.664062 0.234375)"/>
      <use xlink:href="#DejaVuSans-Oblique-4b" transform="translate(183.935547 0.234375)"/>
      <use xlink:href="#DejaVuSans-30" transform="translate(249.511719 -16.171875) scale(0.7)"/>
      <use xlink:href="#DejaVuSans-Oblique-4c" transform="translate(296.782227 0.234375)"/>
      <use xlink:href="#DejaVuSans-20" transform="translate(352.495117 0.234375)"/>
      <use xlink:href="#DejaVuSans-5b" transform="translate(384.282227 0.234375)"/>
      <use xlink:href="#DejaVuSans-Oblique-72" transform="translate(423.295898 0.234375)"/>
      <use xlink:href="#DejaVuSans-Oblique-61" transform="translate(464.40918 0.234375)"/>
      <use xlink:href="#DejaVuSans-Oblique-64" transform="translate(525.688477 0.234375)"/>
      <use xlink:href="#DejaVuSans-5d" transform="translate(589.165039 0.234375)"/>
     </g>
    </g>
   </g>
   <g id="patch_72">
    <path d="M 113.024062 240.850833 
L 113.024062 38.075625 
" style="fill: none; stroke: #000000; stroke-width: 0.8; stroke-linejoin: miter; stroke-linecap: square"/>
   </g>
   <g id="patch_73">
    <path d="M 1196.77875 240.850833 
L 1196.77875 38.075625 
" style="fill: none; stroke: #000000; stroke-width: 0.8; stroke-linejoin: miter; stroke-linecap: square"/>
   </g>
   <g id="patch_74">
    <path d="M 113.024063 240.850833 
L 1196.77875 240.850833 
" style="fill: none; stroke: #000000; stroke-width: 0.8; stroke-linejoin: miter; stroke-linecap: square"/>
   </g>
   <g id="patch_75">
    <path d="M 113.024063 38.075625 
L 1196.77875 38.075625 
" style="fill: none; stroke: #000000; stroke-width: 0.8; stroke-linejoin: miter; stroke-linecap: square"/>
   </g>
   <g id="legend_2">
    <g id="patch_76">
     <path d="M 1066.005 92.503125 
L 1179.97875 92.503125 
Q 1184.77875 92.503125 1184.77875 87.703125 
L 1184.77875 54.875625 
Q 1184.77875 50.075625 1179.97875 50.075625 
L 1066.005 50.075625 
Q 1061.205 50.075625 1061.205 54.875625 
L 1061.205 87.703125 
Q 1061.205 92.503125 1066.005 92.503125 
z
" style="fill: #ffffff; opacity: 0.8; stroke: #cccccc; stroke-linejoin: miter"/>
    </g>
    <g id="patch_77">
     <path d="M 1070.805 77.911875 
L 1118.805 77.911875 
L 1118.805 61.111875 
L 1070.805 61.111875 
z
" style="fill: #4169e1; opacity: 0.5; stroke: #4169e1; stroke-width: 1.5; stroke-linejoin: miter"/>
    </g>
    <g id="text_18">
     <!-- MB -->
     <g transform="translate(1138.005 77.911875) scale(0.24 -0.24)">
      <use xlink:href="#DejaVuSans-4d"/>
      <use xlink:href="#DejaVuSans-42" x="86.279297"/>
     </g>
    </g>
   </g>
  </g>
  <g id="axes_3">
   <g id="patch_78">
    <path d="M 113.024062 730.519687 
L 1196.77875 730.519687 
L 1196.77875 282.910052 
L 113.024062 282.910052 
z
" style="fill: #ffffff"/>
   </g>
   <g id="matplotlib.axis_4">
    <g id="xtick_6">
     <g id="line2d_15">
      <g>
       <use xlink:href="#m512252242d" x="187.532316" y="730.519687" style="stroke: #000000; stroke-width: 0.8"/>
      </g>
     </g>
     <g id="text_19">
      <!-- 19600 -->
      <g transform="translate(158.901066 751.196875) scale(0.18 -0.18)">
       <use xlink:href="#DejaVuSans-31"/>
       <use xlink:href="#DejaVuSans-39" x="63.623047"/>
       <use xlink:href="#DejaVuSans-36" x="127.246094"/>
       <use xlink:href="#DejaVuSans-30" x="190.869141"/>
       <use xlink:href="#DejaVuSans-30" x="254.492188"/>
      </g>
     </g>
    </g>
    <g id="xtick_7">
     <g id="line2d_16">
      <g>
       <use xlink:href="#m512252242d" x="424.677762" y="730.519687" style="stroke: #000000; stroke-width: 0.8"/>
      </g>
     </g>
     <g id="text_20">
      <!-- 19800 -->
      <g transform="translate(396.046512 751.196875) scale(0.18 -0.18)">
       <use xlink:href="#DejaVuSans-31"/>
       <use xlink:href="#DejaVuSans-39" x="63.623047"/>
       <use xlink:href="#DejaVuSans-38" x="127.246094"/>
       <use xlink:href="#DejaVuSans-30" x="190.869141"/>
       <use xlink:href="#DejaVuSans-30" x="254.492188"/>
      </g>
     </g>
    </g>
    <g id="xtick_8">
     <g id="line2d_17">
      <g>
       <use xlink:href="#m512252242d" x="661.823208" y="730.519687" style="stroke: #000000; stroke-width: 0.8"/>
      </g>
     </g>
     <g id="text_21">
      <!-- 20000 -->
      <g transform="translate(633.191958 751.196875) scale(0.18 -0.18)">
       <use xlink:href="#DejaVuSans-32"/>
       <use xlink:href="#DejaVuSans-30" x="63.623047"/>
       <use xlink:href="#DejaVuSans-30" x="127.246094"/>
       <use xlink:href="#DejaVuSans-30" x="190.869141"/>
       <use xlink:href="#DejaVuSans-30" x="254.492188"/>
      </g>
     </g>
    </g>
    <g id="xtick_9">
     <g id="line2d_18">
      <g>
       <use xlink:href="#m512252242d" x="898.968653" y="730.519687" style="stroke: #000000; stroke-width: 0.8"/>
      </g>
     </g>
     <g id="text_22">
      <!-- 20200 -->
      <g transform="translate(870.337403 751.196875) scale(0.18 -0.18)">
       <use xlink:href="#DejaVuSans-32"/>
       <use xlink:href="#DejaVuSans-30" x="63.623047"/>
       <use xlink:href="#DejaVuSans-32" x="127.246094"/>
       <use xlink:href="#DejaVuSans-30" x="190.869141"/>
       <use xlink:href="#DejaVuSans-30" x="254.492188"/>
      </g>
     </g>
    </g>
    <g id="xtick_10">
     <g id="line2d_19">
      <g>
       <use xlink:href="#m512252242d" x="1136.114099" y="730.519687" style="stroke: #000000; stroke-width: 0.8"/>
      </g>
     </g>
     <g id="text_23">
      <!-- 20400 -->
      <g transform="translate(1107.482849 751.196875) scale(0.18 -0.18)">
       <use xlink:href="#DejaVuSans-32"/>
       <use xlink:href="#DejaVuSans-30" x="63.623047"/>
       <use xlink:href="#DejaVuSans-34" x="127.246094"/>
       <use xlink:href="#DejaVuSans-30" x="190.869141"/>
       <use xlink:href="#DejaVuSans-30" x="254.492188"/>
      </g>
     </g>
    </g>
    <g id="text_24">
     <!-- $S$ $[m]$ -->
     <g transform="translate(623.736406 776.416719) scale(0.23 -0.23)">
      <defs>
       <path id="DejaVuSans-Oblique-53" d="M 3859 4513 
L 3738 3897 
Q 3422 4066 3111 4152 
Q 2800 4238 2509 4238 
Q 1944 4238 1609 3991 
Q 1275 3744 1275 3334 
Q 1275 3109 1398 2989 
Q 1522 2869 2034 2731 
L 2413 2638 
Q 3053 2472 3303 2217 
Q 3553 1963 3553 1503 
Q 3553 797 2998 353 
Q 2444 -91 1538 -91 
Q 1166 -91 791 -17 
Q 416 56 38 206 
L 166 856 
Q 513 641 861 531 
Q 1209 422 1556 422 
Q 2147 422 2503 684 
Q 2859 947 2859 1369 
Q 2859 1650 2717 1795 
Q 2575 1941 2106 2059 
L 1728 2156 
Q 1081 2325 845 2545 
Q 609 2766 609 3163 
Q 609 3859 1145 4304 
Q 1681 4750 2541 4750 
Q 2875 4750 3203 4690 
Q 3531 4631 3859 4513 
z
" transform="scale(0.015625)"/>
      </defs>
      <use xlink:href="#DejaVuSans-Oblique-53" transform="translate(0 0.015625)"/>
      <use xlink:href="#DejaVuSans-20" transform="translate(63.476562 0.015625)"/>
      <use xlink:href="#DejaVuSans-5b" transform="translate(95.263672 0.015625)"/>
      <use xlink:href="#DejaVuSans-Oblique-6d" transform="translate(134.277344 0.015625)"/>
      <use xlink:href="#DejaVuSans-5d" transform="translate(231.689453 0.015625)"/>
     </g>
    </g>
   </g>
   <g id="matplotlib.axis_5">
    <g id="ytick_9">
     <g id="line2d_20">
      <g>
       <use xlink:href="#mb023863db5" x="113.024062" y="710.18903" style="stroke: #000000; stroke-width: 0.8"/>
      </g>
     </g>
     <g id="text_25">
      <!-- 0 -->
      <g transform="translate(94.571562 717.027624) scale(0.18 -0.18)">
       <use xlink:href="#DejaVuSans-30"/>
      </g>
     </g>
    </g>
    <g id="ytick_10">
     <g id="line2d_21">
      <g>
       <use xlink:href="#mb023863db5" x="113.024062" y="659.404428" style="stroke: #000000; stroke-width: 0.8"/>
      </g>
     </g>
     <g id="text_26">
      <!-- 1000 -->
      <g transform="translate(60.214063 666.243022) scale(0.18 -0.18)">
       <use xlink:href="#DejaVuSans-31"/>
       <use xlink:href="#DejaVuSans-30" x="63.623047"/>
       <use xlink:href="#DejaVuSans-30" x="127.246094"/>
       <use xlink:href="#DejaVuSans-30" x="190.869141"/>
      </g>
     </g>
    </g>
    <g id="ytick_11">
     <g id="line2d_22">
      <g>
       <use xlink:href="#mb023863db5" x="113.024062" y="608.619826" style="stroke: #000000; stroke-width: 0.8"/>
      </g>
     </g>
     <g id="text_27">
      <!-- 2000 -->
      <g transform="translate(60.214063 615.458419) scale(0.18 -0.18)">
       <use xlink:href="#DejaVuSans-32"/>
       <use xlink:href="#DejaVuSans-30" x="63.623047"/>
       <use xlink:href="#DejaVuSans-30" x="127.246094"/>
       <use xlink:href="#DejaVuSans-30" x="190.869141"/>
      </g>
     </g>
    </g>
    <g id="ytick_12">
     <g id="line2d_23">
      <g>
       <use xlink:href="#mb023863db5" x="113.024062" y="557.835223" style="stroke: #000000; stroke-width: 0.8"/>
      </g>
     </g>
     <g id="text_28">
      <!-- 3000 -->
      <g transform="translate(60.214063 564.673817) scale(0.18 -0.18)">
       <defs>
        <path id="DejaVuSans-33" d="M 2597 2516 
Q 3050 2419 3304 2112 
Q 3559 1806 3559 1356 
Q 3559 666 3084 287 
Q 2609 -91 1734 -91 
Q 1441 -91 1130 -33 
Q 819 25 488 141 
L 488 750 
Q 750 597 1062 519 
Q 1375 441 1716 441 
Q 2309 441 2620 675 
Q 2931 909 2931 1356 
Q 2931 1769 2642 2001 
Q 2353 2234 1838 2234 
L 1294 2234 
L 1294 2753 
L 1863 2753 
Q 2328 2753 2575 2939 
Q 2822 3125 2822 3475 
Q 2822 3834 2567 4026 
Q 2313 4219 1838 4219 
Q 1578 4219 1281 4162 
Q 984 4106 628 3988 
L 628 4550 
Q 988 4650 1302 4700 
Q 1616 4750 1894 4750 
Q 2613 4750 3031 4423 
Q 3450 4097 3450 3541 
Q 3450 3153 3228 2886 
Q 3006 2619 2597 2516 
z
" transform="scale(0.015625)"/>
       </defs>
       <use xlink:href="#DejaVuSans-33"/>
       <use xlink:href="#DejaVuSans-30" x="63.623047"/>
       <use xlink:href="#DejaVuSans-30" x="127.246094"/>
       <use xlink:href="#DejaVuSans-30" x="190.869141"/>
      </g>
     </g>
    </g>
    <g id="ytick_13">
     <g id="line2d_24">
      <g>
       <use xlink:href="#mb023863db5" x="113.024062" y="507.050621" style="stroke: #000000; stroke-width: 0.8"/>
      </g>
     </g>
     <g id="text_29">
      <!-- 4000 -->
      <g transform="translate(60.214063 513.889214) scale(0.18 -0.18)">
       <use xlink:href="#DejaVuSans-34"/>
       <use xlink:href="#DejaVuSans-30" x="63.623047"/>
       <use xlink:href="#DejaVuSans-30" x="127.246094"/>
       <use xlink:href="#DejaVuSans-30" x="190.869141"/>
      </g>
     </g>
    </g>
    <g id="ytick_14">
     <g id="line2d_25">
      <g>
       <use xlink:href="#mb023863db5" x="113.024062" y="456.266018" style="stroke: #000000; stroke-width: 0.8"/>
      </g>
     </g>
     <g id="text_30">
      <!-- 5000 -->
      <g transform="translate(60.214063 463.104612) scale(0.18 -0.18)">
       <use xlink:href="#DejaVuSans-35"/>
       <use xlink:href="#DejaVuSans-30" x="63.623047"/>
       <use xlink:href="#DejaVuSans-30" x="127.246094"/>
       <use xlink:href="#DejaVuSans-30" x="190.869141"/>
      </g>
     </g>
    </g>
    <g id="ytick_15">
     <g id="line2d_26">
      <g>
       <use xlink:href="#mb023863db5" x="113.024062" y="405.481416" style="stroke: #000000; stroke-width: 0.8"/>
      </g>
     </g>
     <g id="text_31">
      <!-- 6000 -->
      <g transform="translate(60.214063 412.32001) scale(0.18 -0.18)">
       <use xlink:href="#DejaVuSans-36"/>
       <use xlink:href="#DejaVuSans-30" x="63.623047"/>
       <use xlink:href="#DejaVuSans-30" x="127.246094"/>
       <use xlink:href="#DejaVuSans-30" x="190.869141"/>
      </g>
     </g>
    </g>
    <g id="ytick_16">
     <g id="line2d_27">
      <g>
       <use xlink:href="#mb023863db5" x="113.024062" y="354.696813" style="stroke: #000000; stroke-width: 0.8"/>
      </g>
     </g>
     <g id="text_32">
      <!-- 7000 -->
      <g transform="translate(60.214063 361.535407) scale(0.18 -0.18)">
       <defs>
        <path id="DejaVuSans-37" d="M 525 4666 
L 3525 4666 
L 3525 4397 
L 1831 0 
L 1172 0 
L 2766 4134 
L 525 4134 
L 525 4666 
z
" transform="scale(0.015625)"/>
       </defs>
       <use xlink:href="#DejaVuSans-37"/>
       <use xlink:href="#DejaVuSans-30" x="63.623047"/>
       <use xlink:href="#DejaVuSans-30" x="127.246094"/>
       <use xlink:href="#DejaVuSans-30" x="190.869141"/>
      </g>
     </g>
    </g>
    <g id="ytick_17">
     <g id="line2d_28">
      <g>
       <use xlink:href="#mb023863db5" x="113.024062" y="303.912211" style="stroke: #000000; stroke-width: 0.8"/>
      </g>
     </g>
     <g id="text_33">
      <!-- 8000 -->
      <g transform="translate(60.214063 310.750805) scale(0.18 -0.18)">
       <use xlink:href="#DejaVuSans-38"/>
       <use xlink:href="#DejaVuSans-30" x="63.623047"/>
       <use xlink:href="#DejaVuSans-30" x="127.246094"/>
       <use xlink:href="#DejaVuSans-30" x="190.869141"/>
      </g>
     </g>
    </g>
    <g id="text_34">
     <!-- $\beta_{x,y}$ $[m]$ -->
     <g transform="translate(49.084063 551.90987) rotate(-90) scale(0.23 -0.23)">
      <defs>
       <path id="DejaVuSans-Oblique-3b2" d="M 872 216 
L 572 -1331 
L -6 -1331 
L 928 3478 
Q 1206 4903 2538 4903 
Q 3888 4903 3659 3700 
Q 3503 2844 2894 2531 
Q 3713 2250 3553 1416 
Q 3272 -69 1759 -66 
Q 1097 -63 872 216 
z
M 1019 966 
Q 1259 422 1875 425 
Q 2775 425 2966 1406 
Q 3138 2288 1675 2219 
L 1778 2750 
Q 2909 2731 3106 3750 
Q 3241 4438 2509 4434 
Q 1691 4434 1503 3459 
L 1019 966 
z
" transform="scale(0.015625)"/>
       <path id="DejaVuSans-Oblique-78" d="M 3841 3500 
L 2234 1784 
L 3219 0 
L 2559 0 
L 1819 1388 
L 531 0 
L -166 0 
L 1556 1844 
L 641 3500 
L 1300 3500 
L 1972 2234 
L 3144 3500 
L 3841 3500 
z
" transform="scale(0.015625)"/>
       <path id="DejaVuSans-Oblique-79" d="M 1588 -325 
Q 1188 -997 936 -1164 
Q 684 -1331 294 -1331 
L -159 -1331 
L -63 -850 
L 269 -850 
Q 509 -850 678 -719 
Q 847 -588 1056 -206 
L 1234 128 
L 459 3500 
L 1069 3500 
L 1650 819 
L 3256 3500 
L 3859 3500 
L 1588 -325 
z
" transform="scale(0.015625)"/>
      </defs>
      <use xlink:href="#DejaVuSans-Oblique-3b2" transform="translate(0 0.390625)"/>
      <use xlink:href="#DejaVuSans-Oblique-78" transform="translate(63.818359 -16.015625) scale(0.7)"/>
      <use xlink:href="#DejaVuSans-2c" transform="translate(105.244141 -16.015625) scale(0.7)"/>
      <use xlink:href="#DejaVuSans-Oblique-79" transform="translate(141.132812 -16.015625) scale(0.7)"/>
      <use xlink:href="#DejaVuSans-20" transform="translate(185.292969 0.390625)"/>
      <use xlink:href="#DejaVuSans-5b" transform="translate(217.080078 0.390625)"/>
      <use xlink:href="#DejaVuSans-Oblique-6d" transform="translate(256.09375 0.390625)"/>
      <use xlink:href="#DejaVuSans-5d" transform="translate(353.505859 0.390625)"/>
     </g>
    </g>
   </g>
   <g id="line2d_29">
    <path d="M 113.479381 707.658824 
L 115.091384 707.760736 
L 134.596303 708.523022 
L 140.762678 708.258029 
L 142.036742 708.166889 
L 159.107008 706.452306 
L 177.67491 703.544703 
L 196.881026 699.394506 
L 202.800176 699.815204 
L 205.426269 700.731732 
L 223.994171 705.93016 
L 242.318106 708.85786 
L 242.318106 708.85786 
L 246.517952 709.167245 
L 253.405548 709.206314 
L 271.97345 708.188906 
L 291.179566 705.719194 
L 297.098716 705.623153 
L 299.724809 705.941496 
L 318.292711 707.700314 
L 337.501199 708.612415 
L 341.967833 708.519145 
L 347.295306 707.861968 
L 350.633128 707.233598 
L 379.952605 697.820319 
L 387.822277 694.32838 
L 387.822277 694.32838 
L 418.846829 677.629196 
L 419.072118 677.485635 
L 424.763608 672.740402 
L 425.646975 671.811237 
L 425.646975 671.811237 
L 447.823039 644.729911 
L 447.823039 644.729911 
L 451.842061 639.048716 
L 455.873534 634.95816 
L 462.072516 631.386033 
L 478.886128 621.270959 
L 487.524151 615.83208 
L 487.524151 615.83208 
L 554.882943 567.779637 
L 564.999568 559.699024 
L 575.116192 551.392873 
L 586.162427 542.065897 
L 591.660644 537.323205 
L 599.213727 460.035078 
L 600.426726 432.68441 
L 602.670122 378.362204 
L 609.191622 303.255945 
L 610.377349 308.391821 
L 616.898849 429.22877 
L 617.516612 447.091161 
L 617.516612 447.091161 
L 620.118098 515.875466 
L 627.67118 620.895949 
L 630.144607 636.378242 
L 632.278916 648.553749 
L 651.344225 708.650257 
L 654.901406 710.173795 
L 654.901406 710.173795 
L 658.458588 708.650257 
L 677.48951 648.740931 
L 680.660145 630.284169 
L 680.660145 630.284169 
L 682.131632 620.895949 
L 689.684715 604.020977 
L 692.903964 612.306438 
L 699.425464 602.597176 
L 700.611191 595.660371 
L 707.132691 512.753057 
L 709.376087 461.062722 
L 710.589086 430.613264 
L 718.142168 336.416964 
L 724.046497 359.133439 
L 724.046497 359.133439 
L 730.655147 383.714713 
L 735.71346 401.926348 
L 740.771772 419.615059 
L 745.830085 436.780844 
L 750.888397 453.423705 
L 754.919869 466.313589 
L 822.575094 633.067828 
L 824.163968 635.859761 
L 824.163968 635.859761 
L 834.058269 652.084761 
L 834.058269 652.084761 
L 836.525175 655.818463 
L 847.730297 671.21212 
L 852.421627 676.895026 
L 853.929279 678.625838 
L 857.960751 682.311016 
L 859.11565 683.125654 
L 859.11565 683.125654 
L 874.091385 692.57915 
L 885.039204 698.185893 
L 891.614062 701.354915 
L 891.614062 701.354915 
L 898.232791 704.240633 
L 898.232791 704.240633 
L 912.928101 708.534991 
L 912.928101 708.534991 
L 915.183948 708.93628 
L 922.863903 709.787757 
L 929.43876 709.880911 
L 929.43876 709.880911 
L 936.808648 709.292582 
L 936.808648 709.292582 
L 946.182414 707.492034 
L 946.182414 707.492034 
L 958.576821 703.302421 
L 963.195229 701.214514 
L 967.661863 699.995913 
L 971.91981 700.604123 
L 974.554789 701.478646 
L 993.123864 706.376665 
L 1011.4472 709.037949 
L 1011.4472 709.037949 
L 1012.330567 709.111731 
L 1020.479477 709.304506 
L 1020.479477 709.304506 
L 1020.876396 709.299112 
L 1039.445471 708.300258 
L 1061.969839 705.361174 
L 1067.29494 705.631392 
L 1068.858022 705.807317 
L 1087.427097 707.479006 
L 1106.6338 708.396193 
L 1113.622476 708.120454 
L 1115.179629 707.974705 
L 1133.748704 705.534014 
L 1151.511191 701.986242 
L 1169.518475 697.178857 
L 1173.394617 697.226173 
L 1177.765501 698.449692 
L 1196.334576 702.889522 
L 1196.334576 702.889522 
" clip-path="url(#p3fe85068e8)" style="fill: none; stroke: #1f77b4; stroke-width: 2; stroke-linecap: square"/>
   </g>
   <g id="line2d_30">
    <path d="M 113.479381 703.141787 
L 115.091384 702.824129 
L 134.596303 698.320694 
L 138.472446 698.410418 
L 142.036742 699.24616 
L 159.107008 702.616744 
L 177.67491 705.446897 
L 196.881026 707.457612 
L 203.867331 707.354566 
L 205.426269 707.222332 
L 223.994171 705.179124 
L 243.23823 702.149842 
L 246.517952 701.95628 
L 250.773527 702.780607 
L 253.405548 703.610283 
L 271.97345 707.960436 
L 290.296199 709.672457 
L 290.296199 709.672457 
L 291.179566 709.690221 
L 298.165871 709.481505 
L 299.724809 709.355969 
L 317.070519 706.482908 
L 318.292711 706.178304 
L 336.617832 699.998531 
L 336.617832 699.998531 
L 337.501199 699.624243 
L 341.967833 698.885542 
L 346.223408 700.218366 
L 350.633128 702.383492 
L 379.952605 709.842735 
L 381.247419 709.894118 
L 387.822277 709.788173 
L 387.822277 709.788173 
L 417.774932 701.597314 
L 425.646975 697.775629 
L 425.646975 697.775629 
L 447.823039 685.094348 
L 447.823039 685.094348 
L 451.842061 682.31229 
L 456.315217 678.124854 
L 460.454591 673.224103 
L 462.072516 671.213395 
L 473.277638 655.819748 
L 478.886128 647.151174 
L 482.555953 641.131078 
L 482.555953 641.131078 
L 487.524151 632.542544 
L 487.524151 632.542544 
L 554.882943 466.314015 
L 559.941255 450.087806 
L 564.999568 433.338687 
L 570.05788 416.066661 
L 575.116192 398.271732 
L 580.174505 379.953903 
L 586.162427 357.593772 
L 591.660644 336.416964 
L 599.213727 430.613264 
L 600.426726 461.062723 
L 602.670122 512.753057 
L 609.191622 595.660371 
L 610.377349 602.597176 
L 616.898849 612.306438 
L 620.118098 604.020977 
L 627.67118 620.895949 
L 630.144607 636.378242 
L 632.278916 648.553749 
L 651.344225 708.650257 
L 654.901406 710.173795 
L 654.901406 710.173795 
L 658.458588 708.650257 
L 677.48951 648.740931 
L 680.660145 630.284169 
L 680.660145 630.284169 
L 682.131632 620.895949 
L 689.684715 515.875466 
L 690.285878 500.904674 
L 690.285878 500.904674 
L 692.903964 429.22877 
L 699.425464 308.391822 
L 700.611191 303.255945 
L 707.132691 378.362204 
L 709.376087 432.68441 
L 710.589086 460.035078 
L 718.142168 537.323205 
L 729.628308 547.155226 
L 740.771772 556.416123 
L 750.888397 564.586722 
L 754.919869 567.77987 
L 823.28653 616.476206 
L 834.058269 623.20941 
L 834.058269 623.20941 
L 836.525175 624.715439 
L 853.929279 634.959666 
L 857.960751 639.050277 
L 859.11565 640.70711 
L 859.11565 640.70711 
L 874.091385 660.417352 
L 885.039204 672.741908 
L 890.730695 677.592709 
L 891.614062 678.185032 
L 891.614062 678.185032 
L 898.232791 682.447462 
L 898.232791 682.447462 
L 913.99822 691.352203 
L 915.183948 691.950847 
L 922.863903 695.587445 
L 929.43876 698.560143 
L 929.43876 698.560143 
L 936.808648 701.612291 
L 936.808648 701.612291 
L 946.182414 704.795522 
L 946.182414 704.795522 
L 958.576821 707.803276 
L 963.195229 708.574196 
L 967.661863 709.005545 
L 974.554789 709.084325 
L 993.123864 708.22936 
L 1012.330567 706.106461 
L 1018.247346 705.996085 
L 1020.876396 706.248945 
L 1039.445471 707.633311 
L 1058.690117 708.325602 
L 1061.969839 708.276895 
L 1067.29494 707.766411 
L 1068.858022 707.543732 
L 1087.427097 703.878498 
L 1105.750433 698.417619 
L 1105.750433 698.417619 
L 1106.6338 698.108065 
L 1112.550579 698.037767 
L 1115.179629 698.826616 
L 1133.748704 703.583045 
L 1151.511191 706.796313 
L 1169.518475 708.719841 
L 1175.684849 708.814498 
L 1177.765501 708.785321 
L 1196.334576 708.004442 
L 1196.334576 708.004442 
" clip-path="url(#p3fe85068e8)" style="fill: none; stroke: #ff7f0e; stroke-width: 2; stroke-linecap: square"/>
   </g>
   <g id="patch_79">
    <path d="M 113.024062 730.519687 
L 113.024062 282.910052 
" style="fill: none; stroke: #000000; stroke-width: 0.8; stroke-linejoin: miter; stroke-linecap: square"/>
   </g>
   <g id="patch_80">
    <path d="M 1196.77875 730.519687 
L 1196.77875 282.910052 
" style="fill: none; stroke: #000000; stroke-width: 0.8; stroke-linejoin: miter; stroke-linecap: square"/>
   </g>
   <g id="patch_81">
    <path d="M 113.024063 730.519687 
L 1196.77875 730.519687 
" style="fill: none; stroke: #000000; stroke-width: 0.8; stroke-linejoin: miter; stroke-linecap: square"/>
   </g>
   <g id="patch_82">
    <path d="M 113.024063 282.910052 
L 1196.77875 282.910052 
" style="fill: none; stroke: #000000; stroke-width: 0.8; stroke-linejoin: miter; stroke-linecap: square"/>
   </g>
   <g id="legend_3">
    <g id="patch_83">
     <path d="M 129.824063 375.550052 
L 232.544062 375.550052 
Q 237.344063 375.550052 237.344063 370.750052 
L 237.344063 299.710052 
Q 237.344063 294.910052 232.544062 294.910052 
L 129.824063 294.910052 
Q 125.024063 294.910052 125.024063 299.710052 
L 125.024063 370.750052 
Q 125.024063 375.550052 129.824063 375.550052 
z
" style="fill: #ffffff; opacity: 0.8; stroke: #cccccc; stroke-linejoin: miter"/>
    </g>
    <g id="line2d_31">
     <path d="M 134.624063 314.590052 
L 158.624063 314.590052 
L 182.624063 314.590052 
" style="fill: none; stroke: #1f77b4; stroke-width: 2; stroke-linecap: square"/>
    </g>
    <g id="text_35">
     <!-- $\beta_x$ -->
     <g transform="translate(201.824063 322.990052) scale(0.24 -0.24)">
      <use xlink:href="#DejaVuSans-Oblique-3b2" transform="translate(0 0.390625)"/>
      <use xlink:href="#DejaVuSans-Oblique-78" transform="translate(63.818359 -16.015625) scale(0.7)"/>
     </g>
    </g>
    <g id="line2d_32">
     <path d="M 134.624063 350.110052 
L 158.624063 350.110052 
L 182.624063 350.110052 
" style="fill: none; stroke: #ff7f0e; stroke-width: 2; stroke-linecap: square"/>
    </g>
    <g id="text_36">
     <!-- $\beta_y$ -->
     <g transform="translate(201.824063 358.510052) scale(0.24 -0.24)">
      <use xlink:href="#DejaVuSans-Oblique-3b2" transform="translate(0 0.390625)"/>
      <use xlink:href="#DejaVuSans-Oblique-79" transform="translate(63.818359 -16.015625) scale(0.7)"/>
     </g>
    </g>
   </g>
  </g>
  <g id="axes_4">
   <g id="matplotlib.axis_6">
    <g id="ytick_18">
     <g id="line2d_33">
      <g>
       <use xlink:href="#md3c58e1b3d" x="1196.77875" y="730.519687" style="stroke: #000000; stroke-width: 0.8"/>
      </g>
     </g>
     <g id="text_37">
      <!-- −0.5 -->
      <g style="fill: #a52a2a" transform="translate(1203.77875 737.358281) scale(0.18 -0.18)">
       <use xlink:href="#DejaVuSans-2212"/>
       <use xlink:href="#DejaVuSans-30" x="83.789062"/>
       <use xlink:href="#DejaVuSans-2e" x="147.412109"/>
       <use xlink:href="#DejaVuSans-35" x="179.199219"/>
      </g>
     </g>
    </g>
    <g id="ytick_19">
     <g id="line2d_34">
      <g>
       <use xlink:href="#md3c58e1b3d" x="1196.77875" y="655.918082" style="stroke: #000000; stroke-width: 0.8"/>
      </g>
     </g>
     <g id="text_38">
      <!-- 0.0 -->
      <g style="fill: #a52a2a" transform="translate(1203.77875 662.756675) scale(0.18 -0.18)">
       <use xlink:href="#DejaVuSans-30"/>
       <use xlink:href="#DejaVuSans-2e" x="63.623047"/>
       <use xlink:href="#DejaVuSans-30" x="95.410156"/>
      </g>
     </g>
    </g>
    <g id="ytick_20">
     <g id="line2d_35">
      <g>
       <use xlink:href="#md3c58e1b3d" x="1196.77875" y="581.316476" style="stroke: #000000; stroke-width: 0.8"/>
      </g>
     </g>
     <g id="text_39">
      <!-- 0.5 -->
      <g style="fill: #a52a2a" transform="translate(1203.77875 588.155069) scale(0.18 -0.18)">
       <use xlink:href="#DejaVuSans-30"/>
       <use xlink:href="#DejaVuSans-2e" x="63.623047"/>
       <use xlink:href="#DejaVuSans-35" x="95.410156"/>
      </g>
     </g>
    </g>
    <g id="ytick_21">
     <g id="line2d_36">
      <g>
       <use xlink:href="#md3c58e1b3d" x="1196.77875" y="506.71487" style="stroke: #000000; stroke-width: 0.8"/>
      </g>
     </g>
     <g id="text_40">
      <!-- 1.0 -->
      <g style="fill: #a52a2a" transform="translate(1203.77875 513.553464) scale(0.18 -0.18)">
       <use xlink:href="#DejaVuSans-31"/>
       <use xlink:href="#DejaVuSans-2e" x="63.623047"/>
       <use xlink:href="#DejaVuSans-30" x="95.410156"/>
      </g>
     </g>
    </g>
    <g id="ytick_22">
     <g id="line2d_37">
      <g>
       <use xlink:href="#md3c58e1b3d" x="1196.77875" y="432.113264" style="stroke: #000000; stroke-width: 0.8"/>
      </g>
     </g>
     <g id="text_41">
      <!-- 1.5 -->
      <g style="fill: #a52a2a" transform="translate(1203.77875 438.951858) scale(0.18 -0.18)">
       <use xlink:href="#DejaVuSans-31"/>
       <use xlink:href="#DejaVuSans-2e" x="63.623047"/>
       <use xlink:href="#DejaVuSans-35" x="95.410156"/>
      </g>
     </g>
    </g>
    <g id="ytick_23">
     <g id="line2d_38">
      <g>
       <use xlink:href="#md3c58e1b3d" x="1196.77875" y="357.511658" style="stroke: #000000; stroke-width: 0.8"/>
      </g>
     </g>
     <g id="text_42">
      <!-- 2.0 -->
      <g style="fill: #a52a2a" transform="translate(1203.77875 364.350252) scale(0.18 -0.18)">
       <use xlink:href="#DejaVuSans-32"/>
       <use xlink:href="#DejaVuSans-2e" x="63.623047"/>
       <use xlink:href="#DejaVuSans-30" x="95.410156"/>
      </g>
     </g>
    </g>
    <g id="ytick_24">
     <g id="line2d_39">
      <g>
       <use xlink:href="#md3c58e1b3d" x="1196.77875" y="282.910052" style="stroke: #000000; stroke-width: 0.8"/>
      </g>
     </g>
     <g id="text_43">
      <!-- 2.5 -->
      <g style="fill: #a52a2a" transform="translate(1203.77875 289.748646) scale(0.18 -0.18)">
       <use xlink:href="#DejaVuSans-32"/>
       <use xlink:href="#DejaVuSans-2e" x="63.623047"/>
       <use xlink:href="#DejaVuSans-35" x="95.410156"/>
      </g>
     </g>
    </g>
    <g id="text_44">
     <!-- $D_{x,y}$ $[m]$ -->
     <g style="fill: #a52a2a" transform="translate(1268.967813 553.40487) rotate(-90) scale(0.23 -0.23)">
      <defs>
       <path id="DejaVuSans-Oblique-44" d="M 1081 4666 
L 2438 4666 
Q 3519 4666 4070 4208 
Q 4622 3750 4622 2847 
Q 4622 2250 4412 1698 
Q 4203 1147 3834 769 
Q 3463 381 2891 190 
Q 2319 0 1538 0 
L 172 0 
L 1081 4666 
z
M 1613 4147 
L 909 519 
L 1734 519 
Q 2794 519 3375 1128 
Q 3956 1738 3956 2847 
Q 3956 3519 3581 3833 
Q 3206 4147 2406 4147 
L 1613 4147 
z
" transform="scale(0.015625)"/>
      </defs>
      <use xlink:href="#DejaVuSans-Oblique-44" transform="translate(0 0.015625)"/>
      <use xlink:href="#DejaVuSans-Oblique-78" transform="translate(77.001953 -16.390625) scale(0.7)"/>
      <use xlink:href="#DejaVuSans-2c" transform="translate(118.427734 -16.390625) scale(0.7)"/>
      <use xlink:href="#DejaVuSans-Oblique-79" transform="translate(154.316406 -16.390625) scale(0.7)"/>
      <use xlink:href="#DejaVuSans-20" transform="translate(198.476562 0.015625)"/>
      <use xlink:href="#DejaVuSans-5b" transform="translate(230.263672 0.015625)"/>
      <use xlink:href="#DejaVuSans-Oblique-6d" transform="translate(269.277344 0.015625)"/>
      <use xlink:href="#DejaVuSans-5d" transform="translate(366.689453 0.015625)"/>
     </g>
    </g>
   </g>
   <g id="line2d_40">
    <path d="M 113.479381 449.186752 
L 115.091384 452.917334 
L 132.437094 487.371458 
L 134.596303 490.983367 
L 138.272058 490.271386 
L 138.472446 489.85801 
L 140.762678 485.68673 
L 159.107008 454.532851 
L 176.452718 419.386955 
L 177.67491 416.527399 
L 195.02062 370.256336 
L 196.881026 364.710392 
L 202.572517 371.285569 
L 205.426269 386.297841 
L 223.994171 477.503514 
L 242.318106 555.828033 
L 242.318106 555.828033 
L 243.23823 559.487931 
L 246.517952 570.217861 
L 250.773527 578.385713 
L 253.405548 581.536405 
L 270.751258 596.610381 
L 271.97345 597.289208 
L 289.18873 601.244502 
L 291.179566 601.072809 
L 296.871057 605.539033 
L 299.724809 610.195425 
L 317.070519 632.807628 
L 318.292711 634.017573 
L 335.638421 645.498875 
L 337.501199 646.147603 
L 341.967833 647.188613 
L 346.223408 647.35726 
L 387.822277 645.30245 
L 387.822277 645.30245 
L 419.072118 644.36265 
L 425.646975 643.947208 
L 425.646975 643.947208 
L 451.842061 641.624483 
L 457.85192 641.445376 
L 462.072516 641.445376 
L 473.277638 642.241339 
L 559.941255 654.481699 
L 569.03104 655.34263 
L 575.116192 655.702849 
L 584.205977 655.918082 
L 730.655147 655.990125 
L 739.744932 656.420591 
L 745.830085 656.924897 
L 754.919869 658.001061 
L 836.525175 669.594825 
L 847.730297 670.390787 
L 853.929279 670.390787 
L 859.11565 670.67389 
L 859.11565 670.67389 
L 885.039204 672.99162 
L 891.614062 673.292607 
L 891.614062 673.292607 
L 928.555393 673.850271 
L 963.195229 675.52709 
L 967.661863 674.708091 
L 971.91981 672.244669 
L 974.554789 670.250603 
L 991.901086 651.432157 
L 993.123864 649.722075 
L 1010.470161 619.771895 
L 1012.330567 615.976228 
L 1018.247346 599.87027 
L 1020.876396 590.869764 
L 1038.222693 525.794984 
L 1039.445471 520.824294 
L 1057.769993 440.017092 
L 1057.769993 440.017092 
L 1058.690117 435.68647 
L 1061.535863 426.50315 
L 1061.969839 425.753553 
L 1066.001312 427.505408 
L 1068.858022 434.906845 
L 1086.204319 474.160881 
L 1087.427097 476.544636 
L 1104.773394 504.6716 
L 1106.6338 507.104947 
L 1112.32529 503.22145 
L 1115.179629 495.543357 
L 1132.525926 443.193485 
L 1133.748704 439.11988 
L 1151.511191 373.990407 
L 1169.518475 302.451068 
L 1173.194229 302.729765 
L 1177.765501 321.197601 
L 1195.111798 385.20021 
L 1196.334576 389.328635 
L 1196.334576 389.328635 
" clip-path="url(#p3fe85068e8)" style="fill: none; stroke: #a52a2a; stroke-width: 2; stroke-linecap: square"/>
   </g>
   <g id="line2d_41">
    <path d="M 113.479381 655.918082 
L 1196.334576 655.918082 
L 1196.334576 655.918082 
" clip-path="url(#p3fe85068e8)" style="fill: none; stroke-dasharray: 12.8,3.2,2,3.2; stroke-dashoffset: 0; stroke: #a0522d; stroke-width: 2"/>
   </g>
   <g id="line2d_42">
    <path d="M 654.901406 730.519687 
L 654.901406 282.910052 
" clip-path="url(#p3fe85068e8)" style="fill: none; stroke-dasharray: 5.55,2.4; stroke-dashoffset: 0; stroke: #808080; stroke-width: 1.5"/>
   </g>
   <g id="patch_84">
    <path d="M 113.024062 730.519687 
L 113.024062 282.910052 
" style="fill: none; stroke: #000000; stroke-width: 0.8; stroke-linejoin: miter; stroke-linecap: square"/>
   </g>
   <g id="patch_85">
    <path d="M 1196.77875 730.519687 
L 1196.77875 282.910052 
" style="fill: none; stroke: #000000; stroke-width: 0.8; stroke-linejoin: miter; stroke-linecap: square"/>
   </g>
   <g id="patch_86">
    <path d="M 113.024063 730.519687 
L 1196.77875 730.519687 
" style="fill: none; stroke: #000000; stroke-width: 0.8; stroke-linejoin: miter; stroke-linecap: square"/>
   </g>
   <g id="patch_87">
    <path d="M 113.024063 282.910052 
L 1196.77875 282.910052 
" style="fill: none; stroke: #000000; stroke-width: 0.8; stroke-linejoin: miter; stroke-linecap: square"/>
   </g>
   <g id="legend_4">
    <g id="patch_88">
     <path d="M 1073.89875 375.013802 
L 1179.97875 375.013802 
Q 1184.77875 375.013802 1184.77875 370.213802 
L 1184.77875 299.710052 
Q 1184.77875 294.910052 1179.97875 294.910052 
L 1073.89875 294.910052 
Q 1069.09875 294.910052 1069.09875 299.710052 
L 1069.09875 370.213802 
Q 1069.09875 375.013802 1073.89875 375.013802 
z
" style="fill: #ffffff; opacity: 0.8; stroke: #cccccc; stroke-linejoin: miter"/>
    </g>
    <g id="line2d_43">
     <path d="M 1078.69875 314.346302 
L 1102.69875 314.346302 
L 1126.69875 314.346302 
" style="fill: none; stroke: #a52a2a; stroke-width: 2; stroke-linecap: square"/>
    </g>
    <g id="text_45">
     <!-- $D_x$ -->
     <g transform="translate(1145.89875 322.746302) scale(0.24 -0.24)">
      <use xlink:href="#DejaVuSans-Oblique-44" transform="translate(0 0.09375)"/>
      <use xlink:href="#DejaVuSans-Oblique-78" transform="translate(77.001953 -16.3125) scale(0.7)"/>
     </g>
    </g>
    <g id="line2d_44">
     <path d="M 1078.69875 349.573802 
L 1102.69875 349.573802 
L 1126.69875 349.573802 
" style="fill: none; stroke-dasharray: 12.8,3.2,2,3.2; stroke-dashoffset: 0; stroke: #a0522d; stroke-width: 2"/>
    </g>
    <g id="text_46">
     <!-- $D_y$ -->
     <g transform="translate(1145.89875 357.973802) scale(0.24 -0.24)">
      <use xlink:href="#DejaVuSans-Oblique-44" transform="translate(0 0.09375)"/>
      <use xlink:href="#DejaVuSans-Oblique-79" transform="translate(77.001953 -16.3125) scale(0.7)"/>
     </g>
    </g>
   </g>
  </g>
 </g>
 <defs>
  <clipPath id="pbc5175203b">
   <rect x="113.024062" y="38.075625" width="1083.754688" height="202.775208"/>
  </clipPath>
  <clipPath id="p3fe85068e8">
   <rect x="113.024062" y="282.910052" width="1083.754688" height="447.609635"/>
  </clipPath>
 </defs>
</svg>
