<?xml version="1.0" encoding="utf-8" standalone="no"?>
<!DOCTYPE svg PUBLIC "-//W3C//DTD SVG 1.1//EN"
  "http://www.w3.org/Graphics/SVG/1.1/DTD/svg11.dtd">
<svg height="864pt" version="1.1" viewBox="0 0 1440 864" width="1440pt" xmlns="http://www.w3.org/2000/svg" xmlns:xlink="http://www.w3.org/1999/xlink">
 <metadata>
  <rdf:RDF xmlns:cc="http://creativecommons.org/ns#" xmlns:dc="http://purl.org/dc/elements/1.1/" xmlns:rdf="http://www.w3.org/1999/02/22-rdf-syntax-ns#">
   <cc:Work>
    <dc:type rdf:resource="http://purl.org/dc/dcmitype/StillImage"/>
    <dc:date>2022-08-21T23:58:08.498285</dc:date>
    <dc:format>image/svg+xml</dc:format>
    <dc:creator>
     <cc:Agent>
      <dc:title>Matplotlib v3.4.3, https://matplotlib.org/</dc:title>
     </cc:Agent>
    </dc:creator>
   </cc:Work>
  </rdf:RDF>
 </metadata>
 <defs>
  <style type="text/css">*{stroke-linecap:butt;stroke-linejoin:round;}</style>
 </defs>
 <g id="figure_1">
  <g id="patch_1">
   <path d="M 0 864 
L 1440 864 
L 1440 0 
L 0 0 
z
" style="fill:#ffffff;"/>
  </g>
  <g id="axes_1">
   <g id="patch_2">
    <path d="M 72.685313 828.779375 
L 1429.2 828.779375 
L 1429.2 38.075625 
L 72.685313 38.075625 
z
" style="fill:#ffffff;"/>
   </g>
   <g id="patch_3">
    <path clip-path="url(#p6b3feb858b)" d="M 134.345071 828.779375 
L 146.677023 828.779375 
L 146.677023 826.830989 
L 134.345071 826.830989 
z
" style="fill:#1f77b4;opacity:0.6;"/>
   </g>
   <g id="patch_4">
    <path clip-path="url(#p6b3feb858b)" d="M 146.677023 828.779375 
L 159.008974 828.779375 
L 159.008974 825.369699 
L 146.677023 825.369699 
z
" style="fill:#1f77b4;opacity:0.6;"/>
   </g>
   <g id="patch_5">
    <path clip-path="url(#p6b3feb858b)" d="M 159.008974 828.779375 
L 171.340926 828.779375 
L 171.340926 820.498734 
L 159.008974 820.498734 
z
" style="fill:#1f77b4;opacity:0.6;"/>
   </g>
   <g id="patch_6">
    <path clip-path="url(#p6b3feb858b)" d="M 171.340926 828.779375 
L 183.672878 828.779375 
L 183.672878 813.192287 
L 171.340926 813.192287 
z
" style="fill:#1f77b4;opacity:0.6;"/>
   </g>
   <g id="patch_7">
    <path clip-path="url(#p6b3feb858b)" d="M 183.672878 828.779375 
L 196.00483 828.779375 
L 196.00483 797.605199 
L 183.672878 797.605199 
z
" style="fill:#1f77b4;opacity:0.6;"/>
   </g>
   <g id="patch_8">
    <path clip-path="url(#p6b3feb858b)" d="M 196.00483 828.779375 
L 208.336781 828.779375 
L 208.336781 795.656813 
L 196.00483 795.656813 
z
" style="fill:#1f77b4;opacity:0.6;"/>
   </g>
   <g id="patch_9">
    <path clip-path="url(#p6b3feb858b)" d="M 208.336781 828.779375 
L 220.668733 828.779375 
L 220.668733 777.634242 
L 208.336781 777.634242 
z
" style="fill:#1f77b4;opacity:0.6;"/>
   </g>
   <g id="patch_10">
    <path clip-path="url(#p6b3feb858b)" d="M 220.668733 828.779375 
L 233.000685 828.779375 
L 233.000685 759.124575 
L 220.668733 759.124575 
z
" style="fill:#1f77b4;opacity:0.6;"/>
   </g>
   <g id="patch_11">
    <path clip-path="url(#p6b3feb858b)" d="M 233.000685 828.779375 
L 245.332636 828.779375 
L 245.332636 739.640715 
L 233.000685 739.640715 
z
" style="fill:#1f77b4;opacity:0.6;"/>
   </g>
   <g id="patch_12">
    <path clip-path="url(#p6b3feb858b)" d="M 245.332636 828.779375 
L 257.664588 828.779375 
L 257.664588 714.311697 
L 245.332636 714.311697 
z
" style="fill:#1f77b4;opacity:0.6;"/>
   </g>
   <g id="patch_13">
    <path clip-path="url(#p6b3feb858b)" d="M 257.664588 828.779375 
L 269.99654 828.779375 
L 269.99654 688.495583 
L 257.664588 688.495583 
z
" style="fill:#1f77b4;opacity:0.6;"/>
   </g>
   <g id="patch_14">
    <path clip-path="url(#p6b3feb858b)" d="M 269.99654 828.779375 
L 282.328491 828.779375 
L 282.328491 660.731082 
L 269.99654 660.731082 
z
" style="fill:#1f77b4;opacity:0.6;"/>
   </g>
   <g id="patch_15">
    <path clip-path="url(#p6b3feb858b)" d="M 282.328491 828.779375 
L 294.660443 828.779375 
L 294.660443 626.147231 
L 282.328491 626.147231 
z
" style="fill:#1f77b4;opacity:0.6;"/>
   </g>
   <g id="patch_16">
    <path clip-path="url(#p6b3feb858b)" d="M 294.660443 828.779375 
L 306.992395 828.779375 
L 306.992395 597.408537 
L 294.660443 597.408537 
z
" style="fill:#1f77b4;opacity:0.6;"/>
   </g>
   <g id="patch_17">
    <path clip-path="url(#p6b3feb858b)" d="M 306.992395 828.779375 
L 319.324347 828.779375 
L 319.324347 555.031141 
L 306.992395 555.031141 
z
" style="fill:#1f77b4;opacity:0.6;"/>
   </g>
   <g id="patch_18">
    <path clip-path="url(#p6b3feb858b)" d="M 319.324347 828.779375 
L 331.656298 828.779375 
L 331.656298 523.856965 
L 319.324347 523.856965 
z
" style="fill:#1f77b4;opacity:0.6;"/>
   </g>
   <g id="patch_19">
    <path clip-path="url(#p6b3feb858b)" d="M 331.656298 828.779375 
L 343.98825 828.779375 
L 343.98825 472.711833 
L 331.656298 472.711833 
z
" style="fill:#1f77b4;opacity:0.6;"/>
   </g>
   <g id="patch_20">
    <path clip-path="url(#p6b3feb858b)" d="M 343.98825 828.779375 
L 356.320202 828.779375 
L 356.320202 440.563464 
L 343.98825 440.563464 
z
" style="fill:#1f77b4;opacity:0.6;"/>
   </g>
   <g id="patch_21">
    <path clip-path="url(#p6b3feb858b)" d="M 356.320202 828.779375 
L 368.652153 828.779375 
L 368.652153 395.750586 
L 356.320202 395.750586 
z
" style="fill:#1f77b4;opacity:0.6;"/>
   </g>
   <g id="patch_22">
    <path clip-path="url(#p6b3feb858b)" d="M 368.652153 828.779375 
L 380.984105 828.779375 
L 380.984105 354.83448 
L 368.652153 354.83448 
z
" style="fill:#1f77b4;opacity:0.6;"/>
   </g>
   <g id="patch_23">
    <path clip-path="url(#p6b3feb858b)" d="M 380.984105 828.779375 
L 393.316057 828.779375 
L 393.316057 324.634497 
L 380.984105 324.634497 
z
" style="fill:#1f77b4;opacity:0.6;"/>
   </g>
   <g id="patch_24">
    <path clip-path="url(#p6b3feb858b)" d="M 393.316057 828.779375 
L 405.648009 828.779375 
L 405.648009 280.795811 
L 393.316057 280.795811 
z
" style="fill:#1f77b4;opacity:0.6;"/>
   </g>
   <g id="patch_25">
    <path clip-path="url(#p6b3feb858b)" d="M 405.648009 828.779375 
L 417.97996 828.779375 
L 417.97996 241.828091 
L 405.648009 241.828091 
z
" style="fill:#1f77b4;opacity:0.6;"/>
   </g>
   <g id="patch_26">
    <path clip-path="url(#p6b3feb858b)" d="M 417.97996 828.779375 
L 430.311912 828.779375 
L 430.311912 238.418416 
L 417.97996 238.418416 
z
" style="fill:#1f77b4;opacity:0.6;"/>
   </g>
   <g id="patch_27">
    <path clip-path="url(#p6b3feb858b)" d="M 430.311912 828.779375 
L 442.643864 828.779375 
L 442.643864 202.860371 
L 430.311912 202.860371 
z
" style="fill:#1f77b4;opacity:0.6;"/>
   </g>
   <g id="patch_28">
    <path clip-path="url(#p6b3feb858b)" d="M 442.643864 828.779375 
L 454.975815 828.779375 
L 454.975815 166.81523 
L 442.643864 166.81523 
z
" style="fill:#1f77b4;opacity:0.6;"/>
   </g>
   <g id="patch_29">
    <path clip-path="url(#p6b3feb858b)" d="M 454.975815 828.779375 
L 467.307767 828.779375 
L 467.307767 154.637818 
L 454.975815 154.637818 
z
" style="fill:#1f77b4;opacity:0.6;"/>
   </g>
   <g id="patch_30">
    <path clip-path="url(#p6b3feb858b)" d="M 467.307767 828.779375 
L 479.639719 828.779375 
L 479.639719 144.895888 
L 467.307767 144.895888 
z
" style="fill:#1f77b4;opacity:0.6;"/>
   </g>
   <g id="patch_31">
    <path clip-path="url(#p6b3feb858b)" d="M 479.639719 828.779375 
L 491.97167 828.779375 
L 491.97167 102.518492 
L 479.639719 102.518492 
z
" style="fill:#1f77b4;opacity:0.6;"/>
   </g>
   <g id="patch_32">
    <path clip-path="url(#p6b3feb858b)" d="M 491.97167 828.779375 
L 504.303622 828.779375 
L 504.303622 112.747519 
L 491.97167 112.747519 
z
" style="fill:#1f77b4;opacity:0.6;"/>
   </g>
   <g id="patch_33">
    <path clip-path="url(#p6b3feb858b)" d="M 504.303622 828.779375 
L 516.635574 828.779375 
L 516.635574 97.647527 
L 504.303622 97.647527 
z
" style="fill:#1f77b4;opacity:0.6;"/>
   </g>
   <g id="patch_34">
    <path clip-path="url(#p6b3feb858b)" d="M 516.635574 828.779375 
L 528.967526 828.779375 
L 528.967526 80.112053 
L 516.635574 80.112053 
z
" style="fill:#1f77b4;opacity:0.6;"/>
   </g>
   <g id="patch_35">
    <path clip-path="url(#p6b3feb858b)" d="M 528.967526 828.779375 
L 541.299477 828.779375 
L 541.299477 99.108817 
L 528.967526 99.108817 
z
" style="fill:#1f77b4;opacity:0.6;"/>
   </g>
   <g id="patch_36">
    <path clip-path="url(#p6b3feb858b)" d="M 541.299477 828.779375 
L 553.631429 828.779375 
L 553.631429 75.728185 
L 541.299477 75.728185 
z
" style="fill:#1f77b4;opacity:0.6;"/>
   </g>
   <g id="patch_37">
    <path clip-path="url(#p6b3feb858b)" d="M 553.631429 828.779375 
L 565.963381 828.779375 
L 565.963381 137.58944 
L 553.631429 137.58944 
z
" style="fill:#1f77b4;opacity:0.6;"/>
   </g>
   <g id="patch_38">
    <path clip-path="url(#p6b3feb858b)" d="M 565.963381 828.779375 
L 578.295332 828.779375 
L 578.295332 159.508783 
L 565.963381 159.508783 
z
" style="fill:#1f77b4;opacity:0.6;"/>
   </g>
   <g id="patch_39">
    <path clip-path="url(#p6b3feb858b)" d="M 578.295332 828.779375 
L 590.627284 828.779375 
L 590.627284 155.124914 
L 578.295332 155.124914 
z
" style="fill:#1f77b4;opacity:0.6;"/>
   </g>
   <g id="patch_40">
    <path clip-path="url(#p6b3feb858b)" d="M 590.627284 828.779375 
L 602.959236 828.779375 
L 602.959236 172.660388 
L 590.627284 172.660388 
z
" style="fill:#1f77b4;opacity:0.6;"/>
   </g>
   <g id="patch_41">
    <path clip-path="url(#p6b3feb858b)" d="M 602.959236 828.779375 
L 615.291187 828.779375 
L 615.291187 190.195862 
L 602.959236 190.195862 
z
" style="fill:#1f77b4;opacity:0.6;"/>
   </g>
   <g id="patch_42">
    <path clip-path="url(#p6b3feb858b)" d="M 615.291187 828.779375 
L 627.623139 828.779375 
L 627.623139 216.499073 
L 615.291187 216.499073 
z
" style="fill:#1f77b4;opacity:0.6;"/>
   </g>
   <g id="patch_43">
    <path clip-path="url(#p6b3feb858b)" d="M 627.623139 828.779375 
L 639.955091 828.779375 
L 639.955091 213.089398 
L 627.623139 213.089398 
z
" style="fill:#1f77b4;opacity:0.6;"/>
   </g>
   <g id="patch_44">
    <path clip-path="url(#p6b3feb858b)" d="M 639.955091 828.779375 
L 652.287043 828.779375 
L 652.287043 270.079688 
L 639.955091 270.079688 
z
" style="fill:#1f77b4;opacity:0.6;"/>
   </g>
   <g id="patch_45">
    <path clip-path="url(#p6b3feb858b)" d="M 652.287043 828.779375 
L 664.618994 828.779375 
L 664.618994 326.095786 
L 652.287043 326.095786 
z
" style="fill:#1f77b4;opacity:0.6;"/>
   </g>
   <g id="patch_46">
    <path clip-path="url(#p6b3feb858b)" d="M 664.618994 828.779375 
L 676.950946 828.779375 
L 676.950946 324.634497 
L 664.618994 324.634497 
z
" style="fill:#1f77b4;opacity:0.6;"/>
   </g>
   <g id="patch_47">
    <path clip-path="url(#p6b3feb858b)" d="M 676.950946 828.779375 
L 689.282898 828.779375 
L 689.282898 347.528032 
L 676.950946 347.528032 
z
" style="fill:#1f77b4;opacity:0.6;"/>
   </g>
   <g id="patch_48">
    <path clip-path="url(#p6b3feb858b)" d="M 689.282898 828.779375 
L 701.614849 828.779375 
L 701.614849 382.111884 
L 689.282898 382.111884 
z
" style="fill:#1f77b4;opacity:0.6;"/>
   </g>
   <g id="patch_49">
    <path clip-path="url(#p6b3feb858b)" d="M 701.614849 828.779375 
L 713.946801 828.779375 
L 713.946801 393.315103 
L 701.614849 393.315103 
z
" style="fill:#1f77b4;opacity:0.6;"/>
   </g>
   <g id="patch_50">
    <path clip-path="url(#p6b3feb858b)" d="M 713.946801 828.779375 
L 726.278753 828.779375 
L 726.278753 439.102174 
L 713.946801 439.102174 
z
" style="fill:#1f77b4;opacity:0.6;"/>
   </g>
   <g id="patch_51">
    <path clip-path="url(#p6b3feb858b)" d="M 726.278753 828.779375 
L 738.610705 828.779375 
L 738.610705 461.021517 
L 726.278753 461.021517 
z
" style="fill:#1f77b4;opacity:0.6;"/>
   </g>
   <g id="patch_52">
    <path clip-path="url(#p6b3feb858b)" d="M 738.610705 828.779375 
L 750.942656 828.779375 
L 750.942656 498.040851 
L 738.610705 498.040851 
z
" style="fill:#1f77b4;opacity:0.6;"/>
   </g>
   <g id="patch_53">
    <path clip-path="url(#p6b3feb858b)" d="M 750.942656 828.779375 
L 763.274608 828.779375 
L 763.274608 491.2215 
L 750.942656 491.2215 
z
" style="fill:#1f77b4;opacity:0.6;"/>
   </g>
   <g id="patch_54">
    <path clip-path="url(#p6b3feb858b)" d="M 763.274608 828.779375 
L 775.60656 828.779375 
L 775.60656 542.366632 
L 763.274608 542.366632 
z
" style="fill:#1f77b4;opacity:0.6;"/>
   </g>
   <g id="patch_55">
    <path clip-path="url(#p6b3feb858b)" d="M 775.60656 828.779375 
L 787.938511 828.779375 
L 787.938511 573.053712 
L 775.60656 573.053712 
z
" style="fill:#1f77b4;opacity:0.6;"/>
   </g>
   <g id="patch_56">
    <path clip-path="url(#p6b3feb858b)" d="M 787.938511 828.779375 
L 800.270463 828.779375 
L 800.270463 574.515002 
L 787.938511 574.515002 
z
" style="fill:#1f77b4;opacity:0.6;"/>
   </g>
   <g id="patch_57">
    <path clip-path="url(#p6b3feb858b)" d="M 800.270463 828.779375 
L 812.602415 828.779375 
L 812.602415 607.150467 
L 800.270463 607.150467 
z
" style="fill:#1f77b4;opacity:0.6;"/>
   </g>
   <g id="patch_58">
    <path clip-path="url(#p6b3feb858b)" d="M 812.602415 828.779375 
L 824.934366 828.779375 
L 824.934366 620.789169 
L 812.602415 620.789169 
z
" style="fill:#1f77b4;opacity:0.6;"/>
   </g>
   <g id="patch_59">
    <path clip-path="url(#p6b3feb858b)" d="M 824.934366 828.779375 
L 837.266318 828.779375 
L 837.266318 627.60852 
L 824.934366 627.60852 
z
" style="fill:#1f77b4;opacity:0.6;"/>
   </g>
   <g id="patch_60">
    <path clip-path="url(#p6b3feb858b)" d="M 837.266318 828.779375 
L 849.59827 828.779375 
L 849.59827 664.140758 
L 837.266318 664.140758 
z
" style="fill:#1f77b4;opacity:0.6;"/>
   </g>
   <g id="patch_61">
    <path clip-path="url(#p6b3feb858b)" d="M 849.59827 828.779375 
L 861.930222 828.779375 
L 861.930222 687.52139 
L 849.59827 687.52139 
z
" style="fill:#1f77b4;opacity:0.6;"/>
   </g>
   <g id="patch_62">
    <path clip-path="url(#p6b3feb858b)" d="M 861.930222 828.779375 
L 874.262173 828.779375 
L 874.262173 707.00525 
L 861.930222 707.00525 
z
" style="fill:#1f77b4;opacity:0.6;"/>
   </g>
   <g id="patch_63">
    <path clip-path="url(#p6b3feb858b)" d="M 874.262173 828.779375 
L 886.594125 828.779375 
L 886.594125 717.721373 
L 874.262173 717.721373 
z
" style="fill:#1f77b4;opacity:0.6;"/>
   </g>
   <g id="patch_64">
    <path clip-path="url(#p6b3feb858b)" d="M 886.594125 828.779375 
L 898.926077 828.779375 
L 898.926077 726.976206 
L 886.594125 726.976206 
z
" style="fill:#1f77b4;opacity:0.6;"/>
   </g>
   <g id="patch_65">
    <path clip-path="url(#p6b3feb858b)" d="M 898.926077 828.779375 
L 911.258028 828.779375 
L 911.258028 739.640715 
L 898.926077 739.640715 
z
" style="fill:#1f77b4;opacity:0.6;"/>
   </g>
   <g id="patch_66">
    <path clip-path="url(#p6b3feb858b)" d="M 911.258028 828.779375 
L 923.58998 828.779375 
L 923.58998 732.821364 
L 911.258028 732.821364 
z
" style="fill:#1f77b4;opacity:0.6;"/>
   </g>
   <g id="patch_67">
    <path clip-path="url(#p6b3feb858b)" d="M 923.58998 828.779375 
L 935.921932 828.779375 
L 935.921932 753.279417 
L 923.58998 753.279417 
z
" style="fill:#1f77b4;opacity:0.6;"/>
   </g>
   <g id="patch_68">
    <path clip-path="url(#p6b3feb858b)" d="M 935.921932 828.779375 
L 948.253884 828.779375 
L 948.253884 766.918119 
L 935.921932 766.918119 
z
" style="fill:#1f77b4;opacity:0.6;"/>
   </g>
   <g id="patch_69">
    <path clip-path="url(#p6b3feb858b)" d="M 948.253884 828.779375 
L 960.585835 828.779375 
L 960.585835 782.992304 
L 948.253884 782.992304 
z
" style="fill:#1f77b4;opacity:0.6;"/>
   </g>
   <g id="patch_70">
    <path clip-path="url(#p6b3feb858b)" d="M 960.585835 828.779375 
L 972.917787 828.779375 
L 972.917787 783.966497 
L 960.585835 783.966497 
z
" style="fill:#1f77b4;opacity:0.6;"/>
   </g>
   <g id="patch_71">
    <path clip-path="url(#p6b3feb858b)" d="M 972.917787 828.779375 
L 985.249739 828.779375 
L 985.249739 781.531014 
L 972.917787 781.531014 
z
" style="fill:#1f77b4;opacity:0.6;"/>
   </g>
   <g id="patch_72">
    <path clip-path="url(#p6b3feb858b)" d="M 985.249739 828.779375 
L 997.58169 828.779375 
L 997.58169 793.22133 
L 985.249739 793.22133 
z
" style="fill:#1f77b4;opacity:0.6;"/>
   </g>
   <g id="patch_73">
    <path clip-path="url(#p6b3feb858b)" d="M 997.58169 828.779375 
L 1009.913642 828.779375 
L 1009.913642 788.837462 
L 997.58169 788.837462 
z
" style="fill:#1f77b4;opacity:0.6;"/>
   </g>
   <g id="patch_74">
    <path clip-path="url(#p6b3feb858b)" d="M 1009.913642 828.779375 
L 1022.245594 828.779375 
L 1022.245594 800.527778 
L 1009.913642 800.527778 
z
" style="fill:#1f77b4;opacity:0.6;"/>
   </g>
   <g id="patch_75">
    <path clip-path="url(#p6b3feb858b)" d="M 1022.245594 828.779375 
L 1034.577545 828.779375 
L 1034.577545 810.756804 
L 1022.245594 810.756804 
z
" style="fill:#1f77b4;opacity:0.6;"/>
   </g>
   <g id="patch_76">
    <path clip-path="url(#p6b3feb858b)" d="M 1034.577545 828.779375 
L 1046.909497 828.779375 
L 1046.909497 808.321322 
L 1034.577545 808.321322 
z
" style="fill:#1f77b4;opacity:0.6;"/>
   </g>
   <g id="patch_77">
    <path clip-path="url(#p6b3feb858b)" d="M 1046.909497 828.779375 
L 1059.241449 828.779375 
L 1059.241449 814.653576 
L 1046.909497 814.653576 
z
" style="fill:#1f77b4;opacity:0.6;"/>
   </g>
   <g id="patch_78">
    <path clip-path="url(#p6b3feb858b)" d="M 1059.241449 828.779375 
L 1071.573401 828.779375 
L 1071.573401 815.140673 
L 1059.241449 815.140673 
z
" style="fill:#1f77b4;opacity:0.6;"/>
   </g>
   <g id="patch_79">
    <path clip-path="url(#p6b3feb858b)" d="M 1071.573401 828.779375 
L 1083.905352 828.779375 
L 1083.905352 818.063252 
L 1071.573401 818.063252 
z
" style="fill:#1f77b4;opacity:0.6;"/>
   </g>
   <g id="patch_80">
    <path clip-path="url(#p6b3feb858b)" d="M 1083.905352 828.779375 
L 1096.237304 828.779375 
L 1096.237304 818.550348 
L 1083.905352 818.550348 
z
" style="fill:#1f77b4;opacity:0.6;"/>
   </g>
   <g id="patch_81">
    <path clip-path="url(#p6b3feb858b)" d="M 1096.237304 828.779375 
L 1108.569256 828.779375 
L 1108.569256 819.524541 
L 1096.237304 819.524541 
z
" style="fill:#1f77b4;opacity:0.6;"/>
   </g>
   <g id="patch_82">
    <path clip-path="url(#p6b3feb858b)" d="M 1108.569256 828.779375 
L 1120.901207 828.779375 
L 1120.901207 821.472927 
L 1108.569256 821.472927 
z
" style="fill:#1f77b4;opacity:0.6;"/>
   </g>
   <g id="patch_83">
    <path clip-path="url(#p6b3feb858b)" d="M 1120.901207 828.779375 
L 1133.233159 828.779375 
L 1133.233159 822.44712 
L 1120.901207 822.44712 
z
" style="fill:#1f77b4;opacity:0.6;"/>
   </g>
   <g id="patch_84">
    <path clip-path="url(#p6b3feb858b)" d="M 1133.233159 828.779375 
L 1145.565111 828.779375 
L 1145.565111 821.960024 
L 1133.233159 821.960024 
z
" style="fill:#1f77b4;opacity:0.6;"/>
   </g>
   <g id="patch_85">
    <path clip-path="url(#p6b3feb858b)" d="M 1145.565111 828.779375 
L 1157.897062 828.779375 
L 1157.897062 822.44712 
L 1145.565111 822.44712 
z
" style="fill:#1f77b4;opacity:0.6;"/>
   </g>
   <g id="patch_86">
    <path clip-path="url(#p6b3feb858b)" d="M 1157.897062 828.779375 
L 1170.229014 828.779375 
L 1170.229014 826.343892 
L 1157.897062 826.343892 
z
" style="fill:#1f77b4;opacity:0.6;"/>
   </g>
   <g id="patch_87">
    <path clip-path="url(#p6b3feb858b)" d="M 1170.229014 828.779375 
L 1182.560966 828.779375 
L 1182.560966 826.830989 
L 1170.229014 826.830989 
z
" style="fill:#1f77b4;opacity:0.6;"/>
   </g>
   <g id="patch_88">
    <path clip-path="url(#p6b3feb858b)" d="M 1182.560966 828.779375 
L 1194.892918 828.779375 
L 1194.892918 824.882603 
L 1182.560966 824.882603 
z
" style="fill:#1f77b4;opacity:0.6;"/>
   </g>
   <g id="patch_89">
    <path clip-path="url(#p6b3feb858b)" d="M 1194.892918 828.779375 
L 1207.224869 828.779375 
L 1207.224869 826.343892 
L 1194.892918 826.343892 
z
" style="fill:#1f77b4;opacity:0.6;"/>
   </g>
   <g id="patch_90">
    <path clip-path="url(#p6b3feb858b)" d="M 1207.224869 828.779375 
L 1219.556821 828.779375 
L 1219.556821 828.292278 
L 1207.224869 828.292278 
z
" style="fill:#1f77b4;opacity:0.6;"/>
   </g>
   <g id="patch_91">
    <path clip-path="url(#p6b3feb858b)" d="M 1219.556821 828.779375 
L 1231.888773 828.779375 
L 1231.888773 827.318085 
L 1219.556821 827.318085 
z
" style="fill:#1f77b4;opacity:0.6;"/>
   </g>
   <g id="patch_92">
    <path clip-path="url(#p6b3feb858b)" d="M 1231.888773 828.779375 
L 1244.220724 828.779375 
L 1244.220724 827.318085 
L 1231.888773 827.318085 
z
" style="fill:#1f77b4;opacity:0.6;"/>
   </g>
   <g id="patch_93">
    <path clip-path="url(#p6b3feb858b)" d="M 1244.220724 828.779375 
L 1256.552676 828.779375 
L 1256.552676 828.292278 
L 1244.220724 828.292278 
z
" style="fill:#1f77b4;opacity:0.6;"/>
   </g>
   <g id="patch_94">
    <path clip-path="url(#p6b3feb858b)" d="M 1256.552676 828.779375 
L 1268.884628 828.779375 
L 1268.884628 828.292278 
L 1256.552676 828.292278 
z
" style="fill:#1f77b4;opacity:0.6;"/>
   </g>
   <g id="patch_95">
    <path clip-path="url(#p6b3feb858b)" d="M 1268.884628 828.779375 
L 1281.21658 828.779375 
L 1281.21658 827.805182 
L 1268.884628 827.805182 
z
" style="fill:#1f77b4;opacity:0.6;"/>
   </g>
   <g id="patch_96">
    <path clip-path="url(#p6b3feb858b)" d="M 1281.21658 828.779375 
L 1293.548531 828.779375 
L 1293.548531 828.779375 
L 1281.21658 828.779375 
z
" style="fill:#1f77b4;opacity:0.6;"/>
   </g>
   <g id="patch_97">
    <path clip-path="url(#p6b3feb858b)" d="M 1293.548531 828.779375 
L 1305.880483 828.779375 
L 1305.880483 828.779375 
L 1293.548531 828.779375 
z
" style="fill:#1f77b4;opacity:0.6;"/>
   </g>
   <g id="patch_98">
    <path clip-path="url(#p6b3feb858b)" d="M 1305.880483 828.779375 
L 1318.212435 828.779375 
L 1318.212435 828.292278 
L 1305.880483 828.292278 
z
" style="fill:#1f77b4;opacity:0.6;"/>
   </g>
   <g id="patch_99">
    <path clip-path="url(#p6b3feb858b)" d="M 1318.212435 828.779375 
L 1330.544386 828.779375 
L 1330.544386 828.292278 
L 1318.212435 828.292278 
z
" style="fill:#1f77b4;opacity:0.6;"/>
   </g>
   <g id="patch_100">
    <path clip-path="url(#p6b3feb858b)" d="M 1330.544386 828.779375 
L 1342.876338 828.779375 
L 1342.876338 828.292278 
L 1330.544386 828.292278 
z
" style="fill:#1f77b4;opacity:0.6;"/>
   </g>
   <g id="patch_101">
    <path clip-path="url(#p6b3feb858b)" d="M 1342.876338 828.779375 
L 1355.20829 828.779375 
L 1355.20829 828.779375 
L 1342.876338 828.779375 
z
" style="fill:#1f77b4;opacity:0.6;"/>
   </g>
   <g id="patch_102">
    <path clip-path="url(#p6b3feb858b)" d="M 1355.20829 828.779375 
L 1367.540241 828.779375 
L 1367.540241 828.292278 
L 1355.20829 828.292278 
z
" style="fill:#1f77b4;opacity:0.6;"/>
   </g>
   <g id="matplotlib.axis_1">
    <g id="xtick_1">
     <g id="line2d_1">
      <defs>
       <path d="M 0 0 
L 0 3.5 
" id="m4f6f6afcae" style="stroke:#000000;stroke-width:0.8;"/>
      </defs>
      <g>
       <use style="stroke:#000000;stroke-width:0.8;" x="108.527348" xlink:href="#m4f6f6afcae" y="828.779375"/>
      </g>
     </g>
     <g id="text_1">
      <!-- 0 -->
      <g transform="translate(102.801098 849.456562)scale(0.18 -0.18)">
       <defs>
        <path d="M 2034 4250 
Q 1547 4250 1301 3770 
Q 1056 3291 1056 2328 
Q 1056 1369 1301 889 
Q 1547 409 2034 409 
Q 2525 409 2770 889 
Q 3016 1369 3016 2328 
Q 3016 3291 2770 3770 
Q 2525 4250 2034 4250 
z
M 2034 4750 
Q 2819 4750 3233 4129 
Q 3647 3509 3647 2328 
Q 3647 1150 3233 529 
Q 2819 -91 2034 -91 
Q 1250 -91 836 529 
Q 422 1150 422 2328 
Q 422 3509 836 4129 
Q 1250 4750 2034 4750 
z
" id="DejaVuSans-30" transform="scale(0.015625)"/>
       </defs>
       <use xlink:href="#DejaVuSans-30"/>
      </g>
     </g>
    </g>
    <g id="xtick_2">
     <g id="line2d_2">
      <g>
       <use style="stroke:#000000;stroke-width:0.8;" x="347.637267" xlink:href="#m4f6f6afcae" y="828.779375"/>
      </g>
     </g>
     <g id="text_2">
      <!-- 1 -->
      <g transform="translate(341.911017 849.456562)scale(0.18 -0.18)">
       <defs>
        <path d="M 794 531 
L 1825 531 
L 1825 4091 
L 703 3866 
L 703 4441 
L 1819 4666 
L 2450 4666 
L 2450 531 
L 3481 531 
L 3481 0 
L 794 0 
L 794 531 
z
" id="DejaVuSans-31" transform="scale(0.015625)"/>
       </defs>
       <use xlink:href="#DejaVuSans-31"/>
      </g>
     </g>
    </g>
    <g id="xtick_3">
     <g id="line2d_3">
      <g>
       <use style="stroke:#000000;stroke-width:0.8;" x="586.747185" xlink:href="#m4f6f6afcae" y="828.779375"/>
      </g>
     </g>
     <g id="text_3">
      <!-- 2 -->
      <g transform="translate(581.020935 849.456562)scale(0.18 -0.18)">
       <defs>
        <path d="M 1228 531 
L 3431 531 
L 3431 0 
L 469 0 
L 469 531 
Q 828 903 1448 1529 
Q 2069 2156 2228 2338 
Q 2531 2678 2651 2914 
Q 2772 3150 2772 3378 
Q 2772 3750 2511 3984 
Q 2250 4219 1831 4219 
Q 1534 4219 1204 4116 
Q 875 4013 500 3803 
L 500 4441 
Q 881 4594 1212 4672 
Q 1544 4750 1819 4750 
Q 2544 4750 2975 4387 
Q 3406 4025 3406 3419 
Q 3406 3131 3298 2873 
Q 3191 2616 2906 2266 
Q 2828 2175 2409 1742 
Q 1991 1309 1228 531 
z
" id="DejaVuSans-32" transform="scale(0.015625)"/>
       </defs>
       <use xlink:href="#DejaVuSans-32"/>
      </g>
     </g>
    </g>
    <g id="xtick_4">
     <g id="line2d_4">
      <g>
       <use style="stroke:#000000;stroke-width:0.8;" x="825.857104" xlink:href="#m4f6f6afcae" y="828.779375"/>
      </g>
     </g>
     <g id="text_4">
      <!-- 3 -->
      <g transform="translate(820.130854 849.456562)scale(0.18 -0.18)">
       <defs>
        <path d="M 2597 2516 
Q 3050 2419 3304 2112 
Q 3559 1806 3559 1356 
Q 3559 666 3084 287 
Q 2609 -91 1734 -91 
Q 1441 -91 1130 -33 
Q 819 25 488 141 
L 488 750 
Q 750 597 1062 519 
Q 1375 441 1716 441 
Q 2309 441 2620 675 
Q 2931 909 2931 1356 
Q 2931 1769 2642 2001 
Q 2353 2234 1838 2234 
L 1294 2234 
L 1294 2753 
L 1863 2753 
Q 2328 2753 2575 2939 
Q 2822 3125 2822 3475 
Q 2822 3834 2567 4026 
Q 2313 4219 1838 4219 
Q 1578 4219 1281 4162 
Q 984 4106 628 3988 
L 628 4550 
Q 988 4650 1302 4700 
Q 1616 4750 1894 4750 
Q 2613 4750 3031 4423 
Q 3450 4097 3450 3541 
Q 3450 3153 3228 2886 
Q 3006 2619 2597 2516 
z
" id="DejaVuSans-33" transform="scale(0.015625)"/>
       </defs>
       <use xlink:href="#DejaVuSans-33"/>
      </g>
     </g>
    </g>
    <g id="xtick_5">
     <g id="line2d_5">
      <g>
       <use style="stroke:#000000;stroke-width:0.8;" x="1064.967023" xlink:href="#m4f6f6afcae" y="828.779375"/>
      </g>
     </g>
     <g id="text_5">
      <!-- 4 -->
      <g transform="translate(1059.240773 849.456562)scale(0.18 -0.18)">
       <defs>
        <path d="M 2419 4116 
L 825 1625 
L 2419 1625 
L 2419 4116 
z
M 2253 4666 
L 3047 4666 
L 3047 1625 
L 3713 1625 
L 3713 1100 
L 3047 1100 
L 3047 0 
L 2419 0 
L 2419 1100 
L 313 1100 
L 313 1709 
L 2253 4666 
z
" id="DejaVuSans-34" transform="scale(0.015625)"/>
       </defs>
       <use xlink:href="#DejaVuSans-34"/>
      </g>
     </g>
    </g>
    <g id="xtick_6">
     <g id="line2d_6">
      <g>
       <use style="stroke:#000000;stroke-width:0.8;" x="1304.076942" xlink:href="#m4f6f6afcae" y="828.779375"/>
      </g>
     </g>
     <g id="text_6">
      <!-- 5 -->
      <g transform="translate(1298.350692 849.456562)scale(0.18 -0.18)">
       <defs>
        <path d="M 691 4666 
L 3169 4666 
L 3169 4134 
L 1269 4134 
L 1269 2991 
Q 1406 3038 1543 3061 
Q 1681 3084 1819 3084 
Q 2600 3084 3056 2656 
Q 3513 2228 3513 1497 
Q 3513 744 3044 326 
Q 2575 -91 1722 -91 
Q 1428 -91 1123 -41 
Q 819 9 494 109 
L 494 744 
Q 775 591 1075 516 
Q 1375 441 1709 441 
Q 2250 441 2565 725 
Q 2881 1009 2881 1497 
Q 2881 1984 2565 2268 
Q 2250 2553 1709 2553 
Q 1456 2553 1204 2497 
Q 953 2441 691 2322 
L 691 4666 
z
" id="DejaVuSans-35" transform="scale(0.015625)"/>
       </defs>
       <use xlink:href="#DejaVuSans-35"/>
      </g>
     </g>
    </g>
   </g>
   <g id="matplotlib.axis_2">
    <g id="ytick_1">
     <g id="line2d_7">
      <defs>
       <path d="M 0 0 
L -3.5 0 
" id="m3b664f020a" style="stroke:#000000;stroke-width:0.8;"/>
      </defs>
      <g>
       <use style="stroke:#000000;stroke-width:0.8;" x="72.685313" xlink:href="#m3b664f020a" y="828.779375"/>
      </g>
     </g>
     <g id="text_7">
      <!-- 0.0 -->
      <g transform="translate(37.059688 835.617969)scale(0.18 -0.18)">
       <defs>
        <path d="M 684 794 
L 1344 794 
L 1344 0 
L 684 0 
L 684 794 
z
" id="DejaVuSans-2e" transform="scale(0.015625)"/>
       </defs>
       <use xlink:href="#DejaVuSans-30"/>
       <use x="63.623047" xlink:href="#DejaVuSans-2e"/>
       <use x="95.410156" xlink:href="#DejaVuSans-30"/>
      </g>
     </g>
    </g>
    <g id="ytick_2">
     <g id="line2d_8">
      <g>
       <use style="stroke:#000000;stroke-width:0.8;" x="72.685313" xlink:href="#m3b664f020a" y="703.170815"/>
      </g>
     </g>
     <g id="text_8">
      <!-- 0.1 -->
      <g transform="translate(37.059688 710.009409)scale(0.18 -0.18)">
       <use xlink:href="#DejaVuSans-30"/>
       <use x="63.623047" xlink:href="#DejaVuSans-2e"/>
       <use x="95.410156" xlink:href="#DejaVuSans-31"/>
      </g>
     </g>
    </g>
    <g id="ytick_3">
     <g id="line2d_9">
      <g>
       <use style="stroke:#000000;stroke-width:0.8;" x="72.685313" xlink:href="#m3b664f020a" y="577.562255"/>
      </g>
     </g>
     <g id="text_9">
      <!-- 0.2 -->
      <g transform="translate(37.059688 584.400848)scale(0.18 -0.18)">
       <use xlink:href="#DejaVuSans-30"/>
       <use x="63.623047" xlink:href="#DejaVuSans-2e"/>
       <use x="95.410156" xlink:href="#DejaVuSans-32"/>
      </g>
     </g>
    </g>
    <g id="ytick_4">
     <g id="line2d_10">
      <g>
       <use style="stroke:#000000;stroke-width:0.8;" x="72.685313" xlink:href="#m3b664f020a" y="451.953694"/>
      </g>
     </g>
     <g id="text_10">
      <!-- 0.3 -->
      <g transform="translate(37.059688 458.792288)scale(0.18 -0.18)">
       <use xlink:href="#DejaVuSans-30"/>
       <use x="63.623047" xlink:href="#DejaVuSans-2e"/>
       <use x="95.410156" xlink:href="#DejaVuSans-33"/>
      </g>
     </g>
    </g>
    <g id="ytick_5">
     <g id="line2d_11">
      <g>
       <use style="stroke:#000000;stroke-width:0.8;" x="72.685313" xlink:href="#m3b664f020a" y="326.345134"/>
      </g>
     </g>
     <g id="text_11">
      <!-- 0.4 -->
      <g transform="translate(37.059688 333.183728)scale(0.18 -0.18)">
       <use xlink:href="#DejaVuSans-30"/>
       <use x="63.623047" xlink:href="#DejaVuSans-2e"/>
       <use x="95.410156" xlink:href="#DejaVuSans-34"/>
      </g>
     </g>
    </g>
    <g id="ytick_6">
     <g id="line2d_12">
      <g>
       <use style="stroke:#000000;stroke-width:0.8;" x="72.685313" xlink:href="#m3b664f020a" y="200.736574"/>
      </g>
     </g>
     <g id="text_12">
      <!-- 0.5 -->
      <g transform="translate(37.059688 207.575168)scale(0.18 -0.18)">
       <use xlink:href="#DejaVuSans-30"/>
       <use x="63.623047" xlink:href="#DejaVuSans-2e"/>
       <use x="95.410156" xlink:href="#DejaVuSans-35"/>
      </g>
     </g>
    </g>
    <g id="ytick_7">
     <g id="line2d_13">
      <g>
       <use style="stroke:#000000;stroke-width:0.8;" x="72.685313" xlink:href="#m3b664f020a" y="75.128014"/>
      </g>
     </g>
     <g id="text_13">
      <!-- 0.6 -->
      <g transform="translate(37.059688 81.966608)scale(0.18 -0.18)">
       <defs>
        <path d="M 2113 2584 
Q 1688 2584 1439 2293 
Q 1191 2003 1191 1497 
Q 1191 994 1439 701 
Q 1688 409 2113 409 
Q 2538 409 2786 701 
Q 3034 994 3034 1497 
Q 3034 2003 2786 2293 
Q 2538 2584 2113 2584 
z
M 3366 4563 
L 3366 3988 
Q 3128 4100 2886 4159 
Q 2644 4219 2406 4219 
Q 1781 4219 1451 3797 
Q 1122 3375 1075 2522 
Q 1259 2794 1537 2939 
Q 1816 3084 2150 3084 
Q 2853 3084 3261 2657 
Q 3669 2231 3669 1497 
Q 3669 778 3244 343 
Q 2819 -91 2113 -91 
Q 1303 -91 875 529 
Q 447 1150 447 2328 
Q 447 3434 972 4092 
Q 1497 4750 2381 4750 
Q 2619 4750 2861 4703 
Q 3103 4656 3366 4563 
z
" id="DejaVuSans-36" transform="scale(0.015625)"/>
       </defs>
       <use xlink:href="#DejaVuSans-30"/>
       <use x="63.623047" xlink:href="#DejaVuSans-2e"/>
       <use x="95.410156" xlink:href="#DejaVuSans-36"/>
      </g>
     </g>
    </g>
    <g id="text_14">
     <!-- Normed Hist Counts -->
     <g transform="translate(28.276406 548.966563)rotate(-90)scale(0.23 -0.23)">
      <defs>
       <path d="M 628 4666 
L 1478 4666 
L 3547 763 
L 3547 4666 
L 4159 4666 
L 4159 0 
L 3309 0 
L 1241 3903 
L 1241 0 
L 628 0 
L 628 4666 
z
" id="DejaVuSans-4e" transform="scale(0.015625)"/>
       <path d="M 1959 3097 
Q 1497 3097 1228 2736 
Q 959 2375 959 1747 
Q 959 1119 1226 758 
Q 1494 397 1959 397 
Q 2419 397 2687 759 
Q 2956 1122 2956 1747 
Q 2956 2369 2687 2733 
Q 2419 3097 1959 3097 
z
M 1959 3584 
Q 2709 3584 3137 3096 
Q 3566 2609 3566 1747 
Q 3566 888 3137 398 
Q 2709 -91 1959 -91 
Q 1206 -91 779 398 
Q 353 888 353 1747 
Q 353 2609 779 3096 
Q 1206 3584 1959 3584 
z
" id="DejaVuSans-6f" transform="scale(0.015625)"/>
       <path d="M 2631 2963 
Q 2534 3019 2420 3045 
Q 2306 3072 2169 3072 
Q 1681 3072 1420 2755 
Q 1159 2438 1159 1844 
L 1159 0 
L 581 0 
L 581 3500 
L 1159 3500 
L 1159 2956 
Q 1341 3275 1631 3429 
Q 1922 3584 2338 3584 
Q 2397 3584 2469 3576 
Q 2541 3569 2628 3553 
L 2631 2963 
z
" id="DejaVuSans-72" transform="scale(0.015625)"/>
       <path d="M 3328 2828 
Q 3544 3216 3844 3400 
Q 4144 3584 4550 3584 
Q 5097 3584 5394 3201 
Q 5691 2819 5691 2113 
L 5691 0 
L 5113 0 
L 5113 2094 
Q 5113 2597 4934 2840 
Q 4756 3084 4391 3084 
Q 3944 3084 3684 2787 
Q 3425 2491 3425 1978 
L 3425 0 
L 2847 0 
L 2847 2094 
Q 2847 2600 2669 2842 
Q 2491 3084 2119 3084 
Q 1678 3084 1418 2786 
Q 1159 2488 1159 1978 
L 1159 0 
L 581 0 
L 581 3500 
L 1159 3500 
L 1159 2956 
Q 1356 3278 1631 3431 
Q 1906 3584 2284 3584 
Q 2666 3584 2933 3390 
Q 3200 3197 3328 2828 
z
" id="DejaVuSans-6d" transform="scale(0.015625)"/>
       <path d="M 3597 1894 
L 3597 1613 
L 953 1613 
Q 991 1019 1311 708 
Q 1631 397 2203 397 
Q 2534 397 2845 478 
Q 3156 559 3463 722 
L 3463 178 
Q 3153 47 2828 -22 
Q 2503 -91 2169 -91 
Q 1331 -91 842 396 
Q 353 884 353 1716 
Q 353 2575 817 3079 
Q 1281 3584 2069 3584 
Q 2775 3584 3186 3129 
Q 3597 2675 3597 1894 
z
M 3022 2063 
Q 3016 2534 2758 2815 
Q 2500 3097 2075 3097 
Q 1594 3097 1305 2825 
Q 1016 2553 972 2059 
L 3022 2063 
z
" id="DejaVuSans-65" transform="scale(0.015625)"/>
       <path d="M 2906 2969 
L 2906 4863 
L 3481 4863 
L 3481 0 
L 2906 0 
L 2906 525 
Q 2725 213 2448 61 
Q 2172 -91 1784 -91 
Q 1150 -91 751 415 
Q 353 922 353 1747 
Q 353 2572 751 3078 
Q 1150 3584 1784 3584 
Q 2172 3584 2448 3432 
Q 2725 3281 2906 2969 
z
M 947 1747 
Q 947 1113 1208 752 
Q 1469 391 1925 391 
Q 2381 391 2643 752 
Q 2906 1113 2906 1747 
Q 2906 2381 2643 2742 
Q 2381 3103 1925 3103 
Q 1469 3103 1208 2742 
Q 947 2381 947 1747 
z
" id="DejaVuSans-64" transform="scale(0.015625)"/>
       <path id="DejaVuSans-20" transform="scale(0.015625)"/>
       <path d="M 628 4666 
L 1259 4666 
L 1259 2753 
L 3553 2753 
L 3553 4666 
L 4184 4666 
L 4184 0 
L 3553 0 
L 3553 2222 
L 1259 2222 
L 1259 0 
L 628 0 
L 628 4666 
z
" id="DejaVuSans-48" transform="scale(0.015625)"/>
       <path d="M 603 3500 
L 1178 3500 
L 1178 0 
L 603 0 
L 603 3500 
z
M 603 4863 
L 1178 4863 
L 1178 4134 
L 603 4134 
L 603 4863 
z
" id="DejaVuSans-69" transform="scale(0.015625)"/>
       <path d="M 2834 3397 
L 2834 2853 
Q 2591 2978 2328 3040 
Q 2066 3103 1784 3103 
Q 1356 3103 1142 2972 
Q 928 2841 928 2578 
Q 928 2378 1081 2264 
Q 1234 2150 1697 2047 
L 1894 2003 
Q 2506 1872 2764 1633 
Q 3022 1394 3022 966 
Q 3022 478 2636 193 
Q 2250 -91 1575 -91 
Q 1294 -91 989 -36 
Q 684 19 347 128 
L 347 722 
Q 666 556 975 473 
Q 1284 391 1588 391 
Q 1994 391 2212 530 
Q 2431 669 2431 922 
Q 2431 1156 2273 1281 
Q 2116 1406 1581 1522 
L 1381 1569 
Q 847 1681 609 1914 
Q 372 2147 372 2553 
Q 372 3047 722 3315 
Q 1072 3584 1716 3584 
Q 2034 3584 2315 3537 
Q 2597 3491 2834 3397 
z
" id="DejaVuSans-73" transform="scale(0.015625)"/>
       <path d="M 1172 4494 
L 1172 3500 
L 2356 3500 
L 2356 3053 
L 1172 3053 
L 1172 1153 
Q 1172 725 1289 603 
Q 1406 481 1766 481 
L 2356 481 
L 2356 0 
L 1766 0 
Q 1100 0 847 248 
Q 594 497 594 1153 
L 594 3053 
L 172 3053 
L 172 3500 
L 594 3500 
L 594 4494 
L 1172 4494 
z
" id="DejaVuSans-74" transform="scale(0.015625)"/>
       <path d="M 4122 4306 
L 4122 3641 
Q 3803 3938 3442 4084 
Q 3081 4231 2675 4231 
Q 1875 4231 1450 3742 
Q 1025 3253 1025 2328 
Q 1025 1406 1450 917 
Q 1875 428 2675 428 
Q 3081 428 3442 575 
Q 3803 722 4122 1019 
L 4122 359 
Q 3791 134 3420 21 
Q 3050 -91 2638 -91 
Q 1578 -91 968 557 
Q 359 1206 359 2328 
Q 359 3453 968 4101 
Q 1578 4750 2638 4750 
Q 3056 4750 3426 4639 
Q 3797 4528 4122 4306 
z
" id="DejaVuSans-43" transform="scale(0.015625)"/>
       <path d="M 544 1381 
L 544 3500 
L 1119 3500 
L 1119 1403 
Q 1119 906 1312 657 
Q 1506 409 1894 409 
Q 2359 409 2629 706 
Q 2900 1003 2900 1516 
L 2900 3500 
L 3475 3500 
L 3475 0 
L 2900 0 
L 2900 538 
Q 2691 219 2414 64 
Q 2138 -91 1772 -91 
Q 1169 -91 856 284 
Q 544 659 544 1381 
z
M 1991 3584 
L 1991 3584 
z
" id="DejaVuSans-75" transform="scale(0.015625)"/>
       <path d="M 3513 2113 
L 3513 0 
L 2938 0 
L 2938 2094 
Q 2938 2591 2744 2837 
Q 2550 3084 2163 3084 
Q 1697 3084 1428 2787 
Q 1159 2491 1159 1978 
L 1159 0 
L 581 0 
L 581 3500 
L 1159 3500 
L 1159 2956 
Q 1366 3272 1645 3428 
Q 1925 3584 2291 3584 
Q 2894 3584 3203 3211 
Q 3513 2838 3513 2113 
z
" id="DejaVuSans-6e" transform="scale(0.015625)"/>
      </defs>
      <use xlink:href="#DejaVuSans-4e"/>
      <use x="74.804688" xlink:href="#DejaVuSans-6f"/>
      <use x="135.986328" xlink:href="#DejaVuSans-72"/>
      <use x="175.349609" xlink:href="#DejaVuSans-6d"/>
      <use x="272.761719" xlink:href="#DejaVuSans-65"/>
      <use x="334.285156" xlink:href="#DejaVuSans-64"/>
      <use x="397.761719" xlink:href="#DejaVuSans-20"/>
      <use x="429.548828" xlink:href="#DejaVuSans-48"/>
      <use x="504.744141" xlink:href="#DejaVuSans-69"/>
      <use x="532.527344" xlink:href="#DejaVuSans-73"/>
      <use x="584.626953" xlink:href="#DejaVuSans-74"/>
      <use x="623.835938" xlink:href="#DejaVuSans-20"/>
      <use x="655.623047" xlink:href="#DejaVuSans-43"/>
      <use x="725.447266" xlink:href="#DejaVuSans-6f"/>
      <use x="786.628906" xlink:href="#DejaVuSans-75"/>
      <use x="850.007812" xlink:href="#DejaVuSans-6e"/>
      <use x="913.386719" xlink:href="#DejaVuSans-74"/>
      <use x="952.595703" xlink:href="#DejaVuSans-73"/>
     </g>
    </g>
   </g>
   <g id="line2d_14">
    <path clip-path="url(#p6b3feb858b)" d="M 137.428059 827.741793 
L 143.594035 826.870566 
L 149.760011 825.625846 
L 155.925987 823.949438 
L 162.091962 821.786816 
L 168.257938 819.087317 
L 174.423914 815.804345 
L 180.58989 811.895572 
L 186.755866 807.32313 
L 192.921842 802.053787 
L 199.087817 796.059099 
L 205.253793 789.315546 
L 211.419769 781.80463 
L 217.585745 773.512955 
L 223.751721 764.432277 
L 229.917697 754.559518 
L 236.083673 743.896756 
L 242.249648 732.451185 
L 248.415624 720.235043 
L 254.5816 707.265508 
L 260.747576 693.564575 
L 266.913552 679.158893 
L 273.079528 664.079587 
L 279.245504 648.362048 
L 285.411479 632.045703 
L 291.577455 615.173758 
L 297.743431 597.792932 
L 303.909407 579.953163 
L 310.075383 561.707301 
L 322.407335 524.221344 
L 334.739286 485.803742 
L 365.569165 388.956599 
L 377.901117 351.231944 
L 384.067093 332.837639 
L 390.233069 314.835648 
L 396.399045 297.284072 
L 402.565021 280.238977 
L 408.730996 263.754139 
L 414.896972 247.880798 
L 421.062948 232.667439 
L 427.228924 218.159591 
L 433.3949 204.399649 
L 439.560876 191.426709 
L 445.726852 179.27644 
L 451.892827 167.980966 
L 458.058803 157.568773 
L 464.224779 148.064643 
L 470.390755 139.489607 
L 476.556731 131.860918 
L 482.722707 125.192049 
L 488.888683 119.492712 
L 495.054658 114.76889 
L 501.220634 111.0229 
L 507.38661 108.253462 
L 513.552586 106.455795 
L 519.718562 105.621724 
L 525.884538 105.7398 
L 532.050513 106.795443 
L 538.216489 108.771083 
L 544.382465 111.646327 
L 550.548441 115.398124 
L 556.714417 120.000947 
L 562.880393 125.426974 
L 569.046369 131.646282 
L 575.212344 138.627041 
L 581.37832 146.335709 
L 587.544296 154.737238 
L 593.710272 163.795268 
L 599.876248 173.472329 
L 606.042224 183.730039 
L 612.2082 194.529296 
L 618.374175 205.830471 
L 624.540151 217.593592 
L 630.706127 229.778526 
L 636.872103 242.345148 
L 643.038079 255.253513 
L 649.204055 268.464007 
L 661.536006 295.6355 
L 673.867958 323.554889 
L 692.365886 366.204908 
L 717.029789 423.128897 
L 729.361741 451.090142 
L 741.693692 478.449764 
L 754.025644 505.038011 
L 766.357596 530.710243 
L 772.523572 543.16444 
L 778.689548 555.346572 
L 784.855523 567.245393 
L 791.021499 578.851089 
L 797.187475 590.155233 
L 803.353451 601.150742 
L 809.519427 611.831822 
L 815.685403 622.193923 
L 821.851379 632.233676 
L 828.017354 641.948841 
L 834.18333 651.338244 
L 840.349306 660.40172 
L 846.515282 669.140051 
L 852.681258 677.554903 
L 858.847234 685.648767 
L 865.01321 693.424896 
L 871.179185 700.887243 
L 877.345161 708.040406 
L 883.511137 714.889563 
L 889.677113 721.44042 
L 895.843089 727.699151 
L 902.009065 733.672346 
L 908.17504 739.366959 
L 914.341016 744.790255 
L 920.506992 749.949768 
L 926.672968 754.853246 
L 932.838944 759.508617 
L 939.00492 763.923942 
L 945.170896 768.107378 
L 951.336871 772.06714 
L 957.502847 775.811472 
L 963.668823 779.34861 
L 969.834799 782.686756 
L 976.000775 785.834051 
L 982.166751 788.798549 
L 988.332727 791.588199 
L 994.498702 794.210819 
L 1000.664678 796.674086 
L 1006.830654 798.985512 
L 1012.99663 801.152436 
L 1019.162606 803.18201 
L 1025.328582 805.081191 
L 1031.494558 806.856727 
L 1043.826509 810.062805 
L 1056.158461 812.849918 
L 1068.490413 815.264162 
L 1080.822364 817.348025 
L 1093.154316 819.140416 
L 1105.486268 820.676748 
L 1117.818219 821.989065 
L 1130.150171 823.106202 
L 1142.482123 824.053961 
L 1160.98005 825.207551 
L 1179.477978 826.097811 
L 1197.975906 826.779754 
L 1222.639809 827.441307 
L 1253.469688 827.982996 
L 1290.465543 828.362416 
L 1339.79335 828.610509 
L 1364.457254 828.673774 
L 1364.457254 828.673774 
" style="fill:none;stroke:#ff7f0e;stroke-linecap:square;stroke-width:2;"/>
   </g>
   <g id="line2d_15">
    <path clip-path="url(#p6b3feb858b)" d="M 137.428059 823.795153 
L 143.594035 822.521064 
L 149.760011 820.992299 
L 155.925987 819.173575 
L 162.091962 817.027532 
L 168.257938 814.515028 
L 174.423914 811.595509 
L 180.58989 808.22743 
L 186.755866 804.368726 
L 192.921842 799.977339 
L 199.087817 795.011767 
L 205.253793 789.431656 
L 211.419769 783.198404 
L 217.585745 776.275771 
L 223.751721 768.630491 
L 229.917697 760.23287 
L 236.083673 751.057353 
L 242.249648 741.083068 
L 248.415624 730.294313 
L 254.5816 718.680996 
L 260.747576 706.239016 
L 266.913552 692.970568 
L 273.079528 678.884382 
L 279.245504 663.99588 
L 285.411479 648.327254 
L 291.577455 631.90746 
L 297.743431 614.772136 
L 303.909407 596.963433 
L 310.075383 578.529774 
L 316.241359 559.525537 
L 322.407335 540.010668 
L 334.739286 499.713926 
L 347.071238 458.212171 
L 377.901117 353.387936 
L 390.233069 312.791826 
L 396.399045 293.113182 
L 402.565021 273.953913 
L 408.730996 255.390384 
L 414.896972 237.495555 
L 421.062948 220.338512 
L 427.228924 203.984037 
L 433.3949 188.49223 
L 439.560876 173.918187 
L 445.726852 160.311723 
L 451.892827 147.717156 
L 458.058803 136.173138 
L 464.224779 125.712547 
L 470.390755 116.362417 
L 476.556731 108.143932 
L 482.722707 101.072458 
L 488.888683 95.15762 
L 495.054658 90.403426 
L 501.220634 86.808424 
L 507.38661 84.365894 
L 513.552586 83.064074 
L 519.718562 82.886414 
L 525.884538 83.811848 
L 532.050513 85.815091 
L 538.216489 88.866956 
L 544.382465 92.93467 
L 550.548441 97.982217 
L 556.714417 103.970669 
L 562.880393 110.858536 
L 569.046369 118.602105 
L 575.212344 127.155777 
L 581.37832 136.472402 
L 587.544296 146.503604 
L 593.710272 157.200098 
L 599.876248 168.511988 
L 606.042224 180.389061 
L 612.2082 192.781061 
L 618.374175 205.637947 
L 624.540151 218.910136 
L 630.706127 232.548725 
L 643.038079 260.734131 
L 655.370031 289.823979 
L 673.867958 334.4005 
L 698.531862 393.981449 
L 710.863813 423.237193 
L 723.195765 451.840879 
L 735.527717 479.610698 
L 747.859668 506.395813 
L 754.025644 519.380101 
L 760.19162 532.074953 
L 766.357596 544.469532 
L 772.523572 556.554606 
L 778.689548 568.322477 
L 784.855523 579.766904 
L 791.021499 590.883031 
L 797.187475 601.667304 
L 803.353451 612.117401 
L 809.519427 622.232148 
L 815.685403 632.011443 
L 821.851379 641.456182 
L 828.017354 650.56818 
L 834.18333 659.350096 
L 840.349306 667.805367 
L 846.515282 675.93813 
L 852.681258 683.753158 
L 858.847234 691.255796 
L 865.01321 698.451895 
L 871.179185 705.347752 
L 877.345161 711.950054 
L 883.511137 718.265826 
L 889.677113 724.302374 
L 895.843089 730.067239 
L 902.009065 735.568156 
L 908.17504 740.813003 
L 914.341016 745.809768 
L 920.506992 750.566511 
L 926.672968 755.091326 
L 932.838944 759.392316 
L 939.00492 763.47756 
L 945.170896 767.355088 
L 951.336871 771.032858 
L 957.502847 774.518735 
L 963.668823 777.82047 
L 969.834799 780.945685 
L 976.000775 783.901858 
L 982.166751 786.69631 
L 988.332727 789.336191 
L 994.498702 791.828477 
L 1000.664678 794.179954 
L 1006.830654 796.397219 
L 1012.99663 798.486668 
L 1025.328582 802.306702 
L 1037.660533 805.687168 
L 1049.992485 808.671883 
L 1062.324437 811.30138 
L 1074.656388 813.612979 
L 1086.98834 815.640879 
L 1099.320292 817.41629 
L 1111.652244 818.967575 
L 1123.984195 820.320416 
L 1136.316147 821.497981 
L 1154.814075 822.980651 
L 1173.312002 824.176661 
L 1191.80993 825.137707 
L 1210.307857 825.907068 
L 1234.971761 826.696033 
L 1259.635664 827.276123 
L 1290.465543 827.786678 
L 1327.461398 828.181962 
L 1364.457254 828.423512 
L 1364.457254 828.423512 
" style="fill:none;stroke:#2ca02c;stroke-linecap:square;stroke-width:2;"/>
   </g>
   <g id="line2d_16">
    <path clip-path="url(#p6b3feb858b)" d="M 137.428059 125.334374 
L 149.760011 145.505575 
L 162.091962 165.098369 
L 174.423914 184.129342 
L 186.755866 202.614604 
L 199.087817 220.569804 
L 211.419769 238.01014 
L 223.751721 254.950377 
L 236.083673 271.404854 
L 248.415624 287.387502 
L 260.747576 302.911849 
L 273.079528 317.991037 
L 285.411479 332.637831 
L 297.743431 346.86463 
L 310.075383 360.683477 
L 322.407335 374.106071 
L 334.739286 387.143773 
L 347.071238 399.807621 
L 359.40319 412.108335 
L 371.735141 424.056327 
L 384.067093 435.661711 
L 396.399045 446.934313 
L 408.730996 457.883674 
L 421.062948 468.519064 
L 433.3949 478.849485 
L 445.726852 488.883683 
L 458.058803 498.630151 
L 470.390755 508.09714 
L 482.722707 517.292665 
L 495.054658 526.224509 
L 507.38661 534.900233 
L 519.718562 543.327182 
L 532.050513 551.512489 
L 544.382465 559.463084 
L 556.714417 567.185696 
L 569.046369 574.686864 
L 581.37832 581.972936 
L 593.710272 589.050081 
L 606.042224 595.924289 
L 618.374175 602.601381 
L 630.706127 609.087008 
L 643.038079 615.38666 
L 655.370031 621.50567 
L 667.701982 627.449219 
L 680.033934 633.222337 
L 698.531862 641.573109 
L 717.029789 649.567282 
L 735.527717 657.220084 
L 754.025644 664.546092 
L 772.523572 671.559262 
L 791.021499 678.272952 
L 809.519427 684.69995 
L 828.017354 690.8525 
L 846.515282 696.74232 
L 865.01321 702.380631 
L 883.511137 707.778172 
L 902.009065 712.945224 
L 920.506992 717.89163 
L 939.00492 722.626813 
L 957.502847 727.159791 
L 976.000775 731.4992 
L 994.498702 735.653305 
L 1012.99663 739.63002 
L 1037.660533 744.669411 
L 1062.324437 749.423938 
L 1086.98834 753.909703 
L 1111.652244 758.1419 
L 1136.316147 762.13486 
L 1160.98005 765.902109 
L 1185.643954 769.456404 
L 1210.307857 772.809784 
L 1234.971761 775.973606 
L 1265.80164 779.678082 
L 1296.631519 783.122679 
L 1327.461398 786.325628 
L 1358.291278 789.303881 
L 1364.457254 789.873975 
L 1364.457254 789.873975 
" style="fill:none;stroke:#d62728;stroke-linecap:square;stroke-width:2;"/>
   </g>
   <g id="line2d_17">
    <path clip-path="url(#p6b3feb858b)" d="M 137.428059 777.697323 
L 149.760011 772.664845 
L 155.925987 769.965632 
L 162.091962 767.136581 
L 168.257938 764.171447 
L 174.423914 761.063685 
L 180.58989 757.806433 
L 186.755866 754.392502 
L 192.921842 750.814355 
L 199.087817 747.064091 
L 205.253793 743.133433 
L 211.419769 739.013703 
L 217.585745 734.695807 
L 223.751721 730.170211 
L 229.917697 725.426926 
L 236.083673 720.45548 
L 242.249648 715.244898 
L 248.415624 709.783677 
L 254.5816 704.059762 
L 260.747576 698.060515 
L 266.913552 691.772694 
L 273.079528 685.182416 
L 279.245504 678.275134 
L 285.411479 671.035599 
L 291.577455 663.447828 
L 297.743431 655.495071 
L 303.909407 647.159772 
L 310.075383 638.42353 
L 316.241359 629.267058 
L 322.407335 619.670142 
L 328.57331 609.611597 
L 334.739286 599.069217 
L 340.905262 588.019729 
L 347.071238 576.43874 
L 353.237214 564.300684 
L 359.40319 551.578764 
L 365.569165 538.244896 
L 371.735141 524.269645 
L 377.901117 509.622157 
L 384.067093 494.270098 
L 390.233069 478.179577 
L 396.399045 461.315071 
L 402.565021 443.639351 
L 408.730996 425.113395 
L 414.896972 405.696307 
L 421.062948 385.34522 
L 427.228924 364.015208 
L 433.3949 341.659183 
L 439.560876 318.227791 
L 445.726852 293.669305 
L 451.892827 267.92951 
L 458.058803 240.951583 
L 464.224779 212.675967 
L 470.390755 183.040241 
L 476.556731 151.978981 
L 482.722707 119.423617 
L 488.888683 85.302278 
L 495.054658 49.53964 
L 503.26991 -1 
M 587.644616 -1 
L 593.710272 36.490518 
L 599.876248 72.852036 
L 606.042224 107.544769 
L 612.2082 140.645305 
L 618.374175 172.226715 
L 624.540151 202.35872 
L 630.706127 231.107839 
L 636.872103 258.537537 
L 643.038079 284.70837 
L 649.204055 309.678111 
L 655.370031 333.501885 
L 661.536006 356.232283 
L 667.701982 377.919487 
L 673.867958 398.611372 
L 680.033934 418.353619 
L 686.19991 437.189809 
L 692.365886 455.161526 
L 698.531862 472.308444 
L 704.697837 488.668417 
L 710.863813 504.277561 
L 717.029789 519.170335 
L 723.195765 533.379616 
L 729.361741 546.936772 
L 735.527717 559.871733 
L 741.693692 572.213052 
L 747.859668 583.987976 
L 754.025644 595.222499 
L 760.19162 605.941421 
L 766.357596 616.168406 
L 772.523572 625.926031 
L 778.689548 635.235837 
L 784.855523 644.118377 
L 791.021499 652.593258 
L 797.187475 660.679192 
L 803.353451 668.394027 
L 809.519427 675.754795 
L 815.685403 682.777746 
L 821.851379 689.478385 
L 828.017354 695.871502 
L 834.18333 701.971212 
L 840.349306 707.79098 
L 846.515282 713.343654 
L 852.681258 718.641492 
L 858.847234 723.696189 
L 865.01321 728.518906 
L 871.179185 733.120287 
L 877.345161 737.510491 
L 883.511137 741.699209 
L 889.677113 745.69569 
L 895.843089 749.508755 
L 902.009065 753.146822 
L 908.17504 756.617923 
L 914.341016 759.92972 
L 920.506992 763.089525 
L 926.672968 766.104312 
L 932.838944 768.980739 
L 939.00492 771.725153 
L 951.336871 776.841905 
L 963.668823 781.499774 
L 976.000775 785.739915 
L 988.332727 789.599791 
L 1000.664678 793.113505 
L 1012.99663 796.3121 
L 1025.328582 799.223839 
L 1037.660533 801.874446 
L 1049.992485 804.287341 
L 1062.324437 806.483841 
L 1074.656388 808.483355 
L 1086.98834 810.303548 
L 1099.320292 811.960502 
L 1117.818219 814.171521 
L 1136.316147 816.091879 
L 1154.814075 817.759785 
L 1173.312002 819.208427 
L 1191.80993 820.46663 
L 1216.473833 821.890783 
L 1241.137737 823.070947 
L 1265.80164 824.048924 
L 1296.631519 825.039259 
L 1327.461398 825.822265 
L 1364.457254 826.548647 
L 1364.457254 826.548647 
" style="fill:none;stroke:#9467bd;stroke-linecap:square;stroke-width:2;"/>
   </g>
   <g id="line2d_18">
    <path clip-path="url(#p6b3feb858b)" d="M 137.428059 822.279723 
L 143.594035 820.872133 
L 149.760011 819.218121 
L 155.925987 817.286425 
L 162.091962 815.043873 
L 168.257938 812.455588 
L 174.423914 809.485237 
L 180.58989 806.095335 
L 186.755866 802.247599 
L 192.921842 797.903344 
L 199.087817 793.023929 
L 205.253793 787.571238 
L 211.419769 781.508187 
L 217.585745 774.799262 
L 223.751721 767.411073 
L 229.917697 759.312908 
L 236.083673 750.477288 
L 242.249648 740.880517 
L 248.415624 730.503194 
L 254.5816 719.330712 
L 260.747576 707.353701 
L 266.913552 694.568431 
L 273.079528 680.97715 
L 279.245504 666.588371 
L 285.411479 651.417069 
L 291.577455 635.484822 
L 297.743431 618.819866 
L 303.909407 601.457066 
L 310.075383 583.437812 
L 316.241359 564.809838 
L 322.407335 545.626953 
L 328.57331 525.948708 
L 340.905262 485.370532 
L 353.237214 443.649498 
L 377.901117 359.353986 
L 390.233069 318.143887 
L 396.399045 298.074889 
L 402.565021 278.475561 
L 408.730996 259.427413 
L 414.896972 241.009048 
L 421.062948 223.295581 
L 427.228924 206.358119 
L 433.3949 190.263282 
L 439.560876 175.072776 
L 445.726852 160.843025 
L 451.892827 147.624861 
L 458.058803 135.463274 
L 464.224779 124.397216 
L 470.390755 114.45947 
L 476.556731 105.676577 
L 482.722707 98.068812 
L 488.888683 91.650223 
L 495.054658 86.428718 
L 501.220634 82.406193 
L 507.38661 79.578715 
L 513.552586 77.936739 
L 519.718562 77.46536 
L 525.884538 78.144597 
L 532.050513 79.949709 
L 538.216489 82.851525 
L 544.382465 86.816801 
L 550.548441 91.808585 
L 556.714417 97.786594 
L 562.880393 104.707593 
L 569.046369 112.525786 
L 575.212344 121.193189 
L 581.37832 130.660018 
L 587.544296 140.875049 
L 593.710272 151.785984 
L 599.876248 163.339792 
L 606.042224 175.483044 
L 612.2082 188.162225 
L 618.374175 201.324029 
L 624.540151 214.915637 
L 630.706127 228.884973 
L 643.038079 257.753618 
L 655.370031 287.536585 
L 673.867958 333.126705 
L 698.531862 393.925044 
L 710.863813 423.705357 
L 723.195765 452.767545 
L 735.527717 480.925995 
L 741.693692 494.617537 
L 747.859668 508.028661 
L 754.025644 521.145318 
L 760.19162 533.955315 
L 766.357596 546.448236 
L 772.523572 558.615363 
L 778.689548 570.449589 
L 784.855523 581.945339 
L 791.021499 593.098477 
L 797.187475 603.906222 
L 803.353451 614.367056 
L 809.519427 624.48064 
L 815.685403 634.247727 
L 821.851379 643.670075 
L 828.017354 652.750365 
L 834.18333 661.492119 
L 840.349306 669.899623 
L 846.515282 677.977849 
L 852.681258 685.732383 
L 858.847234 693.169357 
L 865.01321 700.295377 
L 871.179185 707.117467 
L 877.345161 713.643004 
L 883.511137 719.879662 
L 889.677113 725.835361 
L 895.843089 731.518218 
L 902.009065 736.936497 
L 908.17504 742.098571 
L 914.341016 747.012879 
L 920.506992 751.687891 
L 926.672968 756.132076 
L 932.838944 760.353868 
L 939.00492 764.361644 
L 945.170896 768.163694 
L 951.336871 771.768201 
L 957.502847 775.183225 
L 963.668823 778.416678 
L 969.834799 781.476316 
L 976.000775 784.369722 
L 982.166751 787.104296 
L 988.332727 789.687246 
L 994.498702 792.12558 
L 1000.664678 794.4261 
L 1006.830654 796.595398 
L 1012.99663 798.63985 
L 1025.328582 802.378645 
L 1037.660533 805.689167 
L 1049.992485 808.614636 
L 1062.324437 811.194878 
L 1074.656388 813.466417 
L 1086.98834 815.462617 
L 1099.320292 817.213827 
L 1111.652244 818.747558 
L 1123.984195 820.08866 
L 1136.316147 821.259506 
L 1154.814075 822.739892 
L 1173.312002 823.940953 
L 1191.80993 824.912402 
L 1210.307857 825.695839 
L 1234.971761 826.506945 
L 1259.635664 827.110771 
L 1290.465543 827.650605 
L 1327.461398 828.077773 
L 1364.457254 828.3461 
L 1364.457254 828.3461 
" style="fill:none;stroke:#8c564b;stroke-linecap:square;stroke-width:2;"/>
   </g>
   <g id="line2d_19">
    <path clip-path="url(#p6b3feb858b)" d="M 137.428059 801.281258 
L 143.594035 798.530098 
L 149.760011 795.550494 
L 155.925987 792.328737 
L 162.091962 788.850853 
L 168.257938 785.102655 
L 174.423914 781.069807 
L 180.58989 776.737895 
L 186.755866 772.092505 
L 192.921842 767.119306 
L 199.087817 761.804145 
L 205.253793 756.13314 
L 211.419769 750.092791 
L 217.585745 743.670087 
L 223.751721 736.852624 
L 229.917697 729.628728 
L 236.083673 721.987583 
L 242.249648 713.919356 
L 248.415624 705.415336 
L 254.5816 696.468068 
L 260.747576 687.071488 
L 266.913552 677.221058 
L 273.079528 666.913905 
L 279.245504 656.148953 
L 285.411479 644.927044 
L 291.577455 633.251071 
L 297.743431 621.126087 
L 303.909407 608.559417 
L 310.075383 595.560753 
L 316.241359 582.142244 
L 322.407335 568.318569 
L 328.57331 554.106998 
L 334.739286 539.527437 
L 340.905262 524.602458 
L 353.237214 493.819902 
L 365.569165 461.993151 
L 377.901117 429.397355 
L 421.062948 314.088665 
L 433.3949 282.369975 
L 439.560876 266.972427 
L 445.726852 251.953497 
L 451.892827 237.366124 
L 458.058803 223.262778 
L 464.224779 209.69515 
L 470.390755 196.713841 
L 476.556731 184.368046 
L 482.722707 172.705251 
L 488.888683 161.770923 
L 495.054658 151.60822 
L 501.220634 142.257706 
L 507.38661 133.757083 
L 513.552586 126.140937 
L 519.718562 119.440504 
L 525.884538 113.683454 
L 532.050513 108.893708 
L 538.216489 105.091263 
L 544.382465 102.292059 
L 550.548441 100.507868 
L 556.714417 99.746207 
L 562.880393 100.01029 
L 569.046369 101.299003 
L 575.212344 103.606911 
L 581.37832 106.924298 
L 587.544296 111.237236 
L 593.710272 116.527679 
L 599.876248 122.773592 
L 606.042224 129.949102 
L 612.2082 138.024676 
L 618.374175 146.967327 
L 624.540151 156.740835 
L 630.706127 167.305992 
L 636.872103 178.620863 
L 643.038079 190.641065 
L 649.204055 203.320055 
L 655.370031 216.60943 
L 661.536006 230.45923 
L 667.701982 244.818256 
L 673.867958 259.634376 
L 680.033934 274.85484 
L 692.365886 306.296556 
L 704.697837 338.720603 
L 723.195765 388.29801 
L 741.693692 437.843901 
L 754.025644 470.27026 
L 766.357596 501.85292 
L 772.523572 517.243529 
L 778.689548 532.32718 
L 784.855523 547.077329 
L 791.021499 561.470107 
L 797.187475 575.484316 
L 803.353451 589.101411 
L 809.519427 602.305465 
L 815.685403 615.083107 
L 821.851379 627.423465 
L 828.017354 639.318076 
L 834.18333 650.760798 
L 840.349306 661.747705 
L 846.515282 672.276972 
L 852.681258 682.348762 
L 858.847234 691.965092 
L 865.01321 701.12971 
L 871.179185 709.847954 
L 877.345161 718.126623 
L 883.511137 725.973835 
L 889.677113 733.398895 
L 895.843089 740.412159 
L 902.009065 747.024902 
L 908.17504 753.249187 
L 914.341016 759.097747 
L 920.506992 764.583858 
L 926.672968 769.72123 
L 932.838944 774.523899 
L 939.00492 779.006119 
L 945.170896 783.182277 
L 951.336871 787.066796 
L 957.502847 790.674059 
L 963.668823 794.018334 
L 969.834799 797.113706 
L 976.000775 799.974019 
L 982.166751 802.612822 
L 988.332727 805.043324 
L 994.498702 807.278353 
L 1000.664678 809.330323 
L 1006.830654 811.211209 
L 1012.99663 812.932518 
L 1019.162606 814.505283 
L 1025.328582 815.940039 
L 1031.494558 817.246826 
L 1043.826509 819.514131 
L 1056.158461 821.377476 
L 1068.490413 822.899282 
L 1080.822364 824.134436 
L 1093.154316 825.130739 
L 1105.486268 825.929435 
L 1123.984195 826.832631 
L 1142.482123 827.466329 
L 1167.146026 828.017852 
L 1197.975906 828.405968 
L 1234.971761 828.627807 
L 1296.631519 828.749239 
L 1364.457254 828.775042 
L 1364.457254 828.775042 
" style="fill:none;stroke:#e377c2;stroke-linecap:square;stroke-width:2;"/>
   </g>
   <g id="patch_103">
    <path d="M 72.685313 828.779375 
L 72.685313 38.075625 
" style="fill:none;stroke:#000000;stroke-linecap:square;stroke-linejoin:miter;stroke-width:0.8;"/>
   </g>
   <g id="patch_104">
    <path d="M 1429.2 828.779375 
L 1429.2 38.075625 
" style="fill:none;stroke:#000000;stroke-linecap:square;stroke-linejoin:miter;stroke-width:0.8;"/>
   </g>
   <g id="patch_105">
    <path d="M 72.685313 828.779375 
L 1429.2 828.779375 
" style="fill:none;stroke:#000000;stroke-linecap:square;stroke-linejoin:miter;stroke-width:0.8;"/>
   </g>
   <g id="patch_106">
    <path d="M 72.685313 38.075625 
L 1429.2 38.075625 
" style="fill:none;stroke:#000000;stroke-linecap:square;stroke-linejoin:miter;stroke-width:0.8;"/>
   </g>
   <g id="text_15">
    <!-- All Fitted Distributions -->
    <g transform="translate(596.317031 32.075625)scale(0.28 -0.28)">
     <defs>
      <path d="M 2188 4044 
L 1331 1722 
L 3047 1722 
L 2188 4044 
z
M 1831 4666 
L 2547 4666 
L 4325 0 
L 3669 0 
L 3244 1197 
L 1141 1197 
L 716 0 
L 50 0 
L 1831 4666 
z
" id="DejaVuSans-41" transform="scale(0.015625)"/>
      <path d="M 603 4863 
L 1178 4863 
L 1178 0 
L 603 0 
L 603 4863 
z
" id="DejaVuSans-6c" transform="scale(0.015625)"/>
      <path d="M 628 4666 
L 3309 4666 
L 3309 4134 
L 1259 4134 
L 1259 2759 
L 3109 2759 
L 3109 2228 
L 1259 2228 
L 1259 0 
L 628 0 
L 628 4666 
z
" id="DejaVuSans-46" transform="scale(0.015625)"/>
      <path d="M 1259 4147 
L 1259 519 
L 2022 519 
Q 2988 519 3436 956 
Q 3884 1394 3884 2338 
Q 3884 3275 3436 3711 
Q 2988 4147 2022 4147 
L 1259 4147 
z
M 628 4666 
L 1925 4666 
Q 3281 4666 3915 4102 
Q 4550 3538 4550 2338 
Q 4550 1131 3912 565 
Q 3275 0 1925 0 
L 628 0 
L 628 4666 
z
" id="DejaVuSans-44" transform="scale(0.015625)"/>
      <path d="M 3116 1747 
Q 3116 2381 2855 2742 
Q 2594 3103 2138 3103 
Q 1681 3103 1420 2742 
Q 1159 2381 1159 1747 
Q 1159 1113 1420 752 
Q 1681 391 2138 391 
Q 2594 391 2855 752 
Q 3116 1113 3116 1747 
z
M 1159 2969 
Q 1341 3281 1617 3432 
Q 1894 3584 2278 3584 
Q 2916 3584 3314 3078 
Q 3713 2572 3713 1747 
Q 3713 922 3314 415 
Q 2916 -91 2278 -91 
Q 1894 -91 1617 61 
Q 1341 213 1159 525 
L 1159 0 
L 581 0 
L 581 4863 
L 1159 4863 
L 1159 2969 
z
" id="DejaVuSans-62" transform="scale(0.015625)"/>
     </defs>
     <use xlink:href="#DejaVuSans-41"/>
     <use x="68.408203" xlink:href="#DejaVuSans-6c"/>
     <use x="96.191406" xlink:href="#DejaVuSans-6c"/>
     <use x="123.974609" xlink:href="#DejaVuSans-20"/>
     <use x="155.761719" xlink:href="#DejaVuSans-46"/>
     <use x="206.03125" xlink:href="#DejaVuSans-69"/>
     <use x="233.814453" xlink:href="#DejaVuSans-74"/>
     <use x="273.023438" xlink:href="#DejaVuSans-74"/>
     <use x="312.232422" xlink:href="#DejaVuSans-65"/>
     <use x="373.755859" xlink:href="#DejaVuSans-64"/>
     <use x="437.232422" xlink:href="#DejaVuSans-20"/>
     <use x="469.019531" xlink:href="#DejaVuSans-44"/>
     <use x="546.021484" xlink:href="#DejaVuSans-69"/>
     <use x="573.804688" xlink:href="#DejaVuSans-73"/>
     <use x="625.904297" xlink:href="#DejaVuSans-74"/>
     <use x="665.113281" xlink:href="#DejaVuSans-72"/>
     <use x="706.226562" xlink:href="#DejaVuSans-69"/>
     <use x="734.009766" xlink:href="#DejaVuSans-62"/>
     <use x="797.486328" xlink:href="#DejaVuSans-75"/>
     <use x="860.865234" xlink:href="#DejaVuSans-74"/>
     <use x="900.074219" xlink:href="#DejaVuSans-69"/>
     <use x="927.857422" xlink:href="#DejaVuSans-6f"/>
     <use x="989.039062" xlink:href="#DejaVuSans-6e"/>
     <use x="1052.417969" xlink:href="#DejaVuSans-73"/>
    </g>
   </g>
   <g id="legend_1">
    <g id="patch_107">
     <path d="M 1014.37125 303.868125 
L 1412.4 303.868125 
Q 1417.2 303.868125 1417.2 299.068125 
L 1417.2 54.875625 
Q 1417.2 50.075625 1412.4 50.075625 
L 1014.37125 50.075625 
Q 1009.57125 50.075625 1009.57125 54.875625 
L 1009.57125 299.068125 
Q 1009.57125 303.868125 1014.37125 303.868125 
z
" style="fill:#ffffff;opacity:0.8;stroke:#cccccc;stroke-linejoin:miter;"/>
    </g>
    <g id="line2d_20">
     <path d="M 1019.17125 69.511875 
L 1067.17125 69.511875 
" style="fill:none;stroke:#ff7f0e;stroke-linecap:square;stroke-width:2;"/>
    </g>
    <g id="line2d_21"/>
    <g id="text_16">
     <!-- Chi fit -->
     <g transform="translate(1086.37125 77.911875)scale(0.24 -0.24)">
      <defs>
       <path d="M 3513 2113 
L 3513 0 
L 2938 0 
L 2938 2094 
Q 2938 2591 2744 2837 
Q 2550 3084 2163 3084 
Q 1697 3084 1428 2787 
Q 1159 2491 1159 1978 
L 1159 0 
L 581 0 
L 581 4863 
L 1159 4863 
L 1159 2956 
Q 1366 3272 1645 3428 
Q 1925 3584 2291 3584 
Q 2894 3584 3203 3211 
Q 3513 2838 3513 2113 
z
" id="DejaVuSans-68" transform="scale(0.015625)"/>
       <path d="M 2375 4863 
L 2375 4384 
L 1825 4384 
Q 1516 4384 1395 4259 
Q 1275 4134 1275 3809 
L 1275 3500 
L 2222 3500 
L 2222 3053 
L 1275 3053 
L 1275 0 
L 697 0 
L 697 3053 
L 147 3053 
L 147 3500 
L 697 3500 
L 697 3744 
Q 697 4328 969 4595 
Q 1241 4863 1831 4863 
L 2375 4863 
z
" id="DejaVuSans-66" transform="scale(0.015625)"/>
      </defs>
      <use xlink:href="#DejaVuSans-43"/>
      <use x="69.824219" xlink:href="#DejaVuSans-68"/>
      <use x="133.203125" xlink:href="#DejaVuSans-69"/>
      <use x="160.986328" xlink:href="#DejaVuSans-20"/>
      <use x="192.773438" xlink:href="#DejaVuSans-66"/>
      <use x="227.978516" xlink:href="#DejaVuSans-69"/>
      <use x="255.761719" xlink:href="#DejaVuSans-74"/>
     </g>
    </g>
    <g id="line2d_22">
     <path d="M 1019.17125 104.739375 
L 1067.17125 104.739375 
" style="fill:none;stroke:#2ca02c;stroke-linecap:square;stroke-width:2;"/>
    </g>
    <g id="line2d_23"/>
    <g id="text_17">
     <!-- Chi-Square fit -->
     <g transform="translate(1086.37125 113.139375)scale(0.24 -0.24)">
      <defs>
       <path d="M 313 2009 
L 1997 2009 
L 1997 1497 
L 313 1497 
L 313 2009 
z
" id="DejaVuSans-2d" transform="scale(0.015625)"/>
       <path d="M 3425 4513 
L 3425 3897 
Q 3066 4069 2747 4153 
Q 2428 4238 2131 4238 
Q 1616 4238 1336 4038 
Q 1056 3838 1056 3469 
Q 1056 3159 1242 3001 
Q 1428 2844 1947 2747 
L 2328 2669 
Q 3034 2534 3370 2195 
Q 3706 1856 3706 1288 
Q 3706 609 3251 259 
Q 2797 -91 1919 -91 
Q 1588 -91 1214 -16 
Q 841 59 441 206 
L 441 856 
Q 825 641 1194 531 
Q 1563 422 1919 422 
Q 2459 422 2753 634 
Q 3047 847 3047 1241 
Q 3047 1584 2836 1778 
Q 2625 1972 2144 2069 
L 1759 2144 
Q 1053 2284 737 2584 
Q 422 2884 422 3419 
Q 422 4038 858 4394 
Q 1294 4750 2059 4750 
Q 2388 4750 2728 4690 
Q 3069 4631 3425 4513 
z
" id="DejaVuSans-53" transform="scale(0.015625)"/>
       <path d="M 947 1747 
Q 947 1113 1208 752 
Q 1469 391 1925 391 
Q 2381 391 2643 752 
Q 2906 1113 2906 1747 
Q 2906 2381 2643 2742 
Q 2381 3103 1925 3103 
Q 1469 3103 1208 2742 
Q 947 2381 947 1747 
z
M 2906 525 
Q 2725 213 2448 61 
Q 2172 -91 1784 -91 
Q 1150 -91 751 415 
Q 353 922 353 1747 
Q 353 2572 751 3078 
Q 1150 3584 1784 3584 
Q 2172 3584 2448 3432 
Q 2725 3281 2906 2969 
L 2906 3500 
L 3481 3500 
L 3481 -1331 
L 2906 -1331 
L 2906 525 
z
" id="DejaVuSans-71" transform="scale(0.015625)"/>
       <path d="M 2194 1759 
Q 1497 1759 1228 1600 
Q 959 1441 959 1056 
Q 959 750 1161 570 
Q 1363 391 1709 391 
Q 2188 391 2477 730 
Q 2766 1069 2766 1631 
L 2766 1759 
L 2194 1759 
z
M 3341 1997 
L 3341 0 
L 2766 0 
L 2766 531 
Q 2569 213 2275 61 
Q 1981 -91 1556 -91 
Q 1019 -91 701 211 
Q 384 513 384 1019 
Q 384 1609 779 1909 
Q 1175 2209 1959 2209 
L 2766 2209 
L 2766 2266 
Q 2766 2663 2505 2880 
Q 2244 3097 1772 3097 
Q 1472 3097 1187 3025 
Q 903 2953 641 2809 
L 641 3341 
Q 956 3463 1253 3523 
Q 1550 3584 1831 3584 
Q 2591 3584 2966 3190 
Q 3341 2797 3341 1997 
z
" id="DejaVuSans-61" transform="scale(0.015625)"/>
      </defs>
      <use xlink:href="#DejaVuSans-43"/>
      <use x="69.824219" xlink:href="#DejaVuSans-68"/>
      <use x="133.203125" xlink:href="#DejaVuSans-69"/>
      <use x="160.986328" xlink:href="#DejaVuSans-2d"/>
      <use x="197.070312" xlink:href="#DejaVuSans-53"/>
      <use x="260.546875" xlink:href="#DejaVuSans-71"/>
      <use x="324.023438" xlink:href="#DejaVuSans-75"/>
      <use x="387.402344" xlink:href="#DejaVuSans-61"/>
      <use x="448.681641" xlink:href="#DejaVuSans-72"/>
      <use x="487.544922" xlink:href="#DejaVuSans-65"/>
      <use x="549.068359" xlink:href="#DejaVuSans-20"/>
      <use x="580.855469" xlink:href="#DejaVuSans-66"/>
      <use x="616.060547" xlink:href="#DejaVuSans-69"/>
      <use x="643.84375" xlink:href="#DejaVuSans-74"/>
     </g>
    </g>
    <g id="line2d_24">
     <path d="M 1019.17125 139.966875 
L 1067.17125 139.966875 
" style="fill:none;stroke:#d62728;stroke-linecap:square;stroke-width:2;"/>
    </g>
    <g id="line2d_25"/>
    <g id="text_18">
     <!-- Exponential fit -->
     <g transform="translate(1086.37125 148.366875)scale(0.24 -0.24)">
      <defs>
       <path d="M 628 4666 
L 3578 4666 
L 3578 4134 
L 1259 4134 
L 1259 2753 
L 3481 2753 
L 3481 2222 
L 1259 2222 
L 1259 531 
L 3634 531 
L 3634 0 
L 628 0 
L 628 4666 
z
" id="DejaVuSans-45" transform="scale(0.015625)"/>
       <path d="M 3513 3500 
L 2247 1797 
L 3578 0 
L 2900 0 
L 1881 1375 
L 863 0 
L 184 0 
L 1544 1831 
L 300 3500 
L 978 3500 
L 1906 2253 
L 2834 3500 
L 3513 3500 
z
" id="DejaVuSans-78" transform="scale(0.015625)"/>
       <path d="M 1159 525 
L 1159 -1331 
L 581 -1331 
L 581 3500 
L 1159 3500 
L 1159 2969 
Q 1341 3281 1617 3432 
Q 1894 3584 2278 3584 
Q 2916 3584 3314 3078 
Q 3713 2572 3713 1747 
Q 3713 922 3314 415 
Q 2916 -91 2278 -91 
Q 1894 -91 1617 61 
Q 1341 213 1159 525 
z
M 3116 1747 
Q 3116 2381 2855 2742 
Q 2594 3103 2138 3103 
Q 1681 3103 1420 2742 
Q 1159 2381 1159 1747 
Q 1159 1113 1420 752 
Q 1681 391 2138 391 
Q 2594 391 2855 752 
Q 3116 1113 3116 1747 
z
" id="DejaVuSans-70" transform="scale(0.015625)"/>
      </defs>
      <use xlink:href="#DejaVuSans-45"/>
      <use x="63.183594" xlink:href="#DejaVuSans-78"/>
      <use x="122.363281" xlink:href="#DejaVuSans-70"/>
      <use x="185.839844" xlink:href="#DejaVuSans-6f"/>
      <use x="247.021484" xlink:href="#DejaVuSans-6e"/>
      <use x="310.400391" xlink:href="#DejaVuSans-65"/>
      <use x="371.923828" xlink:href="#DejaVuSans-6e"/>
      <use x="435.302734" xlink:href="#DejaVuSans-74"/>
      <use x="474.511719" xlink:href="#DejaVuSans-69"/>
      <use x="502.294922" xlink:href="#DejaVuSans-61"/>
      <use x="563.574219" xlink:href="#DejaVuSans-6c"/>
      <use x="591.357422" xlink:href="#DejaVuSans-20"/>
      <use x="623.144531" xlink:href="#DejaVuSans-66"/>
      <use x="658.349609" xlink:href="#DejaVuSans-69"/>
      <use x="686.132812" xlink:href="#DejaVuSans-74"/>
     </g>
    </g>
    <g id="line2d_26">
     <path d="M 1019.17125 175.194375 
L 1067.17125 175.194375 
" style="fill:none;stroke:#9467bd;stroke-linecap:square;stroke-width:2;"/>
    </g>
    <g id="line2d_27"/>
    <g id="text_19">
     <!-- Laplace fit -->
     <g transform="translate(1086.37125 183.594375)scale(0.24 -0.24)">
      <defs>
       <path d="M 628 4666 
L 1259 4666 
L 1259 531 
L 3531 531 
L 3531 0 
L 628 0 
L 628 4666 
z
" id="DejaVuSans-4c" transform="scale(0.015625)"/>
       <path d="M 3122 3366 
L 3122 2828 
Q 2878 2963 2633 3030 
Q 2388 3097 2138 3097 
Q 1578 3097 1268 2742 
Q 959 2388 959 1747 
Q 959 1106 1268 751 
Q 1578 397 2138 397 
Q 2388 397 2633 464 
Q 2878 531 3122 666 
L 3122 134 
Q 2881 22 2623 -34 
Q 2366 -91 2075 -91 
Q 1284 -91 818 406 
Q 353 903 353 1747 
Q 353 2603 823 3093 
Q 1294 3584 2113 3584 
Q 2378 3584 2631 3529 
Q 2884 3475 3122 3366 
z
" id="DejaVuSans-63" transform="scale(0.015625)"/>
      </defs>
      <use xlink:href="#DejaVuSans-4c"/>
      <use x="55.712891" xlink:href="#DejaVuSans-61"/>
      <use x="116.992188" xlink:href="#DejaVuSans-70"/>
      <use x="180.46875" xlink:href="#DejaVuSans-6c"/>
      <use x="208.251953" xlink:href="#DejaVuSans-61"/>
      <use x="269.53125" xlink:href="#DejaVuSans-63"/>
      <use x="324.511719" xlink:href="#DejaVuSans-65"/>
      <use x="386.035156" xlink:href="#DejaVuSans-20"/>
      <use x="417.822266" xlink:href="#DejaVuSans-66"/>
      <use x="453.027344" xlink:href="#DejaVuSans-69"/>
      <use x="480.810547" xlink:href="#DejaVuSans-74"/>
     </g>
    </g>
    <g id="line2d_28">
     <path d="M 1019.17125 210.421875 
L 1067.17125 210.421875 
" style="fill:none;stroke:#8c564b;stroke-linecap:square;stroke-width:2;"/>
    </g>
    <g id="line2d_29"/>
    <g id="text_20">
     <!-- LogNorm fit -->
     <g transform="translate(1086.37125 218.821875)scale(0.24 -0.24)">
      <defs>
       <path d="M 2906 1791 
Q 2906 2416 2648 2759 
Q 2391 3103 1925 3103 
Q 1463 3103 1205 2759 
Q 947 2416 947 1791 
Q 947 1169 1205 825 
Q 1463 481 1925 481 
Q 2391 481 2648 825 
Q 2906 1169 2906 1791 
z
M 3481 434 
Q 3481 -459 3084 -895 
Q 2688 -1331 1869 -1331 
Q 1566 -1331 1297 -1286 
Q 1028 -1241 775 -1147 
L 775 -588 
Q 1028 -725 1275 -790 
Q 1522 -856 1778 -856 
Q 2344 -856 2625 -561 
Q 2906 -266 2906 331 
L 2906 616 
Q 2728 306 2450 153 
Q 2172 0 1784 0 
Q 1141 0 747 490 
Q 353 981 353 1791 
Q 353 2603 747 3093 
Q 1141 3584 1784 3584 
Q 2172 3584 2450 3431 
Q 2728 3278 2906 2969 
L 2906 3500 
L 3481 3500 
L 3481 434 
z
" id="DejaVuSans-67" transform="scale(0.015625)"/>
      </defs>
      <use xlink:href="#DejaVuSans-4c"/>
      <use x="53.962891" xlink:href="#DejaVuSans-6f"/>
      <use x="115.144531" xlink:href="#DejaVuSans-67"/>
      <use x="178.621094" xlink:href="#DejaVuSans-4e"/>
      <use x="253.425781" xlink:href="#DejaVuSans-6f"/>
      <use x="314.607422" xlink:href="#DejaVuSans-72"/>
      <use x="353.970703" xlink:href="#DejaVuSans-6d"/>
      <use x="451.382812" xlink:href="#DejaVuSans-20"/>
      <use x="483.169922" xlink:href="#DejaVuSans-66"/>
      <use x="518.375" xlink:href="#DejaVuSans-69"/>
      <use x="546.158203" xlink:href="#DejaVuSans-74"/>
     </g>
    </g>
    <g id="line2d_30">
     <path d="M 1019.17125 245.649375 
L 1067.17125 245.649375 
" style="fill:none;stroke:#e377c2;stroke-linecap:square;stroke-width:2;"/>
    </g>
    <g id="line2d_31"/>
    <g id="text_21">
     <!-- Normal fit -->
     <g transform="translate(1086.37125 254.049375)scale(0.24 -0.24)">
      <use xlink:href="#DejaVuSans-4e"/>
      <use x="74.804688" xlink:href="#DejaVuSans-6f"/>
      <use x="135.986328" xlink:href="#DejaVuSans-72"/>
      <use x="175.349609" xlink:href="#DejaVuSans-6d"/>
      <use x="272.761719" xlink:href="#DejaVuSans-61"/>
      <use x="334.041016" xlink:href="#DejaVuSans-6c"/>
      <use x="361.824219" xlink:href="#DejaVuSans-20"/>
      <use x="393.611328" xlink:href="#DejaVuSans-66"/>
      <use x="428.816406" xlink:href="#DejaVuSans-69"/>
      <use x="456.599609" xlink:href="#DejaVuSans-74"/>
     </g>
    </g>
    <g id="patch_108">
     <path d="M 1019.17125 289.276875 
L 1067.17125 289.276875 
L 1067.17125 272.476875 
L 1019.17125 272.476875 
z
" style="fill:#1f77b4;opacity:0.6;"/>
    </g>
    <g id="text_22">
     <!-- Generated Chi Distribution -->
     <g transform="translate(1086.37125 289.276875)scale(0.24 -0.24)">
      <defs>
       <path d="M 3809 666 
L 3809 1919 
L 2778 1919 
L 2778 2438 
L 4434 2438 
L 4434 434 
Q 4069 175 3628 42 
Q 3188 -91 2688 -91 
Q 1594 -91 976 548 
Q 359 1188 359 2328 
Q 359 3472 976 4111 
Q 1594 4750 2688 4750 
Q 3144 4750 3555 4637 
Q 3966 4525 4313 4306 
L 4313 3634 
Q 3963 3931 3569 4081 
Q 3175 4231 2741 4231 
Q 1884 4231 1454 3753 
Q 1025 3275 1025 2328 
Q 1025 1384 1454 906 
Q 1884 428 2741 428 
Q 3075 428 3337 486 
Q 3600 544 3809 666 
z
" id="DejaVuSans-47" transform="scale(0.015625)"/>
      </defs>
      <use xlink:href="#DejaVuSans-47"/>
      <use x="77.490234" xlink:href="#DejaVuSans-65"/>
      <use x="139.013672" xlink:href="#DejaVuSans-6e"/>
      <use x="202.392578" xlink:href="#DejaVuSans-65"/>
      <use x="263.916016" xlink:href="#DejaVuSans-72"/>
      <use x="305.029297" xlink:href="#DejaVuSans-61"/>
      <use x="366.308594" xlink:href="#DejaVuSans-74"/>
      <use x="405.517578" xlink:href="#DejaVuSans-65"/>
      <use x="467.041016" xlink:href="#DejaVuSans-64"/>
      <use x="530.517578" xlink:href="#DejaVuSans-20"/>
      <use x="562.304688" xlink:href="#DejaVuSans-43"/>
      <use x="632.128906" xlink:href="#DejaVuSans-68"/>
      <use x="695.507812" xlink:href="#DejaVuSans-69"/>
      <use x="723.291016" xlink:href="#DejaVuSans-20"/>
      <use x="755.078125" xlink:href="#DejaVuSans-44"/>
      <use x="832.080078" xlink:href="#DejaVuSans-69"/>
      <use x="859.863281" xlink:href="#DejaVuSans-73"/>
      <use x="911.962891" xlink:href="#DejaVuSans-74"/>
      <use x="951.171875" xlink:href="#DejaVuSans-72"/>
      <use x="992.285156" xlink:href="#DejaVuSans-69"/>
      <use x="1020.068359" xlink:href="#DejaVuSans-62"/>
      <use x="1083.544922" xlink:href="#DejaVuSans-75"/>
      <use x="1146.923828" xlink:href="#DejaVuSans-74"/>
      <use x="1186.132812" xlink:href="#DejaVuSans-69"/>
      <use x="1213.916016" xlink:href="#DejaVuSans-6f"/>
      <use x="1275.097656" xlink:href="#DejaVuSans-6e"/>
     </g>
    </g>
   </g>
  </g>
 </g>
 <defs>
  <clipPath id="p6b3feb858b">
   <rect height="790.70375" width="1356.514688" x="72.685313" y="38.075625"/>
  </clipPath>
 </defs>
</svg>
