<?xml version="1.0" encoding="utf-8" standalone="no"?>
<!DOCTYPE svg PUBLIC "-//W3C//DTD SVG 1.1//EN"
  "http://www.w3.org/Graphics/SVG/1.1/DTD/svg11.dtd">
<svg xmlns:xlink="http://www.w3.org/1999/xlink" width="1440pt" height="864pt" viewBox="0 0 1440 864" xmlns="http://www.w3.org/2000/svg" version="1.1">
 <metadata>
  <rdf:RDF xmlns:dc="http://purl.org/dc/elements/1.1/" xmlns:cc="http://creativecommons.org/ns#" xmlns:rdf="http://www.w3.org/1999/02/22-rdf-syntax-ns#">
   <cc:Work>
    <dc:type rdf:resource="http://purl.org/dc/dcmitype/StillImage"/>
    <dc:date>2022-02-23T20:00:36.022324</dc:date>
    <dc:format>image/svg+xml</dc:format>
    <dc:creator>
     <cc:Agent>
      <dc:title>Matplotlib v3.5.1, https://matplotlib.org/</dc:title>
     </cc:Agent>
    </dc:creator>
   </cc:Work>
  </rdf:RDF>
 </metadata>
 <defs>
  <style type="text/css">*{stroke-linejoin: round; stroke-linecap: butt}</style>
 </defs>
 <g id="figure_1">
  <g id="patch_1">
   <path d="M 0 864 
L 1440 864 
L 1440 0 
L 0 0 
z
" style="fill: #ffffff"/>
  </g>
  <g id="axes_1">
   <g id="patch_2">
    <path d="M 72.685313 828.779375 
L 1429.2 828.779375 
L 1429.2 38.075625 
L 72.685313 38.075625 
z
" style="fill: #ffffff"/>
   </g>
   <g id="patch_3">
    <path d="M 134.345071 828.779375 
L 146.677023 828.779375 
L 146.677023 825.269816 
L 134.345071 825.269816 
z
" clip-path="url(#pb8163e10e3)" style="fill: #1f77b4; opacity: 0.6"/>
   </g>
   <g id="patch_4">
    <path d="M 146.677023 828.779375 
L 159.008974 828.779375 
L 159.008974 823.765719 
L 146.677023 823.765719 
z
" clip-path="url(#pb8163e10e3)" style="fill: #1f77b4; opacity: 0.6"/>
   </g>
   <g id="patch_5">
    <path d="M 159.008974 828.779375 
L 171.340926 828.779375 
L 171.340926 814.741137 
L 159.008974 814.741137 
z
" clip-path="url(#pb8163e10e3)" style="fill: #1f77b4; opacity: 0.6"/>
   </g>
   <g id="patch_6">
    <path d="M 171.340926 828.779375 
L 183.672878 828.779375 
L 183.672878 804.713824 
L 171.340926 804.713824 
z
" clip-path="url(#pb8163e10e3)" style="fill: #1f77b4; opacity: 0.6"/>
   </g>
   <g id="patch_7">
    <path d="M 183.672878 828.779375 
L 196.00483 828.779375 
L 196.00483 797.19334 
L 183.672878 797.19334 
z
" clip-path="url(#pb8163e10e3)" style="fill: #1f77b4; opacity: 0.6"/>
   </g>
   <g id="patch_8">
    <path d="M 196.00483 828.779375 
L 208.336781 828.779375 
L 208.336781 781.651005 
L 196.00483 781.651005 
z
" clip-path="url(#pb8163e10e3)" style="fill: #1f77b4; opacity: 0.6"/>
   </g>
   <g id="patch_9">
    <path d="M 208.336781 828.779375 
L 220.668733 828.779375 
L 220.668733 766.10867 
L 208.336781 766.10867 
z
" clip-path="url(#pb8163e10e3)" style="fill: #1f77b4; opacity: 0.6"/>
   </g>
   <g id="patch_10">
    <path d="M 220.668733 828.779375 
L 233.000685 828.779375 
L 233.000685 751.067701 
L 220.668733 751.067701 
z
" clip-path="url(#pb8163e10e3)" style="fill: #1f77b4; opacity: 0.6"/>
   </g>
   <g id="patch_11">
    <path d="M 233.000685 828.779375 
L 245.332636 828.779375 
L 245.332636 713.966644 
L 233.000685 713.966644 
z
" clip-path="url(#pb8163e10e3)" style="fill: #1f77b4; opacity: 0.6"/>
   </g>
   <g id="patch_12">
    <path d="M 245.332636 828.779375 
L 257.664588 828.779375 
L 257.664588 694.413384 
L 245.332636 694.413384 
z
" clip-path="url(#pb8163e10e3)" style="fill: #1f77b4; opacity: 0.6"/>
   </g>
   <g id="patch_13">
    <path d="M 257.664588 828.779375 
L 269.99654 828.779375 
L 269.99654 667.841005 
L 257.664588 667.841005 
z
" clip-path="url(#pb8163e10e3)" style="fill: #1f77b4; opacity: 0.6"/>
   </g>
   <g id="patch_14">
    <path d="M 269.99654 828.779375 
L 282.328491 828.779375 
L 282.328491 657.813692 
L 269.99654 657.813692 
z
" clip-path="url(#pb8163e10e3)" style="fill: #1f77b4; opacity: 0.6"/>
   </g>
   <g id="patch_15">
    <path d="M 282.328491 828.779375 
L 294.660443 828.779375 
L 294.660443 604.668934 
L 282.328491 604.668934 
z
" clip-path="url(#pb8163e10e3)" style="fill: #1f77b4; opacity: 0.6"/>
   </g>
   <g id="patch_16">
    <path d="M 294.660443 828.779375 
L 306.992395 828.779375 
L 306.992395 563.556952 
L 294.660443 563.556952 
z
" clip-path="url(#pb8163e10e3)" style="fill: #1f77b4; opacity: 0.6"/>
   </g>
   <g id="patch_17">
    <path d="M 306.992395 828.779375 
L 319.324347 828.779375 
L 319.324347 536.984573 
L 306.992395 536.984573 
z
" clip-path="url(#pb8163e10e3)" style="fill: #1f77b4; opacity: 0.6"/>
   </g>
   <g id="patch_18">
    <path d="M 319.324347 828.779375 
L 331.656298 828.779375 
L 331.656298 472.308405 
L 319.324347 472.308405 
z
" clip-path="url(#pb8163e10e3)" style="fill: #1f77b4; opacity: 0.6"/>
   </g>
   <g id="patch_19">
    <path d="M 331.656298 828.779375 
L 343.98825 828.779375 
L 343.98825 437.714176 
L 331.656298 437.714176 
z
" clip-path="url(#pb8163e10e3)" style="fill: #1f77b4; opacity: 0.6"/>
   </g>
   <g id="patch_20">
    <path d="M 343.98825 828.779375 
L 356.320202 828.779375 
L 356.320202 401.114485 
L 343.98825 401.114485 
z
" clip-path="url(#pb8163e10e3)" style="fill: #1f77b4; opacity: 0.6"/>
   </g>
   <g id="patch_21">
    <path d="M 356.320202 828.779375 
L 368.652153 828.779375 
L 368.652153 396.100828 
L 356.320202 396.100828 
z
" clip-path="url(#pb8163e10e3)" style="fill: #1f77b4; opacity: 0.6"/>
   </g>
   <g id="patch_22">
    <path d="M 368.652153 828.779375 
L 380.984105 828.779375 
L 380.984105 313.876863 
L 368.652153 313.876863 
z
" clip-path="url(#pb8163e10e3)" style="fill: #1f77b4; opacity: 0.6"/>
   </g>
   <g id="patch_23">
    <path d="M 380.984105 828.779375 
L 393.316057 828.779375 
L 393.316057 308.361841 
L 380.984105 308.361841 
z
" clip-path="url(#pb8163e10e3)" style="fill: #1f77b4; opacity: 0.6"/>
   </g>
   <g id="patch_24">
    <path d="M 393.316057 828.779375 
L 405.648009 828.779375 
L 405.648009 247.696599 
L 393.316057 247.696599 
z
" clip-path="url(#pb8163e10e3)" style="fill: #1f77b4; opacity: 0.6"/>
   </g>
   <g id="patch_25">
    <path d="M 405.648009 828.779375 
L 417.97996 828.779375 
L 417.97996 190.540916 
L 405.648009 190.540916 
z
" clip-path="url(#pb8163e10e3)" style="fill: #1f77b4; opacity: 0.6"/>
   </g>
   <g id="patch_26">
    <path d="M 417.97996 828.779375 
L 430.311912 828.779375 
L 430.311912 195.053207 
L 417.97996 195.053207 
z
" clip-path="url(#pb8163e10e3)" style="fill: #1f77b4; opacity: 0.6"/>
   </g>
   <g id="patch_27">
    <path d="M 430.311912 828.779375 
L 442.643864 828.779375 
L 442.643864 174.497215 
L 430.311912 174.497215 
z
" clip-path="url(#pb8163e10e3)" style="fill: #1f77b4; opacity: 0.6"/>
   </g>
   <g id="patch_28">
    <path d="M 442.643864 828.779375 
L 454.975815 828.779375 
L 454.975815 120.851092 
L 442.643864 120.851092 
z
" clip-path="url(#pb8163e10e3)" style="fill: #1f77b4; opacity: 0.6"/>
   </g>
   <g id="patch_29">
    <path d="M 454.975815 828.779375 
L 467.307767 828.779375 
L 467.307767 152.437127 
L 454.975815 152.437127 
z
" clip-path="url(#pb8163e10e3)" style="fill: #1f77b4; opacity: 0.6"/>
   </g>
   <g id="patch_30">
    <path d="M 467.307767 828.779375 
L 479.639719 828.779375 
L 479.639719 98.289638 
L 467.307767 98.289638 
z
" clip-path="url(#pb8163e10e3)" style="fill: #1f77b4; opacity: 0.6"/>
   </g>
   <g id="patch_31">
    <path d="M 479.639719 828.779375 
L 491.97167 828.779375 
L 491.97167 103.80466 
L 479.639719 103.80466 
z
" clip-path="url(#pb8163e10e3)" style="fill: #1f77b4; opacity: 0.6"/>
   </g>
   <g id="patch_32">
    <path d="M 491.97167 828.779375 
L 504.303622 828.779375 
L 504.303622 75.728185 
L 491.97167 75.728185 
z
" clip-path="url(#pb8163e10e3)" style="fill: #1f77b4; opacity: 0.6"/>
   </g>
   <g id="patch_33">
    <path d="M 504.303622 828.779375 
L 516.635574 828.779375 
L 516.635574 91.270519 
L 504.303622 91.270519 
z
" clip-path="url(#pb8163e10e3)" style="fill: #1f77b4; opacity: 0.6"/>
   </g>
   <g id="patch_34">
    <path d="M 516.635574 828.779375 
L 528.967526 828.779375 
L 528.967526 104.807392 
L 516.635574 104.807392 
z
" clip-path="url(#pb8163e10e3)" style="fill: #1f77b4; opacity: 0.6"/>
   </g>
   <g id="patch_35">
    <path d="M 528.967526 828.779375 
L 541.299477 828.779375 
L 541.299477 92.273251 
L 528.967526 92.273251 
z
" clip-path="url(#pb8163e10e3)" style="fill: #1f77b4; opacity: 0.6"/>
   </g>
   <g id="patch_36">
    <path d="M 541.299477 828.779375 
L 553.631429 828.779375 
L 553.631429 104.807392 
L 541.299477 104.807392 
z
" clip-path="url(#pb8163e10e3)" style="fill: #1f77b4; opacity: 0.6"/>
   </g>
   <g id="patch_37">
    <path d="M 553.631429 828.779375 
L 565.963381 828.779375 
L 565.963381 92.774616 
L 553.631429 92.774616 
z
" clip-path="url(#pb8163e10e3)" style="fill: #1f77b4; opacity: 0.6"/>
   </g>
   <g id="patch_38">
    <path d="M 565.963381 828.779375 
L 578.295332 828.779375 
L 578.295332 125.864748 
L 565.963381 125.864748 
z
" clip-path="url(#pb8163e10e3)" style="fill: #1f77b4; opacity: 0.6"/>
   </g>
   <g id="patch_39">
    <path d="M 578.295332 828.779375 
L 590.627284 828.779375 
L 590.627284 158.954881 
L 578.295332 158.954881 
z
" clip-path="url(#pb8163e10e3)" style="fill: #1f77b4; opacity: 0.6"/>
   </g>
   <g id="patch_40">
    <path d="M 590.627284 828.779375 
L 602.959236 828.779375 
L 602.959236 163.467171 
L 590.627284 163.467171 
z
" clip-path="url(#pb8163e10e3)" style="fill: #1f77b4; opacity: 0.6"/>
   </g>
   <g id="patch_41">
    <path d="M 602.959236 828.779375 
L 615.291188 828.779375 
L 615.291188 140.905718 
L 602.959236 140.905718 
z
" clip-path="url(#pb8163e10e3)" style="fill: #1f77b4; opacity: 0.6"/>
   </g>
   <g id="patch_42">
    <path d="M 615.291188 828.779375 
L 627.623139 828.779375 
L 627.623139 215.609198 
L 615.291188 215.609198 
z
" clip-path="url(#pb8163e10e3)" style="fill: #1f77b4; opacity: 0.6"/>
   </g>
   <g id="patch_43">
    <path d="M 627.623139 828.779375 
L 639.955091 828.779375 
L 639.955091 226.137876 
L 627.623139 226.137876 
z
" clip-path="url(#pb8163e10e3)" style="fill: #1f77b4; opacity: 0.6"/>
   </g>
   <g id="patch_44">
    <path d="M 639.955091 828.779375 
L 652.287043 828.779375 
L 652.287043 271.76215 
L 639.955091 271.76215 
z
" clip-path="url(#pb8163e10e3)" style="fill: #1f77b4; opacity: 0.6"/>
   </g>
   <g id="patch_45">
    <path d="M 652.287043 828.779375 
L 664.618994 828.779375 
L 664.618994 265.244396 
L 652.287043 265.244396 
z
" clip-path="url(#pb8163e10e3)" style="fill: #1f77b4; opacity: 0.6"/>
   </g>
   <g id="patch_46">
    <path d="M 664.618994 828.779375 
L 676.950946 828.779375 
L 676.950946 299.838625 
L 664.618994 299.838625 
z
" clip-path="url(#pb8163e10e3)" style="fill: #1f77b4; opacity: 0.6"/>
   </g>
   <g id="patch_47">
    <path d="M 676.950946 828.779375 
L 689.282898 828.779375 
L 689.282898 315.882326 
L 676.950946 315.882326 
z
" clip-path="url(#pb8163e10e3)" style="fill: #1f77b4; opacity: 0.6"/>
   </g>
   <g id="patch_48">
    <path d="M 689.282898 828.779375 
L 701.614849 828.779375 
L 701.614849 384.569418 
L 689.282898 384.569418 
z
" clip-path="url(#pb8163e10e3)" style="fill: #1f77b4; opacity: 0.6"/>
   </g>
   <g id="patch_49">
    <path d="M 701.614849 828.779375 
L 713.946801 828.779375 
L 713.946801 408.133603 
L 701.614849 408.133603 
z
" clip-path="url(#pb8163e10e3)" style="fill: #1f77b4; opacity: 0.6"/>
   </g>
   <g id="patch_50">
    <path d="M 713.946801 828.779375 
L 726.278753 828.779375 
L 726.278753 409.136335 
L 713.946801 409.136335 
z
" clip-path="url(#pb8163e10e3)" style="fill: #1f77b4; opacity: 0.6"/>
   </g>
   <g id="patch_51">
    <path d="M 726.278753 828.779375 
L 738.610705 828.779375 
L 738.610705 460.27563 
L 726.278753 460.27563 
z
" clip-path="url(#pb8163e10e3)" style="fill: #1f77b4; opacity: 0.6"/>
   </g>
   <g id="patch_52">
    <path d="M 738.610705 828.779375 
L 750.942656 828.779375 
L 750.942656 495.87259 
L 738.610705 495.87259 
z
" clip-path="url(#pb8163e10e3)" style="fill: #1f77b4; opacity: 0.6"/>
   </g>
   <g id="patch_53">
    <path d="M 750.942656 828.779375 
L 763.274608 828.779375 
L 763.274608 503.393075 
L 750.942656 503.393075 
z
" clip-path="url(#pb8163e10e3)" style="fill: #1f77b4; opacity: 0.6"/>
   </g>
   <g id="patch_54">
    <path d="M 763.274608 828.779375 
L 775.60656 828.779375 
L 775.60656 550.521445 
L 763.274608 550.521445 
z
" clip-path="url(#pb8163e10e3)" style="fill: #1f77b4; opacity: 0.6"/>
   </g>
   <g id="patch_55">
    <path d="M 775.60656 828.779375 
L 787.938511 828.779375 
L 787.938511 593.137524 
L 775.60656 593.137524 
z
" clip-path="url(#pb8163e10e3)" style="fill: #1f77b4; opacity: 0.6"/>
   </g>
   <g id="patch_56">
    <path d="M 787.938511 828.779375 
L 800.270463 828.779375 
L 800.270463 593.63889 
L 787.938511 593.63889 
z
" clip-path="url(#pb8163e10e3)" style="fill: #1f77b4; opacity: 0.6"/>
   </g>
   <g id="patch_57">
    <path d="M 800.270463 828.779375 
L 812.602415 828.779375 
L 812.602415 607.677128 
L 800.270463 607.677128 
z
" clip-path="url(#pb8163e10e3)" style="fill: #1f77b4; opacity: 0.6"/>
   </g>
   <g id="patch_58">
    <path d="M 812.602415 828.779375 
L 824.934366 828.779375 
L 824.934366 627.731754 
L 812.602415 627.731754 
z
" clip-path="url(#pb8163e10e3)" style="fill: #1f77b4; opacity: 0.6"/>
   </g>
   <g id="patch_59">
    <path d="M 824.934366 828.779375 
L 837.266318 828.779375 
L 837.266318 650.794573 
L 824.934366 650.794573 
z
" clip-path="url(#pb8163e10e3)" style="fill: #1f77b4; opacity: 0.6"/>
   </g>
   <g id="patch_60">
    <path d="M 837.266318 828.779375 
L 849.59827 828.779375 
L 849.59827 656.810961 
L 837.266318 656.810961 
z
" clip-path="url(#pb8163e10e3)" style="fill: #1f77b4; opacity: 0.6"/>
   </g>
   <g id="patch_61">
    <path d="M 849.59827 828.779375 
L 861.930222 828.779375 
L 861.930222 702.435234 
L 849.59827 702.435234 
z
" clip-path="url(#pb8163e10e3)" style="fill: #1f77b4; opacity: 0.6"/>
   </g>
   <g id="patch_62">
    <path d="M 861.930222 828.779375 
L 874.262173 828.779375 
L 874.262173 706.446159 
L 861.930222 706.446159 
z
" clip-path="url(#pb8163e10e3)" style="fill: #1f77b4; opacity: 0.6"/>
   </g>
   <g id="patch_63">
    <path d="M 874.262173 828.779375 
L 886.594125 828.779375 
L 886.594125 724.495322 
L 874.262173 724.495322 
z
" clip-path="url(#pb8163e10e3)" style="fill: #1f77b4; opacity: 0.6"/>
   </g>
   <g id="patch_64">
    <path d="M 886.594125 828.779375 
L 898.926077 828.779375 
L 898.926077 739.536291 
L 886.594125 739.536291 
z
" clip-path="url(#pb8163e10e3)" style="fill: #1f77b4; opacity: 0.6"/>
   </g>
   <g id="patch_65">
    <path d="M 898.926077 828.779375 
L 911.258028 828.779375 
L 911.258028 739.536291 
L 898.926077 739.536291 
z
" clip-path="url(#pb8163e10e3)" style="fill: #1f77b4; opacity: 0.6"/>
   </g>
   <g id="patch_66">
    <path d="M 911.258028 828.779375 
L 923.58998 828.779375 
L 923.58998 747.558141 
L 911.258028 747.558141 
z
" clip-path="url(#pb8163e10e3)" style="fill: #1f77b4; opacity: 0.6"/>
   </g>
   <g id="patch_67">
    <path d="M 923.58998 828.779375 
L 935.921932 828.779375 
L 935.921932 758.588185 
L 923.58998 758.588185 
z
" clip-path="url(#pb8163e10e3)" style="fill: #1f77b4; opacity: 0.6"/>
   </g>
   <g id="patch_68">
    <path d="M 935.921932 828.779375 
L 948.253884 828.779375 
L 948.253884 769.61823 
L 935.921932 769.61823 
z
" clip-path="url(#pb8163e10e3)" style="fill: #1f77b4; opacity: 0.6"/>
   </g>
   <g id="patch_69">
    <path d="M 948.253884 828.779375 
L 960.585835 828.779375 
L 960.585835 779.144177 
L 948.253884 779.144177 
z
" clip-path="url(#pb8163e10e3)" style="fill: #1f77b4; opacity: 0.6"/>
   </g>
   <g id="patch_70">
    <path d="M 960.585835 828.779375 
L 972.917787 828.779375 
L 972.917787 785.160564 
L 960.585835 785.160564 
z
" clip-path="url(#pb8163e10e3)" style="fill: #1f77b4; opacity: 0.6"/>
   </g>
   <g id="patch_71">
    <path d="M 972.917787 828.779375 
L 985.249739 828.779375 
L 985.249739 786.664661 
L 972.917787 786.664661 
z
" clip-path="url(#pb8163e10e3)" style="fill: #1f77b4; opacity: 0.6"/>
   </g>
   <g id="patch_72">
    <path d="M 985.249739 828.779375 
L 997.58169 828.779375 
L 997.58169 798.697437 
L 985.249739 798.697437 
z
" clip-path="url(#pb8163e10e3)" style="fill: #1f77b4; opacity: 0.6"/>
   </g>
   <g id="patch_73">
    <path d="M 997.58169 828.779375 
L 1009.913642 828.779375 
L 1009.913642 797.694705 
L 997.58169 797.694705 
z
" clip-path="url(#pb8163e10e3)" style="fill: #1f77b4; opacity: 0.6"/>
   </g>
   <g id="patch_74">
    <path d="M 1009.913642 828.779375 
L 1022.245594 828.779375 
L 1022.245594 797.19334 
L 1009.913642 797.19334 
z
" clip-path="url(#pb8163e10e3)" style="fill: #1f77b4; opacity: 0.6"/>
   </g>
   <g id="patch_75">
    <path d="M 1022.245594 828.779375 
L 1034.577545 828.779375 
L 1034.577545 804.713824 
L 1022.245594 804.713824 
z
" clip-path="url(#pb8163e10e3)" style="fill: #1f77b4; opacity: 0.6"/>
   </g>
   <g id="patch_76">
    <path d="M 1034.577545 828.779375 
L 1046.909497 828.779375 
L 1046.909497 809.226115 
L 1034.577545 809.226115 
z
" clip-path="url(#pb8163e10e3)" style="fill: #1f77b4; opacity: 0.6"/>
   </g>
   <g id="patch_77">
    <path d="M 1046.909497 828.779375 
L 1059.241449 828.779375 
L 1059.241449 816.245234 
L 1046.909497 816.245234 
z
" clip-path="url(#pb8163e10e3)" style="fill: #1f77b4; opacity: 0.6"/>
   </g>
   <g id="patch_78">
    <path d="M 1059.241449 828.779375 
L 1071.573401 828.779375 
L 1071.573401 818.250697 
L 1059.241449 818.250697 
z
" clip-path="url(#pb8163e10e3)" style="fill: #1f77b4; opacity: 0.6"/>
   </g>
   <g id="patch_79">
    <path d="M 1071.573401 828.779375 
L 1083.905352 828.779375 
L 1083.905352 815.743868 
L 1071.573401 815.743868 
z
" clip-path="url(#pb8163e10e3)" style="fill: #1f77b4; opacity: 0.6"/>
   </g>
   <g id="patch_80">
    <path d="M 1083.905352 828.779375 
L 1096.237304 828.779375 
L 1096.237304 821.25889 
L 1083.905352 821.25889 
z
" clip-path="url(#pb8163e10e3)" style="fill: #1f77b4; opacity: 0.6"/>
   </g>
   <g id="patch_81">
    <path d="M 1096.237304 828.779375 
L 1108.569256 828.779375 
L 1108.569256 821.25889 
L 1096.237304 821.25889 
z
" clip-path="url(#pb8163e10e3)" style="fill: #1f77b4; opacity: 0.6"/>
   </g>
   <g id="patch_82">
    <path d="M 1108.569256 828.779375 
L 1120.901207 828.779375 
L 1120.901207 821.25889 
L 1108.569256 821.25889 
z
" clip-path="url(#pb8163e10e3)" style="fill: #1f77b4; opacity: 0.6"/>
   </g>
   <g id="patch_83">
    <path d="M 1120.901207 828.779375 
L 1133.233159 828.779375 
L 1133.233159 825.269816 
L 1120.901207 825.269816 
z
" clip-path="url(#pb8163e10e3)" style="fill: #1f77b4; opacity: 0.6"/>
   </g>
   <g id="patch_84">
    <path d="M 1133.233159 828.779375 
L 1145.565111 828.779375 
L 1145.565111 824.267084 
L 1133.233159 824.267084 
z
" clip-path="url(#pb8163e10e3)" style="fill: #1f77b4; opacity: 0.6"/>
   </g>
   <g id="patch_85">
    <path d="M 1145.565111 828.779375 
L 1157.897063 828.779375 
L 1157.897063 825.771181 
L 1145.565111 825.771181 
z
" clip-path="url(#pb8163e10e3)" style="fill: #1f77b4; opacity: 0.6"/>
   </g>
   <g id="patch_86">
    <path d="M 1157.897063 828.779375 
L 1170.229014 828.779375 
L 1170.229014 824.76845 
L 1157.897063 824.76845 
z
" clip-path="url(#pb8163e10e3)" style="fill: #1f77b4; opacity: 0.6"/>
   </g>
   <g id="patch_87">
    <path d="M 1170.229014 828.779375 
L 1182.560966 828.779375 
L 1182.560966 826.773912 
L 1170.229014 826.773912 
z
" clip-path="url(#pb8163e10e3)" style="fill: #1f77b4; opacity: 0.6"/>
   </g>
   <g id="patch_88">
    <path d="M 1182.560966 828.779375 
L 1194.892918 828.779375 
L 1194.892918 826.272547 
L 1182.560966 826.272547 
z
" clip-path="url(#pb8163e10e3)" style="fill: #1f77b4; opacity: 0.6"/>
   </g>
   <g id="patch_89">
    <path d="M 1194.892918 828.779375 
L 1207.224869 828.779375 
L 1207.224869 826.272547 
L 1194.892918 826.272547 
z
" clip-path="url(#pb8163e10e3)" style="fill: #1f77b4; opacity: 0.6"/>
   </g>
   <g id="patch_90">
    <path d="M 1207.224869 828.779375 
L 1219.556821 828.779375 
L 1219.556821 826.272547 
L 1207.224869 826.272547 
z
" clip-path="url(#pb8163e10e3)" style="fill: #1f77b4; opacity: 0.6"/>
   </g>
   <g id="patch_91">
    <path d="M 1219.556821 828.779375 
L 1231.888773 828.779375 
L 1231.888773 827.776644 
L 1219.556821 827.776644 
z
" clip-path="url(#pb8163e10e3)" style="fill: #1f77b4; opacity: 0.6"/>
   </g>
   <g id="patch_92">
    <path d="M 1231.888773 828.779375 
L 1244.220724 828.779375 
L 1244.220724 827.776644 
L 1231.888773 827.776644 
z
" clip-path="url(#pb8163e10e3)" style="fill: #1f77b4; opacity: 0.6"/>
   </g>
   <g id="patch_93">
    <path d="M 1244.220724 828.779375 
L 1256.552676 828.779375 
L 1256.552676 827.776644 
L 1244.220724 827.776644 
z
" clip-path="url(#pb8163e10e3)" style="fill: #1f77b4; opacity: 0.6"/>
   </g>
   <g id="patch_94">
    <path d="M 1256.552676 828.779375 
L 1268.884628 828.779375 
L 1268.884628 828.278009 
L 1256.552676 828.278009 
z
" clip-path="url(#pb8163e10e3)" style="fill: #1f77b4; opacity: 0.6"/>
   </g>
   <g id="patch_95">
    <path d="M 1268.884628 828.779375 
L 1281.21658 828.779375 
L 1281.21658 828.278009 
L 1268.884628 828.278009 
z
" clip-path="url(#pb8163e10e3)" style="fill: #1f77b4; opacity: 0.6"/>
   </g>
   <g id="patch_96">
    <path d="M 1281.21658 828.779375 
L 1293.548531 828.779375 
L 1293.548531 827.776644 
L 1281.21658 827.776644 
z
" clip-path="url(#pb8163e10e3)" style="fill: #1f77b4; opacity: 0.6"/>
   </g>
   <g id="patch_97">
    <path d="M 1293.548531 828.779375 
L 1305.880483 828.779375 
L 1305.880483 828.779375 
L 1293.548531 828.779375 
z
" clip-path="url(#pb8163e10e3)" style="fill: #1f77b4; opacity: 0.6"/>
   </g>
   <g id="patch_98">
    <path d="M 1305.880483 828.779375 
L 1318.212435 828.779375 
L 1318.212435 828.779375 
L 1305.880483 828.779375 
z
" clip-path="url(#pb8163e10e3)" style="fill: #1f77b4; opacity: 0.6"/>
   </g>
   <g id="patch_99">
    <path d="M 1318.212435 828.779375 
L 1330.544386 828.779375 
L 1330.544386 828.779375 
L 1318.212435 828.779375 
z
" clip-path="url(#pb8163e10e3)" style="fill: #1f77b4; opacity: 0.6"/>
   </g>
   <g id="patch_100">
    <path d="M 1330.544386 828.779375 
L 1342.876338 828.779375 
L 1342.876338 828.779375 
L 1330.544386 828.779375 
z
" clip-path="url(#pb8163e10e3)" style="fill: #1f77b4; opacity: 0.6"/>
   </g>
   <g id="patch_101">
    <path d="M 1342.876338 828.779375 
L 1355.20829 828.779375 
L 1355.20829 828.779375 
L 1342.876338 828.779375 
z
" clip-path="url(#pb8163e10e3)" style="fill: #1f77b4; opacity: 0.6"/>
   </g>
   <g id="patch_102">
    <path d="M 1355.20829 828.779375 
L 1367.540241 828.779375 
L 1367.540241 828.278009 
L 1355.20829 828.278009 
z
" clip-path="url(#pb8163e10e3)" style="fill: #1f77b4; opacity: 0.6"/>
   </g>
   <g id="matplotlib.axis_1">
    <g id="xtick_1">
     <g id="line2d_1">
      <defs>
       <path id="mc26fbaf458" d="M 0 0 
L 0 3.5 
" style="stroke: #000000; stroke-width: 0.8"/>
      </defs>
      <g>
       <use xlink:href="#mc26fbaf458" x="100.473514" y="828.779375" style="stroke: #000000; stroke-width: 0.8"/>
      </g>
     </g>
     <g id="text_1">
      <!-- 0 -->
      <g transform="translate(94.747264 849.456562)scale(0.18 -0.18)">
       <defs>
        <path id="DejaVuSans-30" d="M 2034 4250 
Q 1547 4250 1301 3770 
Q 1056 3291 1056 2328 
Q 1056 1369 1301 889 
Q 1547 409 2034 409 
Q 2525 409 2770 889 
Q 3016 1369 3016 2328 
Q 3016 3291 2770 3770 
Q 2525 4250 2034 4250 
z
M 2034 4750 
Q 2819 4750 3233 4129 
Q 3647 3509 3647 2328 
Q 3647 1150 3233 529 
Q 2819 -91 2034 -91 
Q 1250 -91 836 529 
Q 422 1150 422 2328 
Q 422 3509 836 4129 
Q 1250 4750 2034 4750 
z
" transform="scale(0.015625)"/>
       </defs>
       <use xlink:href="#DejaVuSans-30"/>
      </g>
     </g>
    </g>
    <g id="xtick_2">
     <g id="line2d_2">
      <g>
       <use xlink:href="#mc26fbaf458" x="341.341795" y="828.779375" style="stroke: #000000; stroke-width: 0.8"/>
      </g>
     </g>
     <g id="text_2">
      <!-- 1 -->
      <g transform="translate(335.615545 849.456562)scale(0.18 -0.18)">
       <defs>
        <path id="DejaVuSans-31" d="M 794 531 
L 1825 531 
L 1825 4091 
L 703 3866 
L 703 4441 
L 1819 4666 
L 2450 4666 
L 2450 531 
L 3481 531 
L 3481 0 
L 794 0 
L 794 531 
z
" transform="scale(0.015625)"/>
       </defs>
       <use xlink:href="#DejaVuSans-31"/>
      </g>
     </g>
    </g>
    <g id="xtick_3">
     <g id="line2d_3">
      <g>
       <use xlink:href="#mc26fbaf458" x="582.210077" y="828.779375" style="stroke: #000000; stroke-width: 0.8"/>
      </g>
     </g>
     <g id="text_3">
      <!-- 2 -->
      <g transform="translate(576.483827 849.456562)scale(0.18 -0.18)">
       <defs>
        <path id="DejaVuSans-32" d="M 1228 531 
L 3431 531 
L 3431 0 
L 469 0 
L 469 531 
Q 828 903 1448 1529 
Q 2069 2156 2228 2338 
Q 2531 2678 2651 2914 
Q 2772 3150 2772 3378 
Q 2772 3750 2511 3984 
Q 2250 4219 1831 4219 
Q 1534 4219 1204 4116 
Q 875 4013 500 3803 
L 500 4441 
Q 881 4594 1212 4672 
Q 1544 4750 1819 4750 
Q 2544 4750 2975 4387 
Q 3406 4025 3406 3419 
Q 3406 3131 3298 2873 
Q 3191 2616 2906 2266 
Q 2828 2175 2409 1742 
Q 1991 1309 1228 531 
z
" transform="scale(0.015625)"/>
       </defs>
       <use xlink:href="#DejaVuSans-32"/>
      </g>
     </g>
    </g>
    <g id="xtick_4">
     <g id="line2d_4">
      <g>
       <use xlink:href="#mc26fbaf458" x="823.078358" y="828.779375" style="stroke: #000000; stroke-width: 0.8"/>
      </g>
     </g>
     <g id="text_4">
      <!-- 3 -->
      <g transform="translate(817.352108 849.456562)scale(0.18 -0.18)">
       <defs>
        <path id="DejaVuSans-33" d="M 2597 2516 
Q 3050 2419 3304 2112 
Q 3559 1806 3559 1356 
Q 3559 666 3084 287 
Q 2609 -91 1734 -91 
Q 1441 -91 1130 -33 
Q 819 25 488 141 
L 488 750 
Q 750 597 1062 519 
Q 1375 441 1716 441 
Q 2309 441 2620 675 
Q 2931 909 2931 1356 
Q 2931 1769 2642 2001 
Q 2353 2234 1838 2234 
L 1294 2234 
L 1294 2753 
L 1863 2753 
Q 2328 2753 2575 2939 
Q 2822 3125 2822 3475 
Q 2822 3834 2567 4026 
Q 2313 4219 1838 4219 
Q 1578 4219 1281 4162 
Q 984 4106 628 3988 
L 628 4550 
Q 988 4650 1302 4700 
Q 1616 4750 1894 4750 
Q 2613 4750 3031 4423 
Q 3450 4097 3450 3541 
Q 3450 3153 3228 2886 
Q 3006 2619 2597 2516 
z
" transform="scale(0.015625)"/>
       </defs>
       <use xlink:href="#DejaVuSans-33"/>
      </g>
     </g>
    </g>
    <g id="xtick_5">
     <g id="line2d_5">
      <g>
       <use xlink:href="#mc26fbaf458" x="1063.946639" y="828.779375" style="stroke: #000000; stroke-width: 0.8"/>
      </g>
     </g>
     <g id="text_5">
      <!-- 4 -->
      <g transform="translate(1058.220389 849.456562)scale(0.18 -0.18)">
       <defs>
        <path id="DejaVuSans-34" d="M 2419 4116 
L 825 1625 
L 2419 1625 
L 2419 4116 
z
M 2253 4666 
L 3047 4666 
L 3047 1625 
L 3713 1625 
L 3713 1100 
L 3047 1100 
L 3047 0 
L 2419 0 
L 2419 1100 
L 313 1100 
L 313 1709 
L 2253 4666 
z
" transform="scale(0.015625)"/>
       </defs>
       <use xlink:href="#DejaVuSans-34"/>
      </g>
     </g>
    </g>
    <g id="xtick_6">
     <g id="line2d_6">
      <g>
       <use xlink:href="#mc26fbaf458" x="1304.814921" y="828.779375" style="stroke: #000000; stroke-width: 0.8"/>
      </g>
     </g>
     <g id="text_6">
      <!-- 5 -->
      <g transform="translate(1299.088671 849.456562)scale(0.18 -0.18)">
       <defs>
        <path id="DejaVuSans-35" d="M 691 4666 
L 3169 4666 
L 3169 4134 
L 1269 4134 
L 1269 2991 
Q 1406 3038 1543 3061 
Q 1681 3084 1819 3084 
Q 2600 3084 3056 2656 
Q 3513 2228 3513 1497 
Q 3513 744 3044 326 
Q 2575 -91 1722 -91 
Q 1428 -91 1123 -41 
Q 819 9 494 109 
L 494 744 
Q 775 591 1075 516 
Q 1375 441 1709 441 
Q 2250 441 2565 725 
Q 2881 1009 2881 1497 
Q 2881 1984 2565 2268 
Q 2250 2553 1709 2553 
Q 1456 2553 1204 2497 
Q 953 2441 691 2322 
L 691 4666 
z
" transform="scale(0.015625)"/>
       </defs>
       <use xlink:href="#DejaVuSans-35"/>
      </g>
     </g>
    </g>
   </g>
   <g id="matplotlib.axis_2">
    <g id="ytick_1">
     <g id="line2d_7">
      <defs>
       <path id="m5461d51b7e" d="M 0 0 
L -3.5 0 
" style="stroke: #000000; stroke-width: 0.8"/>
      </defs>
      <g>
       <use xlink:href="#m5461d51b7e" x="72.685313" y="828.779375" style="stroke: #000000; stroke-width: 0.8"/>
      </g>
     </g>
     <g id="text_7">
      <!-- 0.0 -->
      <g transform="translate(37.059688 835.617969)scale(0.18 -0.18)">
       <defs>
        <path id="DejaVuSans-2e" d="M 684 794 
L 1344 794 
L 1344 0 
L 684 0 
L 684 794 
z
" transform="scale(0.015625)"/>
       </defs>
       <use xlink:href="#DejaVuSans-30"/>
       <use xlink:href="#DejaVuSans-2e" x="63.623047"/>
       <use xlink:href="#DejaVuSans-30" x="95.410156"/>
      </g>
     </g>
    </g>
    <g id="ytick_2">
     <g id="line2d_8">
      <g>
       <use xlink:href="#m5461d51b7e" x="72.685313" y="700.43502" style="stroke: #000000; stroke-width: 0.8"/>
      </g>
     </g>
     <g id="text_8">
      <!-- 0.1 -->
      <g transform="translate(37.059688 707.273614)scale(0.18 -0.18)">
       <use xlink:href="#DejaVuSans-30"/>
       <use xlink:href="#DejaVuSans-2e" x="63.623047"/>
       <use xlink:href="#DejaVuSans-31" x="95.410156"/>
      </g>
     </g>
    </g>
    <g id="ytick_3">
     <g id="line2d_9">
      <g>
       <use xlink:href="#m5461d51b7e" x="72.685313" y="572.090665" style="stroke: #000000; stroke-width: 0.8"/>
      </g>
     </g>
     <g id="text_9">
      <!-- 0.2 -->
      <g transform="translate(37.059688 578.929258)scale(0.18 -0.18)">
       <use xlink:href="#DejaVuSans-30"/>
       <use xlink:href="#DejaVuSans-2e" x="63.623047"/>
       <use xlink:href="#DejaVuSans-32" x="95.410156"/>
      </g>
     </g>
    </g>
    <g id="ytick_4">
     <g id="line2d_10">
      <g>
       <use xlink:href="#m5461d51b7e" x="72.685313" y="443.746309" style="stroke: #000000; stroke-width: 0.8"/>
      </g>
     </g>
     <g id="text_10">
      <!-- 0.3 -->
      <g transform="translate(37.059688 450.584903)scale(0.18 -0.18)">
       <use xlink:href="#DejaVuSans-30"/>
       <use xlink:href="#DejaVuSans-2e" x="63.623047"/>
       <use xlink:href="#DejaVuSans-33" x="95.410156"/>
      </g>
     </g>
    </g>
    <g id="ytick_5">
     <g id="line2d_11">
      <g>
       <use xlink:href="#m5461d51b7e" x="72.685313" y="315.401954" style="stroke: #000000; stroke-width: 0.8"/>
      </g>
     </g>
     <g id="text_11">
      <!-- 0.4 -->
      <g transform="translate(37.059688 322.240548)scale(0.18 -0.18)">
       <use xlink:href="#DejaVuSans-30"/>
       <use xlink:href="#DejaVuSans-2e" x="63.623047"/>
       <use xlink:href="#DejaVuSans-34" x="95.410156"/>
      </g>
     </g>
    </g>
    <g id="ytick_6">
     <g id="line2d_12">
      <g>
       <use xlink:href="#m5461d51b7e" x="72.685313" y="187.057599" style="stroke: #000000; stroke-width: 0.8"/>
      </g>
     </g>
     <g id="text_12">
      <!-- 0.5 -->
      <g transform="translate(37.059688 193.896193)scale(0.18 -0.18)">
       <use xlink:href="#DejaVuSans-30"/>
       <use xlink:href="#DejaVuSans-2e" x="63.623047"/>
       <use xlink:href="#DejaVuSans-35" x="95.410156"/>
      </g>
     </g>
    </g>
    <g id="ytick_7">
     <g id="line2d_13">
      <g>
       <use xlink:href="#m5461d51b7e" x="72.685313" y="58.713244" style="stroke: #000000; stroke-width: 0.8"/>
      </g>
     </g>
     <g id="text_13">
      <!-- 0.6 -->
      <g transform="translate(37.059688 65.551837)scale(0.18 -0.18)">
       <defs>
        <path id="DejaVuSans-36" d="M 2113 2584 
Q 1688 2584 1439 2293 
Q 1191 2003 1191 1497 
Q 1191 994 1439 701 
Q 1688 409 2113 409 
Q 2538 409 2786 701 
Q 3034 994 3034 1497 
Q 3034 2003 2786 2293 
Q 2538 2584 2113 2584 
z
M 3366 4563 
L 3366 3988 
Q 3128 4100 2886 4159 
Q 2644 4219 2406 4219 
Q 1781 4219 1451 3797 
Q 1122 3375 1075 2522 
Q 1259 2794 1537 2939 
Q 1816 3084 2150 3084 
Q 2853 3084 3261 2657 
Q 3669 2231 3669 1497 
Q 3669 778 3244 343 
Q 2819 -91 2113 -91 
Q 1303 -91 875 529 
Q 447 1150 447 2328 
Q 447 3434 972 4092 
Q 1497 4750 2381 4750 
Q 2619 4750 2861 4703 
Q 3103 4656 3366 4563 
z
" transform="scale(0.015625)"/>
       </defs>
       <use xlink:href="#DejaVuSans-30"/>
       <use xlink:href="#DejaVuSans-2e" x="63.623047"/>
       <use xlink:href="#DejaVuSans-36" x="95.410156"/>
      </g>
     </g>
    </g>
    <g id="text_14">
     <!-- Normed Hist Counts -->
     <g transform="translate(28.276406 548.966563)rotate(-90)scale(0.23 -0.23)">
      <defs>
       <path id="DejaVuSans-4e" d="M 628 4666 
L 1478 4666 
L 3547 763 
L 3547 4666 
L 4159 4666 
L 4159 0 
L 3309 0 
L 1241 3903 
L 1241 0 
L 628 0 
L 628 4666 
z
" transform="scale(0.015625)"/>
       <path id="DejaVuSans-6f" d="M 1959 3097 
Q 1497 3097 1228 2736 
Q 959 2375 959 1747 
Q 959 1119 1226 758 
Q 1494 397 1959 397 
Q 2419 397 2687 759 
Q 2956 1122 2956 1747 
Q 2956 2369 2687 2733 
Q 2419 3097 1959 3097 
z
M 1959 3584 
Q 2709 3584 3137 3096 
Q 3566 2609 3566 1747 
Q 3566 888 3137 398 
Q 2709 -91 1959 -91 
Q 1206 -91 779 398 
Q 353 888 353 1747 
Q 353 2609 779 3096 
Q 1206 3584 1959 3584 
z
" transform="scale(0.015625)"/>
       <path id="DejaVuSans-72" d="M 2631 2963 
Q 2534 3019 2420 3045 
Q 2306 3072 2169 3072 
Q 1681 3072 1420 2755 
Q 1159 2438 1159 1844 
L 1159 0 
L 581 0 
L 581 3500 
L 1159 3500 
L 1159 2956 
Q 1341 3275 1631 3429 
Q 1922 3584 2338 3584 
Q 2397 3584 2469 3576 
Q 2541 3569 2628 3553 
L 2631 2963 
z
" transform="scale(0.015625)"/>
       <path id="DejaVuSans-6d" d="M 3328 2828 
Q 3544 3216 3844 3400 
Q 4144 3584 4550 3584 
Q 5097 3584 5394 3201 
Q 5691 2819 5691 2113 
L 5691 0 
L 5113 0 
L 5113 2094 
Q 5113 2597 4934 2840 
Q 4756 3084 4391 3084 
Q 3944 3084 3684 2787 
Q 3425 2491 3425 1978 
L 3425 0 
L 2847 0 
L 2847 2094 
Q 2847 2600 2669 2842 
Q 2491 3084 2119 3084 
Q 1678 3084 1418 2786 
Q 1159 2488 1159 1978 
L 1159 0 
L 581 0 
L 581 3500 
L 1159 3500 
L 1159 2956 
Q 1356 3278 1631 3431 
Q 1906 3584 2284 3584 
Q 2666 3584 2933 3390 
Q 3200 3197 3328 2828 
z
" transform="scale(0.015625)"/>
       <path id="DejaVuSans-65" d="M 3597 1894 
L 3597 1613 
L 953 1613 
Q 991 1019 1311 708 
Q 1631 397 2203 397 
Q 2534 397 2845 478 
Q 3156 559 3463 722 
L 3463 178 
Q 3153 47 2828 -22 
Q 2503 -91 2169 -91 
Q 1331 -91 842 396 
Q 353 884 353 1716 
Q 353 2575 817 3079 
Q 1281 3584 2069 3584 
Q 2775 3584 3186 3129 
Q 3597 2675 3597 1894 
z
M 3022 2063 
Q 3016 2534 2758 2815 
Q 2500 3097 2075 3097 
Q 1594 3097 1305 2825 
Q 1016 2553 972 2059 
L 3022 2063 
z
" transform="scale(0.015625)"/>
       <path id="DejaVuSans-64" d="M 2906 2969 
L 2906 4863 
L 3481 4863 
L 3481 0 
L 2906 0 
L 2906 525 
Q 2725 213 2448 61 
Q 2172 -91 1784 -91 
Q 1150 -91 751 415 
Q 353 922 353 1747 
Q 353 2572 751 3078 
Q 1150 3584 1784 3584 
Q 2172 3584 2448 3432 
Q 2725 3281 2906 2969 
z
M 947 1747 
Q 947 1113 1208 752 
Q 1469 391 1925 391 
Q 2381 391 2643 752 
Q 2906 1113 2906 1747 
Q 2906 2381 2643 2742 
Q 2381 3103 1925 3103 
Q 1469 3103 1208 2742 
Q 947 2381 947 1747 
z
" transform="scale(0.015625)"/>
       <path id="DejaVuSans-20" transform="scale(0.015625)"/>
       <path id="DejaVuSans-48" d="M 628 4666 
L 1259 4666 
L 1259 2753 
L 3553 2753 
L 3553 4666 
L 4184 4666 
L 4184 0 
L 3553 0 
L 3553 2222 
L 1259 2222 
L 1259 0 
L 628 0 
L 628 4666 
z
" transform="scale(0.015625)"/>
       <path id="DejaVuSans-69" d="M 603 3500 
L 1178 3500 
L 1178 0 
L 603 0 
L 603 3500 
z
M 603 4863 
L 1178 4863 
L 1178 4134 
L 603 4134 
L 603 4863 
z
" transform="scale(0.015625)"/>
       <path id="DejaVuSans-73" d="M 2834 3397 
L 2834 2853 
Q 2591 2978 2328 3040 
Q 2066 3103 1784 3103 
Q 1356 3103 1142 2972 
Q 928 2841 928 2578 
Q 928 2378 1081 2264 
Q 1234 2150 1697 2047 
L 1894 2003 
Q 2506 1872 2764 1633 
Q 3022 1394 3022 966 
Q 3022 478 2636 193 
Q 2250 -91 1575 -91 
Q 1294 -91 989 -36 
Q 684 19 347 128 
L 347 722 
Q 666 556 975 473 
Q 1284 391 1588 391 
Q 1994 391 2212 530 
Q 2431 669 2431 922 
Q 2431 1156 2273 1281 
Q 2116 1406 1581 1522 
L 1381 1569 
Q 847 1681 609 1914 
Q 372 2147 372 2553 
Q 372 3047 722 3315 
Q 1072 3584 1716 3584 
Q 2034 3584 2315 3537 
Q 2597 3491 2834 3397 
z
" transform="scale(0.015625)"/>
       <path id="DejaVuSans-74" d="M 1172 4494 
L 1172 3500 
L 2356 3500 
L 2356 3053 
L 1172 3053 
L 1172 1153 
Q 1172 725 1289 603 
Q 1406 481 1766 481 
L 2356 481 
L 2356 0 
L 1766 0 
Q 1100 0 847 248 
Q 594 497 594 1153 
L 594 3053 
L 172 3053 
L 172 3500 
L 594 3500 
L 594 4494 
L 1172 4494 
z
" transform="scale(0.015625)"/>
       <path id="DejaVuSans-43" d="M 4122 4306 
L 4122 3641 
Q 3803 3938 3442 4084 
Q 3081 4231 2675 4231 
Q 1875 4231 1450 3742 
Q 1025 3253 1025 2328 
Q 1025 1406 1450 917 
Q 1875 428 2675 428 
Q 3081 428 3442 575 
Q 3803 722 4122 1019 
L 4122 359 
Q 3791 134 3420 21 
Q 3050 -91 2638 -91 
Q 1578 -91 968 557 
Q 359 1206 359 2328 
Q 359 3453 968 4101 
Q 1578 4750 2638 4750 
Q 3056 4750 3426 4639 
Q 3797 4528 4122 4306 
z
" transform="scale(0.015625)"/>
       <path id="DejaVuSans-75" d="M 544 1381 
L 544 3500 
L 1119 3500 
L 1119 1403 
Q 1119 906 1312 657 
Q 1506 409 1894 409 
Q 2359 409 2629 706 
Q 2900 1003 2900 1516 
L 2900 3500 
L 3475 3500 
L 3475 0 
L 2900 0 
L 2900 538 
Q 2691 219 2414 64 
Q 2138 -91 1772 -91 
Q 1169 -91 856 284 
Q 544 659 544 1381 
z
M 1991 3584 
L 1991 3584 
z
" transform="scale(0.015625)"/>
       <path id="DejaVuSans-6e" d="M 3513 2113 
L 3513 0 
L 2938 0 
L 2938 2094 
Q 2938 2591 2744 2837 
Q 2550 3084 2163 3084 
Q 1697 3084 1428 2787 
Q 1159 2491 1159 1978 
L 1159 0 
L 581 0 
L 581 3500 
L 1159 3500 
L 1159 2956 
Q 1366 3272 1645 3428 
Q 1925 3584 2291 3584 
Q 2894 3584 3203 3211 
Q 3513 2838 3513 2113 
z
" transform="scale(0.015625)"/>
      </defs>
      <use xlink:href="#DejaVuSans-4e"/>
      <use xlink:href="#DejaVuSans-6f" x="74.804688"/>
      <use xlink:href="#DejaVuSans-72" x="135.986328"/>
      <use xlink:href="#DejaVuSans-6d" x="175.349609"/>
      <use xlink:href="#DejaVuSans-65" x="272.761719"/>
      <use xlink:href="#DejaVuSans-64" x="334.285156"/>
      <use xlink:href="#DejaVuSans-20" x="397.761719"/>
      <use xlink:href="#DejaVuSans-48" x="429.548828"/>
      <use xlink:href="#DejaVuSans-69" x="504.744141"/>
      <use xlink:href="#DejaVuSans-73" x="532.527344"/>
      <use xlink:href="#DejaVuSans-74" x="584.626953"/>
      <use xlink:href="#DejaVuSans-20" x="623.835938"/>
      <use xlink:href="#DejaVuSans-43" x="655.623047"/>
      <use xlink:href="#DejaVuSans-6f" x="725.447266"/>
      <use xlink:href="#DejaVuSans-75" x="786.628906"/>
      <use xlink:href="#DejaVuSans-6e" x="850.007812"/>
      <use xlink:href="#DejaVuSans-74" x="913.386719"/>
      <use xlink:href="#DejaVuSans-73" x="952.595703"/>
     </g>
    </g>
   </g>
   <g id="line2d_14">
    <path d="M 137.428059 826.517002 
L 143.594035 825.179474 
L 149.760011 823.40785 
L 155.925987 821.14807 
L 162.091962 818.349355 
L 168.257938 814.964526 
L 174.423914 810.950296 
L 180.58989 806.267548 
L 186.755866 800.881575 
L 192.921842 794.762293 
L 199.087817 787.884434 
L 205.253793 780.22769 
L 211.419769 771.776843 
L 217.585745 762.521848 
L 223.751721 752.457887 
L 229.917697 741.585393 
L 236.083673 729.910036 
L 242.249648 717.442677 
L 248.415624 704.199289 
L 254.5816 690.200849 
L 260.747576 675.473195 
L 266.913552 660.046856 
L 273.079528 643.956855 
L 279.245504 627.242484 
L 285.411479 609.947052 
L 291.577455 592.117622 
L 297.743431 573.804709 
L 303.909407 555.061977 
L 316.241359 516.515481 
L 328.57331 476.95769 
L 359.40319 377.009916 
L 371.735141 337.992668 
L 377.901117 318.950961 
L 384.067093 300.304379 
L 390.233069 282.113707 
L 396.399045 264.437692 
L 402.565021 247.332766 
L 408.730996 230.852784 
L 414.896972 215.048786 
L 421.062948 199.96878 
L 427.228924 185.657541 
L 433.3949 172.156446 
L 439.560876 159.503315 
L 445.726852 147.73229 
L 451.892827 136.873731 
L 458.058803 126.954138 
L 464.224779 117.996093 
L 470.390755 110.018231 
L 476.556731 103.03523 
L 482.722707 97.057822 
L 488.888683 92.09283 
L 495.054658 88.143224 
L 501.220634 85.208191 
L 507.38661 83.283234 
L 513.552586 82.360278 
L 519.718562 82.427798 
L 525.884538 83.470962 
L 532.050513 85.471784 
L 538.216489 88.409291 
L 544.382465 92.259702 
L 550.548441 96.996612 
L 556.714417 102.591188 
L 562.880393 109.012369 
L 569.046369 116.22707 
L 575.212344 124.200392 
L 581.37832 132.895832 
L 587.544296 142.275494 
L 593.710272 152.300298 
L 599.876248 162.930191 
L 606.042224 174.124352 
L 612.2082 185.841392 
L 618.374175 198.039551 
L 624.540151 210.676888 
L 630.706127 223.711468 
L 636.872103 237.101532 
L 643.038079 250.805667 
L 655.370031 278.993175 
L 667.701982 307.955398 
L 686.19991 352.191387 
L 710.863813 411.208821 
L 723.195765 440.184736 
L 735.527717 468.526309 
L 747.859668 496.056887 
L 760.19162 522.626215 
L 766.357596 535.510585 
L 772.523572 548.110039 
L 778.689548 560.412973 
L 784.855523 572.409282 
L 791.021499 584.090316 
L 797.187475 595.448832 
L 803.353451 606.478941 
L 809.519427 617.176048 
L 815.685403 627.536798 
L 821.851379 637.559015 
L 828.017354 647.241634 
L 834.18333 656.584643 
L 840.349306 665.589016 
L 846.515282 674.256649 
L 852.681258 682.590291 
L 858.847234 690.593487 
L 865.01321 698.270505 
L 871.179185 705.626279 
L 877.345161 712.666347 
L 883.511137 719.396784 
L 889.677113 725.824153 
L 895.843089 731.955441 
L 902.009065 737.798004 
L 908.17504 743.35952 
L 914.341016 748.647934 
L 920.506992 753.67141 
L 926.672968 758.438288 
L 932.838944 762.95704 
L 939.00492 767.236229 
L 945.170896 771.284472 
L 951.336871 775.110403 
L 957.502847 778.722645 
L 963.668823 782.129775 
L 969.834799 785.340299 
L 976.000775 788.362625 
L 982.166751 791.205044 
L 988.332727 793.875704 
L 994.498702 796.382599 
L 1000.664678 798.733546 
L 1006.830654 800.936176 
L 1012.99663 802.997917 
L 1019.162606 804.925991 
L 1025.328582 806.727399 
L 1037.660533 809.977091 
L 1049.992485 812.798417 
L 1062.324437 815.239024 
L 1074.656388 817.342759 
L 1086.98834 819.149714 
L 1099.320292 820.696319 
L 1111.652244 822.01549 
L 1123.984195 823.136796 
L 1136.316147 824.086655 
L 1154.814075 825.240603 
L 1173.312002 826.12903 
L 1191.80993 826.807916 
L 1216.473833 827.464617 
L 1247.303712 828.000293 
L 1284.299567 828.373698 
L 1333.627374 828.616331 
L 1364.457254 828.68932 
L 1364.457254 828.68932 
" clip-path="url(#pb8163e10e3)" style="fill: none; stroke: #ff7f0e; stroke-width: 2; stroke-linecap: square"/>
   </g>
   <g id="line2d_15">
    <path d="M 137.428059 821.687874 
L 143.594035 820.041726 
L 149.760011 818.097418 
L 155.925987 815.818072 
L 162.091962 813.165118 
L 168.257938 810.098642 
L 174.423914 806.577775 
L 180.58989 802.561144 
L 186.755866 798.007359 
L 192.921842 792.875542 
L 199.087817 787.125876 
L 205.253793 780.720188 
L 211.419769 773.622531 
L 217.585745 765.799772 
L 223.751721 757.22217 
L 229.917697 747.863934 
L 236.083673 737.703754 
L 242.249648 726.72529 
L 248.415624 714.917618 
L 254.5816 702.275611 
L 260.747576 688.800276 
L 266.913552 674.498999 
L 273.079528 659.385741 
L 279.245504 643.48114 
L 285.411479 626.812541 
L 291.577455 609.413952 
L 297.743431 591.325915 
L 303.909407 572.5953 
L 310.075383 553.275032 
L 316.241359 533.423742 
L 322.407335 513.105356 
L 334.739286 471.346612 
L 347.071238 428.597041 
L 371.735141 342.747688 
L 384.067093 301.011643 
L 390.233069 280.737996 
L 396.399045 260.970017 
L 402.565021 241.786625 
L 408.730996 223.26356 
L 414.896972 205.472881 
L 421.062948 188.482504 
L 427.228924 172.355795 
L 433.3949 157.151203 
L 439.560876 142.921953 
L 445.726852 129.715794 
L 451.892827 117.574791 
L 458.058803 106.53518 
L 464.224779 96.627272 
L 470.390755 87.875408 
L 476.556731 80.297961 
L 482.722707 73.907391 
L 488.888683 68.710339 
L 495.054658 64.707766 
L 501.220634 61.895122 
L 507.38661 60.262563 
L 513.552586 59.795188 
L 519.718562 60.473303 
L 525.884538 62.272715 
L 532.050513 65.165041 
L 538.216489 69.118033 
L 544.382465 74.095914 
L 550.548441 80.059726 
L 556.714417 86.96768 
L 562.880393 94.775507 
L 569.046369 103.436813 
L 575.212344 112.90342 
L 581.37832 123.125716 
L 587.544296 134.052979 
L 593.710272 145.633703 
L 599.876248 157.815903 
L 606.042224 170.547412 
L 612.2082 183.776156 
L 618.374175 197.450417 
L 624.540151 211.519079 
L 630.706127 225.931849 
L 643.038079 255.593886 
L 655.370031 286.058062 
L 680.033934 348.005075 
L 698.531862 394.15127 
L 710.863813 424.275294 
L 723.195765 453.635709 
L 735.527717 482.054325 
L 741.693692 495.863595 
L 747.859668 509.38506 
L 754.025644 522.605213 
L 760.19162 535.512328 
L 766.357596 548.096392 
L 772.523572 560.349027 
L 778.689548 572.263418 
L 784.855523 583.834229 
L 791.021499 595.057523 
L 797.187475 605.93068 
L 803.353451 616.452314 
L 809.519427 626.622193 
L 815.685403 636.441153 
L 821.851379 645.911021 
L 828.017354 655.034534 
L 834.18333 663.81526 
L 840.349306 672.257529 
L 846.515282 680.36635 
L 852.681258 688.14735 
L 858.847234 695.606702 
L 865.01321 702.75106 
L 871.179185 709.587497 
L 877.345161 716.123449 
L 883.511137 722.366657 
L 889.677113 728.325116 
L 895.843089 734.007026 
L 902.009065 739.420744 
L 908.17504 744.574742 
L 914.341016 749.477571 
L 920.506992 754.13782 
L 926.672968 758.564081 
L 932.838944 762.764925 
L 939.00492 766.748865 
L 945.170896 770.52434 
L 951.336871 774.099682 
L 957.502847 777.483105 
L 963.668823 780.682681 
L 969.834799 783.706324 
L 976.000775 786.56178 
L 982.166751 789.256612 
L 988.332727 791.79819 
L 994.498702 794.193685 
L 1000.664678 796.450057 
L 1006.830654 798.574057 
L 1012.99663 800.572216 
L 1025.328582 804.216038 
L 1037.660533 807.429364 
L 1049.992485 810.256493 
L 1062.324437 812.738236 
L 1074.656388 814.912009 
L 1086.98834 816.811959 
L 1099.320292 818.46912 
L 1111.652244 819.911579 
L 1123.984195 821.164667 
L 1136.316147 822.251138 
L 1154.814075 823.612404 
L 1173.312002 824.703828 
L 1191.80993 825.575415 
L 1216.473833 826.466401 
L 1241.137737 827.118872 
L 1271.967616 827.690294 
L 1308.963471 828.129754 
L 1358.291278 828.45868 
L 1364.457254 828.486149 
L 1364.457254 828.486149 
" clip-path="url(#pb8163e10e3)" style="fill: none; stroke: #2ca02c; stroke-width: 2; stroke-linecap: square"/>
   </g>
   <g id="line2d_16">
    <path d="M 137.428059 93.702142 
L 149.760011 115.098993 
L 162.091962 135.873018 
L 174.423914 156.042346 
L 186.755866 175.624579 
L 199.087817 194.636807 
L 211.419769 213.095621 
L 223.751721 231.017131 
L 236.083673 248.416975 
L 248.415624 265.31034 
L 260.747576 281.711967 
L 273.079528 297.636171 
L 285.411479 313.096848 
L 297.743431 328.107492 
L 310.075383 342.681201 
L 322.407335 356.830694 
L 334.739286 370.568319 
L 347.071238 383.906065 
L 359.40319 396.855572 
L 371.735141 409.428141 
L 384.067093 421.634744 
L 396.399045 433.486033 
L 408.730996 444.992352 
L 421.062948 456.163741 
L 433.3949 467.00995 
L 445.726852 477.540444 
L 458.058803 487.764413 
L 470.390755 497.69078 
L 482.722707 507.328207 
L 495.054658 516.685105 
L 507.38661 525.76964 
L 519.718562 534.589739 
L 532.050513 543.1531 
L 544.382465 551.467196 
L 556.714417 559.539283 
L 569.046369 567.376405 
L 581.37832 574.985402 
L 593.710272 582.372914 
L 606.042224 589.545388 
L 618.374175 596.509083 
L 630.706127 603.270077 
L 643.038079 609.83427 
L 655.370031 616.207391 
L 667.701982 622.395001 
L 680.033934 628.402499 
L 692.365886 634.23513 
L 704.697837 639.897983 
L 723.195765 648.0847 
L 741.693692 655.916578 
L 760.19162 663.408998 
L 778.689548 670.576673 
L 797.187475 677.433678 
L 815.685403 683.993479 
L 834.18333 690.268958 
L 852.681258 696.272437 
L 871.179185 702.015707 
L 889.677113 707.510045 
L 908.17504 712.766241 
L 926.672968 717.794617 
L 945.170896 722.605047 
L 963.668823 727.206978 
L 982.166751 731.609447 
L 1000.664678 735.821099 
L 1019.162606 739.850204 
L 1037.660533 743.704676 
L 1062.324437 748.585353 
L 1086.98834 753.186029 
L 1111.652244 757.522767 
L 1136.316147 761.61071 
L 1160.98005 765.46413 
L 1185.643954 769.096482 
L 1210.307857 772.520448 
L 1234.971761 775.747984 
L 1259.635664 778.790359 
L 1290.465543 782.349068 
L 1321.295423 785.654433 
L 1352.125302 788.72449 
L 1364.457254 789.890419 
L 1364.457254 789.890419 
" clip-path="url(#pb8163e10e3)" style="fill: none; stroke: #d62728; stroke-width: 2; stroke-linecap: square"/>
   </g>
   <g id="line2d_17">
    <path d="M 137.428059 774.409799 
L 143.594035 771.790981 
L 149.760011 769.046023 
L 155.925987 766.168849 
L 162.091962 763.15309 
L 168.257938 759.992071 
L 174.423914 756.678795 
L 180.58989 753.205929 
L 186.755866 749.565786 
L 192.921842 745.750308 
L 199.087817 741.751049 
L 205.253793 737.559159 
L 211.419769 733.165358 
L 217.585745 728.559921 
L 223.751721 723.732654 
L 229.917697 718.672873 
L 236.083673 713.369377 
L 242.249648 707.810427 
L 248.415624 701.98372 
L 254.5816 695.876359 
L 260.747576 689.474824 
L 266.913552 682.764946 
L 273.079528 675.731875 
L 279.245504 668.360041 
L 285.411479 660.633129 
L 291.577455 652.534034 
L 297.743431 644.044831 
L 303.909407 635.146729 
L 310.075383 625.820032 
L 316.241359 616.044097 
L 322.407335 605.797284 
L 328.57331 595.056914 
L 334.739286 583.799212 
L 340.905262 571.999261 
L 347.071238 559.630943 
L 353.237214 546.666879 
L 359.40319 533.078377 
L 365.569165 518.835357 
L 371.735141 503.906295 
L 377.901117 488.258145 
L 384.067093 471.856271 
L 390.233069 454.664368 
L 396.399045 436.644384 
L 402.565021 417.756431 
L 408.730996 397.958704 
L 414.896972 377.20738 
L 421.062948 355.456528 
L 427.228924 332.658003 
L 433.3949 308.761342 
L 439.560876 283.713652 
L 445.726852 257.45949 
L 451.892827 229.940746 
L 458.058803 201.096507 
L 464.224779 170.862928 
L 470.390755 139.17309 
L 476.556731 105.956848 
L 482.722707 71.140681 
L 488.888683 34.647525 
L 494.634996 -1 
M 586.803613 -1 
L 587.544296 3.773498 
L 593.710272 41.685424 
L 599.876248 77.855164 
L 606.042224 112.362777 
L 612.2082 145.284644 
L 618.374175 176.693635 
L 624.540151 206.659272 
L 630.706127 235.247882 
L 636.872103 262.522745 
L 643.038079 288.544232 
L 649.204055 313.36994 
L 655.370031 337.05482 
L 661.536006 359.651295 
L 667.701982 381.209383 
L 673.867958 401.776801 
L 680.033934 421.399074 
L 686.19991 440.119634 
L 692.365886 457.979918 
L 698.531862 475.019459 
L 704.697837 491.275974 
L 710.863813 506.785444 
L 717.029789 521.582199 
L 723.195765 535.698992 
L 729.361741 549.167068 
L 735.527717 562.016239 
L 741.693692 574.274944 
L 747.859668 585.97032 
L 754.025644 597.128251 
L 760.19162 607.773436 
L 766.357596 617.929438 
L 772.523572 627.618735 
L 778.689548 636.862775 
L 784.855523 645.682019 
L 791.021499 654.095988 
L 797.187475 662.123305 
L 803.353451 669.781738 
L 809.519427 677.08824 
L 815.685403 684.058982 
L 821.851379 690.709394 
L 828.017354 697.054196 
L 834.18333 703.107432 
L 840.349306 708.8825 
L 846.515282 714.392184 
L 852.681258 719.648679 
L 858.847234 724.663619 
L 865.01321 729.448104 
L 871.179185 734.012726 
L 877.345161 738.367588 
L 883.511137 742.522328 
L 889.677113 746.486143 
L 895.843089 750.267807 
L 902.009065 753.87569 
L 908.17504 757.317778 
L 914.341016 760.60169 
L 920.506992 763.734695 
L 926.672968 766.723727 
L 932.838944 769.575403 
L 939.00492 772.296034 
L 951.336871 777.367974 
L 963.668823 781.984477 
L 976.000775 786.18644 
L 988.332727 790.011086 
L 1000.664678 793.492297 
L 1012.99663 796.660911 
L 1025.328582 799.544999 
L 1037.660533 802.170109 
L 1049.992485 804.559497 
L 1062.324437 806.734328 
L 1074.656388 808.71387 
L 1086.98834 810.515659 
L 1099.320292 812.155655 
L 1117.818219 814.343709 
L 1136.316147 816.243767 
L 1154.814075 817.893734 
L 1173.312002 819.326529 
L 1191.80993 820.570735 
L 1216.473833 821.978742 
L 1241.137737 823.145237 
L 1265.80164 824.111647 
L 1296.631519 825.089996 
L 1333.627374 825.99729 
L 1364.457254 826.580411 
L 1364.457254 826.580411 
" clip-path="url(#pb8163e10e3)" style="fill: none; stroke: #9467bd; stroke-width: 2; stroke-linecap: square"/>
   </g>
   <g id="line2d_18">
    <path d="M 137.428059 820.031754 
L 143.594035 818.267205 
L 149.760011 816.216514 
L 155.925987 813.846642 
L 162.091962 811.12292 
L 168.257938 808.009297 
L 174.423914 804.468629 
L 180.58989 800.46302 
L 186.755866 795.954206 
L 192.921842 790.903977 
L 199.087817 785.274638 
L 205.253793 779.029502 
L 211.419769 772.1334 
L 217.585745 764.553218 
L 223.751721 756.258429 
L 229.917697 747.221639 
L 236.083673 737.419107 
L 242.249648 726.831264 
L 248.415624 715.443186 
L 254.5816 703.245047 
L 260.747576 690.232515 
L 266.913552 676.4071 
L 273.079528 661.776446 
L 279.245504 646.354547 
L 285.411479 630.161903 
L 291.577455 613.225597 
L 297.743431 595.579296 
L 303.909407 577.263173 
L 310.075383 558.323753 
L 316.241359 538.813684 
L 322.407335 518.791427 
L 334.739286 477.470977 
L 347.071238 434.930629 
L 377.901117 327.485752 
L 390.233069 285.877338 
L 396.399045 265.713504 
L 402.565021 246.088519 
L 408.730996 227.083166 
L 414.896972 208.774974 
L 421.062948 191.237669 
L 427.228924 174.540673 
L 433.3949 158.748644 
L 439.560876 143.92108 
L 445.726852 130.111974 
L 451.892827 117.369527 
L 458.058803 105.735921 
L 464.224779 95.247153 
L 470.390755 85.932922 
L 476.556731 77.816582 
L 482.722707 70.915142 
L 488.888683 65.239323 
L 495.054658 60.793664 
L 501.220634 57.576678 
L 507.38661 55.581043 
L 513.552586 54.793842 
L 519.718562 55.19683 
L 525.884538 56.766734 
L 532.050513 59.47558 
L 538.216489 63.291039 
L 544.382465 68.176794 
L 550.548441 74.092915 
L 556.714417 80.996243 
L 562.880393 88.840787 
L 569.046369 97.578109 
L 575.212344 107.157714 
L 581.37832 117.527438 
L 587.544296 128.633814 
L 593.710272 140.422441 
L 599.876248 152.838329 
L 606.042224 165.826234 
L 612.2082 179.330973 
L 618.374175 193.297716 
L 624.540151 207.672269 
L 630.706127 222.401323 
L 643.038079 252.715513 
L 655.370031 283.839864 
L 698.531862 394.049998 
L 710.863813 424.670027 
L 723.195765 454.463362 
L 735.527717 483.248408 
L 741.693692 497.215577 
L 747.859668 510.878137 
L 754.025644 524.22279 
L 760.19162 537.238132 
L 766.357596 549.914564 
L 772.523572 562.244216 
L 778.689548 574.220851 
L 784.855523 585.839776 
L 791.021499 597.097753 
L 797.187475 607.992902 
L 803.353451 618.524611 
L 809.519427 628.693448 
L 815.685403 638.501062 
L 821.851379 647.950103 
L 828.017354 657.044131 
L 834.18333 665.787534 
L 840.349306 674.185443 
L 846.515282 682.243659 
L 852.681258 689.968574 
L 858.847234 697.367102 
L 865.01321 704.446607 
L 871.179185 711.214844 
L 877.345161 717.679892 
L 883.511137 723.850102 
L 889.677113 729.73404 
L 895.843089 735.340438 
L 902.009065 740.678147 
L 908.17504 745.756096 
L 914.341016 750.58325 
L 920.506992 755.168577 
L 926.672968 759.52101 
L 932.838944 763.649424 
L 939.00492 767.562603 
L 945.170896 771.269218 
L 951.336871 774.777806 
L 957.502847 778.096753 
L 963.668823 781.234274 
L 969.834799 784.198399 
L 976.000775 786.996965 
L 982.166751 789.6376 
L 988.332727 792.127721 
L 994.498702 794.474521 
L 1000.664678 796.684969 
L 1006.830654 798.765803 
L 1012.99663 800.723531 
L 1025.328582 804.294528 
L 1037.660533 807.445356 
L 1049.992485 810.219728 
L 1062.324437 812.657769 
L 1074.656388 814.796136 
L 1086.98834 816.668187 
L 1099.320292 818.30415 
L 1111.652244 819.731323 
L 1123.984195 820.974265 
L 1142.482123 822.540787 
L 1160.98005 823.80651 
L 1179.477978 824.825785 
L 1197.975906 825.643995 
L 1222.639809 826.486331 
L 1247.303712 827.109083 
L 1278.133592 827.661304 
L 1315.129447 828.093649 
L 1364.457254 828.426011 
L 1364.457254 828.426011 
" clip-path="url(#pb8163e10e3)" style="fill: none; stroke: #8c564b; stroke-width: 2; stroke-linecap: square"/>
   </g>
   <g id="line2d_19">
    <path d="M 137.428059 798.112059 
L 143.594035 795.070914 
L 149.760011 791.780673 
L 155.925987 788.226799 
L 162.091962 784.394521 
L 168.257938 780.268898 
L 174.423914 775.834894 
L 180.58989 771.077458 
L 186.755866 765.981611 
L 192.921842 760.532539 
L 199.087817 754.7157 
L 205.253793 748.516928 
L 211.419769 741.922555 
L 217.585745 734.919525 
L 223.751721 727.49553 
L 229.917697 719.639135 
L 236.083673 711.339921 
L 242.249648 702.588619 
L 248.415624 693.377257 
L 254.5816 683.699301 
L 260.747576 673.549796 
L 266.913552 662.925514 
L 273.079528 651.825087 
L 279.245504 640.249148 
L 285.411479 628.200454 
L 291.577455 615.684019 
L 297.743431 602.707218 
L 303.909407 589.279898 
L 310.075383 575.414471 
L 316.241359 561.125989 
L 322.407335 546.432215 
L 328.57331 531.353667 
L 334.739286 515.913656 
L 340.905262 500.138291 
L 353.237214 467.699907 
L 365.569165 434.302706 
L 384.067093 383.09019 
L 408.730996 314.623637 
L 421.062948 281.218553 
L 427.228924 264.910916 
L 433.3949 248.940091 
L 439.560876 233.361504 
L 445.726852 218.230419 
L 451.892827 203.601619 
L 458.058803 189.529077 
L 464.224779 176.06563 
L 470.390755 163.262649 
L 476.556731 151.169715 
L 482.722707 139.8343 
L 488.888683 129.301458 
L 495.054658 119.613526 
L 501.220634 110.809841 
L 507.38661 102.926475 
L 513.552586 95.99599 
L 519.718562 90.047211 
L 525.884538 85.105029 
L 532.050513 81.190226 
L 538.216489 78.31933 
L 544.382465 76.504497 
L 550.548441 75.75343 
L 556.714417 76.069319 
L 562.880393 77.450823 
L 569.046369 79.892075 
L 575.212344 83.382726 
L 581.37832 87.908021 
L 587.544296 93.448896 
L 593.710272 99.982118 
L 599.876248 107.480445 
L 606.042224 115.912813 
L 612.2082 125.244553 
L 618.374175 135.437631 
L 624.540151 146.450899 
L 630.706127 158.240376 
L 636.872103 170.759541 
L 643.038079 183.959635 
L 649.204055 197.789979 
L 655.370031 212.198293 
L 661.536006 227.131029 
L 667.701982 242.533695 
L 673.867958 258.351182 
L 686.19991 291.00906 
L 698.531862 324.663634 
L 717.029789 376.076359 
L 735.527717 427.399039 
L 747.859668 460.955529 
L 760.19162 493.612369 
L 766.357596 509.516409 
L 772.523572 525.096553 
L 778.689548 540.325547 
L 784.855523 555.17894 
L 791.021499 569.635077 
L 797.187475 583.675076 
L 803.353451 597.282786 
L 809.519427 610.444726 
L 815.685403 623.150014 
L 821.851379 635.390278 
L 828.017354 647.159554 
L 834.18333 658.454178 
L 840.349306 669.272667 
L 846.515282 679.615588 
L 852.681258 689.485427 
L 858.847234 698.886452 
L 865.01321 707.824568 
L 871.179185 716.30718 
L 877.345161 724.343044 
L 883.511137 731.942127 
L 889.677113 739.115466 
L 895.843089 745.875029 
L 902.009065 752.233583 
L 908.17504 758.204561 
L 914.341016 763.80194 
L 920.506992 769.040123 
L 926.672968 773.933825 
L 932.838944 778.49797 
L 939.00492 782.74759 
L 945.170896 786.697739 
L 951.336871 790.363403 
L 957.502847 793.759433 
L 963.668823 796.900468 
L 969.834799 799.800881 
L 976.000775 802.47472 
L 982.166751 804.935667 
L 988.332727 807.196993 
L 994.498702 809.271527 
L 1000.664678 811.17163 
L 1006.830654 812.90917 
L 1012.99663 814.495511 
L 1019.162606 815.941496 
L 1025.328582 817.257445 
L 1037.660533 819.537877 
L 1049.992485 821.408873 
L 1062.324437 822.934309 
L 1074.656388 824.170241 
L 1086.98834 825.165386 
L 1099.320292 825.961694 
L 1117.818219 826.860121 
L 1136.316147 827.488653 
L 1160.98005 828.033818 
L 1191.80993 828.415719 
L 1228.805785 828.632744 
L 1296.631519 828.755082 
L 1364.457254 828.775985 
L 1364.457254 828.775985 
" clip-path="url(#pb8163e10e3)" style="fill: none; stroke: #e377c2; stroke-width: 2; stroke-linecap: square"/>
   </g>
   <g id="patch_103">
    <path d="M 72.685313 828.779375 
L 72.685313 38.075625 
" style="fill: none; stroke: #000000; stroke-width: 0.8; stroke-linejoin: miter; stroke-linecap: square"/>
   </g>
   <g id="patch_104">
    <path d="M 1429.2 828.779375 
L 1429.2 38.075625 
" style="fill: none; stroke: #000000; stroke-width: 0.8; stroke-linejoin: miter; stroke-linecap: square"/>
   </g>
   <g id="patch_105">
    <path d="M 72.685313 828.779375 
L 1429.2 828.779375 
" style="fill: none; stroke: #000000; stroke-width: 0.8; stroke-linejoin: miter; stroke-linecap: square"/>
   </g>
   <g id="patch_106">
    <path d="M 72.685313 38.075625 
L 1429.2 38.075625 
" style="fill: none; stroke: #000000; stroke-width: 0.8; stroke-linejoin: miter; stroke-linecap: square"/>
   </g>
   <g id="text_15">
    <!-- All Fitted Distributions -->
    <g transform="translate(596.317031 32.075625)scale(0.28 -0.28)">
     <defs>
      <path id="DejaVuSans-41" d="M 2188 4044 
L 1331 1722 
L 3047 1722 
L 2188 4044 
z
M 1831 4666 
L 2547 4666 
L 4325 0 
L 3669 0 
L 3244 1197 
L 1141 1197 
L 716 0 
L 50 0 
L 1831 4666 
z
" transform="scale(0.015625)"/>
      <path id="DejaVuSans-6c" d="M 603 4863 
L 1178 4863 
L 1178 0 
L 603 0 
L 603 4863 
z
" transform="scale(0.015625)"/>
      <path id="DejaVuSans-46" d="M 628 4666 
L 3309 4666 
L 3309 4134 
L 1259 4134 
L 1259 2759 
L 3109 2759 
L 3109 2228 
L 1259 2228 
L 1259 0 
L 628 0 
L 628 4666 
z
" transform="scale(0.015625)"/>
      <path id="DejaVuSans-44" d="M 1259 4147 
L 1259 519 
L 2022 519 
Q 2988 519 3436 956 
Q 3884 1394 3884 2338 
Q 3884 3275 3436 3711 
Q 2988 4147 2022 4147 
L 1259 4147 
z
M 628 4666 
L 1925 4666 
Q 3281 4666 3915 4102 
Q 4550 3538 4550 2338 
Q 4550 1131 3912 565 
Q 3275 0 1925 0 
L 628 0 
L 628 4666 
z
" transform="scale(0.015625)"/>
      <path id="DejaVuSans-62" d="M 3116 1747 
Q 3116 2381 2855 2742 
Q 2594 3103 2138 3103 
Q 1681 3103 1420 2742 
Q 1159 2381 1159 1747 
Q 1159 1113 1420 752 
Q 1681 391 2138 391 
Q 2594 391 2855 752 
Q 3116 1113 3116 1747 
z
M 1159 2969 
Q 1341 3281 1617 3432 
Q 1894 3584 2278 3584 
Q 2916 3584 3314 3078 
Q 3713 2572 3713 1747 
Q 3713 922 3314 415 
Q 2916 -91 2278 -91 
Q 1894 -91 1617 61 
Q 1341 213 1159 525 
L 1159 0 
L 581 0 
L 581 4863 
L 1159 4863 
L 1159 2969 
z
" transform="scale(0.015625)"/>
     </defs>
     <use xlink:href="#DejaVuSans-41"/>
     <use xlink:href="#DejaVuSans-6c" x="68.408203"/>
     <use xlink:href="#DejaVuSans-6c" x="96.191406"/>
     <use xlink:href="#DejaVuSans-20" x="123.974609"/>
     <use xlink:href="#DejaVuSans-46" x="155.761719"/>
     <use xlink:href="#DejaVuSans-69" x="206.03125"/>
     <use xlink:href="#DejaVuSans-74" x="233.814453"/>
     <use xlink:href="#DejaVuSans-74" x="273.023438"/>
     <use xlink:href="#DejaVuSans-65" x="312.232422"/>
     <use xlink:href="#DejaVuSans-64" x="373.755859"/>
     <use xlink:href="#DejaVuSans-20" x="437.232422"/>
     <use xlink:href="#DejaVuSans-44" x="469.019531"/>
     <use xlink:href="#DejaVuSans-69" x="546.021484"/>
     <use xlink:href="#DejaVuSans-73" x="573.804688"/>
     <use xlink:href="#DejaVuSans-74" x="625.904297"/>
     <use xlink:href="#DejaVuSans-72" x="665.113281"/>
     <use xlink:href="#DejaVuSans-69" x="706.226562"/>
     <use xlink:href="#DejaVuSans-62" x="734.009766"/>
     <use xlink:href="#DejaVuSans-75" x="797.486328"/>
     <use xlink:href="#DejaVuSans-74" x="860.865234"/>
     <use xlink:href="#DejaVuSans-69" x="900.074219"/>
     <use xlink:href="#DejaVuSans-6f" x="927.857422"/>
     <use xlink:href="#DejaVuSans-6e" x="989.039062"/>
     <use xlink:href="#DejaVuSans-73" x="1052.417969"/>
    </g>
   </g>
   <g id="legend_1">
    <g id="patch_107">
     <path d="M 1014.37125 303.868125 
L 1412.4 303.868125 
Q 1417.2 303.868125 1417.2 299.068125 
L 1417.2 54.875625 
Q 1417.2 50.075625 1412.4 50.075625 
L 1014.37125 50.075625 
Q 1009.57125 50.075625 1009.57125 54.875625 
L 1009.57125 299.068125 
Q 1009.57125 303.868125 1014.37125 303.868125 
z
" style="fill: #ffffff; opacity: 0.8; stroke: #cccccc; stroke-linejoin: miter"/>
    </g>
    <g id="patch_108">
     <path d="M 1019.17125 77.911875 
L 1067.17125 77.911875 
L 1067.17125 61.111875 
L 1019.17125 61.111875 
z
" style="fill: #1f77b4; opacity: 0.6"/>
    </g>
    <g id="text_16">
     <!-- Generated Chi Distribution -->
     <g transform="translate(1086.37125 77.911875)scale(0.24 -0.24)">
      <defs>
       <path id="DejaVuSans-47" d="M 3809 666 
L 3809 1919 
L 2778 1919 
L 2778 2438 
L 4434 2438 
L 4434 434 
Q 4069 175 3628 42 
Q 3188 -91 2688 -91 
Q 1594 -91 976 548 
Q 359 1188 359 2328 
Q 359 3472 976 4111 
Q 1594 4750 2688 4750 
Q 3144 4750 3555 4637 
Q 3966 4525 4313 4306 
L 4313 3634 
Q 3963 3931 3569 4081 
Q 3175 4231 2741 4231 
Q 1884 4231 1454 3753 
Q 1025 3275 1025 2328 
Q 1025 1384 1454 906 
Q 1884 428 2741 428 
Q 3075 428 3337 486 
Q 3600 544 3809 666 
z
" transform="scale(0.015625)"/>
       <path id="DejaVuSans-61" d="M 2194 1759 
Q 1497 1759 1228 1600 
Q 959 1441 959 1056 
Q 959 750 1161 570 
Q 1363 391 1709 391 
Q 2188 391 2477 730 
Q 2766 1069 2766 1631 
L 2766 1759 
L 2194 1759 
z
M 3341 1997 
L 3341 0 
L 2766 0 
L 2766 531 
Q 2569 213 2275 61 
Q 1981 -91 1556 -91 
Q 1019 -91 701 211 
Q 384 513 384 1019 
Q 384 1609 779 1909 
Q 1175 2209 1959 2209 
L 2766 2209 
L 2766 2266 
Q 2766 2663 2505 2880 
Q 2244 3097 1772 3097 
Q 1472 3097 1187 3025 
Q 903 2953 641 2809 
L 641 3341 
Q 956 3463 1253 3523 
Q 1550 3584 1831 3584 
Q 2591 3584 2966 3190 
Q 3341 2797 3341 1997 
z
" transform="scale(0.015625)"/>
       <path id="DejaVuSans-68" d="M 3513 2113 
L 3513 0 
L 2938 0 
L 2938 2094 
Q 2938 2591 2744 2837 
Q 2550 3084 2163 3084 
Q 1697 3084 1428 2787 
Q 1159 2491 1159 1978 
L 1159 0 
L 581 0 
L 581 4863 
L 1159 4863 
L 1159 2956 
Q 1366 3272 1645 3428 
Q 1925 3584 2291 3584 
Q 2894 3584 3203 3211 
Q 3513 2838 3513 2113 
z
" transform="scale(0.015625)"/>
      </defs>
      <use xlink:href="#DejaVuSans-47"/>
      <use xlink:href="#DejaVuSans-65" x="77.490234"/>
      <use xlink:href="#DejaVuSans-6e" x="139.013672"/>
      <use xlink:href="#DejaVuSans-65" x="202.392578"/>
      <use xlink:href="#DejaVuSans-72" x="263.916016"/>
      <use xlink:href="#DejaVuSans-61" x="305.029297"/>
      <use xlink:href="#DejaVuSans-74" x="366.308594"/>
      <use xlink:href="#DejaVuSans-65" x="405.517578"/>
      <use xlink:href="#DejaVuSans-64" x="467.041016"/>
      <use xlink:href="#DejaVuSans-20" x="530.517578"/>
      <use xlink:href="#DejaVuSans-43" x="562.304688"/>
      <use xlink:href="#DejaVuSans-68" x="632.128906"/>
      <use xlink:href="#DejaVuSans-69" x="695.507812"/>
      <use xlink:href="#DejaVuSans-20" x="723.291016"/>
      <use xlink:href="#DejaVuSans-44" x="755.078125"/>
      <use xlink:href="#DejaVuSans-69" x="832.080078"/>
      <use xlink:href="#DejaVuSans-73" x="859.863281"/>
      <use xlink:href="#DejaVuSans-74" x="911.962891"/>
      <use xlink:href="#DejaVuSans-72" x="951.171875"/>
      <use xlink:href="#DejaVuSans-69" x="992.285156"/>
      <use xlink:href="#DejaVuSans-62" x="1020.068359"/>
      <use xlink:href="#DejaVuSans-75" x="1083.544922"/>
      <use xlink:href="#DejaVuSans-74" x="1146.923828"/>
      <use xlink:href="#DejaVuSans-69" x="1186.132812"/>
      <use xlink:href="#DejaVuSans-6f" x="1213.916016"/>
      <use xlink:href="#DejaVuSans-6e" x="1275.097656"/>
     </g>
    </g>
    <g id="line2d_20">
     <path d="M 1019.17125 104.739375 
L 1043.17125 104.739375 
L 1067.17125 104.739375 
" style="fill: none; stroke: #ff7f0e; stroke-width: 2; stroke-linecap: square"/>
    </g>
    <g id="text_17">
     <!-- Chi fit -->
     <g transform="translate(1086.37125 113.139375)scale(0.24 -0.24)">
      <defs>
       <path id="DejaVuSans-66" d="M 2375 4863 
L 2375 4384 
L 1825 4384 
Q 1516 4384 1395 4259 
Q 1275 4134 1275 3809 
L 1275 3500 
L 2222 3500 
L 2222 3053 
L 1275 3053 
L 1275 0 
L 697 0 
L 697 3053 
L 147 3053 
L 147 3500 
L 697 3500 
L 697 3744 
Q 697 4328 969 4595 
Q 1241 4863 1831 4863 
L 2375 4863 
z
" transform="scale(0.015625)"/>
      </defs>
      <use xlink:href="#DejaVuSans-43"/>
      <use xlink:href="#DejaVuSans-68" x="69.824219"/>
      <use xlink:href="#DejaVuSans-69" x="133.203125"/>
      <use xlink:href="#DejaVuSans-20" x="160.986328"/>
      <use xlink:href="#DejaVuSans-66" x="192.773438"/>
      <use xlink:href="#DejaVuSans-69" x="227.978516"/>
      <use xlink:href="#DejaVuSans-74" x="255.761719"/>
     </g>
    </g>
    <g id="line2d_21">
     <path d="M 1019.17125 139.966875 
L 1043.17125 139.966875 
L 1067.17125 139.966875 
" style="fill: none; stroke: #2ca02c; stroke-width: 2; stroke-linecap: square"/>
    </g>
    <g id="text_18">
     <!-- Chi-Square fit -->
     <g transform="translate(1086.37125 148.366875)scale(0.24 -0.24)">
      <defs>
       <path id="DejaVuSans-2d" d="M 313 2009 
L 1997 2009 
L 1997 1497 
L 313 1497 
L 313 2009 
z
" transform="scale(0.015625)"/>
       <path id="DejaVuSans-53" d="M 3425 4513 
L 3425 3897 
Q 3066 4069 2747 4153 
Q 2428 4238 2131 4238 
Q 1616 4238 1336 4038 
Q 1056 3838 1056 3469 
Q 1056 3159 1242 3001 
Q 1428 2844 1947 2747 
L 2328 2669 
Q 3034 2534 3370 2195 
Q 3706 1856 3706 1288 
Q 3706 609 3251 259 
Q 2797 -91 1919 -91 
Q 1588 -91 1214 -16 
Q 841 59 441 206 
L 441 856 
Q 825 641 1194 531 
Q 1563 422 1919 422 
Q 2459 422 2753 634 
Q 3047 847 3047 1241 
Q 3047 1584 2836 1778 
Q 2625 1972 2144 2069 
L 1759 2144 
Q 1053 2284 737 2584 
Q 422 2884 422 3419 
Q 422 4038 858 4394 
Q 1294 4750 2059 4750 
Q 2388 4750 2728 4690 
Q 3069 4631 3425 4513 
z
" transform="scale(0.015625)"/>
       <path id="DejaVuSans-71" d="M 947 1747 
Q 947 1113 1208 752 
Q 1469 391 1925 391 
Q 2381 391 2643 752 
Q 2906 1113 2906 1747 
Q 2906 2381 2643 2742 
Q 2381 3103 1925 3103 
Q 1469 3103 1208 2742 
Q 947 2381 947 1747 
z
M 2906 525 
Q 2725 213 2448 61 
Q 2172 -91 1784 -91 
Q 1150 -91 751 415 
Q 353 922 353 1747 
Q 353 2572 751 3078 
Q 1150 3584 1784 3584 
Q 2172 3584 2448 3432 
Q 2725 3281 2906 2969 
L 2906 3500 
L 3481 3500 
L 3481 -1331 
L 2906 -1331 
L 2906 525 
z
" transform="scale(0.015625)"/>
      </defs>
      <use xlink:href="#DejaVuSans-43"/>
      <use xlink:href="#DejaVuSans-68" x="69.824219"/>
      <use xlink:href="#DejaVuSans-69" x="133.203125"/>
      <use xlink:href="#DejaVuSans-2d" x="160.986328"/>
      <use xlink:href="#DejaVuSans-53" x="197.070312"/>
      <use xlink:href="#DejaVuSans-71" x="260.546875"/>
      <use xlink:href="#DejaVuSans-75" x="324.023438"/>
      <use xlink:href="#DejaVuSans-61" x="387.402344"/>
      <use xlink:href="#DejaVuSans-72" x="448.681641"/>
      <use xlink:href="#DejaVuSans-65" x="487.544922"/>
      <use xlink:href="#DejaVuSans-20" x="549.068359"/>
      <use xlink:href="#DejaVuSans-66" x="580.855469"/>
      <use xlink:href="#DejaVuSans-69" x="616.060547"/>
      <use xlink:href="#DejaVuSans-74" x="643.84375"/>
     </g>
    </g>
    <g id="line2d_22">
     <path d="M 1019.17125 175.194375 
L 1043.17125 175.194375 
L 1067.17125 175.194375 
" style="fill: none; stroke: #d62728; stroke-width: 2; stroke-linecap: square"/>
    </g>
    <g id="text_19">
     <!-- Exponential fit -->
     <g transform="translate(1086.37125 183.594375)scale(0.24 -0.24)">
      <defs>
       <path id="DejaVuSans-45" d="M 628 4666 
L 3578 4666 
L 3578 4134 
L 1259 4134 
L 1259 2753 
L 3481 2753 
L 3481 2222 
L 1259 2222 
L 1259 531 
L 3634 531 
L 3634 0 
L 628 0 
L 628 4666 
z
" transform="scale(0.015625)"/>
       <path id="DejaVuSans-78" d="M 3513 3500 
L 2247 1797 
L 3578 0 
L 2900 0 
L 1881 1375 
L 863 0 
L 184 0 
L 1544 1831 
L 300 3500 
L 978 3500 
L 1906 2253 
L 2834 3500 
L 3513 3500 
z
" transform="scale(0.015625)"/>
       <path id="DejaVuSans-70" d="M 1159 525 
L 1159 -1331 
L 581 -1331 
L 581 3500 
L 1159 3500 
L 1159 2969 
Q 1341 3281 1617 3432 
Q 1894 3584 2278 3584 
Q 2916 3584 3314 3078 
Q 3713 2572 3713 1747 
Q 3713 922 3314 415 
Q 2916 -91 2278 -91 
Q 1894 -91 1617 61 
Q 1341 213 1159 525 
z
M 3116 1747 
Q 3116 2381 2855 2742 
Q 2594 3103 2138 3103 
Q 1681 3103 1420 2742 
Q 1159 2381 1159 1747 
Q 1159 1113 1420 752 
Q 1681 391 2138 391 
Q 2594 391 2855 752 
Q 3116 1113 3116 1747 
z
" transform="scale(0.015625)"/>
      </defs>
      <use xlink:href="#DejaVuSans-45"/>
      <use xlink:href="#DejaVuSans-78" x="63.183594"/>
      <use xlink:href="#DejaVuSans-70" x="122.363281"/>
      <use xlink:href="#DejaVuSans-6f" x="185.839844"/>
      <use xlink:href="#DejaVuSans-6e" x="247.021484"/>
      <use xlink:href="#DejaVuSans-65" x="310.400391"/>
      <use xlink:href="#DejaVuSans-6e" x="371.923828"/>
      <use xlink:href="#DejaVuSans-74" x="435.302734"/>
      <use xlink:href="#DejaVuSans-69" x="474.511719"/>
      <use xlink:href="#DejaVuSans-61" x="502.294922"/>
      <use xlink:href="#DejaVuSans-6c" x="563.574219"/>
      <use xlink:href="#DejaVuSans-20" x="591.357422"/>
      <use xlink:href="#DejaVuSans-66" x="623.144531"/>
      <use xlink:href="#DejaVuSans-69" x="658.349609"/>
      <use xlink:href="#DejaVuSans-74" x="686.132812"/>
     </g>
    </g>
    <g id="line2d_23">
     <path d="M 1019.17125 210.421875 
L 1043.17125 210.421875 
L 1067.17125 210.421875 
" style="fill: none; stroke: #9467bd; stroke-width: 2; stroke-linecap: square"/>
    </g>
    <g id="text_20">
     <!-- Laplace fit -->
     <g transform="translate(1086.37125 218.821875)scale(0.24 -0.24)">
      <defs>
       <path id="DejaVuSans-4c" d="M 628 4666 
L 1259 4666 
L 1259 531 
L 3531 531 
L 3531 0 
L 628 0 
L 628 4666 
z
" transform="scale(0.015625)"/>
       <path id="DejaVuSans-63" d="M 3122 3366 
L 3122 2828 
Q 2878 2963 2633 3030 
Q 2388 3097 2138 3097 
Q 1578 3097 1268 2742 
Q 959 2388 959 1747 
Q 959 1106 1268 751 
Q 1578 397 2138 397 
Q 2388 397 2633 464 
Q 2878 531 3122 666 
L 3122 134 
Q 2881 22 2623 -34 
Q 2366 -91 2075 -91 
Q 1284 -91 818 406 
Q 353 903 353 1747 
Q 353 2603 823 3093 
Q 1294 3584 2113 3584 
Q 2378 3584 2631 3529 
Q 2884 3475 3122 3366 
z
" transform="scale(0.015625)"/>
      </defs>
      <use xlink:href="#DejaVuSans-4c"/>
      <use xlink:href="#DejaVuSans-61" x="55.712891"/>
      <use xlink:href="#DejaVuSans-70" x="116.992188"/>
      <use xlink:href="#DejaVuSans-6c" x="180.46875"/>
      <use xlink:href="#DejaVuSans-61" x="208.251953"/>
      <use xlink:href="#DejaVuSans-63" x="269.53125"/>
      <use xlink:href="#DejaVuSans-65" x="324.511719"/>
      <use xlink:href="#DejaVuSans-20" x="386.035156"/>
      <use xlink:href="#DejaVuSans-66" x="417.822266"/>
      <use xlink:href="#DejaVuSans-69" x="453.027344"/>
      <use xlink:href="#DejaVuSans-74" x="480.810547"/>
     </g>
    </g>
    <g id="line2d_24">
     <path d="M 1019.17125 245.649375 
L 1043.17125 245.649375 
L 1067.17125 245.649375 
" style="fill: none; stroke: #8c564b; stroke-width: 2; stroke-linecap: square"/>
    </g>
    <g id="text_21">
     <!-- LogNorm fit -->
     <g transform="translate(1086.37125 254.049375)scale(0.24 -0.24)">
      <defs>
       <path id="DejaVuSans-67" d="M 2906 1791 
Q 2906 2416 2648 2759 
Q 2391 3103 1925 3103 
Q 1463 3103 1205 2759 
Q 947 2416 947 1791 
Q 947 1169 1205 825 
Q 1463 481 1925 481 
Q 2391 481 2648 825 
Q 2906 1169 2906 1791 
z
M 3481 434 
Q 3481 -459 3084 -895 
Q 2688 -1331 1869 -1331 
Q 1566 -1331 1297 -1286 
Q 1028 -1241 775 -1147 
L 775 -588 
Q 1028 -725 1275 -790 
Q 1522 -856 1778 -856 
Q 2344 -856 2625 -561 
Q 2906 -266 2906 331 
L 2906 616 
Q 2728 306 2450 153 
Q 2172 0 1784 0 
Q 1141 0 747 490 
Q 353 981 353 1791 
Q 353 2603 747 3093 
Q 1141 3584 1784 3584 
Q 2172 3584 2450 3431 
Q 2728 3278 2906 2969 
L 2906 3500 
L 3481 3500 
L 3481 434 
z
" transform="scale(0.015625)"/>
      </defs>
      <use xlink:href="#DejaVuSans-4c"/>
      <use xlink:href="#DejaVuSans-6f" x="53.962891"/>
      <use xlink:href="#DejaVuSans-67" x="115.144531"/>
      <use xlink:href="#DejaVuSans-4e" x="178.621094"/>
      <use xlink:href="#DejaVuSans-6f" x="253.425781"/>
      <use xlink:href="#DejaVuSans-72" x="314.607422"/>
      <use xlink:href="#DejaVuSans-6d" x="353.970703"/>
      <use xlink:href="#DejaVuSans-20" x="451.382812"/>
      <use xlink:href="#DejaVuSans-66" x="483.169922"/>
      <use xlink:href="#DejaVuSans-69" x="518.375"/>
      <use xlink:href="#DejaVuSans-74" x="546.158203"/>
     </g>
    </g>
    <g id="line2d_25">
     <path d="M 1019.17125 280.876875 
L 1043.17125 280.876875 
L 1067.17125 280.876875 
" style="fill: none; stroke: #e377c2; stroke-width: 2; stroke-linecap: square"/>
    </g>
    <g id="text_22">
     <!-- Normal fit -->
     <g transform="translate(1086.37125 289.276875)scale(0.24 -0.24)">
      <use xlink:href="#DejaVuSans-4e"/>
      <use xlink:href="#DejaVuSans-6f" x="74.804688"/>
      <use xlink:href="#DejaVuSans-72" x="135.986328"/>
      <use xlink:href="#DejaVuSans-6d" x="175.349609"/>
      <use xlink:href="#DejaVuSans-61" x="272.761719"/>
      <use xlink:href="#DejaVuSans-6c" x="334.041016"/>
      <use xlink:href="#DejaVuSans-20" x="361.824219"/>
      <use xlink:href="#DejaVuSans-66" x="393.611328"/>
      <use xlink:href="#DejaVuSans-69" x="428.816406"/>
      <use xlink:href="#DejaVuSans-74" x="456.599609"/>
     </g>
    </g>
   </g>
  </g>
 </g>
 <defs>
  <clipPath id="pb8163e10e3">
   <rect x="72.685313" y="38.075625" width="1356.514688" height="790.70375"/>
  </clipPath>
 </defs>
</svg>
