<?xml version="1.0" encoding="utf-8" standalone="no"?>
<!DOCTYPE svg PUBLIC "-//W3C//DTD SVG 1.1//EN"
  "http://www.w3.org/Graphics/SVG/1.1/DTD/svg11.dtd">
<svg height="864pt" version="1.1" viewBox="0 0 1440 864" width="1440pt" xmlns="http://www.w3.org/2000/svg" xmlns:xlink="http://www.w3.org/1999/xlink">
 <metadata>
  <rdf:RDF xmlns:cc="http://creativecommons.org/ns#" xmlns:dc="http://purl.org/dc/elements/1.1/" xmlns:rdf="http://www.w3.org/1999/02/22-rdf-syntax-ns#">
   <cc:Work>
    <dc:type rdf:resource="http://purl.org/dc/dcmitype/StillImage"/>
    <dc:date>2022-08-09T08:41:25.435041</dc:date>
    <dc:format>image/svg+xml</dc:format>
    <dc:creator>
     <cc:Agent>
      <dc:title>Matplotlib v3.4.3, https://matplotlib.org/</dc:title>
     </cc:Agent>
    </dc:creator>
   </cc:Work>
  </rdf:RDF>
 </metadata>
 <defs>
  <style type="text/css">*{stroke-linecap:butt;stroke-linejoin:round;}</style>
 </defs>
 <g id="figure_1">
  <g id="patch_1">
   <path d="M 0 864 
L 1440 864 
L 1440 0 
L 0 0 
z
" style="fill:#ffffff;"/>
  </g>
  <g id="axes_1">
   <g id="patch_2">
    <path d="M 72.685313 828.779375 
L 1429.2 828.779375 
L 1429.2 38.075625 
L 72.685313 38.075625 
z
" style="fill:#ffffff;"/>
   </g>
   <g id="patch_3">
    <path clip-path="url(#pdd8c0a52b7)" d="M 134.345071 828.779375 
L 146.677023 828.779375 
L 146.677023 828.279673 
L 134.345071 828.279673 
z
" style="fill:#1f77b4;opacity:0.6;"/>
   </g>
   <g id="patch_4">
    <path clip-path="url(#pdd8c0a52b7)" d="M 146.677023 828.779375 
L 159.008974 828.779375 
L 159.008974 827.779971 
L 146.677023 827.779971 
z
" style="fill:#1f77b4;opacity:0.6;"/>
   </g>
   <g id="patch_5">
    <path clip-path="url(#pdd8c0a52b7)" d="M 159.008974 828.779375 
L 171.340926 828.779375 
L 171.340926 823.782353 
L 159.008974 823.782353 
z
" style="fill:#1f77b4;opacity:0.6;"/>
   </g>
   <g id="patch_6">
    <path clip-path="url(#pdd8c0a52b7)" d="M 171.340926 828.779375 
L 183.672878 828.779375 
L 183.672878 823.282651 
L 171.340926 823.282651 
z
" style="fill:#1f77b4;opacity:0.6;"/>
   </g>
   <g id="patch_7">
    <path clip-path="url(#pdd8c0a52b7)" d="M 183.672878 828.779375 
L 196.00483 828.779375 
L 196.00483 819.784736 
L 183.672878 819.784736 
z
" style="fill:#1f77b4;opacity:0.6;"/>
   </g>
   <g id="patch_8">
    <path clip-path="url(#pdd8c0a52b7)" d="M 196.00483 828.779375 
L 208.336781 828.779375 
L 208.336781 806.292777 
L 196.00483 806.292777 
z
" style="fill:#1f77b4;opacity:0.6;"/>
   </g>
   <g id="patch_9">
    <path clip-path="url(#pdd8c0a52b7)" d="M 208.336781 828.779375 
L 220.668733 828.779375 
L 220.668733 799.296946 
L 208.336781 799.296946 
z
" style="fill:#1f77b4;opacity:0.6;"/>
   </g>
   <g id="patch_10">
    <path clip-path="url(#pdd8c0a52b7)" d="M 220.668733 828.779375 
L 233.000685 828.779375 
L 233.000685 780.308263 
L 220.668733 780.308263 
z
" style="fill:#1f77b4;opacity:0.6;"/>
   </g>
   <g id="patch_11">
    <path clip-path="url(#pdd8c0a52b7)" d="M 233.000685 828.779375 
L 245.332636 828.779375 
L 245.332636 773.812135 
L 233.000685 773.812135 
z
" style="fill:#1f77b4;opacity:0.6;"/>
   </g>
   <g id="patch_12">
    <path clip-path="url(#pdd8c0a52b7)" d="M 245.332636 828.779375 
L 257.664588 828.779375 
L 257.664588 757.321963 
L 245.332636 757.321963 
z
" style="fill:#1f77b4;opacity:0.6;"/>
   </g>
   <g id="patch_13">
    <path clip-path="url(#pdd8c0a52b7)" d="M 257.664588 828.779375 
L 269.99654 828.779375 
L 269.99654 728.838938 
L 257.664588 728.838938 
z
" style="fill:#1f77b4;opacity:0.6;"/>
   </g>
   <g id="patch_14">
    <path clip-path="url(#pdd8c0a52b7)" d="M 269.99654 828.779375 
L 282.328491 828.779375 
L 282.328491 698.357105 
L 269.99654 698.357105 
z
" style="fill:#1f77b4;opacity:0.6;"/>
   </g>
   <g id="patch_15">
    <path clip-path="url(#pdd8c0a52b7)" d="M 282.328491 828.779375 
L 294.660443 828.779375 
L 294.660443 682.866337 
L 282.328491 682.866337 
z
" style="fill:#1f77b4;opacity:0.6;"/>
   </g>
   <g id="patch_16">
    <path clip-path="url(#pdd8c0a52b7)" d="M 294.660443 828.779375 
L 306.992395 828.779375 
L 306.992395 642.890163 
L 294.660443 642.890163 
z
" style="fill:#1f77b4;opacity:0.6;"/>
   </g>
   <g id="patch_17">
    <path clip-path="url(#pdd8c0a52b7)" d="M 306.992395 828.779375 
L 319.324347 828.779375 
L 319.324347 604.912797 
L 306.992395 604.912797 
z
" style="fill:#1f77b4;opacity:0.6;"/>
   </g>
   <g id="patch_18">
    <path clip-path="url(#pdd8c0a52b7)" d="M 319.324347 828.779375 
L 331.656298 828.779375 
L 331.656298 585.924114 
L 319.324347 585.924114 
z
" style="fill:#1f77b4;opacity:0.6;"/>
   </g>
   <g id="patch_19">
    <path clip-path="url(#pdd8c0a52b7)" d="M 331.656298 828.779375 
L 343.98825 828.779375 
L 343.98825 556.941387 
L 331.656298 556.941387 
z
" style="fill:#1f77b4;opacity:0.6;"/>
   </g>
   <g id="patch_20">
    <path clip-path="url(#pdd8c0a52b7)" d="M 343.98825 828.779375 
L 356.320202 828.779375 
L 356.320202 510.968786 
L 343.98825 510.968786 
z
" style="fill:#1f77b4;opacity:0.6;"/>
   </g>
   <g id="patch_21">
    <path clip-path="url(#pdd8c0a52b7)" d="M 356.320202 828.779375 
L 368.652153 828.779375 
L 368.652153 477.48874 
L 356.320202 477.48874 
z
" style="fill:#1f77b4;opacity:0.6;"/>
   </g>
   <g id="patch_22">
    <path clip-path="url(#pdd8c0a52b7)" d="M 368.652153 828.779375 
L 380.984105 828.779375 
L 380.984105 435.014054 
L 368.652153 435.014054 
z
" style="fill:#1f77b4;opacity:0.6;"/>
   </g>
   <g id="patch_23">
    <path clip-path="url(#pdd8c0a52b7)" d="M 380.984105 828.779375 
L 393.316057 828.779375 
L 393.316057 408.529839 
L 380.984105 408.529839 
z
" style="fill:#1f77b4;opacity:0.6;"/>
   </g>
   <g id="patch_24">
    <path clip-path="url(#pdd8c0a52b7)" d="M 393.316057 828.779375 
L 405.648009 828.779375 
L 405.648009 363.556642 
L 393.316057 363.556642 
z
" style="fill:#1f77b4;opacity:0.6;"/>
   </g>
   <g id="patch_25">
    <path clip-path="url(#pdd8c0a52b7)" d="M 405.648009 828.779375 
L 417.97996 828.779375 
L 417.97996 329.077192 
L 405.648009 329.077192 
z
" style="fill:#1f77b4;opacity:0.6;"/>
   </g>
   <g id="patch_26">
    <path clip-path="url(#pdd8c0a52b7)" d="M 417.97996 828.779375 
L 430.311912 828.779375 
L 430.311912 274.109951 
L 417.97996 274.109951 
z
" style="fill:#1f77b4;opacity:0.6;"/>
   </g>
   <g id="patch_27">
    <path clip-path="url(#pdd8c0a52b7)" d="M 430.311912 828.779375 
L 442.643864 828.779375 
L 442.643864 255.620971 
L 430.311912 255.620971 
z
" style="fill:#1f77b4;opacity:0.6;"/>
   </g>
   <g id="patch_28">
    <path clip-path="url(#pdd8c0a52b7)" d="M 442.643864 828.779375 
L 454.975815 828.779375 
L 454.975815 225.63884 
L 442.643864 225.63884 
z
" style="fill:#1f77b4;opacity:0.6;"/>
   </g>
   <g id="patch_29">
    <path clip-path="url(#pdd8c0a52b7)" d="M 454.975815 828.779375 
L 467.307767 828.779375 
L 467.307767 225.63884 
L 454.975815 225.63884 
z
" style="fill:#1f77b4;opacity:0.6;"/>
   </g>
   <g id="patch_30">
    <path clip-path="url(#pdd8c0a52b7)" d="M 467.307767 828.779375 
L 479.639719 828.779375 
L 479.639719 172.170706 
L 467.307767 172.170706 
z
" style="fill:#1f77b4;opacity:0.6;"/>
   </g>
   <g id="patch_31">
    <path clip-path="url(#pdd8c0a52b7)" d="M 479.639719 828.779375 
L 491.97167 828.779375 
L 491.97167 172.670408 
L 479.639719 172.670408 
z
" style="fill:#1f77b4;opacity:0.6;"/>
   </g>
   <g id="patch_32">
    <path clip-path="url(#pdd8c0a52b7)" d="M 491.97167 828.779375 
L 504.303622 828.779375 
L 504.303622 99.713889 
L 491.97167 99.713889 
z
" style="fill:#1f77b4;opacity:0.6;"/>
   </g>
   <g id="patch_33">
    <path clip-path="url(#pdd8c0a52b7)" d="M 504.303622 828.779375 
L 516.635574 828.779375 
L 516.635574 137.191553 
L 504.303622 137.191553 
z
" style="fill:#1f77b4;opacity:0.6;"/>
   </g>
   <g id="patch_34">
    <path clip-path="url(#pdd8c0a52b7)" d="M 516.635574 828.779375 
L 528.967526 828.779375 
L 528.967526 103.211805 
L 516.635574 103.211805 
z
" style="fill:#1f77b4;opacity:0.6;"/>
   </g>
   <g id="patch_35">
    <path clip-path="url(#pdd8c0a52b7)" d="M 528.967526 828.779375 
L 541.299477 828.779375 
L 541.299477 128.696616 
L 528.967526 128.696616 
z
" style="fill:#1f77b4;opacity:0.6;"/>
   </g>
   <g id="patch_36">
    <path clip-path="url(#pdd8c0a52b7)" d="M 541.299477 828.779375 
L 553.631429 828.779375 
L 553.631429 144.687086 
L 541.299477 144.687086 
z
" style="fill:#1f77b4;opacity:0.6;"/>
   </g>
   <g id="patch_37">
    <path clip-path="url(#pdd8c0a52b7)" d="M 553.631429 828.779375 
L 565.963381 828.779375 
L 565.963381 75.728185 
L 553.631429 75.728185 
z
" style="fill:#1f77b4;opacity:0.6;"/>
   </g>
   <g id="patch_38">
    <path clip-path="url(#pdd8c0a52b7)" d="M 565.963381 828.779375 
L 578.295332 828.779375 
L 578.295332 98.214783 
L 565.963381 98.214783 
z
" style="fill:#1f77b4;opacity:0.6;"/>
   </g>
   <g id="patch_39">
    <path clip-path="url(#pdd8c0a52b7)" d="M 578.295332 828.779375 
L 590.627284 828.779375 
L 590.627284 106.70972 
L 578.295332 106.70972 
z
" style="fill:#1f77b4;opacity:0.6;"/>
   </g>
   <g id="patch_40">
    <path clip-path="url(#pdd8c0a52b7)" d="M 590.627284 828.779375 
L 602.959236 828.779375 
L 602.959236 140.689468 
L 590.627284 140.689468 
z
" style="fill:#1f77b4;opacity:0.6;"/>
   </g>
   <g id="patch_41">
    <path clip-path="url(#pdd8c0a52b7)" d="M 602.959236 828.779375 
L 615.291187 828.779375 
L 615.291187 139.190362 
L 602.959236 139.190362 
z
" style="fill:#1f77b4;opacity:0.6;"/>
   </g>
   <g id="patch_42">
    <path clip-path="url(#pdd8c0a52b7)" d="M 615.291187 828.779375 
L 627.623139 828.779375 
L 627.623139 153.182023 
L 615.291187 153.182023 
z
" style="fill:#1f77b4;opacity:0.6;"/>
   </g>
   <g id="patch_43">
    <path clip-path="url(#pdd8c0a52b7)" d="M 627.623139 828.779375 
L 639.955091 828.779375 
L 639.955091 163.176067 
L 627.623139 163.176067 
z
" style="fill:#1f77b4;opacity:0.6;"/>
   </g>
   <g id="patch_44">
    <path clip-path="url(#pdd8c0a52b7)" d="M 639.955091 828.779375 
L 652.287043 828.779375 
L 652.287043 209.64837 
L 639.955091 209.64837 
z
" style="fill:#1f77b4;opacity:0.6;"/>
   </g>
   <g id="patch_45">
    <path clip-path="url(#pdd8c0a52b7)" d="M 652.287043 828.779375 
L 664.618994 828.779375 
L 664.618994 231.135564 
L 652.287043 231.135564 
z
" style="fill:#1f77b4;opacity:0.6;"/>
   </g>
   <g id="patch_46">
    <path clip-path="url(#pdd8c0a52b7)" d="M 664.618994 828.779375 
L 676.950946 828.779375 
L 676.950946 273.110547 
L 664.618994 273.110547 
z
" style="fill:#1f77b4;opacity:0.6;"/>
   </g>
   <g id="patch_47">
    <path clip-path="url(#pdd8c0a52b7)" d="M 676.950946 828.779375 
L 689.282898 828.779375 
L 689.282898 284.603697 
L 676.950946 284.603697 
z
" style="fill:#1f77b4;opacity:0.6;"/>
   </g>
   <g id="patch_48">
    <path clip-path="url(#pdd8c0a52b7)" d="M 689.282898 828.779375 
L 701.614849 828.779375 
L 701.614849 312.087317 
L 689.282898 312.087317 
z
" style="fill:#1f77b4;opacity:0.6;"/>
   </g>
   <g id="patch_49">
    <path clip-path="url(#pdd8c0a52b7)" d="M 701.614849 828.779375 
L 713.946801 828.779375 
L 713.946801 354.062301 
L 701.614849 354.062301 
z
" style="fill:#1f77b4;opacity:0.6;"/>
   </g>
   <g id="patch_50">
    <path clip-path="url(#pdd8c0a52b7)" d="M 713.946801 828.779375 
L 726.278753 828.779375 
L 726.278753 339.570937 
L 713.946801 339.570937 
z
" style="fill:#1f77b4;opacity:0.6;"/>
   </g>
   <g id="patch_51">
    <path clip-path="url(#pdd8c0a52b7)" d="M 726.278753 828.779375 
L 738.610705 828.779375 
L 738.610705 364.056344 
L 726.278753 364.056344 
z
" style="fill:#1f77b4;opacity:0.6;"/>
   </g>
   <g id="patch_52">
    <path clip-path="url(#pdd8c0a52b7)" d="M 738.610705 828.779375 
L 750.942656 828.779375 
L 750.942656 371.551877 
L 738.610705 371.551877 
z
" style="fill:#1f77b4;opacity:0.6;"/>
   </g>
   <g id="patch_53">
    <path clip-path="url(#pdd8c0a52b7)" d="M 750.942656 828.779375 
L 763.274608 828.779375 
L 763.274608 436.513161 
L 750.942656 436.513161 
z
" style="fill:#1f77b4;opacity:0.6;"/>
   </g>
   <g id="patch_54">
    <path clip-path="url(#pdd8c0a52b7)" d="M 763.274608 828.779375 
L 775.60656 828.779375 
L 775.60656 461.997972 
L 763.274608 461.997972 
z
" style="fill:#1f77b4;opacity:0.6;"/>
   </g>
   <g id="patch_55">
    <path clip-path="url(#pdd8c0a52b7)" d="M 775.60656 828.779375 
L 787.938511 828.779375 
L 787.938511 490.480997 
L 775.60656 490.480997 
z
" style="fill:#1f77b4;opacity:0.6;"/>
   </g>
   <g id="patch_56">
    <path clip-path="url(#pdd8c0a52b7)" d="M 787.938511 828.779375 
L 800.270463 828.779375 
L 800.270463 509.46968 
L 787.938511 509.46968 
z
" style="fill:#1f77b4;opacity:0.6;"/>
   </g>
   <g id="patch_57">
    <path clip-path="url(#pdd8c0a52b7)" d="M 800.270463 828.779375 
L 812.602415 828.779375 
L 812.602415 538.452406 
L 800.270463 538.452406 
z
" style="fill:#1f77b4;opacity:0.6;"/>
   </g>
   <g id="patch_58">
    <path clip-path="url(#pdd8c0a52b7)" d="M 812.602415 828.779375 
L 824.934366 828.779375 
L 824.934366 551.444663 
L 812.602415 551.444663 
z
" style="fill:#1f77b4;opacity:0.6;"/>
   </g>
   <g id="patch_59">
    <path clip-path="url(#pdd8c0a52b7)" d="M 824.934366 828.779375 
L 837.266318 828.779375 
L 837.266318 595.918158 
L 824.934366 595.918158 
z
" style="fill:#1f77b4;opacity:0.6;"/>
   </g>
   <g id="patch_60">
    <path clip-path="url(#pdd8c0a52b7)" d="M 837.266318 828.779375 
L 849.59827 828.779375 
L 849.59827 616.405947 
L 837.266318 616.405947 
z
" style="fill:#1f77b4;opacity:0.6;"/>
   </g>
   <g id="patch_61">
    <path clip-path="url(#pdd8c0a52b7)" d="M 849.59827 828.779375 
L 861.930222 828.779375 
L 861.930222 623.401778 
L 849.59827 623.401778 
z
" style="fill:#1f77b4;opacity:0.6;"/>
   </g>
   <g id="patch_62">
    <path clip-path="url(#pdd8c0a52b7)" d="M 861.930222 828.779375 
L 874.262173 828.779375 
L 874.262173 647.887185 
L 861.930222 647.887185 
z
" style="fill:#1f77b4;opacity:0.6;"/>
   </g>
   <g id="patch_63">
    <path clip-path="url(#pdd8c0a52b7)" d="M 874.262173 828.779375 
L 886.594125 828.779375 
L 886.594125 656.881824 
L 874.262173 656.881824 
z
" style="fill:#1f77b4;opacity:0.6;"/>
   </g>
   <g id="patch_64">
    <path clip-path="url(#pdd8c0a52b7)" d="M 886.594125 828.779375 
L 898.926077 828.779375 
L 898.926077 694.359488 
L 886.594125 694.359488 
z
" style="fill:#1f77b4;opacity:0.6;"/>
   </g>
   <g id="patch_65">
    <path clip-path="url(#pdd8c0a52b7)" d="M 898.926077 828.779375 
L 911.258028 828.779375 
L 911.258028 699.356509 
L 898.926077 699.356509 
z
" style="fill:#1f77b4;opacity:0.6;"/>
   </g>
   <g id="patch_66">
    <path clip-path="url(#pdd8c0a52b7)" d="M 911.258028 828.779375 
L 923.58998 828.779375 
L 923.58998 703.354127 
L 911.258028 703.354127 
z
" style="fill:#1f77b4;opacity:0.6;"/>
   </g>
   <g id="patch_67">
    <path clip-path="url(#pdd8c0a52b7)" d="M 923.58998 828.779375 
L 935.921932 828.779375 
L 935.921932 733.336258 
L 923.58998 733.336258 
z
" style="fill:#1f77b4;opacity:0.6;"/>
   </g>
   <g id="patch_68">
    <path clip-path="url(#pdd8c0a52b7)" d="M 935.921932 828.779375 
L 948.253884 828.779375 
L 948.253884 730.837747 
L 935.921932 730.837747 
z
" style="fill:#1f77b4;opacity:0.6;"/>
   </g>
   <g id="patch_69">
    <path clip-path="url(#pdd8c0a52b7)" d="M 948.253884 828.779375 
L 960.585835 828.779375 
L 960.585835 741.331493 
L 948.253884 741.331493 
z
" style="fill:#1f77b4;opacity:0.6;"/>
   </g>
   <g id="patch_70">
    <path clip-path="url(#pdd8c0a52b7)" d="M 960.585835 828.779375 
L 972.917787 828.779375 
L 972.917787 755.323154 
L 960.585835 755.323154 
z
" style="fill:#1f77b4;opacity:0.6;"/>
   </g>
   <g id="patch_71">
    <path clip-path="url(#pdd8c0a52b7)" d="M 972.917787 828.779375 
L 985.249739 828.779375 
L 985.249739 779.308859 
L 972.917787 779.308859 
z
" style="fill:#1f77b4;opacity:0.6;"/>
   </g>
   <g id="patch_72">
    <path clip-path="url(#pdd8c0a52b7)" d="M 985.249739 828.779375 
L 997.58169 828.779375 
L 997.58169 775.810944 
L 985.249739 775.810944 
z
" style="fill:#1f77b4;opacity:0.6;"/>
   </g>
   <g id="patch_73">
    <path clip-path="url(#pdd8c0a52b7)" d="M 997.58169 828.779375 
L 1009.913642 828.779375 
L 1009.913642 778.809157 
L 997.58169 778.809157 
z
" style="fill:#1f77b4;opacity:0.6;"/>
   </g>
   <g id="patch_74">
    <path clip-path="url(#pdd8c0a52b7)" d="M 1009.913642 828.779375 
L 1022.245594 828.779375 
L 1022.245594 789.802605 
L 1009.913642 789.802605 
z
" style="fill:#1f77b4;opacity:0.6;"/>
   </g>
   <g id="patch_75">
    <path clip-path="url(#pdd8c0a52b7)" d="M 1022.245594 828.779375 
L 1034.577545 828.779375 
L 1034.577545 794.299924 
L 1022.245594 794.299924 
z
" style="fill:#1f77b4;opacity:0.6;"/>
   </g>
   <g id="patch_76">
    <path clip-path="url(#pdd8c0a52b7)" d="M 1034.577545 828.779375 
L 1046.909497 828.779375 
L 1046.909497 794.799627 
L 1034.577545 794.799627 
z
" style="fill:#1f77b4;opacity:0.6;"/>
   </g>
   <g id="patch_77">
    <path clip-path="url(#pdd8c0a52b7)" d="M 1046.909497 828.779375 
L 1059.241449 828.779375 
L 1059.241449 803.294564 
L 1046.909497 803.294564 
z
" style="fill:#1f77b4;opacity:0.6;"/>
   </g>
   <g id="patch_78">
    <path clip-path="url(#pdd8c0a52b7)" d="M 1059.241449 828.779375 
L 1071.573401 828.779375 
L 1071.573401 803.794266 
L 1059.241449 803.794266 
z
" style="fill:#1f77b4;opacity:0.6;"/>
   </g>
   <g id="patch_79">
    <path clip-path="url(#pdd8c0a52b7)" d="M 1071.573401 828.779375 
L 1083.905352 828.779375 
L 1083.905352 808.291585 
L 1071.573401 808.291585 
z
" style="fill:#1f77b4;opacity:0.6;"/>
   </g>
   <g id="patch_80">
    <path clip-path="url(#pdd8c0a52b7)" d="M 1083.905352 828.779375 
L 1096.237304 828.779375 
L 1096.237304 811.289799 
L 1083.905352 811.289799 
z
" style="fill:#1f77b4;opacity:0.6;"/>
   </g>
   <g id="patch_81">
    <path clip-path="url(#pdd8c0a52b7)" d="M 1096.237304 828.779375 
L 1108.569256 828.779375 
L 1108.569256 813.788309 
L 1096.237304 813.788309 
z
" style="fill:#1f77b4;opacity:0.6;"/>
   </g>
   <g id="patch_82">
    <path clip-path="url(#pdd8c0a52b7)" d="M 1108.569256 828.779375 
L 1120.901207 828.779375 
L 1120.901207 816.786523 
L 1108.569256 816.786523 
z
" style="fill:#1f77b4;opacity:0.6;"/>
   </g>
   <g id="patch_83">
    <path clip-path="url(#pdd8c0a52b7)" d="M 1120.901207 828.779375 
L 1133.233159 828.779375 
L 1133.233159 821.783544 
L 1120.901207 821.783544 
z
" style="fill:#1f77b4;opacity:0.6;"/>
   </g>
   <g id="patch_84">
    <path clip-path="url(#pdd8c0a52b7)" d="M 1133.233159 828.779375 
L 1145.565111 828.779375 
L 1145.565111 818.285629 
L 1133.233159 818.285629 
z
" style="fill:#1f77b4;opacity:0.6;"/>
   </g>
   <g id="patch_85">
    <path clip-path="url(#pdd8c0a52b7)" d="M 1145.565111 828.779375 
L 1157.897063 828.779375 
L 1157.897063 820.284438 
L 1145.565111 820.284438 
z
" style="fill:#1f77b4;opacity:0.6;"/>
   </g>
   <g id="patch_86">
    <path clip-path="url(#pdd8c0a52b7)" d="M 1157.897063 828.779375 
L 1170.229014 828.779375 
L 1170.229014 824.781758 
L 1157.897063 824.781758 
z
" style="fill:#1f77b4;opacity:0.6;"/>
   </g>
   <g id="patch_87">
    <path clip-path="url(#pdd8c0a52b7)" d="M 1170.229014 828.779375 
L 1182.560966 828.779375 
L 1182.560966 824.781758 
L 1170.229014 824.781758 
z
" style="fill:#1f77b4;opacity:0.6;"/>
   </g>
   <g id="patch_88">
    <path clip-path="url(#pdd8c0a52b7)" d="M 1182.560966 828.779375 
L 1194.892918 828.779375 
L 1194.892918 824.781758 
L 1182.560966 824.781758 
z
" style="fill:#1f77b4;opacity:0.6;"/>
   </g>
   <g id="patch_89">
    <path clip-path="url(#pdd8c0a52b7)" d="M 1194.892918 828.779375 
L 1207.224869 828.779375 
L 1207.224869 825.781162 
L 1194.892918 825.781162 
z
" style="fill:#1f77b4;opacity:0.6;"/>
   </g>
   <g id="patch_90">
    <path clip-path="url(#pdd8c0a52b7)" d="M 1207.224869 828.779375 
L 1219.556821 828.779375 
L 1219.556821 824.781758 
L 1207.224869 824.781758 
z
" style="fill:#1f77b4;opacity:0.6;"/>
   </g>
   <g id="patch_91">
    <path clip-path="url(#pdd8c0a52b7)" d="M 1219.556821 828.779375 
L 1231.888773 828.779375 
L 1231.888773 827.280268 
L 1219.556821 827.280268 
z
" style="fill:#1f77b4;opacity:0.6;"/>
   </g>
   <g id="patch_92">
    <path clip-path="url(#pdd8c0a52b7)" d="M 1231.888773 828.779375 
L 1244.220724 828.779375 
L 1244.220724 826.780566 
L 1231.888773 826.780566 
z
" style="fill:#1f77b4;opacity:0.6;"/>
   </g>
   <g id="patch_93">
    <path clip-path="url(#pdd8c0a52b7)" d="M 1244.220724 828.779375 
L 1256.552676 828.779375 
L 1256.552676 828.279673 
L 1244.220724 828.279673 
z
" style="fill:#1f77b4;opacity:0.6;"/>
   </g>
   <g id="patch_94">
    <path clip-path="url(#pdd8c0a52b7)" d="M 1256.552676 828.779375 
L 1268.884628 828.779375 
L 1268.884628 826.780566 
L 1256.552676 826.780566 
z
" style="fill:#1f77b4;opacity:0.6;"/>
   </g>
   <g id="patch_95">
    <path clip-path="url(#pdd8c0a52b7)" d="M 1268.884628 828.779375 
L 1281.21658 828.779375 
L 1281.21658 827.779971 
L 1268.884628 827.779971 
z
" style="fill:#1f77b4;opacity:0.6;"/>
   </g>
   <g id="patch_96">
    <path clip-path="url(#pdd8c0a52b7)" d="M 1281.21658 828.779375 
L 1293.548531 828.779375 
L 1293.548531 825.781162 
L 1281.21658 825.781162 
z
" style="fill:#1f77b4;opacity:0.6;"/>
   </g>
   <g id="patch_97">
    <path clip-path="url(#pdd8c0a52b7)" d="M 1293.548531 828.779375 
L 1305.880483 828.779375 
L 1305.880483 826.780566 
L 1293.548531 826.780566 
z
" style="fill:#1f77b4;opacity:0.6;"/>
   </g>
   <g id="patch_98">
    <path clip-path="url(#pdd8c0a52b7)" d="M 1305.880483 828.779375 
L 1318.212435 828.779375 
L 1318.212435 827.779971 
L 1305.880483 827.779971 
z
" style="fill:#1f77b4;opacity:0.6;"/>
   </g>
   <g id="patch_99">
    <path clip-path="url(#pdd8c0a52b7)" d="M 1318.212435 828.779375 
L 1330.544386 828.779375 
L 1330.544386 828.279673 
L 1318.212435 828.279673 
z
" style="fill:#1f77b4;opacity:0.6;"/>
   </g>
   <g id="patch_100">
    <path clip-path="url(#pdd8c0a52b7)" d="M 1330.544386 828.779375 
L 1342.876338 828.779375 
L 1342.876338 828.279673 
L 1330.544386 828.279673 
z
" style="fill:#1f77b4;opacity:0.6;"/>
   </g>
   <g id="patch_101">
    <path clip-path="url(#pdd8c0a52b7)" d="M 1342.876338 828.779375 
L 1355.20829 828.779375 
L 1355.20829 828.279673 
L 1342.876338 828.279673 
z
" style="fill:#1f77b4;opacity:0.6;"/>
   </g>
   <g id="patch_102">
    <path clip-path="url(#pdd8c0a52b7)" d="M 1355.20829 828.779375 
L 1367.540241 828.779375 
L 1367.540241 827.280268 
L 1355.20829 827.280268 
z
" style="fill:#1f77b4;opacity:0.6;"/>
   </g>
   <g id="matplotlib.axis_1">
    <g id="xtick_1">
     <g id="line2d_1">
      <defs>
       <path d="M 0 0 
L 0 3.5 
" id="m29b998571a" style="stroke:#000000;stroke-width:0.8;"/>
      </defs>
      <g>
       <use style="stroke:#000000;stroke-width:0.8;" x="124.322986" xlink:href="#m29b998571a" y="828.779375"/>
      </g>
     </g>
     <g id="text_1">
      <!-- 0 -->
      <g transform="translate(118.596736 849.456562)scale(0.18 -0.18)">
       <defs>
        <path d="M 2034 4250 
Q 1547 4250 1301 3770 
Q 1056 3291 1056 2328 
Q 1056 1369 1301 889 
Q 1547 409 2034 409 
Q 2525 409 2770 889 
Q 3016 1369 3016 2328 
Q 3016 3291 2770 3770 
Q 2525 4250 2034 4250 
z
M 2034 4750 
Q 2819 4750 3233 4129 
Q 3647 3509 3647 2328 
Q 3647 1150 3233 529 
Q 2819 -91 2034 -91 
Q 1250 -91 836 529 
Q 422 1150 422 2328 
Q 422 3509 836 4129 
Q 1250 4750 2034 4750 
z
" id="DejaVuSans-30" transform="scale(0.015625)"/>
       </defs>
       <use xlink:href="#DejaVuSans-30"/>
      </g>
     </g>
    </g>
    <g id="xtick_2">
     <g id="line2d_2">
      <g>
       <use style="stroke:#000000;stroke-width:0.8;" x="369.908729" xlink:href="#m29b998571a" y="828.779375"/>
      </g>
     </g>
     <g id="text_2">
      <!-- 1 -->
      <g transform="translate(364.182479 849.456562)scale(0.18 -0.18)">
       <defs>
        <path d="M 794 531 
L 1825 531 
L 1825 4091 
L 703 3866 
L 703 4441 
L 1819 4666 
L 2450 4666 
L 2450 531 
L 3481 531 
L 3481 0 
L 794 0 
L 794 531 
z
" id="DejaVuSans-31" transform="scale(0.015625)"/>
       </defs>
       <use xlink:href="#DejaVuSans-31"/>
      </g>
     </g>
    </g>
    <g id="xtick_3">
     <g id="line2d_3">
      <g>
       <use style="stroke:#000000;stroke-width:0.8;" x="615.494472" xlink:href="#m29b998571a" y="828.779375"/>
      </g>
     </g>
     <g id="text_3">
      <!-- 2 -->
      <g transform="translate(609.768222 849.456562)scale(0.18 -0.18)">
       <defs>
        <path d="M 1228 531 
L 3431 531 
L 3431 0 
L 469 0 
L 469 531 
Q 828 903 1448 1529 
Q 2069 2156 2228 2338 
Q 2531 2678 2651 2914 
Q 2772 3150 2772 3378 
Q 2772 3750 2511 3984 
Q 2250 4219 1831 4219 
Q 1534 4219 1204 4116 
Q 875 4013 500 3803 
L 500 4441 
Q 881 4594 1212 4672 
Q 1544 4750 1819 4750 
Q 2544 4750 2975 4387 
Q 3406 4025 3406 3419 
Q 3406 3131 3298 2873 
Q 3191 2616 2906 2266 
Q 2828 2175 2409 1742 
Q 1991 1309 1228 531 
z
" id="DejaVuSans-32" transform="scale(0.015625)"/>
       </defs>
       <use xlink:href="#DejaVuSans-32"/>
      </g>
     </g>
    </g>
    <g id="xtick_4">
     <g id="line2d_4">
      <g>
       <use style="stroke:#000000;stroke-width:0.8;" x="861.080215" xlink:href="#m29b998571a" y="828.779375"/>
      </g>
     </g>
     <g id="text_4">
      <!-- 3 -->
      <g transform="translate(855.353965 849.456562)scale(0.18 -0.18)">
       <defs>
        <path d="M 2597 2516 
Q 3050 2419 3304 2112 
Q 3559 1806 3559 1356 
Q 3559 666 3084 287 
Q 2609 -91 1734 -91 
Q 1441 -91 1130 -33 
Q 819 25 488 141 
L 488 750 
Q 750 597 1062 519 
Q 1375 441 1716 441 
Q 2309 441 2620 675 
Q 2931 909 2931 1356 
Q 2931 1769 2642 2001 
Q 2353 2234 1838 2234 
L 1294 2234 
L 1294 2753 
L 1863 2753 
Q 2328 2753 2575 2939 
Q 2822 3125 2822 3475 
Q 2822 3834 2567 4026 
Q 2313 4219 1838 4219 
Q 1578 4219 1281 4162 
Q 984 4106 628 3988 
L 628 4550 
Q 988 4650 1302 4700 
Q 1616 4750 1894 4750 
Q 2613 4750 3031 4423 
Q 3450 4097 3450 3541 
Q 3450 3153 3228 2886 
Q 3006 2619 2597 2516 
z
" id="DejaVuSans-33" transform="scale(0.015625)"/>
       </defs>
       <use xlink:href="#DejaVuSans-33"/>
      </g>
     </g>
    </g>
    <g id="xtick_5">
     <g id="line2d_5">
      <g>
       <use style="stroke:#000000;stroke-width:0.8;" x="1106.665958" xlink:href="#m29b998571a" y="828.779375"/>
      </g>
     </g>
     <g id="text_5">
      <!-- 4 -->
      <g transform="translate(1100.939708 849.456562)scale(0.18 -0.18)">
       <defs>
        <path d="M 2419 4116 
L 825 1625 
L 2419 1625 
L 2419 4116 
z
M 2253 4666 
L 3047 4666 
L 3047 1625 
L 3713 1625 
L 3713 1100 
L 3047 1100 
L 3047 0 
L 2419 0 
L 2419 1100 
L 313 1100 
L 313 1709 
L 2253 4666 
z
" id="DejaVuSans-34" transform="scale(0.015625)"/>
       </defs>
       <use xlink:href="#DejaVuSans-34"/>
      </g>
     </g>
    </g>
    <g id="xtick_6">
     <g id="line2d_6">
      <g>
       <use style="stroke:#000000;stroke-width:0.8;" x="1352.251701" xlink:href="#m29b998571a" y="828.779375"/>
      </g>
     </g>
     <g id="text_6">
      <!-- 5 -->
      <g transform="translate(1346.525451 849.456562)scale(0.18 -0.18)">
       <defs>
        <path d="M 691 4666 
L 3169 4666 
L 3169 4134 
L 1269 4134 
L 1269 2991 
Q 1406 3038 1543 3061 
Q 1681 3084 1819 3084 
Q 2600 3084 3056 2656 
Q 3513 2228 3513 1497 
Q 3513 744 3044 326 
Q 2575 -91 1722 -91 
Q 1428 -91 1123 -41 
Q 819 9 494 109 
L 494 744 
Q 775 591 1075 516 
Q 1375 441 1709 441 
Q 2250 441 2565 725 
Q 2881 1009 2881 1497 
Q 2881 1984 2565 2268 
Q 2250 2553 1709 2553 
Q 1456 2553 1204 2497 
Q 953 2441 691 2322 
L 691 4666 
z
" id="DejaVuSans-35" transform="scale(0.015625)"/>
       </defs>
       <use xlink:href="#DejaVuSans-35"/>
      </g>
     </g>
    </g>
   </g>
   <g id="matplotlib.axis_2">
    <g id="ytick_1">
     <g id="line2d_7">
      <defs>
       <path d="M 0 0 
L -3.5 0 
" id="m20f9f298db" style="stroke:#000000;stroke-width:0.8;"/>
      </defs>
      <g>
       <use style="stroke:#000000;stroke-width:0.8;" x="72.685313" xlink:href="#m20f9f298db" y="828.779375"/>
      </g>
     </g>
     <g id="text_7">
      <!-- 0.0 -->
      <g transform="translate(37.059688 835.617969)scale(0.18 -0.18)">
       <defs>
        <path d="M 684 794 
L 1344 794 
L 1344 0 
L 684 0 
L 684 794 
z
" id="DejaVuSans-2e" transform="scale(0.015625)"/>
       </defs>
       <use xlink:href="#DejaVuSans-30"/>
       <use x="63.623047" xlink:href="#DejaVuSans-2e"/>
       <use x="95.410156" xlink:href="#DejaVuSans-30"/>
      </g>
     </g>
    </g>
    <g id="ytick_2">
     <g id="line2d_8">
      <g>
       <use style="stroke:#000000;stroke-width:0.8;" x="72.685313" xlink:href="#m20f9f298db" y="703.318037"/>
      </g>
     </g>
     <g id="text_8">
      <!-- 0.1 -->
      <g transform="translate(37.059688 710.156631)scale(0.18 -0.18)">
       <use xlink:href="#DejaVuSans-30"/>
       <use x="63.623047" xlink:href="#DejaVuSans-2e"/>
       <use x="95.410156" xlink:href="#DejaVuSans-31"/>
      </g>
     </g>
    </g>
    <g id="ytick_3">
     <g id="line2d_9">
      <g>
       <use style="stroke:#000000;stroke-width:0.8;" x="72.685313" xlink:href="#m20f9f298db" y="577.856699"/>
      </g>
     </g>
     <g id="text_9">
      <!-- 0.2 -->
      <g transform="translate(37.059688 584.695292)scale(0.18 -0.18)">
       <use xlink:href="#DejaVuSans-30"/>
       <use x="63.623047" xlink:href="#DejaVuSans-2e"/>
       <use x="95.410156" xlink:href="#DejaVuSans-32"/>
      </g>
     </g>
    </g>
    <g id="ytick_4">
     <g id="line2d_10">
      <g>
       <use style="stroke:#000000;stroke-width:0.8;" x="72.685313" xlink:href="#m20f9f298db" y="452.39536"/>
      </g>
     </g>
     <g id="text_10">
      <!-- 0.3 -->
      <g transform="translate(37.059688 459.233954)scale(0.18 -0.18)">
       <use xlink:href="#DejaVuSans-30"/>
       <use x="63.623047" xlink:href="#DejaVuSans-2e"/>
       <use x="95.410156" xlink:href="#DejaVuSans-33"/>
      </g>
     </g>
    </g>
    <g id="ytick_5">
     <g id="line2d_11">
      <g>
       <use style="stroke:#000000;stroke-width:0.8;" x="72.685313" xlink:href="#m20f9f298db" y="326.934022"/>
      </g>
     </g>
     <g id="text_11">
      <!-- 0.4 -->
      <g transform="translate(37.059688 333.772616)scale(0.18 -0.18)">
       <use xlink:href="#DejaVuSans-30"/>
       <use x="63.623047" xlink:href="#DejaVuSans-2e"/>
       <use x="95.410156" xlink:href="#DejaVuSans-34"/>
      </g>
     </g>
    </g>
    <g id="ytick_6">
     <g id="line2d_12">
      <g>
       <use style="stroke:#000000;stroke-width:0.8;" x="72.685313" xlink:href="#m20f9f298db" y="201.472684"/>
      </g>
     </g>
     <g id="text_12">
      <!-- 0.5 -->
      <g transform="translate(37.059688 208.311278)scale(0.18 -0.18)">
       <use xlink:href="#DejaVuSans-30"/>
       <use x="63.623047" xlink:href="#DejaVuSans-2e"/>
       <use x="95.410156" xlink:href="#DejaVuSans-35"/>
      </g>
     </g>
    </g>
    <g id="ytick_7">
     <g id="line2d_13">
      <g>
       <use style="stroke:#000000;stroke-width:0.8;" x="72.685313" xlink:href="#m20f9f298db" y="76.011346"/>
      </g>
     </g>
     <g id="text_13">
      <!-- 0.6 -->
      <g transform="translate(37.059688 82.849939)scale(0.18 -0.18)">
       <defs>
        <path d="M 2113 2584 
Q 1688 2584 1439 2293 
Q 1191 2003 1191 1497 
Q 1191 994 1439 701 
Q 1688 409 2113 409 
Q 2538 409 2786 701 
Q 3034 994 3034 1497 
Q 3034 2003 2786 2293 
Q 2538 2584 2113 2584 
z
M 3366 4563 
L 3366 3988 
Q 3128 4100 2886 4159 
Q 2644 4219 2406 4219 
Q 1781 4219 1451 3797 
Q 1122 3375 1075 2522 
Q 1259 2794 1537 2939 
Q 1816 3084 2150 3084 
Q 2853 3084 3261 2657 
Q 3669 2231 3669 1497 
Q 3669 778 3244 343 
Q 2819 -91 2113 -91 
Q 1303 -91 875 529 
Q 447 1150 447 2328 
Q 447 3434 972 4092 
Q 1497 4750 2381 4750 
Q 2619 4750 2861 4703 
Q 3103 4656 3366 4563 
z
" id="DejaVuSans-36" transform="scale(0.015625)"/>
       </defs>
       <use xlink:href="#DejaVuSans-30"/>
       <use x="63.623047" xlink:href="#DejaVuSans-2e"/>
       <use x="95.410156" xlink:href="#DejaVuSans-36"/>
      </g>
     </g>
    </g>
    <g id="text_14">
     <!-- Normed Hist Counts -->
     <g transform="translate(28.276406 548.966563)rotate(-90)scale(0.23 -0.23)">
      <defs>
       <path d="M 628 4666 
L 1478 4666 
L 3547 763 
L 3547 4666 
L 4159 4666 
L 4159 0 
L 3309 0 
L 1241 3903 
L 1241 0 
L 628 0 
L 628 4666 
z
" id="DejaVuSans-4e" transform="scale(0.015625)"/>
       <path d="M 1959 3097 
Q 1497 3097 1228 2736 
Q 959 2375 959 1747 
Q 959 1119 1226 758 
Q 1494 397 1959 397 
Q 2419 397 2687 759 
Q 2956 1122 2956 1747 
Q 2956 2369 2687 2733 
Q 2419 3097 1959 3097 
z
M 1959 3584 
Q 2709 3584 3137 3096 
Q 3566 2609 3566 1747 
Q 3566 888 3137 398 
Q 2709 -91 1959 -91 
Q 1206 -91 779 398 
Q 353 888 353 1747 
Q 353 2609 779 3096 
Q 1206 3584 1959 3584 
z
" id="DejaVuSans-6f" transform="scale(0.015625)"/>
       <path d="M 2631 2963 
Q 2534 3019 2420 3045 
Q 2306 3072 2169 3072 
Q 1681 3072 1420 2755 
Q 1159 2438 1159 1844 
L 1159 0 
L 581 0 
L 581 3500 
L 1159 3500 
L 1159 2956 
Q 1341 3275 1631 3429 
Q 1922 3584 2338 3584 
Q 2397 3584 2469 3576 
Q 2541 3569 2628 3553 
L 2631 2963 
z
" id="DejaVuSans-72" transform="scale(0.015625)"/>
       <path d="M 3328 2828 
Q 3544 3216 3844 3400 
Q 4144 3584 4550 3584 
Q 5097 3584 5394 3201 
Q 5691 2819 5691 2113 
L 5691 0 
L 5113 0 
L 5113 2094 
Q 5113 2597 4934 2840 
Q 4756 3084 4391 3084 
Q 3944 3084 3684 2787 
Q 3425 2491 3425 1978 
L 3425 0 
L 2847 0 
L 2847 2094 
Q 2847 2600 2669 2842 
Q 2491 3084 2119 3084 
Q 1678 3084 1418 2786 
Q 1159 2488 1159 1978 
L 1159 0 
L 581 0 
L 581 3500 
L 1159 3500 
L 1159 2956 
Q 1356 3278 1631 3431 
Q 1906 3584 2284 3584 
Q 2666 3584 2933 3390 
Q 3200 3197 3328 2828 
z
" id="DejaVuSans-6d" transform="scale(0.015625)"/>
       <path d="M 3597 1894 
L 3597 1613 
L 953 1613 
Q 991 1019 1311 708 
Q 1631 397 2203 397 
Q 2534 397 2845 478 
Q 3156 559 3463 722 
L 3463 178 
Q 3153 47 2828 -22 
Q 2503 -91 2169 -91 
Q 1331 -91 842 396 
Q 353 884 353 1716 
Q 353 2575 817 3079 
Q 1281 3584 2069 3584 
Q 2775 3584 3186 3129 
Q 3597 2675 3597 1894 
z
M 3022 2063 
Q 3016 2534 2758 2815 
Q 2500 3097 2075 3097 
Q 1594 3097 1305 2825 
Q 1016 2553 972 2059 
L 3022 2063 
z
" id="DejaVuSans-65" transform="scale(0.015625)"/>
       <path d="M 2906 2969 
L 2906 4863 
L 3481 4863 
L 3481 0 
L 2906 0 
L 2906 525 
Q 2725 213 2448 61 
Q 2172 -91 1784 -91 
Q 1150 -91 751 415 
Q 353 922 353 1747 
Q 353 2572 751 3078 
Q 1150 3584 1784 3584 
Q 2172 3584 2448 3432 
Q 2725 3281 2906 2969 
z
M 947 1747 
Q 947 1113 1208 752 
Q 1469 391 1925 391 
Q 2381 391 2643 752 
Q 2906 1113 2906 1747 
Q 2906 2381 2643 2742 
Q 2381 3103 1925 3103 
Q 1469 3103 1208 2742 
Q 947 2381 947 1747 
z
" id="DejaVuSans-64" transform="scale(0.015625)"/>
       <path id="DejaVuSans-20" transform="scale(0.015625)"/>
       <path d="M 628 4666 
L 1259 4666 
L 1259 2753 
L 3553 2753 
L 3553 4666 
L 4184 4666 
L 4184 0 
L 3553 0 
L 3553 2222 
L 1259 2222 
L 1259 0 
L 628 0 
L 628 4666 
z
" id="DejaVuSans-48" transform="scale(0.015625)"/>
       <path d="M 603 3500 
L 1178 3500 
L 1178 0 
L 603 0 
L 603 3500 
z
M 603 4863 
L 1178 4863 
L 1178 4134 
L 603 4134 
L 603 4863 
z
" id="DejaVuSans-69" transform="scale(0.015625)"/>
       <path d="M 2834 3397 
L 2834 2853 
Q 2591 2978 2328 3040 
Q 2066 3103 1784 3103 
Q 1356 3103 1142 2972 
Q 928 2841 928 2578 
Q 928 2378 1081 2264 
Q 1234 2150 1697 2047 
L 1894 2003 
Q 2506 1872 2764 1633 
Q 3022 1394 3022 966 
Q 3022 478 2636 193 
Q 2250 -91 1575 -91 
Q 1294 -91 989 -36 
Q 684 19 347 128 
L 347 722 
Q 666 556 975 473 
Q 1284 391 1588 391 
Q 1994 391 2212 530 
Q 2431 669 2431 922 
Q 2431 1156 2273 1281 
Q 2116 1406 1581 1522 
L 1381 1569 
Q 847 1681 609 1914 
Q 372 2147 372 2553 
Q 372 3047 722 3315 
Q 1072 3584 1716 3584 
Q 2034 3584 2315 3537 
Q 2597 3491 2834 3397 
z
" id="DejaVuSans-73" transform="scale(0.015625)"/>
       <path d="M 1172 4494 
L 1172 3500 
L 2356 3500 
L 2356 3053 
L 1172 3053 
L 1172 1153 
Q 1172 725 1289 603 
Q 1406 481 1766 481 
L 2356 481 
L 2356 0 
L 1766 0 
Q 1100 0 847 248 
Q 594 497 594 1153 
L 594 3053 
L 172 3053 
L 172 3500 
L 594 3500 
L 594 4494 
L 1172 4494 
z
" id="DejaVuSans-74" transform="scale(0.015625)"/>
       <path d="M 4122 4306 
L 4122 3641 
Q 3803 3938 3442 4084 
Q 3081 4231 2675 4231 
Q 1875 4231 1450 3742 
Q 1025 3253 1025 2328 
Q 1025 1406 1450 917 
Q 1875 428 2675 428 
Q 3081 428 3442 575 
Q 3803 722 4122 1019 
L 4122 359 
Q 3791 134 3420 21 
Q 3050 -91 2638 -91 
Q 1578 -91 968 557 
Q 359 1206 359 2328 
Q 359 3453 968 4101 
Q 1578 4750 2638 4750 
Q 3056 4750 3426 4639 
Q 3797 4528 4122 4306 
z
" id="DejaVuSans-43" transform="scale(0.015625)"/>
       <path d="M 544 1381 
L 544 3500 
L 1119 3500 
L 1119 1403 
Q 1119 906 1312 657 
Q 1506 409 1894 409 
Q 2359 409 2629 706 
Q 2900 1003 2900 1516 
L 2900 3500 
L 3475 3500 
L 3475 0 
L 2900 0 
L 2900 538 
Q 2691 219 2414 64 
Q 2138 -91 1772 -91 
Q 1169 -91 856 284 
Q 544 659 544 1381 
z
M 1991 3584 
L 1991 3584 
z
" id="DejaVuSans-75" transform="scale(0.015625)"/>
       <path d="M 3513 2113 
L 3513 0 
L 2938 0 
L 2938 2094 
Q 2938 2591 2744 2837 
Q 2550 3084 2163 3084 
Q 1697 3084 1428 2787 
Q 1159 2491 1159 1978 
L 1159 0 
L 581 0 
L 581 3500 
L 1159 3500 
L 1159 2956 
Q 1366 3272 1645 3428 
Q 1925 3584 2291 3584 
Q 2894 3584 3203 3211 
Q 3513 2838 3513 2113 
z
" id="DejaVuSans-6e" transform="scale(0.015625)"/>
      </defs>
      <use xlink:href="#DejaVuSans-4e"/>
      <use x="74.804688" xlink:href="#DejaVuSans-6f"/>
      <use x="135.986328" xlink:href="#DejaVuSans-72"/>
      <use x="175.349609" xlink:href="#DejaVuSans-6d"/>
      <use x="272.761719" xlink:href="#DejaVuSans-65"/>
      <use x="334.285156" xlink:href="#DejaVuSans-64"/>
      <use x="397.761719" xlink:href="#DejaVuSans-20"/>
      <use x="429.548828" xlink:href="#DejaVuSans-48"/>
      <use x="504.744141" xlink:href="#DejaVuSans-69"/>
      <use x="532.527344" xlink:href="#DejaVuSans-73"/>
      <use x="584.626953" xlink:href="#DejaVuSans-74"/>
      <use x="623.835938" xlink:href="#DejaVuSans-20"/>
      <use x="655.623047" xlink:href="#DejaVuSans-43"/>
      <use x="725.447266" xlink:href="#DejaVuSans-6f"/>
      <use x="786.628906" xlink:href="#DejaVuSans-75"/>
      <use x="850.007812" xlink:href="#DejaVuSans-6e"/>
      <use x="913.386719" xlink:href="#DejaVuSans-74"/>
      <use x="952.595703" xlink:href="#DejaVuSans-73"/>
     </g>
    </g>
   </g>
   <g id="line2d_14">
    <path clip-path="url(#pdd8c0a52b7)" d="M 137.428059 828.55308 
L 143.594035 828.247464 
L 149.760011 827.742772 
L 155.925987 826.988328 
L 162.091962 825.934119 
L 168.257938 824.531262 
L 174.423914 822.732432 
L 180.58989 820.492246 
L 186.755866 817.767622 
L 192.921842 814.518106 
L 199.087817 810.70618 
L 205.253793 806.297532 
L 211.419769 801.261309 
L 217.585745 795.570341 
L 223.751721 789.201336 
L 229.917697 782.135047 
L 236.083673 774.35641 
L 242.249648 765.854657 
L 248.415624 756.623394 
L 254.5816 746.660655 
L 260.747576 735.968924 
L 266.913552 724.555129 
L 273.079528 712.430606 
L 279.245504 699.61104 
L 285.411479 686.116371 
L 291.577455 671.970683 
L 297.743431 657.20206 
L 303.909407 641.842425 
L 310.075383 625.927349 
L 316.241359 609.495847 
L 322.407335 592.590151 
L 328.57331 575.255464 
L 340.905262 539.493219 
L 353.237214 502.619992 
L 371.735141 446.196531 
L 390.233069 389.829937 
L 402.565021 353.068322 
L 408.730996 335.106452 
L 414.896972 317.49905 
L 421.062948 300.30076 
L 427.228924 283.564529 
L 433.3949 267.341361 
L 439.560876 251.680093 
L 445.726852 236.627178 
L 451.892827 222.226497 
L 458.058803 208.519178 
L 464.224779 195.543445 
L 470.390755 183.334474 
L 476.556731 171.924278 
L 482.722707 161.341606 
L 488.888683 151.61187 
L 495.054658 142.757077 
L 501.220634 134.7958 
L 507.38661 127.743151 
L 513.552586 121.610782 
L 519.718562 116.406903 
L 525.884538 112.136317 
L 532.050513 108.800474 
L 538.216489 106.397534 
L 544.382465 104.922458 
L 550.548441 104.3671 
L 556.714417 104.72032 
L 562.880393 105.968108 
L 569.046369 108.093717 
L 575.212344 111.077811 
L 581.37832 114.898611 
L 587.544296 119.532061 
L 593.710272 124.951996 
L 599.876248 131.130306 
L 606.042224 138.037121 
L 612.2082 145.640985 
L 618.374175 153.909034 
L 624.540151 162.807183 
L 630.706127 172.300303 
L 636.872103 182.352397 
L 643.038079 192.926784 
L 649.204055 203.986263 
L 655.370031 215.493292 
L 661.536006 227.410141 
L 667.701982 239.69906 
L 673.867958 252.322426 
L 680.033934 265.242889 
L 692.365886 291.827894 
L 704.697837 319.165785 
L 723.195765 360.984846 
L 747.859668 416.940921 
L 760.19162 444.498928 
L 772.523572 471.517615 
L 784.855523 497.831101 
L 797.187475 523.296744 
L 803.353451 535.673361 
L 809.519427 547.794937 
L 815.685403 559.650022 
L 821.851379 571.228514 
L 828.017354 582.52162 
L 834.18333 593.521821 
L 840.349306 604.222826 
L 846.515282 614.619525 
L 852.681258 624.707943 
L 858.847234 634.485189 
L 865.01321 643.9494 
L 871.179185 653.099693 
L 877.345161 661.936105 
L 883.511137 670.459539 
L 889.677113 678.671709 
L 895.843089 686.575085 
L 902.009065 694.172833 
L 908.17504 701.468765 
L 914.341016 708.467281 
L 920.506992 715.173318 
L 926.672968 721.592296 
L 932.838944 727.730068 
L 939.00492 733.592873 
L 945.170896 739.187283 
L 951.336871 744.520163 
L 957.502847 749.598625 
L 963.668823 754.429985 
L 969.834799 759.021726 
L 976.000775 763.381456 
L 982.166751 767.516879 
L 988.332727 771.435755 
L 994.498702 775.145875 
L 1000.664678 778.655026 
L 1006.830654 781.970971 
L 1012.99663 785.101418 
L 1019.162606 788.054 
L 1025.328582 790.836258 
L 1031.494558 793.455614 
L 1037.660533 795.919364 
L 1043.826509 798.234657 
L 1049.992485 800.408483 
L 1056.158461 802.447662 
L 1062.324437 804.358837 
L 1074.656388 807.822789 
L 1086.98834 810.849604 
L 1099.320292 813.48529 
L 1111.652244 815.772521 
L 1123.984195 817.750626 
L 1136.316147 819.455628 
L 1148.648099 820.920329 
L 1160.98005 822.174433 
L 1173.312002 823.244695 
L 1191.80993 824.557112 
L 1210.307857 825.579362 
L 1228.805785 826.369885 
L 1253.469688 827.145428 
L 1278.133592 827.683994 
L 1308.963471 828.125486 
L 1345.959326 828.435445 
L 1364.457254 828.532305 
L 1364.457254 828.532305 
" style="fill:none;stroke:#ff7f0e;stroke-linecap:square;stroke-width:2;"/>
   </g>
   <g id="line2d_15">
    <path clip-path="url(#pdd8c0a52b7)" d="M 137.428059 825.761585 
L 143.594035 824.97394 
L 149.760011 824.021542 
L 155.925987 822.879217 
L 162.091962 821.519697 
L 168.257938 819.913717 
L 174.423914 818.030167 
L 180.58989 815.836285 
L 186.755866 813.297898 
L 192.921842 810.37971 
L 199.087817 807.045631 
L 205.253793 803.259146 
L 211.419769 798.98372 
L 217.585745 794.183236 
L 223.751721 788.822447 
L 229.917697 782.867459 
L 236.083673 776.286212 
L 242.249648 769.048971 
L 248.415624 761.128806 
L 254.5816 752.50206 
L 260.747576 743.148801 
L 266.913552 733.053237 
L 273.079528 722.204098 
L 279.245504 710.594979 
L 285.411479 698.224634 
L 291.577455 685.097209 
L 297.743431 671.222432 
L 303.909407 656.615732 
L 310.075383 641.298295 
L 316.241359 625.297069 
L 322.407335 608.644686 
L 328.57331 591.379341 
L 334.739286 573.544592 
L 340.905262 555.189116 
L 347.071238 536.366399 
L 359.40319 497.555055 
L 371.735141 457.619999 
L 402.565021 356.613888 
L 414.896972 317.325266 
L 421.062948 298.22178 
L 427.228924 279.576266 
L 433.3949 261.459138 
L 439.560876 243.938129 
L 445.726852 227.077861 
L 451.892827 210.939452 
L 458.058803 195.58016 
L 464.224779 181.053071 
L 470.390755 167.406827 
L 476.556731 154.685393 
L 482.722707 142.927878 
L 488.888683 132.168388 
L 495.054658 122.435932 
L 501.220634 113.754363 
L 507.38661 106.142367 
L 513.552586 99.613483 
L 519.718562 94.176169 
L 525.884538 89.833895 
L 532.050513 86.585276 
L 538.216489 84.424229 
L 544.382465 83.340162 
L 550.548441 83.31818 
L 556.714417 84.339321 
L 562.880393 86.380804 
L 569.046369 89.416292 
L 575.212344 93.416173 
L 581.37832 98.347841 
L 587.544296 104.175992 
L 593.710272 110.862921 
L 599.876248 118.368812 
L 606.042224 126.652046 
L 612.2082 135.669481 
L 618.374175 145.37675 
L 624.540151 155.728534 
L 630.706127 166.678836 
L 636.872103 178.181239 
L 643.038079 190.189159 
L 649.204055 202.656075 
L 655.370031 215.535759 
L 661.536006 228.782474 
L 667.701982 242.351178 
L 680.033934 270.278861 
L 692.365886 298.978584 
L 710.863813 342.783456 
L 729.361741 386.638847 
L 741.693692 415.485713 
L 754.025644 443.769987 
L 766.357596 471.309814 
L 778.689548 497.952083 
L 784.855523 510.896403 
L 791.021499 523.571407 
L 797.187475 535.965518 
L 803.353451 548.068696 
L 809.519427 559.872375 
L 815.685403 571.369403 
L 821.851379 582.553971 
L 828.017354 593.421548 
L 834.18333 603.968811 
L 840.349306 614.193576 
L 846.515282 624.094729 
L 852.681258 633.672152 
L 858.847234 642.926659 
L 865.01321 651.859922 
L 871.179185 660.474409 
L 877.345161 668.773315 
L 883.511137 676.760497 
L 889.677113 684.440416 
L 895.843089 691.818073 
L 902.009065 698.898953 
L 908.17504 705.68897 
L 914.341016 712.194412 
L 920.506992 718.421893 
L 926.672968 724.378303 
L 932.838944 730.070766 
L 939.00492 735.506595 
L 945.170896 740.693251 
L 951.336871 745.638309 
L 957.502847 750.349422 
L 963.668823 754.834288 
L 969.834799 759.10062 
L 976.000775 763.156122 
L 982.166751 767.008459 
L 988.332727 770.665239 
L 994.498702 774.13399 
L 1000.664678 777.422142 
L 1006.830654 780.537008 
L 1012.99663 783.485776 
L 1019.162606 786.275489 
L 1025.328582 788.913037 
L 1031.494558 791.405148 
L 1037.660533 793.758379 
L 1043.826509 795.979108 
L 1049.992485 798.073531 
L 1062.324437 801.907301 
L 1074.656388 805.305457 
L 1086.98834 808.310667 
L 1099.320292 810.962506 
L 1111.652244 813.297496 
L 1123.984195 815.349189 
L 1136.316147 817.148275 
L 1148.648099 818.722712 
L 1160.98005 820.097874 
L 1173.312002 821.296703 
L 1191.80993 822.808965 
L 1210.307857 824.031558 
L 1228.805785 825.0161 
L 1247.303712 825.80594 
L 1271.967616 826.617823 
L 1296.631519 827.21634 
L 1327.461398 827.744586 
L 1364.457254 828.154886 
L 1364.457254 828.154886 
" style="fill:none;stroke:#2ca02c;stroke-linecap:square;stroke-width:2;"/>
   </g>
   <g id="line2d_16">
    <path clip-path="url(#pdd8c0a52b7)" d="M 137.428059 152.901612 
L 149.760011 171.061425 
L 162.091962 188.733311 
L 174.423914 205.93038 
L 186.755866 222.665391 
L 199.087817 238.950756 
L 211.419769 254.798559 
L 223.751721 270.220555 
L 236.083673 285.228186 
L 248.415624 299.832584 
L 260.747576 314.044584 
L 273.079528 327.874729 
L 285.411479 341.333279 
L 297.743431 354.430218 
L 310.075383 367.175263 
L 322.407335 379.577867 
L 334.739286 391.647232 
L 347.071238 403.392311 
L 359.40319 414.821818 
L 371.735141 425.944231 
L 384.067093 436.767802 
L 396.399045 447.30056 
L 408.730996 457.550319 
L 421.062948 467.524682 
L 433.3949 477.231049 
L 445.726852 486.676621 
L 458.058803 495.868404 
L 470.390755 504.813218 
L 482.722707 513.517699 
L 495.054658 521.988303 
L 507.38661 530.231315 
L 519.718562 538.25285 
L 532.050513 546.058858 
L 544.382465 553.655131 
L 556.714417 561.047303 
L 569.046369 568.240859 
L 581.37832 575.241134 
L 593.710272 582.053323 
L 606.042224 588.682479 
L 618.374175 595.133519 
L 630.706127 601.41123 
L 643.038079 607.520268 
L 661.536006 616.377445 
L 680.033934 624.880061 
L 698.531862 633.042311 
L 717.029789 640.87782 
L 735.527717 648.399667 
L 754.025644 655.620409 
L 772.523572 662.552099 
L 791.021499 669.206308 
L 809.519427 675.594143 
L 828.017354 681.726269 
L 846.515282 687.612921 
L 865.01321 693.263925 
L 883.511137 698.688715 
L 902.009065 703.896347 
L 920.506992 708.895513 
L 939.00492 713.694558 
L 957.502847 718.301494 
L 976.000775 722.724011 
L 994.498702 726.96949 
L 1019.162606 732.366947 
L 1043.826509 737.478258 
L 1068.490413 742.318592 
L 1093.154316 746.902315 
L 1117.818219 751.243033 
L 1142.482123 755.353626 
L 1167.146026 759.246297 
L 1191.80993 762.932597 
L 1216.473833 766.423468 
L 1241.137737 769.72927 
L 1271.967616 773.616167 
L 1302.797495 777.247214 
L 1333.627374 780.639252 
L 1364.457254 783.808013 
L 1364.457254 783.808013 
" style="fill:none;stroke:#d62728;stroke-linecap:square;stroke-width:2;"/>
   </g>
   <g id="line2d_17">
    <path clip-path="url(#pdd8c0a52b7)" d="M 137.428059 784.604379 
L 149.760011 780.368092 
L 162.091962 775.725555 
L 174.423914 770.637808 
L 180.58989 767.913795 
L 186.755866 765.062158 
L 192.921842 762.076917 
L 199.087817 758.951814 
L 205.253793 755.680296 
L 211.419769 752.255502 
L 217.585745 748.670252 
L 223.751721 744.917028 
L 229.917697 740.98796 
L 236.083673 736.87481 
L 242.249648 732.568953 
L 248.415624 728.061361 
L 254.5816 723.342581 
L 260.747576 718.402721 
L 266.913552 713.231421 
L 273.079528 707.817838 
L 279.245504 702.150621 
L 285.411479 696.217888 
L 291.577455 690.007198 
L 297.743431 683.505528 
L 303.909407 676.699246 
L 310.075383 669.57408 
L 316.241359 662.11509 
L 322.407335 654.306636 
L 328.57331 646.132345 
L 334.739286 637.575077 
L 340.905262 628.616889 
L 347.071238 619.238998 
L 353.237214 609.421739 
L 359.40319 599.144528 
L 365.569165 588.385816 
L 371.735141 577.123043 
L 377.901117 565.332593 
L 384.067093 552.989744 
L 390.233069 540.068616 
L 396.399045 526.542114 
L 402.565021 512.381878 
L 408.730996 497.558214 
L 414.896972 482.040041 
L 421.062948 465.79482 
L 427.228924 448.788488 
L 433.3949 430.985386 
L 439.560876 412.348183 
L 445.726852 392.837802 
L 451.892827 372.413331 
L 458.058803 351.031946 
L 464.224779 328.648814 
L 470.390755 305.217 
L 476.556731 280.687374 
L 482.722707 255.0085 
L 488.888683 228.126535 
L 495.054658 199.985112 
L 501.220634 170.525225 
L 507.38661 139.685101 
L 513.552586 107.400074 
L 519.718562 73.602449 
L 525.884538 38.221358 
L 532.3976 -1 
M 618.904425 -1 
L 624.540151 33.073979 
L 630.706127 68.685439 
L 636.872103 102.703123 
L 643.038079 135.19836 
L 649.204055 166.239286 
L 655.370031 195.890989 
L 661.536006 224.215642 
L 667.701982 251.272637 
L 673.867958 277.118708 
L 680.033934 301.808049 
L 686.19991 325.392429 
L 692.365886 347.9213 
L 698.531862 369.4419 
L 704.697837 389.999356 
L 710.863813 409.636771 
L 717.029789 428.395321 
L 723.195765 446.314341 
L 729.361741 463.431403 
L 735.527717 479.782397 
L 741.693692 495.40161 
L 747.859668 510.321791 
L 754.025644 524.574227 
L 760.19162 538.1888 
L 766.357596 551.194059 
L 772.523572 563.617273 
L 778.689548 575.484491 
L 784.855523 586.820597 
L 791.021499 597.64936 
L 797.187475 607.993486 
L 803.353451 617.874666 
L 809.519427 627.313617 
L 815.685403 636.330132 
L 821.851379 644.943117 
L 828.017354 653.170632 
L 834.18333 661.029927 
L 840.349306 668.537483 
L 846.515282 675.709041 
L 852.681258 682.55964 
L 858.847234 689.103642 
L 865.01321 695.354771 
L 871.179185 701.326133 
L 877.345161 707.030249 
L 883.511137 712.47908 
L 889.677113 717.684051 
L 895.843089 722.656075 
L 902.009065 727.405579 
L 908.17504 731.94252 
L 914.341016 736.276413 
L 920.506992 740.416344 
L 926.672968 744.370994 
L 932.838944 748.148656 
L 939.00492 751.75725 
L 945.170896 755.204342 
L 951.336871 758.497162 
L 957.502847 761.642613 
L 963.668823 764.64729 
L 969.834799 767.517495 
L 976.000775 770.259244 
L 988.332727 775.380118 
L 1000.664678 780.052883 
L 1012.99663 784.316753 
L 1025.328582 788.207507 
L 1037.660533 791.757796 
L 1049.992485 794.997414 
L 1062.324437 797.953544 
L 1074.656388 800.650995 
L 1086.98834 803.112402 
L 1099.320292 805.358421 
L 1111.652244 807.407899 
L 1123.984195 809.278036 
L 1136.316147 810.984524 
L 1154.814075 813.268394 
L 1173.312002 815.259143 
L 1191.80993 816.99439 
L 1210.307857 818.506927 
L 1228.805785 819.825339 
L 1253.469688 821.323842 
L 1278.133592 822.571563 
L 1302.797495 823.610472 
L 1333.627374 824.668131 
L 1364.457254 825.509373 
L 1364.457254 825.509373 
" style="fill:none;stroke:#9467bd;stroke-linecap:square;stroke-width:2;"/>
   </g>
   <g id="line2d_18">
    <path clip-path="url(#pdd8c0a52b7)" d="M 137.428059 824.622145 
L 143.594035 823.710069 
L 149.760011 822.632886 
L 155.925987 821.367956 
L 162.091962 819.890828 
L 168.257938 818.175296 
L 174.423914 816.193495 
L 180.58989 813.916026 
L 186.755866 811.312125 
L 192.921842 808.34987 
L 199.087817 804.996427 
L 205.253793 801.21833 
L 211.419769 796.981801 
L 217.585745 792.253101 
L 223.751721 786.998907 
L 229.917697 781.186724 
L 236.083673 774.785302 
L 242.249648 767.765083 
L 248.415624 760.098639 
L 254.5816 751.761126 
L 260.747576 742.730726 
L 266.913552 732.989072 
L 273.079528 722.521656 
L 279.245504 711.318217 
L 285.411479 699.373082 
L 291.577455 686.685477 
L 297.743431 673.259786 
L 303.909407 659.105767 
L 310.075383 644.238703 
L 316.241359 628.6795 
L 322.407335 612.45473 
L 328.57331 595.596597 
L 334.739286 578.142853 
L 340.905262 560.136646 
L 347.071238 541.626309 
L 353.237214 522.665086 
L 365.569165 483.625517 
L 377.901117 443.528489 
L 408.730996 342.441442 
L 421.062948 303.273844 
L 427.228924 284.26961 
L 433.3949 265.751346 
L 439.560876 247.791097 
L 445.726852 230.458182 
L 451.892827 213.818729 
L 458.058803 197.935242 
L 464.224779 182.866209 
L 470.390755 168.665757 
L 476.556731 155.383347 
L 482.722707 143.063518 
L 488.888683 131.745681 
L 495.054658 121.463956 
L 501.220634 112.247059 
L 507.38661 104.118241 
L 513.552586 97.095266 
L 519.718562 91.190435 
L 525.884538 86.410654 
L 532.050513 82.757545 
L 538.216489 80.22758 
L 544.382465 78.812267 
L 550.548441 78.498354 
L 556.714417 79.268065 
L 562.880393 81.099357 
L 569.046369 83.966201 
L 575.212344 87.838878 
L 581.37832 92.684283 
L 587.544296 98.466253 
L 593.710272 105.14588 
L 599.876248 112.681852 
L 606.042224 121.030773 
L 612.2082 130.147492 
L 618.374175 139.98543 
L 624.540151 150.496887 
L 630.706127 161.633351 
L 636.872103 173.345794 
L 643.038079 185.584949 
L 649.204055 198.301578 
L 655.370031 211.446728 
L 661.536006 224.971958 
L 667.701982 238.829564 
L 680.033934 267.355936 
L 692.365886 296.666039 
L 717.029789 356.31546 
L 735.527717 400.802423 
L 747.859668 429.872023 
L 760.19162 458.229731 
L 772.523572 485.704269 
L 778.689548 499.0652 
L 784.855523 512.154848 
L 791.021499 524.960128 
L 797.187475 537.469655 
L 803.353451 549.673669 
L 809.519427 561.563969 
L 815.685403 573.13384 
L 821.851379 584.377974 
L 828.017354 595.292399 
L 834.18333 605.874393 
L 840.349306 616.122414 
L 846.515282 626.036017 
L 852.681258 635.615778 
L 858.847234 644.863215 
L 865.01321 653.780718 
L 871.179185 662.37147 
L 877.345161 670.63938 
L 883.511137 678.589011 
L 889.677113 686.225514 
L 895.843089 693.554567 
L 902.009065 700.582306 
L 908.17504 707.315277 
L 914.341016 713.760372 
L 920.506992 719.924779 
L 926.672968 725.815936 
L 932.838944 731.44148 
L 939.00492 736.809206 
L 945.170896 741.927026 
L 951.336871 746.80293 
L 957.502847 751.444956 
L 963.668823 755.861152 
L 969.834799 760.059551 
L 976.000775 764.048143 
L 982.166751 767.834851 
L 988.332727 771.42751 
L 994.498702 774.833847 
L 1000.664678 778.061463 
L 1006.830654 781.11782 
L 1012.99663 784.010225 
L 1019.162606 786.74582 
L 1025.328582 789.331575 
L 1031.494558 791.774273 
L 1037.660533 794.080511 
L 1043.826509 796.256689 
L 1049.992485 798.309011 
L 1062.324437 802.06588 
L 1074.656388 805.396681 
L 1086.98834 808.343715 
L 1099.320292 810.946064 
L 1111.652244 813.239667 
L 1123.984195 815.257433 
L 1136.316147 817.029373 
L 1148.648099 818.582756 
L 1160.98005 819.942267 
L 1173.312002 821.130181 
L 1191.80993 822.633568 
L 1210.307857 823.85453 
L 1228.805785 824.842929 
L 1247.303712 825.6406 
L 1271.967616 826.46695 
L 1296.631519 827.082402 
L 1327.461398 827.632712 
L 1364.457254 828.068036 
L 1364.457254 828.068036 
" style="fill:none;stroke:#8c564b;stroke-linecap:square;stroke-width:2;"/>
   </g>
   <g id="line2d_19">
    <path clip-path="url(#pdd8c0a52b7)" d="M 137.428059 808.236296 
L 143.594035 806.137856 
L 149.760011 803.858549 
L 155.925987 801.386594 
L 162.091962 798.709843 
L 168.257938 795.815821 
L 174.423914 792.691756 
L 180.58989 789.324628 
L 186.755866 785.701217 
L 192.921842 781.808157 
L 199.087817 777.632 
L 205.253793 773.159282 
L 211.419769 768.376598 
L 217.585745 763.270683 
L 223.751721 757.828494 
L 229.917697 752.03731 
L 236.083673 745.884819 
L 242.249648 739.359231 
L 248.415624 732.449376 
L 254.5816 725.144822 
L 260.747576 717.435986 
L 266.913552 709.314255 
L 273.079528 700.772102 
L 279.245504 691.803211 
L 285.411479 682.402596 
L 291.577455 672.566723 
L 297.743431 662.293628 
L 303.909407 651.583037 
L 310.075383 640.436472 
L 316.241359 628.857364 
L 322.407335 616.851153 
L 328.57331 604.425379 
L 334.739286 591.589766 
L 340.905262 578.356303 
L 347.071238 564.739296 
L 353.237214 550.755431 
L 359.40319 536.423801 
L 365.569165 521.765933 
L 377.901117 491.569789 
L 390.233069 460.387736 
L 402.565021 428.478123 
L 445.726852 315.57858 
L 458.058803 284.44283 
L 464.224779 269.301615 
L 470.390755 254.510874 
L 476.556731 240.120094 
L 482.722707 226.178402 
L 488.888683 212.734293 
L 495.054658 199.835353 
L 501.220634 187.527978 
L 507.38661 175.857095 
L 513.552586 164.865897 
L 519.718562 154.595572 
L 525.884538 145.085048 
L 532.050513 136.370747 
L 538.216489 128.486353 
L 544.382465 121.462599 
L 550.548441 115.32706 
L 556.714417 110.103979 
L 562.880393 105.814104 
L 569.046369 102.474555 
L 575.212344 100.098703 
L 581.37832 98.696089 
L 587.544296 98.272352 
L 593.710272 98.8292 
L 599.876248 100.36439 
L 606.042224 102.871749 
L 612.2082 106.341214 
L 618.374175 110.758896 
L 624.540151 116.107178 
L 630.706127 122.364828 
L 636.872103 129.50714 
L 643.038079 137.506099 
L 649.204055 146.33056 
L 655.370031 155.946454 
L 661.536006 166.317005 
L 667.701982 177.402962 
L 673.867958 189.162851 
L 680.033934 201.553228 
L 686.19991 214.528948 
L 692.365886 228.04344 
L 698.531862 242.048977 
L 704.697837 256.496962 
L 710.863813 271.338202 
L 723.195765 302.002348 
L 735.527717 333.646296 
L 754.025644 382.105184 
L 772.523572 430.661872 
L 784.855523 462.530998 
L 797.187475 493.653872 
L 809.519427 523.774642 
L 815.685403 538.389562 
L 821.851379 552.675178 
L 828.017354 566.610293 
L 834.18333 580.176143 
L 840.349306 593.35637 
L 846.515282 606.136982 
L 852.681258 618.506304 
L 858.847234 630.454913 
L 865.01321 641.975558 
L 871.179185 653.06308 
L 877.345161 663.714311 
L 883.511137 673.92798 
L 889.677113 683.704597 
L 895.843089 693.046347 
L 902.009065 701.956967 
L 908.17504 710.441631 
L 914.341016 718.506828 
L 920.506992 726.160237 
L 926.672968 733.410612 
L 932.838944 740.267657 
L 939.00492 746.741912 
L 945.170896 752.844636 
L 951.336871 758.587697 
L 957.502847 763.983468 
L 963.668823 769.04472 
L 969.834799 773.784531 
L 976.000775 778.21619 
L 982.166751 782.353114 
L 988.332727 786.20877 
L 994.498702 789.796598 
L 1000.664678 793.129948 
L 1006.830654 796.222017 
L 1012.99663 799.085792 
L 1019.162606 801.734008 
L 1025.328582 804.179098 
L 1031.494558 806.433162 
L 1037.660533 808.50793 
L 1043.826509 810.414739 
L 1049.992485 812.164512 
L 1056.158461 813.767739 
L 1062.324437 815.234464 
L 1068.490413 816.574282 
L 1080.822364 818.909277 
L 1093.154316 820.840313 
L 1105.486268 822.427759 
L 1117.818219 823.72501 
L 1130.150171 824.778857 
L 1142.482123 825.629935 
L 1160.98005 826.601489 
L 1179.477978 827.291425 
L 1197.975906 827.775006 
L 1222.639809 828.195748 
L 1253.469688 828.492088 
L 1302.797495 828.69318 
L 1364.457254 828.762414 
L 1364.457254 828.762414 
" style="fill:none;stroke:#e377c2;stroke-linecap:square;stroke-width:2;"/>
   </g>
   <g id="patch_103">
    <path d="M 72.685313 828.779375 
L 72.685313 38.075625 
" style="fill:none;stroke:#000000;stroke-linecap:square;stroke-linejoin:miter;stroke-width:0.8;"/>
   </g>
   <g id="patch_104">
    <path d="M 1429.2 828.779375 
L 1429.2 38.075625 
" style="fill:none;stroke:#000000;stroke-linecap:square;stroke-linejoin:miter;stroke-width:0.8;"/>
   </g>
   <g id="patch_105">
    <path d="M 72.685313 828.779375 
L 1429.2 828.779375 
" style="fill:none;stroke:#000000;stroke-linecap:square;stroke-linejoin:miter;stroke-width:0.8;"/>
   </g>
   <g id="patch_106">
    <path d="M 72.685313 38.075625 
L 1429.2 38.075625 
" style="fill:none;stroke:#000000;stroke-linecap:square;stroke-linejoin:miter;stroke-width:0.8;"/>
   </g>
   <g id="text_15">
    <!-- All Fitted Distributions -->
    <g transform="translate(596.317031 32.075625)scale(0.28 -0.28)">
     <defs>
      <path d="M 2188 4044 
L 1331 1722 
L 3047 1722 
L 2188 4044 
z
M 1831 4666 
L 2547 4666 
L 4325 0 
L 3669 0 
L 3244 1197 
L 1141 1197 
L 716 0 
L 50 0 
L 1831 4666 
z
" id="DejaVuSans-41" transform="scale(0.015625)"/>
      <path d="M 603 4863 
L 1178 4863 
L 1178 0 
L 603 0 
L 603 4863 
z
" id="DejaVuSans-6c" transform="scale(0.015625)"/>
      <path d="M 628 4666 
L 3309 4666 
L 3309 4134 
L 1259 4134 
L 1259 2759 
L 3109 2759 
L 3109 2228 
L 1259 2228 
L 1259 0 
L 628 0 
L 628 4666 
z
" id="DejaVuSans-46" transform="scale(0.015625)"/>
      <path d="M 1259 4147 
L 1259 519 
L 2022 519 
Q 2988 519 3436 956 
Q 3884 1394 3884 2338 
Q 3884 3275 3436 3711 
Q 2988 4147 2022 4147 
L 1259 4147 
z
M 628 4666 
L 1925 4666 
Q 3281 4666 3915 4102 
Q 4550 3538 4550 2338 
Q 4550 1131 3912 565 
Q 3275 0 1925 0 
L 628 0 
L 628 4666 
z
" id="DejaVuSans-44" transform="scale(0.015625)"/>
      <path d="M 3116 1747 
Q 3116 2381 2855 2742 
Q 2594 3103 2138 3103 
Q 1681 3103 1420 2742 
Q 1159 2381 1159 1747 
Q 1159 1113 1420 752 
Q 1681 391 2138 391 
Q 2594 391 2855 752 
Q 3116 1113 3116 1747 
z
M 1159 2969 
Q 1341 3281 1617 3432 
Q 1894 3584 2278 3584 
Q 2916 3584 3314 3078 
Q 3713 2572 3713 1747 
Q 3713 922 3314 415 
Q 2916 -91 2278 -91 
Q 1894 -91 1617 61 
Q 1341 213 1159 525 
L 1159 0 
L 581 0 
L 581 4863 
L 1159 4863 
L 1159 2969 
z
" id="DejaVuSans-62" transform="scale(0.015625)"/>
     </defs>
     <use xlink:href="#DejaVuSans-41"/>
     <use x="68.408203" xlink:href="#DejaVuSans-6c"/>
     <use x="96.191406" xlink:href="#DejaVuSans-6c"/>
     <use x="123.974609" xlink:href="#DejaVuSans-20"/>
     <use x="155.761719" xlink:href="#DejaVuSans-46"/>
     <use x="206.03125" xlink:href="#DejaVuSans-69"/>
     <use x="233.814453" xlink:href="#DejaVuSans-74"/>
     <use x="273.023438" xlink:href="#DejaVuSans-74"/>
     <use x="312.232422" xlink:href="#DejaVuSans-65"/>
     <use x="373.755859" xlink:href="#DejaVuSans-64"/>
     <use x="437.232422" xlink:href="#DejaVuSans-20"/>
     <use x="469.019531" xlink:href="#DejaVuSans-44"/>
     <use x="546.021484" xlink:href="#DejaVuSans-69"/>
     <use x="573.804688" xlink:href="#DejaVuSans-73"/>
     <use x="625.904297" xlink:href="#DejaVuSans-74"/>
     <use x="665.113281" xlink:href="#DejaVuSans-72"/>
     <use x="706.226562" xlink:href="#DejaVuSans-69"/>
     <use x="734.009766" xlink:href="#DejaVuSans-62"/>
     <use x="797.486328" xlink:href="#DejaVuSans-75"/>
     <use x="860.865234" xlink:href="#DejaVuSans-74"/>
     <use x="900.074219" xlink:href="#DejaVuSans-69"/>
     <use x="927.857422" xlink:href="#DejaVuSans-6f"/>
     <use x="989.039062" xlink:href="#DejaVuSans-6e"/>
     <use x="1052.417969" xlink:href="#DejaVuSans-73"/>
    </g>
   </g>
   <g id="legend_1">
    <g id="patch_107">
     <path d="M 1014.37125 303.868125 
L 1412.4 303.868125 
Q 1417.2 303.868125 1417.2 299.068125 
L 1417.2 54.875625 
Q 1417.2 50.075625 1412.4 50.075625 
L 1014.37125 50.075625 
Q 1009.57125 50.075625 1009.57125 54.875625 
L 1009.57125 299.068125 
Q 1009.57125 303.868125 1014.37125 303.868125 
z
" style="fill:#ffffff;opacity:0.8;stroke:#cccccc;stroke-linejoin:miter;"/>
    </g>
    <g id="line2d_20">
     <path d="M 1019.17125 69.511875 
L 1067.17125 69.511875 
" style="fill:none;stroke:#ff7f0e;stroke-linecap:square;stroke-width:2;"/>
    </g>
    <g id="line2d_21"/>
    <g id="text_16">
     <!-- Chi fit -->
     <g transform="translate(1086.37125 77.911875)scale(0.24 -0.24)">
      <defs>
       <path d="M 3513 2113 
L 3513 0 
L 2938 0 
L 2938 2094 
Q 2938 2591 2744 2837 
Q 2550 3084 2163 3084 
Q 1697 3084 1428 2787 
Q 1159 2491 1159 1978 
L 1159 0 
L 581 0 
L 581 4863 
L 1159 4863 
L 1159 2956 
Q 1366 3272 1645 3428 
Q 1925 3584 2291 3584 
Q 2894 3584 3203 3211 
Q 3513 2838 3513 2113 
z
" id="DejaVuSans-68" transform="scale(0.015625)"/>
       <path d="M 2375 4863 
L 2375 4384 
L 1825 4384 
Q 1516 4384 1395 4259 
Q 1275 4134 1275 3809 
L 1275 3500 
L 2222 3500 
L 2222 3053 
L 1275 3053 
L 1275 0 
L 697 0 
L 697 3053 
L 147 3053 
L 147 3500 
L 697 3500 
L 697 3744 
Q 697 4328 969 4595 
Q 1241 4863 1831 4863 
L 2375 4863 
z
" id="DejaVuSans-66" transform="scale(0.015625)"/>
      </defs>
      <use xlink:href="#DejaVuSans-43"/>
      <use x="69.824219" xlink:href="#DejaVuSans-68"/>
      <use x="133.203125" xlink:href="#DejaVuSans-69"/>
      <use x="160.986328" xlink:href="#DejaVuSans-20"/>
      <use x="192.773438" xlink:href="#DejaVuSans-66"/>
      <use x="227.978516" xlink:href="#DejaVuSans-69"/>
      <use x="255.761719" xlink:href="#DejaVuSans-74"/>
     </g>
    </g>
    <g id="line2d_22">
     <path d="M 1019.17125 104.739375 
L 1067.17125 104.739375 
" style="fill:none;stroke:#2ca02c;stroke-linecap:square;stroke-width:2;"/>
    </g>
    <g id="line2d_23"/>
    <g id="text_17">
     <!-- Chi-Square fit -->
     <g transform="translate(1086.37125 113.139375)scale(0.24 -0.24)">
      <defs>
       <path d="M 313 2009 
L 1997 2009 
L 1997 1497 
L 313 1497 
L 313 2009 
z
" id="DejaVuSans-2d" transform="scale(0.015625)"/>
       <path d="M 3425 4513 
L 3425 3897 
Q 3066 4069 2747 4153 
Q 2428 4238 2131 4238 
Q 1616 4238 1336 4038 
Q 1056 3838 1056 3469 
Q 1056 3159 1242 3001 
Q 1428 2844 1947 2747 
L 2328 2669 
Q 3034 2534 3370 2195 
Q 3706 1856 3706 1288 
Q 3706 609 3251 259 
Q 2797 -91 1919 -91 
Q 1588 -91 1214 -16 
Q 841 59 441 206 
L 441 856 
Q 825 641 1194 531 
Q 1563 422 1919 422 
Q 2459 422 2753 634 
Q 3047 847 3047 1241 
Q 3047 1584 2836 1778 
Q 2625 1972 2144 2069 
L 1759 2144 
Q 1053 2284 737 2584 
Q 422 2884 422 3419 
Q 422 4038 858 4394 
Q 1294 4750 2059 4750 
Q 2388 4750 2728 4690 
Q 3069 4631 3425 4513 
z
" id="DejaVuSans-53" transform="scale(0.015625)"/>
       <path d="M 947 1747 
Q 947 1113 1208 752 
Q 1469 391 1925 391 
Q 2381 391 2643 752 
Q 2906 1113 2906 1747 
Q 2906 2381 2643 2742 
Q 2381 3103 1925 3103 
Q 1469 3103 1208 2742 
Q 947 2381 947 1747 
z
M 2906 525 
Q 2725 213 2448 61 
Q 2172 -91 1784 -91 
Q 1150 -91 751 415 
Q 353 922 353 1747 
Q 353 2572 751 3078 
Q 1150 3584 1784 3584 
Q 2172 3584 2448 3432 
Q 2725 3281 2906 2969 
L 2906 3500 
L 3481 3500 
L 3481 -1331 
L 2906 -1331 
L 2906 525 
z
" id="DejaVuSans-71" transform="scale(0.015625)"/>
       <path d="M 2194 1759 
Q 1497 1759 1228 1600 
Q 959 1441 959 1056 
Q 959 750 1161 570 
Q 1363 391 1709 391 
Q 2188 391 2477 730 
Q 2766 1069 2766 1631 
L 2766 1759 
L 2194 1759 
z
M 3341 1997 
L 3341 0 
L 2766 0 
L 2766 531 
Q 2569 213 2275 61 
Q 1981 -91 1556 -91 
Q 1019 -91 701 211 
Q 384 513 384 1019 
Q 384 1609 779 1909 
Q 1175 2209 1959 2209 
L 2766 2209 
L 2766 2266 
Q 2766 2663 2505 2880 
Q 2244 3097 1772 3097 
Q 1472 3097 1187 3025 
Q 903 2953 641 2809 
L 641 3341 
Q 956 3463 1253 3523 
Q 1550 3584 1831 3584 
Q 2591 3584 2966 3190 
Q 3341 2797 3341 1997 
z
" id="DejaVuSans-61" transform="scale(0.015625)"/>
      </defs>
      <use xlink:href="#DejaVuSans-43"/>
      <use x="69.824219" xlink:href="#DejaVuSans-68"/>
      <use x="133.203125" xlink:href="#DejaVuSans-69"/>
      <use x="160.986328" xlink:href="#DejaVuSans-2d"/>
      <use x="197.070312" xlink:href="#DejaVuSans-53"/>
      <use x="260.546875" xlink:href="#DejaVuSans-71"/>
      <use x="324.023438" xlink:href="#DejaVuSans-75"/>
      <use x="387.402344" xlink:href="#DejaVuSans-61"/>
      <use x="448.681641" xlink:href="#DejaVuSans-72"/>
      <use x="487.544922" xlink:href="#DejaVuSans-65"/>
      <use x="549.068359" xlink:href="#DejaVuSans-20"/>
      <use x="580.855469" xlink:href="#DejaVuSans-66"/>
      <use x="616.060547" xlink:href="#DejaVuSans-69"/>
      <use x="643.84375" xlink:href="#DejaVuSans-74"/>
     </g>
    </g>
    <g id="line2d_24">
     <path d="M 1019.17125 139.966875 
L 1067.17125 139.966875 
" style="fill:none;stroke:#d62728;stroke-linecap:square;stroke-width:2;"/>
    </g>
    <g id="line2d_25"/>
    <g id="text_18">
     <!-- Exponential fit -->
     <g transform="translate(1086.37125 148.366875)scale(0.24 -0.24)">
      <defs>
       <path d="M 628 4666 
L 3578 4666 
L 3578 4134 
L 1259 4134 
L 1259 2753 
L 3481 2753 
L 3481 2222 
L 1259 2222 
L 1259 531 
L 3634 531 
L 3634 0 
L 628 0 
L 628 4666 
z
" id="DejaVuSans-45" transform="scale(0.015625)"/>
       <path d="M 3513 3500 
L 2247 1797 
L 3578 0 
L 2900 0 
L 1881 1375 
L 863 0 
L 184 0 
L 1544 1831 
L 300 3500 
L 978 3500 
L 1906 2253 
L 2834 3500 
L 3513 3500 
z
" id="DejaVuSans-78" transform="scale(0.015625)"/>
       <path d="M 1159 525 
L 1159 -1331 
L 581 -1331 
L 581 3500 
L 1159 3500 
L 1159 2969 
Q 1341 3281 1617 3432 
Q 1894 3584 2278 3584 
Q 2916 3584 3314 3078 
Q 3713 2572 3713 1747 
Q 3713 922 3314 415 
Q 2916 -91 2278 -91 
Q 1894 -91 1617 61 
Q 1341 213 1159 525 
z
M 3116 1747 
Q 3116 2381 2855 2742 
Q 2594 3103 2138 3103 
Q 1681 3103 1420 2742 
Q 1159 2381 1159 1747 
Q 1159 1113 1420 752 
Q 1681 391 2138 391 
Q 2594 391 2855 752 
Q 3116 1113 3116 1747 
z
" id="DejaVuSans-70" transform="scale(0.015625)"/>
      </defs>
      <use xlink:href="#DejaVuSans-45"/>
      <use x="63.183594" xlink:href="#DejaVuSans-78"/>
      <use x="122.363281" xlink:href="#DejaVuSans-70"/>
      <use x="185.839844" xlink:href="#DejaVuSans-6f"/>
      <use x="247.021484" xlink:href="#DejaVuSans-6e"/>
      <use x="310.400391" xlink:href="#DejaVuSans-65"/>
      <use x="371.923828" xlink:href="#DejaVuSans-6e"/>
      <use x="435.302734" xlink:href="#DejaVuSans-74"/>
      <use x="474.511719" xlink:href="#DejaVuSans-69"/>
      <use x="502.294922" xlink:href="#DejaVuSans-61"/>
      <use x="563.574219" xlink:href="#DejaVuSans-6c"/>
      <use x="591.357422" xlink:href="#DejaVuSans-20"/>
      <use x="623.144531" xlink:href="#DejaVuSans-66"/>
      <use x="658.349609" xlink:href="#DejaVuSans-69"/>
      <use x="686.132812" xlink:href="#DejaVuSans-74"/>
     </g>
    </g>
    <g id="line2d_26">
     <path d="M 1019.17125 175.194375 
L 1067.17125 175.194375 
" style="fill:none;stroke:#9467bd;stroke-linecap:square;stroke-width:2;"/>
    </g>
    <g id="line2d_27"/>
    <g id="text_19">
     <!-- Laplace fit -->
     <g transform="translate(1086.37125 183.594375)scale(0.24 -0.24)">
      <defs>
       <path d="M 628 4666 
L 1259 4666 
L 1259 531 
L 3531 531 
L 3531 0 
L 628 0 
L 628 4666 
z
" id="DejaVuSans-4c" transform="scale(0.015625)"/>
       <path d="M 3122 3366 
L 3122 2828 
Q 2878 2963 2633 3030 
Q 2388 3097 2138 3097 
Q 1578 3097 1268 2742 
Q 959 2388 959 1747 
Q 959 1106 1268 751 
Q 1578 397 2138 397 
Q 2388 397 2633 464 
Q 2878 531 3122 666 
L 3122 134 
Q 2881 22 2623 -34 
Q 2366 -91 2075 -91 
Q 1284 -91 818 406 
Q 353 903 353 1747 
Q 353 2603 823 3093 
Q 1294 3584 2113 3584 
Q 2378 3584 2631 3529 
Q 2884 3475 3122 3366 
z
" id="DejaVuSans-63" transform="scale(0.015625)"/>
      </defs>
      <use xlink:href="#DejaVuSans-4c"/>
      <use x="55.712891" xlink:href="#DejaVuSans-61"/>
      <use x="116.992188" xlink:href="#DejaVuSans-70"/>
      <use x="180.46875" xlink:href="#DejaVuSans-6c"/>
      <use x="208.251953" xlink:href="#DejaVuSans-61"/>
      <use x="269.53125" xlink:href="#DejaVuSans-63"/>
      <use x="324.511719" xlink:href="#DejaVuSans-65"/>
      <use x="386.035156" xlink:href="#DejaVuSans-20"/>
      <use x="417.822266" xlink:href="#DejaVuSans-66"/>
      <use x="453.027344" xlink:href="#DejaVuSans-69"/>
      <use x="480.810547" xlink:href="#DejaVuSans-74"/>
     </g>
    </g>
    <g id="line2d_28">
     <path d="M 1019.17125 210.421875 
L 1067.17125 210.421875 
" style="fill:none;stroke:#8c564b;stroke-linecap:square;stroke-width:2;"/>
    </g>
    <g id="line2d_29"/>
    <g id="text_20">
     <!-- LogNorm fit -->
     <g transform="translate(1086.37125 218.821875)scale(0.24 -0.24)">
      <defs>
       <path d="M 2906 1791 
Q 2906 2416 2648 2759 
Q 2391 3103 1925 3103 
Q 1463 3103 1205 2759 
Q 947 2416 947 1791 
Q 947 1169 1205 825 
Q 1463 481 1925 481 
Q 2391 481 2648 825 
Q 2906 1169 2906 1791 
z
M 3481 434 
Q 3481 -459 3084 -895 
Q 2688 -1331 1869 -1331 
Q 1566 -1331 1297 -1286 
Q 1028 -1241 775 -1147 
L 775 -588 
Q 1028 -725 1275 -790 
Q 1522 -856 1778 -856 
Q 2344 -856 2625 -561 
Q 2906 -266 2906 331 
L 2906 616 
Q 2728 306 2450 153 
Q 2172 0 1784 0 
Q 1141 0 747 490 
Q 353 981 353 1791 
Q 353 2603 747 3093 
Q 1141 3584 1784 3584 
Q 2172 3584 2450 3431 
Q 2728 3278 2906 2969 
L 2906 3500 
L 3481 3500 
L 3481 434 
z
" id="DejaVuSans-67" transform="scale(0.015625)"/>
      </defs>
      <use xlink:href="#DejaVuSans-4c"/>
      <use x="53.962891" xlink:href="#DejaVuSans-6f"/>
      <use x="115.144531" xlink:href="#DejaVuSans-67"/>
      <use x="178.621094" xlink:href="#DejaVuSans-4e"/>
      <use x="253.425781" xlink:href="#DejaVuSans-6f"/>
      <use x="314.607422" xlink:href="#DejaVuSans-72"/>
      <use x="353.970703" xlink:href="#DejaVuSans-6d"/>
      <use x="451.382812" xlink:href="#DejaVuSans-20"/>
      <use x="483.169922" xlink:href="#DejaVuSans-66"/>
      <use x="518.375" xlink:href="#DejaVuSans-69"/>
      <use x="546.158203" xlink:href="#DejaVuSans-74"/>
     </g>
    </g>
    <g id="line2d_30">
     <path d="M 1019.17125 245.649375 
L 1067.17125 245.649375 
" style="fill:none;stroke:#e377c2;stroke-linecap:square;stroke-width:2;"/>
    </g>
    <g id="line2d_31"/>
    <g id="text_21">
     <!-- Normal fit -->
     <g transform="translate(1086.37125 254.049375)scale(0.24 -0.24)">
      <use xlink:href="#DejaVuSans-4e"/>
      <use x="74.804688" xlink:href="#DejaVuSans-6f"/>
      <use x="135.986328" xlink:href="#DejaVuSans-72"/>
      <use x="175.349609" xlink:href="#DejaVuSans-6d"/>
      <use x="272.761719" xlink:href="#DejaVuSans-61"/>
      <use x="334.041016" xlink:href="#DejaVuSans-6c"/>
      <use x="361.824219" xlink:href="#DejaVuSans-20"/>
      <use x="393.611328" xlink:href="#DejaVuSans-66"/>
      <use x="428.816406" xlink:href="#DejaVuSans-69"/>
      <use x="456.599609" xlink:href="#DejaVuSans-74"/>
     </g>
    </g>
    <g id="patch_108">
     <path d="M 1019.17125 289.276875 
L 1067.17125 289.276875 
L 1067.17125 272.476875 
L 1019.17125 272.476875 
z
" style="fill:#1f77b4;opacity:0.6;"/>
    </g>
    <g id="text_22">
     <!-- Generated Chi Distribution -->
     <g transform="translate(1086.37125 289.276875)scale(0.24 -0.24)">
      <defs>
       <path d="M 3809 666 
L 3809 1919 
L 2778 1919 
L 2778 2438 
L 4434 2438 
L 4434 434 
Q 4069 175 3628 42 
Q 3188 -91 2688 -91 
Q 1594 -91 976 548 
Q 359 1188 359 2328 
Q 359 3472 976 4111 
Q 1594 4750 2688 4750 
Q 3144 4750 3555 4637 
Q 3966 4525 4313 4306 
L 4313 3634 
Q 3963 3931 3569 4081 
Q 3175 4231 2741 4231 
Q 1884 4231 1454 3753 
Q 1025 3275 1025 2328 
Q 1025 1384 1454 906 
Q 1884 428 2741 428 
Q 3075 428 3337 486 
Q 3600 544 3809 666 
z
" id="DejaVuSans-47" transform="scale(0.015625)"/>
      </defs>
      <use xlink:href="#DejaVuSans-47"/>
      <use x="77.490234" xlink:href="#DejaVuSans-65"/>
      <use x="139.013672" xlink:href="#DejaVuSans-6e"/>
      <use x="202.392578" xlink:href="#DejaVuSans-65"/>
      <use x="263.916016" xlink:href="#DejaVuSans-72"/>
      <use x="305.029297" xlink:href="#DejaVuSans-61"/>
      <use x="366.308594" xlink:href="#DejaVuSans-74"/>
      <use x="405.517578" xlink:href="#DejaVuSans-65"/>
      <use x="467.041016" xlink:href="#DejaVuSans-64"/>
      <use x="530.517578" xlink:href="#DejaVuSans-20"/>
      <use x="562.304688" xlink:href="#DejaVuSans-43"/>
      <use x="632.128906" xlink:href="#DejaVuSans-68"/>
      <use x="695.507812" xlink:href="#DejaVuSans-69"/>
      <use x="723.291016" xlink:href="#DejaVuSans-20"/>
      <use x="755.078125" xlink:href="#DejaVuSans-44"/>
      <use x="832.080078" xlink:href="#DejaVuSans-69"/>
      <use x="859.863281" xlink:href="#DejaVuSans-73"/>
      <use x="911.962891" xlink:href="#DejaVuSans-74"/>
      <use x="951.171875" xlink:href="#DejaVuSans-72"/>
      <use x="992.285156" xlink:href="#DejaVuSans-69"/>
      <use x="1020.068359" xlink:href="#DejaVuSans-62"/>
      <use x="1083.544922" xlink:href="#DejaVuSans-75"/>
      <use x="1146.923828" xlink:href="#DejaVuSans-74"/>
      <use x="1186.132812" xlink:href="#DejaVuSans-69"/>
      <use x="1213.916016" xlink:href="#DejaVuSans-6f"/>
      <use x="1275.097656" xlink:href="#DejaVuSans-6e"/>
     </g>
    </g>
   </g>
  </g>
 </g>
 <defs>
  <clipPath id="pdd8c0a52b7">
   <rect height="790.70375" width="1356.514688" x="72.685313" y="38.075625"/>
  </clipPath>
 </defs>
</svg>
